<svg width="385" height="284" viewBox="0 0 385 284" fill="none" xmlns="http://www.w3.org/2000/svg">
<path style="mix-blend-mode:multiply" opacity="0.6" d="M192.598 272.402C298.857 272.402 384.997 267.016 384.997 260.371C384.997 253.726 298.857 248.34 192.598 248.34C86.3392 248.34 0.199219 253.726 0.199219 260.371C0.199219 267.016 86.3392 272.402 192.598 272.402Z" fill="url(#paint0_radial_3609_31019)"/>
<path style="mix-blend-mode:multiply" opacity="0.5" d="M92.7539 269.693C121.296 269.693 144.434 267.065 144.434 263.823C144.434 260.581 121.296 257.953 92.7539 257.953C64.212 257.953 41.0742 260.581 41.0742 263.823C41.0742 267.065 64.212 269.693 92.7539 269.693Z" fill="url(#paint1_radial_3609_31019)"/>
<path style="mix-blend-mode:multiply" opacity="0.4" d="M175.719 282.107C204.261 282.107 227.398 279.479 227.398 276.237C227.398 272.995 204.261 270.367 175.719 270.367C147.177 270.367 124.039 272.995 124.039 276.237C124.039 279.479 147.177 282.107 175.719 282.107Z" fill="url(#paint2_radial_3609_31019)"/>
<path d="M237.667 147.174C237.329 139.409 236.55 130.837 235.338 121.446C234.18 112.462 232.826 104.195 231.269 96.666C229.719 89.1371 227.796 82.6509 225.507 77.2074C223.226 71.7638 220.511 67.5458 217.376 64.5464C214.241 61.5538 210.551 60.0508 206.306 60.0508C202.806 60.0508 199.915 61.1002 197.626 63.2059L185.398 74.445C187.687 72.3393 190.585 71.2899 194.078 71.2899C198.33 71.2899 202.02 72.7862 205.148 75.7856C208.283 78.7781 210.991 82.9962 213.28 88.4465C215.561 93.8833 217.484 100.376 219.041 107.905C220.592 115.434 221.946 123.701 223.11 132.685C224.322 142.069 225.101 150.641 225.44 158.413C225.785 166.186 225.521 172.862 224.661 178.461C223.794 184.06 222.217 188.414 219.915 191.535C219.441 192.178 218.926 192.754 218.371 193.262L230.599 182.022C231.154 181.515 231.668 180.939 232.142 180.296C234.444 177.181 236.029 172.821 236.889 167.222C237.748 161.623 238.012 154.947 237.667 147.174Z" fill="url(#paint3_linear_3609_31019)"/>
<path d="M254.912 201.293C246.618 205.315 236.747 207.326 225.305 207.326C213.862 207.326 202.86 205.261 193.476 201.117C184.086 196.974 175.981 191.124 169.17 183.548C162.352 175.978 156.821 166.933 152.562 156.405C148.303 145.87 145.351 134.224 143.706 121.448C142.027 108.435 142.013 96.7492 143.652 86.3767C145.284 76.0042 148.601 67.2161 153.591 59.9986C155.636 57.0331 157.958 54.3588 160.558 51.9688L148.33 63.2079C145.73 65.5979 143.408 68.2723 141.363 71.2378C136.373 78.4484 133.063 87.2434 131.424 97.6159C129.786 107.988 129.799 119.674 131.478 132.687C133.124 145.463 136.082 157.109 140.334 167.644C144.593 178.172 150.124 187.217 156.942 194.787C163.754 202.356 171.858 208.213 181.249 212.357C190.639 216.5 201.242 218.565 213.077 218.565C224.912 218.565 234.391 216.554 242.685 212.533C247.309 210.292 251.419 207.516 255.021 204.212L267.248 192.972C263.653 196.276 259.543 199.052 254.912 201.293Z" fill="url(#paint4_linear_3609_31019)"/>
<path d="M275.979 86.6735C280.252 97.0054 283.217 108.597 284.869 121.447C286.569 134.616 286.575 146.485 284.883 157.054C283.197 167.622 279.845 176.627 274.862 184.082C269.866 191.529 263.224 197.271 254.923 201.292C246.629 205.314 236.758 207.325 225.315 207.325C213.873 207.325 202.871 205.26 193.487 201.116C184.096 196.973 175.992 191.123 169.181 183.547C162.363 175.977 156.831 166.932 152.573 156.404C148.314 145.869 145.362 134.223 143.717 121.447C142.038 108.434 142.024 96.7481 143.662 86.3756C145.294 76.0031 148.612 67.215 153.602 59.9975C158.585 52.7801 165.22 47.2621 173.5 43.43C181.787 39.6114 191.767 37.6953 203.446 37.6953C215.126 37.6953 225.871 39.6452 235.227 43.5518C244.584 47.4517 252.648 53.0374 259.425 60.2887C266.196 67.5399 271.721 76.3349 275.993 86.6668L275.979 86.6735ZM237.678 147.175C237.34 139.409 236.561 130.838 235.349 121.447C234.192 112.463 232.837 104.196 231.28 96.6669C229.73 89.138 227.807 82.6518 225.519 77.2083C223.237 71.7648 220.522 67.5467 217.387 64.5474C214.252 61.548 210.562 60.0517 206.317 60.0517C198.653 60.0517 193.893 65.0958 192.025 75.1907C190.156 85.2856 190.555 100.695 193.23 121.44C194.564 131.772 196.107 140.879 197.854 148.76C199.608 156.647 201.659 163.276 204.015 168.638C206.365 173.993 209.053 178.056 212.086 180.818C215.105 183.581 218.552 184.962 222.424 184.962C226.602 184.962 229.831 183.404 232.147 180.29C234.449 177.176 236.033 172.815 236.893 167.216C237.753 161.617 238.017 154.941 237.672 147.168" fill="url(#paint5_linear_3609_31019)"/>
<path d="M237.297 121.209C236.133 112.191 234.758 103.809 233.208 96.287C231.637 88.6769 229.66 82.0079 227.338 76.4763C224.968 70.8229 222.084 66.3476 218.766 63.1722C215.279 59.8343 211.109 58.1484 206.369 58.1484C197.689 58.1484 192.246 63.768 190.194 74.8582C188.299 85.1088 188.698 100.871 191.386 121.704C192.72 132.042 194.284 141.291 196.044 149.192C197.818 157.175 199.93 163.979 202.327 169.429C204.778 175.015 207.649 179.328 210.858 182.253C214.23 185.333 218.143 186.897 222.49 186.897C227.284 186.897 231.075 185.063 233.749 181.447C236.227 178.096 237.94 173.41 238.854 167.527C239.735 161.806 239.999 154.934 239.647 147.1C239.308 139.341 238.516 130.634 237.304 121.216L237.297 121.209ZM236.945 167.229C236.078 172.828 234.501 177.182 232.199 180.303C229.89 183.417 226.654 184.975 222.476 184.975C218.604 184.975 215.164 183.593 212.138 180.831C209.111 178.069 206.423 174.006 204.067 168.651C201.711 163.288 199.66 156.66 197.906 148.772C196.152 140.891 194.616 131.785 193.282 121.453C190.607 100.715 190.208 85.2984 192.077 75.2035C193.945 65.1086 198.705 60.0645 206.369 60.0645C210.621 60.0645 214.311 61.5608 217.439 64.5602C220.574 67.5527 223.282 71.7708 225.571 77.2211C227.852 82.6579 229.775 89.1508 231.332 96.6797C232.883 104.209 234.237 112.475 235.401 121.46C236.613 130.844 237.392 139.415 237.73 147.188C238.076 154.961 237.812 161.636 236.952 167.236L236.945 167.229Z" fill="url(#paint6_linear_3609_31019)"/>
<path d="M284.918 121.46C283.259 108.603 280.294 97.0114 276.028 86.6863C271.756 76.3544 266.231 67.5662 259.461 60.3082C252.683 53.0569 244.62 47.4712 235.263 43.5714C225.906 39.6648 215.317 37.7148 203.482 37.7148C191.647 37.7148 181.823 39.6241 173.535 43.4495C165.255 47.2749 158.62 52.7929 153.637 60.0171C148.647 67.2277 145.336 76.0227 143.698 86.3952C142.059 96.7677 142.073 108.454 143.752 121.467C145.397 134.243 148.356 145.888 152.608 156.423C156.866 166.951 162.398 175.997 169.216 183.566C176.027 191.136 184.131 196.992 193.522 201.136C202.913 205.279 213.516 207.344 225.351 207.344C237.185 207.344 246.664 205.334 254.958 201.312C263.259 197.29 269.894 191.549 274.898 184.101C279.887 176.647 283.232 167.642 284.918 157.073C286.611 146.504 286.604 134.635 284.904 121.467L284.918 121.46ZM283.036 156.762C281.404 166.985 278.134 175.821 273.313 183.025C268.526 190.161 262.074 195.726 254.132 199.572C246.136 203.445 236.461 205.415 225.364 205.415C214.267 205.415 203.4 203.377 194.308 199.369C185.208 195.354 177.253 189.606 170.651 182.273C164.016 174.907 158.545 165.963 154.395 155.692C150.218 145.353 147.279 133.755 145.661 121.209C144.016 108.447 143.996 96.8354 145.6 86.6863C147.184 76.6523 150.421 68.0402 155.221 61.1004C159.981 54.2012 166.42 48.8456 174.348 45.1895C182.344 41.5064 192.148 39.6309 203.488 39.6309C214.829 39.6309 225.459 41.5538 234.525 45.3385C243.577 49.1097 251.498 54.5871 258.059 61.6149C264.647 68.6698 270.097 77.3497 274.254 87.4175C278.439 97.5463 281.39 109.077 283.015 121.704C284.681 134.635 284.688 146.436 283.036 156.762Z" fill="url(#paint7_linear_3609_31019)"/>
<path d="M264.176 153.706L254.379 144.965L260.872 154.477L270.669 163.225L264.176 153.706Z" fill="#FFDF3E"/>
<path style="mix-blend-mode:multiply" d="M291.987 173.436C304.822 160.602 308.097 143.068 299.303 134.274C290.509 125.48 272.975 128.755 260.141 141.59C247.307 154.424 244.031 171.957 252.826 180.751C261.62 189.546 279.153 186.27 291.987 173.436Z" fill="url(#paint8_radial_3609_31019)"/>
<path d="M269.469 101.953C269.536 101.967 269.604 101.98 269.679 101.994C269.611 101.98 269.536 101.967 269.469 101.953Z" fill="#A6A6A6"/>
<path d="M267.281 100.828C267.728 101.377 268.453 101.742 269.469 101.946C268.446 101.736 267.735 101.37 267.281 100.828Z" fill="#A6A6A6"/>
<path d="M280.374 77.9586C279.866 77.2138 279.101 76.7737 278.017 76.5842C276.853 76.3811 275.898 76.4623 275.093 76.855C274.185 77.2951 273.373 77.9721 272.614 78.9268C271.768 79.983 270.983 81.31 270.292 82.8537C269.561 84.499 268.857 86.327 268.207 88.2972C267.564 90.2607 267.049 92.1226 266.683 93.8356C266.338 95.4469 266.21 96.8823 266.311 98.1078C266.392 99.1098 266.65 99.9291 267.103 100.593L273.596 110.112C273.569 110.071 273.542 110.017 273.515 109.977L273.772 110.356C274.253 110.938 275.032 111.317 276.162 111.513L272.777 106.551C272.797 105.582 272.926 104.519 273.176 103.362C273.542 101.656 274.057 99.7936 274.7 97.8234C275.35 95.8532 276.047 94.0251 276.785 92.3799C277.476 90.8294 278.261 89.5092 279.107 88.453C279.866 87.4983 280.678 86.8213 281.585 86.3812C282.391 85.9885 283.346 85.9072 284.51 86.1103C285.587 86.2999 286.359 86.74 286.867 87.4848L280.374 77.9654V77.9586Z" fill="url(#paint9_linear_3609_31019)"/>
<path d="M300.934 84.7834C300.568 83.9371 300.128 83.1381 299.614 82.3866L293.121 72.8672C293.635 73.6187 294.075 74.4176 294.441 75.264C295.463 77.6133 295.93 80.3419 295.836 83.3616C295.748 86.3067 295.145 89.5025 294.041 92.8539C292.938 96.2121 291.475 99.2521 289.688 101.886C287.867 104.567 285.741 106.815 283.378 108.568C280.974 110.342 278.313 111.608 275.456 112.312C272.613 113.017 269.6 113.098 266.506 112.556C262.992 111.933 260.094 110.776 257.907 109.096C256.566 108.067 255.436 106.889 254.535 105.569L261.028 115.088C261.929 116.409 263.053 117.587 264.4 118.616C266.587 120.295 269.485 121.459 272.998 122.076C276.093 122.624 279.106 122.543 281.949 121.832C284.806 121.128 287.467 119.862 289.871 118.088C292.234 116.341 294.36 114.093 296.181 111.405C297.968 108.771 299.438 105.731 300.534 102.373C301.638 99.0219 302.241 95.8262 302.329 92.881C302.423 89.8681 301.956 87.1395 300.934 84.7834Z" fill="url(#paint10_linear_3609_31019)"/>
<path d="M341.533 81.3828L348.026 90.9022L270.666 163.225L264.18 153.706L341.533 81.3828Z" fill="url(#paint11_linear_3609_31019)"/>
<path d="M328.814 125.755C328.773 125.694 328.726 125.626 328.678 125.565C328.204 124.949 327.412 124.556 326.241 124.346C325.164 124.157 324.264 124.258 323.485 124.651C322.592 125.105 321.766 125.816 321.028 126.757C320.195 127.82 319.416 129.154 318.726 130.711C317.988 132.363 317.297 134.171 316.661 136.093C315.09 140.873 314.494 144.408 314.887 146.608C315.015 147.326 315.232 147.908 315.543 148.368L322.036 157.888C321.718 157.421 321.501 156.838 321.38 156.127C320.987 153.927 321.589 150.386 323.153 145.613C323.783 143.69 324.481 141.875 325.218 140.23C325.916 138.673 326.688 137.339 327.527 136.276C328.265 135.335 329.091 134.624 329.985 134.171C330.764 133.778 331.664 133.676 332.741 133.866C333.912 134.069 334.704 134.468 335.178 135.085C335.225 135.146 335.273 135.206 335.313 135.274L328.82 125.755H328.814Z" fill="url(#paint12_linear_3609_31019)"/>
<path d="M294.442 75.2636C293.4 72.8736 291.781 70.8559 289.608 69.2581C287.455 67.6738 284.72 66.5905 281.483 66.015C278.186 65.4327 275.051 65.4666 272.16 66.1098C269.249 66.7665 266.548 67.9988 264.144 69.7591C261.781 71.4991 259.669 73.747 257.888 76.4484C256.141 79.0822 254.686 82.156 253.562 85.5887C252.512 88.7844 251.916 91.8718 251.801 94.7696C251.679 97.7418 252.113 100.464 253.094 102.867C254.09 105.311 255.708 107.403 257.908 109.089C260.095 110.768 262.993 111.933 266.507 112.549C269.601 113.097 272.614 113.016 275.458 112.305C278.315 111.601 280.976 110.335 283.379 108.561C285.742 106.814 287.868 104.567 289.689 101.879C291.477 99.2449 292.946 96.2049 294.043 92.8467C295.146 89.4953 295.749 86.2996 295.837 83.3544C295.932 80.3415 295.465 77.613 294.442 75.2568V75.2636ZM279.249 90.2468C278.619 92.1629 277.922 93.9774 277.191 95.6226C276.494 97.1866 275.715 98.5137 274.882 99.5834C274.144 100.525 273.318 101.235 272.424 101.689C271.646 102.089 270.745 102.183 269.669 101.994C269.594 101.98 269.527 101.967 269.459 101.953C269.439 101.953 269.412 101.946 269.391 101.94C269.344 101.933 269.303 101.919 269.256 101.912C269.229 101.912 269.202 101.899 269.181 101.892C269.141 101.885 269.1 101.872 269.066 101.865C269.039 101.858 269.012 101.852 268.985 101.845C268.951 101.838 268.917 101.824 268.883 101.818C268.856 101.811 268.829 101.804 268.802 101.791C268.768 101.777 268.734 101.77 268.701 101.757C268.674 101.75 268.653 101.736 268.626 101.73C268.592 101.716 268.565 101.709 268.531 101.696C268.504 101.689 268.484 101.676 268.457 101.669C268.43 101.655 268.396 101.642 268.369 101.635C268.342 101.621 268.321 101.615 268.301 101.601C268.274 101.588 268.247 101.574 268.22 101.56C268.2 101.547 268.173 101.54 268.152 101.527C268.125 101.513 268.098 101.499 268.071 101.486C268.051 101.472 268.03 101.459 268.003 101.452C267.976 101.439 267.956 101.425 267.929 101.411C267.908 101.398 267.888 101.384 267.868 101.371C267.841 101.357 267.82 101.337 267.8 101.323C267.78 101.31 267.76 101.296 267.746 101.283C267.726 101.269 267.699 101.249 267.678 101.235C267.658 101.222 267.644 101.208 267.624 101.195C267.604 101.181 267.583 101.161 267.563 101.141C267.543 101.127 267.529 101.107 267.509 101.093C267.489 101.073 267.468 101.059 267.455 101.039C267.441 101.026 267.421 101.005 267.407 100.992C267.387 100.971 267.374 100.951 267.353 100.938C267.34 100.924 267.326 100.904 267.286 100.856C267.272 100.836 267.252 100.816 267.238 100.802C266.703 100.105 266.399 99.2314 266.311 98.1345C266.216 96.909 266.338 95.4737 266.683 93.8623C267.049 92.1561 267.563 90.2942 268.206 88.324C268.856 86.3537 269.554 84.5257 270.292 82.8804C270.982 81.33 271.768 80.0097 272.614 78.9535C273.372 77.9989 274.185 77.3218 275.092 76.8817C275.898 76.489 276.852 76.4078 278.017 76.6109C279.771 76.9224 280.698 77.8838 281.03 79.7457C281.416 81.9529 280.82 85.4939 279.249 90.2671V90.2468Z" fill="url(#paint13_linear_3609_31019)"/>
<path d="M331.77 72.5664L254.383 144.971L264.18 153.712L341.533 81.3884L331.77 72.5664Z" fill="url(#paint14_linear_3609_31019)"/>
<path d="M342.816 123.47C341.821 121.026 340.203 118.934 338.002 117.248C335.815 115.569 332.917 114.404 329.404 113.788C326.309 113.24 323.296 113.321 320.453 114.032C317.596 114.743 314.935 116.002 312.531 117.776C310.168 119.523 308.042 121.77 306.221 124.458C304.434 127.092 302.964 130.132 301.861 133.497C300.764 136.842 300.161 140.037 300.067 142.989C299.972 146.002 300.439 148.731 301.461 151.087C302.504 153.47 304.122 155.488 306.296 157.086C308.449 158.67 311.177 159.76 314.42 160.329C317.718 160.911 320.859 160.877 323.743 160.227C326.655 159.57 329.356 158.345 331.76 156.578C334.129 154.838 336.235 152.583 338.022 149.889C339.769 147.248 341.218 144.174 342.342 140.742C343.392 137.546 343.987 134.458 344.102 131.561C344.224 128.595 343.791 125.867 342.809 123.463L342.816 123.47ZM329.227 132.509C328.862 134.215 328.354 136.077 327.704 138.047C327.061 140.01 326.357 141.838 325.626 143.484C324.935 145.034 324.15 146.354 323.303 147.411C322.545 148.365 321.732 149.042 320.825 149.482C320.02 149.875 319.065 149.956 317.9 149.753C316.147 149.442 315.219 148.48 314.887 146.618C314.495 144.418 315.097 140.877 316.661 136.104C317.291 134.181 317.988 132.366 318.726 130.721C319.424 129.164 320.196 127.83 321.028 126.767C321.766 125.826 322.592 125.115 323.486 124.661C324.265 124.269 325.165 124.167 326.242 124.357C327.413 124.56 328.205 124.959 328.679 125.575C329.214 126.273 329.519 127.146 329.6 128.243C329.695 129.469 329.573 130.904 329.227 132.522V132.509Z" fill="url(#paint15_linear_3609_31019)"/>
<path d="M349.312 132.991C348.927 132.037 348.446 131.136 347.87 130.297L341.377 120.777C341.953 121.624 342.434 122.517 342.819 123.472C343.794 125.876 344.228 128.604 344.113 131.57C343.998 134.467 343.402 137.555 342.352 140.75C341.228 144.176 339.773 147.257 338.033 149.898C336.245 152.592 334.14 154.84 331.77 156.587C329.366 158.354 326.665 159.579 323.754 160.236C320.869 160.886 317.735 160.92 314.431 160.338C311.194 159.769 308.459 158.672 306.306 157.095C304.898 156.059 303.726 154.847 302.785 153.479L309.278 162.999C310.212 164.373 311.391 165.585 312.799 166.614C314.952 168.198 317.68 169.288 320.923 169.857C324.221 170.439 327.362 170.406 330.247 169.756C333.158 169.099 335.859 167.873 338.263 166.106C340.633 164.366 342.738 162.112 344.526 159.417C346.272 156.776 347.721 153.703 348.845 150.27C349.895 147.074 350.49 143.987 350.606 141.089C350.727 138.124 350.294 135.395 349.312 132.991Z" fill="url(#paint16_linear_3609_31019)"/>
<path d="M278.346 74.694C277.832 74.606 277.331 74.5586 276.864 74.5586C275.909 74.5586 275.029 74.7482 274.25 75.1273C273.079 75.696 272.05 76.5424 271.109 77.7272C270.161 78.9121 269.294 80.3745 268.536 82.0739C267.771 83.7869 267.046 85.6826 266.383 87.7003C265.719 89.7179 265.191 91.6475 264.805 93.4349C264.419 95.2223 264.284 96.8473 264.399 98.2623C264.514 99.7451 264.947 100.957 265.719 101.952L265.861 102.128L266.038 102.325C266.038 102.325 266.173 102.46 266.214 102.494L266.396 102.656L266.715 102.9L266.924 103.036L267.148 103.164L267.365 103.279L267.581 103.381L267.825 103.482L268.089 103.577L268.312 103.652L268.529 103.713L268.807 103.78L269.064 103.834L269.321 103.882C269.788 103.963 270.242 104.004 270.662 104.004C271.616 104.004 272.497 103.801 273.289 103.394C274.419 102.826 275.462 101.939 276.383 100.767C277.317 99.569 278.177 98.0998 278.935 96.4072C279.7 94.6942 280.418 92.8256 281.068 90.8486C282.761 85.6962 283.363 81.952 282.917 79.3928C282.443 76.7252 280.906 75.1476 278.346 74.7008V74.694ZM279.247 90.246C278.617 92.162 277.92 93.9766 277.189 95.6218C276.491 97.1858 275.713 98.5128 274.88 99.5826C274.142 100.524 273.316 101.235 272.422 101.688C271.644 102.088 270.743 102.182 269.667 101.993C269.592 101.979 269.524 101.966 269.457 101.952C269.436 101.952 269.409 101.946 269.389 101.939C269.342 101.932 269.301 101.918 269.254 101.912C269.226 101.912 269.199 101.898 269.179 101.891C269.138 101.885 269.098 101.871 269.064 101.864C269.037 101.857 269.01 101.851 268.983 101.844C268.949 101.837 268.915 101.824 268.881 101.817C268.854 101.81 268.827 101.803 268.8 101.79C268.766 101.776 268.732 101.769 268.698 101.756C268.671 101.749 268.651 101.736 268.624 101.729C268.59 101.715 268.563 101.709 268.529 101.695C268.502 101.688 268.482 101.675 268.455 101.668C268.428 101.654 268.394 101.641 268.367 101.634C268.34 101.621 268.319 101.614 268.299 101.6C268.272 101.587 268.245 101.573 268.218 101.56C268.197 101.546 268.17 101.539 268.15 101.526C268.123 101.512 268.096 101.499 268.069 101.485C268.048 101.472 268.028 101.458 268.001 101.451C267.974 101.438 267.954 101.424 267.926 101.411C267.906 101.397 267.886 101.384 267.866 101.37C267.838 101.356 267.818 101.336 267.798 101.323C267.778 101.309 267.757 101.296 267.744 101.282C267.723 101.268 267.696 101.248 267.676 101.235C267.656 101.221 267.642 101.208 267.622 101.194C267.602 101.18 267.581 101.16 267.561 101.14C267.541 101.126 267.527 101.106 267.507 101.092C267.486 101.072 267.466 101.059 267.453 101.038C267.439 101.025 267.419 101.004 267.405 100.991C267.385 100.971 267.371 100.95 267.351 100.937C267.337 100.923 267.324 100.903 267.283 100.855C267.27 100.835 267.249 100.815 267.236 100.801C266.701 100.104 266.396 99.2305 266.308 98.1337C266.214 96.9082 266.335 95.4728 266.681 93.8615C267.046 92.1553 267.561 90.2934 268.204 88.3231C268.854 86.3529 269.551 84.5249 270.289 82.8796C270.98 81.3291 271.765 80.0089 272.612 78.9527C273.37 77.998 274.182 77.321 275.09 76.8809C275.895 76.4882 276.85 76.407 278.015 76.6101C279.768 76.9215 280.696 77.8829 281.028 79.7448C281.413 81.952 280.818 85.493 279.247 90.2663V90.246Z" fill="url(#paint17_linear_3609_31019)"/>
<path d="M294.442 75.2636C293.4 72.8736 291.781 70.8559 289.608 69.2581C287.455 67.6738 284.72 66.5905 281.483 66.015C278.186 65.4327 275.051 65.4666 272.16 66.1098C269.249 66.7665 266.548 67.9988 264.144 69.7591C261.781 71.4991 259.669 73.747 257.888 76.4484C256.141 79.0822 254.686 82.156 253.562 85.5887C252.512 88.7844 251.916 91.8718 251.801 94.7696C251.679 97.7418 252.113 100.464 253.094 102.867C254.09 105.311 255.708 107.403 257.908 109.089C260.095 110.768 262.993 111.933 266.507 112.549C269.601 113.097 272.614 113.016 275.458 112.305C278.315 111.601 280.976 110.335 283.379 108.561C285.742 106.814 287.868 104.567 289.689 101.879C291.477 99.2449 292.946 96.2049 294.043 92.8467C295.146 89.4953 295.749 86.2996 295.837 83.3544C295.932 80.3415 295.465 77.613 294.442 75.2568V75.2636ZM293.921 83.3002C293.84 86.0558 293.271 89.0687 292.222 92.2577C291.172 95.4534 289.784 98.3309 288.098 100.816C286.392 103.321 284.422 105.413 282.235 107.031C280.028 108.663 277.59 109.814 274.997 110.457C273.548 110.816 272.032 110.999 270.495 110.999C269.303 110.999 268.071 110.89 266.839 110.674C263.623 110.105 261.009 109.062 259.08 107.579C257.15 106.103 255.735 104.282 254.875 102.156C254.002 100.003 253.616 97.5523 253.724 94.8643C253.832 92.1561 254.394 89.2448 255.39 86.2048C256.466 82.9211 257.847 80.003 259.493 77.5317C261.145 75.0266 263.095 72.9345 265.288 71.3299C267.475 69.7252 269.933 68.6013 272.594 68.0055C273.961 67.7009 275.417 67.5451 276.913 67.5451C278.281 67.5451 279.71 67.6738 281.158 67.9311C284.104 68.4524 286.568 69.4273 288.477 70.8289C290.366 72.2168 291.781 73.9772 292.682 76.0557C293.589 78.1478 294.009 80.592 293.921 83.3273V83.3002Z" fill="url(#paint18_linear_3609_31019)"/>
<path d="M331.77 72.5664L254.383 144.971L264.18 153.718L341.533 81.3884L331.77 72.5664ZM264.146 151.112L257.226 144.93L331.791 75.1663L338.697 81.402L264.146 151.105V151.112Z" fill="url(#paint19_linear_3609_31019)"/>
<path d="M342.816 123.47C341.821 121.026 340.203 118.934 338.002 117.248C335.815 115.569 332.917 114.404 329.404 113.788C326.309 113.24 323.296 113.321 320.453 114.032C317.596 114.743 314.935 116.002 312.531 117.776C310.168 119.523 308.042 121.77 306.221 124.458C304.434 127.092 302.964 130.132 301.861 133.497C300.764 136.842 300.161 140.037 300.067 142.989C299.972 146.002 300.439 148.731 301.461 151.087C302.504 153.47 304.122 155.488 306.296 157.086C308.449 158.67 311.177 159.76 314.42 160.329C317.718 160.911 320.859 160.877 323.743 160.227C326.655 159.57 329.356 158.345 331.76 156.578C334.129 154.838 336.235 152.583 338.022 149.889C339.769 147.248 341.218 144.174 342.342 140.742C343.392 137.546 343.987 134.458 344.102 131.561C344.224 128.595 343.791 125.867 342.809 123.463L342.816 123.47ZM342.186 131.486C342.078 134.194 341.516 137.106 340.521 140.146C339.444 143.416 338.07 146.341 336.418 148.832C334.759 151.331 332.809 153.416 330.615 155.034C328.429 156.639 325.971 157.756 323.317 158.352C321.936 158.663 320.473 158.819 318.97 158.819C317.609 158.819 316.187 158.69 314.745 158.44C311.807 157.918 309.342 156.943 307.426 155.535C305.537 154.147 304.122 152.394 303.215 150.315C302.308 148.223 301.888 145.772 301.976 143.05C302.064 140.274 302.633 137.261 303.675 134.093C304.725 130.897 306.113 128.013 307.799 125.535C309.505 123.03 311.475 120.938 313.662 119.319C315.856 117.695 318.293 116.544 320.906 115.894C322.355 115.535 323.865 115.352 325.409 115.352C326.601 115.352 327.833 115.46 329.065 115.677C332.281 116.246 334.894 117.288 336.824 118.771C338.754 120.247 340.169 122.068 341.029 124.194C341.902 126.341 342.288 128.798 342.18 131.486H342.186Z" fill="url(#paint20_linear_3609_31019)"/>
<path d="M330.201 124.387C329.423 123.379 328.238 122.749 326.579 122.458C326.119 122.377 325.672 122.336 325.245 122.336C324.297 122.336 323.41 122.539 322.618 122.945C321.474 123.528 320.431 124.414 319.517 125.579C318.576 126.777 317.723 128.247 316.972 129.939C316.207 131.659 315.489 133.528 314.839 135.505C313.146 140.657 312.544 144.408 312.997 146.954C313.471 149.615 315.008 151.192 317.567 151.646C318.082 151.734 318.583 151.781 319.05 151.781C320.005 151.781 320.885 151.592 321.664 151.212C322.835 150.644 323.864 149.797 324.805 148.612C325.753 147.428 326.62 145.965 327.378 144.266C328.143 142.553 328.868 140.657 329.531 138.646C330.195 136.629 330.723 134.699 331.109 132.912C331.495 131.117 331.63 129.492 331.522 128.077C331.407 126.595 330.973 125.389 330.201 124.387ZM329.233 132.505C328.868 134.211 328.36 136.073 327.71 138.044C327.067 140.007 326.362 141.835 325.631 143.48C324.941 145.031 324.155 146.351 323.309 147.407C322.551 148.362 321.738 149.039 320.831 149.479C320.025 149.872 319.071 149.953 317.906 149.75C316.152 149.438 315.225 148.477 314.893 146.615C314.5 144.415 315.103 140.874 316.667 136.1C317.297 134.178 317.994 132.363 318.732 130.718C319.429 129.161 320.201 127.827 321.034 126.764C321.772 125.823 322.598 125.112 323.492 124.658C324.27 124.266 325.171 124.164 326.247 124.354C327.419 124.557 328.211 124.956 328.685 125.572C329.22 126.27 329.524 127.143 329.606 128.24C329.7 129.465 329.578 130.901 329.233 132.519V132.505Z" fill="url(#paint21_linear_3609_31019)"/>
<path d="M89.89 0L127.169 71.7205L60.4922 42.228L89.89 0Z" fill="url(#paint22_linear_3609_31019)"/>
<path d="M63.3945 41.4141L89.6508 3.69531L122.942 67.7516L63.3945 41.4141Z" fill="url(#paint23_linear_3609_31019)"/>
<path d="M127.171 71.723L120.969 75.2911L54.293 45.8053L60.4948 42.2305L127.171 71.723Z" fill="url(#paint24_linear_3609_31019)"/>
<path d="M60.4948 42.228L54.293 45.8028L83.6975 3.56809L89.8926 0L60.4948 42.228Z" fill="url(#paint25_linear_3609_31019)"/>
<path d="M302.887 22.8224L271.336 45.1788L278.086 9.78906L302.887 22.8224Z" fill="url(#paint26_linear_3609_31019)"/>
<path d="M279.486 12.6914L299.222 23.0639L274.117 40.8569L279.486 12.6914Z" fill="url(#paint27_linear_3609_31019)"/>
<path d="M302.89 22.8242L301.617 25.1736L270.066 47.53L271.339 45.1806L302.89 22.8242Z" fill="url(#paint28_linear_3609_31019)"/>
<path d="M271.339 45.1788L270.066 47.5282L276.817 12.1452L278.09 9.78906L271.339 45.1788Z" fill="url(#paint29_linear_3609_31019)"/>
<path d="M55.1406 64.1172L103.293 90.4817L62.6289 93.3389L55.1406 64.1172Z" fill="url(#paint30_linear_3609_31019)"/>
<path d="M58.1016 67.9219L96.6396 89.0257L64.0935 91.3141L58.1016 67.9219Z" fill="url(#paint31_linear_3609_31019)"/>
<path d="M103.295 90.4883L96.4296 96.1552L55.7656 99.0124L62.631 93.3455L103.295 90.4883Z" fill="url(#paint32_linear_3609_31019)"/>
<path d="M62.6309 93.3389L55.7656 99.0059L48.2773 69.7842L55.1427 64.1172L62.6309 93.3389Z" fill="url(#paint33_linear_3609_31019)"/>
<path d="M56.0391 201.859L140.671 207.784L103.379 254.812L56.0391 201.859Z" fill="url(#paint34_linear_3609_31019)"/>
<path d="M60.6172 204.098L136.908 209.446L103.292 251.83L60.6172 204.098Z" fill="url(#paint35_linear_3609_31019)"/>
<path d="M103.379 254.812L94.909 263.708L47.5625 210.749L56.0392 201.859L103.379 254.812Z" fill="url(#paint36_linear_3609_31019)"/>
<path d="M152.027 257.274L161.411 226.562L179.198 263.862L152.027 257.274Z" fill="url(#paint37_linear_3609_31019)"/>
<path d="M154.457 255.886L161.803 231.844L175.723 261.045L154.457 255.886Z" fill="url(#paint38_linear_3609_31019)"/>
<path d="M152.031 257.274L147.812 262.947L157.196 232.236L161.415 226.562L152.031 257.274Z" fill="url(#paint39_linear_3609_31019)"/>
<path d="M179.201 263.861L174.983 269.535L147.812 262.947L152.031 257.273L179.201 263.861Z" fill="url(#paint40_linear_3609_31019)"/>
<path d="M141.976 37.4394C141.976 39.958 139.939 41.996 137.42 41.996C134.901 41.996 132.863 39.958 132.863 37.4394C132.863 34.9208 134.901 32.8828 137.42 32.8828C139.939 32.8828 141.976 34.9208 141.976 37.4394Z" stroke="url(#paint41_linear_3609_31019)" stroke-width="2.03117" stroke-miterlimit="10"/>
<path d="M297.959 223.117C300.475 223.117 302.516 221.077 302.516 218.56C302.516 216.044 300.475 214.004 297.959 214.004C295.442 214.004 293.402 216.044 293.402 218.56C293.402 221.077 295.442 223.117 297.959 223.117Z" stroke="url(#paint42_linear_3609_31019)" stroke-width="2.03117" stroke-miterlimit="10"/>
<path d="M124.008 278.361C124.008 280.88 121.97 282.918 119.451 282.918C116.932 282.918 114.895 280.88 114.895 278.361C114.895 275.843 116.932 273.805 119.451 273.805C121.97 273.805 124.008 275.843 124.008 278.361Z" stroke="url(#paint43_linear_3609_31019)" stroke-width="2.03117" stroke-miterlimit="10"/>
<defs>
<radialGradient id="paint0_radial_3609_31019" cx="0" cy="0" r="1" gradientUnits="userSpaceOnUse" gradientTransform="translate(193.888 248.345) scale(192.494 11.8823)">
<stop stop-color="#366374"/>
<stop offset="0.08" stop-color="#3D7184"/>
<stop offset="0.16" stop-color="#447D91"/>
<stop offset="0.25" stop-color="#4A8699" stop-opacity="0.87"/>
<stop offset="0.5" stop-color="#5E9FB1" stop-opacity="0.5"/>
<stop offset="0.72" stop-color="#6CB1C3" stop-opacity="0.23"/>
<stop offset="0.89" stop-color="#74BCCE" stop-opacity="0.06"/>
<stop offset="1" stop-color="#78C1D2" stop-opacity="0"/>
</radialGradient>
<radialGradient id="paint1_radial_3609_31019" cx="0" cy="0" r="1" gradientUnits="userSpaceOnUse" gradientTransform="translate(92.4401 277.583) scale(51.6567 5.94834)">
<stop stop-color="#366374"/>
<stop offset="0.08" stop-color="#3D7184"/>
<stop offset="0.16" stop-color="#447D91"/>
<stop offset="0.25" stop-color="#4A8699" stop-opacity="0.87"/>
<stop offset="0.5" stop-color="#5E9FB1" stop-opacity="0.5"/>
<stop offset="0.72" stop-color="#6CB1C3" stop-opacity="0.23"/>
<stop offset="0.89" stop-color="#74BCCE" stop-opacity="0.06"/>
<stop offset="1" stop-color="#78C1D2" stop-opacity="0"/>
</radialGradient>
<radialGradient id="paint2_radial_3609_31019" cx="0" cy="0" r="1" gradientUnits="userSpaceOnUse" gradientTransform="translate(175.375 290.163) scale(51.6567 5.94834)">
<stop stop-color="#366374"/>
<stop offset="0.08" stop-color="#3D7184"/>
<stop offset="0.16" stop-color="#447D91"/>
<stop offset="0.25" stop-color="#4A8699" stop-opacity="0.87"/>
<stop offset="0.5" stop-color="#5E9FB1" stop-opacity="0.5"/>
<stop offset="0.72" stop-color="#6CB1C3" stop-opacity="0.23"/>
<stop offset="0.89" stop-color="#74BCCE" stop-opacity="0.06"/>
<stop offset="1" stop-color="#78C1D2" stop-opacity="0"/>
</radialGradient>
<linearGradient id="paint3_linear_3609_31019" x1="172.02" y1="90.4032" x2="251.587" y2="157.168" gradientUnits="userSpaceOnUse">
<stop stop-color="#9EABB1"/>
<stop offset="0.11" stop-color="#ACB9BF"/>
<stop offset="0.27" stop-color="#BCC9CF"/>
<stop offset="0.44" stop-color="#CAD4D9"/>
<stop offset="0.66" stop-color="#DAE1E5"/>
<stop offset="0.94" stop-color="#BCC9CF"/>
</linearGradient>
<linearGradient id="paint4_linear_3609_31019" x1="122.48" y1="93.4113" x2="256.463" y2="205.83" gradientUnits="userSpaceOnUse">
<stop stop-color="#BECBD1"/>
<stop offset="0.06" stop-color="#D3DCE1"/>
<stop offset="0.12" stop-color="#DFE7EB"/>
<stop offset="0.17" stop-color="#E4EBEF"/>
<stop offset="0.44" stop-color="#BCC9CF"/>
<stop offset="0.53" stop-color="#CAD4D9"/>
<stop offset="0.66" stop-color="#DAE1E5"/>
<stop offset="0.73" stop-color="#C8D1D5"/>
<stop offset="0.94" stop-color="#9EABB1"/>
</linearGradient>
<linearGradient id="paint5_linear_3609_31019" x1="177.055" y1="41.778" x2="252.066" y2="202.633" gradientUnits="userSpaceOnUse">
<stop stop-color="white"/>
<stop offset="0.37" stop-color="#E6EBEE"/>
<stop offset="0.73" stop-color="#D5DDE3"/>
<stop offset="1" stop-color="#CFD9DF"/>
</linearGradient>
<linearGradient id="paint6_linear_3609_31019" x1="187.852" y1="65.0612" x2="241.326" y2="179.741" gradientUnits="userSpaceOnUse">
<stop stop-color="#CDD7DD"/>
<stop offset="0.28" stop-color="#D1DADF"/>
<stop offset="0.57" stop-color="#DDE4E8"/>
<stop offset="0.86" stop-color="#F2F4F6"/>
<stop offset="1" stop-color="white"/>
</linearGradient>
<linearGradient id="paint7_linear_3609_31019" x1="177.104" y1="41.7839" x2="252.115" y2="202.639" gradientUnits="userSpaceOnUse">
<stop offset="0.18" stop-color="white"/>
<stop offset="0.7" stop-color="#D7DFE2"/>
<stop offset="1" stop-color="#C6D1D6"/>
</linearGradient>
<radialGradient id="paint8_radial_3609_31019" cx="0" cy="0" r="1" gradientUnits="userSpaceOnUse" gradientTransform="translate(280.308 158.422) rotate(-45) scale(32.9152 22.4757)">
<stop stop-color="#CFD9DF"/>
<stop offset="0.06" stop-color="#CFD9DF" stop-opacity="0.88"/>
<stop offset="0.19" stop-color="#CFD9DF" stop-opacity="0.65"/>
<stop offset="0.33" stop-color="#CFD9DF" stop-opacity="0.45"/>
<stop offset="0.46" stop-color="#CFD9DF" stop-opacity="0.29"/>
<stop offset="0.6" stop-color="#CFD9DF" stop-opacity="0.16"/>
<stop offset="0.73" stop-color="#CFD9DF" stop-opacity="0.07"/>
<stop offset="0.87" stop-color="#CFD9DF" stop-opacity="0.02"/>
<stop offset="1" stop-color="#CFD9DF" stop-opacity="0"/>
</radialGradient>
<linearGradient id="paint9_linear_3609_31019" x1="267.53" y1="106.93" x2="283.434" y2="79.3872" gradientUnits="userSpaceOnUse">
<stop offset="0.04" stop-color="#DDB736"/>
<stop offset="0.2" stop-color="#E5BF3B"/>
<stop offset="0.38" stop-color="#F5D146"/>
<stop offset="0.66" stop-color="#DDB736"/>
<stop offset="0.96" stop-color="#CC992F"/>
</linearGradient>
<linearGradient id="paint10_linear_3609_31019" x1="261.847" y1="116.246" x2="303.209" y2="87.2817" gradientUnits="userSpaceOnUse">
<stop stop-color="#FFDF3E"/>
<stop offset="0.04" stop-color="#F9D83C"/>
<stop offset="0.21" stop-color="#E4BF37"/>
<stop offset="0.32" stop-color="#DDB736"/>
<stop offset="0.45" stop-color="#EBC839"/>
<stop offset="0.59" stop-color="#FFDF3E"/>
<stop offset="0.8" stop-color="#F5D146"/>
<stop offset="1" stop-color="#FFE84F"/>
</linearGradient>
<linearGradient id="paint11_linear_3609_31019" x1="267.924" y1="160.483" x2="344.275" y2="84.1249" gradientUnits="userSpaceOnUse">
<stop stop-color="#FFDF3E"/>
<stop offset="0.2" stop-color="#F5D146"/>
<stop offset="0.44" stop-color="#DDB736"/>
<stop offset="0.68" stop-color="#F5D146"/>
<stop offset="1" stop-color="#FFE84F"/>
</linearGradient>
<linearGradient id="paint12_linear_3609_31019" x1="314.927" y1="153.798" x2="330.682" y2="126.513" gradientUnits="userSpaceOnUse">
<stop offset="0.04" stop-color="#DDB736"/>
<stop offset="0.2" stop-color="#E5BF3B"/>
<stop offset="0.38" stop-color="#F5D146"/>
<stop offset="0.66" stop-color="#DDB736"/>
<stop offset="0.96" stop-color="#CC992F"/>
</linearGradient>
<linearGradient id="paint13_linear_3609_31019" x1="264.476" y1="69.1498" x2="283.142" y2="109.184" gradientUnits="userSpaceOnUse">
<stop stop-color="#FFDF3E"/>
<stop offset="0.71" stop-color="#F5D146"/>
</linearGradient>
<linearGradient id="paint14_linear_3609_31019" x1="288.439" y1="92.7698" x2="307.45" y2="133.535" gradientUnits="userSpaceOnUse">
<stop stop-color="#FFDF3E"/>
<stop offset="0.71" stop-color="#F5D146"/>
</linearGradient>
<linearGradient id="paint15_linear_3609_31019" x1="312.768" y1="117.16" x2="331.435" y2="157.194" gradientUnits="userSpaceOnUse">
<stop stop-color="#FFDF3E"/>
<stop offset="0.71" stop-color="#F5D146"/>
</linearGradient>
<linearGradient id="paint16_linear_3609_31019" x1="310.138" y1="164.217" x2="351.506" y2="135.253" gradientUnits="userSpaceOnUse">
<stop stop-color="#FFDF3E"/>
<stop offset="0.32" stop-color="#DDB736"/>
<stop offset="0.56" stop-color="#FFDF3E"/>
<stop offset="0.76" stop-color="#F5D146"/>
<stop offset="1" stop-color="#FFE84F"/>
</linearGradient>
<linearGradient id="paint17_linear_3609_31019" x1="268.4" y1="77.8559" x2="279.057" y2="100.713" gradientUnits="userSpaceOnUse">
<stop stop-color="#E9C246"/>
<stop offset="1" stop-color="#FBE740"/>
</linearGradient>
<linearGradient id="paint18_linear_3609_31019" x1="264.476" y1="69.1498" x2="283.142" y2="109.184" gradientUnits="userSpaceOnUse">
<stop stop-color="#FFF03E"/>
<stop offset="0.71" stop-color="#EFC946"/>
</linearGradient>
<linearGradient id="paint19_linear_3609_31019" x1="288.439" y1="92.7698" x2="307.45" y2="133.535" gradientUnits="userSpaceOnUse">
<stop stop-color="#FFF03E"/>
<stop offset="0.71" stop-color="#EFC946"/>
</linearGradient>
<linearGradient id="paint20_linear_3609_31019" x1="312.768" y1="117.16" x2="331.435" y2="157.194" gradientUnits="userSpaceOnUse">
<stop stop-color="#FFF03E"/>
<stop offset="0.71" stop-color="#EFC946"/>
</linearGradient>
<linearGradient id="paint21_linear_3609_31019" x1="316.857" y1="125.626" x2="327.513" y2="148.484" gradientUnits="userSpaceOnUse">
<stop stop-color="#E9C246"/>
<stop offset="1" stop-color="#FBE740"/>
</linearGradient>
<linearGradient id="paint22_linear_3609_31019" x1="71.3048" y1="8.66632" x2="105.428" y2="81.8561" gradientUnits="userSpaceOnUse">
<stop offset="0.03" stop-color="#FFF555"/>
<stop offset="0.3" stop-color="#F9E750"/>
<stop offset="0.72" stop-color="#EFC946"/>
</linearGradient>
<linearGradient id="paint23_linear_3609_31019" x1="73.0493" y1="11.4408" x2="103.53" y2="76.8038" gradientUnits="userSpaceOnUse">
<stop stop-color="#FFDF3E"/>
<stop offset="0.71" stop-color="#F5D146"/>
</linearGradient>
<linearGradient id="paint24_linear_3609_31019" x1="78.9987" y1="33.6048" x2="102.466" y2="83.9236" gradientUnits="userSpaceOnUse">
<stop stop-color="#EFC946"/>
<stop offset="0.46" stop-color="#D8AF34"/>
<stop offset="0.96" stop-color="#CC992F"/>
</linearGradient>
<linearGradient id="paint25_linear_3609_31019" x1="54.293" y1="22.898" x2="89.8926" y2="22.898" gradientUnits="userSpaceOnUse">
<stop stop-color="#F5D146"/>
<stop offset="1" stop-color="#FFF03E"/>
</linearGradient>
<linearGradient id="paint26_linear_3609_31019" x1="271.336" y1="25.2931" x2="295.39" y2="25.8087" gradientUnits="userSpaceOnUse">
<stop stop-color="#1476C1"/>
<stop offset="1" stop-color="#03599C"/>
</linearGradient>
<linearGradient id="paint27_linear_3609_31019" x1="274.117" y1="25.0306" x2="293.257" y2="25.4408" gradientUnits="userSpaceOnUse">
<stop stop-color="#1476C1"/>
<stop offset="1" stop-color="#03599C"/>
</linearGradient>
<linearGradient id="paint28_linear_3609_31019" x1="270.066" y1="33.6477" x2="295.077" y2="34.4466" gradientUnits="userSpaceOnUse">
<stop stop-color="#1476C1"/>
<stop offset="1" stop-color="#03599C"/>
</linearGradient>
<linearGradient id="paint29_linear_3609_31019" x1="270.066" y1="26.3224" x2="276.186" y2="26.3537" gradientUnits="userSpaceOnUse">
<stop stop-color="#1476C1"/>
<stop offset="1" stop-color="#03599C"/>
</linearGradient>
<linearGradient id="paint30_linear_3609_31019" x1="55.1406" y1="76.9191" x2="91.8105" y2="78.3719" gradientUnits="userSpaceOnUse">
<stop stop-color="#1476C1"/>
<stop offset="1" stop-color="#03599C"/>
</linearGradient>
<linearGradient id="paint31_linear_3609_31019" x1="58.1016" y1="78.1699" x2="87.4498" y2="79.3324" gradientUnits="userSpaceOnUse">
<stop stop-color="#1476C1"/>
<stop offset="1" stop-color="#03599C"/>
</linearGradient>
<linearGradient id="paint32_linear_3609_31019" x1="55.7656" y1="94.2227" x2="91.3779" y2="98.9968" gradientUnits="userSpaceOnUse">
<stop stop-color="#1476C1"/>
<stop offset="1" stop-color="#03599C"/>
</linearGradient>
<linearGradient id="paint33_linear_3609_31019" x1="48.2773" y1="79.4017" x2="59.2243" y2="79.51" gradientUnits="userSpaceOnUse">
<stop stop-color="#1476C1"/>
<stop offset="1" stop-color="#03599C"/>
</linearGradient>
<linearGradient id="paint34_linear_3609_31019" x1="56.0391" y1="225.058" x2="120.496" y2="227.534" gradientUnits="userSpaceOnUse">
<stop stop-color="#1476C1"/>
<stop offset="1" stop-color="#03599C"/>
</linearGradient>
<linearGradient id="paint35_linear_3609_31019" x1="60.6172" y1="225.009" x2="118.721" y2="227.242" gradientUnits="userSpaceOnUse">
<stop stop-color="#1476C1"/>
<stop offset="1" stop-color="#03599C"/>
</linearGradient>
<linearGradient id="paint36_linear_3609_31019" x1="47.5625" y1="228.955" x2="90.1157" y2="229.878" gradientUnits="userSpaceOnUse">
<stop stop-color="#1476C1"/>
<stop offset="1" stop-color="#03599C"/>
</linearGradient>
<linearGradient id="paint37_linear_3609_31019" x1="151.831" y1="231.024" x2="169.299" y2="268.479" gradientUnits="userSpaceOnUse">
<stop offset="0.03" stop-color="#FFF555"/>
<stop offset="0.3" stop-color="#F9E750"/>
<stop offset="0.72" stop-color="#EFC946"/>
</linearGradient>
<linearGradient id="paint38_linear_3609_31019" x1="154.301" y1="235.337" x2="167.978" y2="264.661" gradientUnits="userSpaceOnUse">
<stop stop-color="#FFDF3E"/>
<stop offset="0.71" stop-color="#F5D146"/>
</linearGradient>
<linearGradient id="paint39_linear_3609_31019" x1="154.61" y1="262.947" x2="154.61" y2="226.562" gradientUnits="userSpaceOnUse">
<stop stop-color="#DDB736"/>
<stop offset="0.54" stop-color="#F5D146"/>
<stop offset="1" stop-color="#FFF03E"/>
</linearGradient>
<linearGradient id="paint40_linear_3609_31019" x1="147.812" y1="263.408" x2="179.201" y2="263.408" gradientUnits="userSpaceOnUse">
<stop stop-color="#D8AF34"/>
<stop offset="0.96" stop-color="#CC992F"/>
</linearGradient>
<linearGradient id="paint41_linear_3609_31019" x1="135.057" y1="32.3886" x2="139.769" y2="42.497" gradientUnits="userSpaceOnUse">
<stop stop-color="#FFDF3E"/>
<stop offset="0.71" stop-color="#F5D146"/>
</linearGradient>
<linearGradient id="paint42_linear_3609_31019" x1="295.603" y1="213.51" x2="300.315" y2="223.611" gradientUnits="userSpaceOnUse">
<stop stop-color="#FFDF3E"/>
<stop offset="0.71" stop-color="#F5D146"/>
</linearGradient>
<linearGradient id="paint43_linear_3609_31019" x1="117.088" y1="273.304" x2="121.807" y2="283.412" gradientUnits="userSpaceOnUse">
<stop stop-color="#FFDF3E"/>
<stop offset="0.71" stop-color="#F5D146"/>
</linearGradient>
</defs>
</svg>
