<svg width="356" height="537" viewBox="0 0 356 537" fill="none" xmlns="http://www.w3.org/2000/svg">
<g clip-path="url(#clip0_575_37208)">
<path d="M0 70C0 31.3401 31.3401 0 70 0H286C324.66 0 356 31.3401 356 70V537H70C31.3401 537 0 505.66 0 467V70Z" fill="#D2FFDE"/>
<g opacity="0.2">
<path d="M-94.0234 155H-7.42484C56.5972 155 114.555 192.877 140.257 251.513L179.991 342.163C195.618 377.814 223.613 406.608 258.809 423.232L401.001 490.391" stroke="#64A475" stroke-opacity="0.5" stroke-width="3.22491"/>
<path d="M-85.9883 201.109H10.5098C73.6281 201.109 130.943 237.937 157.173 295.347L199.791 388.626C215.974 424.047 244.431 452.415 279.903 468.488L429.998 536.5" stroke="#64A475" stroke-opacity="0.5" stroke-width="3.22491"/>
<path d="M-69.2109 267.223H-10.8322C55.746 267.223 115.479 308.142 139.527 370.225L171.488 452.735C185.427 488.719 211.809 518.511 245.843 536.701L366.152 601.001" stroke="#64A475" stroke-opacity="0.5" stroke-width="3.22491"/>
</g>
</g>
<defs>
<clipPath id="clip0_575_37208">
<path d="M0 70C0 31.3401 31.3401 0 70 0H286C324.66 0 356 31.3401 356 70V537H70C31.3401 537 0 505.66 0 467V70Z" fill="white"/>
</clipPath>
</defs>
</svg>
