<svg width="96" height="36" viewBox="0 0 96 36" fill="none" xmlns="http://www.w3.org/2000/svg">
<circle cx="18" cy="18" r="18" fill="#F5F5F5"/>
<g clip-path="url(#clip0_1945_27103)">
<path d="M9.59375 18.4992C9.59375 22.3883 12.0875 25.6836 15.5312 26.9008V10.0977C12.0875 11.3148 9.59375 14.6102 9.59375 18.4992ZM27.4062 18.4992C27.4062 14.6102 24.9422 11.3148 21.4688 10.0977V26.9008C24.9422 25.6836 27.4062 22.3883 27.4062 18.4992Z" fill="#438E01"/>
<path d="M15.5312 26.9016C16.4516 27.2281 17.4609 27.4062 18.5 27.4062C19.5391 27.4062 20.5484 27.2281 21.4688 26.9016V10.0984C20.5484 9.77188 19.5391 9.59375 18.5 9.59375C17.4609 9.59375 16.4516 9.77188 15.5312 10.0984V26.9016Z" fill="#F9F9F9"/>
</g>
<path d="M49.0933 22H50.6473V17.1L50.5913 13.922H50.6753L55.9533 22H57.7453V11.794H56.2613V16.554L56.3453 19.97H56.2473L50.9693 11.794H49.0933V22ZM59.9846 13.46H61.4266V11.794H59.9846V13.46ZM59.9846 22H61.4266V14.594H59.9846V22ZM66.3559 24.478C68.4419 24.478 69.8559 23.638 69.8559 21.314V14.594H68.4559L68.4279 15.966H68.3299C67.9939 15.07 67.0979 14.468 65.9219 14.468C64.1299 14.468 62.9259 15.756 62.9259 18.024C62.9259 20.278 64.1019 21.566 65.9079 21.566C67.0839 21.566 67.9939 20.964 68.3299 20.068H68.4279V21.51C68.4279 22.882 67.7139 23.414 66.3839 23.414C65.4459 23.414 64.8019 23.008 64.6899 22.35H63.2899C63.4439 23.666 64.5779 24.478 66.3559 24.478ZM66.3979 20.446C65.1939 20.446 64.4099 19.592 64.4099 18.024C64.4099 16.484 65.1799 15.602 66.4119 15.602C67.7139 15.602 68.3999 16.596 68.4139 17.562L68.4279 18.458C68.3999 19.438 67.6859 20.446 66.3979 20.446ZM74.8224 22.126C76.5724 22.126 77.9164 21.174 78.1124 19.718H76.7404C76.5584 20.488 75.8164 20.978 74.8224 20.978C73.5344 20.978 72.6944 20.11 72.6664 18.584H78.1544C78.3784 16.26 77.2024 14.482 74.7664 14.482C72.5964 14.482 71.2384 15.994 71.2384 18.332C71.2384 20.614 72.5964 22.126 74.8224 22.126ZM74.7524 15.616C75.8444 15.616 76.6984 16.19 76.7404 17.562H72.6944C72.8064 16.358 73.5904 15.616 74.7524 15.616ZM79.7131 22H81.1411V17.772C81.2111 16.554 81.9531 15.868 83.2691 15.868C83.4371 15.868 83.6051 15.868 83.7171 15.882V14.524C83.5911 14.51 83.4511 14.496 83.2831 14.496C82.3031 14.496 81.4631 14.958 81.1411 15.91H81.0711L81.0011 14.594H79.7131V22ZM84.9768 13.46H86.4188V11.794H84.9768V13.46ZM84.9768 22H86.4188V14.594H84.9768V22ZM90.9421 22.126C92.1881 22.126 93.1121 21.482 93.4621 20.53H93.5461V22H94.9881V14.594H93.6021L93.5461 16.05H93.4621C93.1121 15.098 92.1881 14.468 90.9421 14.468C89.1361 14.468 87.9181 15.812 87.9181 18.29C87.9181 20.768 89.1361 22.126 90.9421 22.126ZM91.4461 20.936C90.2141 20.936 89.4021 20.026 89.4021 18.29C89.4021 16.54 90.2141 15.644 91.4461 15.644C92.8181 15.644 93.5321 16.736 93.5321 17.87V18.71C93.5321 19.858 92.8181 20.936 91.4461 20.936Z" fill="#1E2C31"/>
<defs>
<clipPath id="clip0_1945_27103">
<rect width="19" height="19" fill="white" transform="translate(9 9)"/>
</clipPath>
</defs>
</svg>
