<svg width="187" height="43" viewBox="0 0 187 43" fill="none" xmlns="http://www.w3.org/2000/svg">
<path d="M11.4737 11.0825C11.4737 13.2764 11.4737 15.4767 11.4863 17.6707C11.4863 19.5639 10.8773 21.4061 9.13277 22.3783C7.0964 23.504 4.20361 23.2162 1.93252 22.9795C1.8437 22.9795 1.76758 22.9603 1.68511 22.9539C1.76123 21.3741 1.72951 19.775 1.65339 18.2015C1.55823 16.0652 2.83968 13.5195 5.11712 13.1613C7.58488 12.7711 9.73544 12.5025 10.9027 11.1273C10.9408 11.0889 10.9788 11.0442 11.0106 10.9994C11.1818 10.7627 11.3658 10.5389 11.5498 10.3086C11.4927 10.558 11.4737 10.8203 11.4737 11.0761V11.0825Z" fill="#8807F7"/>
<path d="M4.01025 37.2867C5.7104 37.3955 7.42324 37.3699 9.12339 37.4019C11.109 37.4339 13.1454 37.6833 15.0612 37.3315C17.8144 36.8262 20.9102 35.0161 21.9316 32.3361C22.8768 29.8543 22.4328 26.8929 20.8024 24.8077C20.6882 24.667 20.5677 24.5263 20.4345 24.3855C18.7851 22.569 16.2285 21.616 13.7925 21.9422C10.7664 22.3451 8.10203 24.7437 7.31539 27.718C6.82692 29.5729 7.25195 31.5429 6.96648 33.4298C6.73176 34.9905 5.4059 36.5896 4.00391 37.2867H4.01025Z" fill="#8807F7"/>
<path d="M21.0157 4C20.8635 4.46692 21.0474 4.97223 21.2441 5.41996C23.7689 11.0934 30.5315 14.9312 30.2968 21.7495C30.1889 24.8325 28.6664 28.4528 26.1098 30.2821C25.9258 30.4164 25.7546 30.5316 25.5389 30.5955C25.0504 29.6745 24.9996 28.3313 24.5873 27.3207C24.0671 26.0478 23.382 24.8005 22.424 23.8155C21.5042 22.8753 20.356 22.3316 19.4361 21.4105C17.5076 19.4661 16.2896 16.8053 16.131 14.0549C15.9026 10.1404 17.8438 6.25147 21.0221 4.01279L21.0157 4Z" fill="#8807F7"/>
<path d="M3.45731 17.6862C3.45731 17.6862 3.36849 15.9784 5.10671 16.0615C5.10671 16.0615 5.74109 17.9292 3.45731 17.6862Z" fill="white" stroke="#8807F7" stroke-width="0.266739" stroke-miterlimit="10"/>
<path d="M2.8801 32.1691C4.47074 32.1691 5.76021 30.869 5.76021 29.2652C5.76021 27.6614 4.47074 26.3613 2.8801 26.3613C1.28947 26.3613 0 27.6614 0 29.2652C0 30.869 1.28947 32.1691 2.8801 32.1691Z" fill="#8807F7"/>
<path d="M55.3346 36.834H58.5846C60.1546 36.834 61.0946 36.094 61.0946 34.784C61.0946 33.954 60.6246 33.264 59.7346 33.084V33.034C60.5146 32.834 60.9046 32.174 60.9046 31.414C60.9046 30.294 60.1346 29.544 58.7146 29.544H55.3346V36.834ZM56.4046 32.684V30.404H58.4546C59.2746 30.404 59.8146 30.814 59.8146 31.564C59.8146 32.234 59.3946 32.684 58.5446 32.684H56.4046ZM56.4046 35.974V33.514H58.5946C59.4646 33.514 59.9846 33.944 59.9846 34.724C59.9846 35.464 59.5046 35.974 58.4846 35.974H56.4046ZM63.9777 36.924C64.7977 36.924 65.4877 36.494 65.7477 35.764H65.8077L65.8577 36.834H66.8377V31.544H65.8077V34.404C65.8077 35.374 65.2277 36.064 64.3577 36.064C63.4677 36.064 63.1077 35.524 63.1077 34.544V31.544H62.0777V34.804C62.0777 36.204 62.7777 36.924 63.9777 36.924ZM68.2312 30.734H69.2612V29.544H68.2312V30.734ZM68.2312 36.834H69.2612V31.544H68.2312V36.834ZM70.6922 36.834H71.7222V29.544H70.6922V36.834ZM74.9531 36.924C75.8431 36.924 76.5031 36.464 76.7531 35.784H76.8131L76.8531 36.834H77.8431V29.544H76.8131V32.584H76.7531C76.5031 31.904 75.8431 31.454 74.9531 31.454C73.6631 31.454 72.7931 32.414 72.7931 34.184C72.7931 35.954 73.6631 36.924 74.9531 36.924ZM75.3131 36.074C74.4331 36.074 73.8531 35.424 73.8531 34.184C73.8531 32.934 74.4331 32.294 75.3131 32.294C76.2931 32.294 76.8031 33.074 76.8031 33.884V34.484C76.8031 35.304 76.2931 36.074 75.3131 36.074ZM79.2859 30.734H80.3159V29.544H79.2859V30.734ZM79.2859 36.834H80.3159V31.544H79.2859V36.834ZM81.7469 36.834H82.7669V33.944C82.7669 33.034 83.3369 32.314 84.2469 32.314C85.0869 32.314 85.4769 32.824 85.4769 33.904V36.834H86.5069V33.694C86.5069 32.074 85.6969 31.464 84.6169 31.464C83.8369 31.464 83.1369 31.844 82.8269 32.594H82.7669L82.7269 31.544H81.7469V36.834ZM89.9892 38.604C91.4792 38.604 92.4892 38.004 92.4892 36.344V31.544H91.4892L91.4692 32.524H91.3992C91.1592 31.884 90.5192 31.454 89.6792 31.454C88.3992 31.454 87.5392 32.374 87.5392 33.994C87.5392 35.604 88.3792 36.524 89.6692 36.524C90.5092 36.524 91.1592 36.094 91.3992 35.454H91.4692V36.484C91.4692 37.464 90.9592 37.844 90.0092 37.844C89.3392 37.844 88.8792 37.554 88.7992 37.084H87.7992C87.9092 38.024 88.7192 38.604 89.9892 38.604ZM90.0192 35.724C89.1592 35.724 88.5992 35.114 88.5992 33.994C88.5992 32.894 89.1492 32.264 90.0292 32.264C90.9592 32.264 91.4492 32.974 91.4592 33.664L91.4692 34.304C91.4492 35.004 90.9392 35.724 90.0192 35.724ZM96.8021 36.834H98.1421L99.0921 32.854H99.1321L100.112 36.834H101.462L102.812 31.544H101.802L100.762 35.814H100.732L99.7221 31.544H98.5821L97.6021 35.804H97.5521L96.5121 31.544H95.4521L96.8021 36.834ZM105.744 36.924C106.994 36.924 107.954 36.244 108.094 35.204H107.114C106.984 35.754 106.454 36.104 105.744 36.104C104.824 36.104 104.224 35.484 104.204 34.394H108.124C108.284 32.734 107.444 31.464 105.704 31.464C104.154 31.464 103.184 32.544 103.184 34.214C103.184 35.844 104.154 36.924 105.744 36.924ZM105.694 32.274C106.474 32.274 107.084 32.684 107.114 33.664H104.224C104.304 32.804 104.864 32.274 105.694 32.274ZM111.135 36.924C112.025 36.924 112.685 36.464 112.935 35.784H112.995V36.834H114.025V31.544H113.035L112.995 32.584H112.935C112.685 31.904 112.025 31.454 111.135 31.454C109.845 31.454 108.975 32.414 108.975 34.184C108.975 35.954 109.845 36.924 111.135 36.924ZM111.495 36.074C110.615 36.074 110.035 35.424 110.035 34.184C110.035 32.934 110.615 32.294 111.495 32.294C112.475 32.294 112.985 33.074 112.985 33.884V34.484C112.985 35.304 112.475 36.074 111.495 36.074ZM115.468 36.834H116.498V29.544H115.468V36.834ZM119.438 36.834H120.498V35.984H119.778C119.448 35.984 119.328 35.894 119.328 35.544V32.384H120.498V31.544H119.328V29.894L118.298 30.014V31.544H117.298V32.384H118.298V35.734C118.298 36.444 118.568 36.834 119.438 36.834ZM121.522 36.834H122.542V33.944C122.542 33.034 123.112 32.314 124.022 32.314C124.862 32.314 125.252 32.824 125.252 33.904V36.834H126.282V33.694C126.282 32.074 125.472 31.464 124.392 31.464C123.612 31.464 122.912 31.844 122.602 32.594H122.542V29.544H121.522V36.834Z" fill="#9CA3AF"/>
<path d="M54.4966 18H56.0926L56.9326 15.62H61.4546L62.2946 18H63.8906L60.2646 7.794H58.1226L54.4966 18ZM57.2966 14.43L58.4446 11.28L59.1586 9.194H59.2426L59.9566 11.28L61.0766 14.43H57.2966ZM64.9235 18H66.3515V13.772C66.4215 12.554 67.1635 11.868 68.4795 11.868C68.6475 11.868 68.8155 11.868 68.9275 11.882V10.524C68.8015 10.51 68.6615 10.496 68.4935 10.496C67.5135 10.496 66.6735 10.958 66.3515 11.91H66.2815L66.2115 10.594H64.9235V18ZM72.4884 18.126C73.7344 18.126 74.6584 17.482 75.0084 16.53H75.0924L75.1484 18H76.5344V7.794H75.0924V12.05H75.0084C74.6584 11.098 73.7344 10.468 72.4884 10.468C70.6824 10.468 69.4644 11.812 69.4644 14.29C69.4644 16.768 70.6824 18.126 72.4884 18.126ZM72.9924 16.936C71.7604 16.936 70.9484 16.026 70.9484 14.29C70.9484 12.54 71.7604 11.644 72.9924 11.644C74.3644 11.644 75.0784 12.736 75.0784 13.87V14.71C75.0784 15.858 74.3644 16.936 72.9924 16.936ZM78.5544 9.46H79.9964V7.794H78.5544V9.46ZM78.5544 18H79.9964V10.594H78.5544V18ZM81.9997 18H83.4417V7.794H81.9997V18ZM85.445 18H86.887V7.794H85.445V18ZM91.4103 18.126C92.6563 18.126 93.5803 17.482 93.9303 16.53H94.0143V18H95.4563V10.594H94.0703L94.0143 12.05H93.9303C93.5803 11.098 92.6563 10.468 91.4103 10.468C89.6043 10.468 88.3863 11.812 88.3863 14.29C88.3863 16.768 89.6043 18.126 91.4103 18.126ZM91.9143 16.936C90.6823 16.936 89.8703 16.026 89.8703 14.29C89.8703 12.54 90.6823 11.644 91.9143 11.644C93.2863 11.644 94.0003 12.736 94.0003 13.87V14.71C94.0003 15.858 93.2863 16.936 91.9143 16.936Z" fill="#1E2C31"/>
<path d="M111.103 16V13.084H111.639L113.147 15.42H113.175L113.151 14.444V13.084H113.575V16H113.063L111.555 13.692H111.531L111.547 14.6V16H111.103ZM115.095 16.036C114.885 16.036 114.702 15.992 114.547 15.904C114.395 15.8133 114.278 15.6867 114.195 15.524C114.113 15.3587 114.071 15.168 114.071 14.952C114.071 14.728 114.113 14.5333 114.195 14.368C114.278 14.2027 114.394 14.076 114.543 13.988C114.695 13.8973 114.874 13.852 115.079 13.852C115.311 13.852 115.502 13.904 115.651 14.008C115.803 14.1093 115.913 14.2493 115.979 14.428C116.046 14.604 116.069 14.8027 116.047 15.024H114.479C114.482 15.168 114.509 15.292 114.559 15.396C114.61 15.4973 114.681 15.5747 114.771 15.628C114.865 15.6813 114.973 15.708 115.095 15.708C115.237 15.708 115.357 15.676 115.455 15.612C115.554 15.5453 115.617 15.4573 115.643 15.348H116.035C116.017 15.4867 115.965 15.608 115.879 15.712C115.794 15.8133 115.683 15.8933 115.547 15.952C115.414 16.008 115.263 16.036 115.095 16.036ZM114.483 14.792L114.443 14.732H115.683L115.643 14.8C115.649 14.6533 115.626 14.5347 115.575 14.444C115.527 14.3507 115.459 14.2827 115.371 14.24C115.286 14.1973 115.187 14.176 115.075 14.176C114.958 14.176 114.855 14.2013 114.767 14.252C114.679 14.3 114.611 14.3707 114.563 14.464C114.515 14.5573 114.489 14.6667 114.483 14.792ZM116.73 16L116.19 13.884H116.614L117.03 15.588H117.05L117.442 13.884H117.898L118.302 15.592H118.314L118.73 13.884H119.134L118.594 16H118.054L117.662 14.408H117.646L117.266 16H116.73Z" fill="url(#paint0_linear_2451_28199)"/>
<rect x="102.73" y="8.27569" width="24.4486" height="12.4486" rx="6.22431" stroke="url(#paint1_linear_2451_28199)" stroke-width="0.551376"/>
<rect x="120.455" y="6" width="9" height="8" rx="4" fill="#FBFDFE"/>
<path d="M125.455 7L126.128 9.07295H128.308L126.545 10.3541L127.218 12.4271L125.455 11.1459L123.691 12.4271L124.365 10.3541L122.602 9.07295H124.781L125.455 7Z" fill="#FFCC01"/>
<defs>
<linearGradient id="paint0_linear_2451_28199" x1="105.955" y1="13" x2="114.993" y2="4.61162" gradientUnits="userSpaceOnUse">
<stop stop-color="#0C6B8A"/>
<stop offset="1" stop-color="#FFCC00"/>
</linearGradient>
<linearGradient id="paint1_linear_2451_28199" x1="103.73" y1="7.30634" x2="127.659" y2="8.75562" gradientUnits="userSpaceOnUse">
<stop stop-color="#0C6B8A"/>
<stop offset="1" stop-color="#FFCC00"/>
</linearGradient>
</defs>
</svg>
