<svg width="35" height="36" viewBox="0 0 35 36" fill="none" xmlns="http://www.w3.org/2000/svg">
<circle cx="17.5" cy="18" r="17.5" fill="white"/>
<path d="M19.1994 23.941C18.9747 23.7163 18.8668 23.4447 18.8758 23.1264C18.8848 22.808 19.0021 22.5365 19.2275 22.3118L22.4017 19.1376H9.8736C9.55525 19.1376 9.28821 19.0298 9.07248 18.814C8.85675 18.5983 8.74925 18.3316 8.75 18.014C8.75 17.6957 8.85787 17.4286 9.0736 17.2129C9.28933 16.9972 9.556 16.8897 9.8736 16.8904H22.4017L19.1994 13.6882C18.9747 13.4635 18.8624 13.1964 18.8624 12.8871C18.8624 12.5777 18.9747 12.311 19.1994 12.0871C19.4241 11.8624 19.6912 11.75 20.0006 11.75C20.3099 11.75 20.5766 11.8624 20.8006 12.0871L25.941 17.2275C26.0534 17.3399 26.1331 17.4616 26.1803 17.5927C26.2275 17.7238 26.2507 17.8642 26.25 18.014C26.25 18.1638 26.2264 18.3043 26.1792 18.4354C26.132 18.5665 26.0526 18.6882 25.941 18.8006L20.7725 23.9691C20.5665 24.1751 20.3092 24.2781 20.0006 24.2781C19.6919 24.2781 19.4249 24.1657 19.1994 23.941Z" fill="#225A51"/>
</svg>
