<svg width="89" height="90" viewBox="0 0 89 90" fill="none" xmlns="http://www.w3.org/2000/svg">
<g clip-path="url(#clip0_3804_30777)">
<rect x="0.441406" y="0.207031" width="88.0751" height="89.6339" rx="15" fill="url(#paint0_linear_3804_30777)"/>
<path d="M61.95 63.2438H32.625C29.0543 63.2438 26.1562 60.3457 26.1562 56.775V27.45C26.1562 26.7427 26.7427 26.1562 27.45 26.1562C28.1572 26.1562 28.7438 26.7427 28.7438 27.45V56.775C28.7438 58.914 30.486 60.6562 32.625 60.6562H61.95C62.6572 60.6562 63.2438 61.2428 63.2438 61.95C63.2438 62.6572 62.6572 63.2438 61.95 63.2438Z" fill="white"/>
<path d="M32.6255 54.6184C32.3322 54.6184 32.0217 54.515 31.7802 54.308C31.2455 53.8422 31.1765 53.0315 31.6422 52.4795L39.56 43.2334C40.4225 42.2329 41.6645 41.6292 42.9755 41.5774C44.2865 41.5429 45.5802 42.0259 46.5117 42.9574L48.1505 44.5962C48.5817 45.0274 49.151 45.2344 49.7547 45.2344C50.3585 45.2172 50.9105 44.9412 51.3072 44.4754L59.225 35.2295C59.6907 34.6947 60.5015 34.6257 61.0535 35.0914C61.5882 35.5572 61.6572 36.3679 61.1915 36.9199L53.2737 46.166C52.4112 47.1665 51.1692 47.7702 49.8582 47.8219C48.5472 47.8564 47.2535 47.3735 46.322 46.442L44.7005 44.8032C44.2692 44.3719 43.7 44.1477 43.0962 44.1649C42.4925 44.1822 41.9405 44.4582 41.5437 44.924L33.626 54.1699C33.35 54.4632 32.9877 54.6184 32.6255 54.6184Z" fill="white"/>
</g>
<defs>
<linearGradient id="paint0_linear_3804_30777" x1="44.4789" y1="0.207031" x2="44.4789" y2="89.841" gradientUnits="userSpaceOnUse">
<stop stop-color="white" stop-opacity="0.28"/>
<stop offset="1" stop-color="white" stop-opacity="0.39"/>
</linearGradient>
<clipPath id="clip0_3804_30777">
<rect x="0.441406" y="0.207031" width="88.0751" height="89.6339" rx="15" fill="white"/>
</clipPath>
</defs>
</svg>
