<svg width="89" height="90" viewBox="0 0 89 90" fill="none" xmlns="http://www.w3.org/2000/svg">
<g clip-path="url(#clip0_3804_31008)">
<rect x="0.148438" y="0.207031" width="88.0751" height="89.6339" rx="15" fill="url(#paint0_linear_3804_31008)"/>
<path d="M34.868 56.5997C34.1607 56.5997 33.5742 56.0132 33.5742 55.3059V51.7352C33.5742 51.0279 34.1607 50.4414 34.868 50.4414C35.5752 50.4414 36.1617 51.0279 36.1617 51.7352V55.3059C36.1617 56.0304 35.5752 56.5997 34.868 56.5997Z" fill="white"/>
<path d="M43.7 56.6017C42.9927 56.6017 42.4062 56.0152 42.4062 55.308V48.1492C42.4062 47.442 42.9927 46.8555 43.7 46.8555C44.4072 46.8555 44.9938 47.442 44.9938 48.1492V55.308C44.9938 56.0325 44.4072 56.6017 43.7 56.6017Z" fill="white"/>
<path d="M52.532 56.6022C51.8248 56.6022 51.2383 56.0157 51.2383 55.3084V44.5789C51.2383 43.8717 51.8248 43.2852 52.532 43.2852C53.2393 43.2852 53.8258 43.8717 53.8258 44.5789V55.3084C53.8258 56.0329 53.2565 56.6022 52.532 56.6022Z" fill="white"/>
<path d="M34.8725 46.7385C34.286 46.7385 33.7685 46.3417 33.6133 45.7552C33.4408 45.0652 33.8548 44.358 34.562 44.1855C40.91 42.5985 46.499 39.1312 50.7598 34.1805L51.5533 33.249C52.019 32.7142 52.8298 32.6452 53.3818 33.111C53.9165 33.5767 53.9855 34.3875 53.5198 34.9395L52.7263 35.871C48.1205 41.253 42.0485 44.9962 35.183 46.704C35.0795 46.7385 34.976 46.7385 34.8725 46.7385Z" fill="white"/>
<path d="M52.5355 40.4253C51.8283 40.4253 51.2418 39.8388 51.2418 39.1315V35.3883H47.4813C46.774 35.3883 46.1875 34.8018 46.1875 34.0945C46.1875 33.3873 46.774 32.8008 47.4813 32.8008H52.5355C53.2428 32.8008 53.8293 33.3873 53.8293 34.0945V39.1488C53.8293 39.856 53.26 40.4253 52.5355 40.4253Z" fill="white"/>
<path d="M48.875 63.2438H38.525C29.1583 63.2438 25.1562 59.2417 25.1562 49.875V39.525C25.1562 30.1583 29.1583 26.1562 38.525 26.1562H48.875C58.2417 26.1562 62.2438 30.1583 62.2438 39.525V49.875C62.2438 59.2417 58.2417 63.2438 48.875 63.2438ZM38.525 28.7438C30.5727 28.7438 27.7438 31.5727 27.7438 39.525V49.875C27.7438 57.8273 30.5727 60.6562 38.525 60.6562H48.875C56.8273 60.6562 59.6562 57.8273 59.6562 49.875V39.525C59.6562 31.5727 56.8273 28.7438 48.875 28.7438H38.525Z" fill="white"/>
</g>
<defs>
<linearGradient id="paint0_linear_3804_31008" x1="44.186" y1="0.207031" x2="44.186" y2="89.841" gradientUnits="userSpaceOnUse">
<stop stop-color="white" stop-opacity="0.28"/>
<stop offset="1" stop-color="white" stop-opacity="0.39"/>
</linearGradient>
<clipPath id="clip0_3804_31008">
<rect x="0.148438" y="0.207031" width="88.0751" height="89.6339" rx="15" fill="white"/>
</clipPath>
</defs>
</svg>
