<svg width="89" height="90" viewBox="0 0 89 90" fill="none" xmlns="http://www.w3.org/2000/svg">
<g clip-path="url(#clip0_3804_30764)">
<g clip-path="url(#clip1_3804_30764)">
<rect x="0.0234375" y="0.207031" width="88.0751" height="89.6339" rx="15" fill="url(#paint0_linear_3804_30764)"/>
<path d="M43.7349 59.4171C39.7156 59.4171 35.6964 58.7788 31.8841 57.5023C30.4351 57.0021 29.3311 55.9843 28.8481 54.6561C28.3479 53.3278 28.5204 51.8616 29.3139 50.5506L31.2976 47.2558C31.7116 46.5658 32.0911 45.1858 32.0911 44.3751V39.3898C32.0911 32.9728 37.3179 27.7461 43.7349 27.7461C50.1519 27.7461 55.3786 32.9728 55.3786 39.3898V44.3751C55.3786 45.1686 55.7581 46.5658 56.1721 47.2731L58.1386 50.5506C58.8804 51.7926 59.0184 53.2933 58.5181 54.6561C58.0179 56.0188 56.9311 57.0538 55.5684 57.5023C51.7734 58.7788 47.7541 59.4171 43.7349 59.4171ZM43.7349 30.3336C38.7496 30.3336 34.6786 34.3873 34.6786 39.3898V44.3751C34.6786 45.6343 34.1611 47.4973 33.5229 48.5841L31.5391 51.8788C31.1596 52.5171 31.0561 53.1898 31.2804 53.7591C31.4874 54.3456 32.0049 54.7941 32.7121 55.0356C39.9226 57.4506 47.5644 57.4506 54.7749 55.0356C55.3959 54.8286 55.8789 54.3628 56.1031 53.7418C56.3274 53.1208 56.2756 52.4481 55.9306 51.8788L53.9469 48.5841C53.2914 47.4628 52.7911 45.6171 52.7911 44.3578V39.3898C52.7911 34.3873 48.7374 30.3336 43.7349 30.3336Z" fill="white"/>
<path d="M46.9424 30.7962C46.8216 30.7962 46.7009 30.7789 46.5801 30.7444C46.0799 30.6064 45.5969 30.5029 45.1311 30.4339C43.6649 30.2442 42.2504 30.3477 40.9221 30.7444C40.4391 30.8997 39.9216 30.7444 39.5939 30.3822C39.2661 30.0199 39.1626 29.5024 39.3524 29.0367C40.0596 27.2254 41.7846 26.0352 43.7511 26.0352C45.7176 26.0352 47.4426 27.2082 48.1499 29.0367C48.3224 29.5024 48.2361 30.0199 47.9084 30.3822C47.6496 30.6582 47.2874 30.7962 46.9424 30.7962Z" fill="white"/>
<path d="M43.7344 63.3438C42.0266 63.3438 40.3706 62.6537 39.1631 61.4462C37.9556 60.2387 37.2656 58.5828 37.2656 56.875H39.8531C39.8531 57.8928 40.2671 58.8933 40.9916 59.6178C41.7161 60.3423 42.7166 60.7563 43.7344 60.7563C45.8734 60.7563 47.6156 59.014 47.6156 56.875H50.2031C50.2031 60.4457 47.3051 63.3438 43.7344 63.3438Z" fill="white"/>
</g>
</g>
<defs>
<linearGradient id="paint0_linear_3804_30764" x1="44.061" y1="0.207031" x2="44.061" y2="89.841" gradientUnits="userSpaceOnUse">
<stop stop-color="white" stop-opacity="0.28"/>
<stop offset="1" stop-color="white" stop-opacity="0.39"/>
</linearGradient>
<clipPath id="clip0_3804_30764">
<rect x="0.0234375" y="0.207031" width="88.0751" height="89.6339" rx="10" fill="white"/>
</clipPath>
<clipPath id="clip1_3804_30764">
<rect x="0.0234375" y="0.207031" width="88.0751" height="89.6339" rx="15" fill="white"/>
</clipPath>
</defs>
</svg>
