<svg width="89" height="90" viewBox="0 0 89 90" fill="none" xmlns="http://www.w3.org/2000/svg">
<g clip-path="url(#clip0_3804_30755)">
<rect x="0.316406" y="0.207031" width="88.0751" height="89.6339" rx="15" fill="url(#paint0_linear_3804_30755)"/>
<path d="M44.7 63.2438C35.661 63.2438 28.3125 55.8953 28.3125 46.8563C28.3125 37.8173 35.661 30.4688 44.7 30.4688C53.739 30.4688 61.0875 37.8173 61.0875 46.8563C61.0875 55.8953 53.739 63.2438 44.7 63.2438ZM44.7 33.0563C37.0928 33.0563 30.9 39.249 30.9 46.8563C30.9 54.4635 37.0928 60.6562 44.7 60.6562C52.3073 60.6562 58.5 54.4635 58.5 46.8563C58.5 39.249 52.3073 33.0563 44.7 33.0563Z" fill="white"/>
<path d="M44.7 47.7203C43.9927 47.7203 43.4062 47.1338 43.4062 46.4266V37.8016C43.4062 37.0943 43.9927 36.5078 44.7 36.5078C45.4072 36.5078 45.9938 37.0943 45.9938 37.8016V46.4266C45.9938 47.1338 45.4072 47.7203 44.7 47.7203Z" fill="white"/>
<path d="M49.8742 28.7438H39.5242C38.817 28.7438 38.2305 28.1572 38.2305 27.45C38.2305 26.7427 38.817 26.1562 39.5242 26.1562H49.8742C50.5815 26.1562 51.168 26.7427 51.168 27.45C51.168 28.1572 50.5815 28.7438 49.8742 28.7438Z" fill="white"/>
</g>
<defs>
<linearGradient id="paint0_linear_3804_30755" x1="44.3539" y1="0.207031" x2="44.3539" y2="89.841" gradientUnits="userSpaceOnUse">
<stop stop-color="white" stop-opacity="0.28"/>
<stop offset="1" stop-color="white" stop-opacity="0.39"/>
</linearGradient>
<clipPath id="clip0_3804_30755">
<rect x="0.316406" y="0.207031" width="88.0751" height="89.6339" rx="15" fill="white"/>
</clipPath>
</defs>
</svg>
