<svg width="89" height="90" viewBox="0 0 89 90" fill="none" xmlns="http://www.w3.org/2000/svg">
<g clip-path="url(#clip0_3804_30771)">
<rect x="0.734375" y="0.207031" width="88.0751" height="89.6339" rx="15.5885" fill="url(#paint0_linear_3804_30771)"/>
<path d="M57.4979 44.2688H51.5984C50.8912 44.2688 50.3047 43.6823 50.3047 42.975V30.9172C50.3047 29.6407 50.8049 28.4505 51.7019 27.5535C52.5989 26.6565 53.7892 26.1562 55.0657 26.1562H55.0829C57.2392 26.1735 59.2747 27.0187 60.8272 28.554C62.3797 30.1237 63.2249 32.1938 63.2249 34.35V38.5245C63.2422 41.9572 60.9307 44.2688 57.4979 44.2688ZM52.8922 41.6813H57.4979C59.4989 41.6813 60.6547 40.5255 60.6547 38.5245V34.35C60.6547 32.8665 60.0682 31.452 59.0159 30.3825C57.9637 29.3475 56.5492 28.761 55.0829 28.7438C55.0829 28.7438 55.0829 28.7438 55.0657 28.7438C54.4964 28.7438 53.9444 28.968 53.5304 29.382C53.1164 29.796 52.8922 30.3307 52.8922 30.9172V41.6813Z" fill="white"/>
<path d="M39.525 64.2443C38.7143 64.2443 37.9553 63.9338 37.386 63.3472L34.5225 60.4665C34.3672 60.3113 34.1258 60.294 33.9532 60.432L30.9863 62.64C30.072 63.33 28.8645 63.4508 27.8295 62.9333C26.7945 62.4158 26.1562 61.3808 26.1562 60.225V34.35C26.1562 29.1405 29.1405 26.1562 34.35 26.1562H55.05C55.7572 26.1562 56.3438 26.7428 56.3438 27.45C56.3438 28.1573 55.7572 28.7438 55.05 28.7438C53.8598 28.7438 52.8938 29.7098 52.8938 30.9V60.225C52.8938 61.3808 52.2555 62.4158 51.2205 62.9333C50.1855 63.4508 48.978 63.3473 48.0637 62.6573L45.114 60.4492C44.9415 60.3112 44.7 60.3458 44.562 60.4838L41.664 63.3818C41.0947 63.9338 40.3358 64.2443 39.525 64.2443ZM34.1947 57.7583C34.9882 57.7583 35.7645 58.0515 36.351 58.6552L39.2145 61.536C39.318 61.6395 39.456 61.6568 39.525 61.6568C39.594 61.6568 39.732 61.6395 39.8355 61.536L42.7335 58.638C43.803 57.5685 45.4935 57.465 46.6838 58.3793L49.6163 60.57C49.806 60.708 49.9785 60.6563 50.0648 60.6045C50.151 60.5528 50.3062 60.4493 50.3062 60.225V30.9C50.3062 30.1238 50.496 29.382 50.8238 28.7438H34.35C30.5205 28.7438 28.7438 30.5205 28.7438 34.35V60.225C28.7438 60.4665 28.899 60.57 28.9853 60.6218C29.0888 60.6735 29.2613 60.708 29.4338 60.57L32.3835 58.362C32.9183 57.9653 33.5565 57.7583 34.1947 57.7583Z" fill="white"/>
<path d="M44.6992 47.7398H39.5242C38.817 47.7398 38.2305 47.1533 38.2305 46.4461C38.2305 45.7388 38.817 45.1523 39.5242 45.1523H44.6992C45.4065 45.1523 45.993 45.7388 45.993 46.4461C45.993 47.1533 45.4065 47.7398 44.6992 47.7398Z" fill="white"/>
<path d="M44.6992 40.8375H39.5242C38.817 40.8375 38.2305 40.251 38.2305 39.5438C38.2305 38.8365 38.817 38.25 39.5242 38.25H44.6992C45.4065 38.25 45.993 38.8365 45.993 39.5438C45.993 40.251 45.4065 40.8375 44.6992 40.8375Z" fill="white"/>
<path d="M34.2953 41.2703C33.3466 41.2703 32.5703 40.4941 32.5703 39.5453C32.5703 38.5966 33.3466 37.8203 34.2953 37.8203C35.2441 37.8203 36.0203 38.5966 36.0203 39.5453C36.0203 40.4941 35.2441 41.2703 34.2953 41.2703Z" fill="white"/>
<path d="M34.2953 48.1688C33.3466 48.1688 32.5703 47.3925 32.5703 46.4438C32.5703 45.495 33.3466 44.7188 34.2953 44.7188C35.2441 44.7188 36.0203 45.495 36.0203 46.4438C36.0203 47.3925 35.2441 48.1688 34.2953 48.1688Z" fill="white"/>
</g>
<defs>
<linearGradient id="paint0_linear_3804_30771" x1="44.7719" y1="0.207031" x2="44.7719" y2="89.841" gradientUnits="userSpaceOnUse">
<stop stop-color="white" stop-opacity="0.28"/>
<stop offset="1" stop-color="white" stop-opacity="0.39"/>
</linearGradient>
<clipPath id="clip0_3804_30771">
<rect x="0.734375" y="0.207031" width="88.0751" height="89.6339" rx="15" fill="white"/>
</clipPath>
</defs>
</svg>
