<svg width="265" height="400" viewBox="0 0 265 400" fill="none" xmlns="http://www.w3.org/2000/svg">
<g clip-path="url(#clip0_2603_28386)">
<path d="M0 52.0357C0 23.2972 23.2972 0 52.0358 0H212.603C241.342 0 264.639 23.2972 264.639 52.0358V399.189H52.0358C23.2972 399.189 0 375.892 0 347.153V52.0357Z" fill="#FEF2F2"/>
<g opacity="0.2">
<path d="M-69.894 115.223H-5.51937C42.0726 115.223 85.1566 143.379 104.263 186.967L133.8 254.354C145.416 280.855 166.227 302.26 192.391 314.618L298.091 364.542" stroke="#64A475" stroke-opacity="0.5" stroke-width="2.3973"/>
<path d="M-63.9209 149.5H7.81278C54.7329 149.5 97.3391 176.876 116.838 219.553L148.518 288.894C160.549 315.225 181.702 336.313 208.071 348.261L319.647 398.819" stroke="#64A475" stroke-opacity="0.5" stroke-width="2.3973"/>
<path d="M-51.4492 198.645H-8.05231C41.4398 198.645 85.8432 229.063 103.72 275.213L127.479 336.549C137.841 363.298 157.452 385.445 182.752 398.966L272.186 446.765" stroke="#64A475" stroke-opacity="0.5" stroke-width="2.3973"/>
</g>
</g>
<defs>
<clipPath id="clip0_2603_28386">
<path d="M0 52.0357C0 23.2972 23.2972 0 52.0358 0H212.603C241.342 0 264.639 23.2972 264.639 52.0358V399.189H52.0358C23.2972 399.189 0 375.892 0 347.153V52.0357Z" fill="white"/>
</clipPath>
</defs>
</svg>
