<svg width="1440" height="648" viewBox="0 0 1440 648" fill="none" xmlns="http://www.w3.org/2000/svg">
<g clip-path="url(#clip0_3641_32122)">
<rect width="1440" height="648" fill="white"/>
<path opacity="0.05" d="M610.5 470.231C395.3 267.031 113.833 305.897 0 350.731H-99L-84 640.727H1535V313.23C1579 102.03 1384.5 232.397 1263 350.731C1135.17 475.231 825.7 673.431 610.5 470.231Z" fill="url(#paint0_linear_3641_32122)"/>
<path d="M610.5 470.231C395.3 267.031 113.833 305.897 0 350.731H-99L-84 640.727H1535V313.23C1579 102.03 1384.5 232.397 1263 350.731C1135.17 475.231 825.7 673.431 610.5 470.231Z" fill="url(#paint1_linear_3641_32122)"/>
<path d="M0 350.731C113.833 305.897 395.3 267.031 610.5 470.231C825.7 673.431 1135.17 475.231 1263 350.731C1384.5 232.397 1579 102.03 1535 313.23" stroke="url(#paint2_linear_3641_32122)" stroke-width="1.5" stroke-linejoin="round" stroke-dasharray="5 5"/>
<circle cx="230.5" cy="312.727" r="26.5" fill="white"/>
<circle opacity="0.1" cx="230.5" cy="312.727" r="26.5" fill="#218721"/>
<path d="M232.207 326.889C231.528 328.054 229.81 328.054 229.13 326.889L219.755 310.813C219.081 309.658 219.934 308.223 221.293 308.223H240.044C241.404 308.223 242.256 309.658 241.583 310.813L232.207 326.889Z" fill="#228B22"/>
<g filter="url(#filter0_f_3641_32122)">
<path d="M232.257 309.445H220.922V311.524H232.257V309.445Z" fill="#0D3D0D"/>
</g>
<path d="M225.192 299.392C225.737 298.468 227.1 298.468 227.646 299.392L233.321 309.005C233.867 309.929 233.185 311.083 232.094 311.083H220.743C219.653 311.083 218.971 309.929 219.516 309.005L225.192 299.392Z" fill="#23A323"/>
<circle cx="1227" cy="380.225" r="27" transform="rotate(-48.2693 1227 380.225)" fill="white"/>
<circle opacity="0.1" cx="1227" cy="380.225" r="27" transform="rotate(-48.2693 1227 380.225)" fill="url(#paint3_linear_3641_32122)"/>
<path d="M1218.44 386.664C1219.07 389.275 1221.69 390.886 1224.3 390.262C1226.91 389.638 1228.52 387.015 1227.9 384.404C1227.27 381.793 1224.65 380.182 1222.04 380.806C1219.43 381.43 1217.82 384.053 1218.44 386.664ZM1225.73 372.738L1226.23 371.976L1226.2 371.952L1226.16 371.932L1225.73 372.738ZM1233.49 374.394C1233.3 374.859 1233.52 375.392 1233.98 375.585C1234.45 375.779 1234.98 375.559 1235.18 375.094L1233.49 374.394ZM1223.96 385.078C1223 383.411 1221.97 381.424 1221.15 379.479C1220.33 377.517 1219.74 375.667 1219.61 374.254C1219.54 373.546 1219.59 373.027 1219.72 372.679C1219.84 372.368 1220.01 372.199 1220.27 372.106C1220.57 371.997 1221.1 371.958 1221.96 372.169C1222.82 372.378 1223.92 372.813 1225.31 373.545L1226.16 371.932C1224.69 371.161 1223.45 370.656 1222.4 370.399C1221.36 370.144 1220.43 370.111 1219.65 370.391C1218.83 370.686 1218.3 371.288 1218.01 372.039C1217.75 372.752 1217.71 373.585 1217.79 374.429C1217.95 376.12 1218.63 378.174 1219.47 380.186C1220.33 382.215 1221.39 384.271 1222.38 385.989L1223.96 385.078ZM1225.23 373.501C1226.74 374.485 1228.26 375.822 1229.72 377.177C1231.15 378.506 1232.55 379.885 1233.73 380.846C1234.32 381.328 1234.91 381.75 1235.46 382.017C1235.99 382.273 1236.68 382.479 1237.35 382.225C1238.07 381.955 1238.43 381.303 1238.62 380.623C1238.81 379.937 1238.86 379.033 1238.82 377.916L1237 377.984C1237.04 379.034 1236.98 379.721 1236.86 380.144C1236.74 380.573 1236.63 380.549 1236.71 380.519C1236.75 380.505 1236.64 380.562 1236.26 380.375C1235.89 380.201 1235.44 379.886 1234.88 379.433C1233.76 378.522 1232.45 377.231 1230.96 375.842C1229.49 374.479 1227.88 373.051 1226.23 371.976L1225.23 373.501ZM1238.82 377.916C1238.74 375.726 1238.54 374.192 1238.24 373.175C1238.09 372.67 1237.9 372.228 1237.63 371.892C1237.36 371.54 1236.96 371.257 1236.44 371.232C1235.96 371.208 1235.57 371.42 1235.29 371.632C1235.01 371.848 1234.76 372.131 1234.56 372.417C1234.14 372.993 1233.77 373.723 1233.49 374.394L1235.18 375.094C1235.43 374.493 1235.73 373.904 1236.03 373.488C1236.18 373.278 1236.31 373.147 1236.4 373.077C1236.5 373.003 1236.47 373.058 1236.35 373.052C1236.2 373.045 1236.15 372.955 1236.2 373.018C1236.26 373.097 1236.37 373.292 1236.49 373.692C1236.73 374.487 1236.92 375.839 1237 377.984L1238.82 377.916Z" fill="url(#paint4_linear_3641_32122)"/>
<circle cx="692.5" cy="524.727" r="23.5" fill="white"/>
<circle cx="692.5" cy="524.727" r="23.5" fill="url(#paint5_linear_3641_32122)"/>
<path d="M703.338 518.75L693.751 513.233C693.592 513.133 693.374 513.094 693.136 513.094C692.898 513.094 692.679 513.153 692.521 513.233L682.994 518.77C682.656 518.969 682.418 519.465 682.418 519.842V530.897C682.418 531.116 682.458 531.374 682.616 531.592L703.814 519.286C703.695 519.048 703.516 518.87 703.338 518.75Z" fill="url(#paint6_linear_3641_32122)"/>
<path d="M682.555 531.571C682.654 531.73 682.793 531.869 682.932 531.948L692.499 537.486C692.657 537.585 692.876 537.625 693.114 537.625C693.352 537.625 693.57 537.565 693.729 537.486L703.256 531.948C703.594 531.75 703.832 531.254 703.832 530.877V519.821C703.832 519.643 703.812 519.444 703.713 519.266L682.555 531.571Z" fill="url(#paint7_linear_3641_32122)"/>
<path d="M697.361 527.761C696.527 529.23 694.939 530.222 693.133 530.222C690.453 530.222 688.27 528.039 688.27 525.359C688.27 522.68 690.453 520.497 693.133 520.497C694.939 520.497 696.527 521.489 697.361 522.978L699.941 521.489C698.591 519.127 696.051 517.52 693.133 517.52C688.806 517.52 685.293 521.033 685.293 525.359C685.293 529.686 688.806 533.199 693.133 533.199C696.031 533.199 698.571 531.612 699.921 529.27L697.361 527.761Z" fill="white"/>
</g>
<defs>
<filter id="filter0_f_3641_32122" x="206.862" y="295.386" width="39.4554" height="30.1976" filterUnits="userSpaceOnUse" color-interpolation-filters="sRGB">
<feFlood flood-opacity="0" result="BackgroundImageFix"/>
<feBlend mode="normal" in="SourceGraphic" in2="BackgroundImageFix" result="shape"/>
<feGaussianBlur stdDeviation="7.02987" result="effect1_foregroundBlur_3641_32122"/>
</filter>
<linearGradient id="paint0_linear_3641_32122" x1="-338.788" y1="147.537" x2="439.401" y2="1629.52" gradientUnits="userSpaceOnUse">
<stop stop-color="#2563EB"/>
<stop offset="1" stop-color="#35FF49"/>
</linearGradient>
<linearGradient id="paint1_linear_3641_32122" x1="818.5" y1="506.727" x2="821.65" y2="616.55" gradientUnits="userSpaceOnUse">
<stop offset="0.248441" stop-color="white" stop-opacity="0.19"/>
<stop offset="1" stop-color="white"/>
</linearGradient>
<linearGradient id="paint2_linear_3641_32122" x1="-225.316" y1="157.639" x2="351.221" y2="1429.7" gradientUnits="userSpaceOnUse">
<stop stop-color="#2563EB"/>
<stop offset="1" stop-color="#35FF49"/>
</linearGradient>
<linearGradient id="paint3_linear_3641_32122" x1="1202.76" y1="350.343" x2="1254.58" y2="351.976" gradientUnits="userSpaceOnUse">
<stop stop-color="#0C6B8A"/>
<stop offset="1" stop-color="#6AF938"/>
</linearGradient>
<linearGradient id="paint4_linear_3641_32122" x1="1218.7" y1="370.731" x2="1236.1" y2="367.297" gradientUnits="userSpaceOnUse">
<stop stop-color="#0C6B8A"/>
<stop offset="1" stop-color="#6AF938"/>
</linearGradient>
<linearGradient id="paint5_linear_3641_32122" x1="669" y1="521.817" x2="704.828" y2="522.678" gradientUnits="userSpaceOnUse">
<stop stop-color="#FFCC00" stop-opacity="0.25"/>
<stop offset="1" stop-color="#03599C" stop-opacity="0.24"/>
</linearGradient>
<linearGradient id="paint6_linear_3641_32122" x1="682.418" y1="521.198" x2="698.725" y2="521.651" gradientUnits="userSpaceOnUse">
<stop stop-color="#FFCC00"/>
<stop offset="1" stop-color="#03599C"/>
</linearGradient>
<linearGradient id="paint7_linear_3641_32122" x1="682.555" y1="527.309" x2="698.771" y2="527.761" gradientUnits="userSpaceOnUse">
<stop stop-color="#FFCC00"/>
<stop offset="1" stop-color="#03599C"/>
</linearGradient>
<clipPath id="clip0_3641_32122">
<rect width="1440" height="648" fill="white"/>
</clipPath>
</defs>
</svg>
