<svg width="691" height="176" viewBox="0 0 691 176" fill="none" xmlns="http://www.w3.org/2000/svg">
<path d="M20.04 48.58C25.8 48.58 30.36 44.86 30.36 38.92C30.36 31.42 23.7 27.52 16.86 27.52H1.2C3.9 29.08 4.26 32.86 4.26 35.68V64.84C4.26 67.6 3.84 71.44 1.2 73H21.6C28.5 73 33.3 66.64 33.3 60.1C33.3 52.36 27.24 48.58 20.04 48.58ZM13.02 47.86V28.96H13.92C19.2 28.96 22.02 33.46 22.02 38.32C22.02 44.08 18.84 47.86 13.02 47.86ZM13.02 71.56V49.3H13.92C20.46 49.3 24.9 54.1 24.9 60.52C24.9 67.78 19.92 71.56 13.02 71.56ZM39.6788 56.44C43.0387 56.44 45.1988 53.74 46.0988 50.8C44.7188 50.8 43.7588 50.08 43.7588 48.64C43.7588 47.08 44.9588 44.98 46.6988 44.98C50.2988 44.98 49.5188 52.48 49.5188 54.82C44.3588 56.8 34.6988 60.34 34.6988 67.06C34.6988 76.9 45.5588 79 53.3588 79C61.6388 79 73.7588 76.3 73.7588 65.86V56.32C73.7588 55 73.6988 53.56 73.7588 52.24C73.8188 50.14 75.7988 47.98 77.9588 47.98C80.8988 47.98 81.7388 50.86 81.7388 53.32V64.84C81.7388 67.54 81.3188 71.5 78.7388 73H93.5588C90.9188 71.5 90.4988 67.6 90.4988 64.84V53.08C90.4988 48.1 87.8588 43.54 82.4588 43.54C81.7388 43.54 74.4788 47.86 73.7588 48.64V44.02C68.8988 46.78 67.2188 47.56 61.6388 48.46C63.7388 50.98 64.9988 52.9 64.9988 56.32V65.44C64.9988 72.1 61.3388 77.38 54.3188 77.38C48.0188 77.38 43.5188 73.24 43.5188 66.82C43.5188 62.2 45.4988 58.6 49.5188 56.32V68.86C49.5188 71.8 52.6988 73.6 55.3388 73.6C57.9788 73.6 59.2988 72.64 61.3388 71.14V70.54C60.9788 70.78 60.5588 70.9 60.1388 70.9C58.4588 70.9 58.2788 68.32 58.2788 67.18V53.38C58.2788 46.96 53.5388 43.54 47.4188 43.54C42.3788 43.54 35.7788 45.88 35.7788 51.88C35.7788 54.22 37.1588 56.44 39.6788 56.44ZM108.694 73C105.994 71.5 105.634 67.6 105.634 64.84V57.7L114.094 73H127.234C120.754 69.4 114.574 56.8 111.034 50.2C111.694 49.6 112.654 49.24 113.554 49.24C114.814 49.24 116.194 49.96 116.194 51.4C116.194 52.06 115.954 52.66 115.594 53.2C115.954 54.34 117.454 54.88 118.534 54.88C121.894 54.88 124.474 52.24 124.474 48.88C124.474 45.4 121.834 43.54 118.534 43.54C113.254 43.54 107.614 51.52 105.634 55.84V30.52C100.774 33.28 99.0942 34 93.5742 34.9C95.6742 37.42 96.9342 39.34 96.9342 42.76V64.84C96.9342 67.54 96.3942 71.56 93.8142 73H108.694ZM152.904 73H158.004C160.344 67.18 162.684 61.36 164.904 55.54C167.244 61.36 169.524 67.18 171.864 73H176.964L182.364 59.5C183.864 55.78 187.224 45.64 190.884 44.02H180.564C179.004 42.82 178.104 40.9 178.104 38.92C178.104 33.76 182.844 30.94 187.524 30.94C190.524 30.94 194.304 31.42 196.344 33.88C193.944 33.88 191.964 35.86 191.964 38.26C191.964 40.66 193.944 42.64 196.344 42.64C198.744 42.64 200.724 40.66 200.724 38.26C200.724 31.66 192.864 29.5 187.524 29.5C182.124 29.5 174.264 32.14 174.264 38.74C174.264 45.58 182.124 43.12 182.124 51.88C182.124 56.8 179.724 62.14 177.924 66.64C176.364 62.92 171.564 52.12 171.564 48.7C171.564 46.66 172.524 44.68 174.504 44.02H157.944C160.224 45.04 162.204 49.24 163.224 51.4V51.88C163.224 56.74 160.764 62.14 158.964 66.64C157.404 62.92 152.604 52.12 152.604 48.7C152.604 46.66 153.564 44.68 155.544 44.02H138.984C142.644 45.64 145.944 55.66 147.444 59.38L152.904 73ZM189.144 48.46C191.244 50.98 192.504 52.9 192.504 56.32V64.84C192.504 67.54 192.024 71.5 189.444 73H204.264C201.564 71.5 201.264 67.6 201.264 64.84V44.02C196.404 46.84 194.724 47.56 189.144 48.46ZM216.258 36.52H215.358C213.378 41.98 210.198 44.02 204.558 44.56V45.46H207.498V65.5C207.498 69.88 209.478 73.6 214.278 73.6C217.578 73.6 220.938 71.98 223.338 69.76V69.16C222.378 69.7 221.238 69.94 220.158 69.94C218.118 69.94 216.258 69.04 216.258 66.7V45.46H222.498V44.02H216.258V36.52ZM225.84 64.84C225.84 67.54 225.36 71.5 222.78 73H237.6C234.9 71.5 234.6 67.6 234.6 64.84V53.32C234.6 50.86 236.16 47.98 238.92 47.98C241.86 47.98 242.7 50.86 242.7 53.32V64.84C242.7 67.54 242.28 71.5 239.7 73H254.52C251.88 71.5 251.46 67.6 251.46 64.84V53.08C251.46 48.1 248.82 43.54 243.42 43.54C242.7 43.54 235.14 48.04 234.6 48.82V30.46C230.7 32.68 226.92 34.18 222.48 34.9C224.58 37.42 225.84 39.34 225.84 42.76V64.84ZM290.849 44.02H268.349L267.329 52.12C269.309 46.9 275.189 45.46 280.169 45.46H280.769L266.789 71.8V73H290.009L291.029 64.9C289.049 70.18 281.969 71.56 276.989 71.56H276.389L290.849 44.02ZM318.324 57.58V56.14C318.324 48.4 313.344 43.54 305.604 43.54C297.084 43.54 291.984 50.8 291.984 58.78C291.984 67.06 297.984 73.6 306.384 73.6C312.324 73.6 315.684 71.02 318.444 66.04L317.964 65.68C316.704 66.94 312.984 67.36 311.304 67.36C305.484 67.36 302.244 63.28 301.104 58.3L318.324 57.58ZM310.284 51.34C310.284 54.28 308.304 55.72 305.604 56.14C303.984 56.38 302.424 56.62 300.804 56.8C300.684 55.9 300.624 55 300.624 54.1C300.624 51.64 301.524 44.98 305.004 44.98C308.064 44.98 310.284 48.58 310.284 51.34ZM331.163 57.64C331.163 53.32 338.423 48.82 341.903 47.44C343.823 46.72 345.803 46.24 347.843 46.24C354.563 46.24 356.243 53.08 356.243 58.54C356.243 61.72 354.863 72.16 350.243 72.16C345.443 72.16 344.603 63.94 344.603 60.52C344.603 57.76 345.383 48.46 349.463 48.46C342.203 48.46 335.483 52.36 335.483 60.28C335.483 68.38 342.323 73.6 350.003 73.6C358.883 73.6 365.303 66.58 365.303 57.88C365.303 48.1 358.703 42.04 349.043 42.04C342.323 42.04 335.063 48.28 331.163 53.2V44.02C326.303 46.78 324.623 47.56 319.043 48.46C321.143 50.98 322.403 52.96 322.403 56.32V64.84C322.403 67.6 321.923 71.44 319.343 73H334.163C331.463 71.44 331.163 67.6 331.163 64.84V57.64ZM377.637 34.9C379.737 37.42 380.997 39.34 380.997 42.76V64.84C380.997 67.6 380.577 71.5 377.937 73H392.817C390.117 71.5 389.757 67.6 389.757 64.84V33.04C391.977 30.04 396.417 27.94 400.137 27.94C404.037 27.94 406.977 30.04 406.977 34.18C406.977 37.36 405.057 40.3 402.357 41.92C403.557 41.08 404.397 39.76 404.397 38.26C404.397 35.86 402.417 33.88 400.017 33.88C397.617 33.88 395.637 35.86 395.637 38.26C395.637 40.66 397.617 42.64 400.017 42.64C401.397 42.64 402.777 41.74 403.917 41.14C407.277 39.4 410.217 35.92 410.217 31.96C410.217 27.52 406.557 25.78 402.597 25.78C398.877 25.78 394.797 27.16 391.677 29.08C390.897 29.56 390.177 30.16 389.457 30.64C385.797 33.04 381.897 34.18 377.637 34.9ZM392.817 48.46C394.917 50.98 396.177 52.9 396.177 56.32V64.84C396.177 67.54 395.697 71.5 393.117 73H407.937C405.237 71.5 404.937 67.6 404.937 64.84V44.02C400.077 46.84 398.397 47.56 392.817 48.46ZM436.37 49.72C435.41 46.24 432.89 43.54 428.75 43.54C428.09 43.54 421.13 47.62 420.05 48.7V44.02C415.19 46.84 413.51 47.56 407.93 48.46C410.03 50.98 411.29 52.9 411.29 56.32V64.84C411.29 67.54 410.81 71.5 408.23 73H423.05C420.35 71.5 420.05 67.6 420.05 64.84V52.24C420.47 50.02 421.79 47.98 424.25 47.98C427.19 47.98 428.03 50.86 428.03 53.32V64.84C428.03 67.54 427.61 71.5 425.03 73H439.85C437.21 71.5 436.79 67.6 436.79 64.84V53.32C436.91 50.8 438.23 47.98 441.11 47.98C444.05 47.98 444.89 50.86 444.89 53.32V64.84C444.89 67.54 444.47 71.5 441.89 73H456.71C454.07 71.5 453.65 67.6 453.65 64.84V53.08C453.65 48.1 451.01 43.54 445.61 43.54C444.89 43.54 436.85 48.46 436.31 49.3L436.37 49.72ZM459.558 38.26C459.558 40.66 461.538 42.64 463.938 42.64C466.338 42.64 468.318 40.66 468.318 38.26C468.318 35.86 466.338 33.88 463.938 33.88C465.978 31.42 469.758 30.94 472.758 30.94C476.718 30.94 480.738 32.86 480.738 37.36C480.738 37.54 480.738 38.02 480.678 38.14C479.238 42.46 476.058 44.14 471.738 44.56V45.46H473.478V65.5C473.478 69.88 475.458 73.6 480.258 73.6C483.558 73.6 486.918 71.98 489.318 69.76V69.16C488.358 69.7 487.218 69.94 486.138 69.94C484.098 69.94 482.238 69.04 482.238 66.7V45.46H488.478V44.02H482.238V42.52C483.618 41.2 484.458 39.4 484.458 37.48C484.458 31.48 477.618 29.5 472.758 29.5C467.418 29.5 459.558 31.66 459.558 38.26ZM468.858 44.02C463.998 46.84 462.318 47.56 456.738 48.46C458.838 50.98 460.098 52.9 460.098 56.32V64.84C460.098 67.54 459.618 71.5 457.038 73H471.858C469.158 71.5 468.858 67.6 468.858 64.84V44.02ZM491.229 52.12C491.229 54.82 493.089 56.86 495.849 56.86C498.429 56.86 500.469 55.6 501.789 53.38C500.409 52.78 499.509 51.46 499.509 49.9C499.509 46.9 502.509 45.46 505.209 45.46H519.069V65.5C519.069 69.88 521.049 73.6 525.849 73.6C529.149 73.6 532.509 71.98 534.909 69.76V69.16C533.949 69.7 532.809 69.94 531.729 69.94C529.689 69.94 527.829 69.04 527.829 66.7V45.46H533.289C537.909 45.46 543.909 43.24 543.909 37.72C543.909 34.9 541.929 32.68 539.049 32.68C536.469 32.68 534.429 33.94 533.109 36.16C534.249 36.64 534.969 37.72 534.969 38.98C534.969 42.7 530.829 44.02 527.829 44.02V35.08H527.229C526.089 38.5 523.989 41.8 520.629 43.42C520.389 43.54 519.309 44.02 519.069 44.02C513.489 44.08 507.909 44.02 502.329 44.02C497.529 44.02 491.229 46.42 491.229 52.12ZM497.289 73.6C500.409 73.6 503.109 72.7 505.209 70.3C506.049 72.4 508.569 73.6 510.729 73.6C513.429 73.6 514.689 72.64 516.729 71.14V70.54C516.369 70.78 515.949 70.9 515.529 70.9C513.849 70.9 513.669 68.32 513.669 67.18V56.2C513.669 49.72 508.809 46.84 502.809 46.84L502.389 47.38C505.389 47.32 504.909 52.24 504.909 54.22C501.069 58.42 490.089 60.94 490.089 67.18C490.089 71.68 493.089 73.6 497.289 73.6ZM498.909 64.48C498.909 61 502.629 58.42 504.909 56.32V68.98C504.189 69.4 503.409 69.64 502.569 69.64C499.509 69.64 498.909 67 498.909 64.48ZM542.395 42.64C544.795 42.64 546.775 40.66 546.775 38.26C546.775 35.86 544.795 33.88 542.395 33.88C539.995 33.88 538.015 35.86 538.015 38.26C538.015 40.66 539.995 42.64 542.395 42.64ZM550.315 73C547.615 71.5 547.315 67.6 547.315 64.84V44.02C542.455 46.84 540.775 47.56 535.195 48.46C537.295 50.98 538.555 52.9 538.555 56.32V64.84C538.555 67.54 538.075 71.5 535.495 73H550.315ZM565.312 43.54C556.973 43.54 550.793 50.44 550.793 58.6C550.793 66.82 556.973 73.6 565.312 73.6C573.653 73.6 579.773 66.76 579.773 58.6C579.773 50.44 573.653 43.54 565.312 43.54ZM567.233 71.98C561.233 71.98 559.193 57.7 559.193 53.44C559.193 51.22 559.493 45.28 562.793 45.28C569.213 45.28 571.253 58.6 571.253 63.22C571.253 65.68 570.833 71.98 567.233 71.98ZM595.374 73C592.674 71.5 592.374 67.6 592.374 64.84V52.24C592.794 50.02 594.114 47.98 596.574 47.98C599.514 47.98 600.354 50.86 600.354 53.32V64.84C600.354 67.54 599.934 71.5 597.354 73H612.174C609.534 71.5 609.114 67.6 609.114 64.84V53.08C609.114 48.1 606.474 43.54 601.074 43.54C600.414 43.54 593.454 47.62 592.374 48.7V44.02C587.514 46.84 585.834 47.56 580.254 48.46C582.354 50.98 583.614 52.9 583.614 56.32V64.84C583.614 67.54 583.134 71.5 580.554 73H595.374ZM623.482 73.6C628.702 73.6 636.742 71.74 636.742 65.14C636.742 55.24 620.242 55.48 620.242 49.42C620.242 46.78 622.222 44.98 624.862 44.98C627.082 44.98 629.302 46.42 629.302 48.82C629.302 50.08 628.522 51.04 627.202 51.04C627.922 53.38 629.662 55.06 632.182 55.06C634.642 55.06 636.142 53.5 636.142 51.04C636.142 45.52 629.602 43.54 625.102 43.54C620.062 43.54 613.162 46.06 613.162 52.06C613.162 62.2 628.882 61.72 628.882 67.9C628.882 70.9 626.062 72.16 623.482 72.16C621.322 72.16 618.802 70.9 618.802 68.44C618.802 67 619.822 65.92 621.262 65.92C620.782 63.52 618.982 61.06 616.282 61.06C613.462 61.06 611.962 63.28 611.962 65.92C611.962 71.56 618.982 73.6 623.482 73.6ZM15 123.54C6.66 123.54 0.48 130.44 0.48 138.6C0.48 146.82 6.66 153.6 15 153.6C23.34 153.6 29.46 146.76 29.46 138.6C29.46 130.44 23.34 123.54 15 123.54ZM16.92 151.98C10.92 151.98 8.88 137.7 8.88 133.44C8.88 131.22 9.18 125.28 12.48 125.28C18.9 125.28 20.94 138.6 20.94 143.22C20.94 145.68 20.52 151.98 16.92 151.98ZM45.0614 153C42.3614 151.5 42.0614 147.6 42.0614 144.84V132.24C42.4814 130.02 43.8014 127.98 46.2614 127.98C49.2014 127.98 50.0414 130.86 50.0414 133.32V144.84C50.0414 147.54 49.6214 151.5 47.0414 153H61.8614C59.2214 151.5 58.8014 147.6 58.8014 144.84V133.08C58.8014 128.1 56.1614 123.54 50.7614 123.54C50.1014 123.54 43.1414 127.62 42.0614 128.7V124.02C37.2014 126.84 35.5214 127.56 29.9414 128.46C32.0414 130.98 33.3014 132.9 33.3014 136.32V144.84C33.3014 147.54 32.8214 151.5 30.2414 153H45.0614ZM81.2723 166.14C88.1123 166.14 90.5723 158.22 92.6723 153L98.0723 139.5C100.952 132.24 105.092 126.24 113.672 126.24C120.092 126.24 122.072 133.26 122.072 138.54C122.072 141.72 120.692 152.16 116.072 152.16C111.272 152.16 110.432 143.94 110.432 140.52C110.432 137.76 111.212 128.46 115.292 128.46C108.032 128.46 101.312 132.36 101.312 140.28C101.312 148.38 108.152 153.6 115.832 153.6C124.712 153.6 131.132 146.58 131.132 137.88C131.132 128.04 124.232 123.06 114.872 123.06C101.912 123.06 97.4723 136.68 93.6323 146.64C92.0723 142.92 87.2723 132.12 87.2723 128.7C87.2723 126.66 88.2323 124.68 90.2123 124.02H73.6523C77.3123 125.64 80.6123 135.66 82.1123 139.38L87.5723 153C88.4723 153 90.2123 153.3 90.2123 154.56C90.2123 157.44 85.4723 159.06 83.1923 159.06C80.5523 159.06 78.3923 157.74 78.3923 154.86C75.8123 154.86 74.4923 158.28 74.4923 160.44C74.4923 164.4 77.6123 166.14 81.2723 166.14ZM131.66 124.02C134.3 125.52 134.72 129.42 134.72 132.18V143.94C134.72 148.92 137.36 153.48 142.76 153.48C143.48 153.48 151.04 148.98 151.58 148.2C151.88 149.82 152.48 151.5 152.84 153H163.58C161.12 149.94 160.22 147.48 160.22 143.58V124.02H148.46C151.16 125.52 151.46 129.42 151.46 132.18V140.7C151.46 142.14 151.34 143.7 151.34 145.26C150.86 147.24 149.54 149.04 147.26 149.04C144.32 149.04 143.48 146.16 143.48 143.7V124.02H131.66ZM175.714 130.62V124.02C170.854 126.84 169.174 127.56 163.594 128.46C165.694 130.98 166.954 132.9 166.954 136.32V144.84C166.954 147.54 166.474 151.5 163.894 153H178.714C176.074 151.5 175.714 147.6 175.714 144.84V133.92C175.714 132.18 177.514 130.68 179.134 130.68C181.234 130.68 182.794 132.3 182.794 134.34C182.794 134.88 182.674 135.36 182.554 135.84C186.514 135.84 189.754 133.26 189.754 129.18C189.754 126.06 187.714 123.54 184.474 123.54C180.394 123.54 177.274 127.2 175.714 130.62ZM230.295 129.72C229.335 126.24 226.815 123.54 222.675 123.54C222.015 123.54 215.055 127.62 213.975 128.7V124.02C209.115 126.84 207.435 127.56 201.855 128.46C203.955 130.98 205.215 132.9 205.215 136.32V144.84C205.215 147.54 204.735 151.5 202.155 153H216.975C214.275 151.5 213.975 147.6 213.975 144.84V132.24C214.395 130.02 215.715 127.98 218.175 127.98C221.115 127.98 221.955 130.86 221.955 133.32V144.84C221.955 147.54 221.535 151.5 218.955 153H233.775C231.135 151.5 230.715 147.6 230.715 144.84V133.32C230.835 130.8 232.155 127.98 235.035 127.98C237.975 127.98 238.815 130.86 238.815 133.32V144.84C238.815 147.54 238.395 151.5 235.815 153H250.635C247.995 151.5 247.575 147.6 247.575 144.84V133.08C247.575 128.1 244.935 123.54 239.535 123.54C238.815 123.54 230.775 128.46 230.235 129.3L230.295 129.72ZM265.664 123.54C257.324 123.54 251.144 130.44 251.144 138.6C251.144 146.82 257.324 153.6 265.664 153.6C274.004 153.6 280.124 146.76 280.124 138.6C280.124 130.44 274.004 123.54 265.664 123.54ZM267.584 151.98C261.584 151.98 259.544 137.7 259.544 133.44C259.544 131.22 259.844 125.28 263.144 125.28C269.564 125.28 271.604 138.6 271.604 143.22C271.604 145.68 271.184 151.98 267.584 151.98ZM290.025 151.5C293.145 152.58 295.185 153.54 298.665 153.54C307.365 153.54 312.345 146.04 312.345 137.94C312.345 130.2 307.785 123.36 299.445 123.36C297.465 123.36 294.765 126 292.725 128.34V110.46C287.865 113.22 286.185 113.94 280.605 114.84C282.645 117.36 283.965 119.34 283.965 122.7L283.845 152.94C284.925 152.34 287.865 151.74 290.025 151.5ZM292.725 128.88C293.025 128.7 293.385 128.64 293.805 128.64C300.885 128.64 304.065 135.6 304.065 141.78C304.065 145.74 302.505 152.04 297.525 152.04C293.505 152.04 292.725 147.36 292.725 144.24V128.88ZM331.312 144.84C331.312 147.6 330.892 151.5 328.252 153H343.132C340.432 151.5 340.072 147.6 340.072 144.84V122.76C340.072 119.64 340.192 117.42 342.232 114.9C333.652 113.46 327.652 105.78 318.712 105.78C314.452 105.78 310.372 107.88 310.372 112.62C310.372 116.34 312.952 119.46 316.132 121.14C317.272 121.74 318.712 122.64 320.032 122.64C322.432 122.64 324.412 120.66 324.412 118.26C324.412 115.86 322.432 113.88 320.032 113.88C317.632 113.88 315.652 115.86 315.652 118.26C315.652 119.76 316.492 121.08 317.692 121.92C315.172 120.42 313.552 117.84 313.552 114.9C313.552 110.46 316.852 107.94 321.112 107.94C324.832 107.94 329.092 110.04 331.312 113.04V144.84ZM327.952 153C325.252 151.5 324.952 147.6 324.952 144.84V124.02C320.092 126.84 318.412 127.56 312.832 128.46C314.932 130.98 316.192 132.9 316.192 136.32V144.84C316.192 147.54 315.712 151.5 313.132 153H327.952ZM369.945 137.58V136.14C369.945 128.4 364.965 123.54 357.225 123.54C348.705 123.54 343.605 130.8 343.605 138.78C343.605 147.06 349.605 153.6 358.005 153.6C363.945 153.6 367.305 151.02 370.065 146.04L369.585 145.68C368.325 146.94 364.605 147.36 362.925 147.36C357.105 147.36 353.865 143.28 352.725 138.3L369.945 137.58ZM361.905 131.34C361.905 134.28 359.925 135.72 357.225 136.14C355.605 136.38 354.045 136.62 352.425 136.8C352.305 135.9 352.245 135 352.245 134.1C352.245 131.64 353.145 124.98 356.625 124.98C359.685 124.98 361.905 128.58 361.905 131.34Z" fill="white"/>
<path d="M632.762 24.4368C630.239 28.0636 631.133 33.0493 634.76 35.5727C638.387 38.0961 643.372 37.2015 645.896 33.5747C648.419 29.9479 647.525 24.9622 643.898 22.4388C640.271 19.9155 635.285 20.81 632.762 24.4368ZM657.854 18.139L659.337 17.9163L659.326 17.8457L659.309 17.7764L657.854 18.139ZM664.321 29.4823C663.538 29.754 663.124 30.6086 663.396 31.3913C663.667 32.1739 664.522 32.5881 665.304 32.3164L664.321 29.4823ZM640.753 29.476C641.747 26.4678 643.065 23.0321 644.557 19.8968C646.062 16.7344 647.692 13.9881 649.278 12.2727C650.073 11.4132 650.77 10.9094 651.34 10.6884C651.849 10.491 652.244 10.5169 652.643 10.7336C653.111 10.988 653.737 11.5933 654.423 12.8848C655.1 14.1614 655.772 15.9889 656.398 18.5015L659.309 17.7764C658.65 15.1315 657.906 13.0487 657.073 11.4785C656.248 9.92337 655.269 8.74566 654.075 8.09726C652.811 7.41113 651.486 7.41439 650.256 7.89111C649.087 8.34427 648.023 9.21126 647.076 10.2359C645.178 12.2887 643.392 15.3636 641.848 18.6076C640.292 21.8787 638.928 25.4346 637.905 28.5355L640.753 29.476ZM656.37 18.3616C656.809 21.2873 656.833 24.6187 656.766 27.8932C656.7 31.1046 656.542 34.3384 656.654 36.8401C656.71 38.0956 656.837 39.2797 657.117 40.2549C657.383 41.1854 657.881 42.2522 658.93 42.8005C660.043 43.382 661.247 43.1195 662.285 42.602C663.333 42.0796 664.507 41.1614 665.834 39.8865L663.755 37.7235C662.508 38.9218 661.592 39.5954 660.947 39.917C660.291 40.2436 660.197 40.0776 660.32 40.1418C660.379 40.1728 660.196 40.1087 660.001 39.4284C659.819 38.7929 659.704 37.8864 659.651 36.7055C659.545 34.3344 659.696 31.3119 659.765 27.9548C659.833 24.6609 659.817 21.1118 659.337 17.9163L656.37 18.3616ZM665.834 39.8865C668.434 37.3878 670.098 35.4604 671.017 33.9773C671.474 33.2397 671.806 32.5193 671.93 31.8273C672.059 31.1023 671.97 30.3031 671.437 29.6429C670.939 29.0258 670.244 28.7717 669.683 28.6651C669.108 28.5561 668.492 28.5652 667.913 28.6237C666.75 28.7414 665.45 29.0902 664.321 29.4823L665.304 32.3164C666.316 31.9651 667.372 31.6937 668.215 31.6085C668.639 31.5656 668.939 31.5776 669.124 31.6125C669.321 31.6499 669.227 31.6808 669.102 31.5266C668.943 31.3291 669 31.1706 668.976 31.3008C668.947 31.464 668.829 31.8134 668.467 32.3968C667.749 33.5558 666.302 35.2757 663.755 37.7235L665.834 39.8865Z" fill="url(#paint0_linear_3641_31790)"/>
<defs>
<linearGradient id="paint0_linear_3641_31790" x1="652.618" y1="7.30652" x2="675.895" y2="24.9126" gradientUnits="userSpaceOnUse">
<stop stop-color="#0C6B8A"/>
<stop offset="1" stop-color="#6AF938"/>
</linearGradient>
</defs>
</svg>
