<svg width="599" height="159" viewBox="0 0 599 159" fill="none" xmlns="http://www.w3.org/2000/svg">
<path d="M250.781 76.2172C192.781 107.051 99.1814 166.317 188.781 156.717C278.381 147.117 389.781 94.3839 434.281 69.2172C398.281 65.2172 311.182 69.6172 250.781 119.217" stroke="url(#paint0_linear_3481_29602)" stroke-width="2"/>
<path d="M55.2822 24.58C57.0822 24.58 58.7822 24.82 60.3822 25.3C61.9822 25.78 63.3822 26.5 64.5822 27.46C65.8222 28.42 66.7822 29.62 67.4622 31.06C68.1822 32.5 68.5422 34.18 68.5422 36.1C68.5422 37.74 68.2422 39.34 67.6422 40.9C67.0822 42.42 66.2822 43.78 65.2422 44.98C64.2422 46.18 63.0222 47.16 61.5822 47.92C60.1422 48.64 58.5622 49 56.8422 49H36.4422C37.1222 48.6 37.6622 48.08 38.0622 47.44C38.4622 46.8 38.7622 46.12 38.9622 45.4C39.1622 44.64 39.3022 43.86 39.3822 43.06C39.4622 42.26 39.5022 41.52 39.5022 40.84V11.68C39.5022 10.96 39.4622 10.22 39.3822 9.46C39.3422 8.66 39.2022 7.88 38.9622 7.12C38.7622 6.36 38.4622 5.68 38.0622 5.08C37.6622 4.44 37.1222 3.92 36.4422 3.52H52.1022C53.8222 3.52 55.4822 3.76 57.0822 4.24C58.7222 4.72 60.1622 5.44 61.4022 6.4C62.6822 7.36 63.7022 8.56 64.4622 10C65.2222 11.4 65.6022 13.04 65.6022 14.92C65.6022 16.4 65.3222 17.74 64.7622 18.94C64.2422 20.14 63.5222 21.16 62.6022 22C61.6822 22.84 60.5822 23.48 59.3022 23.92C58.0622 24.36 56.7222 24.58 55.2822 24.58ZM48.2622 23.86C51.1822 23.86 53.4022 23 54.9222 21.28C56.4822 19.52 57.2622 17.2 57.2622 14.32C57.2622 13.12 57.0822 11.96 56.7222 10.84C56.4022 9.68 55.8822 8.68 55.1622 7.84C54.4822 6.96 53.6422 6.26 52.6422 5.74C51.6422 5.22 50.4822 4.96 49.1622 4.96H48.2622V23.86ZM48.2622 47.56C49.9822 47.56 51.5622 47.34 53.0022 46.9C54.4822 46.42 55.7422 45.72 56.7822 44.8C57.8222 43.84 58.6422 42.68 59.2422 41.32C59.8422 39.92 60.1422 38.32 60.1422 36.52C60.1422 34.92 59.8622 33.44 59.3022 32.08C58.7822 30.68 58.0422 29.48 57.0822 28.48C56.1222 27.48 54.9622 26.7 53.6022 26.14C52.2822 25.58 50.8022 25.3 49.1622 25.3H48.2622V47.56ZM80.2328 34.3C80.5128 35.54 80.9328 36.72 81.4928 37.84C82.0528 38.92 82.7528 39.88 83.5928 40.72C84.4328 41.52 85.4128 42.16 86.5328 42.64C87.6928 43.12 88.9928 43.36 90.4328 43.36C90.8728 43.36 91.3928 43.34 91.9928 43.3C92.6328 43.22 93.2728 43.12 93.9128 43C94.5528 42.88 95.1528 42.72 95.7128 42.52C96.3128 42.28 96.7728 42 97.0928 41.68L97.5728 42.04C96.2128 44.52 94.5928 46.4 92.7128 47.68C90.8728 48.96 88.4728 49.6 85.5128 49.6C83.4328 49.6 81.4928 49.22 79.6928 48.46C77.9328 47.7 76.4128 46.66 75.1328 45.34C73.8928 43.98 72.9128 42.4 72.1928 40.6C71.4728 38.8 71.1128 36.86 71.1128 34.78C71.1128 32.78 71.4128 30.86 72.0128 29.02C72.6528 27.18 73.5528 25.56 74.7128 24.16C75.9128 22.76 77.3528 21.64 79.0328 20.8C80.7128 19.96 82.6128 19.54 84.7328 19.54C86.6528 19.54 88.3928 19.84 89.9528 20.44C91.5528 21 92.8928 21.84 93.9728 22.96C95.0928 24.04 95.9528 25.36 96.5528 26.92C97.1528 28.48 97.4528 30.22 97.4528 32.14V33.58L80.2328 34.3ZM89.4128 27.34C89.4128 26.66 89.2728 25.94 88.9928 25.18C88.7528 24.42 88.3928 23.74 87.9128 23.14C87.4328 22.5 86.8728 21.98 86.2328 21.58C85.5928 21.18 84.8928 20.98 84.1328 20.98C83.2528 20.98 82.5328 21.34 81.9728 22.06C81.4128 22.78 80.9728 23.64 80.6528 24.64C80.3328 25.6 80.0928 26.6 79.9328 27.64C79.8128 28.68 79.7528 29.5 79.7528 30.1C79.7528 30.98 79.8128 31.88 79.9328 32.8C80.7328 32.72 81.5328 32.62 82.3328 32.5C83.1328 32.38 83.9328 32.26 84.7328 32.14C86.0928 31.94 87.2128 31.46 88.0928 30.7C88.9728 29.94 89.4128 28.82 89.4128 27.34ZM137.069 47.14C136.549 47.5 136.069 47.84 135.629 48.16C135.189 48.48 134.749 48.74 134.309 48.94C133.869 49.14 133.389 49.3 132.869 49.42C132.349 49.54 131.749 49.6 131.069 49.6C129.989 49.6 128.909 49.32 127.829 48.76C126.749 48.16 125.989 47.34 125.549 46.3C124.629 47.34 123.509 48.16 122.189 48.76C120.869 49.32 119.349 49.6 117.629 49.6C115.509 49.6 113.769 49.1 112.409 48.1C111.089 47.1 110.429 45.46 110.429 43.18C110.429 41.62 111.009 40.26 112.169 39.1C113.369 37.94 114.769 36.88 116.369 35.92C118.009 34.96 119.649 34.04 121.289 33.16C122.969 32.24 124.289 31.26 125.249 30.22V28.3C125.249 27.78 125.249 27.12 125.249 26.32C125.249 25.48 125.169 24.68 125.009 23.92C124.849 23.12 124.569 22.44 124.169 21.88C123.809 21.28 123.229 20.98 122.429 20.98C121.989 20.98 121.589 21.1 121.229 21.34C120.869 21.58 120.549 21.88 120.269 22.24C120.029 22.6 119.829 23 119.669 23.44C119.549 23.84 119.489 24.24 119.489 24.64C119.489 25.36 119.709 25.9 120.149 26.26C120.589 26.62 121.149 26.8 121.829 26.8C121.389 28.28 120.629 29.6 119.549 30.76C118.469 31.88 117.089 32.44 115.409 32.44C114.129 32.44 113.149 31.98 112.469 31.06C111.829 30.1 111.509 29.04 111.509 27.88C111.509 26.36 111.869 25.08 112.589 24.04C113.349 23 114.289 22.14 115.409 21.46C116.569 20.78 117.829 20.3 119.189 20.02C120.589 19.7 121.909 19.54 123.149 19.54C124.669 19.54 126.089 19.76 127.409 20.2C128.729 20.6 129.869 21.22 130.829 22.06C131.829 22.9 132.609 23.94 133.169 25.18C133.729 26.38 134.009 27.78 134.009 29.38V43.18C134.009 43.46 134.029 43.82 134.069 44.26C134.109 44.66 134.189 45.06 134.309 45.46C134.429 45.86 134.609 46.2 134.849 46.48C135.129 46.76 135.469 46.9 135.869 46.9C136.309 46.9 136.709 46.78 137.069 46.54V47.14ZM125.249 32.32C124.689 32.84 124.049 33.4 123.329 34C122.649 34.6 122.009 35.24 121.409 35.92C120.809 36.56 120.289 37.26 119.849 38.02C119.449 38.78 119.249 39.6 119.249 40.48C119.249 41.12 119.289 41.76 119.369 42.4C119.489 43 119.669 43.54 119.909 44.02C120.189 44.5 120.569 44.9 121.049 45.22C121.529 45.5 122.149 45.64 122.909 45.64C123.789 45.64 124.569 45.44 125.249 45.04V32.32ZM165.228 49H150.348C151.028 48.64 151.568 48.14 151.968 47.5C152.368 46.86 152.668 46.16 152.868 45.4C153.068 44.64 153.208 43.86 153.288 43.06C153.368 42.26 153.408 41.52 153.408 40.84V11.68C153.408 10.96 153.368 10.22 153.288 9.46C153.248 8.66 153.108 7.88 152.868 7.12C152.668 6.36 152.368 5.68 151.968 5.08C151.568 4.44 151.028 3.92 150.348 3.52H168.828C170.988 3.52 172.968 3.84 174.768 4.48C176.608 5.12 178.188 6.04 179.508 7.24C180.828 8.44 181.848 9.92 182.568 11.68C183.328 13.4 183.708 15.36 183.708 17.56C183.708 19.76 183.328 21.74 182.568 23.5C181.848 25.26 180.828 26.76 179.508 28C178.188 29.2 176.608 30.12 174.768 30.76C172.968 31.4 170.988 31.72 168.828 31.72H162.168V40.84C162.168 41.52 162.208 42.26 162.288 43.06C162.368 43.86 162.508 44.64 162.708 45.4C162.908 46.16 163.208 46.86 163.608 47.5C164.048 48.14 164.588 48.64 165.228 49ZM162.168 30.28H162.828C166.748 30.28 169.748 29.18 171.828 26.98C173.948 24.74 175.008 21.7 175.008 17.86C175.008 13.82 173.908 10.66 171.708 8.38C169.508 6.1 166.348 4.96 162.228 4.96H162.168V30.28ZM203.796 55C201.836 55 199.756 54.84 197.556 54.52C195.396 54.2 193.396 53.6 191.556 52.72C189.716 51.84 188.176 50.62 186.936 49.06C185.736 47.5 185.136 45.5 185.136 43.06C185.136 41.38 185.656 39.9 186.696 38.62C187.776 37.3 189.076 36.16 190.596 35.2C192.156 34.2 193.776 33.34 195.456 32.62C197.176 31.9 198.676 31.3 199.956 30.82V28.3C199.956 27.78 199.956 27.12 199.956 26.32C199.956 25.48 199.876 24.68 199.716 23.92C199.556 23.12 199.276 22.44 198.876 21.88C198.516 21.28 197.936 20.98 197.136 20.98C196.696 20.98 196.296 21.1 195.936 21.34C195.576 21.58 195.256 21.88 194.976 22.24C194.736 22.6 194.536 23 194.376 23.44C194.256 23.84 194.196 24.24 194.196 24.64C194.196 25.36 194.416 25.9 194.856 26.26C195.296 26.62 195.856 26.8 196.536 26.8C196.096 28.28 195.336 29.6 194.256 30.76C193.176 31.88 191.796 32.44 190.116 32.44C188.836 32.44 187.856 31.98 187.176 31.06C186.536 30.1 186.216 29.04 186.216 27.88C186.216 26.36 186.576 25.08 187.296 24.04C188.056 23 188.996 22.14 190.116 21.46C191.276 20.78 192.536 20.3 193.896 20.02C195.296 19.7 196.616 19.54 197.856 19.54C199.376 19.54 200.796 19.76 202.116 20.2C203.436 20.6 204.576 21.22 205.536 22.06C206.536 22.9 207.316 23.94 207.876 25.18C208.436 26.38 208.716 27.78 208.716 29.38V43.18C208.716 43.46 208.736 43.82 208.776 44.26C208.816 44.66 208.896 45.06 209.016 45.46C209.136 45.86 209.316 46.2 209.556 46.48C209.836 46.76 210.176 46.9 210.576 46.9C211.016 46.9 211.416 46.78 211.776 46.54V47.14C210.776 47.9 209.856 48.5 209.016 48.94C208.176 49.38 207.096 49.6 205.776 49.6C205.136 49.6 204.456 49.48 203.736 49.24C203.056 49.04 202.436 48.74 201.876 48.34C201.316 47.94 200.856 47.44 200.496 46.84C200.136 46.24 199.956 45.58 199.956 44.86V32.32C195.956 34.6 193.956 38.1 193.956 42.82C193.956 44.42 194.216 45.88 194.736 47.2C195.296 48.48 196.056 49.58 197.016 50.5C197.976 51.42 199.116 52.12 200.436 52.6C201.756 53.12 203.196 53.38 204.756 53.38C206.516 53.38 208.056 53.06 209.376 52.42C210.696 51.82 211.796 50.98 212.676 49.9C213.596 48.82 214.276 47.56 214.716 46.12C215.196 44.68 215.436 43.12 215.436 41.44V32.32C215.436 31.48 215.356 30.72 215.196 30.04C215.036 29.32 214.816 28.66 214.536 28.06C214.256 27.46 213.896 26.88 213.456 26.32C213.056 25.72 212.596 25.1 212.076 24.46C213.476 24.22 214.656 24 215.616 23.8C216.616 23.56 217.536 23.28 218.376 22.96C219.256 22.64 220.136 22.26 221.016 21.82C221.936 21.34 222.996 20.74 224.196 20.02V26.62C224.596 25.78 225.076 24.94 225.636 24.1C226.236 23.22 226.896 22.46 227.616 21.82C228.376 21.14 229.196 20.6 230.076 20.2C230.996 19.76 231.956 19.54 232.956 19.54C234.596 19.54 235.876 20.1 236.796 21.22C237.756 22.3 238.236 23.62 238.236 25.18C238.236 26.18 238.036 27.1 237.636 27.94C237.276 28.78 236.756 29.48 236.076 30.04C235.436 30.6 234.676 31.04 233.796 31.36C232.956 31.68 232.036 31.84 231.036 31.84C231.116 31.6 231.176 31.36 231.216 31.12C231.256 30.88 231.276 30.62 231.276 30.34C231.276 29.3 230.916 28.44 230.196 27.76C229.516 27.04 228.656 26.68 227.616 26.68C227.216 26.68 226.816 26.78 226.416 26.98C226.016 27.14 225.636 27.38 225.276 27.7C224.956 27.98 224.696 28.32 224.496 28.72C224.296 29.08 224.196 29.48 224.196 29.92V41.86C224.196 44.46 223.516 46.62 222.156 48.34C220.836 50.02 219.156 51.36 217.116 52.36C215.076 53.36 212.856 54.04 210.456 54.4C208.096 54.8 205.876 55 203.796 55ZM250.563 20.02H256.803V21.46H250.563V42.7C250.563 43.86 250.943 44.7 251.703 45.22C252.503 45.7 253.423 45.94 254.463 45.94C255.023 45.94 255.563 45.88 256.083 45.76C256.643 45.64 257.163 45.44 257.643 45.16V45.76C256.443 46.88 255.043 47.8 253.443 48.52C251.883 49.24 250.263 49.6 248.583 49.6C247.383 49.6 246.343 49.38 245.463 48.94C244.623 48.5 243.923 47.92 243.363 47.2C242.843 46.44 242.443 45.58 242.163 44.62C241.923 43.62 241.803 42.58 241.803 41.5V21.46H238.863V20.56C240.263 20.44 241.523 20.2 242.643 19.84C243.763 19.48 244.763 19 245.643 18.4C246.523 17.76 247.283 16.96 247.923 16C248.603 15.04 249.183 13.88 249.663 12.52H250.563V20.02ZM290.854 2.92C294.134 2.92 297.034 3.58 299.554 4.9C302.074 6.18 304.194 7.9 305.914 10.06C307.634 12.22 308.934 14.7 309.814 17.5C310.694 20.3 311.134 23.22 311.134 26.26C311.134 29.3 310.694 32.22 309.814 35.02C308.934 37.82 307.634 40.3 305.914 42.46C304.194 44.62 302.074 46.36 299.554 47.68C297.034 48.96 294.134 49.6 290.854 49.6C287.574 49.6 284.674 48.96 282.154 47.68C279.634 46.36 277.514 44.62 275.794 42.46C274.114 40.3 272.834 37.82 271.954 35.02C271.074 32.22 270.634 29.3 270.634 26.26C270.634 23.22 271.074 20.3 271.954 17.5C272.834 14.7 274.114 12.22 275.794 10.06C277.514 7.9 279.634 6.18 282.154 4.9C284.674 3.58 287.574 2.92 290.854 2.92ZM290.854 48.16C292.414 48.16 293.774 47.78 294.934 47.02C296.094 46.22 297.094 45.2 297.934 43.96C298.814 42.72 299.534 41.32 300.094 39.76C300.654 38.16 301.094 36.54 301.414 34.9C301.734 33.26 301.954 31.68 302.074 30.16C302.234 28.64 302.314 27.32 302.314 26.2C302.314 25.04 302.234 23.7 302.074 22.18C301.954 20.66 301.734 19.1 301.414 17.5C301.094 15.9 300.654 14.32 300.094 12.76C299.534 11.16 298.834 9.74 297.994 8.5C297.154 7.26 296.134 6.26 294.934 5.5C293.774 4.74 292.414 4.36 290.854 4.36C289.294 4.36 287.934 4.76 286.774 5.56C285.614 6.32 284.594 7.32 283.714 8.56C282.874 9.8 282.174 11.22 281.614 12.82C281.054 14.38 280.614 15.98 280.294 17.62C279.974 19.26 279.734 20.84 279.574 22.36C279.454 23.88 279.394 25.2 279.394 26.32C279.394 27.48 279.454 28.82 279.574 30.34C279.734 31.86 279.974 33.44 280.294 35.08C280.614 36.68 281.054 38.26 281.614 39.82C282.174 41.38 282.874 42.78 283.714 44.02C284.554 45.26 285.554 46.26 286.714 47.02C287.914 47.78 289.294 48.16 290.854 48.16ZM328.059 7.12C328.979 7.12 329.919 7.24 330.879 7.48C331.839 7.72 332.699 8.08 333.459 8.56C334.259 9.04 334.899 9.68 335.379 10.48C335.859 11.24 336.099 12.16 336.099 13.24C336.099 14.64 335.639 15.8 334.719 16.72C333.799 17.6 332.639 18.04 331.239 18.04C329.959 18.04 328.899 17.62 328.059 16.78C327.219 15.94 326.619 14.94 326.259 13.78C327.019 13.78 327.639 13.56 328.119 13.12C328.599 12.64 328.839 12.02 328.839 11.26C328.839 10.46 328.579 9.84 328.059 9.4C327.539 8.92 326.879 8.68 326.079 8.68C325.439 8.68 324.839 8.82 324.279 9.1C323.719 9.38 323.239 9.76 322.839 10.24C322.479 10.72 322.179 11.26 321.939 11.86C321.739 12.46 321.639 13.06 321.639 13.66C321.639 14.9 321.939 15.94 322.539 16.78C323.179 17.58 323.979 18.22 324.939 18.7C325.899 19.18 326.939 19.52 328.059 19.72C329.179 19.92 330.239 20.02 331.239 20.02V21.46H324.399V40.84C324.399 41.52 324.419 42.26 324.459 43.06C324.539 43.86 324.679 44.64 324.879 45.4C325.079 46.16 325.379 46.86 325.779 47.5C326.179 48.14 326.719 48.64 327.399 49H312.579C313.219 48.64 313.739 48.14 314.139 47.5C314.539 46.82 314.839 46.12 315.039 45.4C315.279 44.64 315.439 43.86 315.519 43.06C315.599 42.26 315.639 41.52 315.639 40.84V21.46H312.339V20.02H315.759C315.759 18.1 316.019 16.36 316.539 14.8C317.099 13.2 317.899 11.84 318.939 10.72C319.979 9.56 321.259 8.68 322.779 8.08C324.339 7.44 326.099 7.12 328.059 7.12ZM381.017 13.12C381.017 14.64 380.557 15.96 379.637 17.08C378.717 18.16 377.457 18.7 375.857 18.7C374.097 18.7 372.697 18.1 371.657 16.9C370.657 15.7 370.057 14.28 369.857 12.64C370.777 12.64 371.437 12.3 371.837 11.62C372.277 10.94 372.497 10.2 372.497 9.4C372.497 8.48 372.257 7.7 371.777 7.06C371.337 6.42 370.757 5.9 370.037 5.5C369.357 5.1 368.597 4.82 367.757 4.66C366.917 4.46 366.117 4.36 365.357 4.36C364.157 4.36 363.077 4.58 362.117 5.02C361.157 5.42 360.337 6 359.657 6.76C358.977 7.48 358.457 8.36 358.097 9.4C357.737 10.4 357.557 11.48 357.557 12.64C357.557 14.36 358.157 15.82 359.357 17.02C360.597 18.22 362.117 19.32 363.917 20.32C365.757 21.28 367.737 22.24 369.857 23.2C371.977 24.12 373.937 25.18 375.737 26.38C377.577 27.58 379.097 29.02 380.297 30.7C381.537 32.38 382.157 34.44 382.157 36.88C382.157 39.08 381.657 41 380.657 42.64C379.657 44.24 378.357 45.56 376.757 46.6C375.157 47.6 373.377 48.36 371.417 48.88C369.457 49.36 367.517 49.6 365.597 49.6C363.797 49.6 361.917 49.38 359.957 48.94C357.997 48.5 356.177 47.8 354.497 46.84C352.857 45.88 351.497 44.66 350.417 43.18C349.377 41.66 348.857 39.82 348.857 37.66C348.857 36.82 348.977 36 349.217 35.2C349.457 34.4 349.797 33.7 350.237 33.1C350.717 32.46 351.297 31.96 351.977 31.6C352.657 31.2 353.457 31 354.377 31C355.337 31 356.197 31.2 356.957 31.6C357.717 32 358.357 32.52 358.877 33.16C359.437 33.8 359.877 34.54 360.197 35.38C360.517 36.22 360.737 37.06 360.857 37.9C360.257 37.9 359.737 38.04 359.297 38.32C358.857 38.6 358.477 38.96 358.157 39.4C357.877 39.8 357.657 40.26 357.497 40.78C357.377 41.3 357.317 41.82 357.317 42.34C357.317 43.3 357.497 44.16 357.857 44.92C358.257 45.64 358.777 46.24 359.417 46.72C360.057 47.2 360.777 47.56 361.577 47.8C362.417 48.04 363.277 48.16 364.157 48.16C365.357 48.16 366.497 48 367.577 47.68C368.657 47.32 369.597 46.82 370.397 46.18C371.237 45.5 371.897 44.68 372.377 43.72C372.857 42.72 373.097 41.58 373.097 40.3C373.097 38.3 372.537 36.66 371.417 35.38C370.297 34.06 368.897 32.88 367.217 31.84C365.537 30.8 363.697 29.84 361.697 28.96C359.737 28.04 357.917 27 356.237 25.84C354.557 24.64 353.157 23.24 352.037 21.64C350.917 20.04 350.357 18.04 350.357 15.64C350.357 13.52 350.797 11.68 351.677 10.12C352.557 8.52 353.717 7.2 355.157 6.16C356.597 5.08 358.217 4.28 360.017 3.76C361.857 3.2 363.737 2.92 365.657 2.92C367.097 2.92 368.697 3.12 370.457 3.52C372.257 3.92 373.937 4.54 375.497 5.38C377.057 6.18 378.357 7.22 379.397 8.5C380.477 9.78 381.017 11.32 381.017 13.12ZM394.469 20.02H400.709V21.46H394.469V42.7C394.469 43.86 394.849 44.7 395.609 45.22C396.409 45.7 397.329 45.94 398.369 45.94C398.929 45.94 399.469 45.88 399.989 45.76C400.549 45.64 401.069 45.44 401.549 45.16V45.76C400.349 46.88 398.949 47.8 397.349 48.52C395.789 49.24 394.169 49.6 392.489 49.6C391.289 49.6 390.249 49.38 389.369 48.94C388.529 48.5 387.829 47.92 387.269 47.2C386.749 46.44 386.349 45.58 386.069 44.62C385.829 43.62 385.709 42.58 385.709 41.5V21.46H382.769V20.56C384.169 20.44 385.429 20.2 386.549 19.84C387.669 19.48 388.669 19 389.549 18.4C390.429 17.76 391.189 16.96 391.829 16C392.509 15.04 393.089 13.88 393.569 12.52H394.469V20.02ZM427.167 47.14C426.647 47.5 426.167 47.84 425.727 48.16C425.287 48.48 424.847 48.74 424.407 48.94C423.967 49.14 423.487 49.3 422.967 49.42C422.447 49.54 421.847 49.6 421.167 49.6C420.087 49.6 419.007 49.32 417.927 48.76C416.847 48.16 416.087 47.34 415.647 46.3C414.727 47.34 413.607 48.16 412.287 48.76C410.967 49.32 409.447 49.6 407.727 49.6C405.607 49.6 403.867 49.1 402.507 48.1C401.187 47.1 400.527 45.46 400.527 43.18C400.527 41.62 401.107 40.26 402.267 39.1C403.467 37.94 404.867 36.88 406.467 35.92C408.107 34.96 409.747 34.04 411.387 33.16C413.067 32.24 414.387 31.26 415.347 30.22V28.3C415.347 27.78 415.347 27.12 415.347 26.32C415.347 25.48 415.267 24.68 415.107 23.92C414.947 23.12 414.667 22.44 414.267 21.88C413.907 21.28 413.327 20.98 412.527 20.98C412.087 20.98 411.687 21.1 411.327 21.34C410.967 21.58 410.647 21.88 410.367 22.24C410.127 22.6 409.927 23 409.767 23.44C409.647 23.84 409.587 24.24 409.587 24.64C409.587 25.36 409.807 25.9 410.247 26.26C410.687 26.62 411.247 26.8 411.927 26.8C411.487 28.28 410.727 29.6 409.647 30.76C408.567 31.88 407.187 32.44 405.507 32.44C404.227 32.44 403.247 31.98 402.567 31.06C401.927 30.1 401.607 29.04 401.607 27.88C401.607 26.36 401.967 25.08 402.687 24.04C403.447 23 404.387 22.14 405.507 21.46C406.667 20.78 407.927 20.3 409.287 20.02C410.687 19.7 412.007 19.54 413.247 19.54C414.767 19.54 416.187 19.76 417.507 20.2C418.827 20.6 419.967 21.22 420.927 22.06C421.927 22.9 422.707 23.94 423.267 25.18C423.827 26.38 424.107 27.78 424.107 29.38V43.18C424.107 43.46 424.127 43.82 424.167 44.26C424.207 44.66 424.287 45.06 424.407 45.46C424.527 45.86 424.707 46.2 424.947 46.48C425.227 46.76 425.567 46.9 425.967 46.9C426.407 46.9 426.807 46.78 427.167 46.54V47.14ZM415.347 32.32C414.787 32.84 414.147 33.4 413.427 34C412.747 34.6 412.107 35.24 411.507 35.92C410.907 36.56 410.387 37.26 409.947 38.02C409.547 38.78 409.347 39.6 409.347 40.48C409.347 41.12 409.387 41.76 409.467 42.4C409.587 43 409.767 43.54 410.007 44.02C410.287 44.5 410.667 44.9 411.147 45.22C411.627 45.5 412.247 45.64 413.007 45.64C413.887 45.64 414.667 45.44 415.347 45.04V32.32ZM441.117 29.38C442.117 29.38 443.037 29.16 443.877 28.72C444.717 28.28 445.137 27.48 445.137 26.32C445.137 25.64 444.977 24.98 444.657 24.34C444.377 23.7 443.977 23.14 443.457 22.66C442.977 22.14 442.417 21.74 441.777 21.46C441.137 21.14 440.477 20.98 439.797 20.98C438.957 20.98 438.277 21.32 437.757 22C437.237 22.64 436.817 23.42 436.497 24.34C436.217 25.26 436.017 26.2 435.897 27.16C435.777 28.12 435.717 28.9 435.717 29.5C435.717 31.18 435.937 32.86 436.377 34.54C436.817 36.18 437.477 37.66 438.357 38.98C439.277 40.3 440.437 41.36 441.837 42.16C443.237 42.96 444.897 43.36 446.817 43.36C447.257 43.36 447.777 43.34 448.377 43.3C449.017 43.22 449.657 43.12 450.297 43C450.937 42.88 451.537 42.72 452.097 42.52C452.697 42.28 453.157 42 453.477 41.68L453.957 42.04C451.157 47.08 446.897 49.6 441.177 49.6C439.097 49.6 437.157 49.22 435.357 48.46C433.597 47.7 432.077 46.66 430.797 45.34C429.557 43.98 428.577 42.4 427.857 40.6C427.137 38.8 426.777 36.86 426.777 34.78C426.777 32.78 427.077 30.86 427.677 29.02C428.317 27.18 429.217 25.56 430.377 24.16C431.577 22.76 433.017 21.64 434.697 20.8C436.377 19.96 438.277 19.54 440.397 19.54C441.877 19.54 443.357 19.76 444.837 20.2C446.317 20.64 447.657 21.3 448.857 22.18C450.057 23.02 451.017 24.08 451.737 25.36C452.497 26.64 452.877 28.1 452.877 29.74C452.877 31.3 452.437 32.56 451.557 33.52C450.677 34.48 449.417 34.96 447.777 34.96C445.937 34.96 444.497 34.46 443.457 33.46C442.417 32.42 441.637 31.06 441.117 29.38ZM497.319 40.84C497.319 41.52 497.339 42.26 497.379 43.06C497.459 43.86 497.599 44.64 497.799 45.4C497.999 46.16 498.299 46.86 498.699 47.5C499.099 48.14 499.639 48.64 500.319 49H475.059L466.599 33.7V40.84C466.599 41.52 466.619 42.26 466.659 43.06C466.739 43.86 466.879 44.64 467.079 45.4C467.319 46.12 467.639 46.8 468.039 47.44C468.439 48.08 468.979 48.6 469.659 49H454.779C455.419 48.64 455.939 48.14 456.339 47.5C456.739 46.82 457.059 46.12 457.299 45.4C457.539 44.64 457.699 43.86 457.779 43.06C457.859 42.26 457.899 41.52 457.899 40.84V18.76C457.899 17.08 457.599 15.66 456.999 14.5C456.399 13.34 455.579 12.14 454.539 10.9C455.939 10.66 457.119 10.44 458.079 10.24C459.039 10 459.959 9.72 460.839 9.4C461.719 9.08 462.599 8.7 463.479 8.26C464.359 7.78 465.399 7.2 466.599 6.52V31.84C467.119 30.44 467.899 28.88 468.939 27.16C469.979 25.44 471.179 23.7 472.539 21.94C473.939 20.14 475.459 18.4 477.099 16.72C478.739 15 480.419 13.48 482.139 12.16C483.899 10.8 485.639 9.72 487.359 8.92C489.119 8.12 490.799 7.72 492.399 7.72C493.999 7.72 495.359 8.18 496.479 9.1C497.599 9.98 498.159 11.26 498.159 12.94C498.159 13.78 497.999 14.58 497.679 15.34C497.359 16.06 496.919 16.72 496.359 17.32C495.839 17.88 495.199 18.32 494.439 18.64C493.719 18.96 492.939 19.12 492.099 19.12C491.659 18.16 490.959 17.52 489.999 17.2C489.039 16.84 488.079 16.66 487.119 16.66C485.759 16.66 484.279 16.9 482.679 17.38C481.119 17.86 479.599 18.52 478.119 19.36C476.679 20.2 475.379 21.2 474.219 22.36C473.099 23.52 472.319 24.76 471.879 26.08C472.679 27.6 473.619 29.38 474.699 31.42C475.819 33.46 477.019 35.52 478.299 37.6C479.579 39.68 480.919 41.64 482.319 43.48C483.759 45.32 485.219 46.82 486.699 47.98C487.099 47.5 487.419 46.98 487.659 46.42C487.899 45.82 488.079 45.2 488.199 44.56C488.359 43.92 488.459 43.28 488.499 42.64C488.539 42 488.559 41.4 488.559 40.84V32.32C488.559 31.48 488.479 30.72 488.319 30.04C488.159 29.32 487.939 28.66 487.659 28.06C487.379 27.46 487.019 26.88 486.579 26.32C486.179 25.72 485.719 25.1 485.199 24.46C486.599 24.22 487.779 24 488.739 23.8C489.739 23.56 490.659 23.28 491.499 22.96C492.379 22.64 493.259 22.26 494.139 21.82C495.059 21.34 496.119 20.74 497.319 20.02V40.84ZM533.241 20.02C532.321 20.42 531.421 21.28 530.541 22.6C529.701 23.92 528.901 25.38 528.141 26.98C527.421 28.54 526.761 30.12 526.161 31.72C525.561 33.28 525.081 34.54 524.721 35.5L519.321 49H514.221L508.761 35.38C508.401 34.46 507.921 33.22 507.321 31.66C506.721 30.1 506.061 28.52 505.341 26.92C504.621 25.32 503.821 23.88 502.941 22.6C502.101 21.28 501.221 20.42 500.301 20.02H516.861C515.861 20.34 515.121 20.94 514.641 21.82C514.161 22.7 513.921 23.66 513.921 24.7C513.921 25.54 514.181 26.78 514.701 28.42C515.221 30.06 515.821 31.78 516.501 33.58C517.221 35.38 517.921 37.12 518.601 38.8C519.321 40.44 519.881 41.72 520.281 42.64C520.721 41.52 521.181 40.36 521.661 39.16C522.181 37.92 522.641 36.68 523.041 35.44C523.481 34.16 523.841 32.88 524.121 31.6C524.401 30.32 524.541 29.08 524.541 27.88C524.541 25.96 524.121 24.34 523.281 23.02C522.441 21.7 521.121 20.7 519.321 20.02H533.241ZM544.748 49L539.288 35.38C538.928 34.46 538.448 33.22 537.848 31.66C537.248 30.1 536.588 28.52 535.868 26.92C535.148 25.32 534.348 23.88 533.468 22.6C532.628 21.28 531.748 20.42 530.828 20.02H547.388C546.388 20.34 545.648 20.94 545.168 21.82C544.688 22.7 544.448 23.66 544.448 24.7C544.448 25.54 544.708 26.78 545.228 28.42C545.748 30.06 546.348 31.78 547.028 33.58C547.748 35.38 548.448 37.12 549.128 38.8C549.848 40.44 550.408 41.72 550.808 42.64C551.248 41.52 551.708 40.36 552.188 39.16C552.708 37.92 553.168 36.68 553.568 35.44C554.008 34.16 554.368 32.88 554.648 31.6C554.928 30.32 555.068 29.08 555.068 27.88C555.068 25.96 554.648 24.34 553.808 23.02C552.968 21.7 551.648 20.7 549.848 20.02H563.768C562.848 20.42 561.948 21.28 561.068 22.6C560.228 23.92 559.428 25.38 558.668 26.98C557.948 28.54 557.288 30.12 556.688 31.72C556.088 33.28 555.608 34.54 555.248 35.5L549.848 49C549.328 50.32 548.748 51.74 548.108 53.26C547.508 54.78 546.768 56.2 545.888 57.52C545.048 58.84 544.028 59.94 542.828 60.82C541.628 61.7 540.168 62.14 538.448 62.14C537.528 62.14 536.648 62.02 535.808 61.78C535.008 61.58 534.288 61.24 533.648 60.76C533.048 60.32 532.568 59.74 532.208 59.02C531.848 58.3 531.668 57.44 531.668 56.44C531.668 55.92 531.748 55.32 531.908 54.64C532.068 54 532.308 53.4 532.628 52.84C532.988 52.28 533.408 51.8 533.888 51.4C534.368 51.04 534.928 50.86 535.568 50.86C535.568 52.3 536.028 53.36 536.948 54.04C537.908 54.72 539.048 55.06 540.368 55.06C540.928 55.06 541.608 54.96 542.408 54.76C543.208 54.56 543.968 54.26 544.688 53.86C545.448 53.5 546.088 53.04 546.608 52.48C547.128 51.92 547.388 51.28 547.388 50.56C547.388 49.92 547.068 49.5 546.428 49.3C545.788 49.1 545.228 49 544.748 49ZM173.258 68.42C171.098 68.42 169.238 68.98 167.678 70.1C166.158 71.22 164.918 72.64 163.958 74.36C162.998 76.08 162.278 77.96 161.798 80C161.358 82 161.138 83.9 161.138 85.7C161.138 88.34 161.498 90.84 162.218 93.2C162.978 95.56 164.078 97.64 165.518 99.44C166.998 101.24 168.818 102.66 170.978 103.7C173.138 104.74 175.638 105.26 178.478 105.26C180.558 105.26 182.538 104.92 184.418 104.24C186.338 103.56 188.018 102.44 189.458 100.88L189.938 101.24C189.018 105.36 187.198 108.46 184.478 110.54C181.758 112.58 178.278 113.6 174.038 113.6C170.758 113.6 167.818 113 165.218 111.8C162.618 110.6 160.418 108.98 158.618 106.94C156.818 104.86 155.438 102.44 154.478 99.68C153.518 96.92 153.038 93.98 153.038 90.86C153.038 87.74 153.538 84.74 154.538 81.86C155.538 78.98 156.958 76.44 158.798 74.24C160.678 72 162.938 70.22 165.578 68.9C168.258 67.58 171.258 66.92 174.578 66.92C176.098 66.92 177.698 67.14 179.378 67.58C181.098 68.02 182.678 68.68 184.118 69.56C185.558 70.44 186.738 71.56 187.658 72.92C188.618 74.24 189.098 75.82 189.098 77.66C189.098 79.02 188.698 80.16 187.898 81.08C187.098 81.96 185.998 82.4 184.598 82.4C183.038 82.4 181.778 81.88 180.818 80.84C179.898 79.8 179.218 78.58 178.778 77.18C179.338 77.14 179.698 76.82 179.858 76.22C180.018 75.62 180.098 75.12 180.098 74.72C180.098 73.76 179.918 72.9 179.558 72.14C179.198 71.34 178.698 70.68 178.058 70.16C177.458 69.6 176.738 69.18 175.898 68.9C175.058 68.58 174.178 68.42 173.258 68.42ZM205.867 83.54C207.947 83.54 209.867 83.94 211.627 84.74C213.387 85.54 214.907 86.64 216.187 88.04C217.507 89.4 218.527 91 219.247 92.84C219.967 94.64 220.327 96.56 220.327 98.6C220.327 100.64 219.967 102.58 219.247 104.42C218.527 106.22 217.507 107.8 216.187 109.16C214.907 110.52 213.387 111.6 211.627 112.4C209.867 113.2 207.947 113.6 205.867 113.6C203.787 113.6 201.847 113.2 200.047 112.4C198.287 111.6 196.767 110.52 195.487 109.16C194.207 107.8 193.187 106.22 192.427 104.42C191.707 102.58 191.347 100.64 191.347 98.6C191.347 96.56 191.707 94.64 192.427 92.84C193.187 91 194.207 89.4 195.487 88.04C196.767 86.64 198.287 85.54 200.047 84.74C201.847 83.94 203.787 83.54 205.867 83.54ZM207.787 111.98C208.707 111.98 209.427 111.64 209.947 110.96C210.467 110.28 210.867 109.48 211.147 108.56C211.427 107.6 211.607 106.62 211.687 105.62C211.767 104.62 211.807 103.82 211.807 103.22C211.807 102.46 211.747 101.48 211.627 100.28C211.507 99.08 211.307 97.82 211.027 96.5C210.747 95.18 210.387 93.86 209.947 92.54C209.547 91.18 209.027 89.98 208.387 88.94C207.747 87.86 207.007 86.98 206.167 86.3C205.367 85.62 204.427 85.28 203.347 85.28C202.507 85.28 201.847 85.6 201.367 86.24C200.887 86.88 200.527 87.64 200.287 88.52C200.047 89.4 199.887 90.3 199.807 91.22C199.767 92.14 199.747 92.88 199.747 93.44C199.747 94.16 199.807 95.12 199.927 96.32C200.047 97.48 200.227 98.76 200.467 100.16C200.747 101.52 201.087 102.9 201.487 104.3C201.927 105.7 202.447 106.98 203.047 108.14C203.647 109.26 204.327 110.18 205.087 110.9C205.887 111.62 206.787 111.98 207.787 111.98ZM249.189 89.3C249.269 89.14 249.529 88.9 249.969 88.58C250.449 88.26 251.009 87.88 251.649 87.44C252.329 87 253.029 86.56 253.749 86.12C254.509 85.64 255.209 85.22 255.849 84.86C256.529 84.46 257.109 84.14 257.589 83.9C258.069 83.66 258.369 83.54 258.489 83.54C259.849 83.54 261.029 83.8 262.029 84.32C263.029 84.84 263.849 85.54 264.489 86.42C265.169 87.3 265.669 88.32 265.989 89.48C266.349 90.64 266.529 91.84 266.529 93.08V104.84C266.529 105.52 266.569 106.26 266.649 107.06C266.729 107.86 266.869 108.64 267.069 109.4C267.269 110.16 267.569 110.86 267.969 111.5C268.409 112.14 268.949 112.64 269.589 113H254.769C255.409 112.64 255.929 112.14 256.329 111.5C256.729 110.82 257.029 110.12 257.229 109.4C257.429 108.64 257.569 107.86 257.649 107.06C257.729 106.26 257.769 105.52 257.769 104.84V93.32C257.769 92.72 257.709 92.1 257.589 91.46C257.469 90.82 257.269 90.24 256.989 89.72C256.709 89.2 256.309 88.78 255.789 88.46C255.309 88.14 254.709 87.98 253.989 87.98C253.269 87.98 252.649 88.14 252.129 88.46C251.609 88.78 251.169 89.2 250.809 89.72C250.449 90.2 250.169 90.76 249.969 91.4C249.809 92.04 249.709 92.68 249.669 93.32V104.84C249.669 105.52 249.709 106.26 249.789 107.06C249.869 107.86 250.009 108.64 250.209 109.4C250.409 110.16 250.709 110.86 251.109 111.5C251.549 112.14 252.089 112.64 252.729 113H237.909C238.549 112.64 239.069 112.14 239.469 111.5C239.869 110.82 240.169 110.12 240.369 109.4C240.569 108.64 240.709 107.86 240.789 107.06C240.869 106.26 240.909 105.52 240.909 104.84V93.32C240.909 92.72 240.849 92.1 240.729 91.46C240.609 90.82 240.409 90.24 240.129 89.72C239.849 89.2 239.449 88.78 238.929 88.46C238.449 88.14 237.849 87.98 237.129 87.98C235.889 87.98 234.929 88.42 234.249 89.3C233.569 90.14 233.129 91.12 232.929 92.24V104.84C232.929 105.52 232.949 106.26 232.989 107.06C233.069 107.86 233.209 108.64 233.409 109.4C233.609 110.16 233.909 110.86 234.309 111.5C234.709 112.14 235.249 112.64 235.929 113H221.109C221.749 112.64 222.269 112.14 222.669 111.5C223.069 110.82 223.369 110.12 223.569 109.4C223.809 108.64 223.969 107.86 224.049 107.06C224.129 106.26 224.169 105.52 224.169 104.84V96.32C224.169 95.48 224.089 94.72 223.929 94.04C223.769 93.32 223.549 92.66 223.269 92.06C222.989 91.46 222.629 90.88 222.189 90.32C221.789 89.72 221.329 89.1 220.809 88.46C222.209 88.22 223.389 88 224.349 87.8C225.349 87.56 226.269 87.28 227.109 86.96C227.989 86.64 228.869 86.26 229.749 85.82C230.669 85.34 231.729 84.74 232.929 84.02V88.7C233.209 88.42 233.789 88 234.669 87.44C235.549 86.88 236.469 86.32 237.429 85.76C238.429 85.16 239.329 84.64 240.129 84.2C240.969 83.76 241.469 83.54 241.629 83.54C243.709 83.54 245.369 84.14 246.609 85.34C247.889 86.5 248.769 87.96 249.249 89.72L249.189 89.3ZM297.997 89.3C298.077 89.14 298.337 88.9 298.777 88.58C299.257 88.26 299.817 87.88 300.457 87.44C301.137 87 301.837 86.56 302.557 86.12C303.317 85.64 304.017 85.22 304.657 84.86C305.337 84.46 305.917 84.14 306.397 83.9C306.877 83.66 307.177 83.54 307.297 83.54C308.657 83.54 309.837 83.8 310.837 84.32C311.837 84.84 312.657 85.54 313.297 86.42C313.977 87.3 314.477 88.32 314.797 89.48C315.157 90.64 315.337 91.84 315.337 93.08V104.84C315.337 105.52 315.377 106.26 315.457 107.06C315.537 107.86 315.677 108.64 315.877 109.4C316.077 110.16 316.377 110.86 316.777 111.5C317.217 112.14 317.757 112.64 318.397 113H303.577C304.217 112.64 304.737 112.14 305.137 111.5C305.537 110.82 305.837 110.12 306.037 109.4C306.237 108.64 306.377 107.86 306.457 107.06C306.537 106.26 306.577 105.52 306.577 104.84V93.32C306.577 92.72 306.517 92.1 306.397 91.46C306.277 90.82 306.077 90.24 305.797 89.72C305.517 89.2 305.117 88.78 304.597 88.46C304.117 88.14 303.517 87.98 302.797 87.98C302.077 87.98 301.457 88.14 300.937 88.46C300.417 88.78 299.977 89.2 299.617 89.72C299.257 90.2 298.977 90.76 298.777 91.4C298.617 92.04 298.517 92.68 298.477 93.32V104.84C298.477 105.52 298.517 106.26 298.597 107.06C298.677 107.86 298.817 108.64 299.017 109.4C299.217 110.16 299.517 110.86 299.917 111.5C300.357 112.14 300.897 112.64 301.537 113H286.717C287.357 112.64 287.877 112.14 288.277 111.5C288.677 110.82 288.977 110.12 289.177 109.4C289.377 108.64 289.517 107.86 289.597 107.06C289.677 106.26 289.717 105.52 289.717 104.84V93.32C289.717 92.72 289.657 92.1 289.537 91.46C289.417 90.82 289.217 90.24 288.937 89.72C288.657 89.2 288.257 88.78 287.737 88.46C287.257 88.14 286.657 87.98 285.937 87.98C284.697 87.98 283.737 88.42 283.057 89.3C282.377 90.14 281.937 91.12 281.737 92.24V104.84C281.737 105.52 281.757 106.26 281.797 107.06C281.877 107.86 282.017 108.64 282.217 109.4C282.417 110.16 282.717 110.86 283.117 111.5C283.517 112.14 284.057 112.64 284.737 113H269.917C270.557 112.64 271.077 112.14 271.477 111.5C271.877 110.82 272.177 110.12 272.377 109.4C272.617 108.64 272.777 107.86 272.857 107.06C272.937 106.26 272.977 105.52 272.977 104.84V96.32C272.977 95.48 272.897 94.72 272.737 94.04C272.577 93.32 272.357 92.66 272.077 92.06C271.797 91.46 271.437 90.88 270.997 90.32C270.597 89.72 270.137 89.1 269.617 88.46C271.017 88.22 272.197 88 273.157 87.8C274.157 87.56 275.077 87.28 275.917 86.96C276.797 86.64 277.677 86.26 278.557 85.82C279.477 85.34 280.537 84.74 281.737 84.02V88.7C282.017 88.42 282.597 88 283.477 87.44C284.357 86.88 285.277 86.32 286.237 85.76C287.237 85.16 288.137 84.64 288.937 84.2C289.777 83.76 290.277 83.54 290.437 83.54C292.517 83.54 294.177 84.14 295.417 85.34C296.697 86.5 297.577 87.96 298.057 89.72L297.997 89.3ZM329.074 84.02V103.7C329.074 104.3 329.134 104.92 329.254 105.56C329.374 106.2 329.574 106.78 329.854 107.3C330.134 107.82 330.514 108.24 330.994 108.56C331.514 108.88 332.134 109.04 332.854 109.04C334.014 109.04 334.914 108.66 335.554 107.9C336.234 107.14 336.694 106.26 336.934 105.26C336.934 104.46 336.954 103.68 336.994 102.92C337.034 102.16 337.054 101.42 337.054 100.7V92.18C337.054 91.5 337.014 90.76 336.934 89.96C336.894 89.16 336.774 88.38 336.574 87.62C336.374 86.86 336.074 86.16 335.674 85.52C335.274 84.88 334.734 84.38 334.054 84.02H345.814V103.58C345.814 105.54 346.054 107.22 346.534 108.62C347.054 110.02 347.934 111.48 349.174 113H338.434C338.234 112.24 338.014 111.46 337.774 110.66C337.534 109.82 337.334 109 337.174 108.2C337.054 108.4 336.554 108.8 335.674 109.4C334.794 109.96 333.834 110.54 332.794 111.14C331.794 111.74 330.854 112.28 329.974 112.76C329.094 113.24 328.554 113.48 328.354 113.48C326.994 113.48 325.814 113.22 324.814 112.7C323.814 112.18 322.974 111.48 322.294 110.6C321.654 109.72 321.154 108.7 320.794 107.54C320.474 106.38 320.314 105.18 320.314 103.94V92.18C320.314 91.5 320.274 90.76 320.194 89.96C320.114 89.16 319.974 88.38 319.774 87.62C319.574 86.86 319.274 86.16 318.874 85.52C318.474 84.88 317.934 84.38 317.254 84.02H329.074ZM364.308 113H349.488C350.128 112.64 350.648 112.14 351.048 111.5C351.448 110.82 351.748 110.12 351.948 109.4C352.188 108.64 352.348 107.86 352.428 107.06C352.508 106.26 352.548 105.52 352.548 104.84V96.32C352.548 95.48 352.468 94.72 352.308 94.04C352.148 93.32 351.928 92.66 351.648 92.06C351.368 91.46 351.008 90.88 350.568 90.32C350.168 89.72 349.708 89.1 349.188 88.46C350.588 88.22 351.768 88 352.728 87.8C353.728 87.56 354.648 87.28 355.488 86.96C356.368 86.64 357.248 86.26 358.128 85.82C359.048 85.34 360.108 84.74 361.308 84.02V88.7C361.588 88.42 362.168 88 363.048 87.44C363.928 86.88 364.848 86.32 365.808 85.76C366.808 85.16 367.708 84.64 368.508 84.2C369.348 83.76 369.848 83.54 370.008 83.54C371.368 83.54 372.548 83.8 373.548 84.32C374.548 84.84 375.368 85.54 376.008 86.42C376.688 87.3 377.188 88.32 377.508 89.48C377.868 90.64 378.048 91.84 378.048 93.08V104.84C378.048 105.52 378.088 106.26 378.168 107.06C378.248 107.86 378.388 108.64 378.588 109.4C378.788 110.16 379.088 110.86 379.487 111.5C379.928 112.14 380.468 112.64 381.108 113H366.288C366.928 112.64 367.448 112.14 367.848 111.5C368.248 110.82 368.548 110.12 368.748 109.4C368.948 108.64 369.088 107.86 369.168 107.06C369.248 106.26 369.288 105.52 369.288 104.84V93.32C369.288 92.72 369.228 92.1 369.108 91.46C368.988 90.82 368.788 90.24 368.508 89.72C368.228 89.2 367.828 88.78 367.308 88.46C366.828 88.14 366.228 87.98 365.508 87.98C364.268 87.98 363.308 88.42 362.628 89.3C361.948 90.14 361.508 91.12 361.308 92.24V104.84C361.308 105.52 361.328 106.26 361.368 107.06C361.448 107.86 361.588 108.64 361.788 109.4C361.988 110.16 362.288 110.86 362.688 111.5C363.088 112.14 363.628 112.64 364.308 113ZM383.941 78.26C383.941 76.62 384.381 75.24 385.261 74.12C386.141 73 387.241 72.1 388.561 71.42C389.881 70.74 391.301 70.26 392.821 69.98C394.381 69.66 395.821 69.5 397.141 69.5C398.341 69.5 399.621 69.64 400.981 69.92C402.381 70.16 403.661 70.6 404.821 71.24C405.981 71.88 406.941 72.7 407.701 73.7C408.461 74.7 408.841 75.96 408.841 77.48C408.841 78.44 408.641 79.36 408.241 80.24C407.841 81.08 407.301 81.84 406.621 82.52V84.02H412.861V85.46H406.621V106.7C406.621 107.86 407.001 108.7 407.761 109.22C408.561 109.7 409.481 109.94 410.521 109.94C411.081 109.94 411.621 109.88 412.141 109.76C412.701 109.64 413.221 109.44 413.701 109.16V109.76C412.501 110.88 411.101 111.8 409.501 112.52C407.941 113.24 406.321 113.6 404.641 113.6C403.441 113.6 402.401 113.38 401.521 112.94C400.681 112.5 399.981 111.92 399.421 111.2C398.901 110.44 398.501 109.58 398.221 108.62C397.981 107.62 397.861 106.58 397.861 105.5V85.46H396.121V84.56C398.281 84.36 400.121 83.78 401.641 82.82C403.201 81.86 404.341 80.3 405.061 78.14C405.101 78.06 405.121 77.94 405.121 77.78C405.121 77.58 405.121 77.44 405.121 77.36C405.121 76.24 404.881 75.28 404.401 74.48C403.961 73.64 403.361 72.96 402.601 72.44C401.881 71.92 401.041 71.54 400.081 71.3C399.121 71.06 398.141 70.94 397.141 70.94C396.381 70.94 395.581 70.98 394.741 71.06C393.941 71.14 393.141 71.28 392.341 71.48C391.581 71.68 390.841 71.98 390.121 72.38C389.441 72.78 388.841 73.28 388.321 73.88C389.521 73.88 390.541 74.32 391.381 75.2C392.261 76.04 392.701 77.06 392.701 78.26C392.701 79.46 392.261 80.5 391.381 81.38C390.541 82.22 389.521 82.64 388.321 82.64C387.121 82.64 386.081 82.22 385.201 81.38C384.361 80.5 383.941 79.46 383.941 78.26ZM393.241 104.84C393.241 105.52 393.261 106.26 393.301 107.06C393.381 107.86 393.521 108.64 393.721 109.4C393.921 110.16 394.221 110.86 394.621 111.5C395.021 112.14 395.561 112.64 396.241 113H381.421C382.061 112.64 382.581 112.14 382.981 111.5C383.381 110.82 383.681 110.12 383.881 109.4C384.121 108.64 384.281 107.86 384.361 107.06C384.441 106.26 384.481 105.52 384.481 104.84V96.32C384.481 95.48 384.401 94.72 384.241 94.04C384.081 93.32 383.861 92.66 383.581 92.06C383.301 91.46 382.941 90.88 382.501 90.32C382.101 89.72 381.641 89.1 381.121 88.46C382.521 88.22 383.701 88 384.661 87.8C385.661 87.56 386.581 87.28 387.421 86.96C388.301 86.64 389.181 86.26 390.061 85.82C390.981 85.34 392.041 84.74 393.241 84.02V104.84ZM427.912 113L422.452 99.38C422.092 98.46 421.612 97.22 421.012 95.66C420.412 94.1 419.752 92.52 419.032 90.92C418.312 89.32 417.512 87.88 416.632 86.6C415.792 85.28 414.912 84.42 413.992 84.02H430.552C429.552 84.34 428.812 84.94 428.332 85.82C427.852 86.7 427.612 87.66 427.612 88.7C427.612 89.54 427.872 90.78 428.392 92.42C428.912 94.06 429.512 95.78 430.192 97.58C430.912 99.38 431.612 101.12 432.292 102.8C433.012 104.44 433.572 105.72 433.972 106.64C434.412 105.52 434.872 104.36 435.352 103.16C435.872 101.92 436.332 100.68 436.732 99.44C437.172 98.16 437.532 96.88 437.812 95.6C438.092 94.32 438.232 93.08 438.232 91.88C438.232 89.96 437.812 88.34 436.972 87.02C436.132 85.7 434.812 84.7 433.012 84.02H446.932C446.012 84.42 445.112 85.28 444.232 86.6C443.392 87.92 442.592 89.38 441.832 90.98C441.112 92.54 440.452 94.12 439.852 95.72C439.252 97.28 438.772 98.54 438.412 99.5L433.012 113C432.492 114.32 431.912 115.74 431.272 117.26C430.672 118.78 429.932 120.2 429.052 121.52C428.212 122.84 427.192 123.94 425.992 124.82C424.792 125.7 423.332 126.14 421.612 126.14C420.692 126.14 419.812 126.02 418.972 125.78C418.172 125.58 417.452 125.24 416.812 124.76C416.212 124.32 415.732 123.74 415.372 123.02C415.012 122.3 414.832 121.44 414.832 120.44C414.832 119.92 414.912 119.32 415.072 118.64C415.232 118 415.472 117.4 415.792 116.84C416.152 116.28 416.572 115.8 417.052 115.4C417.532 115.04 418.092 114.86 418.732 114.86C418.732 116.3 419.192 117.36 420.112 118.04C421.072 118.72 422.212 119.06 423.532 119.06C424.092 119.06 424.772 118.96 425.572 118.76C426.372 118.56 427.132 118.26 427.852 117.86C428.612 117.5 429.252 117.04 429.772 116.48C430.292 115.92 430.552 115.28 430.552 114.56C430.552 113.92 430.232 113.5 429.592 113.3C428.952 113.1 428.392 113 427.912 113Z" fill="black"/>
<defs>
<linearGradient id="paint0_linear_3481_29602" x1="168.798" y1="112.921" x2="438.883" y2="116.375" gradientUnits="userSpaceOnUse">
<stop stop-color="#FFDA6D"/>
<stop offset="0.415242" stop-color="#D7DBFF"/>
<stop offset="1" stop-color="#47AA8B"/>
</linearGradient>
</defs>
</svg>
