<svg width="1200" height="474" viewBox="0 0 1200 474" fill="none" xmlns="http://www.w3.org/2000/svg">
<path d="M0 32C0 14.3269 14.3269 0 32 0H1168C1185.67 0 1200 14.3269 1200 32V474H0V32Z" fill="url(#paint0_linear_3374_29334)"/>
<g opacity="0.1">
<path d="M1120.11 334.495C1120.11 360.429 1116.73 385.396 1110.12 409.236C1096.25 459.815 1068.84 504.917 1031.75 540.033C998.539 571.604 957.584 595.283 911.953 607.847C887.929 614.452 862.453 617.995 836.332 617.995C810.05 617.995 784.735 614.452 760.71 607.847C717.821 596.088 678.801 574.343 646.714 545.348C617.046 518.609 593.021 485.91 576.736 448.862C561.257 413.907 552.711 375.248 552.711 334.495C552.711 284.883 565.449 238.331 587.861 197.9C590.925 192.101 594.311 186.624 597.858 181.147C599.954 177.926 602.212 174.704 604.308 171.483C608.822 165.04 613.66 158.757 618.658 152.797C651.067 114.138 693.473 84.1776 742.007 67.1031C771.513 56.794 803.278 51.1562 836.332 51.1562C869.386 51.1562 901.15 56.794 930.657 67.1031C989.349 87.7213 1039.33 127.186 1073.19 178.248C1078.51 186.141 1083.35 194.356 1087.7 202.732C1108.5 242.036 1120.11 286.977 1120.11 334.495Z" fill="#02BBDC"/>
<path d="M1086.41 459.816C1086.41 510.879 974.514 552.115 836.492 552.115C698.471 552.115 586.57 510.718 586.57 459.816" stroke="#EFEFEF" stroke-width="4.59534" stroke-miterlimit="10" stroke-linecap="round" stroke-linejoin="round"/>
<path opacity="0.11" d="M1046.43 525.215C1047.72 523.766 1049.01 522.316 1050.3 520.866C1050.94 520.222 1051.42 519.577 1052.07 518.772C1053.84 516.678 1055.78 514.423 1057.55 512.329C1058.03 511.685 1058.52 511.201 1059 510.557C1060.29 508.785 1061.74 507.174 1063.03 505.402C1063.68 504.597 1064.16 503.953 1064.81 503.147C1066.1 501.375 1067.39 499.765 1068.52 497.993C1069 497.348 1069.48 496.704 1069.97 495.899C1073.35 491.066 1076.58 486.073 1079.64 481.079C1079.96 480.435 1080.29 479.952 1080.61 479.308C1081.74 477.375 1083.03 475.28 1084.16 473.186C1084.48 472.542 1084.96 471.898 1085.28 471.254C1086.57 468.998 1087.7 466.743 1088.99 464.327C1089.15 464.005 1089.32 463.683 1089.48 463.361C1090.93 460.622 1092.22 457.884 1093.51 454.984C1093.51 454.823 1093.67 454.662 1093.67 454.501C1094.8 451.924 1096.09 449.347 1097.22 446.769C1097.54 446.286 1097.7 445.642 1097.86 445.159C1098.34 444.031 1098.83 443.065 1099.15 441.937L1098.99 442.098C1103.34 431.467 1107.21 420.513 1110.28 409.238L1103.99 407.949C1041.59 432.272 967.418 445.964 997.086 481.24C1022.4 511.362 1004.5 504.919 1015.95 521.833C992.894 536.33 967.74 547.605 940.813 555.015C916.789 561.619 891.313 565.163 865.192 565.163C838.91 565.163 813.595 561.619 789.57 555.015C788.603 554.693 787.797 554.532 786.829 554.21C777.477 534.075 768.287 513.779 759.257 493.321C757.967 490.261 752.646 487.684 746.358 487.039C714.755 483.012 683.797 477.375 653.323 470.126C633.812 448.219 617.527 423.252 605.595 396.029C590.116 361.075 581.571 322.416 581.571 281.663C581.571 243.648 589.149 207.405 602.693 174.223C601.081 176.478 599.63 178.733 598.178 180.988C594.631 186.465 591.245 192.103 588.182 197.74C565.769 238.332 553.031 284.884 553.031 334.336C553.031 374.928 561.577 413.748 577.056 448.702C593.341 485.751 617.366 518.611 647.034 545.189C679.282 574.183 718.141 595.768 761.031 607.688C785.055 614.292 810.531 617.836 836.652 617.836C862.934 617.836 888.249 614.292 912.274 607.688C957.743 595.124 998.698 571.606 1032.08 539.873C1032.72 539.229 1033.2 538.746 1033.85 538.102C1035.3 536.813 1036.59 535.363 1038.04 534.075C1038.85 533.269 1039.65 532.303 1040.62 531.497C1041.75 530.209 1043.04 529.081 1044.17 527.792C1044.81 526.826 1045.62 526.021 1046.43 525.215Z" fill="black"/>
<path d="M939.044 78.2224C939.044 93.8471 893.09 106.411 836.334 106.411C779.739 106.411 733.785 93.8471 733.785 78.2224C733.785 74.1954 736.849 70.4906 742.17 67.1079C771.677 56.6378 803.441 51 836.495 51C869.549 51 901.313 56.6378 930.82 67.1079C936.141 70.4906 939.044 74.1954 939.044 78.2224Z" fill="#EFEFEF"/>
<path d="M1120.28 334.496C1120.28 376.377 993.218 410.203 836.493 410.203C679.768 410.203 552.711 376.377 552.711 334.496" stroke="#EFEFEF" stroke-width="4.59534" stroke-miterlimit="10" stroke-linecap="round" stroke-linejoin="round"/>
<path d="M1078.67 175.031C1078.67 211.596 971.445 241.235 839.389 241.235C707.334 241.235 600.109 211.596 600.109 175.031" stroke="#EFEFEF" stroke-width="4.59534" stroke-miterlimit="10" stroke-linecap="round" stroke-linejoin="round"/>
<path d="M760.873 607.686C712.823 556.946 680.414 459.654 680.414 348.026C680.414 184.047 750.392 51.1562 836.494 51.1562C922.758 51.1562 992.574 184.047 992.574 348.026C992.574 459.815 960.165 557.107 912.116 607.686" stroke="#EFEFEF" stroke-width="4.59534" stroke-miterlimit="10" stroke-linecap="round" stroke-linejoin="round"/>
<path opacity="0.11" d="M1087.7 202.742C1076.9 237.213 998.535 331.122 938.231 384.279C930.975 379.446 923.72 374.614 916.625 369.781C981.282 301.484 1035.3 234.797 1073.19 178.258C1078.51 186.151 1083.35 194.366 1087.7 202.742Z" fill="black"/>
<path d="M836.496 51V618" stroke="#EFEFEF" stroke-width="4.59534" stroke-miterlimit="10" stroke-linecap="round" stroke-linejoin="round"/>
<path opacity="0.11" d="M610.928 278.919C620.924 276.986 625.923 275.859 635.436 273.281C618.828 243.16 606.574 213.521 597.867 180.983C599.963 177.761 602.221 174.54 604.317 171.318C608.832 164.875 613.669 158.593 618.667 152.633C627.697 192.581 645.755 228.824 667.523 263.456C675.746 260.556 679.938 258.945 687.839 255.563C693.16 279.241 699.287 302.92 706.22 326.116C672.844 313.712 640.596 298.893 610.928 278.919Z" fill="black"/>
</g>
<defs>
<linearGradient id="paint0_linear_3374_29334" x1="183.5" y1="399.603" x2="1618.36" y2="-202.792" gradientUnits="userSpaceOnUse">
<stop/>
<stop offset="1" stop-color="#764F47"/>
</linearGradient>
</defs>
</svg>
