<svg width="182" height="14" viewBox="0 0 182 14" fill="none" xmlns="http://www.w3.org/2000/svg">
<path d="M123.302 11V0.794L127.88 0.794C128.533 0.794 129.084 0.906 129.532 1.13C129.989 1.34467 130.335 1.648 130.568 2.04C130.801 2.42267 130.918 2.88 130.918 3.412C130.918 3.776 130.857 4.112 130.736 4.42C130.615 4.728 130.428 4.994 130.176 5.218C129.933 5.442 129.621 5.60067 129.238 5.694V5.75C129.667 5.834 130.027 5.99267 130.316 6.226C130.605 6.45 130.82 6.73 130.96 7.066C131.109 7.39267 131.184 7.75667 131.184 8.158C131.184 8.75533 131.044 9.26867 130.764 9.698C130.493 10.118 130.101 10.44 129.588 10.664C129.084 10.888 128.473 11 127.754 11L123.302 11ZM124.478 10.034L127.656 10.034C128.431 10.034 129.009 9.852 129.392 9.488C129.775 9.124 129.966 8.65733 129.966 8.088C129.966 7.5 129.779 7.04733 129.406 6.73C129.033 6.40333 128.515 6.24 127.852 6.24L124.478 6.24V10.034ZM124.478 5.302L127.796 5.302C128.225 5.302 128.58 5.232 128.86 5.092C129.149 4.94267 129.364 4.73733 129.504 4.476C129.653 4.21467 129.728 3.91133 129.728 3.566C129.728 2.98733 129.537 2.544 129.154 2.236C128.771 1.91867 128.263 1.76 127.628 1.76L124.478 1.76V5.302ZM135.32 11.126C134.779 11.126 134.307 11.0187 133.906 10.804C133.505 10.58 133.197 10.2487 132.982 9.81C132.767 9.362 132.66 8.81133 132.66 8.158V3.65L133.794 3.65V7.878C133.794 8.36333 133.859 8.77867 133.99 9.124C134.121 9.46 134.326 9.71667 134.606 9.894C134.895 10.0713 135.264 10.16 135.712 10.16C136.151 10.16 136.538 10.0527 136.874 9.838C137.21 9.62333 137.471 9.32 137.658 8.928C137.845 8.536 137.938 8.08333 137.938 7.57V3.65H139.072V11H137.994L137.938 9.432H137.868C137.672 9.95467 137.345 10.37 136.888 10.678C136.431 10.9767 135.908 11.126 135.32 11.126ZM143.771 11.14C142.791 11.14 142.035 10.916 141.503 10.468C140.98 10.02 140.719 9.432 140.719 8.704H141.853C141.853 9.25467 142.035 9.66067 142.399 9.922C142.763 10.174 143.229 10.3 143.799 10.3C144.387 10.3 144.835 10.1927 145.143 9.978C145.451 9.76333 145.605 9.46 145.605 9.068C145.605 8.76 145.539 8.522 145.409 8.354C145.278 8.186 145.073 8.06 144.793 7.976C144.513 7.88267 144.149 7.80333 143.701 7.738C143.281 7.67267 142.898 7.598 142.553 7.514C142.217 7.42067 141.927 7.29933 141.685 7.15C141.442 6.99133 141.255 6.79067 141.125 6.548C140.994 6.30533 140.929 6.00667 140.929 5.652C140.929 5.204 141.045 4.82133 141.279 4.504C141.521 4.18667 141.853 3.944 142.273 3.776C142.702 3.59867 143.201 3.51 143.771 3.51C144.368 3.51 144.877 3.60333 145.297 3.79C145.717 3.97667 146.039 4.24267 146.263 4.588C146.487 4.924 146.603 5.33 146.613 5.806L145.507 5.806C145.497 5.46067 145.418 5.18533 145.269 4.98C145.129 4.76533 144.928 4.60667 144.667 4.504C144.415 4.40133 144.111 4.35 143.757 4.35C143.215 4.35 142.795 4.462 142.497 4.686C142.207 4.90067 142.063 5.18533 142.063 5.54C142.063 5.80133 142.133 6.016 142.273 6.184C142.413 6.352 142.627 6.48267 142.917 6.576C143.206 6.66 143.57 6.73467 144.009 6.8C144.401 6.856 144.76 6.926 145.087 7.01C145.413 7.094 145.703 7.21067 145.955 7.36C146.207 7.50933 146.403 7.71467 146.543 7.976C146.692 8.23733 146.767 8.56867 146.767 8.97C146.767 9.68867 146.496 10.23 145.955 10.594C145.413 10.958 144.685 11.14 143.771 11.14ZM148.521 11V3.65H149.655V11H148.521ZM148.521 2.432V0.794L149.655 0.794V2.432H148.521ZM151.789 11V3.65L152.867 3.65L152.909 5.176H152.993C153.217 4.63467 153.562 4.22867 154.029 3.958C154.495 3.678 155.004 3.538 155.555 3.538C155.937 3.538 156.287 3.594 156.605 3.706C156.931 3.818 157.211 4 157.445 4.252C157.687 4.504 157.874 4.83067 158.005 5.232C158.135 5.624 158.201 6.10467 158.201 6.674V11H157.067V6.898C157.067 6.34733 156.997 5.89467 156.857 5.54C156.726 5.18533 156.521 4.924 156.241 4.756C155.97 4.57867 155.62 4.49 155.191 4.49C154.733 4.49 154.332 4.602 153.987 4.826C153.641 5.05 153.375 5.35333 153.189 5.736C153.002 6.10933 152.909 6.53867 152.909 7.024V11H151.789ZM163.247 11.126C162.529 11.126 161.908 10.972 161.385 10.664C160.863 10.3467 160.457 9.90333 160.167 9.334C159.887 8.76467 159.747 8.102 159.747 7.346C159.747 6.58067 159.887 5.91333 160.167 5.344C160.447 4.76533 160.844 4.322 161.357 4.014C161.88 3.69667 162.491 3.538 163.191 3.538C163.985 3.538 164.633 3.71533 165.137 4.07C165.651 4.41533 166.019 4.89133 166.243 5.498C166.477 6.09533 166.556 6.772 166.481 7.528L160.867 7.528C160.886 8.088 160.993 8.56867 161.189 8.97C161.385 9.362 161.656 9.66533 162.001 9.88C162.356 10.0853 162.771 10.188 163.247 10.188C163.798 10.188 164.26 10.062 164.633 9.81C165.016 9.54867 165.259 9.20333 165.361 8.774H166.453C166.388 9.24067 166.206 9.65133 165.907 10.006C165.618 10.3607 165.24 10.636 164.773 10.832C164.316 11.028 163.807 11.126 163.247 11.126ZM160.881 6.856L160.769 6.646L165.501 6.646L165.375 6.884C165.394 6.31467 165.305 5.85267 165.109 5.498C164.923 5.134 164.661 4.87267 164.325 4.714C163.989 4.546 163.607 4.462 163.177 4.462C162.729 4.462 162.333 4.56 161.987 4.756C161.651 4.94267 161.39 5.218 161.203 5.582C161.017 5.93667 160.909 6.36133 160.881 6.856ZM170.773 11.14C169.793 11.14 169.037 10.916 168.505 10.468C167.982 10.02 167.721 9.432 167.721 8.704H168.855C168.855 9.25467 169.037 9.66067 169.401 9.922C169.765 10.174 170.231 10.3 170.801 10.3C171.389 10.3 171.837 10.1927 172.145 9.978C172.453 9.76333 172.607 9.46 172.607 9.068C172.607 8.76 172.541 8.522 172.411 8.354C172.28 8.186 172.075 8.06 171.795 7.976C171.515 7.88267 171.151 7.80333 170.703 7.738C170.283 7.67267 169.9 7.598 169.555 7.514C169.219 7.42067 168.929 7.29933 168.687 7.15C168.444 6.99133 168.257 6.79067 168.127 6.548C167.996 6.30533 167.931 6.00667 167.931 5.652C167.931 5.204 168.047 4.82133 168.281 4.504C168.523 4.18667 168.855 3.944 169.275 3.776C169.704 3.59867 170.203 3.51 170.773 3.51C171.37 3.51 171.879 3.60333 172.299 3.79C172.719 3.97667 173.041 4.24267 173.265 4.588C173.489 4.924 173.605 5.33 173.615 5.806H172.509C172.499 5.46067 172.42 5.18533 172.271 4.98C172.131 4.76533 171.93 4.60667 171.669 4.504C171.417 4.40133 171.113 4.35 170.758 4.35C170.217 4.35 169.797 4.462 169.499 4.686C169.209 4.90067 169.065 5.18533 169.065 5.54C169.065 5.80133 169.135 6.016 169.275 6.184C169.415 6.352 169.629 6.48267 169.919 6.576C170.208 6.66 170.572 6.73467 171.011 6.8C171.403 6.856 171.762 6.926 172.089 7.01C172.415 7.094 172.705 7.21067 172.957 7.36C173.209 7.50933 173.405 7.71467 173.545 7.976C173.694 8.23733 173.769 8.56867 173.769 8.97C173.769 9.68867 173.498 10.23 172.957 10.594C172.415 10.958 171.687 11.14 170.773 11.14ZM178.169 11.14C177.189 11.14 176.433 10.916 175.901 10.468C175.378 10.02 175.117 9.432 175.117 8.704H176.251C176.251 9.25467 176.433 9.66067 176.797 9.922C177.161 10.174 177.628 10.3 178.197 10.3C178.785 10.3 179.233 10.1927 179.541 9.978C179.849 9.76333 180.003 9.46 180.003 9.068C180.003 8.76 179.938 8.522 179.807 8.354C179.676 8.186 179.471 8.06 179.191 7.976C178.911 7.88267 178.547 7.80333 178.099 7.738C177.679 7.67267 177.296 7.598 176.951 7.514C176.615 7.42067 176.326 7.29933 176.083 7.15C175.84 6.99133 175.654 6.79067 175.523 6.548C175.392 6.30533 175.327 6.00667 175.327 5.652C175.327 5.204 175.444 4.82133 175.677 4.504C175.92 4.18667 176.251 3.944 176.671 3.776C177.1 3.59867 177.6 3.51 178.169 3.51C178.766 3.51 179.275 3.60333 179.695 3.79C180.115 3.97667 180.437 4.24267 180.661 4.588C180.885 4.924 181.002 5.33 181.011 5.806H179.905C179.896 5.46067 179.816 5.18533 179.667 4.98C179.527 4.76533 179.326 4.60667 179.065 4.504C178.813 4.40133 178.51 4.35 178.155 4.35C177.614 4.35 177.194 4.462 176.895 4.686C176.606 4.90067 176.461 5.18533 176.461 5.54C176.461 5.80133 176.531 6.016 176.671 6.184C176.811 6.352 177.026 6.48267 177.315 6.576C177.604 6.66 177.968 6.73467 178.407 6.8C178.799 6.856 179.158 6.926 179.485 7.01C179.812 7.094 180.101 7.21067 180.353 7.36C180.605 7.50933 180.801 7.71467 180.941 7.976C181.09 8.23733 181.165 8.56867 181.165 8.97C181.165 9.68867 180.894 10.23 180.353 10.594C179.812 10.958 179.084 11.14 178.169 11.14Z" fill="url(#paint0_linear_3522_32867)"/>
<path d="M97.3536 7.35355C97.5488 7.15829 97.5488 6.84171 97.3536 6.64645L94.1716 3.46447C93.9763 3.2692 93.6597 3.2692 93.4645 3.46447C93.2692 3.65973 93.2692 3.97631 93.4645 4.17157L96.2929 7L93.4645 9.82843C93.2692 10.0237 93.2692 10.3403 93.4645 10.5355C93.6597 10.7308 93.9763 10.7308 94.1716 10.5355L97.3536 7.35355ZM5.66666 7C5.66666 5.52724 4.47276 4.33334 3 4.33334C1.52724 4.33334 0.333336 5.52724 0.333336 7C0.333336 8.47276 1.52724 9.66667 3 9.66667C4.47276 9.66667 5.66666 8.47276 5.66666 7ZM97 6.5L3 6.5L3 7.5L97 7.5L97 6.5Z" fill="url(#paint1_linear_3522_32867)"/>
<defs>
<linearGradient id="paint0_linear_3522_32867" x1="113.229" y1="-1.70215" x2="135.987" y2="48.0894" gradientUnits="userSpaceOnUse">
<stop stop-color="#2563EB"/>
<stop offset="1" stop-color="#35FF49"/>
</linearGradient>
<linearGradient id="paint1_linear_3522_32867" x1="110.741" y1="7.12158" x2="110.651" y2="2.82393" gradientUnits="userSpaceOnUse">
<stop stop-color="#2563EB"/>
<stop offset="1" stop-color="#35FF49"/>
</linearGradient>
</defs>
</svg>
