<svg width="1440" height="1491" viewBox="0 0 1440 1491" fill="none" xmlns="http://www.w3.org/2000/svg">
<g clip-path="url(#clip0_4364_31824)">
<rect width="1440" height="1491" fill="url(#paint0_linear_4364_31824)"/>
<g opacity="0.2" filter="url(#filter0_d_4364_31824)">
<path d="M201.321 135.333C200.565 136.628 198.656 136.628 197.901 135.333L187.482 117.468C186.734 116.185 187.681 114.59 189.192 114.59H210.03C211.54 114.59 212.488 116.185 211.739 117.468L201.321 135.333Z" fill="white"/>
<g filter="url(#filter1_f_4364_31824)">
<path d="M201.378 115.938H188.781V118.247H201.378V115.938Z" fill="#0D3D0D"/>
</g>
<path d="M193.52 104.77C194.126 103.743 195.642 103.743 196.248 104.77L202.555 115.452C203.161 116.479 202.403 117.762 201.191 117.762H188.577C187.365 117.762 186.607 116.479 187.213 115.452L193.52 104.77Z" fill="white"/>
</g>
<g opacity="0.2" filter="url(#filter2_d_4364_31824)">
<path d="M724.196 386.309C723.658 387.231 722.298 387.231 721.761 386.309L714.342 373.588C713.81 372.675 714.484 371.539 715.56 371.539H730.397C731.472 371.539 732.147 372.675 731.614 373.588L724.196 386.309Z" fill="white"/>
<g filter="url(#filter3_f_4364_31824)">
<path d="M724.237 372.5H715.268V374.145H724.237V372.5Z" fill="#0D3D0D"/>
</g>
<path d="M718.643 364.548C719.074 363.817 720.153 363.817 720.585 364.548L725.075 372.154C725.507 372.885 724.967 373.799 724.104 373.799H715.123C714.26 373.799 713.72 372.885 714.152 372.154L718.643 364.548Z" fill="white"/>
</g>
<g opacity="0.2" filter="url(#filter4_d_4364_31824)">
<path d="M1325.2 475.309C1324.66 476.231 1323.3 476.231 1322.76 475.309L1315.34 462.588C1314.81 461.675 1315.48 460.539 1316.56 460.539H1331.4C1332.47 460.539 1333.15 461.675 1332.61 462.588L1325.2 475.309Z" fill="white"/>
<g filter="url(#filter5_f_4364_31824)">
<path d="M1325.24 461.5H1316.27V463.145H1325.24V461.5Z" fill="#0D3D0D"/>
</g>
<path d="M1319.64 453.548C1320.07 452.817 1321.15 452.817 1321.58 453.548L1326.08 461.154C1326.51 461.885 1325.97 462.799 1325.1 462.799H1316.12C1315.26 462.799 1314.72 461.885 1315.15 461.154L1319.64 453.548Z" fill="white"/>
</g>
<g opacity="0.2" filter="url(#filter6_d_4364_31824)">
<path d="M1313.2 137.309C1312.66 138.231 1311.3 138.231 1310.76 137.309L1303.34 124.588C1302.81 123.675 1303.48 122.539 1304.56 122.539H1319.4C1320.47 122.539 1321.15 123.675 1320.61 124.588L1313.2 137.309Z" fill="white"/>
<g filter="url(#filter7_f_4364_31824)">
<path d="M1313.24 123.5H1304.27V125.145H1313.24V123.5Z" fill="#0D3D0D"/>
</g>
<path d="M1307.64 115.548C1308.07 114.817 1309.15 114.817 1309.58 115.548L1314.08 123.154C1314.51 123.885 1313.97 124.799 1313.1 124.799H1304.12C1303.26 124.799 1302.72 123.885 1303.15 123.154L1307.64 115.548Z" fill="white"/>
</g>
<g opacity="0.2" filter="url(#filter8_d_4364_31824)">
<path d="M118.196 447.309C117.658 448.231 116.298 448.231 115.761 447.309L108.342 434.588C107.81 433.675 108.484 432.539 109.56 432.539H124.397C125.472 432.539 126.147 433.675 125.614 434.588L118.196 447.309Z" fill="white"/>
<g filter="url(#filter9_f_4364_31824)">
<path d="M118.237 433.5H109.268V435.145H118.237V433.5Z" fill="#0D3D0D"/>
</g>
<path d="M112.643 425.548C113.074 424.817 114.153 424.817 114.585 425.548L119.075 433.154C119.507 433.885 118.967 434.799 118.104 434.799H109.123C108.26 434.799 107.72 433.885 108.152 433.154L112.643 425.548Z" fill="white"/>
</g>
<g opacity="0.2" filter="url(#filter10_d_4364_31824)">
<path d="M611.413 160.16C610.759 161.282 609.104 161.282 608.449 160.16L599.418 144.675C598.769 143.562 599.591 142.18 600.9 142.18H618.962C620.272 142.18 621.093 143.562 620.444 144.675L611.413 160.16Z" fill="white"/>
<g filter="url(#filter11_f_4364_31824)">
<path d="M611.464 143.348H600.545V145.35H611.464V143.348Z" fill="#0D3D0D"/>
</g>
<path d="M604.652 133.667C605.177 132.778 606.491 132.778 607.016 133.667L612.483 142.927C613.008 143.817 612.352 144.929 611.301 144.929H600.367C599.316 144.929 598.66 143.817 599.185 142.927L604.652 133.667Z" fill="white"/>
</g>
<g clip-path="url(#clip1_4364_31824)">
<path d="M1067.27 433.807C1059.35 447.398 1039.31 447.398 1031.39 433.807L922.042 246.32C914.189 232.854 924.133 216.113 939.986 216.113H1158.67C1174.53 216.113 1184.47 232.854 1176.62 246.32L1067.27 433.807Z" fill="white"/>
<g filter="url(#filter12_f_4364_31824)">
<path d="M1060.84 228.27H958.688V247H1060.84V228.27Z" fill="black"/>
</g>
<path d="M985.429 113.08C991.79 102.307 1007.69 102.307 1014.05 113.08L1080.24 225.191C1086.6 235.965 1078.65 249.431 1065.93 249.431H933.55C920.829 249.431 912.878 235.965 919.239 225.191L985.429 113.08Z" fill="white"/>
</g>
</g>
<defs>
<filter id="filter0_d_4364_31824" x="185.145" y="103.073" width="28.7093" height="36.014" filterUnits="userSpaceOnUse" color-interpolation-filters="sRGB">
<feFlood flood-opacity="0" result="BackgroundImageFix"/>
<feColorMatrix in="SourceAlpha" type="matrix" values="0 0 0 0 0 0 0 0 0 0 0 0 0 0 0 0 0 0 127 0" result="hardAlpha"/>
<feOffset dy="0.927328"/>
<feGaussianBlur stdDeviation="0.927328"/>
<feComposite in2="hardAlpha" operator="out"/>
<feColorMatrix type="matrix" values="0 0 0 0 0 0 0 0 0 0 0 0 0 0 0 0 0 0 0.25 0"/>
<feBlend mode="normal" in2="BackgroundImageFix" result="effect1_dropShadow_4364_31824"/>
<feBlend mode="normal" in="SourceGraphic" in2="effect1_dropShadow_4364_31824" result="shape"/>
</filter>
<filter id="filter1_f_4364_31824" x="173.157" y="100.313" width="43.8465" height="33.5574" filterUnits="userSpaceOnUse" color-interpolation-filters="sRGB">
<feFlood flood-opacity="0" result="BackgroundImageFix"/>
<feBlend mode="normal" in="SourceGraphic" in2="BackgroundImageFix" result="shape"/>
<feGaussianBlur stdDeviation="7.81221" result="effect1_foregroundBlur_4364_31824"/>
</filter>
<filter id="filter2_d_4364_31824" x="712.679" y="363.34" width="20.4419" height="25.6411" filterUnits="userSpaceOnUse" color-interpolation-filters="sRGB">
<feFlood flood-opacity="0" result="BackgroundImageFix"/>
<feColorMatrix in="SourceAlpha" type="matrix" values="0 0 0 0 0 0 0 0 0 0 0 0 0 0 0 0 0 0 127 0" result="hardAlpha"/>
<feOffset dy="0.660271"/>
<feGaussianBlur stdDeviation="0.660271"/>
<feComposite in2="hardAlpha" operator="out"/>
<feColorMatrix type="matrix" values="0 0 0 0 0 0 0 0 0 0 0 0 0 0 0 0 0 0 0.25 0"/>
<feBlend mode="normal" in2="BackgroundImageFix" result="effect1_dropShadow_4364_31824"/>
<feBlend mode="normal" in="SourceGraphic" in2="effect1_dropShadow_4364_31824" result="shape"/>
</filter>
<filter id="filter3_f_4364_31824" x="704.143" y="361.375" width="31.2184" height="23.8942" filterUnits="userSpaceOnUse" color-interpolation-filters="sRGB">
<feFlood flood-opacity="0" result="BackgroundImageFix"/>
<feBlend mode="normal" in="SourceGraphic" in2="BackgroundImageFix" result="shape"/>
<feGaussianBlur stdDeviation="5.56241" result="effect1_foregroundBlur_4364_31824"/>
</filter>
<filter id="filter4_d_4364_31824" x="1313.68" y="452.34" width="20.4419" height="25.6411" filterUnits="userSpaceOnUse" color-interpolation-filters="sRGB">
<feFlood flood-opacity="0" result="BackgroundImageFix"/>
<feColorMatrix in="SourceAlpha" type="matrix" values="0 0 0 0 0 0 0 0 0 0 0 0 0 0 0 0 0 0 127 0" result="hardAlpha"/>
<feOffset dy="0.660271"/>
<feGaussianBlur stdDeviation="0.660271"/>
<feComposite in2="hardAlpha" operator="out"/>
<feColorMatrix type="matrix" values="0 0 0 0 0 0 0 0 0 0 0 0 0 0 0 0 0 0 0.25 0"/>
<feBlend mode="normal" in2="BackgroundImageFix" result="effect1_dropShadow_4364_31824"/>
<feBlend mode="normal" in="SourceGraphic" in2="effect1_dropShadow_4364_31824" result="shape"/>
</filter>
<filter id="filter5_f_4364_31824" x="1305.14" y="450.375" width="31.2184" height="23.8942" filterUnits="userSpaceOnUse" color-interpolation-filters="sRGB">
<feFlood flood-opacity="0" result="BackgroundImageFix"/>
<feBlend mode="normal" in="SourceGraphic" in2="BackgroundImageFix" result="shape"/>
<feGaussianBlur stdDeviation="5.56241" result="effect1_foregroundBlur_4364_31824"/>
</filter>
<filter id="filter6_d_4364_31824" x="1301.68" y="114.34" width="20.4419" height="25.6411" filterUnits="userSpaceOnUse" color-interpolation-filters="sRGB">
<feFlood flood-opacity="0" result="BackgroundImageFix"/>
<feColorMatrix in="SourceAlpha" type="matrix" values="0 0 0 0 0 0 0 0 0 0 0 0 0 0 0 0 0 0 127 0" result="hardAlpha"/>
<feOffset dy="0.660271"/>
<feGaussianBlur stdDeviation="0.660271"/>
<feComposite in2="hardAlpha" operator="out"/>
<feColorMatrix type="matrix" values="0 0 0 0 0 0 0 0 0 0 0 0 0 0 0 0 0 0 0.25 0"/>
<feBlend mode="normal" in2="BackgroundImageFix" result="effect1_dropShadow_4364_31824"/>
<feBlend mode="normal" in="SourceGraphic" in2="effect1_dropShadow_4364_31824" result="shape"/>
</filter>
<filter id="filter7_f_4364_31824" x="1293.14" y="112.375" width="31.2184" height="23.8942" filterUnits="userSpaceOnUse" color-interpolation-filters="sRGB">
<feFlood flood-opacity="0" result="BackgroundImageFix"/>
<feBlend mode="normal" in="SourceGraphic" in2="BackgroundImageFix" result="shape"/>
<feGaussianBlur stdDeviation="5.56241" result="effect1_foregroundBlur_4364_31824"/>
</filter>
<filter id="filter8_d_4364_31824" x="106.679" y="424.34" width="20.4419" height="25.6411" filterUnits="userSpaceOnUse" color-interpolation-filters="sRGB">
<feFlood flood-opacity="0" result="BackgroundImageFix"/>
<feColorMatrix in="SourceAlpha" type="matrix" values="0 0 0 0 0 0 0 0 0 0 0 0 0 0 0 0 0 0 127 0" result="hardAlpha"/>
<feOffset dy="0.660271"/>
<feGaussianBlur stdDeviation="0.660271"/>
<feComposite in2="hardAlpha" operator="out"/>
<feColorMatrix type="matrix" values="0 0 0 0 0 0 0 0 0 0 0 0 0 0 0 0 0 0 0.25 0"/>
<feBlend mode="normal" in2="BackgroundImageFix" result="effect1_dropShadow_4364_31824"/>
<feBlend mode="normal" in="SourceGraphic" in2="effect1_dropShadow_4364_31824" result="shape"/>
</filter>
<filter id="filter9_f_4364_31824" x="98.1428" y="422.375" width="31.2184" height="23.8942" filterUnits="userSpaceOnUse" color-interpolation-filters="sRGB">
<feFlood flood-opacity="0" result="BackgroundImageFix"/>
<feBlend mode="normal" in="SourceGraphic" in2="BackgroundImageFix" result="shape"/>
<feGaussianBlur stdDeviation="5.56241" result="effect1_foregroundBlur_4364_31824"/>
</filter>
<filter id="filter10_d_4364_31824" x="597.392" y="132.196" width="24.8852" height="31.2152" filterUnits="userSpaceOnUse" color-interpolation-filters="sRGB">
<feFlood flood-opacity="0" result="BackgroundImageFix"/>
<feColorMatrix in="SourceAlpha" type="matrix" values="0 0 0 0 0 0 0 0 0 0 0 0 0 0 0 0 0 0 127 0" result="hardAlpha"/>
<feOffset dy="0.803809"/>
<feGaussianBlur stdDeviation="0.803809"/>
<feComposite in2="hardAlpha" operator="out"/>
<feColorMatrix type="matrix" values="0 0 0 0 0 0 0 0 0 0 0 0 0 0 0 0 0 0 0.25 0"/>
<feBlend mode="normal" in2="BackgroundImageFix" result="effect1_dropShadow_4364_31824"/>
<feBlend mode="normal" in="SourceGraphic" in2="effect1_dropShadow_4364_31824" result="shape"/>
</filter>
<filter id="filter11_f_4364_31824" x="587.002" y="129.804" width="38.0065" height="29.0904" filterUnits="userSpaceOnUse" color-interpolation-filters="sRGB">
<feFlood flood-opacity="0" result="BackgroundImageFix"/>
<feBlend mode="normal" in="SourceGraphic" in2="BackgroundImageFix" result="shape"/>
<feGaussianBlur stdDeviation="6.77163" result="effect1_foregroundBlur_4364_31824"/>
</filter>
<filter id="filter12_f_4364_31824" x="831.984" y="101.566" width="355.561" height="272.138" filterUnits="userSpaceOnUse" color-interpolation-filters="sRGB">
<feFlood flood-opacity="0" result="BackgroundImageFix"/>
<feBlend mode="normal" in="SourceGraphic" in2="BackgroundImageFix" result="shape"/>
<feGaussianBlur stdDeviation="63.3518" result="effect1_foregroundBlur_4364_31824"/>
</filter>
<linearGradient id="paint0_linear_4364_31824" x1="15.9999" y1="27.0002" x2="1710.52" y2="832.571" gradientUnits="userSpaceOnUse">
<stop stop-color="#2563EB"/>
<stop offset="1" stop-color="#35FF49"/>
</linearGradient>
<clipPath id="clip0_4364_31824">
<rect width="1440" height="1491" fill="white"/>
</clipPath>
<clipPath id="clip1_4364_31824">
<rect width="360" height="371" fill="white" transform="translate(868 89)"/>
</clipPath>
</defs>
</svg>
