<svg width="32" height="32" viewBox="0 0 32 32" fill="none" xmlns="http://www.w3.org/2000/svg">
<path d="M25.5603 17.2868V23.8832H21.7359V17.7289C21.7359 16.1836 21.1837 15.1283 19.799 15.1283C18.7423 15.1283 18.1145 15.8388 17.8373 16.5267C17.7366 16.7725 17.7106 17.114 17.7106 17.4588V23.883H13.8859C13.8859 23.883 13.9373 13.4595 13.8859 12.3805H17.7109V14.0105C17.7032 14.0234 17.6924 14.0359 17.6855 14.0482H17.7109V14.0105C18.2192 13.2285 19.1256 12.1104 21.1578 12.1104C23.6739 12.1104 25.5603 13.7544 25.5603 17.2868ZM9.88491 6.83594C8.57663 6.83594 7.7207 7.69472 7.7207 8.82303C7.7207 9.92738 8.55182 10.811 9.83472 10.811H9.85953C11.1935 10.811 12.0229 9.92738 12.0229 8.82303C11.9975 7.69472 11.1935 6.83594 9.88491 6.83594ZM7.94802 23.8832H11.7713V12.3805H7.94802V23.8832Z" fill="#727272"/>
<rect x="0.5" y="0.5" width="31" height="31" rx="5.5" stroke="#D8D8D8"/>
</svg>
