<svg width="32" height="32" viewBox="0 0 32 32" fill="none" xmlns="http://www.w3.org/2000/svg">
<path d="M25.7993 11.4966C25.1136 11.8006 24.3761 12.0062 23.6026 12.0981C24.3923 11.6249 24.9984 10.8762 25.2845 9.98264C24.5455 10.421 23.7266 10.739 22.8559 10.9104C22.1582 10.1675 21.1643 9.70312 20.0636 9.70312C17.9519 9.70312 16.2392 11.4158 16.2392 13.5276C16.2392 13.8273 16.2731 14.1191 16.3387 14.3992C13.1603 14.2398 10.3421 12.7173 8.45565 10.4028C8.12651 10.9675 7.9377 11.6249 7.9377 12.3257C7.9377 13.6522 8.61337 14.8233 9.639 15.509C9.01239 15.4893 8.42228 15.3173 7.90689 15.0301C7.90661 15.0463 7.90661 15.0626 7.90661 15.0786C7.90661 16.9316 9.22544 18.4772 10.9747 18.8283C10.6541 18.9161 10.3155 18.9626 9.96729 18.9626C9.72029 18.9626 9.481 18.939 9.24769 18.8945C9.73427 20.4135 11.1464 21.5193 12.8203 21.5504C11.5112 22.5763 9.86233 23.1875 8.07004 23.1875C7.762 23.1875 7.45682 23.1696 7.1582 23.1339C8.84981 24.2194 10.8606 24.8523 13.0202 24.8523C20.0548 24.8523 23.9018 19.0248 23.9018 13.9705C23.9018 13.8048 23.8981 13.6397 23.8906 13.476C24.6385 12.9369 25.2868 12.2635 25.7993 11.4966Z" fill="#727272"/>
<rect x="0.5" y="0.5" width="31" height="31" rx="5.5" stroke="#D8D8D8"/>
</svg>
