<svg width="787" height="296" viewBox="0 0 787 296" fill="none" xmlns="http://www.w3.org/2000/svg">
<g clip-path="url(#clip0_1821_27036)">
<rect width="787" height="296" rx="20" fill="#2563EB"/>
<g opacity="0.7">
<path d="M5.43526 -264.722C-25.7949 -223.395 -46.2542 -174.948 -54.1 -123.745C-61.9458 -72.5417 -56.9316 -20.1913 -39.509 28.5914C-22.0864 77.3741 7.19735 121.057 45.7046 155.705C84.2118 190.353 130.733 214.878 181.078 227.071L215.64 84.37C188.965 77.9095 164.316 64.9151 143.913 46.5572C123.511 28.1993 107.995 5.05456 98.764 -20.7924C89.5328 -46.6394 86.8761 -74.3767 91.0331 -101.506C95.1901 -128.635 106.03 -154.305 122.577 -176.202L5.43526 -264.722Z" fill="url(#paint0_linear_1821_27036)"/>
<path d="M431.454 588.72C462.685 547.393 483.144 498.946 490.99 447.743C498.835 396.54 493.821 344.189 476.399 295.407C458.976 246.624 429.692 202.941 391.185 168.293C352.678 133.645 306.157 109.12 255.812 96.9267L221.25 239.628C247.925 246.088 272.574 259.083 292.976 277.441C313.379 295.799 328.894 318.943 338.126 344.79C347.357 370.637 350.014 398.375 345.857 425.504C341.7 452.633 330.859 478.303 314.312 500.2L431.454 588.72Z" fill="url(#paint1_linear_1821_27036)"/>
</g>
<path d="M156.377 551.977C204.036 572.273 255.995 580.396 307.574 575.613C359.154 570.83 408.733 553.291 451.847 524.577C494.961 495.863 530.255 456.875 554.55 411.126C578.846 365.376 591.379 314.301 591.022 262.502L444.198 263.515C444.388 290.96 437.747 318.021 424.874 342.261C412.002 366.501 393.301 387.158 370.458 402.372C347.615 417.586 321.346 426.879 294.017 429.413C266.688 431.947 239.158 427.644 213.907 416.89L156.377 551.977Z" fill="url(#paint2_linear_1821_27036)"/>
<path d="M881.3 -67.9771C833.642 -88.2734 781.683 -96.3958 730.103 -91.6126C678.524 -86.8295 628.945 -69.2911 585.831 -40.5771C542.717 -11.8631 507.423 27.1245 483.128 72.8742C458.832 118.624 446.299 169.699 446.656 221.498L593.479 220.485C593.29 193.04 599.931 165.979 612.804 141.739C625.676 117.499 644.376 96.8415 667.22 81.6277C690.063 66.4139 716.332 57.1214 743.661 54.5871C770.99 52.0528 798.52 56.3564 823.771 67.1102L881.3 -67.9771Z" fill="url(#paint3_linear_1821_27036)"/>
</g>
<defs>
<linearGradient id="paint0_linear_1821_27036" x1="-47.4001" y1="-155.998" x2="556.576" y2="3.10888" gradientUnits="userSpaceOnUse">
<stop stop-color="white" stop-opacity="0.08"/>
<stop offset="1" stop-color="white" stop-opacity="0.09"/>
</linearGradient>
<linearGradient id="paint1_linear_1821_27036" x1="487.669" y1="516.308" x2="-305.885" y2="219.762" gradientUnits="userSpaceOnUse">
<stop stop-color="white" stop-opacity="0.1"/>
<stop offset="0.932292" stop-color="white" stop-opacity="0"/>
</linearGradient>
<linearGradient id="paint2_linear_1821_27036" x1="274.658" y1="576.92" x2="282.818" y2="-47.6086" gradientUnits="userSpaceOnUse">
<stop stop-color="white" stop-opacity="0.08"/>
<stop offset="1" stop-color="white" stop-opacity="0.09"/>
</linearGradient>
<linearGradient id="paint3_linear_1821_27036" x1="797.433" y1="-104.99" x2="701.816" y2="736.75" gradientUnits="userSpaceOnUse">
<stop stop-color="white" stop-opacity="0.1"/>
<stop offset="0.932292" stop-color="white" stop-opacity="0"/>
</linearGradient>
<clipPath id="clip0_1821_27036">
<rect width="787" height="296" rx="20" fill="white"/>
</clipPath>
</defs>
</svg>
