<svg width="180" height="14" viewBox="0 0 180 14" fill="none" xmlns="http://www.w3.org/2000/svg">
<path d="M123.302 11V0.794L127.306 0.794C127.838 0.794 128.319 0.863999 128.748 1.004C129.187 1.144 129.56 1.354 129.868 1.634C130.176 1.90467 130.409 2.236 130.568 2.628C130.736 3.02 130.82 3.47267 130.82 3.986C130.82 4.63 130.675 5.19467 130.386 5.68C130.106 6.156 129.7 6.52467 129.168 6.786C128.645 7.04733 128.02 7.178 127.292 7.178H124.338V6.198H127.124C127.628 6.198 128.062 6.11867 128.426 5.96C128.799 5.792 129.084 5.54467 129.28 5.218C129.485 4.882 129.588 4.48067 129.588 4.014C129.588 3.52867 129.485 3.12733 129.28 2.81C129.084 2.49267 128.799 2.25467 128.426 2.096C128.062 1.928 127.628 1.844 127.124 1.844L124.268 1.844L124.492 1.634V11H123.302ZM135.138 11.126C134.419 11.126 133.798 10.972 133.276 10.664C132.753 10.3467 132.347 9.90333 132.058 9.334C131.778 8.76467 131.638 8.102 131.638 7.346C131.638 6.58067 131.778 5.91333 132.058 5.344C132.338 4.76533 132.734 4.322 133.248 4.014C133.77 3.69667 134.382 3.538 135.082 3.538C135.875 3.538 136.524 3.71533 137.028 4.07C137.541 4.41533 137.91 4.89133 138.134 5.498C138.367 6.09533 138.446 6.772 138.372 7.528L132.758 7.528C132.776 8.088 132.884 8.56867 133.08 8.97C133.276 9.362 133.546 9.66533 133.892 9.88C134.246 10.0853 134.662 10.188 135.138 10.188C135.688 10.188 136.15 10.062 136.524 9.81C136.906 9.54867 137.149 9.20333 137.252 8.774H138.344C138.278 9.24067 138.096 9.65133 137.798 10.006C137.508 10.3607 137.13 10.636 136.664 10.832C136.206 11.028 135.698 11.126 135.138 11.126ZM132.772 6.856L132.66 6.646L137.392 6.646L137.266 6.884C137.284 6.31467 137.196 5.85267 137 5.498C136.813 5.134 136.552 4.87267 136.216 4.714C135.88 4.546 135.497 4.462 135.068 4.462C134.62 4.462 134.223 4.56 133.878 4.756C133.542 4.94267 133.28 5.218 133.094 5.582C132.907 5.93667 132.8 6.36133 132.772 6.856ZM140.017 11V3.65H141.025L141.095 5.008H141.151C141.31 4.54133 141.59 4.182 141.991 3.93C142.392 3.678 142.84 3.552 143.335 3.552C143.419 3.552 143.498 3.55667 143.573 3.566C143.648 3.566 143.718 3.57067 143.783 3.58V4.658C143.718 4.64867 143.648 4.644 143.573 4.644C143.498 4.63467 143.419 4.63 143.335 4.63C142.906 4.63 142.532 4.70933 142.215 4.868C141.898 5.02667 141.646 5.25533 141.459 5.554C141.282 5.84333 141.174 6.198 141.137 6.618V11L140.017 11ZM147.599 11.14C146.619 11.14 145.863 10.916 145.331 10.468C144.808 10.02 144.547 9.432 144.547 8.704H145.681C145.681 9.25467 145.863 9.66067 146.227 9.922C146.591 10.174 147.057 10.3 147.627 10.3C148.215 10.3 148.663 10.1927 148.971 9.978C149.279 9.76333 149.433 9.46 149.433 9.068C149.433 8.76 149.367 8.522 149.237 8.354C149.106 8.186 148.901 8.06 148.621 7.976C148.341 7.88267 147.977 7.80333 147.529 7.738C147.109 7.67267 146.726 7.598 146.381 7.514C146.045 7.42067 145.755 7.29933 145.513 7.15C145.27 6.99133 145.083 6.79067 144.953 6.548C144.822 6.30533 144.757 6.00667 144.757 5.652C144.757 5.204 144.873 4.82133 145.107 4.504C145.349 4.18667 145.681 3.944 146.101 3.776C146.53 3.59867 147.029 3.51 147.599 3.51C148.196 3.51 148.705 3.60333 149.125 3.79C149.545 3.97667 149.867 4.24267 150.091 4.588C150.315 4.924 150.431 5.33 150.441 5.806H149.335C149.325 5.46067 149.246 5.18533 149.097 4.98C148.957 4.76533 148.756 4.60667 148.495 4.504C148.243 4.40133 147.939 4.35 147.585 4.35C147.043 4.35 146.623 4.462 146.325 4.686C146.035 4.90067 145.891 5.18533 145.891 5.54C145.891 5.80133 145.961 6.016 146.101 6.184C146.241 6.352 146.455 6.48267 146.745 6.576C147.034 6.66 147.398 6.73467 147.837 6.8C148.229 6.856 148.588 6.926 148.915 7.01C149.241 7.094 149.531 7.21067 149.783 7.36C150.035 7.50933 150.231 7.71467 150.371 7.976C150.52 8.23733 150.595 8.56867 150.595 8.97C150.595 9.68867 150.324 10.23 149.783 10.594C149.241 10.958 148.513 11.14 147.599 11.14ZM155.469 11.126C154.937 11.126 154.452 11.0373 154.013 10.86C153.584 10.6827 153.211 10.426 152.893 10.09C152.585 9.754 152.343 9.35733 152.165 8.9C151.997 8.43333 151.913 7.91533 151.913 7.346C151.913 6.59 152.058 5.92733 152.347 5.358C152.637 4.78867 153.047 4.34533 153.579 4.028C154.121 3.70133 154.751 3.538 155.469 3.538C156.001 3.538 156.482 3.62667 156.911 3.804C157.35 3.972 157.723 4.224 158.031 4.56C158.339 4.896 158.577 5.29733 158.745 5.764C158.913 6.23067 158.997 6.75333 158.997 7.332C158.997 8.07867 158.853 8.73667 158.563 9.306C158.283 9.87533 157.877 10.3233 157.345 10.65C156.813 10.9673 156.188 11.126 155.469 11.126ZM155.469 10.146C155.945 10.146 156.361 10.0387 156.715 9.824C157.07 9.6 157.345 9.278 157.541 8.858C157.747 8.42867 157.849 7.92 157.849 7.332C157.849 6.89333 157.793 6.50133 157.681 6.156C157.569 5.80133 157.411 5.50267 157.205 5.26C157 5.008 156.753 4.81667 156.463 4.686C156.174 4.55533 155.843 4.49 155.469 4.49C154.993 4.49 154.573 4.60667 154.209 4.84C153.855 5.064 153.575 5.386 153.369 5.806C153.173 6.226 153.075 6.73933 153.075 7.346C153.075 7.77533 153.127 8.16733 153.229 8.522C153.341 8.86733 153.5 9.16133 153.705 9.404C153.92 9.64667 154.177 9.83333 154.475 9.964C154.774 10.0853 155.105 10.146 155.469 10.146ZM160.607 11V3.65L161.685 3.65L161.727 5.176H161.811C162.035 4.63467 162.38 4.22867 162.847 3.958C163.314 3.678 163.822 3.538 164.373 3.538C164.756 3.538 165.106 3.594 165.423 3.706C165.75 3.818 166.03 4 166.263 4.252C166.506 4.504 166.692 4.83067 166.823 5.232C166.954 5.624 167.019 6.10467 167.019 6.674V11H165.885V6.898C165.885 6.34733 165.815 5.89467 165.675 5.54C165.544 5.18533 165.339 4.924 165.059 4.756C164.788 4.57867 164.438 4.49 164.009 4.49C163.552 4.49 163.15 4.602 162.805 4.826C162.46 5.05 162.194 5.35333 162.007 5.736C161.82 6.10933 161.727 6.53867 161.727 7.024V11H160.607ZM171.59 11.126C171.142 11.126 170.731 11.042 170.358 10.874C169.994 10.6967 169.676 10.4493 169.406 10.132C169.135 9.80533 168.925 9.40867 168.776 8.942C168.636 8.466 168.566 7.92467 168.566 7.318C168.566 6.51533 168.692 5.82933 168.944 5.26C169.205 4.69067 169.56 4.26133 170.008 3.972C170.465 3.67333 170.992 3.524 171.59 3.524C172.019 3.524 172.406 3.594 172.752 3.734C173.106 3.86467 173.405 4.056 173.648 4.308C173.89 4.55067 174.072 4.84 174.194 5.176H174.264L174.306 3.65H175.398V11H174.264V9.46H174.194C174.007 9.95467 173.69 10.356 173.242 10.664C172.794 10.972 172.243 11.126 171.59 11.126ZM171.968 10.174C172.462 10.174 172.878 10.0573 173.214 9.824C173.55 9.59067 173.806 9.292 173.984 8.928C174.161 8.564 174.25 8.17667 174.25 7.766V6.87C174.25 6.45933 174.161 6.072 173.984 5.708C173.806 5.33467 173.55 5.036 173.214 4.812C172.878 4.57867 172.462 4.462 171.968 4.462C171.52 4.462 171.128 4.574 170.792 4.798C170.456 5.01267 170.194 5.33 170.008 5.75C169.821 6.17 169.728 6.69267 169.728 7.318C169.728 7.934 169.821 8.45667 170.008 8.886C170.194 9.306 170.456 9.628 170.792 9.852C171.128 10.0667 171.52 10.174 171.968 10.174ZM177.519 11V0.794L178.653 0.794V11H177.519Z" fill="url(#paint0_linear_3517_32467)"/>
<path d="M97.3536 7.35355C97.5488 7.15829 97.5488 6.84171 97.3536 6.64645L94.1716 3.46447C93.9763 3.2692 93.6597 3.2692 93.4645 3.46447C93.2692 3.65973 93.2692 3.97631 93.4645 4.17157L96.2929 7L93.4645 9.82843C93.2692 10.0237 93.2692 10.3403 93.4645 10.5355C93.6597 10.7308 93.9763 10.7308 94.1716 10.5355L97.3536 7.35355ZM5.66666 7C5.66666 5.52724 4.47276 4.33334 3 4.33334C1.52724 4.33334 0.333336 5.52724 0.333336 7C0.333336 8.47276 1.52724 9.66667 3 9.66667C4.47276 9.66667 5.66666 8.47276 5.66666 7ZM97 6.5L3 6.5L3 7.5L97 7.5L97 6.5Z" fill="url(#paint1_linear_3517_32467)"/>
<defs>
<linearGradient id="paint0_linear_3517_32467" x1="113.522" y1="-1.70215" x2="136.782" y2="47.493" gradientUnits="userSpaceOnUse">
<stop stop-color="#2563EB"/>
<stop offset="1" stop-color="#35FF49"/>
</linearGradient>
<linearGradient id="paint1_linear_3517_32467" x1="110.741" y1="7.12158" x2="110.651" y2="2.82393" gradientUnits="userSpaceOnUse">
<stop stop-color="#2563EB"/>
<stop offset="1" stop-color="#35FF49"/>
</linearGradient>
</defs>
</svg>
