<svg width="866" height="175" viewBox="0 0 866 175" fill="none" xmlns="http://www.w3.org/2000/svg">
<path d="M89.5054 61.545C91.4554 61.545 93.2971 61.805 95.0304 62.325C96.7637 62.845 98.2804 63.625 99.5804 64.665C100.924 65.705 101.964 67.005 102.7 68.565C103.48 70.125 103.87 71.945 103.87 74.025C103.87 75.8017 103.545 77.535 102.895 79.225C102.289 80.8717 101.422 82.345 100.295 83.645C99.2121 84.945 97.8904 86.0067 96.3304 86.83C94.7704 87.61 93.0587 88 91.1954 88H69.0954C69.8321 87.5667 70.4171 87.0033 70.8504 86.31C71.2837 85.6167 71.6087 84.88 71.8254 84.1C72.0421 83.2767 72.1937 82.4317 72.2804 81.565C72.3671 80.6983 72.4104 79.8967 72.4104 79.16V47.57C72.4104 46.79 72.3671 45.9883 72.2804 45.165C72.2371 44.2983 72.0854 43.4533 71.8254 42.63C71.6087 41.8067 71.2837 41.07 70.8504 40.42C70.4171 39.7267 69.8321 39.1633 69.0954 38.73H86.0604C87.9237 38.73 89.7221 38.99 91.4554 39.51C93.2321 40.03 94.7921 40.81 96.1354 41.85C97.5221 42.89 98.6271 44.19 99.4504 45.75C100.274 47.2667 100.685 49.0433 100.685 51.08C100.685 52.6833 100.382 54.135 99.7754 55.435C99.2121 56.735 98.4321 57.84 97.4354 58.75C96.4387 59.66 95.2471 60.3533 93.8604 60.83C92.5171 61.3067 91.0654 61.545 89.5054 61.545ZM81.9004 60.765C85.0637 60.765 87.4687 59.8333 89.1154 57.97C90.8054 56.0633 91.6504 53.55 91.6504 50.43C91.6504 49.13 91.4554 47.8733 91.0654 46.66C90.7187 45.4033 90.1554 44.32 89.3754 43.41C88.6387 42.4567 87.7287 41.6983 86.6454 41.135C85.5621 40.5717 84.3054 40.29 82.8754 40.29H81.9004V60.765ZM81.9004 86.44C83.7637 86.44 85.4754 86.2017 87.0354 85.725C88.6387 85.205 90.0037 84.4467 91.1304 83.45C92.2571 82.41 93.1454 81.1533 93.7954 79.68C94.4454 78.1633 94.7704 76.43 94.7704 74.48C94.7704 72.7467 94.4671 71.1433 93.8604 69.67C93.2971 68.1533 92.4954 66.8533 91.4554 65.77C90.4154 64.6867 89.1587 63.8417 87.6854 63.235C86.2554 62.6283 84.6521 62.325 82.8754 62.325H81.9004V86.44ZM108.506 69.93C108.506 69.02 108.419 68.1967 108.246 67.46C108.072 66.68 107.834 65.965 107.531 65.315C107.227 64.665 106.837 64.0367 106.361 63.43C105.927 62.78 105.429 62.1083 104.866 61.415C106.382 61.155 107.661 60.9167 108.701 60.7C109.784 60.44 110.781 60.1367 111.691 59.79C112.644 59.4 113.597 58.9667 114.551 58.49C115.547 57.97 116.696 57.3417 117.996 56.605V61.87C118.646 60.2233 119.447 58.36 120.401 56.28C121.354 54.1567 122.502 52.1633 123.846 50.3C125.189 48.4367 126.706 46.8767 128.396 45.62C130.086 44.32 131.992 43.67 134.116 43.67C135.892 43.67 137.387 44.19 138.601 45.23C139.857 46.2267 140.486 47.635 140.486 49.455C140.486 51.275 139.879 52.835 138.666 54.135C137.452 55.3917 135.936 56.02 134.116 56.02C133.422 54.5467 132.296 53.81 130.736 53.81C129.566 53.81 128.309 54.1783 126.966 54.915C125.666 55.6517 124.431 56.5617 123.261 57.645C122.091 58.685 121.029 59.8333 120.076 61.09C119.166 62.3033 118.472 63.43 117.996 64.47V79.16C117.996 79.8967 118.039 80.6983 118.126 81.565C118.212 82.4317 118.364 83.2767 118.581 84.1C118.797 84.9233 119.122 85.6817 119.556 86.375C120.032 87.0683 120.617 87.61 121.311 88H105.256C105.949 87.61 106.512 87.0683 106.946 86.375C107.379 85.6383 107.704 84.88 107.921 84.1C108.137 83.2767 108.289 82.4317 108.376 81.565C108.462 80.6983 108.506 79.8967 108.506 79.16V69.93ZM124.366 88C125.059 87.61 125.622 87.0683 126.056 86.375C126.489 85.6383 126.814 84.88 127.031 84.1C127.291 83.2767 127.464 82.4317 127.551 81.565C127.637 80.6983 127.681 79.8967 127.681 79.16V69.93C127.681 69.02 127.594 68.1967 127.421 67.46C127.247 66.68 127.009 65.965 126.706 65.315C126.402 64.665 126.012 64.0367 125.536 63.43C125.102 62.78 124.604 62.1083 124.041 61.415C125.557 61.155 126.836 60.9167 127.876 60.7C128.959 60.44 129.956 60.1367 130.866 59.79C131.819 59.4433 132.772 59.0317 133.726 58.555C134.722 58.035 135.871 57.385 137.171 56.605V79.16C137.171 79.8967 137.192 80.6983 137.236 81.565C137.322 82.4317 137.474 83.2767 137.691 84.1C137.907 84.9233 138.232 85.6817 138.666 86.375C139.099 87.0683 139.684 87.61 140.421 88H124.366ZM191.36 56.085C192.27 56.085 193.202 56.15 194.155 56.28C194.719 55.2833 195.347 54.3083 196.04 53.355C196.734 52.4017 197.492 51.5567 198.315 50.82C199.182 50.04 200.092 49.4117 201.045 48.935C202.042 48.4583 203.104 48.22 204.23 48.22C205.487 48.22 206.57 48.61 207.48 49.39C208.39 50.1267 208.845 51.145 208.845 52.445C208.845 53.9617 208.304 55.1317 207.22 55.955C206.137 56.735 204.902 57.125 203.515 57.125C203.212 57.125 202.844 57.0817 202.41 56.995C202.15 56.3017 201.717 55.7817 201.11 55.435C200.547 55.0883 199.897 54.915 199.16 54.915C198.38 54.915 197.687 55.0667 197.08 55.37C196.474 55.63 195.932 55.9983 195.455 56.475C196.929 56.735 198.337 57.1683 199.68 57.775C201.067 58.3817 202.28 59.1617 203.32 60.115C204.404 61.025 205.249 62.13 205.855 63.43C206.505 64.6867 206.83 66.16 206.83 67.85C206.83 69.9733 206.354 71.7933 205.4 73.31C204.447 74.8267 203.19 76.0617 201.63 77.015C200.114 77.925 198.424 78.5967 196.56 79.03C194.697 79.4633 192.855 79.68 191.035 79.68C190.515 79.7233 189.952 79.81 189.345 79.94C188.739 80.0267 188.197 80.1567 187.72 80.33C187.244 80.5033 186.832 80.72 186.485 80.98C186.182 81.24 186.03 81.565 186.03 81.955C186.03 82.2583 186.117 82.5183 186.29 82.735C186.507 82.9083 186.745 83.0383 187.005 83.125C187.265 83.2117 187.547 83.2767 187.85 83.32C188.154 83.32 188.414 83.32 188.63 83.32H203.32C204.837 83.32 206.094 83.71 207.09 84.49C208.13 85.2267 208.65 86.3967 208.65 88C208.65 91.25 207.935 93.9367 206.505 96.06C205.119 98.1833 203.32 99.8517 201.11 101.065C198.9 102.278 196.409 103.123 193.635 103.6C190.905 104.077 188.197 104.315 185.51 104.315H184.86C182.867 104.272 180.592 104.033 178.035 103.6C175.479 103.167 173.052 102.43 170.755 101.39C168.502 100.393 166.595 99.0283 165.035 97.295C163.475 95.605 162.695 93.46 162.695 90.86V66.68C162.695 66.03 162.63 65.3583 162.5 64.665C162.37 63.9717 162.154 63.3433 161.85 62.78C161.547 62.2167 161.114 61.7617 160.55 61.415C160.03 61.0683 159.38 60.895 158.6 60.895C157.257 60.895 156.217 61.3717 155.48 62.325C154.744 63.235 154.267 64.2967 154.05 65.51V79.16C154.05 79.8967 154.072 80.6983 154.115 81.565C154.202 82.4317 154.354 83.2767 154.57 84.1C154.787 84.9233 155.112 85.6817 155.545 86.375C155.979 87.0683 156.564 87.61 157.3 88H141.245C141.939 87.61 142.502 87.0683 142.935 86.375C143.369 85.6383 143.694 84.88 143.91 84.1C144.17 83.2767 144.344 82.4317 144.43 81.565C144.517 80.6983 144.56 79.8967 144.56 79.16V69.93C144.56 69.02 144.474 68.1967 144.3 67.46C144.127 66.68 143.889 65.965 143.585 65.315C143.282 64.665 142.892 64.0367 142.415 63.43C141.982 62.78 141.484 62.1083 140.92 61.415C142.437 61.155 143.715 60.9167 144.755 60.7C145.839 60.44 146.835 60.1367 147.745 59.79C148.699 59.4433 149.652 59.0317 150.605 58.555C151.602 58.035 152.75 57.385 154.05 56.605V61.675C154.354 61.3717 154.982 60.9167 155.935 60.31C156.889 59.7033 157.885 59.0967 158.925 58.49C159.965 57.84 160.94 57.2767 161.85 56.8C162.76 56.3233 163.302 56.085 163.475 56.085C164.949 56.085 166.227 56.3667 167.31 56.93C168.394 57.4933 169.282 58.2517 169.975 59.205C170.712 60.1583 171.254 61.2633 171.6 62.52C171.99 63.7767 172.185 65.0767 172.185 66.42V90.99C172.185 92.8967 172.554 94.565 173.29 95.995C174.027 97.4683 175.002 98.7033 176.215 99.7C177.472 100.697 178.902 101.455 180.505 101.975C182.109 102.495 183.799 102.755 185.575 102.755C187.265 102.755 188.912 102.517 190.515 102.04C192.162 101.607 193.614 100.913 194.87 99.96C196.17 99.0067 197.21 97.8367 197.99 96.45C198.77 95.0633 199.16 93.4167 199.16 91.51H180.83C180.094 91.51 179.379 91.3583 178.685 91.055C177.992 90.7517 177.385 90.34 176.865 89.82C176.345 89.3 175.934 88.6933 175.63 88C175.327 87.3067 175.175 86.5917 175.175 85.855C175.175 84.3817 175.565 83.2117 176.345 82.345C177.169 81.4783 178.165 80.8283 179.335 80.395C180.505 79.9183 181.762 79.615 183.105 79.485C184.492 79.3117 185.749 79.225 186.875 79.225C185.445 78.9217 184.059 78.4883 182.715 77.925C181.372 77.3183 180.18 76.5383 179.14 75.585C178.1 74.6317 177.277 73.5267 176.67 72.27C176.064 70.97 175.76 69.4967 175.76 67.85C175.76 65.77 176.237 63.9933 177.19 62.52C178.144 61.0467 179.379 59.8333 180.895 58.88C182.412 57.9267 184.08 57.2333 185.9 56.8C187.764 56.3233 189.584 56.085 191.36 56.085ZM193.44 77.925C194.307 77.925 195.022 77.73 195.585 77.34C196.149 76.9067 196.582 76.365 196.885 75.715C197.232 75.065 197.47 74.35 197.6 73.57C197.73 72.79 197.795 72.0533 197.795 71.36C197.795 70.1033 197.6 68.695 197.21 67.135C196.82 65.575 196.235 64.1233 195.455 62.78C194.719 61.3933 193.765 60.245 192.595 59.335C191.469 58.425 190.147 57.97 188.63 57.97C187.85 57.97 187.2 58.165 186.68 58.555C186.16 58.945 185.749 59.4433 185.445 60.05C185.185 60.6567 184.99 61.3283 184.86 62.065C184.774 62.7583 184.73 63.43 184.73 64.08C184.73 65.25 184.904 66.6367 185.25 68.24C185.64 69.8 186.182 71.3167 186.875 72.79C187.612 74.22 188.522 75.4333 189.605 76.43C190.689 77.4267 191.967 77.925 193.44 77.925ZM229.178 69.93C229.178 69.02 229.091 68.1967 228.918 67.46C228.744 66.68 228.506 65.965 228.203 65.315C227.899 64.665 227.509 64.0367 227.033 63.43C226.599 62.78 226.101 62.1083 225.538 61.415C226.794 61.1983 228.051 60.8517 229.308 60.375C230.608 59.855 231.756 59.205 232.753 58.425C233.749 57.6017 234.551 56.6267 235.158 55.5C235.808 54.3733 236.133 53.0733 236.133 51.6C236.133 50.1267 235.808 48.8267 235.158 47.7C234.551 46.53 233.728 45.555 232.688 44.775C231.691 43.995 230.543 43.41 229.243 43.02C227.943 42.5867 226.621 42.37 225.278 42.37C223.761 42.37 222.244 42.63 220.728 43.15C219.211 43.6267 217.954 44.45 216.958 45.62C218.258 45.62 219.363 46.0967 220.273 47.05C221.226 47.96 221.703 49.065 221.703 50.365C221.703 51.665 221.226 52.7917 220.273 53.745C219.363 54.655 218.258 55.11 216.958 55.11C215.658 55.11 214.531 54.655 213.578 53.745C212.668 52.7917 212.213 51.665 212.213 50.365C212.213 48.6317 212.668 47.18 213.578 46.01C214.531 44.7967 215.701 43.8217 217.088 43.085C218.474 42.305 219.969 41.7417 221.573 41.395C223.219 41.0483 224.758 40.875 226.188 40.875C227.878 40.875 229.546 41.1133 231.193 41.59C232.839 42.0233 234.291 42.695 235.548 43.605C236.848 44.515 237.888 45.6633 238.668 47.05C239.491 48.4367 239.903 50.0833 239.903 51.99C239.903 53.7233 239.491 55.2617 238.668 56.605V61.61C238.798 61.48 239.101 61.2633 239.578 60.96C240.054 60.6133 240.618 60.245 241.268 59.855C241.918 59.4217 242.611 58.9883 243.348 58.555C244.128 58.1217 244.843 57.7317 245.493 57.385C246.143 56.995 246.706 56.6917 247.183 56.475C247.659 56.215 247.963 56.085 248.093 56.085C249.566 56.085 250.844 56.3667 251.928 56.93C253.011 57.4933 253.899 58.2517 254.593 59.205C255.329 60.1583 255.871 61.2633 256.218 62.52C256.608 63.7767 256.803 65.0767 256.803 66.42V79.16C256.803 79.8967 256.846 80.6983 256.933 81.565C257.019 82.4317 257.171 83.2767 257.388 84.1C257.604 84.9233 257.929 85.6817 258.363 86.375C258.839 87.0683 259.424 87.61 260.118 88H244.063C244.756 87.61 245.319 87.0683 245.753 86.375C246.186 85.6383 246.511 84.88 246.728 84.1C246.944 83.2767 247.096 82.4317 247.183 81.565C247.269 80.6983 247.313 79.8967 247.313 79.16V66.68C247.313 66.03 247.248 65.3583 247.118 64.665C246.988 63.9717 246.771 63.3433 246.468 62.78C246.164 62.2167 245.731 61.7617 245.168 61.415C244.648 61.0683 243.998 60.895 243.218 60.895C242.654 60.895 242.091 61.0467 241.528 61.35C241.008 61.61 240.531 61.9567 240.098 62.39C239.664 62.8233 239.318 63.3217 239.058 63.885C238.798 64.405 238.668 64.9467 238.668 65.51V79.16C238.668 79.8967 238.689 80.6983 238.733 81.565C238.819 82.4317 238.971 83.2767 239.188 84.1C239.404 84.9233 239.729 85.6817 240.163 86.375C240.596 87.0683 241.181 87.61 241.918 88H225.863C226.556 87.61 227.119 87.0683 227.553 86.375C227.986 85.6383 228.311 84.88 228.528 84.1C228.788 83.2767 228.961 82.4317 229.048 81.565C229.134 80.6983 229.178 79.8967 229.178 79.16V69.93ZM209.158 61.415C210.674 61.155 211.953 60.9167 212.993 60.7C214.076 60.44 215.073 60.1367 215.983 59.79C216.936 59.4433 217.889 59.0317 218.843 58.555C219.839 58.035 220.988 57.385 222.288 56.605V79.16C222.288 79.8967 222.309 80.6983 222.353 81.565C222.439 82.4317 222.591 83.2767 222.808 84.1C223.024 84.9233 223.349 85.6817 223.783 86.375C224.216 87.0683 224.801 87.61 225.538 88H209.483C210.176 87.61 210.739 87.0683 211.173 86.375C211.606 85.6383 211.931 84.88 212.148 84.1C212.408 83.2767 212.581 82.4317 212.668 81.565C212.754 80.6983 212.798 79.8967 212.798 79.16V69.93C212.798 69.02 212.711 68.1967 212.538 67.46C212.364 66.68 212.126 65.965 211.823 65.315C211.519 64.665 211.129 64.0367 210.653 63.43C210.219 62.78 209.721 62.1083 209.158 61.415ZM276.639 56.085C277.029 56.085 277.419 56.1067 277.809 56.15C278.243 56.15 278.654 56.1717 279.044 56.215C279.608 55.2183 280.236 54.2217 280.929 53.225C281.666 52.185 282.468 51.2533 283.334 50.43C284.244 49.6067 285.198 48.935 286.194 48.415C287.234 47.8517 288.339 47.57 289.509 47.57C290.766 47.57 291.849 47.96 292.759 48.74C293.669 49.4767 294.124 50.495 294.124 51.795C294.124 53.3117 293.583 54.4817 292.499 55.305C291.416 56.085 290.181 56.475 288.794 56.475C288.491 56.475 288.123 56.4317 287.689 56.345C287.473 55.695 287.083 55.2183 286.519 54.915C285.956 54.5683 285.349 54.395 284.699 54.395C283.833 54.395 283.031 54.59 282.294 54.98C281.601 55.3267 280.951 55.8033 280.344 56.41C281.861 56.67 283.313 57.1033 284.699 57.71C286.129 58.2733 287.386 59.0317 288.469 59.985C289.553 60.895 290.419 62.0217 291.069 63.365C291.763 64.665 292.109 66.16 292.109 67.85C292.109 69.93 291.633 71.7283 290.679 73.245C289.769 74.7183 288.556 75.9317 287.039 76.885C285.566 77.8383 283.919 78.5533 282.099 79.03C280.279 79.4633 278.459 79.68 276.639 79.68C275.253 79.68 273.823 79.55 272.349 79.29C270.876 79.03 269.489 78.5967 268.189 77.99C267.756 78.4233 267.539 78.9867 267.539 79.68C267.539 80.3733 267.908 80.915 268.644 81.305C269.424 81.6517 270.421 81.9333 271.634 82.15C272.848 82.3667 274.234 82.54 275.794 82.67C277.398 82.7567 279.001 82.9083 280.604 83.125C282.251 83.3417 283.854 83.6667 285.414 84.1C287.018 84.49 288.426 85.0533 289.639 85.79C290.853 86.5267 291.828 87.48 292.564 88.65C293.344 89.8633 293.734 91.38 293.734 93.2C293.734 95.3233 293.084 97.0133 291.784 98.27C290.528 99.57 288.968 100.567 287.104 101.26C285.284 101.953 283.334 102.408 281.254 102.625C279.218 102.842 277.419 102.95 275.859 102.95C274.689 102.95 273.238 102.842 271.504 102.625C269.771 102.452 268.081 102.062 266.434 101.455C264.831 100.892 263.444 100.09 262.274 99.05C261.104 98.0533 260.519 96.7317 260.519 95.085C260.519 93.8283 260.909 92.8317 261.689 92.095C262.513 91.4017 263.531 91.055 264.744 91.055C266.001 91.055 267.041 91.4883 267.864 92.355C268.731 93.2217 269.338 94.2183 269.684 95.345C269.164 95.865 268.904 96.4283 268.904 97.035C268.904 97.815 269.186 98.4867 269.749 99.05C270.313 99.6133 271.006 100.068 271.829 100.415C272.653 100.762 273.498 101 274.364 101.13C275.231 101.303 275.968 101.39 276.574 101.39C277.311 101.39 278.113 101.303 278.979 101.13C279.889 101 280.713 100.74 281.449 100.35C282.229 99.96 282.858 99.44 283.334 98.79C283.854 98.1833 284.114 97.425 284.114 96.515C284.114 95.1717 283.573 94.1533 282.489 93.46C281.449 92.81 280.128 92.29 278.524 91.9C276.964 91.5533 275.253 91.2717 273.389 91.055C271.526 90.8383 269.793 90.535 268.189 90.145C266.629 89.755 265.308 89.1917 264.224 88.455C263.184 87.7617 262.664 86.7217 262.664 85.335C262.664 85.1183 262.838 84.685 263.184 84.035C263.574 83.3417 264.008 82.5833 264.484 81.76C264.961 80.8933 265.438 80.07 265.914 79.29C266.434 78.4667 266.824 77.8383 267.084 77.405C265.308 76.4517 263.856 75.195 262.729 73.635C261.603 72.075 261.039 70.1467 261.039 67.85C261.039 65.77 261.516 63.9933 262.469 62.52C263.423 61.0467 264.658 59.8333 266.174 58.88C267.691 57.9267 269.359 57.2333 271.179 56.8C273.043 56.3233 274.863 56.085 276.639 56.085ZM278.719 77.925C279.586 77.925 280.301 77.73 280.864 77.34C281.428 76.9067 281.861 76.365 282.164 75.715C282.511 75.065 282.749 74.35 282.879 73.57C283.009 72.79 283.074 72.0533 283.074 71.36C283.074 70.1033 282.879 68.695 282.489 67.135C282.099 65.575 281.514 64.1233 280.734 62.78C279.998 61.3933 279.044 60.245 277.874 59.335C276.748 58.425 275.426 57.97 273.909 57.97C273.129 57.97 272.479 58.165 271.959 58.555C271.439 58.945 271.028 59.4433 270.724 60.05C270.464 60.6567 270.269 61.3283 270.139 62.065C270.053 62.7583 270.009 63.43 270.009 64.08C270.009 65.25 270.183 66.6367 270.529 68.24C270.919 69.8 271.461 71.3167 272.154 72.79C272.891 74.22 273.801 75.4333 274.884 76.43C275.968 77.4267 277.246 77.925 278.719 77.925ZM328.874 81.11C329.394 79.7667 329.914 78.2067 330.434 76.43C330.954 74.6533 331.517 72.8333 332.124 70.97C332.774 69.0633 333.489 67.2217 334.269 65.445C335.092 63.625 336.024 62 337.064 60.57C338.147 59.14 339.404 57.9917 340.834 57.125C342.264 56.215 343.911 55.76 345.774 55.76C347.334 55.76 348.656 56.1933 349.739 57.06C350.822 57.9267 351.364 59.1833 351.364 60.83C351.364 61.7833 351.169 62.6717 350.779 63.495C350.432 64.275 349.934 64.9467 349.284 65.51C348.634 66.0733 347.876 66.5283 347.009 66.875C346.186 67.1783 345.319 67.33 344.409 67.33C344.409 66.55 344.084 65.9867 343.434 65.64C342.784 65.2933 342.134 65.12 341.484 65.12C340.444 65.12 339.491 65.38 338.624 65.9C337.801 66.42 337.064 67.07 336.414 67.85C335.764 68.63 335.179 69.4967 334.659 70.45C334.182 71.36 333.792 72.2267 333.489 73.05L328.029 88H322.309L316.394 73.245C316.004 72.2483 315.484 70.905 314.834 69.215C314.184 67.525 313.469 65.8133 312.689 64.08C311.909 62.3467 311.042 60.7867 310.089 59.4C309.179 57.97 308.226 57.0383 307.229 56.605H325.169C324.086 56.9517 323.284 57.6017 322.764 58.555C322.244 59.5083 321.984 60.5483 321.984 61.675C321.984 62.585 322.266 63.9283 322.829 65.705C323.392 67.4817 324.042 69.345 324.779 71.295C325.559 73.245 326.317 75.13 327.054 76.95C327.834 78.7267 328.441 80.1133 328.874 81.11ZM352.404 56.085C354.051 56.085 355.589 56.3233 357.019 56.8C358.449 57.2333 359.684 57.905 360.724 58.815C361.807 59.725 362.652 60.8517 363.259 62.195C363.866 63.495 364.169 65.0117 364.169 66.745V81.695C364.169 81.9983 364.191 82.3883 364.234 82.865C364.277 83.2983 364.364 83.7317 364.494 84.165C364.624 84.5983 364.819 84.9667 365.079 85.27C365.382 85.5733 365.751 85.725 366.184 85.725C366.661 85.725 367.094 85.595 367.484 85.335V85.985C366.921 86.375 366.401 86.7433 365.924 87.09C365.447 87.4367 364.971 87.7183 364.494 87.935C364.017 88.1517 363.497 88.325 362.934 88.455C362.371 88.585 361.721 88.65 360.984 88.65C359.814 88.65 358.644 88.3467 357.474 87.74C356.304 87.1333 355.481 86.2667 355.004 85.14C354.007 86.2667 352.794 87.1333 351.364 87.74C349.977 88.3467 348.331 88.65 346.424 88.65C344.127 88.65 342.242 88.1083 340.769 87.025C339.339 85.9417 338.624 84.165 338.624 81.695C338.624 80.005 339.252 78.5317 340.509 77.275C341.809 76.0183 343.326 74.87 345.059 73.83C346.836 72.79 348.612 71.7933 350.389 70.84C352.209 69.8433 353.639 68.7817 354.679 67.655C354.679 67.135 354.701 66.2683 354.744 65.055C354.787 63.7983 354.744 62.5633 354.614 61.35C354.527 60.0933 354.289 59.01 353.899 58.1C353.509 57.1467 352.859 56.67 351.949 56.67L352.404 56.085ZM354.679 83.71V69.93C354.072 70.4933 353.379 71.1 352.599 71.75C351.862 72.4 351.169 73.0933 350.519 73.83C349.869 74.5233 349.306 75.2817 348.829 76.105C348.396 76.9283 348.179 77.8167 348.179 78.77C348.179 79.4633 348.222 80.1567 348.309 80.85C348.439 81.5 348.634 82.085 348.894 82.605C349.197 83.125 349.609 83.5583 350.129 83.905C350.649 84.2083 351.321 84.36 352.144 84.36C353.097 84.36 353.942 84.1433 354.679 83.71ZM371.426 69.93C371.426 69.02 371.339 68.1967 371.166 67.46C370.992 66.68 370.754 65.965 370.451 65.315C370.147 64.665 369.757 64.0367 369.281 63.43C368.847 62.78 368.349 62.1083 367.786 61.415C369.302 61.155 370.581 60.9167 371.621 60.7C372.704 60.44 373.701 60.1367 374.611 59.79C375.564 59.4 376.517 58.9667 377.471 58.49C378.467 57.97 379.616 57.3417 380.916 56.605V61.87C381.566 60.2233 382.367 58.36 383.321 56.28C384.274 54.1567 385.422 52.1633 386.766 50.3C388.109 48.4367 389.626 46.8767 391.316 45.62C393.006 44.32 394.912 43.67 397.036 43.67C398.812 43.67 400.307 44.19 401.521 45.23C402.777 46.2267 403.406 47.635 403.406 49.455C403.406 51.275 402.799 52.835 401.586 54.135C400.372 55.3917 398.856 56.02 397.036 56.02C396.342 54.5467 395.216 53.81 393.656 53.81C392.486 53.81 391.229 54.1783 389.886 54.915C388.586 55.6517 387.351 56.5617 386.181 57.645C385.011 58.685 383.949 59.8333 382.996 61.09C382.086 62.3033 381.392 63.43 380.916 64.47V79.16C380.916 79.8967 380.959 80.6983 381.046 81.565C381.132 82.4317 381.284 83.2767 381.501 84.1C381.717 84.9233 382.042 85.6817 382.476 86.375C382.952 87.0683 383.537 87.61 384.231 88H368.176C368.869 87.61 369.432 87.0683 369.866 86.375C370.299 85.6383 370.624 84.88 370.841 84.1C371.057 83.2767 371.209 82.4317 371.296 81.565C371.382 80.6983 371.426 79.8967 371.426 79.16V69.93ZM387.286 88C387.979 87.61 388.542 87.0683 388.976 86.375C389.409 85.6383 389.734 84.88 389.951 84.1C390.211 83.2767 390.384 82.4317 390.471 81.565C390.557 80.6983 390.601 79.8967 390.601 79.16V69.93C390.601 69.02 390.514 68.1967 390.341 67.46C390.167 66.68 389.929 65.965 389.626 65.315C389.322 64.665 388.932 64.0367 388.456 63.43C388.022 62.78 387.524 62.1083 386.961 61.415C388.477 61.155 389.756 60.9167 390.796 60.7C391.879 60.44 392.876 60.1367 393.786 59.79C394.739 59.4433 395.692 59.0317 396.646 58.555C397.642 58.035 398.791 57.385 400.091 56.605V79.16C400.091 79.8967 400.112 80.6983 400.156 81.565C400.242 82.4317 400.394 83.2767 400.611 84.1C400.827 84.9233 401.152 85.6817 401.586 86.375C402.019 87.0683 402.604 87.61 403.341 88H387.286ZM418.4 56.085C417.837 54.8717 417.555 53.68 417.555 52.51C417.555 50.43 418.01 48.6533 418.92 47.18C419.874 45.7067 421.087 44.515 422.56 43.605C424.077 42.6517 425.745 41.9583 427.565 41.525C429.429 41.0917 431.249 40.875 433.025 40.875C435.495 40.875 437.532 41.1133 439.135 41.59C440.782 42.0233 442.082 42.7383 443.035 43.735C444.032 44.7317 444.725 46.0533 445.115 47.7C445.505 49.3033 445.7 51.275 445.7 53.615V56.605H452.46V58.165H445.7V81.175C445.7 82.4317 446.112 83.3417 446.935 83.905C447.802 84.425 448.799 84.685 449.925 84.685C450.532 84.685 451.117 84.62 451.68 84.49C452.287 84.36 452.85 84.1433 453.37 83.84V84.49C452.07 85.7033 450.554 86.7 448.82 87.48C447.13 88.26 445.375 88.65 443.555 88.65C442.255 88.65 441.129 88.4117 440.175 87.935C439.265 87.4583 438.507 86.83 437.9 86.05C437.337 85.2267 436.904 84.295 436.6 83.255C436.34 82.1717 436.21 81.045 436.21 79.875V58.165H433.025V57.19C434.109 57.06 435.235 56.8 436.405 56.41C437.575 56.02 438.637 55.5 439.59 54.85C440.587 54.1567 441.389 53.3333 441.995 52.38C442.645 51.3833 442.97 50.2567 442.97 49C442.97 47.7 442.645 46.6167 441.995 45.75C441.345 44.8833 440.522 44.19 439.525 43.67C438.572 43.15 437.51 42.7817 436.34 42.565C435.17 42.3483 434.065 42.24 433.025 42.24C431.769 42.24 430.469 42.4783 429.125 42.955C427.782 43.3883 426.547 44.0383 425.42 44.905C424.337 45.7283 423.427 46.725 422.69 47.895C421.997 49.0217 421.65 50.3 421.65 51.73C421.65 52.7267 421.802 53.6583 422.105 54.525C422.452 55.3483 423.037 56.085 423.86 56.735C426.677 57.5583 428.865 59.075 430.425 61.285C432.029 63.4517 432.83 65.9867 432.83 68.89C432.83 69.7567 432.657 70.385 432.31 70.775C431.964 71.1217 431.357 71.3167 430.49 71.36L414.24 72.075C414.89 74.935 416.104 77.2967 417.88 79.16C419.7 80.98 422.17 81.89 425.29 81.89C425.767 81.89 426.33 81.8683 426.98 81.825C427.674 81.7383 428.367 81.63 429.06 81.5C429.754 81.37 430.404 81.1967 431.01 80.98C431.66 80.72 432.159 80.4167 432.505 80.07L433.025 80.46C431.552 83.1467 429.797 85.1833 427.76 86.57C425.767 87.9567 423.167 88.65 419.96 88.65C417.707 88.65 415.605 88.2383 413.655 87.415C411.749 86.5917 410.102 85.465 408.715 84.035C407.372 82.5617 406.31 80.85 405.53 78.9C404.75 76.95 404.36 74.8483 404.36 72.595C404.36 70.515 404.664 68.5 405.27 66.55C405.92 64.6 406.852 62.8667 408.065 61.35C409.279 59.8333 410.752 58.5983 412.485 57.645C414.219 56.6917 416.19 56.1717 418.4 56.085ZM413.915 70.45C414.912 70.32 415.995 70.2117 417.165 70.125C418.379 69.995 419.505 69.7567 420.545 69.41C421.585 69.02 422.452 68.4567 423.145 67.72C423.839 66.9833 424.185 65.9217 424.185 64.535C424.185 63.755 424.034 62.975 423.73 62.195C423.47 61.3717 423.08 60.635 422.56 59.985C422.04 59.2917 421.434 58.7283 420.74 58.295C420.047 57.8617 419.289 57.645 418.465 57.645C417.512 57.645 416.732 58.035 416.125 58.815C415.519 59.595 415.042 60.5267 414.695 61.61C414.349 62.6933 414.089 63.7983 413.915 64.925C413.785 66.0517 413.72 66.94 413.72 67.59C413.72 68.5 413.785 69.4533 413.915 70.45ZM468.749 88L462.834 73.245C462.444 72.2483 461.924 70.905 461.274 69.215C460.624 67.525 459.909 65.8133 459.129 64.08C458.349 62.3467 457.483 60.7867 456.529 59.4C455.619 57.97 454.666 57.0383 453.669 56.605H471.609C470.526 56.9517 469.724 57.6017 469.204 58.555C468.684 59.5083 468.424 60.5483 468.424 61.675C468.424 62.585 468.706 63.9283 469.269 65.705C469.833 67.4817 470.483 69.345 471.219 71.295C471.999 73.245 472.758 75.13 473.494 76.95C474.274 78.7267 474.881 80.1133 475.314 81.11C475.791 79.8967 476.289 78.64 476.809 77.34C477.373 75.9967 477.871 74.6533 478.304 73.31C478.781 71.9233 479.171 70.5367 479.474 69.15C479.778 67.7633 479.929 66.42 479.929 65.12C479.929 63.04 479.474 61.285 478.564 59.855C477.654 58.425 476.224 57.3417 474.274 56.605H489.354C488.358 57.0383 487.383 57.97 486.429 59.4C485.519 60.83 484.653 62.4117 483.829 64.145C483.049 65.835 482.334 67.5467 481.684 69.28C481.034 70.97 480.514 72.335 480.124 73.375L474.274 88C473.711 89.43 473.083 90.9683 472.389 92.615C471.739 94.2617 470.938 95.8 469.984 97.23C469.074 98.66 467.969 99.8517 466.669 100.805C465.369 101.758 463.788 102.235 461.924 102.235C460.928 102.235 459.974 102.105 459.064 101.845C458.198 101.628 457.418 101.26 456.724 100.74C456.074 100.263 455.554 99.635 455.164 98.855C454.774 98.075 454.579 97.1433 454.579 96.06C454.579 95.4967 454.666 94.8467 454.839 94.11C455.013 93.4167 455.273 92.7667 455.619 92.16C456.009 91.5533 456.464 91.0333 456.984 90.6C457.504 90.21 458.111 90.015 458.804 90.015C458.804 91.575 459.303 92.7233 460.299 93.46C461.339 94.1967 462.574 94.565 464.004 94.565C464.611 94.565 465.348 94.4567 466.214 94.24C467.081 94.0233 467.904 93.6983 468.684 93.265C469.508 92.875 470.201 92.3767 470.764 91.77C471.328 91.1633 471.609 90.47 471.609 89.69C471.609 88.9967 471.263 88.5417 470.569 88.325C469.876 88.1083 469.269 88 468.749 88ZM515.102 56.605H521.862V58.165H515.102V81.175C515.102 82.4317 515.514 83.3417 516.337 83.905C517.204 84.425 518.2 84.685 519.327 84.685C519.934 84.685 520.519 84.62 521.082 84.49C521.689 84.36 522.252 84.1433 522.772 83.84V84.49C521.472 85.7033 519.955 86.7 518.222 87.48C516.532 88.26 514.777 88.65 512.957 88.65C511.657 88.65 510.53 88.4117 509.577 87.935C508.667 87.4583 507.909 86.83 507.302 86.05C506.739 85.2267 506.305 84.295 506.002 83.255C505.742 82.1717 505.612 81.045 505.612 79.875V58.165H502.427V57.19C503.944 57.06 505.309 56.8 506.522 56.41C507.735 56.02 508.819 55.5 509.772 54.85C510.725 54.1567 511.549 53.29 512.242 52.25C512.979 51.21 513.607 49.9533 514.127 48.48H515.102V56.605ZM536.76 56.085C539.014 56.085 541.094 56.5183 543 57.385C544.907 58.2517 546.554 59.4433 547.94 60.96C549.37 62.4333 550.475 64.1667 551.255 66.16C552.035 68.11 552.425 70.19 552.425 72.4C552.425 74.61 552.035 76.7117 551.255 78.705C550.475 80.655 549.37 82.3667 547.94 83.84C546.554 85.3133 544.907 86.4833 543 87.35C541.094 88.2167 539.014 88.65 536.76 88.65C534.507 88.65 532.405 88.2167 530.455 87.35C528.549 86.4833 526.902 85.3133 525.515 83.84C524.129 82.3667 523.024 80.655 522.2 78.705C521.42 76.7117 521.03 74.61 521.03 72.4C521.03 70.19 521.42 68.11 522.2 66.16C523.024 64.1667 524.129 62.4333 525.515 60.96C526.902 59.4433 528.549 58.2517 530.455 57.385C532.405 56.5183 534.507 56.085 536.76 56.085ZM538.84 86.895C539.837 86.895 540.617 86.5267 541.18 85.79C541.744 85.0533 542.177 84.1867 542.48 83.19C542.784 82.15 542.979 81.0883 543.065 80.005C543.152 78.9217 543.195 78.055 543.195 77.405C543.195 76.5817 543.13 75.52 543 74.22C542.87 72.92 542.654 71.555 542.35 70.125C542.047 68.695 541.657 67.265 541.18 65.835C540.747 64.3617 540.184 63.0617 539.49 61.935C538.797 60.765 537.995 59.8117 537.085 59.075C536.219 58.3383 535.2 57.97 534.03 57.97C533.12 57.97 532.405 58.3167 531.885 59.01C531.365 59.7033 530.975 60.5267 530.715 61.48C530.455 62.4333 530.282 63.4083 530.195 64.405C530.152 65.4017 530.13 66.2033 530.13 66.81C530.13 67.59 530.195 68.63 530.325 69.93C530.455 71.1867 530.65 72.5733 530.91 74.09C531.214 75.5633 531.582 77.0583 532.015 78.575C532.492 80.0917 533.055 81.4783 533.705 82.735C534.355 83.9483 535.092 84.945 535.915 85.725C536.782 86.505 537.757 86.895 538.84 86.895ZM569.346 93.59V69.865C569.346 68.955 569.259 68.1317 569.086 67.395C568.912 66.615 568.674 65.9 568.371 65.25C568.067 64.6 567.677 63.9717 567.201 63.365C566.767 62.715 566.269 62.0433 565.706 61.35C567.222 61.09 568.501 60.8517 569.541 60.635C570.624 60.375 571.621 60.0717 572.531 59.725C573.484 59.3783 574.437 58.9667 575.391 58.49C576.387 57.97 577.536 57.3417 578.836 56.605V61.285C579.399 60.635 579.984 60.0067 580.591 59.4C581.241 58.75 581.869 58.165 582.476 57.645C583.126 57.125 583.754 56.7133 584.361 56.41C585.011 56.0633 585.596 55.89 586.116 55.89C588.369 55.89 590.362 56.3233 592.096 57.19C593.829 58.0567 595.281 59.2267 596.451 60.7C597.664 62.13 598.574 63.7983 599.181 65.705C599.787 67.6117 600.091 69.605 600.091 71.685C600.091 73.895 599.766 76.0183 599.116 78.055C598.466 80.0917 597.491 81.89 596.191 83.45C594.934 85.01 593.374 86.2667 591.511 87.22C589.691 88.13 587.611 88.585 585.271 88.585C583.797 88.585 582.606 88.4767 581.696 88.26C580.786 88.0867 579.832 87.8267 578.836 87.48V93.59C578.836 94.3267 578.857 95.1283 578.901 95.995C578.987 96.8617 579.139 97.685 579.356 98.465C579.616 99.2883 579.962 100.047 580.396 100.74C580.829 101.433 581.392 101.997 582.086 102.43H566.031C566.767 101.997 567.352 101.433 567.786 100.74C568.219 100.047 568.544 99.2883 568.761 98.465C568.977 97.685 569.129 96.8617 569.216 95.995C569.302 95.1283 569.346 94.3267 569.346 93.59ZM578.836 62.065V78.51C578.836 79.3333 578.901 80.2433 579.031 81.24C579.161 82.2367 579.421 83.1683 579.811 84.035C580.201 84.8583 580.721 85.5517 581.371 86.115C582.064 86.6783 582.952 86.96 584.036 86.96C585.379 86.96 586.506 86.5917 587.416 85.855C588.326 85.075 589.041 84.1217 589.561 82.995C590.124 81.8683 590.514 80.6767 590.731 79.42C590.991 78.12 591.121 76.9283 591.121 75.845C591.121 74.155 590.904 72.465 590.471 70.775C590.037 69.085 589.366 67.5683 588.456 66.225C587.546 64.8383 586.376 63.7333 584.946 62.91C583.559 62.0433 581.912 61.61 580.006 61.61C579.702 61.61 579.312 61.7617 578.836 62.065ZM629.998 85.985C629.434 86.375 628.914 86.7433 628.438 87.09C627.961 87.4367 627.484 87.7183 627.008 87.935C626.531 88.1517 626.011 88.325 625.448 88.455C624.884 88.585 624.234 88.65 623.498 88.65C622.328 88.65 621.158 88.3467 619.988 87.74C618.818 87.09 617.994 86.2017 617.518 85.075C616.521 86.2017 615.308 87.09 613.878 87.74C612.448 88.3467 610.801 88.65 608.938 88.65C606.641 88.65 604.756 88.1083 603.283 87.025C601.853 85.9417 601.138 84.165 601.138 81.695C601.138 80.005 601.766 78.5317 603.023 77.275C604.323 76.0183 605.839 74.87 607.573 73.83C609.349 72.79 611.126 71.7933 612.903 70.84C614.723 69.8433 616.153 68.7817 617.193 67.655V65.575C617.193 65.0117 617.193 64.2967 617.193 63.43C617.193 62.52 617.106 61.6533 616.933 60.83C616.759 59.9633 616.456 59.2267 616.023 58.62C615.633 57.97 615.004 57.645 614.138 57.645C613.661 57.645 613.228 57.775 612.838 58.035C612.448 58.295 612.101 58.62 611.798 59.01C611.538 59.4 611.321 59.8333 611.148 60.31C611.018 60.7433 610.953 61.1767 610.953 61.61C610.953 62.39 611.191 62.975 611.668 63.365C612.144 63.755 612.751 63.95 613.488 63.95C613.011 65.5533 612.188 66.9833 611.018 68.24C609.848 69.4533 608.353 70.06 606.533 70.06C605.146 70.06 604.084 69.5617 603.348 68.565C602.654 67.525 602.308 66.3767 602.308 65.12C602.308 63.4733 602.698 62.0867 603.478 60.96C604.301 59.8333 605.319 58.9017 606.533 58.165C607.789 57.4283 609.154 56.9083 610.628 56.605C612.144 56.2583 613.574 56.085 614.918 56.085C616.564 56.085 618.103 56.3233 619.533 56.8C620.963 57.2333 622.198 57.905 623.238 58.815C624.321 59.725 625.166 60.8517 625.773 62.195C626.379 63.495 626.683 65.0117 626.683 66.745V81.695C626.683 81.9983 626.704 82.3883 626.748 82.865C626.791 83.2983 626.878 83.7317 627.008 84.165C627.138 84.5983 627.333 84.9667 627.593 85.27C627.896 85.5733 628.264 85.725 628.698 85.725C629.174 85.725 629.608 85.595 629.998 85.335V85.985ZM617.193 69.93C616.586 70.4933 615.893 71.1 615.113 71.75C614.376 72.4 613.683 73.0933 613.033 73.83C612.383 74.5233 611.819 75.2817 611.343 76.105C610.909 76.9283 610.693 77.8167 610.693 78.77C610.693 79.4633 610.736 80.1567 610.823 80.85C610.953 81.5 611.148 82.085 611.408 82.605C611.711 83.125 612.123 83.5583 612.643 83.905C613.163 84.2083 613.834 84.36 614.658 84.36C615.611 84.36 616.456 84.1433 617.193 83.71V69.93ZM640.834 88L634.919 73.245C634.529 72.2483 634.009 70.905 633.359 69.215C632.709 67.525 631.994 65.8133 631.214 64.08C630.434 62.3467 629.568 60.7867 628.614 59.4C627.704 57.97 626.751 57.0383 625.754 56.605H643.694C642.611 56.9517 641.809 57.6017 641.289 58.555C640.769 59.5083 640.509 60.5483 640.509 61.675C640.509 62.585 640.791 63.9283 641.354 65.705C641.918 67.4817 642.568 69.345 643.304 71.295C644.084 73.245 644.843 75.13 645.579 76.95C646.359 78.7267 646.966 80.1133 647.399 81.11C647.876 79.8967 648.374 78.64 648.894 77.34C649.458 75.9967 649.956 74.6533 650.389 73.31C650.866 71.9233 651.256 70.5367 651.559 69.15C651.863 67.7633 652.014 66.42 652.014 65.12C652.014 63.04 651.559 61.285 650.649 59.855C649.739 58.425 648.309 57.3417 646.359 56.605H661.439C660.443 57.0383 659.468 57.97 658.514 59.4C657.604 60.83 656.738 62.4117 655.914 64.145C655.134 65.835 654.419 67.5467 653.769 69.28C653.119 70.97 652.599 72.335 652.209 73.375L646.359 88C645.796 89.43 645.168 90.9683 644.474 92.615C643.824 94.2617 643.023 95.8 642.069 97.23C641.159 98.66 640.054 99.8517 638.754 100.805C637.454 101.758 635.873 102.235 634.009 102.235C633.013 102.235 632.059 102.105 631.149 101.845C630.283 101.628 629.503 101.26 628.809 100.74C628.159 100.263 627.639 99.635 627.249 98.855C626.859 98.075 626.664 97.1433 626.664 96.06C626.664 95.4967 626.751 94.8467 626.924 94.11C627.098 93.4167 627.358 92.7667 627.704 92.16C628.094 91.5533 628.549 91.0333 629.069 90.6C629.589 90.21 630.196 90.015 630.889 90.015C630.889 91.575 631.388 92.7233 632.384 93.46C633.424 94.1967 634.659 94.565 636.089 94.565C636.696 94.565 637.433 94.4567 638.299 94.24C639.166 94.0233 639.989 93.6983 640.769 93.265C641.593 92.875 642.286 92.3767 642.849 91.77C643.413 91.1633 643.694 90.47 643.694 89.69C643.694 88.9967 643.348 88.5417 642.654 88.325C641.961 88.1083 641.354 88 640.834 88ZM690.904 62.325C690.99 62.1517 691.272 61.8917 691.749 61.545C692.269 61.1983 692.875 60.7867 693.569 60.31C694.305 59.8333 695.064 59.3567 695.844 58.88C696.667 58.36 697.425 57.905 698.119 57.515C698.855 57.0817 699.484 56.735 700.004 56.475C700.524 56.215 700.849 56.085 700.979 56.085C702.452 56.085 703.73 56.3667 704.814 56.93C705.897 57.4933 706.785 58.2517 707.479 59.205C708.215 60.1583 708.757 61.2633 709.104 62.52C709.494 63.7767 709.689 65.0767 709.689 66.42V79.16C709.689 79.8967 709.732 80.6983 709.819 81.565C709.905 82.4317 710.057 83.2767 710.274 84.1C710.49 84.9233 710.815 85.6817 711.249 86.375C711.725 87.0683 712.31 87.61 713.004 88H696.949C697.642 87.61 698.205 87.0683 698.639 86.375C699.072 85.6383 699.397 84.88 699.614 84.1C699.83 83.2767 699.982 82.4317 700.069 81.565C700.155 80.6983 700.199 79.8967 700.199 79.16V66.68C700.199 66.03 700.134 65.3583 700.004 64.665C699.874 63.9717 699.657 63.3433 699.354 62.78C699.05 62.2167 698.617 61.7617 698.054 61.415C697.534 61.0683 696.884 60.895 696.104 60.895C695.324 60.895 694.652 61.0683 694.089 61.415C693.525 61.7617 693.049 62.2167 692.659 62.78C692.269 63.3 691.965 63.9067 691.749 64.6C691.575 65.2933 691.467 65.9867 691.424 66.68V79.16C691.424 79.8967 691.467 80.6983 691.554 81.565C691.64 82.4317 691.792 83.2767 692.009 84.1C692.225 84.9233 692.55 85.6817 692.984 86.375C693.46 87.0683 694.045 87.61 694.739 88H678.684C679.377 87.61 679.94 87.0683 680.374 86.375C680.807 85.6383 681.132 84.88 681.349 84.1C681.565 83.2767 681.717 82.4317 681.804 81.565C681.89 80.6983 681.934 79.8967 681.934 79.16V66.68C681.934 66.03 681.869 65.3583 681.739 64.665C681.609 63.9717 681.392 63.3433 681.089 62.78C680.785 62.2167 680.352 61.7617 679.789 61.415C679.269 61.0683 678.619 60.895 677.839 60.895C676.495 60.895 675.455 61.3717 674.719 62.325C673.982 63.235 673.505 64.2967 673.289 65.51V79.16C673.289 79.8967 673.31 80.6983 673.354 81.565C673.44 82.4317 673.592 83.2767 673.809 84.1C674.025 84.9233 674.35 85.6817 674.784 86.375C675.217 87.0683 675.802 87.61 676.539 88H660.484C661.177 87.61 661.74 87.0683 662.174 86.375C662.607 85.6383 662.932 84.88 663.149 84.1C663.409 83.2767 663.582 82.4317 663.669 81.565C663.755 80.6983 663.799 79.8967 663.799 79.16V69.93C663.799 69.02 663.712 68.1967 663.539 67.46C663.365 66.68 663.127 65.965 662.824 65.315C662.52 64.665 662.13 64.0367 661.654 63.43C661.22 62.78 660.722 62.1083 660.159 61.415C661.675 61.155 662.954 60.9167 663.994 60.7C665.077 60.44 666.074 60.1367 666.984 59.79C667.937 59.4433 668.89 59.0317 669.844 58.555C670.84 58.035 671.989 57.385 673.289 56.605V61.675C673.592 61.3717 674.22 60.9167 675.174 60.31C676.127 59.7033 677.124 59.0967 678.164 58.49C679.247 57.84 680.222 57.2767 681.089 56.8C681.999 56.3233 682.54 56.085 682.714 56.085C684.967 56.085 686.765 56.735 688.109 58.035C689.495 59.2917 690.449 60.8733 690.969 62.78L690.904 62.325ZM723.435 72.075C723.738 73.4183 724.193 74.6967 724.8 75.91C725.406 77.08 726.165 78.12 727.075 79.03C727.985 79.8967 729.046 80.59 730.26 81.11C731.516 81.63 732.925 81.89 734.485 81.89C734.961 81.89 735.525 81.8683 736.175 81.825C736.868 81.7383 737.561 81.63 738.255 81.5C738.948 81.37 739.598 81.1967 740.205 80.98C740.855 80.72 741.353 80.4167 741.7 80.07L742.22 80.46C740.746 83.1467 738.991 85.1833 736.955 86.57C734.961 87.9567 732.361 88.65 729.155 88.65C726.901 88.65 724.8 88.2383 722.85 87.415C720.943 86.5917 719.296 85.465 717.91 84.035C716.566 82.5617 715.505 80.85 714.725 78.9C713.945 76.95 713.555 74.8483 713.555 72.595C713.555 70.4283 713.88 68.3483 714.53 66.355C715.223 64.3617 716.198 62.6067 717.455 61.09C718.755 59.5733 720.315 58.36 722.135 57.45C723.955 56.54 726.013 56.085 728.31 56.085C730.39 56.085 732.275 56.41 733.965 57.06C735.698 57.6667 737.15 58.5767 738.32 59.79C739.533 60.96 740.465 62.39 741.115 64.08C741.765 65.77 742.09 67.655 742.09 69.735V71.295L723.435 72.075ZM733.38 64.535C733.38 63.7983 733.228 63.0183 732.925 62.195C732.665 61.3717 732.275 60.635 731.755 59.985C731.235 59.2917 730.628 58.7283 729.935 58.295C729.241 57.8617 728.483 57.645 727.66 57.645C726.706 57.645 725.926 58.035 725.32 58.815C724.713 59.595 724.236 60.5267 723.89 61.61C723.543 62.65 723.283 63.7333 723.11 64.86C722.98 65.9867 722.915 66.875 722.915 67.525C722.915 68.4783 722.98 69.4533 723.11 70.45C723.976 70.3633 724.843 70.255 725.71 70.125C726.576 69.995 727.443 69.865 728.31 69.735C729.783 69.5183 730.996 68.9983 731.95 68.175C732.903 67.3517 733.38 66.1383 733.38 64.535ZM759.249 88H743.194C743.887 87.61 744.45 87.0683 744.884 86.375C745.317 85.6383 745.642 84.88 745.859 84.1C746.119 83.2767 746.292 82.4317 746.379 81.565C746.465 80.6983 746.509 79.8967 746.509 79.16V69.93C746.509 69.02 746.422 68.1967 746.249 67.46C746.075 66.68 745.837 65.965 745.534 65.315C745.23 64.665 744.84 64.0367 744.364 63.43C743.93 62.78 743.432 62.1083 742.869 61.415C744.385 61.155 745.664 60.9167 746.704 60.7C747.787 60.44 748.784 60.1367 749.694 59.79C750.647 59.4433 751.6 59.0317 752.554 58.555C753.55 58.035 754.699 57.385 755.999 56.605V61.675C756.302 61.3717 756.93 60.9167 757.884 60.31C758.837 59.7033 759.834 59.0967 760.874 58.49C761.957 57.84 762.932 57.2767 763.799 56.8C764.709 56.3233 765.25 56.085 765.424 56.085C766.897 56.085 768.175 56.3667 769.259 56.93C770.342 57.4933 771.23 58.2517 771.924 59.205C772.66 60.1583 773.202 61.2633 773.549 62.52C773.939 63.7767 774.134 65.0767 774.134 66.42V79.16C774.134 79.8967 774.177 80.6983 774.264 81.565C774.35 82.4317 774.502 83.2767 774.719 84.1C774.935 84.9233 775.26 85.6817 775.694 86.375C776.17 87.0683 776.755 87.61 777.449 88H761.394C762.087 87.61 762.65 87.0683 763.084 86.375C763.517 85.6383 763.842 84.88 764.059 84.1C764.275 83.2767 764.427 82.4317 764.514 81.565C764.6 80.6983 764.644 79.8967 764.644 79.16V66.68C764.644 66.03 764.579 65.3583 764.449 64.665C764.319 63.9717 764.102 63.3433 763.799 62.78C763.495 62.2167 763.062 61.7617 762.499 61.415C761.979 61.0683 761.329 60.895 760.549 60.895C759.205 60.895 758.165 61.3717 757.429 62.325C756.692 63.235 756.215 64.2967 755.999 65.51V79.16C755.999 79.8967 756.02 80.6983 756.064 81.565C756.15 82.4317 756.302 83.2767 756.519 84.1C756.735 84.9233 757.06 85.6817 757.494 86.375C757.927 87.0683 758.512 87.61 759.249 88ZM789.194 56.605H795.954V58.165H789.194V81.175C789.194 82.4317 789.606 83.3417 790.429 83.905C791.296 84.425 792.292 84.685 793.419 84.685C794.026 84.685 794.611 84.62 795.174 84.49C795.781 84.36 796.344 84.1433 796.864 83.84V84.49C795.564 85.7033 794.047 86.7 792.314 87.48C790.624 88.26 788.869 88.65 787.049 88.65C785.749 88.65 784.622 88.4117 783.669 87.935C782.759 87.4583 782.001 86.83 781.394 86.05C780.831 85.2267 780.397 84.295 780.094 83.255C779.834 82.1717 779.704 81.045 779.704 79.875V58.165H776.519V57.19C778.036 57.06 779.401 56.8 780.614 56.41C781.827 56.02 782.911 55.5 783.864 54.85C784.817 54.1567 785.641 53.29 786.334 52.25C787.071 51.21 787.699 49.9533 788.219 48.48H789.194V56.605ZM293.572 163.59V139.865C293.572 138.955 293.485 138.132 293.312 137.395C293.138 136.615 292.9 135.9 292.597 135.25C292.293 134.6 291.903 133.972 291.427 133.365C290.993 132.715 290.495 132.043 289.932 131.35C291.448 131.09 292.727 130.852 293.767 130.635C294.85 130.375 295.847 130.072 296.757 129.725C297.71 129.378 298.663 128.967 299.617 128.49C300.613 127.97 301.762 127.342 303.062 126.605V131.285C303.625 130.635 304.21 130.007 304.817 129.4C305.467 128.75 306.095 128.165 306.702 127.645C307.352 127.125 307.98 126.713 308.587 126.41C309.237 126.063 309.822 125.89 310.342 125.89C312.595 125.89 314.588 126.323 316.322 127.19C318.055 128.057 319.507 129.227 320.677 130.7C321.89 132.13 322.8 133.798 323.407 135.705C324.013 137.612 324.317 139.605 324.317 141.685C324.317 143.895 323.992 146.018 323.342 148.055C322.692 150.092 321.717 151.89 320.417 153.45C319.16 155.01 317.6 156.267 315.737 157.22C313.917 158.13 311.837 158.585 309.497 158.585C308.023 158.585 306.832 158.477 305.922 158.26C305.012 158.087 304.058 157.827 303.062 157.48V163.59C303.062 164.327 303.083 165.128 303.127 165.995C303.213 166.862 303.365 167.685 303.582 168.465C303.842 169.288 304.188 170.047 304.622 170.74C305.055 171.433 305.618 171.997 306.312 172.43H290.257C290.993 171.997 291.578 171.433 292.012 170.74C292.445 170.047 292.77 169.288 292.987 168.465C293.203 167.685 293.355 166.862 293.442 165.995C293.528 165.128 293.572 164.327 293.572 163.59ZM303.062 132.065V148.51C303.062 149.333 303.127 150.243 303.257 151.24C303.387 152.237 303.647 153.168 304.037 154.035C304.427 154.858 304.947 155.552 305.597 156.115C306.29 156.678 307.178 156.96 308.262 156.96C309.605 156.96 310.732 156.592 311.642 155.855C312.552 155.075 313.267 154.122 313.787 152.995C314.35 151.868 314.74 150.677 314.957 149.42C315.217 148.12 315.347 146.928 315.347 145.845C315.347 144.155 315.13 142.465 314.697 140.775C314.263 139.085 313.592 137.568 312.682 136.225C311.772 134.838 310.602 133.733 309.172 132.91C307.785 132.043 306.138 131.61 304.232 131.61C303.928 131.61 303.538 131.762 303.062 132.065ZM337.974 149.16C337.974 149.897 337.995 150.698 338.039 151.565C338.125 152.432 338.277 153.277 338.494 154.1C338.71 154.88 339.035 155.617 339.469 156.31C339.902 157.003 340.487 157.567 341.224 158H325.169C325.862 157.567 326.425 157.003 326.859 156.31C327.292 155.617 327.617 154.88 327.834 154.1C328.094 153.277 328.267 152.432 328.354 151.565C328.44 150.698 328.484 149.897 328.484 149.16V139.93C328.484 138.11 328.159 136.572 327.509 135.315C326.859 134.058 325.97 132.758 324.844 131.415C326.36 131.155 327.639 130.917 328.679 130.7C329.762 130.44 330.759 130.137 331.669 129.79C332.622 129.4 333.575 128.967 334.529 128.49C335.525 127.97 336.674 127.342 337.974 126.605V136.55C339.014 135.207 340.27 133.82 341.744 132.39C343.217 130.96 344.799 129.66 346.489 128.49C348.222 127.32 349.999 126.367 351.819 125.63C353.682 124.85 355.524 124.46 357.344 124.46C359.944 124.46 362.327 124.872 364.494 125.695C366.66 126.475 368.524 127.602 370.084 129.075C371.644 130.548 372.835 132.347 373.659 134.47C374.525 136.593 374.959 138.977 374.959 141.62C374.959 143.96 374.547 146.17 373.724 148.25C372.9 150.33 371.752 152.15 370.279 153.71C368.805 155.227 367.05 156.44 365.014 157.35C363.02 158.217 360.81 158.65 358.384 158.65C356.304 158.65 354.31 158.325 352.404 157.675C350.497 156.982 348.829 156.007 347.399 154.75C345.969 153.493 344.82 151.977 343.954 150.2C343.087 148.423 342.654 146.43 342.654 144.22C342.654 142.053 343.065 140.19 343.889 138.63C344.755 137.027 345.882 135.683 347.269 134.6C348.655 133.517 350.259 132.715 352.079 132.195C353.942 131.675 355.849 131.415 357.799 131.415C356.715 131.415 355.827 131.957 355.134 133.04C354.44 134.123 353.899 135.402 353.509 136.875C353.119 138.305 352.859 139.757 352.729 141.23C352.599 142.66 352.534 143.743 352.534 144.48C352.534 145.39 352.599 146.56 352.729 147.99C352.902 149.42 353.205 150.807 353.639 152.15C354.072 153.493 354.679 154.663 355.459 155.66C356.282 156.613 357.344 157.09 358.644 157.09C359.9 157.09 360.94 156.483 361.764 155.27C362.587 154.057 363.237 152.648 363.714 151.045C364.234 149.398 364.602 147.752 364.819 146.105C365.035 144.458 365.144 143.202 365.144 142.335C365.144 140.862 365.014 139.345 364.754 137.785C364.494 136.182 364.017 134.73 363.324 133.43C362.63 132.13 361.699 131.068 360.529 130.245C359.359 129.422 357.864 129.01 356.044 129.01C354.917 129.01 353.812 129.14 352.729 129.4C351.689 129.617 350.649 129.92 349.609 130.31C348.655 130.7 347.507 131.285 346.164 132.065C344.864 132.802 343.607 133.668 342.394 134.665C341.18 135.662 340.14 136.745 339.274 137.915C338.407 139.042 337.974 140.19 337.974 141.36V149.16ZM391.617 136.745C392.7 136.745 393.697 136.507 394.607 136.03C395.517 135.553 395.972 134.687 395.972 133.43C395.972 132.693 395.798 131.978 395.452 131.285C395.148 130.592 394.715 129.985 394.152 129.465C393.632 128.902 393.025 128.468 392.332 128.165C391.638 127.818 390.923 127.645 390.187 127.645C389.277 127.645 388.54 128.013 387.977 128.75C387.413 129.443 386.958 130.288 386.612 131.285C386.308 132.282 386.092 133.3 385.962 134.34C385.832 135.38 385.767 136.225 385.767 136.875C385.767 138.695 386.005 140.515 386.482 142.335C386.958 144.112 387.673 145.715 388.627 147.145C389.623 148.575 390.88 149.723 392.397 150.59C393.913 151.457 395.712 151.89 397.792 151.89C398.268 151.89 398.832 151.868 399.482 151.825C400.175 151.738 400.868 151.63 401.562 151.5C402.255 151.37 402.905 151.197 403.512 150.98C404.162 150.72 404.66 150.417 405.007 150.07L405.527 150.46C402.493 155.92 397.878 158.65 391.682 158.65C389.428 158.65 387.327 158.238 385.377 157.415C383.47 156.592 381.823 155.465 380.437 154.035C379.093 152.562 378.032 150.85 377.252 148.9C376.472 146.95 376.082 144.848 376.082 142.595C376.082 140.428 376.407 138.348 377.057 136.355C377.75 134.362 378.725 132.607 379.982 131.09C381.282 129.573 382.842 128.36 384.662 127.45C386.482 126.54 388.54 126.085 390.837 126.085C392.44 126.085 394.043 126.323 395.647 126.8C397.25 127.277 398.702 127.992 400.002 128.945C401.302 129.855 402.342 131.003 403.122 132.39C403.945 133.777 404.357 135.358 404.357 137.135C404.357 138.825 403.88 140.19 402.927 141.23C401.973 142.27 400.608 142.79 398.832 142.79C396.838 142.79 395.278 142.248 394.152 141.165C393.025 140.038 392.18 138.565 391.617 136.745ZM415.922 142.075C416.226 143.418 416.681 144.697 417.287 145.91C417.894 147.08 418.652 148.12 419.562 149.03C420.472 149.897 421.534 150.59 422.747 151.11C424.004 151.63 425.412 151.89 426.972 151.89C427.449 151.89 428.012 151.868 428.662 151.825C429.356 151.738 430.049 151.63 430.742 151.5C431.436 151.37 432.086 151.197 432.692 150.98C433.342 150.72 433.841 150.417 434.187 150.07L434.707 150.46C433.234 153.147 431.479 155.183 429.442 156.57C427.449 157.957 424.849 158.65 421.642 158.65C419.389 158.65 417.287 158.238 415.337 157.415C413.431 156.592 411.784 155.465 410.397 154.035C409.054 152.562 407.992 150.85 407.212 148.9C406.432 146.95 406.042 144.848 406.042 142.595C406.042 140.428 406.367 138.348 407.017 136.355C407.711 134.362 408.686 132.607 409.942 131.09C411.242 129.573 412.802 128.36 414.622 127.45C416.442 126.54 418.501 126.085 420.797 126.085C422.877 126.085 424.762 126.41 426.452 127.06C428.186 127.667 429.637 128.577 430.807 129.79C432.021 130.96 432.952 132.39 433.602 134.08C434.252 135.77 434.577 137.655 434.577 139.735V141.295L415.922 142.075ZM425.867 134.535C425.867 133.798 425.716 133.018 425.412 132.195C425.152 131.372 424.762 130.635 424.242 129.985C423.722 129.292 423.116 128.728 422.422 128.295C421.729 127.862 420.971 127.645 420.147 127.645C419.194 127.645 418.414 128.035 417.807 128.815C417.201 129.595 416.724 130.527 416.377 131.61C416.031 132.65 415.771 133.733 415.597 134.86C415.467 135.987 415.402 136.875 415.402 137.525C415.402 138.478 415.467 139.453 415.597 140.45C416.464 140.363 417.331 140.255 418.197 140.125C419.064 139.995 419.931 139.865 420.797 139.735C422.271 139.518 423.484 138.998 424.437 138.175C425.391 137.352 425.867 136.138 425.867 134.535ZM448.226 158.65C447.013 158.65 445.67 158.498 444.196 158.195C442.766 157.892 441.423 157.415 440.166 156.765C438.91 156.115 437.848 155.27 436.981 154.23C436.158 153.147 435.746 151.847 435.746 150.33C435.746 148.9 436.136 147.665 436.916 146.625C437.74 145.585 438.91 145.065 440.426 145.065C441.9 145.065 443.091 145.628 444.001 146.755C444.955 147.838 445.561 149.03 445.821 150.33C445.041 150.33 444.391 150.59 443.871 151.11C443.395 151.63 443.156 152.28 443.156 153.06C443.156 153.71 443.308 154.295 443.611 154.815C443.915 155.335 444.305 155.768 444.781 156.115C445.301 156.418 445.865 156.657 446.471 156.83C447.078 157.003 447.663 157.09 448.226 157.09C448.92 157.09 449.613 157.003 450.306 156.83C451 156.657 451.628 156.397 452.191 156.05C452.755 155.66 453.21 155.183 453.556 154.62C453.903 154.013 454.076 153.298 454.076 152.475C454.076 151.348 453.643 150.417 452.776 149.68C451.953 148.9 450.913 148.185 449.656 147.535C448.4 146.842 447.035 146.17 445.561 145.52C444.088 144.827 442.723 144.047 441.466 143.18C440.21 142.27 439.148 141.187 438.281 139.93C437.458 138.673 437.046 137.135 437.046 135.315C437.046 133.668 437.458 132.282 438.281 131.155C439.148 129.985 440.21 129.032 441.466 128.295C442.723 127.515 444.11 126.952 445.626 126.605C447.186 126.258 448.638 126.085 449.981 126.085C451.195 126.085 452.495 126.237 453.881 126.54C455.311 126.8 456.611 127.255 457.781 127.905C458.995 128.555 459.991 129.4 460.771 130.44C461.551 131.437 461.941 132.693 461.941 134.21C461.941 135.553 461.551 136.615 460.771 137.395C460.035 138.175 458.995 138.565 457.651 138.565C456.265 138.565 455.116 138.153 454.206 137.33C453.296 136.507 452.646 135.467 452.256 134.21C452.993 134.21 453.556 133.993 453.946 133.56C454.336 133.083 454.531 132.498 454.531 131.805C454.531 130.505 454.033 129.487 453.036 128.75C452.04 128.013 450.935 127.645 449.721 127.645C448.291 127.645 447.1 128.1 446.146 129.01C445.193 129.877 444.716 131.025 444.716 132.455C444.716 133.538 445.15 134.47 446.016 135.25C446.926 136.03 448.031 136.767 449.331 137.46C450.675 138.11 452.105 138.76 453.621 139.41C455.181 140.06 456.611 140.84 457.911 141.75C459.255 142.66 460.36 143.743 461.226 145C462.136 146.213 462.591 147.708 462.591 149.485C462.591 151.262 462.093 152.757 461.096 153.97C460.143 155.14 458.951 156.072 457.521 156.765C456.091 157.458 454.531 157.935 452.841 158.195C451.195 158.498 449.656 158.65 448.226 158.65ZM475.775 158.65C474.562 158.65 473.219 158.498 471.745 158.195C470.315 157.892 468.972 157.415 467.715 156.765C466.459 156.115 465.397 155.27 464.53 154.23C463.707 153.147 463.295 151.847 463.295 150.33C463.295 148.9 463.685 147.665 464.465 146.625C465.289 145.585 466.459 145.065 467.975 145.065C469.449 145.065 470.64 145.628 471.55 146.755C472.504 147.838 473.11 149.03 473.37 150.33C472.59 150.33 471.94 150.59 471.42 151.11C470.944 151.63 470.705 152.28 470.705 153.06C470.705 153.71 470.857 154.295 471.16 154.815C471.464 155.335 471.854 155.768 472.33 156.115C472.85 156.418 473.414 156.657 474.02 156.83C474.627 157.003 475.212 157.09 475.775 157.09C476.469 157.09 477.162 157.003 477.855 156.83C478.549 156.657 479.177 156.397 479.74 156.05C480.304 155.66 480.759 155.183 481.105 154.62C481.452 154.013 481.625 153.298 481.625 152.475C481.625 151.348 481.192 150.417 480.325 149.68C479.502 148.9 478.462 148.185 477.205 147.535C475.949 146.842 474.584 146.17 473.11 145.52C471.637 144.827 470.272 144.047 469.015 143.18C467.759 142.27 466.697 141.187 465.83 139.93C465.007 138.673 464.595 137.135 464.595 135.315C464.595 133.668 465.007 132.282 465.83 131.155C466.654 129.985 467.694 129.032 468.95 128.295C470.25 127.515 471.659 126.952 473.175 126.605C474.692 126.258 476.122 126.085 477.465 126.085C476.642 125.392 475.992 124.59 475.515 123.68C475.082 122.77 474.865 121.752 474.865 120.625C474.865 118.848 475.32 117.353 476.23 116.14C477.14 114.883 478.267 113.865 479.61 113.085C480.997 112.305 482.492 111.742 484.095 111.395C485.742 111.048 487.28 110.875 488.71 110.875C490.14 110.875 491.679 111.048 493.325 111.395C495.015 111.698 496.575 112.218 498.005 112.955C499.435 113.692 500.627 114.667 501.58 115.88C502.534 117.093 503.01 118.588 503.01 120.365C503.01 121.665 502.534 122.792 501.58 123.745C500.67 124.655 499.565 125.11 498.265 125.11C496.965 125.11 495.839 124.655 494.885 123.745C493.975 122.792 493.52 121.665 493.52 120.365C493.52 119.065 493.975 117.96 494.885 117.05C495.839 116.097 496.965 115.62 498.265 115.62C497.702 114.97 497.03 114.428 496.25 113.995C495.514 113.562 494.712 113.237 493.845 113.02C493.022 112.803 492.155 112.652 491.245 112.565C490.379 112.478 489.534 112.435 488.71 112.435C487.454 112.435 486.24 112.608 485.07 112.955C483.9 113.302 482.86 113.822 481.95 114.515C481.084 115.208 480.369 116.075 479.805 117.115C479.285 118.112 479.025 119.303 479.025 120.69C479.025 121.817 479.264 122.9 479.74 123.94C480.26 124.98 480.954 125.868 481.82 126.605C482.817 126.822 483.77 127.147 484.68 127.58C485.59 127.97 486.392 128.49 487.085 129.14C487.822 129.747 488.407 130.483 488.84 131.35C489.274 132.173 489.49 133.127 489.49 134.21C489.49 135.553 489.1 136.615 488.32 137.395C487.584 138.175 486.544 138.565 485.2 138.565C483.814 138.565 482.665 138.153 481.755 137.33C480.845 136.507 480.195 135.467 479.805 134.21C480.542 134.21 481.105 133.993 481.495 133.56C481.885 133.083 482.08 132.498 482.08 131.805C482.08 130.505 481.582 129.487 480.585 128.75C479.589 128.013 478.484 127.645 477.27 127.645C475.84 127.645 474.649 128.1 473.695 129.01C472.742 129.877 472.265 131.025 472.265 132.455C472.265 133.538 472.699 134.47 473.565 135.25C474.475 136.03 475.58 136.767 476.88 137.46C478.224 138.11 479.654 138.76 481.17 139.41C482.73 140.06 484.16 140.84 485.46 141.75C486.804 142.66 487.909 143.743 488.775 145C489.685 146.213 490.14 147.708 490.14 149.485C490.14 151.262 489.642 152.757 488.645 153.97C487.692 155.14 486.5 156.072 485.07 156.765C483.64 157.458 482.08 157.935 480.39 158.195C478.744 158.498 477.205 158.65 475.775 158.65ZM503.595 149.16C503.595 149.897 503.617 150.698 503.66 151.565C503.747 152.432 503.899 153.277 504.115 154.1C504.332 154.923 504.657 155.682 505.09 156.375C505.524 157.068 506.109 157.61 506.845 158H490.79C491.484 157.61 492.047 157.068 492.48 156.375C492.914 155.638 493.239 154.88 493.455 154.1C493.715 153.277 493.889 152.432 493.975 151.565C494.062 150.698 494.105 149.897 494.105 149.16V139.93C494.105 139.02 494.019 138.197 493.845 137.46C493.672 136.68 493.434 135.965 493.13 135.315C492.827 134.665 492.437 134.037 491.96 133.43C491.527 132.78 491.029 132.108 490.465 131.415C491.982 131.155 493.26 130.917 494.3 130.7C495.384 130.44 496.38 130.137 497.29 129.79C498.244 129.443 499.197 129.032 500.15 128.555C501.147 128.035 502.295 127.385 503.595 126.605V149.16ZM557.271 126.085C558.181 126.085 559.113 126.15 560.066 126.28C560.629 125.283 561.258 124.308 561.951 123.355C562.644 122.402 563.403 121.557 564.226 120.82C565.093 120.04 566.003 119.412 566.956 118.935C567.953 118.458 569.014 118.22 570.141 118.22C571.398 118.22 572.481 118.61 573.391 119.39C574.301 120.127 574.756 121.145 574.756 122.445C574.756 123.962 574.214 125.132 573.131 125.955C572.048 126.735 570.813 127.125 569.426 127.125C569.123 127.125 568.754 127.082 568.321 126.995C568.061 126.302 567.628 125.782 567.021 125.435C566.458 125.088 565.808 124.915 565.071 124.915C564.291 124.915 563.598 125.067 562.991 125.37C562.384 125.63 561.843 125.998 561.366 126.475C562.839 126.735 564.248 127.168 565.591 127.775C566.978 128.382 568.191 129.162 569.231 130.115C570.314 131.025 571.159 132.13 571.766 133.43C572.416 134.687 572.741 136.16 572.741 137.85C572.741 139.973 572.264 141.793 571.311 143.31C570.358 144.827 569.101 146.062 567.541 147.015C566.024 147.925 564.334 148.597 562.471 149.03C560.608 149.463 558.766 149.68 556.946 149.68C556.426 149.723 555.863 149.81 555.256 149.94C554.649 150.027 554.108 150.157 553.631 150.33C553.154 150.503 552.743 150.72 552.396 150.98C552.093 151.24 551.941 151.565 551.941 151.955C551.941 152.258 552.028 152.518 552.201 152.735C552.418 152.908 552.656 153.038 552.916 153.125C553.176 153.212 553.458 153.277 553.761 153.32C554.064 153.32 554.324 153.32 554.541 153.32H569.231C570.748 153.32 572.004 153.71 573.001 154.49C574.041 155.227 574.561 156.397 574.561 158C574.561 161.25 573.846 163.937 572.416 166.06C571.029 168.183 569.231 169.852 567.021 171.065C564.811 172.278 562.319 173.123 559.546 173.6C556.816 174.077 554.108 174.315 551.421 174.315H550.771C548.778 174.272 546.503 174.033 543.946 173.6C541.389 173.167 538.963 172.43 536.666 171.39C534.413 170.393 532.506 169.028 530.946 167.295C529.386 165.605 528.606 163.46 528.606 160.86V136.68C528.606 136.03 528.541 135.358 528.411 134.665C528.281 133.972 528.064 133.343 527.761 132.78C527.458 132.217 527.024 131.762 526.461 131.415C525.941 131.068 525.291 130.895 524.511 130.895C523.168 130.895 522.128 131.372 521.391 132.325C520.654 133.235 520.178 134.297 519.961 135.51V149.16C519.961 149.897 519.983 150.698 520.026 151.565C520.113 152.432 520.264 153.277 520.481 154.1C520.698 154.923 521.023 155.682 521.456 156.375C521.889 157.068 522.474 157.61 523.211 158H507.156C507.849 157.61 508.413 157.068 508.846 156.375C509.279 155.638 509.604 154.88 509.821 154.1C510.081 153.277 510.254 152.432 510.341 151.565C510.428 150.698 510.471 149.897 510.471 149.16V139.93C510.471 139.02 510.384 138.197 510.211 137.46C510.038 136.68 509.799 135.965 509.496 135.315C509.193 134.665 508.803 134.037 508.326 133.43C507.893 132.78 507.394 132.108 506.831 131.415C508.348 131.155 509.626 130.917 510.666 130.7C511.749 130.44 512.746 130.137 513.656 129.79C514.609 129.443 515.563 129.032 516.516 128.555C517.513 128.035 518.661 127.385 519.961 126.605V131.675C520.264 131.372 520.893 130.917 521.846 130.31C522.799 129.703 523.796 129.097 524.836 128.49C525.876 127.84 526.851 127.277 527.761 126.8C528.671 126.323 529.213 126.085 529.386 126.085C530.859 126.085 532.138 126.367 533.221 126.93C534.304 127.493 535.193 128.252 535.886 129.205C536.623 130.158 537.164 131.263 537.511 132.52C537.901 133.777 538.096 135.077 538.096 136.42V160.99C538.096 162.897 538.464 164.565 539.201 165.995C539.938 167.468 540.913 168.703 542.126 169.7C543.383 170.697 544.813 171.455 546.416 171.975C548.019 172.495 549.709 172.755 551.486 172.755C553.176 172.755 554.823 172.517 556.426 172.04C558.073 171.607 559.524 170.913 560.781 169.96C562.081 169.007 563.121 167.837 563.901 166.45C564.681 165.063 565.071 163.417 565.071 161.51H546.741C546.004 161.51 545.289 161.358 544.596 161.055C543.903 160.752 543.296 160.34 542.776 159.82C542.256 159.3 541.844 158.693 541.541 158C541.238 157.307 541.086 156.592 541.086 155.855C541.086 154.382 541.476 153.212 542.256 152.345C543.079 151.478 544.076 150.828 545.246 150.395C546.416 149.918 547.673 149.615 549.016 149.485C550.403 149.312 551.659 149.225 552.786 149.225C551.356 148.922 549.969 148.488 548.626 147.925C547.283 147.318 546.091 146.538 545.051 145.585C544.011 144.632 543.188 143.527 542.581 142.27C541.974 140.97 541.671 139.497 541.671 137.85C541.671 135.77 542.148 133.993 543.101 132.52C544.054 131.047 545.289 129.833 546.806 128.88C548.323 127.927 549.991 127.233 551.811 126.8C553.674 126.323 555.494 126.085 557.271 126.085ZM559.351 147.925C560.218 147.925 560.933 147.73 561.496 147.34C562.059 146.907 562.493 146.365 562.796 145.715C563.143 145.065 563.381 144.35 563.511 143.57C563.641 142.79 563.706 142.053 563.706 141.36C563.706 140.103 563.511 138.695 563.121 137.135C562.731 135.575 562.146 134.123 561.366 132.78C560.629 131.393 559.676 130.245 558.506 129.335C557.379 128.425 556.058 127.97 554.541 127.97C553.761 127.97 553.111 128.165 552.591 128.555C552.071 128.945 551.659 129.443 551.356 130.05C551.096 130.657 550.901 131.328 550.771 132.065C550.684 132.758 550.641 133.43 550.641 134.08C550.641 135.25 550.814 136.637 551.161 138.24C551.551 139.8 552.093 141.317 552.786 142.79C553.523 144.22 554.433 145.433 555.516 146.43C556.599 147.427 557.878 147.925 559.351 147.925Z" fill="white"/>
<path d="M36.5 5V45.5H0" stroke="white" stroke-width="3"/>
<path d="M829 0V40.5H865.5" stroke="white" stroke-width="3"/>
</svg>
