<svg width="556" height="160" viewBox="0 0 556 160" fill="none" xmlns="http://www.w3.org/2000/svg">
<g clip-path="url(#clip0_4162_31926)">
<path d="M23.38 30.51C30.1 30.51 35.42 26.17 35.42 19.24C35.42 10.49 27.65 5.94 19.67 5.94H1.4C4.55 7.76 4.97 12.17 4.97 15.46V49.48C4.97 52.7 4.48 57.18 1.4 59H25.2C33.25 59 38.85 51.58 38.85 43.95C38.85 34.92 31.78 30.51 23.38 30.51ZM15.19 29.67V7.62H16.24C22.4 7.62 25.69 12.87 25.69 18.54C25.69 25.26 21.98 29.67 15.19 29.67ZM15.19 57.32V31.35H16.24C23.87 31.35 29.05 36.95 29.05 44.44C29.05 52.91 23.24 57.32 15.19 57.32ZM39.9219 25.19C43.0019 26.94 43.4919 31.49 43.4919 34.71V48.43C43.4919 54.24 46.5719 59.56 52.8719 59.56C53.7119 59.56 62.5319 54.31 63.1619 53.4C63.5119 55.29 64.2119 57.25 64.6319 59H77.1619C74.2919 55.43 73.2419 52.56 73.2419 48.01V25.19H59.5219C62.6719 26.94 63.0219 31.49 63.0219 34.71V44.65C63.0219 46.33 62.8819 48.15 62.8819 49.97C62.3219 52.28 60.7819 54.38 58.1219 54.38C54.6919 54.38 53.7119 51.02 53.7119 48.15V25.19H39.9219ZM98.7377 49.48C98.7377 52.7 98.2477 57.25 95.1677 59H112.528C109.378 57.25 108.958 52.7 108.958 49.48V23.72C108.958 20.08 109.098 17.49 111.478 14.55C101.468 12.87 94.4677 3.91 84.0377 3.91C79.0677 3.91 74.3077 6.36 74.3077 11.89C74.3077 16.23 77.3177 19.87 81.0277 21.83C82.3577 22.53 84.0377 23.58 85.5777 23.58C88.3777 23.58 90.6877 21.27 90.6877 18.47C90.6877 15.67 88.3777 13.36 85.5777 13.36C82.7777 13.36 80.4677 15.67 80.4677 18.47C80.4677 20.22 81.4477 21.76 82.8477 22.74C79.9077 20.99 78.0177 17.98 78.0177 14.55C78.0177 9.37 81.8677 6.43 86.8377 6.43C91.1777 6.43 96.1477 8.88 98.7377 12.38V49.48ZM94.8177 59C91.6677 57.25 91.3177 52.7 91.3177 49.48V25.19C85.6477 28.48 83.6877 29.32 77.1777 30.37C79.6277 33.31 81.0977 35.55 81.0977 39.54V49.48C81.0977 52.63 80.5377 57.25 77.5277 59H94.8177ZM146.19 9.44C140.52 12.66 138.56 13.5 132.05 14.55C134.5 17.49 135.97 19.73 135.97 23.72V26.87C134.78 26.31 130.3 24.42 129.04 24.42C118.89 24.42 113.08 33.17 113.08 42.62C113.08 51.65 118.4 59.63 128.13 59.63C132.19 59.63 134.43 58.37 135.97 56.13V59H149.69C146.54 57.25 146.19 52.7 146.19 49.48V9.44ZM135.97 52.35C135.62 52.35 135.2 52.35 134.71 52.35C126.59 52.35 122.74 44.86 122.74 37.65C122.74 33.03 124.7 26.17 130.37 26.17C135.06 26.17 135.97 31.63 135.97 35.27V52.35ZM169.817 39.68C173.737 39.68 176.257 36.53 177.307 33.1C175.697 33.1 174.577 32.26 174.577 30.58C174.577 28.76 175.977 26.31 178.007 26.31C182.207 26.31 181.297 35.06 181.297 37.79C175.277 40.1 164.007 44.23 164.007 52.07C164.007 63.55 176.677 66 185.777 66C195.437 66 209.577 62.85 209.577 50.67V39.54C209.577 38 209.507 36.32 209.577 34.78C209.647 32.33 211.957 29.81 214.477 29.81C217.907 29.81 218.887 33.17 218.887 36.04V49.48C218.887 52.63 218.397 57.25 215.387 59H232.677C229.597 57.25 229.107 52.7 229.107 49.48V35.76C229.107 29.95 226.027 24.63 219.727 24.63C218.887 24.63 210.417 29.67 209.577 30.58V25.19C203.907 28.41 201.947 29.32 195.437 30.37C197.887 33.31 199.357 35.55 199.357 39.54V50.18C199.357 57.95 195.087 64.11 186.897 64.11C179.547 64.11 174.297 59.28 174.297 51.79C174.297 46.4 176.607 42.2 181.297 39.54V54.17C181.297 57.6 185.007 59.7 188.087 59.7C191.167 59.7 192.707 58.58 195.087 56.83V56.13C194.667 56.41 194.177 56.55 193.687 56.55C191.727 56.55 191.517 53.54 191.517 52.21V36.11C191.517 28.62 185.987 24.63 178.847 24.63C172.967 24.63 165.267 27.36 165.267 34.36C165.267 37.09 166.877 39.68 169.817 39.68ZM266.365 9.44C260.695 12.66 258.735 13.5 252.225 14.55C254.675 17.49 256.145 19.73 256.145 23.72V26.87C254.955 26.31 250.475 24.42 249.215 24.42C239.065 24.42 233.255 33.17 233.255 42.62C233.255 51.65 238.575 59.63 248.305 59.63C252.365 59.63 254.605 58.37 256.145 56.13V59H269.865C266.715 57.25 266.365 52.7 266.365 49.48V9.44ZM256.145 52.35C255.795 52.35 255.375 52.35 254.885 52.35C246.765 52.35 242.915 44.86 242.915 37.65C242.915 33.03 244.875 26.17 250.545 26.17C255.235 26.17 256.145 31.63 256.145 35.27V52.35ZM305.183 39.54V49.48C305.183 52.63 304.623 57.25 301.613 59H318.903C315.753 57.25 315.403 52.7 315.403 49.48V34.78C315.403 32.4 317.853 29.81 320.303 29.81C323.733 29.81 324.713 33.17 324.713 36.04V49.48C324.713 52.63 324.223 57.25 321.213 59H338.503C335.423 57.25 334.933 52.7 334.933 49.48V35.76C334.933 29.95 331.853 24.63 325.553 24.63C324.713 24.63 316.243 29.67 315.403 30.58V25.19C316.313 23.72 316.733 21.97 316.733 20.22C316.733 12.03 309.243 8.25 301.963 8.25C295.873 8.25 286.913 11.05 286.913 18.47C286.913 21.27 289.223 23.58 292.023 23.58C294.823 23.58 297.133 21.27 297.133 18.47C297.133 15.67 294.823 13.36 292.023 13.36C294.123 10.84 297.763 9.86 300.983 9.86C306.793 9.86 312.673 13.5 312.673 19.8C312.673 26.1 306.723 29.46 301.263 30.37C303.713 33.31 305.183 35.55 305.183 39.54ZM283.623 30.37C286.073 33.31 287.543 35.55 287.543 39.54V49.48C287.543 52.63 286.983 57.25 283.973 59H301.263C298.113 57.25 297.763 52.7 297.763 49.48V25.19C292.093 28.48 290.133 29.32 283.623 30.37ZM352.516 16.44H351.466C349.156 22.81 345.446 25.19 338.866 25.82V26.87H342.296V50.25C342.296 55.36 344.606 59.7 350.206 59.7C354.056 59.7 357.976 57.81 360.776 55.22V54.52C359.656 55.15 358.326 55.43 357.066 55.43C354.686 55.43 352.516 54.38 352.516 51.65V26.87H359.796V25.19H352.516V16.44ZM389.63 41.01V39.33C389.63 30.3 383.82 24.63 374.79 24.63C364.85 24.63 358.9 33.1 358.9 42.41C358.9 52.07 365.9 59.7 375.7 59.7C382.63 59.7 386.55 56.69 389.77 50.88L389.21 50.46C387.74 51.93 383.4 52.42 381.44 52.42C374.65 52.42 370.87 47.66 369.54 41.85L389.63 41.01ZM380.25 33.73C380.25 37.16 377.94 38.84 374.79 39.33C372.9 39.61 371.08 39.89 369.19 40.1C369.05 39.05 368.98 38 368.98 36.95C368.98 34.08 370.03 26.31 374.09 26.31C377.66 26.31 380.25 30.51 380.25 33.73ZM408.249 24.63C400.619 24.63 391.449 28.41 391.449 37.3C391.449 42.2 394.179 45.56 397.959 47.59C396.839 49.41 393.199 55.29 393.199 56.13C393.199 65.09 416.299 59.56 416.299 68.17C416.299 72.16 411.399 73.42 408.179 73.42C405.589 73.42 399.919 72.16 399.919 68.73C399.919 68.03 400.269 67.4 400.759 66.91C399.989 64.46 398.169 62.29 395.439 62.29C392.849 62.29 390.889 63.97 390.889 66.63C390.889 73.7 402.369 75.1 407.409 75.1C414.129 75.1 426.659 73.7 426.659 64.6C426.659 49.06 398.449 56.13 398.449 50.04C398.449 49.34 398.659 48.71 399.149 48.22C401.949 49.48 405.239 50.04 408.249 50.04C416.019 50.04 424.909 46.26 424.909 37.3C424.909 29.95 418.679 26.1 412.239 24.98C413.499 23.72 415.109 22.81 416.929 22.81C418.329 22.81 419.659 23.51 420.149 24.91C420.499 24.98 420.989 25.05 421.339 25.05C424.349 25.05 427.079 23.23 427.079 20.01C427.079 17.21 424.839 15.46 422.109 15.46C417.139 15.46 413.219 20.57 410.839 24.77C409.999 24.7 409.089 24.63 408.249 24.63ZM410.489 48.15C404.189 48.15 401.109 38.28 401.109 33.24C401.109 30.51 401.879 26.66 405.309 26.66C411.889 26.66 415.179 35.62 415.179 41.08C415.179 44.09 414.199 48.15 410.489 48.15ZM441.591 32.89V25.19C435.921 28.48 433.961 29.32 427.451 30.37C429.901 33.31 431.371 35.55 431.371 39.54V49.48C431.371 52.63 430.811 57.25 427.801 59H445.091C442.011 57.25 441.591 52.7 441.591 49.48V36.74C441.591 34.71 443.691 32.96 445.581 32.96C448.031 32.96 449.851 34.85 449.851 37.23C449.851 37.86 449.711 38.42 449.571 38.98C454.191 38.98 457.971 35.97 457.971 31.21C457.971 27.57 455.591 24.63 451.811 24.63C447.051 24.63 443.411 28.9 441.591 32.89ZM463.011 25.26C466.861 25.19 465.951 34.78 465.951 37.09C461.471 41.99 448.661 44.93 448.661 52.21C448.661 57.46 452.161 59.7 457.061 59.7C461.121 59.7 464.131 58.37 466.301 55.92C467.281 58.3 470.221 59.7 472.741 59.7C475.891 59.7 477.361 58.58 479.741 56.83V56.13C479.321 56.41 478.831 56.55 478.341 56.55C476.381 56.55 476.171 53.54 476.171 52.21V36.11C476.171 28.62 470.571 24.63 463.501 24.63L463.011 25.26ZM465.951 54.38C465.251 54.8 464.341 55.08 463.221 55.08C459.651 55.08 458.951 52 458.951 49.06C458.951 45 463.291 41.99 465.951 39.54V54.17C465.951 54.24 465.951 54.31 465.951 54.38ZM494.088 16.44H493.038C490.728 22.81 487.018 25.19 480.438 25.82V26.87H483.868V50.25C483.868 55.36 486.178 59.7 491.778 59.7C495.628 59.7 499.548 57.81 502.348 55.22V54.52C501.228 55.15 499.898 55.43 498.638 55.43C496.258 55.43 494.088 54.38 494.088 51.65V26.87H501.368V25.19H494.088V16.44ZM531.202 41.01V39.33C531.202 30.3 525.392 24.63 516.362 24.63C506.422 24.63 500.472 33.1 500.472 42.41C500.472 52.07 507.472 59.7 517.272 59.7C524.202 59.7 528.122 56.69 531.342 50.88L530.782 50.46C529.312 51.93 524.972 52.42 523.012 52.42C516.222 52.42 512.442 47.66 511.112 41.85L531.202 41.01ZM521.822 33.73C521.822 37.16 519.512 38.84 516.362 39.33C514.472 39.61 512.652 39.89 510.762 40.1C510.622 39.05 510.552 38 510.552 36.95C510.552 34.08 511.602 26.31 515.662 26.31C519.232 26.31 521.822 30.51 521.822 33.73ZM16.24 139H22.19C24.92 132.21 27.65 125.42 30.24 118.63C32.97 125.42 35.63 132.21 38.36 139H44.31L50.61 123.25C52.36 118.91 56.28 107.08 60.55 105.19H48.51C46.69 103.79 45.64 101.55 45.64 99.24C45.64 93.22 51.17 89.93 56.63 89.93C60.13 89.93 64.54 90.49 66.92 93.36C64.12 93.36 61.81 95.67 61.81 98.47C61.81 101.27 64.12 103.58 66.92 103.58C69.72 103.58 72.03 101.27 72.03 98.47C72.03 90.77 62.86 88.25 56.63 88.25C50.33 88.25 41.16 91.33 41.16 99.03C41.16 107.01 50.33 104.14 50.33 114.36C50.33 120.1 47.53 126.33 45.43 131.58C43.61 127.24 38.01 114.64 38.01 110.65C38.01 108.27 39.13 105.96 41.44 105.19H22.12C24.78 106.38 27.09 111.28 28.28 113.8V114.36C28.28 120.03 25.41 126.33 23.31 131.58C21.49 127.24 15.89 114.64 15.89 110.65C15.89 108.27 17.01 105.96 19.32 105.19H0C4.27 107.08 8.12 118.77 9.87 123.11L16.24 139ZM58.52 110.37C60.97 113.31 62.44 115.55 62.44 119.54V129.48C62.44 132.63 61.88 137.25 58.87 139H76.16C73.01 137.25 72.66 132.7 72.66 129.48V105.19C66.99 108.48 65.03 109.32 58.52 110.37ZM90.1523 96.44H89.1023C86.7923 102.81 83.0823 105.19 76.5023 105.82V106.87H79.9323V130.25C79.9323 135.36 82.2423 139.7 87.8423 139.7C91.6923 139.7 95.6123 137.81 98.4123 135.22V134.52C97.2923 135.15 95.9623 135.43 94.7023 135.43C92.3223 135.43 90.1523 134.38 90.1523 131.65V106.87H97.4323V105.19H90.1523V96.44ZM101.332 129.48C101.332 132.63 100.772 137.25 97.7621 139H115.052C111.902 137.25 111.552 132.7 111.552 129.48V116.04C111.552 113.17 113.372 109.81 116.592 109.81C120.022 109.81 121.002 113.17 121.002 116.04V129.48C121.002 132.63 120.512 137.25 117.502 139H134.792C131.712 137.25 131.222 132.7 131.222 129.48V115.76C131.222 109.95 128.142 104.63 121.842 104.63C121.002 104.63 112.182 109.88 111.552 110.79V89.37C107.002 91.96 102.592 93.71 97.4121 94.55C99.8621 97.49 101.332 99.73 101.332 103.72V129.48Z" fill="white"/>
<path d="M187.115 97.14C187.115 88.81 175.985 85.24 169.195 85.24C160.305 85.24 151.345 90.28 151.345 100.08C151.345 116.95 177.875 114.99 177.875 128.85C177.875 134.87 173.045 138.02 167.445 138.02C163.315 138.02 159.465 135.78 159.465 131.23C159.465 128.85 160.865 126.05 163.595 126.05C163.105 122.06 160.515 118 156.035 118C151.765 118 149.595 121.85 149.595 125.77C149.595 135.78 160.725 139.7 169.125 139.7C178.085 139.7 188.445 135.22 188.445 124.86C188.445 107.71 159.745 108.76 159.745 96.58C159.745 91.12 163.245 86.92 168.845 86.92C172.415 86.92 177.175 88.46 177.175 92.8C177.175 94.62 176.195 96.58 174.095 96.58C174.515 100.36 177.035 103.65 181.095 103.65C184.805 103.65 187.115 100.71 187.115 97.14ZM192.729 145.02C192.729 148.24 192.239 152.72 189.159 154.54H206.449C203.369 152.72 202.949 148.24 202.949 145.02V138.44C205.049 139.21 206.729 139.63 209.879 139.63C220.029 139.63 225.839 130.88 225.839 121.43C225.839 112.4 220.519 104.42 210.789 104.42C208.479 104.42 205.329 107.5 202.949 110.23V105.19C197.279 108.41 195.319 109.25 188.809 110.3C191.259 113.24 192.729 115.48 192.729 119.47V145.02ZM202.949 111.07C203.369 110.79 203.859 110.58 204.209 110.58C212.469 110.58 216.179 118.7 216.179 125.91C216.179 130.53 214.359 137.88 208.549 137.88C203.859 137.88 202.949 132.42 202.949 128.78V111.07ZM258.046 136.13C257.626 136.41 257.136 136.55 256.646 136.55C254.686 136.55 254.476 133.54 254.476 132.21V116.11C254.476 108.62 248.946 104.63 241.806 104.63C235.926 104.63 228.226 107.36 228.226 114.36C228.226 117.09 229.836 119.68 232.776 119.68C236.696 119.68 239.216 116.53 240.266 113.1C238.656 113.1 237.536 112.26 237.536 110.58C237.536 108.76 238.936 106.31 240.966 106.31C244.606 106.31 244.256 112.47 244.256 114.85V117.09C239.776 121.99 226.966 124.93 226.966 132.21C226.966 137.46 230.466 139.7 235.366 139.7C239.356 139.7 242.436 138.3 244.606 135.85C245.586 138.23 248.526 139.7 251.046 139.7C254.196 139.7 255.666 138.58 258.046 136.83V136.13ZM244.256 134.38C243.556 134.8 242.646 135.08 241.526 135.08C237.956 135.08 237.256 132 237.256 129.06C237.256 125 241.596 121.99 244.256 119.54V134.38ZM269.717 139C270.837 139 272.797 139.35 272.797 140.82C272.797 144.18 267.267 146.07 264.607 146.07C261.527 146.07 259.007 144.53 259.007 141.17C255.997 141.17 254.457 145.16 254.457 147.68C254.457 152.3 258.097 154.33 262.367 154.33C270.347 154.33 273.217 145.09 275.667 139L281.967 123.25C283.717 118.84 287.637 107.08 291.907 105.19H275.667C279.867 106.73 281.757 109.95 281.757 114.36C281.757 120.03 278.887 126.33 276.787 131.58C274.967 127.24 269.367 114.64 269.367 110.65C269.367 108.27 270.487 105.96 272.797 105.19H253.477C257.747 107.08 261.597 118.77 263.347 123.11L269.717 139ZM306.382 116.11C307.572 120.03 309.882 122.62 314.152 122.62C317.932 122.62 320.102 120.17 320.102 116.53C320.102 108.83 312.402 104.63 305.542 104.63C295.602 104.63 289.652 113.1 289.652 122.41C289.652 132.07 296.652 139.7 306.452 139.7C313.102 139.7 318.142 136.69 321.362 130.88L320.802 130.46C319.332 131.93 314.992 132.42 313.032 132.42C304.072 132.42 300.082 124.16 300.082 116.25C300.082 113.52 300.922 106.31 304.842 106.31C307.992 106.31 311.072 109.39 311.072 112.54C311.072 115.2 308.692 116.11 306.382 116.11ZM352.647 121.01V119.33C352.647 110.3 346.837 104.63 337.807 104.63C327.867 104.63 321.917 113.1 321.917 122.41C321.917 132.07 328.917 139.7 338.717 139.7C345.647 139.7 349.567 136.69 352.787 130.88L352.227 130.46C350.757 131.93 346.417 132.42 344.457 132.42C337.667 132.42 333.887 127.66 332.557 121.85L352.647 121.01ZM343.267 113.73C343.267 117.16 340.957 118.84 337.807 119.33C335.917 119.61 334.097 119.89 332.207 120.1C332.067 119.05 331.997 118 331.997 116.95C331.997 114.08 333.047 106.31 337.107 106.31C340.677 106.31 343.267 110.51 343.267 113.73ZM386.666 111.84C385.546 107.78 382.606 104.63 377.776 104.63C377.006 104.63 368.886 109.39 367.626 110.65V105.19C361.956 108.48 359.996 109.32 353.486 110.37C355.936 113.31 357.406 115.55 357.406 119.54V129.48C357.406 132.63 356.846 137.25 353.836 139H371.126C367.976 137.25 367.626 132.7 367.626 129.48V114.78C368.116 112.19 369.656 109.81 372.526 109.81C375.956 109.81 376.936 113.17 376.936 116.04V129.48C376.936 132.63 376.446 137.25 373.436 139H390.726C387.646 137.25 387.156 132.7 387.156 129.48V116.04C387.296 113.1 388.836 109.81 392.196 109.81C395.626 109.81 396.606 113.17 396.606 116.04V129.48C396.606 132.63 396.116 137.25 393.106 139H410.396C407.316 137.25 406.826 132.7 406.826 129.48V115.76C406.826 109.95 403.746 104.63 397.446 104.63C396.606 104.63 387.226 110.37 386.596 111.35L386.666 111.84ZM426.27 104.44C416.415 104.44 411.105 112.855 411.105 121.945C411.105 131.035 416.415 139.45 426.27 139.45C429.465 139.45 432.12 138.46 434.235 136.795C436.35 138.46 438.96 139.45 442.155 139.45C452.01 139.45 457.365 131.035 457.365 121.945C457.365 112.855 452.01 104.44 442.155 104.44C438.96 104.44 436.35 105.43 434.235 107.095C432.12 105.43 429.465 104.44 426.27 104.44ZM426.27 138.37C419.25 138.37 417.675 127.165 417.675 121.99C417.675 116.905 419.295 105.52 426.27 105.52C428.97 105.52 430.95 106.87 432.39 108.85C429.42 112.27 428.025 117.175 428.025 121.945C428.025 126.715 429.465 131.62 432.39 135.04C430.95 137.02 428.97 138.37 426.27 138.37ZM442.155 138.37C439.455 138.37 437.475 137.02 436.035 135.04C439.005 131.62 440.445 126.76 440.445 121.945C440.445 117.175 439.005 112.27 436.08 108.85C437.52 106.87 439.5 105.52 442.155 105.52C449.175 105.52 450.75 116.77 450.75 121.9C450.75 126.985 449.13 138.37 442.155 138.37ZM434.19 131.575C432.975 128.38 432.57 124.69 432.57 121.99C432.57 119.335 433.02 115.6 434.235 112.36C435.45 115.555 435.9 119.245 435.9 121.9C435.9 124.6 435.45 128.335 434.19 131.575ZM475.662 139C472.512 137.25 472.162 132.7 472.162 129.48V114.78C472.652 112.19 474.192 109.81 477.062 109.81C480.492 109.81 481.472 113.17 481.472 116.04V129.48C481.472 132.63 480.982 137.25 477.972 139H495.262C492.182 137.25 491.692 132.7 491.692 129.48V115.76C491.692 109.95 488.612 104.63 482.312 104.63C481.542 104.63 473.422 109.39 472.162 110.65V105.19C466.492 108.48 464.532 109.32 458.022 110.37C460.472 113.31 461.942 115.55 461.942 119.54V129.48C461.942 132.63 461.382 137.25 458.372 139H475.662Z" fill="#2563EB"/>
<path d="M475.559 118.581C477.737 108.938 482.392 100.031 489.064 92.7376C489.183 92.6085 489.327 92.5055 489.488 92.435C489.648 92.3645 489.822 92.3281 489.997 92.3281C490.172 92.3281 490.346 92.3645 490.506 92.435C490.667 92.5055 490.811 92.6085 490.93 92.7376C497.602 100.03 502.258 108.936 504.437 118.578C501.002 119.301 497.517 119.765 494.012 119.963L490.706 126.577C490.641 126.708 490.539 126.818 490.414 126.896C490.289 126.973 490.145 127.014 489.999 127.014C489.852 127.014 489.708 126.973 489.583 126.896C489.458 126.818 489.357 126.708 489.291 126.577L485.983 119.963C482.478 119.764 478.994 119.301 475.559 118.578V118.581ZM489.999 113.744C491.258 113.744 492.467 113.243 493.357 112.352C494.248 111.462 494.749 110.253 494.749 108.994C494.749 107.734 494.248 106.526 493.357 105.635C492.467 104.744 491.258 104.244 489.999 104.244C488.739 104.244 487.531 104.744 486.64 105.635C485.749 106.526 485.249 107.734 485.249 108.994C485.249 110.253 485.749 111.462 486.64 112.352C487.531 113.243 488.739 113.744 489.999 113.744Z" fill="url(#paint0_linear_4162_31926)"/>
<g clip-path="url(#clip1_4162_31926)">
<mask id="mask0_4162_31926" style="mask-type:luminance" maskUnits="userSpaceOnUse" x="472" y="98" width="30" height="17">
<path d="M502 98H472V114.875H502V98Z" fill="white"/>
</mask>
<g mask="url(#mask0_4162_31926)">
<mask id="mask1_4162_31926" style="mask-type:luminance" maskUnits="userSpaceOnUse" x="499" y="101" width="2" height="2">
<path d="M499.062 101.312H500.438V102.688H499.062V101.312Z" fill="white"/>
</mask>
<g mask="url(#mask1_4162_31926)">
<path d="M499.752 101.406C500.078 101.406 500.343 101.671 500.343 101.998C500.343 102.324 500.078 102.589 499.752 102.589C499.425 102.589 499.16 102.324 499.16 101.998C499.16 101.671 499.425 101.406 499.752 101.406Z" stroke="white" stroke-width="0.00271257"/>
</g>
<mask id="mask2_4162_31926" style="mask-type:luminance" maskUnits="userSpaceOnUse" x="482" y="110" width="2" height="2">
<path d="M482.375 110.562H483.75V111.938H482.375V110.562Z" fill="white"/>
</mask>
<g mask="url(#mask2_4162_31926)">
<path d="M483.062 111.094C483.149 111.094 483.219 111.164 483.219 111.25C483.219 111.336 483.149 111.406 483.062 111.406C482.976 111.406 482.906 111.336 482.906 111.25C482.906 111.164 482.976 111.094 483.062 111.094Z" fill="white"/>
<path d="M483.173 111.134C483.234 111.195 483.234 111.294 483.173 111.355C483.112 111.416 483.013 111.416 482.952 111.355C482.891 111.294 482.891 111.195 482.952 111.134C483.013 111.073 483.112 111.073 483.173 111.134Z" fill="white"/>
<path d="M483.219 111.25C483.219 111.336 483.149 111.406 483.062 111.406C482.976 111.406 482.906 111.336 482.906 111.25C482.906 111.164 482.976 111.094 483.062 111.094C483.149 111.094 483.219 111.164 483.219 111.25Z" fill="white"/>
<path d="M483.171 111.36C483.11 111.421 483.011 111.421 482.95 111.36C482.889 111.3 482.889 111.2 482.95 111.14C483.011 111.079 483.11 111.079 483.171 111.14C483.232 111.2 483.232 111.3 483.171 111.36Z" fill="white"/>
<path d="M483.062 111.406C482.976 111.406 482.906 111.336 482.906 111.25C482.906 111.164 482.976 111.094 483.062 111.094C483.149 111.094 483.219 111.164 483.219 111.25C483.219 111.336 483.149 111.406 483.062 111.406Z" fill="white"/>
<path d="M482.952 111.358C482.891 111.297 482.891 111.198 482.952 111.137C483.013 111.076 483.112 111.076 483.173 111.137C483.234 111.198 483.234 111.297 483.173 111.358C483.112 111.419 483.013 111.419 482.952 111.358Z" fill="white"/>
<path d="M482.906 111.25C482.906 111.164 482.976 111.094 483.062 111.094C483.149 111.094 483.219 111.164 483.219 111.25C483.219 111.336 483.149 111.406 483.062 111.406C482.976 111.406 482.906 111.336 482.906 111.25Z" fill="white"/>
<path d="M482.95 111.14C483.011 111.079 483.11 111.079 483.171 111.14C483.232 111.2 483.232 111.3 483.171 111.36C483.11 111.421 483.011 111.421 482.95 111.36C482.889 111.3 482.889 111.2 482.95 111.14Z" fill="white"/>
</g>
<mask id="mask3_4162_31926" style="mask-type:luminance" maskUnits="userSpaceOnUse" x="474" y="106" width="2" height="2">
<path d="M474.125 106.312H475.5V107.688H474.125V106.312Z" fill="white"/>
</mask>
<g mask="url(#mask3_4162_31926)">
<path d="M474.812 106.844C474.898 106.844 474.968 106.914 474.968 106.999C474.968 107.085 474.898 107.155 474.812 107.155C474.726 107.155 474.656 107.085 474.656 106.999C474.656 106.914 474.726 106.844 474.812 106.844Z" fill="white"/>
<path d="M474.923 106.891C474.983 106.952 474.983 107.051 474.923 107.112C474.862 107.172 474.763 107.172 474.702 107.112C474.642 107.051 474.642 106.952 474.702 106.891C474.763 106.831 474.862 106.831 474.923 106.891Z" fill="white"/>
<path d="M474.969 106.999C474.969 107.085 474.899 107.155 474.813 107.155C474.727 107.155 474.657 107.085 474.657 106.999C474.657 106.914 474.727 106.844 474.813 106.844C474.899 106.844 474.969 106.914 474.969 106.999Z" fill="white"/>
<path d="M474.925 107.118C474.864 107.179 474.766 107.179 474.705 107.118C474.644 107.057 474.644 106.958 474.705 106.898C474.766 106.837 474.864 106.837 474.925 106.898C474.986 106.958 474.986 107.057 474.925 107.118Z" fill="white"/>
<path d="M474.813 107.164C474.727 107.164 474.657 107.094 474.657 107.008C474.657 106.922 474.727 106.853 474.813 106.853C474.899 106.853 474.969 106.922 474.969 107.008C474.969 107.094 474.899 107.164 474.813 107.164Z" fill="white"/>
<path d="M474.698 107.116C474.638 107.056 474.638 106.957 474.698 106.896C474.759 106.835 474.858 106.835 474.919 106.896C474.979 106.957 474.979 107.056 474.919 107.116C474.858 107.177 474.759 107.177 474.698 107.116Z" fill="white"/>
<path d="M474.652 107.001C474.652 106.915 474.722 106.845 474.808 106.845C474.894 106.845 474.964 106.915 474.964 107.001C474.964 107.086 474.894 107.156 474.808 107.156C474.722 107.156 474.652 107.086 474.652 107.001Z" fill="white"/>
<path d="M474.7 106.89C474.761 106.829 474.859 106.829 474.92 106.89C474.981 106.951 474.981 107.049 474.92 107.11C474.859 107.171 474.761 107.171 474.7 107.11C474.639 107.049 474.639 106.951 474.7 106.89Z" fill="white"/>
</g>
<mask id="mask4_4162_31926" style="mask-type:luminance" maskUnits="userSpaceOnUse" x="491" y="109" width="2" height="3">
<path d="M491.5 109.812H492.875V111.188H491.5V109.812Z" fill="white"/>
</mask>
<g mask="url(#mask4_4162_31926)">
<path d="M492.188 110.344C492.274 110.344 492.344 110.414 492.344 110.5C492.344 110.586 492.274 110.656 492.188 110.656C492.101 110.656 492.031 110.586 492.031 110.5C492.031 110.414 492.101 110.344 492.188 110.344Z" fill="white"/>
<path d="M492.298 110.392C492.359 110.453 492.359 110.552 492.298 110.613C492.237 110.674 492.138 110.674 492.077 110.613C492.016 110.552 492.016 110.453 492.077 110.392C492.138 110.331 492.237 110.331 492.298 110.392Z" fill="white"/>
<path d="M492.344 110.5C492.344 110.586 492.274 110.656 492.188 110.656C492.101 110.656 492.031 110.586 492.031 110.5C492.031 110.414 492.101 110.344 492.188 110.344C492.274 110.344 492.344 110.414 492.344 110.5Z" fill="white"/>
<path d="M492.296 110.61C492.235 110.671 492.136 110.671 492.075 110.61C492.014 110.55 492.014 110.45 492.075 110.39C492.136 110.329 492.235 110.329 492.296 110.39C492.357 110.45 492.357 110.55 492.296 110.61Z" fill="white"/>
<path d="M492.188 110.656C492.101 110.656 492.031 110.586 492.031 110.5C492.031 110.414 492.101 110.344 492.188 110.344C492.274 110.344 492.344 110.414 492.344 110.5C492.344 110.586 492.274 110.656 492.188 110.656Z" fill="white"/>
<path d="M492.077 110.616C492.016 110.555 492.016 110.456 492.077 110.395C492.138 110.334 492.237 110.334 492.298 110.395C492.359 110.456 492.359 110.555 492.298 110.616C492.237 110.677 492.138 110.677 492.077 110.616Z" fill="white"/>
<path d="M492.031 110.5C492.031 110.414 492.101 110.344 492.188 110.344C492.274 110.344 492.344 110.414 492.344 110.5C492.344 110.586 492.274 110.656 492.188 110.656C492.101 110.656 492.031 110.586 492.031 110.5Z" fill="white"/>
<path d="M492.075 110.39C492.136 110.329 492.235 110.329 492.296 110.39C492.357 110.45 492.357 110.55 492.296 110.61C492.235 110.671 492.136 110.671 492.075 110.61C492.014 110.55 492.014 110.45 492.075 110.39Z" fill="white"/>
</g>
<mask id="mask5_4162_31926" style="mask-type:luminance" maskUnits="userSpaceOnUse" x="491" y="102" width="7" height="7">
<path d="M497.371 102.297L497.886 108.181L492.002 108.695L491.487 102.812L497.371 102.297Z" fill="white"/>
</mask>
<g mask="url(#mask5_4162_31926)">
<g opacity="0.0773827">
<path d="M495.975 103.956C495.979 103.997 495.949 104.033 495.908 104.036C495.867 104.04 495.832 104.01 495.828 103.969C495.824 103.929 495.855 103.893 495.895 103.889C495.936 103.886 495.972 103.916 495.975 103.956Z" fill="white"/>
</g>
<g opacity="0.0773827">
<path d="M493.221 104.199C493.225 104.239 493.195 104.275 493.154 104.279C493.114 104.282 493.078 104.252 493.074 104.211C493.071 104.171 493.101 104.135 493.141 104.131C493.182 104.128 493.218 104.158 493.221 104.199Z" fill="white"/>
</g>
<g opacity="0.0773827">
<path d="M493.467 107.027C493.471 107.067 493.441 107.103 493.4 107.107C493.36 107.11 493.324 107.08 493.32 107.04C493.317 106.999 493.347 106.963 493.387 106.96C493.428 106.956 493.464 106.986 493.467 107.027Z" fill="white"/>
</g>
<g opacity="0.0773827">
<path d="M496.296 106.777C496.299 106.817 496.269 106.853 496.228 106.857C496.188 106.86 496.152 106.83 496.148 106.79C496.145 106.749 496.175 106.713 496.215 106.71C496.256 106.706 496.292 106.736 496.296 106.777Z" fill="white"/>
</g>
<g opacity="0.0773827">
<path d="M496.549 105.331C496.553 105.372 496.523 105.408 496.482 105.411C496.442 105.415 496.406 105.385 496.402 105.344C496.399 105.304 496.429 105.268 496.469 105.264C496.51 105.261 496.546 105.291 496.549 105.331Z" fill="white"/>
</g>
<g opacity="0.0773827">
<path d="M492.967 105.644C492.971 105.685 492.941 105.72 492.9 105.724C492.86 105.727 492.824 105.697 492.82 105.657C492.817 105.616 492.847 105.58 492.887 105.577C492.928 105.573 492.964 105.603 492.967 105.644Z" fill="white"/>
</g>
<g opacity="0.0773827">
<path d="M494.917 107.285C494.92 107.325 494.89 107.361 494.849 107.365C494.809 107.368 494.773 107.338 494.769 107.297C494.766 107.257 494.796 107.221 494.837 107.217C494.877 107.214 494.913 107.244 494.917 107.285Z" fill="white"/>
</g>
<g opacity="0.0773827">
<path d="M494.604 103.699C494.608 103.739 494.578 103.775 494.537 103.779C494.496 103.782 494.46 103.752 494.457 103.711C494.453 103.671 494.483 103.635 494.524 103.631C494.565 103.628 494.601 103.658 494.604 103.699Z" fill="white"/>
</g>
<path d="M495.813 105.395L495.193 105.771L495.152 106.496L494.602 106.022L493.9 106.207L494.18 105.537L493.788 104.927L494.511 104.987L494.971 104.425L495.137 105.131L495.813 105.395Z" fill="white"/>
</g>
<mask id="mask6_4162_31926" style="mask-type:luminance" maskUnits="userSpaceOnUse" x="474" y="101" width="7" height="7">
<path d="M478.258 101.102L480.958 104.818L477.242 107.518L474.541 103.802L478.258 101.102Z" fill="white"/>
</mask>
<g mask="url(#mask6_4162_31926)">
<g opacity="0.312677">
<path d="M477.967 102.961C477.986 102.986 477.98 103.022 477.955 103.041C477.929 103.059 477.893 103.054 477.874 103.028C477.856 103.002 477.861 102.966 477.887 102.948C477.913 102.929 477.949 102.935 477.967 102.961Z" fill="white"/>
</g>
<g opacity="0.312677">
<path d="M476.44 104.07C476.459 104.096 476.453 104.132 476.427 104.15C476.402 104.169 476.366 104.163 476.347 104.137C476.328 104.112 476.334 104.076 476.36 104.057C476.385 104.039 476.421 104.044 476.44 104.07Z" fill="white"/>
</g>
<g opacity="0.312677">
<path d="M477.581 105.632C477.599 105.658 477.594 105.694 477.568 105.713C477.542 105.731 477.506 105.726 477.488 105.7C477.469 105.674 477.475 105.638 477.5 105.62C477.526 105.601 477.562 105.607 477.581 105.632Z" fill="white"/>
</g>
<g opacity="0.312677">
<path d="M479.147 104.5C479.166 104.525 479.16 104.561 479.134 104.58C479.109 104.599 479.073 104.593 479.054 104.567C479.035 104.542 479.041 104.506 479.067 104.487C479.092 104.468 479.128 104.474 479.147 104.5Z" fill="white"/>
</g>
<g opacity="0.312677">
<path d="M478.788 103.562C478.806 103.588 478.801 103.624 478.775 103.642C478.749 103.661 478.713 103.655 478.695 103.63C478.676 103.604 478.682 103.568 478.707 103.549C478.733 103.531 478.769 103.536 478.788 103.562Z" fill="white"/>
</g>
<g opacity="0.312677">
<path d="M476.799 105C476.818 105.025 476.812 105.061 476.787 105.08C476.761 105.099 476.725 105.093 476.706 105.067C476.688 105.042 476.693 105.006 476.719 104.987C476.745 104.968 476.781 104.974 476.799 105Z" fill="white"/>
</g>
<g opacity="0.312677">
<path d="M478.514 105.273C478.533 105.299 478.527 105.335 478.502 105.353C478.476 105.372 478.44 105.366 478.421 105.341C478.403 105.315 478.408 105.279 478.434 105.26C478.46 105.242 478.496 105.247 478.514 105.273Z" fill="white"/>
</g>
<g opacity="0.312677">
<path d="M477.073 103.289C477.091 103.314 477.086 103.35 477.06 103.369C477.034 103.388 476.999 103.382 476.98 103.356C476.961 103.331 476.967 103.295 476.993 103.276C477.018 103.257 477.054 103.263 477.073 103.289Z" fill="white"/>
</g>
<path d="M478.459 103.795L478.197 104.294L478.459 104.794L477.903 104.698L477.509 105.102L477.428 104.544L476.922 104.294L477.428 104.044L477.509 103.486L477.903 103.89L478.459 103.795Z" fill="white"/>
</g>
<mask id="mask7_4162_31926" style="mask-type:luminance" maskUnits="userSpaceOnUse" x="490" y="108" width="10" height="10">
<path d="M493.445 108.539L499.021 111.63L495.93 117.205L490.355 114.115L493.445 108.539Z" fill="white"/>
</mask>
<g mask="url(#mask7_4162_31926)">
<g opacity="0.0773827">
<path d="M494.089 110.796C494.128 110.818 494.142 110.866 494.12 110.905C494.099 110.943 494.05 110.957 494.012 110.936C493.973 110.915 493.96 110.866 493.981 110.828C494.002 110.789 494.051 110.775 494.089 110.796Z" fill="white"/>
</g>
<g opacity="0.0773827">
<path d="M492.644 113.398C492.682 113.419 492.696 113.468 492.675 113.506C492.654 113.545 492.605 113.559 492.567 113.538C492.528 113.516 492.514 113.468 492.536 113.429C492.557 113.391 492.605 113.377 492.644 113.398Z" fill="white"/>
</g>
<g opacity="0.0773827">
<path d="M495.324 114.882C495.362 114.904 495.376 114.952 495.355 114.991C495.333 115.029 495.285 115.043 495.246 115.022C495.208 115.001 495.194 114.952 495.215 114.913C495.237 114.875 495.285 114.861 495.324 114.882Z" fill="white"/>
</g>
<g opacity="0.0773827">
<path d="M496.808 112.203C496.847 112.224 496.86 112.273 496.839 112.311C496.818 112.35 496.769 112.364 496.731 112.342C496.692 112.321 496.678 112.272 496.7 112.234C496.721 112.195 496.77 112.181 496.808 112.203Z" fill="white"/>
</g>
<g opacity="0.0773827">
<path d="M495.667 111.109C495.706 111.13 495.72 111.179 495.698 111.217C495.677 111.256 495.629 111.27 495.59 111.248C495.552 111.227 495.538 111.179 495.559 111.14C495.58 111.102 495.629 111.088 495.667 111.109Z" fill="white"/>
</g>
<g opacity="0.0773827">
<path d="M493.785 114.5C493.823 114.521 493.837 114.57 493.816 114.608C493.794 114.646 493.746 114.66 493.707 114.639C493.669 114.618 493.655 114.569 493.676 114.531C493.698 114.492 493.746 114.478 493.785 114.5Z" fill="white"/>
</g>
<g opacity="0.0773827">
<path d="M496.425 113.742C496.464 113.763 496.478 113.812 496.456 113.85C496.435 113.889 496.386 113.903 496.348 113.881C496.309 113.86 496.295 113.811 496.317 113.773C496.338 113.734 496.387 113.72 496.425 113.742Z" fill="white"/>
</g>
<g opacity="0.0773827">
<path d="M493.027 111.859C493.065 111.88 493.079 111.929 493.058 111.967C493.037 112.006 492.988 112.02 492.949 111.998C492.911 111.977 492.897 111.929 492.918 111.89C492.94 111.852 492.988 111.838 493.027 111.859Z" fill="white"/>
</g>
<path d="M495.282 111.802L495.244 112.584L495.868 113.058L495.112 113.264L494.854 114.004L494.424 113.349L493.641 113.332L494.131 112.721L493.906 111.971L494.638 112.248L495.282 111.802Z" fill="white"/>
</g>
<mask id="mask8_4162_31926" style="mask-type:luminance" maskUnits="userSpaceOnUse" x="479" y="101" width="8" height="7">
<path d="M479.906 101.5H486.281V107.875H479.906V101.5Z" fill="white"/>
</mask>
<g mask="url(#mask8_4162_31926)">
<g opacity="0.510853">
<path d="M482.685 104.266C482.708 104.266 482.726 104.284 482.726 104.306C482.726 104.329 482.708 104.347 482.685 104.347C482.663 104.347 482.645 104.329 482.645 104.306C482.645 104.284 482.663 104.266 482.685 104.266Z" fill="white"/>
</g>
<g opacity="0.510853">
<path d="M482.685 105.062C482.708 105.062 482.726 105.081 482.726 105.103C482.726 105.126 482.708 105.144 482.685 105.144C482.663 105.144 482.645 105.126 482.645 105.103C482.645 105.081 482.663 105.062 482.685 105.062Z" fill="white"/>
</g>
<g opacity="0.510853">
<path d="M483.502 105.062C483.524 105.062 483.542 105.081 483.542 105.103C483.542 105.126 483.524 105.144 483.502 105.144C483.479 105.144 483.461 105.126 483.461 105.103C483.461 105.081 483.479 105.062 483.502 105.062Z" fill="white"/>
</g>
<g opacity="0.510853">
<path d="M483.502 104.25C483.524 104.25 483.542 104.268 483.542 104.291C483.542 104.313 483.524 104.331 483.502 104.331C483.479 104.331 483.461 104.313 483.461 104.291C483.461 104.268 483.479 104.25 483.502 104.25Z" fill="white"/>
</g>
<g opacity="0.510853">
<path d="M483.092 104.141C483.114 104.141 483.132 104.159 483.132 104.181C483.132 104.204 483.114 104.222 483.092 104.222C483.069 104.222 483.051 104.204 483.051 104.181C483.051 104.159 483.069 104.141 483.092 104.141Z" fill="white"/>
</g>
<g opacity="0.510853">
<path d="M483.092 105.172C483.114 105.172 483.132 105.19 483.132 105.213C483.132 105.235 483.114 105.253 483.092 105.253C483.069 105.253 483.051 105.235 483.051 105.213C483.051 105.19 483.069 105.172 483.092 105.172Z" fill="white"/>
</g>
<g opacity="0.510853">
<path d="M483.607 104.656C483.63 104.656 483.648 104.675 483.648 104.697C483.648 104.719 483.63 104.738 483.607 104.738C483.585 104.738 483.566 104.719 483.566 104.697C483.566 104.675 483.585 104.656 483.607 104.656Z" fill="white"/>
</g>
<g opacity="0.510853">
<path d="M482.576 104.656C482.598 104.656 482.617 104.675 482.617 104.697C482.617 104.719 482.598 104.738 482.576 104.738C482.553 104.738 482.535 104.719 482.535 104.697C482.535 104.675 482.553 104.656 482.576 104.656Z" fill="white"/>
</g>
<path d="M483.092 103.469L483.439 104.172L484.216 104.285L483.654 104.833L483.787 105.606L483.092 105.241L482.398 105.606L482.53 104.833L481.969 104.285L482.745 104.172L483.092 103.469Z" fill="white"/>
</g>
<mask id="mask9_4162_31926" style="mask-type:luminance" maskUnits="userSpaceOnUse" x="497" y="106" width="3" height="2">
<path d="M497.828 106.016H499.047V107.234H497.828V106.016Z" fill="white"/>
</mask>
<g mask="url(#mask9_4162_31926)">
<path d="M498.317 106.584C498.341 106.535 498.397 106.509 498.452 106.524C498.501 106.537 498.529 106.588 498.516 106.637C498.509 106.661 498.492 106.678 498.471 106.686" stroke="#3B7CEC" stroke-width="0.0110204" stroke-linecap="round"/>
<path d="M498.535 106.548C498.565 106.593 498.56 106.655 498.519 106.694C498.483 106.73 498.425 106.729 498.389 106.693C498.372 106.676 498.366 106.652 498.369 106.63" stroke="#3B7CEC" stroke-width="0.0110204" stroke-linecap="round"/>
<path d="M498.439 106.753C498.385 106.747 498.341 106.703 498.337 106.647C498.333 106.596 498.371 106.552 498.422 106.548C498.446 106.546 498.468 106.556 498.483 106.573" stroke="#3B7CEC" stroke-width="0.0110204" stroke-linecap="round"/>
</g>
<mask id="mask10_4162_31926" style="mask-type:luminance" maskUnits="userSpaceOnUse" x="488" y="101" width="2" height="2">
<path d="M488.703 101.578H489.922V102.797H488.703V101.578Z" fill="white"/>
</mask>
<g mask="url(#mask10_4162_31926)">
<path d="M489.742 102.389C489.725 102.415 489.705 102.439 489.683 102.461" stroke="#3B7CEC" stroke-width="0.0164698" stroke-linecap="round"/>
<path d="M488.919 102.455C488.905 102.428 488.894 102.398 488.886 102.369" stroke="#3B7CEC" stroke-width="0.0164698" stroke-linecap="round"/>
<path d="M489.355 101.712C489.385 101.72 489.415 101.73 489.442 101.744" stroke="#3B7CEC" stroke-width="0.0164698" stroke-linecap="round"/>
<path d="M489.365 101.66L489.491 101.926C489.499 101.945 489.516 101.958 489.536 101.961L489.817 102.003C489.866 102.011 489.886 102.074 489.85 102.11L489.647 102.318C489.633 102.332 489.626 102.353 489.63 102.373L489.678 102.666C489.686 102.717 489.635 102.757 489.591 102.732L489.339 102.594C489.322 102.584 489.301 102.584 489.283 102.594L489.032 102.732C488.988 102.757 488.936 102.717 488.945 102.666L488.993 102.373C488.996 102.353 488.99 102.332 488.976 102.318L488.772 102.11C488.736 102.074 488.756 102.011 488.805 102.003L489.087 101.961C489.106 101.958 489.123 101.945 489.132 101.926L489.257 101.66C489.279 101.613 489.343 101.613 489.365 101.66Z" fill="white"/>
</g>
<mask id="mask11_4162_31926" style="mask-type:luminance" maskUnits="userSpaceOnUse" x="497" y="110" width="3" height="3">
<path d="M497.535 110.719H499.465V112.648H497.535V110.719Z" fill="white"/>
</mask>
<g mask="url(#mask11_4162_31926)">
<path d="M498.38 112.041C498.23 111.97 498.149 111.799 498.195 111.633C498.201 111.61 498.211 111.588 498.222 111.568" stroke="#3B7CEC" stroke-width="0.0232293" stroke-linecap="round"/>
<path d="M498.255 111.404C498.392 111.31 498.58 111.325 498.701 111.448C498.718 111.465 498.732 111.484 498.744 111.505" stroke="#3B7CEC" stroke-width="0.0232293" stroke-linecap="round"/>
<path d="M498.871 111.678C498.855 111.843 498.722 111.978 498.551 111.991C498.527 111.993 498.503 111.992 498.48 111.987" stroke="#3B7CEC" stroke-width="0.0232293" stroke-linecap="round"/>
</g>
<mask id="mask12_4162_31926" style="mask-type:luminance" maskUnits="userSpaceOnUse" x="496" y="99" width="4" height="3">
<path d="M496.719 99.4688H499.156V101.906H496.719V99.4688Z" fill="white"/>
</mask>
<g mask="url(#mask12_4162_31926)">
<path d="M498.896 100.903C498.891 100.917 498.886 100.93 498.88 100.942" stroke="#3B7CEC" stroke-width="0.0259952" stroke-linecap="round"/>
<path d="M497.275 101.409C497.266 101.398 497.257 101.387 497.249 101.376" stroke="#3B7CEC" stroke-width="0.0259952" stroke-linecap="round"/>
<path d="M497.809 99.714C497.823 99.714 497.837 99.7143 497.851 99.7149" stroke="#3B7CEC" stroke-width="0.0259952" stroke-linecap="round"/>
<path d="M498.052 99.5743L498.319 100.14C498.337 100.179 498.373 100.207 498.415 100.213L499.012 100.304C499.117 100.32 499.158 100.454 499.083 100.531L498.651 100.972C498.621 101.002 498.607 101.046 498.614 101.09L498.716 101.711C498.734 101.82 498.625 101.903 498.531 101.852L497.997 101.558C497.96 101.538 497.915 101.538 497.878 101.558L497.344 101.852C497.251 101.903 497.141 101.82 497.159 101.711L497.261 101.09C497.268 101.046 497.255 101.002 497.225 100.972L496.793 100.531C496.717 100.454 496.759 100.319 496.863 100.304L497.46 100.213C497.502 100.207 497.538 100.179 497.556 100.14L497.823 99.5743C497.87 99.4752 498.005 99.4752 498.052 99.5743Z" fill="white"/>
</g>
<mask id="mask13_4162_31926" style="mask-type:luminance" maskUnits="userSpaceOnUse" x="474" y="110" width="3" height="3">
<path d="M474.406 110.156H476.844V112.594H474.406V110.156Z" fill="white"/>
</mask>
<g mask="url(#mask13_4162_31926)">
<path d="M476.017 111.974C475.88 112.035 475.725 112.055 475.57 112.023" stroke="#3B7CEC" stroke-width="0.033645" stroke-linecap="round"/>
<path d="M474.909 111.411C474.925 111.263 474.985 111.119 475.09 111" stroke="#3B7CEC" stroke-width="0.033645" stroke-linecap="round"/>
<path d="M476.051 110.801C476.155 110.908 476.226 111.047 476.25 111.203" stroke="#3B7CEC" stroke-width="0.033645" stroke-linecap="round"/>
</g>
</g>
</g>
</g>
<defs>
<linearGradient id="paint0_linear_4162_31926" x1="489.998" y1="92.3281" x2="489.998" y2="127.014" gradientUnits="userSpaceOnUse">
<stop stop-color="#2563EB"/>
<stop offset="1" stop-color="#2563EB" stop-opacity="0"/>
</linearGradient>
<clipPath id="clip0_4162_31926">
<rect width="556" height="160" fill="white"/>
</clipPath>
<clipPath id="clip1_4162_31926">
<rect width="30" height="16.875" fill="white" transform="translate(472 98)"/>
</clipPath>
</defs>
</svg>
