<svg width="346" height="140" viewBox="0 0 346 140" fill="none" xmlns="http://www.w3.org/2000/svg">
<g clip-path="url(#clip0_3641_32123)">
<rect opacity="0.1" y="36" width="289" height="36" rx="18" fill="url(#paint0_linear_3641_32123)"/>
<path d="M42.71 26.3262C48.95 26.3262 53.89 22.2962 53.89 15.8612C53.89 7.73625 46.675 3.51125 39.265 3.51125H22.3C25.225 5.20125 25.615 9.29625 25.615 12.3512V43.9412C25.615 46.9312 25.16 51.0912 22.3 52.7812H44.4C51.875 52.7812 57.075 45.8912 57.075 38.8062C57.075 30.4212 50.51 26.3262 42.71 26.3262ZM35.105 25.5462V5.07125H36.08C41.8 5.07125 44.855 9.94625 44.855 15.2112C44.855 21.4512 41.41 25.5462 35.105 25.5462ZM35.105 51.2212V27.1062H36.08C43.165 27.1062 47.975 32.3062 47.975 39.2612C47.975 47.1262 42.58 51.2212 35.105 51.2212ZM58.0703 21.3862C60.9303 23.0112 61.3853 27.2362 61.3853 30.2262V42.9662C61.3853 48.3612 64.2453 53.3013 70.0953 53.3013C70.8753 53.3013 79.0653 48.4262 79.6503 47.5812C79.9753 49.3362 80.6253 51.1562 81.0153 52.7812H92.6503C89.9853 49.4662 89.0103 46.8012 89.0103 42.5762V21.3862H76.2703C79.1953 23.0112 79.5203 27.2362 79.5203 30.2262V39.4562C79.5203 41.0162 79.3903 42.7062 79.3903 44.3962C78.8703 46.5412 77.4403 48.4913 74.9703 48.4913C71.7853 48.4913 70.8753 45.3712 70.8753 42.7062V21.3862H58.0703ZM105.777 52.7812C106.817 52.7812 108.637 53.1063 108.637 54.4713C108.637 57.5913 103.502 59.3463 101.032 59.3463C98.1723 59.3463 95.8323 57.9163 95.8323 54.7963C93.0373 54.7963 91.6073 58.5013 91.6073 60.8413C91.6073 65.1313 94.9873 67.0163 98.9523 67.0163C106.362 67.0163 109.027 58.4363 111.302 52.7812L117.152 38.1562C118.777 34.0612 122.417 23.1412 126.382 21.3862H111.302C115.202 22.8162 116.957 25.8062 116.957 29.9012C116.957 35.1662 114.292 41.0162 112.342 45.8912C110.652 41.8612 105.452 30.1612 105.452 26.4562C105.452 24.2462 106.492 22.1012 108.637 21.3862H90.6973C94.6623 23.1412 98.2373 33.9962 99.8623 38.0262L105.777 52.7812ZM155.51 52.7812C152.585 51.1562 152.26 46.9312 152.26 43.9412V30.2912C152.715 27.8862 154.145 25.6762 156.81 25.6762C159.995 25.6762 160.905 28.7962 160.905 31.4612V43.9412C160.905 46.8662 160.45 51.1562 157.655 52.7812H173.71C170.85 51.1562 170.395 46.9312 170.395 43.9412V31.2012C170.395 25.8062 167.535 20.8662 161.685 20.8662C160.97 20.8662 153.43 25.2862 152.26 26.4562V21.3862C146.995 24.4412 145.175 25.2212 139.13 26.1962C141.405 28.9262 142.77 31.0062 142.77 34.7112V43.9412C142.77 46.8662 142.25 51.1562 139.455 52.7812H155.51ZM189.975 20.8662C180.94 20.8662 174.245 28.3412 174.245 37.1812C174.245 46.0862 180.94 53.4313 189.975 53.4313C199.01 53.4313 205.64 46.0212 205.64 37.1812C205.64 28.3412 199.01 20.8662 189.975 20.8662ZM192.055 51.6762C185.555 51.6762 183.345 36.2062 183.345 31.5912C183.345 29.1862 183.67 22.7512 187.245 22.7512C194.2 22.7512 196.41 37.1812 196.41 42.1862C196.41 44.8512 195.955 51.6762 192.055 51.6762ZM243.434 21.3862C247.334 22.8162 249.089 25.8062 249.089 29.9012C249.089 35.1662 246.424 41.0162 244.474 45.8912C242.784 41.8612 237.584 30.1612 237.584 26.4562C237.584 24.2462 238.624 22.1012 240.769 21.3862H222.829C224.909 22.2962 226.924 25.7412 228.549 29.3812C228.549 29.5762 228.549 29.7062 228.549 29.9012C228.549 35.1662 225.884 41.0162 223.934 45.8912C222.244 41.8612 217.044 30.1612 217.044 26.4562C217.044 24.2462 218.084 22.1012 220.229 21.3862H202.289C206.254 23.1412 209.829 33.9962 211.454 38.0262L217.369 52.7812H222.894L228.744 38.1562C229.134 37.1162 229.719 35.5562 230.369 33.8662C231.019 35.4912 231.604 36.9862 231.994 38.0262L237.909 52.7812H243.434L249.284 38.1562C250.909 34.0612 254.549 23.1412 258.514 21.3862H243.434Z" fill="url(#paint1_linear_3641_32123)"/>
<path d="M38.42 122.781C35.56 121.156 35.105 116.931 35.105 113.941V104.061H42.32C51.745 104.061 58.44 98.3412 58.44 88.7212C58.44 79.1662 51.68 73.5112 42.32 73.5112H22.3C25.225 75.2012 25.615 79.2962 25.615 82.3512V113.941C25.615 116.931 25.16 121.156 22.3 122.781H38.42ZM35.105 75.0712H35.17C44.01 75.0712 49.015 80.3362 49.015 89.0462C49.015 97.3012 44.27 102.501 35.82 102.501H35.105V75.0712ZM86.2443 120.116C85.8543 120.376 85.3993 120.506 84.9443 120.506C83.1243 120.506 82.9293 117.711 82.9293 116.476V101.526C82.9293 94.5712 77.7943 90.8662 71.1643 90.8662C65.7043 90.8662 58.5543 93.4012 58.5543 99.9012C58.5543 102.436 60.0493 104.841 62.7793 104.841C66.4193 104.841 68.7593 101.916 69.7343 98.7312C68.2393 98.7312 67.1993 97.9512 67.1993 96.3912C67.1993 94.7012 68.4993 92.4262 70.3843 92.4262C73.7643 92.4262 73.4393 98.1462 73.4393 100.356V102.436C69.2793 106.986 57.3843 109.716 57.3843 116.476C57.3843 121.351 60.6343 123.431 65.1843 123.431C68.8893 123.431 71.7493 122.131 73.7643 119.856C74.6743 122.066 77.4043 123.431 79.7443 123.431C82.6693 123.431 84.0343 122.391 86.2443 120.766V120.116ZM73.4393 118.491C72.7893 118.881 71.9443 119.141 70.9043 119.141C67.5893 119.141 66.9393 116.281 66.9393 113.551C66.9393 109.781 70.9693 106.986 73.4393 104.711V118.491ZM97.081 122.781C98.121 122.781 99.941 123.106 99.941 124.471C99.941 127.591 94.806 129.346 92.336 129.346C89.476 129.346 87.136 127.916 87.136 124.796C84.341 124.796 82.911 128.501 82.911 130.841C82.911 135.131 86.291 137.016 90.256 137.016C97.666 137.016 100.331 128.436 102.606 122.781L108.456 108.156C110.081 104.061 113.721 93.1412 117.686 91.3862H102.606C106.506 92.8162 108.261 95.8062 108.261 99.9012C108.261 105.166 105.596 111.016 103.646 115.891C101.956 111.861 96.756 100.161 96.756 96.4562C96.756 94.2462 97.796 92.1012 99.941 91.3862H82.001C85.966 93.1412 89.541 103.996 91.166 108.026L97.081 122.781ZM143.564 76.6962C138.299 79.7512 136.479 80.5312 130.434 81.5062C132.709 84.2362 134.074 86.3162 134.074 90.0212V113.941C134.074 116.931 133.619 121.156 130.759 122.781H146.879C143.954 121.156 143.564 116.931 143.564 113.941V76.6962ZM148.629 100.161C148.629 103.086 150.644 105.296 153.634 105.296C156.429 105.296 158.639 103.931 160.069 101.526C158.574 100.876 157.599 99.4462 157.599 97.7562C157.599 94.5062 160.849 92.9462 163.774 92.9462H178.789V114.656C178.789 119.401 180.934 123.431 186.134 123.431C189.709 123.431 193.349 121.676 195.949 119.271V118.621C194.909 119.206 193.674 119.466 192.504 119.466C190.294 119.466 188.279 118.491 188.279 115.956V92.9462H194.194C199.199 92.9462 205.699 90.5412 205.699 84.5613C205.699 81.5062 203.554 79.1012 200.434 79.1012C197.639 79.1012 195.429 80.4662 193.999 82.8712C195.234 83.3912 196.014 84.5613 196.014 85.9262C196.014 89.9563 191.529 91.3862 188.279 91.3862V81.7012H187.629C186.394 85.4062 184.119 88.9812 180.479 90.7362C180.219 90.8662 179.049 91.3862 178.789 91.3862C172.744 91.4512 166.699 91.3862 160.654 91.3862C155.454 91.3862 148.629 93.9862 148.629 100.161ZM155.194 123.431C158.574 123.431 161.499 122.456 163.774 119.856C164.684 122.131 167.414 123.431 169.754 123.431C172.679 123.431 174.044 122.391 176.254 120.766V120.116C175.864 120.376 175.409 120.506 174.954 120.506C173.134 120.506 172.939 117.711 172.939 116.476V104.581C172.939 97.5612 167.674 94.4412 161.174 94.4412L160.719 95.0262C163.969 94.9612 163.449 100.291 163.449 102.436C159.289 106.986 147.394 109.716 147.394 116.476C147.394 121.351 150.644 123.431 155.194 123.431ZM156.949 113.551C156.949 109.781 160.979 106.986 163.449 104.711V118.426C162.669 118.881 161.824 119.141 160.914 119.141C157.599 119.141 156.949 116.281 156.949 113.551ZM225.314 106.076V104.516C225.314 96.1312 219.919 90.8662 211.534 90.8662C202.304 90.8662 196.779 98.7312 196.779 107.376C196.779 116.346 203.279 123.431 212.379 123.431C218.814 123.431 222.454 120.636 225.444 115.241L224.924 114.851C223.559 116.216 219.529 116.671 217.709 116.671C211.404 116.671 207.894 112.251 206.659 106.856L225.314 106.076ZM216.604 99.3162C216.604 102.501 214.459 104.061 211.534 104.516C209.779 104.776 208.089 105.036 206.334 105.231C206.204 104.256 206.139 103.281 206.139 102.306C206.139 99.6412 207.114 92.4262 210.884 92.4262C214.199 92.4262 216.604 96.3262 216.604 99.3162ZM239.223 98.5362V91.3862C233.958 94.4412 232.138 95.2212 226.093 96.1962C228.368 98.9262 229.733 101.006 229.733 104.711V113.941C229.733 116.866 229.213 121.156 226.418 122.781H242.473C239.613 121.156 239.223 116.931 239.223 113.941V102.111C239.223 100.226 241.173 98.6012 242.928 98.6012C245.203 98.6012 246.893 100.356 246.893 102.566C246.893 103.151 246.763 103.671 246.633 104.191C250.923 104.191 254.433 101.396 254.433 96.9762C254.433 93.5962 252.223 90.8662 248.713 90.8662C244.293 90.8662 240.913 94.8312 239.223 98.5362Z" fill="#1E2C31"/>
</g>
<defs>
<linearGradient id="paint0_linear_3641_32123" x1="-42.2461" y1="31.623" x2="-6.60049" y2="177.708" gradientUnits="userSpaceOnUse">
<stop stop-color="#2563EB"/>
<stop offset="1" stop-color="#35FF49"/>
</linearGradient>
<linearGradient id="paint1_linear_3641_32123" x1="21" y1="-0.21875" x2="160.761" y2="165.094" gradientUnits="userSpaceOnUse">
<stop stop-color="#2563EB"/>
<stop offset="1" stop-color="#35FF49"/>
</linearGradient>
<clipPath id="clip0_3641_32123">
<rect width="346" height="140" fill="white"/>
</clipPath>
</defs>
</svg>
