<svg width="80" height="59" viewBox="0 0 80 59" fill="none" xmlns="http://www.w3.org/2000/svg">
<g clip-path="url(#clip0_4351_31836)">
<rect x="9.5" y="7.5" width="70" height="51" rx="7.5" stroke="url(#paint0_linear_4351_31836)"/>
<rect width="71" height="52" rx="8" fill="#E6FEFE"/>
<path d="M35.2083 28.7279C35.2083 30.5104 38.1004 31.957 41.6667 31.957C45.233 31.957 48.125 30.5104 48.125 28.7279M24.875 22.2695C24.875 24.052 27.767 25.4987 31.3333 25.4987C32.7877 25.4987 34.1298 25.2584 35.2083 24.8529M24.875 26.7904C24.875 28.5729 27.767 30.0195 31.3333 30.0195C32.7877 30.0195 34.1285 29.7793 35.2083 29.3737M41.6667 26.7904C38.1004 26.7904 35.2083 25.3437 35.2083 23.5612C35.2083 21.7787 38.1004 20.332 41.6667 20.332C45.233 20.332 48.125 21.7787 48.125 23.5612C48.125 25.3437 45.233 26.7904 41.6667 26.7904Z" stroke="url(#paint1_linear_4351_31836)" stroke-width="1.9375" stroke-linecap="round" stroke-linejoin="round"/>
<path d="M24.875 17.1055V31.3138C24.875 33.0963 27.767 34.543 31.3333 34.543C32.7877 34.543 34.1285 34.3027 35.2083 33.8971M35.2083 33.8971V23.5638M35.2083 33.8971C35.2083 35.6796 38.1004 37.1263 41.6667 37.1263C45.233 37.1263 48.125 35.6796 48.125 33.8971V23.5638M37.7917 20.9805V17.1055" stroke="url(#paint2_linear_4351_31836)" stroke-width="1.9375" stroke-linecap="round" stroke-linejoin="round"/>
<path d="M31.3333 20.3333C27.767 20.3333 24.875 18.8867 24.875 17.1042C24.875 15.3217 27.767 13.875 31.3333 13.875C34.8996 13.875 37.7917 15.3217 37.7917 17.1042C37.7917 18.8867 34.8996 20.3333 31.3333 20.3333Z" stroke="url(#paint3_linear_4351_31836)" stroke-width="1.9375" stroke-linecap="round" stroke-linejoin="round"/>
</g>
<defs>
<linearGradient id="paint0_linear_4351_31836" x1="44.5" y1="7" x2="34.3903" y2="54.9089" gradientUnits="userSpaceOnUse">
<stop stop-color="#30C7E9"/>
<stop offset="1" stop-color="#76DB7C"/>
</linearGradient>
<linearGradient id="paint1_linear_4351_31836" x1="36.5" y1="20.332" x2="34.9211" y2="31.2919" gradientUnits="userSpaceOnUse">
<stop stop-color="#30C7E9"/>
<stop offset="1" stop-color="#76DB7C"/>
</linearGradient>
<linearGradient id="paint2_linear_4351_31836" x1="36.5" y1="17.1055" x2="31.9969" y2="35.2553" gradientUnits="userSpaceOnUse">
<stop stop-color="#30C7E9"/>
<stop offset="1" stop-color="#76DB7C"/>
</linearGradient>
<linearGradient id="paint3_linear_4351_31836" x1="31.3333" y1="13.875" x2="30.4562" y2="19.9638" gradientUnits="userSpaceOnUse">
<stop stop-color="#30C7E9"/>
<stop offset="1" stop-color="#76DB7C"/>
</linearGradient>
<clipPath id="clip0_4351_31836">
<rect width="80" height="59" fill="white"/>
</clipPath>
</defs>
</svg>
