<svg width="562" height="519" viewBox="0 0 562 519" fill="none" xmlns="http://www.w3.org/2000/svg">
<mask id="mask0_3082_29367" style="mask-type:luminance" maskUnits="userSpaceOnUse" x="-423" y="-109" width="1308" height="736">
<path d="M884.305 -108.02H-422.303V626.947H884.305V-108.02Z" fill="white"/>
</mask>
<g mask="url(#mask0_3082_29367)">
<path d="M231.003 82.1315C293.223 42.1235 342.616 62.58 358.316 134.872C430.608 150.572 451.064 199.964 411.056 262.185C451.064 324.405 430.608 373.798 358.316 389.497C342.616 461.789 293.223 482.246 231.003 442.238C168.783 482.246 119.39 461.789 103.691 389.497C31.3984 373.798 10.9418 324.405 50.9499 262.185C10.9418 199.964 31.3984 150.572 103.691 134.872C119.39 62.58 168.783 42.1235 231.003 82.1315Z" fill="url(#paint0_linear_3082_29367)"/>
<path d="M231.004 82.1336C293.225 42.1224 342.614 62.5801 358.319 134.869C430.608 150.574 451.066 199.963 411.055 262.184C451.066 324.405 430.608 373.794 358.319 389.499C342.614 461.788 293.225 482.245 231.004 442.234C168.783 482.245 119.394 461.788 103.689 389.499C31.4004 373.794 10.9427 324.405 50.9539 262.184C10.9427 199.963 31.4004 150.574 103.689 134.869C119.394 62.5801 168.783 42.1224 231.004 82.1336Z" fill="url(#paint1_linear_3082_29367)"/>
<path d="M181.212 280.819C196.601 296.212 213.637 313.253 213.637 313.253C220.894 320.512 222.257 330.933 216.679 336.509C211.101 342.086 200.681 340.72 193.424 333.461L136.76 276.781C129.503 269.522 128.14 259.101 133.718 253.525C139.296 247.949 149.717 249.315 156.973 256.573C156.973 256.573 168.534 268.137 181.212 280.819Z" fill="#F8BFFC"/>
<path d="M174.51 274.115C191.152 290.762 213.637 313.253 213.637 313.253C220.894 320.512 222.257 330.933 216.679 336.509C211.101 342.086 200.681 340.72 193.424 333.461L136.76 276.781C129.503 269.522 128.14 259.101 133.718 253.525C139.296 247.949 149.717 249.315 156.973 256.573C156.973 256.573 164.733 264.336 174.51 274.115Z" fill="white"/>
<path d="M306.337 211.947C317.659 200.316 325.249 192.518 325.249 192.518C333.155 184.396 343.941 182.051 349.319 187.286C354.697 192.521 352.644 203.366 344.738 211.489L227.268 332.172C219.361 340.295 208.575 342.64 203.197 337.405C197.819 332.17 199.872 321.324 207.778 313.202C207.778 313.202 273.12 246.073 306.337 211.947Z" fill="white"/>
</g>
<path d="M445.397 342.425C445.641 341.929 445.436 341.33 444.941 341.087C444.445 340.843 443.846 341.048 443.602 341.544L445.397 342.425ZM511.001 385.984L511.946 386.311C512.071 385.949 511.979 385.548 511.708 385.277C511.437 385.006 511.035 384.914 510.674 385.039L511.001 385.984ZM556.002 436.689L544.545 435.252L549.029 445.893L556.002 436.689ZM443.602 341.544C436.046 356.928 432.12 368.969 431.629 378.013C431.383 382.548 431.997 386.382 433.497 389.517C435.004 392.666 437.377 395.048 440.533 396.707C446.786 399.994 456.077 400.427 467.894 398.646C479.753 396.86 494.342 392.812 511.328 386.929L510.674 385.039C493.735 390.906 479.279 394.909 467.597 396.669C455.872 398.435 447.125 397.912 441.464 394.937C438.663 393.465 436.61 391.389 435.301 388.653C433.985 385.903 433.392 382.426 433.626 378.122C434.095 369.488 437.875 357.741 445.397 342.425L443.602 341.544ZM510.056 385.657C504.79 400.88 501.172 413.259 499.538 422.931C497.914 432.546 498.203 439.733 501.053 444.365C503.988 449.133 509.405 450.88 517.097 450.202C524.782 449.524 535.024 446.414 548.078 441.113L547.326 439.26C534.307 444.546 524.295 447.559 516.921 448.209C509.555 448.859 505.11 447.14 502.756 443.316C500.319 439.356 499.895 432.825 501.51 423.265C503.115 413.762 506.689 401.509 511.946 386.311L510.056 385.657Z" fill="url(#paint2_linear_3082_29367)"/>
<g filter="url(#filter0_f_3082_29367)">
<rect x="218" y="340.984" width="213" height="22" fill="black"/>
</g>
<g clip-path="url(#clip0_3082_29367)">
<g filter="url(#filter1_d_3082_29367)">
<rect x="197" y="318.984" width="274" height="70" rx="14.303" fill="url(#paint3_linear_3082_29367)"/>
</g>
<path d="M258.332 357.984V349.108H255.126V347.778H263.092V349.108H259.858V357.984H258.332ZM265.966 358.11C265.425 358.11 264.93 358.022 264.482 357.844C264.043 357.667 263.665 357.41 263.348 357.074C263.031 356.738 262.783 356.337 262.606 355.87C262.429 355.404 262.34 354.881 262.34 354.302C262.34 353.537 262.485 352.87 262.774 352.3C263.073 351.722 263.493 351.274 264.034 350.956C264.585 350.63 265.229 350.466 265.966 350.466C266.507 350.466 266.997 350.555 267.436 350.732C267.884 350.9 268.267 351.152 268.584 351.488C268.901 351.824 269.144 352.23 269.312 352.706C269.489 353.173 269.578 353.7 269.578 354.288C269.578 355.044 269.433 355.712 269.144 356.29C268.855 356.86 268.439 357.308 267.898 357.634C267.357 357.952 266.713 358.11 265.966 358.11ZM265.966 356.906C266.395 356.906 266.769 356.808 267.086 356.612C267.413 356.407 267.665 356.108 267.842 355.716C268.019 355.324 268.108 354.848 268.108 354.288C268.108 353.868 268.057 353.5 267.954 353.182C267.861 352.856 267.721 352.58 267.534 352.356C267.347 352.123 267.123 351.95 266.862 351.838C266.601 351.717 266.302 351.656 265.966 351.656C265.537 351.656 265.159 351.759 264.832 351.964C264.515 352.17 264.263 352.468 264.076 352.86C263.899 353.243 263.81 353.724 263.81 354.302C263.81 354.713 263.857 355.082 263.95 355.408C264.053 355.726 264.197 355.996 264.384 356.22C264.58 356.444 264.809 356.617 265.07 356.738C265.341 356.85 265.639 356.906 265.966 356.906ZM273.202 357.984C272.791 357.984 272.469 357.928 272.236 357.816C272.003 357.695 271.839 357.518 271.746 357.284C271.653 357.051 271.606 356.771 271.606 356.444V351.754H270.206V350.578H271.606V348.436L273.048 348.268V350.578H274.686V351.754H273.048V356.178C273.048 356.43 273.095 356.598 273.188 356.682C273.281 356.757 273.445 356.794 273.678 356.794H274.686V357.984H273.202ZM278.434 358.11C277.986 358.11 277.576 358.026 277.202 357.858C276.838 357.69 276.521 357.448 276.25 357.13C275.98 356.804 275.77 356.402 275.62 355.926C275.48 355.45 275.41 354.9 275.41 354.274C275.41 353.453 275.536 352.758 275.788 352.188C276.05 351.619 276.404 351.19 276.852 350.9C277.31 350.602 277.837 350.452 278.434 350.452C278.845 350.452 279.218 350.518 279.554 350.648C279.9 350.779 280.189 350.966 280.422 351.208C280.665 351.442 280.842 351.717 280.954 352.034H281.038L281.094 350.578H282.48V357.984H281.038V356.514H280.954C280.777 356.99 280.469 357.378 280.03 357.676C279.592 357.966 279.06 358.11 278.434 358.11ZM278.938 356.92C279.396 356.92 279.778 356.813 280.086 356.598C280.394 356.384 280.628 356.108 280.786 355.772C280.945 355.436 281.024 355.077 281.024 354.694V353.854C281.024 353.472 280.945 353.112 280.786 352.776C280.628 352.44 280.394 352.165 280.086 351.95C279.778 351.736 279.396 351.628 278.938 351.628C278.528 351.628 278.168 351.731 277.86 351.936C277.552 352.132 277.314 352.426 277.146 352.818C276.978 353.201 276.894 353.686 276.894 354.274C276.894 354.853 276.978 355.338 277.146 355.73C277.314 356.122 277.552 356.421 277.86 356.626C278.168 356.822 278.528 356.92 278.938 356.92ZM284.5 357.984V347.778H285.942V357.984H284.5ZM291.3 357.984V347.778H296.06C296.62 347.778 297.11 347.839 297.53 347.96C297.96 348.082 298.314 348.264 298.594 348.506C298.874 348.749 299.084 349.048 299.224 349.402C299.374 349.748 299.448 350.144 299.448 350.592C299.448 351.208 299.29 351.736 298.972 352.174C298.664 352.613 298.221 352.907 297.642 353.056V353.154C298.202 353.248 298.604 353.462 298.846 353.798C299.089 354.125 299.21 354.582 299.21 355.17V356.878C299.21 357.046 299.215 357.224 299.224 357.41C299.243 357.597 299.294 357.788 299.378 357.984H297.838C297.773 357.844 297.731 357.681 297.712 357.494C297.694 357.298 297.684 357.084 297.684 356.85V355.436C297.684 355.082 297.633 354.788 297.53 354.554C297.428 354.321 297.246 354.148 296.984 354.036C296.723 353.915 296.35 353.854 295.864 353.854H292.826V357.984H291.3ZM292.826 352.622H295.85C296.578 352.622 297.096 352.45 297.404 352.104C297.722 351.759 297.88 351.32 297.88 350.788C297.88 350.378 297.796 350.046 297.628 349.794C297.46 349.542 297.222 349.36 296.914 349.248C296.616 349.127 296.261 349.066 295.85 349.066H292.826V352.622ZM304.096 358.11C303.358 358.11 302.719 357.956 302.178 357.648C301.646 357.331 301.235 356.888 300.946 356.318C300.656 355.74 300.512 355.072 300.512 354.316C300.512 353.532 300.656 352.851 300.946 352.272C301.235 351.694 301.641 351.25 302.164 350.942C302.696 350.625 303.321 350.466 304.04 350.466C304.852 350.466 305.519 350.648 306.042 351.012C306.574 351.367 306.956 351.857 307.19 352.482C307.423 353.098 307.502 353.794 307.428 354.568H301.94C301.949 355.072 302.042 355.506 302.22 355.87C302.397 356.225 302.644 356.496 302.962 356.682C303.288 356.869 303.666 356.962 304.096 356.962C304.59 356.962 305.01 356.85 305.356 356.626C305.701 356.393 305.92 356.085 306.014 355.702H307.386C307.32 356.188 307.138 356.612 306.84 356.976C306.541 357.331 306.154 357.611 305.678 357.816C305.211 358.012 304.684 358.11 304.096 358.11ZM301.954 353.756L301.814 353.546H306.154L306.014 353.784C306.032 353.271 305.953 352.856 305.776 352.538C305.608 352.212 305.37 351.974 305.062 351.824C304.763 351.675 304.418 351.6 304.026 351.6C303.615 351.6 303.256 351.689 302.948 351.866C302.64 352.034 302.402 352.282 302.234 352.608C302.066 352.935 301.972 353.318 301.954 353.756ZM311.101 357.984C310.69 357.984 310.368 357.928 310.135 357.816C309.901 357.695 309.738 357.518 309.645 357.284C309.551 357.051 309.505 356.771 309.505 356.444V351.754H308.105V350.578H309.505V348.436L310.947 348.268V350.578H312.585V351.754H310.947V356.178C310.947 356.43 310.993 356.598 311.087 356.682C311.18 356.757 311.343 356.794 311.577 356.794H312.585V357.984H311.101ZM314.018 357.984V350.578H315.46V357.984H314.018ZM314.018 349.444V347.778H315.46V349.444H314.018ZM317.463 357.984V350.578H318.751L318.821 351.894H318.891C319.05 351.418 319.325 351.064 319.717 350.83C320.109 350.597 320.548 350.48 321.033 350.48C321.117 350.48 321.192 350.485 321.257 350.494C321.332 350.494 321.402 350.499 321.467 350.508V351.866C321.411 351.857 321.341 351.852 321.257 351.852C321.182 351.852 321.103 351.852 321.019 351.852C320.58 351.852 320.207 351.927 319.899 352.076C319.591 352.226 319.353 352.445 319.185 352.734C319.017 353.014 318.919 353.355 318.891 353.756V357.984H317.463ZM325.574 358.11C324.837 358.11 324.198 357.956 323.656 357.648C323.124 357.331 322.714 356.888 322.424 356.318C322.135 355.74 321.99 355.072 321.99 354.316C321.99 353.532 322.135 352.851 322.424 352.272C322.714 351.694 323.12 351.25 323.642 350.942C324.174 350.625 324.8 350.466 325.518 350.466C326.33 350.466 326.998 350.648 327.52 351.012C328.052 351.367 328.435 351.857 328.668 352.482C328.902 353.098 328.981 353.794 328.906 354.568H323.418C323.428 355.072 323.521 355.506 323.698 355.87C323.876 356.225 324.123 356.496 324.44 356.682C324.767 356.869 325.145 356.962 325.574 356.962C326.069 356.962 326.489 356.85 326.834 356.626C327.18 356.393 327.399 356.085 327.492 355.702H328.864C328.799 356.188 328.617 356.612 328.318 356.976C328.02 357.331 327.632 357.611 327.156 357.816C326.69 358.012 326.162 358.11 325.574 358.11ZM323.432 353.756L323.292 353.546H327.632L327.492 353.784C327.511 353.271 327.432 352.856 327.254 352.538C327.086 352.212 326.848 351.974 326.54 351.824C326.242 351.675 325.896 351.6 325.504 351.6C325.094 351.6 324.734 351.689 324.426 351.866C324.118 352.034 323.88 352.282 323.712 352.608C323.544 352.935 323.451 353.318 323.432 353.756ZM330.465 357.984V350.578H331.837L331.893 352.048H331.977C332.182 351.526 332.504 351.134 332.943 350.872C333.391 350.602 333.886 350.466 334.427 350.466C334.968 350.466 335.454 350.597 335.883 350.858C336.322 351.12 336.634 351.568 336.821 352.202H336.933C337.138 351.624 337.474 351.19 337.941 350.9C338.417 350.611 338.949 350.466 339.537 350.466C340.022 350.466 340.456 350.569 340.839 350.774C341.231 350.98 341.539 351.311 341.763 351.768C341.987 352.226 342.099 352.832 342.099 353.588V357.984H340.671V353.882C340.671 353.378 340.61 352.963 340.489 352.636C340.368 352.3 340.186 352.053 339.943 351.894C339.7 351.736 339.383 351.656 338.991 351.656C338.59 351.656 338.24 351.759 337.941 351.964C337.642 352.17 337.409 352.445 337.241 352.79C337.082 353.126 337.003 353.509 337.003 353.938V357.984H335.561V353.882C335.561 353.378 335.5 352.963 335.379 352.636C335.258 352.3 335.076 352.053 334.833 351.894C334.59 351.736 334.278 351.656 333.895 351.656C333.484 351.656 333.13 351.759 332.831 351.964C332.532 352.17 332.299 352.445 332.131 352.79C331.972 353.126 331.893 353.509 331.893 353.938V357.984H330.465ZM347.121 358.11C346.384 358.11 345.745 357.956 345.203 357.648C344.671 357.331 344.261 356.888 343.971 356.318C343.682 355.74 343.537 355.072 343.537 354.316C343.537 353.532 343.682 352.851 343.971 352.272C344.261 351.694 344.667 351.25 345.189 350.942C345.721 350.625 346.347 350.466 347.065 350.466C347.877 350.466 348.545 350.648 349.067 351.012C349.599 351.367 349.982 351.857 350.215 352.482C350.449 353.098 350.528 353.794 350.453 354.568H344.965C344.975 355.072 345.068 355.506 345.245 355.87C345.423 356.225 345.67 356.496 345.987 356.682C346.314 356.869 346.692 356.962 347.121 356.962C347.616 356.962 348.036 356.85 348.381 356.626C348.727 356.393 348.946 356.085 349.039 355.702H350.411C350.346 356.188 350.164 356.612 349.865 356.976C349.567 357.331 349.179 357.611 348.703 357.816C348.237 358.012 347.709 358.11 347.121 358.11ZM344.979 353.756L344.839 353.546H349.179L349.039 353.784C349.058 353.271 348.979 352.856 348.801 352.538C348.633 352.212 348.395 351.974 348.087 351.824C347.789 351.675 347.443 351.6 347.051 351.6C346.641 351.6 346.281 351.689 345.973 351.866C345.665 352.034 345.427 352.282 345.259 352.608C345.091 352.935 344.998 353.318 344.979 353.756ZM352.012 357.984V350.578H353.384L353.44 352.048H353.524C353.739 351.526 354.075 351.134 354.532 350.872C354.989 350.602 355.489 350.466 356.03 350.466C356.413 350.466 356.763 350.522 357.08 350.634C357.407 350.746 357.687 350.928 357.92 351.18C358.163 351.423 358.349 351.745 358.48 352.146C358.611 352.538 358.676 353.019 358.676 353.588V357.984H357.234V353.882C357.234 353.378 357.173 352.963 357.052 352.636C356.931 352.3 356.744 352.053 356.492 351.894C356.24 351.736 355.913 351.656 355.512 351.656C355.092 351.656 354.723 351.759 354.406 351.964C354.098 352.17 353.86 352.445 353.692 352.79C353.524 353.126 353.44 353.509 353.44 353.938V357.984H352.012ZM362.561 357.984C362.151 357.984 361.829 357.928 361.595 357.816C361.362 357.695 361.199 357.518 361.105 357.284C361.012 357.051 360.965 356.771 360.965 356.444V351.754H359.565V350.578H360.965V348.436L362.407 348.268V350.578H364.045V351.754H362.407V356.178C362.407 356.43 362.454 356.598 362.547 356.682C362.641 356.757 362.804 356.794 363.037 356.794H364.045V357.984H362.561Z" fill="white"/>
<path d="M403.106 358.984V348.778H405.71L410.008 355.988H410.106L410.022 352.726V348.778H412.122V358.984H409.658L405.36 351.928H405.262L405.318 354.882V358.984H403.106ZM417.565 359.11C416.818 359.11 416.174 358.98 415.633 358.718C415.091 358.448 414.667 358.074 414.359 357.598C414.06 357.113 413.901 356.553 413.883 355.918H415.969C415.978 356.198 416.048 356.446 416.179 356.66C416.319 356.866 416.505 357.029 416.739 357.15C416.981 357.262 417.261 357.318 417.579 357.318C418.101 357.318 418.507 357.164 418.797 356.856C419.095 356.539 419.245 356.133 419.245 355.638C419.245 355.293 419.175 354.99 419.035 354.728C418.904 354.467 418.713 354.266 418.461 354.126C418.209 353.977 417.91 353.902 417.565 353.902C417.163 353.902 416.832 353.996 416.571 354.182C416.319 354.36 416.141 354.588 416.039 354.868H414.079L414.345 348.89H420.729V350.682H416.165L416.067 352.796L416.151 352.824C416.347 352.628 416.613 352.474 416.949 352.362C417.285 352.25 417.639 352.194 418.013 352.194C418.526 352.194 418.983 352.278 419.385 352.446C419.795 352.605 420.145 352.838 420.435 353.146C420.724 353.445 420.943 353.804 421.093 354.224C421.251 354.635 421.331 355.088 421.331 355.582C421.331 356.282 421.177 356.898 420.869 357.43C420.57 357.962 420.136 358.378 419.567 358.676C419.007 358.966 418.339 359.11 417.565 359.11ZM426.245 359.082C425.647 359.082 425.111 358.966 424.635 358.732C424.168 358.49 423.767 358.144 423.431 357.696C423.104 357.239 422.852 356.693 422.675 356.058C422.507 355.424 422.423 354.705 422.423 353.902C422.423 353.072 422.511 352.339 422.689 351.704C422.875 351.07 423.137 350.533 423.473 350.094C423.818 349.656 424.229 349.324 424.705 349.1C425.181 348.876 425.708 348.764 426.287 348.764C426.884 348.764 427.416 348.886 427.883 349.128C428.349 349.362 428.746 349.702 429.073 350.15C429.409 350.598 429.661 351.14 429.829 351.774C429.997 352.409 430.081 353.128 430.081 353.93C430.081 354.752 429.987 355.484 429.801 356.128C429.623 356.772 429.362 357.314 429.017 357.752C428.681 358.191 428.279 358.522 427.813 358.746C427.346 358.97 426.823 359.082 426.245 359.082ZM426.259 357.346C426.52 357.346 426.758 357.295 426.973 357.192C427.187 357.08 427.374 356.894 427.533 356.632C427.691 356.371 427.813 356.021 427.897 355.582C427.99 355.134 428.037 354.579 428.037 353.916C428.037 353.254 427.99 352.703 427.897 352.264C427.813 351.816 427.691 351.466 427.533 351.214C427.374 350.953 427.187 350.771 426.973 350.668C426.758 350.556 426.52 350.5 426.259 350.5C425.997 350.5 425.755 350.556 425.531 350.668C425.316 350.771 425.129 350.953 424.971 351.214C424.812 351.466 424.691 351.812 424.607 352.25C424.523 352.689 424.481 353.244 424.481 353.916C424.481 354.579 424.523 355.134 424.607 355.582C424.691 356.021 424.812 356.371 424.971 356.632C425.129 356.894 425.316 357.08 425.531 357.192C425.755 357.295 425.997 357.346 426.259 357.346ZM431.626 358.984V348.778H434.93L437.03 355.456H437.114L439.186 348.778H442.504V358.984H440.39V354.952L440.418 351.06H440.32L437.926 358.984H436.218L433.824 351.06H433.712L433.754 354.98V358.984H431.626Z" fill="white"/>
<g clip-path="url(#clip1_3082_29367)">
<mask id="mask1_3082_29367" style="mask-type:luminance" maskUnits="userSpaceOnUse" x="219" y="339" width="27" height="28">
<path d="M246 339.984H219V366.984H246V339.984Z" fill="white"/>
</mask>
<g mask="url(#mask1_3082_29367)">
<path d="M232.499 341.277C239.124 341.277 244.502 346.656 244.502 353.281C244.502 359.905 239.124 365.284 232.499 365.284C225.875 365.284 220.496 359.905 220.496 353.281C220.496 346.656 225.875 341.277 232.499 341.277Z" fill="white"/>
<path d="M232.499 341.277C239.124 341.277 244.502 346.656 244.502 353.281C244.502 359.905 239.124 365.284 232.499 365.284C225.875 365.284 220.496 359.905 220.496 353.281C220.496 346.656 225.875 341.277 232.499 341.277Z" stroke="white" stroke-width="0.203444"/>
<path d="M232.498 344.008C237.649 344.008 241.832 348.19 241.832 353.342C241.832 358.493 237.649 362.676 232.498 362.676C227.347 362.676 223.164 358.493 223.164 353.342C223.164 348.19 227.347 344.008 232.498 344.008Z" fill="#30CC80"/>
<path d="M228.15 353.721L230.866 356.384L236.351 350.715" stroke="white" stroke-width="1.58203" stroke-linecap="round" stroke-linejoin="round"/>
</g>
</g>
</g>
<defs>
<filter id="filter0_f_3082_29367" x="158" y="280.984" width="333" height="142" filterUnits="userSpaceOnUse" color-interpolation-filters="sRGB">
<feFlood flood-opacity="0" result="BackgroundImageFix"/>
<feBlend mode="normal" in="SourceGraphic" in2="BackgroundImageFix" result="shape"/>
<feGaussianBlur stdDeviation="30" result="effect1_foregroundBlur_3082_29367"/>
</filter>
<filter id="filter1_d_3082_29367" x="175.545" y="308.257" width="316.909" height="112.909" filterUnits="userSpaceOnUse" color-interpolation-filters="sRGB">
<feFlood flood-opacity="0" result="BackgroundImageFix"/>
<feColorMatrix in="SourceAlpha" type="matrix" values="0 0 0 0 0 0 0 0 0 0 0 0 0 0 0 0 0 0 127 0" result="hardAlpha"/>
<feOffset dy="10.7273"/>
<feGaussianBlur stdDeviation="10.7273"/>
<feComposite in2="hardAlpha" operator="out"/>
<feColorMatrix type="matrix" values="0 0 0 0 0.525 0 0 0 0 0.520625 0 0 0 0 0.520625 0 0 0 0.06 0"/>
<feBlend mode="normal" in2="BackgroundImageFix" result="effect1_dropShadow_3082_29367"/>
<feBlend mode="normal" in="SourceGraphic" in2="effect1_dropShadow_3082_29367" result="shape"/>
</filter>
<linearGradient id="paint0_linear_3082_29367" x1="-27.7684" y1="13.2639" x2="669.502" y2="369.226" gradientUnits="userSpaceOnUse">
<stop stop-color="#2563EB"/>
<stop offset="1" stop-color="#35FF49"/>
</linearGradient>
<linearGradient id="paint1_linear_3082_29367" x1="-27.7662" y1="13.2641" x2="669.501" y2="369.225" gradientUnits="userSpaceOnUse">
<stop stop-color="#2563EB"/>
<stop offset="1" stop-color="#35FF49"/>
</linearGradient>
<linearGradient id="paint2_linear_3082_29367" x1="414.534" y1="328.931" x2="616.036" y2="447.195" gradientUnits="userSpaceOnUse">
<stop stop-color="#2563EB"/>
<stop offset="1" stop-color="#35FF49"/>
</linearGradient>
<linearGradient id="paint3_linear_3082_29367" x1="56.9999" y1="183.137" x2="158.713" y2="529.913" gradientUnits="userSpaceOnUse">
<stop stop-color="#2563EB"/>
<stop offset="1" stop-color="#35FF49"/>
</linearGradient>
<clipPath id="clip0_3082_29367">
<rect x="197" y="319" width="274" height="70" rx="3" fill="white"/>
</clipPath>
<clipPath id="clip1_3082_29367">
<rect width="27" height="27" fill="white" transform="translate(219 339.984)"/>
</clipPath>
</defs>
</svg>
