<svg width="265" height="400" viewBox="0 0 265 400" fill="none" xmlns="http://www.w3.org/2000/svg">
<g clip-path="url(#clip0_2603_28316)">
<path d="M0.27832 52.0357C0.27832 23.2972 23.5755 0 52.3141 0H212.882C241.62 0 264.918 23.2972 264.918 52.0358V347.153C264.918 375.892 241.62 399.189 212.882 399.189H0.27832V52.0357Z" fill="#FAF7C3"/>
<g opacity="0.2">
<path d="M-69.6152 115.223H-5.24057C42.3514 115.223 85.4354 143.379 104.541 186.967L134.079 254.354C145.695 280.855 166.505 302.26 192.669 314.618L298.37 364.542" stroke="#D2CF8D" stroke-width="2.3973"/>
<path d="M-63.6426 149.5H8.0911C55.0113 149.5 97.6174 176.876 117.116 219.553L148.797 288.894C160.827 315.225 181.981 336.313 208.349 348.261L319.925 398.819" stroke="#D2CF8D" stroke-width="2.3973"/>
<path d="M-51.1699 198.645H-7.77301C41.7191 198.645 86.1225 229.063 103.999 275.213L127.758 336.549C138.12 363.298 157.731 385.445 183.031 398.966L272.466 446.765" stroke="#D2CF8D" stroke-width="2.3973"/>
</g>
</g>
<defs>
<clipPath id="clip0_2603_28316">
<rect x="0.27832" width="264.639" height="399.189" rx="52" fill="white"/>
</clipPath>
</defs>
</svg>
