<svg width="202" height="61" viewBox="0 0 202 61" fill="none" xmlns="http://www.w3.org/2000/svg">
<g clip-path="url(#clip0_2193_36430)">
<rect width="209" height="61" rx="10" fill="url(#paint0_linear_2193_36430)"/>
<path d="M49.635 27.5L51.284 28.639C51.4087 28.7297 51.471 28.843 51.471 28.979C51.471 29.149 51.386 29.3077 51.216 29.455C51.0573 29.591 50.893 29.659 50.723 29.659C50.5417 29.659 50.4113 29.5853 50.332 29.438L49.465 27.619H49.431L48.564 29.438C48.53 29.506 48.4733 29.5627 48.394 29.608C48.326 29.642 48.2523 29.659 48.173 29.659C48.003 29.659 47.833 29.591 47.663 29.455C47.5043 29.3077 47.425 29.149 47.425 28.979C47.425 28.843 47.4873 28.7297 47.612 28.639L49.261 27.5L49.244 27.432L47.306 26.837C47.2153 26.8143 47.1417 26.7577 47.085 26.667C47.0397 26.5763 47.017 26.4857 47.017 26.395C47.017 26.2363 47.0793 26.072 47.204 25.902C47.3287 25.7207 47.476 25.63 47.646 25.63C47.782 25.63 47.884 25.6753 47.952 25.766L49.295 27.245L49.346 27.211C49.3233 27.1317 49.2837 26.99 49.227 26.786C49.1703 26.582 49.108 26.3667 49.04 26.14C48.9833 25.902 48.9267 25.6867 48.87 25.494C48.8247 25.3013 48.802 25.1823 48.802 25.137C48.802 24.9783 48.87 24.865 49.006 24.797C49.142 24.7177 49.278 24.678 49.414 24.678C49.5727 24.678 49.72 24.7177 49.856 24.797C49.992 24.8763 50.06 25.0067 50.06 25.188C50.06 25.222 50.0373 25.3353 49.992 25.528C49.9467 25.7207 49.89 25.9303 49.822 26.157C49.7653 26.3837 49.7087 26.599 49.652 26.803C49.6067 27.007 49.5727 27.143 49.55 27.211L49.601 27.245L50.944 25.766C51.012 25.6753 51.114 25.63 51.25 25.63C51.42 25.63 51.5673 25.7207 51.692 25.902C51.8167 26.072 51.879 26.2363 51.879 26.395C51.879 26.4857 51.8507 26.5763 51.794 26.667C51.7487 26.7577 51.6807 26.8143 51.59 26.837L49.652 27.432L49.635 27.5ZM57.8985 23.369C57.2865 23.369 56.7595 23.5277 56.3175 23.845C55.8868 24.1623 55.5355 24.5647 55.2635 25.052C54.9915 25.5393 54.7875 26.072 54.6515 26.65C54.5268 27.2167 54.4645 27.755 54.4645 28.265C54.4645 29.013 54.5665 29.7213 54.7705 30.39C54.9858 31.0587 55.2975 31.648 55.7055 32.158C56.1248 32.668 56.6405 33.0703 57.2525 33.365C57.8645 33.6597 58.5728 33.807 59.3775 33.807C59.9668 33.807 60.5278 33.7107 61.0605 33.518C61.6045 33.3253 62.0805 33.008 62.4885 32.566L62.6245 32.668C62.3638 33.8353 61.8481 34.7137 61.0775 35.303C60.3068 35.881 59.3208 36.17 58.1195 36.17C57.1901 36.17 56.3571 36 55.6205 35.66C54.8838 35.32 54.2605 34.861 53.7505 34.283C53.2405 33.6937 52.8495 33.008 52.5775 32.226C52.3055 31.444 52.1695 30.611 52.1695 29.727C52.1695 28.843 52.3111 27.993 52.5945 27.177C52.8778 26.361 53.2801 25.6413 53.8015 25.018C54.3341 24.3833 54.9745 23.879 55.7225 23.505C56.4818 23.131 57.3318 22.944 58.2725 22.944C58.7031 22.944 59.1565 23.0063 59.6325 23.131C60.1198 23.2557 60.5675 23.4427 60.9755 23.692C61.3835 23.9413 61.7178 24.2587 61.9785 24.644C62.2505 25.018 62.3865 25.4657 62.3865 25.987C62.3865 26.3723 62.2731 26.6953 62.0465 26.956C61.8198 27.2053 61.5081 27.33 61.1115 27.33C60.6695 27.33 60.3125 27.1827 60.0405 26.888C59.7798 26.5933 59.5871 26.2477 59.4625 25.851C59.6211 25.8397 59.7231 25.749 59.7685 25.579C59.8138 25.409 59.8365 25.2673 59.8365 25.154C59.8365 24.882 59.7855 24.6383 59.6835 24.423C59.5815 24.1963 59.4398 24.0093 59.2585 23.862C59.0885 23.7033 58.8845 23.5843 58.6465 23.505C58.4085 23.4143 58.1591 23.369 57.8985 23.369ZM67.1377 27.653C67.727 27.653 68.271 27.7663 68.7697 27.993C69.2684 28.2197 69.699 28.5313 70.0617 28.928C70.4357 29.3133 70.7247 29.7667 70.9287 30.288C71.1327 30.798 71.2347 31.342 71.2347 31.92C71.2347 32.498 71.1327 33.0477 70.9287 33.569C70.7247 34.079 70.4357 34.5267 70.0617 34.912C69.699 35.2973 69.2684 35.6033 68.7697 35.83C68.271 36.0567 67.727 36.17 67.1377 36.17C66.5484 36.17 65.9987 36.0567 65.4887 35.83C64.99 35.6033 64.5594 35.2973 64.1967 34.912C63.834 34.5267 63.545 34.079 63.3297 33.569C63.1257 33.0477 63.0237 32.498 63.0237 31.92C63.0237 31.342 63.1257 30.798 63.3297 30.288C63.545 29.7667 63.834 29.3133 64.1967 28.928C64.5594 28.5313 64.99 28.2197 65.4887 27.993C65.9987 27.7663 66.5484 27.653 67.1377 27.653ZM67.6817 35.711C67.9424 35.711 68.1464 35.6147 68.2937 35.422C68.441 35.2293 68.5544 35.0027 68.6337 34.742C68.713 34.47 68.764 34.1923 68.7867 33.909C68.8094 33.6257 68.8207 33.399 68.8207 33.229C68.8207 33.0137 68.8037 32.736 68.7697 32.396C68.7357 32.056 68.679 31.699 68.5997 31.325C68.5204 30.951 68.4184 30.577 68.2937 30.203C68.1804 29.8177 68.033 29.4777 67.8517 29.183C67.6704 28.877 67.4607 28.6277 67.2227 28.435C66.996 28.2423 66.7297 28.146 66.4237 28.146C66.1857 28.146 65.9987 28.2367 65.8627 28.418C65.7267 28.5993 65.6247 28.8147 65.5567 29.064C65.4887 29.3133 65.4434 29.5683 65.4207 29.829C65.4094 30.0897 65.4037 30.2993 65.4037 30.458C65.4037 30.662 65.4207 30.934 65.4547 31.274C65.4887 31.6027 65.5397 31.9653 65.6077 32.362C65.687 32.7473 65.7834 33.1383 65.8967 33.535C66.0214 33.9317 66.1687 34.2943 66.3387 34.623C66.5087 34.9403 66.7014 35.201 66.9167 35.405C67.1434 35.609 67.3984 35.711 67.6817 35.711ZM79.4121 29.285C79.4348 29.2397 79.5084 29.1717 79.6331 29.081C79.7691 28.9903 79.9278 28.8827 80.1091 28.758C80.3018 28.6333 80.5001 28.5087 80.7041 28.384C80.9194 28.248 81.1178 28.129 81.2991 28.027C81.4918 27.9137 81.6561 27.823 81.7921 27.755C81.9281 27.687 82.0131 27.653 82.0471 27.653C82.4324 27.653 82.7668 27.7267 83.0501 27.874C83.3334 28.0213 83.5658 28.2197 83.7471 28.469C83.9398 28.7183 84.0814 29.0073 84.1721 29.336C84.2741 29.6647 84.3251 30.0047 84.3251 30.356V33.688C84.3251 33.8807 84.3364 34.0903 84.3591 34.317C84.3818 34.5437 84.4214 34.7647 84.4781 34.98C84.5348 35.1953 84.6198 35.3937 84.7331 35.575C84.8578 35.7563 85.0108 35.898 85.1921 36H80.9931C81.1744 35.898 81.3218 35.7563 81.4351 35.575C81.5484 35.3823 81.6334 35.184 81.6901 34.98C81.7468 34.7647 81.7864 34.5437 81.8091 34.317C81.8318 34.0903 81.8431 33.8807 81.8431 33.688V30.424C81.8431 30.254 81.8261 30.0783 81.7921 29.897C81.7581 29.7157 81.7014 29.5513 81.6221 29.404C81.5428 29.2567 81.4294 29.1377 81.2821 29.047C81.1461 28.9563 80.9761 28.911 80.7721 28.911C80.5681 28.911 80.3924 28.9563 80.2451 29.047C80.0978 29.1377 79.9731 29.2567 79.8711 29.404C79.7691 29.54 79.6898 29.6987 79.6331 29.88C79.5878 30.0613 79.5594 30.2427 79.5481 30.424V33.688C79.5481 33.8807 79.5594 34.0903 79.5821 34.317C79.6048 34.5437 79.6444 34.7647 79.7011 34.98C79.7578 35.1953 79.8428 35.3937 79.9561 35.575C80.0808 35.7563 80.2338 35.898 80.4151 36H76.2161C76.3974 35.898 76.5448 35.7563 76.6581 35.575C76.7714 35.3823 76.8564 35.184 76.9131 34.98C76.9698 34.7647 77.0094 34.5437 77.0321 34.317C77.0548 34.0903 77.0661 33.8807 77.0661 33.688V30.424C77.0661 30.254 77.0491 30.0783 77.0151 29.897C76.9811 29.7157 76.9244 29.5513 76.8451 29.404C76.7658 29.2567 76.6524 29.1377 76.5051 29.047C76.3691 28.9563 76.1991 28.911 75.9951 28.911C75.6438 28.911 75.3718 29.0357 75.1791 29.285C74.9864 29.523 74.8618 29.8007 74.8051 30.118V33.688C74.8051 33.8807 74.8108 34.0903 74.8221 34.317C74.8448 34.5437 74.8844 34.7647 74.9411 34.98C74.9978 35.1953 75.0828 35.3937 75.1961 35.575C75.3094 35.7563 75.4624 35.898 75.6551 36H71.4561C71.6374 35.898 71.7848 35.7563 71.8981 35.575C72.0114 35.3823 72.0964 35.184 72.1531 34.98C72.2211 34.7647 72.2664 34.5437 72.2891 34.317C72.3118 34.0903 72.3231 33.8807 72.3231 33.688V31.274C72.3231 31.036 72.3004 30.8207 72.2551 30.628C72.2098 30.424 72.1474 30.237 72.0681 30.067C71.9888 29.897 71.8868 29.7327 71.7621 29.574C71.6488 29.404 71.5184 29.2283 71.3711 29.047C71.7678 28.979 72.1021 28.9167 72.3741 28.86C72.6574 28.792 72.9181 28.7127 73.1561 28.622C73.4054 28.5313 73.6548 28.4237 73.9041 28.299C74.1648 28.163 74.4651 27.993 74.8051 27.789V29.115C74.8844 29.0357 75.0488 28.9167 75.2981 28.758C75.5474 28.5993 75.8081 28.4407 76.0801 28.282C76.3634 28.112 76.6184 27.9647 76.8451 27.84C77.0831 27.7153 77.2248 27.653 77.2701 27.653C77.8594 27.653 78.3298 27.823 78.6811 28.163C79.0438 28.4917 79.2931 28.9053 79.4291 29.404L79.4121 29.285ZM90.4362 31.274C90.4362 31.036 90.4135 30.8207 90.3682 30.628C90.3229 30.424 90.2605 30.237 90.1812 30.067C90.1019 29.897 89.9999 29.7327 89.8752 29.574C89.7619 29.404 89.6315 29.2283 89.4842 29.047C89.8129 28.9903 90.1415 28.8997 90.4702 28.775C90.8102 28.639 91.1105 28.469 91.3712 28.265C91.6319 28.0497 91.8415 27.7947 92.0002 27.5C92.1702 27.2053 92.2552 26.8653 92.2552 26.48C92.2552 26.0947 92.1702 25.7547 92.0002 25.46C91.8415 25.154 91.6262 24.899 91.3542 24.695C91.0935 24.491 90.7932 24.338 90.4532 24.236C90.1132 24.1227 89.7675 24.066 89.4162 24.066C89.0195 24.066 88.6229 24.134 88.2262 24.27C87.8295 24.3947 87.5009 24.61 87.2402 24.916C87.5802 24.916 87.8692 25.0407 88.1072 25.29C88.3565 25.528 88.4812 25.817 88.4812 26.157C88.4812 26.497 88.3565 26.7917 88.1072 27.041C87.8692 27.279 87.5802 27.398 87.2402 27.398C86.9002 27.398 86.6055 27.279 86.3562 27.041C86.1182 26.7917 85.9992 26.497 85.9992 26.157C85.9992 25.7037 86.1182 25.324 86.3562 25.018C86.6055 24.7007 86.9115 24.4457 87.2742 24.253C87.6369 24.049 88.0279 23.9017 88.4472 23.811C88.8779 23.7203 89.2802 23.675 89.6542 23.675C90.0962 23.675 90.5325 23.7373 90.9632 23.862C91.3939 23.9753 91.7735 24.151 92.1022 24.389C92.4422 24.627 92.7142 24.9273 92.9182 25.29C93.1335 25.6527 93.2412 26.0833 93.2412 26.582C93.2412 27.0353 93.1335 27.4377 92.9182 27.789V29.098C92.9522 29.064 93.0315 29.0073 93.1562 28.928C93.2809 28.8373 93.4282 28.741 93.5982 28.639C93.7682 28.5257 93.9495 28.4123 94.1422 28.299C94.3462 28.1857 94.5332 28.0837 94.7032 27.993C94.8732 27.891 95.0205 27.8117 95.1452 27.755C95.2699 27.687 95.3492 27.653 95.3832 27.653C95.7685 27.653 96.1029 27.7267 96.3862 27.874C96.6695 28.0213 96.9019 28.2197 97.0832 28.469C97.2759 28.7183 97.4175 29.0073 97.5082 29.336C97.6102 29.6647 97.6612 30.0047 97.6612 30.356V33.688C97.6612 33.8807 97.6725 34.0903 97.6952 34.317C97.7179 34.5437 97.7575 34.7647 97.8142 34.98C97.8709 35.1953 97.9559 35.3937 98.0692 35.575C98.1939 35.7563 98.3469 35.898 98.5282 36H94.3292C94.5105 35.898 94.6579 35.7563 94.7712 35.575C94.8845 35.3823 94.9695 35.184 95.0262 34.98C95.0829 34.7647 95.1225 34.5437 95.1452 34.317C95.1679 34.0903 95.1792 33.8807 95.1792 33.688V30.424C95.1792 30.254 95.1622 30.0783 95.1282 29.897C95.0942 29.7157 95.0375 29.5513 94.9582 29.404C94.8789 29.2567 94.7655 29.1377 94.6182 29.047C94.4822 28.9563 94.3122 28.911 94.1082 28.911C93.9609 28.911 93.8135 28.9507 93.6662 29.03C93.5302 29.098 93.4055 29.1887 93.2922 29.302C93.1789 29.4153 93.0882 29.5457 93.0202 29.693C92.9522 29.829 92.9182 29.9707 92.9182 30.118V33.688C92.9182 33.8807 92.9239 34.0903 92.9352 34.317C92.9579 34.5437 92.9975 34.7647 93.0542 34.98C93.1109 35.1953 93.1959 35.3937 93.3092 35.575C93.4225 35.7563 93.5755 35.898 93.7682 36H89.5692C89.7505 35.898 89.8979 35.7563 90.0112 35.575C90.1245 35.3823 90.2095 35.184 90.2662 34.98C90.3342 34.7647 90.3795 34.5437 90.4022 34.317C90.4249 34.0903 90.4362 33.8807 90.4362 33.688V31.274ZM85.2002 29.047C85.5969 28.979 85.9312 28.9167 86.2032 28.86C86.4865 28.792 86.7472 28.7127 86.9852 28.622C87.2345 28.5313 87.4839 28.4237 87.7332 28.299C87.9939 28.163 88.2942 27.993 88.6342 27.789V33.688C88.6342 33.8807 88.6399 34.0903 88.6512 34.317C88.6739 34.5437 88.7135 34.7647 88.7702 34.98C88.8269 35.1953 88.9119 35.3937 89.0252 35.575C89.1385 35.7563 89.2915 35.898 89.4842 36H85.2852C85.4665 35.898 85.6139 35.7563 85.7272 35.575C85.8405 35.3823 85.9255 35.184 85.9822 34.98C86.0502 34.7647 86.0955 34.5437 86.1182 34.317C86.1409 34.0903 86.1522 33.8807 86.1522 33.688V31.274C86.1522 31.036 86.1295 30.8207 86.0842 30.628C86.0389 30.424 85.9765 30.237 85.8972 30.067C85.8179 29.897 85.7159 29.7327 85.5912 29.574C85.4779 29.404 85.3475 29.2283 85.2002 29.047ZM102.849 27.653C102.951 27.653 103.053 27.6587 103.155 27.67C103.269 27.67 103.376 27.6757 103.478 27.687C103.626 27.4263 103.79 27.1657 103.971 26.905C104.164 26.633 104.374 26.3893 104.6 26.174C104.838 25.9587 105.088 25.783 105.348 25.647C105.62 25.4997 105.909 25.426 106.215 25.426C106.544 25.426 106.827 25.528 107.065 25.732C107.303 25.9247 107.422 26.191 107.422 26.531C107.422 26.9277 107.281 27.2337 106.997 27.449C106.714 27.653 106.391 27.755 106.028 27.755C105.949 27.755 105.853 27.7437 105.739 27.721C105.683 27.551 105.581 27.4263 105.433 27.347C105.286 27.2563 105.127 27.211 104.957 27.211C104.731 27.211 104.521 27.262 104.328 27.364C104.147 27.4547 103.977 27.5793 103.818 27.738C104.215 27.806 104.595 27.9193 104.957 28.078C105.331 28.2253 105.66 28.4237 105.943 28.673C106.227 28.911 106.453 29.2057 106.623 29.557C106.805 29.897 106.895 30.288 106.895 30.73C106.895 31.274 106.771 31.7443 106.521 32.141C106.283 32.5263 105.966 32.8437 105.569 33.093C105.184 33.3423 104.753 33.5293 104.277 33.654C103.801 33.7673 103.325 33.824 102.849 33.824C102.487 33.824 102.113 33.79 101.727 33.722C101.342 33.654 100.979 33.5407 100.639 33.382C100.526 33.4953 100.469 33.6427 100.469 33.824C100.469 34.0053 100.566 34.147 100.758 34.249C100.962 34.3397 101.223 34.4133 101.54 34.47C101.858 34.5267 102.22 34.572 102.628 34.606C103.048 34.6287 103.467 34.6683 103.886 34.725C104.317 34.7817 104.736 34.8667 105.144 34.98C105.564 35.082 105.932 35.2293 106.249 35.422C106.567 35.6147 106.822 35.864 107.014 36.17C107.218 36.4873 107.32 36.884 107.32 37.36C107.32 37.9153 107.15 38.3573 106.81 38.686C106.482 39.026 106.074 39.2867 105.586 39.468C105.11 39.6493 104.6 39.7683 104.056 39.825C103.524 39.8817 103.053 39.91 102.645 39.91C102.339 39.91 101.96 39.8817 101.506 39.825C101.053 39.7797 100.611 39.6777 100.18 39.519C99.7609 39.3717 99.3983 39.162 99.0922 38.89C98.7862 38.6293 98.6333 38.2837 98.6333 37.853C98.6333 37.5243 98.7353 37.2637 98.9393 37.071C99.1546 36.8897 99.4209 36.799 99.7383 36.799C100.067 36.799 100.339 36.9123 100.554 37.139C100.781 37.3657 100.94 37.6263 101.03 37.921C100.894 38.057 100.826 38.2043 100.826 38.363C100.826 38.567 100.9 38.7427 101.047 38.89C101.195 39.0373 101.376 39.1563 101.591 39.247C101.807 39.3377 102.028 39.4 102.254 39.434C102.481 39.4793 102.674 39.502 102.832 39.502C103.025 39.502 103.235 39.4793 103.461 39.434C103.699 39.4 103.915 39.332 104.107 39.23C104.311 39.128 104.476 38.992 104.6 38.822C104.736 38.6633 104.804 38.465 104.804 38.227C104.804 37.8757 104.663 37.6093 104.379 37.428C104.107 37.258 103.762 37.122 103.342 37.02C102.934 36.9293 102.487 36.8557 101.999 36.799C101.512 36.7423 101.059 36.663 100.639 36.561C100.231 36.459 99.8856 36.3117 99.6023 36.119C99.3303 35.9377 99.1943 35.6657 99.1943 35.303C99.1943 35.2463 99.2396 35.133 99.3303 34.963C99.4323 34.7817 99.5456 34.5833 99.6703 34.368C99.7949 34.1413 99.9196 33.926 100.044 33.722C100.18 33.5067 100.282 33.3423 100.35 33.229C99.8856 32.9797 99.5059 32.651 99.2113 32.243C98.9166 31.835 98.7693 31.3307 98.7693 30.73C98.7693 30.186 98.8939 29.7213 99.1433 29.336C99.3926 28.9507 99.7156 28.6333 100.112 28.384C100.509 28.1347 100.945 27.9533 101.421 27.84C101.909 27.7153 102.385 27.653 102.849 27.653ZM103.393 33.365C103.62 33.365 103.807 33.314 103.954 33.212C104.102 33.0987 104.215 32.957 104.294 32.787C104.385 32.617 104.447 32.43 104.481 32.226C104.515 32.022 104.532 31.8293 104.532 31.648C104.532 31.3193 104.481 30.951 104.379 30.543C104.277 30.135 104.124 29.7553 103.92 29.404C103.728 29.0413 103.478 28.741 103.172 28.503C102.878 28.265 102.532 28.146 102.135 28.146C101.931 28.146 101.761 28.197 101.625 28.299C101.489 28.401 101.382 28.5313 101.302 28.69C101.234 28.8487 101.183 29.0243 101.149 29.217C101.127 29.3983 101.115 29.574 101.115 29.744C101.115 30.05 101.161 30.4127 101.251 30.832C101.353 31.24 101.495 31.6367 101.676 32.022C101.869 32.396 102.107 32.7133 102.39 32.974C102.674 33.2347 103.008 33.365 103.393 33.365ZM120.217 25.834C120.217 26.2647 120.086 26.6387 119.826 26.956C119.565 27.262 119.208 27.415 118.755 27.415C118.256 27.415 117.859 27.245 117.565 26.905C117.281 26.565 117.111 26.1627 117.055 25.698C117.315 25.698 117.502 25.6017 117.616 25.409C117.74 25.2163 117.803 25.0067 117.803 24.78C117.803 24.5193 117.735 24.2983 117.599 24.117C117.474 23.9357 117.31 23.7883 117.106 23.675C116.913 23.5617 116.698 23.4823 116.46 23.437C116.222 23.3803 115.995 23.352 115.78 23.352C115.44 23.352 115.134 23.4143 114.862 23.539C114.59 23.6523 114.357 23.8167 114.165 24.032C113.972 24.236 113.825 24.4853 113.723 24.78C113.621 25.0633 113.57 25.3693 113.57 25.698C113.57 26.1853 113.74 26.599 114.08 26.939C114.431 27.279 114.862 27.5907 115.372 27.874C115.893 28.146 116.454 28.418 117.055 28.69C117.655 28.9507 118.211 29.251 118.721 29.591C119.242 29.931 119.673 30.339 120.013 30.815C120.364 31.291 120.54 31.8747 120.54 32.566C120.54 33.1893 120.398 33.7333 120.115 34.198C119.831 34.6513 119.463 35.0253 119.01 35.32C118.556 35.6033 118.052 35.8187 117.497 35.966C116.941 36.102 116.392 36.17 115.848 36.17C115.338 36.17 114.805 36.1077 114.25 35.983C113.694 35.8583 113.179 35.66 112.703 35.388C112.238 35.116 111.853 34.7703 111.547 34.351C111.252 33.9203 111.105 33.399 111.105 32.787C111.105 32.549 111.139 32.3167 111.207 32.09C111.275 31.8633 111.371 31.665 111.496 31.495C111.632 31.3137 111.796 31.172 111.989 31.07C112.181 30.9567 112.408 30.9 112.669 30.9C112.941 30.9 113.184 30.9567 113.4 31.07C113.615 31.1833 113.796 31.3307 113.944 31.512C114.102 31.6933 114.227 31.903 114.318 32.141C114.408 32.379 114.471 32.617 114.505 32.855C114.335 32.855 114.187 32.8947 114.063 32.974C113.938 33.0533 113.83 33.1553 113.74 33.28C113.66 33.3933 113.598 33.5237 113.553 33.671C113.519 33.8183 113.502 33.9657 113.502 34.113C113.502 34.385 113.553 34.6287 113.655 34.844C113.768 35.048 113.915 35.218 114.097 35.354C114.278 35.49 114.482 35.592 114.709 35.66C114.947 35.728 115.19 35.762 115.44 35.762C115.78 35.762 116.103 35.7167 116.409 35.626C116.715 35.524 116.981 35.3823 117.208 35.201C117.446 35.0083 117.633 34.776 117.769 34.504C117.905 34.2207 117.973 33.8977 117.973 33.535C117.973 32.9683 117.814 32.5037 117.497 32.141C117.179 31.767 116.783 31.4327 116.307 31.138C115.831 30.8433 115.309 30.5713 114.743 30.322C114.187 30.0613 113.672 29.7667 113.196 29.438C112.72 29.098 112.323 28.7013 112.006 28.248C111.688 27.7947 111.53 27.228 111.53 26.548C111.53 25.9473 111.654 25.426 111.904 24.984C112.153 24.5307 112.482 24.1567 112.89 23.862C113.298 23.556 113.757 23.3293 114.267 23.182C114.788 23.0233 115.321 22.944 115.865 22.944C116.273 22.944 116.726 23.0007 117.225 23.114C117.735 23.2273 118.211 23.403 118.653 23.641C119.095 23.8677 119.463 24.1623 119.758 24.525C120.064 24.8877 120.217 25.324 120.217 25.834ZM133.965 36.17C133.398 36.17 132.86 36.068 132.35 35.864C131.851 35.66 131.415 35.3767 131.041 35.014C130.667 34.6513 130.372 34.2263 130.157 33.739C129.942 33.2517 129.834 32.719 129.834 32.141C129.834 31.5517 129.942 31.0417 130.157 30.611C130.384 30.169 130.684 29.8063 131.058 29.523C131.432 29.2283 131.863 29.013 132.35 28.877C132.837 28.7297 133.353 28.656 133.897 28.656C133.693 28.656 133.512 28.7353 133.353 28.894C133.206 29.0413 133.081 29.234 132.979 29.472C132.877 29.71 132.786 29.9763 132.707 30.271C132.639 30.5657 132.588 30.8547 132.554 31.138C132.52 31.41 132.492 31.6707 132.469 31.92C132.458 32.158 132.452 32.345 132.452 32.481C132.452 32.685 132.463 32.9683 132.486 33.331C132.52 33.6937 132.582 34.0563 132.673 34.419C132.775 34.7817 132.911 35.099 133.081 35.371C133.262 35.6317 133.5 35.762 133.795 35.762C134.135 35.762 134.418 35.6203 134.645 35.337C134.883 35.0537 135.07 34.7193 135.206 34.334C135.353 33.9487 135.461 33.552 135.529 33.144C135.597 32.736 135.631 32.413 135.631 32.175C135.631 31.291 135.472 30.526 135.155 29.88C134.849 29.234 134.424 28.7013 133.88 28.282C133.347 27.8513 132.718 27.534 131.993 27.33C131.268 27.1147 130.497 27.007 129.681 27.007C128.854 27.007 128.077 27.109 127.352 27.313C126.627 27.517 125.992 27.8287 125.448 28.248C124.904 28.6673 124.473 29.2 124.156 29.846C123.85 30.492 123.697 31.2627 123.697 32.158C123.697 32.396 123.731 32.719 123.799 33.127C123.867 33.535 123.969 33.9373 124.105 34.334C124.252 34.7193 124.439 35.0537 124.666 35.337C124.904 35.6203 125.187 35.762 125.516 35.762C125.811 35.762 126.049 35.6317 126.23 35.371C126.411 35.099 126.547 34.7817 126.638 34.419C126.729 34.0563 126.785 33.6937 126.808 33.331C126.842 32.957 126.859 32.668 126.859 32.464C126.859 32.328 126.848 32.141 126.825 31.903C126.814 31.665 126.791 31.4043 126.757 31.121C126.723 30.8377 126.672 30.5543 126.604 30.271C126.536 29.9763 126.445 29.71 126.332 29.472C126.23 29.234 126.105 29.0413 125.958 28.894C125.811 28.7353 125.635 28.656 125.431 28.656C125.975 28.656 126.491 28.7297 126.978 28.877C127.465 29.0243 127.89 29.2453 128.253 29.54C128.627 29.8233 128.922 30.186 129.137 30.628C129.352 31.0587 129.46 31.563 129.46 32.141C129.46 32.719 129.352 33.2517 129.137 33.739C128.922 34.2263 128.627 34.6513 128.253 35.014C127.89 35.3767 127.46 35.66 126.961 35.864C126.462 36.068 125.93 36.17 125.363 36.17C124.774 36.17 124.218 36.068 123.697 35.864C123.187 35.6487 122.739 35.354 122.354 34.98C121.969 34.606 121.663 34.164 121.436 33.654C121.221 33.144 121.113 32.5943 121.113 32.005C121.113 31.189 121.334 30.4297 121.776 29.727C122.173 29.0923 122.677 28.5767 123.289 28.18C123.912 27.7833 124.581 27.4717 125.295 27.245C126.02 27.007 126.763 26.8483 127.522 26.769C128.281 26.6783 129.001 26.633 129.681 26.633C130.361 26.633 131.081 26.6783 131.84 26.769C132.599 26.8597 133.336 27.024 134.05 27.262C134.764 27.4887 135.427 27.806 136.039 28.214C136.662 28.6107 137.167 29.1207 137.552 29.744C137.994 30.4467 138.215 31.2003 138.215 32.005C138.215 32.5943 138.102 33.144 137.875 33.654C137.66 34.164 137.359 34.606 136.974 34.98C136.589 35.354 136.135 35.6487 135.614 35.864C135.104 36.068 134.554 36.17 133.965 36.17ZM142.659 36H138.46C138.641 35.898 138.789 35.7563 138.902 35.575C139.015 35.3823 139.1 35.184 139.157 34.98C139.225 34.7647 139.27 34.5437 139.293 34.317C139.316 34.0903 139.327 33.8807 139.327 33.688V31.274C139.327 31.036 139.304 30.8207 139.259 30.628C139.214 30.424 139.151 30.237 139.072 30.067C138.993 29.897 138.891 29.7327 138.766 29.574C138.653 29.404 138.522 29.2283 138.375 29.047C138.772 28.979 139.106 28.9167 139.378 28.86C139.661 28.792 139.922 28.7127 140.16 28.622C140.409 28.5313 140.659 28.4237 140.908 28.299C141.169 28.163 141.469 27.993 141.809 27.789V29.115C141.888 29.0357 142.053 28.9167 142.302 28.758C142.551 28.5993 142.812 28.4407 143.084 28.282C143.367 28.112 143.622 27.9647 143.849 27.84C144.087 27.7153 144.229 27.653 144.274 27.653C144.659 27.653 144.994 27.7267 145.277 27.874C145.56 28.0213 145.793 28.2197 145.974 28.469C146.167 28.7183 146.308 29.0073 146.399 29.336C146.501 29.6647 146.552 30.0047 146.552 30.356V33.688C146.552 33.8807 146.563 34.0903 146.586 34.317C146.609 34.5437 146.648 34.7647 146.705 34.98C146.762 35.1953 146.847 35.3937 146.96 35.575C147.085 35.7563 147.238 35.898 147.419 36H143.22C143.401 35.898 143.549 35.7563 143.662 35.575C143.775 35.3823 143.86 35.184 143.917 34.98C143.974 34.7647 144.013 34.5437 144.036 34.317C144.059 34.0903 144.07 33.8807 144.07 33.688V30.424C144.07 30.254 144.053 30.0783 144.019 29.897C143.985 29.7157 143.928 29.5513 143.849 29.404C143.77 29.2567 143.656 29.1377 143.509 29.047C143.373 28.9563 143.203 28.911 142.999 28.911C142.648 28.911 142.376 29.0357 142.183 29.285C141.99 29.523 141.866 29.8007 141.809 30.118V33.688C141.809 33.8807 141.815 34.0903 141.826 34.317C141.849 34.5437 141.888 34.7647 141.945 34.98C142.002 35.1953 142.087 35.3937 142.2 35.575C142.313 35.7563 142.466 35.898 142.659 36ZM150.058 27.5L151.707 28.639C151.832 28.7297 151.894 28.843 151.894 28.979C151.894 29.149 151.809 29.3077 151.639 29.455C151.48 29.591 151.316 29.659 151.146 29.659C150.965 29.659 150.834 29.5853 150.755 29.438L149.888 27.619H149.854L148.987 29.438C148.953 29.506 148.896 29.5627 148.817 29.608C148.749 29.642 148.675 29.659 148.596 29.659C148.426 29.659 148.256 29.591 148.086 29.455C147.927 29.3077 147.848 29.149 147.848 28.979C147.848 28.843 147.91 28.7297 148.035 28.639L149.684 27.5L149.667 27.432L147.729 26.837C147.638 26.8143 147.565 26.7577 147.508 26.667C147.463 26.5763 147.44 26.4857 147.44 26.395C147.44 26.2363 147.502 26.072 147.627 25.902C147.752 25.7207 147.899 25.63 148.069 25.63C148.205 25.63 148.307 25.6753 148.375 25.766L149.718 27.245L149.769 27.211C149.746 27.1317 149.707 26.99 149.65 26.786C149.593 26.582 149.531 26.3667 149.463 26.14C149.406 25.902 149.35 25.6867 149.293 25.494C149.248 25.3013 149.225 25.1823 149.225 25.137C149.225 24.9783 149.293 24.865 149.429 24.797C149.565 24.7177 149.701 24.678 149.837 24.678C149.996 24.678 150.143 24.7177 150.279 24.797C150.415 24.8763 150.483 25.0067 150.483 25.188C150.483 25.222 150.46 25.3353 150.415 25.528C150.37 25.7207 150.313 25.9303 150.245 26.157C150.188 26.3837 150.132 26.599 150.075 26.803C150.03 27.007 149.996 27.143 149.973 27.211L150.024 27.245L151.367 25.766C151.435 25.6753 151.537 25.63 151.673 25.63C151.843 25.63 151.99 25.7207 152.115 25.902C152.24 26.072 152.302 26.2363 152.302 26.395C152.302 26.4857 152.274 26.5763 152.217 26.667C152.172 26.7577 152.104 26.8143 152.013 26.837L150.075 27.432L150.058 27.5Z" fill="white"/>
</g>
<defs>
<linearGradient id="paint0_linear_2193_36430" x1="118.275" y1="-49.8651" x2="117.288" y2="81.3331" gradientUnits="userSpaceOnUse">
<stop stop-color="#0C6B8A" stop-opacity="0.32"/>
<stop offset="1" stop-color="#0C6B8A"/>
</linearGradient>
<clipPath id="clip0_2193_36430">
<rect width="202" height="61" rx="10" fill="white"/>
</clipPath>
</defs>
</svg>
