<svg width="78" height="59" viewBox="0 0 78 59" fill="none" xmlns="http://www.w3.org/2000/svg">
<rect x="7.5" y="7.5" width="70" height="51" rx="7.5" stroke="url(#paint0_linear_4364_31826)"/>
<rect width="71" height="52" rx="8" fill="url(#paint1_linear_4364_31826)"/>
<path d="M22.666 19.3307C22.666 18.6235 22.947 17.9452 23.4471 17.4451C23.9472 16.945 24.6254 16.6641 25.3327 16.6641H46.666C47.3733 16.6641 48.0515 16.945 48.5516 17.4451C49.0517 17.9452 49.3327 18.6235 49.3327 19.3307V32.6641C49.3327 33.3713 49.0517 34.0496 48.5516 34.5497C48.0515 35.0498 47.3733 35.3307 46.666 35.3307H25.3327C24.6254 35.3307 23.9472 35.0498 23.4471 34.5497C22.947 34.0496 22.666 33.3713 22.666 32.6641V19.3307Z" stroke="white" stroke-width="2.66667" stroke-linecap="round" stroke-linejoin="round"/>
<path d="M36 30C38.2091 30 40 28.2091 40 26C40 23.7909 38.2091 22 36 22C33.7909 22 32 23.7909 32 26C32 28.2091 33.7909 30 36 30Z" stroke="white" stroke-width="2.66667" stroke-linecap="round" stroke-linejoin="round"/>
<path d="M22.666 21.9974C24.0805 21.9974 25.4371 21.4355 26.4373 20.4353C27.4374 19.4351 27.9993 18.0786 27.9993 16.6641M43.9993 35.3307C43.9993 33.9162 44.5613 32.5597 45.5614 31.5595C46.5616 30.5593 47.9182 29.9974 49.3327 29.9974" stroke="white" stroke-width="2.66667" stroke-linecap="round" stroke-linejoin="round"/>
<defs>
<linearGradient id="paint0_linear_4364_31826" x1="-3.37881" y1="0.677725" x2="101.503" y2="73.7847" gradientUnits="userSpaceOnUse">
<stop stop-color="#2563EB"/>
<stop offset="1" stop-color="#35FF49"/>
</linearGradient>
<linearGradient id="paint1_linear_4364_31826" x1="-10.3788" y1="-6.32227" x2="94.5033" y2="66.7847" gradientUnits="userSpaceOnUse">
<stop stop-color="#2563EB"/>
<stop offset="1" stop-color="#35FF49"/>
</linearGradient>
</defs>
</svg>
