<svg width="382" height="31" viewBox="0 0 382 31" fill="none" xmlns="http://www.w3.org/2000/svg">
<path d="M6.51 19.92C6.51 20.26 6.53 20.63 6.57 21.03C6.61 21.43 6.68 21.82 6.78 22.2C6.88 22.58 7.03 22.93 7.23 23.25C7.45 23.57 7.72 23.82 8.04 24H0.6C0.94 23.82 1.21 23.57 1.41 23.25C1.61 22.93 1.76 22.58 1.86 22.2C1.96 21.82 2.03 21.43 2.07 21.03C2.11 20.63 2.13 20.26 2.13 19.92V5.34C2.13 4.98 2.11 4.61 2.07 4.23C2.05 3.83 1.98 3.44 1.86 3.06C1.76 2.68 1.61 2.34 1.41 2.04C1.21 1.72 0.94 1.46 0.6 1.26H8.04C7.72 1.46 7.45 1.72 7.23 2.04C7.03 2.36 6.88 2.71 6.78 3.09C6.68 3.45 6.61 3.83 6.57 4.23C6.53 4.63 6.51 5 6.51 5.34V19.92ZM14.5826 24.3C14.0226 24.3 13.4026 24.23 12.7226 24.09C12.0626 23.95 11.4426 23.73 10.8626 23.43C10.2826 23.13 9.79258 22.74 9.39258 22.26C9.01258 21.76 8.82258 21.16 8.82258 20.46C8.82258 19.8 9.00258 19.23 9.36258 18.75C9.74258 18.27 10.2826 18.03 10.9826 18.03C11.6626 18.03 12.2126 18.29 12.6326 18.81C13.0726 19.31 13.3526 19.86 13.4726 20.46C13.1126 20.46 12.8126 20.58 12.5726 20.82C12.3526 21.06 12.2426 21.36 12.2426 21.72C12.2426 22.02 12.3126 22.29 12.4526 22.53C12.5926 22.77 12.7726 22.97 12.9926 23.13C13.2326 23.27 13.4926 23.38 13.7726 23.46C14.0526 23.54 14.3226 23.58 14.5826 23.58C14.9026 23.58 15.2226 23.54 15.5426 23.46C15.8626 23.38 16.1526 23.26 16.4126 23.1C16.6726 22.92 16.8826 22.7 17.0426 22.44C17.2026 22.16 17.2826 21.83 17.2826 21.45C17.2826 20.93 17.0826 20.5 16.6826 20.16C16.3026 19.8 15.8226 19.47 15.2426 19.17C14.6626 18.85 14.0326 18.54 13.3526 18.24C12.6726 17.92 12.0426 17.56 11.4626 17.16C10.8826 16.74 10.3926 16.24 9.99258 15.66C9.61258 15.08 9.42258 14.37 9.42258 13.53C9.42258 12.77 9.61258 12.13 9.99258 11.61C10.3926 11.07 10.8826 10.63 11.4626 10.29C12.0426 9.93 12.6826 9.67 13.3826 9.51C14.1026 9.35 14.7726 9.27 15.3926 9.27C15.9526 9.27 16.5526 9.34 17.1926 9.48C17.8526 9.6 18.4526 9.81 18.9926 10.11C19.5526 10.41 20.0126 10.8 20.3726 11.28C20.7326 11.74 20.9126 12.32 20.9126 13.02C20.9126 13.64 20.7326 14.13 20.3726 14.49C20.0326 14.85 19.5526 15.03 18.9326 15.03C18.2926 15.03 17.7626 14.84 17.3426 14.46C16.9226 14.08 16.6226 13.6 16.4426 13.02C16.7826 13.02 17.0426 12.92 17.2226 12.72C17.4026 12.5 17.4926 12.23 17.4926 11.91C17.4926 11.31 17.2626 10.84 16.8026 10.5C16.3426 10.16 15.8326 9.99 15.2726 9.99C14.6126 9.99 14.0626 10.2 13.6226 10.62C13.1826 11.02 12.9626 11.55 12.9626 12.21C12.9626 12.71 13.1626 13.14 13.5626 13.5C13.9826 13.86 14.4926 14.2 15.0926 14.52C15.7126 14.82 16.3726 15.12 17.0726 15.42C17.7926 15.72 18.4526 16.08 19.0526 16.5C19.6726 16.92 20.1826 17.42 20.5826 18C21.0026 18.56 21.2126 19.25 21.2126 20.07C21.2126 20.89 20.9826 21.58 20.5226 22.14C20.0826 22.68 19.5326 23.11 18.8726 23.43C18.2126 23.75 17.4926 23.97 16.7126 24.09C15.9526 24.23 15.2426 24.3 14.5826 24.3ZM37.8361 1.71C36.7561 1.71 35.8261 1.99 35.0461 2.55C34.2861 3.11 33.6661 3.82 33.1861 4.68C32.7061 5.54 32.3461 6.48 32.1061 7.5C31.8861 8.5 31.7761 9.45 31.7761 10.35C31.7761 11.67 31.9561 12.92 32.3161 14.1C32.6961 15.28 33.2461 16.32 33.9661 17.22C34.7061 18.12 35.6161 18.83 36.6961 19.35C37.7761 19.87 39.0261 20.13 40.4461 20.13C41.4861 20.13 42.4761 19.96 43.4161 19.62C44.3761 19.28 45.2161 18.72 45.9361 17.94L46.1761 18.12C45.7161 20.18 44.8061 21.73 43.4461 22.77C42.0861 23.79 40.3461 24.3 38.2261 24.3C36.5861 24.3 35.1161 24 33.8161 23.4C32.5161 22.8 31.4161 21.99 30.5161 20.97C29.6161 19.93 28.9261 18.72 28.4461 17.34C27.9661 15.96 27.7261 14.49 27.7261 12.93C27.7261 11.37 27.9761 9.87 28.4761 8.43C28.9761 6.99 29.6861 5.72 30.6061 4.62C31.5461 3.5 32.6761 2.61 33.9961 1.95C35.3361 1.29 36.8361 0.96 38.4961 0.96C39.2561 0.96 40.0561 1.07 40.8961 1.29C41.7561 1.51 42.5461 1.84 43.2661 2.28C43.9861 2.72 44.5761 3.28 45.0361 3.96C45.5161 4.62 45.7561 5.41 45.7561 6.33C45.7561 7.01 45.5561 7.58 45.1561 8.04C44.7561 8.48 44.2061 8.7 43.5061 8.7C42.7261 8.7 42.0961 8.44 41.6161 7.92C41.1561 7.4 40.8161 6.79 40.5961 6.09C40.8761 6.07 41.0561 5.91 41.1361 5.61C41.2161 5.31 41.2561 5.06 41.2561 4.86C41.2561 4.38 41.1661 3.95 40.9861 3.57C40.8061 3.17 40.5561 2.84 40.2361 2.58C39.9361 2.3 39.5761 2.09 39.1561 1.95C38.7361 1.79 38.2961 1.71 37.8361 1.71ZM52.1147 12.81C52.3147 12.39 52.5547 11.97 52.8347 11.55C53.1347 11.11 53.4647 10.73 53.8247 10.41C54.2047 10.07 54.6147 9.8 55.0547 9.6C55.5147 9.38 55.9947 9.27 56.4947 9.27C57.3147 9.27 57.9547 9.55 58.4147 10.11C58.8947 10.65 59.1347 11.31 59.1347 12.09C59.1347 12.59 59.0347 13.05 58.8347 13.47C58.6547 13.89 58.3947 14.24 58.0547 14.52C57.7347 14.8 57.3547 15.02 56.9147 15.18C56.4947 15.34 56.0347 15.42 55.5347 15.42C55.5747 15.3 55.6047 15.18 55.6247 15.06C55.6447 14.94 55.6547 14.81 55.6547 14.67C55.6547 14.15 55.4747 13.72 55.1147 13.38C54.7747 13.02 54.3447 12.84 53.8247 12.84C53.6247 12.84 53.4247 12.89 53.2247 12.99C53.0247 13.07 52.8347 13.19 52.6547 13.35C52.4947 13.49 52.3647 13.66 52.2647 13.86C52.1647 14.04 52.1147 14.24 52.1147 14.46V19.92C52.1147 20.26 52.1247 20.63 52.1447 21.03C52.1847 21.43 52.2547 21.82 52.3547 22.2C52.4747 22.58 52.6347 22.93 52.8347 23.25C53.0347 23.57 53.2947 23.82 53.6147 24H46.2047C46.5247 23.82 46.7847 23.57 46.9847 23.25C47.1847 22.91 47.3347 22.56 47.4347 22.2C47.5547 21.82 47.6347 21.43 47.6747 21.03C47.7147 20.63 47.7347 20.26 47.7347 19.92V15.66C47.7347 15.24 47.6947 14.86 47.6147 14.52C47.5347 14.16 47.4247 13.83 47.2847 13.53C47.1447 13.23 46.9647 12.94 46.7447 12.66C46.5447 12.36 46.3147 12.05 46.0547 11.73C46.7547 11.61 47.3447 11.5 47.8247 11.4C48.3247 11.28 48.7847 11.14 49.2047 10.98C49.6447 10.82 50.0847 10.63 50.5247 10.41C50.9847 10.17 51.5147 9.87 52.1147 9.51V12.81ZM65.9639 24L63.2339 17.19C63.0539 16.73 62.8139 16.11 62.5139 15.33C62.2139 14.55 61.8839 13.76 61.5239 12.96C61.1639 12.16 60.7639 11.44 60.3239 10.8C59.9039 10.14 59.4639 9.71 59.0039 9.51H67.2839C66.7839 9.67 66.4139 9.97 66.1739 10.41C65.9339 10.85 65.8139 11.33 65.8139 11.85C65.8139 12.27 65.9439 12.89 66.2039 13.71C66.4639 14.53 66.7639 15.39 67.1039 16.29C67.4639 17.19 67.8139 18.06 68.1539 18.9C68.5139 19.72 68.7939 20.36 68.9939 20.82C69.2139 20.26 69.4439 19.68 69.6839 19.08C69.9439 18.46 70.1739 17.84 70.3739 17.22C70.5939 16.58 70.7739 15.94 70.9139 15.3C71.0539 14.66 71.1239 14.04 71.1239 13.44C71.1239 12.48 70.9139 11.67 70.4939 11.01C70.0739 10.35 69.4139 9.85 68.5139 9.51H75.4739C75.0139 9.71 74.5639 10.14 74.1239 10.8C73.7039 11.46 73.3039 12.19 72.9239 12.99C72.5639 13.77 72.2339 14.56 71.9339 15.36C71.6339 16.14 71.3939 16.77 71.2139 17.25L68.5139 24C68.2539 24.66 67.9639 25.37 67.6439 26.13C67.3439 26.89 66.9739 27.6 66.5339 28.26C66.1139 28.92 65.6039 29.47 65.0039 29.91C64.4039 30.35 63.6739 30.57 62.8139 30.57C62.3539 30.57 61.9139 30.51 61.4939 30.39C61.0939 30.29 60.7339 30.12 60.4139 29.88C60.1139 29.66 59.8739 29.37 59.6939 29.01C59.5139 28.65 59.4239 28.22 59.4239 27.72C59.4239 27.46 59.4639 27.16 59.5439 26.82C59.6239 26.5 59.7439 26.2 59.9039 25.92C60.0839 25.64 60.2939 25.4 60.5339 25.2C60.7739 25.02 61.0539 24.93 61.3739 24.93C61.3739 25.65 61.6039 26.18 62.0639 26.52C62.5439 26.86 63.1139 27.03 63.7739 27.03C64.0539 27.03 64.3939 26.98 64.7939 26.88C65.1939 26.78 65.5739 26.63 65.9339 26.43C66.3139 26.25 66.6339 26.02 66.8939 25.74C67.1539 25.46 67.2839 25.14 67.2839 24.78C67.2839 24.46 67.1239 24.25 66.8039 24.15C66.4839 24.05 66.2039 24 65.9639 24ZM76.2405 26.58V15.63C76.2405 15.21 76.2005 14.83 76.1205 14.49C76.0405 14.13 75.9305 13.8 75.7905 13.5C75.6505 13.2 75.4705 12.91 75.2505 12.63C75.0505 12.33 74.8205 12.02 74.5605 11.7C75.2605 11.58 75.8505 11.47 76.3305 11.37C76.8305 11.25 77.2905 11.11 77.7105 10.95C78.1505 10.79 78.5905 10.6 79.0305 10.38C79.4905 10.14 80.0205 9.85 80.6205 9.51V11.67C80.8805 11.37 81.1505 11.08 81.4305 10.8C81.7305 10.5 82.0205 10.23 82.3005 9.99C82.6005 9.75 82.8905 9.56 83.1705 9.42C83.4705 9.26 83.7405 9.18 83.9805 9.18C85.0205 9.18 85.9405 9.38 86.7405 9.78C87.5405 10.18 88.2105 10.72 88.7505 11.4C89.3105 12.06 89.7305 12.83 90.0105 13.71C90.2905 14.59 90.4305 15.51 90.4305 16.47C90.4305 17.49 90.2805 18.47 89.9805 19.41C89.6805 20.35 89.2305 21.18 88.6305 21.9C88.0505 22.62 87.3305 23.2 86.4705 23.64C85.6305 24.06 84.6705 24.27 83.5905 24.27C82.9105 24.27 82.3605 24.22 81.9405 24.12C81.5205 24.04 81.0805 23.92 80.6205 23.76V26.58C80.6205 26.92 80.6305 27.29 80.6505 27.69C80.6905 28.09 80.7605 28.47 80.8605 28.83C80.9805 29.21 81.1405 29.56 81.3405 29.88C81.5405 30.2 81.8005 30.46 82.1205 30.66H74.7105C75.0505 30.46 75.3205 30.2 75.5205 29.88C75.7205 29.56 75.8705 29.21 75.9705 28.83C76.0705 28.47 76.1405 28.09 76.1805 27.69C76.2205 27.29 76.2405 26.92 76.2405 26.58ZM80.6205 12.03V19.62C80.6205 20 80.6505 20.42 80.7105 20.88C80.7705 21.34 80.8905 21.77 81.0705 22.17C81.2505 22.55 81.4905 22.87 81.7905 23.13C82.1105 23.39 82.5205 23.52 83.0205 23.52C83.6405 23.52 84.1605 23.35 84.5805 23.01C85.0005 22.65 85.3305 22.21 85.5705 21.69C85.8305 21.17 86.0105 20.62 86.1105 20.04C86.2305 19.44 86.2905 18.89 86.2905 18.39C86.2905 17.61 86.1905 16.83 85.9905 16.05C85.7905 15.27 85.4805 14.57 85.0605 13.95C84.6405 13.31 84.1005 12.8 83.4405 12.42C82.8005 12.02 82.0405 11.82 81.1605 11.82C81.0205 11.82 80.8405 11.89 80.6205 12.03ZM96.3809 9.51H99.5009V10.23H96.3809V20.85C96.3809 21.43 96.5709 21.85 96.9509 22.11C97.3509 22.35 97.8109 22.47 98.3309 22.47C98.6109 22.47 98.8809 22.44 99.1409 22.38C99.4209 22.32 99.6809 22.22 99.9209 22.08V22.38C99.3209 22.94 98.6209 23.4 97.8209 23.76C97.0409 24.12 96.2309 24.3 95.3909 24.3C94.7909 24.3 94.2709 24.19 93.8309 23.97C93.4109 23.75 93.0609 23.46 92.7809 23.1C92.5209 22.72 92.3209 22.29 92.1809 21.81C92.0609 21.31 92.0009 20.79 92.0009 20.25V10.23H90.5309V9.78C91.2309 9.72 91.8609 9.6 92.4209 9.42C92.9809 9.24 93.4809 9 93.9209 8.7C94.3609 8.38 94.7409 7.98 95.0609 7.5C95.4009 7.02 95.6909 6.44 95.9309 5.76H96.3809V9.51ZM106.377 9.27C107.417 9.27 108.377 9.47 109.257 9.87C110.137 10.27 110.897 10.82 111.537 11.52C112.197 12.2 112.707 13 113.067 13.92C113.427 14.82 113.607 15.78 113.607 16.8C113.607 17.82 113.427 18.79 113.067 19.71C112.707 20.61 112.197 21.4 111.537 22.08C110.897 22.76 110.137 23.3 109.257 23.7C108.377 24.1 107.417 24.3 106.377 24.3C105.337 24.3 104.367 24.1 103.467 23.7C102.587 23.3 101.827 22.76 101.187 22.08C100.547 21.4 100.037 20.61 99.657 19.71C99.297 18.79 99.117 17.82 99.117 16.8C99.117 15.78 99.297 14.82 99.657 13.92C100.037 13 100.547 12.2 101.187 11.52C101.827 10.82 102.587 10.27 103.467 9.87C104.367 9.47 105.337 9.27 106.377 9.27ZM107.337 23.49C107.797 23.49 108.157 23.32 108.417 22.98C108.677 22.64 108.877 22.24 109.017 21.78C109.157 21.3 109.247 20.81 109.287 20.31C109.327 19.81 109.347 19.41 109.347 19.11C109.347 18.73 109.317 18.24 109.257 17.64C109.197 17.04 109.097 16.41 108.957 15.75C108.817 15.09 108.637 14.43 108.417 13.77C108.217 13.09 107.957 12.49 107.637 11.97C107.317 11.43 106.947 10.99 106.527 10.65C106.127 10.31 105.657 10.14 105.117 10.14C104.697 10.14 104.367 10.3 104.127 10.62C103.887 10.94 103.707 11.32 103.587 11.76C103.467 12.2 103.387 12.65 103.347 13.11C103.327 13.57 103.317 13.94 103.317 14.22C103.317 14.58 103.347 15.06 103.407 15.66C103.467 16.24 103.557 16.88 103.677 17.58C103.817 18.26 103.987 18.95 104.187 19.65C104.407 20.35 104.667 20.99 104.967 21.57C105.267 22.13 105.607 22.59 105.987 22.95C106.387 23.31 106.837 23.49 107.337 23.49ZM125.736 9.51H128.856V10.23H125.736V20.85C125.736 21.43 125.926 21.85 126.306 22.11C126.706 22.35 127.166 22.47 127.686 22.47C127.966 22.47 128.236 22.44 128.496 22.38C128.776 22.32 129.036 22.22 129.276 22.08V22.38C128.676 22.94 127.976 23.4 127.176 23.76C126.396 24.12 125.586 24.3 124.746 24.3C124.146 24.3 123.626 24.19 123.186 23.97C122.766 23.75 122.416 23.46 122.136 23.1C121.876 22.72 121.676 22.29 121.536 21.81C121.416 21.31 121.356 20.79 121.356 20.25V10.23H119.886V9.78C120.586 9.72 121.216 9.6 121.776 9.42C122.336 9.24 122.836 9 123.276 8.7C123.716 8.38 124.096 7.98 124.416 7.5C124.756 7.02 125.046 6.44 125.286 5.76H125.736V9.51ZM130.528 8.88C130.528 8.46 130.488 8.08 130.408 7.74C130.328 7.38 130.218 7.05 130.078 6.75C129.938 6.45 129.758 6.16 129.538 5.88C129.338 5.58 129.108 5.27 128.848 4.95C129.968 4.77 131.008 4.5 131.968 4.14C132.948 3.76 133.928 3.29 134.908 2.73V11.91C134.968 11.81 135.218 11.62 135.658 11.34C136.098 11.04 136.568 10.74 137.068 10.44C137.588 10.14 138.068 9.87 138.508 9.63C138.968 9.39 139.238 9.27 139.318 9.27C139.998 9.27 140.588 9.4 141.088 9.66C141.588 9.92 141.998 10.27 142.318 10.71C142.658 11.15 142.908 11.66 143.068 12.24C143.248 12.82 143.338 13.42 143.338 14.04V19.92C143.338 20.26 143.358 20.63 143.398 21.03C143.438 21.43 143.508 21.82 143.608 22.2C143.708 22.58 143.858 22.93 144.058 23.25C144.278 23.57 144.548 23.82 144.868 24H137.458C137.778 23.82 138.038 23.57 138.238 23.25C138.438 22.91 138.588 22.56 138.688 22.2C138.788 21.82 138.858 21.43 138.898 21.03C138.938 20.63 138.958 20.26 138.958 19.92V14.16C138.958 13.86 138.928 13.55 138.868 13.23C138.808 12.91 138.708 12.62 138.568 12.36C138.428 12.1 138.228 11.89 137.968 11.73C137.728 11.57 137.428 11.49 137.068 11.49C136.728 11.49 136.418 11.57 136.138 11.73C135.878 11.89 135.658 12.1 135.478 12.36C135.298 12.62 135.158 12.91 135.058 13.23C134.958 13.55 134.908 13.86 134.908 14.16V19.92C134.908 20.26 134.918 20.63 134.938 21.03C134.978 21.43 135.048 21.82 135.148 22.2C135.248 22.58 135.398 22.93 135.598 23.25C135.798 23.57 136.068 23.82 136.408 24H128.998C129.318 23.82 129.578 23.57 129.778 23.25C129.978 22.91 130.128 22.56 130.228 22.2C130.348 21.82 130.428 21.43 130.468 21.03C130.508 20.63 130.528 20.26 130.528 19.92V8.88ZM149.38 16.65C149.52 17.27 149.73 17.86 150.01 18.42C150.29 18.96 150.64 19.44 151.06 19.86C151.48 20.26 151.97 20.58 152.53 20.82C153.11 21.06 153.76 21.18 154.48 21.18C154.7 21.18 154.96 21.17 155.26 21.15C155.58 21.11 155.9 21.06 156.22 21C156.54 20.94 156.84 20.86 157.12 20.76C157.42 20.64 157.65 20.5 157.81 20.34L158.05 20.52C157.37 21.76 156.56 22.7 155.62 23.34C154.7 23.98 153.5 24.3 152.02 24.3C150.98 24.3 150.01 24.11 149.11 23.73C148.23 23.35 147.47 22.83 146.83 22.17C146.21 21.49 145.72 20.7 145.36 19.8C145 18.9 144.82 17.93 144.82 16.89C144.82 15.89 144.97 14.93 145.27 14.01C145.59 13.09 146.04 12.28 146.62 11.58C147.22 10.88 147.94 10.32 148.78 9.9C149.62 9.48 150.57 9.27 151.63 9.27C152.59 9.27 153.46 9.42 154.24 9.72C155.04 10 155.71 10.42 156.25 10.98C156.81 11.52 157.24 12.18 157.54 12.96C157.84 13.74 157.99 14.61 157.99 15.57V16.29L149.38 16.65ZM153.97 13.17C153.97 12.83 153.9 12.47 153.76 12.09C153.64 11.71 153.46 11.37 153.22 11.07C152.98 10.75 152.7 10.49 152.38 10.29C152.06 10.09 151.71 9.99 151.33 9.99C150.89 9.99 150.53 10.17 150.25 10.53C149.97 10.89 149.75 11.32 149.59 11.82C149.43 12.3 149.31 12.8 149.23 13.32C149.17 13.84 149.14 14.25 149.14 14.55C149.14 14.99 149.17 15.44 149.23 15.9C149.63 15.86 150.03 15.81 150.43 15.75C150.83 15.69 151.23 15.63 151.63 15.57C152.31 15.47 152.87 15.23 153.31 14.85C153.75 14.47 153.97 13.91 153.97 13.17ZM172.278 24H164.838C165.178 23.8 165.448 23.55 165.648 23.25C165.848 22.93 165.998 22.58 166.098 22.2C166.218 21.82 166.288 21.44 166.308 21.06C166.348 20.66 166.368 20.28 166.368 19.92V5.34C166.368 5 166.348 4.63 166.308 4.23C166.268 3.83 166.198 3.44 166.098 3.06C165.998 2.68 165.848 2.33 165.648 2.01C165.448 1.69 165.178 1.44 164.838 1.26H179.958L180.468 8.31C180.128 7.41 179.718 6.57 179.238 5.79C178.758 5.01 178.198 4.34 177.558 3.78C176.918 3.22 176.178 2.78 175.338 2.46C174.518 2.14 173.588 1.98 172.548 1.98H170.748V12.12C171.288 12.12 171.818 12.11 172.338 12.09C172.878 12.07 173.418 12.03 173.958 11.97C174.598 11.91 175.138 11.8 175.578 11.64C176.038 11.48 176.418 11.26 176.718 10.98C177.038 10.7 177.298 10.35 177.498 9.93C177.718 9.49 177.918 8.96 178.098 8.34V17.58C177.878 16.4 177.568 15.49 177.168 14.85C176.768 14.21 176.268 13.74 175.668 13.44C175.068 13.14 174.358 12.97 173.538 12.93C172.738 12.87 171.808 12.84 170.748 12.84V19.92C170.748 20.28 170.758 20.66 170.778 21.06C170.818 21.44 170.888 21.82 170.988 22.2C171.108 22.58 171.268 22.93 171.468 23.25C171.668 23.55 171.938 23.8 172.278 24ZM185.617 9.51V19.35C185.617 19.65 185.647 19.96 185.707 20.28C185.767 20.6 185.867 20.89 186.007 21.15C186.147 21.41 186.337 21.62 186.577 21.78C186.837 21.94 187.147 22.02 187.507 22.02C188.087 22.02 188.537 21.83 188.857 21.45C189.197 21.07 189.427 20.63 189.547 20.13C189.547 19.73 189.557 19.34 189.577 18.96C189.597 18.58 189.607 18.21 189.607 17.85V13.59C189.607 13.25 189.587 12.88 189.547 12.48C189.527 12.08 189.467 11.69 189.367 11.31C189.267 10.93 189.117 10.58 188.917 10.26C188.717 9.94 188.447 9.69 188.107 9.51H193.987V19.29C193.987 20.27 194.107 21.11 194.347 21.81C194.607 22.51 195.047 23.24 195.667 24H190.297C190.197 23.62 190.087 23.23 189.967 22.83C189.847 22.41 189.747 22 189.667 21.6C189.607 21.7 189.357 21.9 188.917 22.2C188.477 22.48 187.997 22.77 187.477 23.07C186.977 23.37 186.507 23.64 186.067 23.88C185.627 24.12 185.357 24.24 185.257 24.24C184.577 24.24 183.987 24.11 183.487 23.85C182.987 23.59 182.567 23.24 182.227 22.8C181.907 22.36 181.657 21.85 181.477 21.27C181.317 20.69 181.237 20.09 181.237 19.47V13.59C181.237 13.25 181.217 12.88 181.177 12.48C181.137 12.08 181.067 11.69 180.967 11.31C180.867 10.93 180.717 10.58 180.517 10.26C180.317 9.94 180.047 9.69 179.707 9.51H185.617ZM201.674 9.51H204.794V10.23H201.674V20.85C201.674 21.43 201.864 21.85 202.244 22.11C202.644 22.35 203.104 22.47 203.624 22.47C203.904 22.47 204.174 22.44 204.434 22.38C204.714 22.32 204.974 22.22 205.214 22.08V22.38C204.614 22.94 203.914 23.4 203.114 23.76C202.334 24.12 201.524 24.3 200.684 24.3C200.084 24.3 199.564 24.19 199.124 23.97C198.704 23.75 198.354 23.46 198.074 23.1C197.814 22.72 197.614 22.29 197.474 21.81C197.354 21.31 197.294 20.79 197.294 20.25V10.23H195.824V9.78C196.524 9.72 197.154 9.6 197.714 9.42C198.274 9.24 198.774 9 199.214 8.7C199.654 8.38 200.034 7.98 200.354 7.5C200.694 7.02 200.984 6.44 201.224 5.76H201.674V9.51ZM209.787 9.51V19.35C209.787 19.65 209.817 19.96 209.877 20.28C209.937 20.6 210.037 20.89 210.177 21.15C210.317 21.41 210.507 21.62 210.747 21.78C211.007 21.94 211.317 22.02 211.677 22.02C212.257 22.02 212.707 21.83 213.027 21.45C213.367 21.07 213.597 20.63 213.717 20.13C213.717 19.73 213.727 19.34 213.747 18.96C213.767 18.58 213.777 18.21 213.777 17.85V13.59C213.777 13.25 213.757 12.88 213.717 12.48C213.697 12.08 213.637 11.69 213.537 11.31C213.437 10.93 213.287 10.58 213.087 10.26C212.887 9.94 212.617 9.69 212.277 9.51H218.157V19.29C218.157 20.27 218.277 21.11 218.517 21.81C218.777 22.51 219.217 23.24 219.837 24H214.467C214.367 23.62 214.257 23.23 214.137 22.83C214.017 22.41 213.917 22 213.837 21.6C213.777 21.7 213.527 21.9 213.087 22.2C212.647 22.48 212.167 22.77 211.647 23.07C211.147 23.37 210.677 23.64 210.237 23.88C209.797 24.12 209.527 24.24 209.427 24.24C208.747 24.24 208.157 24.11 207.657 23.85C207.157 23.59 206.737 23.24 206.397 22.8C206.077 22.36 205.827 21.85 205.647 21.27C205.487 20.69 205.407 20.09 205.407 19.47V13.59C205.407 13.25 205.387 12.88 205.347 12.48C205.307 12.08 205.237 11.69 205.137 11.31C205.037 10.93 204.887 10.58 204.687 10.26C204.487 9.94 204.217 9.69 203.877 9.51H209.787ZM225.904 12.81C226.104 12.39 226.344 11.97 226.624 11.55C226.924 11.11 227.254 10.73 227.614 10.41C227.994 10.07 228.404 9.8 228.844 9.6C229.304 9.38 229.784 9.27 230.284 9.27C231.104 9.27 231.744 9.55 232.204 10.11C232.684 10.65 232.924 11.31 232.924 12.09C232.924 12.59 232.824 13.05 232.624 13.47C232.444 13.89 232.184 14.24 231.844 14.52C231.524 14.8 231.144 15.02 230.704 15.18C230.284 15.34 229.824 15.42 229.324 15.42C229.364 15.3 229.394 15.18 229.414 15.06C229.434 14.94 229.444 14.81 229.444 14.67C229.444 14.15 229.264 13.72 228.904 13.38C228.564 13.02 228.134 12.84 227.614 12.84C227.414 12.84 227.214 12.89 227.014 12.99C226.814 13.07 226.624 13.19 226.444 13.35C226.284 13.49 226.154 13.66 226.054 13.86C225.954 14.04 225.904 14.24 225.904 14.46V19.92C225.904 20.26 225.914 20.63 225.934 21.03C225.974 21.43 226.044 21.82 226.144 22.2C226.264 22.58 226.424 22.93 226.624 23.25C226.824 23.57 227.084 23.82 227.404 24H219.994C220.314 23.82 220.574 23.57 220.774 23.25C220.974 22.91 221.124 22.56 221.224 22.2C221.344 21.82 221.424 21.43 221.464 21.03C221.504 20.63 221.524 20.26 221.524 19.92V15.66C221.524 15.24 221.484 14.86 221.404 14.52C221.324 14.16 221.214 13.83 221.074 13.53C220.934 13.23 220.754 12.94 220.534 12.66C220.334 12.36 220.104 12.05 219.844 11.73C220.544 11.61 221.134 11.5 221.614 11.4C222.114 11.28 222.574 11.14 222.994 10.98C223.434 10.82 223.874 10.63 224.314 10.41C224.774 10.17 225.304 9.87 225.904 9.51V12.81ZM237.3 16.65C237.44 17.27 237.65 17.86 237.93 18.42C238.21 18.96 238.56 19.44 238.98 19.86C239.4 20.26 239.89 20.58 240.45 20.82C241.03 21.06 241.68 21.18 242.4 21.18C242.62 21.18 242.88 21.17 243.18 21.15C243.5 21.11 243.82 21.06 244.14 21C244.46 20.94 244.76 20.86 245.04 20.76C245.34 20.64 245.57 20.5 245.73 20.34L245.97 20.52C245.29 21.76 244.48 22.7 243.54 23.34C242.62 23.98 241.42 24.3 239.94 24.3C238.9 24.3 237.93 24.11 237.03 23.73C236.15 23.35 235.39 22.83 234.75 22.17C234.13 21.49 233.64 20.7 233.28 19.8C232.92 18.9 232.74 17.93 232.74 16.89C232.74 15.89 232.89 14.93 233.19 14.01C233.51 13.09 233.96 12.28 234.54 11.58C235.14 10.88 235.86 10.32 236.7 9.9C237.54 9.48 238.49 9.27 239.55 9.27C240.51 9.27 241.38 9.42 242.16 9.72C242.96 10 243.63 10.42 244.17 10.98C244.73 11.52 245.16 12.18 245.46 12.96C245.76 13.74 245.91 14.61 245.91 15.57V16.29L237.3 16.65ZM241.89 13.17C241.89 12.83 241.82 12.47 241.68 12.09C241.56 11.71 241.38 11.37 241.14 11.07C240.9 10.75 240.62 10.49 240.3 10.29C239.98 10.09 239.63 9.99 239.25 9.99C238.81 9.99 238.45 10.17 238.17 10.53C237.89 10.89 237.67 11.32 237.51 11.82C237.35 12.3 237.23 12.8 237.15 13.32C237.09 13.84 237.06 14.25 237.06 14.55C237.06 14.99 237.09 15.44 237.15 15.9C237.55 15.86 237.95 15.81 238.35 15.75C238.75 15.69 239.15 15.63 239.55 15.57C240.23 15.47 240.79 15.23 241.23 14.85C241.67 14.47 241.89 13.91 241.89 13.17ZM259.658 9.27C260.698 9.27 261.658 9.47 262.538 9.87C263.418 10.27 264.178 10.82 264.818 11.52C265.478 12.2 265.988 13 266.348 13.92C266.708 14.82 266.888 15.78 266.888 16.8C266.888 17.82 266.708 18.79 266.348 19.71C265.988 20.61 265.478 21.4 264.818 22.08C264.178 22.76 263.418 23.3 262.538 23.7C261.658 24.1 260.698 24.3 259.658 24.3C258.618 24.3 257.648 24.1 256.748 23.7C255.868 23.3 255.108 22.76 254.468 22.08C253.828 21.4 253.318 20.61 252.938 19.71C252.578 18.79 252.398 17.82 252.398 16.8C252.398 15.78 252.578 14.82 252.938 13.92C253.318 13 253.828 12.2 254.468 11.52C255.108 10.82 255.868 10.27 256.748 9.87C257.648 9.47 258.618 9.27 259.658 9.27ZM260.618 23.49C261.078 23.49 261.438 23.32 261.698 22.98C261.958 22.64 262.158 22.24 262.298 21.78C262.438 21.3 262.528 20.81 262.568 20.31C262.608 19.81 262.628 19.41 262.628 19.11C262.628 18.73 262.598 18.24 262.538 17.64C262.478 17.04 262.378 16.41 262.238 15.75C262.098 15.09 261.918 14.43 261.698 13.77C261.498 13.09 261.238 12.49 260.918 11.97C260.598 11.43 260.228 10.99 259.808 10.65C259.408 10.31 258.938 10.14 258.398 10.14C257.978 10.14 257.648 10.3 257.408 10.62C257.168 10.94 256.988 11.32 256.868 11.76C256.748 12.2 256.668 12.65 256.628 13.11C256.608 13.57 256.598 13.94 256.598 14.22C256.598 14.58 256.628 15.06 256.688 15.66C256.748 16.24 256.838 16.88 256.958 17.58C257.098 18.26 257.268 18.95 257.468 19.65C257.688 20.35 257.948 20.99 258.248 21.57C258.548 22.13 258.888 22.59 259.268 22.95C259.668 23.31 260.118 23.49 260.618 23.49ZM274.846 3.06C275.306 3.06 275.776 3.12 276.256 3.24C276.736 3.36 277.166 3.54 277.546 3.78C277.946 4.02 278.266 4.34 278.506 4.74C278.746 5.12 278.866 5.58 278.866 6.12C278.866 6.82 278.636 7.4 278.176 7.86C277.716 8.3 277.136 8.52 276.436 8.52C275.796 8.52 275.266 8.31 274.846 7.89C274.426 7.47 274.126 6.97 273.946 6.39C274.326 6.39 274.636 6.28 274.876 6.06C275.116 5.82 275.236 5.51 275.236 5.13C275.236 4.73 275.106 4.42 274.846 4.2C274.586 3.96 274.256 3.84 273.856 3.84C273.536 3.84 273.236 3.91 272.956 4.05C272.676 4.19 272.436 4.38 272.236 4.62C272.056 4.86 271.906 5.13 271.786 5.43C271.686 5.73 271.636 6.03 271.636 6.33C271.636 6.95 271.786 7.47 272.086 7.89C272.406 8.29 272.806 8.61 273.286 8.85C273.766 9.09 274.286 9.26 274.846 9.36C275.406 9.46 275.936 9.51 276.436 9.51V10.23H273.016V19.92C273.016 20.26 273.026 20.63 273.046 21.03C273.086 21.43 273.156 21.82 273.256 22.2C273.356 22.58 273.506 22.93 273.706 23.25C273.906 23.57 274.176 23.82 274.516 24H267.106C267.426 23.82 267.686 23.57 267.886 23.25C268.086 22.91 268.236 22.56 268.336 22.2C268.456 21.82 268.536 21.43 268.576 21.03C268.616 20.63 268.636 20.26 268.636 19.92V10.23H266.986V9.51H268.696C268.696 8.55 268.826 7.68 269.086 6.9C269.366 6.1 269.766 5.42 270.286 4.86C270.806 4.28 271.446 3.84 272.206 3.54C272.986 3.22 273.866 3.06 274.846 3.06ZM292.835 24H285.395C285.735 23.8 286.005 23.55 286.205 23.25C286.405 22.93 286.555 22.58 286.655 22.2C286.775 21.82 286.845 21.44 286.865 21.06C286.905 20.66 286.925 20.28 286.925 19.92V5.34C286.925 5 286.905 4.63 286.865 4.23C286.825 3.83 286.755 3.44 286.655 3.06C286.555 2.68 286.405 2.33 286.205 2.01C286.005 1.69 285.735 1.44 285.395 1.26H300.515L301.025 8.31C300.685 7.41 300.275 6.57 299.795 5.79C299.315 5.01 298.755 4.34 298.115 3.78C297.475 3.22 296.735 2.78 295.895 2.46C295.075 2.14 294.145 1.98 293.105 1.98H291.305V12.12C291.845 12.12 292.375 12.11 292.895 12.09C293.435 12.07 293.975 12.03 294.515 11.97C295.155 11.91 295.695 11.8 296.135 11.64C296.595 11.48 296.975 11.26 297.275 10.98C297.595 10.7 297.855 10.35 298.055 9.93C298.275 9.49 298.475 8.96 298.655 8.34V17.58C298.435 16.4 298.125 15.49 297.725 14.85C297.325 14.21 296.825 13.74 296.225 13.44C295.625 13.14 294.915 12.97 294.095 12.93C293.295 12.87 292.365 12.84 291.305 12.84V19.92C291.305 20.28 291.315 20.66 291.335 21.06C291.375 21.44 291.445 21.82 291.545 22.2C291.665 22.58 291.825 22.93 292.025 23.25C292.225 23.55 292.495 23.8 292.835 24ZM310.705 15.66C310.705 15.24 310.665 14.86 310.585 14.52C310.505 14.16 310.395 13.83 310.255 13.53C310.115 13.23 309.935 12.94 309.715 12.66C309.515 12.36 309.285 12.05 309.025 11.73C309.605 11.63 310.185 11.47 310.765 11.25C311.365 11.01 311.895 10.71 312.355 10.35C312.815 9.97 313.185 9.52 313.465 9C313.765 8.48 313.915 7.88 313.915 7.2C313.915 6.52 313.765 5.92 313.465 5.4C313.185 4.86 312.805 4.41 312.325 4.05C311.865 3.69 311.335 3.42 310.735 3.24C310.135 3.04 309.525 2.94 308.905 2.94C308.205 2.94 307.505 3.06 306.805 3.3C306.105 3.52 305.525 3.9 305.065 4.44C305.665 4.44 306.175 4.66 306.595 5.1C307.035 5.52 307.255 6.03 307.255 6.63C307.255 7.23 307.035 7.75 306.595 8.19C306.175 8.61 305.665 8.82 305.065 8.82C304.465 8.82 303.945 8.61 303.505 8.19C303.085 7.75 302.875 7.23 302.875 6.63C302.875 5.83 303.085 5.16 303.505 4.62C303.945 4.06 304.485 3.61 305.125 3.27C305.765 2.91 306.455 2.65 307.195 2.49C307.955 2.33 308.665 2.25 309.325 2.25C310.105 2.25 310.875 2.36 311.635 2.58C312.395 2.78 313.065 3.09 313.645 3.51C314.245 3.93 314.725 4.46 315.085 5.1C315.465 5.74 315.655 6.5 315.655 7.38C315.655 8.18 315.465 8.89 315.085 9.51V11.82C315.145 11.76 315.285 11.66 315.505 11.52C315.725 11.36 315.985 11.19 316.285 11.01C316.585 10.81 316.905 10.61 317.245 10.41C317.605 10.21 317.935 10.03 318.235 9.87C318.535 9.69 318.795 9.55 319.015 9.45C319.235 9.33 319.375 9.27 319.435 9.27C320.115 9.27 320.705 9.4 321.205 9.66C321.705 9.92 322.115 10.27 322.435 10.71C322.775 11.15 323.025 11.66 323.185 12.24C323.365 12.82 323.455 13.42 323.455 14.04V19.92C323.455 20.26 323.475 20.63 323.515 21.03C323.555 21.43 323.625 21.82 323.725 22.2C323.825 22.58 323.975 22.93 324.175 23.25C324.395 23.57 324.665 23.82 324.985 24H317.575C317.895 23.82 318.155 23.57 318.355 23.25C318.555 22.91 318.705 22.56 318.805 22.2C318.905 21.82 318.975 21.43 319.015 21.03C319.055 20.63 319.075 20.26 319.075 19.92V14.16C319.075 13.86 319.045 13.55 318.985 13.23C318.925 12.91 318.825 12.62 318.685 12.36C318.545 12.1 318.345 11.89 318.085 11.73C317.845 11.57 317.545 11.49 317.185 11.49C316.925 11.49 316.665 11.56 316.405 11.7C316.165 11.82 315.945 11.98 315.745 12.18C315.545 12.38 315.385 12.61 315.265 12.87C315.145 13.11 315.085 13.36 315.085 13.62V19.92C315.085 20.26 315.095 20.63 315.115 21.03C315.155 21.43 315.225 21.82 315.325 22.2C315.425 22.58 315.575 22.93 315.775 23.25C315.975 23.57 316.245 23.82 316.585 24H309.175C309.495 23.82 309.755 23.57 309.955 23.25C310.155 22.91 310.305 22.56 310.405 22.2C310.525 21.82 310.605 21.43 310.645 21.03C310.685 20.63 310.705 20.26 310.705 19.92V15.66ZM301.465 11.73C302.165 11.61 302.755 11.5 303.235 11.4C303.735 11.28 304.195 11.14 304.615 10.98C305.055 10.82 305.495 10.63 305.935 10.41C306.395 10.17 306.925 9.87 307.525 9.51V19.92C307.525 20.26 307.535 20.63 307.555 21.03C307.595 21.43 307.665 21.82 307.765 22.2C307.865 22.58 308.015 22.93 308.215 23.25C308.415 23.57 308.685 23.82 309.025 24H301.615C301.935 23.82 302.195 23.57 302.395 23.25C302.595 22.91 302.745 22.56 302.845 22.2C302.965 21.82 303.045 21.43 303.085 21.03C303.125 20.63 303.145 20.26 303.145 19.92V15.66C303.145 15.24 303.105 14.86 303.025 14.52C302.945 14.16 302.835 13.83 302.695 13.53C302.555 13.23 302.375 12.94 302.155 12.66C301.955 12.36 301.725 12.05 301.465 11.73ZM327.72 15.72C327.08 15.72 326.59 15.49 326.25 15.03C325.93 14.55 325.77 14.02 325.77 13.44C325.77 12.68 325.95 12.04 326.31 11.52C326.69 11 327.16 10.57 327.72 10.23C328.3 9.89 328.93 9.65 329.61 9.51C330.31 9.35 330.97 9.27 331.59 9.27C332.35 9.27 333.06 9.38 333.72 9.6C334.38 9.8 334.95 10.11 335.43 10.53C335.93 10.95 336.32 11.47 336.6 12.09C336.88 12.69 337.02 13.39 337.02 14.19V21.09C337.02 21.23 337.03 21.41 337.05 21.63C337.07 21.83 337.11 22.03 337.17 22.23C337.23 22.43 337.32 22.6 337.44 22.74C337.58 22.88 337.75 22.95 337.95 22.95C338.17 22.95 338.37 22.89 338.55 22.77V23.07C338.05 23.45 337.59 23.75 337.17 23.97C336.75 24.19 336.21 24.3 335.55 24.3C335.23 24.3 334.89 24.24 334.53 24.12C334.19 24.02 333.88 23.87 333.6 23.67C333.32 23.47 333.09 23.22 332.91 22.92C332.73 22.62 332.64 22.29 332.64 21.93V15.66C330.64 16.8 329.64 18.55 329.64 20.91C329.64 21.71 329.77 22.44 330.03 23.1C330.31 23.74 330.69 24.29 331.17 24.75C331.65 25.21 332.22 25.56 332.88 25.8C333.54 26.06 334.26 26.19 335.04 26.19C335.92 26.19 336.69 26.03 337.35 25.71C338.01 25.41 338.56 24.99 339 24.45C339.46 23.91 339.8 23.28 340.02 22.56C340.26 21.84 340.38 21.06 340.38 20.22V15.66C340.38 15.24 340.34 14.86 340.26 14.52C340.18 14.16 340.07 13.83 339.93 13.53C339.79 13.23 339.61 12.94 339.39 12.66C339.19 12.36 338.96 12.05 338.7 11.73C339.4 11.61 339.99 11.5 340.47 11.4C340.97 11.28 341.43 11.14 341.85 10.98C342.29 10.8 342.73 10.6 343.17 10.38C343.63 10.14 344.16 9.85 344.76 9.51V11.82C344.82 11.76 344.96 11.66 345.18 11.52C345.4 11.36 345.66 11.19 345.96 11.01C346.26 10.81 346.58 10.61 346.92 10.41C347.28 10.21 347.61 10.03 347.91 9.87C348.21 9.69 348.47 9.55 348.69 9.45C348.91 9.33 349.05 9.27 349.11 9.27C349.79 9.27 350.38 9.4 350.88 9.66C351.38 9.92 351.79 10.27 352.11 10.71C352.45 11.15 352.7 11.66 352.86 12.24C353.04 12.82 353.13 13.42 353.13 14.04V19.92C353.13 20.26 353.15 20.63 353.19 21.03C353.23 21.43 353.3 21.82 353.4 22.2C353.5 22.58 353.65 22.93 353.85 23.25C354.07 23.57 354.34 23.82 354.66 24H347.25C347.57 23.82 347.83 23.57 348.03 23.25C348.23 22.91 348.38 22.56 348.48 22.2C348.58 21.82 348.65 21.43 348.69 21.03C348.73 20.63 348.75 20.26 348.75 19.92V14.16C348.75 13.86 348.72 13.55 348.66 13.23C348.6 12.91 348.5 12.62 348.36 12.36C348.22 12.1 348.02 11.89 347.76 11.73C347.52 11.57 347.22 11.49 346.86 11.49C346.6 11.49 346.34 11.55 346.08 11.67C345.84 11.79 345.62 11.95 345.42 12.15C345.22 12.35 345.06 12.58 344.94 12.84C344.82 13.1 344.76 13.36 344.76 13.62C344.74 13.96 344.73 14.3 344.73 14.64C344.75 14.98 344.76 15.32 344.76 15.66V20.43C344.76 21.73 344.42 22.81 343.74 23.67C343.08 24.51 342.24 25.18 341.22 25.68C340.2 26.18 339.09 26.52 337.89 26.7C336.71 26.9 335.6 27 334.56 27C333.58 27 332.54 26.92 331.44 26.76C330.36 26.6 329.36 26.3 328.44 25.86C327.52 25.42 326.75 24.81 326.13 24.03C325.53 23.25 325.23 22.25 325.23 21.03C325.23 20.19 325.49 19.45 326.01 18.81C326.55 18.15 327.2 17.58 327.96 17.1C328.74 16.6 329.55 16.17 330.39 15.81C331.25 15.45 332 15.15 332.64 14.91C332.64 14.61 332.65 14.19 332.67 13.65C332.69 13.09 332.67 12.54 332.61 12C332.55 11.46 332.42 10.99 332.22 10.59C332.02 10.19 331.69 9.99 331.23 9.99C331.01 9.99 330.81 10.05 330.63 10.17C330.45 10.29 330.29 10.44 330.15 10.62C330.03 10.8 329.93 11 329.85 11.22C329.79 11.42 329.76 11.62 329.76 11.82C329.76 12.18 329.87 12.45 330.09 12.63C330.31 12.81 330.59 12.9 330.93 12.9C330.71 13.64 330.33 14.3 329.79 14.88C329.25 15.44 328.56 15.72 327.72 15.72ZM362.078 14.19C362.578 14.19 363.038 14.08 363.458 13.86C363.878 13.64 364.088 13.24 364.088 12.66C364.088 12.32 364.008 11.99 363.848 11.67C363.708 11.35 363.508 11.07 363.248 10.83C363.008 10.57 362.728 10.37 362.408 10.23C362.088 10.07 361.758 9.99 361.418 9.99C360.998 9.99 360.658 10.16 360.398 10.5C360.138 10.82 359.928 11.21 359.768 11.67C359.628 12.13 359.528 12.6 359.468 13.08C359.408 13.56 359.378 13.95 359.378 14.25C359.378 15.09 359.488 15.93 359.708 16.77C359.928 17.59 360.258 18.33 360.698 18.99C361.158 19.65 361.738 20.18 362.438 20.58C363.138 20.98 363.968 21.18 364.928 21.18C365.148 21.18 365.408 21.17 365.708 21.15C366.028 21.11 366.348 21.06 366.668 21C366.988 20.94 367.288 20.86 367.568 20.76C367.868 20.64 368.098 20.5 368.258 20.34L368.498 20.52C367.098 23.04 364.968 24.3 362.108 24.3C361.068 24.3 360.098 24.11 359.198 23.73C358.318 23.35 357.558 22.83 356.918 22.17C356.298 21.49 355.808 20.7 355.448 19.8C355.088 18.9 354.908 17.93 354.908 16.89C354.908 15.89 355.058 14.93 355.358 14.01C355.678 13.09 356.128 12.28 356.708 11.58C357.308 10.88 358.028 10.32 358.868 9.9C359.708 9.48 360.658 9.27 361.718 9.27C362.458 9.27 363.198 9.38 363.938 9.6C364.678 9.82 365.348 10.15 365.948 10.59C366.548 11.01 367.028 11.54 367.388 12.18C367.768 12.82 367.958 13.55 367.958 14.37C367.958 15.15 367.738 15.78 367.298 16.26C366.858 16.74 366.228 16.98 365.408 16.98C364.488 16.98 363.768 16.73 363.248 16.23C362.728 15.71 362.338 15.03 362.078 14.19ZM373.296 16.65C373.436 17.27 373.646 17.86 373.926 18.42C374.206 18.96 374.556 19.44 374.976 19.86C375.396 20.26 375.886 20.58 376.446 20.82C377.026 21.06 377.676 21.18 378.396 21.18C378.616 21.18 378.876 21.17 379.176 21.15C379.496 21.11 379.816 21.06 380.136 21C380.456 20.94 380.756 20.86 381.036 20.76C381.336 20.64 381.566 20.5 381.726 20.34L381.966 20.52C381.286 21.76 380.476 22.7 379.536 23.34C378.616 23.98 377.416 24.3 375.936 24.3C374.896 24.3 373.926 24.11 373.026 23.73C372.146 23.35 371.386 22.83 370.746 22.17C370.126 21.49 369.636 20.7 369.276 19.8C368.916 18.9 368.736 17.93 368.736 16.89C368.736 15.89 368.886 14.93 369.186 14.01C369.506 13.09 369.956 12.28 370.536 11.58C371.136 10.88 371.856 10.32 372.696 9.9C373.536 9.48 374.486 9.27 375.546 9.27C376.506 9.27 377.376 9.42 378.156 9.72C378.956 10 379.626 10.42 380.166 10.98C380.726 11.52 381.156 12.18 381.456 12.96C381.756 13.74 381.906 14.61 381.906 15.57V16.29L373.296 16.65ZM377.886 13.17C377.886 12.83 377.816 12.47 377.676 12.09C377.556 11.71 377.376 11.37 377.136 11.07C376.896 10.75 376.616 10.49 376.296 10.29C375.976 10.09 375.626 9.99 375.246 9.99C374.806 9.99 374.446 10.17 374.166 10.53C373.886 10.89 373.666 11.32 373.506 11.82C373.346 12.3 373.226 12.8 373.146 13.32C373.086 13.84 373.056 14.25 373.056 14.55C373.056 14.99 373.086 15.44 373.146 15.9C373.546 15.86 373.946 15.81 374.346 15.75C374.746 15.69 375.146 15.63 375.546 15.57C376.226 15.47 376.786 15.23 377.226 14.85C377.666 14.47 377.886 13.91 377.886 13.17Z" fill="#1E2C31"/>
</svg>
