<svg width="1437" height="703" viewBox="0 0 1437 703" fill="none" xmlns="http://www.w3.org/2000/svg">
<g clip-path="url(#clip0_3466_31791)">
<rect y="-108" width="1440" height="971" fill="#021A3C"/>
<g opacity="0.1" filter="url(#filter0_f_3466_31791)">
<circle cx="1169" cy="515" r="330" fill="#288A6B"/>
</g>
<g opacity="0.1" filter="url(#filter1_f_3466_31791)">
<circle cx="231" cy="476" r="330" fill="#394DFF"/>
</g>
<g opacity="0.1" filter="url(#filter2_f_3466_31791)">
<circle cx="451" cy="640" r="330" fill="#E962FF"/>
</g>
<g opacity="0.1" filter="url(#filter3_f_3466_31791)">
<circle cx="926" cy="628" r="330" fill="#28896B"/>
</g>
<path d="M250.902 101.941L254.862 105.902L250.902 109.862L246.941 105.902L250.902 101.941Z" fill="white"/>
<rect x="250.504" y="96" width="0.792079" height="7.52475" fill="white"/>
<rect x="250.504" y="108.277" width="0.792079" height="7.52475" fill="white"/>
<rect x="253.477" y="106.496" width="0.792079" height="7.52475" transform="rotate(-90 253.477 106.496)" fill="white"/>
<rect x="241" y="106.496" width="0.792079" height="7.52475" transform="rotate(-90 241 106.496)" fill="white"/>
<path d="M760.502 32.9023L763.102 35.5023L760.502 38.1023L757.902 35.5023L760.502 32.9023Z" fill="white"/>
<rect x="760.238" y="29" width="0.52" height="4.94" fill="white"/>
<rect x="760.238" y="37.0586" width="0.52" height="4.94" fill="white"/>
<rect x="762.191" y="35.8906" width="0.52" height="4.94" transform="rotate(-90 762.191 35.8906)" fill="white"/>
<rect x="754" y="35.8906" width="0.52" height="4.94" transform="rotate(-90 754 35.8906)" fill="white"/>
<path d="M1282.9 434.941L1286.86 438.902L1282.9 442.862L1278.94 438.902L1282.9 434.941Z" fill="white"/>
<rect x="1282.5" y="429" width="0.792079" height="7.52475" fill="white"/>
<rect x="1282.5" y="441.277" width="0.792079" height="7.52475" fill="white"/>
<rect x="1285.48" y="439.496" width="0.792079" height="7.52475" transform="rotate(-90 1285.48 439.496)" fill="white"/>
<rect x="1273" y="439.496" width="0.792079" height="7.52475" transform="rotate(-90 1273 439.496)" fill="white"/>
<path d="M1239.5 70.9023L1242.1 73.5023L1239.5 76.1023L1236.9 73.5023L1239.5 70.9023Z" fill="white"/>
<rect x="1239.24" y="67" width="0.52" height="4.94" fill="white"/>
<rect x="1239.24" y="75.0586" width="0.52" height="4.94" fill="white"/>
<rect x="1241.19" y="73.8906" width="0.52" height="4.94" transform="rotate(-90 1241.19 73.8906)" fill="white"/>
<rect x="1233" y="73.8906" width="0.52" height="4.94" transform="rotate(-90 1233 73.8906)" fill="white"/>
<path d="M992.502 199.902L995.102 202.502L992.502 205.102L989.902 202.502L992.502 199.902Z" fill="white"/>
<rect x="992.238" y="196" width="0.52" height="4.94" fill="white"/>
<rect x="992.238" y="204.059" width="0.52" height="4.94" fill="white"/>
<rect x="994.191" y="202.891" width="0.52" height="4.94" transform="rotate(-90 994.191 202.891)" fill="white"/>
<rect x="986" y="202.891" width="0.52" height="4.94" transform="rotate(-90 986 202.891)" fill="white"/>
<path d="M163.433 488.859L166.008 491.433L163.433 494.008L160.859 491.433L163.433 488.859Z" fill="white"/>
<rect x="163.18" y="485" width="0.514818" height="4.89077" fill="white"/>
<rect x="163.18" y="492.98" width="0.514818" height="4.89077" fill="white"/>
<rect x="165.109" y="491.824" width="0.514818" height="4.89077" transform="rotate(-90 165.109 491.824)" fill="white"/>
<rect x="157" y="491.824" width="0.514818" height="4.89077" transform="rotate(-90 157 491.824)" fill="white"/>
<path d="M263.613 276C263.613 294.564 248.564 309.613 230 309.613C211.436 309.613 196.387 294.564 196.387 276C196.387 257.436 211.436 242.387 230 242.387C248.564 242.387 263.613 257.436 263.613 276Z" fill="url(#paint0_linear_3466_31791)" stroke="url(#paint1_linear_3466_31791)" stroke-width="0.773936"/>
<path d="M241.746 262.121H246.477L236.63 271.873C234.908 273.569 232.588 274.52 230.172 274.52C227.755 274.52 225.435 273.569 223.713 271.873L213.858 262.121H218.597L226.079 269.526C227.168 270.601 228.638 271.204 230.168 271.204C231.699 271.204 233.168 270.601 234.258 269.526L241.746 262.121ZM218.54 289.236H213.801L223.713 279.425C225.435 277.729 227.755 276.778 230.172 276.778C232.588 276.778 234.908 277.729 236.63 279.425L246.542 289.234H241.803L234.264 281.766C233.175 280.691 231.706 280.088 230.175 280.088C228.644 280.088 227.175 280.691 226.085 281.766L218.538 289.236H218.54Z" fill="white"/>
<path d="M443.613 372C443.613 390.564 428.564 405.613 410 405.613C391.436 405.613 376.387 390.564 376.387 372C376.387 353.436 391.436 338.387 410 338.387C428.564 338.387 443.613 353.436 443.613 372Z" fill="url(#paint2_linear_3466_31791)" stroke="url(#paint3_linear_3466_31791)" stroke-width="0.773936"/>
<path fill-rule="evenodd" clip-rule="evenodd" d="M413.05 372.854V372.851C412.879 372.863 411.999 372.916 410.034 372.916C408.466 372.916 407.361 372.87 406.973 372.851V372.856C400.934 372.59 396.427 371.539 396.427 370.28C396.427 369.024 400.934 367.973 406.973 367.702V371.809C407.367 371.837 408.498 371.903 410.061 371.903C411.935 371.903 412.875 371.826 413.05 371.81V367.705C419.076 367.974 423.573 369.026 423.573 370.28C423.573 371.539 419.076 372.587 413.05 372.854ZM413.05 367.278V363.604H421.459V358H398.564V363.604H406.973V367.277C400.139 367.59 395 368.945 395 370.566C395 372.188 400.139 373.54 406.973 373.856V385.632H413.05V373.853C419.873 373.539 425 372.186 425 370.566C425 368.946 419.873 367.594 413.05 367.278Z" fill="white"/>
<path d="M1161.61 368C1161.61 386.564 1146.56 401.613 1128 401.613C1109.44 401.613 1094.39 386.564 1094.39 368C1094.39 349.436 1109.44 334.387 1128 334.387C1146.56 334.387 1161.61 349.436 1161.61 368Z" fill="url(#paint4_linear_3466_31791)" stroke="url(#paint5_linear_3466_31791)" stroke-width="0.773936"/>
<path d="M1120.14 372.821L1118 373.652L1119.03 369.514L1121.2 368.643L1124.32 356H1132.01L1129.73 365.294L1131.85 364.438L1130.83 368.562L1128.69 369.419L1127.42 374.644H1139L1137.69 380H1118.38L1120.14 372.821Z" fill="white"/>
<path d="M1255.61 237C1255.61 255.564 1240.56 270.613 1222 270.613C1203.44 270.613 1188.39 255.564 1188.39 237C1188.39 218.436 1203.44 203.387 1222 203.387C1240.56 203.387 1255.61 218.436 1255.61 237Z" fill="url(#paint6_linear_3466_31791)" stroke="url(#paint7_linear_3466_31791)" stroke-width="0.773936"/>
<path fill-rule="evenodd" clip-rule="evenodd" d="M1217.37 234.915H1223.84V238.344H1217.37V245.571H1221.45C1223.07 245.571 1224.39 245.354 1225.42 244.916C1226.45 244.479 1227.26 243.874 1227.84 243.1C1228.44 242.296 1228.85 241.364 1229.04 240.378C1229.25 239.265 1229.36 238.134 1229.35 237C1229.36 235.866 1229.25 234.735 1229.04 233.622C1228.85 232.635 1228.44 231.704 1227.84 230.899C1227.26 230.125 1226.45 229.521 1225.42 229.084C1224.39 228.646 1223.07 228.429 1221.45 228.429H1217.37V234.917V234.915ZM1213.22 238.344H1211V234.917H1213.22V225H1223.05C1224.86 225 1226.43 225.315 1227.76 225.94C1229.09 226.569 1230.17 227.425 1231.01 228.513C1231.85 229.599 1232.48 230.871 1232.89 232.328C1233.3 233.784 1233.5 235.342 1233.5 237C1233.51 238.578 1233.3 240.151 1232.89 241.673C1232.48 243.128 1231.85 244.401 1231.01 245.487C1230.17 246.575 1229.09 247.431 1227.76 248.059C1226.43 248.686 1224.86 249 1223.05 249H1213.22V238.344Z" fill="white"/>
</g>
<defs>
<filter id="filter0_f_3466_31791" x="739" y="85" width="860" height="860" filterUnits="userSpaceOnUse" color-interpolation-filters="sRGB">
<feFlood flood-opacity="0" result="BackgroundImageFix"/>
<feBlend mode="normal" in="SourceGraphic" in2="BackgroundImageFix" result="shape"/>
<feGaussianBlur stdDeviation="50" result="effect1_foregroundBlur_3466_31791"/>
</filter>
<filter id="filter1_f_3466_31791" x="-199" y="46" width="860" height="860" filterUnits="userSpaceOnUse" color-interpolation-filters="sRGB">
<feFlood flood-opacity="0" result="BackgroundImageFix"/>
<feBlend mode="normal" in="SourceGraphic" in2="BackgroundImageFix" result="shape"/>
<feGaussianBlur stdDeviation="50" result="effect1_foregroundBlur_3466_31791"/>
</filter>
<filter id="filter2_f_3466_31791" x="-29" y="160" width="960" height="960" filterUnits="userSpaceOnUse" color-interpolation-filters="sRGB">
<feFlood flood-opacity="0" result="BackgroundImageFix"/>
<feBlend mode="normal" in="SourceGraphic" in2="BackgroundImageFix" result="shape"/>
<feGaussianBlur stdDeviation="75" result="effect1_foregroundBlur_3466_31791"/>
</filter>
<filter id="filter3_f_3466_31791" x="446" y="148" width="960" height="960" filterUnits="userSpaceOnUse" color-interpolation-filters="sRGB">
<feFlood flood-opacity="0" result="BackgroundImageFix"/>
<feBlend mode="normal" in="SourceGraphic" in2="BackgroundImageFix" result="shape"/>
<feGaussianBlur stdDeviation="75" result="effect1_foregroundBlur_3466_31791"/>
</filter>
<linearGradient id="paint0_linear_3466_31791" x1="196" y1="233.487" x2="257.141" y2="310.106" gradientUnits="userSpaceOnUse">
<stop stop-color="#142159"/>
<stop offset="0.979167" stop-color="#01183B"/>
<stop offset="1" stop-color="#F7931A" stop-opacity="0"/>
</linearGradient>
<linearGradient id="paint1_linear_3466_31791" x1="143.372" y1="189.759" x2="257.141" y2="301.206" gradientUnits="userSpaceOnUse">
<stop stop-color="white"/>
<stop offset="1" stop-color="white" stop-opacity="0"/>
</linearGradient>
<linearGradient id="paint2_linear_3466_31791" x1="376" y1="329.487" x2="437.141" y2="406.106" gradientUnits="userSpaceOnUse">
<stop stop-color="#142159"/>
<stop offset="0.979167" stop-color="#01183B"/>
<stop offset="1" stop-color="#F7931A" stop-opacity="0"/>
</linearGradient>
<linearGradient id="paint3_linear_3466_31791" x1="323.372" y1="285.759" x2="437.141" y2="397.206" gradientUnits="userSpaceOnUse">
<stop stop-color="white"/>
<stop offset="1" stop-color="white" stop-opacity="0"/>
</linearGradient>
<linearGradient id="paint4_linear_3466_31791" x1="1094" y1="325.487" x2="1155.14" y2="402.106" gradientUnits="userSpaceOnUse">
<stop stop-color="#142159"/>
<stop offset="0.979167" stop-color="#01183B"/>
<stop offset="1" stop-color="#F7931A" stop-opacity="0"/>
</linearGradient>
<linearGradient id="paint5_linear_3466_31791" x1="1041.37" y1="281.759" x2="1155.14" y2="393.206" gradientUnits="userSpaceOnUse">
<stop stop-color="white"/>
<stop offset="1" stop-color="white" stop-opacity="0"/>
</linearGradient>
<linearGradient id="paint6_linear_3466_31791" x1="1188" y1="194.487" x2="1249.14" y2="271.106" gradientUnits="userSpaceOnUse">
<stop stop-color="#142159"/>
<stop offset="0.979167" stop-color="#01183B"/>
<stop offset="1" stop-color="#F7931A" stop-opacity="0"/>
</linearGradient>
<linearGradient id="paint7_linear_3466_31791" x1="1135.37" y1="150.759" x2="1249.14" y2="262.206" gradientUnits="userSpaceOnUse">
<stop stop-color="white"/>
<stop offset="1" stop-color="white" stop-opacity="0"/>
</linearGradient>
<clipPath id="clip0_3466_31791">
<rect width="1437" height="704" fill="white"/>
</clipPath>
</defs>
</svg>
