<svg width="55" height="18" viewBox="0 0 55 18" fill="none" xmlns="http://www.w3.org/2000/svg">
<path d="M8.25767 11.5643C9.5433 11.5643 10.4861 10.8429 10.6218 9.74297L9.83614 9.73583C9.70757 10.4358 9.10047 10.8929 8.25767 10.8929C7.17916 10.8929 6.50778 10.1644 6.50778 8.90017C6.50778 7.62882 7.17916 6.90744 8.25767 6.90744C9.10761 6.90744 9.69329 7.37169 9.83614 8.03594H10.6218C10.4647 6.94315 9.5433 6.23605 8.25767 6.23605C6.72919 6.23605 5.70783 7.25027 5.70783 8.90017C5.70783 10.5429 6.72205 11.5643 8.25767 11.5643ZM13.0673 11.5643C14.2029 11.5643 14.91 10.7715 14.91 9.61441C14.91 8.41448 14.1672 7.66453 13.0673 7.66453C11.9245 7.66453 11.2174 8.45734 11.2174 9.62155C11.2174 10.8072 11.9602 11.5643 13.0673 11.5643ZM13.0673 10.95C12.3959 10.95 11.9674 10.4644 11.9674 9.62155C11.9674 8.75018 12.4102 8.27164 13.0673 8.27164C13.7458 8.27164 14.1601 8.76446 14.1601 9.61441C14.1601 10.4715 13.7244 10.95 13.0673 10.95ZM15.6805 11.5H16.409V9.43585C16.409 8.78589 16.8018 8.27164 17.4303 8.27164C18.016 8.27164 18.2803 8.6359 18.2803 9.40728V11.5H19.016V9.43585C19.016 8.78589 19.4088 8.27164 20.0302 8.27164C20.623 8.27164 20.8873 8.6359 20.8873 9.40728V11.5H21.6158V9.25729C21.6158 8.10022 21.0587 7.66453 20.3087 7.66453C19.7016 7.66453 19.1874 7.96451 18.9803 8.55019H18.9231C18.7303 7.90737 18.2589 7.66453 17.7018 7.66453C17.1518 7.66453 16.6661 7.93594 16.4518 8.47162H16.409L16.3804 7.72167H15.6805V11.5ZM22.6066 7.14314H23.3423V6.29319H22.6066V7.14314ZM22.6066 11.5H23.3423V7.72167H22.6066V11.5ZM24.3643 11.5H25.0929V9.43585C25.0929 8.78589 25.5 8.27164 26.1499 8.27164C26.7499 8.27164 27.0285 8.6359 27.0285 9.40728V11.5H27.7641V9.25729C27.7641 8.10022 27.1856 7.66453 26.4142 7.66453C25.8571 7.66453 25.3571 7.93594 25.1357 8.47162H25.0929L25.0643 7.72167H24.3643V11.5ZM30.2513 12.7642C31.3156 12.7642 32.0369 12.3357 32.0369 11.15V7.72167H31.3227L31.3084 8.42163H31.2584C31.087 7.96451 30.6299 7.65739 30.0299 7.65739C29.1157 7.65739 28.5015 8.31449 28.5015 9.47156C28.5015 10.6215 29.1014 11.2786 30.0228 11.2786C30.6228 11.2786 31.087 10.9715 31.2584 10.5143H31.3084V11.25C31.3084 11.95 30.9442 12.2214 30.2656 12.2214C29.7871 12.2214 29.4585 12.0143 29.4014 11.6786H28.6872C28.7657 12.3499 29.3443 12.7642 30.2513 12.7642ZM30.2728 10.7072C29.6585 10.7072 29.2586 10.2715 29.2586 9.47156C29.2586 8.68589 29.6514 8.23592 30.2799 8.23592C30.9442 8.23592 31.2941 8.74303 31.3013 9.23586L31.3084 9.69297C31.2941 10.1929 30.9299 10.7072 30.2728 10.7072ZM36.0316 11.5714C37.0173 11.5714 37.6315 11.2 37.6315 10.4286C37.6315 9.56441 36.9744 9.39299 36.1887 9.28586C35.5459 9.20015 35.2602 9.08587 35.2602 8.71446C35.2602 8.39306 35.5316 8.17164 36.0316 8.17164C36.5173 8.17164 36.8244 8.37877 36.8316 8.83588H37.5529C37.5387 8.10022 36.9744 7.65025 36.0459 7.65025C35.1317 7.65025 34.5246 8.06451 34.5246 8.78589C34.5246 9.55727 35.1174 9.75725 35.9745 9.87868C36.6101 9.97153 36.8816 10.0715 36.8816 10.4929C36.8816 10.8429 36.5959 11.05 36.053 11.05C35.5245 11.05 35.146 10.8286 35.146 10.3144H34.4174C34.4174 11.0643 34.996 11.5714 36.0316 11.5714ZM40.0954 11.5643C41.2311 11.5643 41.9382 10.7715 41.9382 9.61441C41.9382 8.41448 41.1953 7.66453 40.0954 7.66453C38.9526 7.66453 38.2455 8.45734 38.2455 9.62155C38.2455 10.8072 38.9883 11.5643 40.0954 11.5643ZM40.0954 10.95C39.424 10.95 38.9955 10.4644 38.9955 9.62155C38.9955 8.75018 39.4383 8.27164 40.0954 8.27164C40.7739 8.27164 41.1882 8.76446 41.1882 9.61441C41.1882 10.4715 40.7525 10.95 40.0954 10.95ZM44.3711 11.5643C45.5067 11.5643 46.2138 10.7715 46.2138 9.61441C46.2138 8.41448 45.471 7.66453 44.3711 7.66453C43.2283 7.66453 42.5212 8.45734 42.5212 9.62155C42.5212 10.8072 43.264 11.5643 44.3711 11.5643ZM44.3711 10.95C43.6997 10.95 43.2712 10.4644 43.2712 9.62155C43.2712 8.75018 43.714 8.27164 44.3711 8.27164C45.0496 8.27164 45.4639 8.76446 45.4639 9.61441C45.4639 10.4715 45.0282 10.95 44.3711 10.95ZM46.9843 11.5H47.7128V9.43585C47.7128 8.78589 48.1199 8.27164 48.7699 8.27164C49.3698 8.27164 49.6484 8.6359 49.6484 9.40728V11.5H50.384V9.25729C50.384 8.10022 49.8055 7.66453 49.0341 7.66453C48.477 7.66453 47.9771 7.93594 47.7556 8.47162H47.7128L47.6842 7.72167H46.9843V11.5Z" fill="#9CA3AF"/>
<rect x="1" y="0.634766" width="53.7287" height="16.7287" rx="2.31861" stroke="#9CA3AF" stroke-width="0.5"/>
</svg>
