<svg width="1437" height="842" viewBox="0 0 1437 842" fill="none" xmlns="http://www.w3.org/2000/svg">
<rect width="1437" height="842" fill="#01183B"/>
<path d="M1080.9 195.941L1084.86 199.902L1080.9 203.862L1076.94 199.902L1080.9 195.941Z" fill="white"/>
<rect x="1080.5" y="190" width="0.792079" height="7.52475" fill="white"/>
<rect x="1080.5" y="202.277" width="0.792079" height="7.52475" fill="white"/>
<rect x="1083.48" y="200.496" width="0.792079" height="7.52475" transform="rotate(-90 1083.48 200.496)" fill="white"/>
<rect x="1071" y="200.496" width="0.792079" height="7.52475" transform="rotate(-90 1071 200.496)" fill="white"/>
<path d="M987.902 619.941L991.862 623.902L987.902 627.862L983.941 623.902L987.902 619.941Z" fill="white"/>
<rect x="987.504" y="614" width="0.792079" height="7.52475" fill="white"/>
<rect x="987.504" y="626.277" width="0.792079" height="7.52475" fill="white"/>
<rect x="990.477" y="624.496" width="0.792079" height="7.52475" transform="rotate(-90 990.477 624.496)" fill="white"/>
<rect x="978" y="624.496" width="0.792079" height="7.52475" transform="rotate(-90 978 624.496)" fill="white"/>
<path d="M388.902 616.941L392.862 620.902L388.902 624.862L384.941 620.902L388.902 616.941Z" fill="white"/>
<rect x="388.504" y="611" width="0.792079" height="7.52475" fill="white"/>
<rect x="388.504" y="623.277" width="0.792079" height="7.52475" fill="white"/>
<rect x="391.477" y="621.496" width="0.792079" height="7.52475" transform="rotate(-90 391.477 621.496)" fill="white"/>
<rect x="379" y="621.496" width="0.792079" height="7.52475" transform="rotate(-90 379 621.496)" fill="white"/>
<path d="M1381.9 362.941L1385.86 366.902L1381.9 370.862L1377.94 366.902L1381.9 362.941Z" fill="white"/>
<rect x="1381.5" y="357" width="0.792079" height="7.52475" fill="white"/>
<rect x="1381.5" y="369.277" width="0.792079" height="7.52475" fill="white"/>
<rect x="1384.48" y="367.496" width="0.792079" height="7.52475" transform="rotate(-90 1384.48 367.496)" fill="white"/>
<rect x="1372" y="367.496" width="0.792079" height="7.52475" transform="rotate(-90 1372 367.496)" fill="white"/>
<path d="M150.502 196.902L153.102 199.502L150.502 202.102L147.902 199.502L150.502 196.902Z" fill="white"/>
<rect x="150.238" y="193" width="0.52" height="4.94" fill="white"/>
<rect x="150.238" y="201.059" width="0.52" height="4.94" fill="white"/>
<rect x="152.191" y="199.891" width="0.52" height="4.94" transform="rotate(-90 152.191 199.891)" fill="white"/>
<rect x="144" y="199.891" width="0.52" height="4.94" transform="rotate(-90 144 199.891)" fill="white"/>
</svg>
