<svg width="436" height="160" viewBox="0 0 436 160" fill="none" xmlns="http://www.w3.org/2000/svg">
<g clip-path="url(#clip0_4162_31920)">
<path d="M23.38 30.51C30.1 30.51 35.42 26.17 35.42 19.24C35.42 10.49 27.65 5.94 19.67 5.94H1.4C4.55 7.76 4.97 12.17 4.97 15.46V49.48C4.97 52.7 4.48 57.18 1.4 59H25.2C33.25 59 38.85 51.58 38.85 43.95C38.85 34.92 31.78 30.51 23.38 30.51ZM15.19 29.67V7.62H16.24C22.4 7.62 25.69 12.87 25.69 18.54C25.69 25.26 21.98 29.67 15.19 29.67ZM15.19 57.32V31.35H16.24C23.87 31.35 29.05 36.95 29.05 44.44C29.05 52.91 23.24 57.32 15.19 57.32ZM46.2919 39.68C50.2119 39.68 52.7319 36.53 53.7819 33.1C52.1719 33.1 51.0519 32.26 51.0519 30.58C51.0519 28.76 52.4519 26.31 54.4819 26.31C58.6819 26.31 57.7719 35.06 57.7719 37.79C51.7519 40.1 40.4819 44.23 40.4819 52.07C40.4819 63.55 53.1519 66 62.2519 66C71.9119 66 86.0519 62.85 86.0519 50.67V39.54C86.0519 38 85.9819 36.32 86.0519 34.78C86.1219 32.33 88.4319 29.81 90.9519 29.81C94.3819 29.81 95.3619 33.17 95.3619 36.04V49.48C95.3619 52.63 94.8719 57.25 91.8619 59H109.152C106.072 57.25 105.582 52.7 105.582 49.48V35.76C105.582 29.95 102.502 24.63 96.2019 24.63C95.3619 24.63 86.8919 29.67 86.0519 30.58V25.19C80.3819 28.41 78.4219 29.32 71.9119 30.37C74.3619 33.31 75.8319 35.55 75.8319 39.54V50.18C75.8319 57.95 71.5619 64.11 63.3719 64.11C56.0219 64.11 50.7719 59.28 50.7719 51.79C50.7719 46.4 53.0819 42.2 57.7719 39.54V54.17C57.7719 57.6 61.4819 59.7 64.5619 59.7C67.6419 59.7 69.1819 58.58 71.5619 56.83V56.13C71.1419 56.41 70.6519 56.55 70.1619 56.55C68.2019 56.55 67.9919 53.54 67.9919 52.21V36.11C67.9919 28.62 62.4619 24.63 55.3219 24.63C49.4419 24.63 41.7419 27.36 41.7419 34.36C41.7419 37.09 43.3519 39.68 46.2919 39.68ZM126.81 59C123.66 57.25 123.24 52.7 123.24 49.48V41.15L133.11 59H148.44C140.88 54.8 133.67 40.1 129.54 32.4C130.31 31.7 131.43 31.28 132.48 31.28C133.95 31.28 135.56 32.12 135.56 33.8C135.56 34.57 135.28 35.27 134.86 35.9C135.28 37.23 137.03 37.86 138.29 37.86C142.21 37.86 145.22 34.78 145.22 30.86C145.22 26.8 142.14 24.63 138.29 24.63C132.13 24.63 125.55 33.94 123.24 38.98V9.44C117.57 12.66 115.61 13.5 109.17 14.55C111.62 17.49 113.09 19.73 113.09 23.72V49.48C113.09 52.63 112.46 57.32 109.45 59H126.81ZM185.948 5.94H163.548C166.698 7.83 167.118 12.17 167.118 15.46V49.48C167.118 52.7 166.628 57.18 163.548 59H185.948C200.718 59 208.278 45.91 208.278 32.47C208.278 19.1 200.718 5.94 185.948 5.94ZM180.908 57.32H177.338V7.62H180.908C193.508 7.62 198.058 22.18 198.058 32.47C198.058 42.83 193.508 57.32 180.908 57.32ZM219.152 23.58C221.952 23.58 224.262 21.27 224.262 18.47C224.262 15.67 221.952 13.36 219.152 13.36C216.352 13.36 214.042 15.67 214.042 18.47C214.042 21.27 216.352 23.58 219.152 23.58ZM228.392 59C225.242 57.25 224.892 52.7 224.892 49.48V25.19C219.222 28.48 217.262 29.32 210.752 30.37C213.202 33.31 214.672 35.55 214.672 39.54V49.48C214.672 52.63 214.112 57.25 211.102 59H228.392ZM250.789 25.19C246.519 25.19 239.589 23.86 239.589 18.33C239.589 15.46 241.829 12.94 244.769 12.94C246.589 12.94 247.989 14.06 247.989 15.95C247.989 17.7 246.729 18.89 244.979 18.89C245.819 21.55 247.849 23.86 250.789 23.86C253.659 23.86 255.339 21.69 255.339 18.89C255.339 14.06 251.139 11.12 246.589 11.12C237.699 11.12 232.729 16.44 232.729 25.19H228.739V26.87H232.589V49.48C232.589 52.63 232.029 57.25 229.019 59H246.309C243.159 57.25 242.809 52.7 242.809 49.48V26.87H255.059V49.48C255.059 52.63 254.499 57.25 251.489 59H268.779C265.629 57.25 265.279 52.7 265.279 49.48V26.87H273.259V25.19C268.639 25.19 262.059 23.58 262.059 17.77C262.059 14.9 264.159 11.96 267.239 11.96C269.059 11.96 270.459 13.08 270.459 14.97C270.459 16.72 269.199 17.91 267.449 17.91C268.289 20.57 270.319 22.88 273.259 22.88C276.479 22.88 278.929 20.57 278.929 17.28C278.929 12.24 273.889 10.14 269.549 10.14C260.309 10.14 255.199 16.3 255.199 25.19H250.789ZM301.856 41.01V39.33C301.856 30.3 296.046 24.63 287.016 24.63C277.076 24.63 271.126 33.1 271.126 42.41C271.126 52.07 278.126 59.7 287.926 59.7C294.856 59.7 298.776 56.69 301.996 50.88L301.436 50.46C299.966 51.93 295.626 52.42 293.666 52.42C286.876 52.42 283.096 47.66 281.766 41.85L301.856 41.01ZM292.476 33.73C292.476 37.16 290.166 38.84 287.016 39.33C285.126 39.61 283.306 39.89 281.416 40.1C281.276 39.05 281.206 38 281.206 36.95C281.206 34.08 282.256 26.31 286.316 26.31C289.886 26.31 292.476 30.51 292.476 33.73ZM316.835 32.89V25.19C311.165 28.48 309.205 29.32 302.695 30.37C305.145 33.31 306.615 35.55 306.615 39.54V49.48C306.615 52.63 306.055 57.25 303.045 59H320.335C317.255 57.25 316.835 52.7 316.835 49.48V36.74C316.835 34.71 318.935 32.96 320.825 32.96C323.275 32.96 325.095 34.85 325.095 37.23C325.095 37.86 324.955 38.42 324.815 38.98C329.435 38.98 333.215 35.97 333.215 31.21C333.215 27.57 330.835 24.63 327.055 24.63C322.295 24.63 318.655 28.9 316.835 32.89ZM363.517 41.01V39.33C363.517 30.3 357.707 24.63 348.677 24.63C338.737 24.63 332.787 33.1 332.787 42.41C332.787 52.07 339.787 59.7 349.587 59.7C356.517 59.7 360.437 56.69 363.657 50.88L363.097 50.46C361.627 51.93 357.287 52.42 355.327 52.42C348.537 52.42 344.757 47.66 343.427 41.85L363.517 41.01ZM354.137 33.73C354.137 37.16 351.827 38.84 348.677 39.33C346.787 39.61 344.967 39.89 343.077 40.1C342.937 39.05 342.867 38 342.867 36.95C342.867 34.08 343.917 26.31 347.977 26.31C351.547 26.31 354.137 30.51 354.137 33.73ZM381.995 59C378.845 57.25 378.495 52.7 378.495 49.48V34.78C378.985 32.19 380.525 29.81 383.395 29.81C386.825 29.81 387.805 33.17 387.805 36.04V49.48C387.805 52.63 387.315 57.25 384.305 59H401.595C398.515 57.25 398.025 52.7 398.025 49.48V35.76C398.025 29.95 394.945 24.63 388.645 24.63C387.875 24.63 379.755 29.39 378.495 30.65V25.19C372.825 28.48 370.865 29.32 364.355 30.37C366.805 33.31 368.275 35.55 368.275 39.54V49.48C368.275 52.63 367.715 57.25 364.705 59H381.995ZM414.244 16.44H413.194C410.884 22.81 407.174 25.19 400.594 25.82V26.87H404.024V50.25C404.024 55.36 406.334 59.7 411.934 59.7C415.784 59.7 419.704 57.81 422.504 55.22V54.52C421.384 55.15 420.054 55.43 418.794 55.43C416.414 55.43 414.244 54.38 414.244 51.65V26.87H421.524V25.19H414.244V16.44ZM18.9 86.01C29.82 86.01 35.07 94.83 35.07 104.84C35.07 112.4 31.29 119.61 28.63 126.54L16.94 94.9C16.38 93.36 15.89 91.75 15.89 90.07C15.89 88.32 16.52 86.01 18.69 86.01H0C3.01 87.69 5.32 93.22 6.51 96.37L22.75 139H25.34L34.72 115.13L43.82 139H46.41L60.2 104.07C61.95 99.59 66.99 87.97 71.26 86.01H49.7C56.28 86.01 59.29 91.05 59.29 97.14C59.29 100.15 58.59 103.09 57.54 105.96C55.09 112.89 52.29 119.68 49.7 126.54L40.25 100.92C42.14 95.32 45.43 86.01 49.35 86.01H18.9ZM74.5205 98.47C74.5205 101.27 76.8305 103.58 79.6305 103.58C82.4305 103.58 84.7405 101.27 84.7405 98.47C84.7405 95.67 82.4305 93.36 79.6305 93.36C82.0105 90.49 86.4205 89.93 89.9205 89.93C94.5405 89.93 99.2305 92.17 99.2305 97.42C99.2305 97.63 99.2305 98.19 99.1605 98.33C97.4805 103.37 93.7705 105.33 88.7305 105.82V106.87H90.7605V130.25C90.7605 135.36 93.0705 139.7 98.6705 139.7C102.52 139.7 106.44 137.81 109.24 135.22V134.52C108.12 135.15 106.79 135.43 105.53 135.43C103.15 135.43 100.98 134.38 100.98 131.65V106.87H108.26V105.19H100.98V103.44C102.59 101.9 103.57 99.8 103.57 97.56C103.57 90.56 95.5905 88.25 89.9205 88.25C83.6905 88.25 74.5205 90.77 74.5205 98.47ZM85.3705 105.19C79.7005 108.48 77.7405 109.32 71.2305 110.37C73.6805 113.31 75.1505 115.55 75.1505 119.54V129.48C75.1505 132.63 74.5905 137.25 71.5805 139H88.8705C85.7205 137.25 85.3705 132.7 85.3705 129.48V105.19ZM113.5 129.48C113.5 132.63 112.94 137.25 109.93 139H127.22C124.07 137.25 123.72 132.7 123.72 129.48V116.04C123.72 113.17 125.54 109.81 128.76 109.81C132.19 109.81 133.17 113.17 133.17 116.04V129.48C133.17 132.63 132.68 137.25 129.67 139H146.96C143.88 137.25 143.39 132.7 143.39 129.48V115.76C143.39 109.95 140.31 104.63 134.01 104.63C133.17 104.63 124.35 109.88 123.72 110.79V89.37C119.17 91.96 114.76 93.71 109.58 94.55C112.03 97.49 113.5 99.73 113.5 103.72V129.48Z" fill="#1E2C31"/>
<path d="M185.423 86.99C189.763 86.99 193.403 89.79 193.403 94.34C193.403 95.25 193.193 97.14 191.863 97.21C192.843 100.43 195.013 103.3 198.653 103.3C201.943 103.3 203.903 100.92 203.903 97.77C203.903 89.23 194.103 85.24 186.963 85.24C171.493 85.24 161.833 98.61 161.833 113.17C161.833 127.8 171.073 139.7 186.333 139.7C196.133 139.7 202.783 134.87 204.883 125.28L204.323 124.86C200.963 128.5 196.343 129.97 191.513 129.97C178.283 129.97 171.283 119.47 171.283 107.15C171.283 98.75 175.343 86.99 185.423 86.99ZM205.283 105.19C208.363 106.94 208.853 111.49 208.853 114.71V128.43C208.853 134.24 211.933 139.56 218.233 139.56C219.073 139.56 227.893 134.31 228.523 133.4C228.873 135.29 229.573 137.25 229.993 139H242.523C239.653 135.43 238.603 132.56 238.603 128.01V105.19H224.883C228.033 106.94 228.383 111.49 228.383 114.71V124.65C228.383 126.33 228.243 128.15 228.243 129.97C227.683 132.28 226.143 134.38 223.483 134.38C220.053 134.38 219.073 131.02 219.073 128.15V105.19H205.283ZM256.679 112.89V105.19C251.009 108.48 249.049 109.32 242.539 110.37C244.989 113.31 246.459 115.55 246.459 119.54V129.48C246.459 132.63 245.899 137.25 242.889 139H260.179C257.099 137.25 256.679 132.7 256.679 129.48V116.74C256.679 114.71 258.779 112.96 260.669 112.96C263.119 112.96 264.939 114.85 264.939 117.23C264.939 117.86 264.799 118.42 264.659 118.98C269.279 118.98 273.059 115.97 273.059 111.21C273.059 107.57 270.679 104.63 266.899 104.63C262.139 104.63 258.499 108.9 256.679 112.89ZM294.26 105.19C298.46 106.73 300.35 109.95 300.35 114.36C300.35 120.03 297.48 126.33 295.38 131.58C293.56 127.24 287.96 114.64 287.96 110.65C287.96 108.27 289.08 105.96 291.39 105.19H272.07C276.34 107.08 280.19 118.77 281.94 123.11L288.31 139H294.26L300.56 123.25C302.31 118.84 306.23 107.08 310.5 105.19H294.26ZM338.292 121.01V119.33C338.292 110.3 332.482 104.63 323.452 104.63C313.512 104.63 307.562 113.1 307.562 122.41C307.562 132.07 314.562 139.7 324.362 139.7C331.292 139.7 335.212 136.69 338.432 130.88L337.872 130.46C336.402 131.93 332.062 132.42 330.102 132.42C323.312 132.42 319.532 127.66 318.202 121.85L338.292 121.01ZM328.912 113.73C328.912 117.16 326.602 118.84 323.452 119.33C321.562 119.61 319.742 119.89 317.852 120.1C317.712 119.05 317.642 118 317.642 116.95C317.642 114.08 318.692 106.31 322.752 106.31C326.322 106.31 328.912 110.51 328.912 113.73ZM372.801 89.44C367.131 92.66 365.171 93.5 358.661 94.55C361.111 97.49 362.581 99.73 362.581 103.72V106.87C361.391 106.31 356.911 104.42 355.651 104.42C345.501 104.42 339.691 113.17 339.691 122.62C339.691 131.65 345.011 139.63 354.741 139.63C358.801 139.63 361.041 138.37 362.581 136.13V139H376.301C373.151 137.25 372.801 132.7 372.801 129.48V89.44ZM362.581 132.35C362.231 132.35 361.811 132.35 361.321 132.35C353.201 132.35 349.351 124.86 349.351 117.65C349.351 113.03 351.311 106.17 356.981 106.17C361.671 106.17 362.581 111.63 362.581 115.27V132.35Z" fill="url(#paint0_linear_4162_31920)"/>
<path d="M397.172 86.1328L378.305 75.2734C377.992 75.0781 377.562 75 377.094 75C376.625 75 376.195 75.1172 375.883 75.2734L357.133 86.1719C356.469 86.5625 356 87.5391 356 88.2812V110.039C356 110.469 356.078 110.977 356.391 111.406L398.109 87.1875C397.875 86.7187 397.523 86.3672 397.172 86.1328Z" fill="#659AD3"/>
<path d="M356.273 111.367C356.469 111.68 356.742 111.953 357.016 112.109L375.844 123.008C376.156 123.203 376.586 123.281 377.055 123.281C377.523 123.281 377.953 123.164 378.266 123.008L397.016 112.109C397.68 111.719 398.148 110.742 398.148 110V88.2422C398.148 87.8906 398.109 87.5 397.914 87.1484L356.273 111.367Z" fill="#03599C"/>
<path d="M385.414 103.871C383.773 106.762 380.648 108.715 377.094 108.715C371.82 108.715 367.523 104.418 367.523 99.1445C367.523 93.8711 371.82 89.5742 377.094 89.5742C380.648 89.5742 383.773 91.5273 385.414 94.457L390.492 91.5273C387.836 86.8789 382.836 83.7148 377.094 83.7148C368.578 83.7148 361.664 90.6289 361.664 99.1445C361.664 107.66 368.578 114.574 377.094 114.574C382.797 114.574 387.797 111.449 390.453 106.84L385.414 103.871Z" fill="white"/>
</g>
<defs>
<linearGradient id="paint0_linear_4162_31920" x1="60.5" y1="59" x2="168.582" y2="285.747" gradientUnits="userSpaceOnUse">
<stop stop-color="#03599C"/>
</linearGradient>
<clipPath id="clip0_4162_31920">
<rect width="436" height="160" fill="white"/>
</clipPath>
</defs>
</svg>
