<svg width="198" height="43" viewBox="0 0 198 43" fill="none" xmlns="http://www.w3.org/2000/svg">
<g clip-path="url(#clip0_2451_28895)">
<path d="M46.1754 36H47.2454V32.6L47.2254 29.86H47.2954L49.4654 36H50.3354L52.5054 29.86H52.5754L52.5454 32.59V36H53.6054V28.71H51.9454L49.9154 34.29H49.8754L47.8454 28.71H46.1754V36ZM55.2146 29.9H56.2446V28.71H55.2146V29.9ZM55.2146 36H56.2446V30.71H55.2146V36ZM59.8856 36.09C61.2056 36.09 62.1656 35.31 62.2456 34.11H61.2456C61.1656 34.78 60.6556 35.23 59.8856 35.23C58.9656 35.23 58.3656 34.56 58.3656 33.37C58.3656 32.24 58.9156 31.49 59.8956 31.49C60.5756 31.49 61.1056 31.85 61.2256 32.54H62.2256C62.1456 31.4 61.2056 30.63 59.9256 30.63C58.3356 30.63 57.3156 31.72 57.3156 33.36C57.3156 35 58.3356 36.09 59.8856 36.09ZM63.2908 36H64.3108V32.98C64.3608 32.11 64.8908 31.62 65.8308 31.62C65.9508 31.62 66.0708 31.62 66.1508 31.63V30.66C66.0608 30.65 65.9608 30.64 65.8408 30.64C65.1408 30.64 64.5408 30.97 64.3108 31.65H64.2608L64.2108 30.71H63.2908V36ZM69.1243 36.09C70.7143 36.09 71.7043 34.98 71.7043 33.36C71.7043 31.68 70.6643 30.63 69.1243 30.63C67.5243 30.63 66.5343 31.74 66.5343 33.37C66.5343 35.03 67.5743 36.09 69.1243 36.09ZM69.1243 35.23C68.1843 35.23 67.5843 34.55 67.5843 33.37C67.5843 32.15 68.2043 31.48 69.1243 31.48C70.0743 31.48 70.6543 32.17 70.6543 33.36C70.6543 34.56 70.0443 35.23 69.1243 35.23ZM73.203 36H74.233V31.55H75.403V30.71H74.233V30.03C74.233 29.69 74.363 29.46 74.833 29.46H75.513V28.71H74.563C73.723 28.71 73.203 29.13 73.203 29.93V30.71H72.243V31.55H73.203V36ZM76.2986 29.9H77.3286V28.71H76.2986V29.9ZM76.2986 36H77.3286V30.71H76.2986V36ZM78.7596 36H79.7796V33.11C79.7796 32.2 80.3496 31.48 81.2596 31.48C82.0996 31.48 82.4896 31.99 82.4896 33.07V36H83.5196V32.86C83.5196 31.24 82.7096 30.63 81.6296 30.63C80.8496 30.63 80.1496 31.01 79.8396 31.76H79.7796L79.7396 30.71H78.7596V36ZM86.7119 36.09C87.6019 36.09 88.2619 35.63 88.5119 34.95H88.5719V36H89.6019V30.71H88.6119L88.5719 31.75H88.5119C88.2619 31.07 87.6019 30.62 86.7119 30.62C85.4219 30.62 84.5519 31.58 84.5519 33.35C84.5519 35.12 85.4219 36.09 86.7119 36.09ZM87.0719 35.24C86.1919 35.24 85.6119 34.59 85.6119 33.35C85.6119 32.1 86.1919 31.46 87.0719 31.46C88.0519 31.46 88.5619 32.24 88.5619 33.05V33.65C88.5619 34.47 88.0519 35.24 87.0719 35.24ZM91.0447 36H92.0647V33.11C92.0647 32.2 92.6347 31.48 93.5447 31.48C94.3847 31.48 94.7747 31.99 94.7747 33.07V36H95.8047V32.86C95.8047 31.24 94.9947 30.63 93.9147 30.63C93.1347 30.63 92.4347 31.01 92.1247 31.76H92.0647L92.0247 30.71H91.0447V36ZM99.4071 36.09C100.727 36.09 101.687 35.31 101.767 34.11H100.767C100.687 34.78 100.177 35.23 99.4071 35.23C98.4871 35.23 97.8871 34.56 97.8871 33.37C97.8871 32.24 98.4371 31.49 99.4171 31.49C100.097 31.49 100.627 31.85 100.747 32.54H101.747C101.667 31.4 100.727 30.63 99.4471 30.63C97.8571 30.63 96.8371 31.72 96.8371 33.36C96.8371 35 97.8571 36.09 99.4071 36.09ZM105.012 36.09C106.262 36.09 107.222 35.41 107.362 34.37H106.382C106.252 34.92 105.722 35.27 105.012 35.27C104.092 35.27 103.492 34.65 103.472 33.56H107.392C107.552 31.9 106.712 30.63 104.972 30.63C103.422 30.63 102.452 31.71 102.452 33.38C102.452 35.01 103.422 36.09 105.012 36.09ZM104.962 31.44C105.742 31.44 106.352 31.85 106.382 32.83H103.492C103.572 31.97 104.132 31.44 104.962 31.44ZM112.712 36.1C114.092 36.1 114.952 35.58 114.952 34.5C114.952 33.29 114.032 33.05 112.932 32.9C112.032 32.78 111.632 32.62 111.632 32.1C111.632 31.65 112.012 31.34 112.712 31.34C113.392 31.34 113.822 31.63 113.832 32.27H114.842C114.822 31.24 114.032 30.61 112.732 30.61C111.452 30.61 110.602 31.19 110.602 32.2C110.602 33.28 111.432 33.56 112.632 33.73C113.522 33.86 113.902 34 113.902 34.59C113.902 35.08 113.502 35.37 112.742 35.37C112.002 35.37 111.472 35.06 111.472 34.34H110.452C110.452 35.39 111.262 36.1 112.712 36.1ZM118.402 36.09C119.992 36.09 120.982 34.98 120.982 33.36C120.982 31.68 119.942 30.63 118.402 30.63C116.802 30.63 115.812 31.74 115.812 33.37C115.812 35.03 116.852 36.09 118.402 36.09ZM118.402 35.23C117.462 35.23 116.862 34.55 116.862 33.37C116.862 32.15 117.482 31.48 118.402 31.48C119.352 31.48 119.932 32.17 119.932 33.36C119.932 34.56 119.322 35.23 118.402 35.23ZM122.06 36H123.09V28.71H122.06V36ZM126.371 36.09C127.191 36.09 127.881 35.66 128.141 34.93H128.201L128.251 36H129.231V30.71H128.201V33.57C128.201 34.54 127.621 35.23 126.751 35.23C125.861 35.23 125.501 34.69 125.501 33.71V30.71H124.471V33.97C124.471 35.37 125.171 36.09 126.371 36.09ZM132.135 36H133.195V35.15H132.475C132.145 35.15 132.025 35.06 132.025 34.71V31.55H133.195V30.71H132.025V29.06L130.995 29.18V30.71H129.995V31.55H130.995V34.9C130.995 35.61 131.265 36 132.135 36ZM134.219 29.9H135.249V28.71H134.219V29.9ZM134.219 36H135.249V30.71H134.219V36ZM138.909 36.09C140.499 36.09 141.489 34.98 141.489 33.36C141.489 31.68 140.449 30.63 138.909 30.63C137.309 30.63 136.319 31.74 136.319 33.37C136.319 35.03 137.359 36.09 138.909 36.09ZM138.909 35.23C137.969 35.23 137.369 34.55 137.369 33.37C137.369 32.15 137.989 31.48 138.909 31.48C139.859 31.48 140.439 32.17 140.439 33.36C140.439 34.56 139.829 35.23 138.909 35.23ZM142.568 36H143.588V33.11C143.588 32.2 144.158 31.48 145.068 31.48C145.908 31.48 146.298 31.99 146.298 33.07V36H147.328V32.86C147.328 31.24 146.518 30.63 145.438 30.63C144.658 30.63 143.958 31.01 143.648 31.76H143.588L143.548 30.71H142.568V36Z" fill="#9CA3AF"/>
<path d="M25.2438 13.4355L13.5462 6.70273C13.3524 6.58164 13.086 6.5332 12.7954 6.5332C12.5048 6.5332 12.2384 6.60586 12.0446 6.70273L0.419629 13.4598C0.00791004 13.702 -0.282715 14.3074 -0.282715 14.7676V28.2574C-0.282715 28.5238 -0.234277 28.8387 -0.0405273 29.1051L25.8251 14.0895C25.6798 13.7988 25.4618 13.5809 25.2438 13.4355Z" fill="#659AD3"/>
<path d="M-0.113281 29.0801C0.00781249 29.2738 0.177344 29.4434 0.346875 29.5402L12.0203 36.2973C12.2141 36.4184 12.4805 36.4668 12.7711 36.4668C13.0617 36.4668 13.3281 36.3941 13.5219 36.2973L25.1469 29.5402C25.5586 29.298 25.8492 28.6926 25.8492 28.2324V14.7426C25.8492 14.5246 25.825 14.2824 25.7039 14.0645L-0.113281 29.0801Z" fill="#03599C"/>
<path d="M17.954 24.4305C16.9368 26.2227 14.9993 27.4336 12.7954 27.4336C9.52588 27.4336 6.86182 24.7695 6.86182 21.5C6.86182 18.2305 9.52588 15.5664 12.7954 15.5664C14.9993 15.5664 16.9368 16.7773 17.954 18.5938L21.1024 16.7773C19.4556 13.8953 16.3556 11.9336 12.7954 11.9336C7.51572 11.9336 3.229 16.2203 3.229 21.5C3.229 26.7797 7.51572 31.0664 12.7954 31.0664C16.3313 31.0664 19.4313 29.1289 21.0782 26.2711L17.954 24.4305Z" fill="white"/>
<path d="M50.8534 19.126C53.3734 19.126 55.2214 17.712 55.4874 15.556L53.9474 15.542C53.6954 16.914 52.5054 17.81 50.8534 17.81C48.7394 17.81 47.4234 16.382 47.4234 13.904C47.4234 11.412 48.7394 9.998 50.8534 9.998C52.5194 9.998 53.6674 10.908 53.9474 12.21H55.4874C55.1794 10.068 53.3734 8.682 50.8534 8.682C47.8574 8.682 45.8554 10.67 45.8554 13.904C45.8554 17.124 47.8434 19.126 50.8534 19.126ZM59.6395 19.126C60.7875 19.126 61.7535 18.524 62.1175 17.502H62.2015L62.2715 19H63.6435V11.594H62.2015V15.598C62.2015 16.956 61.3895 17.922 60.1715 17.922C58.9255 17.922 58.4215 17.166 58.4215 15.794V11.594H56.9795V16.158C56.9795 18.118 57.9595 19.126 59.6395 19.126ZM65.5944 19H67.0224V14.772C67.0924 13.554 67.8344 12.868 69.1504 12.868C69.3184 12.868 69.4864 12.868 69.5984 12.882V11.524C69.4724 11.51 69.3324 11.496 69.1644 11.496C68.1844 11.496 67.3444 11.958 67.0224 12.91H66.9524L66.8824 11.594H65.5944V19ZM72.4681 19H74.2321L76.8641 11.594H75.3101L73.8261 16.158L73.3781 17.754H73.3221L72.8461 16.158L71.3621 11.594H69.8081L72.4681 19ZM80.7604 19.126C82.5104 19.126 83.8544 18.174 84.0504 16.718H82.6784C82.4964 17.488 81.7544 17.978 80.7604 17.978C79.4724 17.978 78.6324 17.11 78.6044 15.584H84.0924C84.3164 13.26 83.1404 11.482 80.7044 11.482C78.5344 11.482 77.1764 12.994 77.1764 15.332C77.1764 17.614 78.5344 19.126 80.7604 19.126ZM80.6904 12.616C81.7824 12.616 82.6364 13.19 82.6784 14.562H78.6324C78.7444 13.358 79.5284 12.616 80.6904 12.616ZM88.3078 19.126C89.5538 19.126 90.4778 18.482 90.8278 17.53H90.9118L90.9678 19H92.3538V8.794H90.9118V13.05H90.8278C90.4778 12.098 89.5538 11.468 88.3078 11.468C86.5018 11.468 85.2838 12.812 85.2838 15.29C85.2838 17.768 86.5018 19.126 88.3078 19.126ZM88.8118 17.936C87.5798 17.936 86.7678 17.026 86.7678 15.29C86.7678 13.54 87.5798 12.644 88.8118 12.644C90.1838 12.644 90.8978 13.736 90.8978 14.87V15.71C90.8978 16.858 90.1838 17.936 88.8118 17.936Z" fill="#1E2C31"/>
<path d="M105.922 17.1356C105.706 17.1356 105.51 17.1009 105.334 17.0316C105.161 16.9623 105.01 16.8636 104.882 16.7356C104.757 16.6049 104.661 16.4476 104.594 16.2636C104.528 16.0796 104.494 15.8729 104.494 15.6436C104.494 15.4116 104.528 15.2036 104.594 15.0196C104.661 14.8356 104.758 14.6796 104.886 14.5516C105.014 14.4209 105.165 14.3223 105.338 14.2556C105.512 14.1863 105.706 14.1516 105.922 14.1516C106.162 14.1516 106.376 14.1929 106.562 14.2756C106.752 14.3583 106.906 14.4756 107.026 14.6276C107.146 14.7769 107.22 14.9543 107.246 15.1596H106.806C106.78 15.0369 106.726 14.9289 106.646 14.8356C106.569 14.7396 106.469 14.6649 106.346 14.6116C106.224 14.5556 106.082 14.5276 105.922 14.5276C105.722 14.5276 105.548 14.5716 105.398 14.6596C105.252 14.7476 105.138 14.8743 105.058 15.0396C104.981 15.2049 104.942 15.4063 104.942 15.6436C104.942 15.8196 104.965 15.9769 105.01 16.1156C105.056 16.2543 105.121 16.3716 105.206 16.4676C105.292 16.5609 105.394 16.6329 105.514 16.6836C105.637 16.7343 105.773 16.7596 105.922 16.7596C106.08 16.7596 106.22 16.7329 106.342 16.6796C106.468 16.6263 106.57 16.5516 106.65 16.4556C106.73 16.3569 106.782 16.2423 106.806 16.1116L107.246 16.1156C107.222 16.3209 107.15 16.5009 107.03 16.6556C106.913 16.8076 106.758 16.9263 106.566 17.0116C106.377 17.0943 106.162 17.1356 105.922 17.1356ZM108.616 17.1356C108.461 17.1356 108.32 17.1103 108.192 17.0596C108.067 17.0089 107.959 16.9356 107.868 16.8396C107.777 16.7436 107.707 16.6289 107.656 16.4956C107.605 16.3623 107.58 16.2129 107.58 16.0476C107.58 15.8289 107.621 15.6383 107.704 15.4756C107.789 15.3103 107.909 15.1823 108.064 15.0916C108.221 14.9983 108.405 14.9516 108.616 14.9516C108.771 14.9516 108.911 14.9769 109.036 15.0276C109.164 15.0756 109.273 15.1476 109.364 15.2436C109.455 15.3396 109.524 15.4556 109.572 15.5916C109.623 15.7249 109.648 15.8756 109.648 16.0436C109.648 16.2596 109.607 16.4503 109.524 16.6156C109.441 16.7783 109.323 16.9063 109.168 16.9996C109.013 17.0903 108.829 17.1356 108.616 17.1356ZM108.616 16.7916C108.739 16.7916 108.845 16.7636 108.936 16.7076C109.029 16.6489 109.101 16.5636 109.152 16.4516C109.203 16.3396 109.228 16.2036 109.228 16.0436C109.228 15.9236 109.213 15.8183 109.184 15.7276C109.157 15.6343 109.117 15.5556 109.064 15.4916C109.011 15.4249 108.947 15.3756 108.872 15.3436C108.797 15.3089 108.712 15.2916 108.616 15.2916C108.493 15.2916 108.385 15.3209 108.292 15.3796C108.201 15.4383 108.129 15.5236 108.076 15.6356C108.025 15.7449 108 15.8823 108 16.0476C108 16.1649 108.013 16.2703 108.04 16.3636C108.069 16.4543 108.111 16.5316 108.164 16.5956C108.22 16.6596 108.285 16.7089 108.36 16.7436C108.437 16.7756 108.523 16.7916 108.616 16.7916ZM110.08 17.0996V14.9836H110.472L110.488 15.4036H110.512C110.57 15.2543 110.662 15.1423 110.788 15.0676C110.916 14.9903 111.057 14.9516 111.212 14.9516C111.366 14.9516 111.505 14.9889 111.628 15.0636C111.753 15.1383 111.842 15.2663 111.896 15.4476H111.928C111.986 15.2823 112.082 15.1583 112.216 15.0756C112.352 14.9929 112.504 14.9516 112.672 14.9516C112.81 14.9516 112.934 14.9809 113.044 15.0396C113.156 15.0983 113.244 15.1929 113.308 15.3236C113.372 15.4543 113.404 15.6276 113.404 15.8436V17.0996H112.996V15.9276C112.996 15.7836 112.978 15.6649 112.944 15.5716C112.909 15.4756 112.857 15.4049 112.788 15.3596C112.718 15.3143 112.628 15.2916 112.516 15.2916C112.401 15.2916 112.301 15.3209 112.216 15.3796C112.13 15.4383 112.064 15.5169 112.016 15.6156C111.97 15.7116 111.948 15.8209 111.948 15.9436V17.0996H111.536V15.9276C111.536 15.7836 111.518 15.6649 111.484 15.5716C111.449 15.4756 111.397 15.4049 111.328 15.3596C111.258 15.3143 111.169 15.2916 111.06 15.2916C110.942 15.2916 110.841 15.3209 110.756 15.3796C110.67 15.4383 110.604 15.5169 110.556 15.6156C110.51 15.7116 110.488 15.8209 110.488 15.9436V17.0996H110.08ZM113.958 17.0996V14.9836H114.37V17.0996H113.958ZM113.958 14.6596V14.1836H114.37V14.6596H113.958ZM114.943 17.0996V14.9836H115.335L115.351 15.4036H115.375C115.436 15.2543 115.532 15.1423 115.663 15.0676C115.793 14.9903 115.936 14.9516 116.091 14.9516C116.2 14.9516 116.3 14.9676 116.391 14.9996C116.484 15.0316 116.564 15.0836 116.631 15.1556C116.7 15.2249 116.753 15.3169 116.791 15.4316C116.828 15.5436 116.847 15.6809 116.847 15.8436V17.0996H116.435V15.9276C116.435 15.7836 116.417 15.6649 116.383 15.5716C116.348 15.4756 116.295 15.4049 116.223 15.3596C116.151 15.3143 116.057 15.2916 115.943 15.2916C115.823 15.2916 115.717 15.3209 115.627 15.3796C115.539 15.4383 115.471 15.5169 115.423 15.6156C115.375 15.7116 115.351 15.8209 115.351 15.9436V17.0996H114.943ZM118.24 17.8076C118.072 17.8076 117.925 17.7823 117.8 17.7316C117.674 17.6836 117.574 17.6143 117.5 17.5236C117.425 17.4329 117.38 17.3249 117.364 17.1996H117.764C117.774 17.2609 117.801 17.3143 117.844 17.3596C117.886 17.4076 117.941 17.4436 118.008 17.4676C118.077 17.4916 118.157 17.5036 118.248 17.5036C118.376 17.5036 118.482 17.4849 118.568 17.4476C118.653 17.4129 118.718 17.3556 118.764 17.2756C118.809 17.1956 118.832 17.0903 118.832 16.9596V16.5476H118.804C118.756 16.6756 118.67 16.7796 118.548 16.8596C118.425 16.9369 118.28 16.9756 118.112 16.9756C117.984 16.9756 117.866 16.9543 117.76 16.9116C117.656 16.8663 117.566 16.8009 117.492 16.7156C117.417 16.6276 117.36 16.5209 117.32 16.3956C117.28 16.2676 117.26 16.1236 117.26 15.9636C117.26 15.7476 117.296 15.5636 117.368 15.4116C117.44 15.2596 117.54 15.1449 117.668 15.0676C117.796 14.9876 117.945 14.9476 118.116 14.9476C118.284 14.9476 118.428 14.9863 118.548 15.0636C118.67 15.1409 118.756 15.2449 118.804 15.3756H118.832L118.84 14.9836H119.24V16.9036C119.24 17.0689 119.216 17.2089 119.168 17.3236C119.12 17.4409 119.052 17.5343 118.964 17.6036C118.876 17.6756 118.769 17.7276 118.644 17.7596C118.521 17.7916 118.386 17.8076 118.24 17.8076ZM118.252 16.6556C118.374 16.6556 118.478 16.6276 118.564 16.5716C118.649 16.5156 118.714 16.4449 118.76 16.3596C118.805 16.2716 118.829 16.1809 118.832 16.0876L118.828 15.8316C118.825 15.7409 118.802 15.6529 118.76 15.5676C118.717 15.4796 118.653 15.4089 118.568 15.3556C118.485 15.2996 118.381 15.2716 118.256 15.2716C118.138 15.2716 118.037 15.2983 117.952 15.3516C117.866 15.4049 117.8 15.4836 117.752 15.5876C117.706 15.6916 117.684 15.8169 117.684 15.9636C117.684 16.1129 117.706 16.2396 117.752 16.3436C117.8 16.4449 117.866 16.5223 117.952 16.5756C118.037 16.6289 118.137 16.6556 118.252 16.6556ZM121.729 17.1356C121.47 17.1356 121.256 17.0956 121.085 17.0156C120.914 16.9356 120.786 16.8249 120.701 16.6836C120.616 16.5396 120.572 16.3743 120.569 16.1876H121.017C121.02 16.3103 121.046 16.4183 121.097 16.5116C121.15 16.6023 121.229 16.6716 121.333 16.7196C121.437 16.7676 121.572 16.7916 121.737 16.7916C121.942 16.7916 122.106 16.7543 122.229 16.6796C122.354 16.6049 122.417 16.4903 122.417 16.3356C122.417 16.2476 122.404 16.1743 122.377 16.1156C122.35 16.0569 122.306 16.0089 122.245 15.9716C122.186 15.9316 122.108 15.8983 122.009 15.8716C121.91 15.8449 121.79 15.8196 121.649 15.7956C121.481 15.7663 121.333 15.7316 121.205 15.6916C121.08 15.6489 120.974 15.5969 120.889 15.5356C120.806 15.4716 120.744 15.3943 120.701 15.3036C120.658 15.2129 120.637 15.1063 120.637 14.9836C120.637 14.8129 120.68 14.6649 120.765 14.5396C120.85 14.4143 120.973 14.3183 121.133 14.2516C121.293 14.1849 121.485 14.1516 121.709 14.1516C121.933 14.1516 122.124 14.1876 122.281 14.2596C122.438 14.3289 122.56 14.4276 122.645 14.5556C122.73 14.6809 122.774 14.8303 122.777 15.0036H122.333C122.33 14.8863 122.301 14.7903 122.245 14.7156C122.192 14.6383 122.117 14.5809 122.021 14.5436C121.928 14.5063 121.818 14.4876 121.693 14.4876C121.565 14.4876 121.456 14.5063 121.365 14.5436C121.277 14.5783 121.209 14.6289 121.161 14.6956C121.113 14.7596 121.089 14.8356 121.089 14.9236C121.089 15.0303 121.114 15.1129 121.165 15.1716C121.218 15.2303 121.302 15.2769 121.417 15.3116C121.532 15.3436 121.682 15.3769 121.869 15.4116C122 15.4303 122.124 15.4569 122.241 15.4916C122.361 15.5263 122.468 15.5743 122.561 15.6356C122.657 15.6969 122.732 15.7809 122.785 15.8876C122.841 15.9916 122.869 16.1276 122.869 16.2956C122.869 16.4609 122.825 16.6076 122.737 16.7356C122.652 16.8609 122.524 16.9596 122.353 17.0316C122.185 17.1009 121.977 17.1356 121.729 17.1356ZM124.225 17.1356C124.071 17.1356 123.929 17.1103 123.801 17.0596C123.676 17.0089 123.568 16.9356 123.477 16.8396C123.387 16.7436 123.316 16.6289 123.265 16.4956C123.215 16.3623 123.189 16.2129 123.189 16.0476C123.189 15.8289 123.231 15.6383 123.313 15.4756C123.399 15.3103 123.519 15.1823 123.673 15.0916C123.831 14.9983 124.015 14.9516 124.225 14.9516C124.38 14.9516 124.52 14.9769 124.645 15.0276C124.773 15.0756 124.883 15.1476 124.973 15.2436C125.064 15.3396 125.133 15.4556 125.181 15.5916C125.232 15.7249 125.257 15.8756 125.257 16.0436C125.257 16.2596 125.216 16.4503 125.133 16.6156C125.051 16.7783 124.932 16.9063 124.777 16.9996C124.623 17.0903 124.439 17.1356 124.225 17.1356ZM124.225 16.7916C124.348 16.7916 124.455 16.7636 124.545 16.7076C124.639 16.6489 124.711 16.5636 124.761 16.4516C124.812 16.3396 124.837 16.2036 124.837 16.0436C124.837 15.9236 124.823 15.8183 124.793 15.7276C124.767 15.6343 124.727 15.5556 124.673 15.4916C124.62 15.4249 124.556 15.3756 124.481 15.3436C124.407 15.3089 124.321 15.2916 124.225 15.2916C124.103 15.2916 123.995 15.3209 123.901 15.3796C123.811 15.4383 123.739 15.5236 123.685 15.6356C123.635 15.7449 123.609 15.8823 123.609 16.0476C123.609 16.1649 123.623 16.2703 123.649 16.3636C123.679 16.4543 123.72 16.5316 123.773 16.5956C123.829 16.6596 123.895 16.7089 123.969 16.7436C124.047 16.7756 124.132 16.7916 124.225 16.7916ZM126.62 17.1356C126.465 17.1356 126.324 17.1103 126.196 17.0596C126.071 17.0089 125.963 16.9356 125.872 16.8396C125.781 16.7436 125.711 16.6289 125.66 16.4956C125.609 16.3623 125.584 16.2129 125.584 16.0476C125.584 15.8289 125.625 15.6383 125.708 15.4756C125.793 15.3103 125.913 15.1823 126.068 15.0916C126.225 14.9983 126.409 14.9516 126.62 14.9516C126.775 14.9516 126.915 14.9769 127.04 15.0276C127.168 15.0756 127.277 15.1476 127.368 15.2436C127.459 15.3396 127.528 15.4556 127.576 15.5916C127.627 15.7249 127.652 15.8756 127.652 16.0436C127.652 16.2596 127.611 16.4503 127.528 16.6156C127.445 16.7783 127.327 16.9063 127.172 16.9996C127.017 17.0903 126.833 17.1356 126.62 17.1356ZM126.62 16.7916C126.743 16.7916 126.849 16.7636 126.94 16.7076C127.033 16.6489 127.105 16.5636 127.156 16.4516C127.207 16.3396 127.232 16.2036 127.232 16.0436C127.232 15.9236 127.217 15.8183 127.188 15.7276C127.161 15.6343 127.121 15.5556 127.068 15.4916C127.015 15.4249 126.951 15.3756 126.876 15.3436C126.801 15.3089 126.716 15.2916 126.62 15.2916C126.497 15.2916 126.389 15.3209 126.296 15.3796C126.205 15.4383 126.133 15.5236 126.08 15.6356C126.029 15.7449 126.004 15.8823 126.004 16.0476C126.004 16.1649 126.017 16.2703 126.044 16.3636C126.073 16.4543 126.115 16.5316 126.168 16.5956C126.224 16.6596 126.289 16.7089 126.364 16.7436C126.441 16.7756 126.527 16.7916 126.62 16.7916ZM128.083 17.0996V14.9836H128.475L128.491 15.4036H128.515C128.577 15.2543 128.673 15.1423 128.803 15.0676C128.934 14.9903 129.077 14.9516 129.231 14.9516C129.341 14.9516 129.441 14.9676 129.531 14.9996C129.625 15.0316 129.705 15.0836 129.771 15.1556C129.841 15.2249 129.894 15.3169 129.931 15.4316C129.969 15.5436 129.987 15.6809 129.987 15.8436V17.0996H129.575V15.9276C129.575 15.7836 129.558 15.6649 129.523 15.5716C129.489 15.4756 129.435 15.4049 129.363 15.3596C129.291 15.3143 129.198 15.2916 129.083 15.2916C128.963 15.2916 128.858 15.3209 128.767 15.3796C128.679 15.4383 128.611 15.5169 128.563 15.6156C128.515 15.7116 128.491 15.8209 128.491 15.9436V17.0996H128.083Z" fill="#9CA3AF"/>
<rect x="99.5711" y="9.47491" width="35.4486" height="12.2486" rx="6.12431" stroke="#9CA3AF" stroke-width="0.551376"/>
</g>
<defs>
<clipPath id="clip0_2451_28895">
<rect width="198" height="43" fill="white"/>
</clipPath>
</defs>
</svg>
