<svg width="476" height="166" viewBox="0 0 476 166" fill="none" xmlns="http://www.w3.org/2000/svg">
<g clip-path="url(#clip0_3430_29432)">
<path d="M181.349 97.2577C181.349 100.203 183.737 102.591 186.682 102.591C189.628 102.591 192.016 100.203 192.016 97.2577C192.016 94.3122 189.628 91.9244 186.682 91.9244C183.737 91.9244 181.349 94.3122 181.349 97.2577ZM356.471 91.9573L356.067 91.0426L356.059 91.0461L356.051 91.0498L356.471 91.9573ZM181.89 133.038L189.903 134.61L191.474 126.597L183.462 125.026L181.89 133.038ZM186.283 96.3408C159.453 108.013 124.29 125.108 106.192 138.411C101.671 141.734 98.139 144.875 96.077 147.685C95.0457 149.091 94.3325 150.48 94.0906 151.822C93.8417 153.202 94.0987 154.511 94.9604 155.644C95.7952 156.741 97.1307 157.585 98.8805 158.227C100.638 158.871 102.894 159.34 105.671 159.633C111.226 160.22 119.014 160.12 129.402 159.209L129.228 157.217C118.89 158.123 111.249 158.211 105.881 157.644C103.197 157.36 101.118 156.917 99.5687 156.349C98.0114 155.778 97.0677 155.111 96.5521 154.433C96.0636 153.791 95.8991 153.062 96.0588 152.177C96.2255 151.252 96.751 150.148 97.6895 148.868C99.5672 146.309 102.899 143.314 107.377 140.022C125.273 126.867 160.245 109.85 187.081 98.1747L186.283 96.3408ZM129.402 159.209C212.481 151.925 315.682 111.937 356.891 92.8648L356.051 91.0498C314.91 110.091 211.959 149.963 129.228 157.217L129.402 159.209ZM356.875 92.872C368.429 87.7664 375.46 83.8846 378.692 81.0572C379.507 80.3443 380.134 79.6529 380.526 78.9787C380.92 78.3023 381.132 77.5395 380.911 76.7731C380.692 76.0102 380.112 75.4862 379.457 75.1313C378.802 74.7762 377.966 74.5299 377.013 74.3581C373.237 73.6768 366.573 73.9974 358.022 75.0735C349.426 76.1552 338.8 78.0183 327.027 80.4921C303.479 85.4399 275.291 92.8414 249.488 101.358C223.71 109.866 200.218 119.517 186.125 128.988L187.24 130.648C201.091 121.34 224.36 111.758 250.114 103.257C275.843 94.7654 303.959 87.3828 327.438 82.4494C339.178 79.9825 349.747 78.1306 358.271 77.0579C366.84 75.9795 373.221 75.7062 376.658 76.3263C377.509 76.4798 378.112 76.6773 378.505 76.8897C378.897 77.1022 378.973 77.2694 378.989 77.3266C379.005 77.3803 379.034 77.5666 378.798 77.9733C378.56 78.3822 378.111 78.9081 377.375 79.5519C374.404 82.1513 367.645 85.9263 356.067 91.0426L356.875 92.872Z" fill="url(#paint0_linear_3430_29432)"/>
<path d="M36.2279 3.73C39.6513 3.73 42.6629 4.445 45.2629 5.875C47.8629 7.26167 50.0296 9.10333 51.7629 11.4C53.4963 13.6967 54.7963 16.3183 55.6629 19.265C56.5296 22.2117 56.9629 25.245 56.9629 28.365C56.9629 31.485 56.5296 34.5183 55.6629 37.465C54.7963 40.4117 53.4963 43.055 51.7629 45.395C50.0296 47.6917 47.8629 49.5333 45.2629 50.92C42.6629 52.3067 39.6513 53 36.2279 53H15.4279C16.1646 52.5667 16.7496 52.0033 17.1829 51.31C17.6163 50.6167 17.9413 49.88 18.1579 49.1C18.3746 48.2767 18.5263 47.4317 18.6129 46.565C18.6996 45.6983 18.7429 44.8967 18.7429 44.16V12.57C18.7429 11.79 18.6996 10.9883 18.6129 10.165C18.5696 9.29833 18.4179 8.475 18.1579 7.695C17.9413 6.87167 17.6163 6.11333 17.1829 5.42C16.7496 4.72666 16.1646 4.16333 15.4279 3.73H36.2279ZM31.5479 51.44C33.4979 51.44 35.2313 51.0933 36.7479 50.4C38.3079 49.7067 39.6729 48.775 40.8429 47.605C42.0563 46.435 43.0746 45.07 43.8979 43.51C44.7213 41.95 45.3929 40.325 45.9129 38.635C46.4763 36.9017 46.8663 35.1683 47.0829 33.435C47.3429 31.6583 47.4729 29.9683 47.4729 28.365C47.4729 25.9817 47.1913 23.4467 46.6279 20.76C46.0646 18.03 45.1546 15.5383 43.8979 13.285C42.6413 10.9883 40.9946 9.08166 38.9579 7.565C36.9646 6.04833 34.4946 5.29 31.5479 5.29H28.2329V51.44H31.5479ZM75.5098 21.085C77.7631 21.085 79.8431 21.5183 81.7498 22.385C83.6564 23.2517 85.3031 24.4433 86.6898 25.96C88.1198 27.4333 89.2248 29.1667 90.0048 31.16C90.7848 33.11 91.1748 35.19 91.1748 37.4C91.1748 39.61 90.7848 41.7117 90.0048 43.705C89.2248 45.655 88.1198 47.3667 86.6898 48.84C85.3031 50.3133 83.6564 51.4833 81.7498 52.35C79.8431 53.2167 77.7631 53.65 75.5098 53.65C73.2564 53.65 71.1548 53.2167 69.2048 52.35C67.2981 51.4833 65.6514 50.3133 64.2648 48.84C62.8781 47.3667 61.7731 45.655 60.9498 43.705C60.1698 41.7117 59.7798 39.61 59.7798 37.4C59.7798 35.19 60.1698 33.11 60.9498 31.16C61.7731 29.1667 62.8781 27.4333 64.2648 25.96C65.6514 24.4433 67.2981 23.2517 69.2048 22.385C71.1548 21.5183 73.2564 21.085 75.5098 21.085ZM77.5898 51.895C78.5864 51.895 79.3664 51.5267 79.9298 50.79C80.4931 50.0533 80.9264 49.1867 81.2298 48.19C81.5331 47.15 81.7281 46.0883 81.8148 45.005C81.9014 43.9217 81.9448 43.055 81.9448 42.405C81.9448 41.5817 81.8798 40.52 81.7498 39.22C81.6198 37.92 81.4031 36.555 81.0998 35.125C80.7964 33.695 80.4064 32.265 79.9298 30.835C79.4964 29.3617 78.9331 28.0617 78.2398 26.935C77.5464 25.765 76.7448 24.8117 75.8348 24.075C74.9681 23.3383 73.9498 22.97 72.7798 22.97C71.8698 22.97 71.1548 23.3167 70.6348 24.01C70.1148 24.7033 69.7248 25.5267 69.4648 26.48C69.2048 27.4333 69.0314 28.4083 68.9448 29.405C68.9014 30.4017 68.8798 31.2033 68.8798 31.81C68.8798 32.59 68.9448 33.63 69.0748 34.93C69.2048 36.1867 69.3998 37.5733 69.6598 39.09C69.9631 40.5633 70.3314 42.0583 70.7648 43.575C71.2414 45.0917 71.8048 46.4783 72.4548 47.735C73.1048 48.9483 73.8414 49.945 74.6648 50.725C75.5314 51.505 76.5064 51.895 77.5898 51.895ZM135.2 27.325C135.287 27.1517 135.568 26.8917 136.045 26.545C136.565 26.1983 137.172 25.7867 137.865 25.31C138.602 24.8333 139.36 24.3567 140.14 23.88C140.963 23.36 141.722 22.905 142.415 22.515C143.152 22.0817 143.78 21.735 144.3 21.475C144.82 21.215 145.145 21.085 145.275 21.085C146.748 21.085 148.027 21.3667 149.11 21.93C150.193 22.4933 151.082 23.2517 151.775 24.205C152.512 25.1583 153.053 26.2633 153.4 27.52C153.79 28.7767 153.985 30.0767 153.985 31.42V44.16C153.985 44.8967 154.028 45.6983 154.115 46.565C154.202 47.4317 154.353 48.2767 154.57 49.1C154.787 49.9233 155.112 50.6817 155.545 51.375C156.022 52.0683 156.607 52.61 157.3 53H141.245C141.938 52.61 142.502 52.0683 142.935 51.375C143.368 50.6383 143.693 49.88 143.91 49.1C144.127 48.2767 144.278 47.4317 144.365 46.565C144.452 45.6983 144.495 44.8967 144.495 44.16V31.68C144.495 31.03 144.43 30.3583 144.3 29.665C144.17 28.9717 143.953 28.3433 143.65 27.78C143.347 27.2167 142.913 26.7617 142.35 26.415C141.83 26.0683 141.18 25.895 140.4 25.895C139.62 25.895 138.948 26.0683 138.385 26.415C137.822 26.7617 137.345 27.2167 136.955 27.78C136.565 28.3 136.262 28.9067 136.045 29.6C135.872 30.2933 135.763 30.9867 135.72 31.68V44.16C135.72 44.8967 135.763 45.6983 135.85 46.565C135.937 47.4317 136.088 48.2767 136.305 49.1C136.522 49.9233 136.847 50.6817 137.28 51.375C137.757 52.0683 138.342 52.61 139.035 53H122.98C123.673 52.61 124.237 52.0683 124.67 51.375C125.103 50.6383 125.428 49.88 125.645 49.1C125.862 48.2767 126.013 47.4317 126.1 46.565C126.187 45.6983 126.23 44.8967 126.23 44.16V31.68C126.23 31.03 126.165 30.3583 126.035 29.665C125.905 28.9717 125.688 28.3433 125.385 27.78C125.082 27.2167 124.648 26.7617 124.085 26.415C123.565 26.0683 122.915 25.895 122.135 25.895C120.792 25.895 119.752 26.3717 119.015 27.325C118.278 28.235 117.802 29.2967 117.585 30.51V44.16C117.585 44.8967 117.607 45.6983 117.65 46.565C117.737 47.4317 117.888 48.2767 118.105 49.1C118.322 49.9233 118.647 50.6817 119.08 51.375C119.513 52.0683 120.098 52.61 120.835 53H104.78C105.473 52.61 106.037 52.0683 106.47 51.375C106.903 50.6383 107.228 49.88 107.445 49.1C107.705 48.2767 107.878 47.4317 107.965 46.565C108.052 45.6983 108.095 44.8967 108.095 44.16V34.93C108.095 34.02 108.008 33.1967 107.835 32.46C107.662 31.68 107.423 30.965 107.12 30.315C106.817 29.665 106.427 29.0367 105.95 28.43C105.517 27.78 105.018 27.1083 104.455 26.415C105.972 26.155 107.25 25.9167 108.29 25.7C109.373 25.44 110.37 25.1367 111.28 24.79C112.233 24.4433 113.187 24.0317 114.14 23.555C115.137 23.035 116.285 22.385 117.585 21.605V26.675C117.888 26.3717 118.517 25.9167 119.47 25.31C120.423 24.7033 121.42 24.0967 122.46 23.49C123.543 22.84 124.518 22.2767 125.385 21.8C126.295 21.3233 126.837 21.085 127.01 21.085C129.263 21.085 131.062 21.735 132.405 23.035C133.792 24.2917 134.745 25.8733 135.265 27.78L135.2 27.325ZM173.581 21.085C175.834 21.085 177.914 21.5183 179.821 22.385C181.728 23.2517 183.374 24.4433 184.761 25.96C186.191 27.4333 187.296 29.1667 188.076 31.16C188.856 33.11 189.246 35.19 189.246 37.4C189.246 39.61 188.856 41.7117 188.076 43.705C187.296 45.655 186.191 47.3667 184.761 48.84C183.374 50.3133 181.728 51.4833 179.821 52.35C177.914 53.2167 175.834 53.65 173.581 53.65C171.328 53.65 169.226 53.2167 167.276 52.35C165.369 51.4833 163.723 50.3133 162.336 48.84C160.949 47.3667 159.844 45.655 159.021 43.705C158.241 41.7117 157.851 39.61 157.851 37.4C157.851 35.19 158.241 33.11 159.021 31.16C159.844 29.1667 160.949 27.4333 162.336 25.96C163.723 24.4433 165.369 23.2517 167.276 22.385C169.226 21.5183 171.328 21.085 173.581 21.085ZM175.661 51.895C176.658 51.895 177.438 51.5267 178.001 50.79C178.564 50.0533 178.998 49.1867 179.301 48.19C179.604 47.15 179.799 46.0883 179.886 45.005C179.973 43.9217 180.016 43.055 180.016 42.405C180.016 41.5817 179.951 40.52 179.821 39.22C179.691 37.92 179.474 36.555 179.171 35.125C178.868 33.695 178.478 32.265 178.001 30.835C177.568 29.3617 177.004 28.0617 176.311 26.935C175.618 25.765 174.816 24.8117 173.906 24.075C173.039 23.3383 172.021 22.97 170.851 22.97C169.941 22.97 169.226 23.3167 168.706 24.01C168.186 24.7033 167.796 25.5267 167.536 26.48C167.276 27.4333 167.103 28.4083 167.016 29.405C166.973 30.4017 166.951 31.2033 166.951 31.81C166.951 32.59 167.016 33.63 167.146 34.93C167.276 36.1867 167.471 37.5733 167.731 39.09C168.034 40.5633 168.403 42.0583 168.836 43.575C169.313 45.0917 169.876 46.4783 170.526 47.735C171.176 48.9483 171.913 49.945 172.736 50.725C173.603 51.505 174.578 51.895 175.661 51.895ZM202.263 28.755C202.696 27.845 203.216 26.935 203.823 26.025C204.473 25.0717 205.188 24.2483 205.968 23.555C206.791 22.8183 207.679 22.2333 208.633 21.8C209.629 21.3233 210.669 21.085 211.753 21.085C213.529 21.085 214.916 21.6917 215.913 22.905C216.953 24.075 217.473 25.505 217.473 27.195C217.473 28.2783 217.256 29.275 216.823 30.185C216.433 31.095 215.869 31.8533 215.133 32.46C214.439 33.0667 213.616 33.5433 212.663 33.89C211.753 34.2367 210.756 34.41 209.673 34.41C209.759 34.15 209.824 33.89 209.868 33.63C209.911 33.37 209.933 33.0883 209.933 32.785C209.933 31.6583 209.543 30.7267 208.763 29.99C208.026 29.21 207.094 28.82 205.968 28.82C205.534 28.82 205.101 28.9283 204.668 29.145C204.234 29.3183 203.823 29.5783 203.433 29.925C203.086 30.2283 202.804 30.5967 202.588 31.03C202.371 31.42 202.263 31.8533 202.263 32.33V44.16C202.263 44.8967 202.284 45.6983 202.328 46.565C202.414 47.4317 202.566 48.2767 202.783 49.1C203.043 49.9233 203.389 50.6817 203.823 51.375C204.256 52.0683 204.819 52.61 205.513 53H189.458C190.151 52.61 190.714 52.0683 191.148 51.375C191.581 50.6383 191.906 49.88 192.123 49.1C192.383 48.2767 192.556 47.4317 192.643 46.565C192.729 45.6983 192.773 44.8967 192.773 44.16V34.93C192.773 34.02 192.686 33.1967 192.513 32.46C192.339 31.68 192.101 30.965 191.798 30.315C191.494 29.665 191.104 29.0367 190.628 28.43C190.194 27.78 189.696 27.1083 189.133 26.415C190.649 26.155 191.928 25.9167 192.968 25.7C194.051 25.44 195.048 25.1367 195.958 24.79C196.911 24.4433 197.864 24.0317 198.818 23.555C199.814 23.035 200.963 22.385 202.263 21.605V28.755ZM226.955 37.075C227.258 38.4183 227.713 39.6967 228.32 40.91C228.926 42.08 229.685 43.12 230.595 44.03C231.505 44.8967 232.566 45.59 233.78 46.11C235.036 46.63 236.445 46.89 238.005 46.89C238.481 46.89 239.045 46.8683 239.695 46.825C240.388 46.7383 241.081 46.63 241.775 46.5C242.468 46.37 243.118 46.1967 243.725 45.98C244.375 45.72 244.873 45.4167 245.22 45.07L245.74 45.46C244.266 48.1467 242.511 50.1833 240.475 51.57C238.481 52.9567 235.881 53.65 232.675 53.65C230.421 53.65 228.32 53.2383 226.37 52.415C224.463 51.5917 222.816 50.465 221.43 49.035C220.086 47.5617 219.025 45.85 218.245 43.9C217.465 41.95 217.075 39.8483 217.075 37.595C217.075 35.4283 217.4 33.3483 218.05 31.355C218.743 29.3617 219.718 27.6067 220.975 26.09C222.275 24.5733 223.835 23.36 225.655 22.45C227.475 21.54 229.533 21.085 231.83 21.085C233.91 21.085 235.795 21.41 237.485 22.06C239.218 22.6667 240.67 23.5767 241.84 24.79C243.053 25.96 243.985 27.39 244.635 29.08C245.285 30.77 245.61 32.655 245.61 34.735V36.295L226.955 37.075ZM236.9 29.535C236.9 28.7983 236.748 28.0183 236.445 27.195C236.185 26.3717 235.795 25.635 235.275 24.985C234.755 24.2917 234.148 23.7283 233.455 23.295C232.761 22.8617 232.003 22.645 231.18 22.645C230.226 22.645 229.446 23.035 228.84 23.815C228.233 24.595 227.756 25.5267 227.41 26.61C227.063 27.65 226.803 28.7333 226.63 29.86C226.5 30.9867 226.435 31.875 226.435 32.525C226.435 33.4783 226.5 34.4533 226.63 35.45C227.496 35.3633 228.363 35.255 229.23 35.125C230.096 34.995 230.963 34.865 231.83 34.735C233.303 34.5183 234.516 33.9983 235.47 33.175C236.423 32.3517 236.9 31.1383 236.9 29.535ZM276.502 7.63C277.499 7.63 278.517 7.76 279.557 8.02C280.597 8.28 281.529 8.67 282.352 9.19C283.219 9.71 283.912 10.4033 284.432 11.27C284.952 12.0933 285.212 13.09 285.212 14.26C285.212 15.7767 284.714 17.0333 283.717 18.03C282.721 18.9833 281.464 19.46 279.947 19.46C278.561 19.46 277.412 19.005 276.502 18.095C275.592 17.185 274.942 16.1017 274.552 14.845C275.376 14.845 276.047 14.6067 276.567 14.13C277.087 13.61 277.347 12.9383 277.347 12.115C277.347 11.2483 277.066 10.5767 276.502 10.1C275.939 9.58 275.224 9.32 274.357 9.32C273.664 9.32 273.014 9.47166 272.407 9.775C271.801 10.0783 271.281 10.49 270.847 11.01C270.457 11.53 270.132 12.115 269.872 12.765C269.656 13.415 269.547 14.065 269.547 14.715C269.547 16.0583 269.872 17.185 270.522 18.095C271.216 18.9617 272.082 19.655 273.122 20.175C274.162 20.695 275.289 21.0633 276.502 21.28C277.716 21.4967 278.864 21.605 279.947 21.605V23.165H272.537V44.16C272.537 44.8967 272.559 45.6983 272.602 46.565C272.689 47.4317 272.841 48.2767 273.057 49.1C273.274 49.9233 273.599 50.6817 274.032 51.375C274.466 52.0683 275.051 52.61 275.787 53H259.732C260.426 52.61 260.989 52.0683 261.422 51.375C261.856 50.6383 262.181 49.88 262.397 49.1C262.657 48.2767 262.831 47.4317 262.917 46.565C263.004 45.6983 263.047 44.8967 263.047 44.16V23.165H259.472V21.605H263.177C263.177 19.525 263.459 17.64 264.022 15.95C264.629 14.2167 265.496 12.7433 266.622 11.53C267.749 10.2733 269.136 9.32 270.782 8.67C272.472 7.97667 274.379 7.63 276.502 7.63ZM293.742 21.085C295.996 21.085 298.076 21.5183 299.982 22.385C301.889 23.2517 303.536 24.4433 304.922 25.96C306.352 27.4333 307.457 29.1667 308.237 31.16C309.017 33.11 309.407 35.19 309.407 37.4C309.407 39.61 309.017 41.7117 308.237 43.705C307.457 45.655 306.352 47.3667 304.922 48.84C303.536 50.3133 301.889 51.4833 299.982 52.35C298.076 53.2167 295.996 53.65 293.742 53.65C291.489 53.65 289.387 53.2167 287.437 52.35C285.531 51.4833 283.884 50.3133 282.497 48.84C281.111 47.3667 280.006 45.655 279.182 43.705C278.402 41.7117 278.012 39.61 278.012 37.4C278.012 35.19 278.402 33.11 279.182 31.16C280.006 29.1667 281.111 27.4333 282.497 25.96C283.884 24.4433 285.531 23.2517 287.437 22.385C289.387 21.5183 291.489 21.085 293.742 21.085ZM295.822 51.895C296.819 51.895 297.599 51.5267 298.162 50.79C298.726 50.0533 299.159 49.1867 299.462 48.19C299.766 47.15 299.961 46.0883 300.047 45.005C300.134 43.9217 300.177 43.055 300.177 42.405C300.177 41.5817 300.112 40.52 299.982 39.22C299.852 37.92 299.636 36.555 299.332 35.125C299.029 33.695 298.639 32.265 298.162 30.835C297.729 29.3617 297.166 28.0617 296.472 26.935C295.779 25.765 294.977 24.8117 294.067 24.075C293.201 23.3383 292.182 22.97 291.012 22.97C290.102 22.97 289.387 23.3167 288.867 24.01C288.347 24.7033 287.957 25.5267 287.697 26.48C287.437 27.4333 287.264 28.4083 287.177 29.405C287.134 30.4017 287.112 31.2033 287.112 31.81C287.112 32.59 287.177 33.63 287.307 34.93C287.437 36.1867 287.632 37.5733 287.892 39.09C288.196 40.5633 288.564 42.0583 288.997 43.575C289.474 45.0917 290.037 46.4783 290.687 47.735C291.337 48.9483 292.074 49.945 292.897 50.725C293.764 51.505 294.739 51.895 295.822 51.895ZM322.424 28.755C322.857 27.845 323.377 26.935 323.984 26.025C324.634 25.0717 325.349 24.2483 326.129 23.555C326.952 22.8183 327.841 22.2333 328.794 21.8C329.791 21.3233 330.831 21.085 331.914 21.085C333.691 21.085 335.077 21.6917 336.074 22.905C337.114 24.075 337.634 25.505 337.634 27.195C337.634 28.2783 337.417 29.275 336.984 30.185C336.594 31.095 336.031 31.8533 335.294 32.46C334.601 33.0667 333.777 33.5433 332.824 33.89C331.914 34.2367 330.917 34.41 329.834 34.41C329.921 34.15 329.986 33.89 330.029 33.63C330.072 33.37 330.094 33.0883 330.094 32.785C330.094 31.6583 329.704 30.7267 328.924 29.99C328.187 29.21 327.256 28.82 326.129 28.82C325.696 28.82 325.262 28.9283 324.829 29.145C324.396 29.3183 323.984 29.5783 323.594 29.925C323.247 30.2283 322.966 30.5967 322.749 31.03C322.532 31.42 322.424 31.8533 322.424 32.33V44.16C322.424 44.8967 322.446 45.6983 322.489 46.565C322.576 47.4317 322.727 48.2767 322.944 49.1C323.204 49.9233 323.551 50.6817 323.984 51.375C324.417 52.0683 324.981 52.61 325.674 53H309.619C310.312 52.61 310.876 52.0683 311.309 51.375C311.742 50.6383 312.067 49.88 312.284 49.1C312.544 48.2767 312.717 47.4317 312.804 46.565C312.891 45.6983 312.934 44.8967 312.934 44.16V34.93C312.934 34.02 312.847 33.1967 312.674 32.46C312.501 31.68 312.262 30.965 311.959 30.315C311.656 29.665 311.266 29.0367 310.789 28.43C310.356 27.78 309.857 27.1083 309.294 26.415C310.811 26.155 312.089 25.9167 313.129 25.7C314.212 25.44 315.209 25.1367 316.119 24.79C317.072 24.4433 318.026 24.0317 318.979 23.555C319.976 23.035 321.124 22.385 322.424 21.605V28.755ZM358.999 67.235C358.002 67.235 357.049 67.105 356.139 66.845C355.272 66.6283 354.492 66.26 353.799 65.74C353.149 65.2633 352.629 64.635 352.239 63.855C351.849 63.075 351.654 62.1433 351.654 61.06C351.654 60.4967 351.741 59.8467 351.914 59.11C352.087 58.4167 352.347 57.7667 352.694 57.16C353.084 56.5533 353.539 56.0333 354.059 55.6C354.579 55.21 355.186 55.015 355.879 55.015C355.879 56.575 356.377 57.7233 357.374 58.46C358.414 59.1967 359.649 59.565 361.079 59.565C361.686 59.565 362.422 59.4567 363.289 59.24C364.156 59.0233 364.979 58.6983 365.759 58.265C366.582 57.875 367.276 57.3767 367.839 56.77C368.402 56.1633 368.684 55.47 368.684 54.69C368.684 54.3433 368.576 54.0617 368.359 53.845C368.142 53.6283 367.882 53.455 367.579 53.325C367.319 53.195 367.016 53.1083 366.669 53.065C366.366 53.0217 366.084 53 365.824 53L359.909 38.245C359.519 37.2483 358.999 35.905 358.349 34.215C357.699 32.525 356.984 30.8133 356.204 29.08C355.424 27.3467 354.557 25.7867 353.604 24.4C352.694 22.97 351.741 22.0383 350.744 21.605H368.684C367.601 21.9517 366.799 22.6017 366.279 23.555C365.759 24.5083 365.499 25.5483 365.499 26.675C365.499 27.585 365.781 28.9283 366.344 30.705C366.907 32.4817 367.557 34.345 368.294 36.295C369.074 38.245 369.832 40.13 370.569 41.95C371.349 43.7267 371.956 45.1133 372.389 46.11C373.429 43.4233 374.556 40.585 375.769 37.595C376.982 34.5617 378.456 31.7883 380.189 29.275C381.922 26.7617 384.002 24.6817 386.429 23.035C388.899 21.3883 391.889 20.565 395.399 20.565C397.956 20.565 400.296 20.9117 402.419 21.605C404.586 22.255 406.449 23.2517 408.009 24.595C409.569 25.9383 410.782 27.6067 411.649 29.6C412.559 31.5933 413.014 33.9333 413.014 36.62C413.014 38.96 412.602 41.17 411.779 43.25C410.956 45.33 409.807 47.15 408.334 48.71C406.861 50.2267 405.106 51.44 403.069 52.35C401.076 53.2167 398.866 53.65 396.439 53.65C394.359 53.65 392.366 53.325 390.459 52.675C388.552 51.9817 386.884 51.0067 385.454 49.75C384.024 48.4933 382.876 46.9767 382.009 45.2C381.142 43.4233 380.709 41.43 380.709 39.22C380.709 37.0533 381.121 35.19 381.944 33.63C382.811 32.0267 383.937 30.6833 385.324 29.6C386.711 28.5167 388.314 27.715 390.134 27.195C391.997 26.675 393.904 26.415 395.854 26.415C394.771 26.415 393.882 26.9567 393.189 28.04C392.496 29.1233 391.954 30.4017 391.564 31.875C391.174 33.305 390.914 34.7567 390.784 36.23C390.654 37.66 390.589 38.7433 390.589 39.48C390.589 40.39 390.654 41.56 390.784 42.99C390.957 44.42 391.261 45.8067 391.694 47.15C392.127 48.4933 392.734 49.6633 393.514 50.66C394.337 51.6133 395.399 52.09 396.699 52.09C397.956 52.09 398.996 51.4833 399.819 50.27C400.642 49.0567 401.292 47.6483 401.769 46.045C402.289 44.3983 402.657 42.7517 402.874 41.105C403.091 39.4583 403.199 38.2017 403.199 37.335C403.199 35.905 403.047 34.41 402.744 32.85C402.441 31.29 401.942 29.86 401.249 28.56C400.556 27.2167 399.624 26.1333 398.454 25.31C397.284 24.4433 395.832 24.01 394.099 24.01C391.759 24.01 389.701 24.4 387.924 25.18C386.191 25.9167 384.652 26.935 383.309 28.235C382.009 29.535 380.861 31.0733 379.864 32.85C378.867 34.5833 377.979 36.425 377.199 38.375L371.349 53C370.786 54.43 370.157 55.9683 369.464 57.615C368.814 59.2617 368.012 60.8 367.059 62.23C366.149 63.66 365.044 64.8517 363.744 65.805C362.444 66.7583 360.862 67.235 358.999 67.235ZM426.391 21.605V42.925C426.391 43.575 426.456 44.2467 426.586 44.94C426.716 45.6333 426.933 46.2617 427.236 46.825C427.539 47.3883 427.951 47.8433 428.471 48.19C429.034 48.5367 429.706 48.71 430.486 48.71C431.743 48.71 432.718 48.2983 433.411 47.475C434.148 46.6517 434.646 45.6983 434.906 44.615C434.906 43.7483 434.928 42.9033 434.971 42.08C435.014 41.2567 435.036 40.455 435.036 39.675V30.445C435.036 29.7083 434.993 28.9067 434.906 28.04C434.863 27.1733 434.733 26.3283 434.516 25.505C434.299 24.6817 433.974 23.9233 433.541 23.23C433.108 22.5367 432.523 21.995 431.786 21.605H444.526V42.795C444.526 44.9183 444.786 46.7383 445.306 48.255C445.869 49.7717 446.823 51.3533 448.166 53H436.531C436.314 52.1767 436.076 51.3317 435.816 50.465C435.556 49.555 435.339 48.6667 435.166 47.8C435.036 48.0167 434.494 48.45 433.541 49.1C432.588 49.7067 431.548 50.335 430.421 50.985C429.338 51.635 428.319 52.22 427.366 52.74C426.413 53.26 425.828 53.52 425.611 53.52C424.138 53.52 422.859 53.2383 421.776 52.675C420.693 52.1117 419.783 51.3533 419.046 50.4C418.353 49.4467 417.811 48.3417 417.421 47.085C417.074 45.8283 416.901 44.5283 416.901 43.185V30.445C416.901 29.7083 416.858 28.9067 416.771 28.04C416.684 27.1733 416.533 26.3283 416.316 25.505C416.099 24.6817 415.774 23.9233 415.341 23.23C414.908 22.5367 414.323 21.995 413.586 21.605H426.391ZM461.311 28.755C461.744 27.845 462.264 26.935 462.871 26.025C463.521 25.0717 464.236 24.2483 465.016 23.555C465.839 22.8183 466.727 22.2333 467.681 21.8C468.677 21.3233 469.717 21.085 470.801 21.085C472.577 21.085 473.964 21.6917 474.961 22.905C476.001 24.075 476.521 25.505 476.521 27.195C476.521 28.2783 476.304 29.275 475.871 30.185C475.481 31.095 474.917 31.8533 474.181 32.46C473.487 33.0667 472.664 33.5433 471.711 33.89C470.801 34.2367 469.804 34.41 468.721 34.41C468.807 34.15 468.872 33.89 468.916 33.63C468.959 33.37 468.981 33.0883 468.981 32.785C468.981 31.6583 468.591 30.7267 467.811 29.99C467.074 29.21 466.142 28.82 465.016 28.82C464.582 28.82 464.149 28.9283 463.716 29.145C463.282 29.3183 462.871 29.5783 462.481 29.925C462.134 30.2283 461.852 30.5967 461.636 31.03C461.419 31.42 461.311 31.8533 461.311 32.33V44.16C461.311 44.8967 461.332 45.6983 461.376 46.565C461.462 47.4317 461.614 48.2767 461.831 49.1C462.091 49.9233 462.437 50.6817 462.871 51.375C463.304 52.0683 463.867 52.61 464.561 53H448.506C449.199 52.61 449.762 52.0683 450.196 51.375C450.629 50.6383 450.954 49.88 451.171 49.1C451.431 48.2767 451.604 47.4317 451.691 46.565C451.777 45.6983 451.821 44.8967 451.821 44.16V34.93C451.821 34.02 451.734 33.1967 451.561 32.46C451.387 31.68 451.149 30.965 450.846 30.315C450.542 29.665 450.152 29.0367 449.676 28.43C449.242 27.78 448.744 27.1083 448.181 26.415C449.697 26.155 450.976 25.9167 452.016 25.7C453.099 25.44 454.096 25.1367 455.006 24.79C455.959 24.4433 456.912 24.0317 457.866 23.555C458.862 23.035 460.011 22.385 461.311 21.605V28.755ZM124.826 101.745C125.91 101.745 126.906 101.507 127.816 101.03C128.726 100.553 129.181 99.6867 129.181 98.43C129.181 97.6933 129.008 96.9783 128.661 96.285C128.358 95.5917 127.925 94.985 127.361 94.465C126.841 93.9017 126.235 93.4683 125.541 93.165C124.848 92.8183 124.133 92.645 123.396 92.645C122.486 92.645 121.75 93.0133 121.186 93.75C120.623 94.4433 120.168 95.2883 119.821 96.285C119.518 97.2817 119.301 98.3 119.171 99.34C119.041 100.38 118.976 101.225 118.976 101.875C118.976 103.695 119.215 105.515 119.691 107.335C120.168 109.112 120.883 110.715 121.836 112.145C122.833 113.575 124.09 114.723 125.606 115.59C127.123 116.457 128.921 116.89 131.001 116.89C131.478 116.89 132.041 116.868 132.691 116.825C133.385 116.738 134.078 116.63 134.771 116.5C135.465 116.37 136.115 116.197 136.721 115.98C137.371 115.72 137.87 115.417 138.216 115.07L138.736 115.46C135.703 120.92 131.088 123.65 124.891 123.65C122.638 123.65 120.536 123.238 118.586 122.415C116.68 121.592 115.033 120.465 113.646 119.035C112.303 117.562 111.241 115.85 110.461 113.9C109.681 111.95 109.291 109.848 109.291 107.595C109.291 105.428 109.616 103.348 110.266 101.355C110.96 99.3617 111.935 97.6067 113.191 96.09C114.491 94.5733 116.051 93.36 117.871 92.45C119.691 91.54 121.75 91.085 124.046 91.085C125.65 91.085 127.253 91.3233 128.856 91.8C130.46 92.2767 131.911 92.9917 133.211 93.945C134.511 94.855 135.551 96.0033 136.331 97.39C137.155 98.7767 137.566 100.358 137.566 102.135C137.566 103.825 137.09 105.19 136.136 106.23C135.183 107.27 133.818 107.79 132.041 107.79C130.048 107.79 128.488 107.248 127.361 106.165C126.235 105.038 125.39 103.565 124.826 101.745ZM150.903 91.605V112.925C150.903 113.575 150.968 114.247 151.098 114.94C151.228 115.633 151.444 116.262 151.748 116.825C152.051 117.388 152.463 117.843 152.983 118.19C153.546 118.537 154.218 118.71 154.998 118.71C156.254 118.71 157.229 118.298 157.923 117.475C158.659 116.652 159.158 115.698 159.418 114.615C159.418 113.748 159.439 112.903 159.483 112.08C159.526 111.257 159.548 110.455 159.548 109.675V100.445C159.548 99.7083 159.504 98.9067 159.418 98.04C159.374 97.1733 159.244 96.3283 159.028 95.505C158.811 94.6817 158.486 93.9233 158.053 93.23C157.619 92.5367 157.034 91.995 156.298 91.605H169.038V112.795C169.038 114.918 169.298 116.738 169.818 118.255C170.381 119.772 171.334 121.353 172.678 123H161.043C160.826 122.177 160.588 121.332 160.328 120.465C160.068 119.555 159.851 118.667 159.678 117.8C159.548 118.017 159.006 118.45 158.053 119.1C157.099 119.707 156.059 120.335 154.933 120.985C153.849 121.635 152.831 122.22 151.878 122.74C150.924 123.26 150.339 123.52 150.123 123.52C148.649 123.52 147.371 123.238 146.288 122.675C145.204 122.112 144.294 121.353 143.558 120.4C142.864 119.447 142.323 118.342 141.933 117.085C141.586 115.828 141.413 114.528 141.413 113.185V100.445C141.413 99.7083 141.369 98.9067 141.283 98.04C141.196 97.1733 141.044 96.3283 140.828 95.505C140.611 94.6817 140.286 93.9233 139.853 93.23C139.419 92.5367 138.834 91.995 138.098 91.605H150.903ZM185.562 123.65C184.349 123.65 183.006 123.498 181.532 123.195C180.102 122.892 178.759 122.415 177.502 121.765C176.246 121.115 175.184 120.27 174.317 119.23C173.494 118.147 173.082 116.847 173.082 115.33C173.082 113.9 173.472 112.665 174.252 111.625C175.076 110.585 176.246 110.065 177.762 110.065C179.236 110.065 180.427 110.628 181.337 111.755C182.291 112.838 182.897 114.03 183.157 115.33C182.377 115.33 181.727 115.59 181.207 116.11C180.731 116.63 180.492 117.28 180.492 118.06C180.492 118.71 180.644 119.295 180.947 119.815C181.251 120.335 181.641 120.768 182.117 121.115C182.637 121.418 183.201 121.657 183.807 121.83C184.414 122.003 184.999 122.09 185.562 122.09C186.256 122.09 186.949 122.003 187.642 121.83C188.336 121.657 188.964 121.397 189.527 121.05C190.091 120.66 190.546 120.183 190.892 119.62C191.239 119.013 191.412 118.298 191.412 117.475C191.412 116.348 190.979 115.417 190.112 114.68C189.289 113.9 188.249 113.185 186.992 112.535C185.736 111.842 184.371 111.17 182.897 110.52C181.424 109.827 180.059 109.047 178.802 108.18C177.546 107.27 176.484 106.187 175.617 104.93C174.794 103.673 174.382 102.135 174.382 100.315C174.382 98.885 174.707 97.6283 175.357 96.545C176.051 95.4183 176.917 94.4867 177.957 93.75C179.041 93.0133 180.232 92.4283 181.532 91.995C182.876 91.5617 184.197 91.28 185.497 91.15C184.934 90.0667 184.652 88.8533 184.652 87.51C184.652 85.43 185.107 83.6533 186.017 82.18C186.971 80.7067 188.184 79.515 189.657 78.605C191.174 77.6517 192.842 76.9583 194.662 76.525C196.526 76.0917 198.346 75.875 200.122 75.875C202.592 75.875 204.629 76.1133 206.232 76.59C207.879 77.0233 209.179 77.7383 210.132 78.735C211.129 79.7317 211.822 81.0533 212.212 82.7C212.602 84.3033 212.797 86.275 212.797 88.615V91.605H219.557V93.165H212.797V116.175C212.797 117.432 213.209 118.342 214.032 118.905C214.899 119.425 215.896 119.685 217.022 119.685C217.629 119.685 218.214 119.62 218.777 119.49C219.384 119.36 219.947 119.143 220.467 118.84V119.49C219.167 120.703 217.651 121.7 215.917 122.48C214.227 123.26 212.472 123.65 210.652 123.65C209.352 123.65 208.226 123.412 207.272 122.935C206.362 122.458 205.604 121.83 204.997 121.05C204.434 120.227 204.001 119.295 203.697 118.255C203.437 117.172 203.307 116.045 203.307 114.875V93.165H200.122V92.19C201.206 92.06 202.332 91.8 203.502 91.41C204.672 91.02 205.734 90.5 206.687 89.85C207.684 89.1567 208.486 88.3333 209.092 87.38C209.742 86.3833 210.067 85.2567 210.067 84C210.067 82.7 209.742 81.6167 209.092 80.75C208.442 79.8833 207.619 79.19 206.622 78.67C205.669 78.15 204.607 77.7817 203.437 77.565C202.267 77.3483 201.162 77.24 200.122 77.24C198.866 77.24 197.566 77.4783 196.222 77.955C194.879 78.3883 193.644 79.0383 192.517 79.905C191.434 80.7283 190.524 81.725 189.787 82.895C189.094 84.0217 188.747 85.3 188.747 86.73C188.747 88.6367 189.354 90.1967 190.567 91.41C191.651 91.5833 192.712 91.8867 193.752 92.32C194.792 92.71 195.724 93.23 196.547 93.88C197.371 94.4867 198.021 95.245 198.497 96.155C199.017 97.0217 199.277 98.04 199.277 99.21C199.277 100.553 198.887 101.615 198.107 102.395C197.371 103.175 196.331 103.565 194.987 103.565C193.601 103.565 192.452 103.153 191.542 102.33C190.632 101.507 189.982 100.467 189.592 99.21C190.329 99.21 190.892 98.9933 191.282 98.56C191.672 98.0833 191.867 97.4983 191.867 96.805C191.867 95.505 191.369 94.4867 190.372 93.75C189.376 93.0133 188.271 92.645 187.057 92.645C185.627 92.645 184.436 93.1 183.482 94.01C182.529 94.8767 182.052 96.025 182.052 97.455C182.052 98.5383 182.486 99.47 183.352 100.25C184.262 101.03 185.367 101.767 186.667 102.46C188.011 103.11 189.441 103.76 190.957 104.41C192.517 105.06 193.947 105.84 195.247 106.75C196.591 107.66 197.696 108.743 198.562 110C199.472 111.213 199.927 112.708 199.927 114.485C199.927 116.262 199.429 117.757 198.432 118.97C197.479 120.14 196.287 121.072 194.857 121.765C193.427 122.458 191.867 122.935 190.177 123.195C188.531 123.498 186.992 123.65 185.562 123.65ZM237.058 91.085C239.311 91.085 241.391 91.5183 243.298 92.385C245.204 93.2517 246.851 94.4433 248.238 95.96C249.668 97.4333 250.773 99.1667 251.553 101.16C252.333 103.11 252.723 105.19 252.723 107.4C252.723 109.61 252.333 111.712 251.553 113.705C250.773 115.655 249.668 117.367 248.238 118.84C246.851 120.313 245.204 121.483 243.298 122.35C241.391 123.217 239.311 123.65 237.058 123.65C234.804 123.65 232.703 123.217 230.753 122.35C228.846 121.483 227.199 120.313 225.813 118.84C224.426 117.367 223.321 115.655 222.498 113.705C221.718 111.712 221.328 109.61 221.328 107.4C221.328 105.19 221.718 103.11 222.498 101.16C223.321 99.1667 224.426 97.4333 225.813 95.96C227.199 94.4433 228.846 93.2517 230.753 92.385C232.703 91.5183 234.804 91.085 237.058 91.085ZM239.138 121.895C240.134 121.895 240.914 121.527 241.478 120.79C242.041 120.053 242.474 119.187 242.778 118.19C243.081 117.15 243.276 116.088 243.363 115.005C243.449 113.922 243.493 113.055 243.493 112.405C243.493 111.582 243.428 110.52 243.298 109.22C243.168 107.92 242.951 106.555 242.648 105.125C242.344 103.695 241.954 102.265 241.478 100.835C241.044 99.3617 240.481 98.0617 239.788 96.935C239.094 95.765 238.293 94.8117 237.383 94.075C236.516 93.3383 235.498 92.97 234.328 92.97C233.418 92.97 232.703 93.3167 232.183 94.01C231.663 94.7033 231.273 95.5267 231.013 96.48C230.753 97.4333 230.579 98.4083 230.493 99.405C230.449 100.402 230.428 101.203 230.428 101.81C230.428 102.59 230.493 103.63 230.623 104.93C230.753 106.187 230.948 107.573 231.208 109.09C231.511 110.563 231.879 112.058 232.313 113.575C232.789 115.092 233.353 116.478 234.003 117.735C234.653 118.948 235.389 119.945 236.213 120.725C237.079 121.505 238.054 121.895 239.138 121.895ZM283.989 97.325C284.076 97.1517 284.357 96.8917 284.834 96.545C285.354 96.1983 285.961 95.7867 286.654 95.31C287.391 94.8333 288.149 94.3567 288.929 93.88C289.752 93.36 290.511 92.905 291.204 92.515C291.941 92.0817 292.569 91.735 293.089 91.475C293.609 91.215 293.934 91.085 294.064 91.085C295.537 91.085 296.816 91.3667 297.899 91.93C298.982 92.4933 299.871 93.2517 300.564 94.205C301.301 95.1583 301.842 96.2633 302.189 97.52C302.579 98.7767 302.774 100.077 302.774 101.42V114.16C302.774 114.897 302.817 115.698 302.904 116.565C302.991 117.432 303.142 118.277 303.359 119.1C303.576 119.923 303.901 120.682 304.334 121.375C304.811 122.068 305.396 122.61 306.089 123H290.034C290.727 122.61 291.291 122.068 291.724 121.375C292.157 120.638 292.482 119.88 292.699 119.1C292.916 118.277 293.067 117.432 293.154 116.565C293.241 115.698 293.284 114.897 293.284 114.16V101.68C293.284 101.03 293.219 100.358 293.089 99.665C292.959 98.9717 292.742 98.3433 292.439 97.78C292.136 97.2167 291.702 96.7617 291.139 96.415C290.619 96.0683 289.969 95.895 289.189 95.895C288.409 95.895 287.737 96.0683 287.174 96.415C286.611 96.7617 286.134 97.2167 285.744 97.78C285.354 98.3 285.051 98.9067 284.834 99.6C284.661 100.293 284.552 100.987 284.509 101.68V114.16C284.509 114.897 284.552 115.698 284.639 116.565C284.726 117.432 284.877 118.277 285.094 119.1C285.311 119.923 285.636 120.682 286.069 121.375C286.546 122.068 287.131 122.61 287.824 123H271.769C272.462 122.61 273.026 122.068 273.459 121.375C273.892 120.638 274.217 119.88 274.434 119.1C274.651 118.277 274.802 117.432 274.889 116.565C274.976 115.698 275.019 114.897 275.019 114.16V101.68C275.019 101.03 274.954 100.358 274.824 99.665C274.694 98.9717 274.477 98.3433 274.174 97.78C273.871 97.2167 273.437 96.7617 272.874 96.415C272.354 96.0683 271.704 95.895 270.924 95.895C269.581 95.895 268.541 96.3717 267.804 97.325C267.067 98.235 266.591 99.2967 266.374 100.51V114.16C266.374 114.897 266.396 115.698 266.439 116.565C266.526 117.432 266.677 118.277 266.894 119.1C267.111 119.923 267.436 120.682 267.869 121.375C268.302 122.068 268.887 122.61 269.624 123H253.569C254.262 122.61 254.826 122.068 255.259 121.375C255.692 120.638 256.017 119.88 256.234 119.1C256.494 118.277 256.667 117.432 256.754 116.565C256.841 115.698 256.884 114.897 256.884 114.16V104.93C256.884 104.02 256.797 103.197 256.624 102.46C256.451 101.68 256.212 100.965 255.909 100.315C255.606 99.665 255.216 99.0367 254.739 98.43C254.306 97.78 253.807 97.1083 253.244 96.415C254.761 96.155 256.039 95.9167 257.079 95.7C258.162 95.44 259.159 95.1367 260.069 94.79C261.022 94.4433 261.976 94.0317 262.929 93.555C263.926 93.035 265.074 92.385 266.374 91.605V96.675C266.677 96.3717 267.306 95.9167 268.259 95.31C269.212 94.7033 270.209 94.0967 271.249 93.49C272.332 92.84 273.307 92.2767 274.174 91.8C275.084 91.3233 275.626 91.085 275.799 91.085C278.052 91.085 279.851 91.735 281.194 93.035C282.581 94.2917 283.534 95.8733 284.054 97.78L283.989 97.325ZM316.52 107.075C316.823 108.418 317.278 109.697 317.885 110.91C318.492 112.08 319.25 113.12 320.16 114.03C321.07 114.897 322.132 115.59 323.345 116.11C324.602 116.63 326.01 116.89 327.57 116.89C328.047 116.89 328.61 116.868 329.26 116.825C329.953 116.738 330.647 116.63 331.34 116.5C332.033 116.37 332.683 116.197 333.29 115.98C333.94 115.72 334.438 115.417 334.785 115.07L335.305 115.46C333.832 118.147 332.077 120.183 330.04 121.57C328.047 122.957 325.447 123.65 322.24 123.65C319.987 123.65 317.885 123.238 315.935 122.415C314.028 121.592 312.382 120.465 310.995 119.035C309.652 117.562 308.59 115.85 307.81 113.9C307.03 111.95 306.64 109.848 306.64 107.595C306.64 105.428 306.965 103.348 307.615 101.355C308.308 99.3617 309.283 97.6067 310.54 96.09C311.84 94.5733 313.4 93.36 315.22 92.45C317.04 91.54 319.098 91.085 321.395 91.085C323.475 91.085 325.36 91.41 327.05 92.06C328.783 92.6667 330.235 93.5767 331.405 94.79C332.618 95.96 333.55 97.39 334.2 99.08C334.85 100.77 335.175 102.655 335.175 104.735V106.295L316.52 107.075ZM326.465 99.535C326.465 98.7983 326.313 98.0183 326.01 97.195C325.75 96.3717 325.36 95.635 324.84 94.985C324.32 94.2917 323.713 93.7283 323.02 93.295C322.327 92.8617 321.568 92.645 320.745 92.645C319.792 92.645 319.012 93.035 318.405 93.815C317.798 94.595 317.322 95.5267 316.975 96.61C316.628 97.65 316.368 98.7333 316.195 99.86C316.065 100.987 316 101.875 316 102.525C316 103.478 316.065 104.453 316.195 105.45C317.062 105.363 317.928 105.255 318.795 105.125C319.662 104.995 320.528 104.865 321.395 104.735C322.868 104.518 324.082 103.998 325.035 103.175C325.988 102.352 326.465 101.138 326.465 99.535ZM349.084 114.16C349.084 114.897 349.106 115.698 349.149 116.565C349.236 117.432 349.387 118.277 349.604 119.1C349.821 119.923 350.146 120.682 350.579 121.375C351.012 122.068 351.597 122.61 352.334 123H336.279C336.972 122.61 337.536 122.068 337.969 121.375C338.402 120.638 338.727 119.88 338.944 119.1C339.204 118.277 339.377 117.432 339.464 116.565C339.551 115.698 339.594 114.897 339.594 114.16V104.93C339.594 103.11 339.269 101.572 338.619 100.315C337.969 99.0583 337.081 97.7583 335.954 96.415C337.471 96.155 338.749 95.9167 339.789 95.7C340.872 95.44 341.869 95.1367 342.779 94.79C343.732 94.4 344.686 93.9667 345.639 93.49C346.636 92.97 347.784 92.3417 349.084 91.605V100.9C349.864 98.7767 350.991 96.7617 352.464 94.855C353.937 92.9483 355.627 91.28 357.534 89.85C359.441 88.42 361.499 87.2933 363.709 86.47C365.962 85.6033 368.237 85.17 370.534 85.17C371.574 85.17 372.657 85.2783 373.784 85.495C374.911 85.7117 375.929 86.08 376.839 86.6C377.792 87.12 378.551 87.8133 379.114 88.68C379.721 89.5467 380.024 90.6083 380.024 91.865C380.024 93.685 379.396 95.18 378.139 96.35C376.926 97.4767 375.431 98.04 373.654 98.04C373.654 95.83 372.982 94.205 371.639 93.165C370.296 92.125 368.584 91.605 366.504 91.605C364.641 91.605 362.669 91.995 360.589 92.775C358.552 93.5117 356.667 94.5517 354.934 95.895C353.244 97.2383 351.836 98.7983 350.709 100.575C349.626 102.352 349.084 104.28 349.084 106.36V114.16ZM369.039 93.1C368.476 93.1 367.891 93.165 367.284 93.295C366.721 93.425 366.179 93.6417 365.659 93.945C365.182 94.2483 364.792 94.6383 364.489 95.115C364.186 95.5917 364.034 96.155 364.034 96.805C364.034 98.105 364.467 99.1883 365.334 100.055C366.244 100.922 367.349 101.723 368.649 102.46C369.992 103.153 371.422 103.825 372.939 104.475C374.499 105.125 375.929 105.883 377.229 106.75C378.572 107.617 379.677 108.678 380.544 109.935C381.454 111.148 381.909 112.665 381.909 114.485C381.909 116.262 381.411 117.757 380.414 118.97C379.461 120.14 378.269 121.072 376.839 121.765C375.409 122.458 373.849 122.935 372.159 123.195C370.512 123.498 368.974 123.65 367.544 123.65C366.331 123.65 364.987 123.498 363.514 123.195C362.084 122.892 360.741 122.415 359.484 121.765C358.227 121.115 357.166 120.27 356.299 119.23C355.476 118.147 355.064 116.847 355.064 115.33C355.064 113.9 355.454 112.665 356.234 111.625C357.057 110.585 358.227 110.065 359.744 110.065C361.217 110.065 362.409 110.628 363.319 111.755C364.272 112.838 364.879 114.03 365.139 115.33C364.359 115.33 363.709 115.59 363.189 116.11C362.712 116.63 362.474 117.28 362.474 118.06C362.474 118.71 362.626 119.295 362.929 119.815C363.232 120.335 363.622 120.768 364.099 121.115C364.619 121.418 365.182 121.657 365.789 121.83C366.396 122.003 366.981 122.09 367.544 122.09C368.237 122.09 368.931 122.003 369.624 121.83C370.317 121.657 370.946 121.397 371.509 121.05C372.072 120.66 372.527 120.183 372.874 119.62C373.221 119.013 373.394 118.298 373.394 117.475C373.394 116.348 372.961 115.395 372.094 114.615C371.271 113.792 370.231 113.033 368.974 112.34C367.717 111.647 366.352 110.953 364.879 110.26C363.406 109.567 362.041 108.787 360.784 107.92C359.527 107.01 358.466 105.948 357.599 104.735C356.776 103.522 356.364 102.048 356.364 100.315C356.364 98.7117 356.797 97.4333 357.664 96.48C358.531 95.5267 359.592 94.79 360.849 94.27C362.149 93.75 363.536 93.4033 365.009 93.23C366.482 93.0567 367.826 92.97 369.039 92.97V93.1Z" fill="white"/>
</g>
<defs>
<linearGradient id="paint0_linear_3430_29432" x1="405.048" y1="90.8216" x2="122.606" y2="176.555" gradientUnits="userSpaceOnUse">
<stop stop-color="#F4E102"/>
<stop offset="1" stop-color="#FFE600"/>
</linearGradient>
<clipPath id="clip0_3430_29432">
<rect width="476" height="166" fill="white"/>
</clipPath>
</defs>
</svg>
