<svg width="272" height="80" viewBox="0 0 272 80" fill="none" xmlns="http://www.w3.org/2000/svg">
<g clip-path="url(#clip0_4351_31830)">
<path d="M82.8607 59H65.5707C68.5807 57.25 69.1407 52.63 69.1407 49.48V39.54C69.1407 35.55 67.6707 33.31 65.2207 30.37C71.7307 29.32 73.6907 28.48 79.3607 25.19V30.65C80.6207 29.39 88.7407 24.63 89.5107 24.63C95.8107 24.63 98.8907 29.95 98.8907 35.76V49.48C98.8907 52.7 99.3807 57.25 102.461 59H85.1707C88.1807 57.25 88.6707 52.63 88.6707 49.48V36.04C88.6707 33.17 87.6907 29.81 84.2607 29.81C81.3907 29.81 79.8507 32.19 79.3607 34.78V49.48C79.3607 52.7 79.7107 57.25 82.8607 59ZM115.653 59.7C110.403 59.7 102.213 57.32 102.213 50.74C102.213 47.66 103.963 45.07 107.253 45.07C110.403 45.07 112.503 47.94 113.063 50.74C111.383 50.74 110.193 52 110.193 53.68C110.193 56.55 113.133 58.02 115.653 58.02C118.663 58.02 121.953 56.55 121.953 53.05C121.953 45.84 103.613 46.4 103.613 34.57C103.613 27.57 111.663 24.63 117.543 24.63C122.793 24.63 130.423 26.94 130.423 33.38C130.423 36.25 128.673 38.07 125.803 38.07C122.863 38.07 120.833 36.11 119.993 33.38C121.533 33.38 122.443 32.26 122.443 30.79C122.443 27.99 119.853 26.31 117.263 26.31C114.183 26.31 111.873 28.41 111.873 31.49C111.873 38.56 131.123 38.28 131.123 49.83C131.123 57.53 121.743 59.7 115.653 59.7ZM149.435 36.11C151.745 36.11 154.125 35.2 154.125 32.54C154.125 29.39 151.045 26.31 147.895 26.31C143.975 26.31 143.135 33.52 143.135 36.25C143.135 44.16 147.125 52.42 156.085 52.42C158.045 52.42 162.385 51.93 163.855 50.46L164.415 50.88C161.195 56.69 156.155 59.7 149.505 59.7C139.705 59.7 132.705 52.07 132.705 42.41C132.705 33.1 138.655 24.63 148.595 24.63C155.455 24.63 163.155 28.83 163.155 36.53C163.155 40.17 160.985 42.62 157.205 42.62C152.935 42.62 150.625 40.03 149.435 36.11ZM163.727 25.19H177.517V48.15C177.517 51.02 178.497 54.38 181.927 54.38C184.587 54.38 186.127 52.28 186.687 49.97C186.687 48.15 186.827 46.33 186.827 44.65V34.71C186.827 31.49 186.477 26.94 183.327 25.19H197.047V48.01C197.047 52.56 198.097 55.43 200.967 59H188.437C188.017 57.25 187.317 55.29 186.967 53.4C186.337 54.31 177.517 59.56 176.677 59.56C170.377 59.56 167.297 54.24 167.297 48.43V34.71C167.297 31.49 166.807 26.94 163.727 25.19ZM234.652 9.44V49.48C234.652 52.7 235.002 57.25 238.152 59H224.432V56.13C222.892 58.37 220.652 59.63 216.592 59.63C206.862 59.63 201.542 51.65 201.542 42.62C201.542 33.17 207.352 24.42 217.502 24.42C218.762 24.42 223.242 26.31 224.432 26.87V23.72C224.432 19.73 222.962 17.49 220.512 14.55C227.022 13.5 228.982 12.66 234.652 9.44ZM224.432 52.35V35.27C224.432 31.63 223.522 26.17 218.832 26.17C213.162 26.17 211.202 33.03 211.202 37.65C211.202 44.86 215.052 52.35 223.172 52.35C223.662 52.35 224.082 52.35 224.432 52.35Z" fill="url(#paint0_linear_4351_31830)"/>
<g filter="url(#filter0_d_4351_31830)">
<ellipse cx="29.07" cy="36.7917" rx="22.8913" ry="28.1209" transform="rotate(-36.1332 29.07 36.7917)" fill="url(#paint1_linear_4351_31830)"/>
<ellipse cx="33.3681" cy="34.895" rx="21.4548" ry="27.5433" transform="rotate(-36.1332 33.3681 34.895)" fill="#30F6F6"/>
<ellipse cx="33.3607" cy="34.8673" rx="6.28971" ry="8.07463" transform="rotate(-36.1332 33.3607 34.8673)" fill="#020D0D"/>
</g>
</g>
<defs>
<filter id="filter0_d_4351_31830" x="-0.212498" y="7.07734" width="61.7766" height="62.8078" filterUnits="userSpaceOnUse" color-interpolation-filters="sRGB">
<feFlood flood-opacity="0" result="BackgroundImageFix"/>
<feColorMatrix in="SourceAlpha" type="matrix" values="0 0 0 0 0 0 0 0 0 0 0 0 0 0 0 0 0 0 127 0" result="hardAlpha"/>
<feOffset dy="2.22344"/>
<feGaussianBlur stdDeviation="2.22344"/>
<feComposite in2="hardAlpha" operator="out"/>
<feColorMatrix type="matrix" values="0 0 0 0 0 0 0 0 0 0 0 0 0 0 0 0 0 0 0.12 0"/>
<feBlend mode="normal" in2="BackgroundImageFix" result="effect1_dropShadow_4351_31830"/>
<feBlend mode="normal" in="SourceGraphic" in2="effect1_dropShadow_4351_31830" result="shape"/>
</filter>
<linearGradient id="paint0_linear_4351_31830" x1="66.5" y1="20" x2="226.232" y2="-49.9151" gradientUnits="userSpaceOnUse">
<stop stop-color="#30C7E9"/>
<stop offset="1" stop-color="#76DB7C"/>
</linearGradient>
<linearGradient id="paint1_linear_4351_31830" x1="15.2566" y1="9.47781" x2="32.7751" y2="79.4853" gradientUnits="userSpaceOnUse">
<stop stop-color="#30F6F6"/>
<stop offset="1" stop-color="#30F6F6" stop-opacity="0"/>
</linearGradient>
<clipPath id="clip0_4351_31830">
<rect width="272" height="80" fill="white"/>
</clipPath>
</defs>
</svg>
