<svg width="1440" height="681" viewBox="0 0 1440 681" fill="none" xmlns="http://www.w3.org/2000/svg">
<g clip-path="url(#clip0_4013_32079)">
<rect y="-14" width="1440" height="695" fill="white"/>
<g opacity="0.3">
<path fill-rule="evenodd" clip-rule="evenodd" d="M570.962 158.469C568.019 156.214 564 152.489 564 148.967C564 143.083 569.5 140.886 574 145.43C578.5 140.886 584 143.083 584 148.966C584 152.489 579.98 156.214 577.038 158.469C575.706 159.489 575.04 160 574 160C572.96 160 572.294 159.49 570.962 158.469ZM578.5 146.25C578.699 146.25 578.89 146.329 579.03 146.47C579.171 146.61 579.25 146.801 579.25 147V148.25H580.5C580.699 148.25 580.89 148.329 581.03 148.47C581.171 148.61 581.25 148.801 581.25 149C581.25 149.199 581.171 149.39 581.03 149.53C580.89 149.671 580.699 149.75 580.5 149.75H579.25V151C579.25 151.199 579.171 151.39 579.03 151.53C578.89 151.671 578.699 151.75 578.5 151.75C578.301 151.75 578.11 151.671 577.97 151.53C577.829 151.39 577.75 151.199 577.75 151V149.75H576.5C576.301 149.75 576.11 149.671 575.97 149.53C575.829 149.39 575.75 149.199 575.75 149C575.75 148.801 575.829 148.61 575.97 148.47C576.11 148.329 576.301 148.25 576.5 148.25H577.75V147C577.75 146.801 577.829 146.61 577.97 146.47C578.11 146.329 578.301 146.25 578.5 146.25Z" fill="#FF3836"/>
</g>
<g opacity="0.3">
<path d="M504 442C503.45 442 502.979 441.804 502.587 441.412C502.195 441.02 501.999 440.549 502 440V437H499C498.45 437 497.979 436.804 497.587 436.412C497.195 436.02 496.999 435.549 497 435V429C497 428.45 497.196 427.979 497.588 427.587C497.98 427.195 498.451 426.999 499 427H502V424C502 423.45 502.196 422.979 502.588 422.587C502.98 422.195 503.451 421.999 504 422H510C510.55 422 511.021 422.196 511.413 422.588C511.805 422.98 512.001 423.451 512 424V427H515C515.55 427 516.021 427.196 516.413 427.588C516.805 427.98 517.001 428.451 517 429V435C517 435.55 516.804 436.021 516.412 436.413C516.02 436.805 515.549 437.001 515 437H512V440C512 440.55 511.804 441.021 511.412 441.413C511.02 441.805 510.549 442.001 510 442H504ZM499 431H504C504.167 431 504.325 431.042 504.475 431.125C504.625 431.208 504.742 431.317 504.825 431.45L505.7 432.75L507.05 428.7C507.117 428.5 507.237 428.333 507.412 428.2C507.587 428.067 507.783 428 508 428C508.167 428 508.325 428.042 508.475 428.125C508.625 428.208 508.742 428.317 508.825 428.45L510.525 431H515V429H511C510.717 429 510.479 428.904 510.287 428.712C510.095 428.52 509.999 428.283 510 428V424H504V428C504 428.283 503.904 428.521 503.712 428.713C503.52 428.905 503.283 429.001 503 429H499V431ZM499 433V435H503C503.283 435 503.521 435.096 503.713 435.288C503.905 435.48 504.001 435.717 504 436V440H510V436C510 435.717 510.096 435.479 510.288 435.287C510.48 435.095 510.717 434.999 511 435H515V433H510C509.833 433 509.675 432.958 509.525 432.875C509.375 432.792 509.25 432.683 509.15 432.55L508.3 431.25L506.95 435.3C506.883 435.5 506.758 435.667 506.575 435.8C506.392 435.933 506.192 436 505.975 436C505.808 436 505.65 435.958 505.5 435.875C505.35 435.792 505.233 435.683 505.15 435.55L503.45 433H499ZM497 433H499V435H503C503.283 435 503.521 435.096 503.713 435.288C503.905 435.48 504.001 435.717 504 436V440H510V436C510 435.717 510.096 435.479 510.288 435.287C510.48 435.095 510.717 434.999 511 435H515V433H517V431H515V429H511C510.717 429 510.479 428.904 510.287 428.712C510.095 428.52 509.999 428.283 510 428V424H504V428C504 428.283 503.904 428.521 503.712 428.713C503.52 428.905 503.283 429.001 503 429H499V431H497V433Z" fill="#228B22"/>
</g>
</g>
<defs>
<clipPath id="clip0_4013_32079">
<rect width="1440" height="681" fill="white"/>
</clipPath>
</defs>
</svg>
