<svg width="1440" height="835" viewBox="0 0 1440 835" fill="none" xmlns="http://www.w3.org/2000/svg">
<g clip-path="url(#clip0_3797_30272)">
<rect width="1440" height="773" fill="url(#paint0_linear_3797_30272)"/>
<rect x="-67" y="651" width="1507" height="184" fill="url(#paint1_linear_3797_30272)"/>
<path opacity="0.1" d="M425.928 300.035C424.852 299.786 423.778 300.455 423.528 301.532C423.279 302.608 423.949 303.682 425.025 303.932L425.928 300.035ZM409.823 342.753L411.798 343.067L411.811 342.984L411.817 342.9L409.823 342.753ZM553.055 360.271C554.145 360.093 554.885 359.066 554.708 357.976L551.816 340.209C551.638 339.119 550.611 338.379 549.52 338.557C548.43 338.734 547.69 339.762 547.868 340.852L550.438 356.644L534.646 359.215C533.556 359.392 532.816 360.42 532.994 361.51C533.171 362.601 534.199 363.341 535.289 363.163L553.055 360.271ZM425.025 303.932C438.764 307.118 455.184 317.005 464.995 329.357C469.887 335.515 473.025 342.147 473.506 348.74C473.983 355.261 471.879 361.958 465.876 368.401L468.803 371.128C475.503 363.937 478.06 356.166 477.496 348.449C476.937 340.803 473.335 333.426 468.127 326.869C457.739 313.79 440.525 303.42 425.928 300.035L425.025 303.932ZM465.876 368.401C453.703 381.467 438.821 383.382 427.776 378.115C416.731 372.848 409.072 360.188 411.798 343.067L407.848 342.438C404.869 361.148 413.265 375.627 426.054 381.726C438.842 387.824 455.57 385.331 468.803 371.128L465.876 368.401ZM411.817 342.9C412.092 339.168 414.796 334.074 420.519 329.538C426.188 325.046 434.687 321.226 446.163 320.023C469.119 317.617 504.031 325.695 551.565 359.92L553.902 356.674C505.923 322.129 470.038 313.498 445.746 316.045C433.599 317.318 424.362 321.389 418.035 326.403C411.762 331.374 408.212 337.401 407.828 342.606L411.817 342.9Z" fill="url(#paint2_linear_3797_30272)"/>
</g>
<defs>
<linearGradient id="paint0_linear_3797_30272" x1="-210.5" y1="-93.983" x2="1449.17" y2="1484.38" gradientUnits="userSpaceOnUse">
<stop stop-color="#2563EB" stop-opacity="0.01"/>
<stop offset="1" stop-color="#35FF49" stop-opacity="0.1"/>
</linearGradient>
<linearGradient id="paint1_linear_3797_30272" x1="686.5" y1="651" x2="686.5" y2="835" gradientUnits="userSpaceOnUse">
<stop stop-color="white" stop-opacity="0"/>
<stop offset="0.46875" stop-color="white"/>
</linearGradient>
<linearGradient id="paint2_linear_3797_30272" x1="577.368" y1="314.627" x2="508.886" y2="464.646" gradientUnits="userSpaceOnUse">
<stop stop-color="#2563EB"/>
<stop offset="1" stop-color="#35FF49"/>
</linearGradient>
<clipPath id="clip0_3797_30272">
<rect width="1440" height="835" fill="white"/>
</clipPath>
</defs>
</svg>
