<svg width="805" height="547" viewBox="0 0 805 547" fill="none" xmlns="http://www.w3.org/2000/svg">
<g clip-path="url(#clip0_3481_29597)">
<g filter="url(#filter0_f_3481_29597)">
<rect x="498" y="94" width="170" height="67" fill="#505050"/>
</g>
<g opacity="0.3" filter="url(#filter1_f_3481_29597)">
<circle cx="311.648" cy="274.499" r="166.648" fill="#2563EB"/>
</g>
<g opacity="0.3" filter="url(#filter2_f_3481_29597)">
<circle cx="442.351" cy="274.499" r="166.648" fill="#F707ED"/>
</g>
<rect opacity="0.6" x="125" y="314" width="444" height="85" rx="8" fill="white"/>
<path d="M210.64 353V351.4H204.864V348.328H209.648V346.728H204.864V343.88H210.64V342.28H203.056V353H210.64ZM216.157 353V343.88H219.453V342.28H211.069V343.88H214.349V353H216.157ZM221.989 353V348.328H227.141V353H228.949V342.28H227.141V346.728H221.989V342.28H220.181V353H221.989Z" fill="black"/>
<path d="M208.36 371V370.304H203.752V367.256H207.58V366.548H203.752V363.656H208.36V362.96H202.96V371H208.36ZM211.228 371.132C211.972 371.132 212.536 370.784 212.788 370.364L212.512 369.596C212.32 370.004 211.9 370.376 211.384 370.376C210.88 370.376 210.448 370.148 210.448 369.32V365.852H212.38V365.24H210.448V363.824L209.668 364.412V365.24H208.732V365.852H209.668V369.536C209.668 370.58 210.352 371.132 211.228 371.132ZM214.648 371V367.664C214.648 366.668 215.152 365.78 216.388 365.78C217.372 365.78 217.78 366.356 217.78 367.292V371H218.572V367.112C218.572 365.792 217.828 365.12 216.712 365.12C215.536 365.12 214.852 365.912 214.648 366.848V362.96H213.856V371H214.648ZM222.596 371.12C223.82 371.12 224.588 370.532 224.996 369.824L224.516 369.26C224.264 369.824 223.76 370.46 222.596 370.46C221.456 370.46 220.676 369.74 220.628 368.3H225.02C225.032 368.204 225.056 368.06 225.056 367.916C225.056 366.176 224.072 365.12 222.5 365.12C220.94 365.12 219.872 366.248 219.872 368.12C219.872 370.028 220.988 371.12 222.596 371.12ZM222.5 365.768C223.556 365.768 224.264 366.428 224.336 367.724H220.64C220.748 366.428 221.444 365.768 222.5 365.768ZM227.234 371V367.664C227.234 366.668 227.918 365.708 228.782 365.708C229.31 365.708 229.526 366.044 229.526 366.416C229.526 366.764 229.382 367.136 229.226 367.316H230.078C230.186 367.124 230.294 366.764 230.294 366.332C230.294 365.54 229.742 365.108 229.07 365.108C228.086 365.108 227.45 365.9 227.234 366.812V365.24H226.442V371H227.234ZM233.6 371.12C234.824 371.12 235.592 370.532 236 369.824L235.52 369.26C235.268 369.824 234.764 370.46 233.6 370.46C232.46 370.46 231.68 369.74 231.632 368.3H236.024C236.036 368.204 236.06 368.06 236.06 367.916C236.06 366.176 235.076 365.12 233.504 365.12C231.944 365.12 230.876 366.248 230.876 368.12C230.876 370.028 231.992 371.12 233.6 371.12ZM233.504 365.768C234.56 365.768 235.268 366.428 235.34 367.724H231.644C231.752 366.428 232.448 365.768 233.504 365.768ZM239.293 371.12C240.481 371.12 241.129 370.316 241.333 369.356V371H242.113V365.24H241.333V368.564C241.333 369.572 240.853 370.448 239.605 370.448C238.621 370.448 238.189 369.872 238.189 368.948V365.24H237.409V369.116C237.409 370.448 238.165 371.12 239.293 371.12ZM244.589 371V367.664C244.589 366.668 245.081 365.78 246.101 365.78C247.001 365.78 247.445 366.272 247.445 367.28V371H248.225V367.664C248.225 366.668 248.717 365.78 249.749 365.78C250.637 365.78 251.081 366.272 251.081 367.28V371H251.873V367.1C251.873 365.78 251.249 365.12 250.145 365.12C249.065 365.12 248.405 365.924 248.213 366.872C248.153 365.708 247.541 365.12 246.497 365.12C245.429 365.12 244.793 365.9 244.589 366.848V365.24H243.797V371H244.589Z" fill="#B3B3B3"/>
<path fill-rule="evenodd" clip-rule="evenodd" d="M171.5 373C162.387 373 155 365.613 155 356.5C155 347.387 162.387 340 171.5 340C180.613 340 188 347.387 188 356.5C188 365.613 180.613 373 171.5 373ZM179.744 356.726L172.014 344.125L164.281 356.727L172.014 361.216L179.744 356.726ZM179.75 358.167L172.014 362.653L164.281 358.168L172.014 368.87L179.75 358.167Z" fill="black"/>
<path d="M172.012 344.125V353.272L179.743 356.727L172.012 344.125ZM172.012 362.655V368.87L179.748 358.166L172.012 362.655Z" fill="black" fill-opacity="0.298"/>
<path d="M172.012 361.215L179.743 356.726L172.012 353.273V361.215Z" fill="black" fill-opacity="0.801"/>
<path d="M164.281 356.726L172.014 361.215V353.273L164.281 356.726Z" fill="black" fill-opacity="0.298"/>
<path d="M471.824 357.6V356.144C473.808 356.016 475.248 354.928 475.248 353.104C475.248 351.056 473.712 350.384 472 349.968L471.824 349.92V346.992C472.624 347.248 473.312 347.808 473.712 348.72L475.072 347.424C474.448 346.224 473.296 345.456 471.824 345.216V343.68H470.704V345.136C468.752 345.136 467.008 346.224 467.008 348.24C467.008 350.272 468.624 350.96 470.144 351.28L470.704 351.408V354.432C469.584 354.224 468.432 353.584 467.968 352.32L466.688 353.616C467.424 355.2 468.96 355.968 470.704 356.128V357.6H471.824ZM468.896 348.112C468.896 347.296 469.632 346.816 470.656 346.816H470.704V349.648C469.632 349.392 468.896 349.056 468.896 348.112ZM473.408 353.136C473.408 354 472.72 354.4 471.824 354.48V351.664C472.816 351.936 473.408 352.272 473.408 353.136ZM481.264 356.16C483.696 356.16 485.216 354.688 485.216 352.48C485.216 350.352 484.032 348.976 482 348.976C480.576 348.976 479.712 349.744 479.376 350.704L479.632 346.944H484.416V345.28H477.904L477.552 351.376L479.312 351.552L479.328 351.408C479.424 350.72 480.144 350.288 481.168 350.288C482.272 350.288 483.28 350.896 483.28 352.4C483.28 353.648 482.576 354.416 481.28 354.416C479.904 354.416 478.96 353.616 478.592 352.288L477.152 353.68C477.696 355.072 479.216 356.16 481.264 356.16ZM491.014 356.144C494.006 356.144 495.51 353.776 495.51 350.624C495.51 347.488 494.006 345.12 491.014 345.12C488.022 345.12 486.502 347.488 486.502 350.624C486.502 353.776 488.022 356.144 491.014 356.144ZM491.014 354.416C489.11 354.416 488.406 352.88 488.406 350.624C488.406 348.384 489.11 346.832 491.014 346.832C492.934 346.832 493.622 348.384 493.622 350.624C493.622 352.88 492.934 354.416 491.014 354.416ZM501.467 356.144C504.459 356.144 505.963 353.776 505.963 350.624C505.963 347.488 504.459 345.12 501.467 345.12C498.475 345.12 496.955 347.488 496.955 350.624C496.955 353.776 498.475 356.144 501.467 356.144ZM501.467 354.416C499.563 354.416 498.859 352.88 498.859 350.624C498.859 348.384 499.563 346.832 501.467 346.832C503.387 346.832 504.075 348.384 504.075 350.624C504.075 352.88 503.387 354.416 501.467 354.416ZM509.222 356V353.728H507.174V356H509.222ZM517.886 356V353.584H519.694V352.016H517.886V345.28H515.982L510.734 352.192V353.584H516.094V356H517.886ZM512.718 352.016L516.094 347.616V352.016H512.718ZM524.936 356.16C527.368 356.16 528.888 354.688 528.888 352.48C528.888 350.352 527.704 348.976 525.672 348.976C524.248 348.976 523.384 349.744 523.048 350.704L523.304 346.944H528.088V345.28H521.576L521.224 351.376L522.984 351.552L523 351.408C523.096 350.72 523.816 350.288 524.84 350.288C525.944 350.288 526.952 350.896 526.952 352.4C526.952 353.648 526.248 354.416 524.952 354.416C523.576 354.416 522.632 353.616 522.264 352.288L520.824 353.68C521.368 355.072 522.888 356.16 524.936 356.16ZM534.492 356.16C536.796 356.16 538.38 354.608 538.38 352.448C538.38 350.512 537.404 349.008 535.244 349.008C533.596 349.008 532.508 349.952 532.284 351.536V350.512C532.284 347.664 533.372 346.896 534.62 346.896C535.692 346.896 536.476 347.488 536.956 348.448L538.188 346.96C537.516 345.872 536.3 345.12 534.716 345.12C531.852 345.12 530.332 347.072 530.332 350.512V350.688C530.332 354.672 531.916 356.16 534.492 356.16ZM534.444 354.448C533.164 354.448 532.412 353.76 532.412 352.288C532.412 351.072 533.212 350.416 534.476 350.416C535.836 350.416 536.444 351.232 536.444 352.448C536.444 353.584 535.692 354.448 534.444 354.448Z" fill="black"/>
<path d="M515.2 370.1C517.03 370.1 517.89 368.59 517.89 366.64C517.89 364.71 517.03 363.2 515.2 363.2C513.36 363.2 512.5 364.71 512.5 366.64C512.5 368.59 513.36 370.1 515.2 370.1ZM515.21 369.27C513.88 369.27 513.42 368.18 513.42 366.64C513.42 365.12 513.88 364.02 515.21 364.02C516.53 364.02 516.98 365.12 516.98 366.64C516.98 368.18 516.53 369.27 515.21 369.27ZM519.84 370V368.7H518.79V370H519.84ZM525.197 370V368.4H526.397V367.63H525.197V363.3H524.327L520.957 367.72V368.4H524.327V370H525.197ZM521.947 367.63L524.327 364.56V367.63H521.947ZM529.721 370.1C531.181 370.1 532.101 369.36 532.101 368.27C532.101 367.4 531.661 366.64 530.441 366.54C531.291 366.42 531.801 365.71 531.801 365.02C531.801 364.16 531.221 363.2 529.671 363.2C528.471 363.2 527.591 363.92 527.311 364.83L528.051 365.45C528.171 364.53 528.791 364.04 529.651 364.04C530.511 364.04 530.891 364.57 530.891 365.21C530.891 365.91 530.471 366.27 529.631 366.27H528.531V367.02H529.621C530.551 367.02 531.181 367.38 531.181 368.18C531.181 368.86 530.691 369.27 529.831 369.27C528.571 369.27 528.141 368.59 527.941 367.57L527.201 368.23C527.421 369.24 528.271 370.1 529.721 370.1ZM534.384 366.23C535.214 366.23 535.834 365.64 535.834 364.72C535.834 363.8 535.214 363.21 534.384 363.21C533.544 363.21 532.924 363.8 532.924 364.72C532.924 365.64 533.544 366.23 534.384 366.23ZM534.174 370L538.894 363.3H537.984L533.264 370H534.174ZM534.384 365.59C533.914 365.59 533.634 365.25 533.634 364.72C533.634 364.18 533.914 363.84 534.384 363.84C534.854 363.84 535.144 364.18 535.144 364.72C535.144 365.25 534.854 365.59 534.384 365.59ZM537.804 370C538.634 370 539.254 369.41 539.254 368.49C539.254 367.57 538.634 366.98 537.804 366.98C536.964 366.98 536.344 367.57 536.344 368.49C536.344 369.41 536.964 370 537.804 370ZM537.804 369.36C537.334 369.36 537.054 369.02 537.054 368.49C537.054 367.95 537.334 367.61 537.804 367.61C538.274 367.61 538.564 367.95 538.564 368.49C538.564 369.02 538.274 369.36 537.804 369.36Z" fill="#228B22"/>
<path d="M506 366L507.732 369H504.268L506 366Z" fill="#228B22"/>
<path d="M314 352V358.5H318L319.5 354.5L323 358.5L326.5 345L329 357L332.5 354.5L337 361L342.5 358.5L346 367.5L350.5 358.5H353.5L355.5 363L358 358.5L360.5 363L364.5 357L369 361L371.5 357L376.5 361L381 352" stroke="#228B22"/>
<g filter="url(#filter3_d_3481_29597)">
<rect opacity="0.8" x="546" y="107" width="261.429" height="133.776" rx="9.42085" fill="white"/>
<path d="M567.955 130.02V124.97H567.299V130.02H567.955ZM569.712 130.02V127.954C569.712 127.344 569.969 126.854 570.669 126.854C571.287 126.854 571.476 127.186 571.476 127.661V130.02H572.124V127.502C572.124 126.726 571.679 126.296 570.963 126.296C570.247 126.296 569.856 126.779 569.712 127.344V126.372H569.057V130.02H569.712ZM574.631 130.02L575.958 126.372H575.257L574.541 128.535L574.232 129.537L573.915 128.535L573.192 126.372H572.483L573.802 130.02H574.631ZM577.866 130.095C578.658 130.095 579.162 129.726 579.434 129.288L579.034 128.836C578.891 129.153 578.597 129.552 577.866 129.552C577.218 129.552 576.788 129.115 576.751 128.346H579.456C579.472 128.279 579.487 128.166 579.487 128.052C579.487 126.982 578.861 126.296 577.829 126.296C576.826 126.296 576.118 127.043 576.118 128.196C576.118 129.356 576.834 130.095 577.866 130.095ZM577.829 126.847C578.439 126.847 578.831 127.201 578.899 127.872H576.766C576.849 127.193 577.241 126.847 577.829 126.847ZM581.676 130.095C582.384 130.095 583.002 129.771 583.002 129.047C583.002 128.542 582.731 128.203 581.909 128.007L581.442 127.887C580.944 127.766 580.703 127.653 580.703 127.329C580.703 127.02 580.975 126.854 581.351 126.854C581.871 126.854 582.218 127.125 582.399 127.555L582.896 127.186C582.693 126.703 582.158 126.296 581.389 126.296C580.598 126.296 580.085 126.703 580.085 127.367C580.085 128.037 580.651 128.286 581.171 128.407L581.653 128.52C582.082 128.618 582.414 128.723 582.414 129.055C582.414 129.379 582.128 129.545 581.698 129.545C580.975 129.545 580.575 129.13 580.447 128.716L579.972 129.085C580.221 129.763 580.914 130.095 581.676 130.095ZM584.902 130.102C585.407 130.102 585.754 129.869 585.912 129.62L585.693 128.972C585.595 129.198 585.369 129.469 585.045 129.469C584.759 129.469 584.54 129.356 584.54 128.889V126.884H585.739V126.372H584.54V125.422L583.885 125.905V126.372H583.297V126.884H583.885V129.085C583.885 129.711 584.307 130.102 584.902 130.102ZM587.045 130.02V127.954C587.045 127.344 587.301 126.854 587.852 126.854C588.402 126.854 588.651 127.118 588.651 127.653V130.02H589.306V127.954C589.306 127.344 589.562 126.854 590.12 126.854C590.663 126.854 590.919 127.118 590.919 127.653V130.02H591.567V127.495C591.567 126.726 591.198 126.296 590.482 126.296C589.819 126.296 589.442 126.786 589.299 127.367C589.261 126.681 588.892 126.296 588.221 126.296C587.565 126.296 587.188 126.779 587.045 127.336V126.372H586.39V130.02H587.045ZM594.08 130.095C594.872 130.095 595.377 129.726 595.648 129.288L595.249 128.836C595.105 129.153 594.811 129.552 594.08 129.552C593.432 129.552 593.003 129.115 592.965 128.346H595.671C595.686 128.279 595.701 128.166 595.701 128.052C595.701 126.982 595.075 126.296 594.043 126.296C593.04 126.296 592.332 127.043 592.332 128.196C592.332 129.356 593.048 130.095 594.08 130.095ZM594.043 126.847C594.653 126.847 595.045 127.201 595.113 127.872H592.98C593.063 127.193 593.455 126.847 594.043 126.847ZM597.187 130.02V127.954C597.187 127.344 597.444 126.854 598.145 126.854C598.763 126.854 598.951 127.186 598.951 127.661V130.02H599.599V127.502C599.599 126.726 599.154 126.296 598.438 126.296C597.722 126.296 597.331 126.779 597.187 127.344V126.372H596.532V130.02H597.187ZM601.69 130.102C602.195 130.102 602.542 129.869 602.7 129.62L602.482 128.972C602.384 129.198 602.157 129.469 601.833 129.469C601.547 129.469 601.328 129.356 601.328 128.889V126.884H602.527V126.372H601.328V125.422L600.673 125.905V126.372H600.085V126.884H600.673V129.085C600.673 129.711 601.095 130.102 601.69 130.102Z" fill="black"/>
<g filter="url(#filter4_d_3481_29597)">
<rect x="566.727" y="139.977" width="104.571" height="84.7877" rx="7.53668" fill="white"/>
<path d="M580.699 157.34C581.792 157.34 582.44 156.842 582.44 155.983C582.44 155.335 582.071 154.815 581.016 154.702C581.86 154.612 582.214 154.122 582.214 153.579C582.214 152.81 581.702 152.29 580.737 152.29H578.604V157.34H580.699ZM580.511 152.871C581.114 152.871 581.536 153.059 581.536 153.662C581.536 154.272 581.121 154.453 580.541 154.453H579.26V152.871H580.511ZM580.616 155.041C581.272 155.041 581.762 155.29 581.762 155.9C581.762 156.503 581.393 156.76 580.594 156.76H579.26V155.041H580.616ZM584.763 157.34V152.871H586.361V152.29H582.517V152.871H584.115V157.34H584.763ZM588.716 157.4C589.847 157.4 590.608 156.797 590.932 155.757L590.344 155.373C590.178 156.217 589.681 156.782 588.724 156.782C587.571 156.782 587.043 155.961 587.043 154.808C587.043 153.654 587.571 152.833 588.724 152.833C589.681 152.833 590.178 153.398 590.344 154.242L590.932 153.858C590.608 152.818 589.847 152.215 588.716 152.215C587.186 152.215 586.35 153.353 586.35 154.808C586.35 156.262 587.186 157.4 588.716 157.4Z" fill="black"/>
<path d="M654.107 159.292C657.359 159.292 659.995 156.656 659.995 153.404C659.995 150.152 657.359 147.516 654.107 147.516C650.855 147.516 648.219 150.152 648.219 153.404C648.219 156.656 650.855 159.292 654.107 159.292Z" fill="#F7931A"/>
<path d="M656.751 152.674C656.866 151.903 656.278 151.488 655.475 151.211L655.736 150.166L655.1 150.008L654.846 151.025C654.679 150.983 654.508 150.944 654.336 150.905L654.592 149.881L653.956 149.723L653.696 150.767C653.557 150.736 653.421 150.705 653.289 150.672L653.29 150.668L652.413 150.449L652.244 151.129C652.244 151.129 652.716 151.237 652.706 151.244C652.963 151.308 653.01 151.478 653.002 151.614L652.705 152.804C652.723 152.809 652.746 152.815 652.772 152.825L652.704 152.809L652.289 154.477C652.257 154.555 652.177 154.672 651.997 154.627C652.003 154.637 651.534 154.512 651.534 154.512L651.219 155.24L652.047 155.447C652.201 155.485 652.351 155.526 652.5 155.564L652.237 156.62L652.872 156.779L653.133 155.734C653.306 155.78 653.475 155.824 653.64 155.865L653.38 156.906L654.016 157.064L654.279 156.009C655.364 156.215 656.179 156.132 656.523 155.151C656.8 154.361 656.509 153.905 655.938 153.608C656.354 153.512 656.667 153.239 656.751 152.674ZM655.297 154.712C655.101 155.502 653.77 155.075 653.339 154.968L653.689 153.568C654.12 153.675 655.503 153.888 655.297 154.712ZM655.494 152.663C655.315 153.381 654.208 153.016 653.849 152.926L654.165 151.657C654.524 151.746 655.681 151.913 655.494 152.663Z" fill="white"/>
<path d="M578.504 184.258L581.718 181.315C584.216 179.029 588.026 178.961 590.603 181.158V181.158C592.78 183.013 595.894 183.285 598.359 181.834L601.364 180.065C604.321 178.325 607.909 178.022 611.116 179.242L612.983 179.951C615.571 180.936 618.431 180.936 621.019 179.951L625.02 178.43C626.858 177.731 628.923 177.992 630.53 179.127V179.127C632.535 180.543 635.207 180.572 637.243 179.2L638.146 178.591C639.382 177.757 640.84 177.312 642.331 177.312H645.847C647.932 177.312 649.976 176.736 651.753 175.647L659.994 170.598" stroke="url(#paint0_linear_3481_29597)" stroke-width="0.942085"/>
<path d="M581.586 207.707V206.936C582.638 206.868 583.401 206.291 583.401 205.325C583.401 204.239 582.587 203.883 581.68 203.663L581.586 203.637V202.086C582.01 202.221 582.375 202.518 582.587 203.002L583.307 202.315C582.977 201.679 582.366 201.272 581.586 201.145V200.331H580.993V201.102C579.958 201.102 579.034 201.679 579.034 202.747C579.034 203.824 579.891 204.189 580.696 204.358L580.993 204.426V206.028C580.399 205.918 579.789 205.579 579.543 204.909L578.865 205.596C579.255 206.435 580.069 206.842 580.993 206.927V207.707H581.586ZM580.035 202.679C580.035 202.247 580.425 201.993 580.967 201.993H580.993V203.493C580.425 203.358 580.035 203.18 580.035 202.679ZM582.426 205.342C582.426 205.8 582.061 206.011 581.586 206.054V204.562C582.112 204.706 582.426 204.884 582.426 205.342ZM586.589 206.944C587.877 206.944 588.683 206.164 588.683 204.994C588.683 203.866 588.055 203.137 586.979 203.137C586.224 203.137 585.766 203.544 585.588 204.053L585.724 202.06H588.259V201.179H584.808L584.621 204.409L585.554 204.502L585.563 204.426C585.613 204.061 585.995 203.832 586.538 203.832C587.123 203.832 587.657 204.155 587.657 204.952C587.657 205.613 587.284 206.02 586.597 206.02C585.868 206.02 585.368 205.596 585.173 204.892L584.41 205.63C584.698 206.368 585.503 206.944 586.589 206.944ZM591.755 206.936C593.341 206.936 594.138 205.681 594.138 204.011C594.138 202.349 593.341 201.094 591.755 201.094C590.17 201.094 589.364 202.349 589.364 204.011C589.364 205.681 590.17 206.936 591.755 206.936ZM591.755 206.02C590.746 206.02 590.373 205.206 590.373 204.011C590.373 202.823 590.746 202.001 591.755 202.001C592.773 202.001 593.137 202.823 593.137 204.011C593.137 205.206 592.773 206.02 591.755 206.02ZM597.295 206.936C598.88 206.936 599.677 205.681 599.677 204.011C599.677 202.349 598.88 201.094 597.295 201.094C595.709 201.094 594.904 202.349 594.904 204.011C594.904 205.681 595.709 206.936 597.295 206.936ZM597.295 206.02C596.286 206.02 595.913 205.206 595.913 204.011C595.913 202.823 596.286 202.001 597.295 202.001C598.312 202.001 598.677 202.823 598.677 204.011C598.677 205.206 598.312 206.02 597.295 206.02ZM601.404 206.859V205.655H600.319V206.859H601.404ZM605.995 206.859V205.579H606.954V204.748H605.995V201.179H604.986L602.205 204.841V205.579H605.046V206.859H605.995ZM603.257 204.748L605.046 202.417V204.748H603.257ZM609.731 206.944C611.02 206.944 611.826 206.164 611.826 204.994C611.826 203.866 611.198 203.137 610.121 203.137C609.367 203.137 608.909 203.544 608.731 204.053L608.866 202.06H611.402V201.179H607.951L607.764 204.409L608.697 204.502L608.705 204.426C608.756 204.061 609.138 203.832 609.68 203.832C610.265 203.832 610.8 204.155 610.8 204.952C610.8 205.613 610.427 206.02 609.74 206.02C609.011 206.02 608.51 205.596 608.315 204.892L607.552 205.63C607.84 206.368 608.646 206.944 609.731 206.944ZM614.795 206.944C616.016 206.944 616.856 206.122 616.856 204.977C616.856 203.951 616.339 203.154 615.194 203.154C614.321 203.154 613.744 203.654 613.625 204.494V203.951C613.625 202.442 614.202 202.035 614.863 202.035C615.431 202.035 615.847 202.349 616.101 202.857L616.754 202.069C616.398 201.492 615.754 201.094 614.914 201.094C613.396 201.094 612.591 202.128 612.591 203.951V204.044C612.591 206.156 613.43 206.944 614.795 206.944ZM614.77 206.037C614.092 206.037 613.693 205.672 613.693 204.892C613.693 204.248 614.117 203.9 614.787 203.9C615.508 203.9 615.83 204.333 615.83 204.977C615.83 205.579 615.431 206.037 614.77 206.037Z" fill="black"/>
<path d="M583.773 213.27C584.635 213.27 585.04 212.558 585.04 211.64C585.04 210.731 584.635 210.02 583.773 210.02C582.906 210.02 582.501 210.731 582.501 211.64C582.501 212.558 582.906 213.27 583.773 213.27ZM583.778 212.879C583.151 212.879 582.935 212.365 582.935 211.64C582.935 210.924 583.151 210.406 583.778 210.406C584.399 210.406 584.611 210.924 584.611 211.64C584.611 212.365 584.399 212.879 583.778 212.879ZM585.959 213.223V212.61H585.464V213.223H585.959ZM588.482 213.223V212.469H589.047V212.106H588.482V210.067H588.072L586.485 212.149V212.469H588.072V213.223H588.482ZM586.951 212.106L588.072 210.66V212.106H586.951ZM590.613 213.27C591.3 213.27 591.734 212.921 591.734 212.408C591.734 211.998 591.527 211.64 590.952 211.593C591.352 211.536 591.593 211.202 591.593 210.877C591.593 210.472 591.319 210.02 590.589 210.02C590.024 210.02 589.609 210.359 589.478 210.787L589.826 211.079C589.883 210.646 590.175 210.415 590.58 210.415C590.985 210.415 591.164 210.665 591.164 210.966C591.164 211.296 590.966 211.466 590.57 211.466H590.052V211.819H590.566C591.004 211.819 591.3 211.989 591.3 212.365C591.3 212.686 591.07 212.879 590.665 212.879C590.071 212.879 589.869 212.558 589.774 212.078L589.426 212.389C589.529 212.865 589.93 213.27 590.613 213.27ZM592.809 211.447C593.2 211.447 593.492 211.169 593.492 210.736C593.492 210.302 593.2 210.024 592.809 210.024C592.414 210.024 592.122 210.302 592.122 210.736C592.122 211.169 592.414 211.447 592.809 211.447ZM592.711 213.223L594.934 210.067H594.505L592.282 213.223H592.711ZM592.809 211.145C592.588 211.145 592.456 210.985 592.456 210.736C592.456 210.481 592.588 210.321 592.809 210.321C593.031 210.321 593.167 210.481 593.167 210.736C593.167 210.985 593.031 211.145 592.809 211.145ZM594.42 213.223C594.811 213.223 595.103 212.945 595.103 212.511C595.103 212.078 594.811 211.8 594.42 211.8C594.025 211.8 593.733 212.078 593.733 212.511C593.733 212.945 594.025 213.223 594.42 213.223ZM594.42 212.921C594.199 212.921 594.067 212.761 594.067 212.511C594.067 212.257 594.199 212.097 594.42 212.097C594.642 212.097 594.778 212.257 594.778 212.511C594.778 212.761 594.642 212.921 594.42 212.921Z" fill="#228B22"/>
<path d="M579.442 211.578L580.258 212.991H578.626L579.442 211.578Z" fill="#228B22"/>
</g>
<g filter="url(#filter5_d_3481_29597)">
<rect x="682.605" y="139.977" width="104.571" height="84.7877" rx="7.53668" fill="white"/>
<path d="M697.935 157.34V156.76H695.139V155.041H697.445V154.461H695.139V152.871H697.935V152.29H694.483V157.34H697.935ZM700.406 157.34V152.871H702.004V152.29H698.16V152.871H699.758V157.34H700.406ZM703.043 157.34V155.041H705.704V157.34H706.359V152.29H705.704V154.461H703.043V152.29H702.388V157.34H703.043Z" fill="black"/>
<path fill-rule="evenodd" clip-rule="evenodd" d="M769.982 159.292C766.73 159.292 764.094 156.656 764.094 153.404C764.094 150.152 766.73 147.516 769.982 147.516C773.234 147.516 775.87 150.152 775.87 153.404C775.87 156.656 773.234 159.292 769.982 159.292ZM772.924 153.484L770.165 148.988L767.406 153.485L770.165 155.087L772.924 153.484ZM772.926 153.998L770.165 155.6L767.406 153.999L770.165 157.818L772.926 153.998Z" fill="black"/>
<path d="M770.168 148.984V152.249L772.927 153.481L770.168 148.984ZM770.168 155.597V157.815L772.929 153.995L770.168 155.597Z" fill="black" fill-opacity="0.298"/>
<path d="M770.168 155.084L772.927 153.482L770.168 152.25V155.084Z" fill="black" fill-opacity="0.801"/>
<path d="M767.41 153.482L770.169 155.084V152.25L767.41 153.482Z" fill="black" fill-opacity="0.298"/>
<path d="M694.504 184.258L697.718 181.315C700.216 179.029 704.026 178.961 706.603 181.158V181.158C708.78 183.013 711.894 183.285 714.359 181.834L717.364 180.065C720.321 178.325 723.909 178.022 727.116 179.242L728.983 179.951C731.571 180.936 734.431 180.936 737.019 179.951L741.02 178.43C742.858 177.731 744.923 177.992 746.53 179.127V179.127C748.535 180.543 751.207 180.572 753.243 179.2L754.146 178.591C755.382 177.757 756.84 177.312 758.331 177.312H761.847C763.932 177.312 765.976 176.736 767.753 175.647L775.994 170.598" stroke="url(#paint1_linear_3481_29597)" stroke-width="0.942085"/>
<path d="M697.465 207.707V206.936C698.517 206.868 699.28 206.291 699.28 205.325C699.28 204.239 698.466 203.883 697.558 203.663L697.465 203.637V202.086C697.889 202.221 698.254 202.518 698.466 203.002L699.186 202.315C698.856 201.679 698.245 201.272 697.465 201.145V200.331H696.872V201.102C695.837 201.102 694.913 201.679 694.913 202.747C694.913 203.824 695.769 204.189 696.575 204.358L696.872 204.426V206.028C696.278 205.918 695.668 205.579 695.422 204.909L694.743 205.596C695.134 206.435 695.947 206.842 696.872 206.927V207.707H697.465ZM695.914 202.679C695.914 202.247 696.304 201.993 696.846 201.993H696.872V203.493C696.304 203.358 695.914 203.18 695.914 202.679ZM698.305 205.342C698.305 205.8 697.94 206.011 697.465 206.054V204.562C697.991 204.706 698.305 204.884 698.305 205.342ZM703.816 206.859V205.579H704.774V204.748H703.816V201.179H702.807L700.026 204.841V205.579H702.866V206.859H703.816ZM701.077 204.748L702.866 202.417V204.748H701.077ZM707.642 206.936C709.228 206.936 710.025 205.681 710.025 204.011C710.025 202.349 709.228 201.094 707.642 201.094C706.057 201.094 705.251 202.349 705.251 204.011C705.251 205.681 706.057 206.936 707.642 206.936ZM707.642 206.02C706.634 206.02 706.26 205.206 706.26 204.011C706.26 202.823 706.634 202.001 707.642 202.001C708.66 202.001 709.025 202.823 709.025 204.011C709.025 205.206 708.66 206.02 707.642 206.02ZM713.182 206.936C714.767 206.936 715.564 205.681 715.564 204.011C715.564 202.349 714.767 201.094 713.182 201.094C711.596 201.094 710.791 202.349 710.791 204.011C710.791 205.681 711.596 206.936 713.182 206.936ZM713.182 206.02C712.173 206.02 711.8 205.206 711.8 204.011C711.8 202.823 712.173 202.001 713.182 202.001C714.199 202.001 714.564 202.823 714.564 204.011C714.564 205.206 714.199 206.02 713.182 206.02ZM717.291 206.859V205.655H716.206V206.859H717.291ZM721.883 206.859V205.579H722.841V204.748H721.883V201.179H720.874L718.093 204.841V205.579H720.933V206.859H721.883ZM719.144 204.748L720.933 202.417V204.748H719.144ZM725.618 206.944C726.907 206.944 727.713 206.164 727.713 204.994C727.713 203.866 727.085 203.137 726.008 203.137C725.254 203.137 724.796 203.544 724.618 204.053L724.754 202.06H727.289V201.179H723.838L723.651 204.409L724.584 204.502L724.593 204.426C724.643 204.061 725.025 203.832 725.568 203.832C726.153 203.832 726.687 204.155 726.687 204.952C726.687 205.613 726.314 206.02 725.627 206.02C724.898 206.02 724.398 205.596 724.202 204.892L723.439 205.63C723.728 206.368 724.533 206.944 725.618 206.944ZM730.683 206.944C731.904 206.944 732.743 206.122 732.743 204.977C732.743 203.951 732.226 203.154 731.081 203.154C730.208 203.154 729.631 203.654 729.513 204.494V203.951C729.513 202.442 730.089 202.035 730.75 202.035C731.319 202.035 731.734 202.349 731.988 202.857L732.641 202.069C732.285 201.492 731.641 201.094 730.801 201.094C729.284 201.094 728.478 202.128 728.478 203.951V204.044C728.478 206.156 729.318 206.944 730.683 206.944ZM730.657 206.037C729.979 206.037 729.58 205.672 729.58 204.892C729.58 204.248 730.004 203.9 730.674 203.9C731.395 203.9 731.717 204.333 731.717 204.977C731.717 205.579 731.319 206.037 730.657 206.037Z" fill="black"/>
<path d="M699.652 213.27C700.514 213.27 700.919 212.558 700.919 211.64C700.919 210.731 700.514 210.02 699.652 210.02C698.785 210.02 698.38 210.731 698.38 211.64C698.38 212.558 698.785 213.27 699.652 213.27ZM699.657 212.879C699.03 212.879 698.813 212.365 698.813 211.64C698.813 210.924 699.03 210.406 699.657 210.406C700.278 210.406 700.49 210.924 700.49 211.64C700.49 212.365 700.278 212.879 699.657 212.879ZM701.838 213.223V212.61H701.343V213.223H701.838ZM704.579 213.223V212.86H703.274L702.888 212.888L703.227 212.601L703.717 212.139C704.004 211.866 704.499 211.395 704.499 210.877C704.499 210.392 704.221 210.02 703.604 210.02C702.879 210.02 702.384 210.519 702.45 211.141L702.832 211.381C702.751 210.754 703.048 210.415 703.576 210.415C703.934 210.415 704.075 210.651 704.075 210.905C704.075 211.254 703.807 211.546 703.463 211.885L702.431 212.902V213.223H704.579ZM706.222 213.27C706.91 213.27 707.32 212.851 707.32 212.21C707.32 211.602 706.995 211.164 706.368 211.164C705.954 211.164 705.704 211.386 705.605 211.664L705.69 210.453H707.079V210.067H705.285L705.186 211.875L705.591 211.918L705.596 211.866C705.614 211.654 705.85 211.503 706.194 211.503C706.538 211.503 706.886 211.696 706.886 212.21C706.886 212.62 706.67 212.879 706.236 212.879C705.793 212.879 705.511 212.615 705.398 212.205L705.068 212.554C705.228 212.954 705.657 213.27 706.222 213.27ZM708.389 211.447C708.78 211.447 709.072 211.169 709.072 210.736C709.072 210.302 708.78 210.024 708.389 210.024C707.994 210.024 707.702 210.302 707.702 210.736C707.702 211.169 707.994 211.447 708.389 211.447ZM708.29 213.223L710.514 210.067H710.085L707.862 213.223H708.29ZM708.389 211.145C708.168 211.145 708.036 210.985 708.036 210.736C708.036 210.481 708.168 210.321 708.389 210.321C708.611 210.321 708.747 210.481 708.747 210.736C708.747 210.985 708.611 211.145 708.389 211.145ZM710 213.223C710.391 213.223 710.683 212.945 710.683 212.511C710.683 212.078 710.391 211.8 710 211.8C709.605 211.8 709.313 212.078 709.313 212.511C709.313 212.945 709.605 213.223 710 213.223ZM710 212.921C709.779 212.921 709.647 212.761 709.647 212.511C709.647 212.257 709.779 212.097 710 212.097C710.222 212.097 710.358 212.257 710.358 212.511C710.358 212.761 710.222 212.921 710 212.921Z" fill="#228B22"/>
<path d="M695.321 211.578L696.137 212.991H694.505L695.321 211.578Z" fill="#228B22"/>
</g>
</g>
<g clip-path="url(#clip1_3481_29597)">
<rect x="215" y="123" width="453" height="213" fill="white"/>
<path d="M441.499 159.884C458.884 159.773 473.089 173.798 473.2 191.182C473.311 208.567 459.287 222.772 441.902 222.883C424.518 222.994 410.313 208.97 410.201 191.585C410.09 174.201 424.115 159.996 441.499 159.884Z" fill="#22C55E"/>
<path d="M427.481 192.632L436.05 200.9L455.857 180.838" stroke="white" stroke-width="4.62659"/>
<path d="M366.736 255.37L366.726 253.77L360.95 253.807L360.93 250.735L365.714 250.705L365.704 249.105L360.92 249.135L360.902 246.287L366.677 246.25L366.667 244.65L359.083 244.699L359.152 255.419L366.736 255.37ZM370.669 255.521C371.805 255.514 372.57 254.981 372.903 254.483L372.332 252.886C372.111 253.336 371.667 253.835 371.059 253.839C370.531 253.842 370.129 253.636 370.124 252.789L370.099 248.949L372.483 248.933L372.474 247.541L370.09 247.557L370.077 245.477L368.292 246.624L368.298 247.568L367.082 247.576L367.091 248.968L368.307 248.96L368.335 253.232C368.343 254.608 369.197 255.53 370.669 255.521ZM375.91 255.312L375.882 250.944C375.874 249.664 376.316 248.813 377.628 248.804C378.828 248.797 379.152 249.451 379.158 250.411L379.19 255.291L380.998 255.279L380.963 249.855C380.953 248.239 380.019 247.333 378.499 247.343C376.947 247.353 376.154 248.414 375.873 249.648L375.841 244.592L374.049 244.603L374.118 255.323L375.91 255.312ZM386.262 255.405C387.99 255.394 389.041 254.604 389.627 253.704L388.516 252.559C388.232 253.217 387.629 253.925 386.269 253.933C385.037 253.941 384.216 253.194 384.111 251.803L389.679 251.767C389.71 251.607 389.74 251.271 389.738 250.983C389.724 248.823 388.418 247.279 386.082 247.294C383.89 247.308 382.381 248.934 382.396 251.382C382.412 253.814 383.942 255.42 386.262 255.405ZM386.091 248.734C387.275 248.727 387.984 249.394 388.119 250.625L384.12 250.651C384.255 249.386 384.987 248.741 386.091 248.734ZM393.128 255.201L393.101 250.914C393.092 249.618 393.918 248.588 394.814 248.583C395.342 248.579 395.552 248.93 395.555 249.362C395.558 249.81 395.321 250.323 395.067 250.581L396.907 250.569C397.049 250.328 397.253 249.767 397.249 249.015C397.241 247.863 396.517 247.228 395.541 247.234C394.149 247.243 393.372 248.368 393.092 249.618L393.078 247.41L391.286 247.421L391.336 255.213L393.128 255.201ZM406.27 255.277C408.446 255.263 410.071 254.133 410.059 252.197C410.046 250.149 408.505 249.487 406.791 249.082L405.589 248.802C404.419 248.521 403.681 248.19 403.675 247.246C403.67 246.43 404.403 245.945 405.427 245.939C406.739 245.93 407.894 246.499 408.495 247.823L409.846 246.518C409.069 245.051 407.496 244.245 405.528 244.258C403.512 244.271 401.775 245.37 401.788 247.386C401.801 249.418 403.421 250.096 404.943 250.406L405.953 250.623C407.346 250.918 408.212 251.201 408.219 252.241C408.225 253.217 407.364 253.606 406.292 253.613C404.98 253.622 403.36 253.024 402.774 251.46L401.502 252.764C402.346 254.566 404.222 255.29 406.27 255.277ZM415.168 255.22C416.896 255.209 417.947 254.419 418.533 253.519L417.421 252.374C417.138 253.032 416.534 253.74 415.174 253.748C413.942 253.756 413.121 253.01 413.017 251.618L418.584 251.583C418.615 251.422 418.645 251.086 418.643 250.798C418.63 248.638 417.324 247.095 414.988 247.109C412.796 247.123 411.286 248.749 411.302 251.197C411.317 253.629 412.848 255.235 415.168 255.22ZM414.997 248.549C416.181 248.542 416.889 249.209 417.025 250.441L413.025 250.466C413.161 249.201 413.893 248.557 414.997 248.549ZM422.034 255.017L422.006 250.649C421.998 249.369 422.44 248.518 423.752 248.509C424.952 248.502 425.276 249.156 425.282 250.116L425.314 254.996L427.122 254.984L427.087 249.56C427.077 247.944 426.143 247.038 424.623 247.048C423.071 247.058 422.278 248.119 421.998 249.353L421.984 247.225L420.192 247.236L420.242 255.028L422.034 255.017ZM431.574 255.132C432.71 255.124 433.475 254.591 433.808 254.093L433.237 252.497C433.016 252.946 432.572 253.445 431.964 253.449C431.436 253.452 431.034 253.247 431.029 252.399L431.004 248.559L433.388 248.544L433.379 247.152L430.995 247.167L430.982 245.087L429.197 246.235L429.203 247.179L427.987 247.186L427.996 248.578L429.212 248.571L429.24 252.842C429.248 254.218 430.102 255.141 431.574 255.132ZM441.474 255.052C443.122 255.042 444.413 254.265 444.403 252.729C444.396 251.61 443.752 250.91 442.005 250.473L441.059 250.239C440.001 249.974 439.584 249.768 439.581 249.208C439.577 248.68 440.039 248.389 440.727 248.385C441.735 248.378 442.571 248.885 443.12 249.746L444.169 248.619C443.683 247.742 442.51 246.949 440.846 246.96C439.054 246.972 437.892 247.859 437.901 249.315C437.91 250.739 439.05 251.276 440.284 251.556L441.325 251.805C442.191 252.008 442.784 252.196 442.787 252.772C442.791 253.332 442.297 253.607 441.529 253.612C440.137 253.621 439.172 252.827 438.735 252.046L437.686 253.172C438.286 254.401 439.81 255.063 441.474 255.052ZM448.048 255.01C449.6 255 450.393 253.939 450.673 252.705L450.687 254.833L452.495 254.822L452.445 247.03L450.637 247.042L450.665 251.409C450.673 252.689 450.231 253.54 448.919 253.549C447.719 253.556 447.395 252.902 447.388 251.942L447.357 247.062L445.565 247.074L445.6 252.498C445.61 254.114 446.544 255.02 448.048 255.01ZM457.727 254.948C459.679 254.936 460.904 253.824 461.311 252.349L459.69 251.56C459.521 252.681 458.966 253.436 457.75 253.444C456.518 253.452 455.76 252.545 455.75 250.913C455.739 249.265 456.485 248.348 457.717 248.34C458.917 248.333 459.498 249.081 459.681 250.2L461.292 249.389C460.867 247.92 459.627 246.824 457.676 246.836C455.356 246.851 453.91 248.493 453.926 250.925C453.941 253.341 455.407 254.963 457.727 254.948ZM465.946 254.896C467.898 254.883 469.123 253.771 469.529 252.297L467.908 251.507C467.74 252.628 467.184 253.384 465.968 253.392C464.736 253.399 463.979 252.492 463.968 250.86C463.958 249.212 464.704 248.296 465.936 248.288C467.136 248.28 467.717 249.028 467.9 250.147L469.511 249.337C469.085 247.868 467.846 246.771 465.894 246.784C463.574 246.799 462.129 248.44 462.144 250.872C462.16 253.288 463.626 254.911 465.946 254.896ZM474.245 254.843C475.973 254.832 477.023 254.041 477.61 253.141L476.498 251.996C476.215 252.654 475.611 253.362 474.251 253.371C473.019 253.378 472.198 252.632 472.093 251.24L477.661 251.205C477.692 251.045 477.722 250.708 477.72 250.42C477.707 248.26 476.401 246.717 474.065 246.732C471.873 246.746 470.363 248.371 470.379 250.819C470.394 253.251 471.925 254.858 474.245 254.843ZM474.074 248.172C475.258 248.164 475.966 248.832 476.102 250.063L472.102 250.088C472.238 248.823 472.97 248.179 474.074 248.172ZM482.395 254.791C484.043 254.78 485.334 254.004 485.324 252.468C485.317 251.348 484.673 250.648 482.926 250.211L481.98 249.977C480.923 249.712 480.505 249.507 480.502 248.947C480.498 248.419 480.96 248.128 481.648 248.123C482.656 248.117 483.492 248.623 484.041 249.484L485.09 248.357C484.604 247.48 483.431 246.688 481.767 246.698C479.975 246.71 478.813 247.597 478.822 249.053C478.831 250.477 479.971 251.014 481.205 251.294L482.246 251.543C483.112 251.746 483.705 251.934 483.708 252.51C483.712 253.07 483.218 253.345 482.45 253.35C481.058 253.359 480.093 252.565 479.656 251.784L478.607 252.911C479.207 254.139 480.731 254.801 482.395 254.791ZM489.77 254.743C491.418 254.733 492.709 253.957 492.699 252.421C492.692 251.301 492.047 250.601 490.301 250.164L489.355 249.93C488.297 249.665 487.88 249.459 487.876 248.899C487.873 248.371 488.335 248.08 489.023 248.076C490.031 248.07 490.866 248.576 491.416 249.437L492.465 248.31C491.979 247.433 490.806 246.641 489.142 246.651C487.35 246.663 486.188 247.55 486.197 249.006C486.206 250.43 487.346 250.967 488.579 251.247L489.621 251.496C490.486 251.699 491.08 251.887 491.083 252.463C491.087 253.023 490.593 253.298 489.825 253.303C488.433 253.312 487.468 252.518 487.031 251.737L485.982 252.864C486.582 254.092 488.106 254.754 489.77 254.743ZM496.359 254.541L496.318 248.141L498.59 248.127L498.581 246.735L496.309 246.749L496.305 246.093C496.3 245.453 496.57 245.1 497.226 245.096C497.818 245.092 498.284 245.441 498.575 245.903L499.351 244.618C499.029 244.204 498.273 243.649 497.137 243.656C495.489 243.667 494.503 244.665 494.514 246.281L494.517 246.761L493.317 246.769L493.326 248.161L494.526 248.153L494.567 254.553L496.359 254.541ZM502.25 254.664C503.802 254.654 504.595 253.593 504.875 252.359L504.889 254.487L506.697 254.475L506.647 246.683L504.839 246.695L504.867 251.063C504.875 252.343 504.433 253.194 503.121 253.202C501.921 253.21 501.597 252.556 501.59 251.596L501.559 246.716L499.767 246.727L499.802 252.151C499.812 253.767 500.746 254.673 502.25 254.664ZM510.376 254.452L510.307 243.732L508.515 243.743L508.584 254.463L510.376 254.452ZM514.063 254.428L513.995 243.708L512.203 243.72L512.271 254.44L514.063 254.428ZM517.496 257.078C518.76 257.07 519.668 256.504 520.218 254.933L523.045 246.578L521.061 246.591L519.697 251.016L519.15 253.099L518.577 251.023L517.141 246.616L515.173 246.629L517.795 253.924L518.899 253.917L518.758 254.35C518.476 255.216 518.093 255.49 517.485 255.494C516.766 255.499 516.283 255.054 515.863 254.465L515.024 255.91C515.46 256.515 516.376 257.085 517.496 257.078Z" fill="black"/>
<path d="M258.212 278.739L258.192 275.684L261.178 270.63L259.995 270.638L258.55 273.11L257.656 274.903L256.775 273.097L255.383 270.667L254.091 270.676L257.142 275.715L257.161 278.746L258.212 278.739ZM263.459 278.826C265.077 278.816 266.216 277.613 266.205 275.766C266.193 273.919 265.038 272.731 263.42 272.741C261.802 272.751 260.675 273.954 260.687 275.801C260.699 277.648 261.841 278.836 263.459 278.826ZM263.454 277.945C262.464 277.951 261.771 277.267 261.762 275.794C261.752 274.309 262.436 273.629 263.426 273.622C264.428 273.616 265.133 274.288 265.142 275.773C265.151 277.246 264.456 277.938 263.454 277.945ZM269.366 278.788C270.537 278.781 271.16 277.98 271.371 277.061L271.381 278.655L272.42 278.648L272.382 272.804L271.344 272.811L271.365 276.131C271.371 277.097 270.966 277.897 269.831 277.904C268.841 277.91 268.536 277.369 268.531 276.62L268.507 272.829L267.468 272.836L267.494 276.881C267.502 278.112 268.219 278.796 269.366 278.788ZM277.718 278.614L277.697 275.306C277.691 274.328 278.096 273.541 279.219 273.534C280.209 273.527 280.514 274.056 280.519 274.817L280.543 278.596L281.582 278.589L281.556 274.557C281.548 273.313 280.831 272.63 279.684 272.637C278.537 272.644 277.914 273.421 277.691 274.328L277.666 270.525L276.616 270.532L276.668 278.621L277.718 278.614ZM284.372 278.692C285.58 278.685 286.202 277.811 286.39 277.037L286.393 277.448C286.398 278.269 286.835 278.556 287.438 278.552L288.114 278.548L288.108 277.594L287.734 277.596C287.517 277.598 287.408 277.514 287.406 277.236L287.39 274.834C287.382 273.445 286.603 272.593 285.167 272.602C283.863 272.61 282.998 273.352 282.652 273.958L283.369 274.69C283.667 274.048 284.219 273.562 285.052 273.557C285.97 273.551 286.299 274.056 286.339 274.744L284.233 275.699C283.402 276.079 282.813 276.577 282.819 277.362C282.823 278.135 283.382 278.699 284.372 278.692ZM283.88 277.186C283.878 276.824 284.13 276.581 284.683 276.312L286.381 275.504L286.386 276.313C286.391 277.158 285.695 277.815 284.705 277.821C284.162 277.824 283.882 277.585 283.88 277.186ZM291.788 278.524L293.875 272.667L292.753 272.674L291.628 276.147L291.143 277.756L290.626 276.153L289.445 272.695L288.31 272.703L290.46 278.533L291.788 278.524ZM296.971 278.612C298.239 278.604 299.044 278.007 299.474 277.304L298.83 276.584C298.603 277.092 298.137 277.735 296.966 277.742C295.927 277.749 295.235 277.053 295.166 275.822L299.501 275.794C299.524 275.686 299.547 275.504 299.546 275.323C299.535 273.609 298.526 272.517 296.872 272.527C295.266 272.537 294.139 273.74 294.151 275.587C294.163 277.446 295.317 278.622 296.971 278.612ZM296.878 273.409C297.855 273.402 298.487 273.966 298.602 275.04L295.186 275.061C295.312 273.974 295.936 273.415 296.878 273.409ZM305.844 278.555C306.979 278.548 307.966 278.022 307.958 276.863C307.953 276.054 307.515 275.514 306.197 275.208L305.447 275.02C304.649 274.832 304.262 274.653 304.258 274.134C304.255 273.639 304.688 273.371 305.292 273.367C306.125 273.361 306.683 273.793 306.977 274.479L307.77 273.882C307.439 273.112 306.578 272.465 305.347 272.473C304.079 272.481 303.262 273.138 303.269 274.201C303.276 275.275 304.184 275.668 305.018 275.856L305.792 276.032C306.481 276.184 307.013 276.35 307.017 276.881C307.02 277.4 306.563 277.669 305.875 277.673C304.716 277.681 304.072 277.021 303.862 276.358L303.105 276.955C303.511 278.039 304.625 278.563 305.844 278.555ZM310.88 278.523C312.051 278.515 312.674 277.714 312.885 276.796L312.896 278.389L313.934 278.383L313.897 272.539L312.858 272.546L312.88 275.866C312.886 276.832 312.48 277.631 311.345 277.638C310.355 277.645 310.05 277.103 310.045 276.355L310.021 272.564L308.983 272.57L309.009 276.615C309.016 277.847 309.733 278.53 310.88 278.523ZM317.933 278.478C319.454 278.468 320.342 277.581 320.612 276.408L319.584 275.992C319.469 276.922 318.99 277.602 317.94 277.608C316.877 277.615 316.232 276.822 316.223 275.446C316.215 274.07 316.85 273.281 317.912 273.274C318.962 273.267 319.45 273.928 319.576 274.857L320.6 274.428C320.315 273.259 319.416 272.383 317.894 272.393C316.216 272.403 315.149 273.606 315.161 275.453C315.173 277.312 316.255 278.488 317.933 278.478ZM324.194 278.438C325.715 278.428 326.603 277.541 326.873 276.368L325.844 275.952C325.729 276.882 325.251 277.562 324.2 277.568C323.138 277.575 322.493 276.782 322.484 275.406C322.475 274.03 323.11 273.241 324.173 273.234C325.223 273.227 325.71 273.888 325.837 274.817L326.861 274.388C326.575 273.219 325.676 272.343 324.155 272.353C322.477 272.363 321.41 273.566 321.422 275.413C321.434 277.272 322.516 278.448 324.194 278.438ZM330.515 278.397C331.783 278.389 332.588 277.792 333.018 277.089L332.374 276.369C332.147 276.878 331.681 277.52 330.51 277.528C329.471 277.535 328.779 276.839 328.71 275.608L333.045 275.58C333.068 275.471 333.091 275.29 333.09 275.109C333.079 273.394 332.07 272.302 330.416 272.313C328.81 272.323 327.683 273.525 327.695 275.373C327.706 277.232 328.861 278.408 330.515 278.397ZM330.421 273.194C331.399 273.188 332.031 273.751 332.146 274.825L328.73 274.847C328.855 273.759 329.48 273.2 330.421 273.194ZM336.617 278.358C337.752 278.351 338.739 277.825 338.732 276.666C338.727 275.858 338.288 275.317 336.97 275.011L336.221 274.823C335.422 274.635 335.035 274.456 335.032 273.937C335.028 273.442 335.461 273.174 336.065 273.17C336.898 273.165 337.456 273.596 337.751 274.282L338.544 273.685C338.213 272.915 337.351 272.268 336.12 272.276C334.852 272.284 334.035 272.941 334.042 274.004C334.049 275.078 334.957 275.471 335.791 275.659L336.565 275.835C337.254 275.988 337.787 276.153 337.79 276.685C337.793 277.204 337.336 277.472 336.648 277.477C335.489 277.484 334.845 276.824 334.635 276.161L333.879 276.758C334.284 277.842 335.398 278.366 336.617 278.358ZM342.088 278.323C343.223 278.316 344.21 277.791 344.202 276.631C344.197 275.823 343.759 275.282 342.441 274.977L341.691 274.788C340.893 274.6 340.506 274.421 340.502 273.902C340.499 273.407 340.932 273.139 341.536 273.135C342.369 273.13 342.927 273.561 343.221 274.247L344.014 273.65C343.683 272.88 342.822 272.233 341.591 272.241C340.323 272.249 339.506 272.906 339.513 273.969C339.52 275.043 340.428 275.436 341.262 275.624L342.036 275.8C342.725 275.953 343.257 276.118 343.261 276.65C343.264 277.169 342.807 277.437 342.119 277.442C340.96 277.449 340.316 276.789 340.106 276.126L339.349 276.723C339.755 277.807 340.869 278.331 342.088 278.323ZM346.809 278.172L346.777 273.15L348.661 273.138L348.656 272.317L346.772 272.329L346.768 271.701C346.765 271.146 347.004 270.83 347.547 270.827C348.066 270.823 348.443 271.135 348.675 271.556L349.25 270.804C349.006 270.431 348.447 269.952 347.554 269.957C346.455 269.964 345.711 270.621 345.718 271.792L345.722 272.335L344.768 272.342L344.773 273.163L345.727 273.156L345.759 278.179L346.809 278.172ZM351.546 278.263C352.717 278.255 353.339 277.454 353.551 276.535L353.561 278.129L354.599 278.123L354.562 272.279L353.524 272.286L353.545 275.606C353.551 276.572 353.146 277.371 352.011 277.378C351.021 277.385 350.715 276.843 350.711 276.095L350.686 272.304L349.648 272.31L349.674 276.355C349.682 277.586 350.399 278.27 351.546 278.263ZM357.245 278.106L357.193 270.016L356.143 270.023L356.195 278.112L357.245 278.106ZM359.874 278.089L359.823 270L358.772 270.006L358.824 278.095L359.874 278.089ZM362.335 279.981C363.156 279.975 363.805 279.621 364.173 278.544L366.378 272.203L365.255 272.211L364.036 275.973L363.633 277.232L363.215 275.979L361.935 272.232L360.812 272.239L362.816 277.756L363.467 277.74L363.349 278.115C363.124 278.829 362.812 279.06 362.341 279.063C361.786 279.067 361.481 278.718 361.201 278.249L360.638 279.05C360.895 279.531 361.502 279.986 362.335 279.981ZM372.201 278.131C373.336 278.123 374.323 277.598 374.315 276.439C374.31 275.63 373.872 275.089 372.554 274.784L371.804 274.596C371.006 274.407 370.619 274.229 370.615 273.71C370.612 273.215 371.045 272.946 371.649 272.942C372.482 272.937 373.04 273.368 373.334 274.055L374.127 273.458C373.796 272.687 372.935 272.041 371.703 272.049C370.436 272.057 369.619 272.714 369.626 273.776C369.633 274.851 370.541 275.244 371.375 275.431L372.149 275.608C372.838 275.76 373.37 275.926 373.374 276.457C373.377 276.976 372.92 277.245 372.232 277.249C371.073 277.256 370.429 276.597 370.219 275.934L369.462 276.53C369.868 277.614 370.982 278.138 372.201 278.131ZM377.913 278.094C379.181 278.086 379.986 277.489 380.416 276.786L379.771 276.066C379.545 276.574 379.078 277.217 377.907 277.225C376.869 277.232 376.176 276.536 376.108 275.305L380.442 275.277C380.466 275.168 380.489 274.987 380.488 274.806C380.477 273.091 379.468 271.999 377.814 272.01C376.208 272.02 375.081 273.222 375.092 275.07C375.104 276.929 376.259 278.105 377.913 278.094ZM377.819 272.891C378.797 272.885 379.429 273.448 379.544 274.522L376.127 274.544C376.253 273.456 376.877 272.897 377.819 272.891ZM382.889 277.942L382.868 274.633C382.862 273.656 383.267 272.868 384.39 272.861C385.38 272.855 385.686 273.384 385.69 274.145L385.715 277.924L386.753 277.917L386.727 273.884C386.719 272.641 386.002 271.957 384.855 271.964C383.708 271.972 383.086 272.749 382.862 273.656L382.852 272.098L381.802 272.105L381.839 277.948L382.889 277.942ZM390.104 278.028C390.913 278.023 391.466 277.645 391.717 277.245L391.36 276.209C391.205 276.572 390.846 277.009 390.327 277.013C389.868 277.016 389.516 276.837 389.512 276.088L389.491 272.877L391.411 272.864L391.406 272.043L389.486 272.056L389.476 270.534L388.431 271.314L388.436 272.062L387.494 272.068L387.499 272.889L388.441 272.883L388.463 276.409C388.47 277.411 389.15 278.034 390.104 278.028ZM470.727 277.513C471.536 277.507 472.089 277.13 472.34 276.73L471.983 275.694C471.829 276.057 471.469 276.494 470.95 276.497C470.491 276.5 470.14 276.321 470.135 275.573L470.115 272.361L472.034 272.349L472.029 271.528L470.109 271.54L470.1 270.019L469.054 270.798L469.059 271.547L468.117 271.553L468.122 272.374L469.064 272.368L469.087 275.893C469.093 276.895 469.773 277.519 470.727 277.513ZM475.311 277.471C476.929 277.461 478.068 276.258 478.056 274.411C478.044 272.564 476.89 271.376 475.272 271.386C473.654 271.397 472.527 272.599 472.539 274.446C472.55 276.294 473.693 277.482 475.311 277.471ZM475.305 276.59C474.315 276.596 473.622 275.912 473.613 274.439C473.604 272.954 474.287 272.274 475.277 272.268C476.28 272.261 476.984 272.933 476.994 274.418C477.003 275.891 476.307 276.584 475.305 276.59ZM484.291 277.293L485.272 273.87L485.66 272.31L486.044 273.865L487.068 277.275L488.445 277.267L489.917 271.413L488.745 271.421L488.02 275.024L487.752 276.51L487.368 275.028L486.295 271.436L485.003 271.445L483.963 275.049L483.611 276.537L483.323 275.054L482.54 271.461L481.369 271.468L482.927 277.302L484.291 277.293ZM492.003 277.365C493.21 277.357 493.833 276.484 494.021 275.71L494.024 276.12C494.029 276.941 494.465 277.228 495.069 277.224L495.745 277.22L495.739 276.266L495.365 276.268C495.147 276.27 495.038 276.186 495.036 275.908L495.021 273.506C495.012 272.117 494.234 271.265 492.797 271.274C491.493 271.283 490.629 272.025 490.282 272.63L490.999 273.362C491.297 272.721 491.849 272.234 492.683 272.229C493.6 272.223 493.929 272.728 493.97 273.416L491.863 274.371C491.032 274.751 490.444 275.249 490.449 276.034C490.454 276.807 491.013 277.371 492.003 277.365ZM491.51 275.858C491.508 275.496 491.76 275.253 492.314 274.984L494.011 274.176L494.016 274.985C494.022 275.83 493.326 276.487 492.336 276.493C491.792 276.497 491.513 276.257 491.51 275.858ZM498.012 277.205L497.96 269.116L496.91 269.123L496.961 277.212L498.012 277.205ZM500.641 277.189L500.589 269.099L499.539 269.106L499.591 277.195L500.641 277.189ZM504.708 277.283C505.976 277.275 506.781 276.678 507.211 275.975L506.566 275.255C506.34 275.764 505.873 276.406 504.702 276.414C503.664 276.421 502.971 275.725 502.903 274.494L507.237 274.466C507.261 274.357 507.284 274.176 507.283 273.995C507.272 272.28 506.263 271.188 504.609 271.199C503.003 271.209 501.876 272.411 501.887 274.259C501.899 276.118 503.054 277.294 504.708 277.283ZM504.614 272.08C505.592 272.074 506.224 272.637 506.339 273.711L502.922 273.733C503.048 272.645 503.672 272.086 504.614 272.08ZM510.496 277.258C511.305 277.253 511.858 276.875 512.109 276.475L511.752 275.439C511.598 275.802 511.238 276.239 510.719 276.243C510.26 276.246 509.909 276.067 509.904 275.318L509.884 272.107L511.804 272.094L511.798 271.273L509.879 271.286L509.869 269.764L508.823 270.544L508.828 271.292L507.886 271.298L507.892 272.119L508.833 272.113L508.856 275.639C508.862 276.641 509.543 277.264 510.496 277.258ZM516.928 277.205C518.135 277.197 518.758 276.324 518.946 275.55L518.949 275.961C518.954 276.782 519.39 277.069 519.994 277.065L520.67 277.06L520.664 276.107L520.29 276.109C520.072 276.11 519.963 276.027 519.961 275.749L519.946 273.346C519.937 271.958 519.159 271.106 517.722 271.115C516.418 271.123 515.554 271.865 515.208 272.471L515.925 273.203C516.222 272.561 516.775 272.075 517.608 272.069C518.525 272.063 518.854 272.568 518.895 273.256L516.788 274.212C515.958 274.591 515.369 275.09 515.374 275.875C515.379 276.648 515.938 277.211 516.928 277.205ZM516.436 275.699C516.433 275.337 516.685 275.094 517.239 274.825L518.936 274.017L518.941 274.826C518.947 275.671 518.251 276.327 517.261 276.334C516.717 276.337 516.438 276.097 516.436 275.699ZM523.928 277.185C525.051 277.177 525.602 276.425 525.801 275.53L525.811 277.028L526.861 277.021L526.81 268.932L525.759 268.938L525.783 272.705C525.572 271.813 525.012 271.068 523.889 271.075C522.416 271.085 521.506 272.298 521.518 274.145C521.53 275.992 522.455 277.194 523.928 277.185ZM522.581 274.138C522.571 272.653 523.328 271.972 524.245 271.967C525.368 271.959 525.783 272.742 525.79 273.707L525.795 274.54C525.801 275.506 525.396 276.294 524.273 276.301C523.355 276.307 522.59 275.636 522.581 274.138ZM530.519 277.142C531.642 277.135 532.193 276.383 532.392 275.488L532.402 276.985L533.452 276.979L533.4 268.889L532.35 268.896L532.374 272.663C532.163 271.771 531.603 271.026 530.48 271.033C529.007 271.043 528.097 272.256 528.109 274.103C528.121 275.95 529.046 277.152 530.519 277.142ZM529.172 274.096C529.162 272.611 529.918 271.93 530.836 271.924C531.959 271.917 532.374 272.699 532.381 273.665L532.386 274.498C532.392 275.464 531.987 276.252 530.864 276.259C529.946 276.265 529.181 275.593 529.172 274.096ZM536.095 276.962L536.074 273.654C536.067 272.652 536.738 271.766 537.487 271.761C537.909 271.758 538.092 272.047 538.094 272.385C538.096 272.711 537.942 273.074 537.75 273.245L538.897 273.237C538.992 273.092 539.123 272.729 539.12 272.234C539.114 271.413 538.508 270.97 537.88 270.974C536.89 270.98 536.291 271.769 536.068 272.676L536.058 271.118L535.007 271.125L535.045 276.969L536.095 276.962ZM542.473 277.042C543.74 277.034 544.546 276.437 544.976 275.734L544.331 275.014C544.105 275.522 543.638 276.165 542.467 276.172C541.429 276.179 540.736 275.483 540.668 274.252L545.002 274.224C545.026 274.116 545.049 273.934 545.048 273.753C545.037 272.039 544.028 270.947 542.373 270.957C540.768 270.967 539.64 272.17 539.652 274.017C539.664 275.876 540.819 277.052 542.473 277.042ZM542.379 271.838C543.357 271.832 543.989 272.396 544.104 273.47L540.687 273.491C540.813 272.404 541.437 271.845 542.379 271.838ZM548.575 277.003C549.71 276.995 550.697 276.47 550.689 275.311C550.684 274.502 550.246 273.961 548.928 273.656L548.178 273.468C547.38 273.28 546.993 273.101 546.989 272.582C546.986 272.087 547.419 271.818 548.023 271.814C548.856 271.809 549.414 272.24 549.708 272.927L550.501 272.33C550.17 271.559 549.309 270.913 548.077 270.921C546.81 270.929 545.993 271.586 546 272.648C546.007 273.723 546.915 274.116 547.749 274.303L548.523 274.48C549.212 274.632 549.744 274.798 549.748 275.329C549.751 275.848 549.294 276.117 548.606 276.121C547.447 276.129 546.803 275.469 546.593 274.806L545.836 275.402C546.242 276.486 547.356 277.011 548.575 277.003ZM554.046 276.968C555.181 276.96 556.168 276.435 556.16 275.276C556.155 274.467 555.717 273.927 554.399 273.621L553.649 273.433C552.851 273.245 552.463 273.066 552.46 272.547C552.457 272.052 552.89 271.783 553.494 271.779C554.327 271.774 554.885 272.205 555.179 272.892L555.972 272.295C555.641 271.524 554.78 270.878 553.548 270.886C552.281 270.894 551.464 271.551 551.47 272.613C551.477 273.688 552.385 274.081 553.22 274.268L553.994 274.445C554.683 274.597 555.215 274.763 555.218 275.294C555.222 275.813 554.765 276.082 554.077 276.086C552.917 276.094 552.273 275.434 552.064 274.771L551.307 275.367C551.712 276.451 552.827 276.976 554.046 276.968ZM563.76 276.906C566.102 276.891 567.66 275.058 567.645 272.703C567.63 270.373 566.049 268.56 563.707 268.575C561.376 268.59 559.806 270.423 559.821 272.753C559.836 275.108 561.43 276.921 563.76 276.906ZM563.766 275.903C561.918 275.915 560.944 274.605 560.932 272.746C560.92 270.911 561.878 269.577 563.725 269.565C565.572 269.553 566.547 270.875 566.558 272.71C566.57 274.569 565.613 275.892 563.766 275.903ZM569.331 276.749L570.335 275.222L570.897 274.361L571.47 275.214L572.458 276.729L573.677 276.721L571.678 273.752L573.724 270.877L572.517 270.885L570.975 273.249L569.438 270.905L568.231 270.913L570.193 273.798L568.124 276.757L569.331 276.749ZM576.64 276.823C578.161 276.814 579.049 275.926 579.319 274.754L578.29 274.338C578.176 275.268 577.697 275.947 576.647 275.954C575.584 275.961 574.939 275.168 574.93 273.792C574.922 272.415 575.557 271.626 576.619 271.62C577.669 271.613 578.157 272.274 578.283 273.203L579.307 272.774C579.022 271.604 578.123 270.729 576.601 270.738C574.923 270.749 573.856 271.951 573.868 273.798C573.88 275.658 574.962 276.834 576.64 276.823ZM584.021 276.655C585.772 276.644 586.805 275.841 586.796 274.464C586.79 273.426 586.193 272.597 584.501 272.426C585.853 272.273 586.415 271.484 586.41 270.615C586.402 269.384 585.575 268.556 584.03 268.566L580.613 268.588L580.665 276.677L584.021 276.655ZM583.674 269.498C584.64 269.492 585.318 269.789 585.324 270.755C585.33 271.733 584.668 272.027 583.738 272.033L581.686 272.046L581.669 269.511L583.674 269.498ZM583.865 272.974C584.915 272.967 585.703 273.36 585.709 274.338C585.715 275.304 585.126 275.719 583.846 275.727L581.709 275.74L581.692 272.988L583.865 272.974ZM590.635 276.734C592.157 276.724 593.045 275.837 593.315 274.664L592.286 274.248C592.171 275.178 591.692 275.858 590.642 275.864C589.58 275.871 588.935 275.078 588.926 273.702C588.917 272.326 589.552 271.537 590.614 271.53C591.665 271.523 592.152 272.184 592.279 273.113L593.302 272.684C593.017 271.515 592.118 270.639 590.597 270.649C588.918 270.659 587.851 271.862 587.863 273.709C587.875 275.568 588.957 276.744 590.635 276.734ZM595.674 276.581L595.664 275.011L594.397 275.019L594.407 276.589L595.674 276.581ZM598.268 276.564L598.258 274.995L596.991 275.003L597.001 276.572L598.268 276.564ZM600.862 276.548L600.852 274.978L599.584 274.986L599.594 276.556L600.862 276.548ZM603.456 276.531L603.446 274.961L602.178 274.97L602.188 276.539L603.456 276.531ZM606.05 276.514L606.04 274.945L604.772 274.953L604.782 276.523L606.05 276.514ZM608.644 276.498L608.634 274.928L607.366 274.936L607.376 276.506L608.644 276.498ZM612.825 276.592C614.479 276.581 615.606 275.379 615.596 273.809C615.587 272.336 614.855 271.146 613.201 271.156C611.885 271.165 611.008 271.955 610.884 273.32L610.879 272.439C610.863 269.915 611.812 269.282 612.79 269.275C613.648 269.27 614.255 269.797 614.562 270.604L615.462 269.85C614.985 268.899 614.088 268.253 612.868 268.261C610.876 268.273 609.75 269.705 609.767 272.337L609.768 272.482C609.789 275.682 611.062 276.603 612.825 276.592ZM612.794 275.59C611.708 275.597 611.016 275.046 611.008 273.73C611.001 272.679 611.746 272.143 612.797 272.137C613.956 272.129 614.479 272.814 614.486 273.877C614.492 274.843 613.845 275.583 612.794 275.59ZM618.509 276.435C618.487 272.994 619.551 271.236 621.327 269.523L621.319 268.327L616.019 268.361L616.025 269.351L620.372 269.323C619.052 270.612 617.337 272.422 617.362 276.442L618.509 276.435ZM624.708 276.516C626.712 276.503 627.672 275.603 627.664 274.299C627.659 273.479 627.146 272.6 625.816 272.283C626.853 272.107 627.404 271.319 627.398 270.377C627.39 269.17 626.418 268.174 624.655 268.185C622.88 268.197 621.933 269.205 621.94 270.424C621.946 271.354 622.434 272.135 623.486 272.298C622.16 272.632 621.719 273.516 621.724 274.337C621.732 275.641 622.692 276.529 624.708 276.516ZM624.678 271.868C623.507 271.875 623.057 271.31 623.052 270.538C623.048 269.838 623.502 269.183 624.661 269.175C625.82 269.168 626.295 269.817 626.3 270.517C626.305 271.29 625.729 271.861 624.678 271.868ZM624.702 275.526C623.289 275.535 622.947 274.873 622.942 274.149C622.937 273.34 623.513 272.72 624.684 272.713C625.855 272.705 626.438 273.317 626.444 274.126C626.448 274.851 626.114 275.517 624.702 275.526Z" fill="#9CA3AF"/>
<path d="M398.491 277.95C400.749 277.936 401.872 276.142 401.857 273.763C401.842 271.397 400.696 269.617 398.438 269.632C396.18 269.646 395.045 271.441 395.06 273.807C395.075 276.185 396.234 277.965 398.491 277.95ZM398.483 276.647C397.046 276.656 396.508 275.5 396.497 273.798C396.486 272.107 397.01 270.933 398.446 270.924C399.895 270.914 400.422 272.082 400.433 273.773C400.443 275.475 399.932 276.637 398.483 276.647ZM404.342 277.804L404.331 276.09L402.786 276.1L402.797 277.814L404.342 277.804ZM408.655 277.885C410.912 277.871 412.036 276.077 412.021 273.698C412.006 271.332 410.859 269.552 408.601 269.567C406.344 269.581 405.208 271.376 405.223 273.742C405.239 276.12 406.397 277.9 408.655 277.885ZM408.646 276.582C407.21 276.591 406.671 275.435 406.66 273.733C406.649 272.042 407.173 270.868 408.61 270.859C410.059 270.849 410.585 272.017 410.596 273.708C410.607 275.41 410.095 276.572 408.646 276.582ZM416.543 277.835C418.8 277.821 419.924 276.026 419.909 273.648C419.893 271.282 418.747 269.502 416.489 269.516C414.232 269.531 413.096 271.325 413.111 273.691C413.126 276.07 414.285 277.849 416.543 277.835ZM416.534 276.531C415.097 276.54 414.559 275.385 414.548 273.682C414.537 271.992 415.061 270.817 416.498 270.808C417.946 270.799 418.473 271.967 418.484 273.657C418.495 275.359 417.983 276.522 416.534 276.531ZM426.852 277.66L426.844 276.453L423.741 276.473L422.535 276.601L423.472 275.895L424.588 274.898C425.441 274.18 426.593 273.05 426.584 271.746C426.576 270.418 425.773 269.457 424.143 269.467C422.284 269.479 420.975 270.671 421.022 272.289L422.174 273.102C422.092 271.545 422.835 270.78 424.031 270.772C424.815 270.767 425.157 271.26 425.16 271.84C425.165 272.6 424.614 273.219 423.834 273.985L421.062 276.659L421.069 277.697L426.852 277.66ZM430.899 277.755C432.637 277.744 433.825 276.565 433.815 274.935C433.805 273.475 433.062 272.344 431.432 272.355C430.188 272.363 429.372 273.08 429.21 274.277L429.205 273.504C429.192 271.355 430.009 270.77 430.951 270.764C431.76 270.759 432.354 271.202 432.721 271.924L433.643 270.795C433.131 269.977 432.21 269.416 431.015 269.424C428.853 269.437 427.716 270.918 427.733 273.513L427.733 273.646C427.753 276.653 428.955 277.768 430.899 277.755ZM430.854 276.464C429.889 276.47 429.318 275.954 429.311 274.844C429.305 273.926 429.905 273.427 430.859 273.421C431.885 273.414 432.348 274.027 432.354 274.945C432.359 275.802 431.796 276.458 430.854 276.464ZM438.261 277.708C440.096 277.696 441.236 276.578 441.225 274.912C441.215 273.306 440.315 272.274 438.781 272.284C437.707 272.291 437.059 272.874 436.81 273.6L436.985 270.762L440.595 270.739L440.587 269.483L435.673 269.514L435.437 274.116L436.765 274.24L436.777 274.132C436.846 273.612 437.387 273.283 438.16 273.278C438.993 273.272 439.757 273.726 439.764 274.861C439.77 275.803 439.242 276.386 438.264 276.392C437.226 276.399 436.51 275.8 436.226 274.799L435.146 275.857C435.563 276.904 436.715 277.718 438.261 277.708ZM450.853 277.507L450.845 276.3L446.487 276.327L446.472 274.009L450.082 273.986L450.074 272.779L446.464 272.802L446.451 270.653L450.809 270.625L450.801 269.418L445.079 269.454L445.13 277.544L450.853 277.507ZM455.016 277.48L454.972 270.598L457.46 270.583L457.452 269.375L451.125 269.416L451.133 270.623L453.608 270.607L453.652 277.489L455.016 277.48ZM459.417 277.452L459.394 273.927L463.282 273.902L463.305 277.427L464.669 277.419L464.617 269.329L463.253 269.338L463.274 272.695L459.387 272.719L459.365 269.363L458.001 269.372L458.053 277.461L459.417 277.452Z" fill="black"/>
</g>
</g>
<defs>
<filter id="filter0_f_3481_29597" x="438" y="34" width="290" height="187" filterUnits="userSpaceOnUse" color-interpolation-filters="sRGB">
<feFlood flood-opacity="0" result="BackgroundImageFix"/>
<feBlend mode="normal" in="SourceGraphic" in2="BackgroundImageFix" result="shape"/>
<feGaussianBlur stdDeviation="30" result="effect1_foregroundBlur_3481_29597"/>
</filter>
<filter id="filter1_f_3481_29597" x="-72.8404" y="-109.989" width="768.978" height="768.978" filterUnits="userSpaceOnUse" color-interpolation-filters="sRGB">
<feFlood flood-opacity="0" result="BackgroundImageFix"/>
<feBlend mode="normal" in="SourceGraphic" in2="BackgroundImageFix" result="shape"/>
<feGaussianBlur stdDeviation="108.92" result="effect1_foregroundBlur_3481_29597"/>
</filter>
<filter id="filter2_f_3481_29597" x="57.8627" y="-109.989" width="768.978" height="768.978" filterUnits="userSpaceOnUse" color-interpolation-filters="sRGB">
<feFlood flood-opacity="0" result="BackgroundImageFix"/>
<feBlend mode="normal" in="SourceGraphic" in2="BackgroundImageFix" result="shape"/>
<feGaussianBlur stdDeviation="108.92" result="effect1_foregroundBlur_3481_29597"/>
</filter>
<filter id="filter3_d_3481_29597" x="511" y="80" width="331.43" height="203.777" filterUnits="userSpaceOnUse" color-interpolation-filters="sRGB">
<feFlood flood-opacity="0" result="BackgroundImageFix"/>
<feColorMatrix in="SourceAlpha" type="matrix" values="0 0 0 0 0 0 0 0 0 0 0 0 0 0 0 0 0 0 127 0" result="hardAlpha"/>
<feOffset dy="8"/>
<feGaussianBlur stdDeviation="17.5"/>
<feComposite in2="hardAlpha" operator="out"/>
<feColorMatrix type="matrix" values="0 0 0 0 0.125 0 0 0 0 0.125 0 0 0 0 0.125 0 0 0 0.35 0"/>
<feBlend mode="normal" in2="BackgroundImageFix" result="effect1_dropShadow_3481_29597"/>
<feBlend mode="normal" in="SourceGraphic" in2="effect1_dropShadow_3481_29597" result="shape"/>
</filter>
<filter id="filter4_d_3481_29597" x="555.422" y="130.556" width="127.18" height="107.399" filterUnits="userSpaceOnUse" color-interpolation-filters="sRGB">
<feFlood flood-opacity="0" result="BackgroundImageFix"/>
<feColorMatrix in="SourceAlpha" type="matrix" values="0 0 0 0 0 0 0 0 0 0 0 0 0 0 0 0 0 0 127 0" result="hardAlpha"/>
<feOffset dy="1.88417"/>
<feGaussianBlur stdDeviation="5.65251"/>
<feComposite in2="hardAlpha" operator="out"/>
<feColorMatrix type="matrix" values="0 0 0 0 0.279167 0 0 0 0 0.279167 0 0 0 0 0.279167 0 0 0 0.15 0"/>
<feBlend mode="normal" in2="BackgroundImageFix" result="effect1_dropShadow_3481_29597"/>
<feBlend mode="normal" in="SourceGraphic" in2="effect1_dropShadow_3481_29597" result="shape"/>
</filter>
<filter id="filter5_d_3481_29597" x="671.3" y="130.556" width="127.18" height="107.399" filterUnits="userSpaceOnUse" color-interpolation-filters="sRGB">
<feFlood flood-opacity="0" result="BackgroundImageFix"/>
<feColorMatrix in="SourceAlpha" type="matrix" values="0 0 0 0 0 0 0 0 0 0 0 0 0 0 0 0 0 0 127 0" result="hardAlpha"/>
<feOffset dy="1.88417"/>
<feGaussianBlur stdDeviation="5.65251"/>
<feComposite in2="hardAlpha" operator="out"/>
<feColorMatrix type="matrix" values="0 0 0 0 0.279167 0 0 0 0 0.279167 0 0 0 0 0.279167 0 0 0 0.15 0"/>
<feBlend mode="normal" in2="BackgroundImageFix" result="effect1_dropShadow_3481_29597"/>
<feBlend mode="normal" in="SourceGraphic" in2="effect1_dropShadow_3481_29597" result="shape"/>
</filter>
<linearGradient id="paint0_linear_3481_29597" x1="619.249" y1="170.598" x2="613.995" y2="191.97" gradientUnits="userSpaceOnUse">
<stop stop-color="#BCEEFA"/>
<stop offset="0.713542" stop-color="#81DE90"/>
<stop offset="1" stop-color="white"/>
</linearGradient>
<linearGradient id="paint1_linear_3481_29597" x1="735.249" y1="170.598" x2="729.995" y2="191.97" gradientUnits="userSpaceOnUse">
<stop stop-color="#BCEEFA"/>
<stop offset="0.713542" stop-color="#81DE90"/>
<stop offset="1" stop-color="white"/>
</linearGradient>
<clipPath id="clip0_3481_29597">
<rect width="805" height="547" fill="white"/>
</clipPath>
<clipPath id="clip1_3481_29597">
<rect x="215" y="123" width="453" height="213" rx="12" fill="white"/>
</clipPath>
</defs>
</svg>
