<svg width="1099" height="457" viewBox="0 0 1099 457" fill="none" xmlns="http://www.w3.org/2000/svg">
<path d="M278 66.104C278 61.076 282.076 57 287.104 57H870.896C875.924 57 880 61.076 880 66.104V398.399H278V66.104Z" fill="#041004"/>
<rect x="491.941" y="206.078" width="28.4499" height="128.594" rx="4.55198" fill="url(#paint0_linear_3905_30858)"/>
<path d="M318.539 96.6916H316.464V102.418H315.499V96.6916H313.414V95.8813H318.539V96.6916ZM325.295 99.1496C325.295 99.6382 325.216 100.087 325.058 100.497C324.903 100.904 324.683 101.256 324.398 101.553C324.113 101.847 323.771 102.077 323.374 102.24C322.976 102.404 322.535 102.486 322.049 102.486C321.567 102.486 321.125 102.404 320.724 102.24C320.327 102.077 319.985 101.847 319.7 101.553C319.418 101.256 319.198 100.904 319.04 100.497C318.882 100.087 318.803 99.6382 318.803 99.1496C318.803 98.6641 318.882 98.2165 319.04 97.8068C319.198 97.3971 319.418 97.0451 319.7 96.7507C319.985 96.4534 320.327 96.2227 320.724 96.0588C321.125 95.8919 321.567 95.8085 322.049 95.8085C322.535 95.8085 322.976 95.8919 323.374 96.0588C323.771 96.2227 324.113 96.4534 324.398 96.7507C324.683 97.0451 324.903 97.3971 325.058 97.8068C325.216 98.2165 325.295 98.6641 325.295 99.1496ZM324.302 99.1496C324.302 98.7612 324.249 98.4122 324.143 98.1027C324.037 97.7932 323.885 97.5307 323.688 97.3152C323.494 97.0997 323.257 96.9343 322.978 96.819C322.701 96.7037 322.392 96.6461 322.049 96.6461C321.706 96.6461 321.395 96.7037 321.116 96.819C320.84 96.9343 320.603 97.0997 320.406 97.3152C320.208 97.5307 320.057 97.7932 319.951 98.1027C319.844 98.4122 319.791 98.7612 319.791 99.1496C319.791 99.5411 319.844 99.8916 319.951 100.201C320.057 100.508 320.208 100.769 320.406 100.984C320.603 101.2 320.84 101.365 321.116 101.48C321.395 101.593 321.706 101.649 322.049 101.649C322.392 101.649 322.701 101.593 322.978 101.48C323.257 101.365 323.494 101.2 323.688 100.984C323.885 100.769 324.037 100.508 324.143 100.201C324.249 99.8916 324.302 99.5411 324.302 99.1496ZM330.693 96.6916H328.617V102.418H327.652V96.6916H325.567V95.8813H330.693V96.6916ZM334.466 99.9827L333.497 97.4472C333.427 97.2742 333.357 97.0557 333.287 96.7917C333.254 96.9222 333.219 97.0436 333.182 97.1559C333.149 97.2682 333.116 97.3683 333.082 97.4563L332.117 99.9827H334.466ZM336.383 102.418H335.636C335.551 102.418 335.481 102.397 335.427 102.354C335.372 102.312 335.333 102.257 335.308 102.19L334.73 100.675H331.849L331.271 102.19C331.249 102.248 331.21 102.301 331.152 102.35C331.095 102.395 331.025 102.418 330.943 102.418H330.196L332.8 95.8813H333.779L336.383 102.418ZM340.94 101.603V102.418H337.199V95.8813H338.168V101.603H340.94ZM346.246 101.649C346.492 101.649 346.701 101.62 346.874 101.562C347.05 101.505 347.193 101.426 347.302 101.325C347.415 101.225 347.496 101.107 347.548 100.97C347.6 100.831 347.625 100.679 347.625 100.515C347.625 100.191 347.513 99.9356 347.289 99.7505C347.064 99.5624 346.717 99.4683 346.246 99.4683H344.881V101.649H346.246ZM344.881 96.6415V98.7809H345.996C346.472 98.7809 346.826 98.6853 347.056 98.4942C347.29 98.2999 347.407 98.039 347.407 97.7112C347.407 97.338 347.296 97.0664 347.075 96.8964C346.853 96.7265 346.509 96.6415 346.041 96.6415H344.881ZM346.041 95.8813C346.451 95.8813 346.802 95.9208 347.093 95.9997C347.387 96.0786 347.628 96.1924 347.817 96.3411C348.005 96.4898 348.143 96.6703 348.231 96.8828C348.322 97.0921 348.367 97.3304 348.367 97.5974C348.367 97.7552 348.343 97.907 348.295 98.0526C348.246 98.1983 348.172 98.3348 348.072 98.4623C347.971 98.5867 347.845 98.699 347.694 98.7991C347.542 98.8993 347.363 98.9827 347.157 99.0495C348.106 99.2376 348.581 99.7338 348.581 100.538C348.581 100.817 348.53 101.072 348.427 101.303C348.323 101.53 348.173 101.728 347.976 101.894C347.779 102.061 347.536 102.19 347.248 102.281C346.959 102.372 346.632 102.418 346.264 102.418H343.911V95.8813H346.041ZM353.199 99.9827L352.229 97.4472C352.159 97.2742 352.089 97.0557 352.02 96.7917C351.986 96.9222 351.951 97.0436 351.915 97.1559C351.882 97.2682 351.848 97.3683 351.815 97.4563L350.85 99.9827H353.199ZM355.115 102.418H354.368C354.283 102.418 354.214 102.397 354.159 102.354C354.104 102.312 354.065 102.257 354.041 102.19L353.463 100.675H350.581L350.003 102.19C349.982 102.248 349.942 102.301 349.885 102.35C349.827 102.395 349.757 102.418 349.675 102.418H348.929L351.533 95.8813H352.511L355.115 102.418ZM359.673 101.603V102.418H355.931V95.8813H356.901V101.603H359.673ZM364.09 99.9827L363.12 97.4472C363.05 97.2742 362.98 97.0557 362.911 96.7917C362.877 96.9222 362.842 97.0436 362.806 97.1559C362.773 97.2682 362.739 97.3683 362.706 97.4563L361.741 99.9827H364.09ZM366.006 102.418H365.259C365.174 102.418 365.105 102.397 365.05 102.354C364.995 102.312 364.956 102.257 364.932 102.19L364.354 100.675H361.472L360.894 102.19C360.873 102.248 360.833 102.301 360.776 102.35C360.718 102.395 360.648 102.418 360.566 102.418H359.82L362.424 95.8813H363.402L366.006 102.418ZM372.175 95.8813V102.418H371.684C371.608 102.418 371.544 102.404 371.492 102.377C371.444 102.35 371.394 102.306 371.342 102.245L367.651 97.47C367.657 97.5519 367.661 97.6323 367.664 97.7112C367.67 97.7901 367.673 97.8645 367.673 97.9343V102.418H366.822V95.8813H367.323C367.408 95.8813 367.471 95.8919 367.514 95.9132C367.556 95.9314 367.603 95.9754 367.655 96.0452L371.356 100.825C371.347 100.737 371.339 100.652 371.333 100.57C371.33 100.485 371.329 100.406 371.329 100.333V95.8813H372.175ZM378.358 101.016C378.413 101.016 378.46 101.037 378.499 101.08L378.881 101.498C378.614 101.814 378.288 102.058 377.903 102.231C377.52 102.404 377.059 102.491 376.519 102.491C376.046 102.491 375.616 102.409 375.231 102.245C374.848 102.081 374.521 101.852 374.247 101.558C373.977 101.263 373.768 100.911 373.619 100.502C373.471 100.092 373.396 99.6413 373.396 99.1496C373.396 98.658 373.474 98.2074 373.628 97.7977C373.786 97.388 374.006 97.036 374.288 96.7416C374.571 96.4473 374.908 96.2182 375.299 96.0543C375.693 95.8904 376.129 95.8085 376.605 95.8085C377.07 95.8085 377.482 95.8844 377.844 96.0361C378.205 96.1878 378.519 96.3896 378.786 96.6415L378.467 97.0921C378.446 97.1255 378.419 97.1528 378.385 97.1741C378.355 97.1953 378.314 97.2059 378.262 97.2059C378.205 97.2059 378.136 97.1771 378.057 97.1195C377.982 97.0618 377.88 96.9981 377.753 96.9283C377.628 96.8554 377.473 96.7902 377.288 96.7325C377.103 96.6749 376.872 96.6461 376.596 96.6461C376.272 96.6461 375.974 96.7037 375.704 96.819C375.434 96.9313 375.2 97.0952 375.003 97.3106C374.809 97.5231 374.657 97.7856 374.548 98.0981C374.442 98.4077 374.389 98.7582 374.389 99.1496C374.389 99.5472 374.445 99.9007 374.557 100.21C374.669 100.52 374.824 100.782 375.021 100.998C375.219 101.213 375.451 101.377 375.718 101.489C375.985 101.602 376.273 101.658 376.583 101.658C376.771 101.658 376.939 101.647 377.088 101.626C377.24 101.602 377.378 101.567 377.502 101.521C377.63 101.476 377.749 101.418 377.862 101.348C377.974 101.275 378.085 101.189 378.194 101.089C378.218 101.068 378.244 101.051 378.271 101.039C378.299 101.024 378.328 101.016 378.358 101.016ZM383.911 101.63L383.907 102.418H379.856V95.8813H383.907V96.6688H380.83V98.74H383.306V99.5001H380.83V101.63H383.911Z" fill="white"/>
<path d="M326.125 123.459H323.451L323.997 124.495H326.125V123.459ZM326.216 128.66C326.186 128.379 326.163 128.102 326.148 127.829C326.133 127.556 326.125 127.298 326.125 127.055V126.054H324.828L326.216 128.66ZM321.289 124.495L320.743 123.459H318.603V124.495H321.289ZM318.524 119.283C318.554 119.548 318.573 119.81 318.58 120.068C318.596 120.318 318.603 120.553 318.603 120.773V121.9H319.912L318.524 119.283ZM328.64 123.459V124.495H330.495V125.325C330.495 125.507 330.419 125.674 330.268 125.826C330.123 125.978 329.934 126.054 329.699 126.054H328.64V132.188H326.171C325.936 132.188 325.735 132.15 325.568 132.074C325.408 131.99 325.253 131.854 325.101 131.664L322.12 126.054H318.603V132.188H316.077V126.054H314.222V124.495H316.077V123.459H314.222V122.628C314.222 122.446 314.298 122.279 314.449 122.128C314.601 121.976 314.791 121.9 315.018 121.9H316.077V115.732H318.569C318.698 115.732 318.808 115.74 318.899 115.755C318.998 115.762 319.081 115.785 319.149 115.823C319.225 115.853 319.297 115.903 319.366 115.971C319.434 116.032 319.51 116.115 319.593 116.221L322.62 121.9H326.125V115.732H328.64V121.9H330.495V123.459H328.64ZM339.539 125.985V120.603C339.539 120.094 339.573 119.533 339.641 118.918L334.532 125.985H339.539ZM344.057 125.985V127.613C344.057 127.764 344.007 127.897 343.909 128.011C343.81 128.117 343.67 128.17 343.488 128.17H341.986V132.188H339.539V128.17H332.597C332.407 128.17 332.241 128.113 332.096 128C331.952 127.878 331.861 127.73 331.823 127.556L331.527 126.133L339.323 115.721H341.986V125.985H344.057ZM345.982 134.976C345.845 134.862 345.777 134.721 345.777 134.555C345.777 134.494 345.796 134.426 345.834 134.35C345.879 134.274 345.932 134.206 345.993 134.145C346.077 134.054 346.179 133.94 346.3 133.803C346.422 133.674 346.543 133.523 346.665 133.348C346.786 133.181 346.896 132.995 346.995 132.791C347.101 132.593 347.18 132.381 347.234 132.153C346.991 132.153 346.771 132.112 346.574 132.028C346.376 131.937 346.206 131.816 346.061 131.664C345.925 131.512 345.815 131.334 345.731 131.129C345.656 130.924 345.618 130.701 345.618 130.458C345.618 130.245 345.656 130.048 345.731 129.866C345.815 129.676 345.929 129.513 346.073 129.377C346.217 129.233 346.391 129.122 346.596 129.047C346.801 128.963 347.025 128.921 347.268 128.921C347.556 128.921 347.806 128.975 348.019 129.081C348.239 129.179 348.417 129.32 348.554 129.502C348.698 129.676 348.804 129.881 348.872 130.116C348.948 130.344 348.986 130.587 348.986 130.845C348.986 131.209 348.929 131.592 348.815 131.994C348.709 132.396 348.55 132.798 348.337 133.2C348.125 133.602 347.859 133.993 347.541 134.372C347.23 134.752 346.873 135.101 346.471 135.419L345.982 134.976ZM362.605 123.96C362.605 125.394 362.45 126.642 362.138 127.704C361.835 128.758 361.41 129.631 360.864 130.321C360.325 131.012 359.684 131.527 358.941 131.869C358.205 132.203 357.408 132.37 356.551 132.37C355.694 132.37 354.897 132.203 354.161 131.869C353.433 131.527 352.799 131.012 352.261 130.321C351.722 129.631 351.301 128.758 350.997 127.704C350.694 126.642 350.542 125.394 350.542 123.96C350.542 122.518 350.694 121.27 350.997 120.216C351.301 119.161 351.722 118.289 352.261 117.598C352.799 116.908 353.433 116.396 354.161 116.062C354.897 115.721 355.694 115.55 356.551 115.55C357.408 115.55 358.205 115.721 358.941 116.062C359.684 116.396 360.325 116.908 360.864 117.598C361.41 118.289 361.835 119.161 362.138 120.216C362.45 121.27 362.605 122.518 362.605 123.96ZM359.703 123.96C359.703 122.769 359.616 121.782 359.441 121.001C359.267 120.22 359.032 119.597 358.736 119.135C358.448 118.672 358.114 118.349 357.734 118.167C357.355 117.978 356.961 117.883 356.551 117.883C356.149 117.883 355.758 117.978 355.379 118.167C355.007 118.349 354.677 118.672 354.389 119.135C354.1 119.597 353.869 120.22 353.695 121.001C353.528 121.782 353.444 122.769 353.444 123.96C353.444 125.151 353.528 126.137 353.695 126.919C353.869 127.7 354.1 128.322 354.389 128.785C354.677 129.248 355.007 129.574 355.379 129.764C355.758 129.946 356.149 130.037 356.551 130.037C356.961 130.037 357.355 129.946 357.734 129.764C358.114 129.574 358.448 129.248 358.736 128.785C359.032 128.322 359.267 127.7 359.441 126.919C359.616 126.137 359.703 125.151 359.703 123.96ZM375.808 123.96C375.808 125.394 375.652 126.642 375.341 127.704C375.038 128.758 374.613 129.631 374.066 130.321C373.528 131.012 372.887 131.527 372.143 131.869C371.407 132.203 370.611 132.37 369.753 132.37C368.896 132.37 368.1 132.203 367.364 131.869C366.635 131.527 366.002 131.012 365.463 130.321C364.925 129.631 364.503 128.758 364.2 127.704C363.897 126.642 363.745 125.394 363.745 123.96C363.745 122.518 363.897 121.27 364.2 120.216C364.503 119.161 364.925 118.289 365.463 117.598C366.002 116.908 366.635 116.396 367.364 116.062C368.1 115.721 368.896 115.55 369.753 115.55C370.611 115.55 371.407 115.721 372.143 116.062C372.887 116.396 373.528 116.908 374.066 117.598C374.613 118.289 375.038 119.161 375.341 120.216C375.652 121.27 375.808 122.518 375.808 123.96ZM372.906 123.96C372.906 122.769 372.818 121.782 372.644 121.001C372.469 120.22 372.234 119.597 371.938 119.135C371.65 118.672 371.316 118.349 370.937 118.167C370.558 117.978 370.163 117.883 369.753 117.883C369.351 117.883 368.961 117.978 368.581 118.167C368.21 118.349 367.88 118.672 367.591 119.135C367.303 119.597 367.072 120.22 366.897 121.001C366.73 121.782 366.647 122.769 366.647 123.96C366.647 125.151 366.73 126.137 366.897 126.919C367.072 127.7 367.303 128.322 367.591 128.785C367.88 129.248 368.21 129.574 368.581 129.764C368.961 129.946 369.351 130.037 369.753 130.037C370.163 130.037 370.558 129.946 370.937 129.764C371.316 129.574 371.65 129.248 371.938 128.785C372.234 128.322 372.469 127.7 372.644 126.919C372.818 126.137 372.906 125.151 372.906 123.96ZM389.01 123.96C389.01 125.394 388.855 126.642 388.544 127.704C388.24 128.758 387.815 129.631 387.269 130.321C386.73 131.012 386.089 131.527 385.346 131.869C384.61 132.203 383.813 132.37 382.956 132.37C382.099 132.37 381.302 132.203 380.566 131.869C379.838 131.527 379.204 131.012 378.666 130.321C378.127 129.631 377.706 128.758 377.403 127.704C377.099 126.642 376.947 125.394 376.947 123.96C376.947 122.518 377.099 121.27 377.403 120.216C377.706 119.161 378.127 118.289 378.666 117.598C379.204 116.908 379.838 116.396 380.566 116.062C381.302 115.721 382.099 115.55 382.956 115.55C383.813 115.55 384.61 115.721 385.346 116.062C386.089 116.396 386.73 116.908 387.269 117.598C387.815 118.289 388.24 119.161 388.544 120.216C388.855 121.27 389.01 122.518 389.01 123.96ZM386.108 123.96C386.108 122.769 386.021 121.782 385.846 121.001C385.672 120.22 385.437 119.597 385.141 119.135C384.853 118.672 384.519 118.349 384.139 118.167C383.76 117.978 383.366 117.883 382.956 117.883C382.554 117.883 382.163 117.978 381.784 118.167C381.412 118.349 381.082 118.672 380.794 119.135C380.505 119.597 380.274 120.22 380.1 121.001C379.933 121.782 379.849 122.769 379.849 123.96C379.849 125.151 379.933 126.137 380.1 126.919C380.274 127.7 380.505 128.322 380.794 128.785C381.082 129.248 381.412 129.574 381.784 129.764C382.163 129.946 382.554 130.037 382.956 130.037C383.366 130.037 383.76 129.946 384.139 129.764C384.519 129.574 384.853 129.248 385.141 128.785C385.437 128.322 385.672 127.7 385.846 126.919C386.021 126.137 386.108 125.151 386.108 123.96ZM390.56 130.64C390.56 130.405 390.601 130.181 390.685 129.968C390.776 129.756 390.897 129.574 391.049 129.422C391.201 129.27 391.383 129.149 391.595 129.058C391.808 128.967 392.035 128.921 392.278 128.921C392.521 128.921 392.745 128.967 392.949 129.058C393.162 129.149 393.344 129.27 393.496 129.422C393.655 129.574 393.78 129.756 393.871 129.968C393.962 130.181 394.008 130.405 394.008 130.64C394.008 130.883 393.962 131.11 393.871 131.323C393.78 131.527 393.655 131.706 393.496 131.857C393.344 132.009 393.162 132.127 392.949 132.21C392.745 132.301 392.521 132.347 392.278 132.347C392.035 132.347 391.808 132.301 391.595 132.21C391.383 132.127 391.201 132.009 391.049 131.857C390.897 131.706 390.776 131.527 390.685 131.323C390.601 131.11 390.56 130.883 390.56 130.64ZM407.614 123.96C407.614 125.394 407.458 126.642 407.147 127.704C406.844 128.758 406.419 129.631 405.873 130.321C405.334 131.012 404.693 131.527 403.949 131.869C403.213 132.203 402.417 132.37 401.56 132.37C400.702 132.37 399.906 132.203 399.17 131.869C398.441 131.527 397.808 131.012 397.269 130.321C396.731 129.631 396.31 128.758 396.006 127.704C395.703 126.642 395.551 125.394 395.551 123.96C395.551 122.518 395.703 121.27 396.006 120.216C396.31 119.161 396.731 118.289 397.269 117.598C397.808 116.908 398.441 116.396 399.17 116.062C399.906 115.721 400.702 115.55 401.56 115.55C402.417 115.55 403.213 115.721 403.949 116.062C404.693 116.396 405.334 116.908 405.873 117.598C406.419 118.289 406.844 119.161 407.147 120.216C407.458 121.27 407.614 122.518 407.614 123.96ZM404.712 123.96C404.712 122.769 404.625 121.782 404.45 121.001C404.276 120.22 404.04 119.597 403.744 119.135C403.456 118.672 403.122 118.349 402.743 118.167C402.364 117.978 401.969 117.883 401.56 117.883C401.157 117.883 400.767 117.978 400.387 118.167C400.016 118.349 399.686 118.672 399.397 119.135C399.109 119.597 398.878 120.22 398.703 121.001C398.536 121.782 398.453 122.769 398.453 123.96C398.453 125.151 398.536 126.137 398.703 126.919C398.878 127.7 399.109 128.322 399.397 128.785C399.686 129.248 400.016 129.574 400.387 129.764C400.767 129.946 401.157 130.037 401.56 130.037C401.969 130.037 402.364 129.946 402.743 129.764C403.122 129.574 403.456 129.248 403.744 128.785C404.04 128.322 404.276 127.7 404.45 126.919C404.625 126.137 404.712 125.151 404.712 123.96ZM420.816 123.96C420.816 125.394 420.661 126.642 420.35 127.704C420.046 128.758 419.621 129.631 419.075 130.321C418.536 131.012 417.895 131.527 417.152 131.869C416.416 132.203 415.619 132.37 414.762 132.37C413.905 132.37 413.108 132.203 412.372 131.869C411.644 131.527 411.01 131.012 410.472 130.321C409.933 129.631 409.512 128.758 409.209 127.704C408.905 126.642 408.753 125.394 408.753 123.96C408.753 122.518 408.905 121.27 409.209 120.216C409.512 119.161 409.933 118.289 410.472 117.598C411.01 116.908 411.644 116.396 412.372 116.062C413.108 115.721 413.905 115.55 414.762 115.55C415.619 115.55 416.416 115.721 417.152 116.062C417.895 116.396 418.536 116.908 419.075 117.598C419.621 118.289 420.046 119.161 420.35 120.216C420.661 121.27 420.816 122.518 420.816 123.96ZM417.914 123.96C417.914 122.769 417.827 121.782 417.653 121.001C417.478 120.22 417.243 119.597 416.947 119.135C416.659 118.672 416.325 118.349 415.946 118.167C415.566 117.978 415.172 117.883 414.762 117.883C414.36 117.883 413.969 117.978 413.59 118.167C413.218 118.349 412.888 118.672 412.6 119.135C412.312 119.597 412.08 120.22 411.906 121.001C411.739 121.782 411.655 122.769 411.655 123.96C411.655 125.151 411.739 126.137 411.906 126.919C412.08 127.7 412.312 128.322 412.6 128.785C412.888 129.248 413.218 129.574 413.59 129.764C413.969 129.946 414.36 130.037 414.762 130.037C415.172 130.037 415.566 129.946 415.946 129.764C416.325 129.574 416.659 129.248 416.947 128.785C417.243 128.322 417.478 127.7 417.653 126.919C417.827 126.137 417.914 125.151 417.914 123.96Z" fill="white"/>
<rect x="751.406" y="101.383" width="84.2117" height="27.3119" rx="4.55198" fill="#64A2FF"/>
<path d="M772.712 110.868V119.039H771.654V113.224C771.654 113.137 771.656 113.044 771.66 112.945C771.667 112.846 771.675 112.746 771.682 112.644L768.963 117.634C768.868 117.82 768.722 117.912 768.524 117.912H768.354C768.157 117.912 768.012 117.82 767.921 117.634L765.15 112.626C765.173 112.839 765.184 113.038 765.184 113.224V119.039H764.12V110.868H765.019C765.126 110.868 765.207 110.88 765.264 110.902C765.325 110.921 765.382 110.978 765.435 111.073L768.166 115.966C768.219 116.065 768.268 116.169 768.314 116.279C768.359 116.389 768.403 116.499 768.445 116.609C768.524 116.386 768.617 116.169 768.724 115.961L771.404 111.073C771.453 110.978 771.506 110.921 771.563 110.902C771.624 110.88 771.707 110.868 771.813 110.868H772.712ZM777.361 113.167C777.786 113.167 778.169 113.237 778.51 113.378C778.855 113.514 779.148 113.713 779.387 113.975C779.629 114.233 779.815 114.546 779.944 114.914C780.073 115.278 780.138 115.688 780.138 116.143C780.138 116.598 780.073 117.01 779.944 117.378C779.815 117.746 779.629 118.058 779.387 118.316C779.148 118.574 778.855 118.774 778.51 118.914C778.169 119.05 777.786 119.119 777.361 119.119C776.932 119.119 776.545 119.05 776.2 118.914C775.859 118.774 775.567 118.574 775.324 118.316C775.081 118.058 774.893 117.746 774.761 117.378C774.632 117.01 774.567 116.598 774.567 116.143C774.567 115.688 774.632 115.278 774.761 114.914C774.893 114.546 775.081 114.233 775.324 113.975C775.567 113.713 775.859 113.514 776.2 113.378C776.545 113.237 776.932 113.167 777.361 113.167ZM777.361 118.254C777.907 118.254 778.315 118.07 778.584 117.702C778.854 117.334 778.988 116.816 778.988 116.149C778.988 115.481 778.854 114.963 778.584 114.595C778.315 114.223 777.907 114.038 777.361 114.038C776.807 114.038 776.394 114.223 776.12 114.595C775.851 114.963 775.717 115.481 775.717 116.149C775.717 116.816 775.851 117.334 776.12 117.702C776.394 118.07 776.807 118.254 777.361 118.254ZM782.986 114.06C783.112 113.928 783.242 113.806 783.379 113.696C783.516 113.586 783.66 113.493 783.811 113.417C783.967 113.338 784.132 113.277 784.307 113.235C784.485 113.19 784.674 113.167 784.876 113.167C785.194 113.167 785.473 113.22 785.712 113.326C785.955 113.433 786.158 113.582 786.321 113.776C786.484 113.965 786.607 114.195 786.691 114.464C786.774 114.734 786.816 115.031 786.816 115.358V119.039H785.701V115.358C785.701 114.944 785.606 114.624 785.416 114.396C785.226 114.165 784.936 114.049 784.545 114.049C784.261 114.049 783.994 114.117 783.743 114.254C783.497 114.387 783.267 114.569 783.055 114.8V119.039H781.945V113.258H782.611C782.766 113.258 782.863 113.332 782.901 113.48L782.986 114.06ZM790.614 119.13C790.147 119.13 789.787 118.999 789.533 118.737C789.282 118.476 789.157 118.102 789.157 117.617V114.157H788.486C788.421 114.157 788.366 114.138 788.321 114.1C788.279 114.058 788.258 113.998 788.258 113.918V113.469L789.197 113.338L789.447 111.614C789.462 111.549 789.491 111.5 789.533 111.466C789.578 111.428 789.635 111.409 789.703 111.409H790.267V113.349H791.905V114.157H790.267V117.543C790.267 117.77 790.322 117.941 790.432 118.055C790.545 118.165 790.69 118.22 790.864 118.22C790.966 118.22 791.054 118.206 791.126 118.18C791.202 118.153 791.266 118.125 791.319 118.095C791.372 118.06 791.418 118.03 791.456 118.003C791.494 117.977 791.528 117.964 791.558 117.964C791.596 117.964 791.625 117.973 791.644 117.992C791.666 118.007 791.689 118.034 791.712 118.072L792.042 118.607C791.86 118.774 791.644 118.903 791.393 118.994C791.143 119.085 790.883 119.13 790.614 119.13ZM794.606 113.992C794.849 113.745 795.116 113.546 795.408 113.395C795.704 113.243 796.043 113.167 796.427 113.167C796.745 113.167 797.024 113.22 797.263 113.326C797.506 113.433 797.709 113.582 797.872 113.776C798.035 113.965 798.158 114.195 798.242 114.464C798.325 114.734 798.367 115.031 798.367 115.358V119.039H797.252V115.358C797.252 114.944 797.157 114.624 796.967 114.396C796.777 114.165 796.487 114.049 796.097 114.049C795.812 114.049 795.545 114.117 795.294 114.254C795.048 114.387 794.818 114.569 794.606 114.8V119.039H793.496V110.641H794.606V113.992ZM801.571 110.641V119.039H800.456V110.641H801.571ZM808.778 113.258L805.568 120.718C805.534 120.801 805.489 120.866 805.432 120.911C805.375 120.957 805.292 120.979 805.182 120.979H804.356L805.415 118.675L803.042 113.258H804.009C804.104 113.258 804.178 113.281 804.231 113.326C804.284 113.372 804.322 113.423 804.345 113.48L805.813 116.951C805.843 117.038 805.872 117.127 805.898 117.218C805.929 117.306 805.953 117.393 805.972 117.48C805.999 117.389 806.027 117.3 806.058 117.213C806.088 117.122 806.12 117.032 806.155 116.945L807.571 113.48C807.598 113.415 807.64 113.362 807.697 113.321C807.753 113.279 807.818 113.258 807.89 113.258H808.778Z" fill="white"/>
<path d="M819.927 117.543C819.562 117.543 819.197 117.402 818.92 117.126L815.52 113.725C815.368 113.574 815.368 113.323 815.52 113.172C815.671 113.021 815.921 113.021 816.073 113.172L819.473 116.573C819.724 116.823 820.13 116.823 820.381 116.573L823.782 113.172C823.933 113.021 824.183 113.021 824.334 113.172C824.486 113.323 824.486 113.574 824.334 113.725L820.934 117.126C820.657 117.402 820.292 117.543 819.927 117.543Z" fill="white"/>
<path d="M313.277 289.151H328.105C336.274 289.151 344.015 285.494 349.202 279.183L385.869 234.583C396.003 222.256 414.925 222.414 424.851 234.909V234.909C433.51 245.809 449.392 247.563 460.221 238.816L478.099 224.376C488.047 216.341 502.237 216.284 512.25 224.239L537.797 244.536C545.67 250.79 556.342 252.213 565.579 248.24L577.74 243.009C589.496 237.952 603.188 241.737 610.678 252.114L619.12 263.811C628.799 277.22 648.08 279.019 660.072 267.632L670.299 257.921C679.311 249.364 692.963 247.969 703.519 254.528L735.487 274.39C748.515 282.485 765.653 278.267 773.436 265.05L782.371 249.875C791.399 234.544 812.441 231.799 825.099 244.302L835.618 254.691" stroke="#FFA000" stroke-width="2.27599"/>
<g filter="url(#filter0_d_3905_30858)">
<rect x="477.148" y="189.008" width="62.5898" height="20.4839" rx="2.27599" fill="#FFA000"/>
<path d="M491.4 201.68C491.721 201.638 491.964 201.53 492.128 201.357C492.295 201.181 492.378 200.952 492.378 200.67C492.378 200.554 492.357 200.454 492.315 200.369C492.275 200.281 492.217 200.204 492.142 200.137C492.069 200.07 491.982 200.013 491.882 199.964C491.782 199.915 491.673 199.87 491.554 199.827L491.4 201.68ZM491.108 196.869C490.938 196.89 490.794 196.926 490.676 196.978C490.558 197.026 490.46 197.087 490.385 197.16C490.309 197.233 490.253 197.315 490.216 197.406C490.183 197.497 490.166 197.592 490.166 197.693C490.166 197.808 490.186 197.909 490.225 197.998C490.268 198.082 490.324 198.16 490.394 198.23C490.466 198.296 490.551 198.357 490.649 198.412C490.746 198.463 490.852 198.512 490.967 198.557L491.108 196.869ZM491.641 198.776C491.859 198.843 492.076 198.917 492.292 198.999C492.507 199.078 492.7 199.181 492.87 199.308C493.043 199.436 493.183 199.595 493.289 199.786C493.395 199.975 493.448 200.211 493.448 200.497C493.448 200.779 493.401 201.044 493.307 201.293C493.213 201.539 493.075 201.757 492.893 201.949C492.711 202.137 492.488 202.292 492.224 202.413C491.96 202.531 491.658 202.601 491.318 202.622L491.263 203.291C491.26 203.361 491.23 203.425 491.172 203.483C491.117 203.543 491.048 203.574 490.963 203.574H490.548L490.63 202.6C490.275 202.551 489.941 202.454 489.629 202.308C489.316 202.163 489.051 201.982 488.832 201.767L489.178 201.252C489.209 201.207 489.248 201.17 489.297 201.143C489.348 201.113 489.403 201.097 489.461 201.097C489.527 201.097 489.599 201.122 489.674 201.17C489.75 201.216 489.837 201.27 489.934 201.334C490.031 201.395 490.142 201.457 490.266 201.521C490.391 201.584 490.538 201.632 490.708 201.662L490.876 199.627C490.661 199.566 490.447 199.495 490.234 199.413C490.025 199.331 489.835 199.224 489.665 199.09C489.498 198.953 489.363 198.782 489.26 198.576C489.157 198.369 489.105 198.111 489.105 197.802C489.105 197.571 489.151 197.347 489.242 197.128C489.333 196.907 489.467 196.709 489.643 196.536C489.822 196.363 490.04 196.221 490.298 196.108C490.556 195.996 490.852 195.932 491.186 195.917L491.236 195.344C491.242 195.271 491.272 195.206 491.327 195.148C491.381 195.09 491.453 195.061 491.541 195.061H491.955L491.882 195.954C492.204 196.005 492.482 196.098 492.715 196.231C492.949 196.362 493.151 196.509 493.321 196.673L493.047 197.087C493.008 197.148 492.967 197.193 492.925 197.224C492.882 197.254 492.83 197.269 492.77 197.269C492.724 197.269 492.67 197.256 492.606 197.228C492.542 197.198 492.471 197.163 492.392 197.124C492.313 197.081 492.224 197.039 492.123 196.996C492.026 196.954 491.919 196.919 491.8 196.891L491.641 198.776ZM498.779 195.976V196.463C498.779 196.609 498.764 196.728 498.734 196.819C498.703 196.907 498.673 196.981 498.643 197.042L496.148 202.176C496.096 202.282 496.024 202.373 495.93 202.449C495.836 202.522 495.71 202.559 495.552 202.559H494.737L497.282 197.529C497.339 197.425 497.395 197.331 497.45 197.246C497.508 197.158 497.571 197.075 497.641 196.996H494.491C494.421 196.996 494.361 196.97 494.309 196.919C494.257 196.867 494.232 196.806 494.232 196.737V195.976H498.779ZM504.142 199.268C504.142 199.841 504.08 200.34 503.955 200.765C503.834 201.187 503.664 201.536 503.446 201.812C503.23 202.088 502.974 202.295 502.676 202.431C502.382 202.565 502.063 202.631 501.72 202.631C501.378 202.631 501.059 202.565 500.765 202.431C500.473 202.295 500.22 202.088 500.004 201.812C499.789 201.536 499.62 201.187 499.499 200.765C499.378 200.34 499.317 199.841 499.317 199.268C499.317 198.691 499.378 198.192 499.499 197.77C499.62 197.348 499.789 196.999 500.004 196.723C500.22 196.447 500.473 196.242 500.765 196.108C501.059 195.972 501.378 195.904 501.72 195.904C502.063 195.904 502.382 195.972 502.676 196.108C502.974 196.242 503.23 196.447 503.446 196.723C503.664 196.999 503.834 197.348 503.955 197.77C504.08 198.192 504.142 198.691 504.142 199.268ZM502.981 199.268C502.981 198.791 502.946 198.397 502.877 198.084C502.807 197.771 502.713 197.523 502.594 197.337C502.479 197.152 502.346 197.023 502.194 196.951C502.042 196.875 501.884 196.837 501.72 196.837C501.56 196.837 501.403 196.875 501.252 196.951C501.103 197.023 500.971 197.152 500.856 197.337C500.74 197.523 500.648 197.771 500.578 198.084C500.511 198.397 500.478 198.791 500.478 199.268C500.478 199.744 500.511 200.138 500.578 200.451C500.648 200.764 500.74 201.012 500.856 201.198C500.971 201.383 501.103 201.513 501.252 201.589C501.403 201.662 501.56 201.698 501.72 201.698C501.884 201.698 502.042 201.662 502.194 201.589C502.346 201.513 502.479 201.383 502.594 201.198C502.713 201.012 502.807 200.764 502.877 200.451C502.946 200.138 502.981 199.744 502.981 199.268ZM509.423 199.268C509.423 199.841 509.361 200.34 509.236 200.765C509.115 201.187 508.945 201.536 508.727 201.812C508.511 202.088 508.255 202.295 507.957 202.431C507.663 202.565 507.344 202.631 507.001 202.631C506.659 202.631 506.34 202.565 506.046 202.431C505.754 202.295 505.501 202.088 505.285 201.812C505.07 201.536 504.901 201.187 504.78 200.765C504.659 200.34 504.598 199.841 504.598 199.268C504.598 198.691 504.659 198.192 504.78 197.77C504.901 197.348 505.07 196.999 505.285 196.723C505.501 196.447 505.754 196.242 506.046 196.108C506.34 195.972 506.659 195.904 507.001 195.904C507.344 195.904 507.663 195.972 507.957 196.108C508.255 196.242 508.511 196.447 508.727 196.723C508.945 196.999 509.115 197.348 509.236 197.77C509.361 198.192 509.423 198.691 509.423 199.268ZM508.262 199.268C508.262 198.791 508.227 198.397 508.158 198.084C508.088 197.771 507.994 197.523 507.875 197.337C507.76 197.152 507.627 197.023 507.475 196.951C507.323 196.875 507.165 196.837 507.001 196.837C506.841 196.837 506.684 196.875 506.533 196.951C506.384 197.023 506.252 197.152 506.137 197.337C506.021 197.523 505.929 197.771 505.859 198.084C505.792 198.397 505.759 198.791 505.759 199.268C505.759 199.744 505.792 200.138 505.859 200.451C505.929 200.764 506.021 201.012 506.137 201.198C506.252 201.383 506.384 201.513 506.533 201.589C506.684 201.662 506.841 201.698 507.001 201.698C507.165 201.698 507.323 201.662 507.475 201.589C507.627 201.513 507.76 201.383 507.875 201.198C507.994 201.012 508.088 200.764 508.158 200.451C508.227 200.138 508.262 199.744 508.262 199.268ZM510.043 201.94C510.043 201.845 510.06 201.756 510.093 201.671C510.129 201.586 510.178 201.513 510.239 201.452C510.299 201.392 510.372 201.343 510.457 201.307C510.542 201.27 510.633 201.252 510.73 201.252C510.827 201.252 510.917 201.27 510.999 201.307C511.084 201.343 511.157 201.392 511.217 201.452C511.281 201.513 511.331 201.586 511.367 201.671C511.404 201.756 511.422 201.845 511.422 201.94C511.422 202.037 511.404 202.128 511.367 202.213C511.331 202.295 511.281 202.366 511.217 202.427C511.157 202.487 511.084 202.534 510.999 202.568C510.917 202.604 510.827 202.622 510.73 202.622C510.633 202.622 510.542 202.604 510.457 202.568C510.372 202.534 510.299 202.487 510.239 202.427C510.178 202.366 510.129 202.295 510.093 202.213C510.06 202.128 510.043 202.037 510.043 201.94ZM514.452 201.753C514.637 201.753 514.799 201.727 514.939 201.676C515.079 201.621 515.195 201.547 515.29 201.452C515.387 201.358 515.459 201.246 515.508 201.116C515.557 200.985 515.581 200.844 515.581 200.692C515.581 200.331 515.481 200.058 515.28 199.873C515.08 199.688 514.804 199.595 514.452 199.595C514.1 199.595 513.824 199.688 513.624 199.873C513.423 200.058 513.323 200.331 513.323 200.692C513.323 200.844 513.347 200.985 513.396 201.116C513.444 201.246 513.516 201.358 513.61 201.452C513.707 201.547 513.825 201.621 513.965 201.676C514.104 201.727 514.267 201.753 514.452 201.753ZM514.452 196.75C514.285 196.75 514.141 196.776 514.02 196.828C513.898 196.879 513.796 196.949 513.715 197.037C513.636 197.122 513.576 197.221 513.537 197.333C513.501 197.445 513.482 197.564 513.482 197.688C513.482 197.818 513.498 197.946 513.528 198.07C513.561 198.192 513.616 198.301 513.692 198.398C513.768 198.492 513.868 198.568 513.992 198.626C514.117 198.683 514.27 198.712 514.452 198.712C514.634 198.712 514.787 198.683 514.912 198.626C515.036 198.568 515.136 198.492 515.212 198.398C515.288 198.301 515.341 198.192 515.371 198.07C515.405 197.946 515.422 197.818 515.422 197.688C515.422 197.564 515.402 197.445 515.362 197.333C515.323 197.221 515.264 197.122 515.185 197.037C515.106 196.949 515.006 196.879 514.884 196.828C514.763 196.776 514.619 196.75 514.452 196.75ZM515.563 199.126C515.963 199.257 516.259 199.457 516.45 199.727C516.641 199.994 516.737 200.322 516.737 200.71C516.737 201.002 516.681 201.266 516.569 201.503C516.459 201.739 516.305 201.941 516.104 202.108C515.904 202.275 515.663 202.404 515.381 202.495C515.101 202.586 514.792 202.631 514.452 202.631C514.112 202.631 513.801 202.586 513.519 202.495C513.24 202.404 513 202.275 512.8 202.108C512.599 201.941 512.443 201.739 512.331 201.503C512.221 201.266 512.167 201.002 512.167 200.71C512.167 200.322 512.262 199.994 512.454 199.727C512.645 199.457 512.941 199.257 513.341 199.126C513.023 198.993 512.783 198.803 512.622 198.557C512.464 198.312 512.385 198.016 512.385 197.67C512.385 197.421 512.435 197.189 512.536 196.973C512.639 196.758 512.781 196.571 512.963 196.413C513.146 196.253 513.363 196.128 513.614 196.04C513.869 195.949 514.148 195.904 514.452 195.904C514.755 195.904 515.033 195.949 515.285 196.04C515.54 196.128 515.758 196.253 515.94 196.413C516.123 196.571 516.264 196.758 516.364 196.973C516.467 197.189 516.519 197.421 516.519 197.67C516.519 198.016 516.438 198.312 516.277 198.557C516.12 198.803 515.881 198.993 515.563 199.126ZM522.064 195.976V196.463C522.064 196.609 522.048 196.728 522.018 196.819C521.988 196.907 521.957 196.981 521.927 197.042L519.433 202.176C519.381 202.282 519.308 202.373 519.214 202.449C519.12 202.522 518.994 202.559 518.836 202.559H518.021L520.566 197.529C520.624 197.425 520.68 197.331 520.734 197.246C520.792 197.158 520.856 197.075 520.926 196.996H517.776C517.706 196.996 517.645 196.97 517.594 196.919C517.542 196.867 517.516 196.806 517.516 196.737V195.976H522.064ZM524.75 198.366L524.522 198.648C524.65 198.585 524.786 198.536 524.932 198.503C525.081 198.466 525.24 198.448 525.41 198.448C525.659 198.448 525.9 198.489 526.134 198.571C526.37 198.653 526.578 198.777 526.757 198.944C526.936 199.108 527.081 199.313 527.19 199.559C527.299 199.805 527.354 200.091 527.354 200.419C527.354 200.726 527.298 201.014 527.185 201.284C527.073 201.551 526.915 201.785 526.712 201.985C526.509 202.185 526.263 202.343 525.974 202.458C525.689 202.574 525.374 202.631 525.028 202.631C524.676 202.631 524.36 202.575 524.081 202.463C523.802 202.351 523.563 202.194 523.366 201.994C523.169 201.791 523.017 201.548 522.911 201.266C522.808 200.981 522.756 200.665 522.756 200.319C522.756 200.009 522.818 199.692 522.943 199.368C523.07 199.04 523.266 198.7 523.53 198.348L525.1 196.24C525.155 196.168 525.234 196.105 525.337 196.054C525.443 196.002 525.565 195.976 525.701 195.976H526.703L524.75 198.366ZM525.005 201.712C525.184 201.712 525.348 201.682 525.497 201.621C525.648 201.56 525.777 201.475 525.883 201.366C525.993 201.257 526.078 201.129 526.138 200.984C526.199 200.835 526.229 200.674 526.229 200.501C526.229 200.313 526.201 200.145 526.143 199.996C526.085 199.844 526.003 199.717 525.897 199.613C525.791 199.507 525.663 199.427 525.515 199.372C525.366 199.318 525.202 199.29 525.023 199.29C524.844 199.29 524.682 199.321 524.536 199.381C524.39 199.442 524.266 199.527 524.163 199.636C524.06 199.742 523.979 199.87 523.922 200.019C523.864 200.164 523.835 200.322 523.835 200.492C523.835 200.674 523.859 200.841 523.908 200.993C523.959 201.141 524.034 201.269 524.131 201.375C524.231 201.481 524.354 201.565 524.5 201.625C524.645 201.683 524.814 201.712 525.005 201.712Z" fill="white"/>
</g>
<circle cx="505.598" cy="219.734" r="5.68998" fill="#FFA000" stroke="#F4DEB9" stroke-width="2.27599"/>
<g opacity="0.3" filter="url(#filter1_f_3905_30858)">
<ellipse cx="826" cy="144.5" rx="173" ry="44.5" fill="#FFA000"/>
</g>
<g opacity="0.5" filter="url(#filter2_f_3905_30858)">
<ellipse cx="302.5" cy="262.5" rx="152.5" ry="44.5" fill="#FFA000"/>
</g>
<rect x="649" y="21" width="326" height="122" rx="8" fill="white"/>
<path d="M678.76 72.65H676.44V79H675.475V72.65H673.15V71.835H678.76V72.65ZM680.528 73.855C680.898 73.855 681.231 73.9167 681.528 74.04C681.824 74.1633 682.078 74.3383 682.288 74.565C682.498 74.7917 682.658 75.0667 682.768 75.39C682.881 75.71 682.938 76.0683 682.938 76.465C682.938 76.865 682.881 77.225 682.768 77.545C682.658 77.865 682.498 78.1383 682.288 78.365C682.078 78.5917 681.824 78.7667 681.528 78.89C681.231 79.01 680.898 79.07 680.528 79.07C680.154 79.07 679.818 79.01 679.518 78.89C679.221 78.7667 678.968 78.5917 678.758 78.365C678.548 78.1383 678.386 77.865 678.273 77.545C678.163 77.225 678.108 76.865 678.108 76.465C678.108 76.0683 678.163 75.71 678.273 75.39C678.386 75.0667 678.548 74.7917 678.758 74.565C678.968 74.3383 679.221 74.1633 679.518 74.04C679.818 73.9167 680.154 73.855 680.528 73.855ZM680.528 78.375C681.028 78.375 681.401 78.2083 681.648 77.875C681.894 77.5383 682.018 77.07 682.018 76.47C682.018 75.8667 681.894 75.3967 681.648 75.06C681.401 74.7233 681.028 74.555 680.528 74.555C680.274 74.555 680.053 74.5983 679.863 74.685C679.676 74.7717 679.519 74.8967 679.393 75.06C679.269 75.2233 679.176 75.425 679.113 75.665C679.053 75.9017 679.023 76.17 679.023 76.47C679.023 77.07 679.146 77.5383 679.393 77.875C679.643 78.2083 680.021 78.375 680.528 78.375ZM685.533 79.08C685.133 79.08 684.825 78.9683 684.608 78.745C684.395 78.5217 684.288 78.2 684.288 77.78V74.68H683.678C683.625 74.68 683.58 74.665 683.543 74.635C683.507 74.6017 683.488 74.5517 683.488 74.485V74.13L684.318 74.025L684.523 72.46C684.533 72.41 684.555 72.37 684.588 72.34C684.625 72.3067 684.672 72.29 684.728 72.29H685.178V74.035H686.643V74.68H685.178V77.72C685.178 77.9333 685.23 78.0917 685.333 78.195C685.437 78.2983 685.57 78.35 685.733 78.35C685.827 78.35 685.907 78.3383 685.973 78.315C686.043 78.2883 686.103 78.26 686.153 78.23C686.203 78.2 686.245 78.1733 686.278 78.15C686.315 78.1233 686.347 78.11 686.373 78.11C686.42 78.11 686.462 78.1383 686.498 78.195L686.758 78.62C686.605 78.7633 686.42 78.8767 686.203 78.96C685.987 79.04 685.763 79.08 685.533 79.08ZM690.307 76.72C689.897 76.7333 689.547 76.7667 689.257 76.82C688.971 76.87 688.736 76.9367 688.552 77.02C688.372 77.1033 688.241 77.2017 688.157 77.315C688.077 77.4283 688.037 77.555 688.037 77.695C688.037 77.8283 688.059 77.9433 688.102 78.04C688.146 78.1367 688.204 78.2167 688.277 78.28C688.354 78.34 688.442 78.385 688.542 78.415C688.646 78.4417 688.756 78.455 688.872 78.455C689.029 78.455 689.172 78.44 689.302 78.41C689.432 78.3767 689.554 78.33 689.667 78.27C689.784 78.21 689.894 78.1383 689.997 78.055C690.104 77.9717 690.207 77.8767 690.307 77.77V76.72ZM687.432 74.65C687.712 74.38 688.014 74.1783 688.337 74.045C688.661 73.9117 689.019 73.845 689.412 73.845C689.696 73.845 689.947 73.8917 690.167 73.985C690.387 74.0783 690.572 74.2083 690.722 74.375C690.872 74.5417 690.986 74.7433 691.062 74.98C691.139 75.2167 691.177 75.4767 691.177 75.76V79H690.782C690.696 79 690.629 78.9867 690.582 78.96C690.536 78.93 690.499 78.8733 690.472 78.79L690.372 78.31C690.239 78.4333 690.109 78.5433 689.982 78.64C689.856 78.7333 689.722 78.8133 689.582 78.88C689.442 78.9433 689.292 78.9917 689.132 79.025C688.976 79.0617 688.801 79.08 688.607 79.08C688.411 79.08 688.226 79.0533 688.052 79C687.879 78.9433 687.727 78.86 687.597 78.75C687.471 78.64 687.369 78.5017 687.292 78.335C687.219 78.165 687.182 77.965 687.182 77.735C687.182 77.535 687.237 77.3433 687.347 77.16C687.457 76.9733 687.636 76.8083 687.882 76.665C688.129 76.5217 688.451 76.405 688.847 76.315C689.244 76.2217 689.731 76.1683 690.307 76.155V75.76C690.307 75.3667 690.222 75.07 690.052 74.87C689.882 74.6667 689.634 74.565 689.307 74.565C689.087 74.565 688.902 74.5933 688.752 74.65C688.606 74.7033 688.477 74.765 688.367 74.835C688.261 74.9017 688.167 74.9633 688.087 75.02C688.011 75.0733 687.934 75.1 687.857 75.1C687.797 75.1 687.746 75.085 687.702 75.055C687.659 75.0217 687.622 74.9817 687.592 74.935L687.432 74.65ZM693.453 71.635V79H692.563V71.635H693.453ZM700.845 75.915C700.845 75.7083 700.815 75.52 700.755 75.35C700.698 75.1767 700.613 75.0283 700.5 74.905C700.39 74.7783 700.255 74.6817 700.095 74.615C699.935 74.545 699.753 74.51 699.55 74.51C699.123 74.51 698.785 74.635 698.535 74.885C698.288 75.1317 698.135 75.475 698.075 75.915H700.845ZM701.565 78.29C701.455 78.4233 701.323 78.54 701.17 78.64C701.017 78.7367 700.852 78.8167 700.675 78.88C700.502 78.9433 700.322 78.99 700.135 79.02C699.948 79.0533 699.763 79.07 699.58 79.07C699.23 79.07 698.907 79.0117 698.61 78.895C698.317 78.775 698.062 78.6017 697.845 78.375C697.632 78.145 697.465 77.8617 697.345 77.525C697.225 77.1883 697.165 76.8017 697.165 76.365C697.165 76.0117 697.218 75.6817 697.325 75.375C697.435 75.0683 697.592 74.8033 697.795 74.58C697.998 74.3533 698.247 74.1767 698.54 74.05C698.833 73.92 699.163 73.855 699.53 73.855C699.833 73.855 700.113 73.9067 700.37 74.01C700.63 74.11 700.853 74.2567 701.04 74.45C701.23 74.64 701.378 74.8767 701.485 75.16C701.592 75.44 701.645 75.76 701.645 76.12C701.645 76.26 701.63 76.3533 701.6 76.4C701.57 76.4467 701.513 76.47 701.43 76.47H698.045C698.055 76.79 698.098 77.0683 698.175 77.305C698.255 77.5417 698.365 77.74 698.505 77.9C698.645 78.0567 698.812 78.175 699.005 78.255C699.198 78.3317 699.415 78.37 699.655 78.37C699.878 78.37 700.07 78.345 700.23 78.295C700.393 78.2417 700.533 78.185 700.65 78.125C700.767 78.065 700.863 78.01 700.94 77.96C701.02 77.9067 701.088 77.88 701.145 77.88C701.218 77.88 701.275 77.9083 701.315 77.965L701.565 78.29ZM706.83 79H705.975C705.902 79 705.843 78.9817 705.8 78.945C705.76 78.905 705.727 78.8617 705.7 78.815L704.425 76.83C704.412 76.8767 704.397 76.9233 704.38 76.97C704.367 77.0133 704.347 77.0533 704.32 77.09L703.14 78.815C703.107 78.8617 703.07 78.905 703.03 78.945C702.993 78.9817 702.942 79 702.875 79H702.08L703.855 76.4L702.15 73.935H703.005C703.078 73.935 703.132 73.9467 703.165 73.97C703.198 73.9933 703.228 74.0267 703.255 74.07L704.5 75.97C704.527 75.8733 704.568 75.78 704.625 75.69L705.715 74.09C705.745 74.0433 705.777 74.0067 705.81 73.98C705.847 73.95 705.89 73.935 705.94 73.935H706.76L705.055 76.355L706.83 79ZM708.545 77.78C708.709 78 708.887 78.155 709.08 78.245C709.274 78.335 709.49 78.38 709.73 78.38C710.204 78.38 710.567 78.2117 710.82 77.875C711.074 77.5383 711.2 77.0583 711.2 76.435C711.2 76.105 711.17 75.8217 711.11 75.585C711.054 75.3483 710.97 75.155 710.86 75.005C710.75 74.8517 710.615 74.74 710.455 74.67C710.295 74.6 710.114 74.565 709.91 74.565C709.62 74.565 709.365 74.6317 709.145 74.765C708.929 74.8983 708.729 75.0867 708.545 75.33V77.78ZM708.5 74.72C708.714 74.4567 708.96 74.245 709.24 74.085C709.52 73.925 709.84 73.845 710.2 73.845C710.494 73.845 710.759 73.9017 710.995 74.015C711.232 74.125 711.434 74.29 711.6 74.51C711.767 74.7267 711.895 74.9967 711.985 75.32C712.075 75.6433 712.12 76.015 712.12 76.435C712.12 76.8083 712.07 77.1567 711.97 77.48C711.87 77.8 711.725 78.0783 711.535 78.315C711.349 78.5483 711.119 78.7333 710.845 78.87C710.575 79.0033 710.27 79.07 709.93 79.07C709.62 79.07 709.354 79.0183 709.13 78.915C708.91 78.8083 708.715 78.6617 708.545 78.475V80.715H707.65V73.935H708.185C708.312 73.935 708.39 73.9967 708.42 74.12L708.5 74.72ZM716.646 75.915C716.646 75.7083 716.616 75.52 716.556 75.35C716.499 75.1767 716.414 75.0283 716.301 74.905C716.191 74.7783 716.056 74.6817 715.896 74.615C715.736 74.545 715.554 74.51 715.351 74.51C714.924 74.51 714.586 74.635 714.336 74.885C714.089 75.1317 713.936 75.475 713.876 75.915H716.646ZM717.366 78.29C717.256 78.4233 717.124 78.54 716.971 78.64C716.817 78.7367 716.652 78.8167 716.476 78.88C716.302 78.9433 716.122 78.99 715.936 79.02C715.749 79.0533 715.564 79.07 715.381 79.07C715.031 79.07 714.707 79.0117 714.411 78.895C714.117 78.775 713.862 78.6017 713.646 78.375C713.432 78.145 713.266 77.8617 713.146 77.525C713.026 77.1883 712.966 76.8017 712.966 76.365C712.966 76.0117 713.019 75.6817 713.126 75.375C713.236 75.0683 713.392 74.8033 713.596 74.58C713.799 74.3533 714.047 74.1767 714.341 74.05C714.634 73.92 714.964 73.855 715.331 73.855C715.634 73.855 715.914 73.9067 716.171 74.01C716.431 74.11 716.654 74.2567 716.841 74.45C717.031 74.64 717.179 74.8767 717.286 75.16C717.392 75.44 717.446 75.76 717.446 76.12C717.446 76.26 717.431 76.3533 717.401 76.4C717.371 76.4467 717.314 76.47 717.231 76.47H713.846C713.856 76.79 713.899 77.0683 713.976 77.305C714.056 77.5417 714.166 77.74 714.306 77.9C714.446 78.0567 714.612 78.175 714.806 78.255C714.999 78.3317 715.216 78.37 715.456 78.37C715.679 78.37 715.871 78.345 716.031 78.295C716.194 78.2417 716.334 78.185 716.451 78.125C716.567 78.065 716.664 78.01 716.741 77.96C716.821 77.9067 716.889 77.88 716.946 77.88C717.019 77.88 717.076 77.9083 717.116 77.965L717.366 78.29ZM719.379 74.67C719.489 74.5467 719.606 74.435 719.729 74.335C719.852 74.235 719.982 74.15 720.119 74.08C720.259 74.0067 720.406 73.9517 720.559 73.915C720.716 73.875 720.884 73.855 721.064 73.855C721.341 73.855 721.584 73.9017 721.794 73.995C722.007 74.085 722.184 74.215 722.324 74.385C722.467 74.5517 722.576 74.7533 722.649 74.99C722.722 75.2267 722.759 75.4883 722.759 75.775V79H721.864V75.775C721.864 75.3917 721.776 75.095 721.599 74.885C721.426 74.6717 721.161 74.565 720.804 74.565C720.541 74.565 720.294 74.6283 720.064 74.755C719.837 74.8817 719.627 75.0533 719.434 75.27V79H718.539V73.935H719.074C719.201 73.935 719.279 73.9967 719.309 74.12L719.379 74.67ZM727.065 74.77C727.025 74.8433 726.963 74.88 726.88 74.88C726.83 74.88 726.773 74.8617 726.71 74.825C726.647 74.7883 726.568 74.7483 726.475 74.705C726.385 74.6583 726.277 74.6167 726.15 74.58C726.023 74.54 725.873 74.52 725.7 74.52C725.55 74.52 725.415 74.54 725.295 74.58C725.175 74.6167 725.072 74.6683 724.985 74.735C724.902 74.8017 724.837 74.88 724.79 74.97C724.747 75.0567 724.725 75.1517 724.725 75.255C724.725 75.385 724.762 75.4933 724.835 75.58C724.912 75.6667 725.012 75.7417 725.135 75.805C725.258 75.8683 725.398 75.925 725.555 75.975C725.712 76.0217 725.872 76.0733 726.035 76.13C726.202 76.1833 726.363 76.2433 726.52 76.31C726.677 76.3767 726.817 76.46 726.94 76.56C727.063 76.66 727.162 76.7833 727.235 76.93C727.312 77.0733 727.35 77.2467 727.35 77.45C727.35 77.6833 727.308 77.9 727.225 78.1C727.142 78.2967 727.018 78.4683 726.855 78.615C726.692 78.7583 726.492 78.8717 726.255 78.955C726.018 79.0383 725.745 79.08 725.435 79.08C725.082 79.08 724.762 79.0233 724.475 78.91C724.188 78.7933 723.945 78.645 723.745 78.465L723.955 78.125C723.982 78.0817 724.013 78.0483 724.05 78.025C724.087 78.0017 724.133 77.99 724.19 77.99C724.25 77.99 724.313 78.0133 724.38 78.06C724.447 78.1067 724.527 78.1583 724.62 78.215C724.717 78.2717 724.833 78.3233 724.97 78.37C725.107 78.4167 725.277 78.44 725.48 78.44C725.653 78.44 725.805 78.4183 725.935 78.375C726.065 78.3283 726.173 78.2667 726.26 78.19C726.347 78.1133 726.41 78.025 726.45 77.925C726.493 77.825 726.515 77.7183 726.515 77.605C726.515 77.465 726.477 77.35 726.4 77.26C726.327 77.1667 726.228 77.0883 726.105 77.025C725.982 76.9583 725.84 76.9017 725.68 76.855C725.523 76.805 725.362 76.7533 725.195 76.7C725.032 76.6467 724.87 76.5867 724.71 76.52C724.553 76.45 724.413 76.3633 724.29 76.26C724.167 76.1567 724.067 76.03 723.99 75.88C723.917 75.7267 723.88 75.5417 723.88 75.325C723.88 75.1317 723.92 74.9467 724 74.77C724.08 74.59 724.197 74.4333 724.35 74.3C724.503 74.1633 724.692 74.055 724.915 73.975C725.138 73.895 725.393 73.855 725.68 73.855C726.013 73.855 726.312 73.9083 726.575 74.015C726.842 74.1183 727.072 74.2617 727.265 74.445L727.065 74.77ZM731.831 75.915C731.831 75.7083 731.801 75.52 731.741 75.35C731.685 75.1767 731.6 75.0283 731.486 74.905C731.376 74.7783 731.241 74.6817 731.081 74.615C730.921 74.545 730.74 74.51 730.536 74.51C730.11 74.51 729.771 74.635 729.521 74.885C729.275 75.1317 729.121 75.475 729.061 75.915H731.831ZM732.551 78.29C732.441 78.4233 732.31 78.54 732.156 78.64C732.003 78.7367 731.838 78.8167 731.661 78.88C731.488 78.9433 731.308 78.99 731.121 79.02C730.935 79.0533 730.75 79.07 730.566 79.07C730.216 79.07 729.893 79.0117 729.596 78.895C729.303 78.775 729.048 78.6017 728.831 78.375C728.618 78.145 728.451 77.8617 728.331 77.525C728.211 77.1883 728.151 76.8017 728.151 76.365C728.151 76.0117 728.205 75.6817 728.311 75.375C728.421 75.0683 728.578 74.8033 728.781 74.58C728.985 74.3533 729.233 74.1767 729.526 74.05C729.82 73.92 730.15 73.855 730.516 73.855C730.82 73.855 731.1 73.9067 731.356 74.01C731.616 74.11 731.84 74.2567 732.026 74.45C732.216 74.64 732.365 74.8767 732.471 75.16C732.578 75.44 732.631 75.76 732.631 76.12C732.631 76.26 732.616 76.3533 732.586 76.4C732.556 76.4467 732.5 76.47 732.416 76.47H729.031C729.041 76.79 729.085 77.0683 729.161 77.305C729.241 77.5417 729.351 77.74 729.491 77.9C729.631 78.0567 729.798 78.175 729.991 78.255C730.185 78.3317 730.401 78.37 730.641 78.37C730.865 78.37 731.056 78.345 731.216 78.295C731.38 78.2417 731.52 78.185 731.636 78.125C731.753 78.065 731.85 78.01 731.926 77.96C732.006 77.9067 732.075 77.88 732.131 77.88C732.205 77.88 732.261 77.9083 732.301 77.965L732.551 78.29ZM736.675 74.77C736.635 74.8433 736.573 74.88 736.49 74.88C736.44 74.88 736.383 74.8617 736.32 74.825C736.256 74.7883 736.178 74.7483 736.085 74.705C735.995 74.6583 735.886 74.6167 735.76 74.58C735.633 74.54 735.483 74.52 735.31 74.52C735.16 74.52 735.025 74.54 734.905 74.58C734.785 74.6167 734.681 74.6683 734.595 74.735C734.511 74.8017 734.446 74.88 734.4 74.97C734.356 75.0567 734.335 75.1517 734.335 75.255C734.335 75.385 734.371 75.4933 734.445 75.58C734.521 75.6667 734.621 75.7417 734.745 75.805C734.868 75.8683 735.008 75.925 735.165 75.975C735.321 76.0217 735.481 76.0733 735.645 76.13C735.811 76.1833 735.973 76.2433 736.13 76.31C736.286 76.3767 736.426 76.46 736.55 76.56C736.673 76.66 736.771 76.7833 736.845 76.93C736.921 77.0733 736.96 77.2467 736.96 77.45C736.96 77.6833 736.918 77.9 736.835 78.1C736.751 78.2967 736.628 78.4683 736.465 78.615C736.301 78.7583 736.101 78.8717 735.865 78.955C735.628 79.0383 735.355 79.08 735.045 79.08C734.691 79.08 734.371 79.0233 734.085 78.91C733.798 78.7933 733.555 78.645 733.355 78.465L733.565 78.125C733.591 78.0817 733.623 78.0483 733.66 78.025C733.696 78.0017 733.743 77.99 733.8 77.99C733.86 77.99 733.923 78.0133 733.99 78.06C734.056 78.1067 734.136 78.1583 734.23 78.215C734.326 78.2717 734.443 78.3233 734.58 78.37C734.716 78.4167 734.886 78.44 735.09 78.44C735.263 78.44 735.415 78.4183 735.545 78.375C735.675 78.3283 735.783 78.2667 735.87 78.19C735.956 78.1133 736.02 78.025 736.06 77.925C736.103 77.825 736.125 77.7183 736.125 77.605C736.125 77.465 736.086 77.35 736.01 77.26C735.936 77.1667 735.838 77.0883 735.715 77.025C735.591 76.9583 735.45 76.9017 735.29 76.855C735.133 76.805 734.971 76.7533 734.805 76.7C734.641 76.6467 734.48 76.5867 734.32 76.52C734.163 76.45 734.023 76.3633 733.9 76.26C733.776 76.1567 733.676 76.03 733.6 75.88C733.526 75.7267 733.49 75.5417 733.49 75.325C733.49 75.1317 733.53 74.9467 733.61 74.77C733.69 74.59 733.806 74.4333 733.96 74.3C734.113 74.1633 734.301 74.055 734.525 73.975C734.748 73.895 735.003 73.855 735.29 73.855C735.623 73.855 735.921 73.9083 736.185 74.015C736.451 74.1183 736.681 74.2617 736.875 74.445L736.675 74.77Z" fill="#999999"/>
<rect x="904" y="98" width="47" height="16" rx="4" fill="#FFF2F2"/>
<path d="M918.248 106.612H916.636V108.312H916V106.612H914.396V106.02H916V104.328H916.636V106.02H918.248V106.612ZM922.585 108.26C922.67 108.26 922.737 108.285 922.785 108.336C922.833 108.384 922.857 108.448 922.857 108.528V109H919.001V108.732C919.001 108.679 919.011 108.623 919.033 108.564C919.054 108.503 919.09 108.448 919.141 108.4L920.957 106.58C921.109 106.428 921.246 106.281 921.369 106.14C921.491 105.999 921.595 105.859 921.681 105.72C921.766 105.579 921.831 105.435 921.877 105.288C921.925 105.141 921.949 104.987 921.949 104.824C921.949 104.664 921.923 104.524 921.873 104.404C921.822 104.281 921.753 104.18 921.665 104.1C921.577 104.02 921.473 103.96 921.353 103.92C921.233 103.88 921.103 103.86 920.965 103.86C920.826 103.86 920.698 103.88 920.581 103.92C920.466 103.96 920.363 104.016 920.273 104.088C920.182 104.16 920.106 104.245 920.045 104.344C919.983 104.443 919.939 104.549 919.913 104.664C919.875 104.765 919.827 104.833 919.769 104.868C919.713 104.903 919.63 104.911 919.521 104.892L919.113 104.82C919.15 104.553 919.223 104.319 919.333 104.116C919.442 103.913 919.579 103.744 919.745 103.608C919.91 103.469 920.099 103.365 920.313 103.296C920.529 103.227 920.761 103.192 921.009 103.192C921.259 103.192 921.49 103.229 921.701 103.304C921.914 103.376 922.098 103.481 922.253 103.62C922.407 103.759 922.529 103.928 922.617 104.128C922.705 104.325 922.749 104.549 922.749 104.8C922.749 105.013 922.717 105.212 922.653 105.396C922.591 105.577 922.506 105.751 922.397 105.916C922.29 106.081 922.165 106.243 922.021 106.4C921.879 106.555 921.729 106.712 921.569 106.872L920.113 108.36C920.225 108.331 920.337 108.307 920.449 108.288C920.563 108.269 920.671 108.26 920.773 108.26H922.585ZM923.701 108.532C923.701 108.46 923.715 108.392 923.741 108.328C923.768 108.264 923.804 108.208 923.849 108.16C923.897 108.112 923.953 108.075 924.017 108.048C924.081 108.019 924.151 108.004 924.225 108.004C924.297 108.004 924.365 108.019 924.429 108.048C924.493 108.075 924.549 108.112 924.597 108.16C924.645 108.208 924.683 108.264 924.709 108.328C924.739 108.392 924.753 108.46 924.753 108.532C924.753 108.607 924.739 108.676 924.709 108.74C924.683 108.804 924.645 108.86 924.597 108.908C924.549 108.956 924.493 108.993 924.429 109.02C924.365 109.047 924.297 109.06 924.225 109.06C924.151 109.06 924.081 109.047 924.017 109.02C923.953 108.993 923.897 108.956 923.849 108.908C923.804 108.86 923.768 108.804 923.741 108.74C923.715 108.676 923.701 108.607 923.701 108.532ZM928.076 106.904V104.664C928.076 104.587 928.077 104.505 928.08 104.42C928.085 104.332 928.095 104.241 928.108 104.148L926.096 106.904H928.076ZM929.592 106.904V107.356C929.592 107.401 929.577 107.44 929.548 107.472C929.519 107.504 929.477 107.52 929.424 107.52H928.76V109H928.076V107.52H925.556C925.497 107.52 925.448 107.504 925.408 107.472C925.368 107.437 925.341 107.395 925.328 107.344L925.248 106.944L928.024 103.252H928.76V106.904H929.592ZM930.309 104.82C930.349 104.553 930.423 104.319 930.533 104.116C930.642 103.913 930.779 103.744 930.945 103.608C931.11 103.469 931.299 103.365 931.513 103.296C931.729 103.227 931.961 103.192 932.209 103.192C932.457 103.192 932.685 103.228 932.893 103.3C933.101 103.369 933.278 103.469 933.425 103.6C933.574 103.728 933.69 103.883 933.773 104.064C933.855 104.245 933.897 104.445 933.897 104.664C933.897 104.848 933.874 105.011 933.829 105.152C933.783 105.293 933.718 105.417 933.633 105.524C933.55 105.631 933.449 105.721 933.329 105.796C933.209 105.868 933.074 105.928 932.925 105.976C933.29 106.077 933.565 106.243 933.749 106.472C933.933 106.699 934.025 106.987 934.025 107.336C934.025 107.605 933.974 107.848 933.873 108.064C933.771 108.277 933.633 108.459 933.457 108.608C933.281 108.755 933.075 108.868 932.841 108.948C932.609 109.025 932.361 109.064 932.097 109.064C931.795 109.064 931.537 109.028 931.321 108.956C931.105 108.881 930.921 108.779 930.769 108.648C930.617 108.515 930.49 108.356 930.389 108.172C930.29 107.985 930.206 107.781 930.137 107.56L930.477 107.416C930.565 107.379 930.65 107.368 930.733 107.384C930.815 107.4 930.875 107.447 930.913 107.524C930.953 107.604 930.998 107.695 931.049 107.796C931.102 107.895 931.173 107.989 931.261 108.08C931.349 108.168 931.458 108.243 931.589 108.304C931.722 108.365 931.889 108.396 932.089 108.396C932.281 108.396 932.449 108.365 932.593 108.304C932.737 108.24 932.857 108.159 932.953 108.06C933.049 107.959 933.121 107.847 933.169 107.724C933.217 107.601 933.241 107.48 933.241 107.36C933.241 107.211 933.222 107.073 933.185 106.948C933.147 106.823 933.075 106.716 932.969 106.628C932.865 106.537 932.719 106.467 932.533 106.416C932.346 106.365 932.103 106.34 931.805 106.34V105.772C932.05 105.769 932.257 105.744 932.425 105.696C932.595 105.648 932.733 105.581 932.837 105.496C932.941 105.411 933.015 105.309 933.061 105.192C933.109 105.075 933.133 104.944 933.133 104.8C933.133 104.643 933.109 104.505 933.061 104.388C933.013 104.271 932.945 104.173 932.857 104.096C932.771 104.016 932.669 103.957 932.549 103.92C932.431 103.88 932.303 103.86 932.164 103.86C932.026 103.86 931.898 103.88 931.781 103.92C931.663 103.96 931.559 104.016 931.469 104.088C931.378 104.16 931.302 104.245 931.241 104.344C931.179 104.443 931.135 104.549 931.109 104.664C931.071 104.765 931.023 104.833 930.965 104.868C930.909 104.903 930.827 104.911 930.721 104.892L930.309 104.82ZM937.365 104.644C937.365 104.868 937.329 105.068 937.257 105.244C937.188 105.42 937.094 105.569 936.977 105.692C936.86 105.812 936.722 105.905 936.565 105.972C936.41 106.036 936.248 106.068 936.077 106.068C935.893 106.068 935.722 106.036 935.565 105.972C935.41 105.905 935.276 105.812 935.161 105.692C935.046 105.569 934.956 105.42 934.889 105.244C934.825 105.068 934.793 104.868 934.793 104.644C934.793 104.415 934.825 104.211 934.889 104.032C934.956 103.853 935.046 103.703 935.161 103.58C935.276 103.455 935.41 103.36 935.565 103.296C935.722 103.229 935.893 103.196 936.077 103.196C936.261 103.196 936.43 103.229 936.585 103.296C936.742 103.36 936.878 103.455 936.993 103.58C937.11 103.703 937.201 103.853 937.265 104.032C937.332 104.211 937.365 104.415 937.365 104.644ZM936.757 104.644C936.757 104.473 936.738 104.329 936.701 104.212C936.666 104.092 936.618 103.996 936.557 103.924C936.496 103.849 936.424 103.796 936.341 103.764C936.258 103.729 936.17 103.712 936.077 103.712C935.984 103.712 935.896 103.729 935.813 103.764C935.73 103.796 935.658 103.849 935.597 103.924C935.538 103.996 935.492 104.092 935.457 104.212C935.422 104.329 935.405 104.473 935.405 104.644C935.405 104.809 935.422 104.951 935.457 105.068C935.492 105.183 935.538 105.276 935.597 105.348C935.658 105.42 935.73 105.472 935.813 105.504C935.896 105.536 935.984 105.552 936.077 105.552C936.17 105.552 936.258 105.536 936.341 105.504C936.424 105.472 936.496 105.42 936.557 105.348C936.618 105.276 936.666 105.183 936.701 105.068C936.738 104.951 936.757 104.809 936.757 104.644ZM939.365 103.384C939.394 103.349 939.428 103.32 939.465 103.296C939.505 103.269 939.56 103.256 939.629 103.256H940.193L935.977 108.876C935.948 108.913 935.913 108.944 935.873 108.968C935.833 108.989 935.785 109 935.729 109H935.149L939.365 103.384ZM940.561 107.644C940.561 107.868 940.525 108.068 940.453 108.244C940.384 108.42 940.29 108.569 940.173 108.692C940.056 108.812 939.918 108.905 939.761 108.972C939.606 109.036 939.444 109.068 939.273 109.068C939.089 109.068 938.918 109.036 938.761 108.972C938.606 108.905 938.472 108.812 938.357 108.692C938.242 108.569 938.152 108.42 938.085 108.244C938.021 108.068 937.989 107.868 937.989 107.644C937.989 107.415 938.021 107.211 938.085 107.032C938.152 106.853 938.242 106.703 938.357 106.58C938.472 106.455 938.606 106.36 938.761 106.296C938.918 106.232 939.089 106.2 939.273 106.2C939.457 106.2 939.626 106.232 939.781 106.296C939.938 106.36 940.074 106.455 940.189 106.58C940.306 106.703 940.397 106.853 940.461 107.032C940.528 107.211 940.561 107.415 940.561 107.644ZM939.953 107.644C939.953 107.473 939.934 107.329 939.897 107.212C939.862 107.095 939.814 107 939.753 106.928C939.692 106.853 939.62 106.8 939.537 106.768C939.454 106.733 939.366 106.716 939.273 106.716C939.177 106.716 939.088 106.733 939.005 106.768C938.925 106.8 938.854 106.853 938.793 106.928C938.734 107 938.688 107.095 938.653 107.212C938.618 107.329 938.601 107.473 938.601 107.644C938.601 107.812 938.618 107.953 938.653 108.068C938.688 108.183 938.734 108.276 938.793 108.348C938.854 108.42 938.925 108.472 939.005 108.504C939.088 108.536 939.177 108.552 939.273 108.552C939.366 108.552 939.454 108.536 939.537 108.504C939.62 108.472 939.692 108.42 939.753 108.348C939.814 108.276 939.862 108.183 939.897 108.068C939.934 107.953 939.953 107.812 939.953 107.644Z" fill="#FF0606"/>
<path d="M674.224 112V107.554H673.18V106.222H674.224V104.926H673.18V103.594H674.224V99.148H677.05L678.454 103.594H680.092V99.148H682.09V103.594H683.116V104.926H682.09V106.222H683.116V107.554H682.09V112H679.246L677.806 107.554H676.222V112H674.224ZM676.222 106.222H677.41L677.014 104.926H676.186L676.222 106.222ZM680.146 109.192H680.236L680.164 107.554H679.678L680.146 109.192ZM676.15 103.594H676.654L676.132 101.866H676.06L676.15 103.594ZM679.3 106.222H680.128L680.092 104.926H678.886L679.3 106.222ZM689.043 112.18C691.689 112.18 693.489 110.902 693.489 108.886C693.489 107.266 692.553 105.952 690.267 105.808C691.851 105.646 693.003 104.53 693.003 103.054C693.003 101.416 691.797 99.76 689.007 99.76C686.685 99.76 685.047 101.074 684.507 102.712L686.127 104.098C686.379 102.532 687.477 101.704 688.935 101.704C690.285 101.704 690.915 102.496 690.915 103.504C690.915 104.602 690.195 105.124 688.899 105.124H686.919V106.798H688.827C690.321 106.798 691.329 107.302 691.329 108.544C691.329 109.606 690.537 110.254 689.133 110.254C687.099 110.254 686.271 109.156 685.911 107.446L684.291 108.886C684.741 110.686 686.379 112.18 689.043 112.18ZM700.033 112.162C703.399 112.162 705.091 109.498 705.091 105.952C705.091 102.424 703.399 99.76 700.033 99.76C696.667 99.76 694.957 102.424 694.957 105.952C694.957 109.498 696.667 112.162 700.033 112.162ZM700.033 110.218C697.891 110.218 697.099 108.49 697.099 105.952C697.099 103.432 697.891 101.686 700.033 101.686C702.193 101.686 702.967 103.432 702.967 105.952C702.967 108.49 702.193 110.218 700.033 110.218ZM711.793 112.162C715.159 112.162 716.851 109.498 716.851 105.952C716.851 102.424 715.159 99.76 711.793 99.76C708.427 99.76 706.717 102.424 706.717 105.952C706.717 109.498 708.427 112.162 711.793 112.162ZM711.793 110.218C709.651 110.218 708.859 108.49 708.859 105.952C708.859 103.432 709.651 101.686 711.793 101.686C713.953 101.686 714.727 103.432 714.727 105.952C714.727 108.49 713.953 110.218 711.793 110.218ZM718.645 114.088C719.995 113.944 720.517 113.242 720.517 112.036V109.444H718.213V112H719.275V112.234C719.275 112.828 718.879 112.954 718.231 113.026L718.645 114.088ZM726.945 112.162C730.311 112.162 732.003 109.498 732.003 105.952C732.003 102.424 730.311 99.76 726.945 99.76C723.579 99.76 721.869 102.424 721.869 105.952C721.869 109.498 723.579 112.162 726.945 112.162ZM726.945 110.218C724.803 110.218 724.011 108.49 724.011 105.952C724.011 103.432 724.803 101.686 726.945 101.686C729.105 101.686 729.879 103.432 729.879 105.952C729.879 108.49 729.105 110.218 726.945 110.218ZM738.705 112.162C742.071 112.162 743.763 109.498 743.763 105.952C743.763 102.424 742.071 99.76 738.705 99.76C735.339 99.76 733.629 102.424 733.629 105.952C733.629 109.498 735.339 112.162 738.705 112.162ZM738.705 110.218C736.563 110.218 735.771 108.49 735.771 105.952C735.771 103.432 736.563 101.686 738.705 101.686C740.865 101.686 741.639 103.432 741.639 105.952C741.639 108.49 740.865 110.218 738.705 110.218ZM750.465 112.162C753.831 112.162 755.523 109.498 755.523 105.952C755.523 102.424 753.831 99.76 750.465 99.76C747.099 99.76 745.389 102.424 745.389 105.952C745.389 109.498 747.099 112.162 750.465 112.162ZM750.465 110.218C748.323 110.218 747.531 108.49 747.531 105.952C747.531 103.432 748.323 101.686 750.465 101.686C752.625 101.686 753.399 103.432 753.399 105.952C753.399 108.49 752.625 110.218 750.465 110.218Z" fill="black"/>
<path d="M888 58L892.899 55.3559C895.204 54.1119 897.996 54.1858 900.232 55.55L901.186 56.1324C903.053 57.2712 905.411 57.2226 907.229 56.0078L908.933 54.8688C910.245 53.9921 912 54.1988 913.072 55.3563V55.3563C914.376 56.7644 916.617 56.7208 917.865 55.2631L923.752 48.3907C924.873 47.0819 926.854 46.9582 928.129 48.1174L928.81 48.7365C929.555 49.413 930.685 49.4337 931.453 48.785V48.785C932.757 47.6843 934.753 48.6113 934.753 50.3177V51.6709C934.753 52.6936 935.344 53.6238 936.271 54.0571L939.892 55.7511C942.855 57.1369 946.339 56.7898 948.969 54.8466L951 53.3469" stroke="#FF0606"/>
<path d="M677.998 55.1676C677.872 55.1676 677.745 55.1209 677.645 55.0209C677.452 54.8276 677.452 54.5076 677.645 54.3143L679.778 52.1809C679.885 52.0743 680.025 52.0209 680.178 52.0343C680.325 52.0476 680.458 52.1276 680.545 52.2543L681.272 53.3476L683.638 50.9809C683.832 50.7876 684.152 50.7876 684.345 50.9809C684.538 51.1743 684.538 51.4943 684.345 51.6876L681.545 54.4876C681.438 54.5943 681.298 54.6476 681.145 54.6343C680.998 54.6209 680.865 54.5409 680.778 54.4143L680.052 53.3209L678.352 55.0209C678.252 55.1209 678.125 55.1676 677.998 55.1676Z" fill="#999999"/>
<path d="M684.001 53.1654C683.728 53.1654 683.501 52.9387 683.501 52.6654V51.832H682.668C682.395 51.832 682.168 51.6054 682.168 51.332C682.168 51.0587 682.395 50.832 682.668 50.832H684.001C684.275 50.832 684.501 51.0587 684.501 51.332V52.6654C684.501 52.9387 684.275 53.1654 684.001 53.1654Z" fill="#999999"/>
<path d="M682.999 60.1654H678.999C675.379 60.1654 673.832 58.6187 673.832 54.9987V50.9987C673.832 47.3787 675.379 45.832 678.999 45.832H682.999C686.619 45.832 688.165 47.3787 688.165 50.9987V54.9987C688.165 58.6187 686.619 60.1654 682.999 60.1654ZM678.999 46.832C675.925 46.832 674.832 47.9254 674.832 50.9987V54.9987C674.832 58.072 675.925 59.1654 678.999 59.1654H682.999C686.072 59.1654 687.165 58.072 687.165 54.9987V50.9987C687.165 47.9254 686.072 46.832 682.999 46.832H678.999Z" fill="#999999"/>
<rect x="145" y="189" width="326" height="122" rx="8" fill="white"/>
<path d="M174.76 240.65H172.44V247H171.475V240.65H169.15V239.835H174.76V240.65ZM176.528 241.855C176.898 241.855 177.231 241.917 177.528 242.04C177.824 242.163 178.078 242.338 178.288 242.565C178.498 242.792 178.658 243.067 178.768 243.39C178.881 243.71 178.938 244.068 178.938 244.465C178.938 244.865 178.881 245.225 178.768 245.545C178.658 245.865 178.498 246.138 178.288 246.365C178.078 246.592 177.824 246.767 177.528 246.89C177.231 247.01 176.898 247.07 176.528 247.07C176.154 247.07 175.818 247.01 175.518 246.89C175.221 246.767 174.968 246.592 174.758 246.365C174.548 246.138 174.386 245.865 174.273 245.545C174.163 245.225 174.108 244.865 174.108 244.465C174.108 244.068 174.163 243.71 174.273 243.39C174.386 243.067 174.548 242.792 174.758 242.565C174.968 242.338 175.221 242.163 175.518 242.04C175.818 241.917 176.154 241.855 176.528 241.855ZM176.528 246.375C177.028 246.375 177.401 246.208 177.648 245.875C177.894 245.538 178.018 245.07 178.018 244.47C178.018 243.867 177.894 243.397 177.648 243.06C177.401 242.723 177.028 242.555 176.528 242.555C176.274 242.555 176.053 242.598 175.863 242.685C175.676 242.772 175.519 242.897 175.393 243.06C175.269 243.223 175.176 243.425 175.113 243.665C175.053 243.902 175.023 244.17 175.023 244.47C175.023 245.07 175.146 245.538 175.393 245.875C175.643 246.208 176.021 246.375 176.528 246.375ZM181.533 247.08C181.133 247.08 180.825 246.968 180.608 246.745C180.395 246.522 180.288 246.2 180.288 245.78V242.68H179.678C179.625 242.68 179.58 242.665 179.543 242.635C179.507 242.602 179.488 242.552 179.488 242.485V242.13L180.318 242.025L180.523 240.46C180.533 240.41 180.555 240.37 180.588 240.34C180.625 240.307 180.672 240.29 180.728 240.29H181.178V242.035H182.643V242.68H181.178V245.72C181.178 245.933 181.23 246.092 181.333 246.195C181.437 246.298 181.57 246.35 181.733 246.35C181.827 246.35 181.907 246.338 181.973 246.315C182.043 246.288 182.103 246.26 182.153 246.23C182.203 246.2 182.245 246.173 182.278 246.15C182.315 246.123 182.347 246.11 182.373 246.11C182.42 246.11 182.462 246.138 182.498 246.195L182.758 246.62C182.605 246.763 182.42 246.877 182.203 246.96C181.987 247.04 181.763 247.08 181.533 247.08ZM186.307 244.72C185.897 244.733 185.547 244.767 185.257 244.82C184.971 244.87 184.736 244.937 184.552 245.02C184.372 245.103 184.241 245.202 184.157 245.315C184.077 245.428 184.037 245.555 184.037 245.695C184.037 245.828 184.059 245.943 184.102 246.04C184.146 246.137 184.204 246.217 184.277 246.28C184.354 246.34 184.442 246.385 184.542 246.415C184.646 246.442 184.756 246.455 184.872 246.455C185.029 246.455 185.172 246.44 185.302 246.41C185.432 246.377 185.554 246.33 185.667 246.27C185.784 246.21 185.894 246.138 185.997 246.055C186.104 245.972 186.207 245.877 186.307 245.77V244.72ZM183.432 242.65C183.712 242.38 184.014 242.178 184.337 242.045C184.661 241.912 185.019 241.845 185.412 241.845C185.696 241.845 185.947 241.892 186.167 241.985C186.387 242.078 186.572 242.208 186.722 242.375C186.872 242.542 186.986 242.743 187.062 242.98C187.139 243.217 187.177 243.477 187.177 243.76V247H186.782C186.696 247 186.629 246.987 186.582 246.96C186.536 246.93 186.499 246.873 186.472 246.79L186.372 246.31C186.239 246.433 186.109 246.543 185.982 246.64C185.856 246.733 185.722 246.813 185.582 246.88C185.442 246.943 185.292 246.992 185.132 247.025C184.976 247.062 184.801 247.08 184.607 247.08C184.411 247.08 184.226 247.053 184.052 247C183.879 246.943 183.727 246.86 183.597 246.75C183.471 246.64 183.369 246.502 183.292 246.335C183.219 246.165 183.182 245.965 183.182 245.735C183.182 245.535 183.237 245.343 183.347 245.16C183.457 244.973 183.636 244.808 183.882 244.665C184.129 244.522 184.451 244.405 184.847 244.315C185.244 244.222 185.731 244.168 186.307 244.155V243.76C186.307 243.367 186.222 243.07 186.052 242.87C185.882 242.667 185.634 242.565 185.307 242.565C185.087 242.565 184.902 242.593 184.752 242.65C184.606 242.703 184.477 242.765 184.367 242.835C184.261 242.902 184.167 242.963 184.087 243.02C184.011 243.073 183.934 243.1 183.857 243.1C183.797 243.1 183.746 243.085 183.702 243.055C183.659 243.022 183.622 242.982 183.592 242.935L183.432 242.65ZM189.453 239.635V247H188.563V239.635H189.453ZM194.395 241.935V247H193.505V241.935H194.395ZM194.585 240.345C194.585 240.432 194.567 240.513 194.53 240.59C194.497 240.663 194.45 240.73 194.39 240.79C194.333 240.847 194.265 240.892 194.185 240.925C194.108 240.958 194.027 240.975 193.94 240.975C193.853 240.975 193.772 240.958 193.695 240.925C193.622 240.892 193.557 240.847 193.5 240.79C193.443 240.73 193.398 240.663 193.365 240.59C193.332 240.513 193.315 240.432 193.315 240.345C193.315 240.258 193.332 240.177 193.365 240.1C193.398 240.02 193.443 239.952 193.5 239.895C193.557 239.835 193.622 239.788 193.695 239.755C193.772 239.722 193.853 239.705 193.94 239.705C194.027 239.705 194.108 239.722 194.185 239.755C194.265 239.788 194.333 239.835 194.39 239.895C194.45 239.952 194.497 240.02 194.53 240.1C194.567 240.177 194.585 240.258 194.585 240.345ZM196.697 242.67C196.807 242.547 196.924 242.435 197.047 242.335C197.171 242.235 197.301 242.15 197.437 242.08C197.577 242.007 197.724 241.952 197.877 241.915C198.034 241.875 198.202 241.855 198.382 241.855C198.659 241.855 198.902 241.902 199.112 241.995C199.326 242.085 199.502 242.215 199.642 242.385C199.786 242.552 199.894 242.753 199.967 242.99C200.041 243.227 200.077 243.488 200.077 243.775V247H199.182V243.775C199.182 243.392 199.094 243.095 198.917 242.885C198.744 242.672 198.479 242.565 198.122 242.565C197.859 242.565 197.612 242.628 197.382 242.755C197.156 242.882 196.946 243.053 196.752 243.27V247H195.857V241.935H196.392C196.519 241.935 196.597 241.997 196.627 242.12L196.697 242.67ZM204.959 242.835C204.932 242.872 204.905 242.9 204.879 242.92C204.852 242.94 204.815 242.95 204.769 242.95C204.719 242.95 204.664 242.93 204.604 242.89C204.544 242.847 204.469 242.8 204.379 242.75C204.292 242.7 204.184 242.655 204.054 242.615C203.927 242.572 203.77 242.55 203.584 242.55C203.334 242.55 203.114 242.595 202.924 242.685C202.734 242.772 202.574 242.898 202.444 243.065C202.317 243.232 202.22 243.433 202.154 243.67C202.09 243.907 202.059 244.172 202.059 244.465C202.059 244.772 202.094 245.045 202.164 245.285C202.234 245.522 202.332 245.722 202.459 245.885C202.589 246.045 202.744 246.168 202.924 246.255C203.107 246.338 203.312 246.38 203.539 246.38C203.755 246.38 203.934 246.355 204.074 246.305C204.214 246.252 204.329 246.193 204.419 246.13C204.512 246.067 204.589 246.01 204.649 245.96C204.712 245.907 204.774 245.88 204.834 245.88C204.907 245.88 204.964 245.908 205.004 245.965L205.254 246.29C205.144 246.427 205.019 246.543 204.879 246.64C204.739 246.737 204.587 246.818 204.424 246.885C204.264 246.948 204.095 246.995 203.919 247.025C203.742 247.055 203.562 247.07 203.379 247.07C203.062 247.07 202.767 247.012 202.494 246.895C202.224 246.778 201.989 246.61 201.789 246.39C201.589 246.167 201.432 245.893 201.319 245.57C201.205 245.247 201.149 244.878 201.149 244.465C201.149 244.088 201.2 243.74 201.304 243.42C201.41 243.1 201.564 242.825 201.764 242.595C201.967 242.362 202.215 242.18 202.509 242.05C202.805 241.92 203.145 241.855 203.529 241.855C203.885 241.855 204.199 241.913 204.469 242.03C204.742 242.143 204.984 242.305 205.194 242.515L204.959 242.835ZM208.256 241.855C208.626 241.855 208.959 241.917 209.256 242.04C209.553 242.163 209.806 242.338 210.016 242.565C210.226 242.792 210.386 243.067 210.496 243.39C210.609 243.71 210.666 244.068 210.666 244.465C210.666 244.865 210.609 245.225 210.496 245.545C210.386 245.865 210.226 246.138 210.016 246.365C209.806 246.592 209.553 246.767 209.256 246.89C208.959 247.01 208.626 247.07 208.256 247.07C207.883 247.07 207.546 247.01 207.246 246.89C206.949 246.767 206.696 246.592 206.486 246.365C206.276 246.138 206.114 245.865 206.001 245.545C205.891 245.225 205.836 244.865 205.836 244.465C205.836 244.068 205.891 243.71 206.001 243.39C206.114 243.067 206.276 242.792 206.486 242.565C206.696 242.338 206.949 242.163 207.246 242.04C207.546 241.917 207.883 241.855 208.256 241.855ZM208.256 246.375C208.756 246.375 209.129 246.208 209.376 245.875C209.623 245.538 209.746 245.07 209.746 244.47C209.746 243.867 209.623 243.397 209.376 243.06C209.129 242.723 208.756 242.555 208.256 242.555C208.003 242.555 207.781 242.598 207.591 242.685C207.404 242.772 207.248 242.897 207.121 243.06C206.998 243.223 206.904 243.425 206.841 243.665C206.781 243.902 206.751 244.17 206.751 244.47C206.751 245.07 206.874 245.538 207.121 245.875C207.371 246.208 207.749 246.375 208.256 246.375ZM211.795 247V241.935H212.33C212.457 241.935 212.535 241.997 212.565 242.12L212.63 242.64C212.817 242.41 213.027 242.222 213.26 242.075C213.493 241.928 213.763 241.855 214.07 241.855C214.41 241.855 214.685 241.95 214.895 242.14C215.108 242.33 215.262 242.587 215.355 242.91C215.428 242.727 215.522 242.568 215.635 242.435C215.752 242.302 215.882 242.192 216.025 242.105C216.168 242.018 216.32 241.955 216.48 241.915C216.643 241.875 216.808 241.855 216.975 241.855C217.242 241.855 217.478 241.898 217.685 241.985C217.895 242.068 218.072 242.192 218.215 242.355C218.362 242.518 218.473 242.72 218.55 242.96C218.627 243.197 218.665 243.468 218.665 243.775V247H217.77V243.775C217.77 243.378 217.683 243.078 217.51 242.875C217.337 242.668 217.087 242.565 216.76 242.565C216.613 242.565 216.473 242.592 216.34 242.645C216.21 242.695 216.095 242.77 215.995 242.87C215.895 242.97 215.815 243.097 215.755 243.25C215.698 243.4 215.67 243.575 215.67 243.775V247H214.775V243.775C214.775 243.368 214.693 243.065 214.53 242.865C214.367 242.665 214.128 242.565 213.815 242.565C213.595 242.565 213.392 242.625 213.205 242.745C213.018 242.862 212.847 243.022 212.69 243.225V247H211.795ZM223.408 243.915C223.408 243.708 223.378 243.52 223.318 243.35C223.261 243.177 223.176 243.028 223.063 242.905C222.953 242.778 222.818 242.682 222.658 242.615C222.498 242.545 222.316 242.51 222.113 242.51C221.686 242.51 221.348 242.635 221.098 242.885C220.851 243.132 220.698 243.475 220.638 243.915H223.408ZM224.128 246.29C224.018 246.423 223.886 246.54 223.733 246.64C223.579 246.737 223.414 246.817 223.238 246.88C223.064 246.943 222.884 246.99 222.698 247.02C222.511 247.053 222.326 247.07 222.143 247.07C221.793 247.07 221.469 247.012 221.173 246.895C220.879 246.775 220.624 246.602 220.408 246.375C220.194 246.145 220.028 245.862 219.908 245.525C219.788 245.188 219.728 244.802 219.728 244.365C219.728 244.012 219.781 243.682 219.888 243.375C219.998 243.068 220.154 242.803 220.358 242.58C220.561 242.353 220.809 242.177 221.103 242.05C221.396 241.92 221.726 241.855 222.093 241.855C222.396 241.855 222.676 241.907 222.933 242.01C223.193 242.11 223.416 242.257 223.603 242.45C223.793 242.64 223.941 242.877 224.048 243.16C224.154 243.44 224.208 243.76 224.208 244.12C224.208 244.26 224.193 244.353 224.163 244.4C224.133 244.447 224.076 244.47 223.993 244.47H220.608C220.618 244.79 220.661 245.068 220.738 245.305C220.818 245.542 220.928 245.74 221.068 245.9C221.208 246.057 221.374 246.175 221.568 246.255C221.761 246.332 221.978 246.37 222.218 246.37C222.441 246.37 222.633 246.345 222.793 246.295C222.956 246.242 223.096 246.185 223.213 246.125C223.329 246.065 223.426 246.01 223.503 245.96C223.583 245.907 223.651 245.88 223.708 245.88C223.781 245.88 223.838 245.908 223.878 245.965L224.128 246.29Z" fill="#999999"/>
<rect x="400" y="266" width="47" height="16" rx="4" fill="#ECFFF3"/>
<path d="M414.248 274.612H412.636V276.312H412V274.612H410.396V274.02H412V272.328H412.636V274.02H414.248V274.612ZM418.729 276.404V277H415.625V276.404H416.841V272.64C416.841 272.52 416.845 272.396 416.853 272.268L415.877 273.096C415.839 273.125 415.802 273.144 415.765 273.152C415.727 273.16 415.691 273.161 415.657 273.156C415.625 273.151 415.595 273.14 415.569 273.124C415.545 273.105 415.525 273.087 415.509 273.068L415.265 272.728L416.985 271.244H417.621V276.404H418.729ZM419.701 276.532C419.701 276.46 419.715 276.392 419.741 276.328C419.768 276.264 419.804 276.208 419.849 276.16C419.897 276.112 419.953 276.075 420.017 276.048C420.081 276.019 420.151 276.004 420.225 276.004C420.297 276.004 420.365 276.019 420.429 276.048C420.493 276.075 420.549 276.112 420.597 276.16C420.645 276.208 420.683 276.264 420.709 276.328C420.739 276.392 420.753 276.46 420.753 276.532C420.753 276.607 420.739 276.676 420.709 276.74C420.683 276.804 420.645 276.86 420.597 276.908C420.549 276.956 420.493 276.993 420.429 277.02C420.365 277.047 420.297 277.06 420.225 277.06C420.151 277.06 420.081 277.047 420.017 277.02C419.953 276.993 419.897 276.956 419.849 276.908C419.804 276.86 419.768 276.804 419.741 276.74C419.715 276.676 419.701 276.607 419.701 276.532ZM425.116 276.26C425.201 276.26 425.268 276.285 425.316 276.336C425.364 276.384 425.388 276.448 425.388 276.528V277H421.532V276.732C421.532 276.679 421.543 276.623 421.564 276.564C421.585 276.503 421.621 276.448 421.672 276.4L423.488 274.58C423.64 274.428 423.777 274.281 423.9 274.14C424.023 273.999 424.127 273.859 424.212 273.72C424.297 273.579 424.363 273.435 424.408 273.288C424.456 273.141 424.48 272.987 424.48 272.824C424.48 272.664 424.455 272.524 424.404 272.404C424.353 272.281 424.284 272.18 424.196 272.1C424.108 272.02 424.004 271.96 423.884 271.92C423.764 271.88 423.635 271.86 423.496 271.86C423.357 271.86 423.229 271.88 423.112 271.92C422.997 271.96 422.895 272.016 422.804 272.088C422.713 272.16 422.637 272.245 422.576 272.344C422.515 272.443 422.471 272.549 422.444 272.664C422.407 272.765 422.359 272.833 422.3 272.868C422.244 272.903 422.161 272.911 422.052 272.892L421.644 272.82C421.681 272.553 421.755 272.319 421.864 272.116C421.973 271.913 422.111 271.744 422.276 271.608C422.441 271.469 422.631 271.365 422.844 271.296C423.06 271.227 423.292 271.192 423.54 271.192C423.791 271.192 424.021 271.229 424.232 271.304C424.445 271.376 424.629 271.481 424.784 271.62C424.939 271.759 425.06 271.928 425.148 272.128C425.236 272.325 425.28 272.549 425.28 272.8C425.28 273.013 425.248 273.212 425.184 273.396C425.123 273.577 425.037 273.751 424.928 273.916C424.821 274.081 424.696 274.243 424.552 274.4C424.411 274.555 424.26 274.712 424.1 274.872L422.644 276.36C422.756 276.331 422.868 276.307 422.98 276.288C423.095 276.269 423.203 276.26 423.304 276.26H425.116ZM426.309 272.82C426.349 272.553 426.423 272.319 426.533 272.116C426.642 271.913 426.779 271.744 426.945 271.608C427.11 271.469 427.299 271.365 427.513 271.296C427.729 271.227 427.961 271.192 428.209 271.192C428.457 271.192 428.685 271.228 428.893 271.3C429.101 271.369 429.278 271.469 429.425 271.6C429.574 271.728 429.69 271.883 429.773 272.064C429.855 272.245 429.897 272.445 429.897 272.664C429.897 272.848 429.874 273.011 429.829 273.152C429.783 273.293 429.718 273.417 429.633 273.524C429.55 273.631 429.449 273.721 429.329 273.796C429.209 273.868 429.074 273.928 428.925 273.976C429.29 274.077 429.565 274.243 429.749 274.472C429.933 274.699 430.025 274.987 430.025 275.336C430.025 275.605 429.974 275.848 429.873 276.064C429.771 276.277 429.633 276.459 429.457 276.608C429.281 276.755 429.075 276.868 428.841 276.948C428.609 277.025 428.361 277.064 428.097 277.064C427.795 277.064 427.537 277.028 427.321 276.956C427.105 276.881 426.921 276.779 426.769 276.648C426.617 276.515 426.49 276.356 426.389 276.172C426.29 275.985 426.206 275.781 426.137 275.56L426.477 275.416C426.565 275.379 426.65 275.368 426.733 275.384C426.815 275.4 426.875 275.447 426.913 275.524C426.953 275.604 426.998 275.695 427.049 275.796C427.102 275.895 427.173 275.989 427.261 276.08C427.349 276.168 427.458 276.243 427.589 276.304C427.722 276.365 427.889 276.396 428.089 276.396C428.281 276.396 428.449 276.365 428.593 276.304C428.737 276.24 428.857 276.159 428.953 276.06C429.049 275.959 429.121 275.847 429.169 275.724C429.217 275.601 429.241 275.48 429.241 275.36C429.241 275.211 429.222 275.073 429.185 274.948C429.147 274.823 429.075 274.716 428.969 274.628C428.865 274.537 428.719 274.467 428.533 274.416C428.346 274.365 428.103 274.34 427.805 274.34V273.772C428.05 273.769 428.257 273.744 428.425 273.696C428.595 273.648 428.733 273.581 428.837 273.496C428.941 273.411 429.015 273.309 429.061 273.192C429.109 273.075 429.133 272.944 429.133 272.8C429.133 272.643 429.109 272.505 429.061 272.388C429.013 272.271 428.945 272.173 428.857 272.096C428.771 272.016 428.669 271.957 428.549 271.92C428.431 271.88 428.303 271.86 428.164 271.86C428.026 271.86 427.898 271.88 427.781 271.92C427.663 271.96 427.559 272.016 427.469 272.088C427.378 272.16 427.302 272.245 427.241 272.344C427.179 272.443 427.135 272.549 427.109 272.664C427.071 272.765 427.023 272.833 426.965 272.868C426.909 272.903 426.827 272.911 426.721 272.892L426.309 272.82ZM433.365 272.644C433.365 272.868 433.329 273.068 433.257 273.244C433.188 273.42 433.094 273.569 432.977 273.692C432.86 273.812 432.722 273.905 432.565 273.972C432.41 274.036 432.248 274.068 432.077 274.068C431.893 274.068 431.722 274.036 431.565 273.972C431.41 273.905 431.276 273.812 431.161 273.692C431.046 273.569 430.956 273.42 430.889 273.244C430.825 273.068 430.793 272.868 430.793 272.644C430.793 272.415 430.825 272.211 430.889 272.032C430.956 271.853 431.046 271.703 431.161 271.58C431.276 271.455 431.41 271.36 431.565 271.296C431.722 271.229 431.893 271.196 432.077 271.196C432.261 271.196 432.43 271.229 432.585 271.296C432.742 271.36 432.878 271.455 432.993 271.58C433.11 271.703 433.201 271.853 433.265 272.032C433.332 272.211 433.365 272.415 433.365 272.644ZM432.757 272.644C432.757 272.473 432.738 272.329 432.701 272.212C432.666 272.092 432.618 271.996 432.557 271.924C432.496 271.849 432.424 271.796 432.341 271.764C432.258 271.729 432.17 271.712 432.077 271.712C431.984 271.712 431.896 271.729 431.813 271.764C431.73 271.796 431.658 271.849 431.597 271.924C431.538 271.996 431.492 272.092 431.457 272.212C431.422 272.329 431.405 272.473 431.405 272.644C431.405 272.809 431.422 272.951 431.457 273.068C431.492 273.183 431.538 273.276 431.597 273.348C431.658 273.42 431.73 273.472 431.813 273.504C431.896 273.536 431.984 273.552 432.077 273.552C432.17 273.552 432.258 273.536 432.341 273.504C432.424 273.472 432.496 273.42 432.557 273.348C432.618 273.276 432.666 273.183 432.701 273.068C432.738 272.951 432.757 272.809 432.757 272.644ZM435.365 271.384C435.394 271.349 435.428 271.32 435.465 271.296C435.505 271.269 435.56 271.256 435.629 271.256H436.193L431.977 276.876C431.948 276.913 431.913 276.944 431.873 276.968C431.833 276.989 431.785 277 431.729 277H431.149L435.365 271.384ZM436.561 275.644C436.561 275.868 436.525 276.068 436.453 276.244C436.384 276.42 436.29 276.569 436.173 276.692C436.056 276.812 435.918 276.905 435.761 276.972C435.606 277.036 435.444 277.068 435.273 277.068C435.089 277.068 434.918 277.036 434.761 276.972C434.606 276.905 434.472 276.812 434.357 276.692C434.242 276.569 434.152 276.42 434.085 276.244C434.021 276.068 433.989 275.868 433.989 275.644C433.989 275.415 434.021 275.211 434.085 275.032C434.152 274.853 434.242 274.703 434.357 274.58C434.472 274.455 434.606 274.36 434.761 274.296C434.918 274.232 435.089 274.2 435.273 274.2C435.457 274.2 435.626 274.232 435.781 274.296C435.938 274.36 436.074 274.455 436.189 274.58C436.306 274.703 436.397 274.853 436.461 275.032C436.528 275.211 436.561 275.415 436.561 275.644ZM435.953 275.644C435.953 275.473 435.934 275.329 435.897 275.212C435.862 275.095 435.814 275 435.753 274.928C435.692 274.853 435.62 274.8 435.537 274.768C435.454 274.733 435.366 274.716 435.273 274.716C435.177 274.716 435.088 274.733 435.005 274.768C434.925 274.8 434.854 274.853 434.793 274.928C434.734 275 434.688 275.095 434.653 275.212C434.618 275.329 434.601 275.473 434.601 275.644C434.601 275.812 434.618 275.953 434.653 276.068C434.688 276.183 434.734 276.276 434.793 276.348C434.854 276.42 434.925 276.472 435.005 276.504C435.088 276.536 435.177 276.552 435.273 276.552C435.366 276.552 435.454 276.536 435.537 276.504C435.62 276.472 435.692 276.42 435.753 276.348C435.814 276.276 435.862 276.183 435.897 276.068C435.934 275.953 435.953 275.812 435.953 275.644Z" fill="#22C55E"/>
<path d="M170.224 280V275.554H169.18V274.222H170.224V272.926H169.18V271.594H170.224V267.148H173.05L174.454 271.594H176.092V267.148H178.09V271.594H179.116V272.926H178.09V274.222H179.116V275.554H178.09V280H175.246L173.806 275.554H172.222V280H170.224ZM172.222 274.222H173.41L173.014 272.926H172.186L172.222 274.222ZM176.146 277.192H176.236L176.164 275.554H175.678L176.146 277.192ZM172.15 271.594H172.654L172.132 269.866H172.06L172.15 271.594ZM175.3 274.222H176.128L176.092 272.926H174.886L175.3 274.222ZM184.053 280V267.94H182.271C181.659 268.714 180.813 269.02 179.823 269.02V270.496H182.019V280H184.053ZM186.52 282.088C187.87 281.944 188.392 281.242 188.392 280.036V277.444H186.088V280H187.15V280.234C187.15 280.828 186.754 280.954 186.106 281.026L186.52 282.088ZM194.82 280.162C198.186 280.162 199.878 277.498 199.878 273.952C199.878 270.424 198.186 267.76 194.82 267.76C191.454 267.76 189.744 270.424 189.744 273.952C189.744 277.498 191.454 280.162 194.82 280.162ZM194.82 278.218C192.678 278.218 191.886 276.49 191.886 273.952C191.886 271.432 192.678 269.686 194.82 269.686C196.98 269.686 197.754 271.432 197.754 273.952C197.754 276.49 196.98 278.218 194.82 278.218ZM206.58 280.162C209.946 280.162 211.638 277.498 211.638 273.952C211.638 270.424 209.946 267.76 206.58 267.76C203.214 267.76 201.504 270.424 201.504 273.952C201.504 277.498 203.214 280.162 206.58 280.162ZM206.58 278.218C204.438 278.218 203.646 276.49 203.646 273.952C203.646 271.432 204.438 269.686 206.58 269.686C208.74 269.686 209.514 271.432 209.514 273.952C209.514 276.49 208.74 278.218 206.58 278.218ZM218.34 280.162C221.706 280.162 223.398 277.498 223.398 273.952C223.398 270.424 221.706 267.76 218.34 267.76C214.974 267.76 213.264 270.424 213.264 273.952C213.264 277.498 214.974 280.162 218.34 280.162ZM218.34 278.218C216.198 278.218 215.406 276.49 215.406 273.952C215.406 271.432 216.198 269.686 218.34 269.686C220.5 269.686 221.274 271.432 221.274 273.952C221.274 276.49 220.5 278.218 218.34 278.218ZM225.192 282.088C226.542 281.944 227.064 281.242 227.064 280.036V277.444H224.76V280H225.822V280.234C225.822 280.828 225.426 280.954 224.778 281.026L225.192 282.088ZM233.492 280.162C236.858 280.162 238.55 277.498 238.55 273.952C238.55 270.424 236.858 267.76 233.492 267.76C230.126 267.76 228.416 270.424 228.416 273.952C228.416 277.498 230.126 280.162 233.492 280.162ZM233.492 278.218C231.35 278.218 230.558 276.49 230.558 273.952C230.558 271.432 231.35 269.686 233.492 269.686C235.652 269.686 236.426 271.432 236.426 273.952C236.426 276.49 235.652 278.218 233.492 278.218ZM245.252 280.162C248.618 280.162 250.31 277.498 250.31 273.952C250.31 270.424 248.618 267.76 245.252 267.76C241.886 267.76 240.176 270.424 240.176 273.952C240.176 277.498 241.886 280.162 245.252 280.162ZM245.252 278.218C243.11 278.218 242.318 276.49 242.318 273.952C242.318 271.432 243.11 269.686 245.252 269.686C247.412 269.686 248.186 271.432 248.186 273.952C248.186 276.49 247.412 278.218 245.252 278.218ZM257.011 280.162C260.377 280.162 262.069 277.498 262.069 273.952C262.069 270.424 260.377 267.76 257.011 267.76C253.645 267.76 251.935 270.424 251.935 273.952C251.935 277.498 253.645 280.162 257.011 280.162ZM257.011 278.218C254.869 278.218 254.077 276.49 254.077 273.952C254.077 271.432 254.869 269.686 257.011 269.686C259.171 269.686 259.945 271.432 259.945 273.952C259.945 276.49 259.171 278.218 257.011 278.218Z" fill="black"/>
<path d="M384 226L388.899 223.356C391.204 222.112 393.996 222.186 396.232 223.55L397.186 224.132C399.053 225.271 401.411 225.223 403.229 224.008L404.933 222.869C406.245 221.992 408 222.199 409.072 223.356V223.356C410.376 224.764 412.617 224.721 413.865 223.263L419.752 216.391C420.873 215.082 422.854 214.958 424.129 216.117L424.81 216.736C425.555 217.413 426.685 217.434 427.453 216.785V216.785C428.757 215.684 430.753 216.611 430.753 218.318V219.671C430.753 220.694 431.344 221.624 432.271 222.057L435.892 223.751C438.855 225.137 442.339 224.79 444.969 222.847L447 221.347" stroke="#22C55E"/>
<path d="M179.999 223.168C179.873 223.168 179.746 223.121 179.646 223.021L177.279 220.654L176.553 221.748C176.473 221.874 176.333 221.954 176.186 221.968C176.033 221.981 175.886 221.928 175.786 221.821L173.653 219.688C173.459 219.494 173.459 219.174 173.653 218.981C173.846 218.788 174.166 218.788 174.359 218.981L176.059 220.681L176.786 219.588C176.866 219.468 176.999 219.388 177.153 219.368C177.306 219.354 177.453 219.408 177.553 219.514L180.353 222.314C180.546 222.508 180.546 222.828 180.353 223.021C180.253 223.121 180.126 223.168 179.999 223.168Z" fill="#999999"/>
<path d="M180.001 223.165H178.668C178.395 223.165 178.168 222.939 178.168 222.665C178.168 222.392 178.395 222.165 178.668 222.165H179.501V221.332C179.501 221.059 179.728 220.832 180.001 220.832C180.275 220.832 180.501 221.059 180.501 221.332V222.665C180.501 222.939 180.275 223.165 180.001 223.165Z" fill="#999999"/>
<path d="M178.999 228.165H174.999C171.379 228.165 169.832 226.619 169.832 222.999V218.999C169.832 215.379 171.379 213.832 174.999 213.832H178.999C182.619 213.832 184.165 215.379 184.165 218.999V222.999C184.165 226.619 182.619 228.165 178.999 228.165ZM174.999 214.832C171.925 214.832 170.832 215.925 170.832 218.999V222.999C170.832 226.072 171.925 227.165 174.999 227.165H178.999C182.072 227.165 183.165 226.072 183.165 222.999V218.999C183.165 215.925 182.072 214.832 178.999 214.832H174.999Z" fill="#999999"/>
<defs>
<filter id="filter0_d_3905_30858" x="449.837" y="166.248" width="117.214" height="75.1082" filterUnits="userSpaceOnUse" color-interpolation-filters="sRGB">
<feFlood flood-opacity="0" result="BackgroundImageFix"/>
<feColorMatrix in="SourceAlpha" type="matrix" values="0 0 0 0 0 0 0 0 0 0 0 0 0 0 0 0 0 0 127 0" result="hardAlpha"/>
<feOffset dy="4.55198"/>
<feGaussianBlur stdDeviation="13.656"/>
<feComposite in2="hardAlpha" operator="out"/>
<feColorMatrix type="matrix" values="0 0 0 0 0.325 0 0 0 0 0.325 0 0 0 0 0.325 0 0 0 0.15 0"/>
<feBlend mode="normal" in2="BackgroundImageFix" result="effect1_dropShadow_3905_30858"/>
<feBlend mode="normal" in="SourceGraphic" in2="effect1_dropShadow_3905_30858" result="shape"/>
</filter>
<filter id="filter1_f_3905_30858" x="553" y="0" width="546" height="289" filterUnits="userSpaceOnUse" color-interpolation-filters="sRGB">
<feFlood flood-opacity="0" result="BackgroundImageFix"/>
<feBlend mode="normal" in="SourceGraphic" in2="BackgroundImageFix" result="shape"/>
<feGaussianBlur stdDeviation="50" result="effect1_foregroundBlur_3905_30858"/>
</filter>
<filter id="filter2_f_3905_30858" x="0" y="68" width="605" height="389" filterUnits="userSpaceOnUse" color-interpolation-filters="sRGB">
<feFlood flood-opacity="0" result="BackgroundImageFix"/>
<feBlend mode="normal" in="SourceGraphic" in2="BackgroundImageFix" result="shape"/>
<feGaussianBlur stdDeviation="75" result="effect1_foregroundBlur_3905_30858"/>
</filter>
<linearGradient id="paint0_linear_3905_30858" x1="506.735" y1="710.026" x2="506.735" y2="165.241" gradientUnits="userSpaceOnUse">
<stop stop-color="#FFA000"/>
<stop offset="1"/>
</linearGradient>
</defs>
</svg>
