<svg width="30" height="30" viewBox="0 0 30 30" fill="none" xmlns="http://www.w3.org/2000/svg">
<g clip-path="url(#clip0_1617_24627)">
<path d="M23.1113 15C23.1113 23.0081 16.6195 29.5 8.61133 29.5C0.603199 29.5 -5.88867 23.0081 -5.88867 15C-5.88867 6.99187 0.603199 0.5 8.61133 0.5C16.6195 0.5 23.1113 6.99187 23.1113 15Z" stroke="black"/>
<path d="M13.49 4.60547H10.1671C8.19524 4.60547 6.00193 5.43482 6.00193 8.29318C6.01155 9.28914 6.00193 10.243 6.00193 11.3165H3.7207V14.9466H6.07252V25.397H10.3941V14.8776H13.2465L13.5046 11.3063H10.3196C10.3196 11.3063 10.3268 9.71759 10.3196 9.25623C10.3196 8.12667 11.495 8.19136 11.5657 8.19136C12.125 8.19136 13.2125 8.19299 13.4916 8.19136V4.60547H13.49Z" fill="black"/>
</g>
<defs>
<clipPath id="clip0_1617_24627">
<rect width="30" height="30" fill="white"/>
</clipPath>
</defs>
</svg>
