<svg width="256" height="294" viewBox="0 0 256 294" fill="none" xmlns="http://www.w3.org/2000/svg">
<path d="M34.705 109H2.58992C4.05755 108.137 5.22301 107.058 6.08632 105.763C6.94963 104.381 7.59711 102.871 8.02876 101.23C8.54674 99.5899 8.8489 97.9497 8.93523 96.3094C9.10789 94.5828 9.19423 92.9425 9.19423 91.3885V28.4534C9.19423 26.9858 9.10789 25.3887 8.93523 23.662C8.76257 21.9354 8.46041 20.252 8.02876 18.6117C7.59711 16.9714 6.94963 15.4606 6.08632 14.0793C5.22301 12.698 4.05755 11.6189 2.58992 10.8419H67.856L70.0574 41.2735C68.5898 37.3886 66.82 33.7627 64.7481 30.3958C62.6761 27.0289 60.2589 24.1369 57.4963 21.7196C54.7337 19.3023 51.5395 17.4031 47.9136 16.0218C44.374 14.6405 40.3596 13.9498 35.8704 13.9498H28.1007V57.7195C30.4316 57.7195 32.7194 57.6764 34.964 57.59C37.2949 57.5037 39.6258 57.331 41.9567 57.0721C44.7193 56.8131 47.0503 56.3382 48.9495 55.6476C50.9351 54.9569 52.5754 54.0073 53.8704 52.7987C55.2517 51.59 56.374 50.0793 57.2373 48.2663C58.1869 46.367 59.0502 44.0793 59.8272 41.403V81.2878C58.8776 76.1943 57.5394 72.2663 55.8128 69.5037C54.0862 66.7411 51.9279 64.7123 49.338 63.4174C46.7481 62.1224 43.6834 61.3886 40.1438 61.2159C36.6906 60.9569 32.6762 60.8274 28.1007 60.8274V91.3885C28.1007 92.9425 28.1438 94.5828 28.2302 96.3094C28.4028 97.9497 28.705 99.5899 29.1366 101.23C29.6546 102.871 30.3453 104.381 31.2086 105.763C32.0719 107.058 33.2373 108.137 34.705 109ZM124.039 104.986C122.917 105.763 121.881 106.496 120.931 107.187C119.982 107.878 119.032 108.439 118.082 108.871C117.133 109.302 116.097 109.647 114.974 109.906C113.852 110.165 112.557 110.295 111.089 110.295C108.759 110.295 106.428 109.691 104.097 108.482C101.766 107.187 100.125 105.417 99.1758 103.173C97.1902 105.417 94.773 107.187 91.924 108.482C89.0751 109.691 85.7946 110.295 82.0823 110.295C77.5068 110.295 73.7514 109.216 70.8162 107.058C67.9673 104.899 66.5428 101.36 66.5428 96.4389C66.5428 93.072 67.7946 90.1367 70.2982 87.6331C72.8881 85.1295 75.9097 82.8418 79.3629 80.7698C82.9025 78.6979 86.442 76.7123 89.9816 74.813C93.6075 72.8274 96.4564 70.7123 98.5283 68.4677V64.3238C98.5283 63.2015 98.5283 61.7771 98.5283 60.0505C98.5283 58.2375 98.3557 56.5109 98.0104 54.8706C97.665 53.144 97.0607 51.6764 96.1974 50.4677C95.4204 49.1728 94.1686 48.5253 92.442 48.5253C91.4924 48.5253 90.6291 48.7843 89.8521 49.3023C89.0751 49.8203 88.3845 50.4678 87.7802 51.2447C87.2622 52.0217 86.8305 52.885 86.4852 53.8346C86.2262 54.698 86.0967 55.5613 86.0967 56.4246C86.0967 57.9785 86.5715 59.144 87.5212 59.921C88.4708 60.6979 89.6794 61.0864 91.1471 61.0864C90.1974 64.2807 88.5571 67.1296 86.2262 69.6332C83.8953 72.0504 80.9169 73.2591 77.291 73.2591C74.5284 73.2591 72.4133 72.2663 70.9457 70.2807C69.5644 68.2087 68.8737 65.921 68.8737 63.4174C68.8737 60.1368 69.6507 57.3742 71.2047 55.1296C72.8449 52.885 74.8737 51.0289 77.291 49.5613C79.7946 48.0937 82.514 47.0577 85.4492 46.4534C88.4708 45.7627 91.3197 45.4174 93.996 45.4174C97.2765 45.4174 100.341 45.8922 103.19 46.8419C106.039 47.7052 108.5 49.0433 110.571 50.8562C112.73 52.6692 114.413 54.9138 115.622 57.59C116.83 60.18 117.435 63.2015 117.435 66.6548V96.4389C117.435 97.0432 117.478 97.8202 117.564 98.7698C117.651 99.6331 117.823 100.496 118.082 101.36C118.341 102.223 118.73 102.957 119.248 103.561C119.852 104.165 120.586 104.468 121.449 104.468C122.399 104.468 123.262 104.209 124.039 103.691V104.986ZM98.5283 73.0001C97.3197 74.1224 95.9384 75.331 94.3845 76.626C92.9168 77.9209 91.5356 79.3022 90.2406 80.7698C88.9456 82.1511 87.8233 83.6619 86.8737 85.3022C86.0104 86.9425 85.5787 88.7123 85.5787 90.6115C85.5787 91.9928 85.6651 93.3741 85.8377 94.7554C86.0967 96.0504 86.4852 97.2159 87.0032 98.2518C87.6075 99.2878 88.4276 100.151 89.4636 100.842C90.4996 101.446 91.8377 101.748 93.478 101.748C95.3773 101.748 97.0607 101.317 98.5283 100.453V73.0001ZM150.331 110.295C147.914 110.295 145.237 109.993 142.302 109.388C139.453 108.784 136.777 107.835 134.273 106.54C131.77 105.245 129.655 103.561 127.928 101.489C126.288 99.331 125.468 96.741 125.468 93.7195C125.468 90.8705 126.245 88.4101 127.799 86.3382C129.439 84.2662 131.77 83.2303 134.791 83.2303C137.727 83.2303 140.101 84.3526 141.914 86.5972C143.813 88.7554 145.021 91.1295 145.539 93.7195C143.986 93.7195 142.691 94.2374 141.655 95.2734C140.705 96.3094 140.23 97.6043 140.23 99.1583C140.23 100.453 140.532 101.619 141.137 102.655C141.741 103.691 142.518 104.554 143.468 105.245C144.504 105.849 145.626 106.324 146.834 106.669C148.043 107.014 149.209 107.187 150.331 107.187C151.712 107.187 153.093 107.014 154.475 106.669C155.856 106.324 157.108 105.806 158.23 105.115C159.352 104.338 160.259 103.389 160.95 102.266C161.64 101.058 161.985 99.6331 161.985 97.9928C161.985 95.7482 161.122 93.8921 159.396 92.4245C157.755 90.8705 155.683 89.4461 153.18 88.1511C150.676 86.7698 147.957 85.4317 145.021 84.1367C142.086 82.7555 139.367 81.2015 136.863 79.4749C134.36 77.6619 132.245 75.5037 130.518 73.0001C128.878 70.4965 128.058 67.4317 128.058 63.8059C128.058 60.9569 128.705 58.4533 130 56.2951C131.381 54.0505 133.108 52.1944 135.18 50.7267C137.338 49.2591 139.712 48.0937 142.302 47.2303C144.978 46.367 147.611 45.8059 150.201 45.5469C149.079 43.3886 148.518 40.9714 148.518 38.2951C148.518 34.1512 149.424 30.6117 151.237 27.6764C153.137 24.7412 155.554 22.3671 158.489 20.5541C161.511 18.6549 164.834 17.2736 168.46 16.4103C172.173 15.547 175.798 15.1153 179.338 15.1153C184.259 15.1153 188.316 15.5901 191.511 16.5398C194.791 17.4031 197.381 18.8275 199.28 20.8131C201.266 22.7987 202.647 25.4318 203.424 28.7124C204.201 31.9066 204.59 35.8347 204.59 40.4965V46.4534H218.057V49.5613H204.59V95.4029C204.59 97.9065 205.41 99.7194 207.05 100.842C208.777 101.878 210.762 102.396 213.007 102.396C214.216 102.396 215.381 102.266 216.503 102.007C217.712 101.748 218.834 101.317 219.87 100.712V102.007C217.28 104.424 214.259 106.41 210.806 107.964C207.439 109.518 203.942 110.295 200.316 110.295C197.726 110.295 195.482 109.82 193.583 108.871C191.77 107.921 190.259 106.669 189.05 105.115C187.928 103.475 187.065 101.619 186.46 99.5468C185.942 97.3885 185.683 95.1439 185.683 92.813V49.5613H179.338V47.6188C181.496 47.3598 183.741 46.8419 186.072 46.0649C188.403 45.2879 190.518 44.2519 192.417 42.957C194.403 41.5757 196 39.9354 197.208 38.0361C198.503 36.0505 199.151 33.8059 199.151 31.3023C199.151 28.7124 198.503 26.5541 197.208 24.8275C195.913 23.1009 194.273 21.7196 192.288 20.6836C190.388 19.6477 188.273 18.9139 185.942 18.4822C183.611 18.0505 181.41 17.8347 179.338 17.8347C176.834 17.8347 174.244 18.3095 171.568 19.2592C168.892 20.1225 166.432 21.4175 164.187 23.1441C162.029 24.7843 160.216 26.77 158.748 29.1009C157.367 31.3455 156.676 33.8922 156.676 36.7412C156.676 40.5397 157.885 43.6476 160.302 46.0649C162.46 46.4102 164.575 47.0145 166.647 47.8778C168.719 48.6548 170.575 49.6908 172.216 50.9857C173.856 52.1944 175.151 53.7052 176.101 55.5181C177.137 57.2447 177.655 59.2735 177.655 61.6044C177.655 64.2807 176.878 66.3958 175.324 67.9497C173.856 69.5037 171.784 70.2807 169.108 70.2807C166.345 70.2807 164.057 69.4605 162.244 67.8202C160.432 66.1799 159.137 64.108 158.36 61.6044C159.827 61.6044 160.95 61.1728 161.726 60.3095C162.503 59.3598 162.892 58.1944 162.892 56.8131C162.892 54.2231 161.899 52.1944 159.914 50.7267C157.928 49.2591 155.727 48.5253 153.309 48.5253C150.46 48.5253 148.086 49.4318 146.187 51.2447C144.288 52.9713 143.338 55.2591 143.338 58.108C143.338 60.2663 144.201 62.1224 145.928 63.6764C147.741 65.2303 149.942 66.6979 152.532 68.0792C155.209 69.3742 158.057 70.6691 161.079 71.9641C164.187 73.2591 167.036 74.813 169.626 76.626C172.302 78.4389 174.503 80.5972 176.23 83.1008C178.043 85.518 178.949 88.4964 178.949 92.036C178.949 95.5756 177.957 98.554 175.971 100.971C174.072 103.302 171.698 105.158 168.849 106.54C166 107.921 162.892 108.871 159.525 109.388C156.244 109.993 153.18 110.295 150.331 110.295Z" fill="#1E2C31"/>
<path d="M2.58992 256C4.05755 255.223 5.22301 254.144 6.08632 252.763C6.94963 251.381 7.59711 249.871 8.02876 248.23C8.46041 246.59 8.76257 244.906 8.93523 243.18C9.10789 241.453 9.19423 239.856 9.19423 238.389V175.453C9.19423 173.899 9.10789 172.302 8.93523 170.662C8.8489 168.935 8.54674 167.252 8.02876 165.612C7.59711 163.971 6.94963 162.504 6.08632 161.209C5.22301 159.828 4.05755 158.705 2.58992 157.842H67.856L70.0574 184.389C67.9855 178.95 65.525 174.676 62.6761 171.569C59.8272 168.374 56.633 166 53.0934 164.446C49.5539 162.892 45.669 161.943 41.4388 161.597C37.2086 161.166 32.7625 160.95 28.1007 160.95V206.014C32.6762 206.014 36.6906 205.928 40.1438 205.756C43.6834 205.497 46.7481 204.72 49.338 203.425C51.9279 202.13 54.0862 200.101 55.8128 197.338C57.5394 194.576 58.8776 190.648 59.8272 185.554V225.439C59.0502 222.763 58.1869 220.518 57.2373 218.705C56.374 216.806 55.2517 215.252 53.8704 214.043C52.5754 212.835 50.9351 211.885 48.9495 211.194C47.0503 210.504 44.7193 210.029 41.9567 209.77C39.6258 209.511 37.2949 209.338 34.964 209.252C32.7194 209.166 30.4316 209.122 28.1007 209.122V252.892H39.7553C44.2445 252.892 48.2589 252.201 51.7985 250.82C55.4243 249.439 58.6186 247.54 61.3812 245.122C64.1438 242.705 66.561 239.813 68.6329 236.446C70.7049 233.079 72.4747 229.453 73.9423 225.568L71.7409 256H2.58992ZM135.673 251.986C134.551 252.763 133.515 253.496 132.566 254.187C131.616 254.878 130.666 255.439 129.717 255.871C128.767 256.302 127.731 256.647 126.609 256.906C125.486 257.165 124.192 257.295 122.724 257.295C120.393 257.295 118.062 256.691 115.731 255.482C113.4 254.187 111.76 252.417 110.81 250.173C108.825 252.417 106.407 254.187 103.558 255.482C100.71 256.691 97.429 257.295 93.7167 257.295C89.1412 257.295 85.3858 256.216 82.4506 254.058C79.6017 251.899 78.1772 248.36 78.1772 243.439C78.1772 240.072 79.429 237.137 81.9326 234.633C84.5225 232.13 87.5441 229.842 90.9973 227.77C94.5369 225.698 98.0765 223.712 101.616 221.813C105.242 219.827 108.091 217.712 110.163 215.468V211.324C110.163 210.202 110.163 208.777 110.163 207.05C110.163 205.238 109.99 203.511 109.645 201.871C109.299 200.144 108.695 198.676 107.832 197.468C107.055 196.173 105.803 195.525 104.076 195.525C103.127 195.525 102.263 195.784 101.487 196.302C100.71 196.82 100.019 197.468 99.4146 198.245C98.8966 199.022 98.4649 199.885 98.1196 200.835C97.8606 201.698 97.7311 202.561 97.7311 203.425C97.7311 204.979 98.2059 206.144 99.1556 206.921C100.105 207.698 101.314 208.086 102.781 208.086C101.832 211.281 100.192 214.13 97.8606 216.633C95.5297 219.05 92.5513 220.259 88.9254 220.259C86.1628 220.259 84.0477 219.266 82.5801 217.281C81.1988 215.209 80.5081 212.921 80.5081 210.417C80.5081 207.137 81.2851 204.374 82.8391 202.13C84.4794 199.885 86.5081 198.029 88.9254 196.561C91.429 195.094 94.1484 194.058 97.0836 193.453C100.105 192.763 102.954 192.417 105.63 192.417C108.911 192.417 111.976 192.892 114.825 193.842C117.674 194.705 120.134 196.043 122.206 197.856C124.364 199.669 126.048 201.914 127.256 204.59C128.465 207.18 129.069 210.202 129.069 213.655V243.439C129.069 244.043 129.112 244.82 129.199 245.77C129.285 246.633 129.458 247.496 129.717 248.36C129.976 249.223 130.364 249.957 130.882 250.561C131.486 251.165 132.22 251.468 133.084 251.468C134.033 251.468 134.897 251.209 135.673 250.691V251.986ZM110.163 220C108.954 221.122 107.573 222.331 106.019 223.626C104.551 224.921 103.17 226.302 101.875 227.77C100.58 229.151 99.4577 230.662 98.5081 232.302C97.6448 233.942 97.2131 235.712 97.2131 237.612C97.2131 238.993 97.2995 240.374 97.4721 241.755C97.7311 243.05 98.1196 244.216 98.6376 245.252C99.2419 246.288 100.062 247.151 101.098 247.842C102.134 248.446 103.472 248.748 105.112 248.748C107.012 248.748 108.695 248.317 110.163 247.453V220ZM160.701 257.295C158.283 257.295 155.607 256.993 152.672 256.388C149.823 255.784 147.147 254.835 144.643 253.54C142.14 252.245 140.024 250.561 138.298 248.489C136.658 246.331 135.837 243.741 135.837 240.719C135.837 237.871 136.614 235.41 138.168 233.338C139.809 231.266 142.14 230.23 145.161 230.23C148.096 230.23 150.47 231.353 152.283 233.597C154.183 235.755 155.391 238.13 155.909 240.719C154.355 240.719 153.06 241.237 152.024 242.273C151.075 243.309 150.6 244.604 150.6 246.158C150.6 247.453 150.902 248.619 151.506 249.655C152.111 250.691 152.888 251.554 153.837 252.245C154.873 252.849 155.996 253.324 157.204 253.669C158.413 254.014 159.578 254.187 160.701 254.187C162.082 254.187 163.463 254.014 164.845 253.669C166.226 253.324 167.478 252.806 168.6 252.115C169.722 251.338 170.629 250.389 171.319 249.266C172.01 248.058 172.355 246.633 172.355 244.993C172.355 242.748 171.492 240.892 169.765 239.424C168.125 237.871 166.053 236.446 163.55 235.151C161.046 233.77 158.327 232.432 155.391 231.137C152.456 229.755 149.737 228.201 147.233 226.475C144.729 224.662 142.614 222.504 140.888 220C139.247 217.496 138.427 214.432 138.427 210.806C138.427 207.525 139.247 204.763 140.888 202.518C142.614 200.187 144.729 198.288 147.233 196.82C149.737 195.266 152.499 194.144 155.521 193.453C158.629 192.763 161.521 192.417 164.197 192.417C166.614 192.417 169.204 192.72 171.967 193.324C174.816 193.842 177.406 194.748 179.737 196.043C182.154 197.338 184.139 199.022 185.693 201.094C187.247 203.079 188.024 205.583 188.024 208.604C188.024 211.281 187.247 213.396 185.693 214.95C184.226 216.504 182.154 217.281 179.478 217.281C176.715 217.281 174.427 216.461 172.614 214.82C170.801 213.18 169.506 211.108 168.729 208.604C170.197 208.604 171.319 208.173 172.096 207.309C172.873 206.36 173.262 205.194 173.262 203.813C173.262 201.223 172.269 199.194 170.283 197.727C168.298 196.259 166.096 195.525 163.679 195.525C160.83 195.525 158.456 196.432 156.557 198.245C154.657 199.971 153.708 202.259 153.708 205.108C153.708 207.266 154.571 209.122 156.298 210.676C158.111 212.23 160.312 213.698 162.902 215.079C165.578 216.374 168.427 217.669 171.449 218.964C174.557 220.259 177.406 221.813 179.996 223.626C182.672 225.439 184.873 227.597 186.6 230.101C188.413 232.518 189.319 235.496 189.319 239.036C189.319 242.576 188.326 245.554 186.341 247.971C184.442 250.302 182.068 252.158 179.219 253.54C176.37 254.921 173.262 255.871 169.895 256.388C166.614 256.993 163.55 257.295 160.701 257.295ZM214.803 256L203.019 226.604C202.242 224.619 201.206 221.943 199.911 218.576C198.616 215.209 197.191 211.799 195.637 208.345C194.083 204.892 192.357 201.784 190.457 199.022C188.644 196.173 186.745 194.317 184.76 193.453H220.501C218.342 194.144 216.745 195.439 215.709 197.338C214.673 199.238 214.155 201.309 214.155 203.554C214.155 205.367 214.716 208.043 215.839 211.583C216.961 215.122 218.256 218.835 219.724 222.719C221.278 226.604 222.788 230.36 224.256 233.986C225.81 237.525 227.019 240.288 227.882 242.273C228.831 239.856 229.824 237.353 230.86 234.763C231.983 232.086 232.975 229.41 233.839 226.734C234.788 223.971 235.565 221.209 236.17 218.446C236.774 215.684 237.076 213.007 237.076 210.417C237.076 206.273 236.17 202.777 234.357 199.928C232.544 197.079 229.695 194.921 225.81 193.453H255.853C253.867 194.317 251.925 196.173 250.026 199.022C248.213 201.871 246.486 205.022 244.846 208.475C243.292 211.842 241.867 215.252 240.572 218.705C239.277 222.072 238.242 224.791 237.465 226.863L225.81 256C224.688 258.849 223.436 261.914 222.054 265.194C220.76 268.475 219.162 271.54 217.263 274.388C215.45 277.237 213.249 279.611 210.659 281.511C208.069 283.41 204.918 284.36 201.206 284.36C199.22 284.36 197.321 284.101 195.508 283.583C193.781 283.151 192.227 282.417 190.846 281.381C189.551 280.432 188.515 279.18 187.738 277.626C186.961 276.072 186.573 274.216 186.573 272.058C186.573 270.935 186.745 269.64 187.091 268.173C187.436 266.791 187.954 265.496 188.644 264.288C189.421 263.079 190.328 262.043 191.364 261.18C192.4 260.403 193.609 260.014 194.99 260.014C194.99 263.122 195.983 265.41 197.968 266.878C200.04 268.345 202.501 269.079 205.349 269.079C206.558 269.079 208.026 268.863 209.752 268.432C211.479 268 213.119 267.352 214.673 266.489C216.314 265.712 217.695 264.719 218.817 263.511C219.939 262.302 220.501 260.921 220.501 259.367C220.501 257.986 219.81 257.079 218.429 256.647C217.047 256.216 215.839 256 214.803 256Z" fill="url(#paint0_linear_2393_28145)"/>
<path d="M135.584 175.522C149.576 175.522 156.755 169.075 156.755 158.234V151.421H165.105V146.953H156.755V138.602H151.627V146.953H134.192C126.867 146.953 122.618 144.462 122.618 138.602C122.618 132.741 125.768 130.251 133.753 130.251H145.62V125.416H134.266C123.717 125.416 117.417 129.738 117.417 137.869C117.417 143.217 120.641 147.465 126.794 148.564V149.077C119.908 150.322 115.952 154.791 115.952 161.53C115.952 170.687 123.351 175.522 135.584 175.522ZM135.731 170.76C125.256 170.76 121.153 167.757 121.153 161.091C121.153 154.425 125.549 151.421 132.947 151.421H151.627V158.454C151.627 167.171 147.232 170.76 135.731 170.76Z" fill="#1E2C31"/>
<defs>
<linearGradient id="paint0_linear_2393_28145" x1="13.0648" y1="-15.6875" x2="258.808" y2="-8.94821" gradientUnits="userSpaceOnUse">
<stop stop-color="#0C6B8A"/>
<stop offset="1" stop-color="#FFCC00"/>
</linearGradient>
</defs>
</svg>
