<svg width="747" height="90" viewBox="0 0 747 90" fill="none" xmlns="http://www.w3.org/2000/svg">
<path d="M733.605 10.655C733.609 12.099 733.609 13.5429 733.613 14.9868C733.617 16.2315 733.209 17.4439 732.055 18.0795C730.704 18.8176 728.79 18.6317 727.283 18.4761C727.226 18.4723 727.173 18.4647 727.12 18.4609C727.169 17.4211 727.15 16.3719 727.101 15.3359C727.037 13.9318 727.888 12.2583 729.395 12.0212C731.032 11.7631 732.456 11.5886 733.228 10.6854C733.254 10.6588 733.277 10.6323 733.3 10.6019C733.414 10.4482 733.535 10.2983 733.657 10.1484C733.619 10.3116 733.605 10.4843 733.605 10.655Z" fill="#8807F7"/>
<path d="M728.656 27.8762C729.783 27.9483 730.918 27.9312 732.047 27.9502C733.364 27.973 734.711 28.1361 735.982 27.9047C737.805 27.5726 739.857 26.383 740.534 24.6203C741.162 22.9885 740.866 21.0399 739.784 19.67C739.709 19.5751 739.629 19.484 739.542 19.393C738.449 18.1976 736.752 17.5734 735.142 17.7878C733.136 18.0534 731.37 19.6301 730.85 21.5826C730.525 22.8007 730.808 24.0985 730.618 25.3394C730.463 26.3678 729.586 27.4208 728.656 27.8762Z" fill="#8807F7"/>
<path d="M739.925 6C739.825 6.30548 739.946 6.63752 740.077 6.93162C741.749 10.6619 746.232 13.1854 746.079 17.6651C746.008 19.6916 744.997 22.0728 743.307 23.2738C743.183 23.3611 743.071 23.4389 742.927 23.4787C742.605 22.8754 742.57 21.9912 742.295 21.3252C741.952 20.4904 741.496 19.6688 740.861 19.0218C740.252 18.4032 739.489 18.0465 738.88 17.4394C737.601 16.1624 736.795 14.4111 736.688 12.6048C736.533 10.0282 737.821 7.47237 739.925 6Z" fill="#8807F7"/>
<path d="M728.29 14.9961C728.29 14.9961 728.231 13.8709 729.382 13.9279C729.384 13.9279 729.804 15.1574 728.29 14.9961Z" fill="#8807F7" stroke="white" stroke-width="0.270519" stroke-miterlimit="10"/>
<path d="M727.909 24.5129C728.963 24.5129 729.818 23.6583 729.818 22.6041C729.818 21.5499 728.963 20.6953 727.909 20.6953C726.855 20.6953 726 21.5499 726 22.6041C726 23.6583 726.855 24.5129 727.909 24.5129Z" fill="#8807F7"/>
<path d="M13.4 59C11.15 57.7 10.85 54.55 10.85 52.2V40.4C17.9 40.4 21.6 40.4 23.1 48.3V32.9C21.95 37 20.5 38.5 16.2 38.95C14.4 39.15 12.65 39.2 10.85 39.2V22.3H13.85C20.75 22.3 24.8 26.8 27.05 32.85L26.2 21.1H1C3.2 22.35 3.55 25.6 3.55 27.9V52.2C3.55 54.55 3.25 57.7 1 59H13.4ZM43.1832 45.1V52.2C43.1832 54.45 42.7832 57.75 40.6332 59H52.9832C50.7332 57.75 50.4832 54.5 50.4832 52.2V41.7C50.4832 40 52.2332 38.15 53.9832 38.15C56.4332 38.15 57.1332 40.55 57.1332 42.6V52.2C57.1332 54.45 56.7832 57.75 54.6332 59H66.9832C64.7832 57.75 64.4332 54.5 64.4332 52.2V42.4C64.4332 38.25 62.2332 34.45 57.7332 34.45C57.1332 34.45 51.0832 38.05 50.4832 38.7V34.85C51.1332 33.8 51.4332 32.55 51.4332 31.3C51.4332 25.45 46.0832 22.75 40.8832 22.75C36.5332 22.75 30.1332 24.75 30.1332 30.05C30.1332 32.05 31.7832 33.7 33.7832 33.7C35.7832 33.7 37.4332 32.05 37.4332 30.05C37.4332 28.05 35.7832 26.4 33.7832 26.4C35.2832 24.6 37.8832 23.9 40.1832 23.9C44.3332 23.9 48.5332 26.5 48.5332 31C48.5332 35.5 44.2832 37.9 40.3832 38.55C42.1332 40.65 43.1832 42.25 43.1832 45.1ZM27.7832 38.55C29.5332 40.65 30.5832 42.25 30.5832 45.1V52.2C30.5832 54.45 30.1832 57.75 28.0332 59H40.3832C38.1332 57.75 37.8832 54.5 37.8832 52.2V34.85C33.8332 37.2 32.4332 37.8 27.7832 38.55ZM71.5422 45.2C74.3422 45.2 76.1422 42.95 76.8922 40.5C75.7422 40.5 74.9422 39.9 74.9422 38.7C74.9422 37.4 75.9422 35.65 77.3922 35.65C80.3922 35.65 79.7422 41.9 79.7422 43.85C75.4422 45.5 67.3922 48.45 67.3922 54.05C67.3922 62.25 76.4422 64 82.9422 64C89.8422 64 99.9422 61.75 99.9422 53.05V45.1C99.9422 44 99.8922 42.8 99.9422 41.7C99.9922 39.95 101.642 38.15 103.442 38.15C105.892 38.15 106.592 40.55 106.592 42.6V52.2C106.592 54.45 106.242 57.75 104.092 59H116.442C114.242 57.75 113.892 54.5 113.892 52.2V42.4C113.892 38.25 111.692 34.45 107.192 34.45C106.592 34.45 100.542 38.05 99.9422 38.7V34.85C95.8922 37.15 94.4922 37.8 89.8422 38.55C91.5922 40.65 92.6422 42.25 92.6422 45.1V52.7C92.6422 58.25 89.5922 62.65 83.7422 62.65C78.4922 62.65 74.7422 59.2 74.7422 53.85C74.7422 50 76.3922 47 79.7422 45.1V55.55C79.7422 58 82.3922 59.5 84.5922 59.5C86.7922 59.5 87.8922 58.7 89.5922 57.45V56.95C89.2922 57.15 88.9422 57.25 88.5922 57.25C87.1922 57.25 87.0422 55.1 87.0422 54.15V42.65C87.0422 37.3 83.0922 34.45 77.9922 34.45C73.7922 34.45 68.2922 36.4 68.2922 41.4C68.2922 43.35 69.4422 45.2 71.5422 45.2ZM128.805 42.65C129.655 45.45 131.305 47.3 134.355 47.3C137.055 47.3 138.605 45.55 138.605 42.95C138.605 37.45 133.105 34.45 128.205 34.45C121.105 34.45 116.855 40.5 116.855 47.15C116.855 54.05 121.855 59.5 128.855 59.5C133.605 59.5 137.205 57.35 139.505 53.2L139.105 52.9C138.055 53.95 134.955 54.3 133.555 54.3C127.155 54.3 124.305 48.4 124.305 42.75C124.305 40.8 124.905 35.65 127.705 35.65C129.955 35.65 132.155 37.85 132.155 40.1C132.155 42 130.455 42.65 128.805 42.65ZM145.99 33.7C147.99 33.7 149.64 32.05 149.64 30.05C149.64 28.05 147.99 26.4 145.99 26.4C143.99 26.4 142.34 28.05 142.34 30.05C142.34 32.05 143.99 33.7 145.99 33.7ZM152.59 59C150.34 57.75 150.09 54.5 150.09 52.2V34.85C146.04 37.2 144.64 37.8 139.99 38.55C141.74 40.65 142.79 42.25 142.79 45.1V52.2C142.79 54.45 142.39 57.75 140.24 59H152.59ZM175.188 56.95C174.888 57.15 174.538 57.25 174.188 57.25C172.788 57.25 172.638 55.1 172.638 54.15V42.65C172.638 37.3 168.688 34.45 163.588 34.45C159.388 34.45 153.888 36.4 153.888 41.4C153.888 43.35 155.038 45.2 157.138 45.2C159.938 45.2 161.738 42.95 162.488 40.5C161.338 40.5 160.538 39.9 160.538 38.7C160.538 37.4 161.538 35.65 162.988 35.65C165.588 35.65 165.338 40.05 165.338 41.75V43.35C162.138 46.85 152.988 48.95 152.988 54.15C152.988 57.9 155.488 59.5 158.988 59.5C161.838 59.5 164.038 58.5 165.588 56.75C166.288 58.45 168.388 59.5 170.188 59.5C172.438 59.5 173.488 58.7 175.188 57.45V56.95ZM165.338 55.7C164.838 56 164.188 56.2 163.388 56.2C160.838 56.2 160.338 54 160.338 51.9C160.338 49 163.438 46.85 165.338 45.1V55.7ZM185.539 23.55C181.489 25.9 180.089 26.5 175.439 27.25C177.189 29.35 178.239 30.95 178.239 33.8V52.2C178.239 54.5 177.889 57.75 175.689 59H188.089C185.839 57.75 185.539 54.5 185.539 52.2V23.55ZM202.7 46.8C202.7 48.6 202.7 50.45 202.65 52.25C202.5 55.5 202.4 58 198.9 59H211.8C206.2 57.3 203.9 52.35 203.9 46.8V30.55L215.95 59H217.45L227.9 30.55V52.2C227.9 54.45 227.5 57.75 225.35 59H237.7C235.45 57.75 235.2 54.5 235.2 52.2V27.9C235.2 25.6 235.55 22.4 237.7 21.1L230.1 21.15L219.75 49.2L207.85 21.1H198.9C200.95 22.3 202.7 25.55 202.7 27.9V46.8ZM243.271 45.2C246.071 45.2 247.871 42.95 248.621 40.5C247.471 40.5 246.671 39.9 246.671 38.7C246.671 37.4 247.671 35.65 249.121 35.65C252.121 35.65 251.471 41.9 251.471 43.85C247.171 45.5 239.121 48.45 239.121 54.05C239.121 62.25 248.171 64 254.671 64C261.571 64 271.671 61.75 271.671 53.05V45.1C271.671 44 271.621 42.8 271.671 41.7C271.721 39.95 273.371 38.15 275.171 38.15C277.621 38.15 278.321 40.55 278.321 42.6V52.2C278.321 54.45 277.971 57.75 275.821 59H288.171C285.971 57.75 285.621 54.5 285.621 52.2V42.4C285.621 38.25 283.421 34.45 278.921 34.45C278.321 34.45 272.271 38.05 271.671 38.7V34.85C267.621 37.15 266.221 37.8 261.571 38.55C263.321 40.65 264.371 42.25 264.371 45.1V52.7C264.371 58.25 261.321 62.65 255.471 62.65C250.221 62.65 246.471 59.2 246.471 53.85C246.471 50 248.121 47 251.471 45.1V55.55C251.471 58 254.121 59.5 256.321 59.5C258.521 59.5 259.621 58.7 261.321 57.45V56.95C261.021 57.15 260.671 57.25 260.321 57.25C258.921 57.25 258.771 55.1 258.771 54.15V42.65C258.771 37.3 254.821 34.45 249.721 34.45C245.521 34.45 240.021 36.4 240.021 41.4C240.021 43.35 241.171 45.2 243.271 45.2ZM310.784 56.95C310.484 57.15 310.134 57.25 309.784 57.25C308.384 57.25 308.234 55.1 308.234 54.15V42.65C308.234 37.3 304.284 34.45 299.184 34.45C294.984 34.45 289.484 36.4 289.484 41.4C289.484 43.35 290.634 45.2 292.734 45.2C295.534 45.2 297.334 42.95 298.084 40.5C296.934 40.5 296.134 39.9 296.134 38.7C296.134 37.4 297.134 35.65 298.584 35.65C301.184 35.65 300.934 40.05 300.934 41.75V43.35C297.734 46.85 288.584 48.95 288.584 54.15C288.584 57.9 291.084 59.5 294.584 59.5C297.434 59.5 299.634 58.5 301.184 56.75C301.884 58.45 303.984 59.5 305.784 59.5C308.034 59.5 309.084 58.7 310.784 57.45V56.95ZM300.934 55.7C300.434 56 299.784 56.2 298.984 56.2C296.434 56.2 295.934 54 295.934 51.9C295.934 49 299.034 46.85 300.934 45.1V55.7ZM322.759 34.45C317.309 34.45 310.759 37.15 310.759 43.5C310.759 47 312.709 49.4 315.409 50.85C314.609 52.15 312.009 56.35 312.009 56.95C312.009 63.35 328.509 59.4 328.509 65.55C328.509 68.4 325.009 69.3 322.709 69.3C320.859 69.3 316.809 68.4 316.809 65.95C316.809 65.45 317.059 65 317.409 64.65C316.859 62.9 315.559 61.35 313.609 61.35C311.759 61.35 310.359 62.55 310.359 64.45C310.359 69.5 318.559 70.5 322.159 70.5C326.959 70.5 335.909 69.5 335.909 63C335.909 51.9 315.759 56.95 315.759 52.6C315.759 52.1 315.909 51.65 316.259 51.3C318.259 52.2 320.609 52.6 322.759 52.6C328.309 52.6 334.659 49.9 334.659 43.5C334.659 38.25 330.209 35.5 325.609 34.7C326.509 33.8 327.659 33.15 328.959 33.15C329.959 33.15 330.909 33.65 331.259 34.65C331.509 34.7 331.859 34.75 332.109 34.75C334.259 34.75 336.209 33.45 336.209 31.15C336.209 29.15 334.609 27.9 332.659 27.9C329.109 27.9 326.309 31.55 324.609 34.55C324.009 34.5 323.359 34.45 322.759 34.45ZM324.359 51.25C319.859 51.25 317.659 44.2 317.659 40.6C317.659 38.65 318.209 35.9 320.659 35.9C325.359 35.9 327.709 42.3 327.709 46.2C327.709 48.35 327.009 51.25 324.359 51.25ZM358.825 46.15V44.95C358.825 38.5 354.675 34.45 348.225 34.45C341.125 34.45 336.875 40.5 336.875 47.15C336.875 54.05 341.875 59.5 348.875 59.5C353.825 59.5 356.625 57.35 358.925 53.2L358.525 52.9C357.475 53.95 354.375 54.3 352.975 54.3C348.125 54.3 345.425 50.9 344.475 46.75L358.825 46.15ZM352.125 40.95C352.125 43.4 350.475 44.6 348.225 44.95C346.875 45.15 345.575 45.35 344.225 45.5C344.125 44.75 344.075 44 344.075 43.25C344.075 41.2 344.825 35.65 347.725 35.65C350.275 35.65 352.125 38.65 352.125 40.95ZM383.124 39.6C382.324 36.7 380.224 34.45 376.774 34.45C376.224 34.45 370.424 37.85 369.524 38.75V34.85C365.474 37.2 364.074 37.8 359.424 38.55C361.174 40.65 362.224 42.25 362.224 45.1V52.2C362.224 54.45 361.824 57.75 359.674 59H372.024C369.774 57.75 369.524 54.5 369.524 52.2V41.7C369.874 39.85 370.974 38.15 373.024 38.15C375.474 38.15 376.174 40.55 376.174 42.6V52.2C376.174 54.45 375.824 57.75 373.674 59H386.024C383.824 57.75 383.474 54.5 383.474 52.2V42.6C383.574 40.5 384.674 38.15 387.074 38.15C389.524 38.15 390.224 40.55 390.224 42.6V52.2C390.224 54.45 389.874 57.75 387.724 59H400.074C397.874 57.75 397.524 54.5 397.524 52.2V42.4C397.524 38.25 395.324 34.45 390.824 34.45C390.224 34.45 383.524 38.55 383.074 39.25L383.124 39.6ZM422.448 46.15V44.95C422.448 38.5 418.298 34.45 411.848 34.45C404.748 34.45 400.498 40.5 400.498 47.15C400.498 54.05 405.498 59.5 412.498 59.5C417.448 59.5 420.248 57.35 422.548 53.2L422.148 52.9C421.098 53.95 417.998 54.3 416.598 54.3C411.748 54.3 409.048 50.9 408.098 46.75L422.448 46.15ZM415.748 40.95C415.748 43.4 414.098 44.6 411.848 44.95C410.498 45.15 409.198 45.35 407.848 45.5C407.748 44.75 407.698 44 407.698 43.25C407.698 41.2 408.448 35.65 411.348 35.65C413.898 35.65 415.748 38.65 415.748 40.95ZM435.647 59C433.397 57.75 433.147 54.5 433.147 52.2V41.7C433.497 39.85 434.597 38.15 436.647 38.15C439.097 38.15 439.797 40.55 439.797 42.6V52.2C439.797 54.45 439.447 57.75 437.297 59H449.647C447.447 57.75 447.097 54.5 447.097 52.2V42.4C447.097 38.25 444.897 34.45 440.397 34.45C439.847 34.45 434.047 37.85 433.147 38.75V34.85C429.097 37.2 427.697 37.8 423.047 38.55C424.797 40.65 425.847 42.25 425.847 45.1V52.2C425.847 54.45 425.447 57.75 423.297 59H435.647ZM458.682 28.6H457.932C456.282 33.15 453.632 34.85 448.932 35.3V36.05H451.382V52.75C451.382 56.4 453.032 59.5 457.032 59.5C459.782 59.5 462.582 58.15 464.582 56.3V55.8C463.782 56.25 462.832 56.45 461.932 56.45C460.232 56.45 458.682 55.7 458.682 53.75V36.05H463.882V34.85H458.682V28.6ZM488.158 21.15C495.958 21.15 499.708 27.45 499.708 34.6C499.708 40 497.008 45.15 495.108 50.1L486.758 27.5C486.358 26.4 486.008 25.25 486.008 24.05C486.008 22.8 486.458 21.15 488.008 21.15H474.658C476.808 22.35 478.458 26.3 479.308 28.55L490.908 59H492.758L499.458 41.95L505.958 59H507.808L517.658 34.05C518.908 30.85 522.508 22.55 525.558 21.15H510.158C514.858 21.15 517.008 24.75 517.008 29.1C517.008 31.25 516.508 33.35 515.758 35.4C514.008 40.35 512.008 45.2 510.158 50.1L503.408 31.8C504.758 27.8 507.108 21.15 509.908 21.15H488.158ZM527.887 30.05C527.887 32.05 529.537 33.7 531.537 33.7C533.537 33.7 535.187 32.05 535.187 30.05C535.187 28.05 533.537 26.4 531.537 26.4C533.237 24.35 536.387 23.95 538.887 23.95C542.187 23.95 545.537 25.55 545.537 29.3C545.537 29.45 545.537 29.85 545.487 29.95C544.287 33.55 541.637 34.95 538.037 35.3V36.05H539.487V52.75C539.487 56.4 541.137 59.5 545.137 59.5C547.887 59.5 550.687 58.15 552.687 56.3V55.8C551.887 56.25 550.937 56.45 550.037 56.45C548.337 56.45 546.787 55.7 546.787 53.75V36.05H551.987V34.85H546.787V33.6C547.937 32.5 548.637 31 548.637 29.4C548.637 24.4 542.937 22.75 538.887 22.75C534.437 22.75 527.887 24.55 527.887 30.05ZM535.637 34.85C531.587 37.2 530.187 37.8 525.537 38.55C527.287 40.65 528.337 42.25 528.337 45.1V52.2C528.337 54.45 527.937 57.75 525.787 59H538.137C535.887 57.75 535.637 54.5 535.637 52.2V34.85ZM555.73 52.2C555.73 54.45 555.33 57.75 553.18 59H565.53C563.28 57.75 563.03 54.5 563.03 52.2V42.6C563.03 40.55 564.33 38.15 566.63 38.15C569.08 38.15 569.78 40.55 569.78 42.6V52.2C569.78 54.45 569.43 57.75 567.28 59H579.63C577.43 57.75 577.08 54.5 577.08 52.2V42.4C577.08 38.25 574.88 34.45 570.38 34.45C569.78 34.45 563.48 38.2 563.03 38.85V23.55C559.78 25.4 556.63 26.65 552.93 27.25C554.68 29.35 555.73 30.95 555.73 33.8V52.2ZM598.153 50.2C598.153 49.4 598.303 48.4 598.603 47.2C600.753 46.8 602.853 46.45 605.053 46.45C607.103 46.45 609.153 46.75 611.153 47.15L613.203 52.65C613.553 53.65 613.953 54.65 613.953 55.75C613.953 57.2 613.253 58.25 612.003 59H625.303C623.153 57.8 621.503 53.85 620.653 51.6L609.053 21.15H607.203L597.353 46.1C596.103 49.25 592.503 57.65 589.453 59H604.853C600.803 57.55 598.153 54.65 598.153 50.2ZM610.703 45.85C608.853 45.5 606.953 45.25 605.053 45.25C603.003 45.25 600.953 45.55 598.953 45.95C600.403 40.75 603.553 33.5 604.853 30.05L610.703 45.85ZM634.905 40.35V34.85C630.855 37.2 629.455 37.8 624.805 38.55C626.555 40.65 627.605 42.25 627.605 45.1V52.2C627.605 54.45 627.205 57.75 625.055 59H637.405C635.205 57.75 634.905 54.5 634.905 52.2V43.1C634.905 41.65 636.405 40.4 637.755 40.4C639.505 40.4 640.805 41.75 640.805 43.45C640.805 43.9 640.705 44.3 640.605 44.7C643.905 44.7 646.605 42.55 646.605 39.15C646.605 36.55 644.905 34.45 642.205 34.45C638.805 34.45 636.205 37.5 634.905 40.35ZM660.925 27.25C662.675 29.35 663.625 31 663.625 33.8V36.05C662.775 35.65 659.575 34.3 658.675 34.3C651.425 34.3 647.275 40.55 647.275 47.3C647.275 53.75 651.075 59.45 658.025 59.45C660.925 59.45 662.525 58.55 663.625 56.95V59H673.425C671.175 57.75 670.925 54.5 670.925 52.2V25.7C672.725 23.25 675.375 21.45 678.525 21.45C682.025 21.45 684.825 23.55 684.825 27.25C684.825 29.7 683.475 31.85 681.375 33.1C682.375 32.4 683.075 31.3 683.075 30.05C683.075 28.05 681.425 26.4 679.425 26.4C677.425 26.4 675.775 28.05 675.775 30.05C675.775 32.05 677.425 33.7 679.425 33.7C680.525 33.7 681.725 32.95 682.675 32.45C685.325 31.05 687.475 28.5 687.475 25.35C687.475 21.4 684.075 19.65 680.525 19.65C673.075 19.65 668.075 26.05 660.925 27.25ZM686.025 59C683.775 57.75 683.525 54.5 683.525 52.2V34.85C679.475 37.2 678.075 37.8 673.425 38.55C675.175 40.65 676.225 42.25 676.225 45.1V52.2C676.225 54.45 675.825 57.75 673.675 59H686.025ZM663.625 54.25C663.375 54.25 663.075 54.25 662.725 54.25C656.925 54.25 654.175 48.9 654.175 43.75C654.175 40.45 655.575 35.55 659.625 35.55C662.975 35.55 663.625 39.45 663.625 42.05V54.25ZM708.785 23.55C706.835 24.4 704.785 24.9 702.635 24.9C694.585 24.9 688.035 18.35 680.535 18.35C677.085 18.35 672.535 19.75 672.535 23.95C672.535 26.05 673.835 27.9 675.535 29C677.135 25.55 679.835 24.25 683.485 24.25C688.885 24.25 694.135 26.2 699.535 26.2C701.735 26.2 703.835 25.9 705.835 25.2C703.685 26.25 701.985 26.7 698.685 27.25C700.435 29.35 701.485 30.95 701.485 33.8V52.2C701.485 54.5 701.135 57.75 698.935 59H711.335C709.085 57.75 708.785 54.5 708.785 52.2V23.55ZM696.135 27.9C692.085 30.25 690.685 30.85 686.035 31.6C687.785 33.7 688.835 35.3 688.835 38.15V52.2C688.835 54.5 688.485 57.75 686.285 59H698.685C696.435 57.75 696.135 54.5 696.135 52.2V27.9ZM733.928 56.95C733.628 57.15 733.278 57.25 732.928 57.25C731.528 57.25 731.378 55.1 731.378 54.15V42.65C731.378 37.3 727.428 34.45 722.328 34.45C718.128 34.45 712.628 36.4 712.628 41.4C712.628 43.35 713.778 45.2 715.878 45.2C718.678 45.2 720.478 42.95 721.228 40.5C720.078 40.5 719.278 39.9 719.278 38.7C719.278 37.4 720.278 35.65 721.728 35.65C724.328 35.65 724.078 40.05 724.078 41.75V43.35C720.878 46.85 711.728 48.95 711.728 54.15C711.728 57.9 714.228 59.5 717.728 59.5C720.578 59.5 722.778 58.5 724.328 56.75C725.028 58.45 727.128 59.5 728.928 59.5C731.178 59.5 732.228 58.7 733.928 57.45V56.95ZM724.078 55.7C723.578 56 722.928 56.2 722.128 56.2C719.578 56.2 719.078 54 719.078 51.9C719.078 49 722.178 46.85 724.078 45.1V55.7Z" fill="black"/>
</svg>
