<svg width="708" height="167" viewBox="0 0 708 167" fill="none" xmlns="http://www.w3.org/2000/svg">
<path d="M66.42 102H50.3C51.0367 101.567 51.6217 101.025 52.055 100.375C52.4883 99.6817 52.8133 98.9233 53.03 98.1C53.29 97.2767 53.4417 96.4533 53.485 95.63C53.5717 94.7633 53.615 93.94 53.615 93.16V61.57C53.615 60.8333 53.5717 60.0317 53.485 59.165C53.3983 58.2983 53.2467 57.4533 53.03 56.63C52.8133 55.8067 52.4883 55.0483 52.055 54.355C51.6217 53.6617 51.0367 53.12 50.3 52.73H83.06L84.165 68.005C83.4283 66.055 82.54 64.235 81.5 62.545C80.46 60.855 79.2467 59.4033 77.86 58.19C76.4733 56.9767 74.87 56.0233 73.05 55.33C71.2733 54.6367 69.2583 54.29 67.005 54.29H63.105V76.26C64.275 76.26 65.4233 76.2383 66.55 76.195C67.72 76.1517 68.89 76.065 70.06 75.935C71.4467 75.805 72.6167 75.5667 73.57 75.22C74.5667 74.8733 75.39 74.3967 76.04 73.79C76.7333 73.1833 77.2967 72.425 77.73 71.515C78.2067 70.5617 78.64 69.4133 79.03 68.07V88.09C78.5533 85.5333 77.8817 83.5617 77.015 82.175C76.1483 80.7883 75.065 79.77 73.765 79.12C72.465 78.47 70.9267 78.1017 69.15 78.015C67.4167 77.885 65.4017 77.82 63.105 77.82V93.16C63.105 93.94 63.1267 94.7633 63.17 95.63C63.2567 96.4533 63.4083 97.2767 63.625 98.1C63.885 98.9233 64.2317 99.6817 64.665 100.375C65.0983 101.025 65.6833 101.567 66.42 102ZM98.2482 93.16C98.2482 93.8967 98.2698 94.6983 98.3132 95.565C98.3998 96.4317 98.5515 97.2767 98.7682 98.1C99.0282 98.9233 99.3748 99.6817 99.8082 100.375C100.241 101.068 100.826 101.61 101.563 102H85.4432C86.1798 101.61 86.7648 101.068 87.1982 100.375C87.6315 99.6817 87.9565 98.9233 88.1732 98.1C88.3898 97.2767 88.5415 96.4317 88.6282 95.565C88.7148 94.6983 88.7582 93.8967 88.7582 93.16V69.24C88.7582 68.33 88.6715 67.5067 88.4982 66.77C88.3248 65.99 88.0865 65.275 87.7832 64.625C87.4798 63.975 87.0898 63.3467 86.6132 62.74C86.1798 62.09 85.6815 61.4183 85.1182 60.725C86.6348 60.465 87.9132 60.2267 88.9532 60.01C90.0365 59.75 91.0332 59.4467 91.9432 59.1C92.8965 58.7533 93.8498 58.3417 94.8032 57.865C95.7998 57.345 96.9482 56.695 98.2482 55.915V93.16ZM111.959 86.075C112.262 87.4183 112.717 88.6967 113.324 89.91C113.93 91.08 114.689 92.12 115.599 93.03C116.509 93.8967 117.57 94.59 118.784 95.11C120.04 95.63 121.449 95.89 123.009 95.89C123.485 95.89 124.049 95.8683 124.699 95.825C125.392 95.7383 126.085 95.63 126.779 95.5C127.472 95.37 128.122 95.1967 128.729 94.98C129.379 94.72 129.877 94.4167 130.224 94.07L130.744 94.46C129.27 97.1467 127.515 99.1833 125.479 100.57C123.485 101.957 120.885 102.65 117.679 102.65C115.425 102.65 113.324 102.238 111.374 101.415C109.467 100.592 107.82 99.465 106.434 98.035C105.09 96.5617 104.029 94.85 103.249 92.9C102.469 90.95 102.079 88.8483 102.079 86.595C102.079 84.4283 102.404 82.3483 103.054 80.355C103.747 78.3617 104.722 76.6067 105.979 75.09C107.279 73.5733 108.839 72.36 110.659 71.45C112.479 70.54 114.537 70.085 116.834 70.085C118.914 70.085 120.799 70.41 122.489 71.06C124.222 71.6667 125.674 72.5767 126.844 73.79C128.057 74.96 128.989 76.39 129.639 78.08C130.289 79.77 130.614 81.655 130.614 83.735V85.295L111.959 86.075ZM121.904 78.535C121.904 77.7983 121.752 77.0183 121.449 76.195C121.189 75.3717 120.799 74.635 120.279 73.985C119.759 73.2917 119.152 72.7283 118.459 72.295C117.765 71.8617 117.007 71.645 116.184 71.645C115.23 71.645 114.45 72.035 113.844 72.815C113.237 73.595 112.76 74.5267 112.414 75.61C112.067 76.65 111.807 77.7333 111.634 78.86C111.504 79.9867 111.439 80.875 111.439 81.525C111.439 82.4783 111.504 83.4533 111.634 84.45C112.5 84.3633 113.367 84.255 114.234 84.125C115.1 83.995 115.967 83.865 116.834 83.735C118.307 83.5183 119.52 82.9983 120.474 82.175C121.427 81.3517 121.904 80.1383 121.904 78.535ZM147.785 99.335C147.785 98.5983 147.309 97.2983 146.355 95.435C145.402 93.5283 144.189 91.405 142.715 89.065C141.892 90.2783 141.199 91.5783 140.635 92.965C140.072 94.3517 139.79 95.695 139.79 96.995C139.79 98.3817 140.159 99.4867 140.895 100.31C141.675 101.133 142.737 101.697 144.08 102H129C129.997 101.567 131.08 100.808 132.25 99.725C133.42 98.6417 134.59 97.4283 135.76 96.085C136.93 94.6983 138.035 93.2683 139.075 91.795C140.159 90.3217 141.112 89 141.935 87.83C140.765 85.9667 139.509 84.0817 138.165 82.175C136.865 80.2683 135.587 78.5133 134.33 76.91C133.117 75.3067 132.012 73.9417 131.015 72.815C130.019 71.6883 129.239 70.9517 128.675 70.605H144.275C143.582 71.2117 143.235 71.97 143.235 72.88C143.235 73.7033 143.755 75.1117 144.795 77.105C145.835 79.055 147.135 81.2433 148.695 83.67C149.519 82.4567 150.212 81.1567 150.775 79.77C151.382 78.34 151.685 76.9533 151.685 75.61C151.685 74.2233 151.295 73.1183 150.515 72.295C149.779 71.4717 148.739 70.9083 147.395 70.605H162.475C161.479 71.0383 160.395 71.8183 159.225 72.945C158.055 74.0283 156.885 75.2633 155.715 76.65C154.545 77.9933 153.419 79.4017 152.335 80.875C151.252 82.3483 150.299 83.67 149.475 84.84C150.732 86.7033 152.032 88.61 153.375 90.56C154.762 92.4667 156.084 94.2217 157.34 95.825C158.597 97.385 159.724 98.7283 160.72 99.855C161.76 100.982 162.562 101.697 163.125 102H146.485C147.352 101.22 147.785 100.332 147.785 99.335ZM188.924 100.375C188.36 100.418 187.732 100.505 187.039 100.635C186.389 100.765 185.76 100.895 185.154 101.025C184.547 101.155 183.984 101.307 183.464 101.48C182.944 101.61 182.532 101.762 182.229 101.935L182.359 58.71C181.145 57.0633 179.499 55.7417 177.419 54.745C175.382 53.705 173.345 53.185 171.309 53.185C169.185 53.185 167.409 53.7483 165.979 54.875C164.592 56.0017 163.899 57.6917 163.899 59.945C163.899 61.6783 164.354 63.3033 165.264 64.82C166.217 66.2933 167.43 67.4633 168.904 68.33C168.254 67.8533 167.712 67.29 167.279 66.64C166.889 65.9467 166.694 65.1883 166.694 64.365C166.694 63.065 167.149 61.96 168.059 61.05C169.012 60.0967 170.139 59.62 171.439 59.62C172.739 59.62 173.844 60.0967 174.754 61.05C175.707 61.96 176.184 63.065 176.184 64.365C176.184 65.665 175.707 66.7917 174.754 67.745C173.844 68.655 172.739 69.11 171.439 69.11C170.702 69.11 169.965 68.9367 169.229 68.59C168.492 68.2 167.82 67.8317 167.214 67.485C166.304 67.0083 165.437 66.4233 164.614 65.73C163.79 65.0367 163.075 64.2783 162.469 63.455C161.819 62.5883 161.32 61.6567 160.974 60.66C160.584 59.6633 160.389 58.6233 160.389 57.54C160.389 56.3267 160.627 55.3083 161.104 54.485C161.537 53.6183 162.144 52.925 162.924 52.405C163.704 51.8417 164.592 51.4517 165.589 51.235C166.585 50.975 167.625 50.845 168.709 50.845C171.179 50.845 173.519 51.2783 175.729 52.145C177.939 53.0117 180.105 54.03 182.229 55.2C184.352 56.3267 186.497 57.4317 188.664 58.515C190.83 59.5983 193.105 60.335 195.489 60.725C194.925 61.4183 194.405 62.09 193.929 62.74C193.495 63.3467 193.127 63.975 192.824 64.625C192.52 65.275 192.282 65.99 192.109 66.77C191.935 67.5067 191.849 68.33 191.849 69.24V75.285C192.412 74.635 192.997 74.0067 193.604 73.4C194.254 72.75 194.882 72.165 195.489 71.645C196.139 71.125 196.767 70.7133 197.374 70.41C198.024 70.0633 198.609 69.89 199.129 69.89C201.382 69.89 203.375 70.3233 205.109 71.19C206.842 72.0567 208.294 73.2267 209.464 74.7C210.677 76.13 211.587 77.7983 212.194 79.705C212.8 81.6117 213.104 83.605 213.104 85.685C213.104 87.895 212.779 90.0183 212.129 92.055C211.479 94.0917 210.504 95.89 209.204 97.45C207.947 99.01 206.387 100.267 204.524 101.22C202.704 102.13 200.624 102.585 198.284 102.585C197.33 102.585 196.464 102.52 195.684 102.39C194.904 102.26 194.145 102.108 193.409 101.935C192.715 101.718 192 101.48 191.264 101.22C190.57 100.96 189.79 100.678 188.924 100.375ZM180.019 102H163.964C164.657 101.61 165.22 101.068 165.654 100.375C166.087 99.6383 166.412 98.88 166.629 98.1C166.889 97.2767 167.062 96.4317 167.149 95.565C167.235 94.6983 167.279 93.8967 167.279 93.16V83.93C167.279 83.02 167.192 82.1967 167.019 81.46C166.845 80.68 166.607 79.965 166.304 79.315C166 78.665 165.61 78.0367 165.134 77.43C164.7 76.78 164.202 76.1083 163.639 75.415C165.155 75.155 166.434 74.9167 167.474 74.7C168.557 74.44 169.554 74.1367 170.464 73.79C171.417 73.4433 172.37 73.0317 173.324 72.555C174.32 72.035 175.469 71.385 176.769 70.605V93.16C176.769 93.8967 176.79 94.6983 176.834 95.565C176.92 96.4317 177.072 97.2767 177.289 98.1C177.505 98.9233 177.83 99.6817 178.264 100.375C178.697 101.068 179.282 101.61 180.019 102ZM191.849 75.87V92.51C191.849 93.3333 191.914 94.2433 192.044 95.24C192.174 96.2367 192.434 97.1683 192.824 98.035C193.214 98.8583 193.734 99.5517 194.384 100.115C195.077 100.678 195.965 100.96 197.049 100.96C198.392 100.96 199.519 100.592 200.429 99.855C201.339 99.075 202.054 98.1217 202.574 96.995C203.137 95.8683 203.527 94.6767 203.744 93.42C204.004 92.12 204.134 90.9283 204.134 89.845C204.134 88.155 203.917 86.465 203.484 84.775C203.05 83.085 202.379 81.5683 201.469 80.225C200.559 78.8383 199.389 77.7333 197.959 76.91C196.572 76.0433 194.925 75.61 193.019 75.61C192.542 75.61 192.152 75.6967 191.849 75.87ZM226.725 93.16C226.725 93.8967 226.746 94.6983 226.79 95.565C226.876 96.4317 227.028 97.2767 227.245 98.1C227.505 98.9233 227.851 99.6817 228.285 100.375C228.718 101.068 229.303 101.61 230.04 102H213.92C214.656 101.61 215.241 101.068 215.675 100.375C216.108 99.6817 216.433 98.9233 216.65 98.1C216.866 97.2767 217.018 96.4317 217.105 95.565C217.191 94.6983 217.235 93.8967 217.235 93.16V69.24C217.235 68.33 217.148 67.5067 216.975 66.77C216.801 65.99 216.563 65.275 216.26 64.625C215.956 63.975 215.566 63.3467 215.09 62.74C214.656 62.09 214.158 61.4183 213.595 60.725C215.111 60.465 216.39 60.2267 217.43 60.01C218.513 59.75 219.51 59.4467 220.42 59.1C221.373 58.7533 222.326 58.3417 223.28 57.865C224.276 57.345 225.425 56.695 226.725 55.915V93.16ZM240.435 86.075C240.738 87.4183 241.193 88.6967 241.8 89.91C242.407 91.08 243.165 92.12 244.075 93.03C244.985 93.8967 246.047 94.59 247.26 95.11C248.517 95.63 249.925 95.89 251.485 95.89C251.962 95.89 252.525 95.8683 253.175 95.825C253.868 95.7383 254.562 95.63 255.255 95.5C255.948 95.37 256.598 95.1967 257.205 94.98C257.855 94.72 258.353 94.4167 258.7 94.07L259.22 94.46C257.747 97.1467 255.992 99.1833 253.955 100.57C251.962 101.957 249.362 102.65 246.155 102.65C243.902 102.65 241.8 102.238 239.85 101.415C237.943 100.592 236.297 99.465 234.91 98.035C233.567 96.5617 232.505 94.85 231.725 92.9C230.945 90.95 230.555 88.8483 230.555 86.595C230.555 84.4283 230.88 82.3483 231.53 80.355C232.223 78.3617 233.198 76.6067 234.455 75.09C235.755 73.5733 237.315 72.36 239.135 71.45C240.955 70.54 243.013 70.085 245.31 70.085C247.39 70.085 249.275 70.41 250.965 71.06C252.698 71.6667 254.15 72.5767 255.32 73.79C256.533 74.96 257.465 76.39 258.115 78.08C258.765 79.77 259.09 81.655 259.09 83.735V85.295L240.435 86.075ZM250.38 78.535C250.38 77.7983 250.228 77.0183 249.925 76.195C249.665 75.3717 249.275 74.635 248.755 73.985C248.235 73.2917 247.628 72.7283 246.935 72.295C246.242 71.8617 245.483 71.645 244.66 71.645C243.707 71.645 242.927 72.035 242.32 72.815C241.713 73.595 241.237 74.5267 240.89 75.61C240.543 76.65 240.283 77.7333 240.11 78.86C239.98 79.9867 239.915 80.875 239.915 81.525C239.915 82.4783 239.98 83.4533 240.11 84.45C240.977 84.3633 241.843 84.255 242.71 84.125C243.577 83.995 244.443 83.865 245.31 83.735C246.783 83.5183 247.997 82.9983 248.95 82.175C249.903 81.3517 250.38 80.1383 250.38 78.535ZM276.268 107.59V83.865C276.268 82.955 276.181 82.1317 276.008 81.395C275.835 80.615 275.596 79.9 275.293 79.25C274.99 78.6 274.6 77.9717 274.123 77.365C273.69 76.715 273.191 76.0433 272.628 75.35C274.145 75.09 275.423 74.8517 276.463 74.635C277.546 74.375 278.543 74.0717 279.453 73.725C280.406 73.3783 281.36 72.9667 282.313 72.49C283.31 71.97 284.458 71.3417 285.758 70.605V75.285C286.321 74.635 286.906 74.0067 287.513 73.4C288.163 72.75 288.791 72.165 289.398 71.645C290.048 71.125 290.676 70.7133 291.283 70.41C291.933 70.0633 292.518 69.89 293.038 69.89C295.291 69.89 297.285 70.3233 299.018 71.19C300.751 72.0567 302.203 73.2267 303.373 74.7C304.586 76.13 305.496 77.7983 306.103 79.705C306.71 81.6117 307.013 83.605 307.013 85.685C307.013 87.895 306.688 90.0183 306.038 92.055C305.388 94.0917 304.413 95.89 303.113 97.45C301.856 99.01 300.296 100.267 298.433 101.22C296.613 102.13 294.533 102.585 292.193 102.585C290.72 102.585 289.528 102.477 288.618 102.26C287.708 102.087 286.755 101.827 285.758 101.48V107.59C285.758 108.327 285.78 109.128 285.823 109.995C285.91 110.862 286.061 111.685 286.278 112.465C286.538 113.288 286.885 114.047 287.318 114.74C287.751 115.433 288.315 115.997 289.008 116.43H272.953C273.69 115.997 274.275 115.433 274.708 114.74C275.141 114.047 275.466 113.288 275.683 112.465C275.9 111.685 276.051 110.862 276.138 109.995C276.225 109.128 276.268 108.327 276.268 107.59ZM285.758 76.065V92.51C285.758 93.3333 285.823 94.2433 285.953 95.24C286.083 96.2367 286.343 97.1683 286.733 98.035C287.123 98.8583 287.643 99.5517 288.293 100.115C288.986 100.678 289.875 100.96 290.958 100.96C292.301 100.96 293.428 100.592 294.338 99.855C295.248 99.075 295.963 98.1217 296.483 96.995C297.046 95.8683 297.436 94.6767 297.653 93.42C297.913 92.12 298.043 90.9283 298.043 89.845C298.043 88.155 297.826 86.465 297.393 84.775C296.96 83.085 296.288 81.5683 295.378 80.225C294.468 78.8383 293.298 77.7333 291.868 76.91C290.481 76.0433 288.835 75.61 286.928 75.61C286.625 75.61 286.235 75.7617 285.758 76.065ZM336.92 99.985C336.357 100.375 335.837 100.743 335.36 101.09C334.883 101.437 334.407 101.718 333.93 101.935C333.453 102.152 332.933 102.325 332.37 102.455C331.807 102.585 331.157 102.65 330.42 102.65C329.25 102.65 328.08 102.347 326.91 101.74C325.74 101.09 324.917 100.202 324.44 99.075C323.443 100.202 322.23 101.09 320.8 101.74C319.37 102.347 317.723 102.65 315.86 102.65C313.563 102.65 311.678 102.108 310.205 101.025C308.775 99.9417 308.06 98.165 308.06 95.695C308.06 94.005 308.688 92.5317 309.945 91.275C311.245 90.0183 312.762 88.87 314.495 87.83C316.272 86.79 318.048 85.7933 319.825 84.84C321.645 83.8433 323.075 82.7817 324.115 81.655V79.575C324.115 79.0117 324.115 78.2967 324.115 77.43C324.115 76.52 324.028 75.6533 323.855 74.83C323.682 73.9633 323.378 73.2267 322.945 72.62C322.555 71.97 321.927 71.645 321.06 71.645C320.583 71.645 320.15 71.775 319.76 72.035C319.37 72.295 319.023 72.62 318.72 73.01C318.46 73.4 318.243 73.8333 318.07 74.31C317.94 74.7433 317.875 75.1767 317.875 75.61C317.875 76.39 318.113 76.975 318.59 77.365C319.067 77.755 319.673 77.95 320.41 77.95C319.933 79.5533 319.11 80.9833 317.94 82.24C316.77 83.4533 315.275 84.06 313.455 84.06C312.068 84.06 311.007 83.5617 310.27 82.565C309.577 81.525 309.23 80.3767 309.23 79.12C309.23 77.4733 309.62 76.0867 310.4 74.96C311.223 73.8333 312.242 72.9017 313.455 72.165C314.712 71.4283 316.077 70.9083 317.55 70.605C319.067 70.2583 320.497 70.085 321.84 70.085C323.487 70.085 325.025 70.3233 326.455 70.8C327.885 71.2333 329.12 71.905 330.16 72.815C331.243 73.725 332.088 74.8517 332.695 76.195C333.302 77.495 333.605 79.0117 333.605 80.745V95.695C333.605 95.9983 333.627 96.3883 333.67 96.865C333.713 97.2983 333.8 97.7317 333.93 98.165C334.06 98.5983 334.255 98.9667 334.515 99.27C334.818 99.5733 335.187 99.725 335.62 99.725C336.097 99.725 336.53 99.595 336.92 99.335V99.985ZM324.115 83.93C323.508 84.4933 322.815 85.1 322.035 85.75C321.298 86.4 320.605 87.0933 319.955 87.83C319.305 88.5233 318.742 89.2817 318.265 90.105C317.832 90.9283 317.615 91.8167 317.615 92.77C317.615 93.4633 317.658 94.1567 317.745 94.85C317.875 95.5 318.07 96.085 318.33 96.605C318.633 97.125 319.045 97.5583 319.565 97.905C320.085 98.2083 320.757 98.36 321.58 98.36C322.533 98.36 323.378 98.1433 324.115 97.71V83.93ZM347.757 102L341.842 87.245C341.452 86.2483 340.932 84.905 340.282 83.215C339.632 81.525 338.917 79.8133 338.137 78.08C337.357 76.3467 336.49 74.7867 335.537 73.4C334.627 71.97 333.673 71.0383 332.677 70.605H350.617C349.533 70.9517 348.732 71.6017 348.212 72.555C347.692 73.5083 347.432 74.5483 347.432 75.675C347.432 76.585 347.713 77.9283 348.277 79.705C348.84 81.4817 349.49 83.345 350.227 85.295C351.007 87.245 351.765 89.13 352.502 90.95C353.282 92.7267 353.888 94.1133 354.322 95.11C354.798 93.8967 355.297 92.64 355.817 91.34C356.38 89.9967 356.878 88.6533 357.312 87.31C357.788 85.9233 358.178 84.5367 358.482 83.15C358.785 81.7633 358.937 80.42 358.937 79.12C358.937 77.04 358.482 75.285 357.572 73.855C356.662 72.425 355.232 71.3417 353.282 70.605H368.362C367.365 71.0383 366.39 71.97 365.437 73.4C364.527 74.83 363.66 76.4117 362.837 78.145C362.057 79.835 361.342 81.5467 360.692 83.28C360.042 84.97 359.522 86.335 359.132 87.375L353.282 102C352.718 103.43 352.09 104.968 351.397 106.615C350.747 108.262 349.945 109.8 348.992 111.23C348.082 112.66 346.977 113.852 345.677 114.805C344.377 115.758 342.795 116.235 340.932 116.235C339.935 116.235 338.982 116.105 338.072 115.845C337.205 115.628 336.425 115.26 335.732 114.74C335.082 114.263 334.562 113.635 334.172 112.855C333.782 112.075 333.587 111.143 333.587 110.06C333.587 109.497 333.673 108.847 333.847 108.11C334.02 107.417 334.28 106.767 334.627 106.16C335.017 105.553 335.472 105.033 335.992 104.6C336.512 104.21 337.118 104.015 337.812 104.015C337.812 105.575 338.31 106.723 339.307 107.46C340.347 108.197 341.582 108.565 343.012 108.565C343.618 108.565 344.355 108.457 345.222 108.24C346.088 108.023 346.912 107.698 347.692 107.265C348.515 106.875 349.208 106.377 349.772 105.77C350.335 105.163 350.617 104.47 350.617 103.69C350.617 102.997 350.27 102.542 349.577 102.325C348.883 102.108 348.277 102 347.757 102ZM397.826 76.325C397.913 76.1517 398.194 75.8917 398.671 75.545C399.191 75.1983 399.798 74.7867 400.491 74.31C401.228 73.8333 401.986 73.3567 402.766 72.88C403.589 72.36 404.348 71.905 405.041 71.515C405.778 71.0817 406.406 70.735 406.926 70.475C407.446 70.215 407.771 70.085 407.901 70.085C409.374 70.085 410.653 70.3667 411.736 70.93C412.819 71.4933 413.708 72.2517 414.401 73.205C415.138 74.1583 415.679 75.2633 416.026 76.52C416.416 77.7767 416.611 79.0767 416.611 80.42V93.16C416.611 93.8967 416.654 94.6983 416.741 95.565C416.828 96.4317 416.979 97.2767 417.196 98.1C417.413 98.9233 417.738 99.6817 418.171 100.375C418.648 101.068 419.233 101.61 419.926 102H403.871C404.564 101.61 405.128 101.068 405.561 100.375C405.994 99.6383 406.319 98.88 406.536 98.1C406.753 97.2767 406.904 96.4317 406.991 95.565C407.078 94.6983 407.121 93.8967 407.121 93.16V80.68C407.121 80.03 407.056 79.3583 406.926 78.665C406.796 77.9717 406.579 77.3433 406.276 76.78C405.973 76.2167 405.539 75.7617 404.976 75.415C404.456 75.0683 403.806 74.895 403.026 74.895C402.246 74.895 401.574 75.0683 401.011 75.415C400.448 75.7617 399.971 76.2167 399.581 76.78C399.191 77.3 398.888 77.9067 398.671 78.6C398.498 79.2933 398.389 79.9867 398.346 80.68V93.16C398.346 93.8967 398.389 94.6983 398.476 95.565C398.563 96.4317 398.714 97.2767 398.931 98.1C399.148 98.9233 399.473 99.6817 399.906 100.375C400.383 101.068 400.968 101.61 401.661 102H385.606C386.299 101.61 386.863 101.068 387.296 100.375C387.729 99.6383 388.054 98.88 388.271 98.1C388.488 97.2767 388.639 96.4317 388.726 95.565C388.813 94.6983 388.856 93.8967 388.856 93.16V80.68C388.856 80.03 388.791 79.3583 388.661 78.665C388.531 77.9717 388.314 77.3433 388.011 76.78C387.708 76.2167 387.274 75.7617 386.711 75.415C386.191 75.0683 385.541 74.895 384.761 74.895C383.418 74.895 382.378 75.3717 381.641 76.325C380.904 77.235 380.428 78.2967 380.211 79.51V93.16C380.211 93.8967 380.233 94.6983 380.276 95.565C380.363 96.4317 380.514 97.2767 380.731 98.1C380.948 98.9233 381.273 99.6817 381.706 100.375C382.139 101.068 382.724 101.61 383.461 102H367.406C368.099 101.61 368.663 101.068 369.096 100.375C369.529 99.6383 369.854 98.88 370.071 98.1C370.331 97.2767 370.504 96.4317 370.591 95.565C370.678 94.6983 370.721 93.8967 370.721 93.16V83.93C370.721 83.02 370.634 82.1967 370.461 81.46C370.288 80.68 370.049 79.965 369.746 79.315C369.443 78.665 369.053 78.0367 368.576 77.43C368.143 76.78 367.644 76.1083 367.081 75.415C368.598 75.155 369.876 74.9167 370.916 74.7C371.999 74.44 372.996 74.1367 373.906 73.79C374.859 73.4433 375.813 73.0317 376.766 72.555C377.763 72.035 378.911 71.385 380.211 70.605V75.675C380.514 75.3717 381.143 74.9167 382.096 74.31C383.049 73.7033 384.046 73.0967 385.086 72.49C386.169 71.84 387.144 71.2767 388.011 70.8C388.921 70.3233 389.463 70.085 389.636 70.085C391.889 70.085 393.688 70.735 395.031 72.035C396.418 73.2917 397.371 74.8733 397.891 76.78L397.826 76.325ZM430.357 86.075C430.66 87.4183 431.115 88.6967 431.722 89.91C432.329 91.08 433.087 92.12 433.997 93.03C434.907 93.8967 435.969 94.59 437.182 95.11C438.439 95.63 439.847 95.89 441.407 95.89C441.884 95.89 442.447 95.8683 443.097 95.825C443.79 95.7383 444.484 95.63 445.177 95.5C445.87 95.37 446.52 95.1967 447.127 94.98C447.777 94.72 448.275 94.4167 448.622 94.07L449.142 94.46C447.669 97.1467 445.914 99.1833 443.877 100.57C441.884 101.957 439.284 102.65 436.077 102.65C433.824 102.65 431.722 102.238 429.772 101.415C427.865 100.592 426.219 99.465 424.832 98.035C423.489 96.5617 422.427 94.85 421.647 92.9C420.867 90.95 420.477 88.8483 420.477 86.595C420.477 84.4283 420.802 82.3483 421.452 80.355C422.145 78.3617 423.12 76.6067 424.377 75.09C425.677 73.5733 427.237 72.36 429.057 71.45C430.877 70.54 432.935 70.085 435.232 70.085C437.312 70.085 439.197 70.41 440.887 71.06C442.62 71.6667 444.072 72.5767 445.242 73.79C446.455 74.96 447.387 76.39 448.037 78.08C448.687 79.77 449.012 81.655 449.012 83.735V85.295L430.357 86.075ZM440.302 78.535C440.302 77.7983 440.15 77.0183 439.847 76.195C439.587 75.3717 439.197 74.635 438.677 73.985C438.157 73.2917 437.55 72.7283 436.857 72.295C436.164 71.8617 435.405 71.645 434.582 71.645C433.629 71.645 432.849 72.035 432.242 72.815C431.635 73.595 431.159 74.5267 430.812 75.61C430.465 76.65 430.205 77.7333 430.032 78.86C429.902 79.9867 429.837 80.875 429.837 81.525C429.837 82.4783 429.902 83.4533 430.032 84.45C430.899 84.3633 431.765 84.255 432.632 84.125C433.499 83.995 434.365 83.865 435.232 83.735C436.705 83.5183 437.919 82.9983 438.872 82.175C439.825 81.3517 440.302 80.1383 440.302 78.535ZM466.171 102H450.116C450.809 101.61 451.373 101.068 451.806 100.375C452.239 99.6383 452.564 98.88 452.781 98.1C453.041 97.2767 453.214 96.4317 453.301 95.565C453.388 94.6983 453.431 93.8967 453.431 93.16V83.93C453.431 83.02 453.344 82.1967 453.171 81.46C452.998 80.68 452.759 79.965 452.456 79.315C452.153 78.665 451.763 78.0367 451.286 77.43C450.853 76.78 450.354 76.1083 449.791 75.415C451.308 75.155 452.586 74.9167 453.626 74.7C454.709 74.44 455.706 74.1367 456.616 73.79C457.569 73.4433 458.523 73.0317 459.476 72.555C460.473 72.035 461.621 71.385 462.921 70.605V75.675C463.224 75.3717 463.853 74.9167 464.806 74.31C465.759 73.7033 466.756 73.0967 467.796 72.49C468.879 71.84 469.854 71.2767 470.721 70.8C471.631 70.3233 472.173 70.085 472.346 70.085C473.819 70.085 475.098 70.3667 476.181 70.93C477.264 71.4933 478.153 72.2517 478.846 73.205C479.583 74.1583 480.124 75.2633 480.471 76.52C480.861 77.7767 481.056 79.0767 481.056 80.42V93.16C481.056 93.8967 481.099 94.6983 481.186 95.565C481.273 96.4317 481.424 97.2767 481.641 98.1C481.858 98.9233 482.183 99.6817 482.616 100.375C483.093 101.068 483.678 101.61 484.371 102H468.316C469.009 101.61 469.573 101.068 470.006 100.375C470.439 99.6383 470.764 98.88 470.981 98.1C471.198 97.2767 471.349 96.4317 471.436 95.565C471.523 94.6983 471.566 93.8967 471.566 93.16V80.68C471.566 80.03 471.501 79.3583 471.371 78.665C471.241 77.9717 471.024 77.3433 470.721 76.78C470.418 76.2167 469.984 75.7617 469.421 75.415C468.901 75.0683 468.251 74.895 467.471 74.895C466.128 74.895 465.088 75.3717 464.351 76.325C463.614 77.235 463.138 78.2967 462.921 79.51V93.16C462.921 93.8967 462.943 94.6983 462.986 95.565C463.073 96.4317 463.224 97.2767 463.441 98.1C463.658 98.9233 463.983 99.6817 464.416 100.375C464.849 101.068 465.434 101.61 466.171 102ZM496.116 70.605H502.876V72.165H496.116V95.175C496.116 96.4317 496.528 97.3417 497.351 97.905C498.218 98.425 499.215 98.685 500.341 98.685C500.948 98.685 501.533 98.62 502.096 98.49C502.703 98.36 503.266 98.1433 503.786 97.84V98.49C502.486 99.7033 500.97 100.7 499.236 101.48C497.546 102.26 495.791 102.65 493.971 102.65C492.671 102.65 491.545 102.412 490.591 101.935C489.681 101.458 488.923 100.83 488.316 100.05C487.753 99.2267 487.32 98.295 487.016 97.255C486.756 96.1717 486.626 95.045 486.626 93.875V72.165H483.441V71.19C484.958 71.06 486.323 70.8 487.536 70.41C488.75 70.02 489.833 69.5 490.786 68.85C491.74 68.1567 492.563 67.29 493.256 66.25C493.993 65.21 494.621 63.9533 495.141 62.48H496.116V70.605ZM520.526 107.59V83.865C520.526 82.955 520.439 82.1317 520.266 81.395C520.092 80.615 519.854 79.9 519.551 79.25C519.247 78.6 518.857 77.9717 518.381 77.365C517.947 76.715 517.449 76.0433 516.886 75.35C518.402 75.09 519.681 74.8517 520.721 74.635C521.804 74.375 522.801 74.0717 523.711 73.725C524.664 73.3783 525.617 72.9667 526.571 72.49C527.567 71.97 528.716 71.3417 530.016 70.605V75.285C530.579 74.635 531.164 74.0067 531.771 73.4C532.421 72.75 533.049 72.165 533.656 71.645C534.306 71.125 534.934 70.7133 535.541 70.41C536.191 70.0633 536.776 69.89 537.296 69.89C539.549 69.89 541.542 70.3233 543.276 71.19C545.009 72.0567 546.461 73.2267 547.631 74.7C548.844 76.13 549.754 77.7983 550.361 79.705C550.967 81.6117 551.271 83.605 551.271 85.685C551.271 87.895 550.946 90.0183 550.296 92.055C549.646 94.0917 548.671 95.89 547.371 97.45C546.114 99.01 544.554 100.267 542.691 101.22C540.871 102.13 538.791 102.585 536.451 102.585C534.977 102.585 533.786 102.477 532.876 102.26C531.966 102.087 531.012 101.827 530.016 101.48V107.59C530.016 108.327 530.037 109.128 530.081 109.995C530.167 110.862 530.319 111.685 530.536 112.465C530.796 113.288 531.142 114.047 531.576 114.74C532.009 115.433 532.572 115.997 533.266 116.43H517.211C517.947 115.997 518.532 115.433 518.966 114.74C519.399 114.047 519.724 113.288 519.941 112.465C520.157 111.685 520.309 110.862 520.396 109.995C520.482 109.128 520.526 108.327 520.526 107.59ZM530.016 76.065V92.51C530.016 93.3333 530.081 94.2433 530.211 95.24C530.341 96.2367 530.601 97.1683 530.991 98.035C531.381 98.8583 531.901 99.5517 532.551 100.115C533.244 100.678 534.132 100.96 535.216 100.96C536.559 100.96 537.686 100.592 538.596 99.855C539.506 99.075 540.221 98.1217 540.741 96.995C541.304 95.8683 541.694 94.6767 541.911 93.42C542.171 92.12 542.301 90.9283 542.301 89.845C542.301 88.155 542.084 86.465 541.651 84.775C541.217 83.085 540.546 81.5683 539.636 80.225C538.726 78.8383 537.556 77.7333 536.126 76.91C534.739 76.0433 533.092 75.61 531.186 75.61C530.882 75.61 530.492 75.7617 530.016 76.065ZM564.928 93.16C564.928 93.8967 564.95 94.6983 564.993 95.565C565.08 96.4317 565.231 97.2767 565.448 98.1C565.708 98.9233 566.055 99.6817 566.488 100.375C566.921 101.068 567.506 101.61 568.243 102H552.123C552.86 101.61 553.445 101.068 553.878 100.375C554.311 99.6817 554.636 98.9233 554.853 98.1C555.07 97.2767 555.221 96.4317 555.308 95.565C555.395 94.6983 555.438 93.8967 555.438 93.16V69.24C555.438 68.33 555.351 67.5067 555.178 66.77C555.005 65.99 554.766 65.275 554.463 64.625C554.16 63.975 553.77 63.3467 553.293 62.74C552.86 62.09 552.361 61.4183 551.798 60.725C553.315 60.465 554.593 60.2267 555.633 60.01C556.716 59.75 557.713 59.4467 558.623 59.1C559.576 58.7533 560.53 58.3417 561.483 57.865C562.48 57.345 563.628 56.695 564.928 55.915V93.16ZM574.153 84.06C572.767 84.06 571.705 83.5617 570.968 82.565C570.275 81.525 569.928 80.3767 569.928 79.12C569.928 77.4733 570.318 76.0867 571.098 74.96C571.922 73.8333 572.94 72.9017 574.153 72.165C575.41 71.4283 576.775 70.9083 578.248 70.605C579.765 70.2583 581.195 70.085 582.538 70.085C584.185 70.085 585.723 70.3233 587.153 70.8C588.583 71.2333 589.818 71.905 590.858 72.815C591.942 73.725 592.787 74.8517 593.393 76.195C594 77.495 594.303 79.0117 594.303 80.745V95.695C594.303 95.9983 594.325 96.3883 594.368 96.865C594.412 97.2983 594.498 97.7317 594.628 98.165C594.758 98.5983 594.953 98.9667 595.213 99.27C595.517 99.5733 595.885 99.725 596.318 99.725C596.795 99.725 597.228 99.595 597.618 99.335V99.985C596.535 100.808 595.538 101.458 594.628 101.935C593.718 102.412 592.548 102.65 591.118 102.65C590.425 102.65 589.688 102.52 588.908 102.26C588.172 102.043 587.5 101.718 586.893 101.285C586.287 100.852 585.788 100.31 585.398 99.66C585.008 99.01 584.813 98.295 584.813 97.515V83.93C580.48 86.4 578.313 90.1917 578.313 95.305C578.313 97.0383 578.595 98.62 579.158 100.05C579.765 101.437 580.588 102.628 581.628 103.625C582.668 104.622 583.903 105.38 585.333 105.9C586.763 106.463 588.323 106.745 590.013 106.745C591.92 106.745 593.588 106.398 595.018 105.705C596.448 105.055 597.64 104.145 598.593 102.975C599.59 101.805 600.327 100.44 600.803 98.88C601.323 97.32 601.583 95.63 601.583 93.81V83.93C601.583 83.02 601.497 82.1967 601.323 81.46C601.15 80.68 600.912 79.965 600.608 79.315C600.305 78.665 599.915 78.0367 599.438 77.43C599.005 76.78 598.507 76.1083 597.943 75.415C599.46 75.155 600.738 74.9167 601.778 74.7C602.862 74.44 603.858 74.1367 604.768 73.79C605.722 73.4 606.675 72.9667 607.628 72.49C608.625 71.97 609.773 71.3417 611.073 70.605V75.61C611.203 75.48 611.507 75.2633 611.983 74.96C612.46 74.6133 613.023 74.245 613.673 73.855C614.323 73.4217 615.017 72.9883 615.753 72.555C616.533 72.1217 617.248 71.7317 617.898 71.385C618.548 70.995 619.112 70.6917 619.588 70.475C620.065 70.215 620.368 70.085 620.498 70.085C621.972 70.085 623.25 70.3667 624.333 70.93C625.417 71.4933 626.305 72.2517 626.998 73.205C627.735 74.1583 628.277 75.2633 628.623 76.52C629.013 77.7767 629.208 79.0767 629.208 80.42V93.16C629.208 93.8967 629.252 94.6983 629.338 95.565C629.425 96.4317 629.577 97.2767 629.793 98.1C630.01 98.9233 630.335 99.6817 630.768 100.375C631.245 101.068 631.83 101.61 632.523 102H616.468C617.162 101.61 617.725 101.068 618.158 100.375C618.592 99.6383 618.917 98.88 619.133 98.1C619.35 97.2767 619.502 96.4317 619.588 95.565C619.675 94.6983 619.718 93.8967 619.718 93.16V80.68C619.718 80.03 619.653 79.3583 619.523 78.665C619.393 77.9717 619.177 77.3433 618.873 76.78C618.57 76.2167 618.137 75.7617 617.573 75.415C617.053 75.0683 616.403 74.895 615.623 74.895C615.06 74.895 614.497 75.025 613.933 75.285C613.413 75.545 612.937 75.8917 612.503 76.325C612.07 76.7583 611.723 77.2567 611.463 77.82C611.203 78.3833 611.073 78.9467 611.073 79.51C611.03 80.2467 611.008 80.9833 611.008 81.72C611.052 82.4567 611.073 83.1933 611.073 83.93V94.265C611.073 97.0817 610.337 99.4217 608.863 101.285C607.433 103.105 605.613 104.557 603.403 105.64C601.193 106.723 598.788 107.46 596.188 107.85C593.632 108.283 591.227 108.5 588.973 108.5C586.85 108.5 584.597 108.327 582.213 107.98C579.873 107.633 577.707 106.983 575.713 106.03C573.72 105.077 572.052 103.755 570.708 102.065C569.408 100.375 568.758 98.2083 568.758 95.565C568.758 93.745 569.322 92.1417 570.448 90.755C571.618 89.325 573.027 88.09 574.673 87.05C576.363 85.9667 578.118 85.035 579.938 84.255C581.802 83.475 583.427 82.825 584.813 82.305C584.813 81.655 584.835 80.745 584.878 79.575C584.922 78.3617 584.878 77.17 584.748 76C584.618 74.83 584.337 73.8117 583.903 72.945C583.47 72.0783 582.755 71.645 581.758 71.645C581.282 71.645 580.848 71.775 580.458 72.035C580.068 72.295 579.722 72.62 579.418 73.01C579.158 73.4 578.942 73.8333 578.768 74.31C578.638 74.7433 578.573 75.1767 578.573 75.61C578.573 76.39 578.812 76.975 579.288 77.365C579.765 77.755 580.372 77.95 581.108 77.95C580.632 79.5533 579.808 80.9833 578.638 82.24C577.468 83.4533 575.973 84.06 574.153 84.06ZM645.41 102.65C644.197 102.65 642.853 102.498 641.38 102.195C639.95 101.892 638.607 101.415 637.35 100.765C636.093 100.115 635.032 99.27 634.165 98.23C633.342 97.1467 632.93 95.8467 632.93 94.33C632.93 92.9 633.32 91.665 634.1 90.625C634.923 89.585 636.093 89.065 637.61 89.065C639.083 89.065 640.275 89.6283 641.185 90.755C642.138 91.8383 642.745 93.03 643.005 94.33C642.225 94.33 641.575 94.59 641.055 95.11C640.578 95.63 640.34 96.28 640.34 97.06C640.34 97.71 640.492 98.295 640.795 98.815C641.098 99.335 641.488 99.7683 641.965 100.115C642.485 100.418 643.048 100.657 643.655 100.83C644.262 101.003 644.847 101.09 645.41 101.09C646.103 101.09 646.797 101.003 647.49 100.83C648.183 100.657 648.812 100.397 649.375 100.05C649.938 99.66 650.393 99.1833 650.74 98.62C651.087 98.0133 651.26 97.2983 651.26 96.475C651.26 95.3483 650.827 94.4167 649.96 93.68C649.137 92.9 648.097 92.185 646.84 91.535C645.583 90.8417 644.218 90.17 642.745 89.52C641.272 88.8267 639.907 88.0467 638.65 87.18C637.393 86.27 636.332 85.1867 635.465 83.93C634.642 82.6733 634.23 81.135 634.23 79.315C634.23 77.6683 634.642 76.2817 635.465 75.155C636.332 73.985 637.393 73.0317 638.65 72.295C639.907 71.515 641.293 70.9517 642.81 70.605C644.37 70.2583 645.822 70.085 647.165 70.085C648.378 70.085 649.678 70.2367 651.065 70.54C652.495 70.8 653.795 71.255 654.965 71.905C656.178 72.555 657.175 73.4 657.955 74.44C658.735 75.4367 659.125 76.6933 659.125 78.21C659.125 79.5533 658.735 80.615 657.955 81.395C657.218 82.175 656.178 82.565 654.835 82.565C653.448 82.565 652.3 82.1533 651.39 81.33C650.48 80.5067 649.83 79.4667 649.44 78.21C650.177 78.21 650.74 77.9933 651.13 77.56C651.52 77.0833 651.715 76.4983 651.715 75.805C651.715 74.505 651.217 73.4867 650.22 72.75C649.223 72.0133 648.118 71.645 646.905 71.645C645.475 71.645 644.283 72.1 643.33 73.01C642.377 73.8767 641.9 75.025 641.9 76.455C641.9 77.5383 642.333 78.47 643.2 79.25C644.11 80.03 645.215 80.7667 646.515 81.46C647.858 82.11 649.288 82.76 650.805 83.41C652.365 84.06 653.795 84.84 655.095 85.75C656.438 86.66 657.543 87.7433 658.41 89C659.32 90.2133 659.775 91.7083 659.775 93.485C659.775 95.2617 659.277 96.7567 658.28 97.97C657.327 99.14 656.135 100.072 654.705 100.765C653.275 101.458 651.715 101.935 650.025 102.195C648.378 102.498 646.84 102.65 645.41 102.65Z" fill="black"/>
<path d="M104.333 42.5C104.333 46.1819 107.318 49.1667 111 49.1667C114.682 49.1667 117.667 46.1819 117.667 42.5C117.667 38.8181 114.682 35.8333 111 35.8333C107.318 35.8333 104.333 38.8181 104.333 42.5ZM55.4783 125.123L55.524 123.874L55.4783 125.123ZM245.764 46.373L244.762 45.6252L244.762 45.6252L245.764 46.373ZM163.517 39.5453L173.155 42.9023L176.512 33.264L166.874 29.907L163.517 39.5453ZM110.825 41.2623C93.8887 43.6533 76.4181 49.8542 61.1184 57.8463C45.8277 65.8338 32.6221 75.6541 24.2615 85.3443C20.0831 90.1874 17.0636 95.0568 15.6367 99.7021C14.2026 104.371 14.3659 108.871 16.6527 112.819C18.9235 116.74 23.1751 119.92 29.5158 122.217C35.8599 124.515 44.4007 125.969 55.4327 126.373L55.524 123.874C44.6382 123.476 36.3795 122.044 30.3673 119.866C24.3518 117.687 20.6902 114.802 18.8161 111.566C16.958 108.358 16.7444 104.61 18.0265 100.436C19.3159 96.2385 22.1056 91.6702 26.1544 86.9775C34.2483 77.5963 47.169 67.9536 62.2759 60.0622C77.3738 52.1755 94.572 46.0817 111.175 43.7377L110.825 41.2623ZM55.4327 126.373C161.896 130.265 217.639 86.1349 246.765 47.1208L244.762 45.6252C216.088 84.0325 161.105 127.735 55.524 123.874L55.4327 126.373ZM246.765 47.1209C248.98 44.1539 249.055 39.8451 247.131 35.76C245.192 31.643 241.193 27.6315 234.99 24.9874C222.586 19.7003 201.381 19.8554 169.471 35.2792L170.559 37.5301C202.168 22.2512 222.559 22.4064 234.01 27.2872C239.734 29.7271 243.228 33.3413 244.869 36.8253C246.525 40.3411 246.268 43.6081 244.762 45.6252L246.765 47.1209Z" fill="url(#paint0_linear_2342_28391)"/>
<g filter="url(#filter0_f_2342_28391)">
<path d="M66.42 102V102.5H68.2562L66.6735 101.569L66.42 102ZM50.3 102L50.0465 101.569L48.4638 102.5H50.3V102ZM52.055 100.375L52.471 100.652L52.4751 100.646L52.479 100.64L52.055 100.375ZM53.03 98.1L52.5532 97.9494L52.5496 97.961L52.5465 97.9728L53.03 98.1ZM53.485 95.63L52.9875 95.5802L52.9863 95.592L52.9857 95.6037L53.485 95.63ZM53.485 59.165L53.9825 59.1152L53.485 59.165ZM53.03 56.63L52.5465 56.7572L53.03 56.63ZM52.055 54.355L52.479 54.09L52.479 54.09L52.055 54.355ZM50.3 52.73V52.23L50.0661 53.1719L50.3 52.73ZM83.06 52.73L83.5587 52.6939L83.5251 52.23H83.06V52.73ZM84.165 68.005L83.6973 68.1817L84.6637 67.9689L84.165 68.005ZM81.5 62.545L81.0742 62.807L81.5 62.545ZM77.86 58.19L78.1893 57.8137L77.86 58.19ZM73.05 55.33L72.8682 55.7958L72.872 55.7972L73.05 55.33ZM63.105 54.29V53.79H62.605V54.29H63.105ZM63.105 76.26H62.605V76.76H63.105V76.26ZM66.55 76.195L66.5315 75.6953L66.5308 75.6954L66.55 76.195ZM70.06 75.935L70.0133 75.4371L70.0048 75.4381L70.06 75.935ZM73.57 75.22L73.4057 74.7477L73.3991 74.7501L73.57 75.22ZM76.04 73.79L75.7107 73.4137L75.7047 73.419L75.6988 73.4245L76.04 73.79ZM77.73 71.515L77.2827 71.2914L77.2786 71.3L77.73 71.515ZM79.03 68.07H79.53L78.5498 67.9306L79.03 68.07ZM79.03 88.09L78.5385 88.1816L79.53 88.09H79.03ZM73.765 79.12L73.9886 78.6728L73.765 79.12ZM69.15 78.015L69.1126 78.5138L69.1256 78.5144L69.15 78.015ZM63.105 77.82V77.32H62.605V77.82H63.105ZM63.17 95.63L62.6706 95.655L62.6713 95.6687L62.6727 95.6823L63.17 95.63ZM63.625 98.1L63.1415 98.2272L63.1446 98.239L63.1482 98.2506L63.625 98.1ZM64.665 100.375L64.241 100.64L64.2449 100.646L64.249 100.652L64.665 100.375ZM66.42 101.5H50.3V102.5H66.42V101.5ZM50.5535 102.431C51.349 101.963 51.992 101.371 52.471 100.652L51.639 100.098C51.2513 100.679 50.7243 101.17 50.0465 101.569L50.5535 102.431ZM52.479 100.64C52.9401 99.9023 53.2846 99.0972 53.5135 98.2272L52.5465 97.9728C52.3421 98.7495 52.0366 99.4611 51.631 100.11L52.479 100.64ZM53.5068 98.2506C53.7789 97.3888 53.9387 96.5238 53.9843 95.6563L52.9857 95.6037C52.9447 96.3829 52.8011 97.1645 52.5532 97.9494L53.5068 98.2506ZM53.9825 95.6797C54.0707 94.7984 54.115 93.9584 54.115 93.16H53.115C53.115 93.9216 53.0727 94.7282 52.9875 95.5802L53.9825 95.6797ZM54.115 93.16V61.57H53.115V93.16H54.115ZM54.115 61.57C54.115 60.814 54.0706 59.9956 53.9825 59.1152L52.9875 59.2147C53.0728 60.0678 53.115 60.8526 53.115 61.57H54.115ZM53.9825 59.1152C53.8933 58.223 53.737 57.3521 53.5135 56.5028L52.5465 56.7572C52.7563 57.5546 52.9034 58.3736 52.9875 59.2147L53.9825 59.1152ZM53.5135 56.5028C53.2846 55.6328 52.9401 54.8277 52.479 54.09L51.631 54.62C52.0366 55.2689 52.3421 55.9805 52.5465 56.7572L53.5135 56.5028ZM52.479 54.09C51.9981 53.3205 51.3468 52.7185 50.5339 52.2881L50.0661 53.1719C50.7265 53.5215 51.2453 54.0028 51.631 54.62L52.479 54.09ZM50.3 53.23H83.06V52.23H50.3V53.23ZM82.5613 52.7661L83.6663 68.0411L84.6637 67.9689L83.5587 52.6939L82.5613 52.7661ZM84.6327 67.8283C83.8854 65.8501 82.9833 64.0013 81.9258 62.2829L81.0742 62.807C82.0967 64.4687 82.9713 66.2599 83.6973 68.1817L84.6327 67.8283ZM81.9258 62.2829C80.8616 60.5535 79.6165 59.0625 78.1893 57.8137L77.5308 58.5663C78.8769 59.7442 80.0584 61.1565 81.0742 62.807L81.9258 62.2829ZM78.1893 57.8137C76.7555 56.5591 75.1002 55.576 73.228 54.8628L72.872 55.7972C74.6398 56.4707 76.1912 57.3942 77.5308 58.5663L78.1893 57.8137ZM73.2318 54.8642C71.3877 54.1446 69.3095 53.79 67.005 53.79V54.79C69.2072 54.79 71.159 55.1288 72.8682 55.7958L73.2318 54.8642ZM67.005 53.79H63.105V54.79H67.005V53.79ZM62.605 54.29V76.26H63.605V54.29H62.605ZM63.105 76.76C64.2812 76.76 65.4359 76.7382 66.5692 76.6946L66.5308 75.6954C65.4108 75.7384 64.2688 75.76 63.105 75.76V76.76ZM66.5685 76.6947C67.7508 76.6509 68.9331 76.5633 70.1152 76.4319L70.0048 75.4381C68.8469 75.5667 67.6892 75.6525 66.5315 75.6953L66.5685 76.6947ZM70.1067 76.4328C71.5212 76.3002 72.7358 76.0554 73.7409 75.6899L73.3991 74.7501C72.4976 75.0779 71.3721 75.3098 70.0133 75.4372L70.1067 76.4328ZM73.7343 75.6922C74.7846 75.3269 75.6717 74.8177 76.3812 74.1555L75.6988 73.4245C75.1083 73.9756 74.3488 74.4197 73.4057 74.7477L73.7343 75.6922ZM76.3693 74.1663C77.1185 73.5107 77.7216 72.6957 78.1814 71.73L77.2786 71.3C76.8718 72.1543 76.3481 72.856 75.7107 73.4137L76.3693 74.1663ZM78.1772 71.7386C78.6708 70.7514 79.1142 69.5733 79.5102 68.2094L78.5498 67.9306C78.1658 69.2533 77.7425 70.3719 77.2828 71.2914L78.1772 71.7386ZM78.53 68.07V88.09H79.53V68.07H78.53ZM79.5215 87.9984C79.0394 85.4122 78.3526 83.3717 77.439 81.91L76.591 82.44C77.4108 83.7516 78.0673 85.6544 78.5385 88.1816L79.5215 87.9984ZM77.439 81.91C76.5298 80.4553 75.3809 79.3689 73.9886 78.6728L73.5414 79.5672C74.7491 80.1711 75.7668 81.1213 76.591 82.44L77.439 81.91ZM73.9886 78.6728C72.6143 77.9856 71.0052 77.6049 69.1744 77.5156L69.1256 78.5144C70.8481 78.5984 72.3157 78.9544 73.5414 79.5672L73.9886 78.6728ZM69.1874 77.5164C67.4384 77.3852 65.4104 77.32 63.105 77.32V78.32C65.3929 78.32 67.3949 78.3848 69.1126 78.5136L69.1874 77.5164ZM62.605 77.82V93.16H63.605V77.82H62.605ZM62.605 93.16C62.605 93.9492 62.6269 94.7809 62.6706 95.655L63.6694 95.605C63.6264 94.7458 63.605 93.9308 63.605 93.16H62.605ZM62.6727 95.6823C62.7621 96.5317 62.9185 97.38 63.1415 98.2272L64.1085 97.9728C63.8982 97.1733 63.7512 96.375 63.6673 95.5777L62.6727 95.6823ZM63.1482 98.2506C63.4202 99.1119 63.7841 99.909 64.241 100.64L65.089 100.11C64.6792 99.4544 64.3498 98.7348 64.1018 97.9494L63.1482 98.2506ZM64.249 100.652C64.728 101.371 65.371 101.963 66.1665 102.431L66.6735 101.569C65.9957 101.17 65.4687 100.679 65.081 100.098L64.249 100.652ZM98.3132 95.565L97.8138 95.59L97.8144 95.6024L97.8156 95.6148L98.3132 95.565ZM98.7682 98.1L98.2846 98.2272L98.2877 98.239L98.2914 98.2506L98.7682 98.1ZM99.8082 100.375L99.3842 100.64L99.8082 100.375ZM101.563 102V102.5L101.797 101.558L101.563 102ZM85.4432 102L85.2092 101.558L85.4432 102.5V102ZM87.1982 100.375L86.7742 100.11L87.1982 100.375ZM88.6282 95.565L88.1306 95.5153L88.6282 95.565ZM88.4982 66.77L88.01 66.8785L88.0115 66.8845L88.4982 66.77ZM87.7832 64.625L88.2363 64.4136L87.7832 64.625ZM86.6132 62.74L86.1971 63.0173L86.208 63.0336L86.22 63.0489L86.6132 62.74ZM85.1182 60.725L85.0337 60.2322L84.1909 60.3767L84.7301 61.0403L85.1182 60.725ZM88.9532 60.01L89.0551 60.4995L89.0625 60.498L89.0699 60.4962L88.9532 60.01ZM91.9432 59.1L91.7723 58.63L91.7652 58.6328L91.9432 59.1ZM94.8032 57.865L95.0268 58.3123L95.0344 58.3083L94.8032 57.865ZM98.2482 55.915H98.7482V55.0319L97.9909 55.4863L98.2482 55.915ZM97.7482 93.16C97.7482 93.9063 97.7701 94.7164 97.8138 95.59L98.8125 95.54C98.7696 94.6803 98.7482 93.887 98.7482 93.16H97.7482ZM97.8156 95.6148C97.9049 96.507 98.0611 97.3779 98.2846 98.2272L99.2517 97.9728C99.0419 97.1754 98.8948 96.3564 98.8107 95.5153L97.8156 95.6148ZM98.2914 98.2506C98.5634 99.1119 98.9273 99.909 99.3842 100.64L100.232 100.11C99.8224 99.4544 99.493 98.7348 99.245 97.9494L98.2914 98.2506ZM99.3842 100.64C99.8651 101.41 100.516 102.012 101.329 102.442L101.797 101.558C101.137 101.208 100.618 100.727 100.232 100.11L99.3842 100.64ZM101.563 101.5H85.4432V102.5H101.563V101.5ZM85.6771 102.442C86.49 102.012 87.1412 101.41 87.6222 100.64L86.7742 100.11C86.3884 100.727 85.8697 101.208 85.2092 101.558L85.6771 102.442ZM87.6222 100.64C88.0832 99.9023 88.4278 99.0972 88.6567 98.2272L87.6896 97.9728C87.4852 98.7495 87.1797 99.4611 86.7742 100.11L87.6222 100.64ZM88.6567 98.2272C88.8802 97.3779 89.0365 96.507 89.1257 95.6148L88.1306 95.5153C88.0465 96.3564 87.8995 97.1754 87.6896 97.9728L88.6567 98.2272ZM89.1257 95.6148C89.2137 94.7344 89.2582 93.9159 89.2582 93.16H88.2582C88.2582 93.8774 88.2159 94.6622 88.1306 95.5153L89.1257 95.6148ZM89.2582 93.16V69.24H88.2582V93.16H89.2582ZM89.2582 69.24C89.2582 68.2989 89.1686 67.4363 88.9849 66.6555L88.0115 66.8845C88.1744 67.577 88.2582 68.3611 88.2582 69.24H89.2582ZM88.9863 66.6615C88.8059 65.85 88.5566 65.1 88.2363 64.4136L87.3301 64.8364C87.6164 65.45 87.8437 66.13 88.0101 66.8785L88.9863 66.6615ZM88.2363 64.4136C87.9156 63.7264 87.5049 63.0656 87.0063 62.4311L86.22 63.0489C86.6748 63.6277 87.0441 64.2236 87.3301 64.8364L88.2363 64.4136ZM87.0292 62.4626C86.586 61.7979 86.0781 61.1135 85.5062 60.4097L84.7301 61.0403C85.2849 61.7231 85.7737 62.3821 86.1971 63.0173L87.0292 62.4626ZM85.2026 61.2178C86.7228 60.9572 88.0074 60.7178 89.0551 60.4995L88.8512 59.5205C87.8189 59.7356 86.5468 59.9728 85.0337 60.2322L85.2026 61.2178ZM89.0699 60.4962C90.1711 60.2319 91.1885 59.9225 92.1212 59.5672L91.7652 58.6328C90.8778 58.9708 89.9019 59.2681 88.8365 59.5238L89.0699 60.4962ZM92.114 59.5699C93.0863 59.2164 94.0572 58.797 95.0268 58.3122L94.5796 57.4178C93.6425 57.8863 92.7067 58.2903 91.7723 58.6301L92.114 59.5699ZM95.0344 58.3083C96.0423 57.7824 97.1996 57.1272 98.5054 56.3437L97.9909 55.4863C96.6967 56.2628 95.5573 56.9076 94.5719 57.4217L95.0344 58.3083ZM97.7482 55.915V93.16H98.7482V55.915H97.7482ZM111.959 86.075L111.938 85.5754L111.339 85.6005L111.471 86.1851L111.959 86.075ZM113.324 89.91L112.876 90.1336L112.88 90.1402L113.324 89.91ZM115.599 93.03L115.245 93.3837L115.254 93.3921L115.599 93.03ZM118.784 95.11L118.587 95.5696L118.592 95.572L118.784 95.11ZM124.699 95.825L124.732 96.3239L124.746 96.3229L124.761 96.3211L124.699 95.825ZM126.779 95.5L126.871 95.9914V95.9914L126.779 95.5ZM128.729 94.98L128.897 95.4509L128.906 95.4477L128.914 95.4442L128.729 94.98ZM130.224 94.07L130.524 93.67L130.177 93.4098L129.87 93.7164L130.224 94.07ZM130.744 94.46L131.182 94.7004L131.391 94.3202L131.044 94.06L130.744 94.46ZM125.479 100.57L125.197 100.157L125.193 100.16L125.479 100.57ZM111.374 101.415L111.175 101.874L111.179 101.876L111.374 101.415ZM106.434 98.035L106.064 98.3719L106.069 98.3776L106.075 98.3831L106.434 98.035ZM103.249 92.9L102.784 93.0857L103.249 92.9ZM103.054 80.355L102.581 80.1907L102.578 80.2L103.054 80.355ZM105.979 75.09L105.599 74.7646L105.594 74.771L105.979 75.09ZM110.659 71.45L110.435 71.0028L110.659 71.45ZM122.489 71.06L122.309 71.5267L122.316 71.5294L122.323 71.5319L122.489 71.06ZM126.844 73.79L126.484 74.1371L126.49 74.1436L126.497 74.1499L126.844 73.79ZM129.639 78.08L129.172 78.2595L129.639 78.08ZM130.614 85.295L130.634 85.7946L131.114 85.7745V85.295H130.614ZM121.449 76.195L120.972 76.3456L120.975 76.3568L120.979 76.3679L121.449 76.195ZM120.279 73.985L119.879 74.285L119.883 74.2912L119.888 74.2973L120.279 73.985ZM113.844 72.815L113.449 72.508L113.844 72.815ZM112.414 75.61L112.888 75.7681L112.89 75.7624L112.414 75.61ZM111.634 78.86L111.139 78.784L111.138 78.7933L111.137 78.8027L111.634 78.86ZM111.634 84.45L111.138 84.5147L111.201 84.9958L111.683 84.9475L111.634 84.45ZM114.234 84.125L114.308 84.6195L114.234 84.125ZM116.834 83.735L116.761 83.2403L116.759 83.2405L116.834 83.735ZM120.474 82.175L120.147 81.7966L120.474 82.175ZM111.471 86.1851C111.783 87.5672 112.251 88.8837 112.876 90.1336L113.771 89.6864C113.182 88.5097 112.741 87.2695 112.446 85.9649L111.471 86.1851ZM112.88 90.1402C113.509 91.3546 114.298 92.4364 115.245 93.3836L115.952 92.6764C115.079 91.8036 114.351 90.8054 113.767 89.6798L112.88 90.1402ZM115.254 93.3921C116.209 94.3018 117.321 95.0273 118.587 95.5696L118.981 94.6504C117.819 94.1527 116.808 93.4915 115.943 92.6679L115.254 93.3921ZM118.592 95.572C119.918 96.1205 121.393 96.39 123.009 96.39V95.39C121.505 95.39 120.163 95.1395 118.975 94.648L118.592 95.572ZM123.009 96.39C123.5 96.39 124.074 96.3677 124.732 96.3239L124.665 95.3261C124.023 95.3689 123.471 95.39 123.009 95.39V96.39ZM124.761 96.3211C125.464 96.2332 126.168 96.1233 126.871 95.9914L126.686 95.0086C126.003 95.1367 125.32 95.2435 124.637 95.3289L124.761 96.3211ZM126.871 95.9914C127.588 95.857 128.263 95.6772 128.897 95.4509L128.56 94.5091C127.981 94.7162 127.356 94.883 126.686 95.0086L126.871 95.9914ZM128.914 95.4442C129.602 95.169 130.167 94.834 130.577 94.4236L129.87 93.7164C129.587 93.9994 129.155 94.271 128.543 94.5158L128.914 95.4442ZM129.924 94.47L130.444 94.86L131.044 94.06L130.524 93.67L129.924 94.47ZM130.305 94.2196C128.861 96.8536 127.155 98.824 125.197 100.157L125.76 100.983C127.876 99.5427 129.68 97.4398 131.182 94.7004L130.305 94.2196ZM125.193 100.16C123.307 101.472 120.816 102.15 117.679 102.15V103.15C120.955 103.15 123.664 102.441 125.764 100.98L125.193 100.16ZM117.679 102.15C115.488 102.15 113.453 101.75 111.568 100.954L111.179 101.876C113.195 102.727 115.363 103.15 117.679 103.15V102.15ZM111.572 100.956C109.723 100.158 108.132 99.0677 106.793 97.6869L106.075 98.3831C107.509 99.8623 109.211 101.026 111.175 101.874L111.572 100.956ZM106.803 97.6981C105.502 96.2714 104.472 94.6116 103.713 92.7143L102.784 93.0857C103.585 95.0884 104.678 96.8519 106.064 98.3719L106.803 97.6981ZM103.713 92.7143C102.958 90.8276 102.579 88.7894 102.579 86.595H101.579C101.579 88.9073 101.979 91.0724 102.784 93.0857L103.713 92.7143ZM102.579 86.595C102.579 84.4792 102.896 82.4516 103.529 80.51L102.578 80.2C101.911 82.245 101.579 84.3775 101.579 86.595H102.579ZM103.526 80.5193C104.201 78.5782 105.148 76.8765 106.364 75.409L105.594 74.771C104.296 76.3368 103.293 78.1451 102.581 80.1907L103.526 80.5193ZM106.358 75.4154C107.614 73.9503 109.121 72.778 110.882 71.8972L110.435 71.0028C108.557 71.942 106.943 73.1964 105.599 74.7646L106.358 75.4154ZM110.882 71.8972C112.624 71.0262 114.604 70.585 116.834 70.585V69.585C114.469 69.585 112.333 70.0538 110.435 71.0028L110.882 71.8972ZM116.834 70.585C118.861 70.585 120.684 70.9017 122.309 71.5267L122.668 70.5933C120.913 69.9183 118.966 69.585 116.834 69.585V70.585ZM122.323 71.5319C123.99 72.1151 125.373 72.9849 126.484 74.1371L127.204 73.4429C125.975 72.1684 124.454 71.2182 122.654 70.5881L122.323 71.5319ZM126.497 74.1499C127.653 75.2655 128.546 76.6325 129.172 78.2595L130.105 77.9005C129.431 76.1475 128.46 74.6545 127.191 73.4301L126.497 74.1499ZM129.172 78.2595C129.797 79.8844 130.114 81.7074 130.114 83.735H131.114C131.114 81.6026 130.78 79.6556 130.105 77.9005L129.172 78.2595ZM130.114 83.735V85.295H131.114V83.735H130.114ZM130.593 84.7954L111.938 85.5754L111.979 86.5746L130.634 85.7946L130.593 84.7954ZM122.404 78.535C122.404 77.7293 122.238 76.8905 121.918 76.0221L120.979 76.3679C121.266 77.1461 121.404 77.8674 121.404 78.535H122.404ZM121.925 76.0444C121.648 75.1645 121.229 74.3726 120.669 73.6727L119.888 74.2973C120.368 74.8974 120.73 75.5788 120.972 76.3456L121.925 76.0444ZM120.679 73.685C120.124 72.9454 119.472 72.3389 118.724 71.871L118.194 72.719C118.832 73.1177 119.393 73.638 119.879 74.285L120.679 73.685ZM118.724 71.871C117.95 71.3876 117.1 71.145 116.184 71.145V72.145C116.914 72.145 117.58 72.3357 118.194 72.719L118.724 71.871ZM116.184 71.145C115.07 71.145 114.146 71.6114 113.449 72.508L114.238 73.122C114.754 72.4586 115.391 72.145 116.184 72.145V71.145ZM113.449 72.508C112.801 73.3408 112.299 74.3267 111.937 75.4576L112.89 75.7624C113.221 74.7266 113.673 73.8492 114.238 73.122L113.449 72.508ZM111.939 75.4519C111.583 76.5197 111.317 77.6305 111.139 78.784L112.128 78.936C112.297 77.8361 112.551 76.7803 112.888 75.7681L111.939 75.4519ZM111.137 78.8027C111.006 79.9366 110.939 80.8468 110.939 81.525H111.939C111.939 80.9032 112.001 80.0367 112.13 78.9173L111.137 78.8027ZM110.939 81.525C110.939 82.5011 111.005 83.4977 111.138 84.5147L112.129 84.3853C112.002 83.409 111.939 82.4556 111.939 81.525H110.939ZM111.683 84.9475C112.558 84.86 113.433 84.7507 114.308 84.6195L114.159 83.6305C113.301 83.7593 112.442 83.8666 111.584 83.9525L111.683 84.9475ZM114.308 84.6195C115.174 84.4895 116.041 84.3595 116.908 84.2295L116.759 83.2405C115.893 83.3705 115.026 83.5005 114.159 83.6305L114.308 84.6195ZM116.906 84.2297C118.456 84.0017 119.763 83.4494 120.8 82.5534L120.147 81.7966C119.278 82.5472 118.158 83.0349 116.761 83.2403L116.906 84.2297ZM120.8 82.5534C121.892 81.6104 122.404 80.241 122.404 78.535H121.404C121.404 80.0357 120.962 81.0929 120.147 81.7966L120.8 82.5534ZM146.355 95.435L145.908 95.6586L145.91 95.6627L146.355 95.435ZM142.715 89.065L143.138 88.7986L142.731 88.1515L142.302 88.7842L142.715 89.065ZM140.635 92.965L140.172 92.7768L140.635 92.965ZM140.895 100.31L140.523 100.643L140.527 100.649L140.532 100.654L140.895 100.31ZM144.08 102V102.5L144.19 101.512L144.08 102ZM129 102L128.801 101.541L129 102.5V102ZM132.25 99.725L131.911 99.3581L132.25 99.725ZM135.76 96.085L136.137 96.4134L136.142 96.4074L135.76 96.085ZM139.075 91.795L138.672 91.4987L138.667 91.5067L139.075 91.795ZM141.935 87.83L142.344 88.1177L142.536 87.8458L142.359 87.5641L141.935 87.83ZM138.165 82.175L137.752 82.4567L137.757 82.463L138.165 82.175ZM134.33 76.91L133.932 77.2118L133.937 77.2184L134.33 76.91ZM131.015 72.815L131.39 72.4837L131.015 72.815ZM128.675 70.605V70.105H126.909L128.413 71.0308L128.675 70.605ZM144.275 70.605L144.605 70.9813L145.606 70.105H144.275V70.605ZM144.795 77.105L144.352 77.3363L144.354 77.3403L144.795 77.105ZM148.695 83.67L148.275 83.9404L148.684 84.5771L149.109 83.9508L148.695 83.67ZM150.775 79.77L150.315 79.5747L150.312 79.5818L150.775 79.77ZM150.515 72.295L150.143 72.6284L150.147 72.6337L150.152 72.6389L150.515 72.295ZM147.395 70.605V70.105L147.285 71.0927L147.395 70.605ZM162.475 70.605L162.675 71.0635L162.475 70.105V70.605ZM159.225 72.945L159.565 73.312L159.572 73.3052L159.225 72.945ZM155.715 76.65L156.092 76.9784L156.097 76.9724L155.715 76.65ZM149.475 84.84L149.066 84.5523L148.868 84.834L149.061 85.1196L149.475 84.84ZM153.375 90.56L152.963 90.8437L152.971 90.8541L153.375 90.56ZM157.34 95.825L156.947 96.1335L156.951 96.1387L157.34 95.825ZM160.72 99.855L160.346 100.186L160.353 100.194L160.72 99.855ZM163.125 102V102.5L163.362 101.56L163.125 102ZM146.485 102L146.151 101.628L145.182 102.5H146.485V102ZM148.285 99.335C148.285 98.8769 148.141 98.3008 147.897 97.6354C147.649 96.9594 147.282 96.1488 146.8 95.2073L145.91 95.6627C146.382 96.5845 146.73 97.3556 146.958 97.9796C147.191 98.6142 147.285 99.0565 147.285 99.335H148.285ZM146.802 95.2114C145.84 93.2865 144.618 91.1486 143.138 88.7986L142.292 89.3314C143.759 91.6614 144.964 93.7701 145.908 95.6586L146.802 95.2114ZM142.302 88.7842C141.458 90.0272 140.748 91.3583 140.172 92.7768L141.099 93.1532C141.649 91.7983 142.326 90.5295 143.129 89.3457L142.302 88.7842ZM140.172 92.7768C139.588 94.2143 139.29 95.6215 139.29 96.995H140.29C140.29 95.7685 140.556 94.489 141.099 93.1532L140.172 92.7768ZM139.29 96.995C139.29 98.4721 139.685 99.7067 140.523 100.643L141.268 99.9766C140.633 99.2666 140.29 98.2912 140.29 96.995H139.29ZM140.532 100.654C141.394 101.563 142.551 102.167 143.97 102.488L144.19 101.512C142.923 101.226 141.957 100.703 141.258 99.9661L140.532 100.654ZM144.08 101.5H129V102.5H144.08V101.5ZM129.2 102.459C130.266 101.995 131.396 101.197 132.59 100.092L131.911 99.3581C130.764 100.419 129.728 101.138 128.801 101.541L129.2 102.459ZM132.59 100.092C133.775 98.9951 134.957 97.7687 136.137 96.4134L135.383 95.7566C134.224 97.088 133.066 98.2883 131.911 99.3581L132.59 100.092ZM136.142 96.4074C137.322 95.0099 138.435 93.5685 139.484 92.0833L138.667 91.5067C137.635 92.9682 136.539 94.3868 135.378 95.7626L136.142 96.4074ZM139.478 92.0912C140.563 90.6158 141.518 89.2912 142.344 88.1177L141.526 87.5423C140.705 88.7088 139.754 90.0275 138.672 91.4988L139.478 92.0912ZM142.359 87.5641C141.184 85.6929 139.922 83.8005 138.574 81.887L137.757 82.463C139.095 84.3628 140.347 86.2405 141.512 88.0959L142.359 87.5641ZM138.578 81.8933C137.273 79.9787 135.988 78.2146 134.724 76.6016L133.937 77.2184C135.186 78.812 136.458 80.558 137.752 82.4567L138.578 81.8933ZM134.729 76.6083C133.51 74.9979 132.397 73.6225 131.39 72.4837L130.641 73.1463C131.627 74.2609 132.724 75.6154 133.932 77.2117L134.729 76.6083ZM131.39 72.4837C130.391 71.355 129.569 70.5681 128.937 70.1792L128.413 71.0308C128.908 71.3353 129.646 72.0217 130.641 73.1463L131.39 72.4837ZM128.675 71.105H144.275V70.105H128.675V71.105ZM143.946 70.2287C143.146 70.929 142.735 71.8238 142.735 72.88H143.735C143.735 72.1162 144.018 71.4944 144.605 70.9813L143.946 70.2287ZM142.735 72.88C142.735 73.3809 142.89 74.0052 143.156 74.7269C143.426 75.4582 143.826 76.3291 144.352 77.3363L145.239 76.8737C144.724 75.8876 144.344 75.0577 144.094 74.3806C143.841 73.694 143.735 73.2024 143.735 72.88H142.735ZM144.354 77.3403C145.402 79.3052 146.709 81.5055 148.275 83.9404L149.116 83.3996C147.561 80.9811 146.268 78.8048 145.236 76.8697L144.354 77.3403ZM149.109 83.9508C149.952 82.7078 150.662 81.3767 151.239 79.9582L150.312 79.5818C149.762 80.9366 149.085 82.2055 148.282 83.3893L149.109 83.9508ZM151.236 79.9653C151.864 78.4831 152.185 77.0301 152.185 75.61H151.185C151.185 76.8766 150.9 78.1969 150.315 79.5747L151.236 79.9653ZM152.185 75.61C152.185 74.1255 151.765 72.8871 150.878 71.9511L150.152 72.6389C150.826 73.3496 151.185 74.3212 151.185 75.61H152.185ZM150.888 71.9616C150.066 71.0435 148.925 70.4378 147.505 70.1173L147.285 71.0927C148.552 71.3789 149.491 71.8998 150.143 72.6284L150.888 71.9616ZM147.395 71.105H162.475V70.105H147.395V71.105ZM162.276 70.1465C161.205 70.6122 160.072 71.4353 158.878 72.5848L159.572 73.3052C160.718 72.2014 161.753 71.4644 162.675 71.0635L162.276 70.1465ZM158.886 72.5781C157.699 73.6771 156.515 74.9273 155.333 76.3276L156.097 76.9724C157.256 75.5993 158.412 74.3795 159.565 73.3119L158.886 72.5781ZM155.338 76.3216C154.159 77.6756 153.024 79.0947 151.932 80.5788L152.738 81.1712C153.813 79.7086 154.932 78.3111 156.092 76.9784L155.338 76.3216ZM151.932 80.5788C150.848 82.0542 149.892 83.3788 149.066 84.5523L149.884 85.1277C150.705 83.9612 151.656 82.6425 152.738 81.1712L151.932 80.5788ZM149.061 85.1196C150.318 86.9843 151.619 88.8924 152.964 90.8437L153.787 90.2763C152.445 88.3276 151.146 86.4223 149.89 84.5604L149.061 85.1196ZM152.971 90.8541C154.361 92.7649 155.686 94.5247 156.947 96.1334L157.734 95.5166C156.481 93.9186 155.163 92.1685 153.78 90.2659L152.971 90.8541ZM156.951 96.1387C158.211 97.7028 159.343 99.0523 160.346 100.186L161.095 99.5237C160.105 98.4043 158.983 97.0672 157.73 95.5113L156.951 96.1387ZM160.353 100.194C161.393 101.32 162.244 102.093 162.888 102.44L163.362 101.56C162.88 101.3 162.128 100.643 161.088 99.5159L160.353 100.194ZM163.125 101.5H146.485V102.5H163.125V101.5ZM146.82 102.372C147.772 101.515 148.285 100.498 148.285 99.335H147.285C147.285 100.165 146.932 100.925 146.151 101.628L146.82 102.372ZM188.924 100.375L189.089 99.9031L188.99 99.8684L188.885 99.8765L188.924 100.375ZM187.039 100.635L186.947 100.144L186.941 100.145L187.039 100.635ZM185.154 101.025L185.258 101.514L185.154 101.025ZM183.464 101.48L183.585 101.965L183.604 101.96L183.622 101.954L183.464 101.48ZM182.229 101.935L181.729 101.933L181.726 102.798L182.477 102.369L182.229 101.935ZM182.359 58.71L182.859 58.7115L182.859 58.5464L182.761 58.4134L182.359 58.71ZM177.419 54.745L177.191 55.1904L177.203 55.1959L177.419 54.745ZM165.979 54.875L165.669 54.4822L165.663 54.4869L165.979 54.875ZM165.264 64.82L164.835 65.0772L164.839 65.0845L164.844 65.0916L165.264 64.82ZM168.904 68.33L168.65 68.761L169.199 67.9268L168.904 68.33ZM167.279 66.64L166.843 66.8851L166.852 66.9016L166.863 66.9174L167.279 66.64ZM168.059 61.05L167.705 60.6964L168.059 61.05ZM174.754 61.05L174.392 61.3952L174.4 61.4036L174.408 61.4117L174.754 61.05ZM174.754 67.745L175.107 68.0986V68.0985L174.754 67.745ZM169.229 68.59L168.995 69.0319L169.005 69.0374L169.016 69.0424L169.229 68.59ZM167.214 67.485L167.462 67.0509L167.454 67.0463L167.446 67.0421L167.214 67.485ZM164.614 65.73L164.292 66.1125L164.614 65.73ZM162.469 63.455L162.871 63.1584L162.869 63.155L162.469 63.455ZM160.974 60.66L161.446 60.4957L161.443 60.4867L161.439 60.4778L160.974 60.66ZM161.104 54.485L161.536 54.7355L161.544 54.7223L161.551 54.7086L161.104 54.485ZM162.924 52.405L163.201 52.821L163.209 52.8158L163.216 52.8103L162.924 52.405ZM165.589 51.235L165.695 51.7236L165.705 51.7214L165.715 51.7188L165.589 51.235ZM175.729 52.145L175.546 52.6105L175.729 52.145ZM182.229 55.2L181.987 55.638L181.994 55.6417L182.229 55.2ZM195.489 60.725L195.877 61.0403L196.421 60.3709L195.569 60.2316L195.489 60.725ZM193.929 62.74L193.525 62.4443L193.522 62.4494L193.929 62.74ZM192.824 64.625L192.371 64.4136L192.824 64.625ZM192.109 66.77L192.595 66.8845L192.597 66.8785L192.109 66.77ZM191.849 75.285H191.349V76.6254L192.227 75.6125L191.849 75.285ZM195.489 71.645L195.176 71.2546L195.17 71.2599L195.163 71.2654L195.489 71.645ZM197.374 70.41L197.597 70.8574L197.609 70.8512L197.374 70.41ZM209.464 74.7L209.072 75.0109L209.077 75.0173L209.082 75.0235L209.464 74.7ZM212.129 92.055L212.605 92.207L212.129 92.055ZM209.204 97.45L208.82 97.1299L208.814 97.1363L209.204 97.45ZM204.524 101.22L204.747 101.667L204.751 101.665L204.524 101.22ZM195.684 102.39L195.766 101.897L195.684 102.39ZM193.409 101.935L193.26 102.412L193.277 102.418L193.294 102.422L193.409 101.935ZM191.264 101.22L191.088 101.688L191.097 101.691L191.264 101.22ZM180.019 102V102.5L180.253 101.558L180.019 102ZM163.964 102L163.719 101.564L162.055 102.5H163.964V102ZM165.654 100.375L166.078 100.64L166.085 100.629L165.654 100.375ZM166.629 98.1L166.152 97.9494L166.149 97.9578L166.147 97.9662L166.629 98.1ZM167.149 95.565L166.651 95.5153L167.149 95.565ZM167.019 81.46L166.531 81.5685L166.532 81.5745L167.019 81.46ZM166.304 79.315L165.851 79.5264L166.304 79.315ZM165.134 77.43L164.718 77.7074L164.728 77.7236L164.741 77.7389L165.134 77.43ZM163.639 75.415L163.554 74.9222L162.711 75.0667L163.251 75.7303L163.639 75.415ZM167.474 74.7L167.576 75.1895L167.583 75.188L167.59 75.1862L167.474 74.7ZM170.464 73.79L170.293 73.32L170.286 73.3228L170.464 73.79ZM173.324 72.555L173.547 73.0023L173.555 72.9983L173.324 72.555ZM176.769 70.605H177.269V69.7219L176.511 70.1763L176.769 70.605ZM176.834 95.565L176.334 95.59L176.335 95.6024L176.336 95.6148L176.834 95.565ZM178.264 100.375L177.84 100.64L178.264 100.375ZM191.849 75.87L191.601 75.4359L191.349 75.5798V75.87H191.849ZM192.044 95.24L191.548 95.3047L192.044 95.24ZM192.824 98.035L192.368 98.2402L192.372 98.249L192.824 98.035ZM194.384 100.115L194.056 100.493L194.062 100.498L194.068 100.503L194.384 100.115ZM200.429 99.855L200.743 100.244L200.754 100.235L200.429 99.855ZM202.574 96.995L202.126 96.7714L202.123 96.7784L202.12 96.7855L202.574 96.995ZM203.744 93.42L203.253 93.3219L203.251 93.335L203.744 93.42ZM203.484 84.775L202.999 84.8992L203.484 84.775ZM201.469 80.225L201.051 80.4994L201.055 80.5054L201.469 80.225ZM197.959 76.91L197.694 77.334L197.701 77.3388L197.709 77.3433L197.959 76.91ZM188.885 99.8765C188.3 99.9215 187.653 100.011 186.947 100.144L187.131 101.126C187.811 100.999 188.421 100.915 188.962 100.874L188.885 99.8765ZM186.941 100.145C186.289 100.275 185.658 100.406 185.049 100.536L185.258 101.514C185.863 101.384 186.489 101.255 187.137 101.125L186.941 100.145ZM185.049 100.536C184.427 100.669 183.845 100.826 183.306 101.006L183.622 101.954C184.122 101.788 184.667 101.641 185.258 101.514L185.049 100.536ZM183.342 100.995C182.799 101.131 182.339 101.296 181.981 101.501L182.477 102.369C182.725 102.227 183.088 102.089 183.585 101.965L183.342 100.995ZM182.729 101.937L182.859 58.7115L181.859 58.7085L181.729 101.933L182.729 101.937ZM182.761 58.4134C181.493 56.6928 179.779 55.3216 177.635 54.2941L177.203 55.1959C179.218 56.1618 180.797 57.4339 181.956 59.0066L182.761 58.4134ZM177.646 54.2997C175.548 53.2282 173.434 52.685 171.309 52.685V53.685C173.257 53.685 175.216 54.1818 177.191 55.1903L177.646 54.2997ZM171.309 52.685C169.093 52.685 167.202 53.2749 165.669 54.4823L166.288 55.2677C167.616 54.2217 169.278 53.685 171.309 53.685V52.685ZM165.663 54.4869C164.13 55.7326 163.399 57.584 163.399 59.945H164.399C164.399 57.7994 165.054 56.2707 166.294 55.2631L165.663 54.4869ZM163.399 59.945C163.399 61.7709 163.879 63.4845 164.835 65.0772L165.692 64.5628C164.828 63.1221 164.399 61.5858 164.399 59.945H163.399ZM164.844 65.0916C165.838 66.6285 167.108 67.8538 168.65 68.761L169.157 67.899C167.753 67.0729 166.596 65.9582 165.683 64.5484L164.844 65.0916ZM169.199 67.9268C168.595 67.4836 168.095 66.9624 167.695 66.3626L166.863 66.9174C167.329 67.6176 167.912 68.2231 168.608 68.7332L169.199 67.9268ZM167.714 66.3949C167.368 65.7791 167.194 65.1056 167.194 64.365H166.194C166.194 65.2711 166.409 66.1143 166.843 66.8851L167.714 66.3949ZM167.194 64.365C167.194 63.1961 167.597 62.2187 168.412 61.4035L167.705 60.6964C166.7 61.7013 166.194 62.9339 166.194 64.365H167.194ZM168.412 61.4035C169.276 60.5401 170.277 60.12 171.439 60.12V59.12C170.001 59.12 168.748 59.6532 167.705 60.6964L168.412 61.4035ZM171.439 60.12C172.6 60.12 173.575 60.5392 174.392 61.3952L175.115 60.7048C174.112 59.6541 172.877 59.12 171.439 59.12V60.12ZM174.408 61.4117C175.264 62.2288 175.684 63.2038 175.684 64.365H176.684C176.684 62.9262 176.15 61.6912 175.099 60.6883L174.408 61.4117ZM175.684 64.365C175.684 65.527 175.264 66.528 174.4 67.3914L175.107 68.0985C176.15 67.0553 176.684 65.803 176.684 64.365H175.684ZM174.4 67.3914C173.585 68.2066 172.608 68.61 171.439 68.61V69.61C172.87 69.61 174.102 69.1034 175.107 68.0986L174.4 67.3914ZM171.439 68.61C170.783 68.61 170.119 68.4562 169.442 68.1376L169.016 69.0424C169.812 69.4171 170.621 69.61 171.439 69.61V68.61ZM169.463 68.1481C168.73 67.7602 168.063 67.3944 167.462 67.0509L166.966 67.9191C167.578 68.2689 168.254 68.6398 168.995 69.0319L169.463 68.1481ZM167.446 67.0421C166.569 66.583 165.733 66.0186 164.936 65.3475L164.292 66.1125C165.141 66.828 166.038 67.4336 166.982 67.9279L167.446 67.0421ZM164.936 65.3475C164.141 64.6782 163.453 63.9484 162.871 63.1584L162.066 63.7516C162.697 64.6082 163.44 65.3951 164.292 66.1125L164.936 65.3475ZM162.869 63.155C162.249 62.3285 161.775 61.4424 161.446 60.4957L160.501 60.8243C160.865 61.8709 161.389 62.8482 162.069 63.755L162.869 63.155ZM161.439 60.4778C161.072 59.5399 160.889 58.5618 160.889 57.54H159.889C159.889 58.6849 160.095 59.7868 160.508 60.8422L161.439 60.4778ZM160.889 57.54C160.889 56.3909 161.114 55.4645 161.536 54.7355L160.671 54.2345C160.14 55.1522 159.889 56.2625 159.889 57.54H160.889ZM161.551 54.7086C161.947 53.917 162.496 53.2911 163.201 52.821L162.646 51.989C161.791 52.5589 161.127 53.3196 160.656 54.2614L161.551 54.7086ZM163.216 52.8103C163.937 52.2897 164.761 51.9265 165.695 51.7236L165.482 50.7464C164.423 50.9768 163.47 51.3936 162.631 51.9997L163.216 52.8103ZM165.715 51.7188C166.668 51.4701 167.666 51.345 168.709 51.345V50.345C167.585 50.345 166.502 50.4799 165.462 50.7512L165.715 51.7188ZM168.709 51.345C171.119 51.345 173.397 51.7675 175.546 52.6105L175.911 51.6795C173.641 50.7891 171.239 50.345 168.709 50.345V51.345ZM175.546 52.6105C177.736 53.4691 179.883 54.4781 181.987 55.6379L182.47 54.7621C180.328 53.5818 178.142 52.5543 175.911 51.6795L175.546 52.6105ZM181.994 55.6417C184.121 56.7702 186.27 57.8771 188.44 58.9622L188.887 58.0678C186.724 56.9862 184.583 55.8831 182.463 54.7583L181.994 55.6417ZM188.44 58.9622C190.652 60.068 192.975 60.8203 195.408 61.2184L195.569 60.2316C193.236 59.8497 191.009 59.1287 188.887 58.0678L188.44 58.9622ZM195.101 60.4097C194.533 61.1088 194.008 61.787 193.525 62.4443L194.332 63.0357C194.803 62.393 195.318 61.7279 195.877 61.0403L195.101 60.4097ZM193.522 62.4494C193.071 63.08 192.687 63.7347 192.371 64.4136L193.277 64.8364C193.567 64.2153 193.919 63.6133 194.336 63.0306L193.522 62.4494ZM192.371 64.4136C192.05 65.1 191.801 65.85 191.621 66.6615L192.597 66.8785C192.763 66.13 192.99 65.45 193.277 64.8364L192.371 64.4136ZM191.622 66.6555C191.438 67.4363 191.349 68.2989 191.349 69.24H192.349C192.349 68.3611 192.432 67.577 192.595 66.8845L191.622 66.6555ZM191.349 69.24V75.285H192.349V69.24H191.349ZM192.227 75.6125C192.782 74.9714 193.359 74.3518 193.957 73.7536L193.25 73.0464C192.635 73.6615 192.042 74.2986 191.471 74.9575L192.227 75.6125ZM193.957 73.7536C194.599 73.1113 195.218 72.5352 195.814 72.0246L195.163 71.2654C194.546 71.7948 193.908 72.3887 193.25 73.0464L193.957 73.7536ZM195.801 72.0354C196.429 71.5327 197.028 71.1417 197.597 70.8572L197.15 69.9628C196.506 70.2849 195.848 70.7173 195.176 71.2546L195.801 72.0354ZM197.609 70.8512C198.215 70.528 198.718 70.39 199.129 70.39V69.39C198.5 69.39 197.832 69.5987 197.138 69.9688L197.609 70.8512ZM199.129 70.39C201.317 70.39 203.232 70.8105 204.885 71.6372L205.332 70.7428C203.519 69.8362 201.447 69.39 199.129 69.39V70.39ZM204.885 71.6372C206.555 72.4723 207.949 73.5965 209.072 75.0109L209.855 74.3891C208.638 72.8568 207.129 71.6411 205.332 70.7428L204.885 71.6372ZM209.082 75.0235C210.25 76.3997 211.129 78.0087 211.717 79.8566L212.67 79.5534C212.045 77.588 211.104 75.8603 209.845 74.3765L209.082 75.0235ZM211.717 79.8566C212.308 81.7123 212.604 83.6544 212.604 85.685H213.604C213.604 83.5556 213.293 81.511 212.67 79.5534L211.717 79.8566ZM212.604 85.685C212.604 87.8452 212.286 89.9171 211.652 91.903L212.605 92.207C213.271 90.1196 213.604 87.9448 213.604 85.685H212.604ZM211.652 91.903C211.021 93.8815 210.076 95.622 208.82 97.1299L209.588 97.7701C210.931 96.158 211.936 94.3018 212.605 92.207L211.652 91.903ZM208.814 97.1363C207.604 98.6392 206.1 99.8521 204.296 100.775L204.751 101.665C206.674 100.681 208.29 99.3808 209.593 97.7637L208.814 97.1363ZM204.3 100.773C202.559 101.643 200.558 102.085 198.284 102.085V103.085C200.69 103.085 202.848 102.617 204.747 101.667L204.3 100.773ZM198.284 102.085C197.352 102.085 196.514 102.021 195.766 101.897L195.601 102.883C196.413 103.019 197.308 103.085 198.284 103.085V102.085ZM195.766 101.897C194.996 101.769 194.249 101.619 193.523 101.448L193.294 102.422C194.042 102.598 194.811 102.751 195.601 102.883L195.766 101.897ZM193.558 101.458C192.871 101.243 192.161 101.007 191.43 100.749L191.097 101.691C191.839 101.953 192.56 102.194 193.26 102.412L193.558 101.458ZM191.439 100.752C190.742 100.49 189.958 100.207 189.089 99.9031L188.758 100.847C189.622 101.149 190.399 101.43 191.088 101.688L191.439 100.752ZM180.019 101.5H163.964V102.5H180.019V101.5ZM164.209 102.436C164.977 102.004 165.601 101.402 166.078 100.64L165.23 100.11C164.839 100.734 164.337 101.216 163.719 101.564L164.209 102.436ZM166.085 100.629C166.539 99.8564 166.881 99.058 167.11 98.2338L166.147 97.9662C165.943 98.702 165.635 99.4202 165.223 100.121L166.085 100.629ZM167.105 98.2506C167.376 97.3941 167.556 96.5153 167.646 95.6148L166.651 95.5153C166.568 96.348 166.401 97.1592 166.152 97.9494L167.105 98.2506ZM167.646 95.6148C167.734 94.7344 167.779 93.9159 167.779 93.16H166.779C166.779 93.8774 166.736 94.6622 166.651 95.5153L167.646 95.6148ZM167.779 93.16V83.93H166.779V93.16H167.779ZM167.779 83.93C167.779 82.9889 167.689 82.1263 167.505 81.3455L166.532 81.5745C166.695 82.267 166.779 83.0511 166.779 83.93H167.779ZM167.507 81.3515C167.326 80.54 167.077 79.79 166.757 79.1036L165.851 79.5264C166.137 80.14 166.364 80.82 166.531 81.5685L167.507 81.3515ZM166.757 79.1036C166.436 78.4164 166.025 77.7556 165.527 77.1211L164.741 77.7389C165.195 78.3177 165.565 78.9136 165.851 79.5264L166.757 79.1036ZM165.55 77.1526C165.107 76.4879 164.599 75.8035 164.027 75.0997L163.251 75.7303C163.805 76.4131 164.294 77.0721 164.718 77.7074L165.55 77.1526ZM163.723 75.9078C165.243 75.6472 166.528 75.4078 167.576 75.1895L167.372 74.2105C166.339 74.4256 165.067 74.6628 163.554 74.9222L163.723 75.9078ZM167.59 75.1862C168.692 74.9219 169.709 74.6125 170.642 74.2572L170.286 73.3228C169.398 73.6608 168.422 73.9581 167.357 74.2138L167.59 75.1862ZM170.635 74.2599C171.607 73.9064 172.578 73.487 173.547 73.0022L173.1 72.1078C172.163 72.5763 171.227 72.9803 170.293 73.3201L170.635 74.2599ZM173.555 72.9983C174.563 72.4724 175.72 71.8172 177.026 71.0337L176.511 70.1763C175.217 70.9528 174.078 71.5976 173.092 72.1117L173.555 72.9983ZM176.269 70.605V93.16H177.269V70.605H176.269ZM176.269 93.16C176.269 93.9063 176.291 94.7164 176.334 95.59L177.333 95.54C177.29 94.6803 177.269 93.887 177.269 93.16H176.269ZM176.336 95.6148C176.425 96.507 176.582 97.3779 176.805 98.2272L177.772 97.9728C177.562 97.1754 177.415 96.3564 177.331 95.5153L176.336 95.6148ZM176.805 98.2272C177.034 99.0972 177.379 99.9023 177.84 100.64L178.688 100.11C178.282 99.4611 177.977 98.7495 177.772 97.9728L176.805 98.2272ZM177.84 100.64C178.321 101.41 178.972 102.012 179.785 102.442L180.253 101.558C179.592 101.208 179.073 100.727 178.688 100.11L177.84 100.64ZM191.349 75.87V92.51H192.349V75.87H191.349ZM191.349 92.51C191.349 93.3591 191.416 94.291 191.548 95.3047L192.539 95.1753C192.412 94.1956 192.349 93.3076 192.349 92.51H191.349ZM191.548 95.3047C191.684 96.3471 191.956 97.3264 192.368 98.2402L193.28 97.8298C192.911 97.0103 192.664 96.1263 192.539 95.1753L191.548 95.3047ZM192.372 98.249C192.79 99.1312 193.351 99.8815 194.056 100.493L194.711 99.7372C194.117 99.2219 193.638 98.5854 193.276 97.821L192.372 98.249ZM194.068 100.503C194.869 101.153 195.876 101.46 197.049 101.46V100.46C196.055 100.46 195.285 100.203 194.699 99.7269L194.068 100.503ZM197.049 101.46C198.489 101.46 199.731 101.063 200.743 100.244L200.114 99.4664C199.306 100.121 198.295 100.46 197.049 100.46V101.46ZM200.754 100.235C201.721 99.4062 202.479 98.3941 203.028 97.2045L202.12 96.7855C201.629 97.8492 200.957 98.7438 200.103 99.4754L200.754 100.235ZM203.021 97.2186C203.606 96.0477 204.012 94.8092 204.236 93.505L203.251 93.335C203.042 94.5441 202.668 95.689 202.126 96.7714L203.021 97.2186ZM204.234 93.5181C204.499 92.1926 204.634 90.9676 204.634 89.845H203.634C203.634 90.8891 203.508 92.0474 203.253 93.3219L204.234 93.5181ZM204.634 89.845C204.634 88.1118 204.411 86.3801 203.968 84.6508L202.999 84.8992C203.423 86.5499 203.634 88.1982 203.634 89.845H204.634ZM203.968 84.6508C203.521 82.9093 202.827 81.339 201.883 79.9446L201.055 80.5054C201.93 81.7976 202.579 83.2607 202.999 84.8992L203.968 84.6508ZM201.887 79.9507C200.934 78.4989 199.706 77.3393 198.208 76.4767L197.709 77.3433C199.071 78.1274 200.183 79.1778 201.051 80.4993L201.887 79.9507ZM198.224 76.486C196.745 75.5619 195.003 75.11 193.019 75.11V76.11C194.847 76.11 196.399 76.5248 197.694 77.334L198.224 76.486ZM193.019 75.11C192.485 75.11 192.002 75.2065 191.601 75.4359L192.097 76.3041C192.302 76.1869 192.599 76.11 193.019 76.11V75.11ZM226.79 95.565L226.29 95.59L226.291 95.6024L226.292 95.6148L226.79 95.565ZM227.245 98.1L226.761 98.2272L226.764 98.239L226.768 98.2506L227.245 98.1ZM228.285 100.375L227.861 100.64L228.285 100.375ZM230.04 102V102.5L230.274 101.558L230.04 102ZM213.92 102L213.686 101.558L213.92 102.5V102ZM215.675 100.375L215.251 100.11L215.675 100.375ZM217.105 95.565L216.607 95.5153L217.105 95.565ZM216.975 66.77L216.487 66.8785L216.488 66.8845L216.975 66.77ZM216.26 64.625L216.713 64.4136L216.26 64.625ZM215.09 62.74L214.674 63.0173L214.685 63.0336L214.697 63.0489L215.09 62.74ZM213.595 60.725L213.51 60.2322L212.667 60.3767L213.207 61.0403L213.595 60.725ZM217.43 60.01L217.532 60.4995L217.539 60.498L217.546 60.4962L217.43 60.01ZM220.42 59.1L220.249 58.63L220.242 58.6328L220.42 59.1ZM223.28 57.865L223.503 58.3123L223.511 58.3083L223.28 57.865ZM226.725 55.915H227.225V55.0319L226.467 55.4863L226.725 55.915ZM226.225 93.16C226.225 93.9063 226.247 94.7164 226.29 95.59L227.289 95.54C227.246 94.6803 227.225 93.887 227.225 93.16H226.225ZM226.292 95.6148C226.381 96.507 226.538 97.3779 226.761 98.2272L227.728 97.9728C227.518 97.1754 227.371 96.3564 227.287 95.5153L226.292 95.6148ZM226.768 98.2506C227.04 99.1119 227.404 99.909 227.861 100.64L228.709 100.11C228.299 99.4544 227.97 98.7348 227.722 97.9494L226.768 98.2506ZM227.861 100.64C228.342 101.41 228.993 102.012 229.806 102.442L230.274 101.558C229.613 101.208 229.094 100.727 228.709 100.11L227.861 100.64ZM230.04 101.5H213.92V102.5H230.04V101.5ZM214.154 102.442C214.967 102.012 215.618 101.41 216.099 100.64L215.251 100.11C214.865 100.727 214.346 101.208 213.686 101.558L214.154 102.442ZM216.099 100.64C216.56 99.9023 216.904 99.0972 217.133 98.2272L216.166 97.9728C215.962 98.7495 215.656 99.4611 215.251 100.11L216.099 100.64ZM217.133 98.2272C217.357 97.3779 217.513 96.507 217.602 95.6148L216.607 95.5153C216.523 96.3564 216.376 97.1754 216.166 97.9728L217.133 98.2272ZM217.602 95.6148C217.69 94.7344 217.735 93.9159 217.735 93.16H216.735C216.735 93.8774 216.693 94.6622 216.607 95.5153L217.602 95.6148ZM217.735 93.16V69.24H216.735V93.16H217.735ZM217.735 69.24C217.735 68.2989 217.645 67.4363 217.461 66.6555L216.488 66.8845C216.651 67.577 216.735 68.3611 216.735 69.24H217.735ZM217.463 66.6615C217.282 65.85 217.033 65.1 216.713 64.4136L215.807 64.8364C216.093 65.45 216.32 66.13 216.487 66.8785L217.463 66.6615ZM216.713 64.4136C216.392 63.7264 215.981 63.0656 215.483 62.4311L214.697 63.0489C215.151 63.6277 215.521 64.2236 215.807 64.8364L216.713 64.4136ZM215.506 62.4626C215.063 61.7979 214.555 61.1135 213.983 60.4097L213.207 61.0403C213.761 61.7231 214.25 62.3821 214.674 63.0173L215.506 62.4626ZM213.679 61.2178C215.199 60.9572 216.484 60.7178 217.532 60.4995L217.328 59.5205C216.296 59.7356 215.023 59.9728 213.51 60.2322L213.679 61.2178ZM217.546 60.4962C218.648 60.2319 219.665 59.9225 220.598 59.5672L220.242 58.6328C219.354 58.9708 218.378 59.2681 217.313 59.5238L217.546 60.4962ZM220.591 59.5699C221.563 59.2164 222.534 58.797 223.503 58.3122L223.056 57.4178C222.119 57.8863 221.183 58.2903 220.249 58.6301L220.591 59.5699ZM223.511 58.3083C224.519 57.7824 225.676 57.1272 226.982 56.3437L226.467 55.4863C225.173 56.2628 224.034 56.9076 223.048 57.4217L223.511 58.3083ZM226.225 55.915V93.16H227.225V55.915H226.225ZM240.435 86.075L240.414 85.5754L239.815 85.6005L239.947 86.1851L240.435 86.075ZM241.8 89.91L241.353 90.1336L241.356 90.1402L241.8 89.91ZM244.075 93.03L243.721 93.3837L243.73 93.3921L244.075 93.03ZM247.26 95.11L247.063 95.5696L247.069 95.572L247.26 95.11ZM253.175 95.825L253.208 96.3239L253.223 96.3229L253.237 96.3211L253.175 95.825ZM255.255 95.5L255.347 95.9914V95.9914L255.255 95.5ZM257.205 94.98L257.373 95.4509L257.382 95.4477L257.391 95.4442L257.205 94.98ZM258.7 94.07L259 93.67L258.653 93.4098L258.347 93.7164L258.7 94.07ZM259.22 94.46L259.659 94.7004L259.867 94.3202L259.52 94.06L259.22 94.46ZM253.955 100.57L253.674 100.157L253.67 100.16L253.955 100.57ZM239.85 101.415L239.652 101.874L239.656 101.876L239.85 101.415ZM234.91 98.035L234.541 98.3719L234.546 98.3776L234.551 98.3831L234.91 98.035ZM231.725 92.9L231.261 93.0857L231.725 92.9ZM231.53 80.355L231.058 80.1907L231.055 80.2L231.53 80.355ZM234.455 75.09L234.075 74.7646L234.07 74.771L234.455 75.09ZM239.135 71.45L238.912 71.0028L239.135 71.45ZM250.965 71.06L250.786 71.5267L250.793 71.5294L250.8 71.5319L250.965 71.06ZM255.32 73.79L254.96 74.1371L254.967 74.1436L254.973 74.1499L255.32 73.79ZM258.115 78.08L257.648 78.2595L258.115 78.08ZM259.09 85.295L259.111 85.7946L259.59 85.7745V85.295H259.09ZM249.925 76.195L249.448 76.3456L249.452 76.3568L249.456 76.3679L249.925 76.195ZM248.755 73.985L248.355 74.285L248.36 74.2912L248.365 74.2973L248.755 73.985ZM242.32 72.815L241.925 72.508L242.32 72.815ZM240.89 75.61L241.365 75.7681L241.366 75.7624L240.89 75.61ZM240.11 78.86L239.616 78.784L239.615 78.7933L239.613 78.8027L240.11 78.86ZM240.11 84.45L239.614 84.5147L239.677 84.9958L240.16 84.9475L240.11 84.45ZM242.71 84.125L242.784 84.6195L242.71 84.125ZM245.31 83.735L245.237 83.2403L245.236 83.2405L245.31 83.735ZM248.95 82.175L248.623 81.7966L248.95 82.175ZM239.947 86.1851C240.26 87.5672 240.728 88.8837 241.353 90.1336L242.247 89.6864C241.659 88.5097 241.217 87.2695 240.923 85.9649L239.947 86.1851ZM241.356 90.1402C241.986 91.3546 242.774 92.4364 243.722 93.3836L244.429 92.6764C243.556 91.8036 242.828 90.8054 242.244 89.6798L241.356 90.1402ZM243.73 93.3921C244.686 94.3018 245.798 95.0273 247.063 95.5696L247.457 94.6504C246.296 94.1527 245.285 93.4915 244.42 92.6679L243.73 93.3921ZM247.069 95.572C248.395 96.1205 249.869 96.39 251.485 96.39V95.39C249.981 95.39 248.639 95.1395 247.451 94.648L247.069 95.572ZM251.485 96.39C251.976 96.39 252.551 96.3677 253.208 96.3239L253.142 95.3261C252.499 95.3689 251.948 95.39 251.485 95.39V96.39ZM253.237 96.3211C253.941 96.2332 254.644 96.1233 255.347 95.9914L255.163 95.0086C254.48 95.1367 253.796 95.2435 253.113 95.3289L253.237 96.3211ZM255.347 95.9914C256.064 95.857 256.74 95.6772 257.373 95.4509L257.037 94.5091C256.457 94.7162 255.833 94.883 255.163 95.0086L255.347 95.9914ZM257.391 95.4442C258.079 95.169 258.643 94.834 259.054 94.4236L258.347 93.7164C258.064 93.9994 257.631 94.271 257.019 94.5158L257.391 95.4442ZM258.4 94.47L258.92 94.86L259.52 94.06L259 93.67L258.4 94.47ZM258.782 94.2196C257.337 96.8536 255.631 98.824 253.674 100.157L254.237 100.983C256.352 99.5427 258.156 97.4398 259.659 94.7004L258.782 94.2196ZM253.67 100.16C251.783 101.472 249.292 102.15 246.155 102.15V103.15C249.432 103.15 252.14 102.441 254.241 100.98L253.67 100.16ZM246.155 102.15C243.964 102.15 241.929 101.75 240.045 100.954L239.656 101.876C241.671 102.727 243.839 103.15 246.155 103.15V102.15ZM240.048 100.956C238.199 100.158 236.608 99.0677 235.269 97.6869L234.551 98.3831C235.986 99.8623 237.688 101.026 239.652 101.874L240.048 100.956ZM235.28 97.6981C233.979 96.2714 232.948 94.6116 232.189 92.7143L231.261 93.0857C232.062 95.0884 233.155 96.8519 234.541 98.3719L235.28 97.6981ZM232.189 92.7143C231.435 90.8276 231.055 88.7894 231.055 86.595H230.055C230.055 88.9073 230.456 91.0724 231.261 93.0857L232.189 92.7143ZM231.055 86.595C231.055 84.4792 231.372 82.4516 232.006 80.51L231.055 80.2C230.388 82.245 230.055 84.3775 230.055 86.595H231.055ZM232.002 80.5193C232.678 78.5782 233.624 76.8765 234.84 75.409L234.07 74.771C232.773 76.3368 231.769 78.1451 231.058 80.1907L232.002 80.5193ZM234.835 75.4154C236.091 73.9503 237.597 72.778 239.359 71.8972L238.912 71.0028C237.033 71.942 235.42 73.1964 234.076 74.7646L234.835 75.4154ZM239.359 71.8972C241.101 71.0262 243.081 70.585 245.31 70.585V69.585C242.946 69.585 240.809 70.0538 238.912 71.0028L239.359 71.8972ZM245.31 70.585C247.338 70.585 249.161 70.9017 250.786 71.5267L251.145 70.5933C249.39 69.9183 247.443 69.585 245.31 69.585V70.585ZM250.8 71.5319C252.466 72.1151 253.849 72.9849 254.96 74.1371L255.68 73.4429C254.451 72.1684 252.931 71.2182 251.13 70.5881L250.8 71.5319ZM254.973 74.1499C256.13 75.2655 257.023 76.6325 257.648 78.2595L258.582 77.9005C257.908 76.1475 256.937 74.6545 255.667 73.4301L254.973 74.1499ZM257.648 78.2595C258.273 79.8844 258.59 81.7074 258.59 83.735H259.59C259.59 81.6026 259.257 79.6556 258.582 77.9005L257.648 78.2595ZM258.59 83.735V85.295H259.59V83.735H258.59ZM259.069 84.7954L240.414 85.5754L240.456 86.5746L259.111 85.7946L259.069 84.7954ZM250.88 78.535C250.88 77.7293 250.714 76.8905 250.394 76.0221L249.456 76.3679C249.743 77.1461 249.88 77.8674 249.88 78.535H250.88ZM250.402 76.0444C250.124 75.1645 249.706 74.3726 249.146 73.6727L248.365 74.2973C248.845 74.8974 249.206 75.5788 249.448 76.3456L250.402 76.0444ZM249.155 73.685C248.6 72.9454 247.949 72.3389 247.2 71.871L246.67 72.719C247.308 73.1177 247.87 73.638 248.355 74.285L249.155 73.685ZM247.2 71.871C246.427 71.3876 245.577 71.145 244.66 71.145V72.145C245.39 72.145 246.057 72.3357 246.67 72.719L247.2 71.871ZM244.66 71.145C243.546 71.145 242.623 71.6114 241.925 72.508L242.715 73.122C243.231 72.4586 243.868 72.145 244.66 72.145V71.145ZM241.925 72.508C241.278 73.3408 240.776 74.3267 240.414 75.4576L241.366 75.7624C241.698 74.7266 242.149 73.8492 242.715 73.122L241.925 72.508ZM240.416 75.4519C240.06 76.5197 239.793 77.6305 239.616 78.784L240.604 78.936C240.774 77.8361 241.027 76.7803 241.365 75.7681L240.416 75.4519ZM239.613 78.8027C239.483 79.9366 239.415 80.8468 239.415 81.525H240.415C240.415 80.9032 240.478 80.0367 240.607 78.9173L239.613 78.8027ZM239.415 81.525C239.415 82.5011 239.482 83.4977 239.614 84.5147L240.606 84.3853C240.479 83.409 240.415 82.4556 240.415 81.525H239.415ZM240.16 84.9475C241.035 84.86 241.91 84.7507 242.784 84.6195L242.636 83.6305C241.777 83.7593 240.919 83.8666 240.06 83.9525L240.16 84.9475ZM242.784 84.6195C243.651 84.4895 244.518 84.3595 245.384 84.2295L245.236 83.2405C244.369 83.3705 243.503 83.5005 242.636 83.6305L242.784 84.6195ZM245.383 84.2297C246.933 84.0017 248.239 83.4494 249.277 82.5534L248.623 81.7966C247.754 82.5472 246.634 83.0349 245.237 83.2403L245.383 84.2297ZM249.277 82.5534C250.369 81.6104 250.88 80.241 250.88 78.535H249.88C249.88 80.0357 249.438 81.0929 248.623 81.7966L249.277 82.5534Z" fill="url(#paint1_linear_2342_28391)"/>
</g>
<defs>
<filter id="filter0_f_2342_28391" x="0.299805" y="0.84375" width="308.92" height="151.805" filterUnits="userSpaceOnUse" color-interpolation-filters="sRGB">
<feFlood flood-opacity="0" result="BackgroundImageFix"/>
<feBlend mode="normal" in="SourceGraphic" in2="BackgroundImageFix" result="shape"/>
<feGaussianBlur stdDeviation="25" result="effect1_foregroundBlur_2342_28391"/>
</filter>
<linearGradient id="paint0_linear_2342_28391" x1="27.7677" y1="17.645" x2="248.837" y2="33.3927" gradientUnits="userSpaceOnUse">
<stop stop-color="#0C6B8A"/>
<stop offset="1" stop-color="#FFCC00"/>
</linearGradient>
<linearGradient id="paint1_linear_2342_28391" x1="59.7683" y1="-7.85756" x2="262.143" y2="0.244006" gradientUnits="userSpaceOnUse">
<stop stop-color="#0C6B8A"/>
<stop offset="1" stop-color="#FFCC00"/>
</linearGradient>
</defs>
</svg>
