<svg width="438" height="180" viewBox="0 0 438 180" fill="none" xmlns="http://www.w3.org/2000/svg">
<path d="M13.4 38C11.15 36.7 10.85 33.55 10.85 31.2V19.4C17.9 19.4 21.6 19.4 23.1 27.3V11.9C21.95 16 20.5 17.5 16.2 17.95C14.4 18.15 12.65 18.2 10.85 18.2V1.3H13.85C20.75 1.3 24.8 5.8 27.05 11.85L26.2 0.0999992H1C3.2 1.35 3.55 4.6 3.55 6.9V31.2C3.55 33.55 3.25 36.7 1 38H13.4ZM43.1832 24.1V31.2C43.1832 33.45 42.7832 36.75 40.6332 38H52.9832C50.7332 36.75 50.4832 33.5 50.4832 31.2V20.7C50.4832 19 52.2332 17.15 53.9832 17.15C56.4332 17.15 57.1332 19.55 57.1332 21.6V31.2C57.1332 33.45 56.7832 36.75 54.6332 38H66.9832C64.7832 36.75 64.4332 33.5 64.4332 31.2V21.4C64.4332 17.25 62.2332 13.45 57.7332 13.45C57.1332 13.45 51.0832 17.05 50.4832 17.7V13.85C51.1332 12.8 51.4332 11.55 51.4332 10.3C51.4332 4.45 46.0832 1.75 40.8832 1.75C36.5332 1.75 30.1332 3.75 30.1332 9.05C30.1332 11.05 31.7832 12.7 33.7832 12.7C35.7832 12.7 37.4332 11.05 37.4332 9.05C37.4332 7.05 35.7832 5.4 33.7832 5.4C35.2832 3.6 37.8832 2.9 40.1832 2.9C44.3332 2.9 48.5332 5.5 48.5332 10C48.5332 14.5 44.2832 16.9 40.3832 17.55C42.1332 19.65 43.1832 21.25 43.1832 24.1ZM27.7832 17.55C29.5332 19.65 30.5832 21.25 30.5832 24.1V31.2C30.5832 33.45 30.1832 36.75 28.0332 38H40.3832C38.1332 36.75 37.8832 33.5 37.8832 31.2V13.85C33.8332 16.2 32.4332 16.8 27.7832 17.55ZM71.5422 24.2C74.3422 24.2 76.1422 21.95 76.8922 19.5C75.7422 19.5 74.9422 18.9 74.9422 17.7C74.9422 16.4 75.9422 14.65 77.3922 14.65C80.3922 14.65 79.7422 20.9 79.7422 22.85C75.4422 24.5 67.3922 27.45 67.3922 33.05C67.3922 41.25 76.4422 43 82.9422 43C89.8422 43 99.9422 40.75 99.9422 32.05V24.1C99.9422 23 99.8922 21.8 99.9422 20.7C99.9922 18.95 101.642 17.15 103.442 17.15C105.892 17.15 106.592 19.55 106.592 21.6V31.2C106.592 33.45 106.242 36.75 104.092 38H116.442C114.242 36.75 113.892 33.5 113.892 31.2V21.4C113.892 17.25 111.692 13.45 107.192 13.45C106.592 13.45 100.542 17.05 99.9422 17.7V13.85C95.8922 16.15 94.4922 16.8 89.8422 17.55C91.5922 19.65 92.6422 21.25 92.6422 24.1V31.7C92.6422 37.25 89.5922 41.65 83.7422 41.65C78.4922 41.65 74.7422 38.2 74.7422 32.85C74.7422 29 76.3922 26 79.7422 24.1V34.55C79.7422 37 82.3922 38.5 84.5922 38.5C86.7922 38.5 87.8922 37.7 89.5922 36.45V35.95C89.2922 36.15 88.9422 36.25 88.5922 36.25C87.1922 36.25 87.0422 34.1 87.0422 33.15V21.65C87.0422 16.3 83.0922 13.45 77.9922 13.45C73.7922 13.45 68.2922 15.4 68.2922 20.4C68.2922 22.35 69.4422 24.2 71.5422 24.2ZM128.805 21.65C129.655 24.45 131.305 26.3 134.355 26.3C137.055 26.3 138.605 24.55 138.605 21.95C138.605 16.45 133.105 13.45 128.205 13.45C121.105 13.45 116.855 19.5 116.855 26.15C116.855 33.05 121.855 38.5 128.855 38.5C133.605 38.5 137.205 36.35 139.505 32.2L139.105 31.9C138.055 32.95 134.955 33.3 133.555 33.3C127.155 33.3 124.305 27.4 124.305 21.75C124.305 19.8 124.905 14.65 127.705 14.65C129.955 14.65 132.155 16.85 132.155 19.1C132.155 21 130.455 21.65 128.805 21.65ZM145.99 12.7C147.99 12.7 149.64 11.05 149.64 9.05C149.64 7.05 147.99 5.4 145.99 5.4C143.99 5.4 142.34 7.05 142.34 9.05C142.34 11.05 143.99 12.7 145.99 12.7ZM152.59 38C150.34 36.75 150.09 33.5 150.09 31.2V13.85C146.04 16.2 144.64 16.8 139.99 17.55C141.74 19.65 142.79 21.25 142.79 24.1V31.2C142.79 33.45 142.39 36.75 140.24 38H152.59ZM175.188 35.95C174.888 36.15 174.538 36.25 174.188 36.25C172.788 36.25 172.638 34.1 172.638 33.15V21.65C172.638 16.3 168.688 13.45 163.588 13.45C159.388 13.45 153.888 15.4 153.888 20.4C153.888 22.35 155.038 24.2 157.138 24.2C159.938 24.2 161.738 21.95 162.488 19.5C161.338 19.5 160.538 18.9 160.538 17.7C160.538 16.4 161.538 14.65 162.988 14.65C165.588 14.65 165.338 19.05 165.338 20.75V22.35C162.138 25.85 152.988 27.95 152.988 33.15C152.988 36.9 155.488 38.5 158.988 38.5C161.838 38.5 164.038 37.5 165.588 35.75C166.288 37.45 168.388 38.5 170.188 38.5C172.438 38.5 173.488 37.7 175.188 36.45V35.95ZM165.338 34.7C164.838 35 164.188 35.2 163.388 35.2C160.838 35.2 160.338 33 160.338 30.9C160.338 28 163.438 25.85 165.338 24.1V34.7ZM185.539 2.55C181.489 4.9 180.089 5.5 175.439 6.25C177.189 8.35 178.239 9.95 178.239 12.8V31.2C178.239 33.5 177.889 36.75 175.689 38H188.089C185.839 36.75 185.539 33.5 185.539 31.2V2.55ZM23.7 83.6C22.9 80.7 20.8 78.45 17.35 78.45C16.8 78.45 11 81.85 10.1 82.75V78.85C6.05 81.2 4.65 81.8 0 82.55C1.75 84.65 2.8 86.25 2.8 89.1V96.2C2.8 98.45 2.4 101.75 0.25 103H12.6C10.35 101.75 10.1 98.5 10.1 96.2V85.7C10.45 83.85 11.55 82.15 13.6 82.15C16.05 82.15 16.75 84.55 16.75 86.6V96.2C16.75 98.45 16.4 101.75 14.25 103H26.6C24.4 101.75 24.05 98.5 24.05 96.2V86.6C24.15 84.5 25.25 82.15 27.65 82.15C30.1 82.15 30.8 84.55 30.8 86.6V96.2C30.8 98.45 30.45 101.75 28.3 103H40.65C38.45 101.75 38.1 98.5 38.1 96.2V86.4C38.1 82.25 35.9 78.45 31.4 78.45C30.8 78.45 24.1 82.55 23.65 83.25L23.7 83.6ZM45.2238 89.2C48.0238 89.2 49.8238 86.95 50.5738 84.5C49.4238 84.5 48.6238 83.9 48.6238 82.7C48.6238 81.4 49.6238 79.65 51.0738 79.65C54.0738 79.65 53.4238 85.9 53.4238 87.85C49.1238 89.5 41.0738 92.45 41.0738 98.05C41.0738 106.25 50.1238 108 56.6238 108C63.5238 108 73.6238 105.75 73.6238 97.05V89.1C73.6238 88 73.5738 86.8 73.6238 85.7C73.6738 83.95 75.3238 82.15 77.1238 82.15C79.5738 82.15 80.2738 84.55 80.2738 86.6V96.2C80.2738 98.45 79.9238 101.75 77.7738 103H90.1238C87.9238 101.75 87.5738 98.5 87.5738 96.2V86.4C87.5738 82.25 85.3738 78.45 80.8738 78.45C80.2738 78.45 74.2238 82.05 73.6238 82.7V78.85C69.5738 81.15 68.1738 81.8 63.5238 82.55C65.2738 84.65 66.3238 86.25 66.3238 89.1V96.7C66.3238 102.25 63.2738 106.65 57.4238 106.65C52.1738 106.65 48.4238 103.2 48.4238 97.85C48.4238 94 50.0738 91 53.4238 89.1V99.55C53.4238 102 56.0738 103.5 58.2738 103.5C60.4738 103.5 61.5738 102.7 63.2738 101.45V100.95C62.9738 101.15 62.6238 101.25 62.2738 101.25C60.8738 101.25 60.7238 99.1 60.7238 98.15V86.65C60.7238 81.3 56.7738 78.45 51.6738 78.45C47.4738 78.45 41.9738 80.4 41.9738 85.4C41.9738 87.35 43.1238 89.2 45.2238 89.2ZM112.737 100.95C112.437 101.15 112.087 101.25 111.737 101.25C110.337 101.25 110.187 99.1 110.187 98.15V86.65C110.187 81.3 106.237 78.45 101.137 78.45C96.9367 78.45 91.4367 80.4 91.4367 85.4C91.4367 87.35 92.5867 89.2 94.6867 89.2C97.4867 89.2 99.2867 86.95 100.037 84.5C98.8867 84.5 98.0867 83.9 98.0867 82.7C98.0867 81.4 99.0867 79.65 100.537 79.65C103.137 79.65 102.887 84.05 102.887 85.75V87.35C99.6867 90.85 90.5367 92.95 90.5367 98.15C90.5367 101.9 93.0367 103.5 96.5367 103.5C99.3867 103.5 101.587 102.5 103.137 100.75C103.837 102.45 105.937 103.5 107.737 103.5C109.987 103.5 111.037 102.7 112.737 101.45V100.95ZM102.887 99.7C102.387 100 101.737 100.2 100.937 100.2C98.3867 100.2 97.8867 98 97.8867 95.9C97.8867 93 100.987 90.85 102.887 89.1V99.7ZM124.712 78.45C119.262 78.45 112.712 81.15 112.712 87.5C112.712 91 114.662 93.4 117.362 94.85C116.562 96.15 113.962 100.35 113.962 100.95C113.962 107.35 130.462 103.4 130.462 109.55C130.462 112.4 126.962 113.3 124.662 113.3C122.812 113.3 118.762 112.4 118.762 109.95C118.762 109.45 119.012 109 119.362 108.65C118.812 106.9 117.512 105.35 115.562 105.35C113.712 105.35 112.312 106.55 112.312 108.45C112.312 113.5 120.512 114.5 124.112 114.5C128.912 114.5 137.862 113.5 137.862 107C137.862 95.9 117.712 100.95 117.712 96.6C117.712 96.1 117.862 95.65 118.212 95.3C120.212 96.2 122.562 96.6 124.712 96.6C130.262 96.6 136.612 93.9 136.612 87.5C136.612 82.25 132.162 79.5 127.562 78.7C128.462 77.8 129.612 77.15 130.912 77.15C131.912 77.15 132.862 77.65 133.212 78.65C133.462 78.7 133.812 78.75 134.062 78.75C136.212 78.75 138.162 77.45 138.162 75.15C138.162 73.15 136.562 71.9 134.612 71.9C131.062 71.9 128.262 75.55 126.562 78.55C125.962 78.5 125.312 78.45 124.712 78.45ZM126.312 95.25C121.812 95.25 119.612 88.2 119.612 84.6C119.612 82.65 120.162 79.9 122.612 79.9C127.312 79.9 129.662 86.3 129.662 90.2C129.662 92.35 128.962 95.25 126.312 95.25ZM160.778 90.15V88.95C160.778 82.5 156.628 78.45 150.178 78.45C143.078 78.45 138.828 84.5 138.828 91.15C138.828 98.05 143.828 103.5 150.828 103.5C155.778 103.5 158.578 101.35 160.878 97.2L160.478 96.9C159.428 97.95 156.328 98.3 154.928 98.3C150.078 98.3 147.378 94.9 146.428 90.75L160.778 90.15ZM154.078 84.95C154.078 87.4 152.428 88.6 150.178 88.95C148.828 89.15 147.528 89.35 146.178 89.5C146.078 88.75 146.028 88 146.028 87.25C146.028 85.2 146.778 79.65 149.678 79.65C152.228 79.65 154.078 82.65 154.078 84.95ZM185.077 83.6C184.277 80.7 182.177 78.45 178.727 78.45C178.177 78.45 172.377 81.85 171.477 82.75V78.85C167.427 81.2 166.027 81.8 161.377 82.55C163.127 84.65 164.177 86.25 164.177 89.1V96.2C164.177 98.45 163.777 101.75 161.627 103H173.977C171.727 101.75 171.477 98.5 171.477 96.2V85.7C171.827 83.85 172.927 82.15 174.977 82.15C177.427 82.15 178.127 84.55 178.127 86.6V96.2C178.127 98.45 177.777 101.75 175.627 103H187.977C185.777 101.75 185.427 98.5 185.427 96.2V86.6C185.527 84.5 186.627 82.15 189.027 82.15C191.477 82.15 192.177 84.55 192.177 86.6V96.2C192.177 98.45 191.827 101.75 189.677 103H202.027C199.827 101.75 199.477 98.5 199.477 96.2V86.4C199.477 82.25 197.277 78.45 192.777 78.45C192.177 78.45 185.477 82.55 185.027 83.25L185.077 83.6ZM224.401 90.15V88.95C224.401 82.5 220.251 78.45 213.801 78.45C206.701 78.45 202.451 84.5 202.451 91.15C202.451 98.05 207.451 103.5 214.451 103.5C219.401 103.5 222.201 101.35 224.501 97.2L224.101 96.9C223.051 97.95 219.951 98.3 218.551 98.3C213.701 98.3 211.001 94.9 210.051 90.75L224.401 90.15ZM217.701 84.95C217.701 87.4 216.051 88.6 213.801 88.95C212.451 89.15 211.151 89.35 209.801 89.5C209.701 88.75 209.651 88 209.651 87.25C209.651 85.2 210.401 79.65 213.301 79.65C215.851 79.65 217.701 82.65 217.701 84.95ZM237.6 103C235.35 101.75 235.1 98.5 235.1 96.2V85.7C235.45 83.85 236.55 82.15 238.6 82.15C241.05 82.15 241.75 84.55 241.75 86.6V96.2C241.75 98.45 241.4 101.75 239.25 103H251.6C249.4 101.75 249.05 98.5 249.05 96.2V86.4C249.05 82.25 246.85 78.45 242.35 78.45C241.8 78.45 236 81.85 235.1 82.75V78.85C231.05 81.2 229.65 81.8 225 82.55C226.75 84.65 227.8 86.25 227.8 89.1V96.2C227.8 98.45 227.4 101.75 225.25 103H237.6ZM260.635 72.6H259.885C258.235 77.15 255.585 78.85 250.885 79.3V80.05H253.335V96.75C253.335 100.4 254.985 103.5 258.985 103.5C261.735 103.5 264.535 102.15 266.535 100.3V99.8C265.735 100.25 264.785 100.45 263.885 100.45C262.185 100.45 260.635 99.7 260.635 97.75V80.05H265.835V78.85H260.635V72.6ZM9.9 168.5C14.25 168.5 20.95 166.95 20.95 161.45C20.95 153.2 7.2 153.4 7.2 148.35C7.2 146.15 8.85 144.65 11.05 144.65C12.9 144.65 14.75 145.85 14.75 147.85C14.75 148.9 14.1 149.7 13 149.7C13.6 151.65 15.05 153.05 17.15 153.05C19.2 153.05 20.45 151.75 20.45 149.7C20.45 146.05 17.05 144.3 13.75 143.7C12.85 142.8 12.35 141.6 12.35 140.1C12.35 135.75 17.2 132.8 21.1 132.8C24.3 132.8 28.75 134.05 28.75 138C28.75 141.9 24.45 143.95 21.1 144.3V145.05H23.55V161.75C23.55 165.4 25.2 168.5 29.2 168.5C31.95 168.5 34.75 167.15 36.75 165.3V164.8C35.95 165.25 35 165.45 34.1 165.45C32.4 165.45 30.85 164.7 30.85 162.75V145.05H36.05V143.85H30.85V141.55C30.85 134.35 28.7 131.75 21.1 131.75C15.6 131.75 9.2 134.3 9.2 140.7C9.2 141.7 9.4 142.65 9.85 143.5C5.85 143.9 1.3 146.1 1.3 150.55C1.3 159 14.4 158.6 14.4 163.75C14.4 166.25 12.05 167.3 9.9 167.3C8.1 167.3 6 166.25 6 164.2C6 163 6.85 162.1 8.05 162.1C7.65 160.1 6.15 158.05 3.9 158.05C1.55 158.05 0.3 159.9 0.3 162.1C0.3 166.8 6.15 168.5 9.9 168.5ZM47.1117 149.35V143.85C43.0617 146.2 41.6617 146.8 37.0117 147.55C38.7617 149.65 39.8117 151.25 39.8117 154.1V161.2C39.8117 163.45 39.4117 166.75 37.2617 168H49.6117C47.4117 166.75 47.1117 163.5 47.1117 161.2V152.1C47.1117 150.65 48.6117 149.4 49.9617 149.4C51.7117 149.4 53.0117 150.75 53.0117 152.45C53.0117 152.9 52.9117 153.3 52.8117 153.7C56.1117 153.7 58.8117 151.55 58.8117 148.15C58.8117 145.55 57.1117 143.45 54.4117 143.45C51.0117 143.45 48.4117 146.5 47.1117 149.35ZM62.4117 143.9C65.1617 143.85 64.5117 150.7 64.5117 152.35C61.3117 155.85 52.1617 157.95 52.1617 163.15C52.1617 166.9 54.6617 168.5 58.1617 168.5C61.0617 168.5 63.2117 167.55 64.7617 165.8C65.4617 167.5 67.5617 168.5 69.3617 168.5C71.6117 168.5 72.6617 167.7 74.3617 166.45V165.95C74.0617 166.15 73.7117 166.25 73.3617 166.25C71.9617 166.25 71.8117 164.1 71.8117 163.15V151.65C71.8117 146.3 67.8117 143.45 62.7617 143.45L62.4117 143.9ZM64.5117 164.7C64.0117 165 63.3617 165.2 62.5617 165.2C60.0117 165.2 59.5117 163 59.5117 160.9C59.5117 158 62.6117 155.85 64.5117 154.1V164.55C64.5117 164.6 64.5117 164.65 64.5117 164.7ZM84.6094 137.6H83.8594C82.2094 142.15 79.5594 143.85 74.8594 144.3V145.05H77.3094V161.75C77.3094 165.4 78.9594 168.5 82.9594 168.5C85.7094 168.5 88.5094 167.15 90.5094 165.3V164.8C89.7094 165.25 88.7594 165.45 87.8594 165.45C86.1594 165.45 84.6094 164.7 84.6094 162.75V145.05H89.8094V143.85H84.6094V137.6ZM111.12 155.15V153.95C111.12 147.5 106.97 143.45 100.52 143.45C93.4195 143.45 89.1695 149.5 89.1695 156.15C89.1695 163.05 94.1695 168.5 101.17 168.5C106.12 168.5 108.92 166.35 111.22 162.2L110.82 161.9C109.77 162.95 106.67 163.3 105.27 163.3C100.42 163.3 97.7195 159.9 96.7695 155.75L111.12 155.15ZM104.42 149.95C104.42 152.4 102.77 153.6 100.52 153.95C99.1695 154.15 97.8695 154.35 96.5195 154.5C96.4195 153.75 96.3695 153 96.3695 152.25C96.3695 150.2 97.1195 144.65 100.02 144.65C102.57 144.65 104.42 147.65 104.42 149.95ZM124.419 143.45C118.969 143.45 112.419 146.15 112.419 152.5C112.419 156 114.369 158.4 117.069 159.85C116.269 161.15 113.669 165.35 113.669 165.95C113.669 172.35 130.169 168.4 130.169 174.55C130.169 177.4 126.669 178.3 124.369 178.3C122.519 178.3 118.469 177.4 118.469 174.95C118.469 174.45 118.719 174 119.069 173.65C118.519 171.9 117.219 170.35 115.269 170.35C113.419 170.35 112.019 171.55 112.019 173.45C112.019 178.5 120.219 179.5 123.819 179.5C128.619 179.5 137.569 178.5 137.569 172C137.569 160.9 117.419 165.95 117.419 161.6C117.419 161.1 117.569 160.65 117.919 160.3C119.919 161.2 122.269 161.6 124.419 161.6C129.969 161.6 136.319 158.9 136.319 152.5C136.319 147.25 131.869 144.5 127.269 143.7C128.169 142.8 129.319 142.15 130.619 142.15C131.619 142.15 132.569 142.65 132.919 143.65C133.169 143.7 133.519 143.75 133.769 143.75C135.919 143.75 137.869 142.45 137.869 140.15C137.869 138.15 136.269 136.9 134.319 136.9C130.769 136.9 127.969 140.55 126.269 143.55C125.669 143.5 125.019 143.45 124.419 143.45ZM126.019 160.25C121.519 160.25 119.319 153.2 119.319 149.6C119.319 147.65 119.869 144.9 122.319 144.9C127.019 144.9 129.369 151.3 129.369 155.2C129.369 157.35 128.669 160.25 126.019 160.25ZM149.735 168C150.535 168 151.935 168.25 151.935 169.3C151.935 171.7 147.985 173.05 146.085 173.05C143.885 173.05 142.085 171.95 142.085 169.55C139.935 169.55 138.835 172.4 138.835 174.2C138.835 177.5 141.435 178.95 144.485 178.95C150.185 178.95 152.235 172.35 153.985 168L158.485 156.75C159.735 153.6 162.535 145.2 165.585 143.85H153.985C156.985 144.95 158.335 147.25 158.335 150.4C158.335 154.45 156.285 158.95 154.785 162.7C153.485 159.6 149.485 150.6 149.485 147.75C149.485 146.05 150.285 144.4 151.935 143.85H138.135C141.185 145.2 143.935 153.55 145.185 156.65L149.735 168ZM193.041 130.85C196.141 130.85 198.741 132.85 198.741 136.1C198.741 136.75 198.591 138.1 197.641 138.15C198.341 140.45 199.891 142.5 202.491 142.5C204.841 142.5 206.241 140.8 206.241 138.55C206.241 132.45 199.241 129.6 194.141 129.6C183.091 129.6 176.191 139.15 176.191 149.55C176.191 160 182.791 168.5 193.691 168.5C200.691 168.5 205.441 165.05 206.941 158.2L206.541 157.9C204.141 160.5 200.841 161.55 197.391 161.55C187.941 161.55 182.941 154.05 182.941 145.25C182.941 139.25 185.841 130.85 193.041 130.85ZM220.215 143.45C213.265 143.45 208.115 149.2 208.115 156C208.115 162.85 213.265 168.5 220.215 168.5C227.165 168.5 232.265 162.8 232.265 156C232.265 149.2 227.165 143.45 220.215 143.45ZM221.815 167.15C216.815 167.15 215.115 155.25 215.115 151.7C215.115 149.85 215.365 144.9 218.115 144.9C223.465 144.9 225.165 156 225.165 159.85C225.165 161.9 224.815 167.15 221.815 167.15ZM245.266 168C243.016 166.75 242.766 163.5 242.766 161.2V150.7C243.116 148.85 244.216 147.15 246.266 147.15C248.716 147.15 249.416 149.55 249.416 151.6V161.2C249.416 163.45 249.066 166.75 246.916 168H259.266C257.066 166.75 256.716 163.5 256.716 161.2V151.4C256.716 147.25 254.516 143.45 250.016 143.45C249.466 143.45 243.666 146.85 242.766 147.75V143.85C238.716 146.2 237.316 146.8 232.666 147.55C234.416 149.65 235.466 151.25 235.466 154.1V161.2C235.466 163.45 235.066 166.75 232.916 168H245.266ZM268.689 168.5C273.039 168.5 279.739 166.95 279.739 161.45C279.739 153.2 265.989 153.4 265.989 148.35C265.989 146.15 267.639 144.65 269.839 144.65C271.689 144.65 273.539 145.85 273.539 147.85C273.539 148.9 272.889 149.7 271.789 149.7C272.389 151.65 273.839 153.05 275.939 153.05C277.989 153.05 279.239 151.75 279.239 149.7C279.239 145.1 273.789 143.45 270.039 143.45C265.839 143.45 260.089 145.55 260.089 150.55C260.089 159 273.189 158.6 273.189 163.75C273.189 166.25 270.839 167.3 268.689 167.3C266.889 167.3 264.789 166.25 264.789 164.2C264.789 163 265.639 162.1 266.839 162.1C266.439 160.1 264.939 158.05 262.689 158.05C260.339 158.05 259.089 159.9 259.089 162.1C259.089 166.8 264.939 168.5 268.689 168.5ZM279.492 143.85C281.692 145.1 282.042 148.35 282.042 150.65V160.45C282.042 164.6 284.242 168.4 288.742 168.4C289.342 168.4 295.642 164.65 296.092 164C296.342 165.35 296.842 166.75 297.142 168H306.092C304.042 165.45 303.292 163.4 303.292 160.15V143.85H293.492C295.742 145.1 295.992 148.35 295.992 150.65V157.75C295.992 158.95 295.892 160.25 295.892 161.55C295.492 163.2 294.392 164.7 292.492 164.7C290.042 164.7 289.342 162.3 289.342 160.25V143.85H279.492ZM316.204 132.55C312.154 134.9 310.754 135.5 306.104 136.25C307.854 138.35 308.904 139.95 308.904 142.8V161.2C308.904 163.5 308.554 166.75 306.354 168H318.754C316.504 166.75 316.204 163.5 316.204 161.2V132.55ZM328.75 137.6H328C326.35 142.15 323.7 143.85 319 144.3V145.05H321.45V161.75C321.45 165.4 323.1 168.5 327.1 168.5C329.85 168.5 332.65 167.15 334.65 165.3V164.8C333.85 165.25 332.9 165.45 332 165.45C330.3 165.45 328.75 164.7 328.75 162.75V145.05H333.95V143.85H328.75V137.6ZM336.262 150.6C336.262 152.85 337.812 154.55 340.112 154.55C342.262 154.55 343.962 153.5 345.062 151.65C343.912 151.15 343.162 150.05 343.162 148.75C343.162 146.25 345.662 145.05 347.912 145.05H359.462V161.75C359.462 165.4 361.112 168.5 365.112 168.5C367.862 168.5 370.662 167.15 372.662 165.3V164.8C371.862 165.25 370.912 165.45 370.012 165.45C368.312 165.45 366.762 164.7 366.762 162.75V145.05H371.312C375.162 145.05 380.162 143.2 380.162 138.6C380.162 136.25 378.512 134.4 376.112 134.4C373.962 134.4 372.262 135.45 371.162 137.3C372.112 137.7 372.712 138.6 372.712 139.65C372.712 142.75 369.262 143.85 366.762 143.85V136.4H366.262C365.312 139.25 363.562 142 360.762 143.35C360.562 143.45 359.662 143.85 359.462 143.85C354.812 143.9 350.162 143.85 345.512 143.85C341.512 143.85 336.262 145.85 336.262 150.6ZM341.312 168.5C343.912 168.5 346.162 167.75 347.912 165.75C348.612 167.5 350.712 168.5 352.512 168.5C354.762 168.5 355.812 167.7 357.512 166.45V165.95C357.212 166.15 356.862 166.25 356.512 166.25C355.112 166.25 354.962 164.1 354.962 163.15V154C354.962 148.6 350.912 146.2 345.912 146.2L345.562 146.65C348.062 146.6 347.662 150.7 347.662 152.35C344.462 155.85 335.312 157.95 335.312 163.15C335.312 166.9 337.812 168.5 341.312 168.5ZM342.662 160.9C342.662 158 345.762 155.85 347.662 154.1V164.65C347.062 165 346.412 165.2 345.712 165.2C343.162 165.2 342.662 163 342.662 160.9ZM378.9 142.7C380.9 142.7 382.55 141.05 382.55 139.05C382.55 137.05 380.9 135.4 378.9 135.4C376.9 135.4 375.25 137.05 375.25 139.05C375.25 141.05 376.9 142.7 378.9 142.7ZM385.5 168C383.25 166.75 383 163.5 383 161.2V143.85C378.95 146.2 377.55 146.8 372.9 147.55C374.65 149.65 375.7 151.25 375.7 154.1V161.2C375.7 163.45 375.3 166.75 373.15 168H385.5ZM397.998 143.45C391.048 143.45 385.898 149.2 385.898 156C385.898 162.85 391.048 168.5 397.998 168.5C404.948 168.5 410.048 162.8 410.048 156C410.048 149.2 404.948 143.45 397.998 143.45ZM399.598 167.15C394.598 167.15 392.898 155.25 392.898 151.7C392.898 149.85 393.148 144.9 395.898 144.9C401.248 144.9 402.948 156 402.948 159.85C402.948 161.9 402.598 167.15 399.598 167.15ZM423.049 168C420.799 166.75 420.549 163.5 420.549 161.2V150.7C420.899 148.85 421.999 147.15 424.049 147.15C426.499 147.15 427.199 149.55 427.199 151.6V161.2C427.199 163.45 426.849 166.75 424.699 168H437.049C434.849 166.75 434.499 163.5 434.499 161.2V151.4C434.499 147.25 432.299 143.45 427.799 143.45C427.249 143.45 421.449 146.85 420.549 147.75V143.85C416.499 146.2 415.099 146.8 410.449 147.55C412.199 149.65 413.249 151.25 413.249 154.1V161.2C413.249 163.45 412.849 166.75 410.699 168H423.049Z" fill="url(#paint0_linear_3664_30543)"/>
<path d="M281.161 89.2C283.961 89.2 285.761 86.95 286.511 84.5C285.361 84.5 284.561 83.9 284.561 82.7C284.561 81.4 285.561 79.65 287.011 79.65C290.011 79.65 289.361 85.9 289.361 87.85C285.061 89.5 277.011 92.45 277.011 98.05C277.011 106.25 286.061 108 292.561 108C299.461 108 309.561 105.75 309.561 97.05V89.1C309.561 88 309.511 86.8 309.561 85.7C309.611 83.95 311.261 82.15 313.061 82.15C315.511 82.15 316.211 84.55 316.211 86.6V96.2C316.211 98.45 315.861 101.75 313.711 103H326.061C323.861 101.75 323.511 98.5 323.511 96.2V86.4C323.511 82.25 321.311 78.45 316.811 78.45C316.211 78.45 310.161 82.05 309.561 82.7V78.85C305.511 81.15 304.111 81.8 299.461 82.55C301.211 84.65 302.261 86.25 302.261 89.1V96.7C302.261 102.25 299.211 106.65 293.361 106.65C288.111 106.65 284.361 103.2 284.361 97.85C284.361 94 286.011 91 289.361 89.1V99.55C289.361 102 292.011 103.5 294.211 103.5C296.411 103.5 297.511 102.7 299.211 101.45V100.95C298.911 101.15 298.561 101.25 298.211 101.25C296.811 101.25 296.661 99.1 296.661 98.15V86.65C296.661 81.3 292.711 78.45 287.611 78.45C283.411 78.45 277.911 80.4 277.911 85.4C277.911 87.35 279.061 89.2 281.161 89.2ZM350.124 67.6C346.074 69.9 344.674 70.5 340.024 71.25C341.774 73.35 342.824 74.95 342.824 77.8V80.05C341.974 79.65 338.774 78.3 337.874 78.3C330.624 78.3 326.474 84.55 326.474 91.3C326.474 97.75 330.274 103.45 337.224 103.45C340.124 103.45 341.724 102.55 342.824 100.95V103H352.624C350.374 101.75 350.124 98.5 350.124 96.2V67.6ZM342.824 98.25C342.574 98.25 342.274 98.25 341.924 98.25C336.124 98.25 333.374 92.9 333.374 87.75C333.374 84.45 334.774 79.55 338.824 79.55C342.174 79.55 342.824 83.45 342.824 86.05V98.25Z" fill="black"/>
<defs>
<linearGradient id="paint0_linear_3664_30543" x1="22.9145" y1="-18.405" x2="451.993" y2="12.7113" gradientUnits="userSpaceOnUse">
<stop stop-color="#0C6B8A"/>
<stop offset="1" stop-color="#FFCC00"/>
</linearGradient>
</defs>
</svg>
