<svg width="45" height="16" viewBox="0 0 45 16" fill="none" xmlns="http://www.w3.org/2000/svg">
<path d="M8.28383 10.045C8.01383 10.045 7.76883 10.0017 7.54883 9.915C7.33216 9.82833 7.14383 9.705 6.98383 9.545C6.82716 9.38167 6.70716 9.185 6.62383 8.955C6.54049 8.725 6.49883 8.46667 6.49883 8.18C6.49883 7.89 6.54049 7.63 6.62383 7.4C6.70716 7.17 6.82883 6.975 6.98883 6.815C7.14883 6.65167 7.33716 6.52833 7.55383 6.445C7.77049 6.35833 8.01383 6.315 8.28383 6.315C8.58383 6.315 8.85049 6.36667 9.08383 6.47C9.32049 6.57333 9.51383 6.72 9.66383 6.91C9.81383 7.09667 9.9055 7.31833 9.93883 7.575H9.38883C9.35549 7.42167 9.28883 7.28667 9.18883 7.17C9.09216 7.05 8.96716 6.95667 8.81383 6.89C8.66049 6.82 8.48383 6.785 8.28383 6.785C8.03383 6.785 7.81549 6.84 7.62883 6.95C7.44549 7.06 7.30383 7.21833 7.20383 7.425C7.10716 7.63167 7.05883 7.88333 7.05883 8.18C7.05883 8.4 7.08716 8.59667 7.14383 8.77C7.20049 8.94333 7.28216 9.09 7.38883 9.21C7.49549 9.32667 7.62383 9.41667 7.77383 9.48C7.92716 9.54333 8.09716 9.575 8.28383 9.575C8.48049 9.575 8.65549 9.54167 8.80883 9.475C8.96549 9.40833 9.09383 9.315 9.19383 9.195C9.29383 9.07167 9.35883 8.92833 9.38883 8.765L9.93883 8.77C9.90883 9.02667 9.81883 9.25167 9.66883 9.445C9.52216 9.635 9.32883 9.78333 9.08883 9.89C8.85216 9.99333 8.58383 10.045 8.28383 10.045ZM11.6508 10.045C11.4574 10.045 11.2808 10.0133 11.1208 9.95C10.9641 9.88667 10.8291 9.795 10.7158 9.675C10.6024 9.555 10.5141 9.41167 10.4508 9.245C10.3874 9.07833 10.3558 8.89167 10.3558 8.685C10.3558 8.41167 10.4074 8.17333 10.5108 7.97C10.6174 7.76333 10.7674 7.60333 10.9608 7.49C11.1574 7.37333 11.3874 7.315 11.6508 7.315C11.8441 7.315 12.0191 7.34667 12.1758 7.41C12.3358 7.47 12.4724 7.56 12.5858 7.68C12.6991 7.8 12.7858 7.945 12.8458 8.115C12.9091 8.28167 12.9408 8.47 12.9408 8.68C12.9408 8.95 12.8891 9.18833 12.7858 9.395C12.6824 9.59833 12.5341 9.75833 12.3408 9.875C12.1474 9.98833 11.9174 10.045 11.6508 10.045ZM11.6508 9.615C11.8041 9.615 11.9374 9.58 12.0508 9.51C12.1674 9.43667 12.2574 9.33 12.3208 9.19C12.3841 9.05 12.4158 8.88 12.4158 8.68C12.4158 8.53 12.3974 8.39833 12.3608 8.285C12.3274 8.16833 12.2774 8.07 12.2108 7.99C12.1441 7.90667 12.0641 7.845 11.9708 7.805C11.8774 7.76167 11.7708 7.74 11.6508 7.74C11.4974 7.74 11.3624 7.77667 11.2458 7.85C11.1324 7.92333 11.0424 8.03 10.9758 8.17C10.9124 8.30667 10.8808 8.47833 10.8808 8.685C10.8808 8.83167 10.8974 8.96333 10.9308 9.08C10.9674 9.19333 11.0191 9.29 11.0858 9.37C11.1558 9.45 11.2374 9.51167 11.3308 9.555C11.4274 9.595 11.5341 9.615 11.6508 9.615ZM13.4801 10V7.355H13.9701L13.9901 7.88H14.0201C14.0935 7.69333 14.2085 7.55333 14.3651 7.46C14.5251 7.36333 14.7018 7.315 14.8951 7.315C15.0885 7.315 15.2618 7.36167 15.4151 7.455C15.5718 7.54833 15.6835 7.70833 15.7501 7.935H15.7901C15.8635 7.72833 15.9835 7.57333 16.1501 7.47C16.3201 7.36667 16.5101 7.315 16.7201 7.315C16.8935 7.315 17.0485 7.35167 17.1851 7.425C17.3251 7.49833 17.4351 7.61667 17.5151 7.78C17.5951 7.94333 17.6351 8.16 17.6351 8.43V10H17.1251V8.535C17.1251 8.355 17.1035 8.20667 17.0601 8.09C17.0168 7.97 16.9518 7.88167 16.8651 7.825C16.7785 7.76833 16.6651 7.74 16.5251 7.74C16.3818 7.74 16.2568 7.77667 16.1501 7.85C16.0435 7.92333 15.9601 8.02167 15.9001 8.145C15.8435 8.265 15.8151 8.40167 15.8151 8.555V10H15.3001V8.535C15.3001 8.355 15.2785 8.20667 15.2351 8.09C15.1918 7.97 15.1268 7.88167 15.0401 7.825C14.9535 7.76833 14.8418 7.74 14.7051 7.74C14.5585 7.74 14.4318 7.77667 14.3251 7.85C14.2185 7.92333 14.1351 8.02167 14.0751 8.145C14.0185 8.265 13.9901 8.40167 13.9901 8.555V10H13.4801ZM18.3288 10V7.355H18.8438V10H18.3288ZM18.3288 6.95V6.355H18.8438V6.95H18.3288ZM19.5592 10V7.355H20.0492L20.0692 7.88H20.0992C20.1759 7.69333 20.2959 7.55333 20.4592 7.46C20.6226 7.36333 20.8009 7.315 20.9942 7.315C21.1309 7.315 21.2559 7.335 21.3692 7.375C21.4859 7.415 21.5859 7.48 21.6692 7.57C21.7559 7.65667 21.8226 7.77167 21.8692 7.915C21.9159 8.055 21.9392 8.22667 21.9392 8.43V10H21.4242V8.535C21.4242 8.355 21.4026 8.20667 21.3592 8.09C21.3159 7.97 21.2492 7.88167 21.1592 7.825C21.0692 7.76833 20.9526 7.74 20.8092 7.74C20.6592 7.74 20.5276 7.77667 20.4142 7.85C20.3042 7.92333 20.2192 8.02167 20.1592 8.145C20.0992 8.265 20.0692 8.40167 20.0692 8.555V10H19.5592ZM23.6804 10.885C23.4704 10.885 23.2871 10.8533 23.1304 10.79C22.9737 10.73 22.8487 10.6433 22.7554 10.53C22.6621 10.4167 22.6054 10.2817 22.5854 10.125H23.0854C23.0987 10.2017 23.1321 10.2683 23.1854 10.325C23.2387 10.385 23.3071 10.43 23.3904 10.46C23.4771 10.49 23.5771 10.505 23.6904 10.505C23.8504 10.505 23.9837 10.4817 24.0904 10.435C24.1971 10.3917 24.2787 10.32 24.3354 10.22C24.3921 10.12 24.4204 9.98833 24.4204 9.825V9.31H24.3854C24.3254 9.47 24.2187 9.6 24.0654 9.7C23.9121 9.79667 23.7304 9.845 23.5204 9.845C23.3604 9.845 23.2137 9.81833 23.0804 9.765C22.9504 9.70833 22.8387 9.62667 22.7454 9.52C22.6521 9.41 22.5804 9.27667 22.5304 9.12C22.4804 8.96 22.4554 8.78 22.4554 8.58C22.4554 8.31 22.5004 8.08 22.5904 7.89C22.6804 7.7 22.8054 7.55667 22.9654 7.46C23.1254 7.36 23.3121 7.31 23.5254 7.31C23.7354 7.31 23.9154 7.35833 24.0654 7.455C24.2187 7.55167 24.3254 7.68167 24.3854 7.845H24.4204L24.4304 7.355H24.9304V9.755C24.9304 9.96167 24.9004 10.1367 24.8404 10.28C24.7804 10.4267 24.6954 10.5433 24.5854 10.63C24.4754 10.72 24.3421 10.785 24.1854 10.825C24.0321 10.865 23.8637 10.885 23.6804 10.885ZM23.6954 9.445C23.8487 9.445 23.9787 9.41 24.0854 9.34C24.1921 9.27 24.2737 9.18167 24.3304 9.075C24.3871 8.965 24.4171 8.85167 24.4204 8.735L24.4154 8.415C24.4121 8.30167 24.3837 8.19167 24.3304 8.085C24.2771 7.975 24.1971 7.88667 24.0904 7.82C23.9871 7.75 23.8571 7.715 23.7004 7.715C23.5537 7.715 23.4271 7.74833 23.3204 7.815C23.2137 7.88167 23.1304 7.98 23.0704 8.11C23.0137 8.24 22.9854 8.39667 22.9854 8.58C22.9854 8.76667 23.0137 8.925 23.0704 9.055C23.1304 9.18167 23.2137 9.27833 23.3204 9.345C23.4271 9.41167 23.5521 9.445 23.6954 9.445ZM28.0418 10.045C27.7185 10.045 27.4502 9.995 27.2368 9.895C27.0235 9.795 26.8635 9.65667 26.7568 9.48C26.6502 9.3 26.5952 9.09333 26.5918 8.86H27.1518C27.1552 9.01333 27.1885 9.14833 27.2518 9.265C27.3185 9.37833 27.4168 9.465 27.5468 9.525C27.6768 9.585 27.8452 9.615 28.0518 9.615C28.3085 9.615 28.5135 9.56833 28.6668 9.475C28.8235 9.38167 28.9018 9.23833 28.9018 9.045C28.9018 8.935 28.8852 8.84333 28.8518 8.77C28.8185 8.69667 28.7635 8.63667 28.6868 8.59C28.6135 8.54 28.5152 8.49833 28.3918 8.465C28.2685 8.43167 28.1185 8.4 27.9418 8.37C27.7318 8.33333 27.5468 8.29 27.3868 8.24C27.2302 8.18667 27.0985 8.12167 26.9918 8.045C26.8885 7.965 26.8102 7.86833 26.7568 7.755C26.7035 7.64167 26.6768 7.50833 26.6768 7.355C26.6768 7.14167 26.7302 6.95667 26.8368 6.8C26.9435 6.64333 27.0968 6.52333 27.2968 6.44C27.4968 6.35667 27.7368 6.315 28.0168 6.315C28.2968 6.315 28.5352 6.36 28.7318 6.45C28.9285 6.53667 29.0802 6.66 29.1868 6.82C29.2935 6.97667 29.3485 7.16333 29.3518 7.38H28.7968C28.7935 7.23333 28.7568 7.11333 28.6868 7.02C28.6202 6.92333 28.5268 6.85167 28.4068 6.805C28.2902 6.75833 28.1535 6.735 27.9968 6.735C27.8368 6.735 27.7002 6.75833 27.5868 6.805C27.4768 6.84833 27.3918 6.91167 27.3318 6.995C27.2718 7.075 27.2418 7.17 27.2418 7.28C27.2418 7.41333 27.2735 7.51667 27.3368 7.59C27.4035 7.66333 27.5085 7.72167 27.6518 7.765C27.7952 7.805 27.9835 7.84667 28.2168 7.89C28.3802 7.91333 28.5352 7.94667 28.6818 7.99C28.8318 8.03333 28.9652 8.09333 29.0818 8.17C29.2018 8.24667 29.2952 8.35167 29.3618 8.485C29.4318 8.615 29.4668 8.785 29.4668 8.995C29.4668 9.20167 29.4118 9.385 29.3018 9.545C29.1952 9.70167 29.0352 9.825 28.8218 9.915C28.6118 10.0017 28.3518 10.045 28.0418 10.045ZM31.1625 10.045C30.9692 10.045 30.7925 10.0133 30.6325 9.95C30.4758 9.88667 30.3408 9.795 30.2275 9.675C30.1142 9.555 30.0258 9.41167 29.9625 9.245C29.8992 9.07833 29.8675 8.89167 29.8675 8.685C29.8675 8.41167 29.9192 8.17333 30.0225 7.97C30.1292 7.76333 30.2792 7.60333 30.4725 7.49C30.6692 7.37333 30.8992 7.315 31.1625 7.315C31.3558 7.315 31.5308 7.34667 31.6875 7.41C31.8475 7.47 31.9842 7.56 32.0975 7.68C32.2108 7.8 32.2975 7.945 32.3575 8.115C32.4208 8.28167 32.4525 8.47 32.4525 8.68C32.4525 8.95 32.4008 9.18833 32.2975 9.395C32.1942 9.59833 32.0458 9.75833 31.8525 9.875C31.6592 9.98833 31.4292 10.045 31.1625 10.045ZM31.1625 9.615C31.3158 9.615 31.4492 9.58 31.5625 9.51C31.6792 9.43667 31.7692 9.33 31.8325 9.19C31.8958 9.05 31.9275 8.88 31.9275 8.68C31.9275 8.53 31.9092 8.39833 31.8725 8.285C31.8392 8.16833 31.7892 8.07 31.7225 7.99C31.6558 7.90667 31.5758 7.845 31.4825 7.805C31.3892 7.76167 31.2825 7.74 31.1625 7.74C31.0092 7.74 30.8742 7.77667 30.7575 7.85C30.6442 7.92333 30.5542 8.03 30.4875 8.17C30.4242 8.30667 30.3925 8.47833 30.3925 8.685C30.3925 8.83167 30.4092 8.96333 30.4425 9.08C30.4792 9.19333 30.5308 9.29 30.5975 9.37C30.6675 9.45 30.7492 9.51167 30.8425 9.555C30.9392 9.595 31.0458 9.615 31.1625 9.615ZM34.1557 10.045C33.9623 10.045 33.7857 10.0133 33.6257 9.95C33.469 9.88667 33.334 9.795 33.2207 9.675C33.1073 9.555 33.019 9.41167 32.9557 9.245C32.8923 9.07833 32.8607 8.89167 32.8607 8.685C32.8607 8.41167 32.9123 8.17333 33.0157 7.97C33.1223 7.76333 33.2723 7.60333 33.4657 7.49C33.6623 7.37333 33.8923 7.315 34.1557 7.315C34.349 7.315 34.524 7.34667 34.6807 7.41C34.8407 7.47 34.9773 7.56 35.0907 7.68C35.204 7.8 35.2907 7.945 35.3507 8.115C35.414 8.28167 35.4457 8.47 35.4457 8.68C35.4457 8.95 35.394 9.18833 35.2907 9.395C35.1873 9.59833 35.039 9.75833 34.8457 9.875C34.6523 9.98833 34.4223 10.045 34.1557 10.045ZM34.1557 9.615C34.309 9.615 34.4423 9.58 34.5557 9.51C34.6723 9.43667 34.7623 9.33 34.8257 9.19C34.889 9.05 34.9207 8.88 34.9207 8.68C34.9207 8.53 34.9023 8.39833 34.8657 8.285C34.8323 8.16833 34.7823 8.07 34.7157 7.99C34.649 7.90667 34.569 7.845 34.4757 7.805C34.3823 7.76167 34.2757 7.74 34.1557 7.74C34.0023 7.74 33.8673 7.77667 33.7507 7.85C33.6373 7.92333 33.5473 8.03 33.4807 8.17C33.4173 8.30667 33.3857 8.47833 33.3857 8.685C33.3857 8.83167 33.4023 8.96333 33.4357 9.08C33.4723 9.19333 33.524 9.29 33.5907 9.37C33.6607 9.45 33.7423 9.51167 33.8357 9.555C33.9323 9.595 34.039 9.615 34.1557 9.615ZM35.985 10V7.355H36.475L36.495 7.88H36.525C36.6017 7.69333 36.7217 7.55333 36.885 7.46C37.0483 7.36333 37.2267 7.315 37.42 7.315C37.5567 7.315 37.6817 7.335 37.795 7.375C37.9117 7.415 38.0117 7.48 38.095 7.57C38.1817 7.65667 38.2483 7.77167 38.295 7.915C38.3417 8.055 38.365 8.22667 38.365 8.43V10H37.85V8.535C37.85 8.355 37.8283 8.20667 37.785 8.09C37.7417 7.97 37.675 7.88167 37.585 7.825C37.495 7.76833 37.3783 7.74 37.235 7.74C37.085 7.74 36.9533 7.77667 36.84 7.85C36.73 7.92333 36.645 8.02167 36.585 8.145C36.525 8.265 36.495 8.40167 36.495 8.555V10H35.985Z" fill="#6F6F6F"/>
<rect x="0.34461" y="0.34461" width="44.3108" height="15.3108" rx="7.65539" stroke="#6F6F6F" stroke-width="0.68922"/>
</svg>
