<svg width="40" height="40" viewBox="0 0 40 40" fill="none" xmlns="http://www.w3.org/2000/svg">
<g clip-path="url(#clip0_3374_29387)">
<circle cx="20" cy="20" r="20" fill="white"/>
<path d="M29.3325 13.3969C28.5533 12.5353 27.2516 12.1044 25.3633 12.1044H25.1433V12.0678C25.1433 10.5278 25.1433 8.62109 21.6966 8.62109H20.3033C16.8566 8.62109 16.8566 10.5369 16.8566 12.0678V12.1136H16.6366C14.7391 12.1136 13.4466 12.5444 12.6675 13.4061C11.76 14.4144 11.7875 15.7711 11.8791 16.6969L11.8883 16.7611L11.9574 17.4869C11.9717 17.6367 12.0525 17.772 12.1784 17.8543C12.3998 17.999 12.7549 18.2275 12.97 18.3469C13.0983 18.4294 13.2358 18.5028 13.3733 18.5761C14.9408 19.4378 16.6641 20.0153 18.415 20.2994C18.4975 21.1611 18.8733 22.1694 20.8808 22.1694C22.8883 22.1694 23.2825 21.1703 23.3466 20.2811C25.2166 19.9786 27.0225 19.3278 28.6541 18.3744C28.7091 18.3469 28.7458 18.3194 28.7916 18.2919C29.1501 18.0893 29.5218 17.8404 29.8617 17.5957C29.9748 17.5143 30.047 17.3882 30.0624 17.2497L30.075 17.1369L30.1208 16.7061C30.13 16.6511 30.13 16.6053 30.1391 16.5411C30.2125 15.6153 30.1941 14.3503 29.3325 13.3969ZM21.9991 19.6761C21.9991 20.6478 21.9991 20.7944 20.8716 20.7944C19.7441 20.7944 19.7441 20.6203 19.7441 19.6853V18.5303H21.9991V19.6761ZM18.1675 12.1044V12.0678C18.1675 10.5094 18.1675 9.93193 20.3033 9.93193H21.6966C23.8325 9.93193 23.8325 10.5186 23.8325 12.0678V12.1136H18.1675V12.1044Z" fill="#101828"/>
<path d="M29.067 19.6206C29.4208 19.4528 29.8272 19.7336 29.7918 20.1236L29.4695 23.6735C29.277 25.5068 28.5254 27.3768 24.492 27.3768H17.507C13.4737 27.3768 12.722 25.5068 12.5295 23.6827L12.2238 20.3198C12.1888 19.9344 12.5859 19.6539 12.9388 19.8131C13.99 20.2873 15.8465 21.0906 17.0143 21.4005C17.1785 21.444 17.3114 21.5617 17.3844 21.7151C17.9451 22.8918 19.1479 23.5177 20.8804 23.5177C22.5957 23.5177 23.8135 22.8677 24.3761 21.6878C24.4493 21.5343 24.5822 21.4167 24.7465 21.3729C25.9874 21.0419 27.9661 20.1429 29.067 19.6206Z" fill="#101828"/>
</g>
<defs>
<clipPath id="clip0_3374_29387">
<rect width="40" height="40" rx="20" fill="white"/>
</clipPath>
</defs>
</svg>
