<svg width="89" height="90" viewBox="0 0 89 90" fill="none" xmlns="http://www.w3.org/2000/svg">
<g clip-path="url(#clip0_2803_29213)">
<rect x="0.441406" y="0.207031" width="88.0751" height="89.6339" rx="15" fill="url(#paint0_linear_2803_29213)"/>
<path d="M49.4457 62.8287H39.508C30.5144 62.8287 26.6719 58.9862 26.6719 49.9926V40.0549C26.6719 31.0613 30.5144 27.2188 39.508 27.2188H49.4457C58.4393 27.2188 62.2819 31.0613 62.2819 40.0549V49.9926C62.2819 58.9862 58.4393 62.8287 49.4457 62.8287ZM39.508 29.7032C31.8726 29.7032 29.1563 32.4195 29.1563 40.0549V49.9926C29.1563 57.628 31.8726 60.3443 39.508 60.3443H49.4457C57.0812 60.3443 59.7975 57.628 59.7975 49.9926V40.0549C59.7975 32.4195 57.0812 29.7032 49.4457 29.7032H39.508Z" fill="white"/>
<path d="M50.4063 57.0337C49.7272 57.0337 49.1641 56.4706 49.1641 55.7915V49.3321C49.1641 48.653 49.7272 48.0898 50.4063 48.0898C51.0853 48.0898 51.6485 48.653 51.6485 49.3321V55.7915C51.6485 56.4706 51.0853 57.0337 50.4063 57.0337Z" fill="white"/>
<path d="M50.4063 38.7298C49.7272 38.7298 49.1641 38.1667 49.1641 37.4876V34.2578C49.1641 33.5788 49.7272 33.0156 50.4063 33.0156C51.0853 33.0156 51.6485 33.5788 51.6485 34.2578V37.4876C51.6485 38.1667 51.0853 38.7298 50.4063 38.7298Z" fill="white"/>
<path d="M50.4079 47.3393C47.3438 47.3393 44.8594 44.8548 44.8594 41.7907C44.8594 38.7266 47.3438 36.2422 50.4079 36.2422C53.472 36.2422 55.9564 38.7266 55.9564 41.7907C55.9564 44.8548 53.4555 47.3393 50.4079 47.3393ZM50.4079 38.7266C48.7185 38.7266 47.3438 40.1013 47.3438 41.7907C47.3438 43.4801 48.7185 44.8548 50.4079 44.8548C52.0973 44.8548 53.472 43.4801 53.472 41.7907C53.472 40.1013 52.0808 38.7266 50.4079 38.7266Z" fill="white"/>
<path d="M38.5469 57.0345C37.8678 57.0345 37.3047 56.4713 37.3047 55.7923V52.5625C37.3047 51.8834 37.8678 51.3203 38.5469 51.3203C39.226 51.3203 39.7891 51.8834 39.7891 52.5625V55.7923C39.7891 56.4713 39.2425 57.0345 38.5469 57.0345Z" fill="white"/>
<path d="M38.5469 41.9595C37.8678 41.9595 37.3047 41.3964 37.3047 40.7173V34.2578C37.3047 33.5788 37.8678 33.0156 38.5469 33.0156C39.226 33.0156 39.7891 33.5788 39.7891 34.2578V40.7173C39.7891 41.3964 39.2425 41.9595 38.5469 41.9595Z" fill="white"/>
<path d="M38.5466 53.8041C35.4825 53.8041 32.998 51.3197 32.998 48.2556C32.998 45.1914 35.4825 42.707 38.5466 42.707C41.6107 42.707 44.0951 45.1914 44.0951 48.2556C44.0951 51.3197 41.6107 53.8041 38.5466 53.8041ZM38.5466 45.1914C36.8572 45.1914 35.4825 46.5662 35.4825 48.2556C35.4825 49.945 36.8572 51.3197 38.5466 51.3197C40.236 51.3197 41.6107 49.945 41.6107 48.2556C41.6107 46.5662 40.2525 45.1914 38.5466 45.1914Z" fill="white"/>
</g>
<defs>
<linearGradient id="paint0_linear_2803_29213" x1="44.4789" y1="0.207031" x2="44.4789" y2="89.841" gradientUnits="userSpaceOnUse">
<stop stop-color="white" stop-opacity="0.28"/>
<stop offset="1" stop-color="white" stop-opacity="0.39"/>
</linearGradient>
<clipPath id="clip0_2803_29213">
<rect x="0.441406" y="0.207031" width="88.0751" height="89.6339" rx="15" fill="white"/>
</clipPath>
</defs>
</svg>
