<svg width="70" height="70" viewBox="0 0 70 70" fill="none" xmlns="http://www.w3.org/2000/svg">
<circle opacity="0.3" cx="35" cy="35" r="35" fill="url(#paint0_linear_3150_28936)"/>
<path d="M43.2527 42.668H29.0527C27.7327 42.668 26.466 42.108 25.5727 41.1346C24.6793 40.1613 24.226 38.8546 24.3327 37.5346L25.4394 24.2546C25.4794 23.8413 25.3327 23.4413 25.0527 23.1346C24.7727 22.828 24.386 22.668 23.9727 22.668H21.666C21.1193 22.668 20.666 22.2146 20.666 21.668C20.666 21.1213 21.1193 20.668 21.666 20.668H23.986C24.9594 20.668 25.8793 21.0813 26.5327 21.788C26.8927 22.188 27.1593 22.6546 27.306 23.1746H43.9594C45.306 23.1746 46.546 23.708 47.4527 24.668C48.346 25.6413 48.7994 26.908 48.6927 28.2546L47.9727 38.2546C47.826 40.6946 45.6927 42.668 43.2527 42.668ZM27.3727 25.1613L26.3327 37.6946C26.266 38.468 26.5193 39.2013 27.0393 39.7746C27.5593 40.348 28.2793 40.6546 29.0527 40.6546H43.2527C44.6394 40.6546 45.8927 39.4813 45.9993 38.0946L46.7193 28.0946C46.7727 27.308 46.5194 26.5613 45.9993 26.0146C45.4793 25.4546 44.7593 25.1479 43.9727 25.1479H27.3727V25.1613Z" fill="#101828"/>
<path d="M40.6667 49.3333C39.2 49.3333 38 48.1333 38 46.6667C38 45.2 39.2 44 40.6667 44C42.1333 44 43.3333 45.2 43.3333 46.6667C43.3333 48.1333 42.1333 49.3333 40.6667 49.3333ZM40.6667 46C40.2933 46 40 46.2933 40 46.6667C40 47.04 40.2933 47.3333 40.6667 47.3333C41.04 47.3333 41.3333 47.04 41.3333 46.6667C41.3333 46.2933 41.04 46 40.6667 46Z" fill="#101828"/>
<path d="M30.0007 49.3333C28.534 49.3333 27.334 48.1333 27.334 46.6667C27.334 45.2 28.534 44 30.0007 44C31.4673 44 32.6673 45.2 32.6673 46.6667C32.6673 48.1333 31.4673 49.3333 30.0007 49.3333ZM30.0007 46C29.6273 46 29.334 46.2933 29.334 46.6667C29.334 47.04 29.6273 47.3333 30.0007 47.3333C30.374 47.3333 30.6673 47.04 30.6673 46.6667C30.6673 46.2933 30.374 46 30.0007 46Z" fill="#101828"/>
<path d="M47 30.668H31C30.4533 30.668 30 30.2146 30 29.668C30 29.1213 30.4533 28.668 31 28.668H47C47.5467 28.668 48 29.1213 48 29.668C48 30.2146 47.5467 30.668 47 30.668Z" fill="#101828"/>
<defs>
<linearGradient id="paint0_linear_3150_28936" x1="16.5375" y1="48.8235" x2="87.9525" y2="36.1557" gradientUnits="userSpaceOnUse">
<stop stop-color="#FF6648"/>
<stop offset="1" stop-color="#FFF96A"/>
</linearGradient>
</defs>
</svg>
