<svg width="866" height="147" viewBox="0 0 866 147" fill="none" xmlns="http://www.w3.org/2000/svg">
<path d="M126.89 76L127.825 63.075C125.35 69.73 120.895 74.68 113.305 74.68H108.355V56.09C110.335 56.09 112.26 56.145 114.24 56.365C118.97 56.86 120.565 58.51 121.83 63.02V46.08C120.18 54.77 116.11 54.77 108.355 54.77V35.63C116.33 35.63 122.71 36.29 126.175 45.585L125.24 34.31H97.5204C99.9954 35.74 100.325 39.205 100.325 41.79V68.52C100.325 71.05 99.9404 74.625 97.5204 76H126.89ZM145.257 73.745C145.257 74.625 144.817 75.395 144.157 76H158.237C156.367 74.955 150.867 67.86 146.687 61.48C149.437 57.465 154.277 50.975 157.687 49.435H144.927C147.182 49.93 148.557 51.36 148.557 53.67C148.557 55.925 147.402 58.455 146.027 60.49C143.387 56.42 141.407 52.735 141.407 51.36C141.407 50.645 141.737 49.93 142.287 49.435H129.087C130.957 50.59 136.292 57.685 140.307 64.01C137.557 68.025 132.772 74.515 129.362 76H142.122C139.867 75.505 138.492 74.075 138.492 71.765C138.492 69.565 139.592 67.09 140.967 65.055C143.442 69.015 145.257 72.48 145.257 73.745ZM160.086 80.73C160.086 83.26 159.701 86.78 157.281 88.21H170.866C168.446 86.78 168.116 83.26 168.116 80.73V75.56C169.766 76.165 171.086 76.495 173.561 76.495C181.536 76.495 186.101 69.62 186.101 62.195C186.101 55.1 181.921 48.83 174.276 48.83C172.461 48.83 169.986 51.25 168.116 53.395V49.435C163.661 51.965 162.121 52.625 157.006 53.45C158.931 55.76 160.086 57.52 160.086 60.655V80.73ZM168.116 54.055C168.446 53.835 168.831 53.67 169.106 53.67C175.596 53.67 178.511 60.05 178.511 65.715C178.511 69.345 177.081 75.12 172.516 75.12C168.831 75.12 168.116 70.83 168.116 67.97V54.055ZM201.372 48.995C193.727 48.995 188.062 55.32 188.062 62.8C188.062 70.335 193.727 76.55 201.372 76.55C209.017 76.55 214.627 70.28 214.627 62.8C214.627 55.32 209.017 48.995 201.372 48.995ZM203.132 75.065C197.632 75.065 195.762 61.975 195.762 58.07C195.762 56.035 196.037 50.59 199.062 50.59C204.947 50.59 206.817 62.8 206.817 67.035C206.817 69.29 206.432 75.065 203.132 75.065ZM225.958 76.55C230.743 76.55 238.113 74.845 238.113 68.795C238.113 59.72 222.988 59.94 222.988 54.385C222.988 51.965 224.803 50.315 227.223 50.315C229.258 50.315 231.293 51.635 231.293 53.835C231.293 54.99 230.578 55.87 229.368 55.87C230.028 58.015 231.623 59.555 233.933 59.555C236.188 59.555 237.563 58.125 237.563 55.87C237.563 52.185 234.373 50.205 231.073 49.435C229.588 48.225 228.708 46.355 228.708 44.43C228.708 39.81 232.668 37.445 236.903 37.445C239.653 37.445 243.118 37.885 244.988 40.14C242.788 40.14 240.973 41.955 240.973 44.155C240.973 46.355 242.788 48.17 244.988 48.17C247.188 48.17 249.003 46.355 249.003 44.155C249.003 38.105 241.798 36.125 236.903 36.125C232.008 36.125 225.188 38.435 225.188 44.375C225.188 46.245 226.013 47.84 227.388 48.995C222.768 48.995 216.498 51.305 216.498 56.805C216.498 66.1 230.908 65.66 230.908 71.325C230.908 74.075 228.323 75.23 225.958 75.23C223.978 75.23 221.668 74.075 221.668 71.82C221.668 70.5 222.603 69.51 223.923 69.51C223.483 67.31 221.833 65.055 219.358 65.055C216.773 65.055 215.398 67.09 215.398 69.51C215.398 74.68 221.833 76.55 225.958 76.55ZM249.498 49.435C245.043 52.02 243.503 52.68 238.388 53.505C240.313 55.815 241.468 57.575 241.468 60.71V68.52C241.468 70.995 241.028 74.625 238.663 76H252.248C249.773 74.625 249.498 71.05 249.498 68.52V49.435ZM294.916 48.995C288.921 48.995 281.716 51.965 281.716 58.95C281.716 64.56 286.226 67.585 291.121 68.575C287.271 68.63 281.221 69.18 281.221 74.185C281.221 76.715 283.476 78.97 286.006 78.97H301.516C301.571 85.35 295.741 88.485 290.021 88.485C284.026 88.485 278.691 84.965 278.691 78.53V57.74C278.691 53.175 276.271 48.995 271.321 48.995C270.661 48.995 264.391 52.735 263.346 53.725V49.435C258.891 52.02 257.351 52.68 252.236 53.505C254.161 55.815 255.316 57.575 255.316 60.71V68.52C255.316 70.995 254.876 74.625 252.511 76H266.096C263.621 74.625 263.346 71.05 263.346 68.52V56.97C263.731 54.935 264.941 53.065 267.196 53.065C269.891 53.065 270.661 55.705 270.661 57.96V78.42C270.661 87.22 282.651 89.64 289.416 89.805H289.966C299.041 89.805 309.546 87.055 309.546 76C309.546 73.305 307.566 72.04 305.036 72.04H292.606C291.836 72.04 290.406 71.985 290.406 70.885C290.406 69.565 292.826 69.125 294.641 68.96C300.801 68.96 308.006 66.21 308.006 58.95C308.006 53.285 303.331 50.26 298.381 49.325C299.206 48.555 300.196 48.005 301.516 48.005C302.726 48.005 303.826 48.61 304.266 49.765C304.541 49.82 304.926 49.875 305.201 49.875C307.566 49.875 309.711 48.445 309.711 45.915C309.711 43.715 307.951 42.34 305.806 42.34C301.956 42.34 299.206 45.86 297.281 49.16C296.456 49.05 295.686 48.995 294.916 48.995ZM296.676 67.475C291.726 67.475 289.306 59.72 289.306 55.76C289.306 53.615 289.911 50.59 292.606 50.59C297.776 50.59 300.361 57.63 300.361 61.92C300.361 64.285 299.591 67.475 296.676 67.475ZM327.756 88.045C334.026 88.045 336.281 80.785 338.206 76L343.156 63.625C345.796 56.97 349.591 51.47 357.456 51.47C363.341 51.47 365.156 57.905 365.156 62.745C365.156 65.66 363.891 75.23 359.656 75.23C355.256 75.23 354.486 67.695 354.486 64.56C354.486 62.03 355.201 53.505 358.941 53.505C352.286 53.505 346.126 57.08 346.126 64.34C346.126 71.765 352.396 76.55 359.436 76.55C367.576 76.55 373.461 70.115 373.461 62.14C373.461 53.12 367.136 48.555 358.556 48.555C346.676 48.555 342.606 61.04 339.086 70.17C337.656 66.76 333.256 56.86 333.256 53.725C333.256 51.855 334.136 50.04 335.951 49.435H320.771C324.126 50.92 327.151 60.105 328.526 63.515L333.531 76C334.356 76 335.951 76.275 335.951 77.43C335.951 80.07 331.606 81.555 329.516 81.555C327.096 81.555 325.116 80.345 325.116 77.705C322.751 77.705 321.541 80.84 321.541 82.82C321.541 86.45 324.401 88.045 327.756 88.045ZM373.945 49.435C376.365 50.81 376.75 54.385 376.75 56.915V67.695C376.75 72.26 379.17 76.44 384.12 76.44C384.78 76.44 391.71 72.315 392.205 71.6C392.48 73.085 393.03 74.625 393.36 76H403.205C400.95 73.195 400.125 70.94 400.125 67.365V49.435H389.345C391.82 50.81 392.095 54.385 392.095 56.915V64.725C392.095 66.045 391.985 67.475 391.985 68.905C391.545 70.72 390.335 72.37 388.245 72.37C385.55 72.37 384.78 69.73 384.78 67.475V49.435H373.945ZM414.327 55.485V49.435C409.872 52.02 408.332 52.68 403.217 53.505C405.142 55.815 406.297 57.575 406.297 60.71V68.52C406.297 70.995 405.857 74.625 403.492 76H417.077C414.657 74.625 414.327 71.05 414.327 68.52V58.51C414.327 56.915 415.977 55.54 417.462 55.54C419.387 55.54 420.817 57.025 420.817 58.895C420.817 59.39 420.707 59.83 420.597 60.27C424.227 60.27 427.197 57.905 427.197 54.165C427.197 51.305 425.327 48.995 422.357 48.995C418.617 48.995 415.757 52.35 414.327 55.485ZM477.506 49.435C473.051 52.02 471.511 52.68 466.396 53.505C468.321 55.815 469.476 57.575 469.476 60.71V68.52C469.476 70.555 469.201 73.36 467.771 75.065C462.381 70.885 457.156 60.545 454.186 54.99C455.836 50.095 463.206 46.355 468.156 46.355C469.916 46.355 471.896 46.85 472.721 48.61C475.856 48.61 478.276 46.025 478.276 42.945C478.276 39.865 475.911 38.16 472.996 38.16C464.251 38.16 452.261 52.68 449.346 60.27V37.06C444.946 39.59 443.351 40.25 438.291 41.075C440.216 43.385 441.371 45.2 441.371 48.28V68.52C441.371 70.995 440.876 74.625 438.511 76H452.151C449.676 74.57 449.346 71.05 449.346 68.52V61.975L457.101 76H480.256C477.781 74.625 477.506 71.05 477.506 68.52V49.435ZM506.694 37.06C502.239 39.59 500.699 40.25 495.584 41.075C497.509 43.385 498.664 45.145 498.664 48.28V50.755C497.729 50.315 494.209 48.83 493.219 48.83C485.244 48.83 480.679 55.705 480.679 63.13C480.679 70.225 484.859 76.495 492.504 76.495C495.694 76.495 497.454 75.505 498.664 73.745V76H509.444C506.969 74.625 506.694 71.05 506.694 68.52V37.06ZM498.664 70.775C498.389 70.775 498.059 70.775 497.674 70.775C491.294 70.775 488.269 64.89 488.269 59.225C488.269 55.595 489.809 50.205 494.264 50.205C497.949 50.205 498.664 54.495 498.664 57.355V70.775ZM519.81 76.55C524.595 76.55 531.965 74.845 531.965 68.795C531.965 59.72 516.84 59.94 516.84 54.385C516.84 51.965 518.655 50.315 521.075 50.315C523.11 50.315 525.145 51.635 525.145 53.835C525.145 54.99 524.43 55.87 523.22 55.87C523.88 58.015 525.475 59.555 527.785 59.555C530.04 59.555 531.415 58.125 531.415 55.87C531.415 50.81 525.42 48.995 521.295 48.995C516.675 48.995 510.35 51.305 510.35 56.805C510.35 66.1 524.76 65.66 524.76 71.325C524.76 74.075 522.175 75.23 519.81 75.23C517.83 75.23 515.52 74.075 515.52 71.82C515.52 70.5 516.455 69.51 517.775 69.51C517.335 67.31 515.685 65.055 513.21 65.055C510.625 65.055 509.25 67.09 509.25 69.51C509.25 74.68 515.685 76.55 519.81 76.55ZM554.027 42.56H553.202C551.387 47.565 548.472 49.435 543.302 49.93V50.755H545.997V69.125C545.997 73.14 547.812 76.55 552.212 76.55C555.237 76.55 558.317 75.065 560.517 73.03V72.48C559.637 72.975 558.592 73.195 557.602 73.195C555.732 73.195 554.027 72.37 554.027 70.225V50.755H559.747V49.435H554.027V42.56ZM572.353 48.995C564.708 48.995 559.043 55.32 559.043 62.8C559.043 70.335 564.708 76.55 572.353 76.55C579.998 76.55 585.608 70.28 585.608 62.8C585.608 55.32 579.998 48.995 572.353 48.995ZM574.113 75.065C568.613 75.065 566.743 61.975 566.743 58.07C566.743 56.035 567.018 50.59 570.043 50.59C575.928 50.59 577.798 62.8 577.798 67.035C577.798 69.29 577.413 75.065 574.113 75.065ZM621.705 73.745C621.375 73.965 620.99 74.075 620.605 74.075C619.065 74.075 618.9 71.71 618.9 70.665V58.015C618.9 52.13 614.555 48.995 608.945 48.995C604.325 48.995 598.275 51.14 598.275 56.64C598.275 58.785 599.54 60.82 601.85 60.82C604.93 60.82 606.91 58.345 607.735 55.65C606.47 55.65 605.59 54.99 605.59 53.67C605.59 52.24 606.69 50.315 608.285 50.315C611.145 50.315 610.87 55.155 610.87 57.025V58.785C607.35 62.635 597.285 64.945 597.285 70.665C597.285 74.79 600.035 76.55 603.885 76.55C607.02 76.55 609.44 75.45 611.145 73.525C611.915 75.395 614.225 76.55 616.205 76.55C618.68 76.55 619.835 75.67 621.705 74.295V73.745ZM610.87 72.37C610.32 72.7 609.605 72.92 608.725 72.92C605.92 72.92 605.37 70.5 605.37 68.19C605.37 65 608.78 62.635 610.87 60.71V72.37ZM641.413 74.625C644.273 75.615 646.143 76.495 649.333 76.495C657.308 76.495 661.873 69.62 661.873 62.195C661.873 55.1 657.693 48.83 650.048 48.83C648.233 48.83 645.758 51.25 643.888 53.395V37.005C639.433 39.535 637.893 40.195 632.778 41.02C634.648 43.33 635.858 45.145 635.858 48.225L635.748 75.945C636.738 75.395 639.433 74.845 641.413 74.625ZM643.888 53.89C644.163 53.725 644.493 53.67 644.878 53.67C651.368 53.67 654.283 60.05 654.283 65.715C654.283 69.345 652.853 75.12 648.288 75.12C644.603 75.12 643.888 70.83 643.888 67.97V53.89ZM674.639 48.995C667.159 49.325 662.759 55.925 662.759 62.965C662.759 70.555 668.259 76.55 675.959 76.55C681.404 76.55 684.484 74.185 687.014 69.62L686.574 69.29C685.419 70.445 682.009 70.83 680.469 70.83C675.244 70.83 672.219 67.365 671.119 62.525L684.869 61.92C686.354 61.865 686.849 61.315 686.849 59.83C686.849 54.935 683.989 50.92 679.259 49.545C677.884 48.445 677.389 47.015 677.389 45.31C677.389 40.525 682.724 37.28 687.014 37.28C690.534 37.28 695.429 38.655 695.429 43C695.429 47.29 690.699 49.545 687.014 49.93V50.755H689.709V69.125C689.709 73.14 691.524 76.55 695.924 76.55C698.949 76.55 702.029 75.065 704.229 73.03V72.48C703.349 72.975 702.304 73.195 701.314 73.195C699.444 73.195 697.739 72.37 697.739 70.225V50.755H703.459V49.435H697.739V46.905C697.739 38.985 695.374 36.125 687.014 36.125C680.964 36.125 673.924 38.93 673.924 45.97C673.924 47.015 674.199 48.06 674.639 48.995ZM670.844 61.15C670.734 60.325 670.679 59.555 670.679 58.73C670.679 56.475 671.504 50.315 674.694 50.315C677.499 50.315 679.534 53.56 679.534 56.145C679.534 60.875 674.199 60.71 670.844 61.15ZM715.482 42.56H714.657C712.842 47.565 709.927 49.435 704.757 49.93V50.755H707.452V69.125C707.452 73.14 709.267 76.55 713.667 76.55C716.692 76.55 719.772 75.065 721.972 73.03V72.48C721.092 72.975 720.047 73.195 719.057 73.195C717.187 73.195 715.482 72.37 715.482 70.225V50.755H721.202V49.435H715.482V42.56ZM744.643 61.865V60.545C744.643 53.45 740.078 48.995 732.983 48.995C725.173 48.995 720.498 55.65 720.498 62.965C720.498 70.555 725.998 76.55 733.698 76.55C739.143 76.55 742.223 74.185 744.753 69.62L744.313 69.29C743.158 70.445 739.748 70.83 738.208 70.83C732.873 70.83 729.903 67.09 728.858 62.525L744.643 61.865ZM737.273 56.145C737.273 58.84 735.458 60.16 732.983 60.545C731.498 60.765 730.068 60.985 728.583 61.15C728.473 60.325 728.418 59.5 728.418 58.675C728.418 56.42 729.243 50.315 732.433 50.315C735.238 50.315 737.273 53.615 737.273 56.145ZM756.412 55.485V49.435C751.957 52.02 750.417 52.68 745.302 53.505C747.227 55.815 748.382 57.575 748.382 60.71V68.52C748.382 70.995 747.942 74.625 745.577 76H759.162C756.742 74.625 756.412 71.05 756.412 68.52V58.51C756.412 56.915 758.062 55.54 759.547 55.54C761.472 55.54 762.902 57.025 762.902 58.895C762.902 59.39 762.792 59.83 762.682 60.27C766.312 60.27 769.282 57.905 769.282 54.165C769.282 51.305 767.412 48.995 764.442 48.995C760.702 48.995 757.842 52.35 756.412 55.485Z" fill="black"/>
<path d="M274.011 102.61C266.751 102.61 262.736 107.45 262.736 114.435H259.601V115.755H262.626V133.52C262.626 135.995 262.186 139.625 259.821 141H273.406C270.931 139.625 270.656 136.05 270.656 133.52V115.755H276.926V114.435C273.296 114.435 268.126 113.17 268.126 108.605C268.126 106.35 269.776 104.04 272.196 104.04C273.626 104.04 274.726 104.92 274.726 106.405C274.726 107.78 273.736 108.715 272.361 108.715C273.021 110.805 274.616 112.62 276.926 112.62C279.456 112.62 281.381 110.805 281.381 108.22C281.381 104.26 277.421 102.61 274.011 102.61ZM298.395 125.71V133.52C298.395 135.995 297.955 139.625 295.59 141H309.175C306.7 139.625 306.425 136.05 306.425 133.52V121.97C306.425 120.1 308.35 118.065 310.275 118.065C312.97 118.065 313.74 120.705 313.74 122.96V133.52C313.74 135.995 313.355 139.625 310.99 141H324.575C322.155 139.625 321.77 136.05 321.77 133.52V122.74C321.77 118.175 319.35 113.995 314.4 113.995C313.74 113.995 307.085 117.955 306.425 118.67V114.435C307.14 113.28 307.47 111.905 307.47 110.53C307.47 104.095 301.585 101.125 295.865 101.125C291.08 101.125 284.04 103.325 284.04 109.155C284.04 111.355 285.855 113.17 288.055 113.17C290.255 113.17 292.07 111.355 292.07 109.155C292.07 106.955 290.255 105.14 288.055 105.14C289.705 103.16 292.565 102.39 295.095 102.39C299.66 102.39 304.28 105.25 304.28 110.2C304.28 115.15 299.605 117.79 295.315 118.505C297.24 120.815 298.395 122.575 298.395 125.71ZM281.455 118.505C283.38 120.815 284.535 122.575 284.535 125.71V133.52C284.535 135.995 284.095 139.625 281.73 141H295.315C292.84 139.625 292.565 136.05 292.565 133.52V114.435C288.11 117.02 286.57 117.68 281.455 118.505ZM329.589 125.82C332.669 125.82 334.649 123.345 335.474 120.65C334.209 120.65 333.329 119.99 333.329 118.67C333.329 117.24 334.429 115.315 336.024 115.315C339.324 115.315 338.609 122.19 338.609 124.335C333.879 126.15 325.024 129.395 325.024 135.555C325.024 144.575 334.979 146.5 342.129 146.5C349.719 146.5 360.829 144.025 360.829 134.455V125.71C360.829 124.5 360.774 123.18 360.829 121.97C360.884 120.045 362.699 118.065 364.679 118.065C367.374 118.065 368.144 120.705 368.144 122.96V133.52C368.144 135.995 367.759 139.625 365.394 141H378.979C376.559 139.625 376.174 136.05 376.174 133.52V122.74C376.174 118.175 373.754 113.995 368.804 113.995C368.144 113.995 361.489 117.955 360.829 118.67V114.435C356.374 116.965 354.834 117.68 349.719 118.505C351.644 120.815 352.799 122.575 352.799 125.71V134.07C352.799 140.175 349.444 145.015 343.009 145.015C337.234 145.015 333.109 141.22 333.109 135.335C333.109 131.1 334.924 127.8 338.609 125.71V137.205C338.609 139.9 341.524 141.55 343.944 141.55C346.364 141.55 347.574 140.67 349.444 139.295V138.745C349.114 138.965 348.729 139.075 348.344 139.075C346.804 139.075 346.639 136.71 346.639 135.665V123.015C346.639 117.13 342.294 113.995 336.684 113.995C332.064 113.995 326.014 116.14 326.014 121.64C326.014 123.785 327.279 125.82 329.589 125.82ZM392.579 123.015C393.514 126.095 395.329 128.13 398.684 128.13C401.654 128.13 403.359 126.205 403.359 123.345C403.359 117.295 397.309 113.995 391.919 113.995C384.109 113.995 379.434 120.65 379.434 127.965C379.434 135.555 384.934 141.55 392.634 141.55C397.859 141.55 401.819 139.185 404.349 134.62L403.909 134.29C402.754 135.445 399.344 135.83 397.804 135.83C390.764 135.83 387.629 129.34 387.629 123.125C387.629 120.98 388.289 115.315 391.369 115.315C393.844 115.315 396.264 117.735 396.264 120.21C396.264 122.3 394.394 123.015 392.579 123.015ZM411.482 113.17C413.682 113.17 415.497 111.355 415.497 109.155C415.497 106.955 413.682 105.14 411.482 105.14C409.282 105.14 407.467 106.955 407.467 109.155C407.467 111.355 409.282 113.17 411.482 113.17ZM418.742 141C416.267 139.625 415.992 136.05 415.992 133.52V114.435C411.537 117.02 409.997 117.68 404.882 118.505C406.807 120.815 407.962 122.575 407.962 125.71V133.52C407.962 135.995 407.522 139.625 405.157 141H418.742ZM443.6 138.745C443.27 138.965 442.885 139.075 442.5 139.075C440.96 139.075 440.795 136.71 440.795 135.665V123.015C440.795 117.13 436.45 113.995 430.84 113.995C426.22 113.995 420.17 116.14 420.17 121.64C420.17 123.785 421.435 125.82 423.745 125.82C426.825 125.82 428.805 123.345 429.63 120.65C428.365 120.65 427.485 119.99 427.485 118.67C427.485 117.24 428.585 115.315 430.18 115.315C433.04 115.315 432.765 120.155 432.765 122.025V123.785C429.245 127.635 419.18 129.945 419.18 135.665C419.18 139.79 421.93 141.55 425.78 141.55C428.915 141.55 431.335 140.45 433.04 138.525C433.81 140.395 436.12 141.55 438.1 141.55C440.575 141.55 441.73 140.67 443.6 139.295V138.745ZM432.765 137.37C432.215 137.7 431.5 137.92 430.62 137.92C427.815 137.92 427.265 135.5 427.265 133.19C427.265 130 430.675 127.635 432.765 125.71V137.37ZM454.986 102.005C450.531 104.59 448.991 105.25 443.876 106.075C445.801 108.385 446.956 110.145 446.956 113.28V133.52C446.956 136.05 446.571 139.625 444.151 141H457.791C455.316 139.625 454.986 136.05 454.986 133.52V102.005ZM483.268 102.61C476.008 102.61 471.993 107.45 471.993 114.435H468.858V115.755H471.883V133.52C471.883 135.995 471.443 139.625 469.078 141H482.663C480.188 139.625 479.913 136.05 479.913 133.52V115.755H486.183V114.435C482.553 114.435 477.383 113.17 477.383 108.605C477.383 106.35 479.033 104.04 481.453 104.04C482.883 104.04 483.983 104.92 483.983 106.405C483.983 107.78 482.993 108.715 481.618 108.715C482.278 110.805 483.873 112.62 486.183 112.62C488.713 112.62 490.638 110.805 490.638 108.22C490.638 104.26 486.678 102.61 483.268 102.61ZM484.643 114.435C487.063 115.81 487.448 119.385 487.448 121.915V132.695C487.448 137.26 489.868 141.44 494.818 141.44C495.478 141.44 502.408 137.315 502.903 136.6C503.178 138.085 503.728 139.625 504.058 141H513.903C511.648 138.195 510.823 135.94 510.823 132.365V114.435H500.043C502.518 115.81 502.793 119.385 502.793 121.915V129.725C502.793 131.045 502.683 132.475 502.683 133.905C502.243 135.72 501.033 137.37 498.943 137.37C496.248 137.37 495.478 134.73 495.478 132.475V114.435H484.643ZM524.916 107.56H524.091C522.276 112.565 519.361 114.435 514.191 114.93V115.755H516.886V134.125C516.886 138.14 518.701 141.55 523.101 141.55C526.126 141.55 529.206 140.065 531.406 138.03V137.48C530.526 137.975 529.481 138.195 528.491 138.195C526.621 138.195 524.916 137.37 524.916 135.225V115.755H530.636V114.435H524.916V107.56ZM528.955 114.435C531.375 115.81 531.76 119.385 531.76 121.915V132.695C531.76 137.26 534.18 141.44 539.13 141.44C539.79 141.44 546.72 137.315 547.215 136.6C547.49 138.085 548.04 139.625 548.37 141H558.215C555.96 138.195 555.135 135.94 555.135 132.365V114.435H544.355C546.83 115.81 547.105 119.385 547.105 121.915V129.725C547.105 131.045 546.995 132.475 546.995 133.905C546.555 135.72 545.345 137.37 543.255 137.37C540.56 137.37 539.79 134.73 539.79 132.475V114.435H528.955ZM569.337 120.485V114.435C564.882 117.02 563.342 117.68 558.227 118.505C560.152 120.815 561.307 122.575 561.307 125.71V133.52C561.307 135.995 560.867 139.625 558.502 141H572.087C569.667 139.625 569.337 136.05 569.337 133.52V123.51C569.337 121.915 570.987 120.54 572.472 120.54C574.397 120.54 575.827 122.025 575.827 123.895C575.827 124.39 575.717 124.83 575.607 125.27C579.237 125.27 582.207 122.905 582.207 119.165C582.207 116.305 580.337 113.995 577.367 113.995C573.627 113.995 570.767 117.35 569.337 120.485ZM606.015 126.865V125.545C606.015 118.45 601.45 113.995 594.355 113.995C586.545 113.995 581.87 120.65 581.87 127.965C581.87 135.555 587.37 141.55 595.07 141.55C600.515 141.55 603.595 139.185 606.125 134.62L605.685 134.29C604.53 135.445 601.12 135.83 599.58 135.83C594.245 135.83 591.275 132.09 590.23 127.525L606.015 126.865ZM598.645 121.145C598.645 123.84 596.83 125.16 594.355 125.545C592.87 125.765 591.44 125.985 589.955 126.15C589.845 125.325 589.79 124.5 589.79 123.675C589.79 121.42 590.615 115.315 593.805 115.315C596.61 115.315 598.645 118.615 598.645 121.145Z" fill="#22C55E"/>
<path opacity="0.3" d="M779.418 19.5839C778.81 20.0233 778.674 20.8722 779.113 21.4799C779.552 22.0877 780.401 22.2241 781.009 21.7846L779.418 19.5839ZM800.907 41.0952L801.797 40.0699L801.784 40.0586L801.771 40.0477L800.907 41.0952ZM817.203 16.9644C817.818 16.536 817.97 15.6898 817.542 15.0742L810.562 5.04238C810.133 4.42678 809.287 4.27497 808.672 4.7033C808.056 5.13163 807.904 5.9779 808.333 6.5935L814.537 15.5106L805.62 21.7151C805.004 22.1434 804.852 22.9897 805.281 23.6053C805.709 24.2209 806.555 24.3727 807.171 23.9444L817.203 16.9644ZM781.009 21.7846C781.819 21.1989 783.555 20.8295 786.233 21.0986C788.831 21.3597 792.054 22.1967 795.569 23.6773C802.595 26.6373 810.64 32.1074 817.021 40.3871L819.172 38.7292C812.479 30.0439 804.04 24.2992 796.623 21.1745C792.916 19.6129 789.427 18.6901 786.504 18.3964C783.661 18.1108 781.066 18.3917 779.418 19.5839L781.009 21.7846ZM817.021 40.3871C820.267 44.5978 821.824 47.6186 822.213 49.5012C822.406 50.4361 822.265 50.8672 822.161 51.0314C822.089 51.1451 821.902 51.3424 821.274 51.3916C820.623 51.4426 819.668 51.3099 818.391 50.89C817.131 50.4755 815.636 49.807 813.935 48.8664C810.534 46.9854 806.395 44.0631 801.797 40.0699L800.016 42.1204C804.718 46.2031 809.012 49.2471 812.621 51.243C814.425 52.2407 816.079 52.9882 817.542 53.4698C818.99 53.946 820.333 54.1895 821.486 54.0991C822.661 54.007 823.783 53.5456 824.455 52.4856C825.095 51.476 825.134 50.2185 824.872 48.9522C824.352 46.4324 822.465 43.0009 819.172 38.7292L817.021 40.3871ZM801.771 40.0477C799.539 38.2065 796.856 35.3032 794.728 32.1042C792.576 28.8698 791.125 25.5306 791.083 22.7891C791.063 21.4545 791.377 20.3065 792.065 19.3529C792.756 18.3955 793.908 17.5184 795.767 16.8782C799.543 15.5773 805.957 15.351 816.187 17.1863L816.667 14.5131C806.32 12.657 799.336 12.776 794.882 14.3105C792.625 15.0881 790.954 16.2513 789.863 17.7634C788.769 19.2794 788.341 21.0301 788.368 22.8302C788.421 26.3582 790.221 30.2323 792.467 33.6084C794.736 37.0201 797.597 40.1248 800.043 42.1427L801.771 40.0477Z" fill="#FF9C4C"/>
<path d="M84.917 31.9924L84.9322 45.8488L72.9246 38.9338L84.917 31.9924Z" fill="#3B82F6"/>
<g clip-path="url(#clip0_4248_32863)">
<mask id="mask0_4248_32863" style="mask-type:luminance" maskUnits="userSpaceOnUse" x="604" y="90" width="63" height="48">
<path d="M666.97 90.3359H604.682V137.052H666.97V90.3359Z" fill="white"/>
</mask>
<g mask="url(#mask0_4248_32863)">
<mask id="mask1_4248_32863" style="mask-type:luminance" maskUnits="userSpaceOnUse" x="561" y="74" width="150" height="85">
<path d="M561.074 74.7617H710.566V158.851H561.074V74.7617Z" fill="white"/>
</mask>
<g mask="url(#mask1_4248_32863)">
<path d="M625.876 103.457C621.37 103.457 620.715 109.42 620.715 109.42L621.856 109.416C621.856 109.417 642.076 109.42 642.076 109.42C642.939 105.395 644.814 103.912 647.098 103.457H625.876Z" fill="#A32725"/>
<path d="M644.736 104.24L624.002 103.867C623.866 103.932 623.735 104.004 623.609 104.081L623.704 104.164L644.664 104.541C644.942 104.322 645.234 104.138 645.538 103.985L644.736 104.24Z" fill="#770D0F"/>
<path d="M630.607 108.022C636.114 108.255 641.674 108.463 641.743 108.465C641.751 108.465 641.961 108.453 642.321 108.433C642.351 108.329 642.382 108.227 642.413 108.127C642.184 108.139 641.96 108.152 641.74 108.164C636.879 107.982 625.654 107.537 621.25 107.273C621.213 107.373 621.179 107.472 621.146 107.569C622.679 107.666 625.476 107.804 630.607 108.022Z" fill="#770D0F"/>
<path d="M643.14 106.391L622.928 104.598C622.831 104.687 622.739 104.78 622.65 104.876L642.989 106.681C643.038 106.582 643.088 106.485 643.14 106.391Z" fill="#770D0F"/>
<path d="M653.145 125.057H642.543V110.254H653.145V125.057Z" fill="#C44F00"/>
<path d="M642.799 125.057H620.617V110.254H642.799V125.057Z" fill="#FF7900"/>
<path d="M653.268 125.835H642.418V125.004H653.268V125.835Z" fill="#EB7C12"/>
<path d="M642.572 109.42C642.572 109.42 643.355 103.281 648.121 103.457C652.888 103.633 653.117 109.449 653.117 109.449L642.572 109.42Z" fill="#F5870F"/>
<path d="M644.176 109.239C644.176 109.239 644.761 104.652 648.322 104.784C651.883 104.916 652.054 109.26 652.054 109.26L644.176 109.239Z" fill="#770D0F"/>
<path d="M641.561 123.851H621.824V111.465H641.561V123.851Z" fill="#A32725"/>
<path d="M651.771 123.852H643.91V111.566H651.771V123.852Z" fill="#770D0F"/>
<path d="M653.386 111.915H642.309V109.297H653.386V111.915Z" fill="#F5870F"/>
<path d="M647.494 103.454C647.089 103.451 645.822 103.457 645.822 103.457C641.763 103.591 640.797 108.468 640.661 109.298H621.779C621.908 108.485 622.816 103.804 626.63 103.454C626.225 103.451 624.958 103.457 624.958 103.457C620.899 103.591 619.933 108.468 619.798 109.298H619.779V111.916H642.646V109.298H642.643C642.772 108.485 643.679 103.804 647.494 103.454Z" fill="#FFAE10"/>
<path d="M642.768 125.835H619.809V125.004H642.768V125.835Z" fill="#FFAE10"/>
<path d="M621.828 110.534C621.828 110.814 621.601 111.041 621.321 111.041C621.041 111.041 620.814 110.814 620.814 110.534C620.814 110.254 621.041 110.027 621.321 110.027C621.601 110.027 621.828 110.254 621.828 110.534Z" fill="#F5870F"/>
<path d="M624.291 110.534C624.291 110.814 624.064 111.041 623.784 111.041C623.504 111.041 623.277 110.814 623.277 110.534C623.277 110.254 623.504 110.027 623.784 110.027C624.064 110.027 624.291 110.254 624.291 110.534Z" fill="#F5870F"/>
<path d="M626.752 110.534C626.752 110.814 626.525 111.041 626.245 111.041C625.965 111.041 625.738 110.814 625.738 110.534C625.738 110.254 625.965 110.027 626.245 110.027C626.525 110.027 626.752 110.254 626.752 110.534Z" fill="#F5870F"/>
<path d="M629.213 110.534C629.213 110.814 628.986 111.041 628.706 111.041C628.426 111.041 628.199 110.814 628.199 110.534C628.199 110.254 628.426 110.027 628.706 110.027C628.986 110.027 629.213 110.254 629.213 110.534Z" fill="#F5870F"/>
<path d="M631.678 110.534C631.678 110.814 631.451 111.041 631.171 111.041C630.891 111.041 630.664 110.814 630.664 110.534C630.664 110.254 630.891 110.027 631.171 110.027C631.451 110.027 631.678 110.254 631.678 110.534Z" fill="#F5870F"/>
<path d="M634.139 110.534C634.139 110.814 633.912 111.041 633.632 111.041C633.352 111.041 633.125 110.814 633.125 110.534C633.125 110.254 633.352 110.027 633.632 110.027C633.912 110.027 634.139 110.254 634.139 110.534Z" fill="#F5870F"/>
<path d="M636.599 110.534C636.599 110.814 636.373 111.041 636.093 111.041C635.813 111.041 635.586 110.814 635.586 110.534C635.586 110.254 635.813 110.027 636.093 110.027C636.373 110.027 636.599 110.254 636.599 110.534Z" fill="#F5870F"/>
<path d="M639.061 110.534C639.061 110.814 638.834 111.041 638.554 111.041C638.274 111.041 638.047 110.814 638.047 110.534C638.047 110.254 638.274 110.027 638.554 110.027C638.834 110.027 639.061 110.254 639.061 110.534Z" fill="#F5870F"/>
<path d="M641.521 110.534C641.521 110.814 641.294 111.041 641.015 111.041C640.735 111.041 640.508 110.814 640.508 110.534C640.508 110.254 640.735 110.027 641.015 110.027C641.294 110.027 641.521 110.254 641.521 110.534Z" fill="#F5870F"/>
<path d="M644.729 110.534C644.729 110.814 644.502 111.041 644.222 111.041C643.942 111.041 643.715 110.814 643.715 110.534C643.715 110.254 643.942 110.027 644.222 110.027C644.502 110.027 644.729 110.254 644.729 110.534Z" fill="#D56B00"/>
<path d="M647.197 110.534C647.197 110.814 646.97 111.041 646.691 111.041C646.41 111.041 646.184 110.814 646.184 110.534C646.184 110.254 646.41 110.027 646.691 110.027C646.97 110.027 647.197 110.254 647.197 110.534Z" fill="#D56B00"/>
<path d="M649.658 110.534C649.658 110.814 649.431 111.041 649.151 111.041C648.872 111.041 648.645 110.814 648.645 110.534C648.645 110.254 648.872 110.027 649.151 110.027C649.431 110.027 649.658 110.254 649.658 110.534Z" fill="#D56B00"/>
<path d="M652.119 110.534C652.119 110.814 651.892 111.041 651.612 111.041C651.332 111.041 651.105 110.814 651.105 110.534C651.105 110.254 651.332 110.027 651.612 110.027C651.892 110.027 652.119 110.254 652.119 110.534Z" fill="#D56B00"/>
<path d="M643.91 118.739C645.358 118.75 649.419 118.781 651.771 118.799V118.497C649.417 118.479 645.352 118.448 643.91 118.438V118.739Z" fill="#5B0206"/>
<path d="M643.91 115.149L651.771 114.327V114.023L643.91 114.846V115.149Z" fill="#5B0206"/>
<path d="M651.772 121.545V121.238L643.91 122.59V122.897L651.772 121.545Z" fill="#5B0206"/>
<path d="M643.91 116.987V117.292L651.771 116.328V116.023L643.91 116.987Z" fill="#5B0206"/>
<path d="M650.065 105.293L645.482 106.09C645.389 106.204 645.303 106.322 645.223 106.442L650.41 105.54C650.303 105.451 650.187 105.369 650.065 105.293Z" fill="#5B0206"/>
<path d="M644.473 108.011C644.438 108.118 644.407 108.22 644.379 108.318C645.45 108.255 646.736 108.179 648.015 108.098C649.666 107.994 650.891 107.91 651.801 107.841C651.773 107.744 651.742 107.644 651.707 107.543C649.784 107.689 647.034 107.862 644.473 108.011Z" fill="#5B0206"/>
<path d="M641.561 122.952C639.752 122.815 627.093 121.858 621.824 121.469V121.771C627.138 122.165 639.956 123.133 641.561 123.255V122.952Z" fill="#770D0F"/>
<path d="M621.824 114.029L641.561 115.313V115.011L621.824 113.727V114.029Z" fill="#770D0F"/>
<path d="M621.824 119.87L641.561 118.837V118.535L621.824 119.567V119.87Z" fill="#770D0F"/>
<path d="M641.561 117.207L621.824 116.312V116.615L641.561 117.509V117.207Z" fill="#770D0F"/>
<path d="M630.633 108.422C630.199 108.422 629.592 108.427 629.592 108.427V113.404H630.713V113.402C631.715 113.359 632.521 112.53 632.521 111.518V110.31C632.521 109.272 631.671 108.422 630.633 108.422Z" fill="#DB3D00"/>
<path d="M629.654 113.406C628.615 113.406 627.766 112.557 627.766 111.518V110.31C627.766 109.272 628.615 108.422 629.654 108.422C630.692 108.422 631.542 109.272 631.542 110.31V111.518C631.542 112.557 630.692 113.406 629.654 113.406Z" fill="#FF971D"/>
<path d="M630.482 110.33C630.482 109.915 630.146 109.578 629.73 109.578C629.315 109.578 628.979 109.915 628.979 110.33C628.979 110.607 629.129 110.848 629.351 110.978L629.16 112.044H630.409L630.174 110.936C630.36 110.799 630.482 110.579 630.482 110.33Z" fill="#401100"/>
<path d="M648.003 116.776C647.216 116.776 645.916 116.399 645.818 113.944H644.755C644.588 113.944 644.453 113.809 644.453 113.642C644.453 113.475 644.588 113.34 644.755 113.34H646.115C646.281 113.34 646.417 113.475 646.417 113.642C646.417 115.321 646.95 116.172 648.003 116.172C649.055 116.172 649.589 115.321 649.589 113.642C649.589 113.475 649.724 113.34 649.891 113.34H651.175C651.342 113.34 651.477 113.475 651.477 113.642C651.477 113.809 651.342 113.944 651.175 113.944H650.187C650.089 116.399 648.79 116.776 648.003 116.776Z" fill="#F5870F"/>
</g>
<mask id="mask2_4248_32863" style="mask-type:luminance" maskUnits="userSpaceOnUse" x="593" y="90" width="78" height="45">
<path d="M593.219 90.5859H670.954V134.312H593.219V90.5859Z" fill="white"/>
</mask>
<g mask="url(#mask2_4248_32863)">
<mask id="mask3_4248_32863" style="mask-type:luminance" maskUnits="userSpaceOnUse" x="633" y="105" width="8" height="8">
<path d="M639.715 112.578L633.617 111.612L634.582 105.514L640.681 106.48L639.715 112.578Z" fill="white"/>
</mask>
<g mask="url(#mask3_4248_32863)">
<path d="M634.499 111.036C635.92 110.003 640.208 106.887 640.208 106.887" stroke="white" stroke-width="0.296367"/>
</g>
<mask id="mask4_4248_32863" style="mask-type:luminance" maskUnits="userSpaceOnUse" x="620" y="104" width="5" height="5">
<path d="M623.592 104.41L624.449 107.848L621.011 108.705L620.154 105.267L623.592 104.41Z" fill="white"/>
</mask>
<g mask="url(#mask4_4248_32863)">
<path d="M623.947 107.52C623.083 107.001 620.476 105.435 620.476 105.435" stroke="white" stroke-width="0.170047"/>
</g>
<mask id="mask5_4248_32863" style="mask-type:luminance" maskUnits="userSpaceOnUse" x="638" y="108" width="8" height="8">
<path d="M641.73 115.98L638.344 112.219L642.105 108.833L645.491 112.594L641.73 115.98Z" fill="white"/>
</mask>
<g mask="url(#mask5_4248_32863)">
<path d="M639.21 112.312C640.648 112.387 644.987 112.615 644.987 112.615" stroke="white" stroke-width="0.242924"/>
</g>
<mask id="mask6_4248_32863" style="mask-type:luminance" maskUnits="userSpaceOnUse" x="630" y="101" width="11" height="11">
<path d="M640.775 109.742L632.661 111.917L630.486 103.802L638.601 101.627L640.775 109.742Z" fill="white"/>
</mask>
<g mask="url(#mask6_4248_32863)">
<path d="M633.437 110.707C634.632 108.637 638.239 102.39 638.239 102.39" stroke="white" stroke-width="0.403253"/>
</g>
<mask id="mask7_4248_32863" style="mask-type:luminance" maskUnits="userSpaceOnUse" x="630" y="115" width="8" height="8">
<path d="M637.07 118.125L634.789 122.415L630.5 120.134L632.781 115.844L637.07 118.125Z" fill="white"/>
</mask>
<g mask="url(#mask7_4248_32863)">
<path d="M634.592 121.612C634.188 120.29 632.968 116.301 632.968 116.301" stroke="white" stroke-width="0.233207"/>
</g>
</g>
</g>
</g>
<defs>
<clipPath id="clip0_4248_32863">
<rect width="50" height="37.5" fill="white" transform="translate(614 95)"/>
</clipPath>
</defs>
</svg>
