<svg width="388" height="31" viewBox="0 0 388 31" fill="none" xmlns="http://www.w3.org/2000/svg">
<path d="M10.98 24.3C13.38 24.3 15.39 22.74 17.79 22.74C18.24 22.74 18.69 22.8 19.11 22.89V11.49H10.56C13.2 12.03 15.06 12.15 15.06 15.57V20.55C14.49 20.67 13.89 20.73 13.29 20.73C7.44 20.73 4.53 16.02 4.53 10.62C4.53 7.05 6.21 1.71 10.59 1.71C12.45 1.71 14.01 2.91 14.01 4.86C14.01 5.25 13.92 6.06 13.35 6.09C13.77 7.47 14.7 8.7 16.26 8.7C17.67 8.7 18.51 7.68 18.51 6.33C18.51 2.67 14.31 0.96 11.25 0.96C4.62 0.96 0.48 6.69 0.48 12.93C0.48 19.2 4.44 24.3 10.98 24.3ZM27.638 9.27C23.558 9.45 21.158 13.05 21.158 16.89C21.158 21.03 24.158 24.3 28.358 24.3C31.328 24.3 33.008 23.01 34.388 20.52L34.148 20.34C33.518 20.97 31.658 21.18 30.818 21.18C27.968 21.18 26.318 19.29 25.718 16.65L33.218 16.32C34.028 16.29 34.298 15.99 34.298 15.18C34.298 12.51 32.738 10.32 30.158 9.57C29.408 8.97 29.138 8.19 29.138 7.26C29.138 4.65 32.048 2.88 34.388 2.88C36.308 2.88 38.978 3.63 38.978 6C38.978 8.34 36.398 9.57 34.388 9.78V10.23H35.858V20.25C35.858 22.44 36.848 24.3 39.248 24.3C40.898 24.3 42.578 23.49 43.778 22.38V22.08C43.298 22.35 42.728 22.47 42.188 22.47C41.168 22.47 40.238 22.02 40.238 20.85V10.23H43.358V9.51H40.238V8.13C40.238 3.81 38.948 2.25 34.388 2.25C31.088 2.25 27.248 3.78 27.248 7.62C27.248 8.19 27.398 8.76 27.638 9.27ZM25.568 15.9C25.508 15.45 25.478 15.03 25.478 14.58C25.478 13.35 25.928 9.99 27.668 9.99C29.198 9.99 30.308 11.76 30.308 13.17C30.308 15.75 27.398 15.66 25.568 15.9ZM52.6847 16.68C52.6847 17.76 52.6847 18.87 52.6547 19.95C52.5647 21.9 52.5047 23.4 50.4047 24H58.1447C54.7847 22.98 53.4047 20.01 53.4047 16.68V6.93L60.6347 24H61.5347L67.8047 6.93V19.92C67.8047 21.27 67.5647 23.25 66.2747 24H73.6847C72.3347 23.25 72.1847 21.3 72.1847 19.92V5.34C72.1847 3.96 72.3947 2.04 73.6847 1.26L69.1247 1.29L62.9147 18.12L55.7747 1.26H50.4047C51.6347 1.98 52.6847 3.93 52.6847 5.34V16.68ZM81.7969 9.27C77.6269 9.27 74.5369 12.72 74.5369 16.8C74.5369 20.91 77.6269 24.3 81.7969 24.3C85.9669 24.3 89.0269 20.88 89.0269 16.8C89.0269 12.72 85.9669 9.27 81.7969 9.27ZM82.7569 23.49C79.7569 23.49 78.7369 16.35 78.7369 14.22C78.7369 13.11 78.8869 10.14 80.5369 10.14C83.7469 10.14 84.7669 16.8 84.7669 19.11C84.7669 20.34 84.5569 23.49 82.7569 23.49ZM95.0346 12.81V9.51C92.6046 10.92 91.7646 11.28 88.9746 11.73C90.0246 12.99 90.6546 13.95 90.6546 15.66V19.92C90.6546 21.27 90.4146 23.25 89.1246 24H96.5346C95.2146 23.25 95.0346 21.3 95.0346 19.92V14.46C95.0346 13.59 95.9346 12.84 96.7446 12.84C97.7946 12.84 98.5746 13.65 98.5746 14.67C98.5746 14.94 98.5146 15.18 98.4546 15.42C100.435 15.42 102.055 14.13 102.055 12.09C102.055 10.53 101.035 9.27 99.4146 9.27C97.3746 9.27 95.8146 11.1 95.0346 12.81ZM115.041 16.29V15.57C115.041 11.7 112.551 9.27 108.681 9.27C104.421 9.27 101.871 12.9 101.871 16.89C101.871 21.03 104.871 24.3 109.071 24.3C112.041 24.3 113.721 23.01 115.101 20.52L114.861 20.34C114.231 20.97 112.371 21.18 111.531 21.18C108.621 21.18 107.001 19.14 106.431 16.65L115.041 16.29ZM111.021 13.17C111.021 14.64 110.031 15.36 108.681 15.57C107.871 15.69 107.091 15.81 106.281 15.9C106.221 15.45 106.191 15 106.191 14.55C106.191 13.32 106.641 9.99 108.381 9.99C109.911 9.99 111.021 11.79 111.021 13.17ZM127.799 5.34C127.799 3.96 128.009 2.04 129.329 1.26H121.889C123.239 2.04 123.419 3.93 123.419 5.34V19.92C123.419 21.3 123.209 23.25 121.889 24H129.329C128.009 23.25 127.799 21.3 127.799 19.92V5.34ZM137.492 24C136.142 23.25 135.992 21.3 135.992 19.92V13.62C136.202 12.51 136.862 11.49 138.092 11.49C139.562 11.49 139.982 12.93 139.982 14.16V19.92C139.982 21.27 139.772 23.25 138.482 24H145.892C144.572 23.25 144.362 21.3 144.362 19.92V14.04C144.362 11.55 143.042 9.27 140.342 9.27C140.012 9.27 136.532 11.31 135.992 11.85V9.51C133.562 10.92 132.722 11.28 129.932 11.73C130.982 12.99 131.612 13.95 131.612 15.66V19.92C131.612 21.27 131.372 23.25 130.082 24H137.492ZM153.908 3.06C149.948 3.06 147.758 5.7 147.758 9.51H146.048V10.23H147.698V19.92C147.698 21.27 147.458 23.25 146.168 24H153.578C152.228 23.25 152.078 21.3 152.078 19.92V10.23H155.498V9.51C153.518 9.51 150.698 8.82 150.698 6.33C150.698 5.1 151.598 3.84 152.918 3.84C153.698 3.84 154.298 4.32 154.298 5.13C154.298 5.88 153.758 6.39 153.008 6.39C153.368 7.53 154.238 8.52 155.498 8.52C156.878 8.52 157.928 7.53 157.928 6.12C157.928 3.96 155.768 3.06 153.908 3.06ZM161.865 9.27C157.695 9.27 154.605 12.72 154.605 16.8C154.605 20.91 157.695 24.3 161.865 24.3C166.035 24.3 169.095 20.88 169.095 16.8C169.095 12.72 166.035 9.27 161.865 9.27ZM162.825 23.49C159.825 23.49 158.805 16.35 158.805 14.22C158.805 13.11 158.955 10.14 160.605 10.14C163.815 10.14 164.835 16.8 164.835 19.11C164.835 20.34 164.625 23.49 162.825 23.49ZM175.103 12.81V9.51C172.673 10.92 171.833 11.28 169.043 11.73C170.093 12.99 170.723 13.95 170.723 15.66V19.92C170.723 21.27 170.483 23.25 169.193 24H176.603C175.283 23.25 175.103 21.3 175.103 19.92V14.46C175.103 13.59 176.003 12.84 176.813 12.84C177.863 12.84 178.643 13.65 178.643 14.67C178.643 14.94 178.583 15.18 178.523 15.42C180.503 15.42 182.123 14.13 182.123 12.09C182.123 10.53 181.103 9.27 179.483 9.27C177.443 9.27 175.883 11.1 175.103 12.81ZM196.505 12.36C196.025 10.62 194.765 9.27 192.695 9.27C192.365 9.27 188.885 11.31 188.345 11.85V9.51C185.915 10.92 185.075 11.28 182.285 11.73C183.335 12.99 183.965 13.95 183.965 15.66V19.92C183.965 21.27 183.725 23.25 182.435 24H189.845C188.495 23.25 188.345 21.3 188.345 19.92V13.62C188.555 12.51 189.215 11.49 190.445 11.49C191.915 11.49 192.335 12.93 192.335 14.16V19.92C192.335 21.27 192.125 23.25 190.835 24H198.245C196.925 23.25 196.715 21.3 196.715 19.92V14.16C196.775 12.9 197.435 11.49 198.875 11.49C200.345 11.49 200.765 12.93 200.765 14.16V19.92C200.765 21.27 200.555 23.25 199.265 24H206.675C205.355 23.25 205.145 21.3 205.145 19.92V14.04C205.145 11.55 203.825 9.27 201.125 9.27C200.765 9.27 196.745 11.73 196.475 12.15L196.505 12.36ZM207.499 13.56C207.499 14.91 208.429 15.93 209.809 15.93C211.099 15.93 212.119 15.3 212.779 14.19C212.089 13.89 211.639 13.23 211.639 12.45C211.639 10.95 213.139 10.23 214.489 10.23H221.419V20.25C221.419 22.44 222.409 24.3 224.809 24.3C226.459 24.3 228.139 23.49 229.339 22.38V22.08C228.859 22.35 228.289 22.47 227.749 22.47C226.729 22.47 225.799 22.02 225.799 20.85V10.23H228.529C230.839 10.23 233.839 9.12 233.839 6.36C233.839 4.95 232.849 3.84 231.409 3.84C230.119 3.84 229.099 4.47 228.439 5.58C229.009 5.82 229.369 6.36 229.369 6.99C229.369 8.85 227.299 9.51 225.799 9.51V5.04H225.499C224.929 6.75 223.879 8.4 222.199 9.21C222.079 9.27 221.539 9.51 221.419 9.51C218.629 9.54 215.839 9.51 213.049 9.51C210.649 9.51 207.499 10.71 207.499 13.56ZM210.529 24.3C212.089 24.3 213.439 23.85 214.489 22.65C214.909 23.7 216.169 24.3 217.249 24.3C218.599 24.3 219.229 23.82 220.249 23.07V22.77C220.069 22.89 219.859 22.95 219.649 22.95C218.809 22.95 218.719 21.66 218.719 21.09V15.6C218.719 12.36 216.289 10.92 213.289 10.92L213.079 11.19C214.579 11.16 214.339 13.62 214.339 14.61C212.419 16.71 206.929 17.97 206.929 21.09C206.929 23.34 208.429 24.3 210.529 24.3ZM211.339 19.74C211.339 18 213.199 16.71 214.339 15.66V21.99C213.979 22.2 213.589 22.32 213.169 22.32C211.639 22.32 211.339 21 211.339 19.74ZM233.082 8.82C234.282 8.82 235.272 7.83 235.272 6.63C235.272 5.43 234.282 4.44 233.082 4.44C231.882 4.44 230.892 5.43 230.892 6.63C230.892 7.83 231.882 8.82 233.082 8.82ZM237.042 24C235.692 23.25 235.542 21.3 235.542 19.92V9.51C233.112 10.92 232.272 11.28 229.482 11.73C230.532 12.99 231.162 13.95 231.162 15.66V19.92C231.162 21.27 230.922 23.25 229.632 24H237.042ZM244.541 9.27C240.371 9.27 237.281 12.72 237.281 16.8C237.281 20.91 240.371 24.3 244.541 24.3C248.711 24.3 251.771 20.88 251.771 16.8C251.771 12.72 248.711 9.27 244.541 9.27ZM245.501 23.49C242.501 23.49 241.481 16.35 241.481 14.22C241.481 13.11 241.631 10.14 243.281 10.14C246.491 10.14 247.511 16.8 247.511 19.11C247.511 20.34 247.301 23.49 245.501 23.49ZM259.572 24C258.222 23.25 258.072 21.3 258.072 19.92V13.62C258.282 12.51 258.942 11.49 260.172 11.49C261.642 11.49 262.062 12.93 262.062 14.16V19.92C262.062 21.27 261.852 23.25 260.562 24H267.972C266.652 23.25 266.442 21.3 266.442 19.92V14.04C266.442 11.55 265.122 9.27 262.422 9.27C262.092 9.27 258.612 11.31 258.072 11.85V9.51C255.642 10.92 254.802 11.28 252.012 11.73C253.062 12.99 253.692 13.95 253.692 15.66V19.92C253.692 21.27 253.452 23.25 252.162 24H259.572ZM273.626 24.3C276.236 24.3 280.256 23.37 280.256 20.07C280.256 15.12 272.006 15.24 272.006 12.21C272.006 10.89 272.996 9.99 274.316 9.99C275.426 9.99 276.536 10.71 276.536 11.91C276.536 12.54 276.146 13.02 275.486 13.02C275.846 14.19 276.716 15.03 277.976 15.03C279.206 15.03 279.956 14.25 279.956 13.02C279.956 10.26 276.686 9.27 274.436 9.27C271.916 9.27 268.466 10.53 268.466 13.53C268.466 18.6 276.326 18.36 276.326 21.45C276.326 22.95 274.916 23.58 273.626 23.58C272.546 23.58 271.286 22.95 271.286 21.72C271.286 21 271.796 20.46 272.516 20.46C272.276 19.26 271.376 18.03 270.026 18.03C268.616 18.03 267.866 19.14 267.866 20.46C267.866 23.28 271.376 24.3 273.626 24.3ZM296.489 1.26H286.889C288.239 2.07 288.419 3.93 288.419 5.34V19.92C288.419 21.3 288.209 23.22 286.889 24H296.489C302.819 24 306.059 18.39 306.059 12.63C306.059 6.9 302.819 1.26 296.489 1.26ZM294.329 23.28H292.799V1.98H294.329C299.729 1.98 301.679 8.22 301.679 12.63C301.679 17.07 299.729 23.28 294.329 23.28ZM315.773 15.66V19.92C315.773 21.27 315.533 23.25 314.243 24H321.653C320.303 23.25 320.153 21.3 320.153 19.92V14.46C320.153 13.59 321.053 12.84 321.863 12.84C322.913 12.84 323.693 13.65 323.693 14.67C323.693 14.94 323.633 15.18 323.573 15.42C325.553 15.42 327.173 14.13 327.173 12.09C327.173 10.53 326.153 9.27 324.533 9.27C322.493 9.27 320.933 11.1 320.153 12.81V9.51C320.543 8.88 320.723 8.13 320.723 7.38C320.723 3.87 317.513 2.25 314.393 2.25C311.783 2.25 307.943 3.45 307.943 6.63C307.943 7.83 308.933 8.82 310.133 8.82C311.333 8.82 312.323 7.83 312.323 6.63C312.323 5.43 311.333 4.44 310.133 4.44C311.033 3.36 312.593 2.94 313.973 2.94C316.463 2.94 318.983 4.5 318.983 7.2C318.983 9.9 316.433 11.34 314.093 11.73C315.143 12.99 315.773 13.95 315.773 15.66ZM306.533 11.73C307.583 12.99 308.213 13.95 308.213 15.66V19.92C308.213 21.27 307.973 23.25 306.683 24H314.093C312.743 23.25 312.593 21.3 312.593 19.92V9.51C310.163 10.92 309.323 11.28 306.533 11.73ZM340.832 16.29V15.57C340.832 11.7 338.342 9.27 334.472 9.27C330.212 9.27 327.662 12.9 327.662 16.89C327.662 21.03 330.662 24.3 334.862 24.3C337.832 24.3 339.512 23.01 340.892 20.52L340.652 20.34C340.022 20.97 338.162 21.18 337.322 21.18C334.412 21.18 332.792 19.14 332.222 16.65L340.832 16.29ZM336.812 13.17C336.812 14.64 335.822 15.36 334.472 15.57C333.662 15.69 332.882 15.81 332.072 15.9C332.012 15.45 331.982 15 331.982 14.55C331.982 13.32 332.432 9.99 334.172 9.99C335.702 9.99 336.812 11.79 336.812 13.17ZM347.911 9.27C343.831 9.45 341.431 13.05 341.431 16.89C341.431 21.03 344.431 24.3 348.631 24.3C351.511 24.3 353.641 23.01 355.021 20.52L354.781 20.34C354.151 20.97 352.291 21.18 351.451 21.18C347.611 21.18 345.901 17.64 345.901 14.25C345.901 13.08 346.261 9.99 347.941 9.99C349.291 9.99 350.611 11.31 350.611 12.66C350.611 13.8 349.591 14.19 348.601 14.19C349.111 15.87 350.101 16.98 351.931 16.98C353.551 16.98 354.481 15.96 354.481 14.37C354.481 12.03 352.561 10.17 350.431 9.57C349.681 8.97 349.411 8.19 349.411 7.26C349.411 4.65 352.321 2.88 354.661 2.88C356.581 2.88 359.251 3.63 359.251 6C359.251 8.34 356.671 9.57 354.661 9.78V10.23H356.131V20.25C356.131 22.44 357.121 24.3 359.521 24.3C361.171 24.3 362.851 23.49 364.051 22.38V22.08C363.571 22.35 363.001 22.47 362.461 22.47C361.441 22.47 360.511 22.02 360.511 20.85V10.23H363.631V9.51H360.511V8.13C360.511 3.81 359.221 2.25 354.661 2.25C351.361 2.25 347.521 3.78 347.521 7.62C347.521 8.19 347.671 8.76 347.911 9.27ZM370.249 2.73C367.819 4.14 366.979 4.5 364.189 4.95C365.239 6.21 365.869 7.17 365.869 8.88V19.92C365.869 21.3 365.659 23.25 364.339 24H371.779C370.429 23.25 370.249 21.3 370.249 19.92V2.73ZM378.151 24C378.631 24 379.471 24.15 379.471 24.78C379.471 26.22 377.101 27.03 375.961 27.03C374.641 27.03 373.561 26.37 373.561 24.93C372.271 24.93 371.611 26.64 371.611 27.72C371.611 29.7 373.171 30.57 375.001 30.57C378.421 30.57 379.651 26.61 380.701 24L383.401 17.25C384.151 15.36 385.831 10.32 387.661 9.51H380.701C382.501 10.17 383.311 11.55 383.311 13.44C383.311 15.87 382.081 18.57 381.181 20.82C380.401 18.96 378.001 13.56 378.001 11.85C378.001 10.83 378.481 9.84 379.471 9.51H371.191C373.021 10.32 374.671 15.33 375.421 17.19L378.151 24Z" fill="#1E2C31"/>
</svg>
