<svg width="553" height="531" viewBox="0 0 553 531" fill="none" xmlns="http://www.w3.org/2000/svg">
<g clip-path="url(#clip0_3404_29660)">
<mask id="mask0_3404_29660" style="mask-type:luminance" maskUnits="userSpaceOnUse" x="0" y="0" width="553" height="531">
<path d="M552.352 0H0.351562V531H552.352V0Z" fill="white"/>
</mask>
<g mask="url(#mask0_3404_29660)">
<path d="M270.653 62.3984C381.419 62.3984 471.353 152.332 471.353 263.098C471.353 373.865 381.419 463.798 270.653 463.798C159.887 463.798 69.9531 373.865 69.9531 263.098C69.9531 152.332 159.887 62.3984 270.653 62.3984Z" fill="url(#paint0_linear_3404_29660)"/>
<path d="M300.203 188.641C314.873 188.641 326.753 176.731 326.753 162.091C326.753 147.421 311.333 133.441 295.673 131.101C280.013 128.761 280.943 130.921 268.163 125.161C255.383 119.401 251.663 106.861 240.413 112.351C233.393 115.771 230.753 121.711 242.003 135.541C253.283 149.341 263.153 147.571 270.263 153.541C275.033 157.531 277.823 167.431 277.823 168.871C277.823 183.541 285.533 188.641 300.203 188.641Z" fill="url(#paint1_linear_3404_29660)"/>
<path d="M362.213 178.621C383.603 161.611 407.303 195.811 417.233 212.011C427.163 228.241 411.263 233.881 417.233 268.321C423.203 302.761 443.693 303.451 438.023 331.831C432.353 360.241 415.163 400.38 366.683 392.971C318.233 385.561 295.613 368.581 294.383 309.871C293.153 251.161 340.853 195.661 362.213 178.621Z" fill="url(#paint2_linear_3404_29660)"/>
<path d="M133.291 131.153C154.951 110.483 176.581 97.3729 186.511 113.573C196.441 129.803 180.541 135.443 186.511 169.883C192.481 204.323 212.971 205.013 207.301 233.393C201.631 261.803 184.441 301.943 135.961 294.533C87.4814 287.123 74.9414 219.893 74.9414 219.893C74.9414 219.893 111.601 151.793 133.291 131.153Z" fill="url(#paint3_linear_3404_29660)"/>
<path d="M100.999 219.9C100.999 329.25 189.649 417.9 298.999 417.9C362.749 417.9 419.479 387.78 455.689 340.98C425.269 413.13 353.869 463.8 270.649 463.8C159.799 463.8 69.9492 373.95 69.9492 263.1C69.9492 209.4 91.0392 160.62 125.419 124.59C109.849 152.85 100.999 185.34 100.999 219.9Z" fill="url(#paint4_linear_3404_29660)"/>
<path d="M267.412 63.4479C267.412 63.4479 246.592 30.6279 230.962 29.9979C215.332 29.3979 206.032 57.0879 206.032 57.0879C206.032 57.0879 188.512 97.1679 201.442 183.298C206.092 214.288 210.262 256.108 221.782 302.458C231.622 341.968 267.412 438.148 267.412 438.148C267.412 438.148 287.242 482.338 306.682 494.398C326.122 506.428 337.222 485.458 337.222 485.458" stroke="#C3C3E6" stroke-width="3.9"/>
<path d="M235.026 18.5664C240.738 18.5664 245.376 23.2042 245.376 28.9164C245.376 34.6286 240.738 39.2664 235.026 39.2664C229.314 39.2664 224.676 34.6286 224.676 28.9164C224.676 23.2042 229.314 18.5664 235.026 18.5664Z" fill="#1A902D"/>
<path d="M446.723 156.898C446.723 156.898 493.612 160.378 498.623 180.838C503.633 201.268 463.283 224.398 463.283 224.398C463.283 224.398 374.813 274.918 250.553 297.598C126.293 320.278 52.4025 300.538 52.4025 300.538C52.4025 300.538 31.3125 292.168 30.3825 281.038C29.4825 269.938 48.5025 252.778 48.5025 252.778" stroke="#C6C4E8" stroke-width="3.9" stroke-linecap="round"/>
<path d="M413.444 238.379C419.156 238.379 423.794 243.017 423.794 248.729C423.794 254.441 419.156 259.079 413.444 259.079C407.732 259.079 403.094 254.441 403.094 248.729C403.094 243.017 407.732 238.379 413.444 238.379Z" fill="#1A902D"/>
<path d="M411.08 251.192L407.12 249.688V248.56L411.08 247.04V248.032L408.112 249.08V249.16L411.08 250.192V251.192ZM412.084 252.656L414.516 246.168H415.476L413.044 252.656H412.084ZM416.651 251.192V250.192L419.627 249.16V249.08L416.651 248.032V247.04L420.611 248.56V249.688L416.651 251.192Z" fill="#FFF9F9"/>
<path d="M507.389 236.258C507.389 236.258 516.029 235.988 518.549 252.158C521.099 268.298 492.959 330.278 377.699 392.258C262.439 454.208 195.959 479.888 195.959 479.888C195.959 479.888 109.349 504.428 100.349 481.718C94.7391 467.528 104.549 445.628 133.469 412.748" stroke="#C6C4E8" stroke-width="3.9" stroke-linecap="round"/>
<path d="M274.936 435.602C280.648 435.602 285.286 440.239 285.286 445.952C285.286 451.664 280.648 456.302 274.936 456.302C269.224 456.302 264.586 451.664 264.586 445.952C264.586 440.239 269.224 435.602 274.936 435.602Z" fill="#1A902D"/>
<path d="M272.08 448.192L268.12 446.688V445.56L272.08 444.04V445.032L269.112 446.08V446.16L272.08 447.192V448.192ZM273.084 449.656L275.516 443.168H276.476L274.044 449.656H273.084ZM277.651 448.192V447.192L280.627 446.16V446.08L277.651 445.032V444.04L281.611 445.56V446.688L277.651 448.192Z" fill="#FFF9F9"/>
<path d="M233.08 30.192L229.12 28.688V27.56L233.08 26.04V27.032L230.112 28.08V28.16L233.08 29.192V30.192ZM234.084 31.656L236.516 25.168H237.476L235.044 31.656H234.084ZM238.651 30.192V29.192L241.627 28.16V28.08L238.651 27.032V26.04L242.611 27.56V28.688L238.651 30.192Z" fill="#FFF9F9"/>
</g>
</g>
<defs>
<linearGradient id="paint0_linear_3404_29660" x1="270.653" y1="62.3984" x2="270.653" y2="463.798" gradientUnits="userSpaceOnUse">
<stop stop-color="#008631"/>
<stop offset="1" stop-color="#FFE600"/>
</linearGradient>
<linearGradient id="paint1_linear_3404_29660" x1="280.553" y1="110.992" x2="280.553" y2="188.641" gradientUnits="userSpaceOnUse">
<stop stop-color="#008631"/>
<stop offset="1" stop-color="#FFE600"/>
</linearGradient>
<linearGradient id="paint2_linear_3404_29660" x1="366.682" y1="173.996" x2="366.682" y2="393.867" gradientUnits="userSpaceOnUse">
<stop stop-color="#008631"/>
<stop offset="1" stop-color="#FFE600"/>
</linearGradient>
<linearGradient id="paint3_linear_3404_29660" x1="141.612" y1="106.309" x2="141.612" y2="295.429" gradientUnits="userSpaceOnUse">
<stop stop-color="#008631"/>
<stop offset="1" stop-color="#FFE600"/>
</linearGradient>
<linearGradient id="paint4_linear_3404_29660" x1="262.819" y1="124.59" x2="262.819" y2="463.8" gradientUnits="userSpaceOnUse">
<stop stop-color="#008631"/>
<stop offset="1" stop-color="#FFE600"/>
</linearGradient>
<clipPath id="clip0_3404_29660">
<rect width="552" height="531" fill="white" transform="translate(0.351562)"/>
</clipPath>
</defs>
</svg>
