<svg width="1440" height="538" viewBox="0 0 1440 538" fill="none" xmlns="http://www.w3.org/2000/svg">
<rect x="-1" width="1441" height="539" fill="url(#paint0_linear_1821_27034)"/>
<path d="M250.051 540.116C523.398 540.116 1109.23 464.714 1451.12 200.898" stroke="#22C55E" stroke-width="4.19849"/>
<path d="M1451.12 200.898C1109.23 464.714 453.668 560.01 216.753 537.631L313.017 578.06H1451.12V200.898Z" fill="url(#paint1_linear_1821_27034)"/>
<g filter="url(#filter0_d_1821_27034)">
<path d="M1257.7 298.469C1258.47 299.802 1260.39 299.802 1261.16 298.469L1273.86 276.481C1274.63 275.148 1273.67 273.481 1272.13 273.481H1246.74C1245.2 273.481 1244.24 275.148 1245.01 276.481L1257.7 298.469Z" fill="url(#paint2_linear_1821_27034)" fill-opacity="0.19" shape-rendering="crispEdges"/>
</g>
<g filter="url(#filter1_b_1821_27034)">
<rect x="1169" y="198" width="178" height="67" rx="9.32921" fill="url(#paint3_linear_1821_27034)" fill-opacity="0.19"/>
</g>
<path d="M1191.36 219.126C1191.68 219.316 1191.88 219.641 1191.88 220.01C1191.88 220.48 1191.54 220.928 1191.05 220.928C1190.76 220.928 1190.53 220.749 1190.53 220.447C1190.53 220.167 1190.74 219.977 1191.02 219.977C1190.88 219.551 1190.56 219.182 1190.09 219.182C1189.57 219.182 1189.18 219.551 1189.18 220.077C1189.18 220.884 1189.99 221.219 1190.68 221.219C1192.15 221.219 1193 220.234 1193 218.812V214.144C1193 213.64 1193.09 212.901 1193.57 212.622H1190.8C1191.29 212.901 1191.36 213.629 1191.36 214.144V219.126ZM1194.81 218.018C1195.43 218.018 1195.84 217.514 1196.01 216.965C1195.75 216.965 1195.57 216.831 1195.57 216.562C1195.57 216.271 1195.79 215.879 1196.12 215.879C1196.79 215.879 1196.64 217.279 1196.64 217.715C1195.68 218.085 1193.88 218.745 1193.88 219.999C1193.88 221.835 1195.9 222.227 1197.36 222.227C1198.9 222.227 1201.17 221.723 1201.17 219.775V217.995C1201.17 217.749 1201.15 217.48 1201.17 217.234C1201.18 216.842 1201.55 216.439 1201.95 216.439C1202.5 216.439 1202.65 216.976 1202.65 217.435V219.585C1202.65 220.089 1202.58 220.828 1202.1 221.107H1204.86C1204.37 220.828 1204.29 220.1 1204.29 219.585V217.391C1204.29 216.461 1203.8 215.611 1202.79 215.611C1202.65 215.611 1201.3 216.417 1201.17 216.562V215.7C1200.26 216.215 1199.95 216.361 1198.9 216.529C1199.3 216.999 1199.53 217.357 1199.53 217.995V219.697C1199.53 220.939 1198.85 221.925 1197.54 221.925C1196.36 221.925 1195.52 221.152 1195.52 219.954C1195.52 219.092 1195.89 218.421 1196.64 217.995V220.335C1196.64 220.884 1197.24 221.219 1197.73 221.219C1198.22 221.219 1198.47 221.04 1198.85 220.76V220.648C1198.78 220.693 1198.7 220.716 1198.62 220.716C1198.31 220.716 1198.28 220.234 1198.28 220.022V217.447C1198.28 216.249 1197.39 215.611 1196.25 215.611C1195.31 215.611 1194.08 216.047 1194.08 217.167C1194.08 217.603 1194.34 218.018 1194.81 218.018ZM1212.51 221.107L1212.99 218.633C1212.31 220.369 1209.2 220.816 1207.53 220.839C1207.98 219.014 1212.82 218.107 1212.82 215.543C1212.82 214.043 1211.59 213.394 1210.24 213.394C1208.84 213.394 1207.34 214.111 1207.34 215.7C1207.34 216.316 1207.74 216.786 1208.37 216.786C1209.03 216.786 1209.49 216.282 1209.58 215.655C1209.11 215.655 1208.89 215.118 1208.89 214.715C1208.89 214.077 1209.33 213.663 1209.97 213.663C1210.81 213.663 1211.29 214.334 1211.29 215.118C1211.29 217.559 1207.23 218.331 1207.23 221.107H1212.51ZM1216.74 213.394C1214.59 213.394 1213.56 215.387 1213.56 217.301C1213.56 219.227 1214.59 221.219 1216.74 221.219C1218.89 221.219 1219.93 219.227 1219.93 217.301C1219.93 215.387 1218.89 213.394 1216.74 213.394ZM1216.74 220.951C1215.41 220.951 1215.2 218.23 1215.2 217.323C1215.2 216.417 1215.42 213.663 1216.74 213.663C1218.07 213.663 1218.3 216.383 1218.3 217.29C1218.3 218.197 1218.06 220.951 1216.74 220.951ZM1225.72 221.107L1226.2 218.633C1225.52 220.369 1222.41 220.816 1220.74 220.839C1221.19 219.014 1226.02 218.107 1226.02 215.543C1226.02 214.043 1224.8 213.394 1223.45 213.394C1222.05 213.394 1220.55 214.111 1220.55 215.7C1220.55 216.316 1220.95 216.786 1221.58 216.786C1222.24 216.786 1222.7 216.282 1222.79 215.655C1222.32 215.655 1222.09 215.118 1222.09 214.715C1222.09 214.077 1222.54 213.663 1223.18 213.663C1224.02 213.663 1224.5 214.334 1224.5 215.118C1224.5 217.559 1220.44 218.331 1220.44 221.107H1225.72ZM1226.65 219.193V219.462H1230.02C1230.02 220.01 1229.98 220.794 1229.45 221.107H1232.22C1231.72 220.816 1231.65 220.111 1231.65 219.585V219.462H1232.26V219.193H1231.65V213.506H1231.38L1226.65 219.193ZM1227.15 219.193L1230.02 215.543V219.193H1227.15Z" fill="white"/>
<path d="M1200.36 233.439V239.577L1192.86 228.886H1189.76C1190.6 229.39 1190.7 230.547 1190.7 231.424V238.477C1190.7 239.186 1190.7 239.895 1190.66 240.585C1190.6 241.779 1190.55 242.675 1189.28 243.029H1194.09C1192 242.395 1191.15 240.548 1191.15 238.477V231.088L1199.47 243.029H1200.81V233.439C1200.81 232.73 1200.81 232.021 1200.85 231.33C1200.9 230.136 1200.96 229.241 1202.23 228.886H1197.41C1199.5 229.521 1200.36 231.368 1200.36 233.439ZM1208.97 243.216C1210.46 243.216 1211.71 242.246 1213.2 242.246C1213.48 242.246 1213.76 242.283 1214.02 242.339V235.249H1208.71C1210.35 235.585 1211.5 235.659 1211.5 237.786V240.884C1211.15 240.958 1210.78 240.996 1210.4 240.996C1206.76 240.996 1204.95 238.066 1204.95 234.708C1204.95 232.487 1206 229.166 1208.72 229.166C1209.88 229.166 1210.85 229.912 1210.85 231.125C1210.85 231.368 1210.79 231.872 1210.44 231.89C1210.7 232.749 1211.28 233.513 1212.25 233.513C1213.13 233.513 1213.65 232.879 1213.65 232.039C1213.65 229.763 1211.04 228.7 1209.13 228.7C1205.01 228.7 1202.44 232.263 1202.44 236.144C1202.44 240.044 1204.9 243.216 1208.97 243.216ZM1225.95 233.439V239.577L1218.44 228.886H1215.35C1216.19 229.39 1216.28 230.547 1216.28 231.424V238.477C1216.28 239.186 1216.28 239.895 1216.24 240.585C1216.19 241.779 1216.13 242.675 1214.86 243.029H1219.68C1217.59 242.395 1216.73 240.548 1216.73 238.477V231.088L1225.05 243.029H1226.39V233.439C1226.39 232.73 1226.39 232.021 1226.43 231.33C1226.49 230.136 1226.54 229.241 1227.81 228.886H1223C1225.09 229.521 1225.95 231.368 1225.95 233.439ZM1235.16 235.808C1235.4 234.073 1235.98 232.151 1237.05 231.181C1237.36 230.883 1237.81 230.621 1238.28 230.621C1239.08 230.621 1239.58 231.125 1239.58 231.928C1239.58 232.319 1239.4 233.066 1238.89 233.103C1239 233.868 1239.53 234.54 1240.35 234.54C1241.28 234.54 1241.84 233.737 1241.84 232.86C1241.84 230.752 1239.6 230.174 1237.89 230.174C1234.23 230.174 1232.31 234.334 1232.31 237.506C1232.31 240.678 1234 243.216 1237.4 243.216C1239.88 243.216 1242.2 241.723 1242.2 239.055C1242.2 236.368 1239.86 234.969 1237.4 234.969C1236.99 234.969 1235.78 235.491 1235.16 235.808ZM1235.05 236.909C1235.52 236.126 1236.54 235.417 1237.4 235.417C1239.12 235.417 1239.56 237.749 1239.56 239.074C1239.56 240.361 1239.1 242.768 1237.4 242.768C1235.33 242.768 1235.01 239.335 1235.01 237.861C1235.01 237.581 1235.03 237.245 1235.05 236.909ZM1245.67 240.529C1245.56 239.801 1245.09 239.055 1244.27 239.055C1243.37 239.055 1242.94 239.895 1242.94 240.678C1242.94 242.563 1245.01 243.253 1246.56 243.253C1250.74 243.253 1252.83 239.689 1252.83 235.864C1252.83 232.693 1251.15 230.155 1247.76 230.155C1245.28 230.155 1243.15 231.722 1243.15 234.334C1243.15 236.947 1245.29 238.402 1247.76 238.402C1248.19 238.402 1249.42 237.88 1250.01 237.562C1249.68 239.895 1248.73 242.805 1246.56 242.805C1245.76 242.805 1245.16 242.227 1245.16 241.425C1245.16 241.07 1245.29 240.66 1245.67 240.529ZM1250.13 236.443C1249.66 237.264 1248.65 237.954 1247.76 237.954C1246.1 237.954 1245.67 235.566 1245.67 234.297C1245.67 233.066 1246.12 230.603 1247.76 230.603C1249.83 230.603 1250.16 234.148 1250.16 235.603C1250.16 235.846 1250.15 236.126 1250.13 236.443ZM1255.07 240.305C1254.33 240.305 1253.69 240.921 1253.69 241.667C1253.69 242.376 1254.23 242.955 1254.92 243.029C1254.96 243.104 1254.96 243.179 1254.96 243.253C1254.96 243.701 1254.55 244.317 1254.2 244.559H1254.38C1255.43 244.13 1256.43 242.824 1256.43 241.667C1256.43 240.921 1255.82 240.305 1255.07 240.305ZM1262.59 230.174C1259 230.174 1257.29 233.495 1257.29 236.685C1257.29 239.895 1259 243.216 1262.59 243.216C1266.17 243.216 1267.9 239.895 1267.9 236.685C1267.9 233.495 1266.17 230.174 1262.59 230.174ZM1262.59 242.768C1260.37 242.768 1260.01 238.234 1260.01 236.723C1260.01 235.211 1260.39 230.621 1262.59 230.621C1264.81 230.621 1265.18 235.155 1265.18 236.667C1265.18 238.178 1264.79 242.768 1262.59 242.768ZM1274.34 230.174C1270.76 230.174 1269.04 233.495 1269.04 236.685C1269.04 239.895 1270.76 243.216 1274.34 243.216C1277.92 243.216 1279.66 239.895 1279.66 236.685C1279.66 233.495 1277.92 230.174 1274.34 230.174ZM1274.34 242.768C1272.12 242.768 1271.76 238.234 1271.76 236.723C1271.76 235.211 1272.14 230.621 1274.34 230.621C1276.56 230.621 1276.93 235.155 1276.93 236.667C1276.93 238.178 1276.54 242.768 1274.34 242.768ZM1286.09 230.174C1282.51 230.174 1280.79 233.495 1280.79 236.685C1280.79 239.895 1282.51 243.216 1286.09 243.216C1289.67 243.216 1291.41 239.895 1291.41 236.685C1291.41 233.495 1289.67 230.174 1286.09 230.174ZM1286.09 242.768C1283.87 242.768 1283.52 238.234 1283.52 236.723C1283.52 235.211 1283.89 230.621 1286.09 230.621C1288.31 230.621 1288.69 235.155 1288.69 236.667C1288.69 238.178 1288.29 242.768 1286.09 242.768ZM1293.63 240.305C1292.88 240.305 1292.25 240.921 1292.25 241.667C1292.25 242.376 1292.79 242.955 1293.48 243.029C1293.52 243.104 1293.52 243.179 1293.52 243.253C1293.52 243.701 1293.11 244.317 1292.75 244.559H1292.94C1293.98 244.13 1294.99 242.824 1294.99 241.667C1294.99 240.921 1294.37 240.305 1293.63 240.305ZM1301.14 230.174C1297.56 230.174 1295.84 233.495 1295.84 236.685C1295.84 239.895 1297.56 243.216 1301.14 243.216C1304.73 243.216 1306.46 239.895 1306.46 236.685C1306.46 233.495 1304.73 230.174 1301.14 230.174ZM1301.14 242.768C1298.92 242.768 1298.57 238.234 1298.57 236.723C1298.57 235.211 1298.94 230.621 1301.14 230.621C1303.36 230.621 1303.74 235.155 1303.74 236.667C1303.74 238.178 1303.34 242.768 1301.14 242.768ZM1312.9 230.174C1309.31 230.174 1307.6 233.495 1307.6 236.685C1307.6 239.895 1309.31 243.216 1312.9 243.216C1316.48 243.216 1318.21 239.895 1318.21 236.685C1318.21 233.495 1316.48 230.174 1312.9 230.174ZM1312.9 242.768C1310.68 242.768 1310.32 238.234 1310.32 236.723C1310.32 235.211 1310.69 230.621 1312.9 230.621C1315.12 230.621 1315.49 235.155 1315.49 236.667C1315.49 238.178 1315.1 242.768 1312.9 242.768ZM1324.65 230.174C1321.07 230.174 1319.35 233.495 1319.35 236.685C1319.35 239.895 1321.07 243.216 1324.65 243.216C1328.23 243.216 1329.97 239.895 1329.97 236.685C1329.97 233.495 1328.23 230.174 1324.65 230.174ZM1324.65 242.768C1322.43 242.768 1322.07 238.234 1322.07 236.723C1322.07 235.211 1322.45 230.621 1324.65 230.621C1326.87 230.621 1327.24 235.155 1327.24 236.667C1327.24 238.178 1326.85 242.768 1324.65 242.768Z" fill="white"/>
<g filter="url(#filter2_d_1821_27034)">
<circle cx="1261.38" cy="322.471" r="15.625" fill="#22C55E"/>
<circle cx="1261.38" cy="322.471" r="12.0747" stroke="white" stroke-width="7.10063"/>
</g>
<defs>
<filter id="filter0_d_1821_27034" x="1222.34" y="266.017" width="74.1752" height="70.7685" filterUnits="userSpaceOnUse" color-interpolation-filters="sRGB">
<feFlood flood-opacity="0" result="BackgroundImageFix"/>
<feColorMatrix in="SourceAlpha" type="matrix" values="0 0 0 0 0 0 0 0 0 0 0 0 0 0 0 0 0 0 127 0" result="hardAlpha"/>
<feOffset dy="14.9267"/>
<feGaussianBlur stdDeviation="11.1951"/>
<feComposite in2="hardAlpha" operator="out"/>
<feColorMatrix type="matrix" values="0 0 0 0 0.666875 0 0 0 0 0.663889 0 0 0 0 0.669444 0 0 0 0.15 0"/>
<feBlend mode="normal" in2="BackgroundImageFix" result="effect1_dropShadow_1821_27034"/>
<feBlend mode="normal" in="SourceGraphic" in2="effect1_dropShadow_1821_27034" result="shape"/>
</filter>
<filter id="filter1_b_1821_27034" x="769" y="-202" width="978" height="867" filterUnits="userSpaceOnUse" color-interpolation-filters="sRGB">
<feFlood flood-opacity="0" result="BackgroundImageFix"/>
<feGaussianBlur in="BackgroundImageFix" stdDeviation="200"/>
<feComposite in2="SourceAlpha" operator="in" result="effect1_backgroundBlur_1821_27034"/>
<feBlend mode="normal" in="SourceGraphic" in2="effect1_backgroundBlur_1821_27034" result="shape"/>
</filter>
<filter id="filter2_d_1821_27034" x="1231.55" y="306.846" width="59.6525" height="59.6525" filterUnits="userSpaceOnUse" color-interpolation-filters="sRGB">
<feFlood flood-opacity="0" result="BackgroundImageFix"/>
<feColorMatrix in="SourceAlpha" type="matrix" values="0 0 0 0 0 0 0 0 0 0 0 0 0 0 0 0 0 0 127 0" result="hardAlpha"/>
<feOffset dy="14.2013"/>
<feGaussianBlur stdDeviation="7.10063"/>
<feComposite in2="hardAlpha" operator="out"/>
<feColorMatrix type="matrix" values="0 0 0 0 0.0509804 0 0 0 0 0.0392157 0 0 0 0 0.172549 0 0 0 0.08 0"/>
<feBlend mode="normal" in2="BackgroundImageFix" result="effect1_dropShadow_1821_27034"/>
<feBlend mode="normal" in="SourceGraphic" in2="effect1_dropShadow_1821_27034" result="shape"/>
</filter>
<linearGradient id="paint0_linear_1821_27034" x1="105.5" y1="-6.6653e-05" x2="1384" y2="561" gradientUnits="userSpaceOnUse">
<stop stop-color="#086B87"/>
<stop offset="0.56498" stop-color="#10363B"/>
</linearGradient>
<linearGradient id="paint1_linear_1821_27034" x1="882.07" y1="200.898" x2="882.07" y2="578.06" gradientUnits="userSpaceOnUse">
<stop stop-color="#22C55E"/>
<stop offset="1" stop-color="#22C55E" stop-opacity="0"/>
</linearGradient>
<linearGradient id="paint2_linear_1821_27034" x1="1259.43" y1="301.469" x2="1259.43" y2="264.152" gradientUnits="userSpaceOnUse">
<stop stop-color="white"/>
<stop offset="1" stop-color="white" stop-opacity="0"/>
</linearGradient>
<linearGradient id="paint3_linear_1821_27034" x1="1258" y1="198" x2="1258" y2="265" gradientUnits="userSpaceOnUse">
<stop stop-color="white"/>
<stop offset="1" stop-color="white"/>
</linearGradient>
</defs>
</svg>
