<svg width="360" height="371" viewBox="0 0 360 371" fill="none" xmlns="http://www.w3.org/2000/svg">
<g clip-path="url(#clip0_4362_31824)">
<g filter="url(#filter0_d_4362_31824)">
<path d="M199.273 344.807C191.347 358.398 171.311 358.398 163.385 344.807L54.0423 157.32C46.1886 143.854 56.1332 127.113 71.9861 127.113H290.672C306.525 127.113 316.47 143.854 308.615 157.32L199.273 344.807Z" fill="white"/>
<g filter="url(#filter1_f_4362_31824)">
<path d="M199.891 141.27H67.6875V165.51H199.891V141.27Z" fill="#0D3D0D"/>
</g>
<path d="M117.429 24.0801C123.79 13.3067 139.692 13.3066 146.052 24.08L212.242 136.191C218.603 146.965 210.653 160.431 197.931 160.431H65.55C52.8289 160.431 44.878 146.965 51.2387 136.191L117.429 24.0801Z" fill="white"/>
</g>
</g>
<defs>
<filter id="filter0_d_4362_31824" x="29.5359" y="6.26794" width="301.288" height="377.928" filterUnits="userSpaceOnUse" color-interpolation-filters="sRGB">
<feFlood flood-opacity="0" result="BackgroundImageFix"/>
<feColorMatrix in="SourceAlpha" type="matrix" values="0 0 0 0 0 0 0 0 0 0 0 0 0 0 0 0 0 0 127 0" result="hardAlpha"/>
<feOffset dy="9.73206"/>
<feGaussianBlur stdDeviation="9.73206"/>
<feComposite in2="hardAlpha" operator="out"/>
<feColorMatrix type="matrix" values="0 0 0 0 0 0 0 0 0 0 0 0 0 0 0 0 0 0 0.25 0"/>
<feBlend mode="normal" in2="BackgroundImageFix" result="effect1_dropShadow_4362_31824"/>
<feBlend mode="normal" in="SourceGraphic" in2="effect1_dropShadow_4362_31824" result="shape"/>
</filter>
<filter id="filter1_f_4362_31824" x="-96.2867" y="-22.7046" width="460.151" height="352.187" filterUnits="userSpaceOnUse" color-interpolation-filters="sRGB">
<feFlood flood-opacity="0" result="BackgroundImageFix"/>
<feBlend mode="normal" in="SourceGraphic" in2="BackgroundImageFix" result="shape"/>
<feGaussianBlur stdDeviation="81.9871" result="effect1_foregroundBlur_4362_31824"/>
</filter>
<clipPath id="clip0_4362_31824">
<rect width="360" height="371" fill="white"/>
</clipPath>
</defs>
</svg>
