<svg width="1440" height="746" viewBox="0 0 1440 746" fill="none" xmlns="http://www.w3.org/2000/svg">
<g clip-path="url(#clip0_3064_28931)">
<rect y="14" width="1440" height="732" fill="white"/>
<g opacity="0.4">
<ellipse cx="913" cy="104.286" rx="2" ry="2.28568" fill="#EF4444"/>
<ellipse cx="926" cy="104.286" rx="2" ry="2.28568" fill="#EF4444"/>
<ellipse cx="939" cy="104.286" rx="2" ry="2.28568" fill="#EF4444"/>
<ellipse cx="952" cy="104.286" rx="2" ry="2.28568" fill="#EF4444"/>
</g>
<g opacity="0.4">
<ellipse cx="913" cy="117.997" rx="2" ry="2.28568" fill="#EF4444"/>
<ellipse cx="926" cy="117.997" rx="2" ry="2.28568" fill="#EF4444"/>
<ellipse cx="939" cy="117.997" rx="2" ry="2.28568" fill="#EF4444"/>
<ellipse cx="952" cy="117.997" rx="2" ry="2.28568" fill="#EF4444"/>
</g>
<g opacity="0.4">
<ellipse cx="913" cy="131.731" rx="2" ry="2.28568" fill="#EF4444"/>
<ellipse cx="926" cy="131.731" rx="2" ry="2.28568" fill="#EF4444"/>
<ellipse cx="939" cy="131.731" rx="2" ry="2.28568" fill="#EF4444"/>
<ellipse cx="952" cy="131.731" rx="2" ry="2.28568" fill="#EF4444"/>
</g>
<g opacity="0.4">
<ellipse cx="913" cy="145.442" rx="2" ry="2.28568" fill="#EF4444"/>
<ellipse cx="926" cy="145.442" rx="2" ry="2.28568" fill="#EF4444"/>
<ellipse cx="939" cy="145.442" rx="2" ry="2.28568" fill="#EF4444"/>
<ellipse cx="952" cy="145.442" rx="2" ry="2.28568" fill="#EF4444"/>
</g>
<path opacity="0.2" d="M697 40L699.694 48.2918H708.413L701.359 53.4164L704.053 61.7082L697 56.5836L689.947 61.7082L692.641 53.4164L685.587 48.2918H694.306L697 40Z" fill="url(#paint0_linear_3064_28931)"/>
<path opacity="0.2" d="M574 619L576.694 627.292H585.413L578.359 632.416L581.053 640.708L574 635.584L566.947 640.708L569.641 632.416L562.587 627.292H571.306L574 619Z" fill="url(#paint1_linear_3064_28931)"/>
<path opacity="0.2" d="M301 60L303.694 68.2918H312.413L305.359 73.4164L308.053 81.7082L301 76.5836L293.947 81.7082L296.641 73.4164L289.587 68.2918H298.306L301 60Z" fill="url(#paint2_linear_3064_28931)"/>
<path opacity="0.1" d="M475.616 447.844C474.721 448.491 474.52 449.742 475.167 450.637C475.815 451.532 477.065 451.733 477.96 451.086L475.616 447.844ZM507.267 479.527L508.578 478.017L508.559 478L508.539 477.984L507.267 479.527ZM531.268 443.986C532.175 443.355 532.398 442.109 531.767 441.202L521.487 426.427C520.856 425.52 519.61 425.296 518.703 425.927C517.796 426.558 517.573 427.805 518.204 428.711L527.342 441.845L514.208 450.983C513.301 451.614 513.078 452.86 513.709 453.767C514.34 454.674 515.586 454.897 516.493 454.267L531.268 443.986ZM477.96 451.086C479.153 450.223 481.709 449.679 485.654 450.075C489.48 450.46 494.228 451.692 499.404 453.873C509.753 458.233 521.602 466.289 531.001 478.484L534.169 476.042C524.31 463.25 511.882 454.789 500.957 450.187C495.497 447.887 490.359 446.528 486.054 446.095C481.866 445.674 478.044 446.088 475.616 447.844L477.96 451.086ZM531.001 478.484C535.781 484.686 538.075 489.135 538.647 491.908C538.931 493.285 538.724 493.92 538.571 494.162C538.465 494.329 538.189 494.62 537.264 494.692C536.306 494.767 534.898 494.572 533.018 493.953C531.163 493.343 528.96 492.358 526.455 490.973C521.446 488.203 515.351 483.898 508.578 478.017L505.955 481.037C512.879 487.05 519.204 491.534 524.519 494.473C527.177 495.943 529.612 497.044 531.768 497.753C533.9 498.454 535.878 498.813 537.576 498.68C539.308 498.544 540.959 497.865 541.949 496.304C542.892 494.817 542.949 492.964 542.564 491.099C541.798 487.388 539.018 482.334 534.169 476.042L531.001 478.484ZM508.539 477.984C505.252 475.273 501.3 470.996 498.166 466.285C494.997 461.521 492.859 456.603 492.798 452.565C492.768 450.599 493.23 448.908 494.244 447.504C495.262 446.094 496.959 444.802 499.696 443.859C505.258 441.943 514.704 441.61 529.773 444.313L530.479 440.376C515.24 437.642 504.953 437.817 498.393 440.077C495.069 441.222 492.608 442.936 491.001 445.163C489.389 447.396 488.758 449.974 488.798 452.625C488.877 457.822 491.528 463.528 494.836 468.5C498.178 473.525 502.391 478.098 505.994 481.07L508.539 477.984Z" fill="url(#paint3_linear_3064_28931)"/>
<g opacity="0.6">
<g opacity="0.4">
<circle cx="657" cy="229" r="2" fill="#EF4444"/>
<circle cx="670" cy="229" r="2" fill="#EF4444"/>
<circle cx="683" cy="229" r="2" fill="#EF4444"/>
<circle cx="696" cy="229" r="2" fill="#EF4444"/>
</g>
<g opacity="0.4">
<circle cx="657" cy="241" r="2" fill="#EF4444"/>
<circle cx="670" cy="241" r="2" fill="#EF4444"/>
<circle cx="683" cy="241" r="2" fill="#EF4444"/>
<circle cx="696" cy="241" r="2" fill="#EF4444"/>
</g>
<g opacity="0.4">
<circle cx="657" cy="253" r="2" fill="#EF4444"/>
<circle cx="670" cy="253" r="2" fill="#EF4444"/>
<circle cx="683" cy="253" r="2" fill="#EF4444"/>
<circle cx="696" cy="253" r="2" fill="#EF4444"/>
</g>
<g opacity="0.4">
<circle cx="657" cy="265" r="2" fill="#EF4444"/>
<circle cx="670" cy="265" r="2" fill="#EF4444"/>
<circle cx="683" cy="265" r="2" fill="#EF4444"/>
<circle cx="696" cy="265" r="2" fill="#EF4444"/>
</g>
</g>
<g opacity="0.6">
<g opacity="0.4">
<circle cx="720" cy="471" r="2" fill="#EF4444"/>
<circle cx="733" cy="471" r="2" fill="#EF4444"/>
<circle cx="746" cy="471" r="2" fill="#EF4444"/>
<circle cx="759" cy="471" r="2" fill="#EF4444"/>
</g>
<g opacity="0.4">
<circle cx="720" cy="483" r="2" fill="#EF4444"/>
<circle cx="733" cy="483" r="2" fill="#EF4444"/>
<circle cx="746" cy="483" r="2" fill="#EF4444"/>
<circle cx="759" cy="483" r="2" fill="#EF4444"/>
</g>
<g opacity="0.4">
<circle cx="720" cy="495" r="2" fill="#EF4444"/>
<circle cx="733" cy="495" r="2" fill="#EF4444"/>
<circle cx="746" cy="495" r="2" fill="#EF4444"/>
<circle cx="759" cy="495" r="2" fill="#EF4444"/>
</g>
<g opacity="0.4">
<circle cx="720" cy="507" r="2" fill="#EF4444"/>
<circle cx="733" cy="507" r="2" fill="#EF4444"/>
<circle cx="746" cy="507" r="2" fill="#EF4444"/>
<circle cx="759" cy="507" r="2" fill="#EF4444"/>
</g>
</g>
<circle opacity="0.3" cx="206" cy="576" r="8" fill="url(#paint4_linear_3064_28931)"/>
<circle opacity="0.3" cx="1029" cy="631" r="8" fill="url(#paint5_linear_3064_28931)"/>
<g opacity="0.1" filter="url(#filter0_f_3064_28931)">
<circle cx="1303.5" cy="1016.5" r="393.5" fill="#2563EB"/>
</g>
<g opacity="0.08" filter="url(#filter1_f_3064_28931)">
<ellipse cx="264.5" cy="775" rx="272.5" ry="334" fill="#EF4444"/>
</g>
</g>
<defs>
<filter id="filter0_f_3064_28931" x="710" y="423" width="1187" height="1187" filterUnits="userSpaceOnUse" color-interpolation-filters="sRGB">
<feFlood flood-opacity="0" result="BackgroundImageFix"/>
<feBlend mode="normal" in="SourceGraphic" in2="BackgroundImageFix" result="shape"/>
<feGaussianBlur stdDeviation="100" result="effect1_foregroundBlur_3064_28931"/>
</filter>
<filter id="filter1_f_3064_28931" x="-208" y="241" width="945" height="1068" filterUnits="userSpaceOnUse" color-interpolation-filters="sRGB">
<feFlood flood-opacity="0" result="BackgroundImageFix"/>
<feBlend mode="normal" in="SourceGraphic" in2="BackgroundImageFix" result="shape"/>
<feGaussianBlur stdDeviation="100" result="effect1_foregroundBlur_3064_28931"/>
</filter>
<linearGradient id="paint0_linear_3064_28931" x1="692.2" y1="55.2571" x2="705.987" y2="61.1321" gradientUnits="userSpaceOnUse">
<stop stop-color="#8807F7"/>
<stop offset="1" stop-color="#F9721A"/>
</linearGradient>
<linearGradient id="paint1_linear_3064_28931" x1="569.2" y1="634.257" x2="582.987" y2="640.132" gradientUnits="userSpaceOnUse">
<stop stop-color="#8807F7"/>
<stop offset="1" stop-color="#F9721A"/>
</linearGradient>
<linearGradient id="paint2_linear_3064_28931" x1="296.2" y1="75.2571" x2="309.987" y2="81.1321" gradientUnits="userSpaceOnUse">
<stop stop-color="#8807F7"/>
<stop offset="1" stop-color="#F9721A"/>
</linearGradient>
<linearGradient id="paint3_linear_3064_28931" x1="502.949" y1="455.011" x2="511.222" y2="496.09" gradientUnits="userSpaceOnUse">
<stop stop-color="#8807F7"/>
<stop offset="1" stop-color="#F9721A"/>
</linearGradient>
<linearGradient id="paint4_linear_3064_28931" x1="202.8" y1="578.171" x2="211.991" y2="582.088" gradientUnits="userSpaceOnUse">
<stop stop-color="#8807F7"/>
<stop offset="1" stop-color="#F9721A"/>
</linearGradient>
<linearGradient id="paint5_linear_3064_28931" x1="1025.8" y1="633.171" x2="1034.99" y2="637.088" gradientUnits="userSpaceOnUse">
<stop stop-color="#8807F7"/>
<stop offset="1" stop-color="#F9721A"/>
</linearGradient>
<clipPath id="clip0_3064_28931">
<rect width="1440" height="746" fill="white"/>
</clipPath>
</defs>
</svg>
