<svg width="767" height="32" viewBox="0 0 767 32" fill="none" xmlns="http://www.w3.org/2000/svg">
<path d="M6.51 12.42C7.89 12.15 9.27 11.91 10.68 11.91C12.09 11.91 13.47 12.15 14.85 12.42V19.92C14.85 21.3 14.64 23.25 13.32 24H20.76C19.44 23.25 19.23 21.3 19.23 19.92V5.34C19.23 3.96 19.44 2.04 20.76 1.26H13.32C14.67 2.04 14.85 3.93 14.85 5.34V11.7C13.47 11.43 12.09 11.19 10.68 11.19C9.27 11.19 7.89 11.43 6.51 11.7V5.34C6.51 3.96 6.72 2.04 8.04 1.26H0.6C1.95 2.04 2.13 3.93 2.13 5.34V19.92C2.13 21.3 1.92 23.25 0.6 24H8.04C6.72 23.25 6.51 21.3 6.51 19.92V12.42ZM28.8574 9.27C24.6874 9.27 21.5974 12.72 21.5974 16.8C21.5974 20.91 24.6874 24.3 28.8574 24.3C33.0274 24.3 36.0874 20.88 36.0874 16.8C36.0874 12.72 33.0274 9.27 28.8574 9.27ZM29.8174 23.49C26.8174 23.49 25.7974 16.35 25.7974 14.22C25.7974 13.11 25.9474 10.14 27.5974 10.14C30.8074 10.14 31.8274 16.8 31.8274 19.11C31.8274 20.34 31.6174 23.49 29.8174 23.49ZM53.531 9.51C55.331 10.17 56.141 11.55 56.141 13.44C56.141 15.87 54.911 18.57 54.011 20.82C53.231 18.96 50.831 13.56 50.831 11.85C50.831 10.83 51.311 9.84 52.301 9.51H44.021C44.981 9.93 45.911 11.52 46.661 13.2C46.661 13.29 46.661 13.35 46.661 13.44C46.661 15.87 45.431 18.57 44.531 20.82C43.751 18.96 41.351 13.56 41.351 11.85C41.351 10.83 41.831 9.84 42.821 9.51H34.541C36.371 10.32 38.021 15.33 38.771 17.19L41.501 24H44.051L46.751 17.25C46.931 16.77 47.201 16.05 47.501 15.27C47.801 16.02 48.071 16.71 48.251 17.19L50.981 24H53.531L56.231 17.25C56.981 15.36 58.661 10.32 60.491 9.51H53.531ZM80.6067 12.36C80.1267 10.62 78.8667 9.27 76.7967 9.27C76.4667 9.27 72.9867 11.31 72.4467 11.85V9.51C70.0167 10.92 69.1767 11.28 66.3867 11.73C67.4367 12.99 68.0667 13.95 68.0667 15.66V19.92C68.0667 21.27 67.8267 23.25 66.5367 24H73.9467C72.5967 23.25 72.4467 21.3 72.4467 19.92V13.62C72.6567 12.51 73.3167 11.49 74.5467 11.49C76.0167 11.49 76.4367 12.93 76.4367 14.16V19.92C76.4367 21.27 76.2267 23.25 74.9367 24H82.3467C81.0267 23.25 80.8167 21.3 80.8167 19.92V14.16C80.8767 12.9 81.5367 11.49 82.9767 11.49C84.4467 11.49 84.8667 12.93 84.8667 14.16V19.92C84.8667 21.27 84.6567 23.25 83.3667 24H90.7767C89.4567 23.25 89.2467 21.3 89.2467 19.92V14.04C89.2467 11.55 87.9267 9.27 85.2267 9.27C84.8667 9.27 80.8467 11.73 80.5767 12.15L80.6067 12.36ZM98.291 9.27C94.121 9.27 91.031 12.72 91.031 16.8C91.031 20.91 94.121 24.3 98.291 24.3C102.461 24.3 105.521 20.88 105.521 16.8C105.521 12.72 102.461 9.27 98.291 9.27ZM99.251 23.49C96.251 23.49 95.231 16.35 95.231 14.22C95.231 13.11 95.381 10.14 97.031 10.14C100.241 10.14 101.261 16.8 101.261 19.11C101.261 20.34 101.051 23.49 99.251 23.49ZM110.472 23.25C112.032 23.79 113.052 24.27 114.792 24.27C119.142 24.27 121.632 20.52 121.632 16.47C121.632 12.6 119.352 9.18 115.182 9.18C114.192 9.18 112.842 10.5 111.822 11.67V2.73C109.392 4.11 108.552 4.47 105.762 4.92C106.782 6.18 107.442 7.17 107.442 8.85L107.382 23.97C107.922 23.67 109.392 23.37 110.472 23.25ZM111.822 11.94C111.972 11.85 112.152 11.82 112.362 11.82C115.902 11.82 117.492 15.3 117.492 18.39C117.492 20.37 116.712 23.52 114.222 23.52C112.212 23.52 111.822 21.18 111.822 19.62V11.94ZM131.115 19.92C131.115 21.3 130.905 23.25 129.585 24H137.025C135.675 23.25 135.495 21.3 135.495 19.92V8.88C135.495 7.32 135.555 6.21 136.575 4.95C132.285 4.23 129.285 0.389998 124.815 0.389998C122.685 0.389998 120.645 1.44 120.645 3.81C120.645 5.67 121.935 7.23 123.525 8.07C124.095 8.37 124.815 8.82 125.475 8.82C126.675 8.82 127.665 7.83 127.665 6.63C127.665 5.43 126.675 4.44 125.475 4.44C124.275 4.44 123.285 5.43 123.285 6.63C123.285 7.38 123.705 8.04 124.305 8.46C123.045 7.71 122.235 6.42 122.235 4.95C122.235 2.73 123.885 1.47 126.015 1.47C127.875 1.47 130.005 2.52 131.115 4.02V19.92ZM129.435 24C128.085 23.25 127.935 21.3 127.935 19.92V9.51C125.505 10.92 124.665 11.28 121.875 11.73C122.925 12.99 123.555 13.95 123.555 15.66V19.92C123.555 21.27 123.315 23.25 122.025 24H129.435ZM150.431 16.29V15.57C150.431 11.7 147.941 9.27 144.071 9.27C139.811 9.27 137.261 12.9 137.261 16.89C137.261 21.03 140.261 24.3 144.461 24.3C147.431 24.3 149.111 23.01 150.491 20.52L150.251 20.34C149.621 20.97 147.761 21.18 146.921 21.18C144.011 21.18 142.391 19.14 141.821 16.65L150.431 16.29ZM146.411 13.17C146.411 14.64 145.421 15.36 144.071 15.57C143.261 15.69 142.481 15.81 141.671 15.9C141.611 15.45 141.581 15 141.581 14.55C141.581 13.32 142.031 9.99 143.771 9.99C145.301 9.99 146.411 11.79 146.411 13.17ZM161.39 23.25C162.95 23.79 163.97 24.27 165.71 24.27C170.06 24.27 172.55 20.52 172.55 16.47C172.55 12.6 170.27 9.18 166.1 9.18C165.11 9.18 163.76 10.5 162.74 11.67V2.73C160.31 4.11 159.47 4.47 156.68 4.92C157.7 6.18 158.36 7.17 158.36 8.85L158.3 23.97C158.84 23.67 160.31 23.37 161.39 23.25ZM162.74 11.94C162.89 11.85 163.07 11.82 163.28 11.82C166.82 11.82 168.41 15.3 168.41 18.39C168.41 20.37 167.63 23.52 165.14 23.52C163.13 23.52 162.74 21.18 162.74 19.62V11.94ZM175.523 15.72C177.203 15.72 178.283 14.37 178.733 12.9C178.043 12.9 177.563 12.54 177.563 11.82C177.563 11.04 178.163 9.99 179.033 9.99C180.833 9.99 180.443 13.74 180.443 14.91C177.863 15.9 173.033 17.67 173.033 21.03C173.033 25.95 178.463 27 182.363 27C186.503 27 192.563 25.65 192.563 20.43V15.66C192.563 15 192.533 14.28 192.563 13.62C192.593 12.57 193.583 11.49 194.663 11.49C196.133 11.49 196.553 12.93 196.553 14.16V19.92C196.553 21.27 196.343 23.25 195.053 24H202.463C201.143 23.25 200.933 21.3 200.933 19.92V14.04C200.933 11.55 199.613 9.27 196.913 9.27C196.553 9.27 192.923 11.43 192.563 11.82V9.51C190.133 10.89 189.293 11.28 186.503 11.73C187.553 12.99 188.183 13.95 188.183 15.66V20.22C188.183 23.55 186.353 26.19 182.843 26.19C179.693 26.19 177.443 24.12 177.443 20.91C177.443 18.6 178.433 16.8 180.443 15.66V21.93C180.443 23.4 182.033 24.3 183.353 24.3C184.673 24.3 185.333 23.82 186.353 23.07V22.77C186.173 22.89 185.963 22.95 185.753 22.95C184.913 22.95 184.823 21.66 184.823 21.09V14.19C184.823 10.98 182.453 9.27 179.393 9.27C176.873 9.27 173.573 10.44 173.573 13.44C173.573 14.61 174.263 15.72 175.523 15.72ZM223.861 9.51C221.431 10.92 220.591 11.28 217.801 11.73C218.851 12.99 219.481 13.95 219.481 15.66V19.92C219.481 21.03 219.331 22.56 218.551 23.49C215.611 21.21 212.761 15.57 211.141 12.54C212.041 9.87 216.061 7.83 218.761 7.83C219.721 7.83 220.801 8.1 221.251 9.06C222.961 9.06 224.281 7.65 224.281 5.97C224.281 4.29 222.991 3.36 221.401 3.36C216.631 3.36 210.091 11.28 208.501 15.42V2.76C206.101 4.14 205.231 4.5 202.471 4.95C203.521 6.21 204.151 7.2 204.151 8.88V19.92C204.151 21.27 203.881 23.25 202.591 24H210.031C208.681 23.22 208.501 21.3 208.501 19.92V16.35L212.731 24H225.361C224.011 23.25 223.861 21.3 223.861 19.92V9.51ZM248.632 9.27C245.362 9.27 241.432 10.89 241.432 14.7C241.432 17.76 243.892 19.41 246.562 19.95C244.462 19.98 241.162 20.28 241.162 23.01C241.162 24.39 242.392 25.62 243.772 25.62H252.232C252.262 29.1 249.082 30.81 245.962 30.81C242.692 30.81 239.782 28.89 239.782 25.38V14.04C239.782 11.55 238.462 9.27 235.762 9.27C235.402 9.27 231.982 11.31 231.412 11.85V9.51C228.982 10.92 228.142 11.28 225.352 11.73C226.402 12.99 227.032 13.95 227.032 15.66V19.92C227.032 21.27 226.792 23.25 225.502 24H232.912C231.562 23.25 231.412 21.3 231.412 19.92V13.62C231.622 12.51 232.282 11.49 233.512 11.49C234.982 11.49 235.402 12.93 235.402 14.16V25.32C235.402 30.12 241.942 31.44 245.632 31.53H245.932C250.882 31.53 256.612 30.03 256.612 24C256.612 22.53 255.532 21.84 254.152 21.84H247.372C246.952 21.84 246.172 21.81 246.172 21.21C246.172 20.49 247.492 20.25 248.482 20.16C251.842 20.16 255.772 18.66 255.772 14.7C255.772 11.61 253.222 9.96 250.522 9.45C250.972 9.03 251.512 8.73 252.232 8.73C252.892 8.73 253.492 9.06 253.732 9.69C253.882 9.72 254.092 9.75 254.242 9.75C255.532 9.75 256.702 8.97 256.702 7.59C256.702 6.39 255.742 5.64 254.572 5.64C252.472 5.64 250.972 7.56 249.922 9.36C249.472 9.3 249.052 9.27 248.632 9.27ZM249.592 19.35C246.892 19.35 245.572 15.12 245.572 12.96C245.572 11.79 245.902 10.14 247.372 10.14C250.192 10.14 251.602 13.98 251.602 16.32C251.602 17.61 251.182 19.35 249.592 19.35ZM275.934 24.3C278.544 24.3 282.564 23.37 282.564 20.07C282.564 15.12 274.314 15.24 274.314 12.21C274.314 10.89 275.304 9.99 276.624 9.99C277.764 9.99 278.874 10.74 278.874 11.97C278.874 12.6 278.484 13.08 277.824 13.08C278.154 14.22 278.994 15.03 280.194 15.03C280.614 15.03 281.004 14.94 281.304 14.79H281.334C281.994 14.52 282.264 13.68 282.264 13.02C282.264 11.61 281.874 10.41 281.274 9.15C279.144 5.01 275.064 2.64 270.444 2.64C268.044 2.64 264.144 3.6 264.144 6.63C264.144 7.83 265.134 8.82 266.334 8.82C267.534 8.82 268.524 7.83 268.524 6.63C268.524 5.43 267.534 4.44 266.334 4.44C267.114 3.48 268.644 3.21 269.814 3.21C274.284 3.21 278.034 6.03 279.984 9.93C278.964 9.48 277.734 9.27 276.744 9.27C274.224 9.27 270.774 10.53 270.774 13.53C270.774 18.6 278.634 18.36 278.634 21.45C278.634 22.95 277.224 23.58 275.934 23.58C274.854 23.58 273.594 22.95 273.594 21.72C273.594 21 274.104 20.46 274.824 20.46C274.584 19.26 273.684 18.03 272.334 18.03C270.924 18.03 270.174 19.14 270.174 20.46C270.174 23.28 273.684 24.3 275.934 24.3ZM270.294 24C268.944 23.25 268.794 21.3 268.794 19.92V9.51C266.364 10.92 265.524 11.28 262.734 11.73C263.784 12.99 264.414 13.95 264.414 15.66V19.92C264.414 21.27 264.174 23.25 262.884 24H270.294ZM299.194 1.71C301.054 1.71 302.614 2.91 302.614 4.86C302.614 5.25 302.524 6.06 301.954 6.09C302.374 7.47 303.304 8.7 304.864 8.7C306.274 8.7 307.114 7.68 307.114 6.33C307.114 2.67 302.914 0.96 299.854 0.96C293.224 0.96 289.084 6.69 289.084 12.93C289.084 19.2 293.044 24.3 299.584 24.3C303.784 24.3 306.634 22.23 307.534 18.12L307.294 17.94C305.854 19.5 303.874 20.13 301.804 20.13C296.134 20.13 293.134 15.63 293.134 10.35C293.134 6.75 294.874 1.71 299.194 1.71ZM309.678 19.92C309.678 21.27 309.438 23.25 308.148 24H315.558C314.208 23.25 314.058 21.3 314.058 19.92V14.16C314.058 12.93 314.838 11.49 316.218 11.49C317.688 11.49 318.108 12.93 318.108 14.16V19.92C318.108 21.27 317.898 23.25 316.608 24H324.018C322.698 23.25 322.488 21.3 322.488 19.92V14.04C322.488 11.55 321.168 9.27 318.468 9.27C318.108 9.27 314.328 11.52 314.058 11.91V2.73C312.108 3.84 310.218 4.59 307.998 4.95C309.048 6.21 309.678 7.17 309.678 8.88V19.92ZM326.753 15.72C328.433 15.72 329.513 14.37 329.963 12.9C329.273 12.9 328.793 12.54 328.793 11.82C328.793 11.04 329.393 9.99 330.263 9.99C332.063 9.99 331.673 13.74 331.673 14.91C329.093 15.9 324.263 17.67 324.263 21.03C324.263 25.95 329.693 27 333.593 27C337.733 27 343.793 25.65 343.793 20.43V15.66C343.793 15 343.763 14.28 343.793 13.62C343.823 12.57 344.813 11.49 345.893 11.49C347.363 11.49 347.783 12.93 347.783 14.16V19.92C347.783 21.27 347.573 23.25 346.283 24H353.693C352.373 23.25 352.163 21.3 352.163 19.92V14.04C352.163 11.55 350.843 9.27 348.143 9.27C347.783 9.27 344.153 11.43 343.793 11.82V9.51C341.363 10.89 340.523 11.28 337.733 11.73C338.783 12.99 339.413 13.95 339.413 15.66V20.22C339.413 23.55 337.583 26.19 334.073 26.19C330.923 26.19 328.673 24.12 328.673 20.91C328.673 18.6 329.663 16.8 331.673 15.66V21.93C331.673 23.4 333.263 24.3 334.583 24.3C335.903 24.3 336.563 23.82 337.583 23.07V22.77C337.403 22.89 337.193 22.95 336.983 22.95C336.143 22.95 336.053 21.66 336.053 21.09V14.19C336.053 10.98 333.683 9.27 330.623 9.27C328.103 9.27 324.803 10.44 324.803 13.44C324.803 14.61 325.493 15.72 326.753 15.72ZM362.851 23.85C359.281 23.79 358.441 19.62 358.441 16.77C358.441 15.36 358.981 9.99 361.081 9.99C363.541 9.99 363.901 14.85 363.901 16.53C363.901 17.88 363.541 23.28 361.471 23.28C365.491 23.28 368.431 21 368.431 16.8C368.431 14.16 367.141 11.76 365.101 10.41C366.031 9.18 367.591 7.92 369.211 7.92C370.111 7.92 370.861 8.34 371.401 9.03C373.261 9.03 374.761 7.77 374.761 5.85C374.761 4.08 373.381 2.85 371.641 2.85C368.311 2.85 365.821 7.41 364.531 10.08C363.541 9.57 362.431 9.27 361.201 9.27C357.031 9.27 353.941 12.72 353.941 16.8C353.941 20.19 356.071 23.04 359.311 24C360.121 24.24 360.871 24.27 361.711 24.33C362.251 24.36 363.991 24.3 363.991 25.14C363.991 25.77 363.121 25.77 362.701 25.77C361.051 25.77 359.431 25.44 357.781 25.44C355.771 25.44 353.701 26.52 353.701 28.77C353.701 30.42 354.931 31.56 356.551 31.56C356.491 31.35 356.431 31.11 356.431 30.87C356.431 29.43 358.111 29.49 359.161 29.49C361.561 29.49 363.991 29.55 366.391 29.55C367.771 29.55 369.001 28.32 369.001 26.94C369.001 24.12 365.611 23.85 363.511 23.85H362.851ZM376.501 24C375.151 23.25 375.001 21.3 375.001 19.92V9.51C372.571 10.92 371.731 11.28 368.941 11.73C369.991 12.99 370.621 13.95 370.621 15.66V19.92C370.621 21.27 370.381 23.25 369.091 24H376.501ZM399.774 9.27C396.504 9.27 392.574 10.89 392.574 14.7C392.574 17.76 395.034 19.41 397.704 19.95C395.604 19.98 392.304 20.28 392.304 23.01C392.304 24.39 393.534 25.62 394.914 25.62H403.374C403.404 29.1 400.224 30.81 397.104 30.81C393.834 30.81 390.924 28.89 390.924 25.38V14.04C390.924 11.55 389.604 9.27 386.904 9.27C386.544 9.27 383.124 11.31 382.554 11.85V9.51C380.124 10.92 379.284 11.28 376.494 11.73C377.544 12.99 378.174 13.95 378.174 15.66V19.92C378.174 21.27 377.934 23.25 376.644 24H384.054C382.704 23.25 382.554 21.3 382.554 19.92V13.62C382.764 12.51 383.424 11.49 384.654 11.49C386.124 11.49 386.544 12.93 386.544 14.16V25.32C386.544 30.12 393.084 31.44 396.774 31.53H397.074C402.024 31.53 407.754 30.03 407.754 24C407.754 22.53 406.674 21.84 405.294 21.84H398.514C398.094 21.84 397.314 21.81 397.314 21.21C397.314 20.49 398.634 20.25 399.624 20.16C402.984 20.16 406.914 18.66 406.914 14.7C406.914 11.61 404.364 9.96 401.664 9.45C402.114 9.03 402.654 8.73 403.374 8.73C404.034 8.73 404.634 9.06 404.874 9.69C405.024 9.72 405.234 9.75 405.384 9.75C406.674 9.75 407.844 8.97 407.844 7.59C407.844 6.39 406.884 5.64 405.714 5.64C403.614 5.64 402.114 7.56 401.064 9.36C400.614 9.3 400.194 9.27 399.774 9.27ZM400.734 19.35C398.034 19.35 396.714 15.12 396.714 12.96C396.714 11.79 397.044 10.14 398.514 10.14C401.334 10.14 402.744 13.98 402.744 16.32C402.744 17.61 402.324 19.35 400.734 19.35ZM419.877 5.76H419.427C418.437 8.49 416.847 9.51 414.027 9.78V10.23H415.497V20.25C415.497 22.44 416.487 24.3 418.887 24.3C420.537 24.3 422.217 23.49 423.417 22.38V22.08C422.937 22.35 422.367 22.47 421.827 22.47C420.807 22.47 419.877 22.02 419.877 20.85V10.23H422.997V9.51H419.877V5.76ZM424.668 19.92C424.668 21.27 424.428 23.25 423.138 24H430.548C429.198 23.25 429.048 21.3 429.048 19.92V14.16C429.048 12.93 429.828 11.49 431.208 11.49C432.678 11.49 433.098 12.93 433.098 14.16V19.92C433.098 21.27 432.888 23.25 431.598 24H439.008C437.688 23.25 437.478 21.3 437.478 19.92V14.04C437.478 11.55 436.158 9.27 433.458 9.27C433.098 9.27 429.318 11.52 429.048 11.91V2.73C427.098 3.84 425.208 4.59 422.988 4.95C424.038 6.21 424.668 7.17 424.668 8.88V19.92ZM452.131 16.29V15.57C452.131 11.7 449.641 9.27 445.771 9.27C441.511 9.27 438.961 12.9 438.961 16.89C438.961 21.03 441.961 24.3 446.161 24.3C449.131 24.3 450.811 23.01 452.191 20.52L451.951 20.34C451.321 20.97 449.461 21.18 448.621 21.18C445.711 21.18 444.091 19.14 443.521 16.65L452.131 16.29ZM448.111 13.17C448.111 14.64 447.121 15.36 445.771 15.57C444.961 15.69 444.181 15.81 443.371 15.9C443.311 15.45 443.281 15 443.281 14.55C443.281 13.32 443.731 9.99 445.471 9.99C447.001 9.99 448.111 11.79 448.111 13.17ZM466.419 24C465.069 23.22 464.889 21.33 464.889 19.92V12.84C469.119 12.84 471.339 12.84 472.239 17.58V8.34C471.549 10.8 470.679 11.7 468.099 11.97C467.019 12.09 465.969 12.12 464.889 12.12V1.98H466.689C470.829 1.98 473.259 4.68 474.609 8.31L474.099 1.26H458.979C460.299 2.01 460.509 3.96 460.509 5.34V19.92C460.509 21.33 460.329 23.22 458.979 24H466.419ZM487.115 22.77C486.935 22.89 486.725 22.95 486.515 22.95C485.675 22.95 485.585 21.66 485.585 21.09V14.19C485.585 10.98 483.215 9.27 480.155 9.27C477.635 9.27 474.335 10.44 474.335 13.44C474.335 14.61 475.025 15.72 476.285 15.72C477.965 15.72 479.045 14.37 479.495 12.9C478.805 12.9 478.325 12.54 478.325 11.82C478.325 11.04 478.925 9.99 479.795 9.99C481.355 9.99 481.205 12.63 481.205 13.65V14.61C479.285 16.71 473.795 17.97 473.795 21.09C473.795 23.34 475.295 24.3 477.395 24.3C479.105 24.3 480.425 23.7 481.355 22.65C481.775 23.67 483.035 24.3 484.115 24.3C485.465 24.3 486.095 23.82 487.115 23.07V22.77ZM481.205 22.02C480.905 22.2 480.515 22.32 480.035 22.32C478.505 22.32 478.205 21 478.205 19.74C478.205 18 480.065 16.71 481.205 15.66V22.02ZM494.09 14.19C494.6 15.87 495.59 16.98 497.42 16.98C499.04 16.98 499.97 15.93 499.97 14.37C499.97 11.07 496.67 9.27 493.73 9.27C489.47 9.27 486.92 12.9 486.92 16.89C486.92 21.03 489.92 24.3 494.12 24.3C496.97 24.3 499.13 23.01 500.51 20.52L500.27 20.34C499.64 20.97 497.78 21.18 496.94 21.18C493.1 21.18 491.39 17.64 491.39 14.25C491.39 13.08 491.75 9.99 493.43 9.99C494.78 9.99 496.1 11.31 496.1 12.66C496.1 13.8 495.08 14.19 494.09 14.19ZM513.918 16.29V15.57C513.918 11.7 511.428 9.27 507.558 9.27C503.298 9.27 500.748 12.9 500.748 16.89C500.748 21.03 503.748 24.3 507.948 24.3C510.918 24.3 512.598 23.01 513.978 20.52L513.738 20.34C513.108 20.97 511.248 21.18 510.408 21.18C507.498 21.18 505.878 19.14 505.308 16.65L513.918 16.29ZM509.898 13.17C509.898 14.64 508.908 15.36 507.558 15.57C506.748 15.69 505.968 15.81 505.158 15.9C505.098 15.45 505.068 15 505.068 14.55C505.068 13.32 505.518 9.99 507.258 9.99C508.788 9.99 509.898 11.79 509.898 13.17ZM527.666 9.27C523.496 9.27 520.406 12.72 520.406 16.8C520.406 20.91 523.496 24.3 527.666 24.3C531.836 24.3 534.896 20.88 534.896 16.8C534.896 12.72 531.836 9.27 527.666 9.27ZM528.626 23.49C525.626 23.49 524.606 16.35 524.606 14.22C524.606 13.11 524.756 10.14 526.406 10.14C529.616 10.14 530.636 16.8 530.636 19.11C530.636 20.34 530.426 23.49 528.626 23.49ZM542.854 3.06C538.894 3.06 536.704 5.7 536.704 9.51H534.994V10.23H536.644V19.92C536.644 21.27 536.404 23.25 535.114 24H542.524C541.174 23.25 541.024 21.3 541.024 19.92V10.23H544.444V9.51C542.464 9.51 539.644 8.82 539.644 6.33C539.644 5.1 540.544 3.84 541.864 3.84C542.644 3.84 543.244 4.32 543.244 5.13C543.244 5.88 542.704 6.39 541.954 6.39C542.314 7.53 543.184 8.52 544.444 8.52C545.824 8.52 546.874 7.53 546.874 6.12C546.874 3.96 544.714 3.06 542.854 3.06ZM562.823 11.79C565.703 11.79 567.983 9.93 567.983 6.96C567.983 3.21 564.653 1.26 561.233 1.26H553.403C554.753 2.04 554.933 3.93 554.933 5.34V19.92C554.933 21.3 554.723 23.22 553.403 24H563.603C567.053 24 569.453 20.82 569.453 17.55C569.453 13.68 566.423 11.79 562.823 11.79ZM559.313 11.43V1.98H559.763C562.403 1.98 563.813 4.23 563.813 6.66C563.813 9.54 562.223 11.43 559.313 11.43ZM559.313 23.28V12.15H559.763C563.033 12.15 565.253 14.55 565.253 17.76C565.253 21.39 562.763 23.28 559.313 23.28ZM572.642 15.72C574.322 15.72 575.402 14.37 575.852 12.9C575.162 12.9 574.682 12.54 574.682 11.82C574.682 11.04 575.282 9.99 576.152 9.99C577.952 9.99 577.562 13.74 577.562 14.91C574.982 15.9 570.152 17.67 570.152 21.03C570.152 25.95 575.582 27 579.482 27C583.622 27 589.682 25.65 589.682 20.43V15.66C589.682 15 589.652 14.28 589.682 13.62C589.712 12.57 590.702 11.49 591.782 11.49C593.252 11.49 593.672 12.93 593.672 14.16V19.92C593.672 21.27 593.462 23.25 592.172 24H599.582C598.262 23.25 598.052 21.3 598.052 19.92V14.04C598.052 11.55 596.732 9.27 594.032 9.27C593.672 9.27 590.042 11.43 589.682 11.82V9.51C587.252 10.89 586.412 11.28 583.622 11.73C584.672 12.99 585.302 13.95 585.302 15.66V20.22C585.302 23.55 583.472 26.19 579.962 26.19C576.812 26.19 574.562 24.12 574.562 20.91C574.562 18.6 575.552 16.8 577.562 15.66V21.93C577.562 23.4 579.152 24.3 580.472 24.3C581.792 24.3 582.452 23.82 583.472 23.07V22.77C583.292 22.89 583.082 22.95 582.872 22.95C582.032 22.95 581.942 21.66 581.942 21.09V14.19C581.942 10.98 579.572 9.27 576.512 9.27C573.992 9.27 570.692 10.44 570.692 13.44C570.692 14.61 571.382 15.72 572.642 15.72ZM620.98 9.51C618.55 10.92 617.71 11.28 614.92 11.73C615.97 12.99 616.6 13.95 616.6 15.66V19.92C616.6 21.03 616.45 22.56 615.67 23.49C612.73 21.21 609.88 15.57 608.26 12.54C609.16 9.87 613.18 7.83 615.88 7.83C616.84 7.83 617.92 8.1 618.37 9.06C620.08 9.06 621.4 7.65 621.4 5.97C621.4 4.29 620.11 3.36 618.52 3.36C613.75 3.36 607.21 11.28 605.62 15.42V2.76C603.22 4.14 602.35 4.5 599.59 4.95C600.64 6.21 601.27 7.2 601.27 8.88V19.92C601.27 21.27 601 23.25 599.71 24H607.15C605.8 23.22 605.62 21.3 605.62 19.92V16.35L609.85 24H622.48C621.13 23.25 620.98 21.3 620.98 19.92V9.51ZM645.751 9.27C642.481 9.27 638.551 10.89 638.551 14.7C638.551 17.76 641.011 19.41 643.681 19.95C641.581 19.98 638.281 20.28 638.281 23.01C638.281 24.39 639.511 25.62 640.891 25.62H649.351C649.381 29.1 646.201 30.81 643.081 30.81C639.811 30.81 636.901 28.89 636.901 25.38V14.04C636.901 11.55 635.581 9.27 632.881 9.27C632.521 9.27 629.101 11.31 628.531 11.85V9.51C626.101 10.92 625.261 11.28 622.471 11.73C623.521 12.99 624.151 13.95 624.151 15.66V19.92C624.151 21.27 623.911 23.25 622.621 24H630.031C628.681 23.25 628.531 21.3 628.531 19.92V13.62C628.741 12.51 629.401 11.49 630.631 11.49C632.101 11.49 632.521 12.93 632.521 14.16V25.32C632.521 30.12 639.061 31.44 642.751 31.53H643.051C648.001 31.53 653.731 30.03 653.731 24C653.731 22.53 652.651 21.84 651.271 21.84H644.491C644.071 21.84 643.291 21.81 643.291 21.21C643.291 20.49 644.611 20.25 645.601 20.16C648.961 20.16 652.891 18.66 652.891 14.7C652.891 11.61 650.341 9.96 647.641 9.45C648.091 9.03 648.631 8.73 649.351 8.73C650.011 8.73 650.611 9.06 650.851 9.69C651.001 9.72 651.211 9.75 651.361 9.75C652.651 9.75 653.821 8.97 653.821 7.59C653.821 6.39 652.861 5.64 651.691 5.64C649.591 5.64 648.091 7.56 647.041 9.36C646.591 9.3 646.171 9.27 645.751 9.27ZM646.711 19.35C644.011 19.35 642.691 15.12 642.691 12.96C642.691 11.79 643.021 10.14 644.491 10.14C647.311 10.14 648.721 13.98 648.721 16.32C648.721 17.61 648.301 19.35 646.711 19.35ZM669.094 15.66V19.92C669.094 21.27 668.854 23.25 667.564 24H674.974C673.624 23.25 673.474 21.3 673.474 19.92V13.62C673.474 12.6 674.524 11.49 675.574 11.49C677.044 11.49 677.464 12.93 677.464 14.16V19.92C677.464 21.27 677.254 23.25 675.964 24H683.374C682.054 23.25 681.844 21.3 681.844 19.92V14.04C681.844 11.55 680.524 9.27 677.824 9.27C677.464 9.27 673.834 11.43 673.474 11.82V9.51C673.864 8.88 674.044 8.13 674.044 7.38C674.044 3.87 670.834 2.25 667.714 2.25C665.104 2.25 661.264 3.45 661.264 6.63C661.264 7.83 662.254 8.82 663.454 8.82C664.654 8.82 665.644 7.83 665.644 6.63C665.644 5.43 664.654 4.44 663.454 4.44C664.354 3.36 665.914 2.94 667.294 2.94C669.784 2.94 672.304 4.5 672.304 7.2C672.304 9.9 669.754 11.34 667.414 11.73C668.464 12.99 669.094 13.95 669.094 15.66ZM659.854 11.73C660.904 12.99 661.534 13.95 661.534 15.66V19.92C661.534 21.27 661.294 23.25 660.004 24H667.414C666.064 23.25 665.914 21.3 665.914 19.92V9.51C663.484 10.92 662.644 11.28 659.854 11.73ZM694.488 18.72C694.488 18.24 694.578 17.64 694.758 16.92C696.048 16.68 697.308 16.47 698.628 16.47C699.858 16.47 701.088 16.65 702.288 16.89L703.518 20.19C703.728 20.79 703.968 21.39 703.968 22.05C703.968 22.92 703.548 23.55 702.798 24H710.778C709.488 23.28 708.498 20.91 707.988 19.56L701.028 1.29H699.918L694.008 16.26C693.258 18.15 691.098 23.19 689.268 24H698.508C696.078 23.13 694.488 21.39 694.488 18.72ZM702.018 16.11C700.908 15.9 699.768 15.75 698.628 15.75C697.398 15.75 696.168 15.93 694.968 16.17C695.838 13.05 697.728 8.7 698.508 6.63L702.018 16.11ZM718.489 3.06C714.529 3.06 712.339 5.7 712.339 9.51H710.629V10.23H712.279V19.92C712.279 21.27 712.039 23.25 710.749 24H718.159C716.809 23.25 716.659 21.3 716.659 19.92V10.23H720.079V9.51C718.099 9.51 715.279 8.82 715.279 6.33C715.279 5.1 716.179 3.84 717.499 3.84C718.279 3.84 718.879 4.32 718.879 5.13C718.879 5.88 718.339 6.39 717.589 6.39C717.949 7.53 718.819 8.52 720.079 8.52C721.459 8.52 722.509 7.53 722.509 6.12C722.509 3.96 720.349 3.06 718.489 3.06ZM724.229 15.66V19.92C724.229 21.27 724.019 23.25 722.729 24H730.139C728.819 23.25 728.609 21.3 728.609 19.92V13.14C729.449 11.25 732.299 8.22 734.489 8.22C735.209 8.22 735.749 8.61 736.049 9.24C737.729 9.24 738.989 7.89 738.989 6.21C738.989 4.53 737.669 3.54 736.049 3.54C732.149 3.54 729.779 8.88 728.609 11.94V9.51C726.179 10.89 725.339 11.28 722.549 11.73C723.599 12.99 724.229 13.95 724.229 15.66ZM738.959 24C737.609 23.25 737.459 21.3 737.459 19.92V9.51C735.029 10.92 734.189 11.28 731.399 11.73C732.449 12.99 733.079 13.95 733.079 15.66V19.92C733.079 21.27 732.839 23.25 731.549 24H738.959ZM746.599 14.19C747.109 15.87 748.099 16.98 749.929 16.98C751.549 16.98 752.479 15.93 752.479 14.37C752.479 11.07 749.179 9.27 746.239 9.27C741.979 9.27 739.429 12.9 739.429 16.89C739.429 21.03 742.429 24.3 746.629 24.3C749.479 24.3 751.639 23.01 753.019 20.52L752.779 20.34C752.149 20.97 750.289 21.18 749.449 21.18C745.609 21.18 743.899 17.64 743.899 14.25C743.899 13.08 744.259 9.99 745.939 9.99C747.289 9.99 748.609 11.31 748.609 12.66C748.609 13.8 747.589 14.19 746.599 14.19ZM766.871 22.77C766.691 22.89 766.481 22.95 766.271 22.95C765.431 22.95 765.341 21.66 765.341 21.09V14.19C765.341 10.98 762.971 9.27 759.911 9.27C757.391 9.27 754.091 10.44 754.091 13.44C754.091 14.61 754.781 15.72 756.041 15.72C757.721 15.72 758.801 14.37 759.251 12.9C758.561 12.9 758.081 12.54 758.081 11.82C758.081 11.04 758.681 9.99 759.551 9.99C761.111 9.99 760.961 12.63 760.961 13.65V14.61C759.041 16.71 753.551 17.97 753.551 21.09C753.551 23.34 755.051 24.3 757.151 24.3C758.861 24.3 760.181 23.7 761.111 22.65C761.531 23.67 762.791 24.3 763.871 24.3C765.221 24.3 765.851 23.82 766.871 23.07V22.77ZM760.961 22.02C760.661 22.2 760.271 22.32 759.791 22.32C758.261 22.32 757.961 21 757.961 19.74C757.961 18 759.821 16.71 760.961 15.66V22.02Z" fill="#1E2C31"/>
</svg>
