<svg width="1002" height="117" viewBox="0 0 1002 117" fill="none" xmlns="http://www.w3.org/2000/svg">
<path d="M10.935 22.77C13.465 22.275 15.995 21.835 18.58 21.835C21.165 21.835 23.695 22.275 26.225 22.77V36.52C26.225 39.05 25.84 42.625 23.42 44H37.06C34.64 42.625 34.255 39.05 34.255 36.52V9.79C34.255 7.26 34.64 3.74 37.06 2.31H23.42C25.895 3.74 26.225 7.205 26.225 9.79V21.45C23.695 20.955 21.165 20.515 18.58 20.515C15.995 20.515 13.465 20.955 10.935 21.45V9.79C10.935 7.26 11.32 3.74 13.74 2.31H0.1C2.575 3.74 2.905 7.205 2.905 9.79V36.52C2.905 39.05 2.52 42.625 0.1 44H13.74C11.32 42.625 10.935 39.05 10.935 36.52V22.77ZM51.9053 16.995C44.2603 16.995 38.5953 23.32 38.5953 30.8C38.5953 38.335 44.2603 44.55 51.9053 44.55C59.5503 44.55 65.1603 38.28 65.1603 30.8C65.1603 23.32 59.5503 16.995 51.9053 16.995ZM53.6653 43.065C48.1653 43.065 46.2953 29.975 46.2953 26.07C46.2953 24.035 46.5703 18.59 49.5953 18.59C55.4803 18.59 57.3503 30.8 57.3503 35.035C57.3503 37.29 56.9653 43.065 53.6653 43.065ZM97.1402 17.435C100.44 18.645 101.925 21.175 101.925 24.64C101.925 29.095 99.6702 34.045 98.0202 38.17C96.5902 34.76 92.1902 24.86 92.1902 21.725C92.1902 19.855 93.0702 18.04 94.8852 17.435H79.7052C81.4652 18.205 83.1702 21.12 84.5452 24.2C84.5452 24.365 84.5452 24.475 84.5452 24.64C84.5452 29.095 82.2902 34.045 80.6402 38.17C79.2102 34.76 74.8102 24.86 74.8102 21.725C74.8102 19.855 75.6902 18.04 77.5052 17.435H62.3252C65.6802 18.92 68.7052 28.105 70.0802 31.515L75.0852 44H79.7602L84.7102 31.625C85.0402 30.745 85.5352 29.425 86.0852 27.995C86.6352 29.37 87.1302 30.635 87.4602 31.515L92.4652 44H97.1402L102.09 31.625C103.465 28.16 106.545 18.92 109.9 17.435H97.1402ZM146.779 22.66C145.899 19.47 143.589 16.995 139.794 16.995C139.189 16.995 132.809 20.735 131.819 21.725V17.435C127.364 20.02 125.824 20.68 120.709 21.505C122.634 23.815 123.789 25.575 123.789 28.71V36.52C123.789 38.995 123.349 42.625 120.984 44H134.569C132.094 42.625 131.819 39.05 131.819 36.52V24.97C132.204 22.935 133.414 21.065 135.669 21.065C138.364 21.065 139.134 23.705 139.134 25.96V36.52C139.134 38.995 138.749 42.625 136.384 44H149.969C147.549 42.625 147.164 39.05 147.164 36.52V25.96C147.274 23.65 148.484 21.065 151.124 21.065C153.819 21.065 154.589 23.705 154.589 25.96V36.52C154.589 38.995 154.204 42.625 151.839 44H165.424C163.004 42.625 162.619 39.05 162.619 36.52V25.74C162.619 21.175 160.199 16.995 155.249 16.995C154.589 16.995 147.219 21.505 146.724 22.275L146.779 22.66ZM179.2 16.995C171.555 16.995 165.89 23.32 165.89 30.8C165.89 38.335 171.555 44.55 179.2 44.55C186.845 44.55 192.455 38.28 192.455 30.8C192.455 23.32 186.845 16.995 179.2 16.995ZM180.96 43.065C175.46 43.065 173.59 29.975 173.59 26.07C173.59 24.035 173.865 18.59 176.89 18.59C182.775 18.59 184.645 30.8 184.645 35.035C184.645 37.29 184.26 43.065 180.96 43.065ZM201.531 42.625C204.391 43.615 206.261 44.495 209.451 44.495C217.426 44.495 221.991 37.62 221.991 30.195C221.991 23.1 217.811 16.83 210.166 16.83C208.351 16.83 205.876 19.25 204.006 21.395V5.005C199.551 7.535 198.011 8.195 192.896 9.02C194.766 11.33 195.976 13.145 195.976 16.225L195.866 43.945C196.856 43.395 199.551 42.845 201.531 42.625ZM204.006 21.89C204.281 21.725 204.611 21.67 204.996 21.67C211.486 21.67 214.401 28.05 214.401 33.715C214.401 37.345 212.971 43.12 208.406 43.12C204.721 43.12 204.006 38.83 204.006 35.97V21.89ZM239.378 36.52C239.378 39.05 238.993 42.625 236.572 44H250.212C247.738 42.625 247.408 39.05 247.408 36.52V16.28C247.408 13.42 247.518 11.385 249.388 9.075C241.523 7.755 236.023 0.714997 227.828 0.714997C223.923 0.714997 220.182 2.64 220.182 6.985C220.182 10.395 222.548 13.255 225.463 14.795C226.508 15.345 227.828 16.17 229.038 16.17C231.238 16.17 233.053 14.355 233.053 12.155C233.053 9.955 231.238 8.14 229.038 8.14C226.838 8.14 225.023 9.955 225.023 12.155C225.023 13.53 225.793 14.74 226.893 15.51C224.583 14.135 223.098 11.77 223.098 9.075C223.098 5.005 226.123 2.695 230.028 2.695C233.438 2.695 237.343 4.62 239.378 7.37V36.52ZM236.298 44C233.823 42.625 233.548 39.05 233.548 36.52V17.435C229.093 20.02 227.553 20.68 222.438 21.505C224.363 23.815 225.518 25.575 225.518 28.71V36.52C225.518 38.995 225.078 42.625 222.713 44H236.298ZM274.791 29.865V28.545C274.791 21.45 270.226 16.995 263.131 16.995C255.321 16.995 250.646 23.65 250.646 30.965C250.646 38.555 256.146 44.55 263.846 44.55C269.291 44.55 272.371 42.185 274.901 37.62L274.461 37.29C273.306 38.445 269.896 38.83 268.356 38.83C263.021 38.83 260.051 35.09 259.006 30.525L274.791 29.865ZM267.421 24.145C267.421 26.84 265.606 28.16 263.131 28.545C261.646 28.765 260.216 28.985 258.731 29.15C258.621 28.325 258.566 27.5 258.566 26.675C258.566 24.42 259.391 18.315 262.581 18.315C265.386 18.315 267.421 21.615 267.421 24.145ZM294.881 42.625C297.741 43.615 299.611 44.495 302.801 44.495C310.776 44.495 315.341 37.62 315.341 30.195C315.341 23.1 311.161 16.83 303.516 16.83C301.701 16.83 299.226 19.25 297.356 21.395V5.005C292.901 7.535 291.361 8.195 286.246 9.02C288.116 11.33 289.326 13.145 289.326 16.225L289.216 43.945C290.206 43.395 292.901 42.845 294.881 42.625ZM297.356 21.89C297.631 21.725 297.961 21.67 298.346 21.67C304.836 21.67 307.751 28.05 307.751 33.715C307.751 37.345 306.321 43.12 301.756 43.12C298.071 43.12 297.356 38.83 297.356 35.97V21.89ZM320.792 28.82C323.872 28.82 325.852 26.345 326.677 23.65C325.412 23.65 324.532 22.99 324.532 21.67C324.532 20.24 325.632 18.315 327.227 18.315C330.527 18.315 329.812 25.19 329.812 27.335C325.082 29.15 316.227 32.395 316.227 38.555C316.227 47.575 326.182 49.5 333.332 49.5C340.922 49.5 352.032 47.025 352.032 37.455V28.71C352.032 27.5 351.977 26.18 352.032 24.97C352.087 23.045 353.902 21.065 355.882 21.065C358.577 21.065 359.347 23.705 359.347 25.96V36.52C359.347 38.995 358.962 42.625 356.597 44H370.182C367.762 42.625 367.377 39.05 367.377 36.52V25.74C367.377 21.175 364.957 16.995 360.007 16.995C359.347 16.995 352.692 20.955 352.032 21.67V17.435C347.577 19.965 346.037 20.68 340.922 21.505C342.847 23.815 344.002 25.575 344.002 28.71V37.07C344.002 43.175 340.647 48.015 334.212 48.015C328.437 48.015 324.312 44.22 324.312 38.335C324.312 34.1 326.127 30.8 329.812 28.71V40.205C329.812 42.9 332.727 44.55 335.147 44.55C337.567 44.55 338.777 43.67 340.647 42.295V41.745C340.317 41.965 339.932 42.075 339.547 42.075C338.007 42.075 337.842 39.71 337.842 38.665V26.015C337.842 20.13 333.497 16.995 327.887 16.995C323.267 16.995 317.217 19.14 317.217 24.64C317.217 26.785 318.482 28.82 320.792 28.82ZM409.411 17.435C404.956 20.02 403.416 20.68 398.301 21.505C400.226 23.815 401.381 25.575 401.381 28.71V36.52C401.381 38.555 401.106 41.36 399.676 43.065C394.286 38.885 389.061 28.545 386.091 22.99C387.741 18.095 395.111 14.355 400.061 14.355C401.821 14.355 403.801 14.85 404.626 16.61C407.761 16.61 410.181 14.025 410.181 10.945C410.181 7.865 407.816 6.16 404.901 6.16C396.156 6.16 384.166 20.68 381.251 28.27V5.06C376.851 7.59 375.256 8.25 370.196 9.075C372.121 11.385 373.276 13.2 373.276 16.28V36.52C373.276 38.995 372.781 42.625 370.416 44H384.056C381.581 42.57 381.251 39.05 381.251 36.52V29.975L389.006 44H412.161C409.686 42.625 409.411 39.05 409.411 36.52V17.435ZM454.825 16.995C448.83 16.995 441.625 19.965 441.625 26.95C441.625 32.56 446.135 35.585 451.03 36.575C447.18 36.63 441.13 37.18 441.13 42.185C441.13 44.715 443.385 46.97 445.915 46.97H461.425C461.48 53.35 455.65 56.485 449.93 56.485C443.935 56.485 438.6 52.965 438.6 46.53V25.74C438.6 21.175 436.18 16.995 431.23 16.995C430.57 16.995 424.3 20.735 423.255 21.725V17.435C418.8 20.02 417.26 20.68 412.145 21.505C414.07 23.815 415.225 25.575 415.225 28.71V36.52C415.225 38.995 414.785 42.625 412.42 44H426.005C423.53 42.625 423.255 39.05 423.255 36.52V24.97C423.64 22.935 424.85 21.065 427.105 21.065C429.8 21.065 430.57 23.705 430.57 25.96V46.42C430.57 55.22 442.56 57.64 449.325 57.805H449.875C458.95 57.805 469.455 55.055 469.455 44C469.455 41.305 467.475 40.04 464.945 40.04H452.515C451.745 40.04 450.315 39.985 450.315 38.885C450.315 37.565 452.735 37.125 454.55 36.96C460.71 36.96 467.915 34.21 467.915 26.95C467.915 21.285 463.24 18.26 458.29 17.325C459.115 16.555 460.105 16.005 461.425 16.005C462.635 16.005 463.735 16.61 464.175 17.765C464.45 17.82 464.835 17.875 465.11 17.875C467.475 17.875 469.62 16.445 469.62 13.915C469.62 11.715 467.86 10.34 465.715 10.34C461.865 10.34 459.115 13.86 457.19 17.16C456.365 17.05 455.595 16.995 454.825 16.995ZM456.585 35.475C451.635 35.475 449.215 27.72 449.215 23.76C449.215 21.615 449.82 18.59 452.515 18.59C457.685 18.59 460.27 25.63 460.27 29.92C460.27 32.285 459.5 35.475 456.585 35.475ZM504.88 44.55C509.665 44.55 517.035 42.845 517.035 36.795C517.035 27.72 501.91 27.94 501.91 22.385C501.91 19.965 503.725 18.315 506.145 18.315C508.235 18.315 510.27 19.69 510.27 21.945C510.27 23.1 509.555 23.98 508.345 23.98C508.95 26.07 510.49 27.555 512.69 27.555C513.46 27.555 514.175 27.39 514.725 27.115H514.78C515.99 26.62 516.485 25.08 516.485 23.87C516.485 21.285 515.77 19.085 514.67 16.775C510.765 9.185 503.285 4.84 494.815 4.84C490.415 4.84 483.265 6.6 483.265 12.155C483.265 14.355 485.08 16.17 487.28 16.17C489.48 16.17 491.295 14.355 491.295 12.155C491.295 9.955 489.48 8.14 487.28 8.14C488.71 6.38 491.515 5.885 493.66 5.885C501.855 5.885 508.73 11.055 512.305 18.205C510.435 17.38 508.18 16.995 506.365 16.995C501.745 16.995 495.42 19.305 495.42 24.805C495.42 34.1 509.83 33.66 509.83 39.325C509.83 42.075 507.245 43.23 504.88 43.23C502.9 43.23 500.59 42.075 500.59 39.82C500.59 38.5 501.525 37.51 502.845 37.51C502.405 35.31 500.755 33.055 498.28 33.055C495.695 33.055 494.32 35.09 494.32 37.51C494.32 42.68 500.755 44.55 504.88 44.55ZM494.54 44C492.065 42.625 491.79 39.05 491.79 36.52V17.435C487.335 20.02 485.795 20.68 480.68 21.505C482.605 23.815 483.76 25.575 483.76 28.71V36.52C483.76 38.995 483.32 42.625 480.955 44H494.54ZM547.521 3.135C550.931 3.135 553.791 5.335 553.791 8.91C553.791 9.625 553.626 11.11 552.581 11.165C553.351 13.695 555.056 15.95 557.916 15.95C560.501 15.95 562.041 14.08 562.041 11.605C562.041 4.895 554.341 1.76 548.731 1.76C536.576 1.76 528.986 12.265 528.986 23.705C528.986 35.2 536.246 44.55 548.236 44.55C555.936 44.55 561.161 40.755 562.811 33.22L562.371 32.89C559.731 35.75 556.101 36.905 552.306 36.905C541.911 36.905 536.411 28.655 536.411 18.975C536.411 12.375 539.601 3.135 547.521 3.135ZM566.743 36.52C566.743 38.995 566.303 42.625 563.938 44H577.523C575.048 42.625 574.773 39.05 574.773 36.52V25.96C574.773 23.705 576.203 21.065 578.733 21.065C581.428 21.065 582.198 23.705 582.198 25.96V36.52C582.198 38.995 581.813 42.625 579.448 44H593.033C590.613 42.625 590.228 39.05 590.228 36.52V25.74C590.228 21.175 587.808 16.995 582.858 16.995C582.198 16.995 575.268 21.12 574.773 21.835V5.005C571.198 7.04 567.733 8.415 563.663 9.075C565.588 11.385 566.743 13.145 566.743 16.28V36.52ZM598.048 28.82C601.128 28.82 603.108 26.345 603.933 23.65C602.668 23.65 601.788 22.99 601.788 21.67C601.788 20.24 602.888 18.315 604.483 18.315C607.783 18.315 607.068 25.19 607.068 27.335C602.338 29.15 593.483 32.395 593.483 38.555C593.483 47.575 603.438 49.5 610.588 49.5C618.178 49.5 629.288 47.025 629.288 37.455V28.71C629.288 27.5 629.233 26.18 629.288 24.97C629.343 23.045 631.158 21.065 633.138 21.065C635.833 21.065 636.603 23.705 636.603 25.96V36.52C636.603 38.995 636.218 42.625 633.853 44H647.438C645.018 42.625 644.633 39.05 644.633 36.52V25.74C644.633 21.175 642.213 16.995 637.263 16.995C636.603 16.995 629.948 20.955 629.288 21.67V17.435C624.833 19.965 623.293 20.68 618.178 21.505C620.103 23.815 621.258 25.575 621.258 28.71V37.07C621.258 43.175 617.903 48.015 611.468 48.015C605.693 48.015 601.568 44.22 601.568 38.335C601.568 34.1 603.383 30.8 607.068 28.71V40.205C607.068 42.9 609.983 44.55 612.403 44.55C614.823 44.55 616.033 43.67 617.903 42.295V41.745C617.573 41.965 617.188 42.075 616.803 42.075C615.263 42.075 615.098 39.71 615.098 38.665V26.015C615.098 20.13 610.753 16.995 605.143 16.995C600.523 16.995 594.473 19.14 594.473 24.64C594.473 26.785 595.738 28.82 598.048 28.82ZM664.227 43.725C657.682 43.615 656.142 35.97 656.142 30.745C656.142 28.16 657.132 18.315 660.982 18.315C665.492 18.315 666.152 27.225 666.152 30.305C666.152 32.78 665.492 42.68 661.697 42.68C669.067 42.68 674.457 38.5 674.457 30.8C674.457 25.96 672.092 21.56 668.352 19.085C670.057 16.83 672.917 14.52 675.887 14.52C677.537 14.52 678.912 15.29 679.902 16.555C683.312 16.555 686.062 14.245 686.062 10.725C686.062 7.48 683.532 5.225 680.342 5.225C674.237 5.225 669.672 13.585 667.307 18.48C665.492 17.545 663.457 16.995 661.202 16.995C653.557 16.995 647.892 23.32 647.892 30.8C647.892 37.015 651.797 42.24 657.737 44C659.222 44.44 660.597 44.495 662.137 44.605C663.127 44.66 666.317 44.55 666.317 46.09C666.317 47.245 664.722 47.245 663.952 47.245C660.927 47.245 657.957 46.64 654.932 46.64C651.247 46.64 647.452 48.62 647.452 52.745C647.452 55.77 649.707 57.86 652.677 57.86C652.567 57.475 652.457 57.035 652.457 56.595C652.457 53.955 655.537 54.065 657.462 54.065C661.862 54.065 666.317 54.175 670.717 54.175C673.247 54.175 675.502 51.92 675.502 49.39C675.502 44.22 669.287 43.725 665.437 43.725H664.227ZM689.252 44C686.777 42.625 686.502 39.05 686.502 36.52V17.435C682.047 20.02 680.507 20.68 675.392 21.505C677.317 23.815 678.472 25.575 678.472 28.71V36.52C678.472 38.995 678.032 42.625 675.667 44H689.252ZM731.919 16.995C725.924 16.995 718.719 19.965 718.719 26.95C718.719 32.56 723.229 35.585 728.124 36.575C724.274 36.63 718.224 37.18 718.224 42.185C718.224 44.715 720.479 46.97 723.009 46.97H738.519C738.574 53.35 732.744 56.485 727.024 56.485C721.029 56.485 715.694 52.965 715.694 46.53V25.74C715.694 21.175 713.274 16.995 708.324 16.995C707.664 16.995 701.394 20.735 700.349 21.725V17.435C695.894 20.02 694.354 20.68 689.239 21.505C691.164 23.815 692.319 25.575 692.319 28.71V36.52C692.319 38.995 691.879 42.625 689.514 44H703.099C700.624 42.625 700.349 39.05 700.349 36.52V24.97C700.734 22.935 701.944 21.065 704.199 21.065C706.894 21.065 707.664 23.705 707.664 25.96V46.42C707.664 55.22 719.654 57.64 726.419 57.805H726.969C736.044 57.805 746.549 55.055 746.549 44C746.549 41.305 744.569 40.04 742.039 40.04H729.609C728.839 40.04 727.409 39.985 727.409 38.885C727.409 37.565 729.829 37.125 731.644 36.96C737.804 36.96 745.009 34.21 745.009 26.95C745.009 21.285 740.334 18.26 735.384 17.325C736.209 16.555 737.199 16.005 738.519 16.005C739.729 16.005 740.829 16.61 741.269 17.765C741.544 17.82 741.929 17.875 742.204 17.875C744.569 17.875 746.714 16.445 746.714 13.915C746.714 11.715 744.954 10.34 742.809 10.34C738.959 10.34 736.209 13.86 734.284 17.16C733.459 17.05 732.689 16.995 731.919 16.995ZM733.679 35.475C728.729 35.475 726.309 27.72 726.309 23.76C726.309 21.615 726.914 18.59 729.609 18.59C734.779 18.59 737.364 25.63 737.364 29.92C737.364 32.285 736.594 35.475 733.679 35.475ZM768.774 10.56H767.949C766.134 15.565 763.219 17.435 758.049 17.93V18.755H760.744V37.125C760.744 41.14 762.559 44.55 766.959 44.55C769.984 44.55 773.064 43.065 775.264 41.03V40.48C774.384 40.975 773.339 41.195 772.349 41.195C770.479 41.195 768.774 40.37 768.774 38.225V18.755H774.494V17.435H768.774V10.56ZM777.559 36.52C777.559 38.995 777.119 42.625 774.754 44H788.339C785.864 42.625 785.589 39.05 785.589 36.52V25.96C785.589 23.705 787.019 21.065 789.549 21.065C792.244 21.065 793.014 23.705 793.014 25.96V36.52C793.014 38.995 792.629 42.625 790.264 44H803.849C801.429 42.625 801.044 39.05 801.044 36.52V25.74C801.044 21.175 798.624 16.995 793.674 16.995C793.014 16.995 786.084 21.12 785.589 21.835V5.005C782.014 7.04 778.549 8.415 774.479 9.075C776.404 11.385 777.559 13.145 777.559 16.28V36.52ZM827.906 29.865V28.545C827.906 21.45 823.341 16.995 816.246 16.995C808.436 16.995 803.761 23.65 803.761 30.965C803.761 38.555 809.261 44.55 816.961 44.55C822.406 44.55 825.486 42.185 828.016 37.62L827.576 37.29C826.421 38.445 823.011 38.83 821.471 38.83C816.136 38.83 813.166 35.09 812.121 30.525L827.906 29.865ZM820.536 24.145C820.536 26.84 818.721 28.16 816.246 28.545C814.761 28.765 813.331 28.985 811.846 29.15C811.736 28.325 811.681 27.5 811.681 26.675C811.681 24.42 812.506 18.315 815.696 18.315C818.501 18.315 820.536 21.615 820.536 24.145ZM854.101 44C851.626 42.57 851.296 39.105 851.296 36.52V23.54C859.051 23.54 863.121 23.54 864.771 32.23V15.29C863.506 19.8 861.911 21.45 857.181 21.945C855.201 22.165 853.276 22.22 851.296 22.22V3.63H854.596C862.186 3.63 866.641 8.58 869.116 15.235L868.181 2.31H840.461C842.881 3.685 843.266 7.26 843.266 9.79V36.52C843.266 39.105 842.936 42.57 840.461 44H854.101ZM892.044 41.745C891.714 41.965 891.329 42.075 890.944 42.075C889.404 42.075 889.239 39.71 889.239 38.665V26.015C889.239 20.13 884.894 16.995 879.284 16.995C874.664 16.995 868.614 19.14 868.614 24.64C868.614 26.785 869.879 28.82 872.189 28.82C875.269 28.82 877.249 26.345 878.074 23.65C876.809 23.65 875.929 22.99 875.929 21.67C875.929 20.24 877.029 18.315 878.624 18.315C881.484 18.315 881.209 23.155 881.209 25.025V26.785C877.689 30.635 867.624 32.945 867.624 38.665C867.624 42.79 870.374 44.55 874.224 44.55C877.359 44.55 879.779 43.45 881.484 41.525C882.254 43.395 884.564 44.55 886.544 44.55C889.019 44.55 890.174 43.67 892.044 42.295V41.745ZM881.209 40.37C880.659 40.7 879.944 40.92 879.064 40.92C876.259 40.92 875.709 38.5 875.709 36.19C875.709 33 879.119 30.635 881.209 28.71V40.37ZM904.831 26.015C905.766 29.095 907.581 31.13 910.936 31.13C913.906 31.13 915.611 29.205 915.611 26.345C915.611 20.295 909.561 16.995 904.171 16.995C896.361 16.995 891.686 23.65 891.686 30.965C891.686 38.555 897.186 44.55 904.886 44.55C910.111 44.55 914.071 42.185 916.601 37.62L916.161 37.29C915.006 38.445 911.596 38.83 910.056 38.83C903.016 38.83 899.881 32.34 899.881 26.125C899.881 23.98 900.541 18.315 903.621 18.315C906.096 18.315 908.516 20.735 908.516 23.21C908.516 25.3 906.646 26.015 904.831 26.015ZM941.183 29.865V28.545C941.183 21.45 936.618 16.995 929.523 16.995C921.713 16.995 917.038 23.65 917.038 30.965C917.038 38.555 922.538 44.55 930.238 44.55C935.683 44.55 938.763 42.185 941.293 37.62L940.853 37.29C939.698 38.445 936.288 38.83 934.748 38.83C929.413 38.83 926.443 35.09 925.398 30.525L941.183 29.865ZM933.813 24.145C933.813 26.84 931.998 28.16 929.523 28.545C928.038 28.765 926.608 28.985 925.123 29.15C925.013 28.325 924.958 27.5 924.958 26.675C924.958 24.42 925.783 18.315 928.973 18.315C931.778 18.315 933.813 21.615 933.813 24.145ZM966.388 16.995C958.743 16.995 953.078 23.32 953.078 30.8C953.078 38.335 958.743 44.55 966.388 44.55C974.033 44.55 979.643 38.28 979.643 30.8C979.643 23.32 974.033 16.995 966.388 16.995ZM968.148 43.065C962.648 43.065 960.778 29.975 960.778 26.07C960.778 24.035 961.053 18.59 964.078 18.59C969.963 18.59 971.833 30.8 971.833 35.035C971.833 37.29 971.448 43.065 968.148 43.065ZM994.232 5.61C986.972 5.61 982.957 10.45 982.957 17.435H979.822V18.755H982.847V36.52C982.847 38.995 982.407 42.625 980.042 44H993.627C991.152 42.625 990.877 39.05 990.877 36.52V18.755H997.147V17.435C993.517 17.435 988.347 16.17 988.347 11.605C988.347 9.35 989.997 7.04 992.417 7.04C993.847 7.04 994.947 7.92 994.947 9.405C994.947 10.78 993.957 11.715 992.582 11.715C993.242 13.805 994.837 15.62 997.147 15.62C999.677 15.62 1001.6 13.805 1001.6 11.22C1001.6 7.26 997.642 5.61 994.232 5.61ZM17.37 80.615C22.65 80.615 26.83 77.205 26.83 71.76C26.83 64.885 20.725 61.31 14.455 61.31H0.1C2.575 62.74 2.905 66.205 2.905 68.79V95.52C2.905 98.05 2.52 101.57 0.1 103H18.8C25.125 103 29.525 97.17 29.525 91.175C29.525 84.08 23.97 80.615 17.37 80.615ZM10.935 79.955V62.63H11.76C16.6 62.63 19.185 66.755 19.185 71.21C19.185 76.49 16.27 79.955 10.935 79.955ZM10.935 101.68V81.275H11.76C17.755 81.275 21.825 85.675 21.825 91.56C21.825 98.215 17.26 101.68 10.935 101.68ZM35.3722 87.82C38.4522 87.82 40.4322 85.345 41.2572 82.65C39.9922 82.65 39.1122 81.99 39.1122 80.67C39.1122 79.24 40.2122 77.315 41.8072 77.315C45.1072 77.315 44.3922 84.19 44.3922 86.335C39.6622 88.15 30.8072 91.395 30.8072 97.555C30.8072 106.575 40.7622 108.5 47.9122 108.5C55.5022 108.5 66.6122 106.025 66.6122 96.455V87.71C66.6122 86.5 66.5572 85.18 66.6122 83.97C66.6672 82.045 68.4822 80.065 70.4622 80.065C73.1572 80.065 73.9272 82.705 73.9272 84.96V95.52C73.9272 97.995 73.5422 101.625 71.1772 103H84.7622C82.3422 101.625 81.9572 98.05 81.9572 95.52V84.74C81.9572 80.175 79.5372 75.995 74.5872 75.995C73.9272 75.995 67.2722 79.955 66.6122 80.67V76.435C62.1572 78.965 60.6172 79.68 55.5022 80.505C57.4272 82.815 58.5822 84.575 58.5822 87.71V96.07C58.5822 102.175 55.2272 107.015 48.7922 107.015C43.0172 107.015 38.8922 103.22 38.8922 97.335C38.8922 93.1 40.7072 89.8 44.3922 87.71V99.205C44.3922 101.9 47.3072 103.55 49.7272 103.55C52.1472 103.55 53.3572 102.67 55.2272 101.295V100.745C54.8972 100.965 54.5122 101.075 54.1272 101.075C52.5872 101.075 52.4222 98.71 52.4222 97.665V85.015C52.4222 79.13 48.0772 75.995 42.4672 75.995C37.8472 75.995 31.7972 78.14 31.7972 83.64C31.7972 85.785 33.0622 87.82 35.3722 87.82ZM123.991 76.435C119.536 79.02 117.996 79.68 112.881 80.505C114.806 82.815 115.961 84.575 115.961 87.71V95.52C115.961 97.555 115.686 100.36 114.256 102.065C108.866 97.885 103.641 87.545 100.671 81.99C102.321 77.095 109.691 73.355 114.641 73.355C116.401 73.355 118.381 73.85 119.206 75.61C122.341 75.61 124.761 73.025 124.761 69.945C124.761 66.865 122.396 65.16 119.481 65.16C110.736 65.16 98.7464 79.68 95.8314 87.27V64.06C91.4314 66.59 89.8364 67.25 84.7764 68.075C86.7014 70.385 87.8564 72.2 87.8564 75.28V95.52C87.8564 97.995 87.3614 101.625 84.9964 103H98.6364C96.1614 101.57 95.8314 98.05 95.8314 95.52V88.975L103.586 103H126.741C124.266 101.625 123.991 98.05 123.991 95.52V76.435ZM169.405 75.995C163.41 75.995 156.205 78.965 156.205 85.95C156.205 91.56 160.715 94.585 165.61 95.575C161.76 95.63 155.71 96.18 155.71 101.185C155.71 103.715 157.965 105.97 160.495 105.97H176.005C176.06 112.35 170.23 115.485 164.51 115.485C158.515 115.485 153.18 111.965 153.18 105.53V84.74C153.18 80.175 150.76 75.995 145.81 75.995C145.15 75.995 138.88 79.735 137.835 80.725V76.435C133.38 79.02 131.84 79.68 126.725 80.505C128.65 82.815 129.805 84.575 129.805 87.71V95.52C129.805 97.995 129.365 101.625 127 103H140.585C138.11 101.625 137.835 98.05 137.835 95.52V83.97C138.22 81.935 139.43 80.065 141.685 80.065C144.38 80.065 145.15 82.705 145.15 84.96V105.42C145.15 114.22 157.14 116.64 163.905 116.805H164.455C173.53 116.805 184.035 114.055 184.035 103C184.035 100.305 182.055 99.04 179.525 99.04H167.095C166.325 99.04 164.895 98.985 164.895 97.885C164.895 96.565 167.315 96.125 169.13 95.96C175.29 95.96 182.495 93.21 182.495 85.95C182.495 80.285 177.82 77.26 172.87 76.325C173.695 75.555 174.685 75.005 176.005 75.005C177.215 75.005 178.315 75.61 178.755 76.765C179.03 76.82 179.415 76.875 179.69 76.875C182.055 76.875 184.2 75.445 184.2 72.915C184.2 70.715 182.44 69.34 180.295 69.34C176.445 69.34 173.695 72.86 171.77 76.16C170.945 76.05 170.175 75.995 169.405 75.995ZM171.165 94.475C166.215 94.475 163.795 86.72 163.795 82.76C163.795 80.615 164.4 77.59 167.095 77.59C172.265 77.59 174.85 84.63 174.85 88.92C174.85 91.285 174.08 94.475 171.165 94.475ZM212.2 87.71V95.52C212.2 97.995 211.76 101.625 209.395 103H222.98C220.505 101.625 220.23 98.05 220.23 95.52V83.97C220.23 82.1 222.155 80.065 224.08 80.065C226.775 80.065 227.545 82.705 227.545 84.96V95.52C227.545 97.995 227.16 101.625 224.795 103H238.38C235.96 101.625 235.575 98.05 235.575 95.52V84.74C235.575 80.175 233.155 75.995 228.205 75.995C227.545 75.995 220.89 79.955 220.23 80.67V76.435C220.945 75.28 221.275 73.905 221.275 72.53C221.275 66.095 215.39 63.125 209.67 63.125C204.885 63.125 197.845 65.325 197.845 71.155C197.845 73.355 199.66 75.17 201.86 75.17C204.06 75.17 205.875 73.355 205.875 71.155C205.875 68.955 204.06 67.14 201.86 67.14C203.51 65.16 206.37 64.39 208.9 64.39C213.465 64.39 218.085 67.25 218.085 72.2C218.085 77.15 213.41 79.79 209.12 80.505C211.045 82.815 212.2 84.575 212.2 87.71ZM195.26 80.505C197.185 82.815 198.34 84.575 198.34 87.71V95.52C198.34 97.995 197.9 101.625 195.535 103H209.12C206.645 101.625 206.37 98.05 206.37 95.52V76.435C201.915 79.02 200.375 79.68 195.26 80.505ZM258.756 93.32C258.756 92.44 258.921 91.34 259.251 90.02C261.616 89.58 263.926 89.195 266.346 89.195C268.601 89.195 270.856 89.525 273.056 89.965L275.311 96.015C275.696 97.115 276.136 98.215 276.136 99.425C276.136 101.02 275.366 102.175 273.991 103H288.621C286.256 101.68 284.441 97.335 283.506 94.86L270.746 61.365H268.711L257.876 88.81C256.501 92.275 252.541 101.515 249.186 103H266.126C261.671 101.405 258.756 98.215 258.756 93.32ZM272.561 88.535C270.526 88.15 268.436 87.875 266.346 87.875C264.091 87.875 261.836 88.205 259.636 88.645C261.231 82.925 264.696 74.95 266.126 71.155L272.561 88.535ZM302.757 64.61C295.497 64.61 291.482 69.45 291.482 76.435H288.347V77.755H291.372V95.52C291.372 97.995 290.932 101.625 288.567 103H302.152C299.677 101.625 299.402 98.05 299.402 95.52V77.755H305.672V76.435C302.042 76.435 296.872 75.17 296.872 70.605C296.872 68.35 298.522 66.04 300.942 66.04C302.372 66.04 303.472 66.92 303.472 68.405C303.472 69.78 302.482 70.715 301.107 70.715C301.767 72.805 303.362 74.62 305.672 74.62C308.202 74.62 310.127 72.805 310.127 70.22C310.127 66.26 306.167 64.61 302.757 64.61ZM313.281 87.71V95.52C313.281 97.995 312.896 101.625 310.531 103H324.116C321.696 101.625 321.311 98.05 321.311 95.52V83.09C322.851 79.625 328.076 74.07 332.091 74.07C333.411 74.07 334.401 74.785 334.951 75.94C338.031 75.94 340.341 73.465 340.341 70.385C340.341 67.305 337.921 65.49 334.951 65.49C327.801 65.49 323.456 75.28 321.311 80.89V76.435C316.856 78.965 315.316 79.68 310.201 80.505C312.126 82.815 313.281 84.575 313.281 87.71ZM340.286 103C337.811 101.625 337.536 98.05 337.536 95.52V76.435C333.081 79.02 331.541 79.68 326.426 80.505C328.351 82.815 329.506 84.575 329.506 87.71V95.52C329.506 97.995 329.066 101.625 326.701 103H340.286ZM354.294 85.015C355.229 88.095 357.044 90.13 360.399 90.13C363.369 90.13 365.074 88.205 365.074 85.345C365.074 79.295 359.024 75.995 353.634 75.995C345.824 75.995 341.149 82.65 341.149 89.965C341.149 97.555 346.649 103.55 354.349 103.55C359.574 103.55 363.534 101.185 366.064 96.62L365.624 96.29C364.469 97.445 361.059 97.83 359.519 97.83C352.479 97.83 349.344 91.34 349.344 85.125C349.344 82.98 350.004 77.315 353.084 77.315C355.559 77.315 357.979 79.735 357.979 82.21C357.979 84.3 356.109 85.015 354.294 85.015ZM391.458 100.745C391.128 100.965 390.743 101.075 390.358 101.075C388.818 101.075 388.653 98.71 388.653 97.665V85.015C388.653 79.13 384.308 75.995 378.698 75.995C374.078 75.995 368.028 78.14 368.028 83.64C368.028 85.785 369.293 87.82 371.603 87.82C374.683 87.82 376.663 85.345 377.488 82.65C376.223 82.65 375.343 81.99 375.343 80.67C375.343 79.24 376.443 77.315 378.038 77.315C380.898 77.315 380.623 82.155 380.623 84.025V85.785C377.103 89.635 367.038 91.945 367.038 97.665C367.038 101.79 369.788 103.55 373.638 103.55C376.773 103.55 379.193 102.45 380.898 100.525C381.668 102.395 383.978 103.55 385.958 103.55C388.433 103.55 389.588 102.67 391.458 101.295V100.745ZM380.623 99.37C380.073 99.7 379.358 99.92 378.478 99.92C375.673 99.92 375.123 97.5 375.123 95.19C375.123 92 378.533 89.635 380.623 87.71V99.37Z" fill="black"/>
</svg>
