<svg width="28" height="28" viewBox="0 0 28 28" fill="none" xmlns="http://www.w3.org/2000/svg">
<path d="M13.8607 17.4877C13.639 17.4877 13.4174 17.406 13.2424 17.231L10.2557 14.2443C9.91737 13.906 9.91737 13.346 10.2557 13.0077C10.594 12.6693 11.154 12.6693 11.4924 13.0077L13.8607 15.376L16.229 13.0077C16.5674 12.6693 17.1274 12.6693 17.4657 13.0077C17.804 13.346 17.804 13.906 17.4657 14.2443L14.479 17.231C14.304 17.406 14.0824 17.4877 13.8607 17.4877Z" fill="url(#paint0_linear_2269_36704)"/>
<path d="M13.8604 17.408C13.382 17.408 12.9854 17.0113 12.9854 16.533V4.66797C12.9854 4.18964 13.382 3.79297 13.8604 3.79297C14.3387 3.79297 14.7354 4.18964 14.7354 4.66797V16.533C14.7354 17.0113 14.3387 17.408 13.8604 17.408Z" fill="url(#paint1_linear_2269_36704)"/>
<path d="M14.0003 24.4193C7.99199 24.4193 3.79199 20.2193 3.79199 14.2109C3.79199 13.7326 4.18866 13.3359 4.66699 13.3359C5.14533 13.3359 5.54199 13.7326 5.54199 14.2109C5.54199 19.1926 9.01866 22.6693 14.0003 22.6693C18.982 22.6693 22.4587 19.1926 22.4587 14.2109C22.4587 13.7326 22.8553 13.3359 23.3337 13.3359C23.812 13.3359 24.2087 13.7326 24.2087 14.2109C24.2087 20.2193 20.0087 24.4193 14.0003 24.4193Z" fill="url(#paint2_linear_2269_36704)"/>
<defs>
<linearGradient id="paint0_linear_2269_36704" x1="10.3958" y1="12.5013" x2="17.7902" y2="12.881" gradientUnits="userSpaceOnUse">
<stop stop-color="#0C6B8A"/>
<stop offset="1" stop-color="#FFCC00"/>
</linearGradient>
<linearGradient id="paint1_linear_2269_36704" x1="13.0747" y1="3.06649" x2="14.7558" y2="3.07329" gradientUnits="userSpaceOnUse">
<stop stop-color="#0C6B8A"/>
<stop offset="1" stop-color="#FFCC00"/>
</linearGradient>
<linearGradient id="paint2_linear_2269_36704" x1="4.83395" y1="12.7445" x2="24.3816" y2="13.8786" gradientUnits="userSpaceOnUse">
<stop stop-color="#0C6B8A"/>
<stop offset="1" stop-color="#FFCC00"/>
</linearGradient>
</defs>
</svg>
