<svg width="30" height="30" viewBox="0 0 30 30" fill="none" xmlns="http://www.w3.org/2000/svg">
<g clip-path="url(#clip0_1592_24668)">
<path d="M23.1113 15C23.1113 23.0081 16.6195 29.5 8.61133 29.5C0.603199 29.5 -5.88867 23.0081 -5.88867 15C-5.88867 6.99187 0.603199 0.5 8.61133 0.5C16.6195 0.5 23.1113 6.99187 23.1113 15Z" stroke="black"/>
<path d="M9.38227 7.50092C9.92957 7.49882 10.4769 7.50432 11.024 7.51742L11.1695 7.52267C11.3375 7.52867 11.5033 7.53617 11.7035 7.54517C12.5015 7.58267 13.046 7.70867 13.5238 7.89392C14.0188 8.08442 14.4358 8.34242 14.8528 8.75942C15.2341 9.13413 15.5291 9.58738 15.7175 10.0877C15.9028 10.5654 16.0288 11.1107 16.0663 11.9087C16.0753 12.1082 16.0828 12.2747 16.0888 12.4427L16.0933 12.5882C16.1066 13.1351 16.1123 13.6821 16.1105 14.2292L16.1113 14.7887V15.7712C16.1131 16.3185 16.1074 16.8658 16.094 17.4129L16.0895 17.5584C16.0835 17.7264 16.076 17.8922 16.067 18.0924C16.0295 18.8904 15.902 19.4349 15.7175 19.9127C15.5298 20.4135 15.2346 20.8671 14.8528 21.2417C14.4777 21.6229 14.0243 21.918 13.5238 22.1064C13.046 22.2917 12.5015 22.4177 11.7035 22.4552C11.5033 22.4642 11.3375 22.4717 11.1695 22.4777L11.024 22.4822C10.4769 22.4955 9.92958 22.5013 9.38227 22.4994L8.82277 22.5002H7.84102C7.29372 22.502 6.74642 22.4963 6.19927 22.4829L6.05377 22.4784C5.87573 22.472 5.69773 22.4645 5.51977 22.4559C4.72177 22.4184 4.17727 22.2909 3.69877 22.1064C3.19829 21.9184 2.74495 21.6233 2.37052 21.2417C1.98881 20.8669 1.69344 20.4133 1.50502 19.9127C1.31977 19.4349 1.19377 18.8904 1.15627 18.0924C1.14792 17.9145 1.14042 17.7365 1.13377 17.5584L1.13002 17.4129C1.1162 16.8658 1.10994 16.3185 1.11127 15.7712V14.2292C1.10918 13.6821 1.11468 13.1351 1.12777 12.5882L1.13302 12.4427C1.13902 12.2747 1.14652 12.1082 1.15552 11.9087C1.19302 11.1099 1.31902 10.5662 1.50427 10.0877C1.6928 9.58714 1.98875 9.13401 2.37127 8.76017C2.74544 8.37824 3.19849 8.0826 3.69877 7.89392C4.17727 7.70867 4.72102 7.58267 5.51977 7.54517L6.05377 7.52267L6.19927 7.51892C6.74616 7.5051 7.29321 7.49885 7.84027 7.50017L9.38227 7.50092ZM8.61127 11.2509C8.1144 11.2439 7.62109 11.3357 7.16001 11.521C6.69892 11.7063 6.27926 11.9813 5.92541 12.3302C5.57156 12.6791 5.29057 13.0948 5.09879 13.5532C4.907 14.0117 4.80824 14.5036 4.80824 15.0005C4.80824 15.4975 4.907 15.9894 5.09879 16.4479C5.29057 16.9063 5.57156 17.322 5.92541 17.6709C6.27926 18.0198 6.69892 18.2948 7.16001 18.4801C7.62109 18.6654 8.1144 18.7572 8.61127 18.7502C9.60583 18.7502 10.5597 18.3551 11.2629 17.6518C11.9662 16.9486 12.3613 15.9947 12.3613 15.0002C12.3613 14.0056 11.9662 13.0518 11.2629 12.3485C10.5597 11.6453 9.60583 11.2509 8.61127 11.2509ZM8.61127 12.7509C8.91015 12.7454 9.20713 12.7995 9.48487 12.9101C9.7626 13.0206 10.0155 13.1854 10.2289 13.3948C10.4422 13.6042 10.6117 13.854 10.7274 14.1297C10.8431 14.4053 10.9027 14.7012 10.9027 15.0002C10.9028 15.2991 10.8433 15.595 10.7276 15.8707C10.612 16.1464 10.4427 16.3963 10.2294 16.6057C10.0161 16.8152 9.76326 16.9801 9.48557 17.0907C9.20787 17.2014 8.9109 17.2556 8.61202 17.2502C8.01529 17.2502 7.44299 17.0131 7.02103 16.5912C6.59908 16.1692 6.36202 15.5969 6.36202 15.0002C6.36202 14.4034 6.59908 13.8311 7.02103 13.4092C7.44299 12.9872 8.01529 12.7502 8.61202 12.7502L8.61127 12.7509ZM12.5488 10.1259C12.3068 10.1356 12.078 10.2385 11.9102 10.4132C11.7425 10.5878 11.6488 10.8205 11.6488 11.0627C11.6488 11.3048 11.7425 11.5376 11.9102 11.7122C12.078 11.8868 12.3068 11.9897 12.5488 11.9994C12.7974 11.9994 13.0359 11.9007 13.2117 11.7248C13.3875 11.549 13.4863 11.3106 13.4863 11.0619C13.4863 10.8133 13.3875 10.5748 13.2117 10.399C13.0359 10.2232 12.7974 10.1244 12.5488 10.1244V10.1259Z" fill="black"/>
</g>
<defs>
<clipPath id="clip0_1592_24668">
<rect width="30" height="30" fill="white"/>
</clipPath>
</defs>
</svg>
