<svg width="545" height="98" viewBox="0 0 545 98" fill="none" xmlns="http://www.w3.org/2000/svg">
<path d="M14.105 71.9217C14.105 72.6584 14.1483 73.4601 14.235 74.3267C14.3217 75.1934 14.4733 76.0384 14.69 76.8617C14.9067 77.6851 15.2317 78.4434 15.665 79.1367C16.1417 79.8301 16.7267 80.3717 17.42 80.7617H1.3C2.03667 80.3717 2.62167 79.8301 3.055 79.1367C3.48833 78.4434 3.81333 77.6851 4.03 76.8617C4.24667 76.0384 4.39833 75.1934 4.485 74.3267C4.57167 73.4601 4.615 72.6584 4.615 71.9217V40.3317C4.615 39.5517 4.57167 38.75 4.485 37.9267C4.44167 37.0601 4.29 36.2151 4.03 35.3917C3.81333 34.5684 3.48833 33.8317 3.055 33.1817C2.62167 32.4884 2.03667 31.9251 1.3 31.4917H17.42C16.7267 31.9251 16.1417 32.4884 15.665 33.1817C15.2317 33.8751 14.9067 34.6334 14.69 35.4567C14.4733 36.2367 14.3217 37.0601 14.235 37.9267C14.1483 38.7934 14.105 39.595 14.105 40.3317V71.9217ZM35.1056 80.7617H19.0506C19.7439 80.3717 20.3073 79.8301 20.7406 79.1367C21.1739 78.4001 21.4989 77.6417 21.7156 76.8617C21.9756 76.0384 22.1489 75.1934 22.2356 74.3267C22.3223 73.4601 22.3656 72.6584 22.3656 71.9217V62.6917C22.3656 61.7817 22.2789 60.9584 22.1056 60.2217C21.9323 59.4417 21.6939 58.7267 21.3906 58.0767C21.0873 57.4267 20.6973 56.7984 20.2206 56.1917C19.7873 55.5417 19.2889 54.8701 18.7256 54.1767C20.2423 53.9167 21.5206 53.6784 22.5606 53.4617C23.6439 53.2017 24.6406 52.8984 25.5506 52.5517C26.5039 52.2051 27.4573 51.7934 28.4106 51.3167C29.4073 50.7967 30.5556 50.1467 31.8556 49.3667V54.4367C32.1589 54.1334 32.7873 53.6784 33.7406 53.0717C34.6939 52.4651 35.6906 51.8584 36.7306 51.2517C37.8139 50.6017 38.7889 50.0384 39.6556 49.5617C40.5656 49.0851 41.1073 48.8467 41.2806 48.8467C42.7539 48.8467 44.0323 49.1284 45.1156 49.6917C46.1989 50.2551 47.0873 51.0134 47.7806 51.9667C48.5173 52.9201 49.0589 54.0251 49.4056 55.2817C49.7956 56.5384 49.9906 57.8384 49.9906 59.1817V71.9217C49.9906 72.6584 50.0339 73.4601 50.1206 74.3267C50.2073 75.1934 50.3589 76.0384 50.5756 76.8617C50.7923 77.6851 51.1173 78.4434 51.5506 79.1367C52.0273 79.8301 52.6123 80.3717 53.3056 80.7617H37.2506C37.9439 80.3717 38.5073 79.8301 38.9406 79.1367C39.3739 78.4001 39.6989 77.6417 39.9156 76.8617C40.1323 76.0384 40.2839 75.1934 40.3706 74.3267C40.4573 73.4601 40.5006 72.6584 40.5006 71.9217V59.4417C40.5006 58.7917 40.4356 58.1201 40.3056 57.4267C40.1756 56.7334 39.9589 56.1051 39.6556 55.5417C39.3523 54.9784 38.9189 54.5234 38.3556 54.1767C37.8356 53.8301 37.1856 53.6567 36.4056 53.6567C35.0623 53.6567 34.0223 54.1334 33.2856 55.0867C32.5489 55.9967 32.0723 57.0584 31.8556 58.2717V71.9217C31.8556 72.6584 31.8773 73.4601 31.9206 74.3267C32.0073 75.1934 32.1589 76.0384 32.3756 76.8617C32.5923 77.6851 32.9173 78.4434 33.3506 79.1367C33.7839 79.8301 34.3689 80.3717 35.1056 80.7617ZM85.1332 49.3667C84.1366 49.8001 83.1616 50.7317 82.2082 52.1617C81.2982 53.5917 80.4316 55.1734 79.6082 56.9067C78.8282 58.5967 78.1132 60.3084 77.4632 62.0417C76.8132 63.7317 76.2932 65.0967 75.9032 66.1367L70.0532 80.7617H64.5282L58.6132 66.0067C58.2232 65.0101 57.7032 63.6667 57.0532 61.9767C56.4032 60.2867 55.6882 58.5751 54.9082 56.8417C54.1282 55.1084 53.2616 53.5484 52.3082 52.1617C51.3982 50.7317 50.4449 49.8001 49.4482 49.3667H67.3882C66.3049 49.7134 65.5032 50.3634 64.9832 51.3167C64.4632 52.2701 64.2032 53.3101 64.2032 54.4367C64.2032 55.3467 64.4849 56.6901 65.0482 58.4667C65.6116 60.2434 66.2616 62.1067 66.9982 64.0567C67.7782 66.0067 68.5366 67.8917 69.2732 69.7117C70.0532 71.4884 70.6599 72.8751 71.0932 73.8717C71.5699 72.6584 72.0682 71.4017 72.5882 70.1017C73.1516 68.7584 73.6499 67.4151 74.0832 66.0717C74.5599 64.6851 74.9499 63.2984 75.2532 61.9117C75.5566 60.5251 75.7082 59.1817 75.7082 57.8817C75.7082 55.8017 75.2532 54.0467 74.3432 52.6167C73.4332 51.1867 72.0032 50.1034 70.0532 49.3667H85.1332ZM92.2848 64.8367C92.5881 66.1801 93.0431 67.4584 93.6498 68.6717C94.2564 69.8417 95.0148 70.8817 95.9248 71.7917C96.8348 72.6584 97.8964 73.3517 99.1098 73.8717C100.366 74.3917 101.775 74.6517 103.335 74.6517C103.811 74.6517 104.375 74.6301 105.025 74.5867C105.718 74.5001 106.411 74.3917 107.105 74.2617C107.798 74.1317 108.448 73.9584 109.055 73.7417C109.705 73.4817 110.203 73.1784 110.55 72.8317L111.07 73.2217C109.596 75.9084 107.841 77.9451 105.805 79.3317C103.811 80.7184 101.211 81.4117 98.0048 81.4117C95.7514 81.4117 93.6498 81.0001 91.6998 80.1767C89.7931 79.3534 88.1464 78.2267 86.7598 76.7967C85.4164 75.3234 84.3548 73.6117 83.5748 71.6617C82.7948 69.7117 82.4048 67.6101 82.4048 65.3567C82.4048 63.1901 82.7298 61.1101 83.3798 59.1167C84.0731 57.1234 85.0481 55.3684 86.3048 53.8517C87.6048 52.3351 89.1648 51.1217 90.9848 50.2117C92.8048 49.3017 94.8631 48.8467 97.1598 48.8467C99.2398 48.8467 101.125 49.1717 102.815 49.8217C104.548 50.4284 106 51.3384 107.17 52.5517C108.383 53.7217 109.315 55.1517 109.965 56.8417C110.615 58.5317 110.94 60.4167 110.94 62.4967V64.0567L92.2848 64.8367ZM102.23 57.2967C102.23 56.5601 102.078 55.7801 101.775 54.9567C101.515 54.1334 101.125 53.3967 100.605 52.7467C100.085 52.0534 99.4781 51.4901 98.7848 51.0567C98.0914 50.6234 97.3331 50.4067 96.5098 50.4067C95.5564 50.4067 94.7764 50.7967 94.1698 51.5767C93.5631 52.3567 93.0864 53.2884 92.7398 54.3717C92.3931 55.4117 92.1331 56.4951 91.9598 57.6217C91.8298 58.7484 91.7648 59.6367 91.7648 60.2867C91.7648 61.2401 91.8298 62.2151 91.9598 63.2117C92.8264 63.1251 93.6931 63.0167 94.5598 62.8867C95.4264 62.7567 96.2931 62.6267 97.1598 62.4967C98.6331 62.2801 99.8464 61.7601 100.8 60.9367C101.753 60.1134 102.23 58.9001 102.23 57.2967ZM124.589 81.4117C123.375 81.4117 122.032 81.2601 120.559 80.9567C119.129 80.6534 117.785 80.1767 116.529 79.5267C115.272 78.8767 114.21 78.0317 113.344 76.9917C112.52 75.9084 112.109 74.6084 112.109 73.0917C112.109 71.6617 112.499 70.4267 113.279 69.3867C114.102 68.3467 115.272 67.8267 116.789 67.8267C118.262 67.8267 119.454 68.3901 120.364 69.5167C121.317 70.6001 121.924 71.7917 122.184 73.0917C121.404 73.0917 120.754 73.3517 120.234 73.8717C119.757 74.3917 119.519 75.0417 119.519 75.8217C119.519 76.4717 119.67 77.0567 119.974 77.5767C120.277 78.0967 120.667 78.5301 121.144 78.8767C121.664 79.1801 122.227 79.4184 122.834 79.5917C123.44 79.7651 124.025 79.8517 124.589 79.8517C125.282 79.8517 125.975 79.7651 126.669 79.5917C127.362 79.4184 127.99 79.1584 128.554 78.8117C129.117 78.4217 129.572 77.9451 129.919 77.3817C130.265 76.7751 130.439 76.0601 130.439 75.2367C130.439 74.1101 130.005 73.1784 129.139 72.4417C128.315 71.6617 127.275 70.9467 126.019 70.2967C124.762 69.6034 123.397 68.9317 121.924 68.2817C120.45 67.5884 119.085 66.8084 117.829 65.9417C116.572 65.0317 115.51 63.9484 114.644 62.6917C113.82 61.4351 113.409 59.8967 113.409 58.0767C113.409 56.6467 113.734 55.3901 114.384 54.3067C115.077 53.1801 115.944 52.2484 116.984 51.5117C118.067 50.7751 119.259 50.1901 120.559 49.7567C121.902 49.3234 123.224 49.0417 124.524 48.9117C123.96 47.8284 123.679 46.6151 123.679 45.2717C123.679 43.1917 124.134 41.415 125.044 39.9417C125.997 38.4684 127.21 37.2767 128.684 36.3667C130.2 35.4134 131.869 34.72 133.689 34.2867C135.552 33.8534 137.372 33.6367 139.149 33.6367C141.619 33.6367 143.655 33.8751 145.259 34.3517C146.905 34.785 148.205 35.5 149.159 36.4967C150.155 37.4934 150.849 38.815 151.239 40.4617C151.629 42.0651 151.824 44.0367 151.824 46.3767V49.3667H158.584V50.9267H151.824V73.9367C151.824 75.1934 152.235 76.1034 153.059 76.6667C153.925 77.1867 154.922 77.4467 156.049 77.4467C156.655 77.4467 157.24 77.3817 157.804 77.2517C158.41 77.1217 158.974 76.9051 159.494 76.6017V77.2517C158.194 78.4651 156.677 79.4617 154.944 80.2417C153.254 81.0217 151.499 81.4117 149.679 81.4117C148.379 81.4117 147.252 81.1734 146.299 80.6967C145.389 80.2201 144.63 79.5917 144.024 78.8117C143.46 77.9884 143.027 77.0567 142.724 76.0167C142.464 74.9334 142.334 73.8067 142.334 72.6367V50.9267H139.149V49.9517C140.232 49.8217 141.359 49.5617 142.529 49.1717C143.699 48.7817 144.76 48.2617 145.714 47.6117C146.71 46.9184 147.512 46.0951 148.119 45.1417C148.769 44.145 149.094 43.0184 149.094 41.7617C149.094 40.4617 148.769 39.3784 148.119 38.5117C147.469 37.6451 146.645 36.9517 145.649 36.4317C144.695 35.9117 143.634 35.5434 142.464 35.3267C141.294 35.11 140.189 35.0017 139.149 35.0017C137.892 35.0017 136.592 35.24 135.249 35.7167C133.905 36.1501 132.67 36.8 131.544 37.6667C130.46 38.49 129.55 39.4867 128.814 40.6567C128.12 41.7834 127.774 43.0617 127.774 44.4917C127.774 46.3984 128.38 47.9584 129.594 49.1717C130.677 49.3451 131.739 49.6484 132.779 50.0817C133.819 50.4717 134.75 50.9917 135.574 51.6417C136.397 52.2484 137.047 53.0067 137.524 53.9167C138.044 54.7834 138.304 55.8017 138.304 56.9717C138.304 58.3151 137.914 59.3767 137.134 60.1567C136.397 60.9367 135.357 61.3267 134.014 61.3267C132.627 61.3267 131.479 60.9151 130.569 60.0917C129.659 59.2684 129.009 58.2284 128.619 56.9717C129.355 56.9717 129.919 56.7551 130.309 56.3217C130.699 55.8451 130.894 55.2601 130.894 54.5667C130.894 53.2667 130.395 52.2484 129.399 51.5117C128.402 50.7751 127.297 50.4067 126.084 50.4067C124.654 50.4067 123.462 50.8617 122.509 51.7717C121.555 52.6384 121.079 53.7867 121.079 55.2167C121.079 56.3001 121.512 57.2317 122.379 58.0117C123.289 58.7917 124.394 59.5284 125.694 60.2217C127.037 60.8717 128.467 61.5217 129.984 62.1717C131.544 62.8217 132.974 63.6017 134.274 64.5117C135.617 65.4217 136.722 66.5051 137.589 67.7617C138.499 68.9751 138.954 70.4701 138.954 72.2467C138.954 74.0234 138.455 75.5184 137.459 76.7317C136.505 77.9017 135.314 78.8334 133.884 79.5267C132.454 80.2201 130.894 80.6967 129.204 80.9567C127.557 81.2601 126.019 81.4117 124.589 81.4117ZM190.579 55.0867C190.666 54.9134 190.947 54.6534 191.424 54.3067C191.944 53.9601 192.551 53.5484 193.244 53.0717C193.981 52.5951 194.739 52.1184 195.519 51.6417C196.342 51.1217 197.101 50.6667 197.794 50.2767C198.531 49.8434 199.159 49.4967 199.679 49.2367C200.199 48.9767 200.524 48.8467 200.654 48.8467C202.127 48.8467 203.406 49.1284 204.489 49.6917C205.572 50.2551 206.461 51.0134 207.154 51.9667C207.891 52.9201 208.432 54.0251 208.779 55.2817C209.169 56.5384 209.364 57.8384 209.364 59.1817V71.9217C209.364 72.6584 209.407 73.4601 209.494 74.3267C209.581 75.1934 209.732 76.0384 209.949 76.8617C210.166 77.6851 210.491 78.4434 210.924 79.1367C211.401 79.8301 211.986 80.3717 212.679 80.7617H196.624C197.317 80.3717 197.881 79.8301 198.314 79.1367C198.747 78.4001 199.072 77.6417 199.289 76.8617C199.506 76.0384 199.657 75.1934 199.744 74.3267C199.831 73.4601 199.874 72.6584 199.874 71.9217V59.4417C199.874 58.7917 199.809 58.1201 199.679 57.4267C199.549 56.7334 199.332 56.1051 199.029 55.5417C198.726 54.9784 198.292 54.5234 197.729 54.1767C197.209 53.8301 196.559 53.6567 195.779 53.6567C194.999 53.6567 194.327 53.8301 193.764 54.1767C193.201 54.5234 192.724 54.9784 192.334 55.5417C191.944 56.0617 191.641 56.6684 191.424 57.3617C191.251 58.0551 191.142 58.7484 191.099 59.4417V71.9217C191.099 72.6584 191.142 73.4601 191.229 74.3267C191.316 75.1934 191.467 76.0384 191.684 76.8617C191.901 77.6851 192.226 78.4434 192.659 79.1367C193.136 79.8301 193.721 80.3717 194.414 80.7617H178.359C179.052 80.3717 179.616 79.8301 180.049 79.1367C180.482 78.4001 180.807 77.6417 181.024 76.8617C181.241 76.0384 181.392 75.1934 181.479 74.3267C181.566 73.4601 181.609 72.6584 181.609 71.9217V59.4417C181.609 58.7917 181.544 58.1201 181.414 57.4267C181.284 56.7334 181.067 56.1051 180.764 55.5417C180.461 54.9784 180.027 54.5234 179.464 54.1767C178.944 53.8301 178.294 53.6567 177.514 53.6567C176.171 53.6567 175.131 54.1334 174.394 55.0867C173.657 55.9967 173.181 57.0584 172.964 58.2717V71.9217C172.964 72.6584 172.986 73.4601 173.029 74.3267C173.116 75.1934 173.267 76.0384 173.484 76.8617C173.701 77.6851 174.026 78.4434 174.459 79.1367C174.892 79.8301 175.477 80.3717 176.214 80.7617H160.159C160.852 80.3717 161.416 79.8301 161.849 79.1367C162.282 78.4001 162.607 77.6417 162.824 76.8617C163.084 76.0384 163.257 75.1934 163.344 74.3267C163.431 73.4601 163.474 72.6584 163.474 71.9217V62.6917C163.474 61.7817 163.387 60.9584 163.214 60.2217C163.041 59.4417 162.802 58.7267 162.499 58.0767C162.196 57.4267 161.806 56.7984 161.329 56.1917C160.896 55.5417 160.397 54.8701 159.834 54.1767C161.351 53.9167 162.629 53.6784 163.669 53.4617C164.752 53.2017 165.749 52.8984 166.659 52.5517C167.612 52.2051 168.566 51.7934 169.519 51.3167C170.516 50.7967 171.664 50.1467 172.964 49.3667V54.4367C173.267 54.1334 173.896 53.6784 174.849 53.0717C175.802 52.4651 176.799 51.8584 177.839 51.2517C178.922 50.6017 179.897 50.0384 180.764 49.5617C181.674 49.0851 182.216 48.8467 182.389 48.8467C184.642 48.8467 186.441 49.4967 187.784 50.7967C189.171 52.0534 190.124 53.6351 190.644 55.5417L190.579 55.0867ZM223.11 64.8367C223.413 66.1801 223.868 67.4584 224.475 68.6717C225.082 69.8417 225.84 70.8817 226.75 71.7917C227.66 72.6584 228.722 73.3517 229.935 73.8717C231.192 74.3917 232.6 74.6517 234.16 74.6517C234.637 74.6517 235.2 74.6301 235.85 74.5867C236.543 74.5001 237.237 74.3917 237.93 74.2617C238.623 74.1317 239.273 73.9584 239.88 73.7417C240.53 73.4817 241.028 73.1784 241.375 72.8317L241.895 73.2217C240.422 75.9084 238.667 77.9451 236.63 79.3317C234.637 80.7184 232.037 81.4117 228.83 81.4117C226.577 81.4117 224.475 81.0001 222.525 80.1767C220.618 79.3534 218.972 78.2267 217.585 76.7967C216.242 75.3234 215.18 73.6117 214.4 71.6617C213.62 69.7117 213.23 67.6101 213.23 65.3567C213.23 63.1901 213.555 61.1101 214.205 59.1167C214.898 57.1234 215.873 55.3684 217.13 53.8517C218.43 52.3351 219.99 51.1217 221.81 50.2117C223.63 49.3017 225.688 48.8467 227.985 48.8467C230.065 48.8467 231.95 49.1717 233.64 49.8217C235.373 50.4284 236.825 51.3384 237.995 52.5517C239.208 53.7217 240.14 55.1517 240.79 56.8417C241.44 58.5317 241.765 60.4167 241.765 62.4967V64.0567L223.11 64.8367ZM233.055 57.2967C233.055 56.5601 232.903 55.7801 232.6 54.9567C232.34 54.1334 231.95 53.3967 231.43 52.7467C230.91 52.0534 230.303 51.4901 229.61 51.0567C228.917 50.6234 228.158 50.4067 227.335 50.4067C226.382 50.4067 225.602 50.7967 224.995 51.5767C224.388 52.3567 223.912 53.2884 223.565 54.3717C223.218 55.4117 222.958 56.4951 222.785 57.6217C222.655 58.7484 222.59 59.6367 222.59 60.2867C222.59 61.2401 222.655 62.2151 222.785 63.2117C223.652 63.1251 224.518 63.0167 225.385 62.8867C226.252 62.7567 227.118 62.6267 227.985 62.4967C229.458 62.2801 230.672 61.7601 231.625 60.9367C232.578 60.1134 233.055 58.9001 233.055 57.2967ZM258.924 80.7617H242.869C243.562 80.3717 244.126 79.8301 244.559 79.1367C244.992 78.4001 245.317 77.6417 245.534 76.8617C245.794 76.0384 245.967 75.1934 246.054 74.3267C246.141 73.4601 246.184 72.6584 246.184 71.9217V62.6917C246.184 61.7817 246.097 60.9584 245.924 60.2217C245.751 59.4417 245.512 58.7267 245.209 58.0767C244.906 57.4267 244.516 56.7984 244.039 56.1917C243.606 55.5417 243.107 54.8701 242.544 54.1767C244.061 53.9167 245.339 53.6784 246.379 53.4617C247.462 53.2017 248.459 52.8984 249.369 52.5517C250.322 52.2051 251.276 51.7934 252.229 51.3167C253.226 50.7967 254.374 50.1467 255.674 49.3667V54.4367C255.977 54.1334 256.606 53.6784 257.559 53.0717C258.512 52.4651 259.509 51.8584 260.549 51.2517C261.632 50.6017 262.607 50.0384 263.474 49.5617C264.384 49.0851 264.926 48.8467 265.099 48.8467C266.572 48.8467 267.851 49.1284 268.934 49.6917C270.017 50.2551 270.906 51.0134 271.599 51.9667C272.336 52.9201 272.877 54.0251 273.224 55.2817C273.614 56.5384 273.809 57.8384 273.809 59.1817V71.9217C273.809 72.6584 273.852 73.4601 273.939 74.3267C274.026 75.1934 274.177 76.0384 274.394 76.8617C274.611 77.6851 274.936 78.4434 275.369 79.1367C275.846 79.8301 276.431 80.3717 277.124 80.7617H261.069C261.762 80.3717 262.326 79.8301 262.759 79.1367C263.192 78.4001 263.517 77.6417 263.734 76.8617C263.951 76.0384 264.102 75.1934 264.189 74.3267C264.276 73.4601 264.319 72.6584 264.319 71.9217V59.4417C264.319 58.7917 264.254 58.1201 264.124 57.4267C263.994 56.7334 263.777 56.1051 263.474 55.5417C263.171 54.9784 262.737 54.5234 262.174 54.1767C261.654 53.8301 261.004 53.6567 260.224 53.6567C258.881 53.6567 257.841 54.1334 257.104 55.0867C256.367 55.9967 255.891 57.0584 255.674 58.2717V71.9217C255.674 72.6584 255.696 73.4601 255.739 74.3267C255.826 75.1934 255.977 76.0384 256.194 76.8617C256.411 77.6851 256.736 78.4434 257.169 79.1367C257.602 79.8301 258.187 80.3717 258.924 80.7617ZM288.869 49.3667H295.629V50.9267H288.869V73.9367C288.869 75.1934 289.281 76.1034 290.104 76.6667C290.971 77.1867 291.967 77.4467 293.094 77.4467C293.701 77.4467 294.286 77.3817 294.849 77.2517C295.456 77.1217 296.019 76.9051 296.539 76.6017V77.2517C295.239 78.4651 293.722 79.4617 291.989 80.2417C290.299 81.0217 288.544 81.4117 286.724 81.4117C285.424 81.4117 284.297 81.1734 283.344 80.6967C282.434 80.2201 281.676 79.5917 281.069 78.8117C280.506 77.9884 280.072 77.0567 279.769 76.0167C279.509 74.9334 279.379 73.8067 279.379 72.6367V50.9267H276.194V49.9517C277.711 49.8217 279.076 49.5617 280.289 49.1717C281.502 48.7817 282.586 48.2617 283.539 47.6117C284.492 46.9184 285.316 46.0517 286.009 45.0117C286.746 43.9717 287.374 42.7151 287.894 41.2417H288.869V49.3667Z" fill="#1E2C31"/>
<path d="M358.212 41.8917C358.212 43.5384 357.714 44.9684 356.717 46.1817C355.721 47.3517 354.356 47.9367 352.622 47.9367C350.716 47.9367 349.199 47.2867 348.072 45.9867C346.989 44.6867 346.339 43.1484 346.122 41.3717C347.119 41.3717 347.834 41.0034 348.267 40.2667C348.744 39.53 348.982 38.7284 348.982 37.8617C348.982 36.8651 348.722 36.02 348.202 35.3267C347.726 34.6334 347.097 34.0701 346.317 33.6367C345.581 33.2034 344.757 32.9001 343.847 32.7267C342.937 32.5101 342.071 32.4017 341.247 32.4017C339.947 32.4017 338.777 32.6401 337.737 33.1167C336.697 33.55 335.809 34.1784 335.072 35.0017C334.336 35.7817 333.772 36.735 333.382 37.8617C332.992 38.945 332.797 40.115 332.797 41.3717C332.797 43.2351 333.447 44.8167 334.747 46.1167C336.091 47.4167 337.737 48.6084 339.687 49.6917C341.681 50.7317 343.826 51.7717 346.122 52.8117C348.419 53.8084 350.542 54.9567 352.492 56.2567C354.486 57.5567 356.132 59.1167 357.432 60.9367C358.776 62.7567 359.447 64.9884 359.447 67.6317C359.447 70.0151 358.906 72.0951 357.822 73.8717C356.739 75.6051 355.331 77.0351 353.597 78.1617C351.864 79.2451 349.936 80.0684 347.812 80.6317C345.689 81.1517 343.587 81.4117 341.507 81.4117C339.557 81.4117 337.521 81.1734 335.397 80.6967C333.274 80.2201 331.302 79.4617 329.482 78.4217C327.706 77.3817 326.232 76.0601 325.062 74.4567C323.936 72.8101 323.372 70.8167 323.372 68.4767C323.372 67.5667 323.502 66.6784 323.762 65.8117C324.022 64.9451 324.391 64.1867 324.867 63.5367C325.387 62.8434 326.016 62.3017 326.752 61.9117C327.489 61.4784 328.356 61.2617 329.352 61.2617C330.392 61.2617 331.324 61.4784 332.147 61.9117C332.971 62.3451 333.664 62.9084 334.227 63.6017C334.834 64.2951 335.311 65.0967 335.657 66.0067C336.004 66.9167 336.242 67.8267 336.372 68.7367C335.722 68.7367 335.159 68.8884 334.682 69.1917C334.206 69.4951 333.794 69.8851 333.447 70.3617C333.144 70.7951 332.906 71.2934 332.732 71.8567C332.602 72.4201 332.537 72.9834 332.537 73.5467C332.537 74.5867 332.732 75.5184 333.122 76.3417C333.556 77.1217 334.119 77.7717 334.812 78.2917C335.506 78.8117 336.286 79.2017 337.152 79.4617C338.062 79.7217 338.994 79.8517 339.947 79.8517C341.247 79.8517 342.482 79.6784 343.652 79.3317C344.822 78.9417 345.841 78.4001 346.707 77.7067C347.617 76.9701 348.332 76.0817 348.852 75.0417C349.372 73.9584 349.632 72.7234 349.632 71.3367C349.632 69.1701 349.026 67.3934 347.812 66.0067C346.599 64.5767 345.082 63.2984 343.262 62.1717C341.442 61.0451 339.449 60.0051 337.282 59.0517C335.159 58.0551 333.187 56.9284 331.367 55.6717C329.547 54.3717 328.031 52.8551 326.817 51.1217C325.604 49.3884 324.997 47.2217 324.997 44.6217C324.997 42.325 325.474 40.3317 326.427 38.6417C327.381 36.9084 328.637 35.4784 330.197 34.3517C331.757 33.1817 333.512 32.315 335.462 31.7517C337.456 31.1451 339.492 30.8417 341.572 30.8417C343.132 30.8417 344.866 31.0584 346.772 31.4917C348.722 31.9251 350.542 32.5967 352.232 33.5067C353.922 34.3734 355.331 35.5001 356.457 36.8867C357.627 38.2734 358.212 39.9417 358.212 41.8917ZM371.455 64.8367C371.758 66.1801 372.213 67.4584 372.82 68.6717C373.426 69.8417 374.185 70.8817 375.095 71.7917C376.005 72.6584 377.066 73.3517 378.28 73.8717C379.536 74.3917 380.945 74.6517 382.505 74.6517C382.981 74.6517 383.545 74.6301 384.195 74.5867C384.888 74.5001 385.581 74.3917 386.275 74.2617C386.968 74.1317 387.618 73.9584 388.225 73.7417C388.875 73.4817 389.373 73.1784 389.72 72.8317L390.24 73.2217C388.766 75.9084 387.011 77.9451 384.975 79.3317C382.981 80.7184 380.381 81.4117 377.175 81.4117C374.921 81.4117 372.82 81.0001 370.87 80.1767C368.963 79.3534 367.316 78.2267 365.93 76.7967C364.586 75.3234 363.525 73.6117 362.745 71.6617C361.965 69.7117 361.575 67.6101 361.575 65.3567C361.575 63.1901 361.9 61.1101 362.55 59.1167C363.243 57.1234 364.218 55.3684 365.475 53.8517C366.775 52.3351 368.335 51.1217 370.155 50.2117C371.975 49.3017 374.033 48.8467 376.33 48.8467C378.41 48.8467 380.295 49.1717 381.985 49.8217C383.718 50.4284 385.17 51.3384 386.34 52.5517C387.553 53.7217 388.485 55.1517 389.135 56.8417C389.785 58.5317 390.11 60.4167 390.11 62.4967V64.0567L371.455 64.8367ZM381.4 57.2967C381.4 56.5601 381.248 55.7801 380.945 54.9567C380.685 54.1334 380.295 53.3967 379.775 52.7467C379.255 52.0534 378.648 51.4901 377.955 51.0567C377.261 50.6234 376.503 50.4067 375.68 50.4067C374.726 50.4067 373.946 50.7967 373.34 51.5767C372.733 52.3567 372.256 53.2884 371.91 54.3717C371.563 55.4117 371.303 56.4951 371.13 57.6217C371 58.7484 370.935 59.6367 370.935 60.2867C370.935 61.2401 371 62.2151 371.13 63.2117C371.996 63.1251 372.863 63.0167 373.73 62.8867C374.596 62.7567 375.463 62.6267 376.33 62.4967C377.803 62.2801 379.016 61.7601 379.97 60.9367C380.923 60.1134 381.4 58.9001 381.4 57.2967ZM407.578 59.5067C408.662 59.5067 409.658 59.2684 410.568 58.7917C411.478 58.3151 411.933 57.4484 411.933 56.1917C411.933 55.4551 411.76 54.7401 411.413 54.0467C411.11 53.3534 410.677 52.7467 410.113 52.2267C409.593 51.6634 408.987 51.2301 408.293 50.9267C407.6 50.5801 406.885 50.4067 406.148 50.4067C405.238 50.4067 404.502 50.7751 403.938 51.5117C403.375 52.2051 402.92 53.0501 402.573 54.0467C402.27 55.0434 402.053 56.0617 401.923 57.1017C401.793 58.1417 401.728 58.9867 401.728 59.6367C401.728 61.4567 401.967 63.2767 402.443 65.0967C402.92 66.8734 403.635 68.4767 404.588 69.9067C405.585 71.3367 406.842 72.4851 408.358 73.3517C409.875 74.2184 411.673 74.6517 413.753 74.6517C414.23 74.6517 414.793 74.6301 415.443 74.5867C416.137 74.5001 416.83 74.3917 417.523 74.2617C418.217 74.1317 418.867 73.9584 419.473 73.7417C420.123 73.4817 420.622 73.1784 420.968 72.8317L421.488 73.2217C418.455 78.6817 413.84 81.4117 407.643 81.4117C405.39 81.4117 403.288 81.0001 401.338 80.1767C399.432 79.3534 397.785 78.2267 396.398 76.7967C395.055 75.3234 393.993 73.6117 393.213 71.6617C392.433 69.7117 392.043 67.6101 392.043 65.3567C392.043 63.1901 392.368 61.1101 393.018 59.1167C393.712 57.1234 394.687 55.3684 395.943 53.8517C397.243 52.3351 398.803 51.1217 400.623 50.2117C402.443 49.3017 404.502 48.8467 406.798 48.8467C408.402 48.8467 410.005 49.0851 411.608 49.5617C413.212 50.0384 414.663 50.7534 415.963 51.7067C417.263 52.6167 418.303 53.7651 419.083 55.1517C419.907 56.5384 420.318 58.1201 420.318 59.8967C420.318 61.5867 419.842 62.9517 418.888 63.9917C417.935 65.0317 416.57 65.5517 414.793 65.5517C412.8 65.5517 411.24 65.0101 410.113 63.9267C408.987 62.8001 408.142 61.3267 407.578 59.5067ZM433.655 49.3667V70.6867C433.655 71.3367 433.72 72.0084 433.85 72.7017C433.98 73.3951 434.196 74.0234 434.5 74.5867C434.803 75.1501 435.215 75.6051 435.735 75.9517C436.298 76.2984 436.97 76.4717 437.75 76.4717C439.006 76.4717 439.981 76.0601 440.675 75.2367C441.411 74.4134 441.91 73.4601 442.17 72.3767C442.17 71.5101 442.191 70.6651 442.235 69.8417C442.278 69.0184 442.3 68.2167 442.3 67.4367V58.2067C442.3 57.4701 442.256 56.6684 442.17 55.8017C442.126 54.9351 441.996 54.0901 441.78 53.2667C441.563 52.4434 441.238 51.685 440.805 50.9917C440.371 50.2984 439.786 49.7567 439.05 49.3667H451.79V70.5567C451.79 72.6801 452.05 74.5001 452.57 76.0167C453.133 77.5334 454.086 79.1151 455.43 80.7617H443.795C443.578 79.9384 443.34 79.0934 443.08 78.2267C442.82 77.3167 442.603 76.4284 442.43 75.5617C442.3 75.7784 441.758 76.2117 440.805 76.8617C439.851 77.4684 438.811 78.0967 437.685 78.7467C436.601 79.3967 435.583 79.9817 434.63 80.5017C433.676 81.0217 433.091 81.2817 432.875 81.2817C431.401 81.2817 430.123 81.0001 429.04 80.4367C427.956 79.8734 427.046 79.1151 426.31 78.1617C425.616 77.2084 425.075 76.1034 424.685 74.8467C424.338 73.5901 424.165 72.2901 424.165 70.9467V58.2067C424.165 57.4701 424.121 56.6684 424.035 55.8017C423.948 54.9351 423.796 54.0901 423.58 53.2667C423.363 52.4434 423.038 51.685 422.605 50.9917C422.171 50.2984 421.586 49.7567 420.85 49.3667H433.655ZM459.084 62.6917C459.084 61.7817 458.998 60.9584 458.824 60.2217C458.651 59.4417 458.413 58.7267 458.109 58.0767C457.806 57.4267 457.416 56.7984 456.939 56.1917C456.506 55.5417 456.008 54.8701 455.444 54.1767C456.961 53.9167 458.239 53.6784 459.279 53.4617C460.363 53.2017 461.359 52.8984 462.269 52.5517C463.223 52.1617 464.176 51.7284 465.129 51.2517C466.126 50.7317 467.274 50.1034 468.574 49.3667V54.6317C469.224 52.9851 470.026 51.1217 470.979 49.0417C471.933 46.9184 473.081 44.9251 474.424 43.0617C475.768 41.1984 477.284 39.6384 478.974 38.3817C480.664 37.0817 482.571 36.4317 484.694 36.4317C486.471 36.4317 487.966 36.9517 489.179 37.9917C490.436 38.9884 491.064 40.3967 491.064 42.2167C491.064 44.0367 490.458 45.5967 489.244 46.8967C488.031 48.1534 486.514 48.7817 484.694 48.7817C484.001 47.3084 482.874 46.5717 481.314 46.5717C480.144 46.5717 478.888 46.9401 477.544 47.6767C476.244 48.4134 475.009 49.3234 473.839 50.4067C472.669 51.4467 471.608 52.5951 470.654 53.8517C469.744 55.0651 469.051 56.1917 468.574 57.2317V71.9217C468.574 72.6584 468.618 73.4601 468.704 74.3267C468.791 75.1934 468.943 76.0384 469.159 76.8617C469.376 77.6851 469.701 78.4434 470.134 79.1367C470.611 79.8301 471.196 80.3717 471.889 80.7617H455.834C456.528 80.3717 457.091 79.8301 457.524 79.1367C457.958 78.4001 458.283 77.6417 458.499 76.8617C458.716 76.0384 458.868 75.1934 458.954 74.3267C459.041 73.4601 459.084 72.6584 459.084 71.9217V62.6917ZM474.944 80.7617C475.638 80.3717 476.201 79.8301 476.634 79.1367C477.068 78.4001 477.393 77.6417 477.609 76.8617C477.869 76.0384 478.043 75.1934 478.129 74.3267C478.216 73.4601 478.259 72.6584 478.259 71.9217V62.6917C478.259 61.7817 478.173 60.9584 477.999 60.2217C477.826 59.4417 477.588 58.7267 477.284 58.0767C476.981 57.4267 476.591 56.7984 476.114 56.1917C475.681 55.5417 475.183 54.8701 474.619 54.1767C476.136 53.9167 477.414 53.6784 478.454 53.4617C479.538 53.2017 480.534 52.8984 481.444 52.5517C482.398 52.2051 483.351 51.7934 484.304 51.3167C485.301 50.7967 486.449 50.1467 487.749 49.3667V71.9217C487.749 72.6584 487.771 73.4601 487.814 74.3267C487.901 75.1934 488.053 76.0384 488.269 76.8617C488.486 77.6851 488.811 78.4434 489.244 79.1367C489.678 79.8301 490.263 80.3717 490.999 80.7617H474.944ZM504.499 49.3667H511.259V50.9267H504.499V73.9367C504.499 75.1934 504.911 76.1034 505.734 76.6667C506.601 77.1867 507.597 77.4467 508.724 77.4467C509.331 77.4467 509.916 77.3817 510.479 77.2517C511.086 77.1217 511.649 76.9051 512.169 76.6017V77.2517C510.869 78.4651 509.352 79.4617 507.619 80.2417C505.929 81.0217 504.174 81.4117 502.354 81.4117C501.054 81.4117 499.927 81.1734 498.974 80.6967C498.064 80.2201 497.306 79.5917 496.699 78.8117C496.136 77.9884 495.702 77.0567 495.399 76.0167C495.139 74.9334 495.009 73.8067 495.009 72.6367V50.9267H491.824V49.9517C493.341 49.8217 494.706 49.5617 495.919 49.1717C497.132 48.7817 498.216 48.2617 499.169 47.6117C500.122 46.9184 500.946 46.0517 501.639 45.0117C502.376 43.9717 503.004 42.7151 503.524 41.2417H504.499V49.3667ZM524.352 80.7617L518.437 66.0067C518.047 65.0101 517.527 63.6667 516.877 61.9767C516.227 60.2867 515.512 58.5751 514.732 56.8417C513.952 55.1084 513.086 53.5484 512.132 52.1617C511.222 50.7317 510.269 49.8001 509.272 49.3667H527.212C526.129 49.7134 525.327 50.3634 524.807 51.3167C524.287 52.2701 524.027 53.3101 524.027 54.4367C524.027 55.3467 524.309 56.6901 524.872 58.4667C525.436 60.2434 526.086 62.1067 526.822 64.0567C527.602 66.0067 528.361 67.8917 529.097 69.7117C529.877 71.4884 530.484 72.8751 530.917 73.8717C531.394 72.6584 531.892 71.4017 532.412 70.1017C532.976 68.7584 533.474 67.4151 533.907 66.0717C534.384 64.6851 534.774 63.2984 535.077 61.9117C535.381 60.5251 535.532 59.1817 535.532 57.8817C535.532 55.8017 535.077 54.0467 534.167 52.6167C533.257 51.1867 531.827 50.1034 529.877 49.3667H544.957C543.961 49.8001 542.986 50.7317 542.032 52.1617C541.122 53.5917 540.256 55.1734 539.432 56.9067C538.652 58.5967 537.937 60.3084 537.287 62.0417C536.637 63.7317 536.117 65.0967 535.727 66.1367L529.877 80.7617C529.314 82.1917 528.686 83.7301 527.992 85.3767C527.342 87.0234 526.541 88.5617 525.587 89.9917C524.677 91.4217 523.572 92.6134 522.272 93.5667C520.972 94.5201 519.391 94.9967 517.527 94.9967C516.531 94.9967 515.577 94.8667 514.667 94.6067C513.801 94.3901 513.021 94.0217 512.327 93.5017C511.677 93.0251 511.157 92.3967 510.767 91.6167C510.377 90.8367 510.182 89.9051 510.182 88.8217C510.182 88.2584 510.269 87.6084 510.442 86.8717C510.616 86.1784 510.876 85.5284 511.222 84.9217C511.612 84.3151 512.067 83.7951 512.587 83.3617C513.107 82.9717 513.714 82.7767 514.407 82.7767C514.407 84.3367 514.906 85.4851 515.902 86.2217C516.942 86.9584 518.177 87.3267 519.607 87.3267C520.214 87.3267 520.951 87.2184 521.817 87.0017C522.684 86.7851 523.507 86.4601 524.287 86.0267C525.111 85.6367 525.804 85.1384 526.367 84.5317C526.931 83.9251 527.212 83.2317 527.212 82.4517C527.212 81.7584 526.866 81.3034 526.172 81.0867C525.479 80.8701 524.872 80.7617 524.352 80.7617Z" fill="url(#paint0_linear_3082_29366)"/>
<g filter="url(#filter0_f_3082_29366)">
<circle cx="325" cy="44.7617" r="11" fill="black"/>
</g>
<path d="M339 29.2492C339.007 44.9895 326.253 57.7548 310.513 57.7617C294.772 57.7687 282.007 45.0146 282 29.2742C281.993 13.5339 294.747 0.76865 310.487 0.761722C326.228 0.754787 338.993 13.5089 339 29.2492Z" fill="#E0F4EF"/>
<path d="M333.324 29.2525C333.33 41.8587 323.115 52.0826 310.509 52.0879C297.903 52.0933 287.679 41.8787 287.674 29.2725C287.668 16.6663 297.883 6.44289 310.489 6.4375C323.095 6.43211 333.319 16.6463 333.324 29.2525Z" fill="url(#paint1_linear_3082_29366)"/>
<path d="M333.324 29.2525C333.33 41.8587 323.115 52.0826 310.509 52.0879C297.903 52.0933 287.679 41.8787 287.674 29.2725C287.668 16.6663 297.883 6.44289 310.489 6.4375C323.095 6.43211 333.319 16.6463 333.324 29.2525Z" stroke="#E0F4EF" stroke-width="0.603101" stroke-miterlimit="10"/>
<path d="M310.287 13.2546C310.15 13.2592 310.017 13.2866 309.902 13.332L298.907 17.9053C298.62 18.0251 298.392 18.2781 298.303 18.5762C296.841 23.366 296.922 28.8424 298.776 33.693C300.63 38.544 304.314 42.7707 309.946 44.8515C310.178 44.9363 310.439 44.9363 310.671 44.8515C316.303 42.7707 319.987 38.5436 321.841 33.693C323.695 28.842 323.776 23.3652 322.314 18.5762C322.224 18.2781 321.997 18.0251 321.709 17.9053L310.715 13.332C310.564 13.2681 310.423 13.25 310.287 13.2546ZM310.308 15.4425L320.391 19.6426C321.228 22.6296 321.428 25.9155 320.907 29.0754H310.309V42.7195C305.478 40.8128 302.372 37.1961 300.744 32.9347C300.269 31.6912 299.928 30.3944 299.711 29.0758H310.309V15.4429L310.308 15.4425Z" fill="white"/>
<defs>
<filter id="filter0_f_3082_29366" x="294" y="13.7617" width="62" height="62" filterUnits="userSpaceOnUse" color-interpolation-filters="sRGB">
<feFlood flood-opacity="0" result="BackgroundImageFix"/>
<feBlend mode="normal" in="SourceGraphic" in2="BackgroundImageFix" result="shape"/>
<feGaussianBlur stdDeviation="10" result="effect1_foregroundBlur_3082_29366"/>
</filter>
<linearGradient id="paint0_linear_3082_29366" x1="-79.6683" y1="19.251" x2="-8.45511" y2="302.3" gradientUnits="userSpaceOnUse">
<stop stop-color="#2563EB"/>
<stop offset="1" stop-color="#35FF49"/>
</linearGradient>
<linearGradient id="paint1_linear_3082_29366" x1="281.001" y1="0.887218" x2="360.485" y2="41.4648" gradientUnits="userSpaceOnUse">
<stop stop-color="#2563EB"/>
<stop offset="1" stop-color="#35FF49"/>
</linearGradient>
</defs>
</svg>
