<svg width="1440" height="607" viewBox="0 0 1440 607" fill="none" xmlns="http://www.w3.org/2000/svg">
<g clip-path="url(#clip0_3082_29368)">
<rect width="1440" height="609" fill="black"/>
<g clip-path="url(#clip1_3082_29368)">
<path d="M720.323 154.646C818.256 154.646 897.646 75.2557 897.646 -22.6771C897.646 -120.61 818.256 -200 720.323 -200C622.39 -200 543 -120.61 543 -22.6771C543 75.2557 622.39 154.646 720.323 154.646Z" fill="url(#paint0_linear_3082_29368)"/>
<path d="M593.7 550.657C545.729 599.155 546.156 677.359 594.654 725.33C643.153 773.301 721.356 772.874 769.328 724.376C817.299 675.878 816.872 597.674 768.374 549.703C719.876 501.731 641.672 502.159 593.7 550.657Z" fill="url(#paint1_linear_3082_29368)"/>
<path d="M116.177 182.214C190.471 182.214 250.698 121.987 250.698 47.6927C250.698 -26.6011 190.471 -86.8281 116.177 -86.8281C41.8833 -86.8281 -18.3438 -26.6011 -18.3438 47.6927C-18.3438 121.987 41.8833 182.214 116.177 182.214Z" fill="url(#paint2_linear_3082_29368)"/>
<path d="M1409.41 127.812C1480.32 127.812 1537.81 70.3231 1537.81 -0.59375C1537.81 -71.5106 1480.32 -129 1409.41 -129C1338.49 -129 1281 -71.5106 1281 -0.59375C1281 70.3231 1338.49 127.812 1409.41 127.812Z" fill="url(#paint3_linear_3082_29368)"/>
<path fill-rule="evenodd" clip-rule="evenodd" d="M1280.5 246C1258.86 246 1222.71 254.31 1188.69 263.56C1153.88 272.967 1118.79 284.099 1098.16 290.841C1089.53 293.69 1081.88 298.914 1076.09 305.914C1070.3 312.914 1066.6 321.406 1065.42 330.413C1046.73 470.799 1090.1 574.842 1142.72 643.671C1165.03 673.114 1191.63 699.042 1221.64 720.59C1233.75 729.15 1244.97 735.704 1254.5 740.188C1263.28 744.327 1272.72 747.714 1280.5 747.714C1288.28 747.714 1297.68 744.327 1306.5 740.188C1317.99 734.603 1328.98 728.046 1339.36 720.59C1369.37 699.043 1395.97 673.115 1418.28 643.671C1470.9 574.842 1514.27 470.799 1495.58 330.413C1494.4 321.401 1490.7 312.905 1484.91 305.899C1479.12 298.894 1471.47 293.664 1462.84 290.809C1432.89 280.989 1402.7 271.892 1372.31 263.529C1338.29 254.341 1302.14 246 1280.5 246ZM1347.79 407.364C1350.74 404.42 1354.73 402.766 1358.89 402.766C1363.06 402.766 1367.05 404.42 1369.99 407.364C1372.94 410.308 1374.59 414.301 1374.59 418.464C1374.59 422.628 1372.94 426.621 1369.99 429.565L1275.92 523.636C1274.47 525.096 1272.74 526.254 1270.83 527.045C1268.93 527.835 1266.88 528.242 1264.82 528.242C1262.76 528.242 1260.72 527.835 1258.81 527.045C1256.91 526.254 1255.18 525.096 1253.72 523.636L1206.69 476.6C1205.23 475.143 1204.07 473.412 1203.28 471.507C1202.49 469.603 1202.09 467.561 1202.09 465.5C1202.09 463.438 1202.49 461.397 1203.28 459.492C1204.07 457.588 1205.23 455.857 1206.69 454.399C1208.14 452.942 1209.87 451.785 1211.78 450.996C1213.68 450.208 1215.72 449.801 1217.79 449.801C1219.85 449.801 1221.89 450.208 1223.79 450.996C1225.7 451.785 1227.43 452.942 1228.89 454.399L1264.82 490.366L1347.79 407.364Z" fill="white" fill-opacity="0.15"/>
</g>
</g>
<defs>
<linearGradient id="paint0_linear_3082_29368" x1="720.323" y1="-200" x2="720.323" y2="154.646" gradientUnits="userSpaceOnUse">
<stop stop-color="white" stop-opacity="0.22"/>
<stop offset="1" stop-color="white" stop-opacity="0"/>
</linearGradient>
<linearGradient id="paint1_linear_3082_29368" x1="769.328" y1="724.376" x2="593.7" y2="550.657" gradientUnits="userSpaceOnUse">
<stop stop-color="white" stop-opacity="0.22"/>
<stop offset="1" stop-color="white" stop-opacity="0"/>
</linearGradient>
<linearGradient id="paint2_linear_3082_29368" x1="116.177" y1="-86.8281" x2="116.177" y2="182.214" gradientUnits="userSpaceOnUse">
<stop stop-color="white" stop-opacity="0.22"/>
<stop offset="1" stop-color="white" stop-opacity="0"/>
</linearGradient>
<linearGradient id="paint3_linear_3082_29368" x1="1409.41" y1="-129" x2="1409.41" y2="127.812" gradientUnits="userSpaceOnUse">
<stop stop-color="white" stop-opacity="0.22"/>
<stop offset="1" stop-color="white" stop-opacity="0"/>
</linearGradient>
<clipPath id="clip0_3082_29368">
<rect width="1440" height="607" fill="white"/>
</clipPath>
<clipPath id="clip1_3082_29368">
<rect width="1440" height="609" fill="white"/>
</clipPath>
</defs>
</svg>
