<svg width="1208" height="480" viewBox="0 0 1208 480" fill="none" xmlns="http://www.w3.org/2000/svg">
<g clip-path="url(#clip0_3609_31018)">
<rect width="1208" height="480" rx="20" fill="url(#paint0_linear_3609_31018)"/>
<path opacity="0.1" d="M321.331 343.749L152.429 322.369C140.551 320.944 132.825 314.53 129.253 303.127C125.68 291.724 128.179 281.984 136.75 273.908L428.231 -5.4588C430.607 -7.83436 433.458 -9.62079 436.784 -10.8181C440.109 -12.0154 444.623 -12.6045 450.324 -12.5855C459.826 -12.5855 467.077 -8.54704 472.075 -0.470119C477.073 7.6068 477.187 15.9213 472.417 24.4733L378.345 201.215L547.247 222.595C559.125 224.021 566.85 230.435 570.423 241.837C573.996 253.24 571.497 262.98 562.926 271.057L271.444 550.423C269.069 552.799 266.218 554.585 262.892 555.782C259.566 556.98 255.053 557.569 249.352 557.55C239.849 557.55 232.599 553.511 227.601 545.434C222.603 537.358 222.489 529.043 227.259 520.491L321.331 343.749Z" fill="url(#paint1_linear_3609_31018)"/>
</g>
<defs>
<linearGradient id="paint0_linear_3609_31018" x1="1.42936e-05" y1="210.286" x2="918.024" y2="265.833" gradientUnits="userSpaceOnUse">
<stop/>
<stop offset="1" stop-color="#03599C"/>
</linearGradient>
<linearGradient id="paint1_linear_3609_31018" x1="127.676" y1="237.188" x2="466.459" y2="243.536" gradientUnits="userSpaceOnUse">
<stop stop-color="#FFCC00"/>
<stop offset="1" stop-color="#03599C"/>
</linearGradient>
<clipPath id="clip0_3609_31018">
<rect width="1208" height="480" rx="20" fill="white"/>
</clipPath>
</defs>
</svg>
