<svg width="444" height="70" viewBox="0 0 444 70" fill="none" xmlns="http://www.w3.org/2000/svg">
<path d="M14.105 44.16C14.105 44.8967 14.1483 45.6983 14.235 46.565C14.3217 47.4317 14.4733 48.2767 14.69 49.1C14.9067 49.9233 15.2317 50.6817 15.665 51.375C16.1417 52.0683 16.7267 52.61 17.42 53H1.3C2.03667 52.61 2.62167 52.0683 3.055 51.375C3.48833 50.6817 3.81333 49.9233 4.03 49.1C4.24667 48.2767 4.39833 47.4317 4.485 46.565C4.57167 45.6983 4.615 44.8967 4.615 44.16V12.57C4.615 11.79 4.57167 10.9883 4.485 10.165C4.44167 9.29833 4.29 8.45333 4.03 7.63C3.81333 6.80667 3.48833 6.07 3.055 5.42C2.62167 4.72666 2.03667 4.16333 1.3 3.73H17.42C16.7267 4.16333 16.1417 4.72666 15.665 5.42C15.2317 6.11333 14.9067 6.87167 14.69 7.695C14.4733 8.475 14.3217 9.29833 14.235 10.165C14.1483 11.0317 14.105 11.8333 14.105 12.57V44.16ZM35.1056 53H19.0506C19.7439 52.61 20.3073 52.0683 20.7406 51.375C21.1739 50.6383 21.4989 49.88 21.7156 49.1C21.9756 48.2767 22.1489 47.4317 22.2356 46.565C22.3223 45.6983 22.3656 44.8967 22.3656 44.16V34.93C22.3656 34.02 22.2789 33.1967 22.1056 32.46C21.9323 31.68 21.6939 30.965 21.3906 30.315C21.0873 29.665 20.6973 29.0367 20.2206 28.43C19.7873 27.78 19.2889 27.1083 18.7256 26.415C20.2423 26.155 21.5206 25.9167 22.5606 25.7C23.6439 25.44 24.6406 25.1367 25.5506 24.79C26.5039 24.4433 27.4573 24.0317 28.4106 23.555C29.4073 23.035 30.5556 22.385 31.8556 21.605V26.675C32.1589 26.3717 32.7873 25.9167 33.7406 25.31C34.6939 24.7033 35.6906 24.0967 36.7306 23.49C37.8139 22.84 38.7889 22.2767 39.6556 21.8C40.5656 21.3233 41.1073 21.085 41.2806 21.085C42.7539 21.085 44.0323 21.3667 45.1156 21.93C46.1989 22.4933 47.0873 23.2517 47.7806 24.205C48.5173 25.1583 49.0589 26.2633 49.4056 27.52C49.7956 28.7767 49.9906 30.0767 49.9906 31.42V44.16C49.9906 44.8967 50.0339 45.6983 50.1206 46.565C50.2073 47.4317 50.3589 48.2767 50.5756 49.1C50.7923 49.9233 51.1173 50.6817 51.5506 51.375C52.0273 52.0683 52.6123 52.61 53.3056 53H37.2506C37.9439 52.61 38.5073 52.0683 38.9406 51.375C39.3739 50.6383 39.6989 49.88 39.9156 49.1C40.1323 48.2767 40.2839 47.4317 40.3706 46.565C40.4573 45.6983 40.5006 44.8967 40.5006 44.16V31.68C40.5006 31.03 40.4356 30.3583 40.3056 29.665C40.1756 28.9717 39.9589 28.3433 39.6556 27.78C39.3523 27.2167 38.9189 26.7617 38.3556 26.415C37.8356 26.0683 37.1856 25.895 36.4056 25.895C35.0623 25.895 34.0223 26.3717 33.2856 27.325C32.5489 28.235 32.0723 29.2967 31.8556 30.51V44.16C31.8556 44.8967 31.8773 45.6983 31.9206 46.565C32.0073 47.4317 32.1589 48.2767 32.3756 49.1C32.5923 49.9233 32.9173 50.6817 33.3506 51.375C33.7839 52.0683 34.3689 52.61 35.1056 53ZM66.1903 53.65C64.977 53.65 63.6336 53.4983 62.1603 53.195C60.7303 52.8917 59.387 52.415 58.1303 51.765C56.8736 51.115 55.812 50.27 54.9453 49.23C54.122 48.1467 53.7103 46.8467 53.7103 45.33C53.7103 43.9 54.1003 42.665 54.8803 41.625C55.7036 40.585 56.8736 40.065 58.3903 40.065C59.8636 40.065 61.0553 40.6283 61.9653 41.755C62.9186 42.8383 63.5253 44.03 63.7853 45.33C63.0053 45.33 62.3553 45.59 61.8353 46.11C61.3586 46.63 61.1203 47.28 61.1203 48.06C61.1203 48.71 61.272 49.295 61.5753 49.815C61.8786 50.335 62.2686 50.7683 62.7453 51.115C63.2653 51.4183 63.8286 51.6567 64.4353 51.83C65.042 52.0033 65.627 52.09 66.1903 52.09C66.8836 52.09 67.577 52.0033 68.2703 51.83C68.9636 51.6567 69.592 51.3967 70.1553 51.05C70.7186 50.66 71.1736 50.1833 71.5203 49.62C71.867 49.0133 72.0403 48.2983 72.0403 47.475C72.0403 46.3483 71.607 45.4167 70.7403 44.68C69.917 43.9 68.877 43.185 67.6203 42.535C66.3636 41.8417 64.9986 41.17 63.5253 40.52C62.052 39.8267 60.687 39.0467 59.4303 38.18C58.1736 37.27 57.112 36.1867 56.2453 34.93C55.422 33.6733 55.0103 32.135 55.0103 30.315C55.0103 28.885 55.3353 27.6283 55.9853 26.545C56.6786 25.4183 57.5453 24.4867 58.5853 23.75C59.6686 23.0133 60.8603 22.4283 62.1603 21.995C63.5036 21.5617 64.8253 21.28 66.1253 21.15C65.562 20.0667 65.2803 18.8533 65.2803 17.51C65.2803 15.43 65.7353 13.6533 66.6453 12.18C67.5986 10.7067 68.812 9.515 70.2853 8.605C71.802 7.65166 73.4703 6.95833 75.2903 6.525C77.1536 6.09166 78.9736 5.875 80.7503 5.875C83.2203 5.875 85.257 6.11333 86.8603 6.59C88.507 7.02333 89.807 7.73833 90.7603 8.735C91.757 9.73166 92.4503 11.0533 92.8403 12.7C93.2303 14.3033 93.4253 16.275 93.4253 18.615V21.605H100.185V23.165H93.4253V46.175C93.4253 47.4317 93.837 48.3417 94.6603 48.905C95.527 49.425 96.5236 49.685 97.6503 49.685C98.257 49.685 98.842 49.62 99.4053 49.49C100.012 49.36 100.575 49.1433 101.095 48.84V49.49C99.7953 50.7033 98.2786 51.7 96.5453 52.48C94.8553 53.26 93.1003 53.65 91.2803 53.65C89.9803 53.65 88.8536 53.4117 87.9003 52.935C86.9903 52.4583 86.232 51.83 85.6253 51.05C85.062 50.2267 84.6286 49.295 84.3253 48.255C84.0653 47.1717 83.9353 46.045 83.9353 44.875V23.165H80.7503V22.19C81.8336 22.06 82.9603 21.8 84.1303 21.41C85.3003 21.02 86.362 20.5 87.3153 19.85C88.312 19.1567 89.1136 18.3333 89.7203 17.38C90.3703 16.3833 90.6953 15.2567 90.6953 14C90.6953 12.7 90.3703 11.6167 89.7203 10.75C89.0703 9.88333 88.247 9.19 87.2503 8.67C86.297 8.15 85.2353 7.78167 84.0653 7.565C82.8953 7.34833 81.7903 7.24 80.7503 7.24C79.4936 7.24 78.1936 7.47833 76.8503 7.955C75.507 8.38833 74.272 9.03833 73.1453 9.905C72.062 10.7283 71.152 11.725 70.4153 12.895C69.722 14.0217 69.3753 15.3 69.3753 16.73C69.3753 18.6367 69.982 20.1967 71.1953 21.41C72.2786 21.5833 73.3403 21.8867 74.3803 22.32C75.4203 22.71 76.352 23.23 77.1753 23.88C77.9986 24.4867 78.6486 25.245 79.1253 26.155C79.6453 27.0217 79.9053 28.04 79.9053 29.21C79.9053 30.5533 79.5153 31.615 78.7353 32.395C77.9986 33.175 76.9586 33.565 75.6153 33.565C74.2286 33.565 73.0803 33.1533 72.1703 32.33C71.2603 31.5067 70.6103 30.4667 70.2203 29.21C70.957 29.21 71.5203 28.9933 71.9103 28.56C72.3003 28.0833 72.4953 27.4983 72.4953 26.805C72.4953 25.505 71.997 24.4867 71.0003 23.75C70.0036 23.0133 68.8986 22.645 67.6853 22.645C66.2553 22.645 65.0636 23.1 64.1103 24.01C63.157 24.8767 62.6803 26.025 62.6803 27.455C62.6803 28.5383 63.1136 29.47 63.9803 30.25C64.8903 31.03 65.9953 31.7667 67.2953 32.46C68.6386 33.11 70.0686 33.76 71.5853 34.41C73.1453 35.06 74.5753 35.84 75.8753 36.75C77.2186 37.66 78.3236 38.7433 79.1903 40C80.1003 41.2133 80.5553 42.7083 80.5553 44.485C80.5553 46.2617 80.057 47.7567 79.0603 48.97C78.107 50.14 76.9153 51.0717 75.4853 51.765C74.0553 52.4583 72.4953 52.935 70.8053 53.195C69.1586 53.4983 67.6203 53.65 66.1903 53.65ZM156.092 53H140.037C140.73 52.61 141.294 52.0683 141.727 51.375C142.16 50.6383 142.485 49.88 142.702 49.1C142.962 48.2767 143.135 47.4317 143.222 46.565C143.309 45.6983 143.352 44.8967 143.352 44.16V34.93C143.352 34.02 143.265 33.1967 143.092 32.46C142.919 31.68 142.68 30.965 142.377 30.315C142.074 29.665 141.684 29.0367 141.207 28.43C140.774 27.78 140.275 27.1083 139.712 26.415C141.229 26.155 142.507 25.9167 143.547 25.7C144.63 25.44 145.627 25.1367 146.537 24.79C147.49 24.4433 148.444 24.0317 149.397 23.555C150.394 23.035 151.542 22.385 152.842 21.605V26.675C153.145 26.3717 153.774 25.9167 154.727 25.31C155.68 24.7033 156.677 24.0967 157.717 23.49C158.8 22.84 159.775 22.2767 160.642 21.8C161.552 21.3233 162.094 21.085 162.267 21.085C163.74 21.085 165.019 21.3667 166.102 21.93C167.185 22.4933 168.074 23.2517 168.767 24.205C169.504 25.1583 170.045 26.2633 170.392 27.52C170.782 28.7767 170.977 30.0767 170.977 31.42V44.16C170.977 44.8967 171.02 45.6983 171.107 46.565C171.194 47.4317 171.345 48.2767 171.562 49.1C171.779 49.9233 172.104 50.6817 172.537 51.375C173.014 52.0683 173.599 52.61 174.292 53H158.237C158.93 52.61 159.494 52.0683 159.927 51.375C160.36 50.6383 160.685 49.88 160.902 49.1C161.119 48.2767 161.27 47.4317 161.357 46.565C161.444 45.6983 161.487 44.8967 161.487 44.16V31.68C161.487 31.03 161.422 30.3583 161.292 29.665C161.162 28.9717 160.945 28.3433 160.642 27.78C160.339 27.2167 159.905 26.7617 159.342 26.415C158.822 26.0683 158.172 25.895 157.392 25.895C156.049 25.895 155.009 26.3717 154.272 27.325C153.535 28.235 153.059 29.2967 152.842 30.51V44.16C152.842 44.8967 152.864 45.6983 152.907 46.565C152.994 47.4317 153.145 48.2767 153.362 49.1C153.579 49.9233 153.904 50.6817 154.337 51.375C154.77 52.0683 155.355 52.61 156.092 53ZM186.037 21.605H192.797V23.165H186.037V46.175C186.037 47.4317 186.449 48.3417 187.272 48.905C188.139 49.425 189.135 49.685 190.262 49.685C190.869 49.685 191.454 49.62 192.017 49.49C192.624 49.36 193.187 49.1433 193.707 48.84V49.49C192.407 50.7033 190.89 51.7 189.157 52.48C187.467 53.26 185.712 53.65 183.892 53.65C182.592 53.65 181.465 53.4117 180.512 52.935C179.602 52.4583 178.844 51.83 178.237 51.05C177.674 50.2267 177.24 49.295 176.937 48.255C176.677 47.1717 176.547 46.045 176.547 44.875V23.165H173.362V22.19C174.879 22.06 176.244 21.8 177.457 21.41C178.67 21.02 179.754 20.5 180.707 19.85C181.66 19.1567 182.484 18.29 183.177 17.25C183.914 16.21 184.542 14.9533 185.062 13.48H186.037V21.605Z" fill="white"/>
<path d="M219.807 21.605H226.567V23.165H219.807V46.175C219.807 47.4317 220.218 48.3417 221.042 48.905C221.908 49.425 222.905 49.685 224.032 49.685C224.638 49.685 225.223 49.62 225.787 49.49C226.393 49.36 226.957 49.1433 227.477 48.84V49.49C226.177 50.7033 224.66 51.7 222.927 52.48C221.237 53.26 219.482 53.65 217.662 53.65C216.362 53.65 215.235 53.4117 214.282 52.935C213.372 52.4583 212.613 51.83 212.007 51.05C211.443 50.2267 211.01 49.295 210.707 48.255C210.447 47.1717 210.317 46.045 210.317 44.875V23.165H207.132V22.19C208.648 22.06 210.013 21.8 211.227 21.41C212.44 21.02 213.523 20.5 214.477 19.85C215.43 19.1567 216.253 18.29 216.947 17.25C217.683 16.21 218.312 14.9533 218.832 13.48H219.807V21.605ZM240.947 28.755C241.381 27.845 241.901 26.935 242.507 26.025C243.157 25.0717 243.872 24.2483 244.652 23.555C245.476 22.8183 246.364 22.2333 247.317 21.8C248.314 21.3233 249.354 21.085 250.437 21.085C252.214 21.085 253.601 21.6917 254.597 22.905C255.637 24.075 256.157 25.505 256.157 27.195C256.157 28.2783 255.941 29.275 255.507 30.185C255.117 31.095 254.554 31.8533 253.817 32.46C253.124 33.0667 252.301 33.5433 251.347 33.89C250.437 34.2367 249.441 34.41 248.357 34.41C248.444 34.15 248.509 33.89 248.552 33.63C248.596 33.37 248.617 33.0883 248.617 32.785C248.617 31.6583 248.227 30.7267 247.447 29.99C246.711 29.21 245.779 28.82 244.652 28.82C244.219 28.82 243.786 28.9283 243.352 29.145C242.919 29.3183 242.507 29.5783 242.117 29.925C241.771 30.2283 241.489 30.5967 241.272 31.03C241.056 31.42 240.947 31.8533 240.947 32.33V44.16C240.947 44.8967 240.969 45.6983 241.012 46.565C241.099 47.4317 241.251 48.2767 241.467 49.1C241.727 49.9233 242.074 50.6817 242.507 51.375C242.941 52.0683 243.504 52.61 244.197 53H228.142C228.836 52.61 229.399 52.0683 229.832 51.375C230.266 50.6383 230.591 49.88 230.807 49.1C231.067 48.2767 231.241 47.4317 231.327 46.565C231.414 45.6983 231.457 44.8967 231.457 44.16V34.93C231.457 34.02 231.371 33.1967 231.197 32.46C231.024 31.68 230.786 30.965 230.482 30.315C230.179 29.665 229.789 29.0367 229.312 28.43C228.879 27.78 228.381 27.1083 227.817 26.415C229.334 26.155 230.612 25.9167 231.652 25.7C232.736 25.44 233.732 25.1367 234.642 24.79C235.596 24.4433 236.549 24.0317 237.502 23.555C238.499 23.035 239.647 22.385 240.947 21.605V28.755ZM261.292 21.085C262.939 21.085 264.477 21.3233 265.907 21.8C267.337 22.2333 268.572 22.905 269.612 23.815C270.696 24.725 271.541 25.8517 272.147 27.195C272.754 28.495 273.057 30.0117 273.057 31.745V46.695C273.057 46.9983 273.079 47.3883 273.122 47.865C273.166 48.2983 273.252 48.7317 273.382 49.165C273.512 49.5983 273.707 49.9667 273.967 50.27C274.271 50.5733 274.639 50.725 275.072 50.725C275.549 50.725 275.982 50.595 276.372 50.335V50.985C275.809 51.375 275.289 51.7433 274.812 52.09C274.336 52.4367 273.859 52.7183 273.382 52.935C272.906 53.1517 272.386 53.325 271.822 53.455C271.259 53.585 270.609 53.65 269.872 53.65C268.702 53.65 267.532 53.3467 266.362 52.74C265.192 52.1333 264.369 51.2667 263.892 50.14C262.896 51.2667 261.682 52.1333 260.252 52.74C258.866 53.3467 257.219 53.65 255.312 53.65C253.016 53.65 251.131 53.1083 249.657 52.025C248.227 50.9417 247.512 49.165 247.512 46.695C247.512 45.005 248.141 43.5317 249.397 42.275C250.697 41.0183 252.214 39.87 253.947 38.83C255.724 37.79 257.501 36.7933 259.277 35.84C261.097 34.8433 262.527 33.7817 263.567 32.655C263.567 32.135 263.589 31.2683 263.632 30.055C263.676 28.7983 263.632 27.5633 263.502 26.35C263.416 25.0933 263.177 24.01 262.787 23.1C262.397 22.1467 261.747 21.67 260.837 21.67L261.292 21.085ZM263.567 48.71V34.93C262.961 35.4933 262.267 36.1 261.487 36.75C260.751 37.4 260.057 38.0933 259.407 38.83C258.757 39.5233 258.194 40.2817 257.717 41.105C257.284 41.9283 257.067 42.8167 257.067 43.77C257.067 44.4633 257.111 45.1567 257.197 45.85C257.327 46.5 257.522 47.085 257.782 47.605C258.086 48.125 258.497 48.5583 259.017 48.905C259.537 49.2083 260.209 49.36 261.032 49.36C261.986 49.36 262.831 49.1433 263.567 48.71ZM293.074 53H277.019C277.713 52.61 278.276 52.0683 278.709 51.375C279.143 50.6383 279.468 49.88 279.684 49.1C279.944 48.2767 280.118 47.4317 280.204 46.565C280.291 45.6983 280.334 44.8967 280.334 44.16V34.93C280.334 34.02 280.248 33.1967 280.074 32.46C279.901 31.68 279.663 30.965 279.359 30.315C279.056 29.665 278.666 29.0367 278.189 28.43C277.756 27.78 277.258 27.1083 276.694 26.415C278.211 26.155 279.489 25.9167 280.529 25.7C281.613 25.44 282.609 25.1367 283.519 24.79C284.473 24.4433 285.426 24.0317 286.379 23.555C287.376 23.035 288.524 22.385 289.824 21.605V26.675C290.128 26.3717 290.756 25.9167 291.709 25.31C292.663 24.7033 293.659 24.0967 294.699 23.49C295.783 22.84 296.758 22.2767 297.624 21.8C298.534 21.3233 299.076 21.085 299.249 21.085C300.723 21.085 302.001 21.3667 303.084 21.93C304.168 22.4933 305.056 23.2517 305.749 24.205C306.486 25.1583 307.028 26.2633 307.374 27.52C307.764 28.7767 307.959 30.0767 307.959 31.42V44.16C307.959 44.8967 308.003 45.6983 308.089 46.565C308.176 47.4317 308.328 48.2767 308.544 49.1C308.761 49.9233 309.086 50.6817 309.519 51.375C309.996 52.0683 310.581 52.61 311.274 53H295.219C295.913 52.61 296.476 52.0683 296.909 51.375C297.343 50.6383 297.668 49.88 297.884 49.1C298.101 48.2767 298.253 47.4317 298.339 46.565C298.426 45.6983 298.469 44.8967 298.469 44.16V31.68C298.469 31.03 298.404 30.3583 298.274 29.665C298.144 28.9717 297.928 28.3433 297.624 27.78C297.321 27.2167 296.888 26.7617 296.324 26.415C295.804 26.0683 295.154 25.895 294.374 25.895C293.031 25.895 291.991 26.3717 291.254 27.325C290.518 28.235 290.041 29.2967 289.824 30.51V44.16C289.824 44.8967 289.846 45.6983 289.889 46.565C289.976 47.4317 290.128 48.2767 290.344 49.1C290.561 49.9233 290.886 50.6817 291.319 51.375C291.753 52.0683 292.338 52.61 293.074 53ZM323.524 53.65C322.311 53.65 320.968 53.4983 319.494 53.195C318.064 52.8917 316.721 52.415 315.464 51.765C314.208 51.115 313.146 50.27 312.279 49.23C311.456 48.1467 311.044 46.8467 311.044 45.33C311.044 43.9 311.434 42.665 312.214 41.625C313.038 40.585 314.208 40.065 315.724 40.065C317.198 40.065 318.389 40.6283 319.299 41.755C320.253 42.8383 320.859 44.03 321.119 45.33C320.339 45.33 319.689 45.59 319.169 46.11C318.693 46.63 318.454 47.28 318.454 48.06C318.454 48.71 318.606 49.295 318.909 49.815C319.213 50.335 319.603 50.7683 320.079 51.115C320.599 51.4183 321.163 51.6567 321.769 51.83C322.376 52.0033 322.961 52.09 323.524 52.09C324.218 52.09 324.911 52.0033 325.604 51.83C326.298 51.6567 326.926 51.3967 327.489 51.05C328.053 50.66 328.508 50.1833 328.854 49.62C329.201 49.0133 329.374 48.2983 329.374 47.475C329.374 46.3483 328.941 45.4167 328.074 44.68C327.251 43.9 326.211 43.185 324.954 42.535C323.698 41.8417 322.333 41.17 320.859 40.52C319.386 39.8267 318.021 39.0467 316.764 38.18C315.508 37.27 314.446 36.1867 313.579 34.93C312.756 33.6733 312.344 32.135 312.344 30.315C312.344 28.6683 312.756 27.2817 313.579 26.155C314.446 24.985 315.508 24.0317 316.764 23.295C318.021 22.515 319.408 21.9517 320.924 21.605C322.484 21.2583 323.936 21.085 325.279 21.085C326.493 21.085 327.793 21.2367 329.179 21.54C330.609 21.8 331.909 22.255 333.079 22.905C334.293 23.555 335.289 24.4 336.069 25.44C336.849 26.4367 337.239 27.6933 337.239 29.21C337.239 30.5533 336.849 31.615 336.069 32.395C335.333 33.175 334.293 33.565 332.949 33.565C331.563 33.565 330.414 33.1533 329.504 32.33C328.594 31.5067 327.944 30.4667 327.554 29.21C328.291 29.21 328.854 28.9933 329.244 28.56C329.634 28.0833 329.829 27.4983 329.829 26.805C329.829 25.505 329.331 24.4867 328.334 23.75C327.338 23.0133 326.233 22.645 325.019 22.645C323.589 22.645 322.398 23.1 321.444 24.01C320.491 24.8767 320.014 26.025 320.014 27.455C320.014 28.5383 320.448 29.47 321.314 30.25C322.224 31.03 323.329 31.7667 324.629 32.46C325.973 33.11 327.403 33.76 328.919 34.41C330.479 35.06 331.909 35.84 333.209 36.75C334.553 37.66 335.658 38.7433 336.524 40C337.434 41.2133 337.889 42.7083 337.889 44.485C337.889 46.2617 337.391 47.7567 336.394 48.97C335.441 50.14 334.249 51.0717 332.819 51.765C331.389 52.4583 329.829 52.935 328.139 53.195C326.493 53.4983 324.954 53.65 323.524 53.65ZM355.558 7.63C356.555 7.63 357.573 7.76 358.613 8.02C359.653 8.28 360.585 8.67 361.408 9.19C362.275 9.71 362.968 10.4033 363.488 11.27C364.008 12.0933 364.268 13.09 364.268 14.26C364.268 15.7767 363.77 17.0333 362.773 18.03C361.776 18.9833 360.52 19.46 359.003 19.46C357.616 19.46 356.468 19.005 355.558 18.095C354.648 17.185 353.998 16.1017 353.608 14.845C354.431 14.845 355.103 14.6067 355.623 14.13C356.143 13.61 356.403 12.9383 356.403 12.115C356.403 11.2483 356.121 10.5767 355.558 10.1C354.995 9.58 354.28 9.32 353.413 9.32C352.72 9.32 352.07 9.47166 351.463 9.775C350.856 10.0783 350.336 10.49 349.903 11.01C349.513 11.53 349.188 12.115 348.928 12.765C348.711 13.415 348.603 14.065 348.603 14.715C348.603 16.0583 348.928 17.185 349.578 18.095C350.271 18.9617 351.138 19.655 352.178 20.175C353.218 20.695 354.345 21.0633 355.558 21.28C356.771 21.4967 357.92 21.605 359.003 21.605V23.165H351.593V44.16C351.593 44.8967 351.615 45.6983 351.658 46.565C351.745 47.4317 351.896 48.2767 352.113 49.1C352.33 49.9233 352.655 50.6817 353.088 51.375C353.521 52.0683 354.106 52.61 354.843 53H338.788C339.481 52.61 340.045 52.0683 340.478 51.375C340.911 50.6383 341.236 49.88 341.453 49.1C341.713 48.2767 341.886 47.4317 341.973 46.565C342.06 45.6983 342.103 44.8967 342.103 44.16V23.165H338.528V21.605H342.233C342.233 19.525 342.515 17.64 343.078 15.95C343.685 14.2167 344.551 12.7433 345.678 11.53C346.805 10.2733 348.191 9.32 349.838 8.67C351.528 7.97667 353.435 7.63 355.558 7.63ZM366.948 37.075C367.251 38.4183 367.706 39.6967 368.313 40.91C368.92 42.08 369.678 43.12 370.588 44.03C371.498 44.8967 372.56 45.59 373.773 46.11C375.03 46.63 376.438 46.89 377.998 46.89C378.475 46.89 379.038 46.8683 379.688 46.825C380.381 46.7383 381.075 46.63 381.768 46.5C382.461 46.37 383.111 46.1967 383.718 45.98C384.368 45.72 384.866 45.4167 385.213 45.07L385.733 45.46C384.26 48.1467 382.505 50.1833 380.468 51.57C378.475 52.9567 375.875 53.65 372.668 53.65C370.415 53.65 368.313 53.2383 366.363 52.415C364.456 51.5917 362.81 50.465 361.423 49.035C360.08 47.5617 359.018 45.85 358.238 43.9C357.458 41.95 357.068 39.8483 357.068 37.595C357.068 35.4283 357.393 33.3483 358.043 31.355C358.736 29.3617 359.711 27.6067 360.968 26.09C362.268 24.5733 363.828 23.36 365.648 22.45C367.468 21.54 369.526 21.085 371.823 21.085C373.903 21.085 375.788 21.41 377.478 22.06C379.211 22.6667 380.663 23.5767 381.833 24.79C383.046 25.96 383.978 27.39 384.628 29.08C385.278 30.77 385.603 32.655 385.603 34.735V36.295L366.948 37.075ZM376.893 29.535C376.893 28.7983 376.741 28.0183 376.438 27.195C376.178 26.3717 375.788 25.635 375.268 24.985C374.748 24.2917 374.141 23.7283 373.448 23.295C372.755 22.8617 371.996 22.645 371.173 22.645C370.22 22.645 369.44 23.035 368.833 23.815C368.226 24.595 367.75 25.5267 367.403 26.61C367.056 27.65 366.796 28.7333 366.623 29.86C366.493 30.9867 366.428 31.875 366.428 32.525C366.428 33.4783 366.493 34.4533 366.623 35.45C367.49 35.3633 368.356 35.255 369.223 35.125C370.09 34.995 370.956 34.865 371.823 34.735C373.296 34.5183 374.51 33.9983 375.463 33.175C376.416 32.3517 376.893 31.1383 376.893 29.535ZM399.512 44.16C399.512 44.8967 399.534 45.6983 399.577 46.565C399.664 47.4317 399.815 48.2767 400.032 49.1C400.249 49.9233 400.574 50.6817 401.007 51.375C401.44 52.0683 402.025 52.61 402.762 53H386.707C387.4 52.61 387.964 52.0683 388.397 51.375C388.83 50.6383 389.155 49.88 389.372 49.1C389.632 48.2767 389.805 47.4317 389.892 46.565C389.979 45.6983 390.022 44.8967 390.022 44.16V34.93C390.022 33.11 389.697 31.5717 389.047 30.315C388.397 29.0583 387.509 27.7583 386.382 26.415C387.899 26.155 389.177 25.9167 390.217 25.7C391.3 25.44 392.297 25.1367 393.207 24.79C394.16 24.4 395.114 23.9667 396.067 23.49C397.064 22.97 398.212 22.3417 399.512 21.605V30.9C400.292 28.7767 401.419 26.7617 402.892 24.855C404.365 22.9483 406.055 21.28 407.962 19.85C409.869 18.42 411.927 17.2933 414.137 16.47C416.39 15.6033 418.665 15.17 420.962 15.17C422.002 15.17 423.085 15.2783 424.212 15.495C425.339 15.7117 426.357 16.08 427.267 16.6C428.22 17.12 428.979 17.8133 429.542 18.68C430.149 19.5467 430.452 20.6083 430.452 21.865C430.452 23.685 429.824 25.18 428.567 26.35C427.354 27.4767 425.859 28.04 424.082 28.04C424.082 25.83 423.41 24.205 422.067 23.165C420.724 22.125 419.012 21.605 416.932 21.605C415.069 21.605 413.097 21.995 411.017 22.775C408.98 23.5117 407.095 24.5517 405.362 25.895C403.672 27.2383 402.264 28.7983 401.137 30.575C400.054 32.3517 399.512 34.28 399.512 36.36V44.16ZM419.467 23.1C418.904 23.1 418.319 23.165 417.712 23.295C417.149 23.425 416.607 23.6417 416.087 23.945C415.61 24.2483 415.22 24.6383 414.917 25.115C414.614 25.5917 414.462 26.155 414.462 26.805C414.462 28.105 414.895 29.1883 415.762 30.055C416.672 30.9217 417.777 31.7233 419.077 32.46C420.42 33.1533 421.85 33.825 423.367 34.475C424.927 35.125 426.357 35.8833 427.657 36.75C429 37.6167 430.105 38.6783 430.972 39.935C431.882 41.1483 432.337 42.665 432.337 44.485C432.337 46.2617 431.839 47.7567 430.842 48.97C429.889 50.14 428.697 51.0717 427.267 51.765C425.837 52.4583 424.277 52.935 422.587 53.195C420.94 53.4983 419.402 53.65 417.972 53.65C416.759 53.65 415.415 53.4983 413.942 53.195C412.512 52.8917 411.169 52.415 409.912 51.765C408.655 51.115 407.594 50.27 406.727 49.23C405.904 48.1467 405.492 46.8467 405.492 45.33C405.492 43.9 405.882 42.665 406.662 41.625C407.485 40.585 408.655 40.065 410.172 40.065C411.645 40.065 412.837 40.6283 413.747 41.755C414.7 42.8383 415.307 44.03 415.567 45.33C414.787 45.33 414.137 45.59 413.617 46.11C413.14 46.63 412.902 47.28 412.902 48.06C412.902 48.71 413.054 49.295 413.357 49.815C413.66 50.335 414.05 50.7683 414.527 51.115C415.047 51.4183 415.61 51.6567 416.217 51.83C416.824 52.0033 417.409 52.09 417.972 52.09C418.665 52.09 419.359 52.0033 420.052 51.83C420.745 51.6567 421.374 51.3967 421.937 51.05C422.5 50.66 422.955 50.1833 423.302 49.62C423.649 49.0133 423.822 48.2983 423.822 47.475C423.822 46.3483 423.389 45.395 422.522 44.615C421.699 43.7917 420.659 43.0333 419.402 42.34C418.145 41.6467 416.78 40.9533 415.307 40.26C413.834 39.5667 412.469 38.7867 411.212 37.92C409.955 37.01 408.894 35.9483 408.027 34.735C407.204 33.5217 406.792 32.0483 406.792 30.315C406.792 28.7117 407.225 27.4333 408.092 26.48C408.959 25.5267 410.02 24.79 411.277 24.27C412.577 23.75 413.964 23.4033 415.437 23.23C416.91 23.0567 418.254 22.97 419.467 22.97V23.1Z" fill="white"/>
<path d="M118.21 48.668L125.905 33.2621H120.585V23.3346L112.668 38.7405H118.21V48.668ZM119.001 20.168C123.355 20.168 127.076 21.7513 130.164 24.8388C133.251 27.9263 134.835 31.6471 134.835 36.0013C134.835 40.3555 133.251 44.0763 130.164 47.1638C127.076 50.2513 123.355 51.8346 119.001 51.8346C114.647 51.8346 110.926 50.2513 107.839 47.1638C104.751 44.0763 103.168 40.3555 103.168 36.0013C103.168 31.6471 104.751 27.9263 107.839 24.8388C110.926 21.7513 114.647 20.168 119.001 20.168Z" fill="url(#paint0_linear_3271_30251)"/>
<defs>
<linearGradient id="paint0_linear_3271_30251" x1="103" y1="25" x2="131.876" y2="44.9378" gradientUnits="userSpaceOnUse">
<stop stop-color="#FFCC00"/>
<stop offset="1" stop-color="#03599C"/>
</linearGradient>
</defs>
</svg>
