<svg width="95" height="20" viewBox="0 0 95 20" fill="none" xmlns="http://www.w3.org/2000/svg">
<path d="M3.376 5.048C3.376 4.86667 3.36533 4.66933 3.344 4.456C3.33333 4.24267 3.296 4.03467 3.232 3.832C3.17867 3.62933 3.09867 3.44267 2.992 3.272C2.896 3.10133 2.75733 2.968 2.576 2.872H6.528C6.35733 2.968 6.21867 3.10667 6.112 3.288C6.00533 3.45867 5.92 3.64533 5.856 3.848C5.80267 4.04 5.76533 4.24267 5.744 4.456C5.72267 4.66933 5.712 4.86667 5.712 5.048V11.72C5.712 12.232 5.63733 12.7013 5.488 13.128C5.33867 13.544 5.12 13.9067 4.832 14.216C4.55467 14.5147 4.208 14.7493 3.792 14.92C3.38667 15.08 2.92267 15.16 2.4 15.16C2.15467 15.16 1.904 15.128 1.648 15.064C1.392 15 1.15733 14.904 0.944 14.776C0.741333 14.648 0.576 14.4827 0.448 14.28C0.32 14.0667 0.256 13.816 0.256 13.528C0.256 13.1547 0.378667 12.8507 0.624 12.616C0.869333 12.3707 1.17867 12.248 1.552 12.248C1.89333 12.248 2.176 12.36 2.4 12.584C2.624 12.808 2.784 13.0747 2.88 13.384C2.67733 13.384 2.512 13.448 2.384 13.576C2.256 13.6933 2.192 13.8533 2.192 14.056C2.192 14.2693 2.26133 14.44 2.4 14.568C2.53867 14.6853 2.71467 14.744 2.928 14.744C3.28 14.744 3.56267 14.6107 3.776 14.344C4 14.0773 4.112 13.7733 4.112 13.432C4.112 13.1653 4.04267 12.9253 3.904 12.712C3.776 12.488 3.6 12.3067 3.376 12.168V5.048ZM10.6875 7.144C11.2422 7.144 11.7542 7.25067 12.2235 7.464C12.6928 7.67733 13.0982 7.97067 13.4395 8.344C13.7915 8.70667 14.0635 9.13333 14.2555 9.624C14.4475 10.104 14.5435 10.616 14.5435 11.16C14.5435 11.704 14.4475 12.2213 14.2555 12.712C14.0635 13.192 13.7915 13.6133 13.4395 13.976C13.0982 14.3387 12.6928 14.6267 12.2235 14.84C11.7542 15.0533 11.2422 15.16 10.6875 15.16C10.1328 15.16 9.6155 15.0533 9.1355 14.84C8.66617 14.6267 8.26083 14.3387 7.9195 13.976C7.57817 13.6133 7.30617 13.192 7.1035 12.712C6.9115 12.2213 6.8155 11.704 6.8155 11.16C6.8155 10.616 6.9115 10.104 7.1035 9.624C7.30617 9.13333 7.57817 8.70667 7.9195 8.344C8.26083 7.97067 8.66617 7.67733 9.1355 7.464C9.6155 7.25067 10.1328 7.144 10.6875 7.144ZM11.1995 14.728C11.4448 14.728 11.6368 14.6373 11.7755 14.456C11.9142 14.2747 12.0208 14.0613 12.0955 13.816C12.1702 13.56 12.2182 13.2987 12.2395 13.032C12.2608 12.7653 12.2715 12.552 12.2715 12.392C12.2715 12.1893 12.2555 11.928 12.2235 11.608C12.1915 11.288 12.1382 10.952 12.0635 10.6C11.9888 10.248 11.8928 9.896 11.7755 9.544C11.6688 9.18133 11.5302 8.86133 11.3595 8.584C11.1888 8.296 10.9915 8.06133 10.7675 7.88C10.5542 7.69867 10.3035 7.608 10.0155 7.608C9.7915 7.608 9.6155 7.69333 9.4875 7.864C9.3595 8.03467 9.2635 8.23733 9.1995 8.472C9.1355 8.70667 9.09283 8.94667 9.0715 9.192C9.06083 9.43733 9.0555 9.63467 9.0555 9.784C9.0555 9.976 9.0715 10.232 9.1035 10.552C9.1355 10.8613 9.1835 11.2027 9.2475 11.576C9.32217 11.9387 9.41283 12.3067 9.5195 12.68C9.63683 13.0533 9.7755 13.3947 9.9355 13.704C10.0955 14.0027 10.2768 14.248 10.4795 14.44C10.6928 14.632 10.9328 14.728 11.1995 14.728ZM19.5999 10.552C19.5999 10.328 19.5785 10.1253 19.5359 9.944C19.4932 9.752 19.4345 9.576 19.3599 9.416C19.2852 9.256 19.1892 9.10133 19.0719 8.952C18.9652 8.792 18.8425 8.62667 18.7039 8.456C19.0132 8.40267 19.3225 8.31733 19.6319 8.2C19.9519 8.072 20.2345 7.912 20.4799 7.72C20.7252 7.51733 20.9225 7.27733 21.0719 7C21.2319 6.72267 21.3119 6.40267 21.3119 6.04C21.3119 5.67733 21.2319 5.35733 21.0719 5.08C20.9225 4.792 20.7199 4.552 20.4639 4.36C20.2185 4.168 19.9359 4.024 19.6159 3.928C19.2959 3.82133 18.9705 3.768 18.6399 3.768C18.2665 3.768 17.8932 3.832 17.5199 3.96C17.1465 4.07733 16.8372 4.28 16.5919 4.568C16.9119 4.568 17.1839 4.68533 17.4079 4.92C17.6425 5.144 17.7599 5.416 17.7599 5.736C17.7599 6.056 17.6425 6.33333 17.4079 6.568C17.1839 6.792 16.9119 6.904 16.5919 6.904C16.2719 6.904 15.9945 6.792 15.7599 6.568C15.5359 6.33333 15.4239 6.056 15.4239 5.736C15.4239 5.30933 15.5359 4.952 15.7599 4.664C15.9945 4.36533 16.2825 4.12533 16.6239 3.944C16.9652 3.752 17.3332 3.61333 17.7279 3.528C18.1332 3.44267 18.5119 3.4 18.8639 3.4C19.2799 3.4 19.6905 3.45867 20.0959 3.576C20.5012 3.68267 20.8585 3.848 21.1679 4.072C21.4879 4.296 21.7439 4.57867 21.9359 4.92C22.1385 5.26133 22.2399 5.66667 22.2399 6.136C22.2399 6.56267 22.1385 6.94133 21.9359 7.272V8.504C21.9679 8.472 22.0425 8.41867 22.1599 8.344C22.2772 8.25867 22.4159 8.168 22.5759 8.072C22.7359 7.96533 22.9065 7.85867 23.0879 7.752C23.2799 7.64533 23.4559 7.54933 23.6159 7.464C23.7759 7.368 23.9145 7.29333 24.0319 7.24C24.1492 7.176 24.2239 7.144 24.2559 7.144C24.6185 7.144 24.9332 7.21333 25.1999 7.352C25.4665 7.49067 25.6852 7.67733 25.8559 7.912C26.0372 8.14667 26.1705 8.41867 26.2559 8.728C26.3519 9.03733 26.3999 9.35733 26.3999 9.688V12.824C26.3999 13.0053 26.4105 13.2027 26.4319 13.416C26.4532 13.6293 26.4905 13.8373 26.5439 14.04C26.5972 14.2427 26.6772 14.4293 26.7839 14.6C26.9012 14.7707 27.0452 14.904 27.2159 15H23.2639C23.4345 14.904 23.5732 14.7707 23.6799 14.6C23.7865 14.4187 23.8665 14.232 23.9199 14.04C23.9732 13.8373 24.0105 13.6293 24.0319 13.416C24.0532 13.2027 24.0639 13.0053 24.0639 12.824V9.752C24.0639 9.592 24.0479 9.42667 24.0159 9.256C23.9839 9.08533 23.9305 8.93067 23.8559 8.792C23.7812 8.65333 23.6745 8.54133 23.5359 8.456C23.4079 8.37067 23.2479 8.328 23.0559 8.328C22.9172 8.328 22.7785 8.36533 22.6399 8.44C22.5119 8.504 22.3945 8.58933 22.2879 8.696C22.1812 8.80267 22.0959 8.92533 22.0319 9.064C21.9679 9.192 21.9359 9.32533 21.9359 9.464V12.824C21.9359 13.0053 21.9412 13.2027 21.9519 13.416C21.9732 13.6293 22.0105 13.8373 22.0639 14.04C22.1172 14.2427 22.1972 14.4293 22.3039 14.6C22.4105 14.7707 22.5545 14.904 22.7359 15H18.7839C18.9545 14.904 19.0932 14.7707 19.1999 14.6C19.3065 14.4187 19.3865 14.232 19.4399 14.04C19.5039 13.8373 19.5465 13.6293 19.5679 13.416C19.5892 13.2027 19.5999 13.0053 19.5999 12.824V10.552ZM14.6719 8.456C15.0452 8.392 15.3599 8.33333 15.6159 8.28C15.8825 8.216 16.1279 8.14133 16.3519 8.056C16.5865 7.97067 16.8212 7.86933 17.0559 7.752C17.3012 7.624 17.5839 7.464 17.9039 7.272V12.824C17.9039 13.0053 17.9092 13.2027 17.9199 13.416C17.9412 13.6293 17.9785 13.8373 18.0319 14.04C18.0852 14.2427 18.1652 14.4293 18.2719 14.6C18.3785 14.7707 18.5225 14.904 18.7039 15H14.7519C14.9225 14.904 15.0612 14.7707 15.1679 14.6C15.2745 14.4187 15.3545 14.232 15.4079 14.04C15.4719 13.8373 15.5145 13.6293 15.5359 13.416C15.5572 13.2027 15.5679 13.0053 15.5679 12.824V10.552C15.5679 10.328 15.5465 10.1253 15.5039 9.944C15.4612 9.752 15.4025 9.576 15.3279 9.416C15.2532 9.256 15.1572 9.10133 15.0399 8.952C14.9332 8.792 14.8105 8.62667 14.6719 8.456ZM40.1034 6.776C40.1034 6.328 40.0554 5.90133 39.9594 5.496C39.8634 5.08 39.714 4.70133 39.5114 4.36C39.3087 4.01867 39.0474 3.72 38.7274 3.464C38.4074 3.208 38.0234 3.01067 37.5754 2.872H41.7034C41.4367 2.94667 41.2234 3.05333 41.0634 3.192C40.914 3.32 40.7967 3.47467 40.7114 3.656C40.6367 3.82667 40.5887 4.024 40.5674 4.248C40.546 4.472 40.53 4.712 40.5194 4.968C40.498 5.26667 40.4874 5.56533 40.4874 5.864C40.4874 6.16267 40.4874 6.46667 40.4874 6.776V15H39.3354L32.1994 4.76V11.096C32.1994 11.544 32.2474 11.976 32.3434 12.392C32.4394 12.7973 32.5887 13.1707 32.7914 13.512C32.994 13.8533 33.2554 14.152 33.5754 14.408C33.8954 14.664 34.2794 14.8613 34.7274 15H30.5994C30.8767 14.9253 31.09 14.824 31.2394 14.696C31.3887 14.5573 31.5007 14.4027 31.5754 14.232C31.6607 14.0507 31.714 13.848 31.7354 13.624C31.7567 13.4 31.7727 13.16 31.7834 12.904C31.8047 12.6053 31.8154 12.3067 31.8154 12.008C31.8154 11.7093 31.8154 11.4053 31.8154 11.096V5.048C31.8154 4.856 31.8047 4.65867 31.7834 4.456C31.7727 4.24267 31.7407 4.04 31.6874 3.848C31.634 3.64533 31.554 3.45867 31.4474 3.288C31.3407 3.11733 31.1967 2.97867 31.0154 2.872H33.6714L40.1034 12.04V6.776ZM45.625 7.144C46.1797 7.144 46.6917 7.25067 47.161 7.464C47.6303 7.67733 48.0357 7.97067 48.377 8.344C48.729 8.70667 49.001 9.13333 49.193 9.624C49.385 10.104 49.481 10.616 49.481 11.16C49.481 11.704 49.385 12.2213 49.193 12.712C49.001 13.192 48.729 13.6133 48.377 13.976C48.0357 14.3387 47.6303 14.6267 47.161 14.84C46.6917 15.0533 46.1797 15.16 45.625 15.16C45.0703 15.16 44.553 15.0533 44.073 14.84C43.6037 14.6267 43.1983 14.3387 42.857 13.976C42.5157 13.6133 42.2437 13.192 42.041 12.712C41.849 12.2213 41.753 11.704 41.753 11.16C41.753 10.616 41.849 10.104 42.041 9.624C42.2437 9.13333 42.5157 8.70667 42.857 8.344C43.1983 7.97067 43.6037 7.67733 44.073 7.464C44.553 7.25067 45.0703 7.144 45.625 7.144ZM46.137 14.728C46.3823 14.728 46.5743 14.6373 46.713 14.456C46.8517 14.2747 46.9583 14.0613 47.033 13.816C47.1077 13.56 47.1557 13.2987 47.177 13.032C47.1983 12.7653 47.209 12.552 47.209 12.392C47.209 12.1893 47.193 11.928 47.161 11.608C47.129 11.288 47.0757 10.952 47.001 10.6C46.9263 10.248 46.8303 9.896 46.713 9.544C46.6063 9.18133 46.4677 8.86133 46.297 8.584C46.1263 8.296 45.929 8.06133 45.705 7.88C45.4917 7.69867 45.241 7.608 44.953 7.608C44.729 7.608 44.553 7.69333 44.425 7.864C44.297 8.03467 44.201 8.23733 44.137 8.472C44.073 8.70667 44.0303 8.94667 44.009 9.192C43.9983 9.43733 43.993 9.63467 43.993 9.784C43.993 9.976 44.009 10.232 44.041 10.552C44.073 10.8613 44.121 11.2027 44.185 11.576C44.2597 11.9387 44.3503 12.3067 44.457 12.68C44.5743 13.0533 44.713 13.3947 44.873 13.704C45.033 14.0027 45.2143 14.248 45.417 14.44C45.6303 14.632 45.8703 14.728 46.137 14.728ZM62.4963 7.272C62.2509 7.37867 62.0109 7.608 61.7763 7.96C61.5523 8.312 61.3389 8.70133 61.1363 9.128C60.9443 9.544 60.7683 9.96533 60.6083 10.392C60.4483 10.808 60.3203 11.144 60.2243 11.4L58.7843 15H57.4243L55.9683 11.368C55.8723 11.112 55.7389 10.7707 55.5683 10.344C55.4829 10.5573 55.4083 10.7547 55.3443 10.936C55.2803 11.1173 55.2216 11.272 55.1683 11.4L53.7283 15H52.3683L50.9123 11.368C50.8163 11.1227 50.6883 10.792 50.5283 10.376C50.3683 9.96 50.1923 9.53867 50.0003 9.112C49.8083 8.68533 49.5949 8.30133 49.3603 7.96C49.1363 7.608 48.9016 7.37867 48.6562 7.272H53.0723C52.8056 7.35733 52.6083 7.51733 52.4803 7.752C52.3523 7.98667 52.2883 8.24267 52.2883 8.52C52.2883 8.744 52.3576 9.07467 52.4963 9.512C52.6349 9.94933 52.7949 10.408 52.9763 10.888C53.1683 11.368 53.3549 11.832 53.5363 12.28C53.7283 12.7173 53.8776 13.0587 53.9843 13.304C54.1016 13.0053 54.2243 12.696 54.3523 12.376C54.4909 12.0453 54.6136 11.7147 54.7203 11.384C54.8376 11.0427 54.9336 10.7013 55.0083 10.36C55.0829 10.0187 55.1203 9.688 55.1203 9.368V9.24C54.9176 8.792 54.6936 8.38133 54.4483 8.008C54.2136 7.63467 53.9683 7.38933 53.7123 7.272H58.1283C57.8616 7.35733 57.6643 7.51733 57.5363 7.752C57.4083 7.98667 57.3443 8.24267 57.3443 8.52C57.3443 8.744 57.4136 9.07467 57.5523 9.512C57.6909 9.94933 57.8509 10.408 58.0323 10.888C58.2243 11.368 58.4109 11.832 58.5923 12.28C58.7843 12.7173 58.9336 13.0587 59.0403 13.304C59.1576 13.0053 59.2803 12.696 59.4083 12.376C59.5469 12.0453 59.6696 11.7147 59.7763 11.384C59.8936 11.0427 59.9896 10.7013 60.0643 10.36C60.1389 10.0187 60.1763 9.688 60.1763 9.368C60.1763 8.856 60.0643 8.424 59.8403 8.072C59.6163 7.72 59.2643 7.45333 58.7843 7.272H62.4963Z" fill="white"/>
<circle cx="85" cy="10" r="10" fill="white"/>
<path d="M85.9711 13.9663C85.8427 13.8379 85.7811 13.6827 85.7862 13.5008C85.7913 13.3189 85.8583 13.1637 85.9872 13.0353L87.801 11.2215H80.6421C80.4601 11.2215 80.3075 11.1599 80.1843 11.0366C80.061 10.9133 79.9996 10.7609 80 10.5794C80 10.3975 80.0616 10.2449 80.1849 10.1217C80.3082 9.99839 80.4606 9.93697 80.6421 9.9374H87.801L85.9711 8.10754C85.8427 7.97913 85.7785 7.82654 85.7785 7.64976C85.7785 7.47298 85.8427 7.3206 85.9711 7.19262C86.0995 7.06421 86.2521 7 86.4289 7C86.6057 7 86.758 7.06421 86.886 7.19262L89.8234 10.13C89.8876 10.1942 89.9332 10.2638 89.9602 10.3387C89.9871 10.4136 90.0004 10.4938 90 10.5794C90 10.6651 89.9865 10.7453 89.9595 10.8202C89.9326 10.8951 89.8872 10.9647 89.8234 11.0289L86.87 13.9823C86.7523 14.1 86.6052 14.1589 86.4289 14.1589C86.2525 14.1589 86.0999 14.0947 85.9711 13.9663Z" fill="#29D081"/>
</svg>
