<svg width="172" height="44" viewBox="0 0 172 44" fill="none" xmlns="http://www.w3.org/2000/svg">
<g clip-path="url(#clip0_2451_28917)">
<rect width="3.49955" height="13.3034" rx="1.74977" transform="matrix(0.986908 0.161283 -0.157923 0.987451 16.5557 4)" fill="#F97316"/>
<rect width="3.49955" height="16.436" rx="1.74977" transform="matrix(0.780134 0.625613 -0.622805 0.782377 29.063 5.46875)" fill="#EAB308"/>
<rect width="3.49955" height="14.7387" rx="1.74977" transform="matrix(0.498582 0.866842 -0.865411 0.501062 35.2095 15)" fill="#22C55E"/>
<rect width="3.49955" height="8.72046" rx="1.74977" transform="matrix(0.162515 0.986706 -0.986737 0.162329 33.0596 24.7949)" fill="#3B82F6"/>
<rect x="0.45459" y="19.543" width="4.58192" height="7.42084" rx="2.29096" transform="rotate(-50.6461 0.45459 19.543)" fill="#EF4444"/>
<path d="M14.2093 21.993C14.0113 21.993 13.8353 22.059 13.7473 22.279C13.3733 23.071 12.8673 24.017 12.3833 25.293C12.2953 25.469 12.1853 25.733 12.0753 25.997C12.0313 26.107 11.9653 26.217 11.9213 26.327C11.9213 26.349 11.9653 26.327 11.9873 26.327C12.0533 26.305 12.0313 26.371 11.9433 26.569C11.8113 26.899 11.6793 26.943 11.8113 26.635C11.8553 26.525 11.8773 26.503 11.8333 26.569C11.8113 26.635 11.7673 26.723 11.7233 26.789C11.6793 26.877 11.7013 26.855 11.6573 26.943C11.6133 27.031 11.5473 27.141 11.5913 27.053C11.5253 27.185 11.4813 27.339 11.4153 27.471L11.3933 27.515V27.493C11.3273 27.669 11.2613 27.845 11.1733 28.021C11.1513 28.087 11.0853 28.131 11.0633 28.197C11.0413 28.219 11.0413 28.241 11.0413 28.263C10.9753 28.417 10.8873 28.571 10.8213 28.725V28.747V28.791C10.7553 29.055 10.7993 29.055 10.9093 28.813C10.9093 28.791 10.9313 28.769 10.9313 28.747C10.9973 28.593 11.0633 28.483 11.0633 28.527C11.0633 28.549 11.0413 28.659 10.9753 28.835C10.8873 29.055 10.7553 29.341 10.6233 29.671C10.5573 29.825 10.4913 29.979 10.4473 30.089L10.3153 30.155C10.1833 30.199 10.0733 30.265 9.94132 30.309C9.41332 30.507 8.90732 30.705 8.44532 30.991C8.26932 31.101 8.09332 31.211 7.93932 31.343C7.41132 31.761 7.69732 32.487 8.15932 32.729C8.37932 32.839 8.46732 32.795 9.01732 33.081C8.95132 33.257 8.90732 33.345 8.84132 33.521C8.68732 33.939 8.53332 34.357 8.40132 34.775C8.35732 34.885 8.29132 34.995 8.26932 35.105C8.24732 35.171 8.24732 35.237 8.22532 35.303C8.20332 35.391 8.18132 35.457 8.15932 35.501C8.15932 35.523 8.13732 35.545 8.13732 35.567C8.13732 35.633 8.11532 35.699 8.11532 35.765L8.22532 35.545C8.40132 35.215 8.46732 35.039 8.57732 34.489C8.59932 34.313 8.62132 34.313 8.62132 34.423C8.62132 34.555 8.62132 34.577 8.68732 34.445C8.70932 34.379 8.59932 34.687 8.44532 35.171C8.40132 35.325 8.33532 35.545 8.26932 35.743C8.22532 35.897 8.18132 36.029 8.13732 36.161C7.96132 36.799 7.85132 37.283 7.82932 37.349C7.78532 37.437 7.78532 37.415 7.82932 37.239C7.87332 37.041 7.91732 36.865 8.02732 36.469C8.04932 36.359 8.09332 36.271 8.11532 36.161C8.18132 35.941 8.15932 35.919 8.09332 35.963C8.07132 35.963 8.04932 35.985 8.04932 35.985C8.04932 36.029 8.02732 36.095 8.02732 36.139C7.98332 36.315 7.91732 36.513 7.87332 36.689C7.80732 36.975 7.74132 37.239 7.71932 37.525C7.71932 37.569 7.69732 37.613 7.69732 37.657C7.58732 38.273 7.67532 38.757 7.69732 38.867C7.69732 38.933 7.71932 38.977 7.71932 39.043C7.78532 39.505 7.93932 39.791 8.59932 39.923C8.99532 40.011 9.50132 39.373 9.67732 38.889C9.63332 38.889 9.56732 38.867 9.47932 38.845C9.39132 38.757 9.63332 38.383 9.50132 38.449C9.06132 38.691 8.75332 39.593 8.95132 37.789C8.95132 37.723 8.97332 37.679 8.97332 37.613V37.525C8.97332 37.437 8.99532 37.327 9.01732 37.239C9.03932 37.151 9.06132 37.041 9.08332 36.953C9.10532 36.865 9.12732 36.755 9.14932 36.667C9.17132 36.579 9.19332 36.469 9.21532 36.381C9.21532 36.359 9.23732 36.359 9.23732 36.337C9.25932 36.271 9.28132 36.161 9.30332 36.095C9.32532 36.007 9.36932 35.897 9.39132 35.809C9.41332 35.765 9.41332 35.743 9.43532 35.699C9.43532 35.677 9.45732 35.633 9.45732 35.633C9.50132 35.457 9.52332 35.303 9.61132 35.127C9.61132 35.105 9.63332 35.105 9.63332 35.083C9.87532 34.335 10.0293 33.895 10.1613 33.521C11.6133 34.137 16.7833 36.359 18.5213 36.931C18.6093 36.953 18.7853 36.953 19.1153 37.063C19.6213 37.239 19.5113 37.217 20.0173 37.393C20.3913 37.525 20.7213 37.613 20.7213 37.613C20.7213 37.613 20.8313 37.635 20.9193 37.657C21.0513 37.701 21.0513 37.701 21.0073 37.701C20.9633 37.701 21.2493 37.855 22.0853 38.097C22.3493 38.163 22.2833 38.097 22.1073 38.031C21.9973 38.009 21.9313 37.943 21.9313 37.921C21.9313 37.899 21.9313 37.855 21.9533 37.855C22.0193 37.789 21.8873 37.833 21.8653 37.877C21.8653 37.899 21.8433 37.899 21.7993 37.877C21.7553 37.855 21.7113 37.877 21.7113 37.877C21.7113 37.877 21.6233 37.877 21.5573 37.855C21.4913 37.833 21.4473 37.811 21.4473 37.811C21.4473 37.811 21.5133 37.811 21.5573 37.833C21.6233 37.855 21.6893 37.811 21.6453 37.767C21.5353 37.767 21.3813 37.701 21.3813 37.679C21.3813 37.657 21.4033 37.679 21.4253 37.679H21.5133C21.5133 37.679 21.4473 37.635 21.3373 37.613C21.2273 37.591 21.1393 37.525 21.1393 37.503C21.9533 37.789 21.9973 37.701 22.0413 37.591C22.0633 37.481 22.1293 37.833 21.6673 37.217C21.6233 37.217 21.4033 37.151 21.4033 37.129C21.4033 37.129 21.4253 37.085 21.4473 37.085C21.4693 37.085 21.4913 37.063 21.4693 37.063H21.4473C21.4253 37.063 21.4033 37.063 21.4033 37.085C21.4033 37.107 21.3593 37.129 21.3153 37.107C21.2713 37.085 21.2493 37.041 21.2493 37.041C21.2493 37.041 21.2713 37.019 21.2493 36.997C21.2273 36.975 21.2053 36.997 21.2053 37.019C21.2053 37.063 21.1833 37.063 20.9853 36.997C20.6333 36.865 20.5233 36.799 20.5893 36.799C20.6113 36.799 20.6333 36.777 20.6553 36.777C20.6333 36.777 20.6113 36.755 20.5893 36.755C20.5673 36.755 20.3033 36.645 19.9953 36.513C19.7973 36.425 19.6213 36.359 19.5333 36.315C19.4893 36.315 19.4233 36.315 19.3793 36.293H19.3573C19.3353 36.293 19.3353 36.271 19.3133 36.271C19.2913 36.271 19.2693 36.271 19.2033 36.249L19.1153 36.205C19.0933 36.205 19.0493 36.161 19.0273 36.161C19.0053 36.161 18.9833 36.139 18.9613 36.139H19.0273C19.0053 36.139 18.9833 36.117 18.9613 36.117H18.9173C18.8953 36.117 18.8513 36.117 18.7853 36.095C18.7633 36.095 18.7193 36.051 18.6973 36.051H18.6753C18.5653 36.029 18.5213 35.985 18.5213 35.985L18.4993 35.963H18.4113C18.3893 35.963 18.3673 35.919 18.3453 35.919C18.3233 35.919 18.2793 35.897 18.2573 35.897C18.2133 35.897 18.1913 35.875 18.1473 35.853C18.1253 35.853 18.0813 35.831 18.0593 35.831C18.0373 35.831 18.0153 35.809 17.9933 35.809C17.9713 35.809 17.9053 35.765 17.8833 35.765C17.8393 35.765 17.8613 35.765 17.7953 35.743H17.7733C17.7293 35.743 17.6633 35.699 17.6193 35.677C17.5533 35.655 17.5973 35.677 17.5313 35.655C15.1113 34.775 13.2413 33.917 10.9313 32.795C10.9093 32.795 10.8873 32.773 10.8653 32.751C10.8433 32.751 10.8433 32.729 10.8213 32.729C10.7993 32.729 10.7553 32.707 10.7333 32.707L10.6453 32.663C11.1513 32.861 10.0513 32.421 10.5573 32.619H10.5353C10.6673 32.311 10.7553 32.157 10.9313 31.717C11.1073 31.321 11.2393 31.013 11.3933 30.661C11.5913 30.573 11.7013 30.529 11.7233 30.507C11.7893 30.441 11.8113 30.441 11.8333 30.463C11.8553 30.485 12.0533 30.441 12.3613 30.331C12.6473 30.243 12.8893 30.111 12.9113 30.067C12.9333 30.023 12.9993 30.023 13.0213 30.045C13.0433 30.089 13.1753 30.067 13.7473 29.869C14.2533 29.693 14.3853 29.649 14.2093 29.671C14.0333 29.693 14.0553 29.671 14.3633 29.583C14.5613 29.517 14.8253 29.451 14.9353 29.451C15.0453 29.451 15.4633 29.319 16.0133 29.121C16.2113 29.055 16.3873 29.011 16.5193 28.967C16.6953 28.923 16.7833 28.879 16.7393 28.901C16.6513 28.945 17.9493 28.549 19.6873 28.021C20.6773 27.603 22.0413 27.361 21.1833 27.603C20.3253 27.867 19.6653 28.087 19.6653 28.109C19.6653 28.131 19.5773 28.175 19.4013 28.197C19.1373 28.241 17.0473 28.857 16.5633 29.033C16.5413 29.033 16.4973 29.055 16.4973 29.055C16.1893 29.165 15.0673 29.517 15.1113 29.495C15.1993 29.429 14.9353 29.517 14.7373 29.627C14.6053 29.715 14.5393 29.737 14.4733 29.715C14.4293 29.715 14.2093 29.781 13.9893 29.847L13.5933 29.979C13.7253 29.957 13.8353 29.891 13.9673 29.869C14.3413 29.781 14.3193 29.781 13.8793 29.935C13.5933 30.023 13.3733 30.089 13.3733 30.067C13.3513 30.045 13.3293 30.067 13.2633 30.111C13.2193 30.155 13.0653 30.243 12.9553 30.287C12.8453 30.331 13.3953 30.155 14.1873 29.891C14.9793 29.627 15.6833 29.429 15.7273 29.429C15.7933 29.429 15.6613 29.473 15.4413 29.539C14.9573 29.693 14.9793 29.759 15.4413 29.671L15.4633 29.649L16.1233 29.451C16.1453 29.451 16.1453 29.451 16.1893 29.429C16.2773 29.407 16.3653 29.341 16.4533 29.319L16.6513 29.253C16.8273 29.187 17.0033 29.121 17.1793 29.077L17.1353 29.099H17.1573C17.1793 29.099 17.1793 29.077 17.2013 29.077C17.3773 29.011 17.5753 28.967 17.7733 28.901C17.6633 28.945 17.7953 28.901 17.9273 28.857C17.8393 28.901 18.2353 28.725 18.1473 28.769C18.2573 28.725 18.3453 28.681 18.4553 28.659C18.5433 28.637 18.4993 28.637 18.3453 28.681C17.9713 28.791 17.9713 28.703 18.4333 28.549C18.7193 28.461 18.8073 28.461 18.7633 28.505C18.7413 28.527 18.7633 28.549 18.7853 28.549C18.9393 28.505 19.0713 28.483 19.2253 28.439C19.3573 28.395 19.5113 28.351 19.6433 28.307C19.6653 28.307 19.6873 28.285 19.7093 28.285L19.7313 28.263C20.1713 28.109 20.0173 28.153 20.3253 28.065C20.3693 28.065 20.4353 28.043 20.4793 28.043C20.5013 28.043 20.5013 28.021 20.5233 28.021C20.5673 28.021 20.6113 27.977 20.6553 27.977C20.7213 27.955 20.8093 27.933 20.9193 27.889C19.8413 28.219 18.9613 28.439 18.9613 28.439C18.9613 28.417 19.9513 28.087 20.9633 27.779C21.0733 27.779 20.7433 28.329 20.8973 28.285C21.0953 28.219 21.7773 27.559 21.7333 27.559C21.7113 27.559 22.4373 26.371 21.2933 26.657L20.8313 26.789L20.5233 26.855H20.5013C20.3253 26.921 20.1713 26.987 19.9953 27.031C19.8633 27.075 19.7093 27.097 19.5773 27.141L19.2033 27.251L18.8073 27.383L18.4113 27.515C18.2793 27.559 18.1693 27.581 18.0373 27.625C17.9053 27.669 17.7733 27.691 17.6413 27.735C17.5093 27.779 17.3993 27.823 17.2673 27.867C17.1353 27.911 16.9813 27.955 16.8493 27.999C16.6513 28.065 16.4533 28.109 16.2553 28.153C16.2333 28.153 16.1673 28.175 16.1453 28.175C15.9913 28.197 15.8153 28.241 15.6613 28.263C15.5513 28.307 15.4193 28.351 15.3093 28.395C15.1113 28.461 15.1553 28.439 14.9573 28.505L14.5613 28.637L14.1653 28.769L13.7693 28.901C13.6373 28.945 13.5273 28.967 13.3953 29.011L12.9993 29.143C12.8673 29.187 12.7573 29.253 12.6253 29.297L12.2293 29.429C12.1193 29.473 11.9653 29.517 11.8553 29.561C11.8773 29.495 11.9213 29.429 11.9433 29.363C11.9653 29.297 12.0313 29.209 12.0533 29.143C12.0533 29.121 12.0753 29.099 12.0753 29.077C12.0973 29.011 12.1633 28.879 12.1853 28.813C12.2073 28.725 12.2513 28.637 12.2953 28.549C12.3393 28.417 12.3833 28.263 12.4273 28.131C12.4493 27.977 12.5153 27.845 12.5813 27.691C12.6253 27.603 12.6473 27.493 12.6913 27.405C12.7353 27.317 12.7793 27.207 12.8233 27.119C12.8673 27.031 12.9113 26.921 12.9553 26.833L13.0873 26.569C13.1313 26.481 13.1533 26.349 13.1973 26.261L13.3293 25.997L13.4393 25.711C13.9233 24.853 14.3853 23.577 14.8473 22.653C14.9573 22.323 14.5833 21.971 14.2093 21.971V21.993ZM12.9773 25.667L12.9993 25.689C13.0213 25.601 11.3713 29.473 11.3273 29.715C11.3053 29.759 11.2173 29.781 11.2173 29.781C11.2173 29.781 12.8453 25.667 12.9773 25.667ZM21.1833 26.657C21.1393 26.657 21.0953 26.679 21.0293 26.679C21.0733 26.679 21.1393 26.657 21.1833 26.657ZM20.5013 26.855C20.4793 26.855 20.4133 26.877 20.3913 26.877C20.3253 26.877 20.2813 26.899 20.2153 26.899L20.5013 26.855ZM11.6573 27.097C11.6573 27.141 11.5253 27.449 11.3933 27.779L11.3713 27.845C11.2393 28.175 11.1293 28.351 11.1293 28.307C11.1293 28.263 11.2393 27.955 11.3713 27.625C11.5033 27.317 11.6353 27.097 11.6573 27.097ZM11.6793 27.273C11.6353 27.361 11.5913 27.471 11.5693 27.537C11.5473 27.559 11.5693 27.493 11.6353 27.361C11.6353 27.339 11.6793 27.295 11.6793 27.273ZM11.6133 27.779C11.6133 27.779 11.5253 28.021 11.3713 28.329C11.2613 28.549 11.1953 28.747 11.1513 28.879C11.1073 28.989 11.0633 29.077 11.0633 29.121C11.0633 29.187 10.9973 29.385 10.9313 29.539C10.8433 29.759 10.8213 29.781 10.8433 29.649C10.8653 29.517 10.8213 29.605 10.6673 29.979L10.6453 30.001C10.6233 30.001 10.6013 30.023 10.5793 30.023C10.6013 29.957 10.6673 29.891 10.6893 29.825C10.7553 29.671 10.7993 29.495 10.7993 29.473C10.7773 29.429 10.7773 29.385 10.8653 29.275C10.9753 29.143 11.1073 28.923 11.0193 28.989C11.0193 28.989 11.0413 28.945 11.0633 28.857C11.1513 28.615 11.3493 28.131 11.4373 27.977C11.4373 27.955 11.4813 27.911 11.5033 27.867C11.5033 27.867 11.5693 27.845 11.6133 27.801V27.779ZM15.4413 28.307C15.4193 28.307 15.3973 28.329 15.3753 28.329H15.2873C15.3313 28.329 15.3973 28.307 15.4413 28.307ZM17.6633 28.747H17.6193C17.5753 28.747 17.4873 28.791 17.3993 28.813C17.3113 28.835 17.2453 28.879 17.1793 28.901C17.0473 28.945 17.1133 28.923 17.3553 28.857C17.5533 28.791 17.6633 28.747 17.6633 28.747ZM17.7073 28.835C17.7513 28.835 17.4433 28.967 16.9813 29.099C16.8713 29.143 16.7393 29.187 16.6293 29.209C16.3213 29.297 16.1013 29.363 16.0573 29.363C16.0133 29.363 16.2113 29.275 16.6073 29.143C16.6293 29.143 16.6733 29.121 16.6953 29.121L16.7833 29.099C17.2453 28.967 17.6633 28.835 17.7073 28.835ZM12.2733 28.725H12.2513V28.813V28.747L12.2733 28.725ZM14.7373 29.187C13.6153 29.671 12.3833 30.001 11.5033 30.375L11.5253 30.331C12.4713 29.913 13.7473 29.517 14.7373 29.187ZM10.7333 29.187L10.6893 29.231C10.6233 29.319 10.5793 29.385 10.5353 29.473C10.4913 29.561 10.4693 29.671 10.4253 29.825C10.3813 30.001 10.4253 29.935 10.5793 29.561L10.6453 29.429C10.7113 29.253 10.7333 29.187 10.7333 29.187ZM14.8693 29.759C14.8693 29.759 14.8473 29.781 14.8033 29.803C14.6933 29.869 14.5833 29.913 14.4733 29.957C14.3633 30.001 14.1873 30.023 13.9893 30.067C13.7693 30.111 13.8353 30.089 14.3413 29.913C14.3853 29.891 14.4733 29.891 14.5173 29.869C14.7373 29.803 14.8473 29.759 14.8693 29.759ZM10.6893 29.649C10.6893 29.649 10.6453 29.715 10.5793 29.891C10.5573 29.957 10.5133 30.023 10.4913 30.067C10.5133 30.067 10.5573 30.045 10.5793 30.045C10.6013 29.979 10.6233 29.891 10.6453 29.825C10.6893 29.693 10.6893 29.649 10.6893 29.649ZM13.5713 29.803C13.5493 29.803 13.4833 29.803 13.4393 29.825C13.3513 29.847 13.3073 29.891 13.3073 29.913C13.3073 29.935 13.3733 29.913 13.4613 29.891C13.5493 29.869 13.5933 29.825 13.5933 29.803H13.5713ZM12.2293 30.221C12.2293 30.243 11.9213 30.375 11.6353 30.485C11.5693 30.507 11.4813 30.529 11.4373 30.551C11.4373 30.529 11.4593 30.529 11.4593 30.507C11.7233 30.419 11.9433 30.265 12.2293 30.221ZM9.89732 30.573C9.89732 30.573 9.89732 30.595 9.87532 30.617C9.87532 30.617 9.94132 30.595 9.47932 30.793C9.10532 30.991 8.53332 31.255 8.35732 31.475C8.29132 31.255 9.83132 30.551 9.89732 30.573ZM10.7773 30.903C10.7773 30.903 10.2273 32.267 10.1393 32.245C10.0513 32.223 10.1173 32.135 10.1393 32.069C10.1613 32.003 10.6453 30.969 10.6453 30.969L10.7773 30.903ZM9.74332 30.925C9.72132 30.925 9.58932 30.991 9.58932 30.991C9.58932 30.991 9.74332 30.947 9.74332 30.925ZM9.36932 31.101C9.36932 31.101 9.32532 31.145 9.08332 31.233C8.81932 31.343 8.64332 31.585 8.55532 31.585C8.75332 31.321 8.68732 31.431 9.17132 31.123C9.14932 31.167 9.36932 31.101 9.36932 31.101ZM9.45732 31.321C9.50132 31.321 8.81932 31.695 8.81932 31.695C8.66532 31.717 9.39132 31.321 9.45732 31.321ZM10.8213 32.707L10.8433 32.729L10.8213 32.707ZM9.10532 33.103C9.12732 33.103 9.19332 33.147 9.21532 33.147C8.99532 33.697 8.95132 33.785 9.06132 33.389C8.99532 33.565 9.10532 33.037 8.95132 33.587C8.79732 34.005 8.73132 34.093 8.77532 33.917C8.84132 33.653 9.03932 33.301 9.10532 33.103ZM9.30332 33.147C9.30332 33.147 9.36932 33.213 9.39132 33.213C9.25932 33.565 9.08332 33.895 8.90732 34.379C8.64332 35.127 8.46732 35.721 8.33532 36.183C8.18132 36.733 8.07132 37.173 8.02732 37.547C8.00532 37.591 7.96132 37.613 7.93932 37.657V37.613C7.93932 37.591 7.96132 37.569 7.96132 37.547C8.00532 37.173 8.09332 36.755 8.24732 36.183C8.44532 35.479 8.68732 34.797 8.92932 34.115C9.08332 33.697 9.19332 33.433 9.30332 33.169V33.147ZM9.61132 33.301L9.69932 33.345C9.69932 33.345 8.70932 36.073 8.70932 35.875C8.70932 35.677 9.61132 33.301 9.61132 33.301ZM18.0373 35.765H17.9713H17.9053H17.9713H18.0373ZM18.3893 35.897H18.3013H18.3893ZM18.4993 35.963L18.6533 35.985H18.6093H18.5653C18.5433 35.985 18.4993 35.963 18.4993 35.963ZM16.5633 35.897C16.5633 35.897 16.4973 35.919 16.4753 35.919C16.4533 35.919 16.4533 35.941 16.4973 35.963C16.5413 35.985 16.5853 35.963 16.5853 35.919C16.5853 35.897 16.5633 35.897 16.5633 35.897ZM19.2033 36.073L19.1813 36.095L19.1593 36.073H19.2033ZM15.9253 35.963H15.9033C15.9033 35.963 15.9473 36.007 15.9913 36.007H16.0573L16.0353 35.985C16.0133 35.985 15.9473 35.963 15.9253 35.963ZM18.5213 36.095C18.5213 36.095 18.5433 36.117 18.5873 36.139C18.6313 36.161 18.6753 36.161 18.6533 36.139C18.6533 36.139 18.6093 36.117 18.5873 36.117C18.5653 36.117 18.5653 36.095 18.5433 36.095H18.5213ZM18.9173 36.117L18.9393 36.139L18.9173 36.117ZM16.1673 35.985H16.1233C16.1013 36.007 16.1453 36.029 16.2333 36.029C16.2773 36.029 16.2773 36.007 16.2113 35.985H16.1673ZM17.7953 36.095C17.7733 36.095 17.7733 36.117 17.7733 36.139C17.8173 36.205 18.2353 36.359 18.2793 36.315H18.3893C18.4333 36.315 18.3893 36.293 18.3013 36.271C18.2133 36.249 18.0813 36.183 17.9713 36.139C17.8833 36.117 17.8173 36.095 17.7953 36.095ZM19.5773 36.205H19.5553H19.5773ZM17.0693 36.073C17.0693 36.073 17.0473 36.095 17.0473 36.117V36.161L17.0913 36.139C17.0913 36.139 17.0913 36.073 17.0693 36.073ZM16.4313 36.051C16.4093 36.051 16.4313 36.095 16.4533 36.095C16.4753 36.095 16.4973 36.117 16.4973 36.095L16.4753 36.073L16.4313 36.051ZM17.7293 36.139V36.161C17.7293 36.183 17.7513 36.227 17.7513 36.227C17.7513 36.227 17.7733 36.205 17.7733 36.183C17.7733 36.161 17.7513 36.139 17.7513 36.139H17.7293ZM19.3793 36.249L19.4233 36.271H19.4013H19.3573H19.3133C19.3133 36.271 19.3573 36.249 19.3793 36.249ZM17.2453 36.161H17.2233C17.2233 36.161 17.2453 36.183 17.2893 36.205C17.3333 36.227 17.3773 36.227 17.3773 36.227C17.3773 36.205 17.3333 36.183 17.2893 36.161H17.2453ZM16.8493 36.139H16.7833C16.8053 36.139 16.8273 36.183 16.8493 36.183C16.8713 36.183 16.9593 36.205 16.9813 36.205C17.0033 36.205 17.0253 36.183 17.0473 36.183C17.0253 36.183 17.0033 36.161 16.9813 36.161C16.9593 36.161 16.8933 36.139 16.8493 36.139ZM18.6313 36.249L18.6093 36.271V36.293H18.6533V36.249H18.6313ZM8.90732 33.829V33.851C8.90732 33.895 8.88532 33.961 8.86332 34.005C8.84132 34.049 8.81932 34.115 8.79732 34.137C8.77532 34.203 8.79732 34.159 8.84132 34.005C8.88532 33.895 8.90732 33.829 8.90732 33.829ZM19.4673 36.293H19.4893H19.4673ZM19.4893 36.293H19.5113L19.5333 36.315C19.5333 36.315 19.5113 36.293 19.4893 36.293ZM17.4653 36.227H17.4213C17.3993 36.227 17.4433 36.271 17.4873 36.271C17.5533 36.271 17.5753 36.271 17.5313 36.249L17.4873 36.227H17.4653ZM18.7633 36.293C18.7633 36.293 18.7413 36.293 18.7413 36.315C18.7413 36.337 18.7413 36.337 18.7633 36.337C18.7853 36.337 18.8073 36.359 18.8073 36.381C18.8073 36.403 18.7413 36.381 18.6533 36.359C18.5213 36.315 18.4773 36.337 18.4553 36.381C18.4333 36.425 18.4553 36.425 18.4773 36.403C18.4993 36.381 18.6093 36.403 18.8073 36.469C19.0273 36.535 19.1153 36.557 19.1153 36.535C19.1153 36.513 19.1813 36.513 19.2473 36.535L19.2693 36.557C19.3353 36.579 19.3353 36.579 19.2693 36.579H19.2033L19.2473 36.623C19.2913 36.645 19.4013 36.601 19.4013 36.557C19.4013 36.557 19.3573 36.513 19.2913 36.491H19.2473C19.1593 36.469 19.0933 36.447 19.0933 36.469C19.0933 36.491 19.0493 36.469 18.9833 36.447C18.8953 36.425 18.8733 36.381 18.8953 36.381C18.9173 36.381 18.9613 36.403 18.9613 36.403C18.9613 36.403 18.9833 36.381 18.9833 36.359C18.9833 36.337 18.9613 36.293 18.9393 36.293H18.9173H18.7633ZM19.1593 36.315C19.1373 36.315 19.1153 36.337 19.1153 36.337C19.1153 36.337 19.1153 36.381 19.1373 36.381C19.1593 36.381 19.2033 36.381 19.2033 36.359L19.1813 36.337L19.1593 36.315ZM17.7513 36.271H17.7293C17.7293 36.293 17.7733 36.315 17.7953 36.293C17.7953 36.293 17.7953 36.271 17.7733 36.271H17.7513ZM19.0493 36.337H19.0273C19.0053 36.337 19.0053 36.359 19.0273 36.359H19.0713L19.0493 36.337ZM17.9053 36.315C17.8833 36.315 17.8833 36.359 17.9053 36.359C17.9273 36.359 17.9493 36.337 17.9493 36.337H17.9273L17.9053 36.315ZM19.4893 36.403L19.4673 36.425C19.4673 36.447 19.6433 36.513 19.6653 36.491C19.6653 36.491 19.6433 36.447 19.5773 36.425C19.5553 36.425 19.5113 36.403 19.4893 36.403ZM20.5233 36.469C20.5013 36.469 20.4573 36.513 20.4353 36.513L20.3693 36.491C20.4133 36.491 20.4793 36.469 20.5233 36.469ZM17.4213 36.315H17.3993C17.3553 36.315 17.3333 36.337 17.3553 36.359C17.3553 36.381 17.3993 36.403 17.4213 36.403C17.4433 36.403 17.5313 36.425 17.5753 36.425C17.6853 36.425 17.7293 36.447 17.7733 36.447C17.7953 36.447 17.8173 36.447 17.8173 36.425C17.8173 36.425 17.8173 36.381 17.7953 36.381H17.7733C17.7513 36.381 17.6633 36.359 17.5973 36.337C17.5313 36.315 17.4653 36.315 17.4213 36.315ZM18.1913 36.403C18.1693 36.403 18.1913 36.447 18.2133 36.447C18.2353 36.447 18.2573 36.469 18.2573 36.447L18.2353 36.425L18.1913 36.403ZM17.8613 36.425L17.8393 36.447C17.8393 36.469 17.9273 36.535 18.1253 36.601C18.2793 36.667 18.4113 36.733 18.4113 36.733L18.6313 36.777C18.7853 36.799 18.7853 36.821 18.7413 36.777C18.7193 36.755 18.6753 36.711 18.6313 36.711C18.5873 36.711 18.5653 36.689 18.5873 36.667C18.6093 36.645 18.6093 36.623 18.5873 36.623H18.5653C18.5433 36.623 18.4993 36.623 18.4993 36.645C18.4993 36.667 18.4333 36.645 18.3673 36.601C18.1693 36.513 18.1693 36.491 18.0153 36.469C17.9493 36.469 17.8613 36.425 17.8613 36.425ZM19.9293 36.557C19.9513 36.579 19.9733 36.623 19.9293 36.623C19.9073 36.623 19.8853 36.645 19.9073 36.645C19.9293 36.645 19.9733 36.623 19.9733 36.623H20.0173C20.0173 36.623 20.0393 36.645 20.0393 36.623C20.0393 36.601 20.0173 36.557 19.9733 36.557H19.9293ZM19.4673 36.557H19.4453C19.4453 36.557 19.4673 36.601 19.5333 36.623C19.5993 36.645 19.6433 36.623 19.6433 36.623L19.5553 36.579C19.5333 36.579 19.4893 36.557 19.4673 36.557ZM19.7533 36.579H19.7313H19.6873C19.6873 36.579 19.7093 36.623 19.7313 36.623C19.7533 36.623 19.7973 36.623 19.7973 36.601L19.7753 36.579H19.7533ZM20.1493 36.645H20.1273C20.1053 36.645 20.0833 36.667 20.0833 36.667C20.0613 36.689 20.0833 36.711 20.1493 36.733C20.1933 36.733 20.2593 36.755 20.2593 36.733C20.2593 36.711 20.2153 36.667 20.1933 36.667H20.1713L20.1493 36.645ZM19.4013 36.645C19.3793 36.645 19.3793 36.667 19.3793 36.667C19.3793 36.689 19.4013 36.711 19.4013 36.711L19.4453 36.689C19.4453 36.689 19.4453 36.645 19.4233 36.645H19.4013ZM19.7533 36.689C19.7313 36.711 20.0833 36.799 20.1273 36.799C20.1493 36.799 20.1053 36.777 20.0613 36.755H20.0393C20.0173 36.755 19.9953 36.733 19.9733 36.733C19.8853 36.711 19.7753 36.689 19.7533 36.689ZM20.4573 36.755H20.4353C20.4133 36.755 20.4353 36.777 20.4573 36.777C20.4793 36.777 20.5013 36.799 20.5013 36.777L20.4793 36.755H20.4573ZM18.8073 36.667V36.711V36.755C18.8073 36.755 18.8293 36.711 18.8293 36.689L18.8073 36.667ZM18.8733 36.689L18.8513 36.711V36.755L18.8953 36.733V36.689H18.8733ZM18.9613 36.711L18.9393 36.733L18.9833 36.777C19.0273 36.799 19.0493 36.799 19.0273 36.777C19.0053 36.755 18.9613 36.733 18.9613 36.733V36.711ZM20.9633 36.865C20.9633 36.865 20.9853 36.887 21.0293 36.887L21.0513 36.909L21.1393 36.953C21.1393 36.975 21.0073 36.953 20.9633 36.909V36.865ZM18.9833 36.843H18.9393H18.9173C18.8733 36.843 18.8513 36.865 18.9173 36.887C18.9613 36.909 19.0273 36.887 19.0273 36.887C19.0273 36.865 19.0493 36.843 19.0273 36.843H18.9833ZM19.4673 36.887H19.4233L19.5113 36.931C19.5553 36.953 19.5773 36.953 19.5773 36.931C19.5773 36.931 19.5773 36.909 19.5553 36.909L19.5333 36.887H19.4673ZM19.0933 36.887H19.0713C19.0713 36.887 19.0933 36.909 19.1373 36.931L19.1593 36.953C19.1813 36.953 19.2253 36.953 19.2253 36.931C19.2253 36.931 19.1813 36.909 19.1593 36.909C19.1373 36.909 19.1153 36.887 19.0933 36.887ZM20.5013 36.953V36.997C20.5233 37.063 20.5453 37.041 20.5673 37.019C20.5673 37.019 20.5673 36.975 20.5453 36.975C20.5233 36.975 20.5013 36.953 20.5013 36.953ZM19.6873 36.931C19.6653 36.931 19.6433 36.953 19.6433 36.953C19.6433 36.975 19.6653 37.019 19.6873 37.019C19.7093 37.019 19.7533 37.019 19.7533 36.997C19.7533 36.975 19.7313 36.931 19.7093 36.931H19.6873ZM20.7433 37.019V37.041C20.7433 37.063 20.7213 37.063 20.6993 37.063C20.6773 37.063 20.6773 37.041 20.6773 37.041V37.085C20.6773 37.085 20.6993 37.129 20.7433 37.129C20.7873 37.129 20.8313 37.129 20.8093 37.107C20.7873 37.085 20.7653 37.063 20.7653 37.041L20.7433 37.019ZM19.3573 36.931C19.2913 36.931 19.2913 36.975 19.3573 36.997C19.3793 36.997 19.4233 36.997 19.4233 36.975L19.3793 36.953V36.931H19.3573ZM20.8973 37.063C20.8973 37.063 20.8753 37.085 20.8753 37.107V37.173C20.8753 37.173 20.9193 37.151 20.9193 37.129V37.063H20.8973ZM21.0293 37.129H21.0073L21.0293 37.151C21.0733 37.173 21.0513 37.195 21.0293 37.217C21.0073 37.239 20.9853 37.261 21.0073 37.261C21.0073 37.261 21.0733 37.239 21.0953 37.217C21.1393 37.173 21.1393 37.173 21.1173 37.217C21.0953 37.239 21.0953 37.283 21.1173 37.283C21.0953 37.349 21.3813 37.459 21.5573 37.481C21.6453 37.459 21.7773 37.591 21.7553 37.547L21.6453 37.437C21.6233 37.415 21.6453 37.327 21.6233 37.327C21.5793 37.327 21.5573 37.327 21.5573 37.371C21.5573 37.415 21.5353 37.415 21.4693 37.393C21.4253 37.371 21.3593 37.393 21.3593 37.393C21.3373 37.415 21.2493 37.371 21.2713 37.327C21.2713 37.305 21.3373 37.305 21.3813 37.327C21.4913 37.349 21.5133 37.349 21.4913 37.283C21.4913 37.261 21.4693 37.239 21.4693 37.239C21.4693 37.239 21.4473 37.239 21.4473 37.261C21.4473 37.283 21.4253 37.305 21.4253 37.283C21.4253 37.261 21.3593 37.239 21.3153 37.217C21.1613 37.173 21.0513 37.129 21.0293 37.129ZM19.8193 37.107C19.7973 37.107 19.8193 37.129 19.8633 37.151C19.9073 37.173 19.9293 37.173 19.9073 37.151C19.9073 37.151 19.8853 37.129 19.8633 37.129C19.8413 37.129 19.8193 37.107 19.8193 37.107ZM20.0393 37.151L20.0173 37.173V37.217C20.0173 37.217 20.0393 37.217 20.0393 37.195V37.151ZM20.4353 37.195C20.4133 37.195 20.4133 37.195 20.4573 37.217C20.5013 37.239 20.5013 37.239 20.5013 37.217H20.4793L20.4353 37.195ZM20.1493 37.217C20.1053 37.217 20.0833 37.217 20.0833 37.239C20.0833 37.261 20.0833 37.261 20.1053 37.261C20.1273 37.261 20.2153 37.261 20.2813 37.283C20.4793 37.327 20.4793 37.327 20.3253 37.261C20.2593 37.239 20.1933 37.217 20.1493 37.217ZM20.5453 37.349H20.5233C20.5013 37.349 20.5013 37.371 20.5233 37.371H20.5673L20.5453 37.349ZM21.0293 37.437C21.0073 37.437 20.9853 37.437 20.9853 37.459C20.9853 37.481 21.0073 37.503 21.0293 37.503C21.0513 37.503 21.0733 37.481 21.0733 37.481C21.0733 37.481 21.0733 37.437 21.0513 37.437H21.0293ZM20.8753 37.437V37.459C20.8533 37.481 20.8093 37.481 20.7873 37.481C20.7653 37.481 20.7653 37.503 20.8093 37.525C20.8533 37.547 20.8753 37.525 20.8753 37.481V37.437ZM21.0293 37.525L21.0073 37.569V37.591L21.0293 37.569V37.525ZM21.2053 37.613H21.1833C21.1613 37.613 21.1833 37.635 21.2053 37.635H21.2493L21.2273 37.613H21.2053ZM9.58932 35.303L9.56732 35.325H9.58932V35.303ZM9.45732 35.633V35.655V35.633ZM8.57732 36.403C8.57732 36.403 8.53332 36.491 8.51132 36.645C8.46732 36.843 8.46732 36.865 8.48932 36.777C8.51132 36.733 8.55532 36.667 8.55532 36.601C8.55532 36.535 8.57732 36.469 8.57732 36.425V36.403ZM7.89532 36.667C7.89532 36.667 7.85132 36.755 7.82932 36.909C7.78532 37.129 7.80732 37.129 7.82932 37.041C7.82932 36.997 7.87332 36.931 7.87332 36.865C7.87332 36.799 7.89532 36.733 7.89532 36.689V36.667ZM8.18132 39.373C8.02732 39.725 7.76332 38.295 7.93932 37.877C7.93932 38.163 7.96132 39.263 8.18132 39.373ZM9.74332 38.757H9.72132C9.72132 38.779 9.67732 38.867 9.67732 38.889C9.83132 38.889 9.76532 38.757 9.74332 38.757Z" fill="url(#paint0_linear_2451_28917)"/>
<path d="M53.73 36H54.82V33.13L57.53 28.71H56.3L54.3 32.07H54.25L52.27 28.71H51.03L53.73 33.13V36ZM59.4188 36.09C61.0088 36.09 61.9988 34.98 61.9988 33.36C61.9988 31.68 60.9588 30.63 59.4188 30.63C57.8188 30.63 56.8288 31.74 56.8288 33.37C56.8288 35.03 57.8688 36.09 59.4188 36.09ZM59.4188 35.23C58.4788 35.23 57.8788 34.55 57.8788 33.37C57.8788 32.15 58.4988 31.48 59.4188 31.48C60.3688 31.48 60.9488 32.17 60.9488 33.36C60.9488 34.56 60.3388 35.23 59.4188 35.23ZM64.9274 36.09C65.7474 36.09 66.4374 35.66 66.6974 34.93H66.7574L66.8074 36H67.7874V30.71H66.7574V33.57C66.7574 34.54 66.1774 35.23 65.3074 35.23C64.4174 35.23 64.0574 34.69 64.0574 33.71V30.71H63.0274V33.97C63.0274 35.37 63.7274 36.09 64.9274 36.09ZM69.1809 36H70.2009V33.11C70.2009 32.2 70.7709 31.48 71.6809 31.48C72.5209 31.48 72.9109 31.99 72.9109 33.07V36H73.9409V32.86C73.9409 31.24 73.1309 30.63 72.0509 30.63C71.2709 30.63 70.5709 31.01 70.2609 31.76H70.2009L70.1609 30.71H69.1809V36ZM77.4233 37.77C78.9133 37.77 79.9233 37.17 79.9233 35.51V30.71H78.9233L78.9033 31.69H78.8333C78.5933 31.05 77.9533 30.62 77.1133 30.62C75.8333 30.62 74.9733 31.54 74.9733 33.16C74.9733 34.77 75.8133 35.69 77.1033 35.69C77.9433 35.69 78.5933 35.26 78.8333 34.62H78.9033V35.65C78.9033 36.63 78.3933 37.01 77.4433 37.01C76.7733 37.01 76.3133 36.72 76.2333 36.25H75.2333C75.3433 37.19 76.1533 37.77 77.4233 37.77ZM77.4533 34.89C76.5933 34.89 76.0333 34.28 76.0333 33.16C76.0333 32.06 76.5833 31.43 77.4633 31.43C78.3933 31.43 78.8833 32.14 78.8933 32.83L78.9033 33.47C78.8833 34.17 78.3733 34.89 77.4533 34.89ZM86.4362 36.09C87.7262 36.09 88.5962 35.13 88.5962 33.36C88.5962 31.59 87.7262 30.62 86.4362 30.62C85.5462 30.62 84.8862 31.08 84.6362 31.75H84.5762V28.71H83.5462V36H84.5362L84.5762 34.96H84.6362C84.8862 35.64 85.5462 36.09 86.4362 36.09ZM86.0762 35.24C85.0962 35.24 84.5862 34.47 84.5862 33.65V33.06C84.5862 32.24 85.0962 31.47 86.0762 31.47C86.9562 31.47 87.5362 32.11 87.5362 33.36C87.5362 34.6 86.9562 35.24 86.0762 35.24ZM89.679 29.9H90.709V28.71H89.679V29.9ZM89.679 36H90.709V30.71H89.679V36ZM92.1399 36H93.1699V28.71H92.1399V36ZM94.6009 36H95.6309V28.71H94.6009V36ZM97.0618 29.9H98.0918V28.71H97.0618V29.9ZM97.0618 36H98.0918V30.71H97.0618V36ZM101.753 36.09C103.343 36.09 104.333 34.98 104.333 33.36C104.333 31.68 103.293 30.63 101.753 30.63C100.153 30.63 99.1627 31.74 99.1627 33.37C99.1627 35.03 100.203 36.09 101.753 36.09ZM101.753 35.23C100.813 35.23 100.213 34.55 100.213 33.37C100.213 32.15 100.833 31.48 101.753 31.48C102.703 31.48 103.283 32.17 103.283 33.36C103.283 34.56 102.673 35.23 101.753 35.23ZM105.411 36H106.431V33.11C106.431 32.2 107.001 31.48 107.911 31.48C108.751 31.48 109.141 31.99 109.141 33.07V36H110.171V32.86C110.171 31.24 109.361 30.63 108.281 30.63C107.501 30.63 106.801 31.01 106.491 31.76H106.431L106.391 30.71H105.411V36ZM113.364 36.09C114.254 36.09 114.914 35.63 115.164 34.95H115.224V36H116.254V30.71H115.264L115.224 31.75H115.164C114.914 31.07 114.254 30.62 113.364 30.62C112.074 30.62 111.204 31.58 111.204 33.35C111.204 35.12 112.074 36.09 113.364 36.09ZM113.724 35.24C112.844 35.24 112.264 34.59 112.264 33.35C112.264 32.1 112.844 31.46 113.724 31.46C114.704 31.46 115.214 32.24 115.214 33.05V33.65C115.214 34.47 114.704 35.24 113.724 35.24ZM117.697 29.9H118.727V28.71H117.697V29.9ZM117.697 36H118.727V30.71H117.697V36ZM120.158 36H121.178V32.98C121.228 32.11 121.758 31.62 122.698 31.62C122.818 31.62 122.938 31.62 123.018 31.63V30.66C122.928 30.65 122.828 30.64 122.708 30.64C122.007 30.64 121.408 30.97 121.178 31.65H121.128L121.078 30.71H120.158V36ZM125.961 36.09C127.211 36.09 128.171 35.41 128.311 34.37H127.331C127.201 34.92 126.671 35.27 125.961 35.27C125.041 35.27 124.441 34.65 124.421 33.56H128.341C128.501 31.9 127.661 30.63 125.921 30.63C124.371 30.63 123.401 31.71 123.401 33.38C123.401 35.01 124.371 36.09 125.961 36.09ZM125.911 31.44C126.691 31.44 127.301 31.85 127.331 32.83H124.441C124.521 31.97 125.081 31.44 125.911 31.44ZM131.424 36.1C132.804 36.1 133.664 35.58 133.664 34.5C133.664 33.29 132.744 33.05 131.644 32.9C130.744 32.78 130.344 32.62 130.344 32.1C130.344 31.65 130.724 31.34 131.424 31.34C132.104 31.34 132.534 31.63 132.544 32.27H133.554C133.534 31.24 132.744 30.61 131.444 30.61C130.164 30.61 129.314 31.19 129.314 32.2C129.314 33.28 130.144 33.56 131.344 33.73C132.234 33.86 132.614 34 132.614 34.59C132.614 35.08 132.214 35.37 131.454 35.37C130.714 35.37 130.184 35.06 130.184 34.34H129.164C129.164 35.39 129.974 36.1 131.424 36.1Z" fill="#9CA3AF"/>
<path d="M52.232 17.5H53.758V14.462L55.48 12.642L58.714 17.5H60.52L56.516 11.536L60.45 7.294H58.602L53.758 12.642V7.294H52.232V17.5ZM64.1661 17.626C65.9161 17.626 67.2601 16.674 67.4561 15.218H66.0841C65.9021 15.988 65.1601 16.478 64.1661 16.478C62.8781 16.478 62.0381 15.61 62.0101 14.084H67.4981C67.7221 11.76 66.5461 9.982 64.1101 9.982C61.9401 9.982 60.5821 11.494 60.5821 13.832C60.5821 16.114 61.9401 17.626 64.1661 17.626ZM64.0961 11.116C65.1881 11.116 66.0421 11.69 66.0841 13.062H62.0381C62.1501 11.858 62.9341 11.116 64.0961 11.116ZM72.2735 17.626C74.0235 17.626 75.3675 16.674 75.5635 15.218H74.1915C74.0095 15.988 73.2675 16.478 72.2735 16.478C70.9855 16.478 70.1455 15.61 70.1175 14.084H75.6055C75.8295 11.76 74.6535 9.982 72.2175 9.982C70.0475 9.982 68.6895 11.494 68.6895 13.832C68.6895 16.114 70.0475 17.626 72.2735 17.626ZM72.2035 11.116C73.2955 11.116 74.1495 11.69 74.1915 13.062H70.1455C70.2575 11.858 71.0415 11.116 72.2035 11.116ZM79.821 17.626C81.067 17.626 81.991 16.982 82.341 16.03H82.425L82.481 17.5H83.867V7.294H82.425V11.55H82.341C81.991 10.598 81.067 9.968 79.821 9.968C78.015 9.968 76.797 11.312 76.797 13.79C76.797 16.268 78.015 17.626 79.821 17.626ZM80.325 16.436C79.093 16.436 78.281 15.526 78.281 13.79C78.281 12.04 79.093 11.144 80.325 11.144C81.697 11.144 82.411 12.236 82.411 13.37V14.21C82.411 15.358 81.697 16.436 80.325 16.436Z" fill="#1E2C31"/>
<path d="M96.6271 15.036C96.4111 15.036 96.2151 15.0013 96.0391 14.932C95.8657 14.8627 95.7151 14.764 95.5871 14.636C95.4617 14.5053 95.3657 14.348 95.2991 14.164C95.2324 13.98 95.1991 13.7733 95.1991 13.544C95.1991 13.312 95.2324 13.104 95.2991 12.92C95.3657 12.736 95.4631 12.58 95.5911 12.452C95.7191 12.3213 95.8697 12.2227 96.0431 12.156C96.2164 12.0867 96.4111 12.052 96.6271 12.052C96.8671 12.052 97.0804 12.0933 97.2671 12.176C97.4564 12.2587 97.6111 12.376 97.7311 12.528C97.8511 12.6773 97.9244 12.8547 97.9511 13.06H97.5111C97.4844 12.9373 97.4311 12.8293 97.3511 12.736C97.2737 12.64 97.1737 12.5653 97.0511 12.512C96.9284 12.456 96.7871 12.428 96.6271 12.428C96.4271 12.428 96.2524 12.472 96.1031 12.56C95.9564 12.648 95.8431 12.7747 95.7631 12.94C95.6857 13.1053 95.6471 13.3067 95.6471 13.544C95.6471 13.72 95.6697 13.8773 95.7151 14.016C95.7604 14.1547 95.8257 14.272 95.9111 14.368C95.9964 14.4613 96.0991 14.5333 96.2191 14.584C96.3417 14.6347 96.4777 14.66 96.6271 14.66C96.7844 14.66 96.9244 14.6333 97.0471 14.58C97.1724 14.5267 97.2751 14.452 97.3551 14.356C97.4351 14.2573 97.4871 14.1427 97.5111 14.012L97.9511 14.016C97.9271 14.2213 97.8551 14.4013 97.7351 14.556C97.6177 14.708 97.4631 14.8267 97.2711 14.912C97.0817 14.9947 96.8671 15.036 96.6271 15.036ZM99.3206 15.036C99.166 15.036 99.0246 15.0107 98.8966 14.96C98.7713 14.9093 98.6633 14.836 98.5726 14.74C98.482 14.644 98.4113 14.5293 98.3606 14.396C98.31 14.2627 98.2846 14.1133 98.2846 13.948C98.2846 13.7293 98.326 13.5387 98.4086 13.376C98.494 13.2107 98.614 13.0827 98.7686 12.992C98.926 12.8987 99.11 12.852 99.3206 12.852C99.4753 12.852 99.6153 12.8773 99.7406 12.928C99.8686 12.976 99.978 13.048 100.069 13.144C100.159 13.24 100.229 13.356 100.277 13.492C100.327 13.6253 100.353 13.776 100.353 13.944C100.353 14.16 100.311 14.3507 100.229 14.516C100.146 14.6787 100.027 14.8067 99.8726 14.9C99.718 14.9907 99.534 15.036 99.3206 15.036ZM99.3206 14.692C99.4433 14.692 99.55 14.664 99.6406 14.608C99.734 14.5493 99.806 14.464 99.8566 14.352C99.9073 14.24 99.9326 14.104 99.9326 13.944C99.9326 13.824 99.918 13.7187 99.8886 13.628C99.862 13.5347 99.822 13.456 99.7686 13.392C99.7153 13.3253 99.6513 13.276 99.5766 13.244C99.502 13.2093 99.4166 13.192 99.3206 13.192C99.198 13.192 99.09 13.2213 98.9966 13.28C98.906 13.3387 98.834 13.424 98.7806 13.536C98.73 13.6453 98.7046 13.7827 98.7046 13.948C98.7046 14.0653 98.718 14.1707 98.7446 14.264C98.774 14.3547 98.8153 14.432 98.8686 14.496C98.9246 14.56 98.99 14.6093 99.0646 14.644C99.142 14.676 99.2273 14.692 99.3206 14.692ZM100.784 15V12.884H101.176L101.192 13.304H101.216C101.275 13.1547 101.367 13.0427 101.492 12.968C101.62 12.8907 101.761 12.852 101.916 12.852C102.071 12.852 102.209 12.8893 102.332 12.964C102.457 13.0387 102.547 13.1667 102.6 13.348H102.632C102.691 13.1827 102.787 13.0587 102.92 12.976C103.056 12.8933 103.208 12.852 103.376 12.852C103.515 12.852 103.639 12.8813 103.748 12.94C103.86 12.9987 103.948 13.0933 104.012 13.224C104.076 13.3547 104.108 13.528 104.108 13.744V15H103.7V13.828C103.7 13.684 103.683 13.5653 103.648 13.472C103.613 13.376 103.561 13.3053 103.492 13.26C103.423 13.2147 103.332 13.192 103.22 13.192C103.105 13.192 103.005 13.2213 102.92 13.28C102.835 13.3387 102.768 13.4173 102.72 13.516C102.675 13.612 102.652 13.7213 102.652 13.844V15H102.24V13.828C102.24 13.684 102.223 13.5653 102.188 13.472C102.153 13.376 102.101 13.3053 102.032 13.26C101.963 13.2147 101.873 13.192 101.764 13.192C101.647 13.192 101.545 13.2213 101.46 13.28C101.375 13.3387 101.308 13.4173 101.26 13.516C101.215 13.612 101.192 13.7213 101.192 13.844V15H100.784ZM104.663 15V12.884H105.075V15H104.663ZM104.663 12.56V12.084H105.075V12.56H104.663ZM105.647 15V12.884H106.039L106.055 13.304H106.079C106.141 13.1547 106.237 13.0427 106.367 12.968C106.498 12.8907 106.641 12.852 106.795 12.852C106.905 12.852 107.005 12.868 107.095 12.9C107.189 12.932 107.269 12.984 107.335 13.056C107.405 13.1253 107.458 13.2173 107.495 13.332C107.533 13.444 107.551 13.5813 107.551 13.744V15H107.139V13.828C107.139 13.684 107.122 13.5653 107.087 13.472C107.053 13.376 106.999 13.3053 106.927 13.26C106.855 13.2147 106.762 13.192 106.647 13.192C106.527 13.192 106.422 13.2213 106.331 13.28C106.243 13.3387 106.175 13.4173 106.127 13.516C106.079 13.612 106.055 13.7213 106.055 13.844V15H105.647ZM108.944 15.708C108.776 15.708 108.63 15.6827 108.504 15.632C108.379 15.584 108.279 15.5147 108.204 15.424C108.13 15.3333 108.084 15.2253 108.068 15.1H108.468C108.479 15.1613 108.506 15.2147 108.548 15.26C108.591 15.308 108.646 15.344 108.712 15.368C108.782 15.392 108.862 15.404 108.952 15.404C109.08 15.404 109.187 15.3853 109.272 15.348C109.358 15.3133 109.423 15.256 109.468 15.176C109.514 15.096 109.536 14.9907 109.536 14.86V14.448H109.508C109.46 14.576 109.375 14.68 109.252 14.76C109.13 14.8373 108.984 14.876 108.816 14.876C108.688 14.876 108.571 14.8547 108.464 14.812C108.36 14.7667 108.271 14.7013 108.196 14.616C108.122 14.528 108.064 14.4213 108.024 14.296C107.984 14.168 107.964 14.024 107.964 13.864C107.964 13.648 108 13.464 108.072 13.312C108.144 13.16 108.244 13.0453 108.372 12.968C108.5 12.888 108.65 12.848 108.82 12.848C108.988 12.848 109.132 12.8867 109.252 12.964C109.375 13.0413 109.46 13.1453 109.508 13.276H109.536L109.544 12.884H109.944V14.804C109.944 14.9693 109.92 15.1093 109.872 15.224C109.824 15.3413 109.756 15.4347 109.668 15.504C109.58 15.576 109.474 15.628 109.348 15.66C109.226 15.692 109.091 15.708 108.944 15.708ZM108.956 14.556C109.079 14.556 109.183 14.528 109.268 14.472C109.354 14.416 109.419 14.3453 109.464 14.26C109.51 14.172 109.534 14.0813 109.536 13.988L109.532 13.732C109.53 13.6413 109.507 13.5533 109.464 13.468C109.422 13.38 109.358 13.3093 109.272 13.256C109.19 13.2 109.086 13.172 108.96 13.172C108.843 13.172 108.742 13.1987 108.656 13.252C108.571 13.3053 108.504 13.384 108.456 13.488C108.411 13.592 108.388 13.7173 108.388 13.864C108.388 14.0133 108.411 14.14 108.456 14.244C108.504 14.3453 108.571 14.4227 108.656 14.476C108.742 14.5293 108.842 14.556 108.956 14.556ZM112.433 15.036C112.175 15.036 111.96 14.996 111.789 14.916C111.619 14.836 111.491 14.7253 111.405 14.584C111.32 14.44 111.276 14.2747 111.273 14.088H111.721C111.724 14.2107 111.751 14.3187 111.801 14.412C111.855 14.5027 111.933 14.572 112.037 14.62C112.141 14.668 112.276 14.692 112.441 14.692C112.647 14.692 112.811 14.6547 112.933 14.58C113.059 14.5053 113.121 14.3907 113.121 14.236C113.121 14.148 113.108 14.0747 113.081 14.016C113.055 13.9573 113.011 13.9093 112.949 13.872C112.891 13.832 112.812 13.7987 112.713 13.772C112.615 13.7453 112.495 13.72 112.353 13.696C112.185 13.6667 112.037 13.632 111.909 13.592C111.784 13.5493 111.679 13.4973 111.593 13.436C111.511 13.372 111.448 13.2947 111.405 13.204C111.363 13.1133 111.341 13.0067 111.341 12.884C111.341 12.7133 111.384 12.5653 111.469 12.44C111.555 12.3147 111.677 12.2187 111.837 12.152C111.997 12.0853 112.189 12.052 112.413 12.052C112.637 12.052 112.828 12.088 112.985 12.16C113.143 12.2293 113.264 12.328 113.349 12.456C113.435 12.5813 113.479 12.7307 113.481 12.904H113.037C113.035 12.7867 113.005 12.6907 112.949 12.616C112.896 12.5387 112.821 12.4813 112.725 12.444C112.632 12.4067 112.523 12.388 112.397 12.388C112.269 12.388 112.16 12.4067 112.069 12.444C111.981 12.4787 111.913 12.5293 111.865 12.596C111.817 12.66 111.793 12.736 111.793 12.824C111.793 12.9307 111.819 13.0133 111.869 13.072C111.923 13.1307 112.007 13.1773 112.121 13.212C112.236 13.244 112.387 13.2773 112.573 13.312C112.704 13.3307 112.828 13.3573 112.945 13.392C113.065 13.4267 113.172 13.4747 113.265 13.536C113.361 13.5973 113.436 13.6813 113.489 13.788C113.545 13.892 113.573 14.028 113.573 14.196C113.573 14.3613 113.529 14.508 113.441 14.636C113.356 14.7613 113.228 14.86 113.057 14.932C112.889 15.0013 112.681 15.036 112.433 15.036ZM114.93 15.036C114.775 15.036 114.634 15.0107 114.506 14.96C114.381 14.9093 114.273 14.836 114.182 14.74C114.091 14.644 114.021 14.5293 113.97 14.396C113.919 14.2627 113.894 14.1133 113.894 13.948C113.894 13.7293 113.935 13.5387 114.018 13.376C114.103 13.2107 114.223 13.0827 114.378 12.992C114.535 12.8987 114.719 12.852 114.93 12.852C115.085 12.852 115.225 12.8773 115.35 12.928C115.478 12.976 115.587 13.048 115.678 13.144C115.769 13.24 115.838 13.356 115.886 13.492C115.937 13.6253 115.962 13.776 115.962 13.944C115.962 14.16 115.921 14.3507 115.838 14.516C115.755 14.6787 115.637 14.8067 115.482 14.9C115.327 14.9907 115.143 15.036 114.93 15.036ZM114.93 14.692C115.053 14.692 115.159 14.664 115.25 14.608C115.343 14.5493 115.415 14.464 115.466 14.352C115.517 14.24 115.542 14.104 115.542 13.944C115.542 13.824 115.527 13.7187 115.498 13.628C115.471 13.5347 115.431 13.456 115.378 13.392C115.325 13.3253 115.261 13.276 115.186 13.244C115.111 13.2093 115.026 13.192 114.93 13.192C114.807 13.192 114.699 13.2213 114.606 13.28C114.515 13.3387 114.443 13.424 114.39 13.536C114.339 13.6453 114.314 13.7827 114.314 13.948C114.314 14.0653 114.327 14.1707 114.354 14.264C114.383 14.3547 114.425 14.432 114.478 14.496C114.534 14.56 114.599 14.6093 114.674 14.644C114.751 14.676 114.837 14.692 114.93 14.692ZM117.325 15.036C117.17 15.036 117.029 15.0107 116.901 14.96C116.775 14.9093 116.667 14.836 116.577 14.74C116.486 14.644 116.415 14.5293 116.365 14.396C116.314 14.2627 116.289 14.1133 116.289 13.948C116.289 13.7293 116.33 13.5387 116.413 13.376C116.498 13.2107 116.618 13.0827 116.773 12.992C116.93 12.8987 117.114 12.852 117.325 12.852C117.479 12.852 117.619 12.8773 117.745 12.928C117.873 12.976 117.982 13.048 118.073 13.144C118.163 13.24 118.233 13.356 118.281 13.492C118.331 13.6253 118.357 13.776 118.357 13.944C118.357 14.16 118.315 14.3507 118.233 14.516C118.15 14.6787 118.031 14.8067 117.877 14.9C117.722 14.9907 117.538 15.036 117.325 15.036ZM117.325 14.692C117.447 14.692 117.554 14.664 117.645 14.608C117.738 14.5493 117.81 14.464 117.861 14.352C117.911 14.24 117.937 14.104 117.937 13.944C117.937 13.824 117.922 13.7187 117.893 13.628C117.866 13.5347 117.826 13.456 117.773 13.392C117.719 13.3253 117.655 13.276 117.581 13.244C117.506 13.2093 117.421 13.192 117.325 13.192C117.202 13.192 117.094 13.2213 117.001 13.28C116.91 13.3387 116.838 13.424 116.785 13.536C116.734 13.6453 116.709 13.7827 116.709 13.948C116.709 14.0653 116.722 14.1707 116.749 14.264C116.778 14.3547 116.819 14.432 116.873 14.496C116.929 14.56 116.994 14.6093 117.069 14.644C117.146 14.676 117.231 14.692 117.325 14.692ZM118.788 15V12.884H119.18L119.196 13.304H119.22C119.281 13.1547 119.377 13.0427 119.508 12.968C119.639 12.8907 119.781 12.852 119.936 12.852C120.045 12.852 120.145 12.868 120.236 12.9C120.329 12.932 120.409 12.984 120.476 13.056C120.545 13.1253 120.599 13.2173 120.636 13.332C120.673 13.444 120.692 13.5813 120.692 13.744V15H120.28V13.828C120.28 13.684 120.263 13.5653 120.228 13.472C120.193 13.376 120.14 13.3053 120.068 13.26C119.996 13.2147 119.903 13.192 119.788 13.192C119.668 13.192 119.563 13.2213 119.472 13.28C119.384 13.3387 119.316 13.4173 119.268 13.516C119.22 13.612 119.196 13.7213 119.196 13.844V15H118.788Z" fill="#9CA3AF"/>
<rect x="90.2757" y="7.3753" width="35.4486" height="12.2486" rx="6.12431" stroke="#9CA3AF" stroke-width="0.551376"/>
</g>
<defs>
<linearGradient id="paint0_linear_2451_28917" x1="13.4569" y1="18.8053" x2="14.131" y2="41.6455" gradientUnits="userSpaceOnUse">
<stop stop-color="#EF4444"/>
<stop offset="0.213542" stop-color="#F97316"/>
<stop offset="0.4375" stop-color="#EAB308"/>
<stop offset="0.739583" stop-color="#22C55E"/>
<stop offset="0.984375" stop-color="#3B82F6"/>
</linearGradient>
<clipPath id="clip0_2451_28917">
<rect width="172" height="44" fill="white"/>
</clipPath>
</defs>
</svg>
