<svg width="112" height="58" viewBox="0 0 112 58" fill="none" xmlns="http://www.w3.org/2000/svg">
<path d="M8.68 37.04C9.08 36.52 9.64 35.88 10.24 35.12L17.92 49H26.68C22.72 46.68 16.76 35.68 14.08 30.52C18.32 25.48 23.52 19.68 25.64 18.72H13.32C15 19.32 15.96 20.56 15.96 22.32C15.96 26.24 11.6 32 8.68 35.52V24.12C8.68 22.28 8.96 19.72 10.72 18.68H0.8C2.6 19.72 2.84 22.24 2.84 24.12V43.56C2.84 45.4 2.56 48 0.8 49H10.72C8.96 48 8.68 45.4 8.68 43.56V37.04ZM42.5675 38.72V37.76C42.5675 32.6 39.2475 29.36 34.0875 29.36C28.4075 29.36 25.0075 34.2 25.0075 39.52C25.0075 45.04 29.0075 49.4 34.6075 49.4C38.5675 49.4 40.8075 47.68 42.6475 44.36L42.3275 44.12C41.4875 44.96 39.0075 45.24 37.8875 45.24C34.0075 45.24 31.8475 42.52 31.0875 39.2L42.5675 38.72ZM37.2075 34.56C37.2075 36.52 35.8875 37.48 34.0875 37.76C33.0075 37.92 31.9675 38.08 30.8875 38.2C30.8075 37.6 30.7675 37 30.7675 36.4C30.7675 34.76 31.3675 30.32 33.6875 30.32C35.7275 30.32 37.2075 32.72 37.2075 34.56ZM61.3175 38.72V37.76C61.3175 32.6 57.9975 29.36 52.8375 29.36C47.1575 29.36 43.7575 34.2 43.7575 39.52C43.7575 45.04 47.7575 49.4 53.3575 49.4C57.3175 49.4 59.5575 47.68 61.3975 44.36L61.0775 44.12C60.2375 44.96 57.7575 45.24 56.6375 45.24C52.7575 45.24 50.5975 42.52 49.8375 39.2L61.3175 38.72ZM55.9575 34.56C55.9575 36.52 54.6375 37.48 52.8375 37.76C51.7575 37.92 50.7175 38.08 49.6375 38.2C49.5575 37.6 49.5175 37 49.5175 36.4C49.5175 34.76 50.1175 30.32 52.4375 30.32C54.4775 30.32 55.9575 32.72 55.9575 34.56ZM81.0369 20.68C77.7969 22.52 76.6769 23 72.9569 23.6C74.3569 25.28 75.1969 26.56 75.1969 28.84V30.64C74.5169 30.32 71.9569 29.24 71.2369 29.24C65.4369 29.24 62.1169 34.24 62.1169 39.64C62.1169 44.8 65.1569 49.36 70.7169 49.36C73.0369 49.36 74.3169 48.64 75.1969 47.36V49H83.0369C81.2369 48 81.0369 45.4 81.0369 43.56V20.68ZM75.1969 45.2C74.9969 45.2 74.7569 45.2 74.4769 45.2C69.8369 45.2 67.6369 40.92 67.6369 36.8C67.6369 34.16 68.7569 30.24 71.9969 30.24C74.6769 30.24 75.1969 33.36 75.1969 35.44V45.2Z" fill="#1E2C31"/>
<rect width="3.49955" height="13.3034" rx="1.74977" transform="matrix(0.757861 0.652416 -0.649833 0.760077 95.4219 5.30078)" fill="#F97316"/>
<rect width="3.49955" height="16.436" rx="1.74977" transform="matrix(0.339233 0.940702 -0.939477 0.342612 105.326 13.0781)" fill="#EAB308"/>
<rect width="3.49955" height="14.7387" rx="1.74977" transform="matrix(-0.026812 0.999641 -0.999713 -0.0239496 105.598 24.4141)" fill="#22C55E"/>
<rect width="3.49955" height="8.72046" rx="1.74977" transform="matrix(-0.376059 0.926596 -0.926525 -0.376234 98.6543 31.6484)" fill="#3B82F6"/>
<rect x="73.5762" y="10.1602" width="4.58192" height="7.42084" rx="2.29096" transform="rotate(-19.2035 73.5762 10.1602)" fill="#EF4444"/>
</svg>
