<svg width="1440" height="1255" viewBox="0 0 1440 1255" fill="none" xmlns="http://www.w3.org/2000/svg">
<g clip-path="url(#clip0_1773_24796)">
<rect width="1440" height="1255" fill="#001C24"/>
<g opacity="0.2" filter="url(#filter0_f_1773_24796)">
<ellipse cx="709" cy="691.5" rx="492" ry="417.5" fill="url(#paint0_linear_1773_24796)"/>
</g>
<g opacity="0.1" clip-path="url(#clip1_1773_24796)">
<path opacity="0.6" d="M-11 1108.68C231.167 528.343 473.333 454.073 715.5 885.874C957.667 1317.68 1199.83 1391.95 1442 1108.68" stroke="url(#paint1_linear_1773_24796)" stroke-width="2" stroke-linecap="round"/>
<path opacity="0.39" d="M-11 1080.18C231.167 518.842 473.333 454.072 715.5 885.873C957.667 1317.68 1199.83 1382.45 1442 1080.18" stroke="url(#paint2_linear_1773_24796)" stroke-width="2" stroke-linecap="round"/>
<path opacity="0.6" d="M-11 1051.69C231.167 509.345 473.333 454.074 715.5 885.876C957.667 1317.68 1199.83 1372.95 1442 1051.69" stroke="url(#paint3_linear_1773_24796)" stroke-width="2" stroke-linecap="round"/>
<path opacity="0.42" d="M-11 1023.19C231.167 499.843 473.333 454.072 715.5 885.874C957.667 1317.68 1199.83 1363.45 1442 1023.19" stroke="url(#paint4_linear_1773_24796)" stroke-width="2" stroke-linecap="round"/>
<path opacity="0.92" d="M-11 994.689C231.167 490.345 473.333 454.073 715.5 885.875C957.667 1317.68 1199.83 1353.95 1442 994.689" stroke="url(#paint5_linear_1773_24796)" stroke-width="2" stroke-linecap="round"/>
<path opacity="0.24" d="M-11 966.19C231.167 480.844 473.333 454.073 715.5 885.874C957.667 1317.68 1199.83 1344.45 1442 966.19" stroke="url(#paint6_linear_1773_24796)" stroke-width="2" stroke-linecap="round"/>
<path opacity="0.08" d="M-11 937.692C231.167 471.346 473.333 454.074 715.5 885.876C957.667 1317.68 1199.83 1334.95 1442 937.692" stroke="url(#paint7_linear_1773_24796)" stroke-width="2" stroke-linecap="round"/>
<path opacity="0.57" d="M-11 909.192C231.167 461.846 473.333 454.073 715.5 885.875C957.667 1317.68 1199.83 1325.45 1442 909.192" stroke="url(#paint8_linear_1773_24796)" stroke-width="2" stroke-linecap="round"/>
<path opacity="0.78" d="M-11 880.693C231.167 452.346 473.333 454.073 715.5 885.875C957.667 1317.68 1199.83 1315.95 1442 880.693" stroke="url(#paint9_linear_1773_24796)" stroke-width="2" stroke-linecap="round"/>
<path opacity="0.39" d="M-11 852.195C231.167 442.847 473.333 454.073 715.5 885.875C957.667 1317.68 1199.83 1306.45 1442 852.195" stroke="url(#paint10_linear_1773_24796)" stroke-width="2" stroke-linecap="round"/>
<path opacity="0.35" d="M-11 823.696C231.167 433.347 473.333 454.074 715.5 885.875C957.667 1317.68 1199.83 1296.95 1442 823.696" stroke="url(#paint11_linear_1773_24796)" stroke-width="2" stroke-linecap="round"/>
<path opacity="0.56" d="M-11 795.195C231.167 423.846 473.333 454.072 715.5 885.874C957.667 1317.68 1199.83 1287.45 1442 795.195" stroke="url(#paint12_linear_1773_24796)" stroke-width="2" stroke-linecap="round"/>
<path opacity="0.13" d="M-11 766.698C231.167 414.348 473.333 454.074 715.5 885.875C957.667 1317.68 1199.83 1277.95 1442 766.698" stroke="url(#paint13_linear_1773_24796)" stroke-width="2" stroke-linecap="round"/>
<path opacity="0.71" d="M-11 738.198C231.167 404.847 473.333 454.072 715.5 885.874C957.667 1317.68 1199.83 1268.45 1442 738.198" stroke="url(#paint14_linear_1773_24796)" stroke-width="2" stroke-linecap="round"/>
<path opacity="0.17" d="M-11 709.7C231.167 395.348 473.333 454.073 715.5 885.875C957.667 1317.68 1199.83 1258.95 1442 709.7" stroke="url(#paint15_linear_1773_24796)" stroke-width="2" stroke-linecap="round"/>
<path opacity="0.49" d="M-11 681.201C231.167 385.849 473.333 454.074 715.5 885.875C957.667 1317.68 1199.83 1249.45 1442 681.201" stroke="url(#paint16_linear_1773_24796)" stroke-width="2" stroke-linecap="round"/>
<path opacity="0.22" d="M-11 652.701C231.167 376.348 473.333 454.072 715.5 885.874C957.667 1317.68 1199.83 1239.95 1442 652.701" stroke="url(#paint17_linear_1773_24796)" stroke-width="2" stroke-linecap="round"/>
<path opacity="0.14" d="M-11 624.204C231.167 366.85 473.333 454.074 715.5 885.875C957.667 1317.68 1199.83 1230.45 1442 624.204" stroke="url(#paint18_linear_1773_24796)" stroke-width="2" stroke-linecap="round"/>
<path opacity="0.81" d="M-11 595.702C231.167 357.348 473.333 454.071 715.5 885.873C957.667 1317.67 1199.83 1220.95 1442 595.702" stroke="url(#paint19_linear_1773_24796)" stroke-width="2" stroke-linecap="round"/>
<path opacity="0.47" d="M-11 567.205C231.167 347.849 473.333 454.073 715.5 885.874C957.667 1317.68 1199.83 1211.45 1442 567.205" stroke="url(#paint20_linear_1773_24796)" stroke-width="2" stroke-linecap="round"/>
<path opacity="0.78" d="M-11 538.704C231.167 338.348 473.333 454.071 715.5 885.873C957.667 1317.67 1199.83 1201.95 1442 538.704" stroke="url(#paint21_linear_1773_24796)" stroke-width="2" stroke-linecap="round"/>
<path opacity="0.56" d="M-11 510.207C231.167 328.85 473.333 454.073 715.5 885.875C957.667 1317.68 1199.83 1192.45 1442 510.207" stroke="url(#paint22_linear_1773_24796)" stroke-width="2" stroke-linecap="round"/>
<path opacity="0.46" d="M-11 481.708C231.167 319.35 473.333 454.073 715.5 885.874C957.667 1317.68 1199.83 1182.95 1442 481.708" stroke="url(#paint23_linear_1773_24796)" stroke-width="2" stroke-linecap="round"/>
<path opacity="0.13" d="M-11 453.211C231.167 309.853 473.333 454.075 715.5 885.876C957.667 1317.68 1199.83 1173.46 1442 453.211" stroke="url(#paint24_linear_1773_24796)" stroke-width="2" stroke-linecap="round"/>
<path opacity="0.07" d="M-11 424.71C231.167 300.352 473.333 454.073 715.5 885.875C957.667 1317.68 1199.83 1163.95 1442 424.71" stroke="url(#paint25_linear_1773_24796)" stroke-width="2" stroke-linecap="round"/>
</g>
<g style="mix-blend-mode:soft-light" opacity="0.5" clip-path="url(#clip2_1773_24796)">
<path d="M-1 74C37.1077 74 68 43.1077 68 5C68 -33.1076 37.1077 -64 -1 -64C-39.1076 -64 -70 -33.1076 -70 5C-70 43.1077 -39.1076 74 -1 74Z" fill="#1317EC"/>
<path d="M-1 212C37.1077 212 68 181.108 68 143C68 104.892 37.1077 74 -1 74C-39.1076 74 -70 104.892 -70 143C-70 181.108 -39.1076 212 -1 212Z" fill="#1363EC"/>
<path d="M-1 350C37.1077 350 68 319.108 68 281C68 242.892 37.1077 212 -1 212C-39.1076 212 -70 242.892 -70 281C-70 319.108 -39.1076 350 -1 350Z" fill="#1383EC"/>
<path d="M-1 488C37.1077 488 68 457.108 68 419C68 380.892 37.1077 350 -1 350C-39.1076 350 -70 380.892 -70 419C-70 457.108 -39.1076 488 -1 488Z" fill="#13B6EC"/>
<path d="M-1 626C37.1077 626 68 595.108 68 557C68 518.892 37.1077 488 -1 488C-39.1076 488 -70 518.892 -70 557C-70 595.108 -39.1076 626 -1 626Z" fill="#13C8EC"/>
<path d="M-1 764C37.1077 764 68 733.108 68 695C68 656.892 37.1077 626 -1 626C-39.1076 626 -70 656.892 -70 695C-70 733.108 -39.1076 764 -1 764Z" fill="#13DDEC"/>
<path d="M-1 902C37.1077 902 68 871.108 68 833C68 794.892 37.1077 764 -1 764C-39.1076 764 -70 794.892 -70 833C-70 871.108 -39.1076 902 -1 902Z" fill="#13E1EC"/>
<path d="M-1 1040C37.1077 1040 68 1009.11 68 971C68 932.892 37.1077 902 -1 902C-39.1076 902 -70 932.892 -70 971C-70 1009.11 -39.1076 1040 -1 1040Z" fill="#13E1EC"/>
<path d="M-1 1178C37.1077 1178 68 1147.11 68 1109C68 1070.89 37.1077 1040 -1 1040C-39.1076 1040 -70 1070.89 -70 1109C-70 1147.11 -39.1076 1178 -1 1178Z" fill="#13DAEC"/>
<path d="M-1 1316C37.1077 1316 68 1285.11 68 1247C68 1208.89 37.1077 1178 -1 1178C-39.1076 1178 -70 1208.89 -70 1247C-70 1285.11 -39.1076 1316 -1 1316Z" fill="#13CBEC"/>
<path d="M137 74C175.108 74 206 43.1077 206 5C206 -33.1076 175.108 -64 137 -64C98.8924 -64 68 -33.1076 68 5C68 43.1077 98.8924 74 137 74Z" fill="#133EEC"/>
<path d="M137 212C175.108 212 206 181.108 206 143C206 104.892 175.108 74 137 74C98.8924 74 68 104.892 68 143C68 181.108 98.8924 212 137 212Z" fill="#1387EC"/>
<path d="M137 350C175.108 350 206 319.108 206 281C206 242.892 175.108 212 137 212C98.8924 212 68 242.892 68 281C68 319.108 98.8924 350 137 350Z" fill="#13A7EC"/>
<path d="M137 488C175.108 488 206 457.108 206 419C206 380.892 175.108 350 137 350C98.8924 350 68 380.892 68 419C68 457.108 98.8924 488 137 488Z" fill="#13D6EC"/>
<path d="M137 626C175.108 626 206 595.108 206 557C206 518.892 175.108 488 137 488C98.8924 488 68 518.892 68 557C68 595.108 98.8924 626 137 626Z" fill="#13E5EC"/>
<path d="M137 764C175.108 764 206 733.108 206 695C206 656.892 175.108 626 137 626C98.8924 626 68 656.892 68 695C68 733.108 98.8924 764 137 764Z" fill="#13ECE5"/>
<path d="M137 902C175.108 902 206 871.108 206 833C206 794.892 175.108 764 137 764C98.8924 764 68 794.892 68 833C68 871.108 98.8924 902 137 902Z" fill="#13ECE5"/>
<path d="M137 1040C175.108 1040 206 1009.11 206 971C206 932.892 175.108 902 137 902C98.8924 902 68 932.892 68 971C68 1009.11 98.8924 1040 137 1040Z" fill="#13E8EC"/>
<path d="M137 1178C175.108 1178 206 1147.11 206 1109C206 1070.89 175.108 1040 137 1040C98.8924 1040 68 1070.89 68 1109C68 1147.11 98.8924 1178 137 1178Z" fill="#13E1EC"/>
<path d="M137 1316C175.108 1316 206 1285.11 206 1247C206 1208.89 175.108 1178 137 1178C98.8924 1178 68 1208.89 68 1247C68 1285.11 98.8924 1316 137 1316Z" fill="#13C8EC"/>
<path d="M275 74C313.108 74 344 43.1077 344 5C344 -33.1076 313.108 -64 275 -64C236.892 -64 206 -33.1076 206 5C206 43.1077 236.892 74 275 74Z" fill="#1387EC"/>
<path d="M275 212C313.108 212 344 181.108 344 143C344 104.892 313.108 74 275 74C236.892 74 206 104.892 206 143C206 181.108 236.892 212 275 212Z" fill="#13CBEC"/>
<path d="M275 350C313.108 350 344 319.108 344 281C344 242.892 313.108 212 275 212C236.892 212 206 242.892 206 281C206 319.108 236.892 350 275 350Z" fill="#13E5EC"/>
<path d="M275 488C313.108 488 344 457.108 344 419C344 380.892 313.108 350 275 350C236.892 350 206 380.892 206 419C206 457.108 236.892 488 275 488Z" fill="#13ECCB"/>
<path d="M275 626C313.108 626 344 595.108 344 557C344 518.892 313.108 488 275 488C236.892 488 206 518.892 206 557C206 595.108 236.892 626 275 626Z" fill="#13ECC4"/>
<path d="M275 764C313.108 764 344 733.108 344 695C344 656.892 313.108 626 275 626C236.892 626 206 656.892 206 695C206 733.108 236.892 764 275 764Z" fill="#13ECC1"/>
<path d="M275 902C313.108 902 344 871.108 344 833C344 794.892 313.108 764 275 764C236.892 764 206 794.892 206 833C206 871.108 236.892 902 275 902Z" fill="#13ECCB"/>
<path d="M275 1040C313.108 1040 344 1009.11 344 971C344 932.892 313.108 902 275 902C236.892 902 206 932.892 206 971C206 1009.11 236.892 1040 275 1040Z" fill="#13ECE8"/>
<path d="M275 1178C313.108 1178 344 1147.11 344 1109C344 1070.89 313.108 1040 275 1040C236.892 1040 206 1070.89 206 1109C206 1147.11 236.892 1178 275 1178Z" fill="#13DDEC"/>
<path d="M275 1316C313.108 1316 344 1285.11 344 1247C344 1208.89 313.108 1178 275 1178C236.892 1178 206 1208.89 206 1247C206 1285.11 236.892 1316 275 1316Z" fill="#13B2EC"/>
<path d="M413 74C451.108 74 482 43.1077 482 5C482 -33.1076 451.108 -64 413 -64C374.892 -64 344 -33.1076 344 5C344 43.1077 374.892 74 413 74Z" fill="#13A7EC"/>
<path d="M413 212C451.108 212 482 181.108 482 143C482 104.892 451.108 74 413 74C374.892 74 344 104.892 344 143C344 181.108 374.892 212 413 212Z" fill="#13E5EC"/>
<path d="M413 350C451.108 350 482 319.108 482 281C482 242.892 451.108 212 413 212C374.892 212 344 242.892 344 281C344 319.108 374.892 350 413 350Z" fill="#13ECDA"/>
<path d="M413 488C451.108 488 482 457.108 482 419C482 380.892 451.108 350 413 350C374.892 350 344 380.892 344 419C344 457.108 374.892 488 413 488Z" fill="#13ECB9"/>
<path d="M413 626C451.108 626 482 595.108 482 557C482 518.892 451.108 488 413 488C374.892 488 344 518.892 344 557C344 595.108 374.892 626 413 626Z" fill="#13ECB2"/>
<path d="M413 764C451.108 764 482 733.108 482 695C482 656.892 451.108 626 413 626C374.892 626 344 656.892 344 695C344 733.108 374.892 764 413 764Z" fill="#13ECB9"/>
<path d="M413 902C451.108 902 482 871.108 482 833C482 794.892 451.108 764 413 764C374.892 764 344 794.892 344 833C344 871.108 374.892 902 413 902Z" fill="#13ECC4"/>
<path d="M413 1040C451.108 1040 482 1009.11 482 971C482 932.892 451.108 902 413 902C374.892 902 344 932.892 344 971C344 1009.11 374.892 1040 413 1040Z" fill="#13ECE8"/>
<path d="M413 1178C451.108 1178 482 1147.11 482 1109C482 1070.89 451.108 1040 413 1040C374.892 1040 344 1070.89 344 1109C344 1147.11 374.892 1178 413 1178Z" fill="#13D6EC"/>
<path d="M413 1316C451.108 1316 482 1285.11 482 1247C482 1208.89 451.108 1178 413 1178C374.892 1178 344 1208.89 344 1247C344 1285.11 374.892 1316 413 1316Z" fill="#13A4EC"/>
<path d="M551 74C589.108 74 620 43.1077 620 5C620 -33.1076 589.108 -64 551 -64C512.892 -64 482 -33.1076 482 5C482 43.1077 512.892 74 551 74Z" fill="#13D6EC"/>
<path d="M551 212C589.108 212 620 181.108 620 143C620 104.892 589.108 74 551 74C512.892 74 482 104.892 482 143C482 181.108 512.892 212 551 212Z" fill="#13ECCB"/>
<path d="M551 350C589.108 350 620 319.108 620 281C620 242.892 589.108 212 551 212C512.892 212 482 242.892 482 281C482 319.108 512.892 350 551 350Z" fill="#13ECB9"/>
<path d="M551 488C589.108 488 620 457.108 620 419C620 380.892 589.108 350 551 350C512.892 350 482 380.892 482 419C482 457.108 512.892 488 551 488Z" fill="#13ECA4"/>
<path d="M551 626C589.108 626 620 595.108 620 557C620 518.892 589.108 488 551 488C512.892 488 482 518.892 482 557C482 595.108 512.892 626 551 626Z" fill="#13ECA0"/>
<path d="M551 764C589.108 764 620 733.108 620 695C620 656.892 589.108 626 551 626C512.892 626 482 656.892 482 695C482 733.108 512.892 764 551 764Z" fill="#13ECB2"/>
<path d="M551 902C589.108 902 620 871.108 620 833C620 794.892 589.108 764 551 764C512.892 764 482 794.892 482 833C482 871.108 512.892 902 551 902Z" fill="#13ECC4"/>
<path d="M551 1040C589.108 1040 620 1009.11 620 971C620 932.892 589.108 902 551 902C512.892 902 482 932.892 482 971C482 1009.11 512.892 1040 551 1040Z" fill="#13DDEC"/>
<path d="M551 1178C589.108 1178 620 1147.11 620 1109C620 1070.89 589.108 1040 551 1040C512.892 1040 482 1070.89 482 1109C482 1147.11 512.892 1178 551 1178Z" fill="#13C1EC"/>
<path d="M551 1316C589.108 1316 620 1285.11 620 1247C620 1208.89 589.108 1178 551 1178C512.892 1178 482 1208.89 482 1247C482 1285.11 512.892 1316 551 1316Z" fill="#137CEC"/>
<path d="M689 74C727.108 74 758 43.1077 758 5C758 -33.1076 727.108 -64 689 -64C650.892 -64 620 -33.1076 620 5C620 43.1077 650.892 74 689 74Z" fill="#13E5EC"/>
<path d="M689 212C727.108 212 758 181.108 758 143C758 104.892 727.108 74 689 74C650.892 74 620 104.892 620 143C620 181.108 650.892 212 689 212Z" fill="#13ECC1"/>
<path d="M689 350C727.108 350 758 319.108 758 281C758 242.892 727.108 212 689 212C650.892 212 620 242.892 620 281C620 319.108 650.892 350 689 350Z" fill="#13ECB2"/>
<path d="M689 488C727.108 488 758 457.108 758 419C758 380.892 727.108 350 689 350C650.892 350 620 380.892 620 419C620 457.108 650.892 488 689 488Z" fill="#13ECA0"/>
<path d="M689 626C727.108 626 758 595.108 758 557C758 518.892 727.108 488 689 488C650.892 488 620 518.892 620 557C620 595.108 650.892 626 689 626Z" fill="#13ECA0"/>
<path d="M689 764C727.108 764 758 733.108 758 695C758 656.892 727.108 626 689 626C650.892 626 620 656.892 620 695C620 733.108 650.892 764 689 764Z" fill="#13ECB9"/>
<path d="M689 902C727.108 902 758 871.108 758 833C758 794.892 727.108 764 689 764C650.892 764 620 794.892 620 833C620 871.108 650.892 902 689 902Z" fill="#13ECCF"/>
<path d="M689 1040C727.108 1040 758 1009.11 758 971C758 932.892 727.108 902 689 902C650.892 902 620 932.892 620 971C620 1009.11 650.892 1040 689 1040Z" fill="#13D3EC"/>
<path d="M689 1178C727.108 1178 758 1147.11 758 1109C758 1070.89 727.108 1040 689 1040C650.892 1040 620 1070.89 620 1109C620 1147.11 650.892 1178 689 1178Z" fill="#13AEEC"/>
<path d="M689 1316C727.108 1316 758 1285.11 758 1247C758 1208.89 727.108 1178 689 1178C650.892 1178 620 1208.89 620 1247C620 1285.11 650.892 1316 689 1316Z" fill="#1366EC"/>
<path d="M827 74C865.108 74 896 43.1077 896 5C896 -33.1076 865.108 -64 827 -64C788.892 -64 758 -33.1076 758 5C758 43.1077 788.892 74 827 74Z" fill="#13ECE8"/>
<path d="M827 212C865.108 212 896 181.108 896 143C896 104.892 865.108 74 827 74C788.892 74 758 104.892 758 143C758 181.108 788.892 212 827 212Z" fill="#13ECC4"/>
<path d="M827 350C865.108 350 896 319.108 896 281C896 242.892 865.108 212 827 212C788.892 212 758 242.892 758 281C758 319.108 788.892 350 827 350Z" fill="#13ECB6"/>
<path d="M827 488C865.108 488 896 457.108 896 419C896 380.892 865.108 350 827 350C788.892 350 758 380.892 758 419C758 457.108 788.892 488 827 488Z" fill="#13ECAE"/>
<path d="M827 626C865.108 626 896 595.108 896 557C896 518.892 865.108 488 827 488C788.892 488 758 518.892 758 557C758 595.108 788.892 626 827 626Z" fill="#13ECB2"/>
<path d="M827 764C865.108 764 896 733.108 896 695C896 656.892 865.108 626 827 626C788.892 626 758 656.892 758 695C758 733.108 788.892 764 827 764Z" fill="#13ECCF"/>
<path d="M827 902C865.108 902 896 871.108 896 833C896 794.892 865.108 764 827 764C788.892 764 758 794.892 758 833C758 871.108 788.892 902 827 902Z" fill="#13ECE8"/>
<path d="M827 1040C865.108 1040 896 1009.11 896 971C896 932.892 865.108 902 827 902C788.892 902 758 932.892 758 971C758 1009.11 788.892 1040 827 1040Z" fill="#13B2EC"/>
<path d="M827 1178C865.108 1178 896 1147.11 896 1109C896 1070.89 865.108 1040 827 1040C788.892 1040 758 1070.89 758 1109C758 1147.11 788.892 1178 827 1178Z" fill="#138EEC"/>
<path d="M827 1316C865.108 1316 896 1285.11 896 1247C896 1208.89 865.108 1178 827 1178C788.892 1178 758 1208.89 758 1247C758 1285.11 788.892 1316 827 1316Z" fill="#133EEC"/>
<path d="M965 74C1003.11 74 1034 43.1077 1034 5C1034 -33.1076 1003.11 -64 965 -64C926.892 -64 896 -33.1076 896 5C896 43.1077 926.892 74 965 74Z" fill="#13E8EC"/>
<path d="M965 212C1003.11 212 1034 181.108 1034 143C1034 104.892 1003.11 74 965 74C926.892 74 896 104.892 896 143C896 181.108 926.892 212 965 212Z" fill="#13ECCB"/>
<path d="M965 350C1003.11 350 1034 319.108 1034 281C1034 242.892 1003.11 212 965 212C926.892 212 896 242.892 896 281C896 319.108 926.892 350 965 350Z" fill="#13ECC1"/>
<path d="M965 488C1003.11 488 1034 457.108 1034 419C1034 380.892 1003.11 350 965 350C926.892 350 896 380.892 896 419C896 457.108 926.892 488 965 488Z" fill="#13ECBD"/>
<path d="M965 626C1003.11 626 1034 595.108 1034 557C1034 518.892 1003.11 488 965 488C926.892 488 896 518.892 896 557C896 595.108 926.892 626 965 626Z" fill="#13ECC1"/>
<path d="M965 764C1003.11 764 1034 733.108 1034 695C1034 656.892 1003.11 626 965 626C926.892 626 896 656.892 896 695C896 733.108 926.892 764 965 764Z" fill="#13ECE1"/>
<path d="M965 902C1003.11 902 1034 871.108 1034 833C1034 794.892 1003.11 764 965 764C926.892 764 896 794.892 896 833C896 871.108 926.892 902 965 902Z" fill="#13E1EC"/>
<path d="M965 1040C1003.11 1040 1034 1009.11 1034 971C1034 932.892 1003.11 902 965 902C926.892 902 896 932.892 896 971C896 1009.11 926.892 1040 965 1040Z" fill="#13A0EC"/>
<path d="M965 1178C1003.11 1178 1034 1147.11 1034 1109C1034 1070.89 1003.11 1040 965 1040C926.892 1040 896 1070.89 896 1109C896 1147.11 926.892 1178 965 1178Z" fill="#137CEC"/>
<path d="M965 1316C1003.11 1316 1034 1285.11 1034 1247C1034 1208.89 1003.11 1178 965 1178C926.892 1178 896 1208.89 896 1247C896 1285.11 926.892 1316 965 1316Z" fill="#132CEC"/>
<path d="M1103 74C1141.11 74 1172 43.1077 1172 5C1172 -33.1076 1141.11 -64 1103 -64C1064.89 -64 1034 -33.1076 1034 5C1034 43.1077 1064.89 74 1103 74Z" fill="#13C8EC"/>
<path d="M1103 212C1141.11 212 1172 181.108 1172 143C1172 104.892 1141.11 74 1103 74C1064.89 74 1034 104.892 1034 143C1034 181.108 1064.89 212 1103 212Z" fill="#13E5EC"/>
<path d="M1103 350C1141.11 350 1172 319.108 1172 281C1172 242.892 1141.11 212 1103 212C1064.89 212 1034 242.892 1034 281C1034 319.108 1064.89 350 1103 350Z" fill="#13ECE8"/>
<path d="M1103 488C1141.11 488 1172 457.108 1172 419C1172 380.892 1141.11 350 1103 350C1064.89 350 1034 380.892 1034 419C1034 457.108 1064.89 488 1103 488Z" fill="#13ECE5"/>
<path d="M1103 626C1141.11 626 1172 595.108 1172 557C1172 518.892 1141.11 488 1103 488C1064.89 488 1034 518.892 1034 557C1034 595.108 1064.89 626 1103 626Z" fill="#13ECE8"/>
<path d="M1103 764C1141.11 764 1172 733.108 1172 695C1172 656.892 1141.11 626 1103 626C1064.89 626 1034 656.892 1034 695C1034 733.108 1064.89 764 1103 764Z" fill="#13D3EC"/>
<path d="M1103 902C1141.11 902 1172 871.108 1172 833C1172 794.892 1141.11 764 1103 764C1064.89 764 1034 794.892 1034 833C1034 871.108 1064.89 902 1103 902Z" fill="#13BDEC"/>
<path d="M1103 1040C1141.11 1040 1172 1009.11 1172 971C1172 932.892 1141.11 902 1103 902C1064.89 902 1034 932.892 1034 971C1034 1009.11 1064.89 1040 1103 1040Z" fill="#1383EC"/>
<path d="M1103 1178C1141.11 1178 1172 1147.11 1172 1109C1172 1070.89 1141.11 1040 1103 1040C1064.89 1040 1034 1070.89 1034 1109C1034 1147.11 1064.89 1178 1103 1178Z" fill="#135FEC"/>
<path d="M1103 1316C1141.11 1316 1172 1285.11 1172 1247C1172 1208.89 1141.11 1178 1103 1178C1064.89 1178 1034 1208.89 1034 1247C1034 1285.11 1064.89 1316 1103 1316Z" fill="#1313EC"/>
<path d="M1241 74C1279.11 74 1310 43.1077 1310 5C1310 -33.1076 1279.11 -64 1241 -64C1202.89 -64 1172 -33.1076 1172 5C1172 43.1077 1202.89 74 1241 74Z" fill="#13AEEC"/>
<path d="M1241 212C1279.11 212 1310 181.108 1310 143C1310 104.892 1279.11 74 1241 74C1202.89 74 1172 104.892 1172 143C1172 181.108 1202.89 212 1241 212Z" fill="#13CBEC"/>
<path d="M1241 350C1279.11 350 1310 319.108 1310 281C1310 242.892 1279.11 212 1241 212C1202.89 212 1172 242.892 1172 281C1172 319.108 1202.89 350 1241 350Z" fill="#13D3EC"/>
<path d="M1241 488C1279.11 488 1310 457.108 1310 419C1310 380.892 1279.11 350 1241 350C1202.89 350 1172 380.892 1172 419C1172 457.108 1202.89 488 1241 488Z" fill="#13DAEC"/>
<path d="M1241 626C1279.11 626 1310 595.108 1310 557C1310 518.892 1279.11 488 1241 488C1202.89 488 1172 518.892 1172 557C1172 595.108 1202.89 626 1241 626Z" fill="#13D6EC"/>
<path d="M1241 764C1279.11 764 1310 733.108 1310 695C1310 656.892 1279.11 626 1241 626C1202.89 626 1172 656.892 1172 695C1172 733.108 1202.89 764 1241 764Z" fill="#13C1EC"/>
<path d="M1241 902C1279.11 902 1310 871.108 1310 833C1310 794.892 1279.11 764 1241 764C1202.89 764 1172 794.892 1172 833C1172 871.108 1202.89 902 1241 902Z" fill="#13AEEC"/>
<path d="M1241 1040C1279.11 1040 1310 1009.11 1310 971C1310 932.892 1279.11 902 1241 902C1202.89 902 1172 932.892 1172 971C1172 1009.11 1202.89 1040 1241 1040Z" fill="#1378EC"/>
<path d="M1241 1178C1279.11 1178 1310 1147.11 1310 1109C1310 1070.89 1279.11 1040 1241 1040C1202.89 1040 1172 1070.89 1172 1109C1172 1147.11 1202.89 1178 1241 1178Z" fill="#1358EC"/>
<path d="M1241 1316C1279.11 1316 1310 1285.11 1310 1247C1310 1208.89 1279.11 1178 1241 1178C1202.89 1178 1172 1208.89 1172 1247C1172 1285.11 1202.89 1316 1241 1316Z" fill="#1A13EC"/>
<path d="M1379 74C1417.11 74 1448 43.1077 1448 5C1448 -33.1076 1417.11 -64 1379 -64C1340.89 -64 1310 -33.1076 1310 5C1310 43.1077 1340.89 74 1379 74Z" fill="#1371EC"/>
<path d="M1379 212C1417.11 212 1448 181.108 1448 143C1448 104.892 1417.11 74 1379 74C1340.89 74 1310 104.892 1310 143C1310 181.108 1340.89 212 1379 212Z" fill="#138AEC"/>
<path d="M1379 350C1417.11 350 1448 319.108 1448 281C1448 242.892 1417.11 212 1379 212C1340.89 212 1310 242.892 1310 281C1310 319.108 1340.89 350 1379 350Z" fill="#1395EC"/>
<path d="M1379 488C1417.11 488 1448 457.108 1448 419C1448 380.892 1417.11 350 1379 350C1340.89 350 1310 380.892 1310 419C1310 457.108 1340.89 488 1379 488Z" fill="#13A4EC"/>
<path d="M1379 626C1417.11 626 1448 595.108 1448 557C1448 518.892 1417.11 488 1379 488C1340.89 488 1310 518.892 1310 557C1310 595.108 1340.89 626 1379 626Z" fill="#13A7EC"/>
<path d="M1379 764C1417.11 764 1448 733.108 1448 695C1448 656.892 1417.11 626 1379 626C1340.89 626 1310 656.892 1310 695C1310 733.108 1340.89 764 1379 764Z" fill="#139CEC"/>
<path d="M1379 902C1417.11 902 1448 871.108 1448 833C1448 794.892 1417.11 764 1379 764C1340.89 764 1310 794.892 1310 833C1310 871.108 1340.89 902 1379 902Z" fill="#1392EC"/>
<path d="M1379 1040C1417.11 1040 1448 1009.11 1448 971C1448 932.892 1417.11 902 1379 902C1340.89 902 1310 932.892 1310 971C1310 1009.11 1340.89 1040 1379 1040Z" fill="#136AEC"/>
<path d="M1379 1178C1417.11 1178 1448 1147.11 1448 1109C1448 1070.89 1417.11 1040 1379 1040C1340.89 1040 1310 1070.89 1310 1109C1310 1147.11 1340.89 1178 1379 1178Z" fill="#1351EC"/>
<path d="M1379 1316C1417.11 1316 1448 1285.11 1448 1247C1448 1208.89 1417.11 1178 1379 1178C1340.89 1178 1310 1208.89 1310 1247C1310 1285.11 1340.89 1316 1379 1316Z" fill="#1313EC"/>
<path d="M68 143C106.108 143 137 112.108 137 74C137 35.8924 106.108 5 68 5C29.8924 5 -1 35.8924 -1 74C-1 112.108 29.8924 143 68 143Z" fill="#1366EC"/>
<path d="M68 281C106.108 281 137 250.108 137 212C137 173.892 106.108 143 68 143C29.8924 143 -1 173.892 -1 212C-1 250.108 29.8924 281 68 281Z" fill="#1387EC"/>
<path d="M68 419C106.108 419 137 388.108 137 350C137 311.892 106.108 281 68 281C29.8924 281 -1 311.892 -1 350C-1 388.108 29.8924 419 68 419Z" fill="#13C1EC"/>
<path d="M68 557C106.108 557 137 526.108 137 488C137 449.892 106.108 419 68 419C29.8924 419 -1 449.892 -1 488C-1 526.108 29.8924 557 68 557Z" fill="#13D6EC"/>
<path d="M68 695C106.108 695 137 664.108 137 626C137 587.892 106.108 557 68 557C29.8924 557 -1 587.892 -1 626C-1 664.108 29.8924 695 68 695Z" fill="#13ECE8"/>
<path d="M68 833C106.108 833 137 802.108 137 764C137 725.892 106.108 695 68 695C29.8924 695 -1 725.892 -1 764C-1 802.108 29.8924 833 68 833Z" fill="#13ECE5"/>
<path d="M68 971C106.108 971 137 940.108 137 902C137 863.892 106.108 833 68 833C29.8924 833 -1 863.892 -1 902C-1 940.108 29.8924 971 68 971Z" fill="#13ECE8"/>
<path d="M68 1109C106.108 1109 137 1078.11 137 1040C137 1001.89 106.108 971 68 971C29.8924 971 -1 1001.89 -1 1040C-1 1078.11 29.8924 1109 68 1109Z" fill="#13E8EC"/>
<path d="M68 1247C106.108 1247 137 1216.11 137 1178C137 1139.89 106.108 1109 68 1109C29.8924 1109 -1 1139.89 -1 1178C-1 1216.11 29.8924 1247 68 1247Z" fill="#13D3EC"/>
<path d="M68 1385C106.108 1385 137 1354.11 137 1316C137 1277.89 106.108 1247 68 1247C29.8924 1247 -1 1277.89 -1 1316C-1 1354.11 29.8924 1385 68 1385Z" fill="#13C8EC"/>
<path d="M206 143C244.108 143 275 112.108 275 74C275 35.8924 244.108 5 206 5C167.892 5 137 35.8924 137 74C137 112.108 167.892 143 206 143Z" fill="#13ABEC"/>
<path d="M206 281C244.108 281 275 250.108 275 212C275 173.892 244.108 143 206 143C167.892 143 137 173.892 137 212C137 250.108 167.892 281 206 281Z" fill="#13CBEC"/>
<path d="M206 419C244.108 419 275 388.108 275 350C275 311.892 244.108 281 206 281C167.892 281 137 311.892 137 350C137 388.108 167.892 419 206 419Z" fill="#13ECDD"/>
<path d="M206 557C244.108 557 275 526.108 275 488C275 449.892 244.108 419 206 419C167.892 419 137 449.892 137 488C137 526.108 167.892 557 206 557Z" fill="#13ECCB"/>
<path d="M206 695C244.108 695 275 664.108 275 626C275 587.892 244.108 557 206 557C167.892 557 137 587.892 137 626C137 664.108 167.892 695 206 695Z" fill="#13ECC1"/>
<path d="M206 833C244.108 833 275 802.108 275 764C275 725.892 244.108 695 206 695C167.892 695 137 725.892 137 764C137 802.108 167.892 833 206 833Z" fill="#13ECC1"/>
<path d="M206 971C244.108 971 275 940.108 275 902C275 863.892 244.108 833 206 833C167.892 833 137 863.892 137 902C137 940.108 167.892 971 206 971Z" fill="#13ECD6"/>
<path d="M206 1109C244.108 1109 275 1078.11 275 1040C275 1001.89 244.108 971 206 971C167.892 971 137 1001.89 137 1040C137 1078.11 167.892 1109 206 1109Z" fill="#13ECE8"/>
<path d="M206 1247C244.108 1247 275 1216.11 275 1178C275 1139.89 244.108 1109 206 1109C167.892 1109 137 1139.89 137 1178C137 1216.11 167.892 1247 206 1247Z" fill="#13C8EC"/>
<path d="M206 1385C244.108 1385 275 1354.11 275 1316C275 1277.89 244.108 1247 206 1247C167.892 1247 137 1277.89 137 1316C137 1354.11 167.892 1385 206 1385Z" fill="#13B2EC"/>
<path d="M344 143C382.108 143 413 112.108 413 74C413 35.8924 382.108 5 344 5C305.892 5 275 35.8924 275 74C275 112.108 305.892 143 344 143Z" fill="#13C8EC"/>
<path d="M344 281C382.108 281 413 250.108 413 212C413 173.892 382.108 143 344 143C305.892 143 275 173.892 275 212C275 250.108 305.892 281 344 281Z" fill="#13E5EC"/>
<path d="M344 419C382.108 419 413 388.108 413 350C413 311.892 382.108 281 344 281C305.892 281 275 311.892 275 350C275 388.108 305.892 419 344 419Z" fill="#13ECC4"/>
<path d="M344 557C382.108 557 413 526.108 413 488C413 449.892 382.108 419 344 419C305.892 419 275 449.892 275 488C275 526.108 305.892 557 344 557Z" fill="#13ECB9"/>
<path d="M344 695C382.108 695 413 664.108 413 626C413 587.892 382.108 557 344 557C305.892 557 275 587.892 275 626C275 664.108 305.892 695 344 695Z" fill="#13ECB2"/>
<path d="M344 833C382.108 833 413 802.108 413 764C413 725.892 382.108 695 344 695C305.892 695 275 725.892 275 764C275 802.108 305.892 833 344 833Z" fill="#13ECB9"/>
<path d="M344 971C382.108 971 413 940.108 413 902C413 863.892 382.108 833 344 833C305.892 833 275 863.892 275 902C275 940.108 305.892 971 344 971Z" fill="#13ECD6"/>
<path d="M344 1109C382.108 1109 413 1078.11 413 1040C413 1001.89 382.108 971 344 971C305.892 971 275 1001.89 275 1040C275 1078.11 305.892 1109 344 1109Z" fill="#13ECE8"/>
<path d="M344 1247C382.108 1247 413 1216.11 413 1178C413 1139.89 382.108 1109 344 1109C305.892 1109 275 1139.89 275 1178C275 1216.11 305.892 1247 344 1247Z" fill="#13BDEC"/>
<path d="M344 1385C382.108 1385 413 1354.11 413 1316C413 1277.89 382.108 1247 344 1247C305.892 1247 275 1277.89 275 1316C275 1354.11 305.892 1385 344 1385Z" fill="#13A4EC"/>
<path d="M482 143C520.108 143 551 112.108 551 74C551 35.8924 520.108 5 482 5C443.892 5 413 35.8924 413 74C413 112.108 443.892 143 482 143Z" fill="#13ECE5"/>
<path d="M482 281C520.108 281 551 250.108 551 212C551 173.892 520.108 143 482 143C443.892 143 413 173.892 413 212C413 250.108 443.892 281 482 281Z" fill="#13ECCB"/>
<path d="M482 419C520.108 419 551 388.108 551 350C551 311.892 520.108 281 482 281C443.892 281 413 311.892 413 350C413 388.108 443.892 419 482 419Z" fill="#13ECAB"/>
<path d="M482 557C520.108 557 551 526.108 551 488C551 449.892 520.108 419 482 419C443.892 419 413 449.892 413 488C413 526.108 443.892 557 482 557Z" fill="#13ECA4"/>
<path d="M482 695C520.108 695 551 664.108 551 626C551 587.892 520.108 557 482 557C443.892 557 413 587.892 413 626C413 664.108 443.892 695 482 695Z" fill="#13ECA7"/>
<path d="M482 833C520.108 833 551 802.108 551 764C551 725.892 520.108 695 482 695C443.892 695 413 725.892 413 764C413 802.108 443.892 833 482 833Z" fill="#13ECB2"/>
<path d="M482 971C520.108 971 551 940.108 551 902C551 863.892 520.108 833 482 833C443.892 833 413 863.892 413 902C413 940.108 443.892 971 482 971Z" fill="#13ECDD"/>
<path d="M482 1109C520.108 1109 551 1078.11 551 1040C551 1001.89 520.108 971 482 971C443.892 971 413 1001.89 413 1040C413 1078.11 443.892 1109 482 1109Z" fill="#13DDEC"/>
<path d="M482 1247C520.108 1247 551 1216.11 551 1178C551 1139.89 520.108 1109 482 1109C443.892 1109 413 1139.89 413 1178C413 1216.11 443.892 1247 482 1247Z" fill="#13A0EC"/>
<path d="M482 1385C520.108 1385 551 1354.11 551 1316C551 1277.89 520.108 1247 482 1247C443.892 1247 413 1277.89 413 1316C413 1354.11 443.892 1385 482 1385Z" fill="#137CEC"/>
<path d="M620 143C658.108 143 689 112.108 689 74C689 35.8924 658.108 5 620 5C581.892 5 551 35.8924 551 74C551 112.108 581.892 143 620 143Z" fill="#13ECDA"/>
<path d="M620 281C658.108 281 689 250.108 689 212C689 173.892 658.108 143 620 143C581.892 143 551 173.892 551 212C551 250.108 581.892 281 620 281Z" fill="#13ECC1"/>
<path d="M620 419C658.108 419 689 388.108 689 350C689 311.892 658.108 281 620 281C581.892 281 551 311.892 551 350C551 388.108 581.892 419 620 419Z" fill="#13ECA7"/>
<path d="M620 557C658.108 557 689 526.108 689 488C689 449.892 658.108 419 620 419C581.892 419 551 449.892 551 488C551 526.108 581.892 557 620 557Z" fill="#13ECA0"/>
<path d="M620 695C658.108 695 689 664.108 689 626C689 587.892 658.108 557 620 557C581.892 557 551 587.892 551 626C551 664.108 581.892 695 620 695Z" fill="#13ECAB"/>
<path d="M620 833C658.108 833 689 802.108 689 764C689 725.892 658.108 695 620 695C581.892 695 551 725.892 551 764C551 802.108 581.892 833 620 833Z" fill="#13ECB9"/>
<path d="M620 971C658.108 971 689 940.108 689 902C689 863.892 658.108 833 620 833C581.892 833 551 863.892 551 902C551 940.108 581.892 971 620 971Z" fill="#13ECE8"/>
<path d="M620 1109C658.108 1109 689 1078.11 689 1040C689 1001.89 658.108 971 620 971C581.892 971 551 1001.89 551 1040C551 1078.11 581.892 1109 620 1109Z" fill="#13D3EC"/>
<path d="M620 1247C658.108 1247 689 1216.11 689 1178C689 1139.89 658.108 1109 620 1109C581.892 1109 551 1139.89 551 1178C551 1216.11 581.892 1247 620 1247Z" fill="#138AEC"/>
<path d="M620 1385C658.108 1385 689 1354.11 689 1316C689 1277.89 658.108 1247 620 1247C581.892 1247 551 1277.89 551 1316C551 1354.11 581.892 1385 620 1385Z" fill="#1366EC"/>
<path d="M758 143C796.108 143 827 112.108 827 74C827 35.8924 796.108 5 758 5C719.892 5 689 35.8924 689 74C689 112.108 719.892 143 758 143Z" fill="#13ECD3"/>
<path d="M758 281C796.108 281 827 250.108 827 212C827 173.892 796.108 143 758 143C719.892 143 689 173.892 689 212C689 250.108 719.892 281 758 281Z" fill="#13ECC4"/>
<path d="M758 419C796.108 419 827 388.108 827 350C827 311.892 796.108 281 758 281C719.892 281 689 311.892 689 350C689 388.108 719.892 419 758 419Z" fill="#13ECAE"/>
<path d="M758 557C796.108 557 827 526.108 827 488C827 449.892 796.108 419 758 419C719.892 419 689 449.892 689 488C689 526.108 719.892 557 758 557Z" fill="#13ECAE"/>
<path d="M758 695C796.108 695 827 664.108 827 626C827 587.892 796.108 557 758 557C719.892 557 689 587.892 689 626C689 664.108 719.892 695 758 695Z" fill="#13ECBD"/>
<path d="M758 833C796.108 833 827 802.108 827 764C827 725.892 796.108 695 758 695C719.892 695 689 725.892 689 764C689 802.108 719.892 833 758 833Z" fill="#13ECCF"/>
<path d="M758 971C796.108 971 827 940.108 827 902C827 863.892 796.108 833 758 833C719.892 833 689 863.892 689 902C689 940.108 719.892 971 758 971Z" fill="#13D3EC"/>
<path d="M758 1109C796.108 1109 827 1078.11 827 1040C827 1001.89 796.108 971 758 971C719.892 971 689 1001.89 689 1040C689 1078.11 719.892 1109 758 1109Z" fill="#13B2EC"/>
<path d="M758 1247C796.108 1247 827 1216.11 827 1178C827 1139.89 796.108 1109 758 1109C719.892 1109 689 1139.89 689 1178C689 1216.11 719.892 1247 758 1247Z" fill="#1366EC"/>
<path d="M758 1385C796.108 1385 827 1354.11 827 1316C827 1277.89 796.108 1247 758 1247C719.892 1247 689 1277.89 689 1316C689 1354.11 719.892 1385 758 1385Z" fill="#133EEC"/>
<path d="M896 143C934.108 143 965 112.108 965 74C965 35.8924 934.108 5 896 5C857.892 5 827 35.8924 827 74C827 112.108 857.892 143 896 143Z" fill="#13ECDD"/>
<path d="M896 281C934.108 281 965 250.108 965 212C965 173.892 934.108 143 896 143C857.892 143 827 173.892 827 212C827 250.108 857.892 281 896 281Z" fill="#13ECCB"/>
<path d="M896 419C934.108 419 965 388.108 965 350C965 311.892 934.108 281 896 281C857.892 281 827 311.892 827 350C827 388.108 857.892 419 896 419Z" fill="#13ECBD"/>
<path d="M896 557C934.108 557 965 526.108 965 488C965 449.892 934.108 419 896 419C857.892 419 827 449.892 827 488C827 526.108 857.892 557 896 557Z" fill="#13ECBD"/>
<path d="M896 695C934.108 695 965 664.108 965 626C965 587.892 934.108 557 896 557C857.892 557 827 587.892 827 626C827 664.108 857.892 695 896 695Z" fill="#13ECCF"/>
<path d="M896 833C934.108 833 965 802.108 965 764C965 725.892 934.108 695 896 695C857.892 695 827 725.892 827 764C827 802.108 857.892 833 896 833Z" fill="#13ECE1"/>
<path d="M896 971C934.108 971 965 940.108 965 902C965 863.892 934.108 833 896 833C857.892 833 827 863.892 827 902C827 940.108 857.892 971 896 971Z" fill="#13C4EC"/>
<path d="M896 1109C934.108 1109 965 1078.11 965 1040C965 1001.89 934.108 971 896 971C857.892 971 827 1001.89 827 1040C827 1078.11 857.892 1109 896 1109Z" fill="#13A0EC"/>
<path d="M896 1247C934.108 1247 965 1216.11 965 1178C965 1139.89 934.108 1109 896 1109C857.892 1109 827 1139.89 827 1178C827 1216.11 857.892 1247 896 1247Z" fill="#1354EC"/>
<path d="M896 1385C934.108 1385 965 1354.11 965 1316C965 1277.89 934.108 1247 896 1247C857.892 1247 827 1277.89 827 1316C827 1354.11 857.892 1385 896 1385Z" fill="#132CEC"/>
<path d="M1034 143C1072.11 143 1103 112.108 1103 74C1103 35.8924 1072.11 5 1034 5C995.892 5 965 35.8924 965 74C965 112.108 995.892 143 1034 143Z" fill="#13D6EC"/>
<path d="M1034 281C1072.11 281 1103 250.108 1103 212C1103 173.892 1072.11 143 1034 143C995.892 143 965 173.892 965 212C965 250.108 995.892 281 1034 281Z" fill="#13E5EC"/>
<path d="M1034 419C1072.11 419 1103 388.108 1103 350C1103 311.892 1072.11 281 1034 281C995.892 281 965 311.892 965 350C965 388.108 995.892 419 1034 419Z" fill="#13ECE5"/>
<path d="M1034 557C1072.11 557 1103 526.108 1103 488C1103 449.892 1072.11 419 1034 419C995.892 419 965 449.892 965 488C965 526.108 995.892 557 1034 557Z" fill="#13ECE5"/>
<path d="M1034 695C1072.11 695 1103 664.108 1103 626C1103 587.892 1072.11 557 1034 557C995.892 557 965 587.892 965 626C965 664.108 995.892 695 1034 695Z" fill="#13E5EC"/>
<path d="M1034 833C1072.11 833 1103 802.108 1103 764C1103 725.892 1072.11 695 1034 695C995.892 695 965 725.892 965 764C965 802.108 995.892 833 1034 833Z" fill="#13D3EC"/>
<path d="M1034 971C1072.11 971 1103 940.108 1103 902C1103 863.892 1072.11 833 1034 833C995.892 833 965 863.892 965 902C965 940.108 995.892 971 1034 971Z" fill="#13A4EC"/>
<path d="M1034 1109C1072.11 1109 1103 1078.11 1103 1040C1103 1001.89 1072.11 971 1034 971C995.892 971 965 1001.89 965 1040C965 1078.11 995.892 1109 1034 1109Z" fill="#1383EC"/>
<path d="M1034 1247C1072.11 1247 1103 1216.11 1103 1178C1103 1139.89 1072.11 1109 1034 1109C995.892 1109 965 1139.89 965 1178C965 1216.11 995.892 1247 1034 1247Z" fill="#133BEC"/>
<path d="M1034 1385C1072.11 1385 1103 1354.11 1103 1316C1103 1277.89 1072.11 1247 1034 1247C995.892 1247 965 1277.89 965 1316C965 1354.11 995.892 1385 1034 1385Z" fill="#1313EC"/>
<path d="M1172 143C1210.11 143 1241 112.108 1241 74C1241 35.8924 1210.11 5 1172 5C1133.89 5 1103 35.8924 1103 74C1103 112.108 1133.89 143 1172 143Z" fill="#13BDEC"/>
<path d="M1172 281C1210.11 281 1241 250.108 1241 212C1241 173.892 1210.11 143 1172 143C1133.89 143 1103 173.892 1103 212C1103 250.108 1133.89 281 1172 281Z" fill="#13CBEC"/>
<path d="M1172 419C1210.11 419 1241 388.108 1241 350C1241 311.892 1210.11 281 1172 281C1133.89 281 1103 311.892 1103 350C1103 388.108 1133.89 419 1172 419Z" fill="#13DAEC"/>
<path d="M1172 557C1210.11 557 1241 526.108 1241 488C1241 449.892 1210.11 419 1172 419C1133.89 419 1103 449.892 1103 488C1103 526.108 1133.89 557 1172 557Z" fill="#13DAEC"/>
<path d="M1172 695C1210.11 695 1241 664.108 1241 626C1241 587.892 1210.11 557 1172 557C1133.89 557 1103 587.892 1103 626C1103 664.108 1133.89 695 1172 695Z" fill="#13CFEC"/>
<path d="M1172 833C1210.11 833 1241 802.108 1241 764C1241 725.892 1210.11 695 1172 695C1133.89 695 1103 725.892 1103 764C1103 802.108 1133.89 833 1172 833Z" fill="#13C1EC"/>
<path d="M1172 971C1210.11 971 1241 940.108 1241 902C1241 863.892 1210.11 833 1172 833C1133.89 833 1103 863.892 1103 902C1103 940.108 1133.89 971 1172 971Z" fill="#1395EC"/>
<path d="M1172 1109C1210.11 1109 1241 1078.11 1241 1040C1241 1001.89 1210.11 971 1172 971C1133.89 971 1103 1001.89 1103 1040C1103 1078.11 1133.89 1109 1172 1109Z" fill="#1378EC"/>
<path d="M1172 1247C1210.11 1247 1241 1216.11 1241 1178C1241 1139.89 1210.11 1109 1172 1109C1133.89 1109 1103 1139.89 1103 1178C1103 1216.11 1133.89 1247 1172 1247Z" fill="#1334EC"/>
<path d="M1172 1385C1210.11 1385 1241 1354.11 1241 1316C1241 1277.89 1210.11 1247 1172 1247C1133.89 1247 1103 1277.89 1103 1316C1103 1354.11 1133.89 1385 1172 1385Z" fill="#1A13EC"/>
<path d="M1310 143C1348.11 143 1379 112.108 1379 74C1379 35.8924 1348.11 5 1310 5C1271.89 5 1241 35.8924 1241 74C1241 112.108 1271.89 143 1310 143Z" fill="#1380EC"/>
<path d="M1310 281C1348.11 281 1379 250.108 1379 212C1379 173.892 1348.11 143 1310 143C1271.89 143 1241 173.892 1241 212C1241 250.108 1271.89 281 1310 281Z" fill="#138AEC"/>
<path d="M1310 419C1348.11 419 1379 388.108 1379 350C1379 311.892 1348.11 281 1310 281C1271.89 281 1241 311.892 1241 350C1241 388.108 1271.89 419 1310 419Z" fill="#13A0EC"/>
<path d="M1310 557C1348.11 557 1379 526.108 1379 488C1379 449.892 1348.11 419 1310 419C1271.89 419 1241 449.892 1241 488C1241 526.108 1271.89 557 1310 557Z" fill="#13A4EC"/>
<path d="M1310 695C1348.11 695 1379 664.108 1379 626C1379 587.892 1348.11 557 1310 557C1271.89 557 1241 587.892 1241 626C1241 664.108 1271.89 695 1310 695Z" fill="#13A4EC"/>
<path d="M1310 833C1348.11 833 1379 802.108 1379 764C1379 725.892 1348.11 695 1310 695C1271.89 695 1241 725.892 1241 764C1241 802.108 1271.89 833 1310 833Z" fill="#139CEC"/>
<path d="M1310 971C1348.11 971 1379 940.108 1379 902C1379 863.892 1348.11 833 1310 833C1271.89 833 1241 863.892 1241 902C1241 940.108 1271.89 971 1310 971Z" fill="#1380EC"/>
<path d="M1310 1109C1348.11 1109 1379 1078.11 1379 1040C1379 1001.89 1348.11 971 1310 971C1271.89 971 1241 1001.89 1241 1040C1241 1078.11 1271.89 1109 1310 1109Z" fill="#136AEC"/>
<path d="M1310 1247C1348.11 1247 1379 1216.11 1379 1178C1379 1139.89 1348.11 1109 1310 1109C1271.89 1109 1241 1139.89 1241 1178C1241 1216.11 1271.89 1247 1310 1247Z" fill="#1334EC"/>
<path d="M1310 1385C1348.11 1385 1379 1354.11 1379 1316C1379 1277.89 1348.11 1247 1310 1247C1271.89 1247 1241 1277.89 1241 1316C1241 1354.11 1271.89 1385 1310 1385Z" fill="#1313EC"/>
<path d="M1448 143C1486.11 143 1517 112.108 1517 74C1517 35.8924 1486.11 5 1448 5C1409.89 5 1379 35.8924 1379 74C1379 112.108 1409.89 143 1448 143Z" fill="#1380EC"/>
<path d="M1448 281C1486.11 281 1517 250.108 1517 212C1517 173.892 1486.11 143 1448 143C1409.89 143 1379 173.892 1379 212C1379 250.108 1409.89 281 1448 281Z" fill="#138AEC"/>
<path d="M1448 419C1486.11 419 1517 388.108 1517 350C1517 311.892 1486.11 281 1448 281C1409.89 281 1379 311.892 1379 350C1379 388.108 1409.89 419 1448 419Z" fill="#13A0EC"/>
<path d="M1448 557C1486.11 557 1517 526.108 1517 488C1517 449.892 1486.11 419 1448 419C1409.89 419 1379 449.892 1379 488C1379 526.108 1409.89 557 1448 557Z" fill="#13A4EC"/>
<path d="M1448 695C1486.11 695 1517 664.108 1517 626C1517 587.892 1486.11 557 1448 557C1409.89 557 1379 587.892 1379 626C1379 664.108 1409.89 695 1448 695Z" fill="#13A4EC"/>
<path d="M1448 833C1486.11 833 1517 802.108 1517 764C1517 725.892 1486.11 695 1448 695C1409.89 695 1379 725.892 1379 764C1379 802.108 1409.89 833 1448 833Z" fill="#139CEC"/>
<path d="M1448 971C1486.11 971 1517 940.108 1517 902C1517 863.892 1486.11 833 1448 833C1409.89 833 1379 863.892 1379 902C1379 940.108 1409.89 971 1448 971Z" fill="#1380EC"/>
<path d="M1448 1109C1486.11 1109 1517 1078.11 1517 1040C1517 1001.89 1486.11 971 1448 971C1409.89 971 1379 1001.89 1379 1040C1379 1078.11 1409.89 1109 1448 1109Z" fill="#136AEC"/>
<path d="M1448 1247C1486.11 1247 1517 1216.11 1517 1178C1517 1139.89 1486.11 1109 1448 1109C1409.89 1109 1379 1139.89 1379 1178C1379 1216.11 1409.89 1247 1448 1247Z" fill="#1334EC"/>
<path d="M1448 1385C1486.11 1385 1517 1354.11 1517 1316C1517 1277.89 1486.11 1247 1448 1247C1409.89 1247 1379 1277.89 1379 1316C1379 1354.11 1409.89 1385 1448 1385Z" fill="#1313EC"/>
</g>
</g>
<defs>
<filter id="filter0_f_1773_24796" x="-183" y="-126" width="1784" height="1635" filterUnits="userSpaceOnUse" color-interpolation-filters="sRGB">
<feFlood flood-opacity="0" result="BackgroundImageFix"/>
<feBlend mode="normal" in="SourceGraphic" in2="BackgroundImageFix" result="shape"/>
<feGaussianBlur stdDeviation="200" result="effect1_foregroundBlur_1773_24796"/>
</filter>
<linearGradient id="paint0_linear_1773_24796" x1="553.241" y1="305.248" x2="909.36" y2="1201.62" gradientUnits="userSpaceOnUse">
<stop stop-color="#F7D06D"/>
<stop offset="0.489583" stop-color="#96CC7D"/>
<stop offset="1" stop-color="#66BD87"/>
</linearGradient>
<linearGradient id="paint1_linear_1773_24796" x1="72639" y1="609.551" x2="72639" y2="67354.4" gradientUnits="userSpaceOnUse">
<stop stop-color="#F5C806"/>
<stop offset="1" stop-color="#F1C709"/>
</linearGradient>
<linearGradient id="paint2_linear_1773_24796" x1="72639" y1="604.264" x2="72639" y2="66865.4" gradientUnits="userSpaceOnUse">
<stop stop-color="#F5C806"/>
<stop offset="1" stop-color="#F1C709"/>
</linearGradient>
<linearGradient id="paint3_linear_1773_24796" x1="72639" y1="598.773" x2="72639" y2="66447.9" gradientUnits="userSpaceOnUse">
<stop stop-color="#F5C806"/>
<stop offset="1" stop-color="#F1C709"/>
</linearGradient>
<linearGradient id="paint4_linear_1773_24796" x1="72639" y1="593.061" x2="72639" y2="66099.3" gradientUnits="userSpaceOnUse">
<stop stop-color="#F5C806"/>
<stop offset="1" stop-color="#F1C709"/>
</linearGradient>
<linearGradient id="paint5_linear_1773_24796" x1="72639" y1="587.119" x2="72639" y2="65817.6" gradientUnits="userSpaceOnUse">
<stop stop-color="#F5C806"/>
<stop offset="1" stop-color="#F1C709"/>
</linearGradient>
<linearGradient id="paint6_linear_1773_24796" x1="72639" y1="580.93" x2="72639" y2="65601.1" gradientUnits="userSpaceOnUse">
<stop stop-color="#F5C806"/>
<stop offset="1" stop-color="#F1C709"/>
</linearGradient>
<linearGradient id="paint7_linear_1773_24796" x1="72639" y1="574.48" x2="72639" y2="65448.5" gradientUnits="userSpaceOnUse">
<stop stop-color="#F5C806"/>
<stop offset="1" stop-color="#F1C709"/>
</linearGradient>
<linearGradient id="paint8_linear_1773_24796" x1="72639" y1="567.75" x2="72639" y2="65359" gradientUnits="userSpaceOnUse">
<stop stop-color="#F5C806"/>
<stop offset="1" stop-color="#F1C709"/>
</linearGradient>
<linearGradient id="paint9_linear_1773_24796" x1="72639" y1="560.723" x2="72639" y2="65332" gradientUnits="userSpaceOnUse">
<stop stop-color="#F5C806"/>
<stop offset="1" stop-color="#F1C709"/>
</linearGradient>
<linearGradient id="paint10_linear_1773_24796" x1="72639" y1="553.379" x2="72639" y2="65367.4" gradientUnits="userSpaceOnUse">
<stop stop-color="#F5C806"/>
<stop offset="1" stop-color="#F1C709"/>
</linearGradient>
<linearGradient id="paint11_linear_1773_24796" x1="72639" y1="545.695" x2="72639" y2="65465.5" gradientUnits="userSpaceOnUse">
<stop stop-color="#F5C806"/>
<stop offset="1" stop-color="#F1C709"/>
</linearGradient>
<linearGradient id="paint12_linear_1773_24796" x1="72639" y1="537.646" x2="72639" y2="65626.8" gradientUnits="userSpaceOnUse">
<stop stop-color="#F5C806"/>
<stop offset="1" stop-color="#F1C709"/>
</linearGradient>
<linearGradient id="paint13_linear_1773_24796" x1="72639" y1="529.211" x2="72639" y2="65852.4" gradientUnits="userSpaceOnUse">
<stop stop-color="#F5C806"/>
<stop offset="1" stop-color="#F1C709"/>
</linearGradient>
<linearGradient id="paint14_linear_1773_24796" x1="72639" y1="520.354" x2="72639" y2="66143.4" gradientUnits="userSpaceOnUse">
<stop stop-color="#F5C806"/>
<stop offset="1" stop-color="#F1C709"/>
</linearGradient>
<linearGradient id="paint15_linear_1773_24796" x1="72639" y1="511.047" x2="72639" y2="66501.9" gradientUnits="userSpaceOnUse">
<stop stop-color="#F5C806"/>
<stop offset="1" stop-color="#F1C709"/>
</linearGradient>
<linearGradient id="paint16_linear_1773_24796" x1="72639" y1="501.254" x2="72639" y2="66929.8" gradientUnits="userSpaceOnUse">
<stop stop-color="#F5C806"/>
<stop offset="1" stop-color="#F1C709"/>
</linearGradient>
<linearGradient id="paint17_linear_1773_24796" x1="72639" y1="490.934" x2="72639" y2="67430" gradientUnits="userSpaceOnUse">
<stop stop-color="#F5C806"/>
<stop offset="1" stop-color="#F1C709"/>
</linearGradient>
<linearGradient id="paint18_linear_1773_24796" x1="72639" y1="480.047" x2="72639" y2="68005.6" gradientUnits="userSpaceOnUse">
<stop stop-color="#F5C806"/>
<stop offset="1" stop-color="#F1C709"/>
</linearGradient>
<linearGradient id="paint19_linear_1773_24796" x1="72639" y1="468.539" x2="72639" y2="68660.4" gradientUnits="userSpaceOnUse">
<stop stop-color="#F5C806"/>
<stop offset="1" stop-color="#F1C709"/>
</linearGradient>
<linearGradient id="paint20_linear_1773_24796" x1="72639" y1="456.363" x2="72639" y2="69398.7" gradientUnits="userSpaceOnUse">
<stop stop-color="#F5C806"/>
<stop offset="1" stop-color="#F1C709"/>
</linearGradient>
<linearGradient id="paint21_linear_1773_24796" x1="72639" y1="443.453" x2="72639" y2="70225.7" gradientUnits="userSpaceOnUse">
<stop stop-color="#F5C806"/>
<stop offset="1" stop-color="#F1C709"/>
</linearGradient>
<linearGradient id="paint22_linear_1773_24796" x1="72639" y1="429.746" x2="72639" y2="71147.4" gradientUnits="userSpaceOnUse">
<stop stop-color="#F5C806"/>
<stop offset="1" stop-color="#F1C709"/>
</linearGradient>
<linearGradient id="paint23_linear_1773_24796" x1="72639" y1="415.16" x2="72639" y2="72170.3" gradientUnits="userSpaceOnUse">
<stop stop-color="#F5C806"/>
<stop offset="1" stop-color="#F1C709"/>
</linearGradient>
<linearGradient id="paint24_linear_1773_24796" x1="72639" y1="399.613" x2="72639" y2="73302.6" gradientUnits="userSpaceOnUse">
<stop stop-color="#F5C806"/>
<stop offset="1" stop-color="#F1C709"/>
</linearGradient>
<linearGradient id="paint25_linear_1773_24796" x1="72639" y1="383" x2="72639" y2="74553.3" gradientUnits="userSpaceOnUse">
<stop stop-color="#F5C806"/>
<stop offset="1" stop-color="#F1C709"/>
</linearGradient>
<clipPath id="clip0_1773_24796">
<rect width="1443" height="1255" fill="white" transform="translate(-1)"/>
</clipPath>
<clipPath id="clip1_1773_24796">
<rect width="1422" height="800" fill="white" transform="translate(9)"/>
</clipPath>
<clipPath id="clip2_1773_24796">
<rect width="1443" height="1250" fill="white" transform="translate(-1 5)"/>
</clipPath>
</defs>
</svg>
