<svg width="1440" height="609" viewBox="0 0 1440 609" fill="none" xmlns="http://www.w3.org/2000/svg">
<g clip-path="url(#clip0_3166_28884)">
<rect width="1440" height="609" fill="url(#paint0_linear_3166_28884)"/>
<path d="M799.482 600.916C779.269 535.764 710.067 499.335 644.916 519.548C579.764 539.761 543.334 608.963 563.547 674.114C583.76 739.266 652.962 775.696 718.114 755.483C783.266 735.27 819.696 666.068 799.482 600.916Z" fill="url(#paint1_linear_3166_28884)"/>
<path d="M116.177 182.214C190.471 182.214 250.698 121.987 250.698 47.6927C250.698 -26.6011 190.471 -86.8281 116.177 -86.8281C41.8833 -86.8281 -18.3438 -26.6011 -18.3438 47.6927C-18.3438 121.987 41.8833 182.214 116.177 182.214Z" fill="url(#paint2_linear_3166_28884)"/>
<g clip-path="url(#clip1_3166_28884)">
<mask id="mask0_3166_28884" style="mask-type:luminance" maskUnits="userSpaceOnUse" x="788" y="94" width="951" height="791">
<path d="M1739 94.9961H788V884.666H1739V94.9961Z" fill="white"/>
</mask>
<g mask="url(#mask0_3166_28884)">
<path d="M1030.96 466.303L1150.78 362.262" stroke="#7FF7C3" stroke-width="8.49107" stroke-miterlimit="10"/>
<path d="M1152.73 360.065L1275.18 293.473" stroke="#7FF7C3" stroke-width="8.4404" stroke-miterlimit="10"/>
<path d="M1278.7 292.202L1401.15 225.609" stroke="#7FF7C3" stroke-width="8.4404" stroke-miterlimit="10"/>
<path d="M1397.58 223.75L1517.9 111.523" stroke="#7FF7C3" stroke-width="8.4404" stroke-miterlimit="10"/>
<path d="M1406.38 298.805H1367.74C1360.78 298.805 1355.14 304.477 1355.14 311.456V693.682C1355.14 700.662 1360.78 706.325 1367.74 706.325H1406.38C1413.34 706.325 1418.98 700.662 1418.98 693.682V311.456C1418.98 304.477 1413.34 298.805 1406.38 298.805Z" fill="#48D8A4"/>
<path d="M1285.06 366H1246.43C1239.46 366 1233.82 371.664 1233.82 378.643V693.653C1233.82 700.642 1239.46 706.305 1246.43 706.305H1285.06C1292.02 706.305 1297.67 700.642 1297.67 693.653V378.643C1297.67 371.664 1292.02 366 1285.06 366Z" fill="#48D8A4"/>
<path d="M1163.73 436.43H1125.1C1118.13 436.43 1112.49 442.093 1112.49 449.073V693.684C1112.49 700.663 1118.13 706.327 1125.1 706.327H1163.73C1170.69 706.327 1176.34 700.663 1176.34 693.684V449.073C1176.34 442.093 1170.69 436.43 1163.73 436.43Z" fill="#48D8A4"/>
<path d="M1042.41 537.758H1003.78C996.815 537.758 991.168 543.43 991.168 550.41V693.671C991.168 700.659 996.815 706.323 1003.78 706.323H1042.41C1049.37 706.323 1055.02 700.659 1055.02 693.671V550.41C1055.02 543.43 1049.37 537.758 1042.41 537.758Z" fill="#48D8A4"/>
<path d="M1396.1 238.555C1402.57 238.555 1407.81 233.299 1407.81 226.821C1407.81 220.342 1402.57 215.086 1396.1 215.086C1389.64 215.086 1384.4 220.342 1384.4 226.821C1384.4 233.299 1389.64 238.555 1396.1 238.555Z" fill="#7FF7C3"/>
<path d="M1274.77 305.727C1281.24 305.727 1286.48 300.471 1286.48 293.992C1286.48 287.505 1281.24 282.258 1274.77 282.258C1268.31 282.258 1263.08 287.505 1263.08 293.992C1263.08 300.471 1268.31 305.727 1274.77 305.727Z" fill="#7FF7C3"/>
<path d="M1152.38 375.079C1158.84 375.079 1164.09 369.823 1164.09 363.344C1164.09 356.857 1158.84 351.609 1152.38 351.609C1145.92 351.609 1140.69 356.857 1140.69 363.344C1140.69 369.823 1145.92 375.079 1152.38 375.079Z" fill="#7FF7C3"/>
<path d="M1031.07 476.411C1037.53 476.411 1042.78 471.155 1042.78 464.676C1042.78 458.197 1037.53 452.941 1031.07 452.941C1024.61 452.941 1019.38 458.197 1019.38 464.676C1019.38 471.155 1024.61 476.411 1031.07 476.411Z" fill="#7FF7C3"/>
</g>
</g>
</g>
<defs>
<linearGradient id="paint0_linear_3166_28884" x1="-210.5" y1="-74.0436" x2="1075.85" y2="1478.72" gradientUnits="userSpaceOnUse">
<stop stop-color="#2563EB"/>
<stop offset="1" stop-color="#35FF49"/>
</linearGradient>
<linearGradient id="paint1_linear_3166_28884" x1="563.547" y1="674.114" x2="799.482" y2="600.916" gradientUnits="userSpaceOnUse">
<stop stop-color="white" stop-opacity="0.22"/>
<stop offset="1" stop-color="white" stop-opacity="0"/>
</linearGradient>
<linearGradient id="paint2_linear_3166_28884" x1="116.177" y1="-86.8281" x2="116.177" y2="182.214" gradientUnits="userSpaceOnUse">
<stop stop-color="white" stop-opacity="0.22"/>
<stop offset="1" stop-color="white" stop-opacity="0"/>
</linearGradient>
<clipPath id="clip0_3166_28884">
<rect width="1440" height="609" fill="white"/>
</clipPath>
<clipPath id="clip1_3166_28884">
<rect width="951" height="789.67" fill="white" transform="translate(788 95)"/>
</clipPath>
</defs>
</svg>
