<svg width="30" height="30" viewBox="0 0 30 30" fill="none" xmlns="http://www.w3.org/2000/svg">
<g clip-path="url(#clip0_1592_24663)">
<path d="M23.1113 15C23.1113 23.0081 16.6195 29.5 8.61133 29.5C0.603199 29.5 -5.88867 23.0081 -5.88867 15C-5.88867 6.99187 0.603199 0.5 8.61133 0.5C16.6195 0.5 23.1113 6.99187 23.1113 15Z" stroke="black"/>
<path d="M17.5743 16.2078V22.392H13.9888V16.6223C13.9888 15.1736 13.4712 14.1842 12.173 14.1842C11.1823 14.1842 10.5938 14.8503 10.3339 15.4952C10.2395 15.7257 10.2152 16.0458 10.2152 16.3691V22.3917H6.62949C6.62949 22.3917 6.67762 12.6197 6.62949 11.6082H10.2155V13.1363C10.2082 13.1484 10.1981 13.1601 10.1917 13.1716H10.2155V13.1363C10.6919 12.4032 11.5417 11.355 13.4468 11.355C15.8058 11.355 17.5743 12.8962 17.5743 16.2078ZM2.87856 6.41016C1.65204 6.41016 0.849609 7.21527 0.849609 8.27306C0.849609 9.30839 1.62878 10.1368 2.8315 10.1368H2.85476C4.10534 10.1368 4.88291 9.30839 4.88291 8.27306C4.85911 7.21527 4.10534 6.41016 2.87856 6.41016ZM1.06272 22.392H4.64707V11.6082H1.06272V22.392Z" fill="black"/>
</g>
<defs>
<clipPath id="clip0_1592_24663">
<rect width="30" height="30" fill="white"/>
</clipPath>
</defs>
</svg>
