<svg width="503" height="468" viewBox="0 0 503 468" fill="none" xmlns="http://www.w3.org/2000/svg">
<g clip-path="url(#clip0_2320_28051)">
<rect y="212" width="503" height="256" rx="20" fill="#D6F5D6"/>
<g clip-path="url(#clip1_2320_28051)">
<rect width="7.27881" height="74.201" rx="2.90984" transform="matrix(-0.999952 0.00984274 0.00984274 0.999952 408.002 217.172)" fill="url(#paint0_linear_2320_28051)"/>
<rect width="7.27881" height="71.2911" rx="1.45492" transform="matrix(-0.999952 0.00984274 0.00984274 0.999952 406.529 218.637)" fill="url(#paint1_linear_2320_28051)"/>
<rect width="7.38239" height="49.3412" rx="2.90984" transform="matrix(0.999952 -0.00984282 -0.00984287 -0.999952 90.9277 337.574)" fill="url(#paint2_linear_2320_28051)"/>
<rect width="7.38239" height="46.5744" rx="1.45492" transform="matrix(0.999952 -0.00984282 -0.00984287 -0.999952 92.2959 336.176)" fill="url(#paint3_linear_2320_28051)"/>
<rect width="7.38239" height="48.4189" rx="2.90984" transform="matrix(0.999952 -0.00984282 -0.00984287 -0.999952 90.2764 268.891)" fill="url(#paint4_linear_2320_28051)"/>
<rect width="7.38217" height="21.2115" rx="2.90984" transform="matrix(0.999952 -0.00984282 -0.00984287 -0.999952 90.084 202.93)" fill="url(#paint5_linear_2320_28051)"/>
<rect width="6.22088" height="46.6566" rx="1.45492" transform="matrix(0.999952 -0.00984282 -0.00984287 -0.999952 92.332 268.156)" fill="black"/>
<rect width="7.38217" height="18.4448" rx="1.45492" transform="matrix(0.999952 -0.00984277 -0.0098429 -0.999952 91.4629 201.547)" fill="url(#paint6_linear_2320_28051)"/>
<rect x="91.3066" y="29.6602" width="311.353" height="624.161" rx="54.5595" transform="rotate(-0.563956 91.3066 29.6602)" fill="black"/>
<rect x="92.7734" y="31.1055" width="308.443" height="621.251" rx="53.8321" transform="rotate(-0.563956 92.7734 31.1055)" fill="url(#paint7_linear_2320_28051)"/>
<rect x="94.1016" y="32.3789" width="305.533" height="618.341" rx="52.3772" transform="rotate(-0.563956 94.1016 32.3789)" fill="black"/>
<rect x="101.715" y="39.8555" width="290.11" height="602.92" rx="46.724" transform="rotate(-0.563956 101.715 39.8555)" fill="#228B22"/>
<g filter="url(#filter0_d_2320_28051)">
<g clip-path="url(#clip2_2320_28051)">
<rect x="109.606" y="129.18" width="278.843" height="308.351" rx="14.7536" transform="rotate(-0.305669 109.606 129.18)" fill="white"/>
<path d="M197.914 291.824L197.908 290.723L200.961 290.707C201.467 290.704 201.873 290.549 202.177 290.242C202.49 289.934 202.645 289.532 202.642 289.034C202.639 288.519 202.48 288.113 202.164 287.818C201.857 287.523 201.45 287.376 200.943 287.379L198.1 287.394L198.139 294.757L196.881 294.764L196.836 286.261L200.884 286.239C201.304 286.237 201.693 286.296 202.052 286.417C202.419 286.528 202.739 286.701 203.011 286.936C203.291 287.17 203.507 287.461 203.657 287.81C203.816 288.159 203.897 288.564 203.9 289.027C203.902 289.481 203.826 289.884 203.67 290.234C203.524 290.584 203.311 290.878 203.033 291.115C202.763 291.344 202.446 291.516 202.079 291.631C201.722 291.747 201.333 291.805 200.914 291.808L197.914 291.824ZM207.816 294.837C207.257 294.84 206.746 294.698 206.281 294.412C205.817 294.127 205.448 293.731 205.174 293.226C204.901 292.712 204.762 292.123 204.759 291.46C204.755 290.796 204.888 290.21 205.156 289.702C205.432 289.185 205.81 288.781 206.289 288.49C206.768 288.191 207.304 288.039 207.898 288.036C208.553 288.033 209.061 288.183 209.42 288.487C209.789 288.79 210.044 289.2 210.187 289.714C210.338 290.229 210.415 290.8 210.419 291.429C210.421 291.779 210.379 292.15 210.294 292.544C210.208 292.937 210.071 293.309 209.88 293.66C209.69 294.01 209.425 294.295 209.086 294.515C208.746 294.727 208.323 294.834 207.816 294.837ZM208.164 293.747C208.627 293.745 209.015 293.642 209.329 293.44C209.651 293.228 209.89 292.948 210.045 292.597C210.2 292.247 210.277 291.858 210.275 291.43C210.272 290.967 210.187 290.561 210.019 290.213C209.86 289.864 209.618 289.595 209.294 289.405C208.979 289.214 208.594 289.12 208.14 289.122C207.458 289.126 206.931 289.347 206.558 289.786C206.193 290.225 206.013 290.78 206.017 291.453C206.019 291.907 206.113 292.308 206.298 292.657C206.483 292.996 206.734 293.266 207.049 293.465C207.373 293.655 207.745 293.75 208.164 293.747ZM210.257 288.155L211.515 288.148L211.55 294.686L210.397 294.692C210.397 294.692 210.388 294.613 210.369 294.456C210.351 294.29 210.332 294.094 210.314 293.867C210.295 293.64 210.285 293.439 210.284 293.264L210.257 288.155ZM212.566 288.142L213.902 288.135L216.438 294.398L215.352 294.665L212.566 288.142ZM219.234 288.107L215.366 297.286L214.043 297.293L215.714 293.733L217.911 288.114L219.234 288.107ZM224.3 294.749C223.784 294.751 223.356 294.649 223.014 294.441C222.681 294.225 222.413 293.942 222.21 293.594C222.016 293.245 221.875 292.875 221.785 292.482C221.696 292.09 221.65 291.719 221.648 291.369C221.646 290.898 221.683 290.456 221.759 290.046C221.844 289.635 221.982 289.271 222.173 288.956C222.363 288.64 222.628 288.394 222.968 288.218C223.308 288.041 223.739 287.952 224.263 287.949C224.849 287.946 225.369 288.092 225.825 288.386C226.289 288.672 226.654 289.072 226.919 289.586C227.184 290.091 227.318 290.675 227.321 291.339C227.325 292.003 227.193 292.593 226.925 293.11C226.656 293.618 226.292 294.017 225.83 294.308C225.378 294.599 224.868 294.746 224.3 294.749ZM223.94 293.663C224.359 293.661 224.726 293.563 225.039 293.369C225.361 293.166 225.609 292.894 225.782 292.553C225.963 292.202 226.053 291.8 226.05 291.346C226.047 290.673 225.856 290.12 225.478 289.685C225.109 289.25 224.588 289.035 223.916 289.038C223.461 289.041 223.073 289.139 222.751 289.333C222.438 289.527 222.199 289.799 222.035 290.149C221.871 290.499 221.79 290.906 221.792 291.369C221.795 291.797 221.875 292.185 222.034 292.533C222.202 292.882 222.444 293.16 222.759 293.368C223.084 293.567 223.477 293.666 223.94 293.663ZM221.761 285.473L221.802 293.203C221.803 293.404 221.791 293.644 221.767 293.924C221.751 294.203 221.734 294.439 221.718 294.631L220.565 294.638L220.516 285.48L221.761 285.473ZM231.333 294.711C230.774 294.714 230.262 294.573 229.798 294.287C229.333 294.001 228.964 293.606 228.691 293.101C228.417 292.587 228.279 291.998 228.275 291.334C228.272 290.67 228.404 290.084 228.672 289.576C228.949 289.059 229.327 288.656 229.805 288.365C230.284 288.065 230.821 287.914 231.415 287.911C232.07 287.907 232.577 288.057 232.937 288.361C233.305 288.665 233.561 289.074 233.703 289.589C233.854 290.103 233.932 290.675 233.935 291.304C233.937 291.653 233.895 292.025 233.81 292.418C233.725 292.812 233.587 293.184 233.397 293.534C233.206 293.885 232.942 294.17 232.602 294.39C232.263 294.601 231.839 294.708 231.333 294.711ZM231.681 293.622C232.144 293.619 232.532 293.517 232.845 293.314C233.167 293.103 233.406 292.822 233.561 292.472C233.717 292.122 233.793 291.733 233.791 291.305C233.789 290.842 233.703 290.436 233.536 290.088C233.376 289.739 233.135 289.47 232.811 289.279C232.495 289.089 232.11 288.995 231.656 288.997C230.975 289.001 230.448 289.222 230.074 289.661C229.71 290.099 229.529 290.655 229.533 291.327C229.535 291.782 229.629 292.183 229.815 292.531C230 292.871 230.25 293.14 230.566 293.34C230.89 293.53 231.262 293.624 231.681 293.622ZM233.774 288.029L235.031 288.023L235.066 294.56L233.913 294.566C233.913 294.566 233.904 294.488 233.886 294.331C233.867 294.165 233.849 293.968 233.83 293.741C233.812 293.514 233.802 293.314 233.801 293.139L233.774 288.029ZM243.1 292.028C243.051 292.57 242.878 293.042 242.584 293.446C242.297 293.84 241.919 294.144 241.449 294.356C240.978 294.568 240.454 294.676 239.878 294.679C239.24 294.682 238.654 294.554 238.12 294.295C237.586 294.027 237.156 293.641 236.83 293.136C236.513 292.622 236.352 292.012 236.349 291.304C236.345 290.588 236.499 289.976 236.811 289.467C237.131 288.95 237.557 288.555 238.088 288.281C238.62 288.008 239.204 287.869 239.842 287.866C240.418 287.863 240.938 287.965 241.402 288.172C241.866 288.379 242.248 288.678 242.547 289.07C242.846 289.453 243.028 289.915 243.092 290.456L241.952 290.462C241.801 289.991 241.532 289.621 241.147 289.353C240.77 289.075 240.337 288.938 239.847 288.94C239.446 288.942 239.071 289.036 238.722 289.221C238.382 289.407 238.109 289.674 237.901 290.025C237.702 290.367 237.604 290.791 237.606 291.297C237.609 291.787 237.712 292.205 237.914 292.554C238.126 292.893 238.402 293.154 238.744 293.335C239.086 293.508 239.462 293.593 239.872 293.591C240.431 293.588 240.885 293.45 241.233 293.178C241.581 292.905 241.827 292.524 241.973 292.034L243.1 292.028ZM244.53 285.351L245.775 285.345L245.824 294.503L244.579 294.51L244.53 285.351ZM250.505 287.94L247.064 291.247L247.086 290.461L250.789 294.476L249.204 294.485L245.83 290.847L248.763 287.949L250.505 287.94ZM257.306 294.573C256.747 294.576 256.235 294.434 255.771 294.148C255.306 293.863 254.937 293.467 254.664 292.962C254.39 292.448 254.252 291.859 254.248 291.196C254.245 290.532 254.377 289.946 254.645 289.438C254.922 288.921 255.3 288.517 255.778 288.226C256.257 287.927 256.794 287.775 257.388 287.772C258.043 287.769 258.55 287.919 258.91 288.223C259.278 288.526 259.534 288.936 259.676 289.45C259.827 289.965 259.905 290.536 259.908 291.165C259.91 291.515 259.868 291.886 259.783 292.28C259.698 292.673 259.56 293.045 259.37 293.396C259.179 293.746 258.915 294.031 258.575 294.251C258.236 294.463 257.812 294.57 257.306 294.573ZM257.654 293.483C258.117 293.481 258.505 293.378 258.818 293.176C259.14 292.964 259.379 292.684 259.534 292.333C259.69 291.983 259.766 291.594 259.764 291.166C259.762 290.703 259.676 290.297 259.509 289.949C259.349 289.6 259.108 289.331 258.784 289.141C258.468 288.95 258.083 288.856 257.629 288.858C256.948 288.862 256.421 289.083 256.047 289.522C255.683 289.961 255.502 290.516 255.506 291.189C255.508 291.643 255.602 292.044 255.788 292.393C255.973 292.732 256.223 293.002 256.539 293.201C256.863 293.391 257.235 293.486 257.654 293.483ZM259.747 287.891L261.004 287.884L261.039 294.422L259.886 294.428C259.886 294.428 259.877 294.349 259.859 294.192C259.84 294.026 259.822 293.83 259.803 293.603C259.785 293.376 259.775 293.175 259.774 293L259.747 287.891ZM262.645 287.875L263.902 287.869L263.937 294.406L262.68 294.413L262.645 287.875ZM266.391 287.724C266.758 287.722 267.09 287.773 267.388 287.876C267.685 287.979 267.939 288.135 268.15 288.344C268.361 288.544 268.524 288.796 268.639 289.101C268.763 289.397 268.826 289.738 268.828 290.122L268.85 294.38L267.606 294.387L267.585 290.404C267.582 289.888 267.453 289.505 267.198 289.253C266.953 288.992 266.576 288.863 266.07 288.866C265.677 288.868 265.319 288.962 264.997 289.147C264.675 289.332 264.409 289.578 264.201 289.885C264.002 290.183 263.882 290.52 263.84 290.895L263.823 290.175C263.865 289.825 263.955 289.502 264.093 289.204C264.24 288.906 264.422 288.647 264.639 288.428C264.865 288.2 265.126 288.028 265.423 287.913C265.719 287.789 266.042 287.726 266.391 287.724ZM271.186 287.699C271.553 287.697 271.885 287.747 272.183 287.851C272.48 287.954 272.735 288.11 272.945 288.318C273.156 288.518 273.319 288.77 273.434 289.075C273.558 289.372 273.621 289.712 273.623 290.096L273.646 294.354L272.401 294.361L272.38 290.378C272.377 289.863 272.248 289.479 271.994 289.227C271.748 288.967 271.371 288.838 270.865 288.84C270.472 288.842 270.114 288.936 269.792 289.121C269.47 289.306 269.205 289.552 268.997 289.859C268.797 290.157 268.677 290.494 268.635 290.87L268.618 290.136C268.66 289.787 268.75 289.467 268.888 289.178C269.035 288.881 269.222 288.622 269.447 288.402C269.673 288.174 269.934 288.002 270.231 287.887C270.527 287.763 270.846 287.7 271.186 287.699ZM278.453 294.473C277.816 294.476 277.23 294.344 276.696 294.076C276.161 293.808 275.736 293.422 275.418 292.917C275.101 292.412 274.941 291.806 274.937 291.098C274.933 290.382 275.087 289.77 275.399 289.262C275.711 288.744 276.132 288.349 276.664 288.076C277.195 287.802 277.779 287.663 278.417 287.66C279.055 287.657 279.636 287.789 280.162 288.057C280.687 288.325 281.109 288.716 281.426 289.229C281.743 289.734 281.903 290.345 281.907 291.061C281.911 291.769 281.757 292.376 281.445 292.885C281.133 293.393 280.716 293.784 280.194 294.057C279.671 294.331 279.091 294.47 278.453 294.473ZM278.448 293.385C278.841 293.383 279.203 293.294 279.534 293.118C279.873 292.932 280.143 292.669 280.342 292.327C280.549 291.977 280.652 291.557 280.649 291.068C280.647 290.57 280.54 290.147 280.328 289.799C280.125 289.45 279.853 289.185 279.512 289.004C279.179 288.822 278.816 288.732 278.423 288.734C278.03 288.736 277.663 288.83 277.324 289.015C276.984 289.192 276.71 289.455 276.502 289.806C276.295 290.156 276.192 290.585 276.195 291.092C276.197 291.581 276.3 291.999 276.503 292.348C276.714 292.687 276.991 292.948 277.332 293.129C277.674 293.302 278.046 293.388 278.448 293.385ZM289.411 294.27L288.167 294.277L288.132 287.739L289.376 287.733L289.411 294.27ZM288.216 291.198L288.231 291.591C288.223 291.704 288.193 291.875 288.142 292.102C288.099 292.321 288.022 292.561 287.91 292.824C287.807 293.087 287.659 293.341 287.469 293.586C287.286 293.832 287.052 294.034 286.764 294.193C286.477 294.351 286.128 294.432 285.717 294.434C285.438 294.436 285.15 294.398 284.852 294.321C284.563 294.244 284.296 294.114 284.051 293.932C283.805 293.75 283.607 293.502 283.457 293.188C283.307 292.866 283.231 292.465 283.228 291.984L283.206 287.766L284.463 287.759L284.484 291.716C284.487 292.117 284.549 292.431 284.673 292.658C284.805 292.884 284.989 293.045 285.226 293.14C285.462 293.235 285.729 293.281 286.026 293.28C286.48 293.277 286.859 293.166 287.164 292.946C287.477 292.717 287.72 292.445 287.893 292.13C288.066 291.806 288.174 291.495 288.216 291.198ZM291.023 287.724L292.281 287.717L292.316 294.255L291.058 294.262L291.023 287.724ZM294.769 287.573C295.136 287.571 295.468 287.622 295.766 287.725C296.064 287.828 296.318 287.984 296.528 288.192C296.739 288.392 296.902 288.645 297.017 288.95C297.141 289.246 297.204 289.586 297.206 289.971L297.229 294.229L295.984 294.235L295.963 290.252C295.96 289.737 295.831 289.353 295.577 289.101C295.331 288.841 294.955 288.712 294.448 288.714C294.055 288.717 293.697 288.81 293.375 288.995C293.053 289.18 292.788 289.426 292.58 289.733C292.381 290.031 292.26 290.368 292.218 290.744L292.201 290.023C292.243 289.674 292.333 289.35 292.471 289.053C292.618 288.755 292.8 288.496 293.018 288.277C293.243 288.048 293.505 287.877 293.801 287.761C294.097 287.638 294.42 287.575 294.769 287.573ZM298.382 287.685L302.614 287.662L302.62 288.749L298.388 288.772L298.382 287.685ZM299.866 285.947L301.111 285.941L301.155 294.208L299.91 294.214L299.866 285.947Z" fill="#9CA3AF"/>
<path d="M191.568 336.788L190.53 337.165L190.421 316.637L194.022 316.617L194.15 340.709L190.549 340.728L173.626 320.735L174.664 320.359L174.773 340.813L171.209 340.832L171.081 316.74L174.644 316.721L191.568 336.788ZM209.145 330.717C210.283 330.711 211.324 330.891 212.266 331.258C213.208 331.599 214.028 332.114 214.724 332.804C215.421 333.468 215.957 334.294 216.334 335.282C216.735 336.245 216.939 337.346 216.946 338.583C216.954 340.241 216.578 341.666 215.818 342.858C215.081 344.05 214.059 344.971 212.751 345.621C211.468 346.272 210.022 346.601 208.413 346.61C207.2 346.616 206.061 346.449 204.995 346.108C203.929 345.792 202.986 345.315 202.166 344.676C201.346 344.036 200.674 343.261 200.149 342.348C199.649 341.459 199.359 340.434 199.279 339.271L202.768 339.252C202.872 340.143 203.161 340.896 203.634 341.512C204.133 342.153 204.779 342.62 205.572 342.913C206.39 343.23 207.307 343.386 208.322 343.381C208.99 343.377 209.633 343.275 210.25 343.073C210.868 342.872 211.411 342.572 211.879 342.174C212.372 341.775 212.753 341.278 213.022 340.683C213.291 340.087 213.423 339.394 213.419 338.602C213.415 337.81 213.275 337.118 213 336.525C212.749 335.932 212.4 335.439 211.952 335.046C211.505 334.627 210.971 334.321 210.351 334.126C209.756 333.907 209.124 333.799 208.456 333.802C207.788 333.806 207.108 333.896 206.416 334.073C205.748 334.225 205.131 334.513 204.564 334.937C204.022 335.36 203.555 335.944 203.163 336.689L199.967 336.075L200.747 322.113L214.778 322.038L214.795 325.23L204.105 325.287L203.49 335.314L203.154 335.056C203.421 334.064 203.862 333.258 204.478 332.636C205.093 331.989 205.808 331.515 206.623 331.213C207.438 330.887 208.279 330.722 209.145 330.717ZM219.476 325.242L219.459 322.05L227.625 322.006L227.724 340.53L224.161 340.549L224.079 325.218L219.476 325.242ZM243.161 340.856C241.354 340.866 239.694 340.491 238.18 339.732C236.666 338.973 235.46 337.878 234.562 336.447C233.663 335.017 233.209 333.299 233.198 331.294C233.187 329.265 233.623 327.53 234.507 326.09C235.39 324.625 236.584 323.505 238.089 322.73C239.595 321.955 241.251 321.563 243.058 321.553C244.864 321.543 246.512 321.918 248.001 322.677C249.49 323.437 250.684 324.544 251.582 325.999C252.481 327.43 252.936 329.16 252.946 331.189C252.957 333.194 252.521 334.916 251.638 336.356C250.754 337.796 249.572 338.904 248.092 339.679C246.611 340.454 244.967 340.846 243.161 340.856ZM243.144 337.738C244.233 337.732 245.246 337.479 246.184 336.979C247.146 336.454 247.922 335.708 248.511 334.739C249.099 333.746 249.39 332.569 249.383 331.208C249.375 329.822 249.072 328.648 248.473 327.686C247.874 326.7 247.09 325.949 246.122 325.434C245.179 324.895 244.163 324.628 243.074 324.634C241.985 324.64 240.947 324.905 239.96 325.43C238.998 325.955 238.222 326.714 237.633 327.707C237.045 328.675 236.754 329.865 236.762 331.275C236.769 332.637 237.072 333.81 237.671 334.797C238.27 335.759 239.054 336.497 240.022 337.012C240.99 337.502 242.03 337.744 243.144 337.738ZM257.582 345.716L256.835 344.755C257.202 344.11 257.545 343.452 257.863 342.782C258.182 342.112 258.351 341.443 258.372 340.775L256.477 340.377L256.457 336.553L260.985 336.529L261 339.276C261.009 340.86 260.669 342.148 259.981 343.142C259.319 344.16 258.519 345.018 257.582 345.716ZM274.409 340.689C272.603 340.699 270.942 340.324 269.429 339.565C267.915 338.806 266.709 337.711 265.81 336.28C264.912 334.85 264.457 333.132 264.446 331.128C264.436 329.098 264.872 327.364 265.755 325.924C266.638 324.459 267.833 323.339 269.338 322.564C270.844 321.788 272.5 321.396 274.306 321.386C276.113 321.377 277.76 321.751 279.249 322.511C280.738 323.27 281.932 324.377 282.831 325.833C283.729 327.263 284.184 328.993 284.195 331.022C284.206 333.027 283.769 334.749 282.886 336.189C282.003 337.629 280.821 338.737 279.34 339.512C277.859 340.287 276.216 340.68 274.409 340.689ZM274.393 337.571C275.481 337.565 276.495 337.312 277.432 336.812C278.395 336.288 279.17 335.541 279.759 334.573C280.348 333.58 280.639 332.403 280.631 331.041C280.624 329.656 280.321 328.482 279.722 327.52C279.122 326.533 278.339 325.782 277.371 325.268C276.428 324.728 275.411 324.461 274.323 324.467C273.234 324.473 272.196 324.738 271.209 325.263C270.246 325.788 269.471 326.547 268.882 327.54C268.293 328.509 268.003 329.698 268.01 331.109C268.017 332.47 268.321 333.644 268.92 334.631C269.519 335.592 270.302 336.331 271.27 336.845C272.238 337.335 273.279 337.577 274.393 337.571ZM297.936 340.564C296.13 340.573 294.47 340.199 292.956 339.44C291.442 338.68 290.236 337.586 289.337 336.155C288.439 334.724 287.984 333.007 287.974 331.002C287.963 328.973 288.399 327.238 289.282 325.798C290.165 324.333 291.36 323.213 292.865 322.438C294.371 321.663 296.027 321.27 297.833 321.261C299.64 321.251 301.288 321.626 302.777 322.385C304.265 323.144 305.459 324.252 306.358 325.707C307.257 327.138 307.711 328.868 307.722 330.897C307.733 332.901 307.296 334.624 306.413 336.064C305.53 337.504 304.348 338.612 302.867 339.387C301.386 340.162 299.743 340.554 297.936 340.564ZM297.92 337.446C299.008 337.44 300.022 337.187 300.96 336.687C301.922 336.162 302.698 335.415 303.286 334.447C303.875 333.454 304.166 332.277 304.158 330.916C304.151 329.53 303.848 328.356 303.249 327.394C302.649 326.407 301.866 325.657 300.898 325.142C299.955 324.603 298.939 324.336 297.85 324.342C296.761 324.348 295.723 324.613 294.736 325.138C293.773 325.663 292.998 326.422 292.409 327.415C291.82 328.383 291.53 329.573 291.537 330.983C291.544 332.344 291.848 333.518 292.447 334.505C293.046 335.467 293.83 336.205 294.797 336.72C295.765 337.21 296.806 337.452 297.92 337.446ZM321.463 340.438C319.657 340.448 317.997 340.073 316.483 339.314C314.969 338.555 313.763 337.46 312.865 336.029C311.966 334.599 311.511 332.881 311.501 330.877C311.49 328.847 311.926 327.113 312.809 325.673C313.692 324.208 314.887 323.088 316.392 322.312C317.898 321.537 319.554 321.145 321.36 321.135C323.167 321.126 324.815 321.5 326.304 322.26C327.793 323.019 328.986 324.126 329.885 325.582C330.784 327.012 331.238 328.742 331.249 330.771C331.26 332.776 330.824 334.498 329.94 335.938C329.057 337.378 327.875 338.486 326.394 339.261C324.914 340.036 323.27 340.429 321.463 340.438ZM321.447 337.32C322.536 337.314 323.549 337.061 324.487 336.561C325.449 336.037 326.225 335.29 326.813 334.322C327.402 333.329 327.693 332.151 327.686 330.79C327.678 329.405 327.375 328.231 326.776 327.269C326.177 326.282 325.393 325.531 324.425 325.017C323.482 324.477 322.466 324.21 321.377 324.216C320.288 324.222 319.25 324.487 318.263 325.012C317.3 325.537 316.525 326.296 315.936 327.289C315.347 328.258 315.057 329.447 315.064 330.858C315.072 332.219 315.375 333.393 315.974 334.379C316.573 335.341 317.357 336.08 318.325 336.594C319.292 337.084 320.333 337.326 321.447 337.32Z" fill="#228B22"/>
<path d="M148.678 188.869L148.193 189.045L148.142 179.456L149.824 179.447L149.884 190.701L148.202 190.71L140.297 181.371L140.782 181.195L140.833 190.749L139.168 190.758L139.108 179.505L140.773 179.496L148.678 188.869ZM156.888 186.034C157.42 186.031 157.906 186.115 158.346 186.286C158.786 186.446 159.169 186.686 159.495 187.008C159.82 187.319 160.071 187.705 160.246 188.166C160.434 188.616 160.529 189.13 160.532 189.708C160.536 190.482 160.361 191.148 160.005 191.705C159.661 192.261 159.184 192.692 158.573 192.996C157.973 193.299 157.298 193.453 156.547 193.457C155.98 193.46 155.448 193.382 154.95 193.223C154.452 193.075 154.012 192.852 153.629 192.554C153.245 192.255 152.931 191.893 152.686 191.466C152.453 191.051 152.317 190.572 152.28 190.029L153.91 190.021C153.958 190.436 154.093 190.788 154.314 191.076C154.547 191.375 154.849 191.593 155.219 191.73C155.602 191.878 156.03 191.951 156.504 191.949C156.816 191.947 157.116 191.899 157.405 191.805C157.693 191.711 157.947 191.571 158.165 191.385C158.396 191.199 158.574 190.967 158.699 190.689C158.825 190.41 158.887 190.086 158.885 189.717C158.883 189.347 158.818 189.023 158.689 188.747C158.572 188.47 158.409 188.239 158.2 188.056C157.991 187.86 157.741 187.717 157.452 187.626C157.174 187.523 156.879 187.473 156.567 187.475C156.254 187.476 155.937 187.518 155.614 187.601C155.302 187.672 155.014 187.807 154.749 188.005C154.495 188.202 154.277 188.475 154.094 188.823L152.601 188.536L152.965 182.014L159.52 181.979L159.528 183.471L154.534 183.497L154.247 188.181L154.09 188.06C154.215 187.597 154.421 187.22 154.708 186.93C154.996 186.628 155.33 186.406 155.71 186.265C156.091 186.113 156.484 186.036 156.888 186.034ZM166.8 190.801C165.956 190.806 165.181 190.631 164.474 190.276C163.766 189.922 163.203 189.41 162.783 188.742C162.364 188.074 162.151 187.271 162.146 186.335C162.141 185.387 162.345 184.577 162.758 183.904C163.17 183.22 163.728 182.697 164.431 182.335C165.134 181.973 165.908 181.789 166.752 181.785C167.596 181.78 168.365 181.955 169.061 182.31C169.756 182.665 170.314 183.182 170.734 183.862C171.154 184.53 171.366 185.338 171.371 186.286C171.376 187.222 171.172 188.027 170.76 188.699C170.347 189.372 169.795 189.89 169.103 190.252C168.412 190.614 167.644 190.797 166.8 190.801ZM166.792 189.345C167.301 189.342 167.774 189.224 168.212 188.99C168.662 188.745 169.024 188.397 169.299 187.944C169.574 187.48 169.71 186.931 169.706 186.295C169.703 185.647 169.561 185.099 169.281 184.65C169.002 184.189 168.636 183.838 168.183 183.598C167.743 183.346 167.268 183.221 166.76 183.224C166.251 183.227 165.766 183.351 165.305 183.596C164.855 183.841 164.493 184.196 164.218 184.659C163.943 185.112 163.807 185.667 163.811 186.326C163.814 186.962 163.956 187.51 164.236 187.971C164.516 188.421 164.882 188.765 165.334 189.006C165.786 189.235 166.272 189.348 166.792 189.345ZM177.79 190.743C176.946 190.747 176.17 190.572 175.463 190.218C174.756 189.863 174.193 189.352 173.773 188.683C173.353 188.015 173.141 187.213 173.136 186.276C173.131 185.329 173.335 184.518 173.747 183.846C174.16 183.161 174.718 182.638 175.421 182.276C176.124 181.914 176.898 181.731 177.742 181.726C178.586 181.722 179.355 181.897 180.051 182.251C180.746 182.606 181.304 183.123 181.724 183.803C182.143 184.471 182.356 185.279 182.361 186.227C182.366 187.164 182.162 187.968 181.749 188.641C181.337 189.314 180.785 189.831 180.093 190.193C179.401 190.555 178.634 190.738 177.79 190.743ZM177.782 189.286C178.291 189.284 178.764 189.165 179.202 188.932C179.652 188.687 180.014 188.338 180.289 187.886C180.564 187.422 180.7 186.872 180.696 186.236C180.693 185.589 180.551 185.04 180.271 184.591C179.991 184.13 179.625 183.78 179.173 183.539C178.733 183.287 178.258 183.163 177.749 183.165C177.241 183.168 176.756 183.292 176.295 183.537C175.845 183.782 175.483 184.137 175.208 184.601C174.933 185.053 174.797 185.609 174.801 186.268C174.804 186.903 174.946 187.452 175.226 187.913C175.505 188.362 175.871 188.707 176.324 188.947C176.776 189.176 177.262 189.289 177.782 189.286ZM184.526 193.013L184.177 192.564C184.349 192.263 184.509 191.955 184.658 191.643C184.806 191.33 184.886 191.017 184.895 190.705L184.01 190.519L184.001 188.733L186.116 188.722L186.123 190.005C186.127 190.745 185.968 191.347 185.647 191.811C185.337 192.286 184.964 192.687 184.526 193.013ZM192.386 190.665C191.542 190.669 190.767 190.494 190.06 190.14C189.353 189.785 188.789 189.274 188.37 188.606C187.95 187.937 187.738 187.135 187.733 186.199C187.728 185.251 187.931 184.44 188.344 183.768C188.756 183.083 189.314 182.56 190.018 182.198C190.721 181.836 191.494 181.653 192.338 181.648C193.182 181.644 193.952 181.819 194.647 182.173C195.343 182.528 195.9 183.045 196.32 183.725C196.74 184.393 196.952 185.201 196.957 186.149C196.962 187.086 196.759 187.89 196.346 188.563C195.933 189.236 195.381 189.753 194.69 190.115C193.998 190.477 193.23 190.66 192.386 190.665ZM192.379 189.208C192.887 189.206 193.361 189.088 193.799 188.854C194.248 188.609 194.61 188.26 194.885 187.808C195.16 187.344 195.296 186.794 195.293 186.158C195.289 185.511 195.148 184.963 194.868 184.513C194.588 184.052 194.222 183.702 193.77 183.461C193.329 183.209 192.855 183.085 192.346 183.087C191.837 183.09 191.352 183.214 190.891 183.459C190.442 183.704 190.08 184.059 189.805 184.523C189.53 184.975 189.394 185.531 189.397 186.19C189.401 186.826 189.542 187.374 189.822 187.835C190.102 188.284 190.468 188.629 190.92 188.869C191.372 189.098 191.858 189.211 192.379 189.208ZM203.376 190.606C202.532 190.611 201.757 190.436 201.05 190.081C200.343 189.727 199.779 189.215 199.36 188.547C198.94 187.879 198.727 187.076 198.722 186.14C198.717 185.192 198.921 184.382 199.334 183.709C199.746 183.025 200.304 182.502 201.007 182.14C201.711 181.777 202.484 181.594 203.328 181.59C204.172 181.585 204.942 181.76 205.637 182.115C206.333 182.469 206.89 182.987 207.31 183.667C207.73 184.335 207.942 185.143 207.947 186.091C207.952 187.027 207.748 187.832 207.336 188.504C206.923 189.177 206.371 189.694 205.679 190.056C204.988 190.419 204.22 190.602 203.376 190.606ZM203.368 189.15C203.877 189.147 204.35 189.029 204.788 188.795C205.238 188.55 205.6 188.201 205.875 187.749C206.15 187.285 206.286 186.735 206.283 186.1C206.279 185.452 206.137 184.904 205.858 184.455C205.578 183.994 205.212 183.643 204.76 183.403C204.319 183.151 203.844 183.026 203.336 183.029C202.827 183.032 202.342 183.155 201.881 183.401C201.432 183.646 201.069 184 200.794 184.464C200.519 184.917 200.384 185.472 200.387 186.131C200.39 186.767 200.532 187.315 200.812 187.776C201.092 188.226 201.458 188.57 201.91 188.811C202.362 189.04 202.848 189.153 203.368 189.15ZM214.366 190.548C213.522 190.552 212.747 190.377 212.04 190.023C211.332 189.668 210.769 189.156 210.349 188.488C209.93 187.82 209.717 187.018 209.712 186.081C209.707 185.133 209.911 184.323 210.323 183.65C210.736 182.966 211.294 182.443 211.997 182.081C212.7 181.719 213.474 181.535 214.318 181.531C215.162 181.526 215.931 181.702 216.627 182.056C217.322 182.411 217.88 182.928 218.3 183.608C218.72 184.276 218.932 185.084 218.937 186.032C218.942 186.968 218.738 187.773 218.326 188.446C217.913 189.118 217.361 189.636 216.669 189.998C215.978 190.36 215.21 190.543 214.366 190.548ZM214.358 189.091C214.867 189.088 215.34 188.97 215.778 188.737C216.228 188.492 216.59 188.143 216.865 187.691C217.14 187.227 217.276 186.677 217.272 186.041C217.269 185.394 217.127 184.845 216.847 184.396C216.568 183.935 216.202 183.584 215.749 183.344C215.309 183.092 214.834 182.967 214.325 182.97C213.817 182.973 213.332 183.097 212.871 183.342C212.421 183.587 212.059 183.942 211.784 184.406C211.509 184.858 211.373 185.414 211.377 186.072C211.38 186.708 211.522 187.257 211.802 187.718C212.082 188.167 212.448 188.512 212.9 188.752C213.352 188.981 213.838 189.094 214.358 189.091Z" fill="#228B22"/>
<path d="M324.063 242.697L323.763 242.813L323.737 238.007L324.737 238.001L324.768 243.738L323.768 243.743L319.441 239.101L319.75 238.984L319.775 243.764L318.766 243.77L318.736 238.034L319.745 238.028L324.063 242.697ZM325.661 240.192L325.656 239.324L327.816 239.313L327.84 243.721L326.848 243.727L326.829 240.186L325.661 240.192ZM329.318 245.006L329.14 244.75C329.233 244.608 329.318 244.454 329.394 244.288C329.476 244.129 329.519 243.969 329.524 243.81L329.054 243.715L329.049 242.759L330.262 242.752L330.266 243.434C330.268 243.835 330.178 244.157 329.996 244.4C329.821 244.649 329.595 244.851 329.318 245.006ZM333.665 243.788C333.175 243.79 332.735 243.704 332.344 243.529C331.954 243.354 331.646 243.096 331.419 242.755C331.193 242.414 331.079 241.998 331.076 241.509C331.074 241.025 331.184 240.611 331.406 240.268C331.629 239.918 331.934 239.651 332.323 239.466C332.711 239.281 333.15 239.187 333.64 239.184C334.13 239.182 334.567 239.271 334.952 239.452C335.336 239.633 335.639 239.897 335.859 240.244C336.085 240.585 336.199 240.997 336.202 241.481C336.204 241.971 336.094 242.388 335.872 242.731C335.655 243.075 335.356 243.336 334.973 243.515C334.591 243.694 334.154 243.785 333.665 243.788ZM333.66 242.982C333.938 242.981 334.194 242.923 334.43 242.81C334.665 242.69 334.853 242.521 334.993 242.302C335.134 242.077 335.203 241.805 335.201 241.487C335.2 241.174 335.128 240.906 334.985 240.682C334.842 240.453 334.652 240.28 334.415 240.163C334.185 240.046 333.928 239.988 333.644 239.99C333.361 239.992 333.099 240.052 332.857 240.171C332.622 240.291 332.431 240.463 332.285 240.688C332.144 240.913 332.075 241.185 332.077 241.503C332.078 241.822 332.151 242.093 332.293 242.317C332.442 242.534 332.635 242.701 332.872 242.818C333.114 242.929 333.377 242.984 333.66 242.982ZM339.707 243.755C339.217 243.758 338.777 243.672 338.387 243.497C337.996 243.322 337.688 243.064 337.462 242.723C337.236 242.382 337.122 241.966 337.119 241.476C337.116 240.992 337.226 240.579 337.449 240.235C337.671 239.886 337.977 239.619 338.365 239.434C338.754 239.249 339.193 239.155 339.683 239.152C340.172 239.15 340.61 239.239 340.994 239.42C341.379 239.601 341.681 239.865 341.901 240.212C342.127 240.553 342.242 240.965 342.244 241.449C342.247 241.939 342.137 242.355 341.915 242.699C341.698 243.042 341.398 243.304 341.016 243.483C340.633 243.662 340.197 243.753 339.707 243.755ZM339.703 242.95C339.98 242.948 340.237 242.891 340.472 242.777C340.707 242.658 340.895 242.489 341.036 242.27C341.176 242.045 341.246 241.773 341.244 241.454C341.242 241.142 341.17 240.873 341.027 240.65C340.884 240.421 340.695 240.247 340.458 240.131C340.227 240.014 339.97 239.956 339.687 239.958C339.404 239.959 339.141 240.02 338.9 240.139C338.665 240.258 338.474 240.43 338.327 240.656C338.187 240.881 338.118 241.152 338.119 241.471C338.121 241.79 338.193 242.061 338.336 242.284C338.485 242.502 338.677 242.669 338.914 242.786C339.157 242.897 339.42 242.951 339.703 242.95ZM345.75 243.723C345.26 243.726 344.82 243.639 344.429 243.465C344.039 243.29 343.731 243.032 343.505 242.69C343.278 242.349 343.164 241.934 343.162 241.444C343.159 240.96 343.269 240.547 343.491 240.203C343.714 239.854 344.019 239.586 344.408 239.401C344.796 239.216 345.235 239.123 345.725 239.12C346.215 239.117 346.652 239.207 347.037 239.387C347.421 239.568 347.724 239.832 347.944 240.179C348.17 240.52 348.284 240.933 348.287 241.417C348.289 241.907 348.18 242.323 347.957 242.667C347.741 243.01 347.441 243.271 347.058 243.451C346.676 243.63 346.24 243.72 345.75 243.723ZM345.745 242.918C346.023 242.916 346.279 242.859 346.515 242.745C346.75 242.626 346.938 242.457 347.078 242.238C347.219 242.013 347.288 241.741 347.287 241.422C347.285 241.109 347.213 240.841 347.07 240.618C346.927 240.388 346.737 240.215 346.501 240.098C346.27 239.982 346.013 239.924 345.729 239.926C345.446 239.927 345.184 239.987 344.943 240.107C344.707 240.226 344.516 240.398 344.37 240.623C344.229 240.848 344.16 241.12 344.162 241.439C344.163 241.757 344.236 242.029 344.379 242.252C344.527 242.47 344.72 242.637 344.957 242.754C345.199 242.864 345.462 242.919 345.745 242.918ZM349.382 244.899L349.204 244.643C349.297 244.501 349.382 244.347 349.458 244.181C349.54 244.022 349.583 243.862 349.588 243.703L349.118 243.608L349.113 242.652L350.326 242.645L350.33 243.327C350.332 243.728 350.242 244.05 350.06 244.293C349.885 244.542 349.659 244.744 349.382 244.899ZM353.729 243.68C353.239 243.683 352.799 243.597 352.408 243.422C352.018 243.247 351.71 242.989 351.483 242.648C351.257 242.307 351.143 241.891 351.14 241.402C351.138 240.918 351.248 240.504 351.47 240.16C351.693 239.811 351.998 239.544 352.387 239.359C352.775 239.174 353.214 239.08 353.704 239.077C354.194 239.075 354.631 239.164 355.016 239.345C355.4 239.526 355.703 239.79 355.923 240.137C356.149 240.478 356.263 240.89 356.266 241.374C356.268 241.864 356.159 242.281 355.936 242.624C355.72 242.968 355.42 243.229 355.037 243.408C354.655 243.587 354.218 243.678 353.729 243.68ZM353.724 242.875C354.002 242.873 354.258 242.816 354.494 242.703C354.729 242.583 354.917 242.414 355.057 242.195C355.198 241.97 355.267 241.698 355.266 241.38C355.264 241.067 355.192 240.799 355.049 240.575C354.906 240.346 354.716 240.173 354.479 240.056C354.249 239.939 353.992 239.881 353.708 239.883C353.425 239.884 353.163 239.945 352.921 240.064C352.686 240.183 352.495 240.356 352.349 240.581C352.208 240.806 352.139 241.078 352.141 241.396C352.142 241.715 352.215 241.986 352.358 242.209C352.506 242.427 352.699 242.594 352.936 242.711C353.178 242.822 353.441 242.876 353.724 242.875ZM359.771 243.648C359.281 243.651 358.841 243.565 358.451 243.39C358.06 243.215 357.752 242.957 357.526 242.616C357.3 242.275 357.186 241.859 357.183 241.369C357.18 240.885 357.29 240.472 357.513 240.128C357.735 239.779 358.041 239.512 358.429 239.327C358.818 239.142 359.257 239.048 359.747 239.045C360.236 239.043 360.674 239.132 361.058 239.313C361.443 239.494 361.745 239.757 361.965 240.104C362.191 240.446 362.306 240.858 362.308 241.342C362.311 241.832 362.201 242.248 361.979 242.592C361.762 242.935 361.463 243.197 361.08 243.376C360.697 243.555 360.261 243.646 359.771 243.648ZM359.767 242.843C360.044 242.841 360.301 242.784 360.536 242.67C360.772 242.551 360.959 242.382 361.1 242.163C361.24 241.938 361.31 241.666 361.308 241.347C361.306 241.035 361.234 240.766 361.091 240.543C360.948 240.314 360.759 240.14 360.522 240.024C360.291 239.907 360.034 239.849 359.751 239.851C359.468 239.852 359.205 239.913 358.964 240.032C358.729 240.151 358.538 240.323 358.391 240.548C358.251 240.773 358.182 241.045 358.183 241.364C358.185 241.683 358.257 241.954 358.4 242.177C358.549 242.395 358.741 242.562 358.978 242.679C359.221 242.79 359.484 242.844 359.767 242.843ZM365.814 243.616C365.324 243.619 364.884 243.532 364.493 243.357C364.103 243.183 363.795 242.925 363.569 242.583C363.343 242.242 363.228 241.827 363.226 241.337C363.223 240.853 363.333 240.439 363.555 240.096C363.778 239.747 364.083 239.479 364.472 239.294C364.86 239.109 365.299 239.016 365.789 239.013C366.279 239.01 366.716 239.099 367.101 239.28C367.485 239.461 367.788 239.725 368.008 240.072C368.234 240.413 368.348 240.826 368.351 241.31C368.354 241.8 368.244 242.216 368.021 242.56C367.805 242.903 367.505 243.164 367.122 243.343C366.74 243.523 366.304 243.613 365.814 243.616ZM365.809 242.81C366.087 242.809 366.343 242.752 366.579 242.638C366.814 242.519 367.002 242.35 367.143 242.131C367.283 241.906 367.352 241.634 367.351 241.315C367.349 241.002 367.277 240.734 367.134 240.511C366.991 240.281 366.801 240.108 366.565 239.991C366.334 239.875 366.077 239.817 365.793 239.818C365.51 239.82 365.248 239.88 365.007 240C364.771 240.119 364.58 240.291 364.434 240.516C364.294 240.741 364.224 241.013 364.226 241.332C364.228 241.65 364.3 241.922 364.443 242.145C364.591 242.363 364.784 242.53 365.021 242.646C365.263 242.757 365.526 242.812 365.809 242.81Z" fill="#228B22"/>
<path d="M144.072 243.654L143.772 243.771L143.746 238.964L144.746 238.959L144.777 244.695L143.777 244.7L139.45 240.058L139.759 239.941L139.784 244.721L138.775 244.727L138.745 238.991L139.754 238.985L144.072 243.654ZM148.668 242.346C148.945 242.344 149.202 242.384 149.439 242.466C149.675 242.541 149.882 242.658 150.06 242.816C150.238 242.975 150.375 243.169 150.471 243.398C150.572 243.628 150.624 243.893 150.625 244.194C150.628 244.596 150.532 244.938 150.339 245.223C150.151 245.507 149.887 245.724 149.546 245.873C149.21 246.028 148.824 246.107 148.387 246.109C148.068 246.111 147.767 246.071 147.484 245.99C147.2 245.909 146.948 245.793 146.729 245.64C146.516 245.494 146.341 245.309 146.204 245.085C146.073 244.868 146.001 244.62 145.988 244.343L146.935 244.338C146.959 244.538 147.037 244.706 147.168 244.841C147.298 244.982 147.464 245.088 147.665 245.157C147.872 245.227 148.099 245.261 148.347 245.26C148.518 245.259 148.68 245.234 148.834 245.186C148.987 245.144 149.125 245.079 149.249 244.989C149.372 244.906 149.469 244.797 149.539 244.66C149.609 244.524 149.644 244.368 149.643 244.191C149.642 244.014 149.606 243.857 149.534 243.722C149.468 243.587 149.376 243.475 149.258 243.387C149.145 243.299 149.012 243.232 148.858 243.186C148.705 243.139 148.542 243.117 148.371 243.117C148.2 243.118 148.029 243.14 147.858 243.182C147.687 243.218 147.528 243.281 147.381 243.371C147.234 243.46 147.114 243.587 147.02 243.753L146.152 243.59L146.364 240.26L150.055 240.24L150.06 241.108L147.289 241.123L147.142 243.39L147.036 243.328C147.111 243.109 147.231 242.929 147.396 242.786C147.56 242.644 147.751 242.537 147.969 242.465C148.193 242.387 148.426 242.347 148.668 242.346ZM154.036 244.743C153.547 244.745 153.107 244.659 152.716 244.484C152.326 244.309 152.017 244.051 151.791 243.71C151.565 243.369 151.451 242.954 151.448 242.464C151.446 241.98 151.556 241.566 151.778 241.223C152 240.873 152.306 240.606 152.694 240.421C153.083 240.236 153.522 240.142 154.012 240.14C154.502 240.137 154.939 240.226 155.323 240.407C155.708 240.588 156.01 240.852 156.231 241.199C156.457 241.54 156.571 241.952 156.574 242.436C156.576 242.926 156.466 243.343 156.244 243.686C156.027 244.03 155.728 244.291 155.345 244.47C154.962 244.649 154.526 244.74 154.036 244.743ZM154.032 243.937C154.31 243.936 154.566 243.878 154.801 243.765C155.037 243.646 155.225 243.476 155.365 243.257C155.506 243.032 155.575 242.76 155.573 242.442C155.572 242.129 155.499 241.861 155.357 241.637C155.214 241.408 155.024 241.235 154.787 241.118C154.556 241.001 154.299 240.944 154.016 240.945C153.733 240.947 153.471 241.007 153.229 241.126C152.994 241.246 152.803 241.418 152.657 241.643C152.516 241.868 152.447 242.14 152.449 242.458C152.45 242.777 152.523 243.048 152.665 243.272C152.814 243.489 153.007 243.656 153.243 243.773C153.486 243.884 153.749 243.939 154.032 243.937ZM157.669 245.918L157.49 245.663C157.584 245.52 157.669 245.367 157.745 245.201C157.826 245.041 157.87 244.882 157.875 244.722L157.405 244.627L157.4 243.671L158.613 243.665L158.616 244.346C158.619 244.748 158.529 245.07 158.347 245.313C158.171 245.562 157.945 245.763 157.669 245.918ZM162.015 244.7C161.526 244.703 161.085 244.616 160.695 244.442C160.305 244.267 159.996 244.009 159.77 243.667C159.544 243.326 159.43 242.911 159.427 242.421C159.425 241.937 159.535 241.524 159.757 241.18C159.979 240.831 160.285 240.563 160.673 240.378C161.062 240.193 161.501 240.1 161.991 240.097C162.481 240.094 162.918 240.184 163.302 240.364C163.687 240.545 163.989 240.809 164.21 241.156C164.436 241.497 164.55 241.91 164.553 242.394C164.555 242.884 164.445 243.3 164.223 243.644C164.006 243.987 163.707 244.248 163.324 244.428C162.941 244.607 162.505 244.697 162.015 244.7ZM162.011 243.895C162.288 243.893 162.545 243.836 162.78 243.722C163.016 243.603 163.204 243.434 163.344 243.215C163.485 242.99 163.554 242.718 163.552 242.399C163.551 242.086 163.478 241.818 163.336 241.595C163.193 241.365 163.003 241.192 162.766 241.075C162.535 240.959 162.278 240.901 161.995 240.903C161.712 240.904 161.45 240.964 161.208 241.084C160.973 241.203 160.782 241.375 160.636 241.6C160.495 241.825 160.426 242.097 160.427 242.416C160.429 242.734 160.501 243.006 160.644 243.229C160.793 243.447 160.986 243.614 161.222 243.731C161.465 243.841 161.728 243.896 162.011 243.895ZM168.058 244.668C167.568 244.67 167.128 244.584 166.738 244.409C166.347 244.234 166.039 243.976 165.813 243.635C165.587 243.294 165.472 242.879 165.47 242.389C165.467 241.905 165.577 241.491 165.8 241.148C166.022 240.798 166.327 240.531 166.716 240.346C167.104 240.161 167.544 240.067 168.033 240.065C168.523 240.062 168.96 240.151 169.345 240.332C169.73 240.513 170.032 240.777 170.252 241.124C170.478 241.465 170.593 241.878 170.595 242.362C170.598 242.851 170.488 243.268 170.265 243.611C170.049 243.955 169.749 244.216 169.367 244.395C168.984 244.574 168.548 244.665 168.058 244.668ZM168.054 243.862C168.331 243.861 168.587 243.803 168.823 243.69C169.058 243.571 169.246 243.402 169.387 243.182C169.527 242.957 169.597 242.686 169.595 242.367C169.593 242.054 169.521 241.786 169.378 241.562C169.235 241.333 169.045 241.16 168.809 241.043C168.578 240.926 168.321 240.869 168.038 240.87C167.754 240.872 167.492 240.932 167.251 241.052C167.015 241.171 166.824 241.343 166.678 241.568C166.538 241.793 166.468 242.065 166.47 242.384C166.472 242.702 166.544 242.973 166.687 243.197C166.836 243.414 167.028 243.582 167.265 243.698C167.507 243.809 167.77 243.864 168.054 243.862ZM174.1 244.636C173.611 244.638 173.171 244.552 172.78 244.377C172.39 244.202 172.081 243.944 171.855 243.603C171.629 243.262 171.515 242.846 171.512 242.357C171.51 241.873 171.62 241.459 171.842 241.116C172.064 240.766 172.37 240.499 172.758 240.314C173.147 240.129 173.586 240.035 174.076 240.033C174.566 240.03 175.003 240.119 175.388 240.3C175.772 240.481 176.074 240.745 176.295 241.092C176.521 241.433 176.635 241.845 176.638 242.329C176.64 242.819 176.53 243.236 176.308 243.579C176.091 243.923 175.792 244.184 175.409 244.363C175.027 244.542 174.59 244.633 174.1 244.636ZM174.096 243.83C174.374 243.829 174.63 243.771 174.865 243.658C175.101 243.538 175.289 243.369 175.429 243.15C175.57 242.925 175.639 242.653 175.637 242.335C175.636 242.022 175.563 241.754 175.421 241.53C175.278 241.301 175.088 241.128 174.851 241.011C174.621 240.894 174.364 240.837 174.08 240.838C173.797 240.84 173.535 240.9 173.293 241.019C173.058 241.139 172.867 241.311 172.721 241.536C172.58 241.761 172.511 242.033 172.513 242.351C172.514 242.67 172.587 242.941 172.729 243.165C172.878 243.382 173.071 243.549 173.307 243.666C173.55 243.777 173.813 243.832 174.096 243.83Z" fill="#228B22"/>
<path d="M366.439 223.817L134.776 224.406L134.782 226.64L366.445 226.051L366.439 223.817Z" fill="#E6E6E6"/>
<path d="M255.45 224.099L134.776 224.406L134.782 226.64L255.455 226.333L255.45 224.099Z" fill="#228B22"/>
<path d="M250.521 229.506C253.195 229.499 255.357 227.327 255.35 224.654C255.344 221.982 253.17 219.821 250.497 219.828C247.823 219.834 245.661 222.006 245.668 224.679C245.674 227.352 247.847 229.513 250.521 229.506Z" fill="#228B22"/>
<path d="M123.96 101.662C123.866 101.662 123.772 101.627 123.697 101.553L120.451 98.3253C119.923 97.8005 119.921 96.9369 120.446 96.4094L123.676 93.1652C123.819 93.0208 124.057 93.0202 124.202 93.1638C124.346 93.3074 124.347 93.5456 124.203 93.6899L120.974 96.9342C120.736 97.1731 120.737 97.5602 120.976 97.7979L124.222 101.026C124.366 101.169 124.367 101.408 124.223 101.552C124.149 101.622 124.055 101.661 123.96 101.662Z" fill="white"/>
<path d="M207.25 93.247L207.294 101.553L212.93 101.523L212.937 102.792L205.885 102.83L205.834 93.2546L207.25 93.247ZM217.864 102.928C217.146 102.932 216.486 102.783 215.885 102.481C215.283 102.179 214.804 101.744 214.447 101.176C214.089 100.607 213.909 99.9245 213.905 99.1278C213.9 98.3213 214.074 97.6318 214.425 97.0595C214.776 96.4773 215.25 96.0321 215.849 95.724C216.447 95.4159 217.105 95.26 217.823 95.2561C218.541 95.2523 219.196 95.4013 219.788 95.703C220.38 96.0048 220.854 96.4449 221.211 97.0233C221.568 97.5918 221.749 98.2794 221.753 99.0859C221.758 99.8826 221.584 100.567 221.233 101.139C220.882 101.712 220.412 102.152 219.824 102.46C219.235 102.768 218.582 102.924 217.864 102.928ZM217.858 101.703C218.3 101.701 218.708 101.6 219.081 101.402C219.463 101.193 219.766 100.896 219.991 100.512C220.224 100.117 220.34 99.6443 220.337 99.0935C220.334 98.5328 220.213 98.0564 219.975 97.6643C219.747 97.2721 219.441 96.9737 219.056 96.7692C218.681 96.5646 218.272 96.4635 217.83 96.4659C217.387 96.4683 216.974 96.5737 216.592 96.7823C216.209 96.9811 215.901 97.2778 215.667 97.6725C215.433 98.0672 215.318 98.5498 215.321 99.1202C215.324 99.671 215.439 100.143 215.668 100.535C215.906 100.917 216.217 101.21 216.602 101.415C216.987 101.61 217.405 101.706 217.858 101.703ZM226.295 102.868C225.665 102.872 225.089 102.712 224.566 102.391C224.043 102.069 223.628 101.623 223.32 101.055C223.012 100.476 222.856 99.8128 222.852 99.0653C222.848 98.3178 222.997 97.658 223.298 97.0859C223.61 96.5039 224.036 96.0492 224.575 95.7217C225.114 95.3844 225.718 95.214 226.387 95.2104C227.124 95.2065 227.696 95.3756 228.101 95.7177C228.516 96.0597 228.804 96.5205 228.964 97.0999C229.134 97.6793 229.221 98.3231 229.225 99.0313C229.227 99.4247 229.18 99.843 229.084 100.286C228.988 100.729 228.833 101.148 228.619 101.543C228.405 101.937 228.106 102.259 227.724 102.506C227.342 102.745 226.865 102.865 226.295 102.868ZM226.687 101.642C227.208 101.639 227.645 101.523 227.998 101.295C228.361 101.057 228.629 100.741 228.804 100.347C228.979 99.9523 229.065 99.5141 229.063 99.0322C229.06 98.5109 228.964 98.054 228.775 97.6616C228.596 97.2691 228.324 96.9656 227.959 96.7512C227.604 96.5367 227.17 96.4308 226.659 96.4336C225.892 96.4377 225.298 96.6867 224.878 97.1808C224.467 97.6747 224.264 98.3004 224.268 99.0577C224.271 99.5692 224.376 100.021 224.585 100.413C224.794 100.796 225.076 101.099 225.431 101.324C225.796 101.538 226.214 101.644 226.687 101.642ZM229.043 95.3438L230.459 95.3363L230.499 102.698L229.2 102.705C229.2 102.705 229.19 102.617 229.17 102.44C229.149 102.253 229.128 102.032 229.107 101.776C229.086 101.521 229.075 101.294 229.074 101.098L229.043 95.3438ZM232.307 95.3264L233.723 95.3188L233.762 102.681L232.346 102.688L232.307 95.3264ZM236.525 95.1564C236.939 95.1541 237.313 95.2112 237.648 95.3274C237.983 95.4437 238.269 95.6192 238.506 95.854C238.743 96.0789 238.927 96.3632 239.057 96.7068C239.196 97.0404 239.267 97.4237 239.269 97.8564L239.295 102.651L237.893 102.659L237.869 98.1737C237.866 97.5934 237.721 97.1614 237.435 96.8777C237.158 96.5841 236.734 96.4388 236.163 96.4419C235.721 96.4442 235.318 96.5497 234.955 96.7581C234.592 96.9666 234.294 97.2436 234.06 97.5891C233.835 97.9248 233.7 98.3042 233.653 98.7274L233.634 97.916C233.681 97.5223 233.782 97.1578 233.938 96.8226C234.103 96.4873 234.308 96.196 234.553 95.9488C234.807 95.6917 235.101 95.4984 235.435 95.3687C235.768 95.2292 236.132 95.1585 236.525 95.1564ZM244.871 93.0463L246.287 93.0387L246.338 102.614L244.922 102.621L244.871 93.0463ZM248.688 95.239L250.105 95.2314L250.144 102.593L248.727 102.601L248.688 95.239ZM252.907 95.069C253.32 95.0668 253.694 95.1238 254.029 95.24C254.364 95.3563 254.65 95.5318 254.888 95.7666C255.125 95.9915 255.308 96.2758 255.438 96.6194C255.578 96.953 255.648 97.3363 255.651 97.769L255.676 102.564L254.275 102.571L254.251 98.0863C254.248 97.506 254.103 97.074 253.816 96.7903C253.539 96.4967 253.115 96.3514 252.545 96.3545C252.102 96.3568 251.7 96.4623 251.337 96.6707C250.974 96.8792 250.675 97.1562 250.441 97.5017C250.217 97.8374 250.081 98.2168 250.034 98.64L250.015 97.8286C250.062 97.4349 250.164 97.0704 250.319 96.7352C250.485 96.3999 250.69 96.1086 250.934 95.8614C251.188 95.6043 251.483 95.411 251.816 95.2813C252.15 95.1418 252.513 95.0711 252.907 95.069ZM256.975 95.1948L261.74 95.1694L261.747 96.3939L256.981 96.4193L256.975 95.1948ZM258.646 93.2384L260.048 93.2309L260.098 102.54L258.696 102.548L258.646 93.2384ZM268.658 100.105L270.001 100.097C269.925 100.58 269.74 101.013 269.447 101.399C269.154 101.784 268.767 102.091 268.287 102.32C267.806 102.548 267.241 102.664 266.592 102.668C265.825 102.672 265.14 102.513 264.538 102.192C263.937 101.871 263.462 101.426 263.115 100.857C262.768 100.288 262.592 99.6254 262.588 98.8681C262.584 98.1009 262.747 97.4312 263.079 96.8589C263.41 96.2768 263.87 95.8219 264.458 95.4942C265.047 95.1665 265.72 95.0006 266.477 94.9966C267.274 94.9923 267.943 95.1461 268.486 95.458C269.029 95.7698 269.429 96.2349 269.689 96.8532C269.957 97.4616 270.07 98.2232 270.025 99.1382L263.991 99.1704C264.043 99.6127 264.178 100.005 264.396 100.349C264.624 100.692 264.92 100.96 265.285 101.155C265.66 101.35 266.089 101.446 266.57 101.443C267.111 101.441 267.563 101.315 267.926 101.067C268.288 100.82 268.533 100.499 268.658 100.105ZM266.498 96.2063C265.859 96.2097 265.329 96.3846 264.908 96.7311C264.486 97.0678 264.209 97.5168 264.074 98.0782L268.603 98.054C268.561 97.4543 268.342 96.9981 267.947 96.6854C267.552 96.3629 267.069 96.2032 266.498 96.2063ZM271.495 95.1173L272.912 95.1098L272.951 102.472L271.535 102.479L271.495 95.1173ZM275.412 96.3505C274.9 96.3532 274.463 96.4736 274.101 96.7116C273.748 96.9495 273.464 97.2412 273.25 97.5866C273.045 97.932 272.909 98.2622 272.842 98.5773L272.823 97.7364C272.832 97.638 272.856 97.4854 272.894 97.2787C272.942 97.062 273.024 96.8206 273.141 96.5544C273.257 96.2882 273.413 96.0366 273.609 95.7995C273.804 95.5525 274.049 95.3496 274.343 95.1907C274.638 95.0317 274.991 94.9511 275.404 94.9489L275.412 96.3505ZM282.389 100.031L283.731 100.024C283.655 100.506 283.471 100.94 283.178 101.325C282.885 101.711 282.498 102.018 282.017 102.246C281.536 102.475 280.971 102.591 280.322 102.595C279.555 102.599 278.871 102.44 278.269 102.119C277.667 101.797 277.193 101.352 276.845 100.784C276.498 100.215 276.322 99.5521 276.318 98.7948C276.314 98.0276 276.478 97.3579 276.809 96.7857C277.141 96.2036 277.6 95.7487 278.189 95.421C278.777 95.0932 279.45 94.9274 280.208 94.9233C281.004 94.9191 281.674 95.0729 282.216 95.3847C282.759 95.6966 283.16 96.1616 283.419 96.7799C283.688 97.3883 283.8 98.15 283.756 99.065L277.722 99.0972C277.773 99.5395 277.908 99.9322 278.126 100.275C278.354 100.618 278.651 100.887 279.016 101.082C279.391 101.277 279.819 101.373 280.301 101.37C280.842 101.367 281.294 101.242 281.656 100.994C282.019 100.746 282.263 100.425 282.389 100.031ZM280.229 96.133C279.589 96.1364 279.059 96.3114 278.638 96.6579C278.217 96.9945 277.939 97.4436 277.804 98.0049L282.334 97.9808C282.291 97.381 282.072 96.9248 281.677 96.6122C281.282 96.2897 280.799 96.13 280.229 96.133ZM284.928 100.018L286.226 100.011C286.277 100.404 286.456 100.728 286.763 100.982C287.069 101.226 287.497 101.347 288.048 101.344C288.402 101.342 288.677 101.301 288.874 101.221C289.07 101.132 289.207 101.013 289.285 100.865C289.373 100.717 289.416 100.554 289.415 100.377C289.414 100.151 289.354 99.9793 289.235 99.8619C289.116 99.7347 288.949 99.6323 288.732 99.5548C288.515 99.4674 288.259 99.3852 287.963 99.3081C287.638 99.2213 287.313 99.1198 286.988 99.0035C286.663 98.8872 286.362 98.7461 286.086 98.5804C285.819 98.4146 285.602 98.2092 285.433 97.9642C285.275 97.7093 285.194 97.3999 285.192 97.036C285.191 96.7311 285.253 96.4455 285.38 96.1793C285.516 95.913 285.706 95.6858 285.951 95.4976C286.206 95.2995 286.5 95.1504 286.834 95.0502C287.168 94.9403 287.537 94.8842 287.94 94.8821C288.5 94.8791 288.973 94.9798 289.358 95.1843C289.742 95.379 290.034 95.6578 290.233 96.0206C290.441 96.3834 290.552 96.8009 290.564 97.2729L289.325 97.2795C289.254 96.8668 289.109 96.5676 288.892 96.3819C288.675 96.1863 288.35 96.0897 287.917 96.092C287.494 96.0943 287.17 96.1796 286.944 96.348C286.719 96.5164 286.607 96.7432 286.609 97.0285C286.61 97.2448 286.689 97.4215 286.848 97.5583C287.006 97.6854 287.218 97.7973 287.484 97.8943C287.75 97.9912 288.05 98.0929 288.385 98.1993C288.701 98.3058 289.001 98.4173 289.287 98.5338C289.583 98.6404 289.844 98.7718 290.071 98.928C290.308 99.0743 290.491 99.27 290.62 99.5152C290.759 99.7505 290.83 100.045 290.831 100.399C290.834 100.832 290.728 101.211 290.513 101.537C290.298 101.853 289.985 102.101 289.573 102.28C289.17 102.459 288.679 102.55 288.099 102.553C287.568 102.556 287.115 102.495 286.74 102.369C286.376 102.243 286.065 102.077 285.808 101.872C285.561 101.667 285.368 101.451 285.229 101.226C285.1 100.991 285.011 100.765 284.96 100.549C284.92 100.332 284.909 100.156 284.928 100.018ZM291.769 95.0092L296.535 94.9837L296.541 96.2083L291.776 96.2337L291.769 95.0092ZM293.441 93.0527L294.842 93.0453L294.892 102.355L293.49 102.362L293.441 93.0527Z" fill="white"/>
<path d="M139.685 157.438L139.72 164.083L144.229 164.059L144.234 165.074L138.593 165.104L138.552 157.444L139.685 157.438ZM148.176 165.183C147.602 165.186 147.074 165.067 146.593 164.826C146.111 164.584 145.728 164.236 145.442 163.781C145.156 163.326 145.012 162.78 145.009 162.143C145.005 161.498 145.144 160.946 145.425 160.488C145.705 160.022 146.085 159.666 146.564 159.42C147.042 159.173 147.569 159.049 148.143 159.046C148.718 159.042 149.242 159.162 149.715 159.403C150.189 159.644 150.568 159.997 150.854 160.459C151.14 160.914 151.284 161.464 151.288 162.109C151.291 162.747 151.152 163.294 150.871 163.752C150.591 164.21 150.215 164.562 149.744 164.809C149.273 165.055 148.751 165.18 148.176 165.183ZM148.171 164.203C148.525 164.201 148.851 164.121 149.149 163.962C149.455 163.795 149.698 163.558 149.877 163.25C150.064 162.934 150.157 162.556 150.155 162.115C150.152 161.667 150.056 161.286 149.865 160.972C149.682 160.658 149.437 160.42 149.13 160.256C148.83 160.092 148.503 160.011 148.149 160.013C147.794 160.015 147.464 160.1 147.158 160.267C146.852 160.426 146.606 160.663 146.419 160.979C146.232 161.294 146.139 161.68 146.142 162.137C146.144 162.577 146.236 162.955 146.419 163.268C146.61 163.574 146.859 163.809 147.166 163.973C147.474 164.128 147.809 164.205 148.171 164.203ZM154.921 165.135C154.417 165.138 153.956 165.01 153.538 164.753C153.119 164.496 152.787 164.139 152.541 163.684C152.294 163.221 152.169 162.691 152.166 162.093C152.163 161.495 152.282 160.967 152.524 160.509C152.773 160.044 153.113 159.68 153.545 159.418C153.976 159.148 154.459 159.012 154.994 159.009C155.584 159.006 156.041 159.141 156.366 159.415C156.698 159.688 156.928 160.057 157.056 160.521C157.192 160.984 157.262 161.499 157.265 162.066C157.267 162.38 157.229 162.715 157.152 163.07C157.075 163.424 156.951 163.759 156.78 164.075C156.609 164.39 156.37 164.647 156.064 164.846C155.758 165.036 155.377 165.133 154.921 165.135ZM155.234 164.154C155.651 164.152 156.001 164.059 156.283 163.877C156.573 163.686 156.788 163.433 156.928 163.118C157.068 162.802 157.137 162.452 157.135 162.066C157.133 161.649 157.056 161.284 156.905 160.97C156.762 160.656 156.544 160.413 156.252 160.242C155.968 160.07 155.621 159.985 155.212 159.987C154.598 159.991 154.123 160.19 153.787 160.585C153.459 160.98 153.296 161.481 153.299 162.087C153.301 162.496 153.386 162.857 153.553 163.171C153.72 163.477 153.945 163.72 154.23 163.9C154.522 164.071 154.856 164.156 155.234 164.154ZM157.119 159.116L158.252 159.11L158.284 164.999L157.245 165.005C157.245 165.005 157.237 164.934 157.22 164.792C157.204 164.643 157.187 164.466 157.17 164.262C157.154 164.057 157.145 163.876 157.144 163.719L157.119 159.116ZM159.73 159.102L160.863 159.096L160.895 164.985L159.762 164.991L159.73 159.102ZM163.105 158.966C163.436 158.964 163.735 159.01 164.003 159.103C164.271 159.196 164.5 159.336 164.69 159.524C164.88 159.704 165.026 159.931 165.13 160.206C165.242 160.473 165.298 160.78 165.3 161.126L165.321 164.962L164.2 164.968L164.18 161.38C164.178 160.915 164.062 160.57 163.833 160.343C163.611 160.108 163.272 159.992 162.816 159.994C162.462 159.996 162.139 160.08 161.849 160.247C161.559 160.414 161.32 160.636 161.133 160.912C160.953 161.18 160.845 161.484 160.807 161.823L160.792 161.173C160.829 160.858 160.911 160.567 161.035 160.299C161.167 160.03 161.331 159.797 161.527 159.6C161.73 159.394 161.966 159.239 162.233 159.136C162.5 159.024 162.79 158.967 163.105 158.966ZM171.829 165.045C171.326 165.048 170.865 164.92 170.446 164.663C170.028 164.405 169.696 164.049 169.449 163.594C169.203 163.131 169.078 162.601 169.075 162.003C169.072 161.405 169.191 160.877 169.432 160.419C169.682 159.954 170.022 159.59 170.453 159.328C170.885 159.058 171.368 158.922 171.903 158.919C172.493 158.916 172.95 159.051 173.274 159.325C173.606 159.598 173.836 159.967 173.965 160.43C174.101 160.894 174.171 161.409 174.174 161.975C174.175 162.29 174.138 162.625 174.061 162.979C173.984 163.334 173.86 163.669 173.689 163.985C173.517 164.3 173.279 164.557 172.973 164.756C172.667 164.946 172.286 165.043 171.829 165.045ZM172.143 164.064C172.56 164.061 172.91 163.969 173.192 163.787C173.482 163.596 173.697 163.343 173.837 163.028C173.977 162.712 174.046 162.362 174.044 161.976C174.042 161.559 173.965 161.194 173.814 160.88C173.67 160.566 173.453 160.323 173.161 160.151C172.877 159.98 172.53 159.895 172.121 159.897C171.507 159.901 171.032 160.1 170.696 160.495C170.367 160.89 170.205 161.391 170.208 161.997C170.21 162.406 170.295 162.767 170.462 163.081C170.629 163.387 170.854 163.63 171.138 163.809C171.43 163.981 171.765 164.066 172.143 164.064ZM174.028 159.025L175.161 159.019L175.193 164.909L174.154 164.915C174.154 164.915 174.146 164.844 174.129 164.702C174.113 164.553 174.096 164.376 174.079 164.171C174.062 163.967 174.054 163.786 174.053 163.629L174.028 159.025ZM176.639 159.012L177.772 159.005L177.804 164.895L176.67 164.901L176.639 159.012ZM180.014 158.876C180.344 158.874 180.644 158.919 180.912 159.012C181.18 159.105 181.409 159.246 181.599 159.434C181.788 159.614 181.935 159.841 182.039 160.116C182.151 160.383 182.207 160.689 182.209 161.036L182.23 164.871L181.108 164.877L181.089 161.289C181.087 160.825 180.971 160.48 180.741 160.253C180.52 160.018 180.181 159.901 179.724 159.904C179.37 159.906 179.048 159.99 178.758 160.157C178.468 160.324 178.229 160.545 178.041 160.822C177.862 161.09 177.753 161.394 177.716 161.732L177.701 161.083C177.738 160.768 177.819 160.477 177.944 160.208C178.076 159.94 178.24 159.707 178.436 159.509C178.639 159.304 178.875 159.149 179.141 159.045C179.408 158.934 179.699 158.877 180.014 158.876ZM184.334 158.852C184.664 158.851 184.964 158.896 185.232 158.989C185.5 159.082 185.729 159.223 185.918 159.411C186.108 159.591 186.255 159.818 186.359 160.093C186.47 160.36 186.527 160.666 186.529 161.013L186.549 164.848L185.428 164.854L185.409 161.266C185.406 160.802 185.291 160.457 185.061 160.23C184.84 159.995 184.501 159.878 184.044 159.881C183.69 159.883 183.368 159.967 183.078 160.134C182.787 160.301 182.549 160.522 182.361 160.799C182.182 161.067 182.073 161.371 182.036 161.709L182.02 161.048C182.058 160.733 182.139 160.446 182.264 160.185C182.396 159.917 182.564 159.684 182.767 159.486C182.971 159.281 183.206 159.126 183.473 159.022C183.74 158.911 184.027 158.854 184.334 158.852ZM190.88 164.955C190.306 164.958 189.778 164.839 189.297 164.598C188.816 164.356 188.432 164.008 188.146 163.553C187.861 163.098 187.716 162.552 187.713 161.915C187.709 161.27 187.848 160.718 188.129 160.26C188.41 159.795 188.789 159.439 189.268 159.192C189.747 158.946 190.273 158.821 190.848 158.818C191.422 158.815 191.946 158.934 192.419 159.175C192.893 159.417 193.272 159.769 193.558 160.231C193.844 160.686 193.988 161.236 193.992 161.882C193.995 162.519 193.856 163.066 193.576 163.524C193.295 163.982 192.919 164.334 192.448 164.581C191.977 164.827 191.455 164.952 190.88 164.955ZM190.875 163.975C191.229 163.974 191.555 163.893 191.854 163.734C192.159 163.567 192.402 163.33 192.581 163.022C192.769 162.706 192.861 162.328 192.859 161.888C192.856 161.439 192.76 161.058 192.569 160.744C192.387 160.43 192.141 160.192 191.834 160.028C191.534 159.865 191.207 159.784 190.853 159.786C190.499 159.787 190.169 159.872 189.863 160.039C189.557 160.198 189.31 160.435 189.123 160.751C188.936 161.067 188.843 161.453 188.846 161.909C188.848 162.35 188.941 162.727 189.123 163.041C189.314 163.346 189.563 163.581 189.871 163.745C190.178 163.901 190.513 163.977 190.875 163.975ZM200.752 164.773L199.631 164.779L199.599 158.889L200.721 158.883L200.752 164.773ZM199.675 162.005L199.689 162.359C199.681 162.461 199.655 162.615 199.608 162.819C199.57 163.016 199.501 163.233 199.4 163.47C199.306 163.706 199.174 163.935 199.002 164.156C198.838 164.378 198.626 164.56 198.367 164.703C198.109 164.846 197.794 164.918 197.424 164.92C197.173 164.922 196.913 164.888 196.645 164.818C196.385 164.749 196.144 164.632 195.923 164.468C195.702 164.304 195.523 164.081 195.388 163.798C195.253 163.508 195.184 163.146 195.182 162.713L195.161 158.913L196.295 158.907L196.314 162.471C196.316 162.833 196.372 163.116 196.483 163.32C196.602 163.524 196.768 163.669 196.981 163.754C197.194 163.839 197.435 163.881 197.702 163.88C198.111 163.878 198.453 163.778 198.727 163.58C199.009 163.373 199.229 163.128 199.384 162.844C199.54 162.552 199.637 162.272 199.675 162.005ZM202.204 158.875L203.337 158.869L203.368 164.759L202.235 164.765L202.204 158.875ZM205.579 158.739C205.909 158.737 206.209 158.783 206.477 158.876C206.745 158.969 206.974 159.109 207.163 159.297C207.353 159.477 207.5 159.705 207.604 159.979C207.715 160.246 207.772 160.553 207.774 160.899L207.794 164.735L206.673 164.741L206.654 161.153C206.652 160.689 206.536 160.343 206.306 160.116C206.085 159.881 205.746 159.765 205.289 159.768C204.935 159.769 204.613 159.854 204.323 160.021C204.033 160.187 203.794 160.409 203.606 160.685C203.427 160.954 203.318 161.257 203.281 161.596L203.265 160.947C203.303 160.632 203.384 160.34 203.509 160.072C203.641 159.804 203.805 159.571 204.001 159.373C204.204 159.167 204.439 159.013 204.706 158.909C204.973 158.797 205.264 158.741 205.579 158.739ZM208.833 158.84L212.646 158.819L212.651 159.799L208.839 159.819L208.833 158.84ZM210.17 157.275L211.292 157.269L211.331 164.716L210.21 164.722L210.17 157.275Z" fill="#9CA3AF"/>
<rect x="192.053" y="373.105" width="118.935" height="37.319" rx="18.6595" transform="rotate(-0.145697 192.053 373.105)" fill="#228B22"/>
<path d="M233.813 393.09C233.746 393.664 233.551 394.157 233.231 394.568C232.918 394.979 232.507 395.296 231.997 395.519C231.486 395.742 230.905 395.855 230.252 395.859C229.662 395.862 229.118 395.774 228.622 395.596C228.133 395.418 227.706 395.16 227.343 394.824C226.979 394.487 226.693 394.076 226.486 393.589C226.279 393.094 226.174 392.54 226.17 391.926C226.167 391.305 226.267 390.75 226.468 390.261C226.67 389.772 226.952 389.357 227.312 389.017C227.672 388.669 228.095 388.403 228.582 388.219C229.077 388.036 229.619 387.942 230.209 387.939C230.87 387.936 231.457 388.047 231.97 388.272C232.483 388.49 232.897 388.806 233.214 389.221C233.539 389.629 233.738 390.12 233.812 390.694L232.726 390.699C232.622 390.33 232.451 390.016 232.214 389.758C231.976 389.499 231.688 389.304 231.349 389.172C231.01 389.032 230.632 388.964 230.215 388.966C229.68 388.969 229.193 389.085 228.753 389.316C228.314 389.547 227.962 389.879 227.696 390.313C227.439 390.747 227.312 391.283 227.315 391.92C227.319 392.55 227.451 393.084 227.713 393.523C227.983 393.955 228.339 394.283 228.781 394.509C229.223 394.727 229.711 394.835 230.246 394.832C230.663 394.83 231.037 394.761 231.366 394.625C231.704 394.49 231.99 394.291 232.225 394.031C232.46 393.77 232.631 393.458 232.739 393.095L233.813 393.09ZM238.03 395.817C237.455 395.82 236.927 395.701 236.446 395.46C235.965 395.218 235.581 394.87 235.296 394.415C235.01 393.961 234.865 393.414 234.862 392.777C234.859 392.132 234.997 391.58 235.278 391.122C235.559 390.657 235.939 390.301 236.417 390.054C236.896 389.808 237.423 389.683 237.997 389.68C238.571 389.677 239.095 389.796 239.569 390.037C240.042 390.279 240.422 390.631 240.707 391.094C240.993 391.548 241.138 392.098 241.141 392.744C241.145 393.381 241.006 393.929 240.725 394.386C240.444 394.844 240.068 395.197 239.598 395.443C239.127 395.689 238.604 395.814 238.03 395.817ZM238.024 394.838C238.379 394.836 238.705 394.755 239.003 394.596C239.309 394.429 239.552 394.192 239.731 393.884C239.918 393.568 240.01 393.19 240.008 392.75C240.006 392.301 239.909 391.92 239.719 391.606C239.536 391.293 239.291 391.054 238.983 390.89C238.683 390.727 238.356 390.646 238.002 390.648C237.648 390.65 237.318 390.734 237.012 390.901C236.706 391.06 236.459 391.297 236.272 391.613C236.085 391.929 235.993 392.315 235.995 392.771C235.998 393.212 236.09 393.589 236.273 393.903C236.463 394.209 236.712 394.443 237.02 394.607C237.328 394.763 237.663 394.84 238.024 394.838ZM242.311 389.775L243.444 389.769L243.475 395.658L242.342 395.664L242.311 389.775ZM245.686 389.639C246.016 389.637 246.316 389.683 246.584 389.776C246.852 389.869 247.081 390.009 247.27 390.197C247.46 390.377 247.607 390.604 247.711 390.879C247.822 391.146 247.879 391.453 247.881 391.799L247.901 395.635L246.78 395.641L246.761 392.053C246.758 391.588 246.643 391.243 246.413 391.016C246.192 390.781 245.853 390.665 245.396 390.667C245.042 390.669 244.72 390.753 244.43 390.92C244.139 391.087 243.901 391.309 243.713 391.585C243.534 391.853 243.425 392.157 243.388 392.496L243.372 391.846C243.41 391.532 243.491 391.24 243.616 390.972C243.748 390.704 243.912 390.471 244.108 390.273C244.311 390.067 244.546 389.912 244.813 389.809C245.08 389.697 245.371 389.64 245.686 389.639ZM248.94 389.739L252.752 389.719L252.758 390.699L248.945 390.719L248.94 389.739ZM250.277 388.174L251.399 388.168L251.438 395.616L250.317 395.622L250.277 388.174ZM255.17 387.275L255.176 388.49L253.772 388.498L253.765 387.282L255.17 387.275ZM253.92 389.713L255.041 389.707L255.073 395.596L253.951 395.602L253.92 389.713ZM256.638 389.698L257.771 389.692L257.802 395.582L256.669 395.588L256.638 389.698ZM260.013 389.562C260.343 389.561 260.642 389.606 260.911 389.699C261.179 389.792 261.407 389.933 261.597 390.12C261.787 390.3 261.934 390.528 262.038 390.803C262.149 391.07 262.206 391.376 262.208 391.722L262.228 395.558L261.107 395.564L261.088 391.976C261.085 391.512 260.969 391.166 260.74 390.939C260.519 390.705 260.18 390.588 259.723 390.591C259.369 390.593 259.047 390.677 258.757 390.844C258.466 391.011 258.228 391.232 258.04 391.509C257.861 391.777 257.752 392.081 257.715 392.419L257.699 391.77C257.737 391.455 257.818 391.164 257.943 390.895C258.075 390.627 258.239 390.394 258.435 390.196C258.638 389.991 258.873 389.836 259.14 389.732C259.407 389.621 259.698 389.564 260.013 389.562ZM269.271 395.521L268.149 395.527L268.118 389.637L269.239 389.631L269.271 395.521ZM268.194 392.753L268.207 393.107C268.2 393.209 268.173 393.363 268.127 393.568C268.089 393.764 268.019 393.981 267.918 394.218C267.825 394.454 267.693 394.683 267.521 394.904C267.357 395.126 267.145 395.308 266.886 395.451C266.627 395.594 266.313 395.666 265.943 395.668C265.691 395.67 265.431 395.636 265.164 395.566C264.903 395.497 264.663 395.38 264.442 395.216C264.22 395.052 264.042 394.829 263.907 394.546C263.772 394.256 263.703 393.894 263.701 393.461L263.68 389.661L264.813 389.655L264.832 393.219C264.834 393.581 264.891 393.864 265.002 394.068C265.121 394.272 265.287 394.417 265.5 394.502C265.713 394.588 265.953 394.63 266.221 394.628C266.63 394.626 266.972 394.526 267.246 394.328C267.528 394.122 267.747 393.876 267.903 393.592C268.059 393.3 268.156 393.02 268.194 392.753ZM275.288 393.577L276.362 393.571C276.301 393.957 276.153 394.304 275.919 394.612C275.685 394.92 275.375 395.166 274.991 395.349C274.606 395.532 274.154 395.624 273.635 395.627C273.021 395.631 272.473 395.504 271.992 395.247C271.511 394.989 271.131 394.633 270.853 394.179C270.575 393.724 270.435 393.193 270.432 392.587C270.428 391.974 270.559 391.438 270.824 390.98C271.089 390.514 271.457 390.15 271.928 389.888C272.399 389.626 272.937 389.493 273.543 389.49C274.18 389.487 274.716 389.61 275.15 389.859C275.584 390.109 275.905 390.481 276.112 390.975C276.327 391.462 276.417 392.071 276.382 392.803L271.554 392.829C271.595 393.183 271.703 393.497 271.878 393.772C272.06 394.046 272.298 394.261 272.59 394.417C272.889 394.573 273.232 394.65 273.618 394.648C274.05 394.645 274.412 394.545 274.702 394.347C274.992 394.149 275.187 393.892 275.288 393.577ZM273.56 390.458C273.048 390.461 272.624 390.601 272.287 390.878C271.95 391.147 271.728 391.506 271.62 391.955L275.244 391.936C275.21 391.456 275.035 391.091 274.719 390.841C274.403 390.583 274.016 390.455 273.56 390.458Z" fill="white"/>
</g>
</g>
<rect x="205.366" y="47.0664" width="87.7832" height="26.7465" rx="13.3732" transform="rotate(-0.563956 205.366 47.0664)" fill="black"/>
<g opacity="0.5">
<circle cx="279.559" cy="59.3639" r="5.48596" transform="rotate(89.436 279.559 59.3639)" stroke="#A0A9BB" stroke-opacity="0.25" stroke-width="0.685806"/>
<circle cx="279.559" cy="59.3639" r="5.48596" transform="rotate(89.436 279.559 59.3639)" stroke="url(#paint8_linear_2320_28051)" stroke-width="0.685806"/>
</g>
<g filter="url(#filter1_i_2320_28051)">
<ellipse cx="279.579" cy="61.6965" rx="1.42345" ry="2.74298" transform="rotate(89.436 279.579 61.6965)" fill="url(#paint9_radial_2320_28051)"/>
</g>
<g filter="url(#filter2_i_2320_28051)">
<ellipse cx="1.42345" cy="2.74298" rx="1.42345" ry="2.74298" transform="matrix(-0.00984274 -0.999952 -0.999952 0.00984274 282.292 58.5234)" fill="url(#paint10_radial_2320_28051)"/>
</g>
<rect x="93.4111" y="96.5664" width="1.45479" height="10.1835" transform="rotate(-0.563956 93.4111 96.5664)" fill="black"/>
<rect x="400.387" y="93.5508" width="1.45479" height="10.1835" transform="rotate(-0.563956 400.387 93.5508)" fill="black"/>
<rect x="344.455" y="28.625" width="1.45479" height="10.1835" transform="rotate(89.436 344.455 28.625)" fill="black"/>
<rect x="156.784" y="30.4727" width="1.45479" height="10.1835" transform="rotate(89.436 156.784 30.4727)" fill="black"/>
</g>
</g>
<defs>
<filter id="filter0_d_2320_28051" x="77.3271" y="4.91608" width="346.889" height="632.119" filterUnits="userSpaceOnUse" color-interpolation-filters="sRGB">
<feFlood flood-opacity="0" result="BackgroundImageFix"/>
<feColorMatrix in="SourceAlpha" type="matrix" values="0 0 0 0 0 0 0 0 0 0 0 0 0 0 0 0 0 0 127 0" result="hardAlpha"/>
<feOffset dy="3.30577"/>
<feGaussianBlur stdDeviation="16.5288"/>
<feComposite in2="hardAlpha" operator="out"/>
<feColorMatrix type="matrix" values="0 0 0 0 0.504167 0 0 0 0 0.495764 0 0 0 0 0.495764 0 0 0 0.3 0"/>
<feBlend mode="normal" in2="BackgroundImageFix" result="effect1_dropShadow_2320_28051"/>
<feBlend mode="normal" in="SourceGraphic" in2="effect1_dropShadow_2320_28051" result="shape"/>
</filter>
<filter id="filter1_i_2320_28051" x="276.836" y="60.2734" width="5.48584" height="2.84766" filterUnits="userSpaceOnUse" color-interpolation-filters="sRGB">
<feFlood flood-opacity="0" result="BackgroundImageFix"/>
<feBlend mode="normal" in="SourceGraphic" in2="BackgroundImageFix" result="shape"/>
<feColorMatrix in="SourceAlpha" type="matrix" values="0 0 0 0 0 0 0 0 0 0 0 0 0 0 0 0 0 0 127 0" result="hardAlpha"/>
<feOffset/>
<feGaussianBlur stdDeviation="0.342903"/>
<feComposite in2="hardAlpha" operator="arithmetic" k2="-1" k3="1"/>
<feColorMatrix type="matrix" values="0 0 0 0 0 0 0 0 0 0 0 0 0 0 0 0 0 0 0.5 0"/>
<feBlend mode="normal" in2="shape" result="effect1_innerShadow_2320_28051"/>
</filter>
<filter id="filter2_i_2320_28051" x="276.792" y="55.7031" width="5.48535" height="2.84766" filterUnits="userSpaceOnUse" color-interpolation-filters="sRGB">
<feFlood flood-opacity="0" result="BackgroundImageFix"/>
<feBlend mode="normal" in="SourceGraphic" in2="BackgroundImageFix" result="shape"/>
<feColorMatrix in="SourceAlpha" type="matrix" values="0 0 0 0 0 0 0 0 0 0 0 0 0 0 0 0 0 0 127 0" result="hardAlpha"/>
<feOffset/>
<feGaussianBlur stdDeviation="0.342903"/>
<feComposite in2="hardAlpha" operator="arithmetic" k2="-1" k3="1"/>
<feColorMatrix type="matrix" values="0 0 0 0 0 0 0 0 0 0 0 0 0 0 0 0 0 0 0.5 0"/>
<feBlend mode="normal" in2="shape" result="effect1_innerShadow_2320_28051"/>
</filter>
<linearGradient id="paint0_linear_2320_28051" x1="3.6394" y1="0" x2="3.6394" y2="74.201" gradientUnits="userSpaceOnUse">
<stop stop-color="#3D0072"/>
<stop offset="1" stop-color="#80609B"/>
</linearGradient>
<linearGradient id="paint1_linear_2320_28051" x1="3.6394" y1="0" x2="3.6394" y2="71.2911" gradientUnits="userSpaceOnUse">
<stop stop-color="#3D0072"/>
<stop offset="1" stop-color="#80609B"/>
</linearGradient>
<linearGradient id="paint2_linear_2320_28051" x1="3.6912" y1="0" x2="3.6912" y2="49.3412" gradientUnits="userSpaceOnUse">
<stop stop-color="#3D0072"/>
<stop offset="1" stop-color="#80609B"/>
</linearGradient>
<linearGradient id="paint3_linear_2320_28051" x1="3.6912" y1="0" x2="3.6912" y2="46.5744" gradientUnits="userSpaceOnUse">
<stop stop-color="#3D0072"/>
<stop offset="1" stop-color="#80609B"/>
</linearGradient>
<linearGradient id="paint4_linear_2320_28051" x1="3.6912" y1="0" x2="3.6912" y2="48.4189" gradientUnits="userSpaceOnUse">
<stop stop-color="#3D0072"/>
<stop offset="1" stop-color="#80609B"/>
</linearGradient>
<linearGradient id="paint5_linear_2320_28051" x1="3.69109" y1="0" x2="3.69109" y2="21.2115" gradientUnits="userSpaceOnUse">
<stop stop-color="#3D0072"/>
<stop offset="1" stop-color="#80609B"/>
</linearGradient>
<linearGradient id="paint6_linear_2320_28051" x1="3.69108" y1="0" x2="3.69108" y2="18.4448" gradientUnits="userSpaceOnUse">
<stop stop-color="#3D0072"/>
<stop offset="1" stop-color="#80609B"/>
</linearGradient>
<linearGradient id="paint7_linear_2320_28051" x1="401.217" y1="31.1055" x2="92.7735" y2="652.357" gradientUnits="userSpaceOnUse">
<stop stop-color="#EFEFEF"/>
<stop offset="1" stop-color="#3D0072"/>
</linearGradient>
<linearGradient id="paint8_linear_2320_28051" x1="272.798" y1="58.1886" x2="278.059" y2="66.6545" gradientUnits="userSpaceOnUse">
<stop stop-color="#010005" stop-opacity="0.66"/>
<stop offset="1" stop-color="#2E2D31"/>
</linearGradient>
<radialGradient id="paint9_radial_2320_28051" cx="0" cy="0" r="1" gradientUnits="userSpaceOnUse" gradientTransform="translate(278.861 61.6965) rotate(90) scale(3.51745 1.44614)">
<stop stop-color="#1F85DE"/>
<stop offset="0.257948" stop-color="#1B75C9"/>
<stop offset="1" stop-color="#000232"/>
</radialGradient>
<radialGradient id="paint10_radial_2320_28051" cx="0" cy="0" r="1" gradientUnits="userSpaceOnUse" gradientTransform="translate(0.706112 2.74298) rotate(90) scale(3.51745 1.44614)">
<stop stop-color="#1F85DE"/>
<stop offset="0.257948" stop-color="#1B75C9"/>
<stop offset="1" stop-color="#000232"/>
</radialGradient>
<clipPath id="clip0_2320_28051">
<rect width="503" height="468" fill="white"/>
</clipPath>
<clipPath id="clip1_2320_28051">
<rect width="318.301" height="453.199" fill="white" transform="translate(94 26.6016) rotate(0.546732)"/>
</clipPath>
<clipPath id="clip2_2320_28051">
<rect x="110.385" y="35.3789" width="279.337" height="565.294" rx="13.2231" transform="rotate(-0.145697 110.385 35.3789)" fill="white"/>
</clipPath>
</defs>
</svg>
