<svg width="462" height="405" viewBox="0 0 462 405" fill="none" xmlns="http://www.w3.org/2000/svg">
<g clip-path="url(#clip0_2971_28424)">
<mask id="mask0_2971_28424" style="mask-type:luminance" maskUnits="userSpaceOnUse" x="-152" y="-241" width="894" height="893">
<path d="M741.146 -241H-151.854V652H741.146V-241Z" fill="white"/>
</mask>
<g mask="url(#mask0_2971_28424)">
<path d="M453.246 48.3747L294.286 0.685245C292.059 0.0163766 289.688 0.0163766 287.462 0.685245L128.495 48.3747C123.477 49.8806 120.037 54.5034 120.037 59.7453V234.606C120.037 257.351 129.244 280.631 147.403 303.806C161.271 321.503 180.458 339.276 204.43 356.628C244.699 385.779 284.354 403.66 286.023 404.405C287.565 405.097 289.22 405.443 290.873 405.443C292.528 405.443 294.183 405.099 295.725 404.405C297.391 403.66 337.045 385.779 377.318 356.628C401.288 339.276 420.474 321.503 434.343 303.806C452.501 280.633 461.708 257.351 461.708 234.606V59.7453C461.708 54.5034 458.27 49.8806 453.246 48.3747Z" fill="#2EB497" fill-opacity="0.15"/>
<path d="M244.998 172.85C241.062 171.72 238.221 168.05 238.316 163.763L238.825 140.499C239.417 113.661 261.734 92.308 288.573 92.8983C315.412 93.4902 336.767 115.805 336.175 142.643L335.694 164.399C335.582 169.503 331.354 173.548 326.251 173.435C321.153 173.323 317.106 169.096 317.219 163.994L317.697 142.237C318.063 125.586 304.817 111.741 288.167 111.373C271.517 111.007 257.67 124.256 257.303 140.906L256.792 164.171C256.681 169.273 252.453 173.318 247.35 173.205C246.536 173.188 245.747 173.065 244.998 172.85Z" fill="black"/>
<path d="M338.275 166.898H236.195C222.4 166.898 211.111 178.187 211.111 191.98V258.519C211.111 272.314 222.4 283.603 236.195 283.603H338.275C352.07 283.603 363.359 272.314 363.359 258.519V191.98C363.359 178.187 352.07 166.898 338.275 166.898ZM287.235 246.015C277.241 246.015 269.135 237.91 269.135 227.914C269.135 217.917 277.241 209.815 287.235 209.815C297.234 209.815 305.335 217.917 305.335 227.914C305.335 237.91 297.234 246.015 287.235 246.015Z" fill="url(#paint0_linear_2971_28424)"/>
</g>
<g filter="url(#filter0_f_2971_28424)">
<rect x="61.1465" y="279" width="134" height="14" fill="#2985C9"/>
</g>
<g filter="url(#filter1_d_2971_28424)">
<rect x="0.146484" y="255" width="199" height="59" rx="14.303" fill="white"/>
</g>
<path d="M61.1906 288C60.547 287.628 60.4612 286.727 60.4612 286.055V282.679C62.4779 282.679 63.5363 282.679 63.9654 284.939V280.534C63.6365 281.707 63.2217 282.136 61.9916 282.264C61.4767 282.322 60.9761 282.336 60.4612 282.336V277.502H61.3194C63.2932 277.502 64.4517 278.789 65.0954 280.52L64.8522 277.158H57.6435C58.2728 277.516 58.3729 278.446 58.3729 279.104V286.055C58.3729 286.727 58.2871 287.628 57.6435 288H61.1906ZM69.7104 284.024V286.055C69.7104 286.698 69.596 287.642 68.981 288H72.5138C71.8702 287.642 71.7987 286.713 71.7987 286.055V283.051C71.7987 282.565 72.2993 282.036 72.7999 282.036C73.5007 282.036 73.701 282.722 73.701 283.309V286.055C73.701 286.698 73.6009 287.642 72.9858 288H76.5187C75.8893 287.642 75.7892 286.713 75.7892 286.055V283.251C75.7892 282.064 75.1599 280.977 73.8726 280.977C73.701 280.977 71.9703 282.007 71.7987 282.193V281.092C71.9846 280.791 72.0704 280.434 72.0704 280.076C72.0704 278.403 70.54 277.63 69.0525 277.63C67.8081 277.63 65.9773 278.202 65.9773 279.719C65.9773 280.291 66.4493 280.763 67.0215 280.763C67.5936 280.763 68.0656 280.291 68.0656 279.719C68.0656 279.146 67.5936 278.674 67.0215 278.674C67.4506 278.16 68.1943 277.959 68.8523 277.959C70.0394 277.959 71.2409 278.703 71.2409 279.99C71.2409 281.278 70.0251 281.964 68.9095 282.15C69.4101 282.751 69.7104 283.208 69.7104 284.024ZM65.3051 282.15C65.8057 282.751 66.1061 283.208 66.1061 284.024V286.055C66.1061 286.698 65.9916 287.642 65.3766 288H68.9095C68.2658 287.642 68.1943 286.713 68.1943 286.055V281.092C67.0358 281.764 66.6353 281.936 65.3051 282.15ZM77.8228 284.052C78.6238 284.052 79.1387 283.409 79.3532 282.708C79.0243 282.708 78.7954 282.536 78.7954 282.193C78.7954 281.821 79.0815 281.32 79.4963 281.32C80.3545 281.32 80.1685 283.108 80.1685 283.666C78.9385 284.138 76.6357 284.982 76.6357 286.584C76.6357 288.93 79.2245 289.43 81.0839 289.43C83.0577 289.43 85.9469 288.787 85.9469 286.298V284.024C85.9469 283.709 85.9326 283.366 85.9469 283.051C85.9612 282.551 86.4332 282.036 86.9482 282.036C87.649 282.036 87.8492 282.722 87.8492 283.309V286.055C87.8492 286.698 87.7491 287.642 87.1341 288H90.6669C90.0376 287.642 89.9375 286.713 89.9375 286.055V283.251C89.9375 282.064 89.3082 280.977 88.0209 280.977C87.8492 280.977 86.1186 282.007 85.9469 282.193V281.092C84.7884 281.75 84.3879 281.936 83.0577 282.15C83.5583 282.751 83.8587 283.208 83.8587 284.024V286.198C83.8587 287.785 82.9862 289.044 81.3128 289.044C79.8109 289.044 78.7382 288.057 78.7382 286.527C78.7382 285.425 79.2102 284.567 80.1685 284.024V287.013C80.1685 287.714 80.9266 288.143 81.5559 288.143C82.1852 288.143 82.4999 287.914 82.9862 287.557V287.414C82.9004 287.471 82.8003 287.499 82.7002 287.499C82.2997 287.499 82.2568 286.884 82.2568 286.613V283.323C82.2568 281.792 81.1268 280.977 79.6679 280.977C78.4665 280.977 76.8931 281.535 76.8931 282.965C76.8931 283.523 77.2221 284.052 77.8228 284.052ZM94.2035 283.323C94.4466 284.124 94.9186 284.653 95.7911 284.653C96.5635 284.653 97.0069 284.152 97.0069 283.409C97.0069 281.835 95.4335 280.977 94.0318 280.977C92.0008 280.977 90.7851 282.708 90.7851 284.61C90.7851 286.584 92.2154 288.143 94.2178 288.143C95.5766 288.143 96.6064 287.528 97.2643 286.341L97.1499 286.255C96.8495 286.555 95.9628 286.656 95.5623 286.656C93.7315 286.656 92.9162 284.968 92.9162 283.352C92.9162 282.794 93.0878 281.32 93.8888 281.32C94.5324 281.32 95.1618 281.95 95.1618 282.593C95.1618 283.137 94.6755 283.323 94.2035 283.323ZM99.1195 280.763C99.6916 280.763 100.164 280.291 100.164 279.719C100.164 279.146 99.6916 278.674 99.1195 278.674C98.5474 278.674 98.0754 279.146 98.0754 279.719C98.0754 280.291 98.5474 280.763 99.1195 280.763ZM101.007 288C100.364 287.642 100.292 286.713 100.292 286.055V281.092C99.1338 281.764 98.7333 281.936 97.4031 282.15C97.9037 282.751 98.2041 283.208 98.2041 284.024V286.055C98.2041 286.698 98.0897 287.642 97.4746 288H101.007ZM107.472 287.414C107.386 287.471 107.286 287.499 107.186 287.499C106.785 287.499 106.742 286.884 106.742 286.613V283.323C106.742 281.792 105.612 280.977 104.153 280.977C102.952 280.977 101.379 281.535 101.379 282.965C101.379 283.523 101.708 284.052 102.308 284.052C103.109 284.052 103.624 283.409 103.839 282.708C103.51 282.708 103.281 282.536 103.281 282.193C103.281 281.821 103.567 281.32 103.982 281.32C104.726 281.32 104.654 282.579 104.654 283.065V283.523C103.739 284.524 101.121 285.125 101.121 286.613C101.121 287.685 101.836 288.143 102.838 288.143C103.653 288.143 104.282 287.857 104.726 287.356C104.926 287.843 105.527 288.143 106.041 288.143C106.685 288.143 106.985 287.914 107.472 287.557V287.414ZM104.654 287.056C104.511 287.142 104.325 287.199 104.096 287.199C103.367 287.199 103.224 286.57 103.224 285.969C103.224 285.139 104.111 284.524 104.654 284.024V287.056ZM114.052 277.859C113.494 278.102 112.907 278.245 112.292 278.245C109.99 278.245 108.116 276.372 105.97 276.372C104.983 276.372 103.682 276.772 103.682 277.974C103.682 278.574 104.054 279.104 104.54 279.418C104.998 278.431 105.77 278.059 106.814 278.059C108.359 278.059 109.861 278.617 111.406 278.617C112.035 278.617 112.636 278.531 113.208 278.331C112.593 278.632 112.106 278.76 111.162 278.918C111.663 279.518 111.963 279.976 111.963 280.791V286.055C111.963 286.713 111.863 287.642 111.234 288H114.781C114.137 287.642 114.052 286.713 114.052 286.055V277.859ZM110.433 279.104C109.274 279.776 108.874 279.947 107.544 280.162C108.044 280.763 108.345 281.22 108.345 282.036V286.055C108.345 286.713 108.245 287.642 107.615 288H111.162C110.519 287.642 110.433 286.713 110.433 286.055V279.104ZM117.818 288C118.047 288 118.447 288.072 118.447 288.372C118.447 289.058 117.317 289.445 116.774 289.445C116.145 289.445 115.63 289.13 115.63 288.443C115.015 288.443 114.7 289.259 114.7 289.774C114.7 290.718 115.444 291.132 116.316 291.132C117.947 291.132 118.533 289.244 119.034 288L120.321 284.782C120.679 283.881 121.48 281.478 122.352 281.092H119.034C119.892 281.406 120.278 282.064 120.278 282.965C120.278 284.124 119.692 285.411 119.263 286.484C118.891 285.597 117.746 283.023 117.746 282.207C117.746 281.721 117.975 281.249 118.447 281.092H114.5C115.372 281.478 116.159 283.866 116.516 284.753L117.818 288ZM127.989 288.143C129.233 288.143 131.15 287.7 131.15 286.126C131.15 283.766 127.217 283.824 127.217 282.379C127.217 281.75 127.689 281.32 128.318 281.32C128.847 281.32 129.377 281.664 129.377 282.236C129.377 282.536 129.191 282.765 128.876 282.765C129.048 283.323 129.462 283.723 130.063 283.723C130.649 283.723 131.007 283.352 131.007 282.765C131.007 281.449 129.448 280.977 128.375 280.977C127.174 280.977 125.529 281.578 125.529 283.008C125.529 285.425 129.276 285.311 129.276 286.784C129.276 287.499 128.604 287.8 127.989 287.8C127.474 287.8 126.873 287.499 126.873 286.913C126.873 286.57 127.117 286.312 127.46 286.312C127.345 285.74 126.916 285.154 126.273 285.154C125.601 285.154 125.243 285.683 125.243 286.312C125.243 287.657 126.916 288.143 127.989 288.143ZM137.892 284.324V283.981C137.892 282.136 136.705 280.977 134.86 280.977C132.829 280.977 131.613 282.708 131.613 284.61C131.613 286.584 133.043 288.143 135.046 288.143C136.462 288.143 137.263 287.528 137.921 286.341L137.806 286.255C137.506 286.555 136.619 286.656 136.219 286.656C134.831 286.656 134.059 285.683 133.787 284.496L137.892 284.324ZM135.975 282.837C135.975 283.537 135.503 283.881 134.86 283.981C134.474 284.038 134.102 284.095 133.715 284.138C133.687 283.924 133.673 283.709 133.673 283.495C133.673 282.908 133.887 281.32 134.717 281.32C135.446 281.32 135.975 282.179 135.975 282.837ZM141.736 283.323C141.979 284.124 142.451 284.653 143.324 284.653C144.096 284.653 144.539 284.152 144.539 283.409C144.539 281.835 142.966 280.977 141.564 280.977C139.533 280.977 138.317 282.708 138.317 284.61C138.317 286.584 139.748 288.143 141.75 288.143C143.109 288.143 144.139 287.528 144.797 286.341L144.682 286.255C144.382 286.555 143.495 286.656 143.095 286.656C141.264 286.656 140.449 284.968 140.449 283.352C140.449 282.794 140.62 281.32 141.421 281.32C142.065 281.32 142.694 281.95 142.694 282.593C142.694 283.137 142.208 283.323 141.736 283.323ZM144.656 281.092C145.286 281.449 145.386 282.379 145.386 283.037V285.84C145.386 287.027 146.015 288.114 147.302 288.114C147.474 288.114 149.276 287.042 149.405 286.856C149.476 287.242 149.619 287.642 149.705 288H152.265C151.679 287.271 151.464 286.684 151.464 285.754V281.092H148.661C149.305 281.449 149.376 282.379 149.376 283.037V285.068C149.376 285.411 149.348 285.783 149.348 286.155C149.233 286.627 148.918 287.056 148.375 287.056C147.674 287.056 147.474 286.369 147.474 285.783V281.092H144.656ZM155.158 282.665V281.092C153.999 281.764 153.599 281.936 152.269 282.15C152.769 282.751 153.07 283.208 153.07 284.024V286.055C153.07 286.698 152.955 287.642 152.34 288H155.873C155.244 287.642 155.158 286.713 155.158 286.055V283.452C155.158 283.037 155.587 282.679 155.973 282.679C156.474 282.679 156.846 283.065 156.846 283.552C156.846 283.68 156.817 283.795 156.788 283.909C157.732 283.909 158.505 283.294 158.505 282.322C158.505 281.578 158.018 280.977 157.246 280.977C156.273 280.977 155.53 281.85 155.158 282.665ZM164.696 284.324V283.981C164.696 282.136 163.509 280.977 161.664 280.977C159.633 280.977 158.417 282.708 158.417 284.61C158.417 286.584 159.847 288.143 161.85 288.143C163.266 288.143 164.067 287.528 164.725 286.341L164.61 286.255C164.31 286.555 163.423 286.656 163.023 286.656C161.635 286.656 160.863 285.683 160.591 284.496L164.696 284.324ZM162.78 282.837C162.78 283.537 162.308 283.881 161.664 283.981C161.278 284.038 160.906 284.095 160.52 284.138C160.491 283.924 160.477 283.709 160.477 283.495C160.477 282.908 160.691 281.32 161.521 281.32C162.25 281.32 162.78 282.179 162.78 282.837ZM171.747 277.873C170.589 278.531 170.188 278.703 168.858 278.918C169.359 279.518 169.659 279.976 169.659 280.791V281.435C169.416 281.32 168.501 280.934 168.243 280.934C166.169 280.934 164.982 282.722 164.982 284.653C164.982 286.498 166.069 288.129 168.057 288.129C168.887 288.129 169.344 287.871 169.659 287.414V288H172.463C171.819 287.642 171.747 286.713 171.747 286.055V277.873ZM169.659 286.641C169.588 286.641 169.502 286.641 169.402 286.641C167.743 286.641 166.956 285.111 166.956 283.638C166.956 282.694 167.356 281.292 168.515 281.292C169.473 281.292 169.659 282.408 169.659 283.151V286.641Z" fill="url(#paint1_linear_2971_28424)"/>
<circle cx="31.1465" cy="284.5" r="15" fill="#F0FDF4"/>
<g clip-path="url(#clip1_2971_28424)">
<path fill-rule="evenodd" clip-rule="evenodd" d="M31.0523 275.914C30.32 275.914 29.0963 276.195 27.9448 276.508C26.7667 276.827 25.5791 277.204 24.8807 277.432C24.5887 277.528 24.3299 277.705 24.1339 277.942C23.9379 278.179 23.8127 278.466 23.7727 278.771C23.1402 283.523 24.608 287.044 26.3889 289.374C27.1441 290.37 28.0445 291.248 29.0602 291.977C29.4699 292.267 29.8498 292.489 30.1725 292.64C30.4696 292.781 30.7891 292.895 31.0523 292.895C31.3155 292.895 31.6339 292.781 31.9321 292.64C32.3211 292.451 32.6932 292.23 33.0444 291.977C34.0601 291.248 34.9605 290.37 35.7157 289.374C37.4966 287.044 38.9644 283.523 38.3319 278.771C38.292 278.466 38.1668 278.179 37.9708 277.941C37.7748 277.704 37.5159 277.527 37.2239 277.431C36.2101 277.098 35.1885 276.79 34.1598 276.507C33.0083 276.196 31.7846 275.914 31.0523 275.914ZM33.3299 281.376C33.4295 281.276 33.5647 281.22 33.7056 281.22C33.8465 281.22 33.9817 281.276 34.0813 281.376C34.181 281.475 34.2369 281.61 34.2369 281.751C34.2369 281.892 34.181 282.027 34.0813 282.127L30.8973 285.311C30.8481 285.36 30.7895 285.4 30.725 285.426C30.6606 285.453 30.5914 285.467 30.5216 285.467C30.4518 285.467 30.3827 285.453 30.3183 285.426C30.2538 285.4 30.1952 285.36 30.1459 285.311L28.5539 283.719C28.5046 283.67 28.4655 283.611 28.4388 283.547C28.4121 283.482 28.3983 283.413 28.3983 283.343C28.3983 283.274 28.4121 283.204 28.4388 283.14C28.4655 283.076 28.5046 283.017 28.5539 282.968C28.6033 282.918 28.6619 282.879 28.7263 282.852C28.7908 282.826 28.8599 282.812 28.9297 282.812C28.9994 282.812 29.0685 282.826 29.133 282.852C29.1975 282.879 29.256 282.918 29.3054 282.968L30.5216 284.185L33.3299 281.376Z" fill="#22C55E"/>
<path d="M33.4075 291.51C33.6541 291.51 33.8541 291.31 33.8541 291.064C33.8541 290.817 33.6541 290.617 33.4075 290.617C33.1609 290.617 32.9609 290.817 32.9609 291.064C32.9609 291.31 33.1609 291.51 33.4075 291.51Z" fill="#F0FDF4"/>
<path d="M35.1282 289.368V289.025C35.1282 288.286 34.9502 287.305 33.4077 287.305C31.8652 287.305 31.6871 288.286 31.6871 289.025V289.368C30.92 289.464 30.668 289.853 30.668 290.809V291.318C30.668 292.442 31.0104 292.784 32.1337 292.784H34.6817C35.805 292.784 36.1474 292.442 36.1474 291.318V290.809C36.1474 289.853 35.8954 289.464 35.1282 289.368ZM33.4077 291.891C32.9502 291.891 32.5803 291.518 32.5803 291.064C32.5803 290.606 32.9529 290.236 33.4077 290.236C33.8625 290.236 34.2351 290.609 34.2351 291.064C34.2351 291.521 33.8652 291.891 33.4077 291.891ZM32.1337 289.343C32.1118 289.343 32.0926 289.343 32.0707 289.343V289.025C32.0707 288.222 32.2981 287.688 33.4077 287.688C34.5173 287.688 34.7447 288.222 34.7447 289.025V289.346C34.7228 289.346 34.7036 289.346 34.6817 289.346H32.1337V289.343Z" fill="#F0FDF4"/>
</g>
</g>
<defs>
<filter id="filter0_f_2971_28424" x="1.14648" y="219" width="254" height="134" filterUnits="userSpaceOnUse" color-interpolation-filters="sRGB">
<feFlood flood-opacity="0" result="BackgroundImageFix"/>
<feBlend mode="normal" in="SourceGraphic" in2="BackgroundImageFix" result="shape"/>
<feGaussianBlur stdDeviation="30" result="effect1_foregroundBlur_2971_28424"/>
</filter>
<filter id="filter1_d_2971_28424" x="-21.3081" y="244.273" width="241.909" height="101.909" filterUnits="userSpaceOnUse" color-interpolation-filters="sRGB">
<feFlood flood-opacity="0" result="BackgroundImageFix"/>
<feColorMatrix in="SourceAlpha" type="matrix" values="0 0 0 0 0 0 0 0 0 0 0 0 0 0 0 0 0 0 127 0" result="hardAlpha"/>
<feOffset dy="10.7273"/>
<feGaussianBlur stdDeviation="10.7273"/>
<feComposite in2="hardAlpha" operator="out"/>
<feColorMatrix type="matrix" values="0 0 0 0 0.525 0 0 0 0 0.520625 0 0 0 0 0.520625 0 0 0 0.06 0"/>
<feBlend mode="normal" in2="BackgroundImageFix" result="effect1_dropShadow_2971_28424"/>
<feBlend mode="normal" in="SourceGraphic" in2="effect1_dropShadow_2971_28424" result="shape"/>
</filter>
<linearGradient id="paint0_linear_2971_28424" x1="188.856" y1="152.709" x2="420.352" y2="306.882" gradientUnits="userSpaceOnUse">
<stop stop-color="#2563EB"/>
<stop offset="1" stop-color="#35FF49"/>
</linearGradient>
<linearGradient id="paint1_linear_2971_28424" x1="40.4005" y1="267.717" x2="84.2196" y2="363.826" gradientUnits="userSpaceOnUse">
<stop stop-color="#2563EB"/>
<stop offset="1" stop-color="#35FF49"/>
</linearGradient>
<clipPath id="clip0_2971_28424">
<rect width="462" height="405" fill="white"/>
</clipPath>
<clipPath id="clip1_2971_28424">
<rect width="16.9811" height="16.9811" fill="white" transform="translate(22.5605 275.914)"/>
</clipPath>
</defs>
</svg>
