<svg width="109" height="41" viewBox="0 0 109 41" fill="none" xmlns="http://www.w3.org/2000/svg">
<path d="M7.70311 23.195L8.974 21.0959L1.51172 15.4768L3.82601 15.1801L2.75788 9.83944L7.85304 11.45L8.48849 9.44366L10.7375 12.7209L10.2021 5.96655L11.9557 7.04467L14.8215 2.43945L17.6418 7.04467L19.5481 5.72379L19.0766 12.7209L21.3909 9.36471L22.0262 11.5561L27.0878 9.87919L26.0597 15.0699L28.3587 15.4126L21.1189 20.996L22.4041 23.195H7.70311Z" fill="#0D6F8E"/>
<path d="M8.78407 21.0059L14.8396 23.2018H7.65283L8.78407 21.0059Z" fill="#0C6B8A"/>
<path d="M21.1192 20.9316L22.4124 23.2001H14.2407L21.1192 20.9316Z" fill="#0C6B8A"/>
<path d="M15.7212 22.711L27.0879 9.81641L26.0597 15.0071L28.3588 15.3498L21.1189 20.9332L15.7212 22.711Z" fill="url(#paint0_linear_1681_1584)"/>
<path d="M14.5669 23.1271L2.75807 9.77539L3.81096 15.0848L1.51192 15.4275L8.75174 21.0108L14.5669 23.1271Z" fill="url(#paint1_linear_1681_1584)"/>
<path d="M15.7536 22.7123L27.0421 9.84915C25.0849 10.5123 23.9876 10.8841 22.0305 11.5472L21.3909 9.30126L19.0984 12.6204L14.5668 23.1277L15.7536 22.7123Z" fill="url(#paint2_linear_1681_1584)"/>
<path d="M14.8043 2.35742L14.5669 23.1267L19.0768 12.6827L19.5515 5.62117L17.6526 6.986L14.8043 2.35742Z" fill="url(#paint3_linear_1681_1584)"/>
<path d="M14.8042 2.35742L14.5668 23.1267L10.7097 12.6234L10.0569 5.62117L11.9558 6.986L14.8042 2.35742Z" fill="url(#paint4_linear_1681_1584)"/>
<path d="M2.7583 9.77664L14.5671 23.1283L10.7378 12.6581L8.48873 9.38086L7.85328 11.3872L2.7583 9.77664Z" fill="url(#paint5_linear_1681_1584)"/>
<rect x="6.76318" y="23.459" width="15.6394" height="3.94507" rx="1.97254" fill="#116B89"/>
<rect x="6.76318" y="27.6855" width="15.6394" height="3.94507" rx="1.97254" fill="#116B89"/>
<path d="M59.2247 23.335C59.2247 24.9153 58.033 26.1964 56.5629 26.1964C55.0928 26.1964 53.9011 24.9153 53.9011 23.335C53.9011 21.7547 55.0928 20.4736 56.5629 20.4736C58.033 20.4736 59.2247 21.7547 59.2247 23.335Z" fill="#126B8A"/>
<path d="M40.5156 24.5189C40.5156 24.8986 40.3357 25.2184 39.976 25.4583C39.6162 25.6981 39.0566 25.818 38.3371 25.818C37.4777 25.818 36.6982 25.6181 35.9787 25.1784C35.2592 24.7587 34.6596 24.1791 34.1999 23.4196L31.9414 25.2984C32.4611 26.2977 33.2605 27.1171 34.3798 27.7567C35.479 28.3963 36.8181 28.7161 38.417 28.7161C39.916 28.7161 41.1752 28.2963 42.1945 27.4569C43.1938 26.6175 43.7135 25.5582 43.7135 24.279C43.7135 23.4996 43.5136 22.82 43.1338 22.2404C42.7341 21.6808 42.2544 21.2411 41.6948 20.9613C41.1152 20.6815 40.4956 20.4416 39.8161 20.2018C39.1365 19.982 38.497 19.8021 37.9374 19.6822C37.3577 19.5622 36.8781 19.3824 36.4983 19.1425C36.0986 18.9227 35.9187 18.6429 35.9187 18.3031C35.9187 17.4237 36.6182 16.984 38.0173 16.984C39.3364 16.984 40.5156 17.5436 41.5349 18.6628L43.6135 16.6642C42.3144 14.9454 40.4956 14.0859 38.1372 14.0859C36.5383 14.0859 35.2192 14.5057 34.2199 15.3451C33.2205 16.1845 32.7209 17.1838 32.7209 18.3431C32.7209 19.1425 32.9008 19.842 33.3005 20.4017C33.6802 20.9613 34.1599 21.381 34.7395 21.6608C35.2991 21.9406 35.9387 22.2005 36.6182 22.4203C37.2978 22.6601 37.9174 22.84 38.497 22.9799C39.0566 23.1198 39.5363 23.3197 39.936 23.5795C40.3157 23.8393 40.5156 24.1591 40.5156 24.5189Z" fill="#1E2C31"/>
<path d="M50.4163 25.8927V28.3963H48.9142C47.8437 28.3963 47.0092 28.1373 46.4106 27.6193C45.812 27.0898 45.5128 26.2322 45.5128 25.0466V21.2136H44.3387V18.7618H45.5128V16.4136H48.4653V18.7618H50.3991V21.2136H48.4653V25.0812C48.4653 25.3689 48.5343 25.5761 48.6725 25.7028C48.8106 25.8294 49.0408 25.8927 49.3631 25.8927H50.4163Z" fill="#1E2C31"/>
<path d="M51.1804 23.5618C51.1804 22.5718 51.3645 21.7028 51.7329 20.9546C52.1127 20.2064 52.625 19.6308 53.2696 19.228C53.9142 18.8251 54.6336 18.6236 55.4278 18.6236C56.107 18.6236 56.6998 18.7618 57.2062 19.038C57.7242 19.3143 58.1213 19.6769 58.3976 20.1258V18.7618H61.3501V28.3963H58.3976V27.0322C58.1098 27.4812 57.707 27.8438 57.189 28.12C56.6825 28.3963 56.0897 28.5344 55.4106 28.5344C54.6278 28.5344 53.9142 28.333 53.2696 27.9301C52.625 27.5157 52.1127 26.9344 51.7329 26.1862C51.3645 25.4265 51.1804 24.5517 51.1804 23.5618ZM58.3976 23.579C58.3976 22.8423 58.1904 22.261 57.776 21.8351C57.3731 21.4092 56.8782 21.1963 56.2911 21.1963C55.7041 21.1963 55.2034 21.4092 54.789 21.8351C54.3861 22.2495 54.1847 22.8251 54.1847 23.5618C54.1847 24.2984 54.3861 24.8855 54.789 25.3229C55.2034 25.7488 55.7041 25.9617 56.2911 25.9617C56.8782 25.9617 57.3731 25.7488 57.776 25.3229C58.1904 24.897 58.3976 24.3157 58.3976 23.579Z" fill="#1E2C31"/>
<path d="M62.6055 23.579C62.6055 22.5776 62.807 21.7028 63.2099 20.9546C63.6242 20.2064 64.194 19.6308 64.9192 19.228C65.6559 18.8251 66.4962 18.6236 67.4401 18.6236C68.6487 18.6236 69.6559 18.9402 70.4616 19.5733C71.2789 20.2064 71.8141 21.0985 72.0674 22.2495H68.9249C68.6602 21.5128 68.148 21.1445 67.3883 21.1445C66.8473 21.1445 66.4156 21.3574 66.0933 21.7833C65.771 22.1977 65.6098 22.7963 65.6098 23.579C65.6098 24.3618 65.771 24.9661 66.0933 25.392C66.4156 25.8064 66.8473 26.0135 67.3883 26.0135C68.148 26.0135 68.6602 25.6452 68.9249 24.9085H72.0674C71.8141 26.0366 71.2789 26.9229 70.4616 27.5675C69.6444 28.2121 68.6372 28.5344 67.4401 28.5344C66.4962 28.5344 65.6559 28.333 64.9192 27.9301C64.194 27.5272 63.6242 26.9517 63.2099 26.2035C62.807 25.4553 62.6055 24.5805 62.6055 23.579Z" fill="#1E2C31"/>
<path d="M79.2409 28.3963L76.3057 24.356V28.3963H73.3532V15.6193H76.3057V22.6812L79.2236 18.7618H82.8668L78.861 23.5963L82.9013 28.3963H79.2409Z" fill="#1E2C31"/>
<path d="M85.2178 17.7603C84.6998 17.7603 84.2739 17.6107 83.9401 17.3114C83.6178 17.0006 83.4567 16.6208 83.4567 16.1719C83.4567 15.7114 83.6178 15.3316 83.9401 15.0323C84.2739 14.7215 84.6998 14.5661 85.2178 14.5661C85.7243 14.5661 86.1387 14.7215 86.461 15.0323C86.7948 15.3316 86.9617 15.7114 86.9617 16.1719C86.9617 16.6208 86.7948 17.0006 86.461 17.3114C86.1387 17.6107 85.7243 17.7603 85.2178 17.7603ZM86.6854 18.7618V28.3963H83.7329V18.7618H86.6854Z" fill="#1E2C31"/>
<path d="M92.8653 25.6337L94.9545 18.7618H98.097L94.6783 28.3963H91.0351L87.6165 18.7618H90.7761L92.8653 25.6337Z" fill="#1E2C31"/>
<path d="M108.888 18.7618L102.845 32.9718H99.6678L101.878 28.0682L97.9584 18.7618H101.256L103.484 24.7877L105.694 18.7618H108.888Z" fill="#1E2C31"/>
<defs>
<linearGradient id="paint0_linear_1681_1584" x1="24.5954" y1="12.3877" x2="16.2283" y2="22.713" gradientUnits="userSpaceOnUse">
<stop stop-color="#1281A8"/>
<stop offset="1" stop-color="#053E51"/>
</linearGradient>
<linearGradient id="paint1_linear_1681_1584" x1="1.9273" y1="10.4281" x2="15.6716" y2="21.7067" gradientUnits="userSpaceOnUse">
<stop stop-color="#F7D06D"/>
<stop offset="0.0001" stop-color="#DEC366"/>
<stop offset="0.634242" stop-color="#58936A"/>
<stop offset="1" stop-color="#2C7864"/>
</linearGradient>
<linearGradient id="paint2_linear_1681_1584" x1="27.1281" y1="10.1971" x2="15.6764" y2="22.3019" gradientUnits="userSpaceOnUse">
<stop offset="0.160542" stop-color="#1588B0"/>
<stop offset="1" stop-color="#08495D"/>
</linearGradient>
<linearGradient id="paint3_linear_1681_1584" x1="14.5669" y1="2.29808" x2="14.5669" y2="23.0674" gradientUnits="userSpaceOnUse">
<stop offset="0.0885417" stop-color="#4ABB99"/>
<stop offset="0.53125" stop-color="#00ACA9"/>
<stop offset="1" stop-color="#166072"/>
</linearGradient>
<linearGradient id="paint4_linear_1681_1584" x1="12.4306" y1="5.62117" x2="14.0921" y2="22.0586" gradientUnits="userSpaceOnUse">
<stop stop-color="#47C0A1"/>
<stop offset="0.5" stop-color="#038D8A"/>
<stop offset="1" stop-color="#0A5F74"/>
</linearGradient>
<linearGradient id="paint5_linear_1681_1584" x1="6.79348" y1="9.89533" x2="13.9737" y2="23.069" gradientUnits="userSpaceOnUse">
<stop stop-color="#F7D06D"/>
<stop offset="0.489583" stop-color="#96CC7D"/>
<stop offset="1" stop-color="#66BD87"/>
</linearGradient>
</defs>
</svg>
