<svg width="788" height="127" viewBox="0 0 788 127" fill="none" xmlns="http://www.w3.org/2000/svg">
<path d="M11.635 52L0.65 4.615H5.005L11.44 33.215L14.56 47.58H14.95L27.3 4.615H32.695L45.11 47.645H45.5L48.555 33.215L54.99 4.615H59.345L48.36 52H42.64L30.16 9.295H29.835L17.29 52H11.635ZM65.2504 52V4.615H69.0204V25.48H69.2804C70.3637 22.88 72.0104 20.93 74.2204 19.63C76.4737 18.2867 78.922 17.615 81.5654 17.615C83.342 17.615 84.967 17.8967 86.4404 18.46C87.957 18.98 89.257 19.825 90.3404 20.995C91.4237 22.1217 92.2687 23.6167 92.8754 25.48C93.482 27.3 93.7854 29.5317 93.7854 32.175V52H89.9504V32.89C89.9504 30.16 89.6037 27.9067 88.9104 26.13C88.2604 24.3533 87.242 23.0533 85.8554 22.23C84.4687 21.3633 82.692 20.93 80.5254 20.93C78.2287 20.93 76.2137 21.4933 74.4804 22.62C72.747 23.7467 71.4037 25.285 70.4504 27.235C69.497 29.1417 69.0204 31.3517 69.0204 33.865V52H65.2504ZM99.1296 62.855V59.605H102.38C103.463 59.605 104.373 59.4533 105.11 59.15C105.89 58.8467 106.54 58.37 107.06 57.72C107.623 57.07 108.1 56.2467 108.49 55.25L111.025 48.945V50.635L97.0496 18.135H101.21L110.57 41.21L112.325 45.695H112.585L114.275 41.21L123.115 18.135H127.08L112 56.355C111.393 57.8717 110.678 59.1067 109.855 60.06C109.075 61.0133 108.1 61.7067 106.93 62.14C105.803 62.6167 104.438 62.855 102.835 62.855H99.1296ZM160.912 52.52C158.485 52.52 156.275 52.1083 154.282 51.285C152.332 50.4617 150.642 49.2917 149.212 47.775C147.782 46.215 146.677 44.3733 145.897 42.25C145.117 40.1267 144.727 37.765 144.727 35.165C144.727 31.6983 145.399 28.6433 146.742 26C148.085 23.3567 149.97 21.2983 152.397 19.825C154.824 18.3517 157.662 17.615 160.912 17.615C163.295 17.615 165.462 18.0267 167.412 18.85C169.405 19.6733 171.095 20.865 172.482 22.425C173.912 23.9417 175.017 25.7833 175.797 27.95C176.577 30.0733 176.967 32.4567 176.967 35.1C176.967 38.5233 176.295 41.5567 174.952 44.2C173.652 46.8 171.789 48.8367 169.362 50.31C166.979 51.7833 164.162 52.52 160.912 52.52ZM160.847 49.14C163.274 49.14 165.397 48.5767 167.217 47.45C169.08 46.3233 170.51 44.72 171.507 42.64C172.504 40.5167 173.002 38.0033 173.002 35.1C173.002 32.9333 172.72 31.005 172.157 29.315C171.637 27.5817 170.835 26.0867 169.752 24.83C168.712 23.5733 167.434 22.62 165.917 21.97C164.444 21.32 162.775 20.995 160.912 20.995C158.485 20.995 156.34 21.5583 154.477 22.685C152.657 23.8117 151.227 25.4367 150.187 27.56C149.147 29.64 148.627 32.175 148.627 35.165C148.627 37.2883 148.909 39.2167 149.472 40.95C150.035 42.64 150.859 44.0917 151.942 45.305C153.025 46.5183 154.304 47.4717 155.777 48.165C157.294 48.815 158.984 49.14 160.847 49.14ZM196.927 52.52C194.457 52.52 192.29 52.0217 190.427 51.025C188.564 50.0283 187.134 48.5117 186.137 46.475C185.14 44.395 184.642 41.8167 184.642 38.74V18.135H188.477V37.895C188.477 40.2783 188.802 42.315 189.452 44.005C190.102 45.695 191.142 46.995 192.572 47.905C194.002 48.7717 195.844 49.205 198.097 49.205C200.307 49.205 202.257 48.6633 203.947 47.58C205.637 46.4967 206.959 44.9583 207.912 42.965C208.865 40.9283 209.342 38.5883 209.342 35.945V18.135H213.177V52H209.602L209.342 44.46H209.017C208.15 46.93 206.612 48.9017 204.402 50.375C202.235 51.805 199.744 52.52 196.927 52.52ZM223.37 52V18.135H226.75L227.01 24.7H227.205C227.942 22.49 229.264 20.7783 231.17 19.565C233.077 18.3083 235.222 17.68 237.605 17.68C237.995 17.68 238.342 17.7017 238.645 17.745C238.992 17.745 239.317 17.7667 239.62 17.81V21.45C239.36 21.4067 239.035 21.385 238.645 21.385C238.299 21.385 237.952 21.385 237.605 21.385C235.699 21.385 233.987 21.7533 232.47 22.49C230.954 23.2267 229.719 24.31 228.765 25.74C227.855 27.17 227.314 28.8817 227.14 30.875V52H223.37ZM261.715 52V4.615H281.41C283.923 4.615 286.22 4.96166 288.3 5.655C290.38 6.305 292.135 7.30166 293.565 8.645C295.038 9.945 296.165 11.5483 296.945 13.455C297.768 15.3183 298.18 17.4633 298.18 19.89C298.18 22.9667 297.508 25.675 296.165 28.015C294.822 30.3117 292.893 32.11 290.38 33.41C287.91 34.71 284.92 35.36 281.41 35.36L269.45 35.295V28.535L279.98 28.6C281.8 28.6 283.403 28.3183 284.79 27.755C286.22 27.1917 287.347 26.3033 288.17 25.09C288.993 23.8333 289.405 22.2083 289.405 20.215C289.405 18.2217 288.972 16.6183 288.105 15.405C287.282 14.1917 286.177 13.325 284.79 12.805C283.403 12.2417 281.8 11.96 279.98 11.96H269.06L270.295 10.725V52H261.715ZM318.53 52.585C314.977 52.585 311.944 51.8483 309.43 50.375C306.917 48.9017 304.967 46.8433 303.58 44.2C302.237 41.5567 301.565 38.4583 301.565 34.905C301.565 31.2217 302.237 28.0367 303.58 25.35C304.924 22.62 306.852 20.5183 309.365 19.045C311.879 17.5283 314.825 16.77 318.205 16.77C322.149 16.77 325.377 17.6367 327.89 19.37C330.404 21.1033 332.202 23.4433 333.285 26.39C334.412 29.3367 334.78 32.695 334.39 36.465H309.56C309.56 38.545 309.929 40.3217 310.665 41.795C311.445 43.2683 312.507 44.395 313.85 45.175C315.194 45.955 316.754 46.345 318.53 46.345C320.61 46.345 322.365 45.89 323.795 44.98C325.225 44.0267 326.135 42.77 326.525 41.21H334.26C333.957 43.4633 333.09 45.4567 331.66 47.19C330.23 48.88 328.389 50.2017 326.135 51.155C323.882 52.1083 321.347 52.585 318.53 52.585ZM309.56 32.045L308.845 31.005H327.24L326.46 32.045C326.547 29.965 326.222 28.275 325.485 26.975C324.792 25.6317 323.795 24.635 322.495 23.985C321.239 23.335 319.809 23.01 318.205 23.01C316.472 23.01 314.955 23.3783 313.655 24.115C312.399 24.8517 311.402 25.8917 310.665 27.235C309.972 28.5783 309.604 30.1817 309.56 32.045ZM341.098 52V17.42H348.443L348.833 23.205H349.093C349.873 20.995 351.13 19.4133 352.863 18.46C354.64 17.4633 356.655 16.965 358.908 16.965C359.298 16.965 359.645 16.965 359.948 16.965C360.295 16.965 360.62 16.965 360.923 16.965V24.635C360.663 24.635 360.338 24.635 359.948 24.635C359.601 24.5917 359.211 24.57 358.778 24.57C356.698 24.57 354.965 24.9167 353.578 25.61C352.191 26.26 351.13 27.2133 350.393 28.47C349.7 29.7267 349.31 31.265 349.223 33.085V52H341.098ZM379.182 52.65C374.285 52.65 370.494 51.5883 367.807 49.465C365.164 47.3417 363.864 44.5683 363.907 41.145H371.902C371.945 43.225 372.66 44.7417 374.047 45.695C375.434 46.605 377.21 47.06 379.377 47.06C381.587 47.06 383.255 46.67 384.382 45.89C385.552 45.0667 386.137 43.9833 386.137 42.64C386.137 41.47 385.855 40.5817 385.292 39.975C384.729 39.325 383.884 38.8483 382.757 38.545C381.63 38.1983 380.179 37.9167 378.402 37.7C376.452 37.3967 374.654 37.05 373.007 36.66C371.36 36.2267 369.93 35.6417 368.717 34.905C367.504 34.1683 366.55 33.1933 365.857 31.98C365.164 30.7667 364.817 29.25 364.817 27.43C364.817 25.09 365.424 23.14 366.637 21.58C367.894 19.9767 369.605 18.785 371.772 18.005C373.939 17.1817 376.474 16.77 379.377 16.77C382.28 16.77 384.794 17.2033 386.917 18.07C389.04 18.9367 390.665 20.1717 391.792 21.775C392.962 23.3783 393.569 25.3283 393.612 27.625H385.682C385.639 26.4117 385.335 25.4367 384.772 24.7C384.252 23.92 383.515 23.335 382.562 22.945C381.609 22.555 380.482 22.36 379.182 22.36C377.145 22.36 375.585 22.75 374.502 23.53C373.462 24.31 372.942 25.3283 372.942 26.585C372.942 27.5817 373.224 28.3833 373.787 28.99C374.35 29.5967 375.217 30.0733 376.387 30.42C377.557 30.7233 379.052 31.005 380.872 31.265C382.649 31.4817 384.339 31.785 385.942 32.175C387.589 32.565 389.04 33.1283 390.297 33.865C391.554 34.6017 392.529 35.62 393.222 36.92C393.959 38.1767 394.327 39.8233 394.327 41.86C394.327 45.5433 392.962 48.2733 390.232 50.05C387.545 51.7833 383.862 52.65 379.182 52.65ZM416.543 52.585C413.943 52.585 411.603 52.195 409.523 51.415C407.443 50.5917 405.623 49.4 404.063 47.84C402.546 46.28 401.376 44.395 400.553 42.185C399.773 39.975 399.383 37.4833 399.383 34.71C399.383 31.1567 400.055 28.0367 401.398 25.35C402.785 22.6633 404.756 20.5617 407.313 19.045C409.87 17.5283 412.946 16.77 416.543 16.77C419.1 16.77 421.418 17.1817 423.498 18.005C425.578 18.8283 427.355 20.02 428.828 21.58C430.345 23.14 431.515 25.025 432.338 27.235C433.161 29.4017 433.573 31.8933 433.573 34.71C433.573 38.22 432.88 41.3183 431.493 44.005C430.15 46.6917 428.2 48.7933 425.643 50.31C423.13 51.8267 420.096 52.585 416.543 52.585ZM416.478 45.89C418.255 45.89 419.815 45.4783 421.158 44.655C422.501 43.7883 423.541 42.5317 424.278 40.885C425.015 39.195 425.383 37.1367 425.383 34.71C425.383 32.89 425.166 31.2867 424.733 29.9C424.343 28.47 423.758 27.2783 422.978 26.325C422.198 25.3717 421.266 24.6567 420.183 24.18C419.1 23.7033 417.886 23.465 416.543 23.465C414.766 23.465 413.185 23.8983 411.798 24.765C410.455 25.5883 409.415 26.845 408.678 28.535C407.941 30.1817 407.573 32.24 407.573 34.71C407.573 36.53 407.768 38.155 408.158 39.585C408.591 40.9717 409.198 42.1417 409.978 43.095C410.758 44.005 411.69 44.6983 412.773 45.175C413.9 45.6517 415.135 45.89 416.478 45.89ZM440.122 52V17.42H447.922L448.247 23.985H448.637C449.633 21.5583 451.15 19.76 453.187 18.59C455.223 17.3767 457.498 16.77 460.012 16.77C461.745 16.77 463.348 17.0517 464.822 17.615C466.338 18.135 467.638 18.98 468.722 20.15C469.848 21.2767 470.715 22.7717 471.322 24.635C471.972 26.455 472.297 28.665 472.297 31.265V52H464.172V33.02C464.172 30.8533 463.912 29.0767 463.392 27.69C462.872 26.26 462.07 25.1983 460.987 24.505C459.947 23.8117 458.582 23.465 456.892 23.465C455.072 23.465 453.512 23.8983 452.212 24.765C450.955 25.6317 449.98 26.78 449.287 28.21C448.593 29.64 448.247 31.2217 448.247 32.955V52H440.122ZM492.448 52.585C490.368 52.585 488.461 52.2167 486.728 51.48C485.038 50.7 483.565 49.5517 482.308 48.035C481.095 46.5183 480.163 44.655 479.513 42.445C478.863 40.1917 478.538 37.6133 478.538 34.71C478.538 30.7667 479.101 27.4733 480.228 24.83C481.398 22.1433 483.023 20.1283 485.103 18.785C487.226 17.4417 489.675 16.77 492.448 16.77C494.355 16.77 496.045 17.0733 497.518 17.68C499.035 18.2433 500.335 19.045 501.418 20.085C502.501 21.125 503.325 22.36 503.888 23.79H504.343L504.668 17.42H512.468V52H504.343V45.565H503.888C503.065 47.6883 501.656 49.4 499.663 50.7C497.67 51.9567 495.265 52.585 492.448 52.585ZM495.503 45.955C497.453 45.955 499.056 45.5 500.313 44.59C501.613 43.68 502.588 42.51 503.238 41.08C503.888 39.6067 504.213 38.0683 504.213 36.465V32.89C504.213 31.2433 503.888 29.705 503.238 28.275C502.588 26.8017 501.613 25.6317 500.313 24.765C499.056 23.855 497.453 23.4 495.503 23.4C493.77 23.4 492.253 23.8117 490.953 24.635C489.653 25.4583 488.635 26.715 487.898 28.405C487.161 30.0517 486.793 32.1533 486.793 34.71C486.793 37.18 487.161 39.26 487.898 40.95C488.635 42.64 489.653 43.8967 490.953 44.72C492.253 45.5433 493.77 45.955 495.503 45.955ZM521.181 52V4.615H529.306V52H521.181ZM558.656 52L548.386 4.615H557.876L562.751 29.64L565.091 42.575H565.546L574.256 4.615H584.916L593.756 42.705H594.211L596.421 29.705L601.166 4.615H610.656L600.386 52H588.491L579.781 15.99H579.326L570.486 52H558.656ZM628.487 52.585C624.933 52.585 621.9 51.8483 619.387 50.375C616.873 48.9017 614.923 46.8433 613.537 44.2C612.193 41.5567 611.522 38.4583 611.522 34.905C611.522 31.2217 612.193 28.0367 613.537 25.35C614.88 22.62 616.808 20.5183 619.322 19.045C621.835 17.5283 624.782 16.77 628.162 16.77C632.105 16.77 635.333 17.6367 637.847 19.37C640.36 21.1033 642.158 23.4433 643.242 26.39C644.368 29.3367 644.737 32.695 644.347 36.465H619.517C619.517 38.545 619.885 40.3217 620.622 41.795C621.402 43.2683 622.463 44.395 623.807 45.175C625.15 45.955 626.71 46.345 628.487 46.345C630.567 46.345 632.322 45.89 633.752 44.98C635.182 44.0267 636.092 42.77 636.482 41.21H644.217C643.913 43.4633 643.047 45.4567 641.617 47.19C640.187 48.88 638.345 50.2017 636.092 51.155C633.838 52.1083 631.303 52.585 628.487 52.585ZM619.517 32.045L618.802 31.005H637.197L636.417 32.045C636.503 29.965 636.178 28.275 635.442 26.975C634.748 25.6317 633.752 24.635 632.452 23.985C631.195 23.335 629.765 23.01 628.162 23.01C626.428 23.01 624.912 23.3783 623.612 24.115C622.355 24.8517 621.358 25.8917 620.622 27.235C619.928 28.5783 619.56 30.1817 619.517 32.045ZM663.454 52.585C661.374 52.585 659.467 52.2167 657.734 51.48C656.044 50.7 654.571 49.5517 653.314 48.035C652.101 46.5183 651.169 44.655 650.519 42.445C649.869 40.1917 649.544 37.6133 649.544 34.71C649.544 30.7667 650.107 27.4733 651.234 24.83C652.404 22.1433 654.029 20.1283 656.109 18.785C658.232 17.4417 660.681 16.77 663.454 16.77C665.361 16.77 667.051 17.0733 668.524 17.68C670.041 18.2433 671.341 19.045 672.424 20.085C673.507 21.125 674.331 22.36 674.894 23.79H675.349L675.674 17.42H683.474V52H675.349V45.565H674.894C674.071 47.6883 672.662 49.4 670.669 50.7C668.676 51.9567 666.271 52.585 663.454 52.585ZM666.509 45.955C668.459 45.955 670.062 45.5 671.319 44.59C672.619 43.68 673.594 42.51 674.244 41.08C674.894 39.6067 675.219 38.0683 675.219 36.465V32.89C675.219 31.2433 674.894 29.705 674.244 28.275C673.594 26.8017 672.619 25.6317 671.319 24.765C670.062 23.855 668.459 23.4 666.509 23.4C664.776 23.4 663.259 23.8117 661.959 24.635C660.659 25.4583 659.641 26.715 658.904 28.405C658.167 30.0517 657.799 32.1533 657.799 34.71C657.799 37.18 658.167 39.26 658.904 40.95C659.641 42.64 660.659 43.8967 661.959 44.72C663.259 45.5433 664.776 45.955 666.509 45.955ZM692.187 52V4.615H700.312V52H692.187ZM719.797 52C717.673 52 716.005 51.6967 714.792 51.09C713.622 50.44 712.798 49.53 712.322 48.36C711.845 47.19 711.607 45.7817 711.607 44.135V23.985H705.237V17.42H711.607V7.67L719.667 6.825V17.42H727.012V23.985H719.667V42.64C719.667 43.7233 719.905 44.46 720.382 44.85C720.858 45.1967 721.595 45.37 722.592 45.37H727.012V52H719.797ZM733.256 52V4.615H741.381V23.985H741.771C742.768 21.5583 744.285 19.76 746.321 18.59C748.358 17.3767 750.633 16.77 753.146 16.77C754.88 16.77 756.483 17.0517 757.956 17.615C759.473 18.135 760.773 18.98 761.856 20.15C762.983 21.2767 763.85 22.7717 764.456 24.635C765.106 26.455 765.431 28.665 765.431 31.265V52H757.306V33.02C757.306 30.8533 757.046 29.0767 756.526 27.69C756.006 26.26 755.205 25.1983 754.121 24.505C753.081 23.8117 751.716 23.465 750.026 23.465C748.206 23.465 746.646 23.8983 745.346 24.765C744.09 25.6317 743.115 26.78 742.421 28.21C741.728 29.64 741.381 31.2217 741.381 32.955V52H733.256ZM4.355 115V80.42H12.22L12.48 86.985H12.87C13.8233 84.5583 15.2967 82.76 17.29 81.59C19.2833 80.3767 21.4717 79.77 23.855 79.77C26.3683 79.77 28.6217 80.3767 30.615 81.59C32.6083 82.8033 34.06 84.84 34.97 87.7H35.49C36.4 85.0567 37.9167 83.085 40.04 81.785C42.1633 80.4417 44.5683 79.77 47.255 79.77C49.5517 79.77 51.5883 80.2467 53.365 81.2C55.185 82.1533 56.615 83.6917 57.655 85.815C58.695 87.9383 59.215 90.755 59.215 94.265V115H51.09V96.02C51.09 93.8533 50.8517 92.0767 50.375 90.69C49.8983 89.26 49.14 88.1983 48.1 87.505C47.06 86.8117 45.7383 86.465 44.135 86.465C42.4017 86.465 40.9067 86.8983 39.65 87.765C38.4367 88.6317 37.505 89.78 36.855 91.21C36.205 92.64 35.88 94.2217 35.88 95.955V115H27.69V96.02C27.69 93.8533 27.4517 92.0767 26.975 90.69C26.4983 89.26 25.74 88.1983 24.7 87.505C23.7033 86.8117 22.4033 86.465 20.8 86.465C19.0667 86.465 17.5717 86.8983 16.315 87.765C15.1017 88.6317 14.1483 89.78 13.455 91.21C12.805 92.64 12.48 94.2217 12.48 95.955V115H4.355ZM79.3427 115.585C77.2627 115.585 75.356 115.217 73.6227 114.48C71.9327 113.7 70.4593 112.552 69.2027 111.035C67.9893 109.518 67.0577 107.655 66.4077 105.445C65.7577 103.192 65.4327 100.613 65.4327 97.71C65.4327 93.7667 65.996 90.4733 67.1227 87.83C68.2927 85.1433 69.9177 83.1283 71.9977 81.785C74.121 80.4417 76.5693 79.77 79.3427 79.77C81.2493 79.77 82.9393 80.0733 84.4127 80.68C85.9293 81.2433 87.2293 82.045 88.3127 83.085C89.396 84.125 90.2193 85.36 90.7827 86.79H91.2377L91.5627 80.42H99.3627V115H91.2377V108.565H90.7827C89.9593 110.688 88.551 112.4 86.5577 113.7C84.5643 114.957 82.1593 115.585 79.3427 115.585ZM82.3977 108.955C84.3477 108.955 85.951 108.5 87.2077 107.59C88.5077 106.68 89.4827 105.51 90.1327 104.08C90.7827 102.607 91.1077 101.068 91.1077 99.465V95.89C91.1077 94.2433 90.7827 92.705 90.1327 91.275C89.4827 89.8017 88.5077 88.6317 87.2077 87.765C85.951 86.855 84.3477 86.4 82.3977 86.4C80.6643 86.4 79.1477 86.8117 77.8477 87.635C76.5477 88.4583 75.5293 89.715 74.7927 91.405C74.056 93.0517 73.6877 95.1533 73.6877 97.71C73.6877 100.18 74.056 102.26 74.7927 103.95C75.5293 105.64 76.5477 106.897 77.8477 107.72C79.1477 108.543 80.6643 108.955 82.3977 108.955ZM108.076 115V80.42H115.876L116.201 86.985H116.591C117.587 84.5583 119.104 82.76 121.141 81.59C123.177 80.3767 125.452 79.77 127.966 79.77C129.699 79.77 131.302 80.0517 132.776 80.615C134.292 81.135 135.592 81.98 136.676 83.15C137.802 84.2767 138.669 85.7717 139.276 87.635C139.926 89.455 140.251 91.665 140.251 94.265V115H132.126V96.02C132.126 93.8533 131.866 92.0767 131.346 90.69C130.826 89.26 130.024 88.1983 128.941 87.505C127.901 86.8117 126.536 86.465 124.846 86.465C123.026 86.465 121.466 86.8983 120.166 87.765C118.909 88.6317 117.934 89.78 117.241 91.21C116.547 92.64 116.201 94.2217 116.201 95.955V115H108.076ZM160.402 115.585C158.322 115.585 156.416 115.217 154.682 114.48C152.992 113.7 151.519 112.552 150.262 111.035C149.049 109.518 148.117 107.655 147.467 105.445C146.817 103.192 146.492 100.613 146.492 97.71C146.492 93.7667 147.056 90.4733 148.182 87.83C149.352 85.1433 150.977 83.1283 153.057 81.785C155.181 80.4417 157.629 79.77 160.402 79.77C162.309 79.77 163.999 80.0733 165.472 80.68C166.989 81.2433 168.289 82.045 169.372 83.085C170.456 84.125 171.279 85.36 171.842 86.79H172.297L172.622 80.42H180.422V115H172.297V108.565H171.842C171.019 110.688 169.611 112.4 167.617 113.7C165.624 114.957 163.219 115.585 160.402 115.585ZM163.457 108.955C165.407 108.955 167.011 108.5 168.267 107.59C169.567 106.68 170.542 105.51 171.192 104.08C171.842 102.607 172.167 101.068 172.167 99.465V95.89C172.167 94.2433 171.842 92.705 171.192 91.275C170.542 89.8017 169.567 88.6317 168.267 87.765C167.011 86.855 165.407 86.4 163.457 86.4C161.724 86.4 160.207 86.8117 158.907 87.635C157.607 88.4583 156.589 89.715 155.852 91.405C155.116 93.0517 154.747 95.1533 154.747 97.71C154.747 100.18 155.116 102.26 155.852 103.95C156.589 105.64 157.607 106.897 158.907 107.72C160.207 108.543 161.724 108.955 163.457 108.955ZM202.859 126.505C199.956 126.505 197.443 126.072 195.319 125.205C193.196 124.382 191.506 123.19 190.249 121.63C189.036 120.113 188.343 118.337 188.169 116.3H195.969C196.143 117.167 196.533 117.925 197.139 118.575C197.789 119.225 198.613 119.723 199.609 120.07C200.606 120.46 201.754 120.655 203.054 120.655C205.004 120.655 206.608 120.373 207.864 119.81C209.164 119.247 210.118 118.38 210.724 117.21C211.374 116.04 211.699 114.523 211.699 112.66V106.29H211.244C210.508 108.283 209.164 109.908 207.214 111.165C205.264 112.378 202.968 112.985 200.324 112.985C198.244 112.985 196.359 112.617 194.669 111.88C193.023 111.143 191.593 110.082 190.379 108.695C189.166 107.265 188.234 105.532 187.584 103.495C186.934 101.415 186.609 99.0317 186.609 96.345C186.609 92.7483 187.173 89.7367 188.299 87.31C189.469 84.84 191.094 82.9767 193.174 81.72C195.254 80.42 197.681 79.77 200.454 79.77C203.054 79.77 205.308 80.3767 207.214 81.59C209.164 82.8033 210.508 84.385 211.244 86.335H211.699L211.959 80.42H219.824V111.36C219.824 114.133 219.413 116.473 218.589 118.38C217.809 120.33 216.661 121.89 215.144 123.06C213.628 124.273 211.829 125.14 209.749 125.66C207.713 126.223 205.416 126.505 202.859 126.505ZM203.249 106.68C205.069 106.68 206.586 106.29 207.799 105.51C209.056 104.687 210.009 103.647 210.659 102.39C211.309 101.09 211.656 99.7683 211.699 98.425V94.265C211.656 92.8783 211.309 91.5783 210.659 90.365C210.009 89.1083 209.078 88.09 207.864 87.31C206.651 86.4867 205.134 86.075 203.314 86.075C201.624 86.075 200.129 86.465 198.829 87.245C197.573 88.025 196.598 89.1733 195.904 90.69C195.211 92.2067 194.864 94.0917 194.864 96.345C194.864 98.6417 195.211 100.57 195.904 102.13C196.641 103.647 197.638 104.795 198.894 105.575C200.151 106.312 201.603 106.68 203.249 106.68ZM242.676 115.585C239.123 115.585 236.089 114.848 233.576 113.375C231.063 111.902 229.113 109.843 227.726 107.2C226.383 104.557 225.711 101.458 225.711 97.905C225.711 94.2217 226.383 91.0367 227.726 88.35C229.069 85.62 230.998 83.5183 233.511 82.045C236.024 80.5283 238.971 79.77 242.351 79.77C246.294 79.77 249.523 80.6367 252.036 82.37C254.549 84.1033 256.348 86.4433 257.431 89.39C258.558 92.3367 258.926 95.695 258.536 99.465H233.706C233.706 101.545 234.074 103.322 234.811 104.795C235.591 106.268 236.653 107.395 237.996 108.175C239.339 108.955 240.899 109.345 242.676 109.345C244.756 109.345 246.511 108.89 247.941 107.98C249.371 107.027 250.281 105.77 250.671 104.21H258.406C258.103 106.463 257.236 108.457 255.806 110.19C254.376 111.88 252.534 113.202 250.281 114.155C248.028 115.108 245.493 115.585 242.676 115.585ZM233.706 95.045L232.991 94.005H251.386L250.606 95.045C250.693 92.965 250.368 91.275 249.631 89.975C248.938 88.6317 247.941 87.635 246.641 86.985C245.384 86.335 243.954 86.01 242.351 86.01C240.618 86.01 239.101 86.3783 237.801 87.115C236.544 87.8517 235.548 88.8917 234.811 90.235C234.118 91.5783 233.749 93.1817 233.706 95.045ZM265.244 115V80.42H273.109L273.369 86.985H273.759C274.712 84.5583 276.185 82.76 278.179 81.59C280.172 80.3767 282.36 79.77 284.744 79.77C287.257 79.77 289.51 80.3767 291.504 81.59C293.497 82.8033 294.949 84.84 295.859 87.7H296.379C297.289 85.0567 298.805 83.085 300.929 81.785C303.052 80.4417 305.457 79.77 308.144 79.77C310.44 79.77 312.477 80.2467 314.254 81.2C316.074 82.1533 317.504 83.6917 318.544 85.815C319.584 87.9383 320.104 90.755 320.104 94.265V115H311.979V96.02C311.979 93.8533 311.74 92.0767 311.264 90.69C310.787 89.26 310.029 88.1983 308.989 87.505C307.949 86.8117 306.627 86.465 305.024 86.465C303.29 86.465 301.795 86.8983 300.539 87.765C299.325 88.6317 298.394 89.78 297.744 91.21C297.094 92.64 296.769 94.2217 296.769 95.955V115H288.579V96.02C288.579 93.8533 288.34 92.0767 287.864 90.69C287.387 89.26 286.629 88.1983 285.589 87.505C284.592 86.8117 283.292 86.465 281.689 86.465C279.955 86.465 278.46 86.8983 277.204 87.765C275.99 88.6317 275.037 89.78 274.344 91.21C273.694 92.64 273.369 94.2217 273.369 95.955V115H265.244ZM343.286 115.585C339.733 115.585 336.7 114.848 334.186 113.375C331.673 111.902 329.723 109.843 328.336 107.2C326.993 104.557 326.321 101.458 326.321 97.905C326.321 94.2217 326.993 91.0367 328.336 88.35C329.68 85.62 331.608 83.5183 334.121 82.045C336.635 80.5283 339.581 79.77 342.961 79.77C346.905 79.77 350.133 80.6367 352.646 82.37C355.16 84.1033 356.958 86.4433 358.041 89.39C359.168 92.3367 359.536 95.695 359.146 99.465H334.316C334.316 101.545 334.685 103.322 335.421 104.795C336.201 106.268 337.263 107.395 338.606 108.175C339.95 108.955 341.51 109.345 343.286 109.345C345.366 109.345 347.121 108.89 348.551 107.98C349.981 107.027 350.891 105.77 351.281 104.21H359.016C358.713 106.463 357.846 108.457 356.416 110.19C354.986 111.88 353.145 113.202 350.891 114.155C348.638 115.108 346.103 115.585 343.286 115.585ZM334.316 95.045L333.601 94.005H351.996L351.216 95.045C351.303 92.965 350.978 91.275 350.241 89.975C349.548 88.6317 348.551 87.635 347.251 86.985C345.995 86.335 344.565 86.01 342.961 86.01C341.228 86.01 339.711 86.3783 338.411 87.115C337.155 87.8517 336.158 88.8917 335.421 90.235C334.728 91.5783 334.36 93.1817 334.316 95.045ZM365.854 115V80.42H373.654L373.979 86.985H374.369C375.366 84.5583 376.882 82.76 378.919 81.59C380.956 80.3767 383.231 79.77 385.744 79.77C387.477 79.77 389.081 80.0517 390.554 80.615C392.071 81.135 393.371 81.98 394.454 83.15C395.581 84.2767 396.447 85.7717 397.054 87.635C397.704 89.455 398.029 91.665 398.029 94.265V115H389.904V96.02C389.904 93.8533 389.644 92.0767 389.124 90.69C388.604 89.26 387.802 88.1983 386.719 87.505C385.679 86.8117 384.314 86.465 382.624 86.465C380.804 86.465 379.244 86.8983 377.944 87.765C376.687 88.6317 375.712 89.78 375.019 91.21C374.326 92.64 373.979 94.2217 373.979 95.955V115H365.854ZM416.252 115C414.129 115 412.46 114.697 411.247 114.09C410.077 113.44 409.254 112.53 408.777 111.36C408.3 110.19 408.062 108.782 408.062 107.135V86.985H401.692V80.42H408.062V70.67L416.122 69.825V80.42H423.467V86.985H416.122V105.64C416.122 106.723 416.36 107.46 416.837 107.85C417.314 108.197 418.05 108.37 419.047 108.37H423.467V115H416.252ZM445.856 115V81.135H449.431L449.626 88.48H449.886C450.969 85.88 452.594 83.93 454.761 82.63C456.927 81.2867 459.332 80.615 461.976 80.615C464.619 80.615 466.937 81.265 468.931 82.565C470.967 83.865 472.397 86.01 473.221 89H473.741C474.824 86.2267 476.492 84.1467 478.746 82.76C480.999 81.33 483.534 80.615 486.351 80.615C488.647 80.615 490.706 81.1133 492.526 82.11C494.346 83.0633 495.754 84.6017 496.751 86.725C497.791 88.8483 498.311 91.665 498.311 95.175V115H494.541V95.89C494.541 93.16 494.194 90.9067 493.501 89.13C492.851 87.3533 491.832 86.0533 490.446 85.23C489.102 84.3633 487.369 83.93 485.246 83.93C482.992 83.93 481.021 84.4933 479.331 85.62C477.641 86.7467 476.319 88.285 475.366 90.235C474.456 92.1417 474.001 94.3517 474.001 96.865V115H470.166V95.89C470.166 93.16 469.819 90.9067 469.126 89.13C468.432 87.3533 467.414 86.0533 466.071 85.23C464.727 84.3633 463.016 83.93 460.936 83.93C458.639 83.93 456.646 84.4933 454.956 85.62C453.266 86.7467 451.944 88.285 450.991 90.235C450.081 92.1417 449.626 94.3517 449.626 96.865V115H445.856ZM520.077 115.52C517.997 115.52 516.091 115.13 514.357 114.35C512.624 113.57 511.129 112.443 509.872 110.97C508.616 109.453 507.641 107.612 506.947 105.445C506.297 103.278 505.972 100.808 505.972 98.035C505.972 94.3517 506.557 91.21 507.727 88.61C508.941 86.01 510.609 84.0167 512.732 82.63C514.856 81.2433 517.304 80.55 520.077 80.55C522.114 80.55 523.956 80.8967 525.602 81.59C527.292 82.24 528.722 83.1717 529.892 84.385C531.062 85.555 531.907 86.9417 532.427 88.545H532.687L532.882 81.135H536.522V115H532.687V107.46H532.427C531.604 109.887 530.109 111.837 527.942 113.31C525.776 114.783 523.154 115.52 520.077 115.52ZM521.182 112.205C523.609 112.205 525.667 111.642 527.357 110.515C529.091 109.345 530.391 107.85 531.257 106.03C532.167 104.21 532.622 102.26 532.622 100.18V95.825C532.622 93.745 532.167 91.795 531.257 89.975C530.391 88.155 529.091 86.6817 527.357 85.555C525.667 84.385 523.609 83.8 521.182 83.8C518.929 83.8 516.957 84.3633 515.267 85.49C513.577 86.5733 512.256 88.1767 511.302 90.3C510.392 92.38 509.937 94.9583 509.937 98.035C509.937 101.025 510.392 103.582 511.302 105.705C512.256 107.828 513.577 109.453 515.267 110.58C516.957 111.663 518.929 112.205 521.182 112.205ZM555.162 115C553.732 115 552.584 114.805 551.717 114.415C550.851 113.982 550.222 113.332 549.832 112.465C549.486 111.598 549.312 110.515 549.312 109.215V84.32H542.487V81.135H549.312V70.735L553.082 70.085V81.135H567.902V70.735L571.672 70.085V81.135H579.862V84.32H571.672V108.5C571.672 109.8 571.889 110.667 572.322 111.1C572.756 111.49 573.601 111.685 574.857 111.685H579.862V115H573.752C572.322 115 571.174 114.805 570.307 114.415C569.441 113.982 568.812 113.332 568.422 112.465C568.076 111.598 567.902 110.515 567.902 109.215V84.32H553.082V108.5C553.082 109.8 553.299 110.667 553.732 111.1C554.166 111.49 555.011 111.685 556.267 111.685H561.272V115H555.162ZM599.463 115.52C596.256 115.52 593.461 114.805 591.078 113.375C588.738 111.945 586.918 109.93 585.618 107.33C584.318 104.687 583.668 101.632 583.668 98.165C583.668 94.6117 584.296 91.535 585.553 88.935C586.809 86.2917 588.608 84.255 590.948 82.825C593.288 81.3517 596.083 80.615 599.333 80.615C602.843 80.615 605.746 81.395 608.043 82.955C610.383 84.515 612.051 86.66 613.048 89.39C614.088 92.12 614.456 95.1967 614.153 98.62H587.503C587.546 101.523 588.066 103.993 589.062 106.03C590.059 108.067 591.446 109.627 593.223 110.71C595.043 111.793 597.123 112.335 599.463 112.335C602.366 112.335 604.749 111.663 606.613 110.32C608.519 108.933 609.733 107.113 610.253 104.86H614.023C613.676 107.027 612.831 108.912 611.488 110.515C610.144 112.075 608.433 113.31 606.353 114.22C604.316 115.087 602.019 115.52 599.463 115.52ZM587.568 96.15L587.113 95.76H610.838L610.448 96.345C610.491 93.5283 610.036 91.21 609.083 89.39C608.173 87.5267 606.873 86.14 605.183 85.23C603.493 84.2767 601.521 83.8 599.268 83.8C596.971 83.8 594.956 84.2983 593.223 85.295C591.533 86.2917 590.189 87.7217 589.193 89.585C588.239 91.405 587.698 93.5933 587.568 96.15ZM622.257 115V81.135H625.637L625.897 87.7H626.092C626.829 85.49 628.151 83.7783 630.057 82.565C631.964 81.3083 634.109 80.68 636.492 80.68C636.882 80.68 637.229 80.7017 637.532 80.745C637.879 80.745 638.204 80.7667 638.507 80.81V84.45C638.247 84.4067 637.922 84.385 637.532 84.385C637.186 84.385 636.839 84.385 636.492 84.385C634.586 84.385 632.874 84.7533 631.357 85.49C629.841 86.2267 628.606 87.31 627.652 88.74C626.742 90.17 626.201 91.8817 626.027 93.875V115H622.257ZM655.139 115.65C652.279 115.65 649.83 115.195 647.794 114.285C645.8 113.332 644.262 112.032 643.179 110.385C642.139 108.695 641.619 106.723 641.619 104.47H645.389C645.389 107.243 646.299 109.302 648.119 110.645C649.939 111.945 652.3 112.595 655.204 112.595C658.15 112.595 660.404 112.032 661.964 110.905C663.524 109.778 664.304 108.197 664.304 106.16C664.304 104.687 663.979 103.517 663.329 102.65C662.679 101.783 661.682 101.112 660.339 100.635C658.995 100.158 657.219 99.7683 655.009 99.465C652.279 99.0317 649.982 98.49 648.119 97.84C646.299 97.1467 644.912 96.1933 643.959 94.98C643.005 93.7667 642.529 92.1417 642.529 90.105C642.529 88.155 643.049 86.4867 644.089 85.1C645.172 83.67 646.645 82.5433 648.509 81.72C650.372 80.8967 652.539 80.485 655.009 80.485C657.652 80.485 659.905 80.9183 661.769 81.785C663.632 82.6517 665.062 83.865 666.059 85.425C667.055 86.985 667.554 88.8483 667.554 91.015H663.784C663.74 89.2383 663.35 87.8083 662.614 86.725C661.877 85.6417 660.859 84.84 659.559 84.32C658.259 83.8 656.742 83.54 655.009 83.54C652.279 83.54 650.155 84.1033 648.639 85.23C647.122 86.3567 646.364 87.8517 646.364 89.715C646.364 91.0583 646.71 92.1633 647.404 93.03C648.097 93.8533 649.159 94.5033 650.589 94.98C652.062 95.4133 653.882 95.8033 656.049 96.15C657.912 96.41 659.58 96.7567 661.054 97.19C662.527 97.58 663.805 98.1433 664.889 98.88C665.972 99.5733 666.795 100.483 667.359 101.61C667.922 102.737 668.204 104.145 668.204 105.835C668.204 108.998 666.99 111.425 664.564 113.115C662.18 114.805 659.039 115.65 655.139 115.65Z" fill="white"/>
</svg>
