<svg width="690" height="391" viewBox="0 0 690 391" fill="none" xmlns="http://www.w3.org/2000/svg">
<g clip-path="url(#clip0_3407_31447)">
<rect width="690" height="391" fill="url(#paint0_linear_3407_31447)"/>
<g opacity="0.7" filter="url(#filter0_f_3407_31447)">
<rect x="180" y="87" width="59" height="336" fill="#262626"/>
</g>
<rect width="5.74137" height="58.5281" rx="2.29522" transform="matrix(-1 0 0 1 441 216.34)" fill="url(#paint1_linear_3407_31447)"/>
<rect width="5.74137" height="56.2329" rx="1.14761" transform="matrix(-1 0 0 1 439.855 217.488)" fill="url(#paint2_linear_3407_31447)"/>
<rect width="5.82307" height="38.9193" rx="2.29522" transform="matrix(1 -6.8175e-08 -1.12105e-07 -1 190.008 308.859)" fill="url(#paint3_linear_3407_31447)"/>
<rect width="5.82307" height="36.7369" rx="1.14761" transform="matrix(1 -5.67722e-08 -1.34621e-07 -1 191.102 307.77)" fill="url(#paint4_linear_3407_31447)"/>
<rect width="5.82307" height="38.1918" rx="2.29522" transform="matrix(1 -6.8175e-08 -1.12105e-07 -1 190.008 254.664)" fill="url(#paint5_linear_3407_31447)"/>
<rect width="5.82307" height="16.7317" rx="2.29522" transform="matrix(1 -6.8175e-08 -1.12105e-07 -1 190.367 202.648)" fill="url(#paint6_linear_3407_31447)"/>
<rect width="5.82307" height="36.7369" rx="1.14761" transform="matrix(1 -5.67722e-08 -1.34621e-07 -1 191.098 253.938)" fill="url(#paint7_linear_3407_31447)"/>
<rect width="5.82307" height="14.5493" rx="1.14761" transform="matrix(1 -4.1633e-08 -1.83574e-07 -1 191.461 201.559)" fill="url(#paint8_linear_3407_31447)"/>
<rect x="192.684" y="66" width="245.589" height="492.325" rx="43.0354" fill="black"/>
<rect x="193.832" y="67.1484" width="243.293" height="490.03" rx="42.4616" fill="url(#paint9_linear_3407_31447)"/>
<rect x="194.867" y="68.1641" width="240.998" height="487.734" rx="41.314" fill="black"/>
<rect x="200.82" y="74.1133" width="228.832" height="475.57" rx="36.8549" fill="white"/>
<g clip-path="url(#clip1_3407_31447)">
<rect x="200.277" y="80.0664" width="229.363" height="500.919" rx="32.457" fill="white"/>
<g clip-path="url(#clip2_3407_31447)">
<path opacity="0.35" fill-rule="evenodd" clip-rule="evenodd" d="M406.003 92.6992C405.39 92.6992 405.147 92.7403 404.896 92.8577C404.685 92.9568 404.521 93.1007 404.407 93.286C404.273 93.5055 404.227 93.7182 404.227 94.256V96.6544C404.227 97.1922 404.273 97.4049 404.407 97.6244C404.521 97.8098 404.685 97.9536 404.896 98.0527C405.147 98.1701 405.39 98.2112 406.003 98.2112H415.235C415.849 98.2112 416.091 98.1701 416.342 98.0527C416.553 97.9536 416.718 97.8098 416.831 97.6244C416.965 97.4049 417.011 97.1922 417.011 96.6544V94.256C417.011 93.7182 416.965 93.5055 416.831 93.286C416.718 93.1007 416.553 92.9568 416.342 92.8577C416.091 92.7403 415.849 92.6992 415.235 92.6992H406.003Z" stroke="black" stroke-width="0.533417"/>
<path opacity="0.4" d="M417.926 94.3867V96.5204C418.416 96.3397 418.734 95.9193 418.734 95.4536C418.734 94.9878 418.416 94.5674 417.926 94.3867Z" fill="black"/>
<path d="M406.177 93.5H415.055C415.416 93.5 415.548 93.533 415.68 93.595C415.812 93.657 415.916 93.7479 415.987 93.8638C416.058 93.9797 416.095 94.0947 416.095 94.4117V96.5C416.095 96.817 416.058 96.932 415.987 97.0479C415.916 97.1638 415.812 97.2547 415.68 97.3167C415.548 97.3787 415.416 97.4117 415.055 97.4117H406.177C405.815 97.4117 405.684 97.3787 405.552 97.3167C405.42 97.2547 405.316 97.1638 405.245 97.0479C405.174 96.932 405.137 96.817 405.137 96.5V94.4117C405.137 94.0947 405.174 93.9797 405.245 93.8638C405.316 93.7479 405.42 93.657 405.552 93.595C405.684 93.533 405.815 93.5 406.177 93.5Z" fill="black"/>
<path d="M396.215 93.6522C397.569 93.6522 398.872 94.1078 399.853 94.9248C399.927 94.9879 400.045 94.9871 400.118 94.923L400.825 94.2987C400.862 94.2662 400.882 94.2222 400.882 94.1764C400.882 94.1306 400.86 94.0869 400.823 94.0547C398.247 91.8932 394.182 91.8932 391.606 94.0547C391.568 94.0868 391.547 94.1306 391.547 94.1764C391.547 94.2222 391.567 94.2662 391.604 94.2987L392.311 94.923C392.383 94.9872 392.502 94.988 392.576 94.9248C393.557 94.1078 394.86 93.6522 396.215 93.6522ZM396.215 95.6832C396.959 95.6832 397.676 95.9253 398.228 96.3626C398.303 96.4246 398.42 96.4233 398.493 96.3596L399.199 95.7353C399.236 95.7025 399.256 95.6581 399.256 95.612C399.255 95.5658 399.234 95.5218 399.196 95.4897C397.516 94.1218 394.915 94.1218 393.235 95.4897C393.197 95.5218 393.175 95.5658 393.175 95.612C393.174 95.6582 393.195 95.7026 393.232 95.7353L393.938 96.3596C394.011 96.4233 394.128 96.4246 394.203 96.3626C394.754 95.9256 395.471 95.6835 396.215 95.6832ZM397.571 97.1731C397.609 97.1406 397.629 97.096 397.628 97.0497C397.627 97.0034 397.604 96.9596 397.565 96.9285C396.786 96.3512 395.644 96.3512 394.864 96.9285C394.825 96.9596 394.802 97.0034 394.801 97.0497C394.8 97.096 394.82 97.1406 394.858 97.1731L396.079 98.2516C396.115 98.2833 396.164 98.3012 396.215 98.3012C396.266 98.3012 396.314 98.2833 396.35 98.2516L397.571 97.1731Z" fill="black"/>
<path d="M378.761 96.1694H379.37C379.706 96.1694 379.979 96.4082 379.979 96.7028V97.7696C379.979 98.0642 379.706 98.3031 379.37 98.3031H378.761C378.425 98.3031 378.152 98.0642 378.152 97.7696V96.7028C378.152 96.4082 378.425 96.1694 378.761 96.1694ZM381.602 95.1026H382.211C382.547 95.1026 382.82 95.3414 382.82 95.636V97.7696C382.82 98.0642 382.547 98.3031 382.211 98.3031H381.602C381.266 98.3031 380.993 98.0642 380.993 97.7696V95.636C380.993 95.3414 381.266 95.1026 381.602 95.1026ZM384.443 93.8579H385.052C385.388 93.8579 385.661 94.0967 385.661 94.3913V97.7696C385.661 98.0642 385.388 98.3031 385.052 98.3031H384.443C384.107 98.3031 383.835 98.0642 383.835 97.7696V94.3913C383.835 94.0967 384.107 93.8579 384.443 93.8579ZM387.284 92.6133H387.893C388.229 92.6133 388.502 92.8521 388.502 93.1467V97.7696C388.502 98.0642 388.229 98.3031 387.893 98.3031H387.284C386.948 98.3031 386.676 98.0642 386.676 97.7696V93.1467C386.676 92.8521 386.948 92.6133 387.284 92.6133Z" fill="black"/>
<path d="M212.897 97.125V91.7642H212.105C211.833 92.1082 211.457 92.2442 211.017 92.2442V92.9003H211.993V97.125H212.897ZM217.671 97.125V96.3249H215.615L214.815 96.4049L215.439 95.9408L216.183 95.2847C216.751 94.8126 217.519 94.0685 217.519 93.2044C217.519 92.3242 216.991 91.6841 215.911 91.6841C214.679 91.6841 213.807 92.4683 213.831 93.5404L214.591 94.0845C214.543 93.0524 215.039 92.5483 215.831 92.5483C216.351 92.5483 216.575 92.8763 216.575 93.2604C216.575 93.7645 216.207 94.1725 215.687 94.6766L213.839 96.4369V97.125H217.671ZM219.389 94.4846V93.3484H218.365V94.4846H219.389ZM219.389 97.125V95.9888H218.365V97.125H219.389ZM222.38 97.197C223.876 97.197 224.628 96.0128 224.628 94.4366C224.628 92.8683 223.876 91.6841 222.38 91.6841C220.883 91.6841 220.123 92.8683 220.123 94.4366C220.123 96.0128 220.883 97.197 222.38 97.197ZM222.38 96.3329C221.428 96.3329 221.076 95.5648 221.076 94.4366C221.076 93.3164 221.428 92.5403 222.38 92.5403C223.34 92.5403 223.684 93.3164 223.684 94.4366C223.684 95.5648 223.34 96.3329 222.38 96.3329ZM227.607 97.197C229.103 97.197 229.855 96.0128 229.855 94.4366C229.855 92.8683 229.103 91.6841 227.607 91.6841C226.111 91.6841 225.351 92.8683 225.351 94.4366C225.351 96.0128 226.111 97.197 227.607 97.197ZM227.607 96.3329C226.655 96.3329 226.303 95.5648 226.303 94.4366C226.303 93.3164 226.655 92.5403 227.607 92.5403C228.567 92.5403 228.911 93.3164 228.911 94.4366C228.911 95.5648 228.567 96.3329 227.607 96.3329Z" fill="black"/>
</g>
<g clip-path="url(#clip3_3407_31447)">
<path d="M214.803 135.149L211.385 131.741C211.344 131.701 211.316 131.657 211.299 131.61C211.282 131.562 211.273 131.511 211.273 131.457C211.273 131.403 211.282 131.353 211.299 131.305C211.316 131.258 211.345 131.214 211.385 131.173L214.803 127.755C214.898 127.661 215.016 127.613 215.158 127.613C215.3 127.613 215.422 127.664 215.523 127.765C215.625 127.867 215.675 127.985 215.675 128.12C215.675 128.256 215.625 128.374 215.523 128.475L212.541 131.457L215.523 134.439C215.618 134.534 215.665 134.651 215.665 134.79C215.665 134.928 215.615 135.048 215.513 135.149C215.412 135.251 215.293 135.302 215.158 135.302C215.023 135.302 214.905 135.251 214.803 135.149Z" fill="black"/>
</g>
<path d="M301.188 134.043V133.377H297.977V131.403H300.626V130.737H297.977V128.91H301.188V128.244H297.224V134.043H301.188ZM303.282 134.138C303.861 134.138 304.26 133.87 304.441 133.584L304.19 132.84C304.078 133.1 303.818 133.411 303.446 133.411C303.117 133.411 302.866 133.281 302.866 132.745V130.442H304.242V129.854H302.866V128.763L302.113 129.317V129.854H301.438V130.442H302.113V132.97C302.113 133.688 302.598 134.138 303.282 134.138ZM305.937 134.043V131.671C305.937 130.97 306.232 130.408 307.036 130.408C307.746 130.408 307.963 130.789 307.963 131.334V134.043H308.707V131.152C308.707 130.261 308.196 129.767 307.374 129.767C306.552 129.767 306.102 130.321 305.937 130.97V128.244H305.184V134.043H305.937ZM311.591 134.13C312.499 134.13 313.079 133.705 313.391 133.203L312.932 132.684C312.768 133.048 312.43 133.506 311.591 133.506C310.846 133.506 310.353 133.004 310.31 132.122H313.417C313.434 132.044 313.452 131.914 313.452 131.784C313.452 130.555 312.733 129.767 311.547 129.767C310.396 129.767 309.583 130.624 309.583 131.948C309.583 133.281 310.405 134.13 311.591 134.13ZM311.547 130.399C312.248 130.399 312.699 130.806 312.776 131.576H310.327C310.422 130.797 310.872 130.399 311.547 130.399ZM315.159 134.043V131.671C315.159 130.953 315.643 130.321 316.18 130.321C316.483 130.321 316.613 130.529 316.613 130.771C316.613 131.005 316.5 131.265 316.362 131.386H317.184C317.253 131.282 317.349 131.022 317.349 130.667C317.349 130.079 316.916 129.759 316.466 129.759C315.756 129.759 315.323 130.321 315.159 130.97V129.854H314.406V134.043H315.159ZM319.73 134.13C320.639 134.13 321.219 133.705 321.531 133.203L321.072 132.684C320.907 133.048 320.57 133.506 319.73 133.506C318.986 133.506 318.493 133.004 318.449 132.122H321.557C321.574 132.044 321.591 131.914 321.591 131.784C321.591 130.555 320.873 129.767 319.687 129.767C318.536 129.767 317.722 130.624 317.722 131.948C317.722 133.281 318.545 134.13 319.73 134.13ZM319.687 130.399C320.388 130.399 320.838 130.806 320.916 131.576H318.467C318.562 130.797 319.012 130.399 319.687 130.399ZM323.852 134.13C324.692 134.13 325.142 133.558 325.298 132.9V134.043H326.042V129.854H325.298V132.234C325.298 132.926 325.003 133.498 324.19 133.498C323.48 133.498 323.264 133.108 323.264 132.572V129.854H322.519V132.753C322.519 133.636 323.03 134.13 323.852 134.13ZM327.939 134.043V131.671C327.939 130.97 328.233 130.408 328.865 130.408C329.497 130.408 329.782 130.711 329.782 131.325V134.043H330.535V131.671C330.535 130.97 330.83 130.408 331.47 130.408C332.093 130.408 332.387 130.711 332.387 131.325V134.043H333.132V131.143C333.132 130.261 332.708 129.767 331.885 129.767C331.124 129.767 330.691 130.33 330.527 130.996C330.483 130.209 330.059 129.767 329.289 129.767C328.536 129.767 328.103 130.321 327.939 130.962V129.854H327.186V134.043H327.939Z" fill="black"/>
<circle cx="416.929" cy="127.397" r="0.811424" fill="black"/>
<circle cx="416.929" cy="131.725" r="0.811424" fill="black"/>
<circle cx="416.929" cy="136.054" r="0.811424" fill="black"/>
<path d="M289.877 174.07V173.205H286.752V171.543H289.34V170.677H286.752V169.137H289.877V168.271H285.774V174.07H289.877ZM292.861 174.07V169.137H294.644V168.271H290.109V169.137H291.883V174.07H292.861ZM296.016 174.07V171.543H298.803V174.07H299.781V168.271H298.803V170.677H296.016V168.271H295.038V174.07H296.016Z" fill="black"/>
<path d="M288.644 183.973V183.596H286.151V181.947H288.222V181.564H286.151V180H288.644V179.623H285.722V183.973H288.644ZM290.195 184.044C290.597 184.044 290.903 183.856 291.039 183.629L290.89 183.213C290.786 183.434 290.558 183.635 290.279 183.635C290.007 183.635 289.773 183.512 289.773 183.064V181.188H290.818V180.857H289.773V180.091L289.351 180.409V180.857H288.845V181.188H289.351V183.181C289.351 183.745 289.721 184.044 290.195 184.044ZM292.045 183.973V182.168C292.045 181.629 292.317 181.149 292.986 181.149C293.518 181.149 293.739 181.46 293.739 181.967V183.973H294.168V181.869C294.168 181.155 293.765 180.792 293.161 180.792C292.525 180.792 292.155 181.22 292.045 181.727V179.623H291.616V183.973H292.045ZM296.344 184.038C297.007 184.038 297.422 183.719 297.643 183.336L297.383 183.031C297.247 183.336 296.974 183.681 296.344 183.681C295.728 183.681 295.306 183.291 295.28 182.512H297.656C297.662 182.46 297.675 182.382 297.675 182.304C297.675 181.363 297.143 180.792 296.292 180.792C295.449 180.792 294.871 181.402 294.871 182.415C294.871 183.447 295.475 184.038 296.344 184.038ZM296.292 181.142C296.864 181.142 297.247 181.499 297.286 182.201H295.286C295.345 181.499 295.721 181.142 296.292 181.142ZM298.853 183.973V182.168C298.853 181.629 299.223 181.11 299.691 181.11C299.976 181.11 300.093 181.292 300.093 181.493C300.093 181.681 300.015 181.882 299.931 181.98H300.392C300.45 181.876 300.509 181.681 300.509 181.448C300.509 181.019 300.21 180.785 299.846 180.785C299.314 180.785 298.97 181.214 298.853 181.707V180.857H298.425V183.973H298.853ZM302.297 184.038C302.959 184.038 303.375 183.719 303.595 183.336L303.336 183.031C303.199 183.336 302.927 183.681 302.297 183.681C301.68 183.681 301.258 183.291 301.232 182.512H303.608C303.615 182.46 303.628 182.382 303.628 182.304C303.628 181.363 303.095 180.792 302.245 180.792C301.401 180.792 300.823 181.402 300.823 182.415C300.823 183.447 301.427 184.038 302.297 184.038ZM302.245 181.142C302.816 181.142 303.199 181.499 303.238 182.201H301.239C301.297 181.499 301.674 181.142 302.245 181.142ZM305.377 184.038C306.02 184.038 306.37 183.603 306.481 183.083V183.973H306.902V180.857H306.481V182.655C306.481 183.2 306.221 183.674 305.546 183.674C305.013 183.674 304.78 183.362 304.78 182.863V180.857H304.358V182.954C304.358 183.674 304.767 184.038 305.377 184.038ZM308.242 183.973V182.168C308.242 181.629 308.508 181.149 309.06 181.149C309.546 181.149 309.787 181.415 309.787 181.96V183.973H310.209V182.168C310.209 181.629 310.475 181.149 311.033 181.149C311.513 181.149 311.753 181.415 311.753 181.96V183.973H312.182V181.863C312.182 181.149 311.844 180.792 311.247 180.792C310.663 180.792 310.306 181.227 310.202 181.74C310.17 181.11 309.839 180.792 309.274 180.792C308.696 180.792 308.352 181.214 308.242 181.727V180.857H307.813V183.973H308.242Z" fill="#B3B3B3"/>
<path fill-rule="evenodd" clip-rule="evenodd" d="M268.699 185C263.769 185 259.773 181.004 259.773 176.074C259.773 171.144 263.769 167.148 268.699 167.148C273.629 167.148 277.625 171.144 277.625 176.074C277.625 181.004 273.629 185 268.699 185ZM273.159 176.196L268.977 169.38L264.794 176.197L268.977 178.625L273.159 176.196ZM273.162 176.976L268.977 179.403L264.794 176.976L268.977 182.766L273.162 176.976Z" fill="black"/>
<path d="M268.98 169.379V174.327L273.163 176.196L268.98 169.379ZM268.98 179.402V182.765L273.165 176.975L268.98 179.402Z" fill="black" fill-opacity="0.298"/>
<path d="M268.98 178.624L273.163 176.196L268.98 174.328V178.624Z" fill="black" fill-opacity="0.801"/>
<path d="M264.797 176.196L268.98 178.624V174.328L264.797 176.196Z" fill="black" fill-opacity="0.298"/>
<path d="M333.252 175.479V174.691C334.325 174.622 335.104 174.033 335.104 173.047C335.104 171.939 334.273 171.575 333.347 171.35L333.252 171.324V169.74C333.685 169.879 334.057 170.182 334.273 170.675L335.009 169.974C334.672 169.325 334.048 168.91 333.252 168.78V167.949H332.646V168.736C331.59 168.736 330.647 169.325 330.647 170.416C330.647 171.515 331.521 171.887 332.343 172.06L332.646 172.129V173.765C332.04 173.653 331.417 173.306 331.166 172.623L330.474 173.324C330.872 174.181 331.703 174.596 332.646 174.683V175.479H333.252ZM331.668 170.346C331.668 169.905 332.066 169.645 332.62 169.645H332.646V171.177C332.066 171.039 331.668 170.857 331.668 170.346ZM334.109 173.064C334.109 173.531 333.737 173.748 333.252 173.791V172.268C333.789 172.415 334.109 172.597 334.109 173.064ZM338.358 174.7C339.674 174.7 340.496 173.904 340.496 172.709C340.496 171.558 339.856 170.814 338.757 170.814C337.986 170.814 337.519 171.229 337.337 171.748L337.476 169.714H340.063V168.814H336.541L336.35 172.112L337.302 172.207L337.311 172.129C337.363 171.757 337.753 171.523 338.306 171.523C338.904 171.523 339.449 171.852 339.449 172.666C339.449 173.341 339.068 173.756 338.367 173.756C337.623 173.756 337.112 173.324 336.913 172.605L336.134 173.358C336.428 174.111 337.251 174.7 338.358 174.7ZM343.633 174.691C345.251 174.691 346.065 173.41 346.065 171.705C346.065 170.009 345.251 168.728 343.633 168.728C342.014 168.728 341.192 170.009 341.192 171.705C341.192 173.41 342.014 174.691 343.633 174.691ZM343.633 173.756C342.603 173.756 342.222 172.926 342.222 171.705C342.222 170.493 342.603 169.654 343.633 169.654C344.671 169.654 345.043 170.493 345.043 171.705C345.043 172.926 344.671 173.756 343.633 173.756ZM349.287 174.691C350.906 174.691 351.719 173.41 351.719 171.705C351.719 170.009 350.906 168.728 349.287 168.728C347.669 168.728 346.847 170.009 346.847 171.705C346.847 173.41 347.669 174.691 349.287 174.691ZM349.287 173.756C348.257 173.756 347.876 172.926 347.876 171.705C347.876 170.493 348.257 169.654 349.287 169.654C350.326 169.654 350.698 170.493 350.698 171.705C350.698 172.926 350.326 173.756 349.287 173.756ZM353.482 174.613V173.384H352.374V174.613H353.482ZM358.169 174.613V173.306H359.147V172.458H358.169V168.814H357.139L354.3 172.553V173.306H357.2V174.613H358.169ZM355.374 172.458L357.2 170.078V172.458H355.374ZM361.983 174.7C363.298 174.7 364.121 173.904 364.121 172.709C364.121 171.558 363.48 170.814 362.381 170.814C361.611 170.814 361.143 171.229 360.961 171.748L361.1 169.714H363.688V168.814H360.165L359.975 172.112L360.927 172.207L360.935 172.129C360.987 171.757 361.377 171.523 361.931 171.523C362.528 171.523 363.073 171.852 363.073 172.666C363.073 173.341 362.692 173.756 361.991 173.756C361.247 173.756 360.736 173.324 360.537 172.605L359.758 173.358C360.053 174.111 360.875 174.7 361.983 174.7ZM367.152 174.7C368.399 174.7 369.255 173.86 369.255 172.692C369.255 171.645 368.728 170.831 367.559 170.831C366.668 170.831 366.079 171.342 365.958 172.198V171.645C365.958 170.104 366.546 169.688 367.222 169.688C367.801 169.688 368.226 170.009 368.485 170.528L369.152 169.723C368.788 169.135 368.13 168.728 367.273 168.728C365.724 168.728 364.902 169.784 364.902 171.645V171.74C364.902 173.895 365.759 174.7 367.152 174.7ZM367.126 173.774C366.434 173.774 366.027 173.402 366.027 172.605C366.027 171.947 366.46 171.593 367.144 171.593C367.879 171.593 368.208 172.034 368.208 172.692C368.208 173.306 367.801 173.774 367.126 173.774Z" fill="black"/>
<path d="M356.715 182.488C357.705 182.488 358.171 181.671 358.171 180.616C358.171 179.572 357.705 178.755 356.715 178.755C355.72 178.755 355.255 179.572 355.255 180.616C355.255 181.671 355.72 182.488 356.715 182.488ZM356.721 182.039C356.001 182.039 355.753 181.449 355.753 180.616C355.753 179.794 356.001 179.199 356.721 179.199C357.435 179.199 357.678 179.794 357.678 180.616C357.678 181.449 357.435 182.039 356.721 182.039ZM359.226 182.434V181.73H358.658V182.434H359.226ZM362.123 182.434V181.568H362.772V181.152H362.123V178.809H361.653L359.83 181.2V181.568H361.653V182.434H362.123ZM360.365 181.152L361.653 179.491V181.152H360.365ZM364.57 182.488C365.36 182.488 365.858 182.087 365.858 181.498C365.858 181.027 365.62 180.616 364.96 180.562C365.42 180.497 365.695 180.113 365.695 179.74C365.695 179.274 365.382 178.755 364.543 178.755C363.894 178.755 363.418 179.145 363.267 179.637L363.667 179.972C363.732 179.475 364.067 179.21 364.532 179.21C364.998 179.21 365.203 179.496 365.203 179.842C365.203 180.221 364.976 180.416 364.522 180.416H363.927V180.822H364.516C365.019 180.822 365.36 181.016 365.36 181.449C365.36 181.817 365.095 182.039 364.63 182.039C363.948 182.039 363.716 181.671 363.607 181.119L363.207 181.476C363.326 182.022 363.786 182.488 364.57 182.488ZM367.093 180.394C367.542 180.394 367.877 180.075 367.877 179.577C367.877 179.08 367.542 178.761 367.093 178.761C366.639 178.761 366.303 179.08 366.303 179.577C366.303 180.075 366.639 180.394 367.093 180.394ZM366.979 182.434L369.533 178.809H369.04L366.487 182.434H366.979ZM367.093 180.048C366.839 180.048 366.687 179.864 366.687 179.577C366.687 179.285 366.839 179.101 367.093 179.101C367.347 179.101 367.504 179.285 367.504 179.577C367.504 179.864 367.347 180.048 367.093 180.048ZM368.943 182.434C369.392 182.434 369.727 182.114 369.727 181.617C369.727 181.119 369.392 180.8 368.943 180.8C368.489 180.8 368.153 181.119 368.153 181.617C368.153 182.114 368.489 182.434 368.943 182.434ZM368.943 182.087C368.689 182.087 368.537 181.903 368.537 181.617C368.537 181.325 368.689 181.141 368.943 181.141C369.197 181.141 369.354 181.325 369.354 181.617C369.354 181.903 369.197 182.087 368.943 182.087Z" fill="#228B22"/>
<path d="M351.738 180.141L352.675 181.763H350.801L351.738 180.141Z" fill="#228B22"/>
<path d="M220.293 246.137H418.28" stroke="#F2F2F2" stroke-width="0.540949" stroke-dasharray="1.08 1.08"/>
<path d="M220.293 273.188H418.28" stroke="#F2F2F2" stroke-width="0.540949" stroke-dasharray="1.08 1.08"/>
<path d="M220.293 300.234H418.28" stroke="#F2F2F2" stroke-width="0.540949" stroke-dasharray="1.08 1.08"/>
<path d="M220.293 327.281H418.28" stroke="#F2F2F2" stroke-width="0.540949" stroke-dasharray="1.08 1.08"/>
<path d="M220.293 354.324H418.28" stroke="#F2F2F2" stroke-width="0.540949" stroke-dasharray="1.08 1.08"/>
<path d="M227.867 354.332L227.867 242.356" stroke="#F2F2F2" stroke-width="0.540949" stroke-dasharray="1.08 1.08"/>
<path d="M254.914 354.332L254.914 242.356" stroke="#F2F2F2" stroke-width="0.540949" stroke-dasharray="1.08 1.08"/>
<path d="M281.961 354.332L281.961 242.356" stroke="#F2F2F2" stroke-width="0.540949" stroke-dasharray="1.08 1.08"/>
<path d="M309.012 354.332L309.012 242.356" stroke="#F2F2F2" stroke-width="0.540949" stroke-dasharray="1.08 1.08"/>
<path d="M336.059 354.332L336.059 242.356" stroke="#F2F2F2" stroke-width="0.540949" stroke-dasharray="1.08 1.08"/>
<path d="M363.105 354.332L363.105 242.356" stroke="#F2F2F2" stroke-width="0.540949" stroke-dasharray="1.08 1.08"/>
<path d="M390.152 354.332L390.152 242.356" stroke="#F2F2F2" stroke-width="0.540949" stroke-dasharray="1.08 1.08"/>
<path d="M417.199 354.332L417.199 242.356" stroke="#F2F2F2" stroke-width="0.540949" stroke-dasharray="1.08 1.08"/>
<path d="M212.117 355.131C213.007 355.131 213.426 354.396 213.426 353.446C213.426 352.507 213.007 351.771 212.117 351.771C211.221 351.771 210.802 352.507 210.802 353.446C210.802 354.396 211.221 355.131 212.117 355.131ZM212.121 354.727C211.474 354.727 211.25 354.196 211.25 353.446C211.25 352.706 211.474 352.171 212.121 352.171C212.764 352.171 212.983 352.706 212.983 353.446C212.983 354.196 212.764 354.727 212.121 354.727ZM214.418 355.082V354.259L214.793 353.904L215.557 355.082H216.068L215.085 353.641L216.053 352.726H215.523L214.749 353.466L214.403 353.806L214.418 353.475V351.82H213.994V355.082H214.418Z" fill="#CCCCCC"/>
<path d="M227.211 363.738V363.046H227.73V362.713H227.211V360.839H226.835L225.376 362.752V363.046H226.835V363.738H227.211ZM225.805 362.713L226.835 361.384V362.713H225.805ZM228.545 363.738V362.756H229.328C229.899 362.756 230.349 362.44 230.349 361.821C230.349 361.155 229.899 360.839 229.328 360.839H228.168V363.738H228.545ZM229.267 361.172C229.618 361.172 229.96 361.302 229.96 361.821C229.96 362.293 229.618 362.423 229.267 362.423H228.545V361.172H229.267ZM231.135 363.738V362.137L231.088 361.354L231.412 362.072L232.035 363.254H232.403L233.026 362.072L233.347 361.354L233.308 362.137V363.738H233.684V360.839H233.264L232.511 362.276L232.221 362.912L231.927 362.276L231.179 360.839H230.759V363.738H231.135Z" fill="#CCCCCC"/>
<path d="M253.109 363.782C253.74 363.782 254.117 363.396 254.117 362.808C254.117 362.25 253.818 361.847 253.243 361.847C252.862 361.847 252.633 362.051 252.542 362.306L252.62 361.194H253.896V360.839H252.247L252.157 362.501L252.529 362.54L252.533 362.492C252.55 362.297 252.767 362.159 253.083 362.159C253.399 362.159 253.719 362.336 253.719 362.808C253.719 363.184 253.52 363.422 253.122 363.422C252.715 363.422 252.455 363.18 252.351 362.804L252.048 363.124C252.196 363.492 252.589 363.782 253.109 363.782ZM255.061 363.738V362.756H255.844C256.415 362.756 256.865 362.44 256.865 361.821C256.865 361.155 256.415 360.839 255.844 360.839H254.684V363.738H255.061ZM255.784 361.172C256.134 361.172 256.476 361.302 256.476 361.821C256.476 362.293 256.134 362.423 255.784 362.423H255.061V361.172H255.784ZM257.652 363.738V362.137L257.604 361.354L257.928 362.072L258.552 363.254H258.92L259.543 362.072L259.863 361.354L259.824 362.137V363.738H260.2V360.839H259.781L259.028 362.276L258.738 362.912L258.443 362.276L257.695 360.839H257.275V363.738H257.652Z" fill="#CCCCCC"/>
<path d="M280.052 363.782C280.645 363.782 281.051 363.353 281.051 362.791C281.051 362.263 280.792 361.834 280.199 361.834C279.727 361.834 279.411 362.115 279.364 362.604V362.289C279.364 361.384 279.705 361.159 280.056 361.159C280.363 361.159 280.58 361.349 280.688 361.639L281.012 361.371C280.844 361.029 280.523 360.796 280.086 360.796C279.372 360.796 278.965 361.306 278.965 362.25V362.302C278.965 363.448 279.42 363.782 280.052 363.782ZM280.043 363.422C279.654 363.422 279.407 363.223 279.407 362.752C279.407 362.375 279.675 362.185 280.052 362.185C280.467 362.185 280.653 362.431 280.653 362.812C280.653 363.158 280.419 363.422 280.043 363.422ZM281.994 363.738V362.756H282.777C283.348 362.756 283.798 362.44 283.798 361.821C283.798 361.155 283.348 360.839 282.777 360.839H281.617V363.738H281.994ZM282.716 361.172C283.067 361.172 283.409 361.302 283.409 361.821C283.409 362.293 283.067 362.423 282.716 362.423H281.994V361.172H282.716ZM284.584 363.738V362.137L284.537 361.354L284.861 362.072L285.484 363.254H285.852L286.475 362.072L286.796 361.354L286.757 362.137V363.738H287.133V360.839H286.713L285.96 362.276L285.671 362.912L285.376 362.276L284.628 360.839H284.208V363.738H284.584Z" fill="#CCCCCC"/>
<path d="M305.688 363.738C305.688 362.505 306.073 361.877 306.713 361.267V360.839H304.813V361.194H306.371C305.895 361.652 305.276 362.297 305.276 363.738H305.688ZM307.549 363.738V362.756H308.332C308.903 362.756 309.353 362.44 309.353 361.821C309.353 361.155 308.903 360.839 308.332 360.839H307.172V363.738H307.549ZM308.271 361.172C308.622 361.172 308.964 361.302 308.964 361.821C308.964 362.293 308.622 362.423 308.271 362.423H307.549V361.172H308.271ZM310.139 363.738V362.137L310.092 361.354L310.416 362.072L311.039 363.254H311.407L312.03 362.072L312.351 361.354L312.312 362.137V363.738H312.688V360.839H312.268L311.515 362.276L311.225 362.912L310.931 362.276L310.182 360.839H309.763V363.738H310.139Z" fill="#CCCCCC"/>
<path d="M333.58 363.782C334.299 363.782 334.645 363.461 334.645 362.994C334.645 362.7 334.463 362.384 333.987 362.267C334.359 362.206 334.558 361.925 334.558 361.587C334.558 361.155 334.212 360.796 333.58 360.796C332.944 360.796 332.602 361.155 332.602 361.592C332.602 361.925 332.775 362.206 333.152 362.267C332.676 362.384 332.516 362.7 332.516 362.994C332.516 363.461 332.858 363.782 333.58 363.782ZM333.58 362.115C333.161 362.115 333 361.912 333 361.635C333 361.384 333.165 361.15 333.58 361.15C333.996 361.15 334.165 361.384 334.165 361.635C334.165 361.912 333.957 362.115 333.58 362.115ZM333.58 363.427C333.074 363.427 332.953 363.189 332.953 362.929C332.953 362.639 333.161 362.418 333.58 362.418C334 362.418 334.208 362.639 334.208 362.929C334.208 363.189 334.087 363.427 333.58 363.427ZM335.591 363.738V362.756H336.374C336.945 362.756 337.395 362.44 337.395 361.821C337.395 361.155 336.945 360.839 336.374 360.839H335.214V363.738H335.591ZM336.313 361.172C336.664 361.172 337.006 361.302 337.006 361.821C337.006 362.293 336.664 362.423 336.313 362.423H335.591V361.172H336.313ZM338.181 363.738V362.137L338.134 361.354L338.458 362.072L339.081 363.254H339.449L340.072 362.072L340.393 361.354L340.354 362.137V363.738H340.73V360.839H340.31L339.557 362.276L339.267 362.912L338.973 362.276L338.225 360.839H337.805V363.738H338.181Z" fill="#CCCCCC"/>
<path d="M358.746 363.738V360.839H358.431C358.292 361.029 358.084 361.098 357.851 361.098V361.358H358.37V363.738H358.746ZM360.428 363.782C361.22 363.782 361.592 363.128 361.592 362.284C361.592 361.449 361.22 360.796 360.428 360.796C359.632 360.796 359.26 361.449 359.26 362.284C359.26 363.128 359.632 363.782 360.428 363.782ZM360.432 363.422C359.857 363.422 359.658 362.951 359.658 362.284C359.658 361.626 359.857 361.15 360.432 361.15C361.004 361.15 361.198 361.626 361.198 362.284C361.198 362.951 361.004 363.422 360.432 363.422ZM362.517 363.738V362.756H363.3C363.871 362.756 364.321 362.44 364.321 361.821C364.321 361.155 363.871 360.839 363.3 360.839H362.14V363.738H362.517ZM363.239 361.172C363.59 361.172 363.932 361.302 363.932 361.821C363.932 362.293 363.59 362.423 363.239 362.423H362.517V361.172H363.239ZM365.107 363.738V362.137L365.06 361.354L365.384 362.072L366.007 363.254H366.375L366.998 362.072L367.319 361.354L367.28 362.137V363.738H367.656V360.839H367.236L366.483 362.276L366.194 362.912L365.899 362.276L365.151 360.839H364.731V363.738H365.107Z" fill="#CCCCCC"/>
<path d="M387.414 364.277V361.378H387.099C386.96 361.568 386.752 361.638 386.519 361.638V361.897H387.038V364.277H387.414ZM388.746 364.277V361.378H388.43C388.291 361.568 388.084 361.638 387.85 361.638V361.897H388.369V364.277H388.746ZM389.735 364.277V363.295H390.518C391.09 363.295 391.54 362.979 391.54 362.36C391.54 361.694 391.09 361.378 390.518 361.378H389.359V364.277H389.735ZM390.458 361.711C390.808 361.711 391.15 361.841 391.15 362.36C391.15 362.832 390.808 362.962 390.458 362.962H389.735V361.711H390.458ZM392.326 364.277V362.676L392.278 361.893L392.603 362.611L393.226 363.793H393.594L394.217 362.611L394.537 361.893L394.498 362.676V364.277H394.875V361.378H394.455L393.702 362.815L393.412 363.451L393.118 362.815L392.369 361.378H391.949V364.277H392.326Z" fill="#CCCCCC"/>
<path d="M411.758 363.738V360.839H411.442C411.304 361.029 411.096 361.098 410.862 361.098V361.358H411.382V363.738H411.758ZM414.281 363.738V363.405H413.083L412.728 363.431L413.039 363.167L413.489 362.743C413.753 362.492 414.208 362.059 414.208 361.583C414.208 361.137 413.952 360.796 413.385 360.796C412.719 360.796 412.265 361.254 412.325 361.825L412.676 362.046C412.602 361.471 412.875 361.159 413.359 361.159C413.688 361.159 413.818 361.375 413.818 361.609C413.818 361.929 413.572 362.198 413.256 362.509L412.308 363.444V363.738H414.281ZM415.186 363.738V362.756H415.969C416.541 362.756 416.991 362.44 416.991 361.821C416.991 361.155 416.541 360.839 415.969 360.839H414.81V363.738H415.186ZM415.909 361.172C416.259 361.172 416.601 361.302 416.601 361.821C416.601 362.293 416.259 362.423 415.909 362.423H415.186V361.172H415.909ZM417.777 363.738V362.137L417.729 361.354L418.054 362.072L418.677 363.254H419.045L419.668 362.072L419.988 361.354L419.949 362.137V363.738H420.326V360.839H419.906L419.153 362.276L418.863 362.912L418.569 362.276L417.82 360.839H417.4V363.738H417.777Z" fill="#CCCCCC"/>
<path d="M212.861 327.496V326.717H213.446V326.342H212.861V324.234H212.438L210.797 326.386V326.717H212.438V327.496H212.861ZM211.279 326.342L212.438 324.848V326.342H211.279ZM214.313 327.496V326.673L214.688 326.318L215.452 327.496H215.963L214.98 326.055L215.949 325.14H215.418L214.644 325.88L214.298 326.221L214.313 325.889V324.234H213.889V327.496H214.313Z" fill="#CCCCCC"/>
<path d="M212.029 301.037C212.837 301.037 213.227 300.677 213.227 300.151C213.227 299.82 213.022 299.464 212.487 299.333C212.905 299.265 213.129 298.948 213.129 298.569C213.129 298.082 212.74 297.678 212.029 297.678C211.313 297.678 210.929 298.082 210.929 298.573C210.929 298.948 211.123 299.265 211.547 299.333C211.011 299.464 210.831 299.82 210.831 300.151C210.831 300.677 211.216 301.037 212.029 301.037ZM212.029 299.163C211.557 299.163 211.377 298.934 211.377 298.622C211.377 298.34 211.562 298.077 212.029 298.077C212.496 298.077 212.686 298.34 212.686 298.622C212.686 298.934 212.452 299.163 212.029 299.163ZM212.029 300.638C211.459 300.638 211.323 300.37 211.323 300.078C211.323 299.752 211.557 299.503 212.029 299.503C212.501 299.503 212.735 299.752 212.735 300.078C212.735 300.37 212.599 300.638 212.029 300.638ZM214.242 300.988V300.165L214.617 299.81L215.381 300.988H215.892L214.909 299.547L215.878 298.632H215.347L214.573 299.372L214.227 299.713L214.242 299.382V297.726H213.818V300.988H214.242Z" fill="#CCCCCC"/>
<path d="M211.737 273.398V270.137H211.381C211.226 270.351 210.992 270.429 210.729 270.429V270.721H211.313V273.398H211.737ZM214.575 273.398V273.024H213.227L212.827 273.053L213.178 272.756L213.684 272.279C213.981 271.996 214.492 271.509 214.492 270.974C214.492 270.472 214.205 270.088 213.567 270.088C212.818 270.088 212.306 270.604 212.375 271.247L212.769 271.495C212.686 270.847 212.993 270.497 213.538 270.497C213.908 270.497 214.054 270.74 214.054 271.003C214.054 271.363 213.777 271.665 213.421 272.016L212.355 273.067V273.398H214.575ZM215.544 273.398V272.576L215.919 272.22L216.684 273.398H217.195L216.211 271.957L217.18 271.042H216.65L215.876 271.782L215.53 272.123L215.544 271.792V270.137H215.121V273.398H215.544Z" fill="#CCCCCC"/>
<path d="M211.737 246.891V243.629H211.381C211.226 243.843 210.992 243.921 210.729 243.921V244.213H211.313V246.891H211.737ZM213.556 246.939C214.223 246.939 214.68 246.457 214.68 245.824C214.68 245.23 214.388 244.748 213.721 244.748C213.191 244.748 212.835 245.065 212.782 245.615V245.26C212.782 244.242 213.166 243.989 213.561 243.989C213.906 243.989 214.15 244.203 214.271 244.529L214.637 244.228C214.447 243.843 214.086 243.58 213.595 243.58C212.791 243.58 212.334 244.155 212.334 245.216V245.274C212.334 246.564 212.845 246.939 213.556 246.939ZM213.546 246.535C213.108 246.535 212.83 246.311 212.83 245.781C212.83 245.357 213.132 245.143 213.556 245.143C214.023 245.143 214.232 245.42 214.232 245.849C214.232 246.238 213.97 246.535 213.546 246.535ZM215.692 246.891V246.068L216.067 245.712L216.831 246.891H217.342L216.359 245.45L217.328 244.534H216.797L216.023 245.274L215.677 245.615L215.692 245.284V243.629H215.268V246.891H215.692Z" fill="#CCCCCC"/>
<path d="M227.605 311.583L231.84 306.741C232.721 305.734 234.326 305.871 235.024 307.012V307.012C235.697 308.112 237.224 308.288 238.129 307.369L241.813 303.626C242.664 302.761 244.092 302.882 244.785 303.879V303.879C245.148 304.4 245.742 304.71 246.377 304.71H246.982C247.858 304.71 248.687 305.11 249.233 305.796L250.579 307.49C251.217 308.292 252.466 308.187 252.961 307.288L253.189 306.873C253.673 305.994 254.956 306.057 255.351 306.979V306.979C255.741 307.889 256.999 307.967 257.498 307.113L264.881 294.474C265.481 293.447 266.926 293.343 267.666 294.274V294.274C268.193 294.937 269.129 295.109 269.857 294.675L272.027 293.382C273.029 292.785 274.319 293.021 275.046 293.934V293.934C275.738 294.805 276.949 295.065 277.938 294.556L280.947 293.008C281.712 292.615 282.645 292.79 283.214 293.434V293.434C284.074 294.408 285.639 294.235 286.266 293.098L293.191 280.545C293.687 279.646 294.955 279.581 295.541 280.423V280.423C295.914 280.96 296.611 281.162 297.213 280.91L301.215 279.232C301.938 278.929 302.737 279.46 302.737 280.245V280.245C302.737 280.851 303.229 281.343 303.835 281.343H306.364C307.669 281.343 308.873 282.044 309.517 283.178L311.6 286.847C312.046 287.631 313.162 287.67 313.66 286.918V286.918C314.26 286.013 315.656 286.295 315.857 287.362L318.755 302.722C318.972 303.875 319.98 304.71 321.153 304.71V304.71C321.941 304.71 322.68 305.09 323.138 305.731L326.408 310.3C326.984 311.105 327.913 311.583 328.903 311.583H330.675C331.391 311.583 331.97 312.163 331.97 312.878V312.878C331.97 313.852 333.005 314.477 333.867 314.025L335.514 313.162C336.989 312.389 338.785 313.301 339.031 314.947L341.668 332.547C341.852 333.777 343.292 334.355 344.275 333.594V333.594C345.013 333.023 346.077 333.186 346.61 333.952L346.658 334.021C347.16 334.743 348.128 334.967 348.896 334.537L351.248 333.222C351.908 332.854 352.743 333.112 353.079 333.789V333.789C353.46 334.556 354.458 334.764 355.115 334.214L355.882 333.571C356.552 333.008 357.555 333.109 358.099 333.794V333.794C358.714 334.567 359.884 334.58 360.514 333.82L364.848 328.595C365.319 328.028 366.217 328.132 366.545 328.792L366.622 328.948C366.906 329.519 367.676 329.623 368.101 329.148L368.811 328.354C369.113 328.016 369.673 328.23 369.673 328.683V328.683C369.673 329.155 370.272 329.358 370.559 328.984L374.526 323.809C375.66 322.33 377.965 322.61 378.711 324.318L379.136 325.289C379.59 326.328 380.925 326.624 381.776 325.875V325.875C382.366 325.355 383.239 325.316 383.873 325.781L384.446 326.202C385.397 326.9 386.701 326.857 387.604 326.1L392.595 321.915C393.485 321.168 394.827 321.358 395.476 322.322L396.05 323.176C396.606 324.002 397.838 323.947 398.318 323.075L398.399 322.928C398.917 321.986 400.303 322.091 400.674 323.1V323.1C400.993 323.97 402.113 324.205 402.755 323.536L409.622 316.38C410.313 315.66 411.48 315.714 412.101 316.495V316.495C412.662 317.201 413.686 317.325 414.399 316.773L416.665 315.019" stroke="#005FEE" stroke-width="0.540949"/>
<g filter="url(#filter1_d_3407_31447)">
<rect x="284.129" y="266.691" width="29.819" height="9.32759" rx="1.0819" fill="white"/>
<path d="M291.114 273.288V272.894C291.651 272.86 292.04 272.566 292.04 272.072C292.04 271.518 291.625 271.336 291.162 271.224L291.114 271.211V270.419C291.331 270.488 291.517 270.64 291.625 270.886L291.993 270.536C291.824 270.211 291.512 270.004 291.114 269.939V269.523H290.811V269.917C290.283 269.917 289.812 270.211 289.812 270.757C289.812 271.306 290.249 271.492 290.66 271.579L290.811 271.613V272.431C290.508 272.375 290.197 272.202 290.071 271.86L289.725 272.211C289.924 272.639 290.34 272.847 290.811 272.89V273.288H291.114ZM290.322 270.722C290.322 270.501 290.521 270.371 290.798 270.371H290.811V271.137C290.521 271.068 290.322 270.977 290.322 270.722ZM291.543 272.081C291.543 272.315 291.357 272.423 291.114 272.444V271.683C291.383 271.756 291.543 271.847 291.543 272.081ZM293.339 272.855C293.339 271.644 293.754 271.029 294.334 270.458V269.956H292.356V270.406H293.875C293.421 270.856 292.802 271.501 292.802 272.855H293.339ZM295.713 272.894C296.522 272.894 296.929 272.254 296.929 271.401C296.929 270.553 296.522 269.913 295.713 269.913C294.904 269.913 294.493 270.553 294.493 271.401C294.493 272.254 294.904 272.894 295.713 272.894ZM295.713 272.427C295.198 272.427 295.008 272.012 295.008 271.401C295.008 270.796 295.198 270.376 295.713 270.376C296.232 270.376 296.418 270.796 296.418 271.401C296.418 272.012 296.232 272.427 295.713 272.427ZM298.54 272.894C299.35 272.894 299.756 272.254 299.756 271.401C299.756 270.553 299.35 269.913 298.54 269.913C297.731 269.913 297.32 270.553 297.32 271.401C297.32 272.254 297.731 272.894 298.54 272.894ZM298.54 272.427C298.025 272.427 297.835 272.012 297.835 271.401C297.835 270.796 298.025 270.376 298.54 270.376C299.06 270.376 299.246 270.796 299.246 271.401C299.246 272.012 299.06 272.427 298.54 272.427ZM300.638 272.855V272.241H300.084V272.855H300.638ZM302.155 272.899C302.908 272.899 303.267 272.57 303.267 272.102C303.267 271.804 303.081 271.497 302.592 271.384C302.977 271.319 303.177 271.047 303.177 270.709C303.177 270.272 302.817 269.913 302.155 269.913C301.489 269.913 301.134 270.272 301.134 270.713C301.134 271.042 301.316 271.319 301.696 271.384C301.212 271.497 301.043 271.804 301.043 272.102C301.043 272.57 301.402 272.899 302.155 272.899ZM302.155 271.207C301.796 271.207 301.653 271.029 301.653 270.787C301.653 270.566 301.796 270.367 302.155 270.367C302.514 270.367 302.657 270.566 302.657 270.787C302.657 271.029 302.475 271.207 302.155 271.207ZM302.155 272.444C301.718 272.444 301.606 272.237 301.606 272.003C301.606 271.748 301.787 271.549 302.155 271.549C302.523 271.549 302.705 271.748 302.705 272.003C302.705 272.237 302.592 272.444 302.155 272.444ZM304.335 272.855C304.335 271.644 304.751 271.029 305.33 270.458V269.956H303.353V270.406H304.872C304.417 270.856 303.798 271.501 303.798 272.855H304.335ZM306.628 272.899C307.251 272.899 307.679 272.479 307.679 271.895C307.679 271.371 307.415 270.964 306.831 270.964C306.385 270.964 306.091 271.22 306.03 271.648V271.371C306.03 270.601 306.325 270.393 306.662 270.393C306.952 270.393 307.164 270.553 307.294 270.813L307.627 270.41C307.445 270.116 307.117 269.913 306.688 269.913C305.913 269.913 305.502 270.441 305.502 271.371V271.419C305.502 272.496 305.931 272.899 306.628 272.899ZM306.615 272.436C306.268 272.436 306.065 272.25 306.065 271.851C306.065 271.523 306.281 271.345 306.623 271.345C306.991 271.345 307.155 271.566 307.155 271.895C307.155 272.202 306.952 272.436 306.615 272.436Z" fill="#041004"/>
</g>
<rect x="233.273" y="203.398" width="24.8837" height="11.9009" rx="4.3276" fill="#005FEE"/>
<path d="M243.845 211.105V210.565H242.454L241.913 210.619L242.335 210.305L242.838 209.861C243.222 209.542 243.742 209.039 243.742 208.455C243.742 207.86 243.385 207.427 242.654 207.427C241.821 207.427 241.232 207.957 241.248 208.682L241.762 209.05C241.729 208.352 242.065 208.011 242.6 208.011C242.952 208.011 243.103 208.233 243.103 208.493C243.103 208.833 242.855 209.109 242.503 209.45L241.253 210.64V211.105H243.845ZM246.578 211.105V210.289H247.189V209.759H246.578V207.481H245.934L244.16 209.818V210.289H245.972V211.105H246.578ZM244.83 209.759L245.972 208.271V209.759H244.83ZM248.287 211.105V209.526H250.029V211.105H250.64V207.481H250.029V208.985H248.287V207.481H247.676V211.105H248.287Z" fill="white"/>
<rect x="267.895" y="203.398" width="24.8837" height="11.9009" rx="4.3276" fill="#F2F2F2"/>
<path d="M279.057 211.105V207.481H278.521C278.338 207.714 278.083 207.806 277.786 207.806V208.249H278.446V211.105H279.057ZM281.103 211.105C282.228 211.105 282.829 210.413 282.829 209.293C282.829 208.174 282.223 207.481 281.103 207.481H279.735V211.105H281.103ZM281.027 208.022C281.779 208.022 282.19 208.384 282.19 209.293C282.19 210.202 281.779 210.565 281.033 210.565H280.346V208.022H281.027Z" fill="#041004"/>
<rect x="302.516" y="203.398" width="24.8837" height="11.9009" rx="4.3276" fill="#F2F2F2"/>
<path d="M313.139 211.105V207.481H312.604C312.42 207.714 312.165 207.806 311.868 207.806V208.249H312.528V211.105H313.139ZM315.228 211.105L315.807 208.958L316.018 207.946L316.229 208.958L316.797 211.105H317.565L318.523 207.481H317.83L317.349 209.591L317.181 210.613L316.976 209.629L316.419 207.481H315.629L315.061 209.629L314.85 210.613L314.687 209.591L314.217 207.481H313.514L314.46 211.105H315.228Z" fill="#041004"/>
<rect x="337.137" y="203.398" width="24.8837" height="11.9009" rx="4.3276" fill="#F2F2F2"/>
<path d="M347.76 211.105V207.481H347.225C347.041 207.714 346.786 207.806 346.489 207.806V208.249H347.149V211.105H347.76ZM349.049 211.105V209.401L348.962 208.206L349.39 209.245L350.017 210.494H350.634L351.261 209.245L351.678 208.206L351.602 209.401V211.105H352.213V207.481H351.467L350.688 209.071L350.326 209.997L349.969 209.071L349.19 207.481H348.438V211.105H349.049Z" fill="#041004"/>
<rect x="371.758" y="203.398" width="24.8837" height="11.9009" rx="4.3276" fill="#F2F2F2"/>
<path d="M382.92 211.105V207.481H382.385C382.201 207.714 381.947 207.806 381.649 207.806V208.249H382.309V211.105H382.92ZM385.242 211.105V209.796L386.605 207.481H385.897L385.334 208.482L384.939 209.31L384.561 208.476L384.025 207.481H383.268L384.631 209.796V211.105H385.242Z" fill="#041004"/>
</g>
<rect x="280.879" y="80.6055" width="69.2415" height="21.097" rx="10.5485" fill="#000001"/>
<g opacity="0.5">
<circle cx="339.301" cy="90.8862" r="4.3276" transform="rotate(90 339.301 90.8862)" stroke="#A0A9BB" stroke-opacity="0.25" stroke-width="0.540949"/>
<circle cx="339.301" cy="90.8862" r="4.3276" transform="rotate(90 339.301 90.8862)" stroke="url(#paint10_linear_3407_31447)" stroke-width="0.540949"/>
</g>
<g filter="url(#filter2_i_3407_31447)">
<ellipse cx="339.297" cy="92.7323" rx="1.12288" ry="2.1638" transform="rotate(90 339.297 92.7323)" fill="url(#paint11_radial_3407_31447)"/>
</g>
<g filter="url(#filter3_i_3407_31447)">
<ellipse cx="1.12288" cy="2.1638" rx="1.12288" ry="2.1638" transform="matrix(-1.19249e-08 -1 -1 1.19249e-08 341.461 90.25)" fill="url(#paint12_radial_3407_31447)"/>
</g>
<rect x="193.832" y="118.789" width="1.14761" height="8.03327" fill="url(#paint13_linear_3407_31447)"/>
<rect x="435.977" y="118.789" width="1.14761" height="8.03327" fill="url(#paint14_linear_3407_31447)"/>
<rect x="392.367" y="67.1484" width="1.14761" height="8.03327" transform="rotate(90 392.367 67.1484)" fill="url(#paint15_linear_3407_31447)"/>
<rect x="244.328" y="67.1484" width="1.14761" height="8.03327" transform="rotate(90 244.328 67.1484)" fill="url(#paint16_linear_3407_31447)"/>
<g filter="url(#filter4_d_3407_31447)">
<rect opacity="0.94" x="255" y="103" width="303" height="59.7363" rx="5.75772" fill="white"/>
<path d="M312.316 129.551V128.399H308.159V126.188H311.602V125.037H308.159V122.987H312.316V121.835H306.858V129.551H312.316ZM316.287 129.551V122.987H318.659V121.835H312.625V122.987H314.986V129.551H316.287ZM320.484 129.551V126.188H324.192V129.551H325.493V121.835H324.192V125.037H320.484V121.835H319.183V129.551H320.484Z" fill="black"/>
<path d="M310.675 143.383V142.882H307.359V140.688H310.114V140.179H307.359V138.097H310.675V137.596H306.789V143.383H310.675ZM312.739 143.478C313.275 143.478 313.681 143.227 313.862 142.925L313.663 142.372C313.525 142.666 313.223 142.934 312.851 142.934C312.489 142.934 312.178 142.77 312.178 142.174V139.678H313.568V139.237H312.178V138.218L311.616 138.641V139.237H310.943V139.678H311.616V142.329C311.616 143.081 312.109 143.478 312.739 143.478ZM315.2 143.383V140.982C315.2 140.265 315.563 139.626 316.453 139.626C317.161 139.626 317.454 140.04 317.454 140.714V143.383H318.025V140.585C318.025 139.635 317.489 139.151 316.686 139.151C315.839 139.151 315.347 139.721 315.2 140.395V137.596H314.63V143.383H315.2ZM320.921 143.469C321.802 143.469 322.354 143.046 322.648 142.536L322.303 142.131C322.121 142.536 321.758 142.994 320.921 142.994C320.1 142.994 319.539 142.476 319.504 141.44H322.665C322.674 141.37 322.691 141.267 322.691 141.163C322.691 139.911 321.983 139.151 320.852 139.151C319.729 139.151 318.96 139.963 318.96 141.31C318.96 142.683 319.763 143.469 320.921 143.469ZM320.852 139.617C321.612 139.617 322.121 140.092 322.173 141.025H319.513C319.591 140.092 320.092 139.617 320.852 139.617ZM324.259 143.383V140.982C324.259 140.265 324.751 139.574 325.373 139.574C325.753 139.574 325.908 139.816 325.908 140.084C325.908 140.334 325.805 140.602 325.692 140.731H326.305C326.383 140.593 326.461 140.334 326.461 140.023C326.461 139.453 326.064 139.142 325.58 139.142C324.872 139.142 324.414 139.712 324.259 140.369V139.237H323.689V143.383H324.259ZM328.84 143.469C329.721 143.469 330.274 143.046 330.568 142.536L330.222 142.131C330.041 142.536 329.678 142.994 328.84 142.994C328.02 142.994 327.459 142.476 327.424 141.44H330.585C330.594 141.37 330.611 141.267 330.611 141.163C330.611 139.911 329.903 139.151 328.771 139.151C327.649 139.151 326.88 139.963 326.88 141.31C326.88 142.683 327.683 143.469 328.84 143.469ZM328.771 139.617C329.531 139.617 330.041 140.092 330.093 141.025H327.433C327.51 140.092 328.011 139.617 328.771 139.617ZM332.938 143.469C333.793 143.469 334.26 142.891 334.407 142.2V143.383H334.968V139.237H334.407V141.63C334.407 142.355 334.061 142.986 333.163 142.986C332.455 142.986 332.144 142.571 332.144 141.906V139.237H331.582V142.027C331.582 142.986 332.126 143.469 332.938 143.469ZM336.75 143.383V140.982C336.75 140.265 337.104 139.626 337.838 139.626C338.486 139.626 338.805 139.98 338.805 140.705V143.383H339.367V140.982C339.367 140.265 339.721 139.626 340.463 139.626C341.102 139.626 341.422 139.98 341.422 140.705V143.383H341.992V140.576C341.992 139.626 341.543 139.151 340.748 139.151C339.971 139.151 339.496 139.73 339.358 140.412C339.315 139.574 338.874 139.151 338.123 139.151C337.354 139.151 336.896 139.712 336.75 140.395V139.237H336.18V143.383H336.75Z" fill="#B3B3B3"/>
<path fill-rule="evenodd" clip-rule="evenodd" d="M284.149 144.743C277.59 144.743 272.273 139.426 272.273 132.867C272.273 126.309 277.59 120.992 284.149 120.992C290.708 120.992 296.024 126.309 296.024 132.867C296.024 139.426 290.708 144.743 284.149 144.743ZM290.082 133.03L284.518 123.961L278.953 133.031L284.518 136.262L290.082 133.03ZM290.086 134.067L284.518 137.296L278.953 134.068L284.518 141.77L290.086 134.067Z" fill="black"/>
<path d="M284.516 123.961V130.544L290.08 133.031L284.516 123.961ZM284.516 137.297V141.77L290.084 134.067L284.516 137.297Z" fill="black" fill-opacity="0.298"/>
<path d="M284.516 136.263L290.08 133.032L284.516 130.547V136.263Z" fill="black" fill-opacity="0.801"/>
<path d="M278.953 133.032L284.518 136.263V130.547L278.953 133.032Z" fill="black" fill-opacity="0.298"/>
<path d="M491.66 132.866V131.818C493.088 131.726 494.125 130.943 494.125 129.631C494.125 128.157 493.019 127.673 491.787 127.374L491.66 127.339V125.232C492.236 125.416 492.731 125.819 493.019 126.475L493.998 125.543C493.549 124.679 492.72 124.126 491.66 123.953V122.848H490.854V123.896C489.449 123.896 488.194 124.679 488.194 126.13C488.194 127.592 489.357 128.087 490.451 128.318L490.854 128.41V130.586C490.048 130.437 489.219 129.976 488.885 129.066L487.964 129.999C488.494 131.139 489.599 131.692 490.854 131.807V132.866H491.66ZM489.553 126.038C489.553 125.45 490.083 125.105 490.82 125.105H490.854V127.143C490.083 126.959 489.553 126.717 489.553 126.038ZM492.8 129.654C492.8 130.275 492.305 130.563 491.66 130.621V128.594C492.374 128.79 492.8 129.032 492.8 129.654ZM498.454 131.83C500.205 131.83 501.299 130.771 501.299 129.181C501.299 127.65 500.446 126.66 498.984 126.66C497.959 126.66 497.337 127.212 497.095 127.903L497.28 125.197H500.723V123.999H496.036L495.783 128.387L497.049 128.514L497.061 128.41C497.13 127.915 497.648 127.604 498.385 127.604C499.18 127.604 499.905 128.041 499.905 129.124C499.905 130.022 499.398 130.575 498.466 130.575C497.475 130.575 496.796 129.999 496.531 129.043L495.495 130.045C495.886 131.047 496.98 131.83 498.454 131.83ZM505.471 131.818C507.625 131.818 508.707 130.114 508.707 127.846C508.707 125.589 507.625 123.884 505.471 123.884C503.318 123.884 502.224 125.589 502.224 127.846C502.224 130.114 503.318 131.818 505.471 131.818ZM505.471 130.575C504.101 130.575 503.594 129.469 503.594 127.846C503.594 126.233 504.101 125.116 505.471 125.116C506.853 125.116 507.348 126.233 507.348 127.846C507.348 129.469 506.853 130.575 505.471 130.575ZM512.995 131.818C515.148 131.818 516.231 130.114 516.231 127.846C516.231 125.589 515.148 123.884 512.995 123.884C510.841 123.884 509.747 125.589 509.747 127.846C509.747 130.114 510.841 131.818 512.995 131.818ZM512.995 130.575C511.624 130.575 511.118 129.469 511.118 127.846C511.118 126.233 511.624 125.116 512.995 125.116C514.377 125.116 514.872 126.233 514.872 127.846C514.872 129.469 514.377 130.575 512.995 130.575ZM518.576 131.715V130.08H517.102V131.715H518.576ZM524.812 131.715V129.976H526.113V128.847H524.812V123.999H523.441L519.664 128.974V129.976H523.522V131.715H524.812ZM521.092 128.847L523.522 125.681V128.847H521.092ZM529.886 131.83C531.636 131.83 532.73 130.771 532.73 129.181C532.73 127.65 531.878 126.66 530.415 126.66C529.39 126.66 528.769 127.212 528.527 127.903L528.711 125.197H532.154V123.999H527.467L527.214 128.387L528.481 128.514L528.492 128.41C528.561 127.915 529.079 127.604 529.816 127.604C530.611 127.604 531.336 128.041 531.336 129.124C531.336 130.022 530.83 130.575 529.897 130.575C528.907 130.575 528.227 129.999 527.962 129.043L526.926 130.045C527.318 131.047 528.412 131.83 529.886 131.83ZM536.763 131.83C538.422 131.83 539.562 130.713 539.562 129.158C539.562 127.765 538.859 126.683 537.305 126.683C536.119 126.683 535.336 127.362 535.174 128.502V127.765C535.174 125.715 535.957 125.163 536.856 125.163C537.627 125.163 538.191 125.589 538.537 126.28L539.424 125.209C538.94 124.426 538.065 123.884 536.925 123.884C534.863 123.884 533.769 125.289 533.769 127.765V127.892C533.769 130.759 534.909 131.83 536.763 131.83ZM536.729 130.598C535.808 130.598 535.266 130.103 535.266 129.043C535.266 128.168 535.842 127.696 536.752 127.696C537.731 127.696 538.168 128.283 538.168 129.158C538.168 129.976 537.627 130.598 536.729 130.598Z" fill="black"/>
<path d="M522.881 143.181C524.198 143.181 524.817 142.095 524.817 140.691C524.817 139.302 524.198 138.215 522.881 138.215C521.557 138.215 520.938 139.302 520.938 140.691C520.938 142.095 521.557 143.181 522.881 143.181ZM522.888 142.584C521.931 142.584 521.6 141.799 521.6 140.691C521.6 139.597 521.931 138.805 522.888 138.805C523.838 138.805 524.162 139.597 524.162 140.691C524.162 141.799 523.838 142.584 522.888 142.584ZM526.221 143.109V142.174H525.465V143.109H526.221ZM530.076 143.109V141.958H530.94V141.404H530.076V138.287H529.45L527.024 141.468V141.958H529.45V143.109H530.076ZM527.737 141.404L529.45 139.194V141.404H527.737ZM533.332 143.181C534.383 143.181 535.045 142.649 535.045 141.864C535.045 141.238 534.728 140.691 533.85 140.619C534.462 140.533 534.829 140.022 534.829 139.525C534.829 138.906 534.411 138.215 533.296 138.215C532.432 138.215 531.799 138.734 531.597 139.388L532.13 139.835C532.216 139.173 532.663 138.82 533.281 138.82C533.9 138.82 534.174 139.201 534.174 139.662C534.174 140.166 533.872 140.425 533.267 140.425H532.475V140.965H533.26C533.929 140.965 534.383 141.224 534.383 141.799C534.383 142.289 534.03 142.584 533.411 142.584C532.504 142.584 532.195 142.095 532.051 141.36L531.518 141.835C531.677 142.562 532.288 143.181 533.332 143.181ZM536.688 140.396C537.286 140.396 537.732 139.971 537.732 139.309C537.732 138.647 537.286 138.223 536.688 138.223C536.084 138.223 535.637 138.647 535.637 139.309C535.637 139.971 536.084 140.396 536.688 140.396ZM536.537 143.109L539.934 138.287H539.279L535.882 143.109H536.537ZM536.688 139.935C536.35 139.935 536.148 139.691 536.148 139.309C536.148 138.921 536.35 138.676 536.688 138.676C537.027 138.676 537.235 138.921 537.235 139.309C537.235 139.691 537.027 139.935 536.688 139.935ZM539.15 143.109C539.747 143.109 540.193 142.685 540.193 142.023C540.193 141.36 539.747 140.936 539.15 140.936C538.545 140.936 538.099 141.36 538.099 142.023C538.099 142.685 538.545 143.109 539.15 143.109ZM539.15 142.649C538.811 142.649 538.61 142.404 538.61 142.023C538.61 141.634 538.811 141.389 539.15 141.389C539.488 141.389 539.697 141.634 539.697 142.023C539.697 142.404 539.488 142.649 539.15 142.649Z" fill="#228B22"/>
<path d="M516.26 139.707L517.506 141.866H515.013L516.26 139.707Z" fill="#228B22"/>
<path d="M386.707 128.91L390.269 132.812C392.379 135.122 396.045 135.031 398.037 132.619V132.619C399.762 130.532 402.809 130.138 405.008 131.718L407.471 133.488C410.516 135.677 414.644 135.579 417.582 133.249L418.144 132.803C421.113 130.448 425.212 130.121 428.517 131.976L437.807 137.187" stroke="#005FEE" stroke-width="0.719715"/>
</g>
</g>
<rect x="1" y="1" width="688" height="389" rx="7" stroke="white" stroke-width="2"/>
<defs>
<filter id="filter0_f_3407_31447" x="120" y="27" width="179" height="456" filterUnits="userSpaceOnUse" color-interpolation-filters="sRGB">
<feFlood flood-opacity="0" result="BackgroundImageFix"/>
<feBlend mode="normal" in="SourceGraphic" in2="BackgroundImageFix" result="shape"/>
<feGaussianBlur stdDeviation="30" result="effect1_foregroundBlur_3407_31447"/>
</filter>
<filter id="filter1_d_3407_31447" x="271.146" y="255.872" width="55.7859" height="35.2937" filterUnits="userSpaceOnUse" color-interpolation-filters="sRGB">
<feFlood flood-opacity="0" result="BackgroundImageFix"/>
<feColorMatrix in="SourceAlpha" type="matrix" values="0 0 0 0 0 0 0 0 0 0 0 0 0 0 0 0 0 0 127 0" result="hardAlpha"/>
<feOffset dy="2.1638"/>
<feGaussianBlur stdDeviation="6.49139"/>
<feComposite in2="hardAlpha" operator="out"/>
<feColorMatrix type="matrix" values="0 0 0 0 0.325 0 0 0 0 0.325 0 0 0 0 0.325 0 0 0 0.15 0"/>
<feBlend mode="normal" in2="BackgroundImageFix" result="effect1_dropShadow_3407_31447"/>
<feBlend mode="normal" in="SourceGraphic" in2="effect1_dropShadow_3407_31447" result="shape"/>
</filter>
<filter id="filter2_i_3407_31447" x="337.133" y="91.6094" width="4.32812" height="2.24609" filterUnits="userSpaceOnUse" color-interpolation-filters="sRGB">
<feFlood flood-opacity="0" result="BackgroundImageFix"/>
<feBlend mode="normal" in="SourceGraphic" in2="BackgroundImageFix" result="shape"/>
<feColorMatrix in="SourceAlpha" type="matrix" values="0 0 0 0 0 0 0 0 0 0 0 0 0 0 0 0 0 0 127 0" result="hardAlpha"/>
<feOffset/>
<feGaussianBlur stdDeviation="0.270475"/>
<feComposite in2="hardAlpha" operator="arithmetic" k2="-1" k3="1"/>
<feColorMatrix type="matrix" values="0 0 0 0 0 0 0 0 0 0 0 0 0 0 0 0 0 0 0.5 0"/>
<feBlend mode="normal" in2="shape" result="effect1_innerShadow_3407_31447"/>
</filter>
<filter id="filter3_i_3407_31447" x="337.133" y="88.0039" width="4.32812" height="2.24609" filterUnits="userSpaceOnUse" color-interpolation-filters="sRGB">
<feFlood flood-opacity="0" result="BackgroundImageFix"/>
<feBlend mode="normal" in="SourceGraphic" in2="BackgroundImageFix" result="shape"/>
<feColorMatrix in="SourceAlpha" type="matrix" values="0 0 0 0 0 0 0 0 0 0 0 0 0 0 0 0 0 0 127 0" result="hardAlpha"/>
<feOffset/>
<feGaussianBlur stdDeviation="0.270475"/>
<feComposite in2="hardAlpha" operator="arithmetic" k2="-1" k3="1"/>
<feColorMatrix type="matrix" values="0 0 0 0 0 0 0 0 0 0 0 0 0 0 0 0 0 0 0.5 0"/>
<feBlend mode="normal" in2="shape" result="effect1_innerShadow_3407_31447"/>
</filter>
<filter id="filter4_d_3407_31447" x="220" y="76" width="373" height="129.738" filterUnits="userSpaceOnUse" color-interpolation-filters="sRGB">
<feFlood flood-opacity="0" result="BackgroundImageFix"/>
<feColorMatrix in="SourceAlpha" type="matrix" values="0 0 0 0 0 0 0 0 0 0 0 0 0 0 0 0 0 0 127 0" result="hardAlpha"/>
<feOffset dy="8"/>
<feGaussianBlur stdDeviation="17.5"/>
<feComposite in2="hardAlpha" operator="out"/>
<feColorMatrix type="matrix" values="0 0 0 0 0.170833 0 0 0 0 0.170833 0 0 0 0 0.170833 0 0 0 0.2 0"/>
<feBlend mode="normal" in2="BackgroundImageFix" result="effect1_dropShadow_3407_31447"/>
<feBlend mode="normal" in="SourceGraphic" in2="effect1_dropShadow_3407_31447" result="shape"/>
</filter>
<linearGradient id="paint0_linear_3407_31447" x1="560.367" y1="47.6055" x2="-74.2329" y2="376.924" gradientUnits="userSpaceOnUse">
<stop stop-color="#FFDA6D"/>
<stop offset="0.415242" stop-color="#D7DBFF"/>
<stop offset="0.92765" stop-color="#47AA8B"/>
</linearGradient>
<linearGradient id="paint1_linear_3407_31447" x1="2.87068" y1="0" x2="2.87068" y2="58.5281" gradientUnits="userSpaceOnUse">
<stop stop-color="#4F4F4F"/>
<stop offset="1" stop-color="#171717"/>
</linearGradient>
<linearGradient id="paint2_linear_3407_31447" x1="2.87068" y1="0" x2="2.87068" y2="56.2329" gradientUnits="userSpaceOnUse">
<stop stop-color="#898989"/>
<stop offset="1" stop-color="#5F5F5F"/>
</linearGradient>
<linearGradient id="paint3_linear_3407_31447" x1="2.91154" y1="0" x2="2.91154" y2="38.9193" gradientUnits="userSpaceOnUse">
<stop stop-color="#171717"/>
<stop offset="1" stop-color="#464646"/>
</linearGradient>
<linearGradient id="paint4_linear_3407_31447" x1="2.91154" y1="0" x2="2.91154" y2="36.7369" gradientUnits="userSpaceOnUse">
<stop stop-color="#898989"/>
<stop offset="1" stop-color="#5F5F5F"/>
</linearGradient>
<linearGradient id="paint5_linear_3407_31447" x1="2.91154" y1="0" x2="2.91154" y2="38.1918" gradientUnits="userSpaceOnUse">
<stop stop-color="#171717"/>
<stop offset="1" stop-color="#707070"/>
</linearGradient>
<linearGradient id="paint6_linear_3407_31447" x1="2.91154" y1="0" x2="2.91154" y2="16.7317" gradientUnits="userSpaceOnUse">
<stop stop-color="#171717"/>
<stop offset="1" stop-color="#7C7C7C"/>
</linearGradient>
<linearGradient id="paint7_linear_3407_31447" x1="2.91154" y1="0" x2="2.91154" y2="36.7369" gradientUnits="userSpaceOnUse">
<stop stop-color="#898989"/>
<stop offset="1" stop-color="#B9B9B9"/>
</linearGradient>
<linearGradient id="paint8_linear_3407_31447" x1="2.91154" y1="0" x2="2.91154" y2="14.5493" gradientUnits="userSpaceOnUse">
<stop stop-color="#898989"/>
<stop offset="1" stop-color="white"/>
</linearGradient>
<linearGradient id="paint9_linear_3407_31447" x1="437.126" y1="67.1484" x2="193.832" y2="557.178" gradientUnits="userSpaceOnUse">
<stop stop-color="#EFEFEF"/>
<stop offset="1" stop-color="#555555"/>
</linearGradient>
<linearGradient id="paint10_linear_3407_31447" x1="333.968" y1="89.9591" x2="338.119" y2="96.6374" gradientUnits="userSpaceOnUse">
<stop stop-color="#010005" stop-opacity="0.66"/>
<stop offset="1" stop-color="#2E2D31"/>
</linearGradient>
<radialGradient id="paint11_radial_3407_31447" cx="0" cy="0" r="1" gradientUnits="userSpaceOnUse" gradientTransform="translate(338.731 92.7323) rotate(90) scale(2.77474 1.14079)">
<stop stop-color="#1F85DE"/>
<stop offset="0.257948" stop-color="#1B75C9"/>
<stop offset="1" stop-color="#000232"/>
</radialGradient>
<radialGradient id="paint12_radial_3407_31447" cx="0" cy="0" r="1" gradientUnits="userSpaceOnUse" gradientTransform="translate(0.557016 2.1638) rotate(90) scale(2.77474 1.14079)">
<stop stop-color="#1F85DE"/>
<stop offset="0.257948" stop-color="#1B75C9"/>
<stop offset="1" stop-color="#000232"/>
</radialGradient>
<linearGradient id="paint13_linear_3407_31447" x1="194.406" y1="118.789" x2="194.406" y2="126.822" gradientUnits="userSpaceOnUse">
<stop stop-color="#5A5A5A"/>
<stop offset="0.53125" stop-color="#242424"/>
<stop offset="1" stop-color="#585858"/>
</linearGradient>
<linearGradient id="paint14_linear_3407_31447" x1="436.55" y1="118.789" x2="436.55" y2="126.822" gradientUnits="userSpaceOnUse">
<stop stop-color="#5A5A5A"/>
<stop offset="0.53125" stop-color="#242424"/>
<stop offset="1" stop-color="#585858"/>
</linearGradient>
<linearGradient id="paint15_linear_3407_31447" x1="392.941" y1="67.1484" x2="392.941" y2="75.1817" gradientUnits="userSpaceOnUse">
<stop stop-color="#5A5A5A"/>
<stop offset="0.53125" stop-color="#242424"/>
<stop offset="1" stop-color="#585858"/>
</linearGradient>
<linearGradient id="paint16_linear_3407_31447" x1="244.902" y1="67.1484" x2="244.902" y2="75.1817" gradientUnits="userSpaceOnUse">
<stop stop-color="#5A5A5A"/>
<stop offset="0.53125" stop-color="#242424"/>
<stop offset="1" stop-color="#585858"/>
</linearGradient>
<clipPath id="clip0_3407_31447">
<rect width="690" height="391" rx="8" fill="white"/>
</clipPath>
<clipPath id="clip1_3407_31447">
<rect x="200.277" y="80.0664" width="229.363" height="500.919" rx="32.457" fill="white"/>
</clipPath>
<clipPath id="clip2_3407_31447">
<rect width="228.302" height="29.8713" fill="white" transform="translate(200.246 79.9883)"/>
</clipPath>
<clipPath id="clip3_3407_31447">
<rect width="9.73709" height="9.73709" fill="white" transform="translate(211.098 126.586)"/>
</clipPath>
</defs>
</svg>
