<svg width="361" height="150" viewBox="0 0 361 150" fill="none" xmlns="http://www.w3.org/2000/svg">
<path d="M302.926 91.9602C300.403 95.587 301.297 100.573 304.924 103.096C308.551 105.619 313.537 104.725 316.06 101.098C318.583 97.4713 317.689 92.4856 314.062 89.9623C310.435 87.4389 305.449 88.3334 302.926 91.9602ZM328.018 85.6624L329.501 85.4398L329.49 85.3692L329.473 85.2999L328.018 85.6624ZM334.485 97.0057C333.702 97.2774 333.288 98.1321 333.56 98.9147C333.831 99.6973 334.686 100.111 335.469 99.8398L334.485 97.0057ZM310.917 96.9995C311.911 93.9913 313.229 90.5556 314.721 87.4202C316.226 84.2579 317.856 81.5115 319.443 79.7961C320.237 78.9367 320.934 78.4328 321.504 78.2119C322.013 78.0145 322.408 78.0403 322.807 78.257C323.275 78.5114 323.902 79.1167 324.587 80.4083C325.264 81.6848 325.936 83.5123 326.562 86.0249L329.473 85.2999C328.814 82.6549 328.07 80.5721 327.237 79.002C326.412 77.4468 325.433 76.2691 324.239 75.6207C322.975 74.9346 321.65 74.9378 320.42 75.4145C319.251 75.8677 318.187 76.7347 317.24 77.7593C315.342 79.8121 313.556 82.887 312.012 86.1311C310.456 89.4021 309.092 92.9581 308.069 96.0589L310.917 96.9995ZM326.534 85.885C326.973 88.8108 326.997 92.1422 326.93 95.4167C326.864 98.628 326.706 101.862 326.818 104.363C326.874 105.619 327.001 106.803 327.281 107.778C327.548 108.709 328.045 109.776 329.094 110.324C330.207 110.905 331.411 110.643 332.449 110.125C333.497 109.603 334.671 108.685 335.998 107.41L333.919 105.247C332.672 106.445 331.756 107.119 331.111 107.44C330.455 107.767 330.361 107.601 330.484 107.665C330.543 107.696 330.36 107.632 330.165 106.952C329.983 106.316 329.868 105.41 329.815 104.229C329.709 101.858 329.86 98.8353 329.929 95.4783C329.997 92.1844 329.981 88.6353 329.501 85.4398L326.534 85.885ZM335.998 107.41C338.598 104.911 340.262 102.984 341.181 101.501C341.638 100.763 341.971 100.043 342.094 99.3507C342.223 98.6258 342.134 97.8266 341.601 97.1663C341.103 96.5493 340.409 96.2951 339.847 96.1886C339.272 96.0796 338.656 96.0886 338.077 96.1472C336.914 96.2648 335.614 96.6136 334.485 97.0057L335.469 99.8398C336.481 99.4885 337.536 99.2172 338.379 99.132C338.804 99.0891 339.103 99.101 339.288 99.136C339.485 99.1734 339.391 99.2043 339.266 99.05C339.107 98.8526 339.164 98.694 339.14 98.8243C339.111 98.9874 338.993 99.3368 338.631 99.9202C337.913 101.079 336.466 102.799 333.919 105.247L335.998 107.41Z" fill="url(#paint0_linear_4348_31826)"/>
<path d="M6.24 15.57C6.24 14.79 6.11 13.9667 5.85 13.1C5.59 12.2333 5.22167 11.41 4.745 10.63C4.31167 9.80667 3.79167 9.04833 3.185 8.355C2.57833 7.66167 1.95 7.12 1.3 6.73H12.935L28.405 43.26L41.86 6.795L51.74 6.73C51.0467 7.16333 50.4833 7.72666 50.05 8.42C49.6167 9.11333 49.2917 9.87167 49.075 10.695C48.8583 11.475 48.7067 12.2983 48.62 13.165C48.5333 14.0317 48.49 14.8333 48.49 15.57V47.16C48.49 47.8967 48.5117 48.6983 48.555 49.565C48.6417 50.4317 48.7933 51.2767 49.01 52.1C49.2267 52.9233 49.5517 53.6817 49.985 54.375C50.4183 55.0683 51.0033 55.61 51.74 56H35.685C36.3783 55.61 36.9417 55.0683 37.375 54.375C37.8083 53.6383 38.1333 52.88 38.35 52.1C38.61 51.2767 38.7833 50.4317 38.87 49.565C38.9567 48.6983 39 47.8967 39 47.16V19.015L25.415 56H23.465L7.8 19.015V40.14C7.8 41.96 7.995 43.715 8.385 45.405C8.775 47.0517 9.38167 48.5683 10.205 49.955C11.0283 51.3417 12.09 52.555 13.39 53.595C14.69 54.635 16.25 55.4367 18.07 56H1.3C2.42667 55.6533 3.29333 55.22 3.9 54.7C4.55 54.1367 5.02667 53.4867 5.33 52.75C5.67667 51.97 5.89333 51.125 5.98 50.215C6.06667 49.2617 6.13167 48.265 6.175 47.225C6.21833 46.055 6.24 44.885 6.24 43.715C6.24 42.5017 6.24 41.31 6.24 40.14V15.57ZM69.3164 24.085C71.5697 24.085 73.6497 24.5183 75.5564 25.385C77.4631 26.2517 79.1097 27.4433 80.4964 28.96C81.9264 30.4333 83.0314 32.1667 83.8114 34.16C84.5914 36.11 84.9814 38.19 84.9814 40.4C84.9814 42.61 84.5914 44.7117 83.8114 46.705C83.0314 48.655 81.9264 50.3667 80.4964 51.84C79.1097 53.3133 77.4631 54.4833 75.5564 55.35C73.6497 56.2167 71.5697 56.65 69.3164 56.65C67.0631 56.65 64.9614 56.2167 63.0114 55.35C61.1047 54.4833 59.4581 53.3133 58.0714 51.84C56.6847 50.3667 55.5797 48.655 54.7564 46.705C53.9764 44.7117 53.5864 42.61 53.5864 40.4C53.5864 38.19 53.9764 36.11 54.7564 34.16C55.5797 32.1667 56.6847 30.4333 58.0714 28.96C59.4581 27.4433 61.1047 26.2517 63.0114 25.385C64.9614 24.5183 67.0631 24.085 69.3164 24.085ZM71.3964 54.895C72.3931 54.895 73.1731 54.5267 73.7364 53.79C74.2997 53.0533 74.7331 52.1867 75.0364 51.19C75.3397 50.15 75.5347 49.0883 75.6214 48.005C75.7081 46.9217 75.7514 46.055 75.7514 45.405C75.7514 44.5817 75.6864 43.52 75.5564 42.22C75.4264 40.92 75.2097 39.555 74.9064 38.125C74.6031 36.695 74.2131 35.265 73.7364 33.835C73.3031 32.3617 72.7397 31.0617 72.0464 29.935C71.3531 28.765 70.5514 27.8117 69.6414 27.075C68.7747 26.3383 67.7564 25.97 66.5864 25.97C65.6764 25.97 64.9614 26.3167 64.4414 27.01C63.9214 27.7033 63.5314 28.5267 63.2714 29.48C63.0114 30.4333 62.8381 31.4083 62.7514 32.405C62.7081 33.4017 62.6864 34.2033 62.6864 34.81C62.6864 35.59 62.7514 36.63 62.8814 37.93C63.0114 39.1867 63.2064 40.5733 63.4664 42.09C63.7697 43.5633 64.1381 45.0583 64.5714 46.575C65.0481 48.0917 65.6114 49.4783 66.2614 50.735C66.9114 51.9483 67.6481 52.945 68.4714 53.725C69.3381 54.505 70.3131 54.895 71.3964 54.895ZM95.7079 54.375C95.1446 54.4183 94.5163 54.505 93.8229 54.635C93.1729 54.765 92.5446 54.895 91.9379 55.025C91.3313 55.155 90.7679 55.3067 90.2479 55.48C89.7279 55.61 89.3163 55.7617 89.0129 55.935L89.1429 23.175C89.1429 21.355 88.8179 19.8383 88.1679 18.625C87.5179 17.3683 86.6296 16.0467 85.5029 14.66C87.0196 14.4 88.2979 14.1617 89.3379 13.945C90.4213 13.685 91.4179 13.3817 92.3279 13.035C93.2813 12.6883 94.2346 12.2767 95.1879 11.8C96.1846 11.28 97.3329 10.6517 98.6329 9.915V29.285C99.1963 28.635 99.7813 28.0067 100.388 27.4C101.038 26.75 101.666 26.165 102.273 25.645C102.923 25.125 103.551 24.7133 104.158 24.41C104.808 24.0633 105.393 23.89 105.913 23.89C108.166 23.89 110.16 24.3233 111.893 25.19C113.626 26.0567 115.078 27.2267 116.248 28.7C117.461 30.13 118.371 31.7983 118.978 33.705C119.585 35.6117 119.888 37.605 119.888 39.685C119.888 41.895 119.563 44.0183 118.913 46.055C118.263 48.0917 117.288 49.89 115.988 51.45C114.731 53.01 113.171 54.2667 111.308 55.22C109.488 56.13 107.408 56.585 105.068 56.585C104.115 56.585 103.248 56.52 102.468 56.39C101.688 56.26 100.93 56.1083 100.193 55.935C99.4996 55.7183 98.7846 55.48 98.0479 55.22C97.3546 54.96 96.5746 54.6783 95.7079 54.375ZM98.6329 29.87V46.51C98.6329 47.3333 98.6979 48.2433 98.8279 49.24C98.9579 50.2367 99.2179 51.1683 99.6079 52.035C99.9979 52.8583 100.518 53.5517 101.168 54.115C101.861 54.6783 102.75 54.96 103.833 54.96C105.176 54.96 106.303 54.5917 107.213 53.855C108.123 53.075 108.838 52.1217 109.358 50.995C109.921 49.8683 110.311 48.6767 110.528 47.42C110.788 46.12 110.918 44.9283 110.918 43.845C110.918 42.155 110.701 40.465 110.268 38.775C109.835 37.085 109.163 35.5683 108.253 34.225C107.343 32.8383 106.173 31.7333 104.743 30.91C103.356 30.0433 101.71 29.61 99.8029 29.61C99.3263 29.61 98.9363 29.6967 98.6329 29.87ZM140.435 12.71C139.222 11.0633 137.575 9.74166 135.495 8.745C133.458 7.705 131.422 7.185 129.385 7.185C127.045 7.185 125.095 7.835 123.535 9.135C121.975 10.435 121.195 12.2983 121.195 14.725C121.195 16.3283 121.585 17.8017 122.365 19.145C123.188 20.445 124.293 21.5067 125.68 22.33C125.03 21.8533 124.488 21.29 124.055 20.64C123.665 19.9467 123.47 19.1883 123.47 18.365C123.47 17.065 123.925 15.96 124.835 15.05C125.788 14.0967 126.915 13.62 128.215 13.62C129.515 13.62 130.62 14.0967 131.53 15.05C132.483 15.96 132.96 17.065 132.96 18.365C132.96 19.665 132.483 20.7917 131.53 21.745C130.62 22.655 129.515 23.11 128.215 23.11C127.478 23.11 126.742 22.9367 126.005 22.59C125.268 22.2 124.597 21.8317 123.99 21.485C122.257 20.575 120.783 19.3183 119.57 17.715C118.357 16.1117 117.75 14.2917 117.75 12.255C117.75 10.955 118.01 9.85 118.53 8.94C119.007 7.98666 119.657 7.20666 120.48 6.6C121.347 5.99333 122.322 5.56 123.405 5.3C124.488 4.99666 125.615 4.845 126.785 4.845C129.212 4.845 131.465 5.3 133.545 6.21C135.625 7.07666 137.662 8.07333 139.655 9.2C141.648 10.3267 143.663 11.4317 145.7 12.515C147.737 13.5983 149.925 14.335 152.265 14.725C151.182 16.0683 150.51 17.4117 150.25 18.755C150.033 20.055 149.925 21.55 149.925 23.24V47.16C149.925 47.8967 149.947 48.6983 149.99 49.565C150.077 50.4317 150.228 51.2767 150.445 52.1C150.705 52.9233 151.052 53.6817 151.485 54.375C151.918 55.0683 152.503 55.61 153.24 56H137.12C137.857 55.61 138.442 55.0683 138.875 54.375C139.308 53.6817 139.633 52.9233 139.85 52.1C140.067 51.2767 140.218 50.4317 140.305 49.565C140.392 48.6983 140.435 47.8967 140.435 47.16V12.71ZM136.795 56H120.74C121.433 55.61 121.997 55.0683 122.43 54.375C122.863 53.6383 123.188 52.88 123.405 52.1C123.665 51.2767 123.838 50.4317 123.925 49.565C124.012 48.6983 124.055 47.8967 124.055 47.16V37.93C124.055 37.02 123.968 36.1967 123.795 35.46C123.622 34.68 123.383 33.965 123.08 33.315C122.777 32.665 122.387 32.0367 121.91 31.43C121.477 30.78 120.978 30.1083 120.415 29.415C121.932 29.155 123.21 28.9167 124.25 28.7C125.333 28.44 126.33 28.1367 127.24 27.79C128.193 27.4433 129.147 27.0317 130.1 26.555C131.097 26.035 132.245 25.385 133.545 24.605V47.16C133.545 47.8967 133.567 48.6983 133.61 49.565C133.697 50.4317 133.848 51.2767 134.065 52.1C134.282 52.9233 134.607 53.6817 135.04 54.375C135.473 55.0683 136.058 55.61 136.795 56ZM163.632 40.075C163.936 41.4183 164.391 42.6967 164.997 43.91C165.604 45.08 166.362 46.12 167.272 47.03C168.182 47.8967 169.244 48.59 170.457 49.11C171.714 49.63 173.122 49.89 174.682 49.89C175.159 49.89 175.722 49.8683 176.372 49.825C177.066 49.7383 177.759 49.63 178.452 49.5C179.146 49.37 179.796 49.1967 180.402 48.98C181.052 48.72 181.551 48.4167 181.897 48.07L182.417 48.46C180.944 51.1467 179.189 53.1833 177.152 54.57C175.159 55.9567 172.559 56.65 169.352 56.65C167.099 56.65 164.997 56.2383 163.047 55.415C161.141 54.5917 159.494 53.465 158.107 52.035C156.764 50.5617 155.702 48.85 154.922 46.9C154.142 44.95 153.752 42.8483 153.752 40.595C153.752 38.4283 154.077 36.3483 154.727 34.355C155.421 32.3617 156.396 30.6067 157.652 29.09C158.952 27.5733 160.512 26.36 162.332 25.45C164.152 24.54 166.211 24.085 168.507 24.085C170.587 24.085 172.472 24.41 174.162 25.06C175.896 25.6667 177.347 26.5767 178.517 27.79C179.731 28.96 180.662 30.39 181.312 32.08C181.962 33.77 182.287 35.655 182.287 37.735V39.295L163.632 40.075ZM173.577 32.535C173.577 31.7983 173.426 31.0183 173.122 30.195C172.862 29.3717 172.472 28.635 171.952 27.985C171.432 27.2917 170.826 26.7283 170.132 26.295C169.439 25.8617 168.681 25.645 167.857 25.645C166.904 25.645 166.124 26.035 165.517 26.815C164.911 27.595 164.434 28.5267 164.087 29.61C163.741 30.65 163.481 31.7333 163.307 32.86C163.177 33.9867 163.112 34.875 163.112 35.525C163.112 36.4783 163.177 37.4533 163.307 38.45C164.174 38.3633 165.041 38.255 165.907 38.125C166.774 37.995 167.641 37.865 168.507 37.735C169.981 37.5183 171.194 36.9983 172.147 36.175C173.101 35.3517 173.577 34.1383 173.577 32.535ZM213.18 10.63C214.177 10.63 215.195 10.76 216.235 11.02C217.275 11.28 218.207 11.67 219.03 12.19C219.897 12.71 220.59 13.4033 221.11 14.27C221.63 15.0933 221.89 16.09 221.89 17.26C221.89 18.7767 221.392 20.0333 220.395 21.03C219.399 21.9833 218.142 22.46 216.625 22.46C215.239 22.46 214.09 22.005 213.18 21.095C212.27 20.185 211.62 19.1017 211.23 17.845C212.054 17.845 212.725 17.6067 213.245 17.13C213.765 16.61 214.025 15.9383 214.025 15.115C214.025 14.2483 213.744 13.5767 213.18 13.1C212.617 12.58 211.902 12.32 211.035 12.32C210.342 12.32 209.692 12.4717 209.085 12.775C208.479 13.0783 207.959 13.49 207.525 14.01C207.135 14.53 206.81 15.115 206.55 15.765C206.334 16.415 206.225 17.065 206.225 17.715C206.225 19.0583 206.55 20.185 207.2 21.095C207.894 21.9617 208.76 22.655 209.8 23.175C210.84 23.695 211.967 24.0633 213.18 24.28C214.394 24.4967 215.542 24.605 216.625 24.605V26.165H209.215V47.16C209.215 47.8967 209.237 48.6983 209.28 49.565C209.367 50.4317 209.519 51.2767 209.735 52.1C209.952 52.9233 210.277 53.6817 210.71 54.375C211.144 55.0683 211.729 55.61 212.465 56H196.41C197.104 55.61 197.667 55.0683 198.1 54.375C198.534 53.6383 198.859 52.88 199.075 52.1C199.335 51.2767 199.509 50.4317 199.595 49.565C199.682 48.6983 199.725 47.8967 199.725 47.16V26.165H196.15V24.605H199.855C199.855 22.525 200.137 20.64 200.7 18.95C201.307 17.2167 202.174 15.7433 203.3 14.53C204.427 13.2733 205.814 12.32 207.46 11.67C209.15 10.9767 211.057 10.63 213.18 10.63ZM263.895 56.65C261.728 56.65 259.67 56.26 257.72 55.48C255.813 54.7 254.145 53.6167 252.715 52.23C251.285 50.8433 250.158 49.2183 249.335 47.355C248.512 45.4917 248.1 43.455 248.1 41.245C248.1 38.9917 248.512 37.0417 249.335 35.395C250.202 33.705 251.35 32.3183 252.78 31.235C254.21 30.1083 255.857 29.285 257.72 28.765C259.583 28.2017 261.555 27.92 263.635 27.92C262.855 27.92 262.162 28.2233 261.555 28.83C260.992 29.3933 260.515 30.13 260.125 31.04C259.735 31.95 259.388 32.9683 259.085 34.095C258.825 35.2217 258.63 36.3267 258.5 37.41C258.37 38.45 258.262 39.4467 258.175 40.4C258.132 41.31 258.11 42.025 258.11 42.545C258.11 43.325 258.153 44.4083 258.24 45.795C258.37 47.1817 258.608 48.5683 258.955 49.955C259.345 51.3417 259.865 52.555 260.515 53.595C261.208 54.5917 262.118 55.09 263.245 55.09C264.545 55.09 265.628 54.5483 266.495 53.465C267.405 52.3817 268.12 51.1033 268.64 49.63C269.203 48.1567 269.615 46.64 269.875 45.08C270.135 43.52 270.265 42.285 270.265 41.375C270.265 37.995 269.658 35.07 268.445 32.6C267.275 30.13 265.65 28.0933 263.57 26.49C261.533 24.8433 259.128 23.63 256.355 22.85C253.582 22.0267 250.635 21.615 247.515 21.615C244.352 21.615 241.383 22.005 238.61 22.785C235.837 23.565 233.41 24.7567 231.33 26.36C229.25 27.9633 227.603 30 226.39 32.47C225.22 34.94 224.635 37.8867 224.635 41.31C224.635 42.22 224.765 43.455 225.025 45.015C225.285 46.575 225.675 48.1133 226.195 49.63C226.758 51.1033 227.473 52.3817 228.34 53.465C229.25 54.5483 230.333 55.09 231.59 55.09C232.717 55.09 233.627 54.5917 234.32 53.595C235.013 52.555 235.533 51.3417 235.88 49.955C236.227 48.5683 236.443 47.1817 236.53 45.795C236.66 44.365 236.725 43.26 236.725 42.48C236.725 41.96 236.682 41.245 236.595 40.335C236.552 39.425 236.465 38.4283 236.335 37.345C236.205 36.2617 236.01 35.1783 235.75 34.095C235.49 32.9683 235.143 31.95 234.71 31.04C234.32 30.13 233.843 29.3933 233.28 28.83C232.717 28.2233 232.045 27.92 231.265 27.92C233.345 27.92 235.317 28.2017 237.18 28.765C239.043 29.3283 240.668 30.1733 242.055 31.3C243.485 32.3833 244.612 33.77 245.435 35.46C246.258 37.1067 246.67 39.035 246.67 41.245C246.67 43.455 246.258 45.4917 245.435 47.355C244.612 49.2183 243.485 50.8433 242.055 52.23C240.668 53.6167 239.022 54.7 237.115 55.48C235.208 56.26 233.172 56.65 231.005 56.65C228.752 56.65 226.628 56.26 224.635 55.48C222.685 54.6567 220.973 53.53 219.5 52.1C218.027 50.67 216.857 48.98 215.99 47.03C215.167 45.08 214.755 42.9783 214.755 40.725C214.755 37.605 215.6 34.7017 217.29 32.015C218.807 29.5883 220.735 27.6167 223.075 26.1C225.458 24.5833 228.015 23.3917 230.745 22.525C233.518 21.615 236.357 21.0083 239.26 20.705C242.163 20.3583 244.915 20.185 247.515 20.185C250.115 20.185 252.867 20.3583 255.77 20.705C258.673 21.0517 261.49 21.68 264.22 22.59C266.95 23.4567 269.485 24.67 271.825 26.23C274.208 27.7467 276.137 29.6967 277.61 32.08C279.3 34.7667 280.145 37.6483 280.145 40.725C280.145 42.9783 279.712 45.08 278.845 47.03C278.022 48.98 276.873 50.67 275.4 52.1C273.927 53.53 272.193 54.6567 270.2 55.48C268.25 56.26 266.148 56.65 263.895 56.65ZM313.291 9.98V47.16C313.291 47.8967 313.313 48.6983 313.356 49.565C313.443 50.4317 313.595 51.2767 313.811 52.1C314.028 52.9233 314.353 53.6817 314.786 54.375C315.22 55.0683 315.805 55.61 316.541 56H303.801V53.335C303.065 54.375 302.133 55.1767 301.006 55.74C299.923 56.3033 298.428 56.585 296.521 56.585C294.268 56.585 292.275 56.1517 290.541 55.285C288.808 54.4183 287.335 53.27 286.121 51.84C284.951 50.3667 284.063 48.6767 283.456 46.77C282.85 44.8633 282.546 42.87 282.546 40.79C282.546 38.58 282.871 36.4567 283.521 34.42C284.171 32.3833 285.125 30.585 286.381 29.025C287.681 27.465 289.241 26.23 291.061 25.32C292.925 24.3667 295.026 23.89 297.366 23.89C297.67 23.89 298.125 23.9983 298.731 24.215C299.338 24.3883 299.966 24.605 300.616 24.865C301.266 25.0817 301.895 25.32 302.501 25.58C303.108 25.84 303.541 26.035 303.801 26.165V23.24C303.801 22.33 303.715 21.5067 303.541 20.77C303.368 19.99 303.13 19.275 302.826 18.625C302.523 17.975 302.133 17.3467 301.656 16.74C301.223 16.09 300.725 15.4183 300.161 14.725C301.678 14.465 302.956 14.2267 303.996 14.01C305.08 13.75 306.076 13.4467 306.986 13.1C307.94 12.7533 308.893 12.3417 309.846 11.865C310.843 11.345 311.991 10.7167 313.291 9.98ZM303.801 33.965C303.801 33.0983 303.736 32.1883 303.606 31.235C303.476 30.2383 303.216 29.3283 302.826 28.505C302.436 27.6383 301.895 26.9233 301.201 26.36C300.551 25.7967 299.685 25.515 298.601 25.515C297.301 25.515 296.196 25.8833 295.286 26.62C294.376 27.3133 293.64 28.2017 293.076 29.285C292.513 30.325 292.101 31.4733 291.841 32.73C291.625 33.9433 291.516 35.0917 291.516 36.175C291.516 37.865 291.733 39.5333 292.166 41.18C292.643 42.7833 293.336 44.235 294.246 45.535C295.156 46.7917 296.305 47.8317 297.691 48.655C299.121 49.435 300.768 49.825 302.631 49.825H303.801V33.965ZM9.165 116.245C8.775 115.248 8.255 113.905 7.605 112.215C6.955 110.525 6.24 108.813 5.46 107.08C4.68 105.347 3.81333 103.787 2.86 102.4C1.95 100.97 0.996667 100.038 0 99.605H17.94C16.8567 99.9517 16.055 100.602 15.535 101.555C15.015 102.508 14.755 103.548 14.755 104.675C14.755 105.585 15.0367 106.928 15.6 108.705C16.1633 110.482 16.8133 112.345 17.55 114.295C18.33 116.245 19.0883 118.13 19.825 119.95C20.605 121.727 21.2117 123.113 21.645 124.11C22.1217 122.897 22.62 121.64 23.14 120.34C23.7033 118.997 24.2017 117.653 24.635 116.31C25.1117 114.923 25.5017 113.537 25.805 112.15C26.1083 110.763 26.26 109.42 26.26 108.12V107.6C26 106.993 25.6533 106.3 25.22 105.52C24.83 104.697 24.3967 103.895 23.92 103.115C23.4433 102.335 22.9017 101.62 22.295 100.97C21.7317 100.32 21.1467 99.865 20.54 99.605H38.48C37.3967 99.9517 36.595 100.602 36.075 101.555C35.555 102.508 35.295 103.548 35.295 104.675C35.295 105.585 35.5767 106.928 36.14 108.705C36.7033 110.482 37.3533 112.345 38.09 114.295C38.87 116.245 39.6283 118.13 40.365 119.95C41.145 121.727 41.7517 123.113 42.185 124.11C42.6617 122.897 43.16 121.64 43.68 120.34C44.2433 118.997 44.7417 117.653 45.175 116.31C45.6517 114.923 46.02 113.558 46.28 112.215C46.5833 110.828 46.735 109.463 46.735 108.12C46.735 106.517 46.5183 105.238 46.085 104.285C45.695 103.288 45.175 102.487 44.525 101.88C43.875 101.23 43.1817 100.688 42.445 100.255C41.7517 99.7783 41.08 99.28 40.43 98.76C39.78 98.24 39.2383 97.6117 38.805 96.875C38.415 96.095 38.22 95.0983 38.22 93.885C38.22 92.1083 38.6967 90.5917 39.65 89.335C40.6033 88.035 41.795 86.995 43.225 86.215C44.655 85.3917 46.1933 84.8067 47.84 84.46C49.53 84.07 51.1117 83.875 52.585 83.875C54.015 83.875 55.5533 84.0483 57.2 84.395C58.89 84.6983 60.45 85.2183 61.88 85.955C63.31 86.6917 64.5017 87.6667 65.455 88.88C66.4083 90.0933 66.885 91.5883 66.885 93.365C66.885 94.665 66.4083 95.7917 65.455 96.745C64.545 97.655 63.44 98.11 62.14 98.11C60.84 98.11 59.7133 97.655 58.76 96.745C57.85 95.7917 57.395 94.665 57.395 93.365C57.395 92.065 57.85 90.96 58.76 90.05C59.7133 89.0967 60.84 88.62 62.14 88.62C61.5767 87.97 60.905 87.4283 60.125 86.995C59.3883 86.5617 58.5867 86.2367 57.72 86.02C56.8967 85.8033 56.03 85.6517 55.12 85.565C54.2533 85.4783 53.4083 85.435 52.585 85.435C51.3283 85.435 50.0717 85.63 48.815 86.02C47.6017 86.3667 46.5183 86.9083 45.565 87.645C44.6117 88.3817 43.8317 89.2917 43.225 90.375C42.6617 91.4583 42.38 92.6933 42.38 94.08C42.38 95.1633 42.5967 96.2033 43.03 97.2C43.5067 98.1533 44.1783 98.955 45.045 99.605H56.225C55.2283 100.038 54.2533 100.97 53.3 102.4C52.39 103.83 51.5233 105.412 50.7 107.145C49.92 108.878 49.205 110.612 48.555 112.345C47.905 114.035 47.385 115.378 46.995 116.375L41.145 131H35.62C34.3633 127.837 33.1067 124.695 31.85 121.575C30.5933 118.412 29.3367 115.248 28.08 112.085C26.8667 115.248 25.6317 118.412 24.375 121.575C23.1183 124.695 21.8617 127.837 20.605 131H15.08L9.165 116.245ZM54.34 104.415C55.8567 104.155 57.135 103.917 58.175 103.7C59.2583 103.44 60.255 103.137 61.165 102.79C62.1183 102.443 63.0717 102.032 64.025 101.555C65.0217 101.035 66.17 100.385 67.47 99.605V122.16C67.47 122.897 67.4917 123.698 67.535 124.565C67.6217 125.432 67.7733 126.277 67.99 127.1C68.2067 127.923 68.5317 128.682 68.965 129.375C69.3983 130.068 69.9833 130.61 70.72 131H54.665C55.3583 130.61 55.9217 130.068 56.355 129.375C56.7883 128.638 57.1133 127.88 57.33 127.1C57.59 126.277 57.7633 125.432 57.85 124.565C57.9367 123.698 57.98 122.897 57.98 122.16V112.93C57.98 112.02 57.8933 111.197 57.72 110.46C57.5467 109.68 57.3083 108.965 57.005 108.315C56.7017 107.665 56.3117 107.037 55.835 106.43C55.4017 105.78 54.9033 105.108 54.34 104.415ZM83.7129 99.605H90.4729V101.165H83.7129V124.175C83.7129 125.432 84.1246 126.342 84.9479 126.905C85.8146 127.425 86.8112 127.685 87.9379 127.685C88.5446 127.685 89.1296 127.62 89.6929 127.49C90.2996 127.36 90.8629 127.143 91.3829 126.84V127.49C90.0829 128.703 88.5662 129.7 86.8329 130.48C85.1429 131.26 83.3879 131.65 81.5679 131.65C80.2679 131.65 79.1412 131.412 78.1879 130.935C77.2779 130.458 76.5196 129.83 75.9129 129.05C75.3496 128.227 74.9162 127.295 74.6129 126.255C74.3529 125.172 74.2229 124.045 74.2229 122.875V101.165H71.0379V100.19C72.5546 100.06 73.9196 99.8 75.1329 99.41C76.3462 99.02 77.4296 98.5 78.3829 97.85C79.3362 97.1567 80.1596 96.29 80.8529 95.25C81.5896 94.21 82.2179 92.9533 82.7379 91.48H83.7129V99.605ZM94.0941 98.24C94.0941 97.33 94.0074 96.5067 93.8341 95.77C93.6608 94.99 93.4224 94.275 93.1191 93.625C92.8158 92.975 92.4258 92.3467 91.9491 91.74C91.5158 91.09 91.0174 90.4183 90.4541 89.725C92.8808 89.335 95.1341 88.75 97.2141 87.97C99.3374 87.1467 101.461 86.1283 103.584 84.915V104.805C103.714 104.588 104.256 104.177 105.209 103.57C106.162 102.92 107.181 102.27 108.264 101.62C109.391 100.97 110.431 100.385 111.384 99.865C112.381 99.345 112.966 99.085 113.139 99.085C114.612 99.085 115.891 99.3667 116.974 99.93C118.057 100.493 118.946 101.252 119.639 102.205C120.376 103.158 120.917 104.263 121.264 105.52C121.654 106.777 121.849 108.077 121.849 109.42V122.16C121.849 122.897 121.892 123.698 121.979 124.565C122.066 125.432 122.217 126.277 122.434 127.1C122.651 127.923 122.976 128.682 123.409 129.375C123.886 130.068 124.471 130.61 125.164 131H109.109C109.802 130.61 110.366 130.068 110.799 129.375C111.232 128.638 111.557 127.88 111.774 127.1C111.991 126.277 112.142 125.432 112.229 124.565C112.316 123.698 112.359 122.897 112.359 122.16V109.68C112.359 109.03 112.294 108.358 112.164 107.665C112.034 106.972 111.817 106.343 111.514 105.78C111.211 105.217 110.777 104.762 110.214 104.415C109.694 104.068 109.044 103.895 108.264 103.895C107.527 103.895 106.856 104.068 106.249 104.415C105.686 104.762 105.209 105.217 104.819 105.78C104.429 106.343 104.126 106.972 103.909 107.665C103.692 108.358 103.584 109.03 103.584 109.68V122.16C103.584 122.897 103.606 123.698 103.649 124.565C103.736 125.432 103.887 126.277 104.104 127.1C104.321 127.923 104.646 128.682 105.079 129.375C105.512 130.068 106.097 130.61 106.834 131H90.7791C91.4724 130.61 92.0358 130.068 92.4691 129.375C92.9024 128.638 93.2274 127.88 93.4441 127.1C93.7041 126.277 93.8774 125.432 93.9641 124.565C94.0508 123.698 94.0941 122.897 94.0941 122.16V98.24Z" fill="white"/>
<path d="M177.52 97.59C177.52 95.77 177.325 94.0367 176.935 92.39C176.545 90.7 175.938 89.1617 175.115 87.775C174.291 86.3883 173.23 85.175 171.93 84.135C170.63 83.095 169.07 82.2933 167.25 81.73H184.02C182.936 82.0333 182.07 82.4667 181.42 83.03C180.813 83.55 180.336 84.1783 179.99 84.915C179.686 85.6083 179.491 86.41 179.405 87.32C179.318 88.23 179.253 89.205 179.21 90.245C179.123 91.4583 179.08 92.6717 179.08 93.885C179.08 95.0983 179.08 96.3333 179.08 97.59V131H174.4L145.41 89.4V115.14C145.41 116.96 145.605 118.715 145.995 120.405C146.385 122.052 146.991 123.568 147.815 124.955C148.638 126.342 149.7 127.555 151 128.595C152.3 129.635 153.86 130.437 155.68 131H138.91C140.036 130.697 140.903 130.285 141.51 129.765C142.116 129.202 142.571 128.573 142.875 127.88C143.221 127.143 143.438 126.32 143.525 125.41C143.611 124.5 143.676 123.525 143.72 122.485C143.806 121.272 143.85 120.058 143.85 118.845C143.85 117.632 143.85 116.397 143.85 115.14V90.57C143.85 89.79 143.806 88.9883 143.72 88.165C143.676 87.2983 143.546 86.475 143.33 85.695C143.113 84.8717 142.788 84.1133 142.355 83.42C141.921 82.7267 141.336 82.1633 140.6 81.73H151.39L177.52 118.975V97.59ZM194.101 115.075C194.405 116.418 194.86 117.697 195.466 118.91C196.073 120.08 196.831 121.12 197.741 122.03C198.651 122.897 199.713 123.59 200.926 124.11C202.183 124.63 203.591 124.89 205.151 124.89C205.628 124.89 206.191 124.868 206.841 124.825C207.535 124.738 208.228 124.63 208.921 124.5C209.615 124.37 210.265 124.197 210.871 123.98C211.521 123.72 212.02 123.417 212.366 123.07L212.886 123.46C211.413 126.147 209.658 128.183 207.621 129.57C205.628 130.957 203.028 131.65 199.821 131.65C197.568 131.65 195.466 131.238 193.516 130.415C191.61 129.592 189.963 128.465 188.576 127.035C187.233 125.562 186.171 123.85 185.391 121.9C184.611 119.95 184.221 117.848 184.221 115.595C184.221 113.428 184.546 111.348 185.196 109.355C185.89 107.362 186.865 105.607 188.121 104.09C189.421 102.573 190.981 101.36 192.801 100.45C194.621 99.54 196.68 99.085 198.976 99.085C201.056 99.085 202.941 99.41 204.631 100.06C206.365 100.667 207.816 101.577 208.986 102.79C210.2 103.96 211.131 105.39 211.781 107.08C212.431 108.77 212.756 110.655 212.756 112.735V114.295L194.101 115.075ZM204.046 107.535C204.046 106.798 203.895 106.018 203.591 105.195C203.331 104.372 202.941 103.635 202.421 102.985C201.901 102.292 201.295 101.728 200.601 101.295C199.908 100.862 199.15 100.645 198.326 100.645C197.373 100.645 196.593 101.035 195.986 101.815C195.38 102.595 194.903 103.527 194.556 104.61C194.21 105.65 193.95 106.733 193.776 107.86C193.646 108.987 193.581 109.875 193.581 110.525C193.581 111.478 193.646 112.453 193.776 113.45C194.643 113.363 195.51 113.255 196.376 113.125C197.243 112.995 198.11 112.865 198.976 112.735C200.45 112.518 201.663 111.998 202.616 111.175C203.57 110.352 204.046 109.138 204.046 107.535ZM234.27 137.5C232.147 137.5 229.893 137.327 227.51 136.98C225.17 136.633 223.003 135.983 221.01 135.03C219.017 134.077 217.348 132.755 216.005 131.065C214.705 129.375 214.055 127.208 214.055 124.565C214.055 122.745 214.618 121.142 215.745 119.755C216.915 118.325 218.323 117.09 219.97 116.05C221.66 114.967 223.415 114.035 225.235 113.255C227.098 112.475 228.723 111.825 230.11 111.305V108.575C230.11 108.012 230.11 107.297 230.11 106.43C230.11 105.52 230.023 104.653 229.85 103.83C229.677 102.963 229.373 102.227 228.94 101.62C228.55 100.97 227.922 100.645 227.055 100.645C226.578 100.645 226.145 100.775 225.755 101.035C225.365 101.295 225.018 101.62 224.715 102.01C224.455 102.4 224.238 102.833 224.065 103.31C223.935 103.743 223.87 104.177 223.87 104.61C223.87 105.39 224.108 105.975 224.585 106.365C225.062 106.755 225.668 106.95 226.405 106.95C225.928 108.553 225.105 109.983 223.935 111.24C222.765 112.453 221.27 113.06 219.45 113.06C218.063 113.06 217.002 112.562 216.265 111.565C215.572 110.525 215.225 109.377 215.225 108.12C215.225 106.473 215.615 105.087 216.395 103.96C217.218 102.833 218.237 101.902 219.45 101.165C220.707 100.428 222.072 99.9083 223.545 99.605C225.062 99.2583 226.492 99.085 227.835 99.085C229.482 99.085 231.02 99.3233 232.45 99.8C233.88 100.233 235.115 100.905 236.155 101.815C237.238 102.725 238.083 103.852 238.69 105.195C239.297 106.495 239.6 108.012 239.6 109.745V124.695C239.6 124.998 239.622 125.388 239.665 125.865C239.708 126.298 239.795 126.732 239.925 127.165C240.055 127.598 240.25 127.967 240.51 128.27C240.813 128.573 241.182 128.725 241.615 128.725C242.092 128.725 242.525 128.595 242.915 128.335V128.985C241.832 129.808 240.835 130.458 239.925 130.935C239.015 131.412 237.845 131.65 236.415 131.65C235.722 131.65 234.985 131.52 234.205 131.26C233.468 131.043 232.797 130.718 232.19 130.285C231.583 129.852 231.085 129.31 230.695 128.66C230.305 128.01 230.11 127.295 230.11 126.515V112.93C225.777 115.4 223.61 119.192 223.61 124.305C223.61 126.038 223.892 127.62 224.455 129.05C225.062 130.437 225.885 131.628 226.925 132.625C227.965 133.622 229.2 134.38 230.63 134.9C232.06 135.463 233.62 135.745 235.31 135.745C237.217 135.745 238.885 135.398 240.315 134.705C241.745 134.055 242.937 133.145 243.89 131.975C244.887 130.805 245.623 129.44 246.1 127.88C246.62 126.32 246.88 124.63 246.88 122.81V112.93C246.88 112.02 246.793 111.197 246.62 110.46C246.447 109.68 246.208 108.965 245.905 108.315C245.602 107.665 245.212 107.037 244.735 106.43C244.302 105.78 243.803 105.108 243.24 104.415C244.757 104.155 246.035 103.917 247.075 103.7C248.158 103.44 249.155 103.137 250.065 102.79C251.018 102.443 251.972 102.032 252.925 101.555C253.922 101.035 255.07 100.385 256.37 99.605V106.755C256.803 105.845 257.323 104.935 257.93 104.025C258.58 103.072 259.295 102.248 260.075 101.555C260.898 100.818 261.787 100.233 262.74 99.8C263.737 99.3233 264.777 99.085 265.86 99.085C267.637 99.085 269.023 99.6917 270.02 100.905C271.06 102.075 271.58 103.505 271.58 105.195C271.58 106.278 271.363 107.275 270.93 108.185C270.54 109.095 269.977 109.853 269.24 110.46C268.547 111.067 267.723 111.543 266.77 111.89C265.86 112.237 264.863 112.41 263.78 112.41C263.867 112.15 263.932 111.89 263.975 111.63C264.018 111.37 264.04 111.088 264.04 110.785C264.04 109.658 263.65 108.727 262.87 107.99C262.133 107.21 261.202 106.82 260.075 106.82C259.642 106.82 259.208 106.928 258.775 107.145C258.342 107.318 257.93 107.578 257.54 107.925C257.193 108.228 256.912 108.597 256.695 109.03C256.478 109.42 256.37 109.853 256.37 110.33V123.265C256.37 126.082 255.633 128.422 254.16 130.285C252.73 132.105 250.91 133.557 248.7 134.64C246.49 135.723 244.085 136.46 241.485 136.85C238.928 137.283 236.523 137.5 234.27 137.5ZM285.064 122.16C285.064 122.897 285.085 123.698 285.129 124.565C285.215 125.432 285.367 126.277 285.584 127.1C285.844 127.923 286.19 128.682 286.624 129.375C287.057 130.068 287.642 130.61 288.379 131H272.259C272.995 130.61 273.58 130.068 274.014 129.375C274.447 128.682 274.772 127.923 274.989 127.1C275.205 126.277 275.357 125.432 275.444 124.565C275.53 123.698 275.574 122.897 275.574 122.16V98.24C275.574 97.33 275.487 96.5067 275.314 95.77C275.14 94.99 274.902 94.275 274.599 93.625C274.295 92.975 273.905 92.3467 273.429 91.74C272.995 91.09 272.497 90.4183 271.934 89.725C273.45 89.465 274.729 89.2267 275.769 89.01C276.852 88.75 277.849 88.4467 278.759 88.1C279.712 87.7533 280.665 87.3417 281.619 86.865C282.615 86.345 283.764 85.695 285.064 84.915V122.16ZM302.184 131L296.269 116.245C295.879 115.248 295.359 113.905 294.709 112.215C294.059 110.525 293.344 108.813 292.564 107.08C291.784 105.347 290.918 103.787 289.964 102.4C289.054 100.97 288.101 100.038 287.104 99.605H305.044C303.961 99.9517 303.159 100.602 302.639 101.555C302.119 102.508 301.859 103.548 301.859 104.675C301.859 105.585 302.141 106.928 302.704 108.705C303.268 110.482 303.918 112.345 304.654 114.295C305.434 116.245 306.193 118.13 306.929 119.95C307.709 121.727 308.316 123.113 308.749 124.11C309.226 122.897 309.724 121.64 310.244 120.34C310.808 118.997 311.306 117.653 311.739 116.31C312.216 114.923 312.606 113.537 312.909 112.15C313.213 110.763 313.364 109.42 313.364 108.12C313.364 106.04 312.909 104.285 311.999 102.855C311.089 101.425 309.659 100.342 307.709 99.605H322.789C321.793 100.038 320.818 100.97 319.864 102.4C318.954 103.83 318.088 105.412 317.264 107.145C316.484 108.835 315.769 110.547 315.119 112.28C314.469 113.97 313.949 115.335 313.559 116.375L307.709 131C307.146 132.43 306.518 133.968 305.824 135.615C305.174 137.262 304.373 138.8 303.419 140.23C302.509 141.66 301.404 142.852 300.104 143.805C298.804 144.758 297.223 145.235 295.359 145.235C294.363 145.235 293.409 145.105 292.499 144.845C291.633 144.628 290.853 144.26 290.159 143.74C289.509 143.263 288.989 142.635 288.599 141.855C288.209 141.075 288.014 140.143 288.014 139.06C288.014 138.497 288.101 137.847 288.274 137.11C288.448 136.417 288.708 135.767 289.054 135.16C289.444 134.553 289.899 134.033 290.419 133.6C290.939 133.21 291.546 133.015 292.239 133.015C292.239 134.575 292.738 135.723 293.734 136.46C294.774 137.197 296.009 137.565 297.439 137.565C298.046 137.565 298.783 137.457 299.649 137.24C300.516 137.023 301.339 136.698 302.119 136.265C302.943 135.875 303.636 135.377 304.199 134.77C304.763 134.163 305.044 133.47 305.044 132.69C305.044 131.997 304.698 131.542 304.004 131.325C303.311 131.108 302.704 131 302.184 131Z" fill="#62E535"/>
<defs>
<linearGradient id="paint0_linear_4348_31826" x1="322.782" y1="74.83" x2="346.059" y2="92.436" gradientUnits="userSpaceOnUse">
<stop stop-color="#0C6B8A"/>
<stop offset="1" stop-color="#6AF938"/>
</linearGradient>
</defs>
</svg>
