<svg width="161" height="43" viewBox="0 0 161 43" fill="none" xmlns="http://www.w3.org/2000/svg">
<g clip-path="url(#clip0_2091_37353)">
<path d="M50.5354 37.09C52.6954 37.09 54.1354 35.68 54.1354 33.36C54.1354 31.04 52.7054 29.63 50.5354 29.63C48.3754 29.63 46.9454 31.04 46.9454 33.36C46.9454 35.67 48.3654 37.09 50.5354 37.09ZM50.5354 36.15C49.0254 36.15 48.0654 35.13 48.0654 33.36C48.0654 31.59 49.0154 30.57 50.5354 30.57C52.0554 30.57 53.0154 31.59 53.0154 33.36C53.0154 35.12 52.0554 36.15 50.5354 36.15ZM55.2439 38.67H56.2739V35.96H56.3339C56.5939 36.64 57.2539 37.09 58.1339 37.09C59.4239 37.09 60.2939 36.13 60.2939 34.36C60.2939 32.59 59.4239 31.62 58.1339 31.62C57.2539 31.62 56.5939 32.08 56.3339 32.75H56.2739L56.2339 31.71H55.2439V38.67ZM57.7739 36.24C56.7939 36.24 56.2839 35.47 56.2839 34.65V34.06C56.2839 33.24 56.7939 32.47 57.7739 32.47C58.6539 32.47 59.2439 33.11 59.2439 34.36C59.2439 35.6 58.6539 36.24 57.7739 36.24ZM63.6842 37.09C64.9342 37.09 65.8942 36.41 66.0342 35.37H65.0542C64.9242 35.92 64.3942 36.27 63.6842 36.27C62.7642 36.27 62.1642 35.65 62.1442 34.56H66.0642C66.2242 32.9 65.3842 31.63 63.6442 31.63C62.0942 31.63 61.1242 32.71 61.1242 34.38C61.1242 36.01 62.0942 37.09 63.6842 37.09ZM63.6342 32.44C64.4142 32.44 65.0242 32.85 65.0542 33.83H62.1642C62.2442 32.97 62.8042 32.44 63.6342 32.44ZM67.1775 37H68.1975V34.11C68.1975 33.2 68.7675 32.48 69.6775 32.48C70.5175 32.48 70.9075 32.99 70.9075 34.07V37H71.9375V33.86C71.9375 32.24 71.1275 31.63 70.0475 31.63C69.2675 31.63 68.5675 32.01 68.2575 32.76H68.1975L68.1575 31.71H67.1775V37ZM78.4562 37.09C79.7462 37.09 80.6162 36.13 80.6162 34.36C80.6162 32.59 79.7462 31.62 78.4562 31.62C77.5662 31.62 76.9062 32.08 76.6562 32.75H76.5962V29.71H75.5662V37H76.5562L76.5962 35.96H76.6562C76.9062 36.64 77.5662 37.09 78.4562 37.09ZM78.0962 36.24C77.1162 36.24 76.6062 35.47 76.6062 34.65V34.06C76.6062 33.24 77.1162 32.47 78.0962 32.47C78.9762 32.47 79.5562 33.11 79.5562 34.36C79.5562 35.6 78.9762 36.24 78.0962 36.24ZM83.5967 37.09C84.4867 37.09 85.1467 36.63 85.3967 35.95H85.4567V37H86.4867V31.71H85.4967L85.4567 32.75H85.3967C85.1467 32.07 84.4867 31.62 83.5967 31.62C82.3067 31.62 81.4367 32.58 81.4367 34.35C81.4367 36.12 82.3067 37.09 83.5967 37.09ZM83.9567 36.24C83.0767 36.24 82.4967 35.59 82.4967 34.35C82.4967 33.1 83.0767 32.46 83.9567 32.46C84.9367 32.46 85.4467 33.24 85.4467 34.05V34.65C85.4467 35.47 84.9367 36.24 83.9567 36.24ZM87.9295 37H88.9495V34.11C88.9495 33.2 89.5195 32.48 90.4295 32.48C91.2695 32.48 91.6595 32.99 91.6595 34.07V37H92.6895V33.86C92.6895 32.24 91.8795 31.63 90.7995 31.63C90.0195 31.63 89.3195 32.01 89.0095 32.76H88.9495L88.9095 31.71H87.9295V37ZM94.0818 37H95.1218V35.38L96.0618 34.47L96.3818 35L97.7018 37H98.9118L96.7818 33.77L98.8318 31.71H97.5518L95.5818 33.74L95.1218 34.24V29.71H94.0818V37ZM99.824 30.9H100.854V29.71H99.824V30.9ZM99.824 37H100.854V31.71H99.824V37ZM102.285 37H103.305V34.11C103.305 33.2 103.875 32.48 104.785 32.48C105.625 32.48 106.015 32.99 106.015 34.07V37H107.045V33.86C107.045 32.24 106.235 31.63 105.155 31.63C104.375 31.63 103.675 32.01 103.365 32.76H103.305L103.265 31.71H102.285V37ZM110.527 38.77C112.017 38.77 113.027 38.17 113.027 36.51V31.71H112.027L112.007 32.69H111.937C111.697 32.05 111.057 31.62 110.217 31.62C108.937 31.62 108.077 32.54 108.077 34.16C108.077 35.77 108.917 36.69 110.207 36.69C111.047 36.69 111.697 36.26 111.937 35.62H112.007V36.65C112.007 37.63 111.497 38.01 110.547 38.01C109.877 38.01 109.417 37.72 109.337 37.25H108.337C108.447 38.19 109.257 38.77 110.527 38.77ZM110.557 35.89C109.697 35.89 109.137 35.28 109.137 34.16C109.137 33.06 109.687 32.43 110.567 32.43C111.497 32.43 111.987 33.14 111.997 33.83L112.007 34.47C111.987 35.17 111.477 35.89 110.557 35.89Z" fill="#9CA3AF"/>
<path d="M1.10498 31.5788C3.28297 21.9365 7.93812 13.029 14.6108 5.73567C14.7295 5.60659 14.8736 5.50355 15.0341 5.43306C15.1947 5.36257 15.3681 5.32617 15.5434 5.32617C15.7187 5.32617 15.8921 5.36257 16.0527 5.43306C16.2132 5.50355 16.3573 5.60659 16.476 5.73567C23.1488 13.0279 27.8044 21.9343 29.9834 31.5757C26.5484 32.2995 23.0636 32.7626 19.5587 32.9611L16.2527 39.5747C16.1869 39.706 16.0859 39.8164 15.9609 39.8936C15.8359 39.9707 15.6919 40.0116 15.545 40.0116C15.3981 40.0116 15.2541 39.9707 15.1291 39.8936C15.0041 39.8164 14.903 39.706 14.8372 39.5747L11.5296 32.9611C8.02482 32.7625 4.54002 32.2994 1.10498 31.5757V31.5788ZM15.545 26.7418C16.8048 26.7418 18.0129 26.2413 18.9037 25.3505C19.7945 24.4597 20.295 23.2515 20.295 21.9918C20.295 20.732 19.7945 19.5238 18.9037 18.633C18.0129 17.7422 16.8048 17.2418 15.545 17.2418C14.2852 17.2418 13.077 17.7422 12.1862 18.633C11.2954 19.5238 10.795 20.732 10.795 21.9918C10.795 23.2515 11.2954 24.4597 12.1862 25.3505C13.077 26.2413 14.2852 26.7418 15.545 26.7418Z" fill="url(#paint0_linear_2091_37353)"/>
<g clip-path="url(#clip1_2091_37353)">
<mask id="mask0_2091_37353" style="mask-type:luminance" maskUnits="userSpaceOnUse" x="-3" y="11" width="31" height="17">
<path d="M27.5454 11H-2.45459V27.875H27.5454V11Z" fill="white"/>
</mask>
<g mask="url(#mask0_2091_37353)">
<mask id="mask1_2091_37353" style="mask-type:luminance" maskUnits="userSpaceOnUse" x="24" y="14" width="2" height="2">
<path d="M24.6079 14.3145H25.9829V15.6895H24.6079V14.3145Z" fill="white"/>
</mask>
<g mask="url(#mask1_2091_37353)">
<path d="M25.2961 14.4102C25.6226 14.4102 25.8877 14.6752 25.8877 15.0017C25.8877 15.3282 25.6226 15.5932 25.2961 15.5932C24.9697 15.5932 24.7046 15.3282 24.7046 15.0017C24.7046 14.6752 24.9697 14.4102 25.2961 14.4102Z" stroke="white" stroke-width="0.00271257"/>
</g>
<mask id="mask2_2091_37353" style="mask-type:luminance" maskUnits="userSpaceOnUse" x="7" y="23" width="3" height="2">
<path d="M7.9209 23.5645H9.2959V24.9395H7.9209V23.5645Z" fill="white"/>
</mask>
<g mask="url(#mask2_2091_37353)">
<path d="M8.60889 24.0957C8.69512 24.0957 8.76514 24.1657 8.76514 24.252C8.76514 24.3382 8.69512 24.4082 8.60889 24.4082C8.52265 24.4082 8.45264 24.3382 8.45264 24.252C8.45264 24.1657 8.52265 24.0957 8.60889 24.0957Z" fill="white"/>
<path d="M8.71937 24.1398C8.78035 24.2008 8.78035 24.2998 8.71937 24.3608C8.6584 24.4217 8.55938 24.4217 8.4984 24.3608C8.43742 24.2998 8.43742 24.2008 8.4984 24.1398C8.55938 24.0788 8.6584 24.0788 8.71937 24.1398Z" fill="white"/>
<path d="M8.76514 24.252C8.76514 24.3382 8.69512 24.4082 8.60889 24.4082C8.52265 24.4082 8.45264 24.3382 8.45264 24.252C8.45264 24.1657 8.52265 24.0957 8.60889 24.0957C8.69512 24.0957 8.76514 24.1657 8.76514 24.252Z" fill="white"/>
<path d="M8.71862 24.3644C8.65764 24.4254 8.55862 24.4254 8.49765 24.3644C8.43667 24.3034 8.43667 24.2044 8.49765 24.1434C8.55862 24.0824 8.65764 24.0824 8.71862 24.1434C8.77959 24.2044 8.77959 24.3034 8.71862 24.3644Z" fill="white"/>
<path d="M8.60889 24.4082C8.52265 24.4082 8.45264 24.3382 8.45264 24.252C8.45264 24.1657 8.52265 24.0957 8.60889 24.0957C8.69512 24.0957 8.76514 24.1657 8.76514 24.252C8.76514 24.3382 8.69512 24.4082 8.60889 24.4082Z" fill="white"/>
<path d="M8.4984 24.3602C8.43742 24.2992 8.43742 24.2002 8.4984 24.1392C8.55938 24.0783 8.6584 24.0783 8.71937 24.1392C8.78035 24.2002 8.78035 24.2992 8.71937 24.3602C8.6584 24.4212 8.55938 24.4212 8.4984 24.3602Z" fill="white"/>
<path d="M8.45264 24.252C8.45264 24.1657 8.52265 24.0957 8.60889 24.0957C8.69512 24.0957 8.76514 24.1657 8.76514 24.252C8.76514 24.3382 8.69512 24.4082 8.60889 24.4082C8.52265 24.4082 8.45264 24.3382 8.45264 24.252Z" fill="white"/>
<path d="M8.49818 24.1434C8.55916 24.0824 8.65817 24.0824 8.71915 24.1434C8.78013 24.2044 8.78013 24.3034 8.71915 24.3644C8.65817 24.4254 8.55916 24.4254 8.49818 24.3644C8.4372 24.3034 8.4372 24.2044 8.49818 24.1434Z" fill="white"/>
</g>
<mask id="mask3_2091_37353" style="mask-type:luminance" maskUnits="userSpaceOnUse" x="-1" y="19" width="3" height="2">
<path d="M-0.328613 19.3125H1.04639V20.6875H-0.328613V19.3125Z" fill="white"/>
</mask>
<g mask="url(#mask3_2091_37353)">
<path d="M0.358859 19.8457C0.444809 19.8457 0.514593 19.9155 0.514593 20.0014C0.514593 20.0874 0.444809 20.1572 0.358859 20.1572C0.272909 20.1572 0.203125 20.0874 0.203125 20.0014C0.203125 19.9155 0.272909 19.8457 0.358859 19.8457Z" fill="white"/>
<path d="M0.470472 19.8914C0.531248 19.9521 0.531248 20.0508 0.470472 20.1116C0.409697 20.1724 0.311007 20.1724 0.250231 20.1116C0.189455 20.0508 0.189455 19.9521 0.250231 19.8914C0.311007 19.8306 0.409697 19.8306 0.470472 19.8914Z" fill="white"/>
<path d="M0.516602 20.0014C0.516602 20.0874 0.446817 20.1572 0.360868 20.1572C0.274918 20.1572 0.205134 20.0874 0.205134 20.0014C0.205134 19.9155 0.274918 19.8457 0.360868 19.8457C0.446817 19.8457 0.516602 19.9155 0.516602 20.0014Z" fill="white"/>
<path d="M0.470446 20.114C0.40967 20.1748 0.31098 20.1748 0.250205 20.114C0.189429 20.0533 0.189429 19.9546 0.250205 19.8938C0.31098 19.833 0.40967 19.833 0.470446 19.8938C0.531221 19.9546 0.531221 20.0533 0.470446 20.114Z" fill="white"/>
<path d="M0.358426 20.1582C0.272477 20.1582 0.202692 20.0884 0.202692 20.0025C0.202692 19.9165 0.272477 19.8467 0.358426 19.8467C0.444376 19.8467 0.51416 19.9165 0.51416 20.0025C0.51416 20.0884 0.444376 20.1582 0.358426 20.1582Z" fill="white"/>
<path d="M0.246813 20.1145C0.186037 20.0537 0.186037 19.955 0.246813 19.8942C0.307589 19.8335 0.406279 19.8335 0.467054 19.8942C0.52783 19.955 0.52783 20.0537 0.467054 20.1145C0.406279 20.1753 0.307589 20.1753 0.246813 20.1145Z" fill="white"/>
<path d="M0.200195 20.0005C0.200195 19.9146 0.26998 19.8448 0.355929 19.8448C0.441879 19.8448 0.511663 19.9146 0.511663 20.0005C0.511663 20.0865 0.441879 20.1562 0.355929 20.1562C0.26998 20.1562 0.200195 20.0865 0.200195 20.0005Z" fill="white"/>
<path d="M0.247328 19.8918C0.308103 19.8311 0.406793 19.8311 0.467569 19.8918C0.528344 19.9526 0.528344 20.0513 0.467569 20.1121C0.406793 20.1728 0.308103 20.1728 0.247328 20.1121C0.186552 20.0513 0.186552 19.9526 0.247328 19.8918Z" fill="white"/>
</g>
<mask id="mask4_2091_37353" style="mask-type:luminance" maskUnits="userSpaceOnUse" x="17" y="22" width="2" height="3">
<path d="M17.0454 22.8125H18.4204V24.1875H17.0454V22.8125Z" fill="white"/>
</mask>
<g mask="url(#mask4_2091_37353)">
<path d="M17.7334 23.3418C17.8196 23.3418 17.8896 23.4118 17.8896 23.498C17.8896 23.5843 17.8196 23.6543 17.7334 23.6543C17.6472 23.6543 17.5771 23.5843 17.5771 23.498C17.5771 23.4118 17.6472 23.3418 17.7334 23.3418Z" fill="white"/>
<path d="M17.8444 23.3898C17.9053 23.4508 17.9053 23.5498 17.8444 23.6108C17.7834 23.6717 17.6844 23.6717 17.6234 23.6108C17.5624 23.5498 17.5624 23.4508 17.6234 23.3898C17.6844 23.3288 17.7834 23.3288 17.8444 23.3898Z" fill="white"/>
<path d="M17.8896 23.498C17.8896 23.5843 17.8196 23.6543 17.7334 23.6543C17.6472 23.6543 17.5771 23.5843 17.5771 23.498C17.5771 23.4118 17.6472 23.3418 17.7334 23.3418C17.8196 23.3418 17.8896 23.4118 17.8896 23.498Z" fill="white"/>
<path d="M17.8436 23.6085C17.7826 23.6695 17.6836 23.6695 17.6226 23.6085C17.5617 23.5476 17.5617 23.4485 17.6226 23.3876C17.6836 23.3266 17.7826 23.3266 17.8436 23.3876C17.9046 23.4485 17.9046 23.5476 17.8436 23.6085Z" fill="white"/>
<path d="M17.7334 23.6543C17.6472 23.6543 17.5771 23.5843 17.5771 23.498C17.5771 23.4118 17.6472 23.3418 17.7334 23.3418C17.8196 23.3418 17.8896 23.4118 17.8896 23.498C17.8896 23.5843 17.8196 23.6543 17.7334 23.6543Z" fill="white"/>
<path d="M17.6234 23.6122C17.5624 23.5512 17.5624 23.4522 17.6234 23.3912C17.6844 23.3302 17.7834 23.3302 17.8444 23.3912C17.9053 23.4522 17.9053 23.5512 17.8444 23.6122C17.7834 23.6731 17.6844 23.6731 17.6234 23.6122Z" fill="white"/>
<path d="M17.5771 23.498C17.5771 23.4118 17.6472 23.3418 17.7334 23.3418C17.8196 23.3418 17.8896 23.4118 17.8896 23.498C17.8896 23.5843 17.8196 23.6543 17.7334 23.6543C17.6472 23.6543 17.5771 23.5843 17.5771 23.498Z" fill="white"/>
<path d="M17.6232 23.3876C17.6842 23.3266 17.7832 23.3266 17.8442 23.3876C17.9051 23.4485 17.9051 23.5476 17.8442 23.6085C17.7832 23.6695 17.6842 23.6695 17.6232 23.6085C17.5622 23.5476 17.5622 23.4485 17.6232 23.3876Z" fill="white"/>
</g>
<mask id="mask5_2091_37353" style="mask-type:luminance" maskUnits="userSpaceOnUse" x="17" y="15" width="7" height="7">
<path d="M22.918 15.3027L23.4327 21.1865L17.549 21.7013L17.0342 15.8175L22.918 15.3027Z" fill="white"/>
</mask>
<g mask="url(#mask5_2091_37353)">
<g opacity="0.0773827">
<path d="M21.5216 16.9642C21.5251 17.0048 21.495 17.0407 21.4544 17.0443C21.4138 17.0478 21.3779 17.0177 21.3744 16.9771C21.3708 16.9365 21.4009 16.9006 21.4415 16.8971C21.4822 16.8935 21.518 16.9236 21.5216 16.9642Z" fill="white"/>
</g>
<g opacity="0.0773827">
<path d="M18.7691 17.2064C18.7727 17.247 18.7426 17.2829 18.702 17.2864C18.6614 17.29 18.6255 17.2599 18.6219 17.2193C18.6184 17.1787 18.6485 17.1428 18.6891 17.1393C18.7297 17.1357 18.7656 17.1658 18.7691 17.2064Z" fill="white"/>
</g>
<g opacity="0.0773827">
<path d="M19.0162 20.0345C19.0198 20.0751 18.9897 20.111 18.949 20.1146C18.9084 20.1181 18.8726 20.088 18.869 20.0474C18.8655 20.0068 18.8956 19.9709 18.9362 19.9674C18.9768 19.9638 19.0127 19.9939 19.0162 20.0345Z" fill="white"/>
</g>
<g opacity="0.0773827">
<path d="M21.8453 19.7845C21.8489 19.8251 21.8188 19.861 21.7782 19.8646C21.7375 19.8681 21.7017 19.838 21.6981 19.7974C21.6946 19.7568 21.7247 19.7209 21.7653 19.7174C21.8059 19.7138 21.8418 19.7439 21.8453 19.7845Z" fill="white"/>
</g>
<g opacity="0.0773827">
<path d="M22.0977 18.3392C22.1013 18.3798 22.0712 18.4157 22.0306 18.4193C21.99 18.4228 21.9541 18.3927 21.9506 18.3521C21.947 18.3115 21.9771 18.2756 22.0177 18.2721C22.0583 18.2685 22.0942 18.2986 22.0977 18.3392Z" fill="white"/>
</g>
<g opacity="0.0773827">
<path d="M18.5162 18.6517C18.5198 18.6923 18.4897 18.7282 18.449 18.7318C18.4084 18.7353 18.3726 18.7052 18.369 18.6646C18.3655 18.624 18.3956 18.5881 18.4362 18.5846C18.4768 18.581 18.5127 18.6111 18.5162 18.6517Z" fill="white"/>
</g>
<g opacity="0.0773827">
<path d="M20.464 20.2865C20.4675 20.3271 20.4374 20.363 20.3968 20.3665C20.3562 20.3701 20.3203 20.34 20.3168 20.2994C20.3132 20.2587 20.3433 20.2229 20.3839 20.2193C20.4245 20.2158 20.4604 20.2459 20.464 20.2865Z" fill="white"/>
</g>
<g opacity="0.0773827">
<path d="M20.151 16.7064C20.1545 16.747 20.1244 16.7829 20.0838 16.7864C20.0432 16.79 20.0073 16.7599 20.0038 16.7193C20.0002 16.6787 20.0303 16.6428 20.0709 16.6393C20.1116 16.6357 20.1474 16.6658 20.151 16.7064Z" fill="white"/>
</g>
<path d="M21.3616 18.4024L20.7414 18.779L20.7 19.5034L20.1502 19.03L19.4484 19.2145L19.7288 18.5453L19.3365 17.9349L20.0596 17.9947L20.5189 17.433L20.6854 18.1392L21.3616 18.4024Z" fill="white"/>
</g>
<mask id="mask6_2091_37353" style="mask-type:luminance" maskUnits="userSpaceOnUse" x="0" y="14" width="7" height="7">
<path d="M3.8042 14.1055L6.50434 17.8219L2.78792 20.522L0.0877774 16.8056L3.8042 14.1055Z" fill="white"/>
</mask>
<g mask="url(#mask6_2091_37353)">
<g opacity="0.312677">
<path d="M3.51473 15.9566C3.53337 15.9823 3.52767 16.0183 3.50202 16.0369C3.47636 16.0555 3.4404 16.0498 3.42176 16.0242C3.40312 15.9985 3.40882 15.9626 3.43447 15.9439C3.46013 15.9253 3.49609 15.931 3.51473 15.9566Z" fill="white"/>
</g>
<g opacity="0.312677">
<path d="M1.98885 17.0699C2.00749 17.0956 2.00179 17.1315 1.97614 17.1502C1.95048 17.1688 1.91452 17.1631 1.89588 17.1375C1.87724 17.1118 1.88294 17.0759 1.90859 17.0572C1.93425 17.0386 1.97021 17.0443 1.98885 17.0699Z" fill="white"/>
</g>
<g opacity="0.312677">
<path d="M3.12752 18.6344C3.14616 18.66 3.14047 18.696 3.11481 18.7146C3.08916 18.7333 3.05319 18.7276 3.03455 18.7019C3.01591 18.6763 3.02161 18.6403 3.04726 18.6217C3.07292 18.603 3.10888 18.6087 3.12752 18.6344Z" fill="white"/>
</g>
<g opacity="0.312677">
<path d="M4.69539 17.4957C4.71403 17.5214 4.70834 17.5573 4.68268 17.576C4.65703 17.5946 4.62106 17.5889 4.60242 17.5633C4.58378 17.5376 4.58948 17.5016 4.61514 17.483C4.64079 17.4644 4.67675 17.47 4.69539 17.4957Z" fill="white"/>
</g>
<g opacity="0.312677">
<path d="M4.33504 16.5621C4.35368 16.5878 4.34799 16.6237 4.32233 16.6424C4.29668 16.661 4.26071 16.6553 4.24207 16.6297C4.22343 16.604 4.22913 16.568 4.25478 16.5494C4.28044 16.5308 4.3164 16.5365 4.33504 16.5621Z" fill="white"/>
</g>
<g opacity="0.312677">
<path d="M2.34871 17.9996C2.36735 18.0253 2.36166 18.0612 2.336 18.0799C2.31035 18.0985 2.27438 18.0928 2.25574 18.0672C2.23711 18.0415 2.2428 18.0055 2.26846 17.9869C2.29411 17.9683 2.33008 17.974 2.34871 17.9996Z" fill="white"/>
</g>
<g opacity="0.312677">
<path d="M4.06307 18.273C4.08171 18.2987 4.07601 18.3347 4.05036 18.3533C4.0247 18.3719 3.98874 18.3662 3.9701 18.3406C3.95146 18.3149 3.95716 18.279 3.98281 18.2603C4.00847 18.2417 4.04443 18.2474 4.06307 18.273Z" fill="white"/>
</g>
<g opacity="0.312677">
<path d="M2.62069 16.2887C2.63933 16.3143 2.63363 16.3503 2.60798 16.3689C2.58232 16.3876 2.54636 16.3819 2.52772 16.3562C2.50908 16.3306 2.51477 16.2946 2.54043 16.276C2.56608 16.2573 2.60205 16.263 2.62069 16.2887Z" fill="white"/>
</g>
<path d="M4.00779 16.7965L3.74518 17.296L4.00779 17.7955L3.45156 17.7001L3.05764 18.1042L2.97648 17.5458L2.47041 17.296L2.97648 17.0462L3.05764 16.4877L3.45156 16.8919L4.00779 16.7965Z" fill="white"/>
</g>
<mask id="mask7_2091_37353" style="mask-type:luminance" maskUnits="userSpaceOnUse" x="15" y="21" width="10" height="10">
<path d="M18.9912 21.543L24.5669 24.6336L21.4763 30.2093L15.9005 27.1187L18.9912 21.543Z" fill="white"/>
</mask>
<g mask="url(#mask7_2091_37353)">
<g opacity="0.0773827">
<path d="M19.6357 23.7965C19.6741 23.8178 19.6881 23.8664 19.6667 23.9049C19.6454 23.9434 19.5968 23.9573 19.5583 23.936C19.5199 23.9146 19.5059 23.866 19.5273 23.8276C19.5486 23.7891 19.5972 23.7751 19.6357 23.7965Z" fill="white"/>
</g>
<g opacity="0.0773827">
<path d="M18.1899 26.4019C18.2283 26.4233 18.2423 26.4718 18.2209 26.5103C18.1996 26.5488 18.151 26.5628 18.1125 26.5414C18.0741 26.5201 18.0601 26.4715 18.0815 26.433C18.1028 26.3945 18.1514 26.3806 18.1899 26.4019Z" fill="white"/>
</g>
<g opacity="0.0773827">
<path d="M20.87 27.8883C20.9085 27.9096 20.9225 27.9582 20.9011 27.9967C20.8798 28.0352 20.8312 28.0491 20.7927 28.0277C20.7542 28.0064 20.7403 27.9578 20.7616 27.9194C20.783 27.8809 20.8315 27.8669 20.87 27.8883Z" fill="white"/>
</g>
<g opacity="0.0773827">
<path d="M22.3554 25.2105C22.3939 25.2319 22.4078 25.2804 22.3865 25.3189C22.3651 25.3574 22.3166 25.3714 22.2781 25.35C22.2396 25.3287 22.2257 25.2801 22.247 25.2416C22.2683 25.2031 22.3169 25.1892 22.3554 25.2105Z" fill="white"/>
</g>
<g opacity="0.0773827">
<path d="M21.2128 24.1109C21.2513 24.1323 21.2652 24.1808 21.2439 24.2193C21.2226 24.2578 21.174 24.2717 21.1355 24.2504C21.097 24.2291 21.0831 24.1805 21.1044 24.142C21.1257 24.1035 21.1743 24.0896 21.2128 24.1109Z" fill="white"/>
</g>
<g opacity="0.0773827">
<path d="M19.3315 27.5035C19.3699 27.5248 19.3839 27.5734 19.3625 27.6119C19.3412 27.6504 19.2926 27.6643 19.2541 27.643C19.2157 27.6216 19.2017 27.5731 19.2231 27.5346C19.2444 27.4961 19.293 27.4822 19.3315 27.5035Z" fill="white"/>
</g>
<g opacity="0.0773827">
<path d="M21.9692 26.7476C22.0076 26.769 22.0216 26.8176 22.0002 26.856C21.9789 26.8945 21.9303 26.9085 21.8918 26.8871C21.8533 26.8658 21.8394 26.8172 21.8608 26.7787C21.8821 26.7402 21.9307 26.7263 21.9692 26.7476Z" fill="white"/>
</g>
<g opacity="0.0773827">
<path d="M18.5746 24.8648C18.6131 24.8862 18.627 24.9347 18.6057 24.9732C18.5844 25.0117 18.5358 25.0256 18.4973 25.0043C18.4588 24.983 18.4449 24.9344 18.4662 24.8959C18.4876 24.8574 18.5361 24.8435 18.5746 24.8648Z" fill="white"/>
</g>
<path d="M20.8262 24.8075L20.7889 25.5898L21.4122 26.064L20.6566 26.2702L20.3982 27.0095L19.9686 26.3547L19.1856 26.3374L19.6756 25.7264L19.4501 24.9764L20.1826 25.2537L20.8262 24.8075Z" fill="white"/>
</g>
<mask id="mask8_2091_37353" style="mask-type:luminance" maskUnits="userSpaceOnUse" x="5" y="14" width="7" height="7">
<path d="M5.45215 14.502H11.8271V20.877H5.45215V14.502Z" fill="white"/>
</mask>
<g mask="url(#mask8_2091_37353)">
<g opacity="0.510853">
<path d="M8.23214 17.2637C8.25462 17.2637 8.27288 17.2819 8.27288 17.3044C8.27288 17.3269 8.25462 17.3451 8.23214 17.3451C8.20966 17.3451 8.19141 17.3269 8.19141 17.3044C8.19141 17.2819 8.20966 17.2637 8.23214 17.2637Z" fill="white"/>
</g>
<g opacity="0.510853">
<path d="M8.23214 18.0566C8.25462 18.0566 8.27288 18.0749 8.27288 18.0974C8.27288 18.1199 8.25462 18.1381 8.23214 18.1381C8.20966 18.1381 8.19141 18.1199 8.19141 18.0974C8.19141 18.0749 8.20966 18.0566 8.23214 18.0566Z" fill="white"/>
</g>
<g opacity="0.510853">
<path d="M9.04659 18.0566C9.06908 18.0566 9.08733 18.0749 9.08733 18.0974C9.08733 18.1199 9.06908 18.1381 9.04659 18.1381C9.02411 18.1381 9.00586 18.1199 9.00586 18.0974C9.00586 18.0749 9.02411 18.0566 9.04659 18.0566Z" fill="white"/>
</g>
<g opacity="0.510853">
<path d="M9.04659 17.2422C9.06908 17.2422 9.08733 17.2604 9.08733 17.2829C9.08733 17.3054 9.06908 17.3237 9.04659 17.3237C9.02411 17.3237 9.00586 17.3054 9.00586 17.2829C9.00586 17.2604 9.02411 17.2422 9.04659 17.2422Z" fill="white"/>
</g>
<g opacity="0.510853">
<path d="M8.63986 17.1348C8.66234 17.1348 8.68059 17.153 8.68059 17.1755C8.68059 17.198 8.66234 17.2162 8.63986 17.2162C8.61737 17.2162 8.59912 17.198 8.59912 17.1755C8.59912 17.153 8.61737 17.1348 8.63986 17.1348Z" fill="white"/>
</g>
<g opacity="0.510853">
<path d="M8.63888 18.166C8.66136 18.166 8.67961 18.1843 8.67961 18.2068C8.67961 18.2292 8.66136 18.2475 8.63888 18.2475C8.6164 18.2475 8.59814 18.2292 8.59814 18.2068C8.59814 18.1843 8.6164 18.166 8.63888 18.166Z" fill="white"/>
</g>
<g opacity="0.510853">
<path d="M9.15499 17.6523C9.17747 17.6523 9.19573 17.6706 9.19573 17.6931C9.19573 17.7156 9.17747 17.7338 9.15499 17.7338C9.13251 17.7338 9.11426 17.7156 9.11426 17.6931C9.11426 17.6706 9.13251 17.6523 9.15499 17.6523Z" fill="white"/>
</g>
<g opacity="0.510853">
<path d="M8.12374 17.6523C8.14622 17.6523 8.16448 17.6706 8.16448 17.6931C8.16448 17.7156 8.14622 17.7338 8.12374 17.7338C8.10126 17.7338 8.08301 17.7156 8.08301 17.6931C8.08301 17.6706 8.10126 17.6523 8.12374 17.6523Z" fill="white"/>
</g>
<path d="M8.6391 16.4668L8.98627 17.1702L9.76257 17.283L9.20083 17.8306L9.33344 18.6038L8.6391 18.2387L7.94475 18.6038L8.07736 17.8306L7.51562 17.283L8.29192 17.1702L8.6391 16.4668Z" fill="white"/>
</g>
<mask id="mask9_2091_37353" style="mask-type:luminance" maskUnits="userSpaceOnUse" x="23" y="19" width="2" height="2">
<path d="M23.3735 19.0195H24.5923V20.2383H23.3735V19.0195Z" fill="white"/>
</mask>
<g mask="url(#mask9_2091_37353)">
<path d="M23.8648 19.5859C23.8888 19.5371 23.9448 19.5106 23.9991 19.5257C24.0481 19.5394 24.0768 19.5902 24.0632 19.6392C24.0567 19.6625 24.0397 19.6801 24.0187 19.6882" stroke="#3B7CEC" stroke-width="0.0110204" stroke-linecap="round"/>
<path d="M24.0795 19.5477C24.1098 19.5929 24.1047 19.6546 24.0644 19.6941C24.0281 19.7298 23.9697 19.7292 23.9341 19.6929C23.9172 19.6756 23.9104 19.6521 23.9139 19.6299" stroke="#3B7CEC" stroke-width="0.0110204" stroke-linecap="round"/>
<path d="M23.9839 19.7526C23.9298 19.7469 23.8858 19.7032 23.8814 19.647C23.8775 19.5963 23.9154 19.5519 23.9662 19.548C23.9903 19.5461 24.0126 19.5561 24.0274 19.573" stroke="#3B7CEC" stroke-width="0.0110204" stroke-linecap="round"/>
</g>
<mask id="mask10_2091_37353" style="mask-type:luminance" maskUnits="userSpaceOnUse" x="14" y="14" width="2" height="2">
<path d="M14.249 14.582H15.4678V15.8008H14.249V14.582Z" fill="white"/>
</mask>
<g mask="url(#mask10_2091_37353)">
<path d="M15.289 15.3932C15.2717 15.4192 15.2518 15.4431 15.2299 15.4646" stroke="#3B7CEC" stroke-width="0.0164698" stroke-linecap="round"/>
<path d="M14.467 15.4594C14.4532 15.4314 14.4425 15.4023 14.4348 15.3725" stroke="#3B7CEC" stroke-width="0.0164698" stroke-linecap="round"/>
<path d="M14.902 14.7144C14.9324 14.7218 14.9616 14.7322 14.9893 14.7455" stroke="#3B7CEC" stroke-width="0.0164698" stroke-linecap="round"/>
<path d="M14.9124 14.6659L15.0381 14.9323C15.0468 14.9508 15.0637 14.9636 15.0834 14.9666L15.3644 15.0093C15.4137 15.0168 15.4333 15.0801 15.3977 15.1163L15.1943 15.3237C15.1802 15.338 15.1737 15.3588 15.177 15.3793L15.225 15.672C15.2334 15.7233 15.182 15.7624 15.138 15.7381L14.8865 15.5999C14.869 15.5903 14.8481 15.5903 14.8307 15.5999L14.5792 15.7381C14.5352 15.7624 14.4837 15.7233 14.4921 15.672L14.5402 15.3793C14.5434 15.3588 14.5371 15.338 14.5229 15.3237L14.3195 15.1163C14.2838 15.08 14.3036 15.0167 14.3527 15.0093L14.6339 14.9666C14.6534 14.9636 14.6704 14.9508 14.6791 14.9323L14.8048 14.6659C14.8268 14.6192 14.8904 14.6192 14.9124 14.6659Z" fill="white"/>
</g>
<mask id="mask11_2091_37353" style="mask-type:luminance" maskUnits="userSpaceOnUse" x="23" y="23" width="3" height="3">
<path d="M23.0811 23.7227H25.0107V25.6523H23.0811V23.7227Z" fill="white"/>
</mask>
<g mask="url(#mask11_2091_37353)">
<path d="M23.9266 25.0411C23.777 24.9695 23.6956 24.7988 23.7417 24.6335C23.7482 24.6099 23.7576 24.588 23.7693 24.5678" stroke="#3B7CEC" stroke-width="0.0232293" stroke-linecap="round"/>
<path d="M23.8005 24.4081C23.9373 24.3143 24.1258 24.3292 24.246 24.4518C24.2631 24.4692 24.2774 24.4883 24.289 24.5085" stroke="#3B7CEC" stroke-width="0.0232293" stroke-linecap="round"/>
<path d="M24.4182 24.6796C24.4022 24.8448 24.2696 24.9796 24.0985 24.9929C24.0741 24.9948 24.0503 24.9935 24.0273 24.9893" stroke="#3B7CEC" stroke-width="0.0232293" stroke-linecap="round"/>
</g>
<mask id="mask12_2091_37353" style="mask-type:luminance" maskUnits="userSpaceOnUse" x="22" y="12" width="3" height="3">
<path d="M22.2646 12.4727H24.7021V14.9102H22.2646V12.4727Z" fill="white"/>
</mask>
<g mask="url(#mask12_2091_37353)">
<path d="M24.4419 13.9015C24.4372 13.9147 24.4322 13.9276 24.4269 13.9404" stroke="#3B7CEC" stroke-width="0.0259952" stroke-linecap="round"/>
<path d="M22.8201 14.4107C22.8111 14.4 22.8024 14.3892 22.794 14.3782" stroke="#3B7CEC" stroke-width="0.0259952" stroke-linecap="round"/>
<path d="M23.3553 12.714C23.3693 12.714 23.3832 12.7143 23.397 12.7149" stroke="#3B7CEC" stroke-width="0.0259952" stroke-linecap="round"/>
<path d="M23.5977 12.5763L23.8647 13.1421C23.8832 13.1814 23.9191 13.2087 23.9609 13.215L24.5579 13.3058C24.6625 13.3217 24.7042 13.4561 24.6285 13.5329L24.1965 13.9735C24.1665 14.004 24.1528 14.0481 24.1598 14.0915L24.2618 14.7133C24.2796 14.8222 24.1704 14.9052 24.0768 14.8537L23.5428 14.5602C23.5056 14.5398 23.4613 14.5398 23.4242 14.5602L22.8901 14.8537C22.7966 14.9052 22.6873 14.8222 22.7051 14.7133L22.8072 14.0915C22.8141 14.0481 22.8006 14.004 22.7705 13.9735L22.3384 13.5329C22.2627 13.4558 22.3047 13.3214 22.4091 13.3058L23.0063 13.215C23.0478 13.2087 23.0837 13.1814 23.1023 13.1421L23.3692 12.5763C23.416 12.4772 23.551 12.4772 23.5977 12.5763Z" fill="white"/>
</g>
<mask id="mask13_2091_37353" style="mask-type:luminance" maskUnits="userSpaceOnUse" x="-1" y="23" width="4" height="3">
<path d="M-0.0478516 23.1602H2.38965V25.5977H-0.0478516V23.1602Z" fill="white"/>
</mask>
<g mask="url(#mask13_2091_37353)">
<path d="M1.56293 24.9742C1.42679 25.0347 1.27172 25.0547 1.1167 25.0234" stroke="#3B7CEC" stroke-width="0.033645" stroke-linecap="round"/>
<path d="M0.455305 24.415C0.470917 24.2668 0.531134 24.1225 0.635742 24.0039" stroke="#3B7CEC" stroke-width="0.033645" stroke-linecap="round"/>
<path d="M1.59941 23.8007C1.70289 23.9079 1.77472 24.0468 1.79834 24.2031" stroke="#3B7CEC" stroke-width="0.033645" stroke-linecap="round"/>
</g>
</g>
</g>
<path d="M51.1934 18.126C53.7974 18.126 55.1834 16.936 55.1834 15.186C55.1834 12.834 53.4894 12.386 51.6834 12.092C49.7234 11.742 48.9534 11.518 48.9534 10.384C48.9534 9.46 49.7234 8.858 51.0674 8.858C52.3834 8.858 53.2654 9.446 53.3074 10.664H54.8614C54.8334 8.872 53.4614 7.682 51.1234 7.682C48.7854 7.682 47.3714 8.802 47.3714 10.594C47.3714 12.344 48.5754 13.03 50.9134 13.436C52.9154 13.772 53.6014 14.108 53.6014 15.326C53.6014 16.404 52.6494 16.922 51.2214 16.922C49.4854 16.922 48.7294 16.11 48.7014 14.808H47.1334C47.1614 16.768 48.4774 18.126 51.1934 18.126ZM56.8093 20.338H58.2513V16.544H58.3353C58.6993 17.496 59.6233 18.126 60.8553 18.126C62.6613 18.126 63.8793 16.782 63.8793 14.304C63.8793 11.826 62.6613 10.468 60.8553 10.468C59.6233 10.468 58.6993 11.112 58.3353 12.05H58.2513L58.1953 10.594H56.8093V20.338ZM60.3513 16.936C58.9793 16.936 58.2653 15.858 58.2653 14.71V13.884C58.2653 12.736 58.9793 11.658 60.3513 11.658C61.5833 11.658 62.4093 12.554 62.4093 14.304C62.4093 16.04 61.5833 16.936 60.3513 16.936ZM68.0656 18.126C69.3116 18.126 70.2356 17.482 70.5856 16.53H70.6696V18H72.1116V10.594H70.7256L70.6696 12.05H70.5856C70.2356 11.098 69.3116 10.468 68.0656 10.468C66.2596 10.468 65.0416 11.812 65.0416 14.29C65.0416 16.768 66.2596 18.126 68.0656 18.126ZM68.5696 16.936C67.3376 16.936 66.5256 16.026 66.5256 14.29C66.5256 12.54 67.3376 11.644 68.5696 11.644C69.9416 11.644 70.6556 12.736 70.6556 13.87V14.71C70.6556 15.858 69.9416 16.936 68.5696 16.936ZM73.6415 20.338H74.6775C75.8395 20.338 76.5815 19.932 77.0575 18.644L80.1375 10.594H78.6115L77.0155 15.102L76.7215 15.984H76.6655L76.3575 15.102L74.6635 10.594H73.0815L75.9935 17.468L75.6715 18.294C75.4335 18.882 75.0975 19.148 74.4395 19.148H73.6415V20.338ZM84.0615 18.126C85.9095 18.126 87.2535 17.034 87.3655 15.354H85.9655C85.8535 16.292 85.1395 16.922 84.0615 16.922C82.7735 16.922 81.9335 15.984 81.9335 14.318C81.9335 12.736 82.7035 11.686 84.0755 11.686C85.0275 11.686 85.7695 12.19 85.9375 13.156H87.3375C87.2255 11.56 85.9095 10.482 84.1175 10.482C81.8915 10.482 80.4635 12.008 80.4635 14.304C80.4635 16.6 81.8915 18.126 84.0615 18.126ZM91.9088 18.126C93.6588 18.126 95.0028 17.174 95.1988 15.718H93.8268C93.6448 16.488 92.9028 16.978 91.9088 16.978C90.6208 16.978 89.7808 16.11 89.7528 14.584H95.2408C95.4648 12.26 94.2888 10.482 91.8528 10.482C89.6828 10.482 88.3248 11.994 88.3248 14.332C88.3248 16.614 89.6828 18.126 91.9088 18.126ZM91.8388 11.616C92.9308 11.616 93.7848 12.19 93.8268 13.562H89.7808C89.8928 12.358 90.6768 11.616 91.8388 11.616ZM96.7995 18H98.2275V13.954C98.2275 12.68 98.9975 11.672 100.23 11.672C101.378 11.672 101.896 12.386 101.896 13.898V18H103.338V13.954C103.338 12.68 104.108 11.672 105.326 11.672C106.488 11.672 107.006 12.386 107.006 13.898V18H108.434V13.604C108.434 11.336 107.342 10.482 105.872 10.482C104.682 10.482 103.674 11.07 103.268 12.218H103.156C102.778 10.958 101.854 10.482 100.762 10.482C99.6835 10.482 98.7315 11.014 98.3115 12.064H98.2275L98.1715 10.594H96.7995V18ZM113.498 18.126C115.724 18.126 117.11 16.572 117.11 14.304C117.11 11.952 115.654 10.482 113.498 10.482C111.258 10.482 109.872 12.036 109.872 14.318C109.872 16.642 111.328 18.126 113.498 18.126ZM113.498 16.922C112.182 16.922 111.342 15.97 111.342 14.318C111.342 12.61 112.21 11.672 113.498 11.672C114.828 11.672 115.64 12.638 115.64 14.304C115.64 15.984 114.786 16.922 113.498 16.922ZM121.879 18.126C124.105 18.126 125.491 16.572 125.491 14.304C125.491 11.952 124.035 10.482 121.879 10.482C119.639 10.482 118.253 12.036 118.253 14.318C118.253 16.642 119.709 18.126 121.879 18.126ZM121.879 16.922C120.563 16.922 119.723 15.97 119.723 14.318C119.723 12.61 120.591 11.672 121.879 11.672C123.209 11.672 124.021 12.638 124.021 14.304C124.021 15.984 123.167 16.922 121.879 16.922ZM127.001 18H128.429V13.954C128.429 12.68 129.227 11.672 130.501 11.672C131.677 11.672 132.223 12.386 132.223 13.898V18H133.665V13.604C133.665 11.336 132.531 10.482 131.019 10.482C129.927 10.482 128.947 11.014 128.513 12.064H128.429L128.373 10.594H127.001V18Z" fill="#1E2C31"/>
<g clip-path="url(#clip2_2091_37353)">
<mask id="mask14_2091_37353" style="mask-type:luminance" maskUnits="userSpaceOnUse" x="136" y="3" width="23" height="22">
<path d="M158.045 3H136.545V24.5H158.045V3Z" fill="white"/>
</mask>
<g mask="url(#mask14_2091_37353)">
<mask id="mask15_2091_37353" style="mask-type:luminance" maskUnits="userSpaceOnUse" x="136" y="3" width="23" height="22">
<path d="M136.545 3H158.045V24.5H136.545V3Z" fill="white"/>
</mask>
<g mask="url(#mask15_2091_37353)">
<path d="M147.296 6.82227C143.47 6.82227 140.369 9.92339 140.369 13.7488C140.369 17.5743 143.47 20.6755 147.296 20.6755C151.121 20.6755 154.222 17.5743 154.222 13.7488C154.222 9.92339 151.121 6.82227 147.296 6.82227Z" fill="#DE5A00"/>
<path d="M147.296 6.82227C143.47 6.82227 140.369 9.92339 140.369 13.7488C140.369 17.5743 143.47 20.6755 147.296 20.6755C151.121 20.6755 154.222 17.5743 154.222 13.7488C154.222 9.92339 151.121 6.82227 147.296 6.82227Z" fill="#EF7B00"/>
<path d="M147.296 6.82227C143.47 6.82227 140.369 9.92339 140.369 13.7488C140.369 17.5743 143.47 20.6755 147.296 20.6755C151.121 20.6755 154.222 17.5743 154.222 13.7488C154.222 9.92339 151.121 6.82227 147.296 6.82227ZM147.296 18.873C144.466 18.873 142.172 16.5789 142.172 13.7488C142.172 10.9188 144.466 8.62468 147.296 8.62468C150.126 8.62468 152.42 10.9188 152.42 13.7488C152.42 16.5789 150.126 18.873 147.296 18.873Z" fill="#DE5A00"/>
<path d="M148.588 13.3901C148.334 13.2905 148.03 13.1997 147.677 13.1174V11.5586C147.795 11.6022 147.892 11.6654 147.968 11.7486C148.026 11.8111 148.073 11.8794 148.109 11.9537C148.246 12.2286 148.532 12.4123 148.858 12.4123H148.904C149.548 12.4123 149.956 11.7591 149.623 11.248C149.512 11.0779 149.373 10.9221 149.205 10.7806C148.804 10.4419 148.295 10.2402 147.677 10.1755V9.81368C147.677 9.60377 147.507 9.43359 147.297 9.43359C147.087 9.43359 146.917 9.60377 146.917 9.81368V10.1642C146.281 10.2127 145.755 10.4169 145.34 10.7773C144.861 11.194 144.621 11.713 144.621 12.3347C144.621 13.3945 145.387 14.1001 146.917 14.4519V16.0578C146.717 16.0176 146.548 15.9402 146.409 15.8248C146.303 15.7363 146.221 15.6285 146.164 15.5011C146.042 15.2301 145.748 15.0607 145.432 15.0607C144.822 15.0607 144.429 15.6704 144.728 16.1637C144.744 16.1901 144.76 16.2163 144.778 16.2424C145.018 16.6072 145.35 16.8943 145.774 17.1036C146.115 17.2723 146.496 17.373 146.917 17.4057V17.6848C146.917 17.8947 147.087 18.0649 147.297 18.0649C147.507 18.0649 147.677 17.8947 147.677 17.6848V17.3955C148.282 17.3341 148.791 17.1441 149.202 16.8252C149.712 16.4302 149.967 15.9133 149.967 15.2744C149.967 14.3808 149.507 13.7527 148.588 13.3901ZM146.569 12.7458C146.386 12.6185 146.295 12.4512 146.295 12.244C146.295 12.0238 146.375 11.8425 146.535 11.7001C146.636 11.6105 146.764 11.5492 146.917 11.5159V12.9167C146.772 12.8637 146.656 12.8068 146.569 12.7458ZM148.019 15.8862C147.929 15.9587 147.814 16.0111 147.677 16.045V14.6728C147.788 14.7171 147.882 14.7633 147.959 14.8114C148.17 14.9431 148.275 15.1233 148.275 15.3521C148.275 15.5722 148.19 15.7503 148.019 15.8862Z" fill="#DE5A00"/>
<path d="M147.296 6.82227C143.47 6.82227 140.369 9.92339 140.369 13.7488C140.369 17.5743 143.47 20.6755 147.296 20.6755C151.121 20.6755 154.222 17.5743 154.222 13.7488C154.222 9.92339 151.121 6.82227 147.296 6.82227ZM147.296 18.873C144.466 18.873 142.172 16.5789 142.172 13.7488C142.172 10.9188 144.466 8.62468 147.296 8.62468C150.126 8.62468 152.42 10.9188 152.42 13.7488C152.42 16.5789 150.126 18.873 147.296 18.873Z" fill="#FFC711"/>
<mask id="mask16_2091_37353" style="mask-type:alpha" maskUnits="userSpaceOnUse" x="140" y="6" width="15" height="15">
<mask id="mask17_2091_37353" style="mask-type:luminance" maskUnits="userSpaceOnUse" x="136" y="3" width="23" height="22">
<path d="M136.545 3H158.045V24.5H136.545V3Z" fill="white"/>
</mask>
<g mask="url(#mask17_2091_37353)">
<path d="M147.296 6.82812C143.47 6.82812 140.369 9.92925 140.369 13.7547C140.369 17.5802 143.47 20.6814 147.296 20.6814C151.121 20.6814 154.222 17.5802 154.222 13.7547C154.222 9.92925 151.121 6.82812 147.296 6.82812ZM147.296 18.8789C144.466 18.8789 142.172 16.5847 142.172 13.7547C142.172 10.9247 144.466 8.63054 147.296 8.63054C150.126 8.63054 152.42 10.9247 152.42 13.7547C152.42 16.5847 150.126 18.8789 147.296 18.8789Z" fill="#FFC711"/>
<path d="M148.589 13.3901C148.335 13.2905 148.031 13.1997 147.678 13.1174V11.5586C147.796 11.6022 147.893 11.6654 147.969 11.7486C148.026 11.8111 148.074 11.8794 148.11 11.9537C148.247 12.2286 148.533 12.4123 148.859 12.4123H148.905C149.549 12.4123 149.957 11.7591 149.624 11.248C149.513 11.0779 149.374 10.9221 149.206 10.7806C148.805 10.4419 148.296 10.2402 147.678 10.1755V9.81368C147.678 9.60377 147.508 9.43359 147.298 9.43359C147.088 9.43359 146.918 9.60377 146.918 9.81368V10.1642C146.282 10.2127 145.756 10.4169 145.341 10.7773C144.862 11.194 144.622 11.713 144.622 12.3347C144.622 13.3945 145.388 14.1001 146.918 14.4519V16.0578C146.718 16.0176 146.549 15.9402 146.41 15.8248C146.304 15.7363 146.222 15.6285 146.165 15.5011C146.043 15.2301 145.749 15.0607 145.433 15.0607C144.823 15.0607 144.43 15.6704 144.729 16.1637C144.745 16.1901 144.761 16.2163 144.779 16.2424C145.019 16.6072 145.351 16.8943 145.775 17.1036C146.116 17.2723 146.497 17.373 146.918 17.4057V17.6848C146.918 17.8947 147.088 18.0649 147.298 18.0649C147.508 18.0649 147.678 17.8947 147.678 17.6848V17.3955C148.283 17.3341 148.792 17.1441 149.203 16.8252C149.713 16.4302 149.968 15.9133 149.968 15.2744C149.968 14.3808 149.508 13.7527 148.589 13.3901ZM146.57 12.7458C146.387 12.6185 146.296 12.4512 146.296 12.244C146.296 12.0238 146.376 11.8425 146.536 11.7001C146.637 11.6105 146.765 11.5492 146.918 11.5159V12.9167C146.773 12.8637 146.657 12.8068 146.57 12.7458ZM148.02 15.8862C147.93 15.9587 147.815 16.0111 147.678 16.045V14.6728C147.789 14.7171 147.883 14.7633 147.96 14.8114C148.171 14.9431 148.276 15.1233 148.276 15.3521C148.276 15.5722 148.191 15.7503 148.02 15.8862Z" fill="#FFC711"/>
</g>
</mask>
<g mask="url(#mask16_2091_37353)">
<path d="M152.072 6.29971L142.426 22.3544L138.807 20.1797L148.453 4.125L152.072 6.29971Z" fill="#FFE286"/>
</g>
</g>
</g>
<circle cx="147.295" cy="13.7501" r="4.65833" fill="#EF7B00"/>
<path d="M145.503 15.8996V11.9766C145.503 11.8932 145.53 11.8122 145.581 11.7462C145.632 11.6803 145.704 11.6332 145.785 11.6122C145.865 11.5913 145.951 11.5978 146.027 11.6307C146.104 11.6635 146.168 11.7209 146.208 11.7938L148.381 15.7054C148.421 15.7783 148.485 15.8357 148.562 15.8685C148.638 15.9014 148.724 15.9079 148.804 15.887C148.885 15.8661 148.956 15.8189 149.007 15.753C149.058 15.687 149.086 15.606 149.086 15.5226V11.5996M144.786 13.0329H149.803M144.786 14.4663H149.803" stroke="#FFE286" stroke-width="0.716667" stroke-linecap="round" stroke-linejoin="round"/>
</g>
</g>
<defs>
<linearGradient id="paint0_linear_2091_37353" x1="15.5442" y1="5.32617" x2="15.5442" y2="40.0116" gradientUnits="userSpaceOnUse">
<stop stop-color="#2563EB"/>
<stop offset="1" stop-color="#2563EB" stop-opacity="0"/>
</linearGradient>
<clipPath id="clip0_2091_37353">
<rect width="161" height="43" fill="white"/>
</clipPath>
<clipPath id="clip1_2091_37353">
<rect width="30" height="16.875" fill="white" transform="translate(-2.45459 11)"/>
</clipPath>
<clipPath id="clip2_2091_37353">
<rect width="21.5" height="21.5" fill="white" transform="translate(136.545 3)"/>
</clipPath>
</defs>
</svg>
