<svg width="36" height="36" viewBox="0 0 36 36" fill="none" xmlns="http://www.w3.org/2000/svg">
<g opacity="0.5" filter="url(#filter0_d_3935_32295)">
<path fill-rule="evenodd" clip-rule="evenodd" d="M35.75 16.4997C35.75 25.4745 28.4749 32.7497 19.5 32.7497C17.6622 32.752 15.8374 32.4421 14.1034 31.8332C13.3724 30.0626 12.9975 28.1652 13 26.2497C12.9956 22.7822 14.2274 19.4267 16.4743 16.7857C17.4439 18.2015 18.7443 19.3594 20.2627 20.1591C21.781 20.9587 23.4715 21.376 25.1875 21.3747C27.0078 21.3756 28.7974 20.9058 30.3825 20.0109C31.9676 19.1159 33.2943 17.8263 34.2339 16.2673C34.6239 15.6238 35.75 15.7473 35.75 16.4997Z" fill="#F59E0B"/>
</g>
<path d="M3.25 16.5C3.25 23.5834 7.78212 29.6072 14.1034 31.8319C13.3726 30.0618 12.9977 28.165 13 26.25C13 22.6409 14.3081 19.3356 16.4742 16.786C15.2663 15.0285 14.6213 12.9451 14.625 10.8125C14.6241 8.99222 15.0939 7.20264 15.9888 5.61754C16.8837 4.03244 18.1733 2.70569 19.7324 1.76613C20.3775 1.37613 20.2524 0.25 19.5 0.25C10.5251 0.25 3.25 7.52513 3.25 16.5Z" fill="url(#paint0_linear_3935_32295)"/>
<defs>
<filter id="filter0_d_3935_32295" x="-35" y="15.8516" width="70.75" height="113.898" filterUnits="userSpaceOnUse" color-interpolation-filters="sRGB">
<feFlood flood-opacity="0" result="BackgroundImageFix"/>
<feColorMatrix in="SourceAlpha" type="matrix" values="0 0 0 0 0 0 0 0 0 0 0 0 0 0 0 0 0 0 127 0" result="hardAlpha"/>
<feOffset dx="-44" dy="93"/>
<feGaussianBlur stdDeviation="2"/>
<feComposite in2="hardAlpha" operator="out"/>
<feColorMatrix type="matrix" values="0 0 0 0 0 0 0 0 0 0 0 0 0 0 0 0 0 0 0.25 0"/>
<feBlend mode="normal" in2="BackgroundImageFix" result="effect1_dropShadow_3935_32295"/>
<feBlend mode="normal" in="SourceGraphic" in2="effect1_dropShadow_3935_32295" result="shape"/>
</filter>
<linearGradient id="paint0_linear_3935_32295" x1="11.6994" y1="0.25" x2="11.6994" y2="31.8319" gradientUnits="userSpaceOnUse">
<stop stop-color="#F59E0B"/>
<stop offset="1" stop-color="#FFA917" stop-opacity="0"/>
</linearGradient>
</defs>
</svg>
