<svg width="1440" height="1000" viewBox="0 0 1440 1000" fill="none" xmlns="http://www.w3.org/2000/svg">
<rect opacity="0.1" width="1440" height="1000" fill="url(#paint0_linear_3609_31023)"/>
<g clip-path="url(#clip0_3609_31023)">
<mask id="mask0_3609_31023" style="mask-type:luminance" maskUnits="userSpaceOnUse" x="80" y="200" width="1280" height="800">
<path d="M1360 200H80V1000H1360V200Z" fill="white"/>
</mask>
<g mask="url(#mask0_3609_31023)">
<path d="M1066.51 807.027L1110.75 794.575L1124.12 806.71L1132.7 808.962L1140.15 818.463L1157.92 821.457L1170.02 817.116L1176.01 800.385L1182.67 784.704L1180.81 771.427L1161.06 751.058L1154.64 733.925L1150.06 733.761L1145.87 722.258L1142 741.967L1139.07 745.247L1123.33 736.76L1125.98 731.161L1127.74 728.064L1125.55 725.763L1119.71 726.31L1112.17 723.4L1104.12 732.327L1104.02 736.867L1098.59 737.1L1095.88 732.319L1085.71 738.874L1079.08 744.735L1077.98 748.885L1072.96 753.217L1060.4 756.513L1053.61 762.288L1051.84 761.955L1050.69 771.858L1051.76 774.685L1054.16 784.312L1057.78 793.821L1057.47 801.406L1054.32 802.733L1055.98 806.166L1058.64 805.273L1061.8 807.315L1066.51 807.027Z" fill="#03599C" fill-opacity="0.1"/>
<path d="M1154.21 828.352L1159.67 830.256L1163.43 828.918L1165.25 829.612L1164.51 834.815V838.335H1163.26L1162.6 837.082L1161.48 838.813L1160.29 839.921L1157.57 838.898L1154.92 836.075L1154.6 832.232L1153.04 830.195L1154.21 828.352Z" fill="#03599C" fill-opacity="0.1"/>
<path d="M1111.31 694.689L1117.21 693.99L1111.31 692.811L1109.24 691.342L1106.07 688.636L1110.34 688.601L1112.46 686.91L1118.26 688.636L1119.48 692.787L1120.66 696.939L1122.93 696.999L1130.18 691.018L1156.54 701.55L1158.51 705.676L1162.61 707.329L1162.95 708.931L1161.34 709.165L1161.51 711.094L1170.61 720.039L1172.99 720.473L1172.11 722.47L1169.45 721.147L1162.94 719.933L1156.76 713.096L1151.94 712.669L1148.9 714.778L1149.13 716.163L1146.15 717.782L1141.15 717.468L1137.87 712.995L1130.4 713.987L1131.29 711.012L1134.25 709.945L1130.36 703.582L1117.39 698.715L1117.61 696.784L1116.12 699.712L1114.19 699.543L1112.93 696.645L1111.31 696.088V694.689Z" fill="#03599C" fill-opacity="0.1"/>
<path d="M1081.22 717.515C1081.7 717.855 1088.04 713.723 1088.04 713.723L1093.66 712.859L1094.1 713.204L1087.66 716.656C1087.66 716.656 1083.79 719.63 1083.75 719.61C1083.71 719.59 1081.65 720.309 1081.65 720.309L1081.22 717.515Z" fill="#03599C" fill-opacity="0.1"/>
<path d="M1072.7 681.698L1083.11 682.882L1086.5 679.785L1086.79 682.512L1082.59 685.023L1074.44 684.409L1071.73 684.137L1069.89 686.718L1072.04 690.037C1072.04 690.037 1075.11 688.57 1075.52 688.639C1075.94 688.708 1078.97 688.124 1078.97 688.124L1080.64 687.478L1080.84 688.412L1078.88 690.037L1075.32 692.328L1077.72 695.869L1077.7 697.407L1079.56 699.647L1075.82 701.592L1073.09 697.033L1072.26 696.966L1073.3 695.049L1071.71 694.745L1070.93 698.601L1071.04 701.592L1069.89 704.615L1067.97 704.427L1067.46 703.028L1068.71 700.514L1068.49 697.49L1066.17 696.638V694.258L1067.38 691.954L1069.59 684.463L1072.7 681.698Z" fill="#03599C" fill-opacity="0.1"/>
<path d="M1024.06 705.396L1026.71 705.766L1027.68 705.012L1030.78 706.347L1032.47 707.806L1035.73 707.972L1038.15 708.518L1039.42 707.009L1042.09 707.85L1044.74 708.517L1046.39 710.436L1047.9 711.361C1047.9 711.361 1049.27 710.596 1049.59 710.757C1049.9 710.918 1051.97 711.51 1051.97 711.51L1051.62 713.855L1047.86 713.418L1041.99 713.109L1036.03 711.36H1030.57L1027.67 710.323L1025.66 710.483L1024.66 708.631L1022.38 708.112L1024.06 705.396Z" fill="#03599C" fill-opacity="0.1"/>
<path d="M1045.82 708.582L1046.25 709.639L1049.86 709.285L1050.63 708.318L1048.57 708.133L1046.67 708.211L1045.82 708.582Z" fill="#03599C" fill-opacity="0.1"/>
<path d="M1053.18 712.336C1053.18 712.336 1054.5 712.474 1054.61 712.514C1054.73 712.555 1056.1 713.308 1056.1 713.308L1055.29 714.025C1055.29 714.025 1054.86 714.673 1054.78 714.789C1054.69 714.904 1054.32 715.037 1054.32 715.037L1053.45 714.33L1052.72 713.858L1052.66 713.421L1053.18 712.336Z" fill="#03599C" fill-opacity="0.1"/>
<path d="M1035.87 679.782L1040.8 679.334L1051.32 671.976L1054.63 670.315L1059.23 662.953L1063.77 666.439L1067.42 668.107L1064.62 669.406L1062.22 672.638L1061.17 674.52L1066.48 682.601L1062.94 683.269L1061.67 687.029L1058.23 691.179L1057.96 695.11L1053.2 699.206L1051.96 696.652C1051.96 696.652 1049.74 696.353 1048.23 696.397C1046.72 696.441 1038.2 694.944 1038.2 694.944L1033.94 684.93L1035.87 679.782Z" fill="#03599C" fill-opacity="0.1"/>
<path d="M989.94 667.348L998.24 670.257C998.24 670.257 1005.49 677.782 1006.21 678.505C1006.93 679.228 1019.28 692.007 1020.16 692.896C1021.04 693.785 1023.48 697.882 1023.48 697.882L1024.06 705.397L1019.78 704.016L1014.45 701.543L1004 686.911L997.148 678.565L993.178 674.523L988.668 669.322L989.94 667.348Z" fill="#03599C" fill-opacity="0.1"/>
<path d="M1005.28 666.327C1005.28 666.327 1006.69 672.327 1007.22 673.535C1007.75 674.743 1014 680.617 1014 680.617L1017.56 682.018L1017.61 679.126L1015.2 674.172L1015.29 669.445L1008.27 663.021L1005.84 661.895L1003.67 655.7L1001.66 653.946L1004.6 641.363L1006.62 640.898L1019.82 652.4L1023.62 655.587L1034.07 647.241L1034.32 641.565L1033.23 635.216L1024.26 624.953L996.352 631.764L1000.13 648.401L998.723 656.324L1002.39 662.538L1005.28 666.327Z" fill="#03599C" fill-opacity="0.1"/>
<path d="M1024.26 624.953V619.279C1024.26 619.279 1029.37 613.343 1031.28 613.653C1033.19 613.963 1036.27 615.307 1039.14 614.421C1042.02 613.535 1063.49 605.008 1063.49 605.008L1075.94 584.7L1074.51 575.957L1067.92 565.555L1078.27 557.471L1071.79 555.367L1066.7 557.142L1066.09 550.498L1075.61 543.807L1075.17 549.338L1084.16 548.055L1087.51 549.612L1087.78 555.812L1091.25 556.286L1091.44 565.17L1090.33 568.867L1102.07 564.778L1099.47 555.592L1095.14 548.506C1095.14 548.506 1100.51 545.539 1100.9 544.187C1101.29 542.835 1108.88 534.005 1108.88 534.005L1113.86 536.772L1135.11 514.415L1138.48 500.298L1139.15 491.336L1132.72 487.353L1129.41 490.395L1120.83 485.474L1141.69 466.262L1153.54 463.608L1179.16 464.828L1191.17 453.374C1191.17 453.374 1216.14 447.047 1215.25 448.994C1214.35 450.941 1192.89 471.575 1191.17 473.624C1189.46 475.673 1186.91 485.414 1186.91 485.414L1190.01 501.297L1206.61 486.298L1212.53 477.496L1208.6 467.488L1218.18 460.624L1231.85 457.525L1256.8 447.502L1265.71 435.554L1269.81 427.854C1269.81 427.854 1278.44 430.187 1280.11 432.952C1281.77 435.717 1290.84 437.215 1290.84 437.215L1299.58 429.74L1288.18 423.486L1235.83 406.381L1235.94 413.521L1202.51 408.648L1199.02 402.342C1199.02 402.342 1182.36 403.782 1178.94 402.342C1175.51 400.902 1135.27 392.216 1135.27 392.216L1133.17 398.193L1104.94 401.847L1097.8 394.21L1094.76 385.301L1078.88 389.064L1026.41 386.571L1048.45 374.341L1045.73 366.263L1030.12 364.488L1020.71 358.289L1001.12 366.314L960.362 375.296L959.835 380.929L937.226 383.415L946.057 394.151C946.057 394.151 930.12 388.509 929.674 391.828C929.228 395.147 918.273 395.593 918.273 395.593C918.273 395.593 923.528 411.423 927 413.055C932.257 415.526 937.225 417.674 937.225 417.674L916.111 425.647C916.111 425.647 900.834 425.479 904.988 425.314C909.142 425.149 914.505 410.589 914.505 410.589L913.182 390.34L902.611 390.725L894.308 402.238L900.669 412.971L868.853 413.086L834.363 420.397L860.618 594.51C860.618 594.51 877.131 602.163 879.604 601.689C882.077 601.215 893.588 600.29 893.588 600.29L900.758 607.72L912.982 612.109L920.1 639.606L928.049 657.971L931.773 658.643L936.262 655.639L937.538 651.262L939.552 641.048L940.586 633.261L964.885 614.125L977.469 612.11C977.469 612.11 980.866 618.757 983.501 623.661C986.136 628.564 986.183 632.793 986.183 632.793L990.624 632.278L994.7 629.647L996.353 631.766L1024.26 624.953Z" fill="#03599C" fill-opacity="0.1"/>
<path d="M1107.33 568.002C1108.34 567.102 1113.32 563.743 1114.1 563.917C1114.88 564.09 1120.6 563.757 1120.6 563.757L1130.4 557.534C1130.4 557.534 1135.22 551.311 1135.41 549.838C1135.61 548.365 1135.17 544.223 1135.55 544.001C1135.93 543.779 1138.65 541.758 1138.65 541.758L1142.08 546.769L1140.53 552.964L1138.95 555.784L1137.63 561.156C1137.63 561.156 1138.15 564.897 1137.04 565.558C1135.93 566.219 1129.9 566.964 1129.9 566.964L1125.25 567.598L1122.54 570.563L1119.72 569.708L1120 567.164C1120 567.164 1118.15 567.609 1115.68 567.828C1113.22 568.046 1110.12 570.287 1109.51 570.069C1108.9 569.851 1106.36 569.733 1106.36 569.733L1107.33 568.002Z" fill="#03599C" fill-opacity="0.1"/>
<path d="M1110.31 571.586L1113.02 569.73L1117.27 568.676L1118.03 570.893L1117.32 572.515H1115.52L1114.38 571.788L1112.86 573.772L1110.87 573.578L1110.31 571.586Z" fill="#03599C" fill-opacity="0.1"/>
<path d="M1101.47 572.27L1104.42 570.562L1109.37 572.715C1109.37 572.715 1108.41 575.15 1108.26 575.74C1108.11 576.329 1105.38 580.168 1105.38 580.168L1103.83 579.87L1103.47 577.874L1104.65 575.15L1103.99 573.525L1102.21 574.85L1101.47 572.27Z" fill="#03599C" fill-opacity="0.1"/>
<path d="M1136.99 540.881L1139.06 540.124L1137.2 538.24L1137.98 537.411C1137.98 537.411 1139.92 536.94 1140.22 536.966C1140.53 536.991 1145.7 538.6 1145.7 538.6L1149.27 535.284C1149.27 535.284 1152.33 535.511 1152.6 535.217C1152.87 534.923 1154.02 533.39 1154.02 533.39L1153.19 532.138L1154.02 530.035L1151.73 531.32L1148.33 530.3L1144.16 527.326L1142.05 525.57L1140.8 526.23L1141.45 527.936C1141.45 527.936 1140.99 530.518 1141 530.75C1141.02 530.982 1139.92 532.457 1139.92 532.457L1139.97 534.232L1137.12 534.035L1136.76 535.533L1134.91 537.412L1135.88 539.094L1135.96 541.032L1136.99 540.881Z" fill="#03599C" fill-opacity="0.1"/>
<path d="M1142.52 491.229L1144.13 489.79L1143.79 487.356C1143.79 487.356 1145.5 487.184 1145.56 487.963C1145.62 488.742 1147.61 501.192 1147.61 501.192L1150.59 511.202L1146 509.88L1144.68 514.082L1145.01 518.072L1147.39 521.003L1146.84 522.83L1143.79 520.899L1142.41 523.11L1141.3 521.002L1142.33 517.112L1142.36 513.087L1141.69 510.546L1142.63 505.344L1142.69 500.968L1141.63 499.144L1141.47 495.376L1142.52 491.229Z" fill="#03599C" fill-opacity="0.1"/>
<path d="M834.364 420.397L807.799 434.276L796.187 436.132L784.424 424.578L798.132 426.731L810.164 426.279L810.118 420.655L773.487 406.674L761.669 400.793L726.276 415.342L708.119 441.191L693.214 450.943L696.874 468.741L709.564 465.443L718.697 481.535L730.976 477.455L733.764 466.778L741.674 464.612L737.868 457.335L733.66 457.233L735 448.146L746.914 438.562L750.683 431.08L758.73 432.111L756.151 437.676L746.147 446.04L752.955 460.842L768.069 458.058L772.766 460.69L765.543 462.853L754.758 464.303L756.151 471.836L754.447 474.672L748.467 471.937L745.004 478.13L744.336 484.266L712.299 487.208L707.705 482.565L710.336 477.249L709.465 471.937L702.651 477.661L704.81 489.117L694.965 491.439L681.25 505.851L669.735 507.734L670.615 512.081L662.305 511.56L661.792 515.371L670.766 521.518L670.872 533.278H644.934L646.679 557.985L665.711 560.05L676.852 551.904L677.579 544.625L686.963 539.365L689.599 533.278L696.869 535.087L706.675 530.905L721.533 542.515L729.321 551.23L726.981 556.598L735.978 547.153L730.765 542.155L721.895 534.779L716.993 528.223L718.801 524.662L728.446 532.711L739.069 539.522L741.084 548.239L745.263 551.799L748.667 558.926H752.176L754.805 555.669L752.743 549.836L750.683 546.123L754.86 544.009L763.27 544.625L769.562 543.286L768.951 538.675L770.439 532.659L775.444 524.354L780.809 521.001L785.816 528.53L793.861 527.396L791.594 522.443L801.963 518.576L800.569 523.58L800.779 528.944L809.498 534.93L812.952 539.73L805.418 542.977L792.216 540.039L784.165 539.47L762.39 548.651L772.349 560.827L784.624 562.172L794.067 559.075L791.383 571.917L788.278 579.886L789.78 590.801L798.607 603.388L809.642 620.616L816.093 634.501L818.572 643.58L834.252 639.965L851.59 630.574L864.947 622.728L872.639 611.023L863.711 605.454L861.182 599.156L852.366 604.732L842.406 601.53L834.364 589.502L836.161 583.572L840.602 584.71L850.456 594.72L856.131 596.214L860.618 594.51L834.364 420.397Z" fill="#03599C" fill-opacity="0.1"/>
<path d="M789.777 590.802L788.62 592.84H787.416L783.178 587.043L789.15 599.882L792.985 606.286L794.562 610.449L798.07 617.578L799.176 623.727L803.033 627.178L805.57 634.761L812.436 639.564L818.362 645.494L817.23 647.919L821.42 651.596L840.341 648.595L843.098 647.083L844.369 650.038L840.504 659.975L807.272 697.139L805.11 708.539L809.131 721.441L809.547 735.889L805.006 742.49L790.453 752.647L792.88 762.712L790.923 769.211L784.27 772.257L779.569 786.186L765.488 801.407L753.672 803.212L746.397 804.76L736.079 803.52L735.256 794.39L724.471 772.668L721.53 758.891L713.269 746.149L716.738 732.166L721.226 723.606L715.442 702.663L705.849 688.42L708.22 675.783L703.944 671.287L694.857 671.24L691.409 666.239L681.676 666.122L664.265 669.334L648.946 671.602L621.391 644.925L623.15 623.983L623.577 609.002L630.643 597.439L641.151 588.335L646.003 575.9L653.375 570.431L657.455 563.365L668.959 566.614L689.953 559.44L708.377 557.789L712.766 566.715L711.01 571.612L733.035 580.905L741.857 582.505L742.273 577.242L750.162 575.024L768.17 580.745L782.478 580.483L788.275 579.887L789.777 590.802Z" fill="#03599C" fill-opacity="0.1"/>
<path d="M821.811 741.419L821.736 752.118L818.266 759.494L820.702 770.57L828.748 771.152L833.986 759.422L837.084 750.126L839.815 740.465L837.969 726.883L832.384 733.375L821.811 741.419Z" fill="#03599C" fill-opacity="0.1"/>
<path d="M441.137 776.723L438.398 806.256L433.528 817.325L433.454 831.49L436.696 835.114L432.199 856.658L430.875 867.645L436.405 875.699L445.334 887.352L460.758 887.944L451.314 879.083L448.654 872.666L457.436 860.199L454.851 852.816L459.795 844.842L463.778 835.258L463.117 829.129L471.46 823.816L484.666 820.052L489.092 812.968L485.994 804.856L497.135 806.474L508.868 793.051L516.764 777.772L515.953 771.278L520.282 767.222L530.708 763.821L536.902 763.385L543.769 753.935L547.906 739.548L548.124 728.775L552.406 724.864L556.98 719.923L560.816 714.166L558.533 703.687L550.483 699.702L539.049 696.155L529.382 693.87L523.033 690.259L517.865 688.853L512.706 687.598L509.753 680.15L500.386 668.707L488.422 667.306L469.905 653.434L458.615 652.03L450.645 650.486L441.933 645.617L430.429 650.409L422.39 659.915L421.499 671.916L416.3 680.958L409.584 689.982L410.464 694.579C410.464 694.579 408.065 702.686 408.508 703.426C408.951 704.167 423.045 727.483 423.045 727.483L427.475 736.377L436.18 741.473L443.561 747.518C443.561 747.518 444.01 765.369 444.001 766.926C443.992 768.483 441.137 776.723 441.137 776.723Z" fill="#03599C" fill-opacity="0.1"/>
<path d="M422.094 663.891L423.096 659.08L416.799 654.079L413.102 653.83L409.629 655.456L406.212 655.701L401.736 651.178L399.816 648.299L400.186 643.872L401.727 636.999L399.89 634.506L397.002 631.559L391.931 632.523L384.483 633.287L384.004 631.56L385.566 628.069L384.895 625.95L385.427 622.69L387.127 622.026L387.497 618.19L390.348 614.336L389.045 613.026L382.991 613.248L378.93 614.36L377.315 618.038L375.804 623.632L368.235 624.019C368.235 624.019 365.508 625.655 364.769 624.837C364.03 624.019 359.237 620.256 359.237 620.256L355.17 613.515L353.848 608.823L354.679 603.579L355.917 598.136L354.438 593.453L323 604.652L328.094 610.629L328.941 615.787L329.608 620.588C329.608 620.588 338.085 625.01 338.974 625.457C339.864 625.904 352.421 631.595 353.31 631.939C354.2 632.283 360.011 632.947 360.011 632.947L364.21 631.431L369.634 634.53L372.165 637.597C372.165 637.597 377.893 639.331 379.265 639.993C380.637 640.655 387.057 641.507 387.057 641.507L393.239 648.76L393.215 651.873L396.279 653.353L398.34 653.939L400.37 656.747L403.434 657.777L406.826 658.847L409.378 660.801L411.782 660.439L411.109 658.374L413.432 655.931L416.606 656.189L422.094 663.891Z" fill="#03599C" fill-opacity="0.1"/>
<path d="M354.438 593.456L356.724 589.694L362.801 587.367L367.471 584.142C367.471 584.142 374.265 584.873 374.573 585.033C374.881 585.193 379.594 586.09 380.039 586.292C380.484 586.494 382.376 586.408 382.376 586.408L379.269 582.492C379.269 582.492 382.145 582.208 382.791 582.223C383.437 582.237 390.153 582.097 390.153 582.097L394.222 583.692L395.465 584.823L399.523 583.787C399.523 583.787 402.939 587.062 403.142 587.413C403.345 587.765 403.14 592.056 403.14 592.056L405.93 596.227L406.81 598.139L408.305 598.845L409.11 600.265C409.11 600.265 410.237 601.261 410.436 601.063C410.634 600.865 412.281 597.815 412.281 597.815L409.831 588.904L407.79 579.13L421.864 566.698L426.433 560.567L424.247 556.2L425.129 548.888L426.015 553.834L428.899 552.479L432.629 544.708L442.101 539.81L443.354 533.025L454.273 527.191L464.906 524.696L457.748 531.861L472.95 525.809L480.32 524.02L463.401 519.456L460.034 508.542L461.796 504.774L482.977 500.055L491.32 497.325L471.396 475.562L462.983 458.806L455.084 467.345L447.046 465.819L445.647 458.361L440.108 452.356L420.186 447.295L418.928 464.119L416.207 468.401L422.031 469.878L423.216 478.875L414.283 483.753L416.719 496.513L407.521 495.406L404.245 485.745L398.562 481.905L370.967 471.501L363.815 462.714C363.815 462.714 367.649 450.031 368.83 449.585C370.011 449.139 379.161 441.395 379.161 441.395L387.712 436.005L390.957 426.195L402.106 426.415L406.904 419.92L404.173 415.423L407.196 410.916L396.124 407.376L393.839 413.795L389.635 421.545L385.651 412.913L378.272 410.624L371.265 407.228L365.36 394.536L371.557 389.889L378.048 383.246L363.292 381.254L361.523 391.219L357.463 401.986L366.984 411.876L361.299 420.362L345.069 418.889L324.699 413.063C324.699 413.063 312.967 417.044 310.312 418.222C307.657 419.4 280.425 409.665 280.425 409.665L262.936 409.372L253.788 402.504L234.974 410.256L167.745 401.473L145.586 402.565L135.905 410.476L128.107 413.214L133.472 418.518L141.103 423.613L146.646 425.643L136.861 428.261L127.607 428.893L123.984 431.953L127.83 434.943L141.924 436.714L146.646 435.902L146.75 440.839L133.77 445.644L129.702 452.501L135.5 459.768L141.444 458.366L145.39 466.012L159.589 465.785L133.109 483.657L134.986 485.957L170.884 466.899L173.463 460.286C173.463 460.286 178.456 463.579 179.04 463.428C179.624 463.277 188.373 458.407 188.373 458.407L189.772 454.166C189.772 454.166 207.589 459.295 211.169 460.327C214.75 461.359 232.686 473.059 232.686 473.059L252.274 492.277L267.736 520.974L267.289 546.069C267.289 546.069 276.173 561.568 277.213 563.335C278.253 565.102 288.287 570.82 288.287 570.82L294.293 582.158C294.293 582.158 300.675 594.181 303.188 595.622C305.7 597.063 314.738 608.536 314.738 608.536L306.73 593.046L300.049 584.391L300.311 578.175L323 604.663L354.438 593.456Z" fill="#03599C" fill-opacity="0.1"/>
<path d="M452.993 368.203C452.993 368.203 468.57 366.01 470.081 366.204C471.592 366.398 484.761 372.875 484.761 372.875C484.761 372.875 496.806 388.926 496.806 391.304C496.806 393.682 500.744 423.059 500.744 423.059L513.115 448.12L526.078 456.377L533.494 457.789L543.119 434.85L557.681 428.402L570.604 417.968L599.602 405.381L609.209 382.593L605.886 363.569L607.034 350.508L624.462 333.793L635.819 327.835L615.775 328.425L604.707 329.846L603.735 320.802L582.192 312.414L550.458 312.831L516.473 315.563L470.337 330.682L452.991 339.046L439.395 351.456L452.993 368.203Z" fill="#03599C" fill-opacity="0.1"/>
<path d="M267.952 378.668L263.301 391.951L272.713 399.813L280.795 393.606L289.652 403.019L294.469 410.826C294.469 410.826 304.619 410.954 309.367 410.826C314.115 410.698 328.957 408.287 330.734 408.224C332.511 408.161 345.776 407.45 345.776 407.45L333.145 399.77L329.215 391.511L329.499 383.04L320.031 386.587L321.532 395.772L313.008 389.684L300.055 385.858L289.756 380.438L275.921 378.89L267.952 378.668Z" fill="#03599C" fill-opacity="0.1"/>
<path d="M272.828 365.885C275.264 365.551 284.278 370.318 286.88 371.367C289.482 372.416 305.868 374.244 305.868 374.244L321.473 375.294L323.001 365.868L308.804 363.84L309.627 354.211L299.78 354.479L285.221 359.241L272.828 365.885Z" fill="#03599C" fill-opacity="0.1"/>
<path d="M326.914 358.078C330.827 358.52 340.677 371.08 342.614 371.803C344.551 372.526 360.929 372.082 360.929 372.082L350.636 364.383L337.554 361.565L326.914 358.078Z" fill="#03599C" fill-opacity="0.1"/>
<path d="M338.355 388.079C339.849 387.522 348.311 396.543 348.311 396.543L356.173 394.774L361.523 391.214L353.188 381.156L338.355 388.079Z" fill="#03599C" fill-opacity="0.1"/>
<path d="M326.867 342.469L327.677 353.23L349.2 356.475L342.392 347.616L326.867 342.469Z" fill="#03599C" fill-opacity="0.1"/>
<path d="M358.168 364.5L367.353 366.989L373.493 376.845L408.195 378.611L413.728 373.633L397.677 370.476L385.283 371.747L374.711 363.84L361.376 359.133L358.168 364.5Z" fill="#03599C" fill-opacity="0.1"/>
<path d="M359.66 335.335C359.66 335.335 403.749 320.984 404.912 320.352C406.075 319.72 428.487 316.488 428.487 316.488L452.696 317.384L469.516 320.891L474.382 322.44L436.393 342.698L424.698 355.397L416.571 359.629L417.284 365.717L392.429 366.286L383.73 365.302L380.556 362.722L386.01 357.947L380.556 355.428L375.929 353.982L360.544 343.136L358.219 337.88L359.66 335.335Z" fill="#03599C" fill-opacity="0.1"/>
<path d="M352.074 349.887L355.23 355.313L361.762 355.473L362.974 352.157L356.723 349.939L352.074 349.887Z" fill="#03599C" fill-opacity="0.1"/>
<path d="M385.948 382.758L379.855 392.063L382.186 402.651C382.186 402.651 396.37 405.707 397.215 405.56C398.061 405.413 417.482 404.727 418.632 405.274C419.782 405.822 430.037 415.172 431.871 416.676C433.705 418.181 438.238 421.989 438.238 421.989C438.238 421.989 431.049 428.49 430.837 429.532C430.626 430.574 427.868 434.491 427.868 434.491L419.032 432.478L418.376 436.41L425.277 437.996L431.367 436.851L437.569 440.989L452.1 449.18L457.379 450.356L453.908 445.416L448.965 441.026L450.925 441.052L456.53 444.013L461.328 446.003L460.479 436.487L454.426 431.949L452.791 427.628L454.648 425.934L461.621 432.388L466.013 434.528L473.981 425.826L461.433 418.219L455.01 415.789L450.409 413.758L452.657 411.138L454.101 407.591L441.07 398.445L433.982 398.112L430.555 393.282L424.738 389.256L418.002 384.28L409.383 383.322L397.85 385.102L391.294 383.322L385.948 382.758Z" fill="#03599C" fill-opacity="0.1"/>
<path d="M391.625 429.727L391.146 437.448L388.93 440.454L392.344 441.051L395.734 439.457L393.911 443.2H397.243C397.243 443.2 400.813 438.375 401.773 439.217C402.732 440.059 408.528 442.536 408.528 442.536L412.328 441.051L406.206 437.445L401.554 434.34L398.228 433.344L391.625 429.727Z" fill="#03599C" fill-opacity="0.1"/>
<path d="M420.504 419.078L425.628 421.892L428.476 419.622L426.381 416.027L420.885 416.463L420.504 419.078Z" fill="#03599C" fill-opacity="0.1"/>
<path d="M399.453 447.542L404.403 444.109L406.207 446.948L402.077 450.097L399.453 447.542Z" fill="#03599C" fill-opacity="0.1"/>
<path d="M348.148 411.763L358.492 415.358L361.599 413.758L359.159 409.936L361.652 409.108L359.677 407.742L356.225 408.778L352.906 407.34L348.148 411.763Z" fill="#03599C" fill-opacity="0.1"/>
<path d="M481.431 513.555L487.187 502.491L492.28 499.836L491.192 502.372L489.551 506.031C489.551 506.031 499.74 511.344 500.033 511.935C500.326 512.525 501.508 517.321 501.508 517.321L499.731 519.61L491.912 517.842L486.307 515.775L480.328 515.55L481.431 513.555Z" fill="#03599C" fill-opacity="0.1"/>
<path d="M399.231 610.96L408.604 611.551L417.45 615.164L426.092 618.852L431.106 618.19L426.9 614.945L418.195 611.254L410.521 608.081L402.547 607.938H397.445L399.231 610.96Z" fill="#03599C" fill-opacity="0.1"/>
<path d="M420.184 626.455L424.613 625.574L423.04 623.633L417.824 624.32L420.184 626.455Z" fill="#03599C" fill-opacity="0.1"/>
<path d="M432.727 624.907C433.69 624.839 440.699 626.306 440.699 626.306L441.736 624.172L448.52 623.507L449.561 621.305L444.091 619.372L436.125 618.117L434.356 618.784L436.416 622.469L431.641 622.223L432.727 624.907Z" fill="#03599C" fill-opacity="0.1"/>
<path d="M597.926 431.408L609.043 441.923C609.043 441.923 612.476 443.496 613.554 443.635C614.632 443.775 622.375 440.788 622.375 440.788L631.813 435.173L627.918 429.384L622.628 426.895L613.793 429.191L607.742 432.07L604.204 428.01L600.661 427.056L597.926 431.408Z" fill="#03599C" fill-opacity="0.1"/>
<path d="M646.981 487.844L643.184 488.028L643.63 491.566L646.429 492.637L642.965 497.138L645.509 499.799L649.751 498.353L652.299 496.549L654.919 496.438L655.565 488.809L658.353 487.103L655.543 483.277L651.669 482.898L648.344 484.013L646.981 487.844Z" fill="#03599C" fill-opacity="0.1"/>
<path d="M660.095 467.262L656.336 476.233C656.336 476.233 658.932 480.855 659.805 481.7C660.678 482.545 664.498 485.836 664.498 485.836L666.235 489.656L662.393 492.806L659.794 497.952L665.909 499.799L659.153 505.096L680.873 501.553V498.353L682.704 495.28L677.723 492.34L672.356 485.478L667.348 479.421L670.412 472.361L663.915 470.591L665.522 467.712L660.095 467.262Z" fill="#03599C" fill-opacity="0.1"/>
<path d="M702.887 544.897C703.131 545.5 704.261 550.951 704.261 550.951L708.37 551.14V542.168L702.887 544.897Z" fill="#03599C" fill-opacity="0.1"/>
<path d="M858.558 391.234L873.541 377.171L901.356 366.317L900.325 362.852L886.821 366.767L869.551 369.864L853.467 385.064L844.613 396.205L856.789 403.588L865.101 402.813L858.299 396.015L858.558 391.234Z" fill="#03599C" fill-opacity="0.1"/>
<path d="M732.13 364.557C732.85 363.028 739.541 352.429 739.541 352.429L748.537 360.12L757.614 357.134L746.71 350.656L740.46 347.063L735.584 340.809L724.854 342.371L712.23 343.35C712.23 343.35 713.73 350.737 714.42 351.129C715.11 351.521 722.75 357.383 722.75 357.383L732.13 364.557Z" fill="#03599C" fill-opacity="0.1"/>
<path d="M743.943 343.524L754.07 347.173L761.487 344.465L765.301 340.756L756.063 337.766L743.943 337.422H734.699L743.943 343.524Z" fill="#03599C" fill-opacity="0.1"/>
<path d="M1096.21 679.803L1096.71 683.525L1097.08 686.544L1097.9 688.637L1099.35 689.119L1098.49 686.095V684.461L1100.67 685.762L1101.75 685.296L1100.8 684.461L1099.99 683.235L1101.09 681.727V680.696L1099.53 681.082L1097.9 682.124V679.675V678.08L1095.89 677.379L1096.21 679.803Z" fill="#03599C" fill-opacity="0.1"/>
<path d="M1098.44 696.953L1103.6 697.486L1107.19 699.372L1107.83 698.348L1106.8 696.723L1103.6 695.441H1098.49L1097.32 696.398L1098.44 696.953Z" fill="#03599C" fill-opacity="0.1"/>
<path d="M1057.03 713.098L1056.59 714.875L1058.14 715.208C1058.14 715.208 1058.8 714.544 1058.88 714.39C1058.97 714.236 1059.29 713.098 1059.29 713.098L1058.45 712.859L1057.03 713.098Z" fill="#03599C" fill-opacity="0.1"/>
<path d="M1059.77 713.536C1059.89 713.507 1061.07 713.414 1061.07 713.414L1062.59 714.316L1061.72 715.806L1060.58 716.224L1059.63 715.648L1058.89 714.392L1059.77 713.536Z" fill="#03599C" fill-opacity="0.1"/>
<path d="M1062 712.763L1063.51 713.416L1064.13 714.613L1065.02 715.179L1066.35 714.905L1066.8 714.037V713.101L1065.39 712.975H1064.36L1063.49 712.506L1062.59 712.336L1062 712.763Z" fill="#03599C" fill-opacity="0.1"/>
<path d="M1066.3 716.895C1066.32 717.08 1066.79 718.435 1066.79 718.435H1067.99L1069.83 719.087L1071.34 719.612L1072.75 719.037L1071.88 717.933L1071.08 716.895L1069.97 716.529L1068.33 716.473L1066.3 716.895Z" fill="#03599C" fill-opacity="0.1"/>
<path d="M1068.64 713.87L1070.43 714.875C1070.43 714.875 1072.1 714.904 1072.21 715.035C1072.32 715.166 1073.86 715.181 1073.96 715.035C1074.06 714.889 1076.48 714.691 1076.48 714.691L1076.96 713.419L1075.74 713.684L1074.75 713.871L1074.02 713.684L1073.67 713.098L1072.25 712.859L1070.7 712.989L1068.64 713.87Z" fill="#03599C" fill-opacity="0.1"/>
<path d="M1078.56 712.975L1077.88 714.037L1078.22 714.393L1079.39 713.684L1080.07 713.874L1080.33 712.975L1079.75 712.336L1078.56 712.975Z" fill="#03599C" fill-opacity="0.1"/>
<path d="M1081.22 713.233H1083.44L1084.46 712.506L1086.09 712.336L1086.72 712.843L1085.95 713.757H1084.83L1083.24 714.002L1081.45 713.874L1081.22 713.233Z" fill="#03599C" fill-opacity="0.1"/>
<path d="M1089.77 710.687L1089.09 711.826L1091.2 711.88L1092.69 711.544L1092.51 710.477L1089.77 710.687Z" fill="#03599C" fill-opacity="0.1"/>
<path d="M1091.43 697.006L1092.34 698.421L1094.14 698.856L1095.89 698.38L1095.3 696.644L1093.23 696.133L1091.43 697.006Z" fill="#03599C" fill-opacity="0.1"/>
<path d="M1080.7 689.5L1080.09 691.136L1081.81 690.978L1082.56 690.318V689.5H1080.7Z" fill="#03599C" fill-opacity="0.1"/>
<path d="M1071.68 625.435L1074.44 622.785L1077.1 627.978L1074.56 634.456L1076 639.438L1072.18 639.824L1070.25 637.055L1069.13 631.965L1071.05 631.304L1072.8 628.071L1071.68 625.435Z" fill="#03599C" fill-opacity="0.1"/>
<path d="M1076.27 664.508L1078.88 660.414L1083.2 660.359L1083.08 664.893L1087.01 667.55L1088.28 662.785L1091.55 662.126L1089.61 653.66L1082.7 658.916C1082.7 658.916 1080.49 658.003 1079.74 657.971C1078.99 657.939 1075.52 660.716 1075.52 660.716L1076.27 664.508Z" fill="#03599C" fill-opacity="0.1"/>
<path d="M1061.98 657.249C1062.99 656.702 1066.5 652.874 1066.5 652.874L1068.45 651.393L1068.23 648.812L1065.95 651.243L1062 654.602L1059.29 657.973L1061.98 657.249Z" fill="#03599C" fill-opacity="0.1"/>
<path d="M1076.11 644.027L1076.67 647.842L1076 651.001L1078.49 650.118L1080.37 647.899L1076.11 644.027Z" fill="#03599C" fill-opacity="0.1"/>
<path d="M1083.91 644.362L1085.3 646.964L1084.19 648.734L1085.02 650.173L1085.85 652.827L1088.17 651.335L1086.73 649.178L1088.17 647.844L1088.12 645.47L1087.09 642.812L1083.91 644.362Z" fill="#03599C" fill-opacity="0.1"/>
<path d="M1078.81 653.662L1080.09 651.005L1082.37 649.512L1083.41 652.391L1080.98 654.157L1078.81 653.662Z" fill="#03599C" fill-opacity="0.1"/>
<path d="M1078.1 641.594L1080.37 644.31L1081.26 646.13H1082.86L1082.64 642.206H1084.12L1084.47 639.657H1081.7L1077.94 639.273L1078.1 641.594Z" fill="#03599C" fill-opacity="0.1"/>
<path d="M1070.9 641.148L1072.67 646.128L1074.56 644.909L1074.23 641.868L1070.9 641.148Z" fill="#03599C" fill-opacity="0.1"/>
<path d="M1224.88 849.424L1238.28 837.286L1244.01 827.977L1250.65 830.026L1244.63 840.666L1239.77 845.546L1235.8 851.018L1229.1 851.662L1224.88 849.424Z" fill="#03599C" fill-opacity="0.1"/>
<path d="M1245.27 804.805L1251.65 813.935L1249.31 823.385L1253.3 826.624V830.944L1255.82 831.518L1259.94 825.571L1259.93 822.763L1262.44 821.581L1264.79 818.183L1265.05 815.894L1262.96 815.577L1261.05 817.005L1258.99 818.162L1255.98 815.26L1254.89 812.743L1251.8 807.172L1247.89 805.427L1245.27 804.805Z" fill="#03599C" fill-opacity="0.1"/>
<path d="M1117.37 705.398L1119.77 703.477L1120.55 706.631L1118.99 709.128L1117.37 705.398Z" fill="#03599C" fill-opacity="0.1"/>
<path d="M1070.63 606.293L1073.29 601.916L1075.5 601.195L1075.39 605.179L1074.56 608.497L1072.79 612.261L1069.96 609.094L1070.63 606.293Z" fill="#03599C" fill-opacity="0.1"/>
<path d="M937.692 655.949C937.331 656.054 937.692 664.599 937.692 664.599C937.692 664.599 941.083 666.549 941.26 666.533C941.437 666.517 944.327 663.092 944.327 663.092C944.327 663.092 944.113 660.046 944.033 659.86C943.953 659.674 942.025 655.577 942.025 655.577L938.802 653.188L937.692 655.949Z" fill="#03599C" fill-opacity="0.1"/>
<path d="M906.607 609.172L902.508 611.542C902.508 611.542 905.086 614.229 905.347 614.639C905.607 615.049 908.96 616.701 908.96 616.701L912.488 614.974L913.427 611.471L906.607 609.172Z" fill="#03599C" fill-opacity="0.1"/>
<g opacity="0.994221">
<path d="M697.287 513.004C698.731 513.004 699.903 514.176 699.903 515.619C699.903 517.063 698.731 518.235 697.287 518.235C695.844 518.235 694.672 517.063 694.672 515.619C694.672 514.176 695.844 513.004 697.287 513.004Z" fill="#03599C"/>
</g>
<path d="M697.285 508.117C701.424 508.117 704.785 511.478 704.785 515.617C704.785 519.756 701.424 523.117 697.285 523.117C693.146 523.117 689.785 519.756 689.785 515.617C689.785 511.478 693.146 508.117 697.285 508.117Z" fill="#03599C"/>
<g opacity="0.994221">
<path d="M479.311 705.004C480.754 705.004 481.926 706.176 481.926 707.619C481.926 709.063 480.754 710.235 479.311 710.235C477.867 710.235 476.695 709.063 476.695 707.619C476.695 706.176 477.867 705.004 479.311 705.004Z" fill="#03599C"/>
</g>
<path d="M479.313 700.117C483.452 700.117 486.813 703.478 486.813 707.617C486.813 711.756 483.452 715.117 479.313 715.117C475.173 715.117 471.812 711.756 471.812 707.617C471.812 703.478 475.173 700.117 479.313 700.117Z" fill="#03599C"/>
<g opacity="0.994221">
<path d="M1116.73 766.168C1118.17 766.168 1119.34 767.34 1119.34 768.784C1119.34 770.227 1118.17 771.399 1116.73 771.399C1115.29 771.399 1114.11 770.227 1114.11 768.784C1114.11 767.34 1115.29 766.168 1116.73 766.168Z" fill="#03599C"/>
</g>
<path d="M1116.73 761.281C1120.87 761.281 1124.23 764.642 1124.23 768.781C1124.23 772.921 1120.87 776.281 1116.73 776.281C1112.59 776.281 1109.23 772.921 1109.23 768.781C1109.23 764.642 1112.59 761.281 1116.73 761.281Z" fill="#03599C"/>
<g opacity="0.994221">
<path d="M347.799 538.273C349.243 538.273 350.415 539.445 350.415 540.889C350.415 542.333 349.243 543.505 347.799 543.505C346.356 543.505 345.184 542.333 345.184 540.889C345.184 539.445 346.356 538.273 347.799 538.273Z" fill="#03599C"/>
</g>
<path d="M347.801 533.387C351.94 533.387 355.301 536.747 355.301 540.887C355.301 545.026 351.94 548.387 347.801 548.387C343.662 548.387 340.301 545.026 340.301 540.887C340.301 536.747 343.662 533.387 347.801 533.387Z" fill="#03599C"/>
<g opacity="0.994221">
<path d="M738.799 645.93C740.243 645.93 741.415 647.102 741.415 648.545C741.415 649.989 740.243 651.161 738.799 651.161C737.356 651.161 736.184 649.989 736.184 648.545C736.184 647.102 737.356 645.93 738.799 645.93Z" fill="#03599C"/>
</g>
<path d="M738.797 641.047C742.936 641.047 746.297 644.408 746.297 648.547C746.297 652.686 742.936 656.047 738.797 656.047C734.658 656.047 731.297 652.686 731.297 648.547C731.297 644.408 734.658 641.047 738.797 641.047Z" fill="#03599C"/>
<g opacity="0.994221">
<path d="M948.682 539.707C950.126 539.707 951.298 540.879 951.298 542.323C951.298 543.766 950.126 544.938 948.682 544.938C947.238 544.938 946.066 543.766 946.066 542.323C946.066 540.879 947.238 539.707 948.682 539.707Z" fill="#03599C"/>
</g>
<path d="M948.68 534.824C952.819 534.824 956.18 538.185 956.18 542.324C956.18 546.463 952.819 549.824 948.68 549.824C944.54 549.824 941.18 546.463 941.18 542.324C941.18 538.185 944.54 534.824 948.68 534.824Z" fill="#03599C"/>
</g>
</g>
<defs>
<linearGradient id="paint0_linear_3609_31023" x1="1.70387e-05" y1="438.095" x2="1097.02" y2="476.075" gradientUnits="userSpaceOnUse">
<stop stop-color="#FFCC00"/>
<stop offset="1" stop-color="#03599C"/>
</linearGradient>
<clipPath id="clip0_3609_31023">
<rect width="1280" height="800" fill="white" transform="translate(80 200)"/>
</clipPath>
</defs>
</svg>
