<svg width="767" height="140" viewBox="0 0 767 140" fill="none" xmlns="http://www.w3.org/2000/svg">
<path d="M35.6758 53C32.7508 51.375 32.4258 47.15 32.4258 44.16V33.63C35.4808 26.48 46.2708 6.07 51.2758 3.795H31.2558C35.4158 5.29 37.5608 8.28 37.5608 12.7C37.5608 18.615 34.1158 25.635 31.6458 31.55L22.9358 12.05C22.4158 10.88 21.9608 9.32 21.9608 8.02C21.9608 6.135 22.8708 4.77 24.4958 3.795H5.90576C10.0008 6.07 19.9458 26.805 22.9358 33.695V44.16C22.9358 47.085 22.4158 51.375 19.6208 53H35.6758ZM57.7661 21.085C48.7311 21.085 42.0361 28.56 42.0361 37.4C42.0361 46.305 48.7311 53.65 57.7661 53.65C66.8011 53.65 73.4311 46.24 73.4311 37.4C73.4311 28.56 66.8011 21.085 57.7661 21.085ZM59.8461 51.895C53.3461 51.895 51.1361 36.425 51.1361 31.81C51.1361 29.405 51.4611 22.97 55.0361 22.97C61.9911 22.97 64.2011 37.4 64.2011 42.405C64.2011 45.07 63.7461 51.895 59.8461 51.895ZM73.9526 21.605C76.8126 23.23 77.2676 27.455 77.2676 30.445V43.185C77.2676 48.58 80.1276 53.52 85.9776 53.52C86.7576 53.52 94.9476 48.645 95.5326 47.8C95.8576 49.555 96.5076 51.375 96.8976 53H108.533C105.868 49.685 104.893 47.02 104.893 42.795V21.605H92.1526C95.0776 23.23 95.4026 27.455 95.4026 30.445V39.675C95.4026 41.235 95.2726 42.925 95.2726 44.615C94.7526 46.76 93.3226 48.71 90.8526 48.71C87.6676 48.71 86.7576 45.59 86.7576 42.925V21.605H73.9526ZM121.677 28.755V21.605C116.412 24.66 114.592 25.44 108.547 26.415C110.822 29.145 112.187 31.225 112.187 34.93V44.16C112.187 47.085 111.667 51.375 108.872 53H124.927C122.067 51.375 121.677 47.15 121.677 44.16V32.33C121.677 30.445 123.627 28.82 125.382 28.82C127.657 28.82 129.347 30.575 129.347 32.785C129.347 33.37 129.217 33.89 129.087 34.41C133.377 34.41 136.887 31.615 136.887 27.195C136.887 23.815 134.677 21.085 131.167 21.085C126.747 21.085 123.367 25.05 121.677 28.755ZM180.808 27.78C179.768 24.01 177.038 21.085 172.553 21.085C171.838 21.085 164.298 25.505 163.128 26.675V21.605C157.863 24.66 156.043 25.44 149.998 26.415C152.273 29.145 153.638 31.225 153.638 34.93V44.16C153.638 47.085 153.118 51.375 150.323 53H166.378C163.453 51.375 163.128 47.15 163.128 44.16V30.51C163.583 28.105 165.013 25.895 167.678 25.895C170.863 25.895 171.773 29.015 171.773 31.68V44.16C171.773 47.085 171.318 51.375 168.523 53H184.578C181.718 51.375 181.263 47.15 181.263 44.16V31.68C181.393 28.95 182.823 25.895 185.943 25.895C189.128 25.895 190.038 29.015 190.038 31.68V44.16C190.038 47.085 189.583 51.375 186.788 53H202.843C199.983 51.375 199.528 47.15 199.528 44.16V31.42C199.528 26.025 196.668 21.085 190.818 21.085C190.038 21.085 181.328 26.415 180.743 27.325L180.808 27.78ZM201.604 21.605C204.464 23.23 204.919 27.455 204.919 30.445V43.185C204.919 48.58 207.779 53.52 213.629 53.52C214.409 53.52 222.599 48.645 223.184 47.8C223.509 49.555 224.159 51.375 224.549 53H236.184C233.519 49.685 232.544 47.02 232.544 42.795V21.605H219.804C222.729 23.23 223.054 27.455 223.054 30.445V39.675C223.054 41.235 222.924 42.925 222.924 44.615C222.404 46.76 220.974 48.71 218.504 48.71C215.319 48.71 214.409 45.59 214.409 42.925V21.605H201.604ZM249.329 6.915C244.064 9.97 242.244 10.75 236.199 11.725C238.474 14.455 239.839 16.535 239.839 20.24V44.16C239.839 47.15 239.384 51.375 236.524 53H252.644C249.719 51.375 249.329 47.15 249.329 44.16V6.915ZM265.639 13.48H264.664C262.519 19.395 259.074 21.605 252.964 22.19V23.165H256.149V44.875C256.149 49.62 258.294 53.65 263.494 53.65C267.069 53.65 270.709 51.895 273.309 49.49V48.84C272.269 49.425 271.034 49.685 269.864 49.685C267.654 49.685 265.639 48.71 265.639 46.175V23.165H272.399V21.605H265.639V13.48ZM293.67 58.59C293.67 61.58 293.215 65.74 290.355 67.43H306.41C303.55 65.74 303.16 61.58 303.16 58.59V52.48C305.11 53.195 306.67 53.585 309.595 53.585C319.02 53.585 324.415 45.46 324.415 36.685C324.415 28.3 319.475 20.89 310.44 20.89C308.295 20.89 305.37 23.75 303.16 26.285V21.605C304.005 20.24 304.395 18.615 304.395 16.99C304.395 9.385 297.44 5.875 290.68 5.875C285.025 5.875 276.705 8.475 276.705 15.365C276.705 17.965 278.85 20.11 281.45 20.11C284.05 20.11 286.195 17.965 286.195 15.365C286.195 12.765 284.05 10.62 281.45 10.62C283.4 8.28 286.78 7.37 289.77 7.37C295.165 7.37 300.625 10.75 300.625 16.6C300.625 22.45 295.1 25.57 290.03 26.415C292.24 29.145 293.67 31.225 293.67 34.865V58.59ZM290.03 53C287.105 51.375 286.78 47.15 286.78 44.16V21.605C281.515 24.66 279.695 25.44 273.65 26.415C275.925 29.145 277.29 31.225 277.29 34.93V44.16C277.29 47.085 276.77 51.375 273.975 53H290.03ZM303.16 27.065C303.55 26.805 304.005 26.61 304.33 26.61C312 26.61 315.445 34.15 315.445 40.845C315.445 45.135 313.755 51.96 308.36 51.96C304.005 51.96 303.16 46.89 303.16 43.51V27.065ZM324.939 21.605C327.799 23.23 328.254 27.455 328.254 30.445V43.185C328.254 48.58 331.114 53.52 336.964 53.52C337.744 53.52 345.934 48.645 346.519 47.8C346.844 49.555 347.494 51.375 347.884 53H359.519C356.854 49.685 355.879 47.02 355.879 42.795V21.605H343.139C346.064 23.23 346.389 27.455 346.389 30.445V39.675C346.389 41.235 346.259 42.925 346.259 44.615C345.739 46.76 344.309 48.71 341.839 48.71C338.654 48.71 337.744 45.59 337.744 42.925V21.605H324.939ZM372.664 28.755V21.605C367.399 24.66 365.579 25.44 359.534 26.415C361.809 29.145 363.174 31.225 363.174 34.93V44.16C363.174 47.085 362.654 51.375 359.859 53H375.914C373.054 51.375 372.664 47.15 372.664 44.16V32.33C372.664 30.445 374.614 28.82 376.369 28.82C378.644 28.82 380.334 30.575 380.334 32.785C380.334 33.37 380.204 33.89 380.074 34.41C384.364 34.41 387.874 31.615 387.874 27.195C387.874 23.815 385.664 21.085 382.154 21.085C377.734 21.085 374.354 25.05 372.664 28.755ZM393.135 58.59C393.135 61.58 392.68 65.74 389.82 67.43H405.875C403.015 65.74 402.625 61.58 402.625 58.59V52.48C404.575 53.195 406.135 53.585 409.06 53.585C418.485 53.585 423.88 45.46 423.88 36.685C423.88 28.3 418.94 20.89 409.905 20.89C407.76 20.89 404.835 23.75 402.625 26.285V21.605C397.36 24.595 395.54 25.375 389.495 26.35C391.77 29.08 393.135 31.16 393.135 34.865V58.59ZM402.625 27.065C403.015 26.805 403.47 26.61 403.795 26.61C411.465 26.61 414.91 34.15 414.91 40.845C414.91 45.135 413.22 51.96 407.825 51.96C403.47 51.96 402.625 46.89 402.625 43.51V27.065ZM441.926 21.085C432.891 21.085 426.196 28.56 426.196 37.4C426.196 46.305 432.891 53.65 441.926 53.65C450.961 53.65 457.591 46.24 457.591 37.4C457.591 28.56 450.961 21.085 441.926 21.085ZM444.006 51.895C437.506 51.895 435.296 36.425 435.296 31.81C435.296 29.405 435.621 22.97 439.196 22.97C446.151 22.97 448.361 37.4 448.361 42.405C448.361 45.07 447.906 51.895 444.006 51.895ZM470.348 53.65C476.003 53.65 484.713 51.635 484.713 44.485C484.713 33.76 466.838 34.02 466.838 27.455C466.838 24.595 468.983 22.645 471.843 22.645C474.248 22.645 476.653 24.205 476.653 26.805C476.653 28.17 475.808 29.21 474.378 29.21C475.158 31.745 477.043 33.565 479.773 33.565C482.438 33.565 484.063 31.875 484.063 29.21C484.063 23.23 476.978 21.085 472.103 21.085C466.643 21.085 459.168 23.815 459.168 30.315C459.168 41.3 476.198 40.78 476.198 47.475C476.198 50.725 473.143 52.09 470.348 52.09C468.008 52.09 465.278 50.725 465.278 48.06C465.278 46.5 466.383 45.33 467.943 45.33C467.423 42.73 465.473 40.065 462.548 40.065C459.493 40.065 457.868 42.47 457.868 45.33C457.868 51.44 465.473 53.65 470.348 53.65ZM515.351 36.295V34.735C515.351 26.35 509.956 21.085 501.571 21.085C492.341 21.085 486.816 28.95 486.816 37.595C486.816 46.565 493.316 53.65 502.416 53.65C508.851 53.65 512.491 50.855 515.481 45.46L514.961 45.07C513.596 46.435 509.566 46.89 507.746 46.89C501.441 46.89 497.931 42.47 496.696 37.075L515.351 36.295ZM506.641 29.535C506.641 32.72 504.496 34.28 501.571 34.735C499.816 34.995 498.126 35.255 496.371 35.45C496.241 34.475 496.176 33.5 496.176 32.525C496.176 29.86 497.151 22.645 500.921 22.645C504.236 22.645 506.641 26.545 506.641 29.535Z" fill="#1E2C31"/>
<path d="M551.834 4.705C555.864 4.705 559.244 7.305 559.244 11.53C559.244 12.375 559.049 14.13 557.814 14.195C558.724 17.185 560.739 19.85 564.119 19.85C567.174 19.85 568.994 17.64 568.994 14.715C568.994 6.785 559.894 3.08 553.264 3.08C538.899 3.08 529.929 15.495 529.929 29.015C529.929 42.6 538.509 53.65 552.679 53.65C561.779 53.65 567.954 49.165 569.904 40.26L569.384 39.87C566.264 43.25 561.974 44.615 557.489 44.615C545.204 44.615 538.704 34.865 538.704 23.425C538.704 15.625 542.474 4.705 551.834 4.705ZM570.276 21.605C573.136 23.23 573.591 27.455 573.591 30.445V43.185C573.591 48.58 576.451 53.52 582.301 53.52C583.081 53.52 591.271 48.645 591.856 47.8C592.181 49.555 592.831 51.375 593.221 53H604.856C602.191 49.685 601.216 47.02 601.216 42.795V21.605H588.476C591.401 23.23 591.726 27.455 591.726 30.445V39.675C591.726 41.235 591.596 42.925 591.596 44.615C591.076 46.76 589.646 48.71 587.176 48.71C583.991 48.71 583.081 45.59 583.081 42.925V21.605H570.276ZM618.001 28.755V21.605C612.736 24.66 610.916 25.44 604.871 26.415C607.146 29.145 608.511 31.225 608.511 34.93V44.16C608.511 47.085 607.991 51.375 605.196 53H621.251C618.391 51.375 618.001 47.15 618.001 44.16V32.33C618.001 30.445 619.951 28.82 621.706 28.82C623.981 28.82 625.671 30.575 625.671 32.785C625.671 33.37 625.541 33.89 625.411 34.41C629.701 34.41 633.211 31.615 633.211 27.195C633.211 23.815 631.001 21.085 627.491 21.085C623.071 21.085 619.691 25.05 618.001 28.755ZM652.897 21.605C656.797 23.035 658.552 26.025 658.552 30.12C658.552 35.385 655.887 41.235 653.937 46.11C652.247 42.08 647.047 30.38 647.047 26.675C647.047 24.465 648.087 22.32 650.232 21.605H632.292C636.257 23.36 639.832 34.215 641.457 38.245L647.372 53H652.897L658.747 38.375C660.372 34.28 664.012 23.36 667.977 21.605H652.897ZM693.784 36.295V34.735C693.784 26.35 688.389 21.085 680.004 21.085C670.774 21.085 665.249 28.95 665.249 37.595C665.249 46.565 671.749 53.65 680.849 53.65C687.284 53.65 690.924 50.855 693.914 45.46L693.394 45.07C692.029 46.435 687.999 46.89 686.179 46.89C679.874 46.89 676.364 42.47 675.129 37.075L693.784 36.295ZM685.074 29.535C685.074 32.72 682.929 34.28 680.004 34.735C678.249 34.995 676.559 35.255 674.804 35.45C674.674 34.475 674.609 33.5 674.609 32.525C674.609 29.86 675.584 22.645 679.354 22.645C682.669 22.645 685.074 26.545 685.074 29.535ZM725.828 6.98C720.563 9.97 718.743 10.75 712.698 11.725C714.973 14.455 716.338 16.535 716.338 20.24V23.165C715.233 22.645 711.073 20.89 709.903 20.89C700.478 20.89 695.083 29.015 695.083 37.79C695.083 46.175 700.023 53.585 709.058 53.585C712.828 53.585 714.908 52.415 716.338 50.335V53H729.078C726.153 51.375 725.828 47.15 725.828 44.16V6.98ZM716.338 46.825C716.013 46.825 715.623 46.825 715.168 46.825C707.628 46.825 704.053 39.87 704.053 33.175C704.053 28.885 705.873 22.515 711.138 22.515C715.493 22.515 716.338 27.585 716.338 30.965V46.825ZM55.9682 111.56C55.9682 110.52 56.1632 109.22 56.5532 107.66C59.3482 107.14 62.0782 106.685 64.9382 106.685C67.6032 106.685 70.2682 107.075 72.8682 107.595L75.5332 114.745C75.9882 116.045 76.5082 117.345 76.5082 118.775C76.5082 120.66 75.5982 122.025 73.9732 123H91.2632C88.4682 121.44 86.3232 116.305 85.2182 113.38L70.1382 73.795H67.7332L54.9282 106.23C53.3032 110.325 48.6232 121.245 44.6582 123H64.6782C59.4132 121.115 55.9682 117.345 55.9682 111.56ZM72.2832 105.905C69.8782 105.45 67.4082 105.125 64.9382 105.125C62.2732 105.125 59.6082 105.515 57.0082 106.035C58.8932 99.275 62.9882 89.85 64.6782 85.365L72.2832 105.905ZM104.702 101.745C105.807 105.385 107.952 107.79 111.917 107.79C115.427 107.79 117.442 105.515 117.442 102.135C117.442 94.985 110.292 91.085 103.922 91.085C94.6925 91.085 89.1675 98.95 89.1675 107.595C89.1675 116.565 95.6675 123.65 104.767 123.65C110.942 123.65 115.622 120.855 118.612 115.46L118.092 115.07C116.727 116.435 112.697 116.89 110.877 116.89C102.557 116.89 98.8525 109.22 98.8525 101.875C98.8525 99.34 99.6325 92.645 103.272 92.645C106.197 92.645 109.057 95.505 109.057 98.43C109.057 100.9 106.847 101.745 104.702 101.745ZM135.298 101.745C136.403 105.385 138.548 107.79 142.513 107.79C146.023 107.79 148.038 105.515 148.038 102.135C148.038 94.985 140.888 91.085 134.518 91.085C125.288 91.085 119.763 98.95 119.763 107.595C119.763 116.565 126.263 123.65 135.363 123.65C141.538 123.65 146.218 120.855 149.208 115.46L148.688 115.07C147.323 116.435 143.293 116.89 141.473 116.89C133.153 116.89 129.448 109.22 129.448 101.875C129.448 99.34 130.228 92.645 133.868 92.645C136.793 92.645 139.653 95.505 139.653 98.43C139.653 100.9 137.443 101.745 135.298 101.745ZM165.454 91.085C156.419 91.085 149.724 98.56 149.724 107.4C149.724 116.305 156.419 123.65 165.454 123.65C174.489 123.65 181.119 116.24 181.119 107.4C181.119 98.56 174.489 91.085 165.454 91.085ZM167.534 121.895C161.034 121.895 158.824 106.425 158.824 101.81C158.824 99.405 159.149 92.97 162.724 92.97C169.679 92.97 171.889 107.4 171.889 112.405C171.889 115.07 171.434 121.895 167.534 121.895ZM181.641 91.605C184.501 93.23 184.956 97.455 184.956 100.445V113.185C184.956 118.58 187.816 123.52 193.666 123.52C194.446 123.52 202.636 118.645 203.221 117.8C203.546 119.555 204.196 121.375 204.586 123H216.221C213.556 119.685 212.581 117.02 212.581 112.795V91.605H199.841C202.766 93.23 203.091 97.455 203.091 100.445V109.675C203.091 111.235 202.961 112.925 202.961 114.615C202.441 116.76 201.011 118.71 198.541 118.71C195.356 118.71 194.446 115.59 194.446 112.925V91.605H181.641ZM232.615 123C229.69 121.375 229.365 117.15 229.365 114.16V100.51C229.82 98.105 231.25 95.895 233.915 95.895C237.1 95.895 238.01 99.015 238.01 101.68V114.16C238.01 117.085 237.555 121.375 234.76 123H250.815C247.955 121.375 247.5 117.15 247.5 114.16V101.42C247.5 96.025 244.64 91.085 238.79 91.085C238.075 91.085 230.535 95.505 229.365 96.675V91.605C224.1 94.66 222.28 95.44 216.235 96.415C218.51 99.145 219.875 101.225 219.875 104.93V114.16C219.875 117.085 219.355 121.375 216.56 123H232.615ZM262.561 83.48H261.586C259.441 89.395 255.996 91.605 249.886 92.19V93.165H253.071V114.875C253.071 119.62 255.216 123.65 260.416 123.65C263.991 123.65 267.631 121.895 270.231 119.49V118.84C269.191 119.425 267.956 119.685 266.786 119.685C264.576 119.685 262.561 118.71 262.561 116.175V93.165H269.321V91.605H262.561V83.48ZM322.915 89.59V110.975L296.785 73.73H285.995C288.92 75.485 289.245 79.515 289.245 82.57V107.14C289.245 109.61 289.245 112.08 289.115 114.485C288.92 118.645 288.725 121.765 284.305 123H301.075C293.795 120.79 290.805 114.355 290.805 107.14V81.4L319.795 123H324.475V89.59C324.475 87.12 324.475 84.65 324.605 82.245C324.8 78.085 324.995 74.965 329.415 73.73H312.645C319.925 75.94 322.915 82.375 322.915 89.59ZM329.097 91.605C331.957 93.23 332.412 97.455 332.412 100.445V113.185C332.412 118.58 335.272 123.52 341.122 123.52C341.902 123.52 350.092 118.645 350.677 117.8C351.002 119.555 351.652 121.375 352.042 123H363.677C361.012 119.685 360.037 117.02 360.037 112.795V91.605H347.297C350.222 93.23 350.547 97.455 350.547 100.445V109.675C350.547 111.235 350.417 112.925 350.417 114.615C349.897 116.76 348.467 118.71 345.997 118.71C342.812 118.71 341.902 115.59 341.902 112.925V91.605H329.097ZM394.501 97.78C393.461 94.01 390.731 91.085 386.246 91.085C385.531 91.085 377.991 95.505 376.821 96.675V91.605C371.556 94.66 369.736 95.44 363.691 96.415C365.966 99.145 367.331 101.225 367.331 104.93V114.16C367.331 117.085 366.811 121.375 364.016 123H380.071C377.146 121.375 376.821 117.15 376.821 114.16V100.51C377.276 98.105 378.706 95.895 381.371 95.895C384.556 95.895 385.466 99.015 385.466 101.68V114.16C385.466 117.085 385.011 121.375 382.216 123H398.271C395.411 121.375 394.956 117.15 394.956 114.16V101.68C395.086 98.95 396.516 95.895 399.636 95.895C402.821 95.895 403.731 99.015 403.731 101.68V114.16C403.731 117.085 403.276 121.375 400.481 123H416.536C413.676 121.375 413.221 117.15 413.221 114.16V101.42C413.221 96.025 410.361 91.085 404.511 91.085C403.731 91.085 395.021 96.415 394.436 97.325L394.501 97.78ZM426.772 121.375C430.152 122.545 432.362 123.585 436.132 123.585C445.557 123.585 450.952 115.46 450.952 106.685C450.952 98.3 446.012 90.89 436.977 90.89C434.832 90.89 431.907 93.75 429.697 96.285V76.915C424.432 79.905 422.612 80.685 416.567 81.66C418.777 84.39 420.207 86.535 420.207 90.175L420.077 122.935C421.247 122.285 424.432 121.635 426.772 121.375ZM429.697 96.87C430.022 96.675 430.412 96.61 430.867 96.61C438.537 96.61 441.982 104.15 441.982 110.845C441.982 115.135 440.292 121.96 434.897 121.96C430.542 121.96 429.697 116.89 429.697 113.51V96.87ZM481.804 106.295V104.735C481.804 96.35 476.409 91.085 468.024 91.085C458.794 91.085 453.269 98.95 453.269 107.595C453.269 116.565 459.769 123.65 468.869 123.65C475.304 123.65 478.944 120.855 481.934 115.46L481.414 115.07C480.049 116.435 476.019 116.89 474.199 116.89C467.894 116.89 464.384 112.47 463.149 107.075L481.804 106.295ZM473.094 99.535C473.094 102.72 470.949 104.28 468.024 104.735C466.269 104.995 464.579 105.255 462.824 105.45C462.694 104.475 462.629 103.5 462.629 102.525C462.629 99.86 463.604 92.645 467.374 92.645C470.689 92.645 473.094 96.545 473.094 99.535ZM495.713 98.755V91.605C490.448 94.66 488.628 95.44 482.583 96.415C484.858 99.145 486.223 101.225 486.223 104.93V114.16C486.223 117.085 485.703 121.375 482.908 123H498.963C496.103 121.375 495.713 117.15 495.713 114.16V102.33C495.713 100.445 497.663 98.82 499.418 98.82C501.693 98.82 503.383 100.575 503.383 102.785C503.383 103.37 503.253 103.89 503.123 104.41C507.413 104.41 510.923 101.615 510.923 97.195C510.923 93.815 508.713 91.085 505.203 91.085C500.783 91.085 497.403 95.05 495.713 98.755ZM540.023 125.6C534.173 121.31 533.263 104.995 533.263 98.365C533.263 91.8 534.173 75.485 540.023 71.195V70.545C528.973 74.185 525.073 88.03 525.073 98.365C525.073 108.765 528.973 122.61 540.023 126.25V125.6ZM564.244 74.705C568.274 74.705 571.654 77.305 571.654 81.53C571.654 82.375 571.459 84.13 570.224 84.195C571.134 87.185 573.149 89.85 576.529 89.85C579.584 89.85 581.404 87.64 581.404 84.715C581.404 76.785 572.304 73.08 565.674 73.08C551.309 73.08 542.339 85.495 542.339 99.015C542.339 112.6 550.919 123.65 565.089 123.65C574.189 123.65 580.364 119.165 582.314 110.26L581.794 109.87C578.674 113.25 574.384 114.615 569.899 114.615C557.614 114.615 551.114 104.865 551.114 93.425C551.114 85.625 554.884 74.705 564.244 74.705ZM592.028 111.56C592.028 110.52 592.223 109.22 592.613 107.66C595.408 107.14 598.138 106.685 600.998 106.685C603.663 106.685 606.328 107.075 608.928 107.595L611.593 114.745C612.048 116.045 612.568 117.345 612.568 118.775C612.568 120.66 611.658 122.025 610.033 123H627.323C624.528 121.44 622.383 116.305 621.278 113.38L606.198 73.795H603.793L590.988 106.23C589.363 110.325 584.683 121.245 580.718 123H600.738C595.473 121.115 592.028 117.345 592.028 111.56ZM608.343 105.905C605.938 105.45 603.468 105.125 600.998 105.125C598.333 105.125 595.668 105.515 593.068 106.035C594.953 99.275 599.048 89.85 600.738 85.365L608.343 105.905ZM665.625 89.59V110.975L639.495 73.73H628.705C631.63 75.485 631.955 79.515 631.955 82.57V107.14C631.955 109.61 631.955 112.08 631.825 114.485C631.63 118.645 631.435 121.765 627.015 123H643.785C636.505 120.79 633.515 114.355 633.515 107.14V81.4L662.505 123H667.185V89.59C667.185 87.12 667.185 84.65 667.315 82.245C667.51 78.085 667.705 74.965 672.125 73.73H655.355C662.635 75.94 665.625 82.375 665.625 89.59ZM674.376 126.25C685.426 122.61 689.326 108.765 689.326 98.365C689.326 88.03 685.426 74.185 674.376 70.545V71.195C680.226 75.485 681.136 91.8 681.136 98.365C681.136 104.995 680.226 121.31 674.376 125.6V126.25Z" fill="url(#paint0_linear_3609_31031)"/>
<rect x="695" y="80" width="71.0104" height="42.9569" rx="21.4785" fill="url(#paint1_linear_3609_31031)"/>
<g clip-path="url(#clip0_3609_31031)">
<path d="M726.57 96.7773L720.91 93.5195C720.816 93.4609 720.688 93.4375 720.547 93.4375C720.406 93.4375 720.277 93.4727 720.184 93.5195L714.559 96.7891C714.359 96.9062 714.219 97.1992 714.219 97.4219V103.949C714.219 104.078 714.242 104.23 714.336 104.359L726.852 97.0937C726.781 96.9531 726.676 96.8477 726.57 96.7773Z" fill="white"/>
<path d="M714.301 104.348C714.359 104.441 714.441 104.523 714.523 104.57L720.172 107.84C720.266 107.898 720.395 107.922 720.535 107.922C720.676 107.922 720.805 107.887 720.898 107.84L726.523 104.57C726.723 104.453 726.863 104.16 726.863 103.938V97.4102C726.863 97.3047 726.852 97.1875 726.793 97.082L714.301 104.348Z" fill="white"/>
<path d="M723.043 102.098C722.551 102.965 721.613 103.551 720.547 103.551C718.965 103.551 717.676 102.262 717.676 100.68C717.676 99.0977 718.965 97.8086 720.547 97.8086C721.613 97.8086 722.551 98.3945 723.043 99.2734L724.566 98.3945C723.77 97 722.27 96.0508 720.547 96.0508C717.992 96.0508 715.918 98.125 715.918 100.68C715.918 103.234 717.992 105.309 720.547 105.309C722.258 105.309 723.758 104.371 724.555 102.988L723.043 102.098Z" fill="url(#paint2_linear_3609_31031)"/>
</g>
<path d="M733.255 103.25C734.553 103.25 735.447 102.575 735.859 101.435L735 100.804C734.816 101.681 734.272 102.312 733.264 102.312C732.054 102.312 731.485 101.444 731.485 100.234C731.485 99.0155 732.054 98.1564 733.264 98.1564C734.272 98.1564 734.816 98.7788 735 99.6642L735.859 99.033C735.447 97.8846 734.553 97.2183 733.255 97.2183C731.45 97.2183 730.433 98.5421 730.433 100.234C730.433 101.926 731.45 103.25 733.255 103.25ZM737.05 103.18L737.611 101.698H740.092L740.653 103.18H741.74L739.443 97.306H738.303L736.007 103.18H737.05ZM738.54 99.2522L738.856 98.1914L739.171 99.2522L739.767 100.839H737.935L738.54 99.2522ZM743.122 103.18V99.9448L743.052 98.8752L743.587 99.7081L746.024 103.18H746.936V97.306H745.945V100.532L746.007 101.646L745.428 100.725L743.052 97.306H742.132V103.18H743.122Z" fill="white"/>
<defs>
<linearGradient id="paint0_linear_3609_31031" x1="8.69685e-06" y1="61.3333" x2="551.819" y2="130.986" gradientUnits="userSpaceOnUse">
<stop stop-color="#FFCC00"/>
<stop offset="1" stop-color="#03599C"/>
</linearGradient>
<linearGradient id="paint1_linear_3609_31031" x1="695" y1="98.8192" x2="749.077" y2="100.968" gradientUnits="userSpaceOnUse">
<stop stop-color="#FFCC00"/>
<stop offset="1" stop-color="#03599C"/>
</linearGradient>
<linearGradient id="paint2_linear_3609_31031" x1="715.918" y1="100.107" x2="722.511" y2="100.255" gradientUnits="userSpaceOnUse">
<stop stop-color="#FFCC00"/>
<stop offset="1" stop-color="#03599C"/>
</linearGradient>
<clipPath id="clip0_3609_31031">
<rect width="15" height="15" fill="white" transform="translate(713.047 93.1797)"/>
</clipPath>
</defs>
</svg>
