<svg width="346" height="114" viewBox="0 0 346 114" fill="none" xmlns="http://www.w3.org/2000/svg">
<path d="M4.8 25.8C4.8 27.6 4.8 29.45 4.75 31.25C4.6 34.5 4.5 37 1 38H13.9C8.3 36.3 6 31.35 6 25.8V9.55L18.05 38H19.55L30 9.55V31.2C30 33.45 29.6 36.75 27.45 38H39.8C37.55 36.75 37.3 33.5 37.3 31.2V6.9C37.3 4.6 37.65 1.4 39.8 0.0999992L32.2 0.149999L21.85 28.2L9.95 0.0999992H1C3.05 1.3 4.8 4.55 4.8 6.9V25.8ZM45.3703 24.2C48.1703 24.2 49.9703 21.95 50.7203 19.5C49.5703 19.5 48.7703 18.9 48.7703 17.7C48.7703 16.4 49.7703 14.65 51.2203 14.65C54.2203 14.65 53.5703 20.9 53.5703 22.85C49.2703 24.5 41.2203 27.45 41.2203 33.05C41.2203 41.25 50.2703 43 56.7703 43C63.6703 43 73.7703 40.75 73.7703 32.05V24.1C73.7703 23 73.7203 21.8 73.7703 20.7C73.8203 18.95 75.4703 17.15 77.2703 17.15C79.7203 17.15 80.4203 19.55 80.4203 21.6V31.2C80.4203 33.45 80.0703 36.75 77.9203 38H90.2703C88.0703 36.75 87.7203 33.5 87.7203 31.2V21.4C87.7203 17.25 85.5203 13.45 81.0203 13.45C80.4203 13.45 74.3703 17.05 73.7703 17.7V13.85C69.7203 16.15 68.3203 16.8 63.6703 17.55C65.4203 19.65 66.4703 21.25 66.4703 24.1V31.7C66.4703 37.25 63.4203 41.65 57.5703 41.65C52.3203 41.65 48.5703 38.2 48.5703 32.85C48.5703 29 50.2203 26 53.5703 24.1V34.55C53.5703 37 56.2203 38.5 58.4203 38.5C60.6203 38.5 61.7203 37.7 63.4203 36.45V35.95C63.1203 36.15 62.7703 36.25 62.4203 36.25C61.0203 36.25 60.8703 34.1 60.8703 33.15V21.65C60.8703 16.3 56.9203 13.45 51.8203 13.45C47.6203 13.45 42.1203 15.4 42.1203 20.4C42.1203 22.35 43.2703 24.2 45.3703 24.2ZM112.883 35.95C112.583 36.15 112.233 36.25 111.883 36.25C110.483 36.25 110.333 34.1 110.333 33.15V21.65C110.333 16.3 106.383 13.45 101.283 13.45C97.0832 13.45 91.5832 15.4 91.5832 20.4C91.5832 22.35 92.7332 24.2 94.8332 24.2C97.6332 24.2 99.4332 21.95 100.183 19.5C99.0332 19.5 98.2332 18.9 98.2332 17.7C98.2332 16.4 99.2332 14.65 100.683 14.65C103.283 14.65 103.033 19.05 103.033 20.75V22.35C99.8332 25.85 90.6832 27.95 90.6832 33.15C90.6832 36.9 93.1832 38.5 96.6832 38.5C99.5332 38.5 101.733 37.5 103.283 35.75C103.983 37.45 106.083 38.5 107.883 38.5C110.133 38.5 111.183 37.7 112.883 36.45V35.95ZM103.033 34.7C102.533 35 101.883 35.2 101.083 35.2C98.5332 35.2 98.0332 33 98.0332 30.9C98.0332 28 101.133 25.85 103.033 24.1V34.7ZM124.858 13.45C119.408 13.45 112.858 16.15 112.858 22.5C112.858 26 114.808 28.4 117.508 29.85C116.708 31.15 114.108 35.35 114.108 35.95C114.108 42.35 130.608 38.4 130.608 44.55C130.608 47.4 127.108 48.3 124.808 48.3C122.958 48.3 118.908 47.4 118.908 44.95C118.908 44.45 119.158 44 119.508 43.65C118.958 41.9 117.658 40.35 115.708 40.35C113.858 40.35 112.458 41.55 112.458 43.45C112.458 48.5 120.658 49.5 124.258 49.5C129.058 49.5 138.008 48.5 138.008 42C138.008 30.9 117.858 35.95 117.858 31.6C117.858 31.1 118.008 30.65 118.358 30.3C120.358 31.2 122.708 31.6 124.858 31.6C130.408 31.6 136.758 28.9 136.758 22.5C136.758 17.25 132.308 14.5 127.708 13.7C128.608 12.8 129.758 12.15 131.058 12.15C132.058 12.15 133.008 12.65 133.358 13.65C133.608 13.7 133.958 13.75 134.208 13.75C136.358 13.75 138.308 12.45 138.308 10.15C138.308 8.15 136.708 6.9 134.758 6.9C131.208 6.9 128.408 10.55 126.708 13.55C126.108 13.5 125.458 13.45 124.858 13.45ZM126.458 30.25C121.958 30.25 119.758 23.2 119.758 19.6C119.758 17.65 120.308 14.9 122.758 14.9C127.458 14.9 129.808 21.3 129.808 25.2C129.808 27.35 129.108 30.25 126.458 30.25ZM160.924 25.15V23.95C160.924 17.5 156.774 13.45 150.324 13.45C143.224 13.45 138.974 19.5 138.974 26.15C138.974 33.05 143.974 38.5 150.974 38.5C155.924 38.5 158.724 36.35 161.024 32.2L160.624 31.9C159.574 32.95 156.474 33.3 155.074 33.3C150.224 33.3 147.524 29.9 146.574 25.75L160.924 25.15ZM154.224 19.95C154.224 22.4 152.574 23.6 150.324 23.95C148.974 24.15 147.674 24.35 146.324 24.5C146.224 23.75 146.174 23 146.174 22.25C146.174 20.2 146.924 14.65 149.824 14.65C152.374 14.65 154.224 17.65 154.224 19.95ZM177.688 48.95C183.388 48.95 185.438 42.35 187.188 38L191.688 26.75C194.088 20.7 197.538 15.7 204.688 15.7C210.038 15.7 211.688 21.55 211.688 25.95C211.688 28.6 210.538 37.3 206.688 37.3C202.688 37.3 201.988 30.45 201.988 27.6C201.988 25.3 202.638 17.55 206.038 17.55C199.988 17.55 194.388 20.8 194.388 27.4C194.388 34.15 200.088 38.5 206.488 38.5C213.888 38.5 219.238 32.65 219.238 25.4C219.238 17.2 213.488 13.05 205.688 13.05C194.888 13.05 191.188 24.4 187.988 32.7C186.688 29.6 182.688 20.6 182.688 17.75C182.688 16.05 183.488 14.4 185.138 13.85H171.338C174.388 15.2 177.138 23.55 178.388 26.65L182.938 38C183.688 38 185.138 38.25 185.138 39.3C185.138 41.7 181.188 43.05 179.288 43.05C177.088 43.05 175.288 41.95 175.288 39.55C173.138 39.55 172.038 42.4 172.038 44.2C172.038 47.5 174.638 48.95 177.688 48.95ZM219.678 13.85C221.878 15.1 222.228 18.35 222.228 20.65V30.45C222.228 34.6 224.428 38.4 228.928 38.4C229.528 38.4 235.828 34.65 236.278 34C236.528 35.35 237.028 36.75 237.328 38H246.278C244.228 35.45 243.478 33.4 243.478 30.15V13.85H233.678C235.928 15.1 236.178 18.35 236.178 20.65V27.75C236.178 28.95 236.078 30.25 236.078 31.55C235.678 33.2 234.578 34.7 232.678 34.7C230.228 34.7 229.528 32.3 229.528 30.25V13.85H219.678ZM256.389 19.35V13.85C252.339 16.2 250.939 16.8 246.289 17.55C248.039 19.65 249.089 21.25 249.089 24.1V31.2C249.089 33.45 248.689 36.75 246.539 38H258.889C256.689 36.75 256.389 33.5 256.389 31.2V22.1C256.389 20.65 257.889 19.4 259.239 19.4C260.989 19.4 262.289 20.75 262.289 22.45C262.289 22.9 262.189 23.3 262.089 23.7C265.389 23.7 268.089 21.55 268.089 18.15C268.089 15.55 266.389 13.45 263.689 13.45C260.289 13.45 257.689 16.5 256.389 19.35Z" fill="black"/>
<path d="M13.35 68.1C6.75 68.1 3.1 72.5 3.1 78.85H0.25V80.05H3V96.2C3 98.45 2.6 101.75 0.45 103H12.8C10.55 101.75 10.3 98.5 10.3 96.2V80.05H16V78.85C12.7 78.85 8 77.7 8 73.55C8 71.5 9.5 69.4 11.7 69.4C13 69.4 14 70.2 14 71.55C14 72.8 13.1 73.65 11.85 73.65C12.45 75.55 13.9 77.2 16 77.2C18.3 77.2 20.05 75.55 20.05 73.2C20.05 69.6 16.45 68.1 13.35 68.1ZM35.5172 89.1V96.2C35.5172 98.45 35.1172 101.75 32.9672 103H45.3172C43.0672 101.75 42.8172 98.5 42.8172 96.2V85.7C42.8172 84 44.5672 82.15 46.3172 82.15C48.7672 82.15 49.4672 84.55 49.4672 86.6V96.2C49.4672 98.45 49.1172 101.75 46.9672 103H59.3172C57.1172 101.75 56.7672 98.5 56.7672 96.2V86.4C56.7672 82.25 54.5672 78.45 50.0672 78.45C49.4672 78.45 43.4172 82.05 42.8172 82.7V78.85C43.4672 77.8 43.7672 76.55 43.7672 75.3C43.7672 69.45 38.4172 66.75 33.2172 66.75C28.8672 66.75 22.4672 68.75 22.4672 74.05C22.4672 76.05 24.1172 77.7 26.1172 77.7C28.1172 77.7 29.7672 76.05 29.7672 74.05C29.7672 72.05 28.1172 70.4 26.1172 70.4C27.6172 68.6 30.2172 67.9 32.5172 67.9C36.6672 67.9 40.8672 70.5 40.8672 75C40.8672 79.5 36.6172 81.9 32.7172 82.55C34.4672 84.65 35.5172 86.25 35.5172 89.1ZM20.1172 82.55C21.8672 84.65 22.9172 86.25 22.9172 89.1V96.2C22.9172 98.45 22.5172 101.75 20.3672 103H32.7172C30.4672 101.75 30.2172 98.5 30.2172 96.2V78.85C26.1672 81.2 24.7672 81.8 20.1172 82.55ZM63.8762 89.2C66.6762 89.2 68.4762 86.95 69.2262 84.5C68.0762 84.5 67.2762 83.9 67.2762 82.7C67.2762 81.4 68.2762 79.65 69.7262 79.65C72.7262 79.65 72.0762 85.9 72.0762 87.85C67.7762 89.5 59.7262 92.45 59.7262 98.05C59.7262 106.25 68.7762 108 75.2762 108C82.1762 108 92.2762 105.75 92.2762 97.05V89.1C92.2762 88 92.2262 86.8 92.2762 85.7C92.3262 83.95 93.9762 82.15 95.7762 82.15C98.2262 82.15 98.9262 84.55 98.9262 86.6V96.2C98.9262 98.45 98.5762 101.75 96.4262 103H108.776C106.576 101.75 106.226 98.5 106.226 96.2V86.4C106.226 82.25 104.026 78.45 99.5262 78.45C98.9262 78.45 92.8762 82.05 92.2762 82.7V78.85C88.2262 81.15 86.8262 81.8 82.1762 82.55C83.9262 84.65 84.9762 86.25 84.9762 89.1V96.7C84.9762 102.25 81.9262 106.65 76.0762 106.65C70.8262 106.65 67.0762 103.2 67.0762 97.85C67.0762 94 68.7262 91 72.0762 89.1V99.55C72.0762 102 74.7262 103.5 76.9262 103.5C79.1262 103.5 80.2262 102.7 81.9262 101.45V100.95C81.6262 101.15 81.2762 101.25 80.9262 101.25C79.5262 101.25 79.3762 99.1 79.3762 98.15V86.65C79.3762 81.3 75.4262 78.45 70.3262 78.45C66.1262 78.45 60.6262 80.4 60.6262 85.4C60.6262 87.35 61.7762 89.2 63.8762 89.2ZM121.139 86.65C121.989 89.45 123.639 91.3 126.689 91.3C129.389 91.3 130.939 89.55 130.939 86.95C130.939 81.45 125.439 78.45 120.539 78.45C113.439 78.45 109.189 84.5 109.189 91.15C109.189 98.05 114.189 103.5 121.189 103.5C125.939 103.5 129.539 101.35 131.839 97.2L131.439 96.9C130.389 97.95 127.289 98.3 125.889 98.3C119.489 98.3 116.639 92.4 116.639 86.75C116.639 84.8 117.239 79.65 120.039 79.65C122.289 79.65 124.489 81.85 124.489 84.1C124.489 86 122.789 86.65 121.139 86.65ZM138.324 77.7C140.324 77.7 141.974 76.05 141.974 74.05C141.974 72.05 140.324 70.4 138.324 70.4C136.324 70.4 134.674 72.05 134.674 74.05C134.674 76.05 136.324 77.7 138.324 77.7ZM144.924 103C142.674 101.75 142.424 98.5 142.424 96.2V78.85C138.374 81.2 136.974 81.8 132.324 82.55C134.074 84.65 135.124 86.25 135.124 89.1V96.2C135.124 98.45 134.724 101.75 132.574 103H144.924ZM167.522 100.95C167.222 101.15 166.872 101.25 166.522 101.25C165.122 101.25 164.972 99.1 164.972 98.15V86.65C164.972 81.3 161.022 78.45 155.922 78.45C151.722 78.45 146.222 80.4 146.222 85.4C146.222 87.35 147.372 89.2 149.472 89.2C152.272 89.2 154.072 86.95 154.822 84.5C153.672 84.5 152.872 83.9 152.872 82.7C152.872 81.4 153.872 79.65 155.322 79.65C157.922 79.65 157.672 84.05 157.672 85.75V87.35C154.472 90.85 145.322 92.95 145.322 98.15C145.322 101.9 147.822 103.5 151.322 103.5C154.172 103.5 156.372 102.5 157.922 100.75C158.622 102.45 160.722 103.5 162.522 103.5C164.772 103.5 165.822 102.7 167.522 101.45V100.95ZM157.672 99.7C157.172 100 156.522 100.2 155.722 100.2C153.172 100.2 152.672 98 152.672 95.9C152.672 93 155.772 90.85 157.672 89.1V99.7ZM177.873 67.55C173.823 69.9 172.423 70.5 167.773 71.25C169.523 73.35 170.573 74.95 170.573 77.8V96.2C170.573 98.5 170.223 101.75 168.023 103H180.423C178.173 101.75 177.873 98.5 177.873 96.2V67.55ZM200.134 103.5C204.484 103.5 211.184 101.95 211.184 96.45C211.184 88.2 197.434 88.4 197.434 83.35C197.434 81.15 199.084 79.65 201.284 79.65C203.134 79.65 204.984 80.85 204.984 82.85C204.984 83.9 204.334 84.7 203.234 84.7C203.834 86.65 205.284 88.05 207.384 88.05C209.434 88.05 210.684 86.75 210.684 84.7C210.684 80.1 205.234 78.45 201.484 78.45C197.284 78.45 191.534 80.55 191.534 85.55C191.534 94 204.634 93.6 204.634 98.75C204.634 101.25 202.284 102.3 200.134 102.3C198.334 102.3 196.234 101.25 196.234 99.2C196.234 98 197.084 97.1 198.284 97.1C197.884 95.1 196.384 93.05 194.134 93.05C191.784 93.05 190.534 94.9 190.534 97.1C190.534 101.8 196.384 103.5 200.134 103.5ZM221.024 103C221.824 103 223.224 103.25 223.224 104.3C223.224 106.7 219.274 108.05 217.374 108.05C215.174 108.05 213.374 106.95 213.374 104.55C211.224 104.55 210.124 107.4 210.124 109.2C210.124 112.5 212.724 113.95 215.774 113.95C221.474 113.95 223.524 107.35 225.274 103L229.774 91.75C231.024 88.6 233.824 80.2 236.874 78.85H225.274C228.274 79.95 229.624 82.25 229.624 85.4C229.624 89.45 227.574 93.95 226.074 97.7C224.774 94.6 220.774 85.6 220.774 82.75C220.774 81.05 221.574 79.4 223.224 78.85H209.424C212.474 80.2 215.224 88.55 216.474 91.65L221.024 103ZM246.765 103.5C251.115 103.5 257.815 101.95 257.815 96.45C257.815 88.2 244.065 88.4 244.065 83.35C244.065 81.15 245.715 79.65 247.915 79.65C249.765 79.65 251.615 80.85 251.615 82.85C251.615 83.9 250.965 84.7 249.865 84.7C250.465 86.65 251.915 88.05 254.015 88.05C256.065 88.05 257.315 86.75 257.315 84.7C257.315 81.05 253.915 79.3 250.615 78.7C249.715 77.8 249.215 76.6 249.215 75.1C249.215 70.75 254.065 67.8 257.965 67.8C261.165 67.8 265.615 69.05 265.615 73C265.615 76.9 261.315 78.95 257.965 79.3V80.05H260.415V96.75C260.415 100.4 262.065 103.5 266.065 103.5C268.815 103.5 271.615 102.15 273.615 100.3V99.8C272.815 100.25 271.865 100.45 270.965 100.45C269.265 100.45 267.715 99.7 267.715 97.75V80.05H272.915V78.85H267.715V76.55C267.715 69.35 265.565 66.75 257.965 66.75C252.465 66.75 246.065 69.3 246.065 75.7C246.065 76.7 246.265 77.65 246.715 78.5C242.715 78.9 238.165 81.1 238.165 85.55C238.165 94 251.265 93.6 251.265 98.75C251.265 101.25 248.915 102.3 246.765 102.3C244.965 102.3 242.865 101.25 242.865 99.2C242.865 98 243.715 97.1 244.915 97.1C244.515 95.1 243.015 93.05 240.765 93.05C238.415 93.05 237.165 94.9 237.165 97.1C237.165 101.8 243.015 103.5 246.765 103.5ZM296.227 90.15V88.95C296.227 82.5 292.077 78.45 285.627 78.45C278.527 78.45 274.277 84.5 274.277 91.15C274.277 98.05 279.277 103.5 286.277 103.5C291.227 103.5 294.027 101.35 296.327 97.2L295.927 96.9C294.877 97.95 291.777 98.3 290.377 98.3C285.527 98.3 282.827 94.9 281.877 90.75L296.227 90.15ZM289.527 84.95C289.527 87.4 287.877 88.6 285.627 88.95C284.277 89.15 282.977 89.35 281.627 89.5C281.527 88.75 281.477 88 281.477 87.25C281.477 85.2 282.227 79.65 285.127 79.65C287.677 79.65 289.527 82.65 289.527 84.95ZM320.526 83.6C319.726 80.7 317.626 78.45 314.176 78.45C313.626 78.45 307.826 81.85 306.926 82.75V78.85C302.876 81.2 301.476 81.8 296.826 82.55C298.576 84.65 299.626 86.25 299.626 89.1V96.2C299.626 98.45 299.226 101.75 297.076 103H309.426C307.176 101.75 306.926 98.5 306.926 96.2V85.7C307.276 83.85 308.376 82.15 310.426 82.15C312.876 82.15 313.576 84.55 313.576 86.6V96.2C313.576 98.45 313.226 101.75 311.076 103H323.426C321.226 101.75 320.876 98.5 320.876 96.2V86.6C320.976 84.5 322.076 82.15 324.476 82.15C326.926 82.15 327.626 84.55 327.626 86.6V96.2C327.626 98.45 327.276 101.75 325.126 103H337.476C335.276 101.75 334.926 98.5 334.926 96.2V86.4C334.926 82.25 332.726 78.45 328.226 78.45C327.626 78.45 320.926 82.55 320.476 83.25L320.526 83.6ZM341.95 103.5C343.95 103.5 345.6 101.85 345.6 99.85C345.6 97.85 343.95 96.2 341.95 96.2C339.95 96.2 338.25 97.85 338.25 99.85C338.25 101.85 339.95 103.5 341.95 103.5Z" fill="url(#paint0_linear_3640_30972)"/>
<defs>
<linearGradient id="paint0_linear_3640_30972" x1="20.669" y1="-14.9366" x2="406.025" y2="22.8739" gradientUnits="userSpaceOnUse">
<stop stop-color="#0C6B8A"/>
<stop offset="1" stop-color="#FFCC00"/>
</linearGradient>
</defs>
</svg>
