<svg width="344" height="280" viewBox="0 0 344 280" fill="none" xmlns="http://www.w3.org/2000/svg">
<path d="M189.819 12.7852C189.819 12.7852 136.646 32.2632 147.694 94.4874C147.694 94.4874 203.716 70.8155 189.819 12.7852Z" fill="url(#paint0_linear_3275_31624)"/>
<path d="M206.944 41.8867C206.944 41.8867 162.355 40.147 151.762 88.8163C151.762 88.8163 199.685 88.3503 206.944 41.8867Z" fill="url(#paint1_linear_3275_31624)"/>
<path d="M19.65 164.047C19.65 164.047 61.3295 179.041 54.0498 224.128C54.0498 224.128 10.0714 206.037 19.65 164.047Z" fill="url(#paint2_linear_3275_31624)"/>
<path d="M116.856 168.5C116.856 168.5 41.5326 184.385 50.7694 219.944C50.7694 219.944 123.463 202.413 116.856 168.5Z" fill="url(#paint3_linear_3275_31624)"/>
<path d="M101.892 12.7852C101.892 12.7852 88.8757 40.1539 116.431 59.7873C116.431 59.7873 128.961 29.7469 101.892 12.7852Z" fill="url(#paint4_linear_3275_31624)"/>
<path d="M336.166 243.315C336.166 247.716 173.311 267.732 107.98 267.732C42.6491 267.732 99.5922 247.716 99.5922 243.315C99.5922 238.914 42.6491 251.796 107.98 251.796C173.311 251.796 336.166 238.914 336.166 243.315Z" fill="#EBF3FF" fill-opacity="0.35"/>
<path d="M183.199 149.478C183.168 154.324 182.93 159.16 182.526 163.965C182.412 165.27 182.288 166.575 182.153 167.879C181.646 172.622 180.962 177.323 180.103 181.931C179.854 183.246 179.595 184.561 179.326 185.846C178.373 190.35 177.245 194.761 175.95 199.059C175.546 200.374 175.132 201.689 174.697 202.973C173.32 207.105 171.777 211.102 170.058 214.933C169.478 216.269 168.867 217.574 168.236 218.847C167.128 221.115 165.947 223.342 164.715 225.485C163.669 227.297 162.592 229.047 161.494 230.714C160.593 232.071 159.672 233.376 158.75 234.629C155.996 238.336 153.117 241.587 150.135 244.373C148.623 245.812 147.09 247.117 145.527 248.287C143.321 249.975 141.064 251.425 138.785 252.636C136.59 253.796 134.374 254.749 132.127 255.494C130.864 255.929 129.59 256.281 128.316 256.551C125.779 257.131 123.242 257.41 120.685 257.452H95.5216L95.0349 256.551L94.455 255.494L92.8913 252.636L92.8706 252.585C90.6132 251.373 88.3972 249.944 86.2123 248.287C84.6486 247.096 83.1057 245.802 81.5835 244.373C78.5805 241.577 75.6914 238.326 72.9369 234.629C71.9946 233.376 71.0834 232.071 70.1825 230.714C68.9709 228.902 67.7904 226.976 66.641 224.978C65.5123 222.989 64.425 220.96 63.3895 218.847C62.7474 217.563 62.1365 216.259 61.5462 214.933C59.8066 211.091 58.2533 207.084 56.8864 202.973C56.4308 201.679 56.0166 200.374 55.6231 199.059C54.2873 194.761 53.1482 190.35 52.1748 185.846C51.8952 184.551 51.6363 183.246 51.3878 181.931C50.8597 179.197 50.3937 176.433 50.0106 173.647L46.873 167.869L46.5312 167.227V127.494L46.7176 127.142L49.8863 121.312C50.2591 118.547 50.7147 115.782 51.2221 113.069C51.4603 111.754 51.7192 110.439 51.9988 109.155C52.9307 104.64 54.0491 100.219 55.3538 95.9109C55.7473 94.5958 56.1719 93.2807 56.5965 91.9966C57.9634 87.8545 59.5166 83.8471 61.2252 79.995C61.8051 78.6591 62.4057 77.3544 63.0581 76.0807C64.1765 73.7301 65.388 71.4416 66.6617 69.2359C67.6869 67.4445 68.7431 65.7462 69.8097 64.1205C70.7106 62.764 71.6115 61.4592 72.5538 60.2062C75.2772 56.5094 78.1456 53.2579 81.1279 50.4724C82.6294 49.0537 84.1619 47.7386 85.7256 46.5581C87.9312 44.8599 90.199 43.3791 92.4875 42.1675C92.6739 42.0536 92.8603 41.9604 93.057 41.8569L94.4757 39.2267L95.5423 37.2695H120.55C123.149 37.3213 125.738 37.6527 128.306 38.2533C129.466 38.5121 130.615 38.8435 131.765 39.237C134.053 39.9929 136.321 40.956 138.558 42.1779C140.846 43.4102 143.114 44.8702 145.34 46.5685C146.883 47.7593 148.426 49.0641 149.938 50.4827C152.91 53.2786 155.778 56.5198 158.522 60.2166C159.454 61.4696 160.376 62.7743 161.277 64.1308C162.468 65.9223 163.628 67.7862 164.746 69.7641C165.916 71.8144 167.034 73.9268 168.101 76.1014C168.743 77.3958 169.344 78.7006 169.934 80.0157C171.653 83.8678 173.216 87.896 174.594 92.0173C175.029 93.3117 175.453 94.6165 175.857 95.9316C177.172 100.239 178.301 104.671 179.253 109.176C179.554 110.47 179.813 111.775 180.04 113.09C180.931 117.719 181.625 122.399 182.132 127.152C182.277 128.457 182.401 129.762 182.526 131.067C182.94 135.871 183.178 140.707 183.22 145.554C183.24 146.858 183.24 148.163 183.23 149.468L183.199 149.478Z" fill="#EF941D"/>
<path d="M131.743 39.2253C130.594 38.8318 129.445 38.5108 128.285 38.2416C125.706 37.641 123.128 37.3096 120.529 37.2578H95.521L94.9929 38.2416L94.4648 39.2253L93.0461 41.8555C92.8597 41.959 92.6733 42.0522 92.4766 42.1662H138.536C136.3 40.9546 134.042 39.9812 131.743 39.2253Z" fill="#DD851B"/>
<path d="M145.311 46.5586H85.7071C84.1434 47.7494 82.6109 49.0542 81.1094 50.4728H149.899C148.387 49.0542 146.854 47.7391 145.301 46.5586H145.311Z" fill="#DD851B"/>
<path d="M158.489 60.2031H72.541C71.609 61.4561 70.6978 62.7609 69.7969 64.1174H161.233C160.332 62.7609 159.411 61.4561 158.479 60.2031H158.489Z" fill="#DD851B"/>
<path d="M168.07 76.0898H63.0477C62.3953 77.3739 61.7947 78.6786 61.2148 80.0041H169.892C169.302 78.689 168.702 77.3739 168.059 76.0898H168.07Z" fill="#DD851B"/>
<path d="M174.56 92.0156H56.5942C56.1696 93.31 55.7451 94.6148 55.3516 95.9299H175.824C175.42 94.6148 174.995 93.2997 174.56 92.0156Z" fill="#DD851B"/>
<path d="M179.223 109.172H51.9993C51.7197 110.466 51.4608 111.771 51.2227 113.086H180.02C179.782 111.771 179.523 110.456 179.233 109.172H179.223Z" fill="#DD851B"/>
<path d="M182.101 127.16H46.7176L46.5312 127.512V131.074H182.495C182.381 129.77 182.246 128.465 182.101 127.16Z" fill="#DD851B"/>
<path d="M183.188 145.562H46.5312V149.477H183.209C183.219 148.172 183.219 146.867 183.199 145.562H183.188Z" fill="#DD851B"/>
<path d="M46.5312 167.249L46.873 167.891H182.153C182.298 166.586 182.412 165.281 182.526 163.977H46.5312V167.259V167.249Z" fill="#DD851B"/>
<path d="M52.188 185.852H179.318C179.588 184.557 179.847 183.253 180.095 181.938H51.3906C51.6391 183.253 51.898 184.568 52.1776 185.852H52.188Z" fill="#DD851B"/>
<path d="M56.8961 202.992H174.686C175.121 201.698 175.535 200.393 175.939 199.078H55.6328C56.0263 200.393 56.4405 201.708 56.8961 202.992Z" fill="#DD851B"/>
<path d="M63.4018 218.875H168.227C168.849 217.591 169.47 216.286 170.05 214.961H61.5586C62.1488 216.297 62.7598 217.602 63.4018 218.875Z" fill="#DD851B"/>
<path d="M72.9498 234.649H158.753C159.674 233.396 160.596 232.091 161.497 230.734H70.1953C71.0962 232.091 71.9971 233.396 72.9498 234.649Z" fill="#DD851B"/>
<path d="M86.2121 248.317H145.527C147.09 247.136 148.623 245.831 150.135 244.402H81.5938C83.116 245.842 84.6589 247.136 86.2225 248.317H86.2121Z" fill="#DD851B"/>
<path d="M94.4556 255.522L95.0355 256.578L95.5222 257.479H120.685C123.233 257.438 125.77 257.148 128.317 256.578C129.591 256.309 130.864 255.947 132.128 255.522C134.375 254.776 136.591 253.824 138.786 252.664H92.9023L94.466 255.522H94.4556Z" fill="#DD851B"/>
<path d="M50.2377 224.995C25.5614 181.835 25.5614 112.124 50.2377 69.2428C74.9038 26.3827 114.906 26.5898 139.582 69.7502C164.248 112.89 164.248 182.642 139.582 225.502C114.906 268.373 74.9038 268.135 50.2377 224.995Z" fill="#FFBB22"/>
<path d="M39.1172 147.023C39.1172 118.908 45.3303 92.6165 56.6278 72.9935C67.1383 54.727 80.6828 44.6824 94.7555 44.7032C108.942 44.7239 122.601 54.9444 133.204 73.4905C144.491 93.2378 150.715 119.602 150.715 147.747C150.715 175.872 144.502 202.164 133.215 221.777C122.704 240.043 109.16 250.088 95.0869 250.067C80.9003 250.046 67.2418 239.826 56.6381 221.28C45.3406 201.522 39.1172 175.147 39.1172 147.023Z" fill="#EF941D"/>
<path d="M46.259 151.152C46.259 123.037 52.2132 96.7454 63.024 77.1224C73.0892 58.8559 86.0643 48.8114 99.5363 48.8321C113.122 48.8528 126.201 59.0733 136.349 77.6194C147.16 97.3668 153.114 123.731 153.114 151.876C153.114 180.001 147.16 206.293 136.349 225.906C126.284 244.172 113.319 254.217 99.8366 254.196C86.2507 254.175 73.1721 243.955 63.0137 225.408C52.1925 205.651 46.2383 179.276 46.2383 151.152H46.259Z" fill="#FFBB22"/>
<path d="M92.1387 206L63.7908 136.945C63.1881 135.477 62.9176 133.742 63.0219 132.011C63.1262 130.28 63.5993 128.652 64.367 127.382C65.1347 126.112 66.1535 125.273 67.2633 124.995C68.3731 124.718 69.5111 125.018 70.4986 125.849L123.501 170.425C124.489 171.256 125.627 171.556 126.737 171.278C127.847 171.001 128.865 170.161 129.633 168.891C130.401 167.621 130.874 165.993 130.978 164.262C131.082 162.532 130.812 160.796 130.209 159.329L101.861 90.2734M63.2652 163.547L120.377 107.497M73.6225 188.777L130.735 132.727" stroke="#EF941D" stroke-width="13.5718" stroke-linecap="round" stroke-linejoin="round"/>
<path d="M125.976 206.137H114.875V261.371H125.976V206.137Z" fill="url(#paint5_linear_3275_31624)"/>
<path d="M161 186H150V261H161V186Z" fill="url(#paint6_linear_3275_31624)"/>
<path d="M194 161H183V261H194V161Z" fill="url(#paint7_linear_3275_31624)"/>
<path d="M137.066 206.137H125.965V261.371H137.066V206.137Z" fill="url(#paint8_linear_3275_31624)"/>
<path d="M172 186H161V261H172V186Z" fill="url(#paint9_linear_3275_31624)"/>
<path d="M205 161H194V261H205V161Z" fill="url(#paint10_linear_3275_31624)"/>
<defs>
<linearGradient id="paint0_linear_3275_31624" x1="146.184" y1="48.5785" x2="181.15" y2="49.0503" gradientUnits="userSpaceOnUse">
<stop stop-color="#FFCC00"/>
<stop offset="1" stop-color="#03599C"/>
</linearGradient>
<linearGradient id="paint1_linear_3275_31624" x1="151.762" y1="62.4419" x2="193.818" y2="63.6307" gradientUnits="userSpaceOnUse">
<stop stop-color="#FFCC00"/>
<stop offset="1" stop-color="#03599C"/>
</linearGradient>
<linearGradient id="paint2_linear_3275_31624" x1="18.2852" y1="190.368" x2="46.2092" y2="190.777" gradientUnits="userSpaceOnUse">
<stop stop-color="#FFCC00"/>
<stop offset="1" stop-color="#03599C"/>
</linearGradient>
<linearGradient id="paint3_linear_3275_31624" x1="49.9844" y1="191.038" x2="101.263" y2="192.65" gradientUnits="userSpaceOnUse">
<stop stop-color="#FFCC00"/>
<stop offset="1" stop-color="#03599C"/>
</linearGradient>
<linearGradient id="paint4_linear_3275_31624" x1="98.8203" y1="33.3766" x2="114.459" y2="33.5406" gradientUnits="userSpaceOnUse">
<stop stop-color="#FFCC00"/>
<stop offset="1" stop-color="#03599C"/>
</linearGradient>
<linearGradient id="paint5_linear_3275_31624" x1="132.5" y1="267.5" x2="98.4552" y2="251.313" gradientUnits="userSpaceOnUse">
<stop stop-color="#FFCC00"/>
<stop offset="1" stop-color="#03599C"/>
</linearGradient>
<linearGradient id="paint6_linear_3275_31624" x1="167.465" y1="269.322" x2="130.547" y2="256.512" gradientUnits="userSpaceOnUse">
<stop stop-color="#FFCC00"/>
<stop offset="1" stop-color="#03599C"/>
</linearGradient>
<linearGradient id="paint7_linear_3275_31624" x1="200.465" y1="272.096" x2="161.726" y2="262.015" gradientUnits="userSpaceOnUse">
<stop stop-color="#FFCC00"/>
<stop offset="1" stop-color="#03599C"/>
</linearGradient>
<linearGradient id="paint8_linear_3275_31624" x1="137" y1="257.5" x2="91.7776" y2="247.19" gradientUnits="userSpaceOnUse">
<stop stop-color="#FFCC00"/>
<stop offset="1" stop-color="#03599C"/>
</linearGradient>
<linearGradient id="paint9_linear_3275_31624" x1="171.935" y1="255.744" x2="126.064" y2="248.112" gradientUnits="userSpaceOnUse">
<stop stop-color="#FFCC00"/>
<stop offset="1" stop-color="#03599C"/>
</linearGradient>
<linearGradient id="paint10_linear_3275_31624" x1="204.935" y1="253.991" x2="158.517" y2="248.199" gradientUnits="userSpaceOnUse">
<stop stop-color="#FFCC00"/>
<stop offset="1" stop-color="#03599C"/>
</linearGradient>
</defs>
</svg>
