<svg width="17" height="19" viewBox="0 0 17 19" fill="none" xmlns="http://www.w3.org/2000/svg">
<path d="M0.833008 6.625H2.74967V0.875H4.66634L7.94384 6.625H12.333V0.875H14.2497V6.625H16.1663V8.54167H14.2497V10.4583H16.1663V12.375H14.2497V18.125H12.333L9.04592 12.375H4.66634V18.125H2.74967V12.375H0.833008V10.4583H2.74967V8.54167H0.833008V6.625ZM4.66634 6.625H5.74926L4.66634 4.73708V6.625ZM4.66634 8.54167V10.4583H7.94384L6.85134 8.54167H4.66634ZM12.333 14.2917V12.375H11.2309L12.333 14.2917ZM9.03634 8.54167L10.1384 10.4583H12.333V8.54167H9.03634Z" fill="url(#paint0_linear_2270_36703)"/>
<defs>
<linearGradient id="paint0_linear_2270_36703" x1="1.61554" y1="-0.0454396" x2="16.3341" y2="0.366612" gradientUnits="userSpaceOnUse">
<stop stop-color="#0C6B8A"/>
<stop offset="1" stop-color="#FFCC00"/>
</linearGradient>
</defs>
</svg>
