<svg width="223" height="336" viewBox="0 0 223 336" fill="none" xmlns="http://www.w3.org/2000/svg">
<g clip-path="url(#clip0_2603_28328)">
<path d="M-0.30957 43.7989C-0.30957 19.6094 19.2999 0 43.4893 0H178.64C202.83 0 222.439 19.6094 222.439 43.7989V292.201C222.439 316.391 202.83 336 178.64 336H44.3009C19.6632 336 -0.30957 316.027 -0.30957 291.39V43.7989Z" fill="#BFDBFE"/>
<g opacity="0.2">
<path d="M-59.1377 96.9805H-4.95308C35.1054 96.9805 71.3695 120.68 87.4511 157.369L112.313 214.088C122.09 236.395 139.607 254.411 161.629 264.813L250.598 306.834" stroke="#A8A1DE" stroke-width="2.01782"/>
<path d="M-54.1104 125.832H6.26831C45.7613 125.832 81.6232 148.875 98.0352 184.796L124.701 243.161C134.827 265.324 152.632 283.074 174.827 293.131L268.741 335.686" stroke="#A8A1DE" stroke-width="2.01782"/>
<path d="M-43.6123 167.195H-7.08481C34.5731 167.195 71.9476 192.798 86.9947 231.644L106.993 283.27C115.714 305.785 132.221 324.426 153.516 335.808L228.794 376.04" stroke="#A8A1DE" stroke-width="2.01782"/>
</g>
</g>
<defs>
<clipPath id="clip0_2603_28328">
<path d="M-0.30957 43.7989C-0.30957 19.6094 19.2999 0 43.4893 0H178.64C202.83 0 222.439 19.6094 222.439 43.7989V292.201C222.439 316.391 202.83 336 178.64 336H-0.30957V43.7989Z" fill="white"/>
</clipPath>
</defs>
</svg>
