<svg width="198" height="43" viewBox="0 0 198 43" fill="none" xmlns="http://www.w3.org/2000/svg">
<g clip-path="url(#clip0_2451_28928)">
<path d="M0.376859 30.9998C0.376859 35.4181 3.95858 38.9998 8.37686 38.9998C12.7951 38.9998 16.3769 35.4181 16.3769 30.9998C16.3769 26.5816 12.7951 22.9998 8.37686 22.9998C3.95858 22.9998 0.376859 26.5816 0.376859 30.9998ZM17.3769 11.4998L18.4674 10.4699L18.4184 10.418L18.3646 10.371L17.3769 11.4998ZM29.1638 17.1177C28.6766 17.7877 28.8247 18.7258 29.4947 19.2131C30.1647 19.7004 31.1028 19.5522 31.5901 18.8823L29.1638 17.1177ZM9.81466 30.5724C8.9119 27.5358 8.03206 23.9625 7.46618 20.5366C6.89543 17.0813 6.66505 13.8959 6.9875 11.5819C7.14907 10.4224 7.43301 9.61106 7.77487 9.10403C8.08027 8.65108 8.41891 8.44698 8.87018 8.39697C9.40002 8.33826 10.2597 8.47753 11.5599 9.14626C12.8451 9.80724 14.4404 10.9236 16.3891 12.6287L18.3646 10.371C16.3133 8.57608 14.5128 7.29142 12.932 6.47843C11.3664 5.6732 9.89015 5.2656 8.53979 5.41522C7.11085 5.57355 6.02501 6.33299 5.28745 7.42691C4.58634 8.46676 4.20882 9.78561 4.01621 11.1678C3.63033 13.9371 3.92079 17.4809 4.50629 21.0256C5.09666 24.5997 6.00848 28.2972 6.93905 31.4273L9.81466 30.5724ZM16.2863 12.5298C18.3177 14.6807 20.2399 17.4017 22.0549 20.128C23.8348 22.8018 25.5519 25.5466 27.0728 27.536C27.8361 28.5345 28.6166 29.4339 29.4029 30.0748C30.1532 30.6864 31.1713 31.2777 32.3455 31.1287C33.5908 30.9706 34.4289 30.0677 34.9857 29.05C35.5479 28.0224 35.987 26.5983 36.3478 24.7942L33.4061 24.2058C33.0669 25.9017 32.6998 26.9776 32.3538 27.6102C32.0023 28.2526 31.8303 28.17 31.9677 28.1526C32.0342 28.1441 31.8468 28.1964 31.2982 27.7494C30.7857 27.3317 30.174 26.653 29.4561 25.7139C28.0145 23.8283 26.4128 21.2606 24.5521 18.4656C22.7264 15.7231 20.686 12.8191 18.4674 10.4699L16.2863 12.5298ZM36.3478 24.7942C37.055 21.2581 37.3204 18.7255 37.228 16.9831C37.182 16.1164 37.0432 15.3354 36.7493 14.6969C36.4413 14.028 35.9117 13.4229 35.0974 13.1851C34.3363 12.9629 33.6207 13.1512 33.0988 13.3845C32.565 13.6231 32.0644 13.9825 31.6226 14.3611C30.7347 15.1222 29.8671 16.1508 29.1638 17.1177L31.5901 18.8823C32.2201 18.0159 32.9317 17.1903 33.575 16.6389C33.8989 16.3613 34.1519 16.1998 34.3231 16.1233C34.5061 16.0415 34.4468 16.1204 34.2565 16.0649C34.013 15.9938 33.9689 15.8314 34.0242 15.9515C34.0935 16.1021 34.1958 16.4565 34.2322 17.1419C34.3044 18.5037 34.0989 20.7419 33.4061 24.2058L36.3478 24.7942Z" fill="url(#paint0_linear_2451_28928)"/>
<path d="M47.757 37H48.827V33.6L48.807 30.86H48.877L51.047 37H51.917L54.087 30.86H54.157L54.127 33.59V37H55.187V29.71H53.527L51.497 35.29H51.457L49.427 29.71H47.757V37ZM59.0262 37.09C60.6162 37.09 61.6062 35.98 61.6062 34.36C61.6062 32.68 60.5662 31.63 59.0262 31.63C57.4262 31.63 56.4362 32.74 56.4362 34.37C56.4362 36.03 57.4762 37.09 59.0262 37.09ZM59.0262 36.23C58.0862 36.23 57.4862 35.55 57.4862 34.37C57.4862 33.15 58.1062 32.48 59.0262 32.48C59.9762 32.48 60.5562 33.17 60.5562 34.36C60.5562 35.56 59.9462 36.23 59.0262 36.23ZM65.5748 37.09C66.8648 37.09 67.7348 36.13 67.7348 34.36C67.7348 32.59 66.8648 31.62 65.5748 31.62C64.6848 31.62 64.0248 32.08 63.7748 32.75H63.7148V29.71H62.6848V37H63.6748L63.7148 35.96H63.7748C64.0248 36.64 64.6848 37.09 65.5748 37.09ZM65.2148 36.24C64.2348 36.24 63.7248 35.47 63.7248 34.65V34.06C63.7248 33.24 64.2348 32.47 65.2148 32.47C66.0948 32.47 66.6748 33.11 66.6748 34.36C66.6748 35.6 66.0948 36.24 65.2148 36.24ZM68.8177 30.9H69.8477V29.71H68.8177V30.9ZM68.8177 37H69.8477V31.71H68.8177V37ZM71.2786 37H72.3086V29.71H71.2786V37ZM75.9395 37.09C77.1895 37.09 78.1495 36.41 78.2895 35.37H77.3095C77.1795 35.92 76.6495 36.27 75.9395 36.27C75.0195 36.27 74.4195 35.65 74.3995 34.56H78.3195C78.4795 32.9 77.6395 31.63 75.8995 31.63C74.3495 31.63 73.3795 32.71 73.3795 34.38C73.3795 36.01 74.3495 37.09 75.9395 37.09ZM75.8895 32.44C76.6695 32.44 77.2795 32.85 77.3095 33.83H74.4195C74.4995 32.97 75.0595 32.44 75.8895 32.44ZM81.6692 38.67H82.6992V35.96H82.7592C83.0192 36.64 83.6792 37.09 84.5592 37.09C85.8492 37.09 86.7192 36.13 86.7192 34.36C86.7192 32.59 85.8492 31.62 84.5592 31.62C83.6792 31.62 83.0192 32.08 82.7592 32.75H82.6992L82.6592 31.71H81.6692V38.67ZM84.1992 36.24C83.2192 36.24 82.7092 35.47 82.7092 34.65V34.06C82.7092 33.24 83.2192 32.47 84.1992 32.47C85.0792 32.47 85.6692 33.11 85.6692 34.36C85.6692 35.6 85.0792 36.24 84.1992 36.24ZM89.7095 37.09C90.5995 37.09 91.2595 36.63 91.5095 35.95H91.5695V37H92.5995V31.71H91.6095L91.5695 32.75H91.5095C91.2595 32.07 90.5995 31.62 89.7095 31.62C88.4195 31.62 87.5495 32.58 87.5495 34.35C87.5495 36.12 88.4195 37.09 89.7095 37.09ZM90.0695 36.24C89.1895 36.24 88.6095 35.59 88.6095 34.35C88.6095 33.1 89.1895 32.46 90.0695 32.46C91.0495 32.46 91.5595 33.24 91.5595 34.05V34.65C91.5595 35.47 91.0495 36.24 90.0695 36.24ZM93.6923 38.67H94.4323C95.2623 38.67 95.7923 38.38 96.1323 37.46L98.3323 31.71H97.2423L96.1023 34.93L95.8923 35.56H95.8523L95.6323 34.93L94.4223 31.71H93.2923L95.3723 36.62L95.1423 37.21C94.9723 37.63 94.7323 37.82 94.2623 37.82H93.6923V38.67ZM99.0227 37H100.043V34.11C100.043 33.2 100.593 32.48 101.473 32.48C102.293 32.48 102.663 32.99 102.663 34.07V37H103.693V34.11C103.693 33.2 104.243 32.48 105.113 32.48C105.943 32.48 106.313 32.99 106.313 34.07V37H107.333V33.86C107.333 32.24 106.553 31.63 105.503 31.63C104.653 31.63 103.933 32.05 103.643 32.87H103.563C103.293 31.97 102.633 31.63 101.853 31.63C101.083 31.63 100.403 32.01 100.103 32.76H100.043L100.003 31.71H99.0227V37ZM110.92 37.09C112.17 37.09 113.13 36.41 113.27 35.37H112.29C112.16 35.92 111.63 36.27 110.92 36.27C110 36.27 109.4 35.65 109.38 34.56H113.3C113.46 32.9 112.62 31.63 110.88 31.63C109.33 31.63 108.36 32.71 108.36 34.38C108.36 36.01 109.33 37.09 110.92 37.09ZM110.87 32.44C111.65 32.44 112.26 32.85 112.29 33.83H109.4C109.48 32.97 110.04 32.44 110.87 32.44ZM114.413 37H115.433V34.11C115.433 33.2 116.003 32.48 116.913 32.48C117.753 32.48 118.143 32.99 118.143 34.07V37H119.173V33.86C119.173 32.24 118.363 31.63 117.283 31.63C116.503 31.63 115.803 32.01 115.493 32.76H115.433L115.393 31.71H114.413V37ZM121.949 37H123.009V36.15H122.289C121.959 36.15 121.839 36.06 121.839 35.71V32.55H123.009V31.71H121.839V30.06L120.809 30.18V31.71H119.809V32.55H120.809V35.9C120.809 36.61 121.079 37 121.949 37Z" fill="#9CA3AF"/>
<path d="M48.109 20H49.663V15.1L49.607 11.922H49.691L54.969 20H56.761V9.794H55.277V14.554L55.361 17.97H55.263L49.985 9.794H48.109V20ZM62.0802 20.126C63.8302 20.126 65.1742 19.174 65.3702 17.718H63.9982C63.8162 18.488 63.0742 18.978 62.0802 18.978C60.7922 18.978 59.9522 18.11 59.9242 16.584H65.4122C65.6362 14.26 64.4602 12.482 62.0242 12.482C59.8542 12.482 58.4962 13.994 58.4962 16.332C58.4962 18.614 59.8542 20.126 62.0802 20.126ZM62.0102 13.616C63.1022 13.616 63.9562 14.19 63.9982 15.562H59.9522C60.0642 14.358 60.8482 13.616 62.0102 13.616ZM69.6276 20.126C70.8736 20.126 71.7976 19.482 72.1476 18.53H72.2316V20H73.6736V12.594H72.2876L72.2316 14.05H72.1476C71.7976 13.098 70.8736 12.468 69.6276 12.468C67.8216 12.468 66.6036 13.812 66.6036 16.29C66.6036 18.768 67.8216 20.126 69.6276 20.126ZM70.1316 18.936C68.8996 18.936 68.0876 18.026 68.0876 16.29C68.0876 14.54 68.8996 13.644 70.1316 13.644C71.5036 13.644 72.2176 14.736 72.2176 15.87V16.71C72.2176 17.858 71.5036 18.936 70.1316 18.936ZM75.6935 20H77.1215V15.772C77.1915 14.554 77.9335 13.868 79.2495 13.868C79.4175 13.868 79.5855 13.868 79.6975 13.882V12.524C79.5715 12.51 79.4315 12.496 79.2635 12.496C78.2835 12.496 77.4435 12.958 77.1215 13.91H77.0515L76.9815 12.594H75.6935V20ZM80.9572 20H82.3992V9.794H80.9572V20ZM83.9125 22.338H84.9485C86.1105 22.338 86.8525 21.932 87.3285 20.644L90.4085 12.594H88.8825L87.2865 17.102L86.9925 17.984H86.9365L86.6285 17.102L84.9345 12.594H83.3525L86.2645 19.468L85.9425 20.294C85.7045 20.882 85.3685 21.148 84.7105 21.148H83.9125V22.338Z" fill="#1E2C31"/>
<path d="M102.504 17.536C102.288 17.536 102.092 17.5013 101.916 17.432C101.743 17.3627 101.592 17.264 101.464 17.136C101.339 17.0053 101.243 16.848 101.176 16.664C101.109 16.48 101.076 16.2733 101.076 16.044C101.076 15.812 101.109 15.604 101.176 15.42C101.243 15.236 101.34 15.08 101.468 14.952C101.596 14.8213 101.747 14.7227 101.92 14.656C102.093 14.5867 102.288 14.552 102.504 14.552C102.744 14.552 102.957 14.5933 103.144 14.676C103.333 14.7587 103.488 14.876 103.608 15.028C103.728 15.1773 103.801 15.3547 103.828 15.56H103.388C103.361 15.4373 103.308 15.3293 103.228 15.236C103.151 15.14 103.051 15.0653 102.928 15.012C102.805 14.956 102.664 14.928 102.504 14.928C102.304 14.928 102.129 14.972 101.98 15.06C101.833 15.148 101.72 15.2747 101.64 15.44C101.563 15.6053 101.524 15.8067 101.524 16.044C101.524 16.22 101.547 16.3773 101.592 16.516C101.637 16.6547 101.703 16.772 101.788 16.868C101.873 16.9613 101.976 17.0333 102.096 17.084C102.219 17.1347 102.355 17.16 102.504 17.16C102.661 17.16 102.801 17.1333 102.924 17.08C103.049 17.0267 103.152 16.952 103.232 16.856C103.312 16.7573 103.364 16.6427 103.388 16.512L103.828 16.516C103.804 16.7213 103.732 16.9013 103.612 17.056C103.495 17.208 103.34 17.3267 103.148 17.412C102.959 17.4947 102.744 17.536 102.504 17.536ZM105.198 17.536C105.043 17.536 104.902 17.5107 104.774 17.46C104.648 17.4093 104.54 17.336 104.45 17.24C104.359 17.144 104.288 17.0293 104.238 16.896C104.187 16.7627 104.162 16.6133 104.162 16.448C104.162 16.2293 104.203 16.0387 104.286 15.876C104.371 15.7107 104.491 15.5827 104.646 15.492C104.803 15.3987 104.987 15.352 105.198 15.352C105.352 15.352 105.492 15.3773 105.618 15.428C105.746 15.476 105.855 15.548 105.946 15.644C106.036 15.74 106.106 15.856 106.154 15.992C106.204 16.1253 106.23 16.276 106.23 16.444C106.23 16.66 106.188 16.8507 106.106 17.016C106.023 17.1787 105.904 17.3067 105.75 17.4C105.595 17.4907 105.411 17.536 105.198 17.536ZM105.198 17.192C105.32 17.192 105.427 17.164 105.518 17.108C105.611 17.0493 105.683 16.964 105.734 16.852C105.784 16.74 105.81 16.604 105.81 16.444C105.81 16.324 105.795 16.2187 105.766 16.128C105.739 16.0347 105.699 15.956 105.646 15.892C105.592 15.8253 105.528 15.776 105.454 15.744C105.379 15.7093 105.294 15.692 105.198 15.692C105.075 15.692 104.967 15.7213 104.874 15.78C104.783 15.8387 104.711 15.924 104.658 16.036C104.607 16.1453 104.582 16.2827 104.582 16.448C104.582 16.5653 104.595 16.6707 104.622 16.764C104.651 16.8547 104.692 16.932 104.746 16.996C104.802 17.06 104.867 17.1093 104.942 17.144C105.019 17.176 105.104 17.192 105.198 17.192ZM106.661 17.5V15.384H107.053L107.069 15.804H107.093C107.152 15.6547 107.244 15.5427 107.369 15.468C107.497 15.3907 107.638 15.352 107.793 15.352C107.948 15.352 108.086 15.3893 108.209 15.464C108.334 15.5387 108.424 15.6667 108.477 15.848H108.509C108.568 15.6827 108.664 15.5587 108.797 15.476C108.933 15.3933 109.085 15.352 109.253 15.352C109.392 15.352 109.516 15.3813 109.625 15.44C109.737 15.4987 109.825 15.5933 109.889 15.724C109.953 15.8547 109.985 16.028 109.985 16.244V17.5H109.577V16.328C109.577 16.184 109.56 16.0653 109.525 15.972C109.49 15.876 109.438 15.8053 109.369 15.76C109.3 15.7147 109.209 15.692 109.097 15.692C108.982 15.692 108.882 15.7213 108.797 15.78C108.712 15.8387 108.645 15.9173 108.597 16.016C108.552 16.112 108.529 16.2213 108.529 16.344V17.5H108.117V16.328C108.117 16.184 108.1 16.0653 108.065 15.972C108.03 15.876 107.978 15.8053 107.909 15.76C107.84 15.7147 107.75 15.692 107.641 15.692C107.524 15.692 107.422 15.7213 107.337 15.78C107.252 15.8387 107.185 15.9173 107.137 16.016C107.092 16.112 107.069 16.2213 107.069 16.344V17.5H106.661ZM110.54 17.5V15.384H110.952V17.5H110.54ZM110.54 15.06V14.584H110.952V15.06H110.54ZM111.524 17.5V15.384H111.916L111.932 15.804H111.956C112.018 15.6547 112.114 15.5427 112.244 15.468C112.375 15.3907 112.518 15.352 112.672 15.352C112.782 15.352 112.882 15.368 112.972 15.4C113.066 15.432 113.146 15.484 113.212 15.556C113.282 15.6253 113.335 15.7173 113.372 15.832C113.41 15.944 113.428 16.0813 113.428 16.244V17.5H113.016V16.328C113.016 16.184 112.999 16.0653 112.964 15.972C112.93 15.876 112.876 15.8053 112.804 15.76C112.732 15.7147 112.639 15.692 112.524 15.692C112.404 15.692 112.299 15.7213 112.208 15.78C112.12 15.8387 112.052 15.9173 112.004 16.016C111.956 16.112 111.932 16.2213 111.932 16.344V17.5H111.524ZM114.821 18.208C114.653 18.208 114.507 18.1827 114.381 18.132C114.256 18.084 114.156 18.0147 114.081 17.924C114.007 17.8333 113.961 17.7253 113.945 17.6H114.345C114.356 17.6613 114.383 17.7147 114.425 17.76C114.468 17.808 114.523 17.844 114.589 17.868C114.659 17.892 114.739 17.904 114.829 17.904C114.957 17.904 115.064 17.8853 115.149 17.848C115.235 17.8133 115.3 17.756 115.345 17.676C115.391 17.596 115.413 17.4907 115.413 17.36V16.948H115.385C115.337 17.076 115.252 17.18 115.129 17.26C115.007 17.3373 114.861 17.376 114.693 17.376C114.565 17.376 114.448 17.3547 114.341 17.312C114.237 17.2667 114.148 17.2013 114.073 17.116C113.999 17.028 113.941 16.9213 113.901 16.796C113.861 16.668 113.841 16.524 113.841 16.364C113.841 16.148 113.877 15.964 113.949 15.812C114.021 15.66 114.121 15.5453 114.249 15.468C114.377 15.388 114.527 15.348 114.697 15.348C114.865 15.348 115.009 15.3867 115.129 15.464C115.252 15.5413 115.337 15.6453 115.385 15.776H115.413L115.421 15.384H115.821V17.304C115.821 17.4693 115.797 17.6093 115.749 17.724C115.701 17.8413 115.633 17.9347 115.545 18.004C115.457 18.076 115.351 18.128 115.225 18.16C115.103 18.192 114.968 18.208 114.821 18.208ZM114.833 17.056C114.956 17.056 115.06 17.028 115.145 16.972C115.231 16.916 115.296 16.8453 115.341 16.76C115.387 16.672 115.411 16.5813 115.413 16.488L115.409 16.232C115.407 16.1413 115.384 16.0533 115.341 15.968C115.299 15.88 115.235 15.8093 115.149 15.756C115.067 15.7 114.963 15.672 114.837 15.672C114.72 15.672 114.619 15.6987 114.533 15.752C114.448 15.8053 114.381 15.884 114.333 15.988C114.288 16.092 114.265 16.2173 114.265 16.364C114.265 16.5133 114.288 16.64 114.333 16.744C114.381 16.8453 114.448 16.9227 114.533 16.976C114.619 17.0293 114.719 17.056 114.833 17.056ZM118.31 17.536C118.052 17.536 117.837 17.496 117.666 17.416C117.496 17.336 117.368 17.2253 117.282 17.084C117.197 16.94 117.153 16.7747 117.15 16.588H117.598C117.601 16.7107 117.628 16.8187 117.678 16.912C117.732 17.0027 117.81 17.072 117.914 17.12C118.018 17.168 118.153 17.192 118.318 17.192C118.524 17.192 118.688 17.1547 118.81 17.08C118.936 17.0053 118.998 16.8907 118.998 16.736C118.998 16.648 118.985 16.5747 118.958 16.516C118.932 16.4573 118.888 16.4093 118.826 16.372C118.768 16.332 118.689 16.2987 118.59 16.272C118.492 16.2453 118.372 16.22 118.23 16.196C118.062 16.1667 117.914 16.132 117.786 16.092C117.661 16.0493 117.556 15.9973 117.47 15.936C117.388 15.872 117.325 15.7947 117.282 15.704C117.24 15.6133 117.218 15.5067 117.218 15.384C117.218 15.2133 117.261 15.0653 117.346 14.94C117.432 14.8147 117.554 14.7187 117.714 14.652C117.874 14.5853 118.066 14.552 118.29 14.552C118.514 14.552 118.705 14.588 118.862 14.66C119.02 14.7293 119.141 14.828 119.226 14.956C119.312 15.0813 119.356 15.2307 119.358 15.404H118.914C118.912 15.2867 118.882 15.1907 118.826 15.116C118.773 15.0387 118.698 14.9813 118.602 14.944C118.509 14.9067 118.4 14.888 118.274 14.888C118.146 14.888 118.037 14.9067 117.946 14.944C117.858 14.9787 117.79 15.0293 117.742 15.096C117.694 15.16 117.67 15.236 117.67 15.324C117.67 15.4307 117.696 15.5133 117.746 15.572C117.8 15.6307 117.884 15.6773 117.998 15.712C118.113 15.744 118.264 15.7773 118.45 15.812C118.581 15.8307 118.705 15.8573 118.822 15.892C118.942 15.9267 119.049 15.9747 119.142 16.036C119.238 16.0973 119.313 16.1813 119.366 16.288C119.422 16.392 119.45 16.528 119.45 16.696C119.45 16.8613 119.406 17.008 119.318 17.136C119.233 17.2613 119.105 17.36 118.934 17.432C118.766 17.5013 118.558 17.536 118.31 17.536ZM120.807 17.536C120.652 17.536 120.511 17.5107 120.383 17.46C120.258 17.4093 120.15 17.336 120.059 17.24C119.968 17.144 119.898 17.0293 119.847 16.896C119.796 16.7627 119.771 16.6133 119.771 16.448C119.771 16.2293 119.812 16.0387 119.895 15.876C119.98 15.7107 120.1 15.5827 120.255 15.492C120.412 15.3987 120.596 15.352 120.807 15.352C120.962 15.352 121.102 15.3773 121.227 15.428C121.355 15.476 121.464 15.548 121.555 15.644C121.646 15.74 121.715 15.856 121.763 15.992C121.814 16.1253 121.839 16.276 121.839 16.444C121.839 16.66 121.798 16.8507 121.715 17.016C121.632 17.1787 121.514 17.3067 121.359 17.4C121.204 17.4907 121.02 17.536 120.807 17.536ZM120.807 17.192C120.93 17.192 121.036 17.164 121.127 17.108C121.22 17.0493 121.292 16.964 121.343 16.852C121.394 16.74 121.419 16.604 121.419 16.444C121.419 16.324 121.404 16.2187 121.375 16.128C121.348 16.0347 121.308 15.956 121.255 15.892C121.202 15.8253 121.138 15.776 121.063 15.744C120.988 15.7093 120.903 15.692 120.807 15.692C120.684 15.692 120.576 15.7213 120.483 15.78C120.392 15.8387 120.32 15.924 120.267 16.036C120.216 16.1453 120.191 16.2827 120.191 16.448C120.191 16.5653 120.204 16.6707 120.231 16.764C120.26 16.8547 120.302 16.932 120.355 16.996C120.411 17.06 120.476 17.1093 120.551 17.144C120.628 17.176 120.714 17.192 120.807 17.192ZM123.201 17.536C123.047 17.536 122.905 17.5107 122.777 17.46C122.652 17.4093 122.544 17.336 122.453 17.24C122.363 17.144 122.292 17.0293 122.241 16.896C122.191 16.7627 122.165 16.6133 122.165 16.448C122.165 16.2293 122.207 16.0387 122.289 15.876C122.375 15.7107 122.495 15.5827 122.649 15.492C122.807 15.3987 122.991 15.352 123.201 15.352C123.356 15.352 123.496 15.3773 123.621 15.428C123.749 15.476 123.859 15.548 123.949 15.644C124.04 15.74 124.109 15.856 124.157 15.992C124.208 16.1253 124.233 16.276 124.233 16.444C124.233 16.66 124.192 16.8507 124.109 17.016C124.027 17.1787 123.908 17.3067 123.753 17.4C123.599 17.4907 123.415 17.536 123.201 17.536ZM123.201 17.192C123.324 17.192 123.431 17.164 123.521 17.108C123.615 17.0493 123.687 16.964 123.737 16.852C123.788 16.74 123.813 16.604 123.813 16.444C123.813 16.324 123.799 16.2187 123.769 16.128C123.743 16.0347 123.703 15.956 123.649 15.892C123.596 15.8253 123.532 15.776 123.457 15.744C123.383 15.7093 123.297 15.692 123.201 15.692C123.079 15.692 122.971 15.7213 122.877 15.78C122.787 15.8387 122.715 15.924 122.661 16.036C122.611 16.1453 122.585 16.2827 122.585 16.448C122.585 16.5653 122.599 16.6707 122.625 16.764C122.655 16.8547 122.696 16.932 122.749 16.996C122.805 17.06 122.871 17.1093 122.945 17.144C123.023 17.176 123.108 17.192 123.201 17.192ZM124.665 17.5V15.384H125.057L125.073 15.804H125.097C125.158 15.6547 125.254 15.5427 125.385 15.468C125.516 15.3907 125.658 15.352 125.813 15.352C125.922 15.352 126.022 15.368 126.113 15.4C126.206 15.432 126.286 15.484 126.353 15.556C126.422 15.6253 126.476 15.7173 126.513 15.832C126.55 15.944 126.569 16.0813 126.569 16.244V17.5H126.157V16.328C126.157 16.184 126.14 16.0653 126.105 15.972C126.07 15.876 126.017 15.8053 125.945 15.76C125.873 15.7147 125.78 15.692 125.665 15.692C125.545 15.692 125.44 15.7213 125.349 15.78C125.261 15.8387 125.193 15.9173 125.145 16.016C125.097 16.112 125.073 16.2213 125.073 16.344V17.5H124.665Z" fill="#9CA3AF"/>
<rect x="96.1526" y="9.8753" width="35.4486" height="12.2486" rx="6.12431" stroke="#9CA3AF" stroke-width="0.551376"/>
<g clip-path="url(#clip1_2451_28928)">
<mask id="mask0_2451_28928" style="mask-type:luminance" maskUnits="userSpaceOnUse" x="132" y="5" width="22" height="22">
<path d="M153.5 5H132V26.5H153.5V5Z" fill="white"/>
</mask>
<g mask="url(#mask0_2451_28928)">
<mask id="mask1_2451_28928" style="mask-type:luminance" maskUnits="userSpaceOnUse" x="132" y="5" width="22" height="22">
<path d="M132 5H153.5V26.5H132V5Z" fill="white"/>
</mask>
<g mask="url(#mask1_2451_28928)">
<path d="M142.751 8.82227C138.925 8.82227 135.824 11.9234 135.824 15.7488C135.824 19.5743 138.925 22.6755 142.751 22.6755C146.576 22.6755 149.677 19.5743 149.677 15.7488C149.677 11.9234 146.576 8.82227 142.751 8.82227Z" fill="#DE5A00"/>
<path d="M142.751 8.82227C138.925 8.82227 135.824 11.9234 135.824 15.7488C135.824 19.5743 138.925 22.6755 142.751 22.6755C146.576 22.6755 149.677 19.5743 149.677 15.7488C149.677 11.9234 146.576 8.82227 142.751 8.82227Z" fill="#EF7B00"/>
<path d="M142.751 8.82227C138.925 8.82227 135.824 11.9234 135.824 15.7488C135.824 19.5743 138.925 22.6755 142.751 22.6755C146.576 22.6755 149.677 19.5743 149.677 15.7488C149.677 11.9234 146.576 8.82227 142.751 8.82227ZM142.751 20.873C139.921 20.873 137.627 18.5789 137.627 15.7488C137.627 12.9188 139.921 10.6247 142.751 10.6247C145.581 10.6247 147.875 12.9188 147.875 15.7488C147.875 18.5789 145.581 20.873 142.751 20.873Z" fill="#DE5A00"/>
<path d="M144.043 15.3901C143.79 15.2905 143.486 15.1997 143.132 15.1174V13.5586C143.25 13.6022 143.347 13.6654 143.423 13.7486C143.481 13.8111 143.528 13.8794 143.565 13.9537C143.701 14.2286 143.987 14.4123 144.313 14.4123H144.359C145.003 14.4123 145.411 13.7591 145.078 13.248C144.967 13.0779 144.828 12.9221 144.66 12.7806C144.259 12.4419 143.75 12.2402 143.132 12.1755V11.8137C143.132 11.6038 142.962 11.4336 142.752 11.4336C142.542 11.4336 142.372 11.6038 142.372 11.8137V12.1642C141.736 12.2127 141.211 12.4169 140.796 12.7773C140.316 13.194 140.076 13.713 140.076 14.3347C140.076 15.3945 140.842 16.1001 142.372 16.4519V18.0578C142.172 18.0176 142.003 17.9402 141.864 17.8248C141.758 17.7363 141.676 17.6285 141.619 17.5011C141.497 17.2301 141.203 17.0607 140.887 17.0607C140.277 17.0607 139.884 17.6704 140.183 18.1637C140.199 18.1901 140.215 18.2163 140.233 18.2424C140.473 18.6072 140.806 18.8943 141.229 19.1036C141.57 19.2723 141.951 19.373 142.372 19.4057V19.6848C142.372 19.8947 142.542 20.0649 142.752 20.0649C142.962 20.0649 143.132 19.8947 143.132 19.6848V19.3955C143.737 19.3341 144.246 19.1441 144.657 18.8252C145.167 18.4302 145.422 17.9133 145.422 17.2744C145.422 16.3808 144.962 15.7527 144.043 15.3901ZM142.024 14.7458C141.841 14.6185 141.75 14.4512 141.75 14.244C141.75 14.0238 141.83 13.8425 141.991 13.7001C142.091 13.6105 142.219 13.5492 142.372 13.5159V14.9167C142.227 14.8637 142.111 14.8068 142.024 14.7458ZM143.474 17.8862C143.384 17.9587 143.269 18.0111 143.132 18.045V16.6728C143.243 16.7171 143.337 16.7633 143.414 16.8114C143.625 16.9431 143.73 17.1233 143.73 17.3521C143.73 17.5722 143.645 17.7503 143.474 17.8862Z" fill="#DE5A00"/>
<path d="M142.751 8.82227C138.925 8.82227 135.824 11.9234 135.824 15.7488C135.824 19.5743 138.925 22.6755 142.751 22.6755C146.576 22.6755 149.677 19.5743 149.677 15.7488C149.677 11.9234 146.576 8.82227 142.751 8.82227ZM142.751 20.873C139.921 20.873 137.627 18.5789 137.627 15.7488C137.627 12.9188 139.921 10.6247 142.751 10.6247C145.581 10.6247 147.875 12.9188 147.875 15.7488C147.875 18.5789 145.581 20.873 142.751 20.873Z" fill="#FFC711"/>
<mask id="mask2_2451_28928" style="mask-type:alpha" maskUnits="userSpaceOnUse" x="135" y="8" width="15" height="15">
<mask id="mask3_2451_28928" style="mask-type:luminance" maskUnits="userSpaceOnUse" x="132" y="5" width="22" height="22">
<path d="M132 5H153.5V26.5H132V5Z" fill="white"/>
</mask>
<g mask="url(#mask3_2451_28928)">
<path d="M142.751 8.82812C138.925 8.82812 135.824 11.9292 135.824 15.7547C135.824 19.5802 138.925 22.6814 142.751 22.6814C146.576 22.6814 149.677 19.5802 149.677 15.7547C149.677 11.9292 146.576 8.82812 142.751 8.82812ZM142.751 20.8789C139.921 20.8789 137.627 18.5847 137.627 15.7547C137.627 12.9247 139.921 10.6305 142.751 10.6305C145.581 10.6305 147.875 12.9247 147.875 15.7547C147.875 18.5847 145.581 20.8789 142.751 20.8789Z" fill="#FFC711"/>
<path d="M144.044 15.3901C143.791 15.2905 143.487 15.1997 143.133 15.1174V13.5586C143.251 13.6022 143.348 13.6654 143.424 13.7486C143.482 13.8111 143.529 13.8794 143.566 13.9537C143.702 14.2286 143.988 14.4123 144.314 14.4123H144.36C145.004 14.4123 145.412 13.7591 145.079 13.248C144.968 13.0779 144.829 12.9221 144.661 12.7806C144.26 12.4419 143.751 12.2402 143.133 12.1755V11.8137C143.133 11.6038 142.963 11.4336 142.753 11.4336C142.543 11.4336 142.373 11.6038 142.373 11.8137V12.1642C141.737 12.2127 141.211 12.4169 140.797 12.7773C140.317 13.194 140.077 13.713 140.077 14.3347C140.077 15.3945 140.843 16.1001 142.373 16.4519V18.0578C142.173 18.0176 142.004 17.9402 141.865 17.8248C141.759 17.7363 141.677 17.6285 141.62 17.5011C141.498 17.2301 141.204 17.0607 140.888 17.0607C140.278 17.0607 139.885 17.6704 140.184 18.1637C140.2 18.1901 140.216 18.2163 140.234 18.2424C140.474 18.6072 140.807 18.8943 141.23 19.1036C141.571 19.2723 141.952 19.373 142.373 19.4057V19.6848C142.373 19.8947 142.543 20.0649 142.753 20.0649C142.963 20.0649 143.133 19.8947 143.133 19.6848V19.3955C143.738 19.3341 144.247 19.1441 144.658 18.8252C145.168 18.4302 145.423 17.9133 145.423 17.2744C145.423 16.3808 144.963 15.7527 144.044 15.3901ZM142.025 14.7458C141.842 14.6185 141.751 14.4512 141.751 14.244C141.751 14.0238 141.831 13.8425 141.992 13.7001C142.092 13.6105 142.22 13.5492 142.373 13.5159V14.9167C142.228 14.8637 142.112 14.8068 142.025 14.7458ZM143.475 17.8862C143.385 17.9587 143.27 18.0111 143.133 18.045V16.6728C143.244 16.7171 143.338 16.7633 143.415 16.8114C143.626 16.9431 143.731 17.1233 143.731 17.3521C143.731 17.5722 143.646 17.7503 143.475 17.8862Z" fill="#FFC711"/>
</g>
</mask>
<g mask="url(#mask2_2451_28928)">
<path d="M147.528 8.29971L137.881 24.3544L134.262 22.1797L143.908 6.125L147.528 8.29971Z" fill="#FFE286"/>
</g>
</g>
</g>
<circle cx="142.75" cy="15.7501" r="4.65833" fill="#EF7B00"/>
<path d="M140.958 17.8996V13.9766C140.958 13.8932 140.986 13.8122 141.037 13.7462C141.088 13.6803 141.159 13.6332 141.24 13.6122C141.32 13.5913 141.406 13.5978 141.482 13.6307C141.559 13.6635 141.623 13.7209 141.663 13.7938L143.836 17.7054C143.876 17.7783 143.94 17.8357 144.017 17.8685C144.093 17.9014 144.179 17.9079 144.259 17.887C144.34 17.8661 144.412 17.8189 144.463 17.753C144.514 17.687 144.541 17.606 144.541 17.5226V13.5996M140.241 15.0329H145.258M140.241 16.4663H145.258" stroke="#FFE286" stroke-width="0.716667" stroke-linecap="round" stroke-linejoin="round"/>
</g>
</g>
<defs>
<linearGradient id="paint0_linear_2451_28928" x1="6.89252" y1="5.59801" x2="36.0553" y2="6.75605" gradientUnits="userSpaceOnUse">
<stop stop-color="#0C6B8A"/>
<stop offset="1" stop-color="#FFCC00"/>
</linearGradient>
<clipPath id="clip0_2451_28928">
<rect width="198" height="43" fill="white"/>
</clipPath>
<clipPath id="clip1_2451_28928">
<rect width="21.5" height="21.5" fill="white" transform="translate(132 5)"/>
</clipPath>
</defs>
</svg>
