<svg width="482" height="78" viewBox="0 0 482 78" fill="none" xmlns="http://www.w3.org/2000/svg">
<path d="M39.585 23.5002V44.8852L13.455 7.64016H2.665C5.59 9.39516 5.915 13.4252 5.915 16.4802V41.0502C5.915 43.5202 5.915 45.9902 5.785 48.3952C5.59 52.5552 5.395 55.6752 0.975 56.9102H17.745C10.465 54.7002 7.475 48.2652 7.475 41.0502V15.3102L36.465 56.9102H41.145V23.5002C41.145 21.0302 41.145 18.5602 41.275 16.1552C41.47 11.9952 41.665 8.87515 46.085 7.64016H29.315C36.595 9.85015 39.585 16.2852 39.585 23.5002ZM74.8216 40.2052V38.6452C74.8216 30.2602 69.4266 24.9952 61.0416 24.9952C51.8116 24.9952 46.2866 32.8602 46.2866 41.5052C46.2866 50.4752 52.7866 57.5602 61.8866 57.5602C68.3216 57.5602 71.9616 54.7652 74.9516 49.3702L74.4316 48.9802C73.0666 50.3452 69.0366 50.8002 67.2166 50.8002C60.9116 50.8002 57.4016 46.3802 56.1666 40.9852L74.8216 40.2052ZM66.1116 33.4452C66.1116 36.6302 63.9666 38.1902 61.0416 38.6452C59.2866 38.9052 57.5966 39.1652 55.8416 39.3602C55.7116 38.3852 55.6466 37.4102 55.6466 36.4352C55.6466 33.7702 56.6216 26.5552 60.3916 26.5552C63.7066 26.5552 66.1116 30.4552 66.1116 33.4452ZM105.29 40.2052V38.6452C105.29 30.2602 99.8954 24.9952 91.5104 24.9952C82.2804 24.9952 76.7554 32.8602 76.7554 41.5052C76.7554 50.4752 83.2554 57.5602 92.3554 57.5602C98.7904 57.5602 102.43 54.7652 105.42 49.3702L104.9 48.9802C103.535 50.3452 99.5054 50.8002 97.6854 50.8002C91.3804 50.8002 87.8704 46.3802 86.6354 40.9852L105.29 40.2052ZM96.5804 33.4452C96.5804 36.6302 94.4354 38.1902 91.5104 38.6452C89.7554 38.9052 88.0654 39.1652 86.3104 39.3602C86.1804 38.3852 86.1154 37.4102 86.1154 36.4352C86.1154 33.7702 87.0904 26.5552 90.8604 26.5552C94.1754 26.5552 96.5804 30.4552 96.5804 33.4452ZM137.334 10.8902C132.069 13.8802 130.249 14.6602 124.204 15.6352C126.479 18.3652 127.844 20.4452 127.844 24.1502V27.0752C126.739 26.5552 122.579 24.8002 121.409 24.8002C111.984 24.8002 106.589 32.9252 106.589 41.7002C106.589 50.0852 111.529 57.4952 120.564 57.4952C124.334 57.4952 126.414 56.3252 127.844 54.2452V56.9102H140.584C137.659 55.2852 137.334 51.0602 137.334 48.0702V10.8902ZM127.844 50.7352C127.519 50.7352 127.129 50.7352 126.674 50.7352C119.134 50.7352 115.559 43.7802 115.559 37.0852C115.559 32.7952 117.379 26.4252 122.644 26.4252C126.999 26.4252 127.844 31.4952 127.844 34.8752V50.7352ZM184.169 31.6902C183.129 27.9202 180.399 24.9952 175.914 24.9952C175.199 24.9952 167.659 29.4152 166.489 30.5852V25.5152C161.224 28.5702 159.404 29.3502 153.359 30.3252C155.634 33.0552 156.999 35.1352 156.999 38.8402V48.0702C156.999 50.9952 156.479 55.2852 153.684 56.9102H169.739C166.814 55.2852 166.489 51.0602 166.489 48.0702V34.4202C166.944 32.0152 168.374 29.8052 171.039 29.8052C174.224 29.8052 175.134 32.9252 175.134 35.5902V48.0702C175.134 50.9952 174.679 55.2852 171.884 56.9102H187.939C185.079 55.2852 184.624 51.0602 184.624 48.0702V35.5902C184.754 32.8602 186.184 29.8052 189.304 29.8052C192.489 29.8052 193.399 32.9252 193.399 35.5902V48.0702C193.399 50.9952 192.944 55.2852 190.149 56.9102H206.204C203.344 55.2852 202.889 51.0602 202.889 48.0702V35.3302C202.889 29.9352 200.029 24.9952 194.179 24.9952C193.399 24.9952 184.689 30.3252 184.104 31.2352L184.169 31.6902ZM222.485 24.9952C213.45 24.9952 206.755 32.4702 206.755 41.3102C206.755 50.2152 213.45 57.5602 222.485 57.5602C231.52 57.5602 238.15 50.1502 238.15 41.3102C238.15 32.4702 231.52 24.9952 222.485 24.9952ZM224.565 55.8052C218.065 55.8052 215.855 40.3352 215.855 35.7202C215.855 33.3152 216.18 26.8802 219.755 26.8802C226.71 26.8802 228.92 41.3102 228.92 46.3152C228.92 48.9802 228.465 55.8052 224.565 55.8052ZM251.167 32.6652V25.5152C245.902 28.5702 244.082 29.3502 238.037 30.3252C240.312 33.0552 241.677 35.1352 241.677 38.8402V48.0702C241.677 50.9952 241.157 55.2852 238.362 56.9102H254.417C251.557 55.2852 251.167 51.0602 251.167 48.0702V36.2402C251.167 34.3552 253.117 32.7302 254.872 32.7302C257.147 32.7302 258.837 34.4852 258.837 36.6952C258.837 37.2802 258.707 37.8002 258.577 38.3202C262.867 38.3202 266.377 35.5252 266.377 31.1052C266.377 27.7252 264.167 24.9952 260.657 24.9952C256.237 24.9952 252.857 28.9602 251.167 32.6652ZM294.514 40.2052V38.6452C294.514 30.2602 289.119 24.9952 280.734 24.9952C271.504 24.9952 265.979 32.8602 265.979 41.5052C265.979 50.4752 272.479 57.5602 281.579 57.5602C288.014 57.5602 291.654 54.7652 294.644 49.3702L294.124 48.9802C292.759 50.3452 288.729 50.8002 286.909 50.8002C280.604 50.8002 277.094 46.3802 275.859 40.9852L294.514 40.2052ZM285.804 33.4452C285.804 36.6302 283.659 38.1902 280.734 38.6452C278.979 38.9052 277.289 39.1652 275.534 39.3602C275.404 38.3852 275.339 37.4102 275.339 36.4352C275.339 33.7702 276.314 26.5552 280.084 26.5552C283.399 26.5552 285.804 30.4552 285.804 33.4452ZM328.072 38.8402V48.0702C328.072 50.9952 327.552 55.2852 324.757 56.9102H340.812C337.887 55.2852 337.562 51.0602 337.562 48.0702V34.4202C337.562 32.2102 339.837 29.8052 342.112 29.8052C345.297 29.8052 346.207 32.9252 346.207 35.5902V48.0702C346.207 50.9952 345.752 55.2852 342.957 56.9102H359.012C356.152 55.2852 355.697 51.0602 355.697 48.0702V35.3302C355.697 29.9352 352.837 24.9952 346.987 24.9952C346.207 24.9952 338.342 29.6752 337.562 30.5202V25.5152C338.407 24.1502 338.797 22.5252 338.797 20.9002C338.797 13.2952 331.842 9.78515 325.082 9.78515C319.427 9.78515 311.107 12.3852 311.107 19.2752C311.107 21.8752 313.252 24.0202 315.852 24.0202C318.452 24.0202 320.597 21.8752 320.597 19.2752C320.597 16.6752 318.452 14.5302 315.852 14.5302C317.802 12.1902 321.182 11.2802 324.172 11.2802C329.567 11.2802 335.027 14.6602 335.027 20.5102C335.027 26.3602 329.502 29.4802 324.432 30.3252C326.707 33.0552 328.072 35.1352 328.072 38.8402ZM308.052 30.3252C310.327 33.0552 311.692 35.1352 311.692 38.8402V48.0702C311.692 50.9952 311.172 55.2852 308.377 56.9102H324.432C321.507 55.2852 321.182 51.0602 321.182 48.0702V25.5152C315.917 28.5702 314.097 29.3502 308.052 30.3252ZM376.378 11.5402C367.798 11.5402 363.053 17.2602 363.053 25.5152H359.348V27.0752H362.923V48.0702C362.923 50.9952 362.403 55.2852 359.608 56.9102H375.663C372.738 55.2852 372.413 51.0602 372.413 48.0702V27.0752H379.823V25.5152C375.533 25.5152 369.423 24.0202 369.423 18.6252C369.423 15.9602 371.373 13.2302 374.233 13.2302C375.923 13.2302 377.223 14.2702 377.223 16.0252C377.223 17.6502 376.053 18.7552 374.428 18.7552C375.208 21.2252 377.093 23.3702 379.823 23.3702C382.813 23.3702 385.088 21.2252 385.088 18.1702C385.088 13.4902 380.408 11.5402 376.378 11.5402ZM393.618 24.9952C384.583 24.9952 377.888 32.4702 377.888 41.3102C377.888 50.2152 384.583 57.5602 393.618 57.5602C402.653 57.5602 409.283 50.1502 409.283 41.3102C409.283 32.4702 402.653 24.9952 393.618 24.9952ZM395.698 55.8052C389.198 55.8052 386.988 40.3352 386.988 35.7202C386.988 33.3152 387.313 26.8802 390.888 26.8802C397.843 26.8802 400.053 41.3102 400.053 46.3152C400.053 48.9802 399.598 55.8052 395.698 55.8052Z" fill="white"/>
<path d="M449.536 45.0206C444.434 34.7087 463.094 28.3047 456.263 14.4972C452.4 6.69045 444.378 6.45322 437.329 9.94093C430.046 13.5439 424.084 21.135 428.177 29.4078C429.763 32.6121 433.071 34.0213 436.333 32.4072C439.771 30.7066 440.862 26.9031 439.714 23.41C437.267 24.6206 434.718 22.4006 433.681 20.3033C432.038 16.9825 433.302 13.6739 436.622 12.0309C441.283 9.72501 445.342 12.3583 447.446 16.6112C453.326 28.4962 441.628 31.383 448.604 45.4818L449.536 45.0206ZM450.71 49.1534C448.38 50.3063 447.35 53.2089 448.503 55.5393C449.685 57.9279 452.53 58.841 454.919 57.6592C457.249 56.5063 458.22 53.6325 457.067 51.3021C455.914 48.9718 453.041 48.0004 450.71 49.1534Z" fill="url(#paint0_linear_3428_29733)"/>
<defs>
<linearGradient id="paint0_linear_3428_29733" x1="437.365" y1="45.5361" x2="466.524" y2="31.181" gradientUnits="userSpaceOnUse">
<stop stop-color="#FFDA6D"/>
<stop offset="0.415242" stop-color="#D7DBFF"/>
<stop offset="1" stop-color="#47AA8B"/>
</linearGradient>
</defs>
</svg>
