<svg width="482" height="78" viewBox="0 0 482 78" fill="none" xmlns="http://www.w3.org/2000/svg">
<path d="M39.585 23.5002C39.585 21.6802 39.39 19.9468 39 18.3002C38.61 16.6102 38.0033 15.0718 37.18 13.6852C36.3567 12.2985 35.295 11.0852 33.995 10.0452C32.695 9.00515 31.135 8.20349 29.315 7.64016H46.085C45.0017 7.94349 44.135 8.37682 43.485 8.94015C42.8783 9.46016 42.4017 10.0885 42.055 10.8252C41.7517 11.5185 41.5567 12.3202 41.47 13.2302C41.3833 14.1402 41.3183 15.1152 41.275 16.1552C41.1883 17.3685 41.145 18.5818 41.145 19.7952C41.145 21.0085 41.145 22.2435 41.145 23.5002V56.9102H36.465L7.475 15.3102V41.0502C7.475 42.8702 7.67 44.6252 8.06 46.3152C8.45 47.9618 9.05667 49.4785 9.88 50.8652C10.7033 52.2518 11.765 53.4652 13.065 54.5052C14.365 55.5452 15.925 56.3468 17.745 56.9102H0.975C2.10167 56.6068 2.96833 56.1952 3.575 55.6752C4.18167 55.1118 4.63667 54.4835 4.94 53.7902C5.28667 53.0535 5.50333 52.2302 5.59 51.3202C5.67667 50.4102 5.74167 49.4352 5.785 48.3952C5.87167 47.1818 5.915 45.9685 5.915 44.7552C5.915 43.5418 5.915 42.3068 5.915 41.0502V16.4802C5.915 15.7002 5.87167 14.8985 5.785 14.0752C5.74167 13.2085 5.61167 12.3852 5.395 11.6052C5.17833 10.7818 4.85333 10.0235 4.42 9.33015C3.98667 8.63682 3.40167 8.07349 2.665 7.64016H13.455L39.585 44.8852V23.5002ZM56.1666 40.9852C56.4699 42.3285 56.9249 43.6068 57.5316 44.8202C58.1383 45.9902 58.8966 47.0302 59.8066 47.9402C60.7166 48.8068 61.7783 49.5002 62.9916 50.0202C64.2483 50.5402 65.6566 50.8002 67.2166 50.8002C67.6933 50.8002 68.2566 50.7785 68.9066 50.7352C69.5999 50.6485 70.2933 50.5402 70.9866 50.4102C71.6799 50.2802 72.3299 50.1068 72.9366 49.8902C73.5866 49.6302 74.0849 49.3268 74.4316 48.9802L74.9516 49.3702C73.4783 52.0568 71.7233 54.0935 69.6866 55.4802C67.6933 56.8668 65.0933 57.5602 61.8866 57.5602C59.6333 57.5602 57.5316 57.1485 55.5816 56.3252C53.6749 55.5018 52.0283 54.3752 50.6416 52.9452C49.2983 51.4718 48.2366 49.7602 47.4566 47.8102C46.6766 45.8602 46.2866 43.7585 46.2866 41.5052C46.2866 39.3385 46.6116 37.2585 47.2616 35.2652C47.9549 33.2718 48.9299 31.5168 50.1866 30.0002C51.4866 28.4835 53.0466 27.2702 54.8666 26.3602C56.6866 25.4502 58.7449 24.9952 61.0416 24.9952C63.1216 24.9952 65.0066 25.3202 66.6966 25.9702C68.4299 26.5768 69.8816 27.4868 71.0516 28.7002C72.2649 29.8702 73.1966 31.3002 73.8466 32.9902C74.4966 34.6802 74.8216 36.5652 74.8216 38.6452V40.2052L56.1666 40.9852ZM66.1116 33.4452C66.1116 32.7085 65.9599 31.9285 65.6566 31.1052C65.3966 30.2818 65.0066 29.5452 64.4866 28.8952C63.9666 28.2018 63.3599 27.6385 62.6666 27.2052C61.9733 26.7718 61.2149 26.5552 60.3916 26.5552C59.4383 26.5552 58.6583 26.9452 58.0516 27.7252C57.4449 28.5052 56.9683 29.4368 56.6216 30.5202C56.2749 31.5602 56.0149 32.6435 55.8416 33.7702C55.7116 34.8968 55.6466 35.7852 55.6466 36.4352C55.6466 37.3885 55.7116 38.3635 55.8416 39.3602C56.7083 39.2735 57.5749 39.1652 58.4416 39.0352C59.3083 38.9052 60.1749 38.7752 61.0416 38.6452C62.5149 38.4285 63.7283 37.9085 64.6816 37.0852C65.6349 36.2618 66.1116 35.0485 66.1116 33.4452ZM86.6354 40.9852C86.9387 42.3285 87.3937 43.6068 88.0004 44.8202C88.607 45.9902 89.3654 47.0302 90.2754 47.9402C91.1854 48.8068 92.247 49.5002 93.4604 50.0202C94.717 50.5402 96.1254 50.8002 97.6854 50.8002C98.162 50.8002 98.7254 50.7785 99.3754 50.7352C100.069 50.6485 100.762 50.5402 101.455 50.4102C102.149 50.2802 102.799 50.1068 103.405 49.8902C104.055 49.6302 104.554 49.3268 104.9 48.9802L105.42 49.3702C103.947 52.0568 102.192 54.0935 100.155 55.4802C98.162 56.8668 95.562 57.5602 92.3554 57.5602C90.102 57.5602 88.0004 57.1485 86.0504 56.3252C84.1437 55.5018 82.497 54.3752 81.1104 52.9452C79.767 51.4718 78.7054 49.7602 77.9254 47.8102C77.1454 45.8602 76.7554 43.7585 76.7554 41.5052C76.7554 39.3385 77.0804 37.2585 77.7304 35.2652C78.4237 33.2718 79.3987 31.5168 80.6554 30.0002C81.9554 28.4835 83.5154 27.2702 85.3354 26.3602C87.1554 25.4502 89.2137 24.9952 91.5104 24.9952C93.5904 24.9952 95.4754 25.3202 97.1654 25.9702C98.8987 26.5768 100.35 27.4868 101.52 28.7002C102.734 29.8702 103.665 31.3002 104.315 32.9902C104.965 34.6802 105.29 36.5652 105.29 38.6452V40.2052L86.6354 40.9852ZM96.5804 33.4452C96.5804 32.7085 96.4287 31.9285 96.1254 31.1052C95.8654 30.2818 95.4754 29.5452 94.9554 28.8952C94.4354 28.2018 93.8287 27.6385 93.1354 27.2052C92.442 26.7718 91.6837 26.5552 90.8604 26.5552C89.907 26.5552 89.127 26.9452 88.5204 27.7252C87.9137 28.5052 87.437 29.4368 87.0904 30.5202C86.7437 31.5602 86.4837 32.6435 86.3104 33.7702C86.1804 34.8968 86.1154 35.7852 86.1154 36.4352C86.1154 37.3885 86.1804 38.3635 86.3104 39.3602C87.177 39.2735 88.0437 39.1652 88.9104 39.0352C89.777 38.9052 90.6437 38.7752 91.5104 38.6452C92.9837 38.4285 94.197 37.9085 95.1504 37.0852C96.1037 36.2618 96.5804 35.0485 96.5804 33.4452ZM137.334 10.8902V48.0702C137.334 48.8068 137.356 49.6085 137.399 50.4752C137.486 51.3418 137.638 52.1868 137.854 53.0102C138.071 53.8335 138.396 54.5918 138.829 55.2852C139.263 55.9785 139.848 56.5202 140.584 56.9102H127.844V54.2452C127.108 55.2852 126.176 56.0868 125.049 56.6502C123.966 57.2135 122.471 57.4952 120.564 57.4952C118.311 57.4952 116.318 57.0618 114.584 56.1952C112.851 55.3285 111.378 54.1802 110.164 52.7502C108.994 51.2768 108.106 49.5868 107.499 47.6802C106.893 45.7735 106.589 43.7802 106.589 41.7002C106.589 39.4902 106.914 37.3668 107.564 35.3302C108.214 33.2935 109.168 31.4952 110.424 29.9352C111.724 28.3752 113.284 27.1402 115.104 26.2302C116.968 25.2768 119.069 24.8002 121.409 24.8002C121.713 24.8002 122.168 24.9085 122.774 25.1252C123.381 25.2985 124.009 25.5152 124.659 25.7752C125.309 25.9918 125.938 26.2302 126.544 26.4902C127.151 26.7502 127.584 26.9452 127.844 27.0752V24.1502C127.844 23.2402 127.758 22.4168 127.584 21.6802C127.411 20.9002 127.173 20.1852 126.869 19.5352C126.566 18.8852 126.176 18.2568 125.699 17.6502C125.266 17.0002 124.768 16.3285 124.204 15.6352C125.721 15.3752 126.999 15.1368 128.039 14.9202C129.123 14.6602 130.119 14.3568 131.029 14.0102C131.983 13.6635 132.936 13.2518 133.889 12.7752C134.886 12.2552 136.034 11.6268 137.334 10.8902ZM127.844 34.8752C127.844 34.0085 127.779 33.0985 127.649 32.1452C127.519 31.1485 127.259 30.2385 126.869 29.4152C126.479 28.5485 125.938 27.8335 125.244 27.2702C124.594 26.7068 123.728 26.4252 122.644 26.4252C121.344 26.4252 120.239 26.7935 119.329 27.5302C118.419 28.2235 117.683 29.1118 117.119 30.1952C116.556 31.2352 116.144 32.3835 115.884 33.6402C115.668 34.8535 115.559 36.0018 115.559 37.0852C115.559 38.7752 115.776 40.4435 116.209 42.0902C116.686 43.6935 117.379 45.1452 118.289 46.4452C119.199 47.7018 120.348 48.7418 121.734 49.5652C123.164 50.3452 124.811 50.7352 126.674 50.7352H127.844V34.8752ZM184.104 31.2352C184.191 31.0618 184.473 30.8018 184.949 30.4552C185.469 30.1085 186.076 29.6968 186.769 29.2202C187.506 28.7435 188.264 28.2668 189.044 27.7902C189.868 27.2702 190.626 26.8152 191.319 26.4252C192.056 25.9918 192.684 25.6452 193.204 25.3852C193.724 25.1252 194.049 24.9952 194.179 24.9952C195.653 24.9952 196.931 25.2768 198.014 25.8402C199.098 26.4035 199.986 27.1618 200.679 28.1152C201.416 29.0685 201.958 30.1735 202.304 31.4302C202.694 32.6868 202.889 33.9868 202.889 35.3302V48.0702C202.889 48.8068 202.933 49.6085 203.019 50.4752C203.106 51.3418 203.258 52.1868 203.474 53.0102C203.691 53.8335 204.016 54.5918 204.449 55.2852C204.926 55.9785 205.511 56.5202 206.204 56.9102H190.149C190.843 56.5202 191.406 55.9785 191.839 55.2852C192.273 54.5485 192.598 53.7902 192.814 53.0102C193.031 52.1868 193.183 51.3418 193.269 50.4752C193.356 49.6085 193.399 48.8068 193.399 48.0702V35.5902C193.399 34.9402 193.334 34.2685 193.204 33.5752C193.074 32.8818 192.858 32.2535 192.554 31.6902C192.251 31.1268 191.818 30.6718 191.254 30.3252C190.734 29.9785 190.084 29.8052 189.304 29.8052C188.524 29.8052 187.853 29.9785 187.289 30.3252C186.726 30.6718 186.249 31.1268 185.859 31.6902C185.469 32.2102 185.166 32.8168 184.949 33.5102C184.776 34.2035 184.668 34.8968 184.624 35.5902V48.0702C184.624 48.8068 184.668 49.6085 184.754 50.4752C184.841 51.3418 184.993 52.1868 185.209 53.0102C185.426 53.8335 185.751 54.5918 186.184 55.2852C186.661 55.9785 187.246 56.5202 187.939 56.9102H171.884C172.578 56.5202 173.141 55.9785 173.574 55.2852C174.008 54.5485 174.333 53.7902 174.549 53.0102C174.766 52.1868 174.918 51.3418 175.004 50.4752C175.091 49.6085 175.134 48.8068 175.134 48.0702V35.5902C175.134 34.9402 175.069 34.2685 174.939 33.5752C174.809 32.8818 174.593 32.2535 174.289 31.6902C173.986 31.1268 173.553 30.6718 172.989 30.3252C172.469 29.9785 171.819 29.8052 171.039 29.8052C169.696 29.8052 168.656 30.2818 167.919 31.2352C167.183 32.1452 166.706 33.2068 166.489 34.4202V48.0702C166.489 48.8068 166.511 49.6085 166.554 50.4752C166.641 51.3418 166.793 52.1868 167.009 53.0102C167.226 53.8335 167.551 54.5918 167.984 55.2852C168.418 55.9785 169.003 56.5202 169.739 56.9102H153.684C154.378 56.5202 154.941 55.9785 155.374 55.2852C155.808 54.5485 156.133 53.7902 156.349 53.0102C156.609 52.1868 156.783 51.3418 156.869 50.4752C156.956 49.6085 156.999 48.8068 156.999 48.0702V38.8402C156.999 37.9302 156.913 37.1068 156.739 36.3702C156.566 35.5902 156.328 34.8752 156.024 34.2252C155.721 33.5752 155.331 32.9468 154.854 32.3402C154.421 31.6902 153.923 31.0185 153.359 30.3252C154.876 30.0652 156.154 29.8268 157.194 29.6102C158.278 29.3502 159.274 29.0468 160.184 28.7002C161.138 28.3535 162.091 27.9418 163.044 27.4652C164.041 26.9452 165.189 26.2952 166.489 25.5152V30.5852C166.793 30.2818 167.421 29.8268 168.374 29.2202C169.328 28.6135 170.324 28.0068 171.364 27.4002C172.448 26.7502 173.423 26.1868 174.289 25.7102C175.199 25.2335 175.741 24.9952 175.914 24.9952C178.168 24.9952 179.966 25.6452 181.309 26.9452C182.696 28.2018 183.649 29.7835 184.169 31.6902L184.104 31.2352ZM222.485 24.9952C224.739 24.9952 226.819 25.4285 228.725 26.2952C230.632 27.1618 232.279 28.3535 233.665 29.8702C235.095 31.3435 236.2 33.0768 236.98 35.0702C237.76 37.0202 238.15 39.1002 238.15 41.3102C238.15 43.5202 237.76 45.6218 236.98 47.6152C236.2 49.5652 235.095 51.2768 233.665 52.7502C232.279 54.2235 230.632 55.3935 228.725 56.2602C226.819 57.1268 224.739 57.5602 222.485 57.5602C220.232 57.5602 218.13 57.1268 216.18 56.2602C214.274 55.3935 212.627 54.2235 211.24 52.7502C209.854 51.2768 208.749 49.5652 207.925 47.6152C207.145 45.6218 206.755 43.5202 206.755 41.3102C206.755 39.1002 207.145 37.0202 207.925 35.0702C208.749 33.0768 209.854 31.3435 211.24 29.8702C212.627 28.3535 214.274 27.1618 216.18 26.2952C218.13 25.4285 220.232 24.9952 222.485 24.9952ZM224.565 55.8052C225.562 55.8052 226.342 55.4368 226.905 54.7002C227.469 53.9635 227.902 53.0968 228.205 52.1002C228.509 51.0602 228.704 49.9985 228.79 48.9152C228.877 47.8318 228.92 46.9652 228.92 46.3152C228.92 45.4918 228.855 44.4302 228.725 43.1302C228.595 41.8302 228.379 40.4652 228.075 39.0352C227.772 37.6052 227.382 36.1752 226.905 34.7452C226.472 33.2718 225.909 31.9718 225.215 30.8452C224.522 29.6752 223.72 28.7218 222.81 27.9852C221.944 27.2485 220.925 26.8802 219.755 26.8802C218.845 26.8802 218.13 27.2268 217.61 27.9202C217.09 28.6135 216.7 29.4368 216.44 30.3902C216.18 31.3435 216.007 32.3185 215.92 33.3152C215.877 34.3118 215.855 35.1135 215.855 35.7202C215.855 36.5002 215.92 37.5402 216.05 38.8402C216.18 40.0968 216.375 41.4835 216.635 43.0002C216.939 44.4735 217.307 45.9685 217.74 47.4852C218.217 49.0018 218.78 50.3885 219.43 51.6452C220.08 52.8585 220.817 53.8552 221.64 54.6352C222.507 55.4152 223.482 55.8052 224.565 55.8052ZM251.167 32.6652C251.6 31.7552 252.12 30.8452 252.727 29.9352C253.377 28.9818 254.092 28.1585 254.872 27.4652C255.695 26.7285 256.584 26.1435 257.537 25.7102C258.534 25.2335 259.574 24.9952 260.657 24.9952C262.434 24.9952 263.82 25.6018 264.817 26.8152C265.857 27.9852 266.377 29.4152 266.377 31.1052C266.377 32.1885 266.16 33.1852 265.727 34.0952C265.337 35.0052 264.774 35.7635 264.037 36.3702C263.344 36.9768 262.52 37.4535 261.567 37.8002C260.657 38.1468 259.66 38.3202 258.577 38.3202C258.664 38.0602 258.729 37.8002 258.772 37.5402C258.815 37.2802 258.837 36.9985 258.837 36.6952C258.837 35.5685 258.447 34.6368 257.667 33.9002C256.93 33.1202 255.999 32.7302 254.872 32.7302C254.439 32.7302 254.005 32.8385 253.572 33.0552C253.139 33.2285 252.727 33.4885 252.337 33.8352C251.99 34.1385 251.709 34.5068 251.492 34.9402C251.275 35.3302 251.167 35.7635 251.167 36.2402V48.0702C251.167 48.8068 251.189 49.6085 251.232 50.4752C251.319 51.3418 251.47 52.1868 251.687 53.0102C251.947 53.8335 252.294 54.5918 252.727 55.2852C253.16 55.9785 253.724 56.5202 254.417 56.9102H238.362C239.055 56.5202 239.619 55.9785 240.052 55.2852C240.485 54.5485 240.81 53.7902 241.027 53.0102C241.287 52.1868 241.46 51.3418 241.547 50.4752C241.634 49.6085 241.677 48.8068 241.677 48.0702V38.8402C241.677 37.9302 241.59 37.1068 241.417 36.3702C241.244 35.5902 241.005 34.8752 240.702 34.2252C240.399 33.5752 240.009 32.9468 239.532 32.3402C239.099 31.6902 238.6 31.0185 238.037 30.3252C239.554 30.0652 240.832 29.8268 241.872 29.6102C242.955 29.3502 243.952 29.0468 244.862 28.7002C245.815 28.3535 246.769 27.9418 247.722 27.4652C248.719 26.9452 249.867 26.2952 251.167 25.5152V32.6652ZM275.859 40.9852C276.162 42.3285 276.617 43.6068 277.224 44.8202C277.831 45.9902 278.589 47.0302 279.499 47.9402C280.409 48.8068 281.471 49.5002 282.684 50.0202C283.941 50.5402 285.349 50.8002 286.909 50.8002C287.386 50.8002 287.949 50.7785 288.599 50.7352C289.292 50.6485 289.986 50.5402 290.679 50.4102C291.372 50.2802 292.022 50.1068 292.629 49.8902C293.279 49.6302 293.777 49.3268 294.124 48.9802L294.644 49.3702C293.171 52.0568 291.416 54.0935 289.379 55.4802C287.386 56.8668 284.786 57.5602 281.579 57.5602C279.326 57.5602 277.224 57.1485 275.274 56.3252C273.367 55.5018 271.721 54.3752 270.334 52.9452C268.991 51.4718 267.929 49.7602 267.149 47.8102C266.369 45.8602 265.979 43.7585 265.979 41.5052C265.979 39.3385 266.304 37.2585 266.954 35.2652C267.647 33.2718 268.622 31.5168 269.879 30.0002C271.179 28.4835 272.739 27.2702 274.559 26.3602C276.379 25.4502 278.437 24.9952 280.734 24.9952C282.814 24.9952 284.699 25.3202 286.389 25.9702C288.122 26.5768 289.574 27.4868 290.744 28.7002C291.957 29.8702 292.889 31.3002 293.539 32.9902C294.189 34.6802 294.514 36.5652 294.514 38.6452V40.2052L275.859 40.9852ZM285.804 33.4452C285.804 32.7085 285.652 31.9285 285.349 31.1052C285.089 30.2818 284.699 29.5452 284.179 28.8952C283.659 28.2018 283.052 27.6385 282.359 27.2052C281.666 26.7718 280.907 26.5552 280.084 26.5552C279.131 26.5552 278.351 26.9452 277.744 27.7252C277.137 28.5052 276.661 29.4368 276.314 30.5202C275.967 31.5602 275.707 32.6435 275.534 33.7702C275.404 34.8968 275.339 35.7852 275.339 36.4352C275.339 37.3885 275.404 38.3635 275.534 39.3602C276.401 39.2735 277.267 39.1652 278.134 39.0352C279.001 38.9052 279.867 38.7752 280.734 38.6452C282.207 38.4285 283.421 37.9085 284.374 37.0852C285.327 36.2618 285.804 35.0485 285.804 33.4452ZM328.072 38.8402C328.072 37.9302 327.985 37.1068 327.812 36.3702C327.638 35.5902 327.4 34.8752 327.097 34.2252C326.793 33.5752 326.403 32.9468 325.927 32.3402C325.493 31.6902 324.995 31.0185 324.432 30.3252C325.688 30.1085 326.945 29.7618 328.202 29.2852C329.502 28.7652 330.65 28.1152 331.647 27.3352C332.643 26.5118 333.445 25.5368 334.052 24.4102C334.702 23.2835 335.027 21.9835 335.027 20.5102C335.027 19.0368 334.702 17.7368 334.052 16.6102C333.445 15.4402 332.622 14.4652 331.582 13.6852C330.585 12.9052 329.437 12.3202 328.137 11.9302C326.837 11.4968 325.515 11.2802 324.172 11.2802C322.655 11.2802 321.138 11.5402 319.622 12.0602C318.105 12.5368 316.848 13.3602 315.852 14.5302C317.152 14.5302 318.257 15.0068 319.167 15.9602C320.12 16.8702 320.597 17.9752 320.597 19.2752C320.597 20.5752 320.12 21.7018 319.167 22.6552C318.257 23.5652 317.152 24.0202 315.852 24.0202C314.552 24.0202 313.425 23.5652 312.472 22.6552C311.562 21.7018 311.107 20.5752 311.107 19.2752C311.107 17.5418 311.562 16.0902 312.472 14.9202C313.425 13.7068 314.595 12.7318 315.982 11.9952C317.368 11.2152 318.863 10.6518 320.467 10.3052C322.113 9.95849 323.652 9.78515 325.082 9.78515C326.772 9.78515 328.44 10.0235 330.087 10.5002C331.733 10.9335 333.185 11.6052 334.442 12.5152C335.742 13.4252 336.782 14.5735 337.562 15.9602C338.385 17.3468 338.797 18.9935 338.797 20.9002C338.797 22.6335 338.385 24.1718 337.562 25.5152V30.5202C337.692 30.3902 337.995 30.1735 338.472 29.8702C338.948 29.5235 339.512 29.1552 340.162 28.7652C340.812 28.3318 341.505 27.8985 342.242 27.4652C343.022 27.0318 343.737 26.6418 344.387 26.2952C345.037 25.9052 345.6 25.6018 346.077 25.3852C346.553 25.1252 346.857 24.9952 346.987 24.9952C348.46 24.9952 349.738 25.2768 350.822 25.8402C351.905 26.4035 352.793 27.1618 353.487 28.1152C354.223 29.0685 354.765 30.1735 355.112 31.4302C355.502 32.6868 355.697 33.9868 355.697 35.3302V48.0702C355.697 48.8068 355.74 49.6085 355.827 50.4752C355.913 51.3418 356.065 52.1868 356.282 53.0102C356.498 53.8335 356.823 54.5918 357.257 55.2852C357.733 55.9785 358.318 56.5202 359.012 56.9102H342.957C343.65 56.5202 344.213 55.9785 344.647 55.2852C345.08 54.5485 345.405 53.7902 345.622 53.0102C345.838 52.1868 345.99 51.3418 346.077 50.4752C346.163 49.6085 346.207 48.8068 346.207 48.0702V35.5902C346.207 34.9402 346.142 34.2685 346.012 33.5752C345.882 32.8818 345.665 32.2535 345.362 31.6902C345.058 31.1268 344.625 30.6718 344.062 30.3252C343.542 29.9785 342.892 29.8052 342.112 29.8052C341.548 29.8052 340.985 29.9568 340.422 30.2602C339.902 30.5202 339.425 30.8668 338.992 31.3002C338.558 31.7335 338.212 32.2318 337.952 32.7952C337.692 33.3152 337.562 33.8568 337.562 34.4202V48.0702C337.562 48.8068 337.583 49.6085 337.627 50.4752C337.713 51.3418 337.865 52.1868 338.082 53.0102C338.298 53.8335 338.623 54.5918 339.057 55.2852C339.49 55.9785 340.075 56.5202 340.812 56.9102H324.757C325.45 56.5202 326.013 55.9785 326.447 55.2852C326.88 54.5485 327.205 53.7902 327.422 53.0102C327.682 52.1868 327.855 51.3418 327.942 50.4752C328.028 49.6085 328.072 48.8068 328.072 48.0702V38.8402ZM308.052 30.3252C309.568 30.0652 310.847 29.8268 311.887 29.6102C312.97 29.3502 313.967 29.0468 314.877 28.7002C315.83 28.3535 316.783 27.9418 317.737 27.4652C318.733 26.9452 319.882 26.2952 321.182 25.5152V48.0702C321.182 48.8068 321.203 49.6085 321.247 50.4752C321.333 51.3418 321.485 52.1868 321.702 53.0102C321.918 53.8335 322.243 54.5918 322.677 55.2852C323.11 55.9785 323.695 56.5202 324.432 56.9102H308.377C309.07 56.5202 309.633 55.9785 310.067 55.2852C310.5 54.5485 310.825 53.7902 311.042 53.0102C311.302 52.1868 311.475 51.3418 311.562 50.4752C311.648 49.6085 311.692 48.8068 311.692 48.0702V38.8402C311.692 37.9302 311.605 37.1068 311.432 36.3702C311.258 35.5902 311.02 34.8752 310.717 34.2252C310.413 33.5752 310.023 32.9468 309.547 32.3402C309.113 31.6902 308.615 31.0185 308.052 30.3252ZM376.378 11.5402C377.375 11.5402 378.393 11.6702 379.433 11.9302C380.473 12.1902 381.405 12.5802 382.228 13.1002C383.095 13.6202 383.788 14.3135 384.308 15.1802C384.828 16.0035 385.088 17.0002 385.088 18.1702C385.088 19.6868 384.59 20.9435 383.593 21.9402C382.597 22.8935 381.34 23.3702 379.823 23.3702C378.437 23.3702 377.288 22.9152 376.378 22.0052C375.468 21.0952 374.818 20.0118 374.428 18.7552C375.252 18.7552 375.923 18.5168 376.443 18.0402C376.963 17.5202 377.223 16.8485 377.223 16.0252C377.223 15.1585 376.942 14.4868 376.378 14.0102C375.815 13.4902 375.1 13.2302 374.233 13.2302C373.54 13.2302 372.89 13.3818 372.283 13.6852C371.677 13.9885 371.157 14.4002 370.723 14.9202C370.333 15.4402 370.008 16.0252 369.748 16.6752C369.532 17.3252 369.423 17.9752 369.423 18.6252C369.423 19.9685 369.748 21.0952 370.398 22.0052C371.092 22.8718 371.958 23.5652 372.998 24.0852C374.038 24.6052 375.165 24.9735 376.378 25.1902C377.592 25.4068 378.74 25.5152 379.823 25.5152V27.0752H372.413V48.0702C372.413 48.8068 372.435 49.6085 372.478 50.4752C372.565 51.3418 372.717 52.1868 372.933 53.0102C373.15 53.8335 373.475 54.5918 373.908 55.2852C374.342 55.9785 374.927 56.5202 375.663 56.9102H359.608C360.302 56.5202 360.865 55.9785 361.298 55.2852C361.732 54.5485 362.057 53.7902 362.273 53.0102C362.533 52.1868 362.707 51.3418 362.793 50.4752C362.88 49.6085 362.923 48.8068 362.923 48.0702V27.0752H359.348V25.5152H363.053C363.053 23.4352 363.335 21.5502 363.898 19.8602C364.505 18.1268 365.372 16.6535 366.498 15.4402C367.625 14.1835 369.012 13.2302 370.658 12.5802C372.348 11.8868 374.255 11.5402 376.378 11.5402ZM393.618 24.9952C395.871 24.9952 397.951 25.4285 399.858 26.2952C401.765 27.1618 403.411 28.3535 404.798 29.8702C406.228 31.3435 407.333 33.0768 408.113 35.0702C408.893 37.0202 409.283 39.1002 409.283 41.3102C409.283 43.5202 408.893 45.6218 408.113 47.6152C407.333 49.5652 406.228 51.2768 404.798 52.7502C403.411 54.2235 401.765 55.3935 399.858 56.2602C397.951 57.1268 395.871 57.5602 393.618 57.5602C391.365 57.5602 389.263 57.1268 387.313 56.2602C385.406 55.3935 383.76 54.2235 382.373 52.7502C380.986 51.2768 379.881 49.5652 379.058 47.6152C378.278 45.6218 377.888 43.5202 377.888 41.3102C377.888 39.1002 378.278 37.0202 379.058 35.0702C379.881 33.0768 380.986 31.3435 382.373 29.8702C383.76 28.3535 385.406 27.1618 387.313 26.2952C389.263 25.4285 391.365 24.9952 393.618 24.9952ZM395.698 55.8052C396.695 55.8052 397.475 55.4368 398.038 54.7002C398.601 53.9635 399.035 53.0968 399.338 52.1002C399.641 51.0602 399.836 49.9985 399.923 48.9152C400.01 47.8318 400.053 46.9652 400.053 46.3152C400.053 45.4918 399.988 44.4302 399.858 43.1302C399.728 41.8302 399.511 40.4652 399.208 39.0352C398.905 37.6052 398.515 36.1752 398.038 34.7452C397.605 33.2718 397.041 31.9718 396.348 30.8452C395.655 29.6752 394.853 28.7218 393.943 27.9852C393.076 27.2485 392.058 26.8802 390.888 26.8802C389.978 26.8802 389.263 27.2268 388.743 27.9202C388.223 28.6135 387.833 29.4368 387.573 30.3902C387.313 31.3435 387.14 32.3185 387.053 33.3152C387.01 34.3118 386.988 35.1135 386.988 35.7202C386.988 36.5002 387.053 37.5402 387.183 38.8402C387.313 40.0968 387.508 41.4835 387.768 43.0002C388.071 44.4735 388.44 45.9685 388.873 47.4852C389.35 49.0018 389.913 50.3885 390.563 51.6452C391.213 52.8585 391.95 53.8552 392.773 54.6352C393.64 55.4152 394.615 55.8052 395.698 55.8052Z" fill="#1E2C31"/>
<path d="M449.536 45.0206C444.434 34.7087 463.094 28.3047 456.263 14.4972C452.4 6.69045 444.378 6.45322 437.329 9.94093C430.046 13.5439 424.084 21.135 428.177 29.4078C429.763 32.6121 433.071 34.0213 436.333 32.4072C439.771 30.7066 440.862 26.9031 439.714 23.41C437.267 24.6206 434.718 22.4006 433.681 20.3033C432.038 16.9825 433.302 13.6739 436.622 12.0309C441.283 9.72501 445.342 12.3583 447.446 16.6112C453.326 28.4962 441.628 31.383 448.604 45.4818L449.536 45.0206ZM450.71 49.1534C448.38 50.3063 447.35 53.2089 448.503 55.5393C449.685 57.9279 452.53 58.841 454.919 57.6592C457.249 56.5063 458.22 53.6325 457.067 51.3021C455.914 48.9718 453.041 48.0004 450.71 49.1534Z" fill="url(#paint0_linear_2922_29229)"/>
<defs>
<linearGradient id="paint0_linear_2922_29229" x1="448.876" y1="50.4403" x2="470.742" y2="44.7323" gradientUnits="userSpaceOnUse">
<stop stop-color="#8807F7"/>
<stop offset="1" stop-color="#F9721A"/>
</linearGradient>
</defs>
</svg>
