<svg width="40" height="40" viewBox="0 0 40 40" fill="none" xmlns="http://www.w3.org/2000/svg">
<g clip-path="url(#clip0_3374_29385)">
<circle cx="20" cy="20" r="20" fill="white"/>
<path d="M29.75 14.7292C29.75 14.5292 29.67 14.3392 29.53 14.1992L25.81 10.4792C25.52 10.1892 25.04 10.1892 24.75 10.4792C24.46 10.7692 24.46 11.2492 24.75 11.5392L27.2 13.9892H11C10.59 13.9892 10.25 14.3292 10.25 14.7392C10.25 15.1492 10.59 15.4792 11 15.4792H27.19L24.75 17.9192C24.46 18.2092 24.46 18.6892 24.75 18.9792C24.9 19.1292 25.09 19.1992 25.28 19.1992C25.47 19.1992 25.66 19.1292 25.81 18.9792L29.52 15.2692C29.59 15.1992 29.65 15.1092 29.69 15.0092C29.69 14.9992 29.69 14.9892 29.7 14.9792C29.73 14.8992 29.75 14.8192 29.75 14.7292Z" fill="#101828"/>
<path d="M29 24.5183H12.81L15.25 22.0783C15.54 21.7883 15.54 21.3083 15.25 21.0183C14.96 20.7283 14.48 20.7283 14.19 21.0183L10.48 24.7283C10.41 24.7983 10.35 24.8883 10.31 24.9883C10.31 24.9983 10.31 25.0083 10.3 25.0183C10.27 25.0983 10.25 25.1883 10.25 25.2783C10.25 25.4783 10.33 25.6683 10.47 25.8083L14.19 29.5283C14.34 29.6783 14.53 29.7483 14.72 29.7483C14.91 29.7483 15.1 29.6783 15.25 29.5283C15.54 29.2383 15.54 28.7583 15.25 28.4683L12.8 26.0183H29C29.41 26.0183 29.75 25.6783 29.75 25.2683C29.75 24.8583 29.41 24.5183 29 24.5183Z" fill="#101828"/>
</g>
<defs>
<clipPath id="clip0_3374_29385">
<rect width="40" height="40" rx="20" fill="white"/>
</clipPath>
</defs>
</svg>
