<svg width="151" height="39" viewBox="0 0 151 39" fill="none" xmlns="http://www.w3.org/2000/svg">
<rect width="151" height="38.6798" rx="19.3399" fill="#F0FEFE"/>
<ellipse cx="37.2722" cy="19.9322" rx="8.6632" ry="10.6424" transform="rotate(-36.1332 37.2722 19.9322)" fill="url(#paint0_linear_4013_32086)"/>
<ellipse cx="38.8976" cy="19.209" rx="8.11956" ry="10.4238" transform="rotate(-36.1332 38.8976 19.209)" fill="#30F6F6"/>
<ellipse cx="38.8963" cy="19.2129" rx="2.38034" ry="3.05584" transform="rotate(-36.1332 38.8963 19.2129)" fill="#F0FEFE"/>
<path d="M60.1352 25.0706C63.7786 25.0706 66.2201 22.2348 66.2201 18.5726C66.2201 14.948 63.7786 12.1121 60.1352 12.1121C56.5106 12.1121 54.0503 14.948 54.0503 18.5726C54.0503 22.2348 56.5106 25.0706 60.1352 25.0706ZM60.154 23.5118C57.2806 23.5118 55.7782 21.4648 55.7782 18.5726C55.7782 15.718 57.2806 13.6521 60.154 13.6521C63.0274 13.6521 64.5298 15.718 64.5298 18.5726C64.5298 21.4648 63.0274 23.5118 60.154 23.5118ZM70.1251 24.8828V19.737C70.1251 18.2158 70.7636 16.995 72.5102 16.995C74.0502 16.995 74.5197 17.8214 74.5197 19.0045V24.8828H76.1348V18.6101C76.1348 16.6758 75.0268 15.6053 73.2426 15.6053C71.4585 15.6053 70.4819 16.8072 70.1251 18.2158V15.7931H68.4912V24.8828H70.1251ZM82.3921 25.0706C84.364 25.0706 85.6223 24.1504 86.2984 23.0611L85.303 21.9343C84.9462 22.7231 84.2138 23.7184 82.3921 23.7184C80.777 23.7184 79.7065 22.6292 79.6126 20.7136H86.3548C86.3923 20.5445 86.4299 20.2628 86.4299 19.9811C86.4299 17.3143 84.8711 15.6053 82.2982 15.6053C79.8004 15.6053 78.035 17.4645 78.035 20.3379C78.035 23.2301 79.8192 25.0706 82.3921 25.0706ZM82.2982 16.9762C83.8194 16.9762 84.796 17.8589 84.965 19.5304H79.6501C79.8567 17.8401 80.8333 16.9762 82.2982 16.9762ZM91.8844 25.0706C93.6498 25.0706 95.1898 24.2631 95.1898 22.4601C95.1898 21.2018 94.5137 20.3567 92.4666 19.8684L91.3022 19.5679C90.0627 19.2675 89.4617 18.9858 89.4617 18.1782C89.4617 17.4082 90.1378 16.995 91.0769 16.995C92.3727 16.995 93.2366 17.6711 93.6873 18.7416L94.9269 17.8214C94.4198 16.6194 93.0864 15.6053 91.1708 15.6053C89.1988 15.6053 87.9217 16.6194 87.9217 18.2721C87.9217 19.9436 89.3303 20.5633 90.6261 20.8638L91.8281 21.1455C92.8986 21.3897 93.7249 21.6526 93.7249 22.4789C93.7249 23.2865 93.0112 23.6996 91.9408 23.6996C90.1378 23.6996 89.1425 22.6667 88.8232 21.6338L87.64 22.554C88.2598 24.2443 89.9876 25.0706 91.8844 25.0706ZM100.675 25.0706C103.041 25.0706 104.431 23.6996 104.863 21.8779L103.267 21.2206C103.079 22.6667 102.328 23.7184 100.694 23.7184C99.0412 23.7184 98.0459 22.4789 98.0459 20.3379C98.0459 18.197 99.0412 16.9762 100.694 16.9762C102.328 16.9762 103.079 18.0092 103.267 19.4553L104.863 18.798C104.431 16.9762 103.041 15.6053 100.675 15.6053C98.0646 15.6053 96.3932 17.4645 96.3932 20.3379C96.3932 23.2301 98.0646 25.0706 100.675 25.0706ZM109.383 25.0706C111.205 25.0706 112.181 23.8311 112.519 22.4038V24.8828H114.135V15.7931H112.519V20.9577C112.519 22.4601 111.881 23.6996 110.116 23.6996C108.576 23.6996 108.106 22.8545 108.106 21.6901V15.7931H106.491V22.0845C106.491 24.0001 107.599 25.0706 109.383 25.0706ZM119.791 25.1082C121.537 25.1082 122.401 23.9438 122.721 22.554V24.8828H124.354V12.2999H122.721V18.1594C122.401 16.7697 121.537 15.6053 119.791 15.6053C117.5 15.6053 116.072 17.4833 116.072 20.3567C116.072 23.2301 117.5 25.1082 119.791 25.1082ZM117.725 20.3567C117.725 18.0467 118.908 16.995 120.335 16.995C122.082 16.995 122.721 18.2158 122.721 19.7182V21.014C122.721 22.5165 122.082 23.7372 120.335 23.7372C118.908 23.7372 117.725 22.6855 117.725 20.3567Z" fill="#003737"/>
<defs>
<linearGradient id="paint0_linear_4013_32086" x1="32.0446" y1="9.59526" x2="38.6744" y2="36.0896" gradientUnits="userSpaceOnUse">
<stop stop-color="#30F6F6"/>
<stop offset="1" stop-color="#30F6F6" stop-opacity="0"/>
</linearGradient>
</defs>
</svg>
