<svg width="172" height="50" viewBox="0 0 172 50" fill="none" xmlns="http://www.w3.org/2000/svg">
<g clip-path="url(#clip0_2451_28993)">
<path d="M55.5154 43.09C57.3154 43.09 58.6354 42.08 58.8254 40.54L57.7254 40.53C57.5454 41.51 56.6954 42.15 55.5154 42.15C54.0054 42.15 53.0654 41.13 53.0654 39.36C53.0654 37.58 54.0054 36.57 55.5154 36.57C56.7054 36.57 57.5254 37.22 57.7254 38.15H58.8254C58.6054 36.62 57.3154 35.63 55.5154 35.63C53.3754 35.63 51.9454 37.05 51.9454 39.36C51.9454 41.66 53.3654 43.09 55.5154 43.09ZM61.7912 43.09C62.6112 43.09 63.3012 42.66 63.5612 41.93H63.6212L63.6712 43H64.6512V37.71H63.6212V40.57C63.6212 41.54 63.0412 42.23 62.1712 42.23C61.2812 42.23 60.9212 41.69 60.9212 40.71V37.71H59.8912V40.97C59.8912 42.37 60.5912 43.09 61.7912 43.09ZM68.0147 43.1C69.3947 43.1 70.2547 42.58 70.2547 41.5C70.2547 40.29 69.3347 40.05 68.2347 39.9C67.3347 39.78 66.9347 39.62 66.9347 39.1C66.9347 38.65 67.3147 38.34 68.0147 38.34C68.6947 38.34 69.1247 38.63 69.1347 39.27H70.1447C70.1247 38.24 69.3347 37.61 68.0347 37.61C66.7547 37.61 65.9047 38.19 65.9047 39.2C65.9047 40.28 66.7347 40.56 67.9347 40.73C68.8247 40.86 69.2047 41 69.2047 41.59C69.2047 42.08 68.8047 42.37 68.0447 42.37C67.3047 42.37 66.7747 42.06 66.7747 41.34H65.7547C65.7547 42.39 66.5647 43.1 68.0147 43.1ZM72.9356 43H73.9956V42.15H73.2756C72.9456 42.15 72.8256 42.06 72.8256 41.71V38.55H73.9956V37.71H72.8256V36.06L71.7956 36.18V37.71H70.7956V38.55H71.7956V41.9C71.7956 42.61 72.0656 43 72.9356 43ZM77.1028 43.09C78.6928 43.09 79.6828 41.98 79.6828 40.36C79.6828 38.68 78.6428 37.63 77.1028 37.63C75.5028 37.63 74.5128 38.74 74.5128 40.37C74.5128 42.03 75.5528 43.09 77.1028 43.09ZM77.1028 42.23C76.1628 42.23 75.5628 41.55 75.5628 40.37C75.5628 39.15 76.1828 38.48 77.1028 38.48C78.0528 38.48 78.6328 39.17 78.6328 40.36C78.6328 41.56 78.0228 42.23 77.1028 42.23ZM80.7615 43H81.7815V40.11C81.7815 39.2 82.3315 38.48 83.2115 38.48C84.0315 38.48 84.4015 38.99 84.4015 40.07V43H85.4315V40.11C85.4315 39.2 85.9815 38.48 86.8515 38.48C87.6815 38.48 88.0515 38.99 88.0515 40.07V43H89.0715V39.86C89.0715 38.24 88.2915 37.63 87.2415 37.63C86.3915 37.63 85.6715 38.05 85.3815 38.87H85.3015C85.0315 37.97 84.3715 37.63 83.5915 37.63C82.8215 37.63 82.1415 38.01 81.8415 38.76H81.7815L81.7415 37.71H80.7615V43ZM95.2951 43.09C97.1551 43.09 98.1451 42.24 98.1451 40.99C98.1451 39.31 96.9351 38.99 95.6451 38.78C94.2451 38.53 93.6951 38.37 93.6951 37.56C93.6951 36.9 94.2451 36.47 95.2051 36.47C96.1451 36.47 96.7751 36.89 96.8051 37.76H97.9151C97.8951 36.48 96.9151 35.63 95.2451 35.63C93.5751 35.63 92.5651 36.43 92.5651 37.71C92.5651 38.96 93.4251 39.45 95.0951 39.74C96.5251 39.98 97.0151 40.22 97.0151 41.09C97.0151 41.86 96.3351 42.23 95.3151 42.23C94.0751 42.23 93.5351 41.65 93.5151 40.72H92.3951C92.4151 42.12 93.3551 43.09 95.2951 43.09ZM101.536 43.09C103.126 43.09 104.116 41.98 104.116 40.36C104.116 38.68 103.076 37.63 101.536 37.63C99.9364 37.63 98.9464 38.74 98.9464 40.37C98.9464 42.03 99.9864 43.09 101.536 43.09ZM101.536 42.23C100.596 42.23 99.9964 41.55 99.9964 40.37C99.9964 39.15 100.616 38.48 101.536 38.48C102.486 38.48 103.066 39.17 103.066 40.36C103.066 41.56 102.456 42.23 101.536 42.23ZM105.195 43H106.225V35.71H105.195V43ZM109.506 43.09C110.326 43.09 111.016 42.66 111.276 41.93H111.336L111.386 43H112.366V37.71H111.336V40.57C111.336 41.54 110.756 42.23 109.886 42.23C108.996 42.23 108.636 41.69 108.636 40.71V37.71H107.606V40.97C107.606 42.37 108.306 43.09 109.506 43.09ZM115.27 43H116.33V42.15H115.61C115.28 42.15 115.16 42.06 115.16 41.71V38.55H116.33V37.71H115.16V36.06L114.13 36.18V37.71H113.13V38.55H114.13V41.9C114.13 42.61 114.4 43 115.27 43ZM117.353 36.9H118.383V35.71H117.353V36.9ZM117.353 43H118.383V37.71H117.353V43ZM122.044 43.09C123.634 43.09 124.624 41.98 124.624 40.36C124.624 38.68 123.584 37.63 122.044 37.63C120.444 37.63 119.454 38.74 119.454 40.37C119.454 42.03 120.494 43.09 122.044 43.09ZM122.044 42.23C121.104 42.23 120.504 41.55 120.504 40.37C120.504 39.15 121.124 38.48 122.044 38.48C122.994 38.48 123.574 39.17 123.574 40.36C123.574 41.56 122.964 42.23 122.044 42.23ZM125.703 43H126.723V40.11C126.723 39.2 127.293 38.48 128.203 38.48C129.043 38.48 129.433 38.99 129.433 40.07V43H130.463V39.86C130.463 38.24 129.653 37.63 128.573 37.63C127.793 37.63 127.093 38.01 126.783 38.76H126.723L126.683 37.71H125.703V43ZM133.825 43.1C135.205 43.1 136.065 42.58 136.065 41.5C136.065 40.29 135.145 40.05 134.045 39.9C133.145 39.78 132.745 39.62 132.745 39.1C132.745 38.65 133.125 38.34 133.825 38.34C134.505 38.34 134.935 38.63 134.945 39.27H135.955C135.935 38.24 135.145 37.61 133.845 37.61C132.565 37.61 131.715 38.19 131.715 39.2C131.715 40.28 132.545 40.56 133.745 40.73C134.635 40.86 135.015 41 135.015 41.59C135.015 42.08 134.615 42.37 133.855 42.37C133.115 42.37 132.585 42.06 132.585 41.34H131.565C131.565 42.39 132.375 43.1 133.825 43.1Z" fill="#9CA3AF"/>
<ellipse cx="17.5867" cy="25.2283" rx="15.6925" ry="19.2775" transform="rotate(-36.1332 17.5867 25.2283)" fill="url(#paint0_linear_2451_28993)"/>
<ellipse cx="20.533" cy="23.9247" rx="14.7078" ry="18.8816" transform="rotate(-36.1332 20.533 23.9247)" fill="#30F6F6"/>
<ellipse cx="20.533" cy="23.9281" rx="4.31174" ry="5.53535" transform="rotate(-36.1332 20.533 23.9281)" fill="white"/>
<g clip-path="url(#clip1_2451_28993)">
<mask id="mask0_2451_28993" style="mask-type:luminance" maskUnits="userSpaceOnUse" x="152" y="9" width="23" height="22">
<path d="M174.045 9H152.545V30.5H174.045V9Z" fill="white"/>
</mask>
<g mask="url(#mask0_2451_28993)">
<mask id="mask1_2451_28993" style="mask-type:luminance" maskUnits="userSpaceOnUse" x="152" y="9" width="23" height="22">
<path d="M152.545 9H174.045V30.5H152.545V9Z" fill="white"/>
</mask>
<g mask="url(#mask1_2451_28993)">
<path d="M163.297 12.8223C159.471 12.8223 156.37 15.9234 156.37 19.7488C156.37 23.5743 159.471 26.6755 163.297 26.6755C167.122 26.6755 170.223 23.5743 170.223 19.7488C170.223 15.9234 167.122 12.8223 163.297 12.8223Z" fill="#DE5A00"/>
<path d="M163.297 12.8223C159.471 12.8223 156.37 15.9234 156.37 19.7488C156.37 23.5743 159.471 26.6755 163.297 26.6755C167.122 26.6755 170.223 23.5743 170.223 19.7488C170.223 15.9234 167.122 12.8223 163.297 12.8223Z" fill="#EF7B00"/>
<path d="M163.297 12.8223C159.471 12.8223 156.37 15.9234 156.37 19.7488C156.37 23.5743 159.471 26.6755 163.297 26.6755C167.122 26.6755 170.223 23.5743 170.223 19.7488C170.223 15.9234 167.122 12.8223 163.297 12.8223ZM163.297 24.873C160.467 24.873 158.173 22.5789 158.173 19.7488C158.173 16.9188 160.467 14.6247 163.297 14.6247C166.127 14.6247 168.421 16.9188 168.421 19.7488C168.421 22.5789 166.127 24.873 163.297 24.873Z" fill="#DE5A00"/>
<path d="M164.589 19.3901C164.335 19.2905 164.031 19.1997 163.678 19.1174V17.5586C163.796 17.6022 163.893 17.6654 163.969 17.7486C164.026 17.8111 164.074 17.8794 164.11 17.9537C164.247 18.2286 164.533 18.4123 164.859 18.4123H164.905C165.549 18.4123 165.957 17.7591 165.624 17.248C165.513 17.0779 165.374 16.9221 165.206 16.7806C164.805 16.4419 164.296 16.2402 163.678 16.1755V15.8137C163.678 15.6038 163.508 15.4336 163.298 15.4336C163.088 15.4336 162.918 15.6038 162.918 15.8137V16.1642C162.282 16.2127 161.756 16.4169 161.341 16.7773C160.862 17.194 160.622 17.713 160.622 18.3347C160.622 19.3945 161.388 20.1001 162.918 20.4519V22.0578C162.718 22.0176 162.549 21.9402 162.41 21.8248C162.304 21.7363 162.222 21.6285 162.165 21.5011C162.043 21.2301 161.749 21.0607 161.433 21.0607C160.823 21.0607 160.43 21.6704 160.729 22.1637C160.745 22.1901 160.761 22.2163 160.779 22.2424C161.019 22.6072 161.351 22.8943 161.775 23.1036C162.116 23.2723 162.497 23.373 162.918 23.4057V23.6848C162.918 23.8947 163.088 24.0649 163.298 24.0649C163.508 24.0649 163.678 23.8947 163.678 23.6848V23.3955C164.283 23.3341 164.792 23.1441 165.203 22.8252C165.713 22.4302 165.968 21.9133 165.968 21.2744C165.968 20.3808 165.508 19.7527 164.589 19.3901ZM162.57 18.7458C162.387 18.6185 162.296 18.4512 162.296 18.244C162.296 18.0238 162.376 17.8425 162.536 17.7001C162.637 17.6105 162.765 17.5492 162.918 17.5159V18.9167C162.773 18.8637 162.657 18.8068 162.57 18.7458ZM164.02 21.8862C163.93 21.9587 163.815 22.0111 163.678 22.045V20.6728C163.789 20.7171 163.883 20.7633 163.96 20.8114C164.171 20.9431 164.276 21.1233 164.276 21.3521C164.276 21.5722 164.191 21.7503 164.02 21.8862Z" fill="#DE5A00"/>
<path d="M163.297 12.8223C159.471 12.8223 156.37 15.9234 156.37 19.7488C156.37 23.5743 159.471 26.6755 163.297 26.6755C167.122 26.6755 170.223 23.5743 170.223 19.7488C170.223 15.9234 167.122 12.8223 163.297 12.8223ZM163.297 24.873C160.467 24.873 158.173 22.5789 158.173 19.7488C158.173 16.9188 160.467 14.6247 163.297 14.6247C166.127 14.6247 168.421 16.9188 168.421 19.7488C168.421 22.5789 166.127 24.873 163.297 24.873Z" fill="#FFC711"/>
<mask id="mask2_2451_28993" style="mask-type:alpha" maskUnits="userSpaceOnUse" x="156" y="12" width="15" height="15">
<mask id="mask3_2451_28993" style="mask-type:luminance" maskUnits="userSpaceOnUse" x="152" y="9" width="23" height="22">
<path d="M152.545 9H174.045V30.5H152.545V9Z" fill="white"/>
</mask>
<g mask="url(#mask3_2451_28993)">
<path d="M163.297 12.8281C159.471 12.8281 156.37 15.9292 156.37 19.7547C156.37 23.5802 159.471 26.6814 163.297 26.6814C167.122 26.6814 170.223 23.5802 170.223 19.7547C170.223 15.9292 167.122 12.8281 163.297 12.8281ZM163.297 24.8789C160.467 24.8789 158.173 22.5847 158.173 19.7547C158.173 16.9247 160.467 14.6305 163.297 14.6305C166.127 14.6305 168.421 16.9247 168.421 19.7547C168.421 22.5847 166.127 24.8789 163.297 24.8789Z" fill="#FFC711"/>
<path d="M164.59 19.3901C164.336 19.2905 164.032 19.1997 163.679 19.1174V17.5586C163.797 17.6022 163.894 17.6654 163.97 17.7486C164.027 17.8111 164.075 17.8794 164.111 17.9537C164.248 18.2286 164.534 18.4123 164.86 18.4123H164.906C165.55 18.4123 165.958 17.7591 165.625 17.248C165.514 17.0779 165.375 16.9221 165.207 16.7806C164.806 16.4419 164.297 16.2402 163.679 16.1755V15.8137C163.679 15.6038 163.509 15.4336 163.299 15.4336C163.089 15.4336 162.919 15.6038 162.919 15.8137V16.1642C162.283 16.2127 161.757 16.4169 161.342 16.7773C160.863 17.194 160.623 17.713 160.623 18.3347C160.623 19.3945 161.389 20.1001 162.919 20.4519V22.0578C162.719 22.0176 162.55 21.9402 162.411 21.8248C162.305 21.7363 162.223 21.6285 162.166 21.5011C162.044 21.2301 161.75 21.0607 161.434 21.0607C160.824 21.0607 160.431 21.6704 160.73 22.1637C160.746 22.1901 160.762 22.2163 160.78 22.2424C161.02 22.6072 161.352 22.8943 161.776 23.1036C162.117 23.2723 162.498 23.373 162.919 23.4057V23.6848C162.919 23.8947 163.089 24.0649 163.299 24.0649C163.509 24.0649 163.679 23.8947 163.679 23.6848V23.3955C164.284 23.3341 164.793 23.1441 165.204 22.8252C165.714 22.4302 165.969 21.9133 165.969 21.2744C165.969 20.3808 165.509 19.7527 164.59 19.3901ZM162.571 18.7458C162.388 18.6185 162.297 18.4512 162.297 18.244C162.297 18.0238 162.377 17.8425 162.537 17.7001C162.638 17.6105 162.766 17.5492 162.919 17.5159V18.9167C162.774 18.8637 162.658 18.8068 162.571 18.7458ZM164.021 21.8862C163.93 21.9587 163.816 22.0111 163.679 22.045V20.6728C163.79 20.7171 163.884 20.7633 163.961 20.8114C164.172 20.9431 164.277 21.1233 164.277 21.3521C164.277 21.5722 164.192 21.7503 164.021 21.8862Z" fill="#FFC711"/>
</g>
</mask>
<g mask="url(#mask2_2451_28993)">
<path d="M168.073 12.2997L158.426 28.3544L154.807 26.1797L164.454 10.125L168.073 12.2997Z" fill="#FFE286"/>
</g>
</g>
</g>
<circle cx="163.296" cy="19.7501" r="4.65833" fill="#EF7B00"/>
<path d="M161.504 21.8996V17.9766C161.504 17.8932 161.531 17.8122 161.582 17.7462C161.633 17.6803 161.705 17.6332 161.786 17.6122C161.866 17.5913 161.952 17.5978 162.028 17.6307C162.105 17.6635 162.169 17.7209 162.209 17.7938L164.382 21.7054C164.422 21.7783 164.486 21.8357 164.563 21.8685C164.639 21.9014 164.725 21.9079 164.805 21.887C164.886 21.8661 164.957 21.8189 165.008 21.753C165.059 21.687 165.087 21.606 165.087 21.5226V17.5996M160.787 19.0329H165.804M160.787 20.4663H165.804" stroke="#FFE286" stroke-width="0.716667" stroke-linecap="round" stroke-linejoin="round"/>
</g>
<path d="M57.1314 24.126C60.1554 24.126 62.1714 22.152 62.1714 18.904C62.1714 15.656 60.1694 13.682 57.1314 13.682C54.1074 13.682 52.1054 15.656 52.1054 18.904C52.1054 22.138 54.0934 24.126 57.1314 24.126ZM57.1314 22.81C55.0174 22.81 53.6734 21.382 53.6734 18.904C53.6734 16.426 55.0034 14.998 57.1314 14.998C59.2594 14.998 60.6034 16.426 60.6034 18.904C60.6034 21.368 59.2594 22.81 57.1314 22.81ZM63.7233 24H65.1513V19.954C65.1513 18.68 65.9493 17.672 67.2233 17.672C68.3993 17.672 68.9453 18.386 68.9453 19.898V24H70.3873V19.604C70.3873 17.336 69.2533 16.482 67.7413 16.482C66.6493 16.482 65.6693 17.014 65.2353 18.064H65.1513L65.0953 16.594H63.7233V24ZM75.4166 24.126C77.1666 24.126 78.5106 23.174 78.7066 21.718H77.3346C77.1526 22.488 76.4106 22.978 75.4166 22.978C74.1286 22.978 73.2886 22.11 73.2606 20.584H78.7486C78.9726 18.26 77.7966 16.482 75.3606 16.482C73.1906 16.482 71.8326 17.994 71.8326 20.332C71.8326 22.614 73.1906 24.126 75.4166 24.126ZM75.3466 17.616C76.4386 17.616 77.2926 18.19 77.3346 19.562H73.2886C73.4006 18.358 74.1846 17.616 75.3466 17.616ZM83.0653 24.14C84.9973 24.14 86.2013 23.412 86.2013 21.9C86.2013 20.206 84.9133 19.87 83.3733 19.66C82.1133 19.492 81.5533 19.268 81.5533 18.54C81.5533 17.91 82.0853 17.476 83.0653 17.476C84.0173 17.476 84.6193 17.882 84.6333 18.778H86.0473C86.0193 17.336 84.9133 16.454 83.0933 16.454C81.3013 16.454 80.1113 17.266 80.1113 18.68C80.1113 20.192 81.2733 20.584 82.9533 20.822C84.1993 21.004 84.7313 21.2 84.7313 22.026C84.7313 22.712 84.1713 23.118 83.1073 23.118C82.0713 23.118 81.3293 22.684 81.3293 21.676H79.9013C79.9013 23.146 81.0353 24.14 83.0653 24.14ZM91.0029 24.126C92.8509 24.126 94.1949 23.034 94.3069 21.354H92.9069C92.7949 22.292 92.0809 22.922 91.0029 22.922C89.7149 22.922 88.8749 21.984 88.8749 20.318C88.8749 18.736 89.6449 17.686 91.0169 17.686C91.9689 17.686 92.7109 18.19 92.8789 19.156H94.2789C94.1669 17.56 92.8509 16.482 91.0589 16.482C88.8329 16.482 87.4049 18.008 87.4049 20.304C87.4049 22.6 88.8329 24.126 91.0029 24.126ZM98.3602 24.126C99.5082 24.126 100.474 23.524 100.838 22.502H100.922L100.992 24H102.364V16.594H100.922V20.598C100.922 21.956 100.11 22.922 98.8922 22.922C97.6462 22.922 97.1422 22.166 97.1422 20.794V16.594H95.7002V21.158C95.7002 23.118 96.6802 24.126 98.3602 24.126ZM106.78 24.126C108.026 24.126 108.95 23.482 109.3 22.53H109.384L109.44 24H110.826V13.794H109.384V18.05H109.3C108.95 17.098 108.026 16.468 106.78 16.468C104.974 16.468 103.756 17.812 103.756 20.29C103.756 22.768 104.974 24.126 106.78 24.126ZM107.284 22.936C106.052 22.936 105.24 22.026 105.24 20.29C105.24 18.54 106.052 17.644 107.284 17.644C108.656 17.644 109.37 18.736 109.37 19.87V20.71C109.37 21.858 108.656 22.936 107.284 22.936Z" fill="#1E2C31"/>
<path d="M124.172 21.536C123.956 21.536 123.76 21.5013 123.584 21.432C123.411 21.3627 123.26 21.264 123.132 21.136C123.007 21.0053 122.911 20.848 122.844 20.664C122.778 20.48 122.744 20.2733 122.744 20.044C122.744 19.812 122.778 19.604 122.844 19.42C122.911 19.236 123.008 19.08 123.136 18.952C123.264 18.8213 123.415 18.7227 123.588 18.656C123.762 18.5867 123.956 18.552 124.172 18.552C124.412 18.552 124.626 18.5933 124.812 18.676C125.002 18.7587 125.156 18.876 125.276 19.028C125.396 19.1773 125.47 19.3547 125.496 19.56H125.056C125.03 19.4373 124.976 19.3293 124.896 19.236C124.819 19.14 124.719 19.0653 124.596 19.012C124.474 18.956 124.332 18.928 124.172 18.928C123.972 18.928 123.798 18.972 123.648 19.06C123.502 19.148 123.388 19.2747 123.308 19.44C123.231 19.6053 123.192 19.8067 123.192 20.044C123.192 20.22 123.215 20.3773 123.26 20.516C123.306 20.6547 123.371 20.772 123.456 20.868C123.542 20.9613 123.644 21.0333 123.764 21.084C123.887 21.1347 124.023 21.16 124.172 21.16C124.33 21.16 124.47 21.1333 124.592 21.08C124.718 21.0267 124.82 20.952 124.9 20.856C124.98 20.7573 125.032 20.6427 125.056 20.512L125.496 20.516C125.472 20.7213 125.4 20.9013 125.28 21.056C125.163 21.208 125.008 21.3267 124.816 21.412C124.627 21.4947 124.412 21.536 124.172 21.536ZM126.866 21.536C126.711 21.536 126.57 21.5107 126.442 21.46C126.317 21.4093 126.209 21.336 126.118 21.24C126.027 21.144 125.957 21.0293 125.906 20.896C125.855 20.7627 125.83 20.6133 125.83 20.448C125.83 20.2293 125.871 20.0387 125.954 19.876C126.039 19.7107 126.159 19.5827 126.314 19.492C126.471 19.3987 126.655 19.352 126.866 19.352C127.021 19.352 127.161 19.3773 127.286 19.428C127.414 19.476 127.523 19.548 127.614 19.644C127.705 19.74 127.774 19.856 127.822 19.992C127.873 20.1253 127.898 20.276 127.898 20.444C127.898 20.66 127.857 20.8507 127.774 21.016C127.691 21.1787 127.573 21.3067 127.418 21.4C127.263 21.4907 127.079 21.536 126.866 21.536ZM126.866 21.192C126.989 21.192 127.095 21.164 127.186 21.108C127.279 21.0493 127.351 20.964 127.402 20.852C127.453 20.74 127.478 20.604 127.478 20.444C127.478 20.324 127.463 20.2187 127.434 20.128C127.407 20.0347 127.367 19.956 127.314 19.892C127.261 19.8253 127.197 19.776 127.122 19.744C127.047 19.7093 126.962 19.692 126.866 19.692C126.743 19.692 126.635 19.7213 126.542 19.78C126.451 19.8387 126.379 19.924 126.326 20.036C126.275 20.1453 126.25 20.2827 126.25 20.448C126.25 20.5653 126.263 20.6707 126.29 20.764C126.319 20.8547 126.361 20.932 126.414 20.996C126.47 21.06 126.535 21.1093 126.61 21.144C126.687 21.176 126.773 21.192 126.866 21.192ZM128.33 21.5V19.384H128.722L128.738 19.804H128.762C128.82 19.6547 128.912 19.5427 129.038 19.468C129.166 19.3907 129.307 19.352 129.462 19.352C129.616 19.352 129.755 19.3893 129.878 19.464C130.003 19.5387 130.092 19.6667 130.146 19.848H130.178C130.236 19.6827 130.332 19.5587 130.466 19.476C130.602 19.3933 130.754 19.352 130.922 19.352C131.06 19.352 131.184 19.3813 131.294 19.44C131.406 19.4987 131.494 19.5933 131.558 19.724C131.622 19.8547 131.654 20.028 131.654 20.244V21.5H131.246V20.328C131.246 20.184 131.228 20.0653 131.194 19.972C131.159 19.876 131.107 19.8053 131.038 19.76C130.968 19.7147 130.878 19.692 130.766 19.692C130.651 19.692 130.551 19.7213 130.466 19.78C130.38 19.8387 130.314 19.9173 130.266 20.016C130.22 20.112 130.198 20.2213 130.198 20.344V21.5H129.786V20.328C129.786 20.184 129.768 20.0653 129.734 19.972C129.699 19.876 129.647 19.8053 129.578 19.76C129.508 19.7147 129.419 19.692 129.31 19.692C129.192 19.692 129.091 19.7213 129.006 19.78C128.92 19.8387 128.854 19.9173 128.806 20.016C128.76 20.112 128.738 20.2213 128.738 20.344V21.5H128.33ZM132.208 21.5V19.384H132.62V21.5H132.208ZM132.208 19.06V18.584H132.62V19.06H132.208ZM133.193 21.5V19.384H133.585L133.601 19.804H133.625C133.686 19.6547 133.782 19.5427 133.913 19.468C134.043 19.3907 134.186 19.352 134.341 19.352C134.45 19.352 134.55 19.368 134.641 19.4C134.734 19.432 134.814 19.484 134.881 19.556C134.95 19.6253 135.003 19.7173 135.041 19.832C135.078 19.944 135.097 20.0813 135.097 20.244V21.5H134.685V20.328C134.685 20.184 134.667 20.0653 134.633 19.972C134.598 19.876 134.545 19.8053 134.473 19.76C134.401 19.7147 134.307 19.692 134.193 19.692C134.073 19.692 133.967 19.7213 133.877 19.78C133.789 19.8387 133.721 19.9173 133.673 20.016C133.625 20.112 133.601 20.2213 133.601 20.344V21.5H133.193ZM136.49 22.208C136.322 22.208 136.175 22.1827 136.05 22.132C135.924 22.084 135.824 22.0147 135.75 21.924C135.675 21.8333 135.63 21.7253 135.614 21.6H136.014C136.024 21.6613 136.051 21.7147 136.094 21.76C136.136 21.808 136.191 21.844 136.258 21.868C136.327 21.892 136.407 21.904 136.498 21.904C136.626 21.904 136.732 21.8853 136.818 21.848C136.903 21.8133 136.968 21.756 137.014 21.676C137.059 21.596 137.082 21.4907 137.082 21.36V20.948H137.054C137.006 21.076 136.92 21.18 136.798 21.26C136.675 21.3373 136.53 21.376 136.362 21.376C136.234 21.376 136.116 21.3547 136.01 21.312C135.906 21.2667 135.816 21.2013 135.742 21.116C135.667 21.028 135.61 20.9213 135.57 20.796C135.53 20.668 135.51 20.524 135.51 20.364C135.51 20.148 135.546 19.964 135.618 19.812C135.69 19.66 135.79 19.5453 135.918 19.468C136.046 19.388 136.195 19.348 136.366 19.348C136.534 19.348 136.678 19.3867 136.798 19.464C136.92 19.5413 137.006 19.6453 137.054 19.776H137.082L137.09 19.384H137.49V21.304C137.49 21.4693 137.466 21.6093 137.418 21.724C137.37 21.8413 137.302 21.9347 137.214 22.004C137.126 22.076 137.019 22.128 136.894 22.16C136.771 22.192 136.636 22.208 136.49 22.208ZM136.502 21.056C136.624 21.056 136.728 21.028 136.814 20.972C136.899 20.916 136.964 20.8453 137.01 20.76C137.055 20.672 137.079 20.5813 137.082 20.488L137.078 20.232C137.075 20.1413 137.052 20.0533 137.01 19.968C136.967 19.88 136.903 19.8093 136.818 19.756C136.735 19.7 136.631 19.672 136.506 19.672C136.388 19.672 136.287 19.6987 136.202 19.752C136.116 19.8053 136.05 19.884 136.002 19.988C135.956 20.092 135.934 20.2173 135.934 20.364C135.934 20.5133 135.956 20.64 136.002 20.744C136.05 20.8453 136.116 20.9227 136.202 20.976C136.287 21.0293 136.387 21.056 136.502 21.056ZM139.979 21.536C139.72 21.536 139.506 21.496 139.335 21.416C139.164 21.336 139.036 21.2253 138.951 21.084C138.866 20.94 138.822 20.7747 138.819 20.588H139.267C139.27 20.7107 139.296 20.8187 139.347 20.912C139.4 21.0027 139.479 21.072 139.583 21.12C139.687 21.168 139.822 21.192 139.987 21.192C140.192 21.192 140.356 21.1547 140.479 21.08C140.604 21.0053 140.667 20.8907 140.667 20.736C140.667 20.648 140.654 20.5747 140.627 20.516C140.6 20.4573 140.556 20.4093 140.495 20.372C140.436 20.332 140.358 20.2987 140.259 20.272C140.16 20.2453 140.04 20.22 139.899 20.196C139.731 20.1667 139.583 20.132 139.455 20.092C139.33 20.0493 139.224 19.9973 139.139 19.936C139.056 19.872 138.994 19.7947 138.951 19.704C138.908 19.6133 138.887 19.5067 138.887 19.384C138.887 19.2133 138.93 19.0653 139.015 18.94C139.1 18.8147 139.223 18.7187 139.383 18.652C139.543 18.5853 139.735 18.552 139.959 18.552C140.183 18.552 140.374 18.588 140.531 18.66C140.688 18.7293 140.81 18.828 140.895 18.956C140.98 19.0813 141.024 19.2307 141.027 19.404H140.583C140.58 19.2867 140.551 19.1907 140.495 19.116C140.442 19.0387 140.367 18.9813 140.271 18.944C140.178 18.9067 140.068 18.888 139.943 18.888C139.815 18.888 139.706 18.9067 139.615 18.944C139.527 18.9787 139.459 19.0293 139.411 19.096C139.363 19.16 139.339 19.236 139.339 19.324C139.339 19.4307 139.364 19.5133 139.415 19.572C139.468 19.6307 139.552 19.6773 139.667 19.712C139.782 19.744 139.932 19.7773 140.119 19.812C140.25 19.8307 140.374 19.8573 140.491 19.892C140.611 19.9267 140.718 19.9747 140.811 20.036C140.907 20.0973 140.982 20.1813 141.035 20.288C141.091 20.392 141.119 20.528 141.119 20.696C141.119 20.8613 141.075 21.008 140.987 21.136C140.902 21.2613 140.774 21.36 140.603 21.432C140.435 21.5013 140.227 21.536 139.979 21.536ZM142.475 21.536C142.321 21.536 142.179 21.5107 142.051 21.46C141.926 21.4093 141.818 21.336 141.727 21.24C141.637 21.144 141.566 21.0293 141.515 20.896C141.465 20.7627 141.439 20.6133 141.439 20.448C141.439 20.2293 141.481 20.0387 141.563 19.876C141.649 19.7107 141.769 19.5827 141.923 19.492C142.081 19.3987 142.265 19.352 142.475 19.352C142.63 19.352 142.77 19.3773 142.895 19.428C143.023 19.476 143.133 19.548 143.223 19.644C143.314 19.74 143.383 19.856 143.431 19.992C143.482 20.1253 143.507 20.276 143.507 20.444C143.507 20.66 143.466 20.8507 143.383 21.016C143.301 21.1787 143.182 21.3067 143.027 21.4C142.873 21.4907 142.689 21.536 142.475 21.536ZM142.475 21.192C142.598 21.192 142.705 21.164 142.795 21.108C142.889 21.0493 142.961 20.964 143.011 20.852C143.062 20.74 143.087 20.604 143.087 20.444C143.087 20.324 143.073 20.2187 143.043 20.128C143.017 20.0347 142.977 19.956 142.923 19.892C142.87 19.8253 142.806 19.776 142.731 19.744C142.657 19.7093 142.571 19.692 142.475 19.692C142.353 19.692 142.245 19.7213 142.151 19.78C142.061 19.8387 141.989 19.924 141.935 20.036C141.885 20.1453 141.859 20.2827 141.859 20.448C141.859 20.5653 141.873 20.6707 141.899 20.764C141.929 20.8547 141.97 20.932 142.023 20.996C142.079 21.06 142.145 21.1093 142.219 21.144C142.297 21.176 142.382 21.192 142.475 21.192ZM144.87 21.536C144.715 21.536 144.574 21.5107 144.446 21.46C144.321 21.4093 144.213 21.336 144.122 21.24C144.031 21.144 143.961 21.0293 143.91 20.896C143.859 20.7627 143.834 20.6133 143.834 20.448C143.834 20.2293 143.875 20.0387 143.958 19.876C144.043 19.7107 144.163 19.5827 144.318 19.492C144.475 19.3987 144.659 19.352 144.87 19.352C145.025 19.352 145.165 19.3773 145.29 19.428C145.418 19.476 145.527 19.548 145.618 19.644C145.709 19.74 145.778 19.856 145.826 19.992C145.877 20.1253 145.902 20.276 145.902 20.444C145.902 20.66 145.861 20.8507 145.778 21.016C145.695 21.1787 145.577 21.3067 145.422 21.4C145.267 21.4907 145.083 21.536 144.87 21.536ZM144.87 21.192C144.993 21.192 145.099 21.164 145.19 21.108C145.283 21.0493 145.355 20.964 145.406 20.852C145.457 20.74 145.482 20.604 145.482 20.444C145.482 20.324 145.467 20.2187 145.438 20.128C145.411 20.0347 145.371 19.956 145.318 19.892C145.265 19.8253 145.201 19.776 145.126 19.744C145.051 19.7093 144.966 19.692 144.87 19.692C144.747 19.692 144.639 19.7213 144.546 19.78C144.455 19.8387 144.383 19.924 144.33 20.036C144.279 20.1453 144.254 20.2827 144.254 20.448C144.254 20.5653 144.267 20.6707 144.294 20.764C144.323 20.8547 144.365 20.932 144.418 20.996C144.474 21.06 144.539 21.1093 144.614 21.144C144.691 21.176 144.777 21.192 144.87 21.192ZM146.333 21.5V19.384H146.725L146.741 19.804H146.765C146.827 19.6547 146.923 19.5427 147.053 19.468C147.184 19.3907 147.327 19.352 147.481 19.352C147.591 19.352 147.691 19.368 147.781 19.4C147.875 19.432 147.955 19.484 148.021 19.556C148.091 19.6253 148.144 19.7173 148.181 19.832C148.219 19.944 148.237 20.0813 148.237 20.244V21.5H147.825V20.328C147.825 20.184 147.808 20.0653 147.773 19.972C147.739 19.876 147.685 19.8053 147.613 19.76C147.541 19.7147 147.448 19.692 147.333 19.692C147.213 19.692 147.108 19.7213 147.017 19.78C146.929 19.8387 146.861 19.9173 146.813 20.016C146.765 20.112 146.741 20.2213 146.741 20.344V21.5H146.333Z" fill="#9CA3AF"/>
<rect x="117.821" y="13.8753" width="35.4486" height="12.2486" rx="6.12431" stroke="#9CA3AF" stroke-width="0.551376"/>
</g>
<defs>
<linearGradient id="paint0_linear_2451_28993" x1="8.11732" y1="6.50393" x2="20.1266" y2="54.4957" gradientUnits="userSpaceOnUse">
<stop stop-color="#30F6F6"/>
<stop offset="1" stop-color="#30F6F6" stop-opacity="0"/>
</linearGradient>
<clipPath id="clip0_2451_28993">
<rect width="172" height="50" fill="white"/>
</clipPath>
<clipPath id="clip1_2451_28993">
<rect width="21.5" height="21.5" fill="white" transform="translate(152.545 9)"/>
</clipPath>
</defs>
</svg>
