<svg width="172" height="42" viewBox="0 0 172 42" fill="none" xmlns="http://www.w3.org/2000/svg">
<g clip-path="url(#clip0_2451_28839)">
<path d="M52.88 34H56.13C57.7 34 58.64 33.26 58.64 31.95C58.64 31.12 58.17 30.43 57.28 30.25V30.2C58.06 30 58.45 29.34 58.45 28.58C58.45 27.46 57.68 26.71 56.26 26.71H52.88V34ZM53.95 29.85V27.57H56C56.82 27.57 57.36 27.98 57.36 28.73C57.36 29.4 56.94 29.85 56.09 29.85H53.95ZM53.95 33.14V30.68H56.14C57.01 30.68 57.53 31.11 57.53 31.89C57.53 32.63 57.05 33.14 56.03 33.14H53.95ZM62.0008 34.09C63.5908 34.09 64.5808 32.98 64.5808 31.36C64.5808 29.68 63.5408 28.63 62.0008 28.63C60.4008 28.63 59.4108 29.74 59.4108 31.37C59.4108 33.03 60.4508 34.09 62.0008 34.09ZM62.0008 33.23C61.0608 33.23 60.4608 32.55 60.4608 31.37C60.4608 30.15 61.0808 29.48 62.0008 29.48C62.9508 29.48 63.5308 30.17 63.5308 31.36C63.5308 32.56 62.9208 33.23 62.0008 33.23ZM67.9871 34.09C69.5771 34.09 70.5671 32.98 70.5671 31.36C70.5671 29.68 69.5271 28.63 67.9871 28.63C66.3871 28.63 65.3971 29.74 65.3971 31.37C65.3971 33.03 66.4371 34.09 67.9871 34.09ZM67.9871 33.23C67.0471 33.23 66.4471 32.55 66.4471 31.37C66.4471 30.15 67.0671 29.48 67.9871 29.48C68.9371 29.48 69.5171 30.17 69.5171 31.36C69.5171 32.56 68.9071 33.23 67.9871 33.23ZM71.6458 34H72.6858V32.38L73.6258 31.47L73.9458 32L75.2658 34H76.4758L74.3458 30.77L76.3958 28.71H75.1158L73.1458 30.74L72.6858 31.24V26.71H71.6458V34ZM76.8703 31.79H79.8703V30.92H76.8703V31.79ZM80.8938 34H81.9338V32.38L82.8738 31.47L83.1938 32L84.5138 34H85.7238L83.5938 30.77L85.6438 28.71H84.3638L82.3938 30.74L81.9338 31.24V26.71H80.8938V34ZM88.4747 34.09C89.7247 34.09 90.6847 33.41 90.8247 32.37H89.8447C89.7147 32.92 89.1847 33.27 88.4747 33.27C87.5547 33.27 86.9547 32.65 86.9347 31.56H90.8547C91.0147 29.9 90.1747 28.63 88.4347 28.63C86.8847 28.63 85.9147 29.71 85.9147 31.38C85.9147 33.01 86.8847 34.09 88.4747 34.09ZM88.4247 29.44C89.2047 29.44 89.8147 29.85 89.8447 30.83H86.9547C87.0347 29.97 87.5947 29.44 88.4247 29.44ZM94.2657 34.09C95.5157 34.09 96.4757 33.41 96.6157 32.37H95.6357C95.5057 32.92 94.9757 33.27 94.2657 33.27C93.3457 33.27 92.7457 32.65 92.7257 31.56H96.6457C96.8057 29.9 95.9657 28.63 94.2257 28.63C92.6757 28.63 91.7057 29.71 91.7057 31.38C91.7057 33.01 92.6757 34.09 94.2657 34.09ZM94.2157 29.44C94.9957 29.44 95.6057 29.85 95.6357 30.83H92.7457C92.8257 29.97 93.3857 29.44 94.2157 29.44ZM97.7591 35.67H98.7891V32.96H98.8491C99.1091 33.64 99.7691 34.09 100.649 34.09C101.939 34.09 102.809 33.13 102.809 31.36C102.809 29.59 101.939 28.62 100.649 28.62C99.7691 28.62 99.1091 29.08 98.8491 29.75H98.7891L98.7491 28.71H97.7591V35.67ZM100.289 33.24C99.3091 33.24 98.7991 32.47 98.7991 31.65V31.06C98.7991 30.24 99.3091 29.47 100.289 29.47C101.169 29.47 101.759 30.11 101.759 31.36C101.759 32.6 101.169 33.24 100.289 33.24ZM103.902 27.9H104.932V26.71H103.902V27.9ZM103.902 34H104.932V28.71H103.902V34ZM106.363 34H107.383V31.11C107.383 30.2 107.953 29.48 108.863 29.48C109.703 29.48 110.093 29.99 110.093 31.07V34H111.123V30.86C111.123 29.24 110.313 28.63 109.233 28.63C108.453 28.63 107.753 29.01 107.443 29.76H107.383L107.343 28.71H106.363V34ZM114.605 35.77C116.095 35.77 117.105 35.17 117.105 33.51V28.71H116.105L116.085 29.69H116.015C115.775 29.05 115.135 28.62 114.295 28.62C113.015 28.62 112.155 29.54 112.155 31.16C112.155 32.77 112.995 33.69 114.285 33.69C115.125 33.69 115.775 33.26 116.015 32.62H116.085V33.65C116.085 34.63 115.575 35.01 114.625 35.01C113.955 35.01 113.495 34.72 113.415 34.25H112.415C112.525 35.19 113.335 35.77 114.605 35.77ZM114.635 32.89C113.775 32.89 113.215 32.28 113.215 31.16C113.215 30.06 113.765 29.43 114.645 29.43C115.575 29.43 116.065 30.14 116.075 30.83L116.085 31.47C116.065 32.17 115.555 32.89 114.635 32.89ZM120.728 34H121.748V31.11C121.748 30.2 122.298 29.48 123.178 29.48C123.998 29.48 124.368 29.99 124.368 31.07V34H125.398V31.11C125.398 30.2 125.948 29.48 126.818 29.48C127.648 29.48 128.018 29.99 128.018 31.07V34H129.038V30.86C129.038 29.24 128.258 28.63 127.208 28.63C126.358 28.63 125.638 29.05 125.348 29.87H125.268C124.998 28.97 124.338 28.63 123.558 28.63C122.788 28.63 122.108 29.01 121.808 29.76H121.748L121.708 28.71H120.728V34ZM132.225 34.09C133.115 34.09 133.775 33.63 134.025 32.95H134.085V34H135.115V28.71H134.125L134.085 29.75H134.025C133.775 29.07 133.115 28.62 132.225 28.62C130.935 28.62 130.065 29.58 130.065 31.35C130.065 33.12 130.935 34.09 132.225 34.09ZM132.585 33.24C131.705 33.24 131.125 32.59 131.125 31.35C131.125 30.1 131.705 29.46 132.585 29.46C133.565 29.46 134.075 30.24 134.075 31.05V31.65C134.075 32.47 133.565 33.24 132.585 33.24ZM138.319 34.09C139.209 34.09 139.869 33.63 140.119 32.95H140.179L140.219 34H141.209V26.71H140.179V29.75H140.119C139.869 29.07 139.209 28.62 138.319 28.62C137.029 28.62 136.159 29.58 136.159 31.35C136.159 33.12 137.029 34.09 138.319 34.09ZM138.679 33.24C137.799 33.24 137.219 32.59 137.219 31.35C137.219 30.1 137.799 29.46 138.679 29.46C139.659 29.46 140.169 30.24 140.169 31.05V31.65C140.169 32.47 139.659 33.24 138.679 33.24ZM144.852 34.09C146.102 34.09 147.062 33.41 147.202 32.37H146.222C146.092 32.92 145.562 33.27 144.852 33.27C143.932 33.27 143.332 32.65 143.312 31.56H147.232C147.392 29.9 146.552 28.63 144.812 28.63C143.262 28.63 142.292 29.71 142.292 31.38C142.292 33.01 143.262 34.09 144.852 34.09ZM144.802 29.44C145.582 29.44 146.192 29.85 146.222 30.83H143.332C143.412 29.97 143.972 29.44 144.802 29.44ZM152.781 34.09C154.031 34.09 154.991 33.41 155.131 32.37H154.151C154.021 32.92 153.491 33.27 152.781 33.27C151.861 33.27 151.261 32.65 151.241 31.56H155.161C155.321 29.9 154.481 28.63 152.741 28.63C151.191 28.63 150.221 29.71 150.221 31.38C150.221 33.01 151.191 34.09 152.781 34.09ZM152.731 29.44C153.511 29.44 154.121 29.85 154.151 30.83H151.261C151.341 29.97 151.901 29.44 152.731 29.44ZM158.172 34.09C159.062 34.09 159.722 33.63 159.972 32.95H160.032V34H161.062V28.71H160.072L160.032 29.75H159.972C159.722 29.07 159.062 28.62 158.172 28.62C156.882 28.62 156.012 29.58 156.012 31.35C156.012 33.12 156.882 34.09 158.172 34.09ZM158.532 33.24C157.652 33.24 157.072 32.59 157.072 31.35C157.072 30.1 157.652 29.46 158.532 29.46C159.512 29.46 160.022 30.24 160.022 31.05V31.65C160.022 32.47 159.512 33.24 158.532 33.24ZM164.475 34.1C165.855 34.1 166.715 33.58 166.715 32.5C166.715 31.29 165.795 31.05 164.695 30.9C163.795 30.78 163.395 30.62 163.395 30.1C163.395 29.65 163.775 29.34 164.475 29.34C165.155 29.34 165.585 29.63 165.595 30.27H166.605C166.585 29.24 165.795 28.61 164.495 28.61C163.215 28.61 162.365 29.19 162.365 30.2C162.365 31.28 163.195 31.56 164.395 31.73C165.285 31.86 165.665 32 165.665 32.59C165.665 33.08 165.265 33.37 164.505 33.37C163.765 33.37 163.235 33.06 163.235 32.34H162.215C162.215 33.39 163.025 34.1 164.475 34.1ZM167.35 35.67H168.09C168.92 35.67 169.45 35.38 169.79 34.46L171.99 28.71H170.9L169.76 31.93L169.55 32.56H169.51L169.29 31.93L168.08 28.71H166.95L169.03 33.62L168.8 34.21C168.63 34.63 168.39 34.82 167.92 34.82H167.35V35.67Z" fill="#9CA3AF"/>
<g clip-path="url(#clip1_2451_28839)">
<g opacity="0.5" filter="url(#filter0_d_2451_28839)">
<path fill-rule="evenodd" clip-rule="evenodd" d="M34.75 21.4997C34.75 30.4745 27.4749 37.7497 18.5 37.7497C16.6622 37.752 14.8374 37.4421 13.1034 36.8332C12.3724 35.0626 11.9975 33.1652 12 31.2497C11.9956 27.7822 13.2274 24.4267 15.4743 21.7857C16.4439 23.2015 17.7443 24.3594 19.2627 25.1591C20.781 25.9587 22.4715 26.376 24.1875 26.3747C26.0078 26.3756 27.7974 25.9058 29.3825 25.0109C30.9676 24.1159 32.2943 22.8263 33.2339 21.2673C33.6239 20.6238 34.75 20.7473 34.75 21.4997Z" fill="#F59E0B"/>
</g>
<path d="M2.25 21.5C2.25 28.5834 6.78212 34.6072 13.1034 36.8319C12.3726 35.0618 11.9977 33.165 12 31.25C12 27.6409 13.3081 24.3356 15.4742 21.786C14.2663 20.0285 13.6213 17.9451 13.625 15.8125C13.6241 13.9922 14.0939 12.2026 14.9888 10.6175C15.8837 9.03244 17.1733 7.70569 18.7324 6.76613C19.3775 6.37613 19.2524 5.25 18.5 5.25C9.52513 5.25 2.25 12.5251 2.25 21.5Z" fill="url(#paint0_linear_2451_28839)"/>
</g>
<g clip-path="url(#clip2_2451_28839)">
<mask id="mask0_2451_28839" style="mask-type:luminance" maskUnits="userSpaceOnUse" x="133" y="0" width="22" height="22">
<path d="M154.5 0H133V21.5H154.5V0Z" fill="white"/>
</mask>
<g mask="url(#mask0_2451_28839)">
<mask id="mask1_2451_28839" style="mask-type:luminance" maskUnits="userSpaceOnUse" x="133" y="0" width="22" height="22">
<path d="M133 0H154.5V21.5H133V0Z" fill="white"/>
</mask>
<g mask="url(#mask1_2451_28839)">
<path d="M143.751 3.82227C139.926 3.82227 136.825 6.92339 136.825 10.7488C136.825 14.5743 139.926 17.6755 143.751 17.6755C147.577 17.6755 150.678 14.5743 150.678 10.7488C150.678 6.92339 147.577 3.82227 143.751 3.82227Z" fill="#DE5A00"/>
<path d="M143.751 3.82227C139.926 3.82227 136.825 6.92339 136.825 10.7488C136.825 14.5743 139.926 17.6755 143.751 17.6755C147.577 17.6755 150.678 14.5743 150.678 10.7488C150.678 6.92339 147.577 3.82227 143.751 3.82227Z" fill="#EF7B00"/>
<path d="M143.751 3.82227C139.926 3.82227 136.825 6.92339 136.825 10.7488C136.825 14.5743 139.926 17.6755 143.751 17.6755C147.577 17.6755 150.678 14.5743 150.678 10.7488C150.678 6.92339 147.577 3.82227 143.751 3.82227ZM143.751 15.873C140.921 15.873 138.627 13.5789 138.627 10.7488C138.627 7.91884 140.921 5.62468 143.751 5.62468C146.581 5.62468 148.875 7.91884 148.875 10.7488C148.875 13.5789 146.581 15.873 143.751 15.873Z" fill="#DE5A00"/>
<path d="M145.044 10.3901C144.79 10.2905 144.486 10.1997 144.133 10.1174V8.55858C144.25 8.60219 144.347 8.6654 144.424 8.74864C144.481 8.81106 144.528 8.8794 144.565 8.95368C144.701 9.22859 144.988 9.41235 145.314 9.41235H145.36C146.003 9.41235 146.412 8.75907 146.078 8.24798C145.968 8.07788 145.828 7.92207 145.661 7.7806C145.26 7.44187 144.75 7.24024 144.133 7.17552V6.81368C144.133 6.60377 143.963 6.43359 143.753 6.43359C143.543 6.43359 143.373 6.60377 143.373 6.81368V7.16416C142.737 7.21272 142.211 7.41693 141.796 7.77734C141.316 8.19398 141.077 8.71302 141.077 9.33466C141.077 10.3945 141.842 11.1001 143.373 11.4519V13.0578C143.173 13.0176 143.003 12.9402 142.865 12.8248C142.758 12.7363 142.676 12.6285 142.619 12.5011C142.498 12.2301 142.203 12.0607 141.887 12.0607C141.278 12.0607 140.884 12.6704 141.183 13.1637C141.199 13.1901 141.216 13.2163 141.233 13.2424C141.474 13.6072 141.806 13.8943 142.229 14.1036C142.571 14.2723 142.952 14.373 143.373 14.4057V14.6848C143.373 14.8947 143.543 15.0649 143.753 15.0649C143.963 15.0649 144.133 14.8947 144.133 14.6848V14.3955C144.738 14.3341 145.246 14.1441 145.658 13.8252C146.167 13.4302 146.422 12.9133 146.422 12.2744C146.422 11.3808 145.963 10.7527 145.044 10.3901ZM143.024 9.74581C142.841 9.61853 142.75 9.45119 142.75 9.244C142.75 9.02384 142.83 8.84253 142.991 8.70009C143.092 8.61047 143.219 8.54916 143.373 8.5159V9.9167C143.228 9.86367 143.111 9.80676 143.024 9.74581ZM144.475 12.8862C144.384 12.9587 144.27 13.0111 144.133 13.045V11.6728C144.244 11.7171 144.338 11.7633 144.415 11.8114C144.625 11.9431 144.731 12.1233 144.731 12.3521C144.731 12.5722 144.645 12.7503 144.475 12.8862Z" fill="#DE5A00"/>
<path d="M143.751 3.82227C139.926 3.82227 136.825 6.92339 136.825 10.7488C136.825 14.5743 139.926 17.6755 143.751 17.6755C147.577 17.6755 150.678 14.5743 150.678 10.7488C150.678 6.92339 147.577 3.82227 143.751 3.82227ZM143.751 15.873C140.921 15.873 138.627 13.5789 138.627 10.7488C138.627 7.91884 140.921 5.62468 143.751 5.62468C146.581 5.62468 148.875 7.91884 148.875 10.7488C148.875 13.5789 146.581 15.873 143.751 15.873Z" fill="#FFC711"/>
<mask id="mask2_2451_28839" style="mask-type:alpha" maskUnits="userSpaceOnUse" x="136" y="3" width="15" height="15">
<mask id="mask3_2451_28839" style="mask-type:luminance" maskUnits="userSpaceOnUse" x="133" y="0" width="22" height="22">
<path d="M133 0H154.5V21.5H133V0Z" fill="white"/>
</mask>
<g mask="url(#mask3_2451_28839)">
<path d="M143.751 3.82812C139.926 3.82812 136.825 6.92925 136.825 10.7547C136.825 14.5802 139.926 17.6814 143.751 17.6814C147.577 17.6814 150.678 14.5802 150.678 10.7547C150.678 6.92925 147.577 3.82812 143.751 3.82812ZM143.751 15.8789C140.921 15.8789 138.627 13.5847 138.627 10.7547C138.627 7.9247 140.921 5.63054 143.751 5.63054C146.581 5.63054 148.875 7.9247 148.875 10.7547C148.875 13.5847 146.581 15.8789 143.751 15.8789Z" fill="#FFC711"/>
<path d="M145.045 10.3901C144.791 10.2905 144.487 10.1997 144.134 10.1174V8.55858C144.251 8.60219 144.348 8.6654 144.425 8.74864C144.482 8.81106 144.529 8.8794 144.566 8.95368C144.702 9.22859 144.989 9.41235 145.315 9.41235H145.361C146.004 9.41235 146.413 8.75907 146.079 8.24798C145.968 8.07788 145.829 7.92207 145.662 7.7806C145.261 7.44187 144.751 7.24024 144.134 7.17552V6.81368C144.134 6.60377 143.964 6.43359 143.754 6.43359C143.544 6.43359 143.374 6.60377 143.374 6.81368V7.16416C142.738 7.21272 142.212 7.41693 141.797 7.77734C141.317 8.19398 141.078 8.71302 141.078 9.33466C141.078 10.3945 141.843 11.1001 143.374 11.4519V13.0578C143.174 13.0176 143.004 12.9402 142.866 12.8248C142.759 12.7363 142.677 12.6285 142.62 12.5011C142.498 12.2301 142.204 12.0607 141.888 12.0607C141.279 12.0607 140.885 12.6704 141.184 13.1637C141.2 13.1901 141.217 13.2163 141.234 13.2424C141.475 13.6072 141.807 13.8943 142.23 14.1036C142.572 14.2723 142.953 14.373 143.374 14.4057V14.6848C143.374 14.8947 143.544 15.0649 143.754 15.0649C143.964 15.0649 144.134 14.8947 144.134 14.6848V14.3955C144.739 14.3341 145.247 14.1441 145.659 13.8252C146.168 13.4302 146.423 12.9133 146.423 12.2744C146.423 11.3808 145.964 10.7527 145.045 10.3901ZM143.025 9.74581C142.842 9.61853 142.751 9.45119 142.751 9.244C142.751 9.02384 142.831 8.84253 142.992 8.70009C143.093 8.61047 143.22 8.54916 143.374 8.5159V9.9167C143.229 9.86367 143.112 9.80676 143.025 9.74581ZM144.476 12.8862C144.385 12.9587 144.271 13.0111 144.134 13.045V11.6728C144.245 11.7171 144.339 11.7633 144.416 11.8114C144.626 11.9431 144.732 12.1233 144.732 12.3521C144.732 12.5722 144.646 12.7503 144.476 12.8862Z" fill="#FFC711"/>
</g>
</mask>
<g mask="url(#mask2_2451_28839)">
<path d="M148.528 3.29971L138.881 19.3544L135.262 17.1797L144.908 1.125L148.528 3.29971Z" fill="#FFE286"/>
</g>
</g>
</g>
<circle cx="143.75" cy="10.7501" r="4.65833" fill="#EF7B00"/>
<path d="M141.958 12.8996V8.97658C141.958 8.8932 141.986 8.81218 142.037 8.74623C142.088 8.68029 142.16 8.63316 142.24 8.61224C142.321 8.59133 142.406 8.59781 142.483 8.63068C142.56 8.66355 142.623 8.72093 142.664 8.79383L144.836 12.7054C144.877 12.7783 144.941 12.8357 145.017 12.8685C145.094 12.9014 145.179 12.9079 145.26 12.887C145.341 12.8661 145.412 12.8189 145.463 12.753C145.514 12.687 145.542 12.606 145.542 12.5226V8.59961M141.242 10.0329H146.258M141.242 11.4663H146.258" stroke="#FFE286" stroke-width="0.716667" stroke-linecap="round" stroke-linejoin="round"/>
</g>
<path d="M57.586 15.126C60.61 15.126 62.626 13.152 62.626 9.904C62.626 6.656 60.624 4.682 57.586 4.682C54.562 4.682 52.56 6.656 52.56 9.904C52.56 13.138 54.548 15.126 57.586 15.126ZM57.586 13.81C55.472 13.81 54.128 12.382 54.128 9.904C54.128 7.426 55.458 5.998 57.586 5.998C59.714 5.998 61.058 7.426 61.058 9.904C61.058 12.368 59.714 13.81 57.586 13.81ZM64.1779 15H65.6059V10.954C65.6059 9.68 66.4039 8.672 67.6779 8.672C68.8539 8.672 69.3999 9.386 69.3999 10.898V15H70.8419V10.604C70.8419 8.336 69.7079 7.482 68.1959 7.482C67.1039 7.482 66.1239 8.014 65.6899 9.064H65.6059L65.5499 7.594H64.1779V15ZM73.5521 15H75.4281L76.7581 9.428H76.8141L78.1861 15H80.0761L81.9661 7.594H80.5521L79.0961 13.572H79.0541L77.6401 7.594H76.0441L74.6721 13.558H74.6021L73.1461 7.594H71.6621L73.5521 15ZM85.5104 15.126C86.7564 15.126 87.6804 14.482 88.0304 13.53H88.1144V15H89.5564V7.594H88.1704L88.1144 9.05H88.0304C87.6804 8.098 86.7564 7.468 85.5104 7.468C83.7044 7.468 82.4864 8.812 82.4864 11.29C82.4864 13.768 83.7044 15.126 85.5104 15.126ZM86.0144 13.936C84.7824 13.936 83.9704 13.026 83.9704 11.29C83.9704 9.54 84.7824 8.644 86.0144 8.644C87.3864 8.644 88.1004 9.736 88.1004 10.87V11.71C88.1004 12.858 87.3864 13.936 86.0144 13.936Z" fill="#1E2C31"/>
<path d="M102.627 12.536C102.411 12.536 102.215 12.5013 102.039 12.432C101.866 12.3627 101.715 12.264 101.587 12.136C101.462 12.0053 101.366 11.848 101.299 11.664C101.232 11.48 101.199 11.2733 101.199 11.044C101.199 10.812 101.232 10.604 101.299 10.42C101.366 10.236 101.463 10.08 101.591 9.952C101.719 9.82133 101.87 9.72267 102.043 9.656C102.216 9.58667 102.411 9.552 102.627 9.552C102.867 9.552 103.08 9.59333 103.267 9.676C103.456 9.75867 103.611 9.876 103.731 10.028C103.851 10.1773 103.924 10.3547 103.951 10.56H103.511C103.484 10.4373 103.431 10.3293 103.351 10.236C103.274 10.14 103.174 10.0653 103.051 10.012C102.928 9.956 102.787 9.928 102.627 9.928C102.427 9.928 102.252 9.972 102.103 10.06C101.956 10.148 101.843 10.2747 101.763 10.44C101.686 10.6053 101.647 10.8067 101.647 11.044C101.647 11.22 101.67 11.3773 101.715 11.516C101.76 11.6547 101.826 11.772 101.911 11.868C101.996 11.9613 102.099 12.0333 102.219 12.084C102.342 12.1347 102.478 12.16 102.627 12.16C102.784 12.16 102.924 12.1333 103.047 12.08C103.172 12.0267 103.275 11.952 103.355 11.856C103.435 11.7573 103.487 11.6427 103.511 11.512L103.951 11.516C103.927 11.7213 103.855 11.9013 103.735 12.056C103.618 12.208 103.463 12.3267 103.271 12.412C103.082 12.4947 102.867 12.536 102.627 12.536ZM105.321 12.536C105.166 12.536 105.025 12.5107 104.897 12.46C104.771 12.4093 104.663 12.336 104.573 12.24C104.482 12.144 104.411 12.0293 104.361 11.896C104.31 11.7627 104.285 11.6133 104.285 11.448C104.285 11.2293 104.326 11.0387 104.409 10.876C104.494 10.7107 104.614 10.5827 104.769 10.492C104.926 10.3987 105.11 10.352 105.321 10.352C105.475 10.352 105.615 10.3773 105.741 10.428C105.869 10.476 105.978 10.548 106.069 10.644C106.159 10.74 106.229 10.856 106.277 10.992C106.327 11.1253 106.353 11.276 106.353 11.444C106.353 11.66 106.311 11.8507 106.229 12.016C106.146 12.1787 106.027 12.3067 105.873 12.4C105.718 12.4907 105.534 12.536 105.321 12.536ZM105.321 12.192C105.443 12.192 105.55 12.164 105.641 12.108C105.734 12.0493 105.806 11.964 105.857 11.852C105.907 11.74 105.933 11.604 105.933 11.444C105.933 11.324 105.918 11.2187 105.889 11.128C105.862 11.0347 105.822 10.956 105.769 10.892C105.715 10.8253 105.651 10.776 105.577 10.744C105.502 10.7093 105.417 10.692 105.321 10.692C105.198 10.692 105.09 10.7213 104.997 10.78C104.906 10.8387 104.834 10.924 104.781 11.036C104.73 11.1453 104.705 11.2827 104.705 11.448C104.705 11.5653 104.718 11.6707 104.745 11.764C104.774 11.8547 104.815 11.932 104.869 11.996C104.925 12.06 104.99 12.1093 105.065 12.144C105.142 12.176 105.227 12.192 105.321 12.192ZM106.784 12.5V10.384H107.176L107.192 10.804H107.216C107.275 10.6547 107.367 10.5427 107.492 10.468C107.62 10.3907 107.761 10.352 107.916 10.352C108.071 10.352 108.209 10.3893 108.332 10.464C108.457 10.5387 108.547 10.6667 108.6 10.848H108.632C108.691 10.6827 108.787 10.5587 108.92 10.476C109.056 10.3933 109.208 10.352 109.376 10.352C109.515 10.352 109.639 10.3813 109.748 10.44C109.86 10.4987 109.948 10.5933 110.012 10.724C110.076 10.8547 110.108 11.028 110.108 11.244V12.5H109.7V11.328C109.7 11.184 109.683 11.0653 109.648 10.972C109.613 10.876 109.561 10.8053 109.492 10.76C109.423 10.7147 109.332 10.692 109.22 10.692C109.105 10.692 109.005 10.7213 108.92 10.78C108.835 10.8387 108.768 10.9173 108.72 11.016C108.675 11.112 108.652 11.2213 108.652 11.344V12.5H108.24V11.328C108.24 11.184 108.223 11.0653 108.188 10.972C108.153 10.876 108.101 10.8053 108.032 10.76C107.963 10.7147 107.873 10.692 107.764 10.692C107.647 10.692 107.545 10.7213 107.46 10.78C107.375 10.8387 107.308 10.9173 107.26 11.016C107.215 11.112 107.192 11.2213 107.192 11.344V12.5H106.784ZM110.663 12.5V10.384H111.075V12.5H110.663ZM110.663 10.06V9.584H111.075V10.06H110.663ZM111.647 12.5V10.384H112.039L112.055 10.804H112.079C112.141 10.6547 112.237 10.5427 112.367 10.468C112.498 10.3907 112.641 10.352 112.795 10.352C112.905 10.352 113.005 10.368 113.095 10.4C113.189 10.432 113.269 10.484 113.335 10.556C113.405 10.6253 113.458 10.7173 113.495 10.832C113.533 10.944 113.551 11.0813 113.551 11.244V12.5H113.139V11.328C113.139 11.184 113.122 11.0653 113.087 10.972C113.053 10.876 112.999 10.8053 112.927 10.76C112.855 10.7147 112.762 10.692 112.647 10.692C112.527 10.692 112.422 10.7213 112.331 10.78C112.243 10.8387 112.175 10.9173 112.127 11.016C112.079 11.112 112.055 11.2213 112.055 11.344V12.5H111.647ZM114.944 13.208C114.776 13.208 114.63 13.1827 114.504 13.132C114.379 13.084 114.279 13.0147 114.204 12.924C114.13 12.8333 114.084 12.7253 114.068 12.6H114.468C114.479 12.6613 114.506 12.7147 114.548 12.76C114.591 12.808 114.646 12.844 114.712 12.868C114.782 12.892 114.862 12.904 114.952 12.904C115.08 12.904 115.187 12.8853 115.272 12.848C115.358 12.8133 115.423 12.756 115.468 12.676C115.514 12.596 115.536 12.4907 115.536 12.36V11.948H115.508C115.46 12.076 115.375 12.18 115.252 12.26C115.13 12.3373 114.984 12.376 114.816 12.376C114.688 12.376 114.571 12.3547 114.464 12.312C114.36 12.2667 114.271 12.2013 114.196 12.116C114.122 12.028 114.064 11.9213 114.024 11.796C113.984 11.668 113.964 11.524 113.964 11.364C113.964 11.148 114 10.964 114.072 10.812C114.144 10.66 114.244 10.5453 114.372 10.468C114.5 10.388 114.65 10.348 114.82 10.348C114.988 10.348 115.132 10.3867 115.252 10.464C115.375 10.5413 115.46 10.6453 115.508 10.776H115.536L115.544 10.384H115.944V12.304C115.944 12.4693 115.92 12.6093 115.872 12.724C115.824 12.8413 115.756 12.9347 115.668 13.004C115.58 13.076 115.474 13.128 115.348 13.16C115.226 13.192 115.091 13.208 114.944 13.208ZM114.956 12.056C115.079 12.056 115.183 12.028 115.268 11.972C115.354 11.916 115.419 11.8453 115.464 11.76C115.51 11.672 115.534 11.5813 115.536 11.488L115.532 11.232C115.53 11.1413 115.507 11.0533 115.464 10.968C115.422 10.88 115.358 10.8093 115.272 10.756C115.19 10.7 115.086 10.672 114.96 10.672C114.843 10.672 114.742 10.6987 114.656 10.752C114.571 10.8053 114.504 10.884 114.456 10.988C114.411 11.092 114.388 11.2173 114.388 11.364C114.388 11.5133 114.411 11.64 114.456 11.744C114.504 11.8453 114.571 11.9227 114.656 11.976C114.742 12.0293 114.842 12.056 114.956 12.056ZM118.433 12.536C118.175 12.536 117.96 12.496 117.789 12.416C117.619 12.336 117.491 12.2253 117.405 12.084C117.32 11.94 117.276 11.7747 117.273 11.588H117.721C117.724 11.7107 117.751 11.8187 117.801 11.912C117.855 12.0027 117.933 12.072 118.037 12.12C118.141 12.168 118.276 12.192 118.441 12.192C118.647 12.192 118.811 12.1547 118.933 12.08C119.059 12.0053 119.121 11.8907 119.121 11.736C119.121 11.648 119.108 11.5747 119.081 11.516C119.055 11.4573 119.011 11.4093 118.949 11.372C118.891 11.332 118.812 11.2987 118.713 11.272C118.615 11.2453 118.495 11.22 118.353 11.196C118.185 11.1667 118.037 11.132 117.909 11.092C117.784 11.0493 117.679 10.9973 117.593 10.936C117.511 10.872 117.448 10.7947 117.405 10.704C117.363 10.6133 117.341 10.5067 117.341 10.384C117.341 10.2133 117.384 10.0653 117.469 9.94C117.555 9.81467 117.677 9.71867 117.837 9.652C117.997 9.58533 118.189 9.552 118.413 9.552C118.637 9.552 118.828 9.588 118.985 9.66C119.143 9.72933 119.264 9.828 119.349 9.956C119.435 10.0813 119.479 10.2307 119.481 10.404H119.037C119.035 10.2867 119.005 10.1907 118.949 10.116C118.896 10.0387 118.821 9.98133 118.725 9.944C118.632 9.90667 118.523 9.888 118.397 9.888C118.269 9.888 118.16 9.90667 118.069 9.944C117.981 9.97867 117.913 10.0293 117.865 10.096C117.817 10.16 117.793 10.236 117.793 10.324C117.793 10.4307 117.819 10.5133 117.869 10.572C117.923 10.6307 118.007 10.6773 118.121 10.712C118.236 10.744 118.387 10.7773 118.573 10.812C118.704 10.8307 118.828 10.8573 118.945 10.892C119.065 10.9267 119.172 10.9747 119.265 11.036C119.361 11.0973 119.436 11.1813 119.489 11.288C119.545 11.392 119.573 11.528 119.573 11.696C119.573 11.8613 119.529 12.008 119.441 12.136C119.356 12.2613 119.228 12.36 119.057 12.432C118.889 12.5013 118.681 12.536 118.433 12.536ZM120.93 12.536C120.775 12.536 120.634 12.5107 120.506 12.46C120.381 12.4093 120.273 12.336 120.182 12.24C120.091 12.144 120.021 12.0293 119.97 11.896C119.919 11.7627 119.894 11.6133 119.894 11.448C119.894 11.2293 119.935 11.0387 120.018 10.876C120.103 10.7107 120.223 10.5827 120.378 10.492C120.535 10.3987 120.719 10.352 120.93 10.352C121.085 10.352 121.225 10.3773 121.35 10.428C121.478 10.476 121.587 10.548 121.678 10.644C121.769 10.74 121.838 10.856 121.886 10.992C121.937 11.1253 121.962 11.276 121.962 11.444C121.962 11.66 121.921 11.8507 121.838 12.016C121.755 12.1787 121.637 12.3067 121.482 12.4C121.327 12.4907 121.143 12.536 120.93 12.536ZM120.93 12.192C121.053 12.192 121.159 12.164 121.25 12.108C121.343 12.0493 121.415 11.964 121.466 11.852C121.517 11.74 121.542 11.604 121.542 11.444C121.542 11.324 121.527 11.2187 121.498 11.128C121.471 11.0347 121.431 10.956 121.378 10.892C121.325 10.8253 121.261 10.776 121.186 10.744C121.111 10.7093 121.026 10.692 120.93 10.692C120.807 10.692 120.699 10.7213 120.606 10.78C120.515 10.8387 120.443 10.924 120.39 11.036C120.339 11.1453 120.314 11.2827 120.314 11.448C120.314 11.5653 120.327 11.6707 120.354 11.764C120.383 11.8547 120.425 11.932 120.478 11.996C120.534 12.06 120.599 12.1093 120.674 12.144C120.751 12.176 120.837 12.192 120.93 12.192ZM123.325 12.536C123.17 12.536 123.029 12.5107 122.901 12.46C122.775 12.4093 122.667 12.336 122.577 12.24C122.486 12.144 122.415 12.0293 122.365 11.896C122.314 11.7627 122.289 11.6133 122.289 11.448C122.289 11.2293 122.33 11.0387 122.413 10.876C122.498 10.7107 122.618 10.5827 122.773 10.492C122.93 10.3987 123.114 10.352 123.325 10.352C123.479 10.352 123.619 10.3773 123.745 10.428C123.873 10.476 123.982 10.548 124.073 10.644C124.163 10.74 124.233 10.856 124.281 10.992C124.331 11.1253 124.357 11.276 124.357 11.444C124.357 11.66 124.315 11.8507 124.233 12.016C124.15 12.1787 124.031 12.3067 123.877 12.4C123.722 12.4907 123.538 12.536 123.325 12.536ZM123.325 12.192C123.447 12.192 123.554 12.164 123.645 12.108C123.738 12.0493 123.81 11.964 123.861 11.852C123.911 11.74 123.937 11.604 123.937 11.444C123.937 11.324 123.922 11.2187 123.893 11.128C123.866 11.0347 123.826 10.956 123.773 10.892C123.719 10.8253 123.655 10.776 123.581 10.744C123.506 10.7093 123.421 10.692 123.325 10.692C123.202 10.692 123.094 10.7213 123.001 10.78C122.91 10.8387 122.838 10.924 122.785 11.036C122.734 11.1453 122.709 11.2827 122.709 11.448C122.709 11.5653 122.722 11.6707 122.749 11.764C122.778 11.8547 122.819 11.932 122.873 11.996C122.929 12.06 122.994 12.1093 123.069 12.144C123.146 12.176 123.231 12.192 123.325 12.192ZM124.788 12.5V10.384H125.18L125.196 10.804H125.22C125.281 10.6547 125.377 10.5427 125.508 10.468C125.639 10.3907 125.781 10.352 125.936 10.352C126.045 10.352 126.145 10.368 126.236 10.4C126.329 10.432 126.409 10.484 126.476 10.556C126.545 10.6253 126.599 10.7173 126.636 10.832C126.673 10.944 126.692 11.0813 126.692 11.244V12.5H126.28V11.328C126.28 11.184 126.263 11.0653 126.228 10.972C126.193 10.876 126.14 10.8053 126.068 10.76C125.996 10.7147 125.903 10.692 125.788 10.692C125.668 10.692 125.563 10.7213 125.472 10.78C125.384 10.8387 125.316 10.9173 125.268 11.016C125.22 11.112 125.196 11.2213 125.196 11.344V12.5H124.788Z" fill="#9CA3AF"/>
<rect x="96.2757" y="4.8753" width="35.4486" height="12.2486" rx="6.12431" stroke="#9CA3AF" stroke-width="0.551376"/>
</g>
<defs>
<filter id="filter0_d_2451_28839" x="-36" y="20.8516" width="70.75" height="113.898" filterUnits="userSpaceOnUse" color-interpolation-filters="sRGB">
<feFlood flood-opacity="0" result="BackgroundImageFix"/>
<feColorMatrix in="SourceAlpha" type="matrix" values="0 0 0 0 0 0 0 0 0 0 0 0 0 0 0 0 0 0 127 0" result="hardAlpha"/>
<feOffset dx="-44" dy="93"/>
<feGaussianBlur stdDeviation="2"/>
<feComposite in2="hardAlpha" operator="out"/>
<feColorMatrix type="matrix" values="0 0 0 0 0 0 0 0 0 0 0 0 0 0 0 0 0 0 0.25 0"/>
<feBlend mode="normal" in2="BackgroundImageFix" result="effect1_dropShadow_2451_28839"/>
<feBlend mode="normal" in="SourceGraphic" in2="effect1_dropShadow_2451_28839" result="shape"/>
</filter>
<linearGradient id="paint0_linear_2451_28839" x1="10.6994" y1="5.25" x2="10.6994" y2="36.8319" gradientUnits="userSpaceOnUse">
<stop stop-color="#F59E0B"/>
<stop offset="1" stop-color="#FFA917" stop-opacity="0"/>
</linearGradient>
<clipPath id="clip0_2451_28839">
<rect width="172" height="42" fill="white"/>
</clipPath>
<clipPath id="clip1_2451_28839">
<rect width="39" height="39" fill="white" transform="translate(-1 2)"/>
</clipPath>
<clipPath id="clip2_2451_28839">
<rect width="21.5" height="21.5" fill="white" transform="translate(133)"/>
</clipPath>
</defs>
</svg>
