<svg width="574" height="540" viewBox="0 0 574 540" fill="none" xmlns="http://www.w3.org/2000/svg">
<g clip-path="url(#clip0_3635_31423)">
<g clip-path="url(#clip1_3635_31423)">
<rect width="574" height="540" fill="#F59E0B"/>
<path opacity="0.4" d="M39.5702 490.934V568.363H117H205.948C304.198 568.363 383.845 488.716 383.845 390.467V384.708C383.845 289.639 306.776 212.57 211.708 212.57C116.639 212.57 39.5702 289.639 39.5702 384.708V490.934Z" stroke="url(#paint0_linear_3635_31423)" stroke-width="154.86"/>
</g>
<path d="M398.819 253.785C398.819 253.785 345.646 273.263 356.694 335.487C356.694 335.487 412.716 311.816 398.819 253.785Z" fill="url(#paint1_linear_3635_31423)"/>
<path d="M415.944 282.887C415.944 282.887 371.355 281.147 360.762 329.816C360.762 329.816 408.685 329.35 415.944 282.887Z" fill="url(#paint2_linear_3635_31423)"/>
<path d="M228.65 405.047C228.65 405.047 270.33 420.041 263.05 465.128C263.05 465.128 219.071 447.037 228.65 405.047Z" fill="url(#paint3_linear_3635_31423)"/>
<path d="M325.856 409.5C325.856 409.5 250.533 425.385 259.769 460.944C259.769 460.944 332.463 443.413 325.856 409.5Z" fill="url(#paint4_linear_3635_31423)"/>
<path d="M310.892 253.785C310.892 253.785 297.876 281.154 325.431 300.787C325.431 300.787 337.961 270.747 310.892 253.785Z" fill="url(#paint5_linear_3635_31423)"/>
<path d="M545.166 484.315C545.166 488.716 382.311 508.732 316.98 508.732C251.649 508.732 308.592 488.716 308.592 484.315C308.592 479.914 251.649 492.796 316.98 492.796C382.311 492.796 545.166 479.914 545.166 484.315Z" fill="#EBF3FF" fill-opacity="0.35"/>
<path d="M392.199 390.478C392.168 395.324 391.93 400.16 391.526 404.965C391.412 406.27 391.288 407.575 391.153 408.879C390.646 413.622 389.962 418.323 389.103 422.931C388.854 424.246 388.595 425.561 388.326 426.846C387.373 431.35 386.245 435.761 384.95 440.059C384.546 441.374 384.132 442.689 383.697 443.973C382.32 448.105 380.777 452.102 379.058 455.933C378.478 457.269 377.867 458.574 377.236 459.847C376.128 462.115 374.947 464.342 373.715 466.485C372.669 468.297 371.592 470.047 370.494 471.714C369.593 473.071 368.672 474.376 367.75 475.629C364.996 479.336 362.117 482.587 359.135 485.373C357.623 486.812 356.09 488.117 354.527 489.287C352.321 490.975 350.064 492.425 347.785 493.636C345.59 494.796 343.374 495.749 341.127 496.494C339.864 496.929 338.59 497.281 337.316 497.551C334.779 498.131 332.242 498.41 329.685 498.452H304.522L304.035 497.551L303.455 496.494L301.891 493.636L301.871 493.585C299.613 492.373 297.397 490.944 295.212 489.287C293.649 488.096 292.106 486.802 290.583 485.373C287.58 482.577 284.691 479.326 281.937 475.629C280.995 474.376 280.083 473.071 279.182 471.714C277.971 469.902 276.79 467.976 275.641 465.978C274.512 463.989 273.425 461.96 272.389 459.847C271.747 458.563 271.136 457.259 270.546 455.933C268.807 452.091 267.253 448.084 265.886 443.973C265.431 442.679 265.017 441.374 264.623 440.059C263.287 435.761 262.148 431.35 261.175 426.846C260.895 425.551 260.636 424.246 260.388 422.931C259.86 420.198 259.394 417.433 259.011 414.647L255.873 408.869L255.531 408.227V368.494L255.718 368.142L258.886 362.312C259.259 359.547 259.715 356.782 260.222 354.069C260.46 352.754 260.719 351.439 260.999 350.155C261.931 345.64 263.049 341.219 264.354 336.911C264.747 335.596 265.172 334.281 265.596 332.997C266.963 328.855 268.517 324.847 270.225 320.995C270.805 319.659 271.406 318.354 272.058 317.081C273.176 314.73 274.388 312.442 275.662 310.236C276.687 308.444 277.743 306.746 278.81 305.12C279.711 303.764 280.611 302.459 281.554 301.206C284.277 297.509 287.146 294.258 290.128 291.472C291.629 290.054 293.162 288.739 294.726 287.558C296.931 285.86 299.199 284.379 301.487 283.168C301.674 283.054 301.86 282.96 302.057 282.857L303.476 280.227L304.542 278.27H329.55C332.149 278.321 334.738 278.653 337.306 279.253C338.466 279.512 339.615 279.844 340.765 280.237C343.053 280.993 345.321 281.956 347.558 283.178C349.846 284.41 352.114 285.87 354.34 287.568C355.883 288.759 357.426 290.064 358.938 291.483C361.91 294.279 364.778 297.52 367.522 301.217C368.454 302.47 369.376 303.774 370.277 305.131C371.468 306.922 372.628 308.786 373.746 310.764C374.916 312.814 376.034 314.927 377.101 317.101C377.743 318.396 378.344 319.701 378.934 321.016C380.653 324.868 382.216 328.896 383.594 333.017C384.029 334.312 384.453 335.616 384.857 336.932C386.172 341.239 387.301 345.671 388.253 350.176C388.554 351.47 388.813 352.775 389.04 354.09C389.931 358.719 390.625 363.399 391.132 368.152C391.277 369.457 391.401 370.762 391.526 372.067C391.94 376.871 392.178 381.707 392.22 386.554C392.24 387.858 392.24 389.163 392.23 390.468L392.199 390.478Z" fill="#EF941D"/>
<path d="M340.743 280.225C339.594 279.832 338.445 279.511 337.285 279.242C334.706 278.641 332.128 278.31 329.529 278.258H304.521L303.993 279.242L303.465 280.225L302.046 282.855C301.86 282.959 301.673 283.052 301.477 283.166H347.536C345.3 281.955 343.042 280.981 340.743 280.225Z" fill="#DD851B"/>
<path d="M354.311 287.559H294.707C293.143 288.749 291.611 290.054 290.109 291.473H358.899C357.387 290.054 355.854 288.739 354.301 287.559H354.311Z" fill="#DD851B"/>
<path d="M367.489 301.203H281.541C280.609 302.456 279.698 303.761 278.797 305.117H370.233C369.332 303.761 368.411 302.456 367.479 301.203H367.489Z" fill="#DD851B"/>
<path d="M377.07 317.09H272.048C271.395 318.374 270.795 319.679 270.215 321.004H378.892C378.302 319.689 377.702 318.374 377.059 317.09H377.07Z" fill="#DD851B"/>
<path d="M383.56 333.016H265.594C265.17 334.31 264.745 335.615 264.352 336.93H384.824C384.42 335.615 383.995 334.3 383.56 333.016Z" fill="#DD851B"/>
<path d="M388.223 350.172H260.999C260.72 351.466 260.461 352.771 260.223 354.086H389.02C388.782 352.771 388.523 351.456 388.233 350.172H388.223Z" fill="#DD851B"/>
<path d="M391.101 368.16H255.718L255.531 368.512V372.074H391.495C391.381 370.77 391.246 369.465 391.101 368.16Z" fill="#DD851B"/>
<path d="M392.188 386.562H255.531V390.477H392.209C392.219 389.172 392.219 387.867 392.199 386.562H392.188Z" fill="#DD851B"/>
<path d="M255.531 408.249L255.873 408.891H391.153C391.298 407.586 391.412 406.281 391.526 404.977H255.531V408.259V408.249Z" fill="#DD851B"/>
<path d="M261.188 426.852H388.318C388.588 425.557 388.847 424.253 389.095 422.938H260.391C260.639 424.253 260.898 425.568 261.178 426.852H261.188Z" fill="#DD851B"/>
<path d="M265.896 443.992H383.686C384.121 442.698 384.535 441.393 384.939 440.078H264.633C265.026 441.393 265.441 442.708 265.896 443.992Z" fill="#DD851B"/>
<path d="M272.402 459.875H377.227C377.849 458.591 378.47 457.286 379.05 455.961H270.559C271.149 457.297 271.76 458.602 272.402 459.875Z" fill="#DD851B"/>
<path d="M281.95 475.649H367.753C368.674 474.396 369.596 473.091 370.497 471.734H279.195C280.096 473.091 280.997 474.396 281.95 475.649Z" fill="#DD851B"/>
<path d="M295.212 489.317H354.527C356.09 488.136 357.623 486.831 359.135 485.402H290.594C292.116 486.842 293.659 488.136 295.222 489.317H295.212Z" fill="#DD851B"/>
<path d="M303.456 496.522L304.036 497.578L304.522 498.479H329.685C332.233 498.438 334.77 498.148 337.317 497.578C338.591 497.309 339.864 496.947 341.128 496.522C343.375 495.776 345.591 494.824 347.786 493.664H301.902L303.466 496.522H303.456Z" fill="#DD851B"/>
<path d="M259.238 465.995C234.561 422.835 234.561 353.124 259.238 310.243C283.904 267.383 323.906 267.59 348.582 310.75C373.248 353.89 373.248 423.642 348.582 466.502C323.906 509.373 283.904 509.135 259.238 465.995Z" fill="#FFBB22"/>
<path d="M248.117 388.023C248.117 359.908 254.33 333.617 265.628 313.993C276.138 295.727 289.683 285.682 303.756 285.703C317.942 285.724 331.601 295.944 342.204 314.491C353.491 334.238 359.715 360.602 359.715 388.747C359.715 416.872 353.502 443.164 342.215 462.777C331.704 481.043 318.16 491.088 304.087 491.067C289.9 491.046 276.242 480.826 265.638 462.28C254.341 442.522 248.117 416.147 248.117 388.023Z" fill="#EF941D"/>
<path d="M255.259 392.152C255.259 364.037 261.213 337.745 272.024 318.122C282.089 299.856 295.064 289.811 308.536 289.832C322.122 289.853 335.201 300.073 345.349 318.619C356.16 338.367 362.114 364.731 362.114 392.876C362.114 421.001 356.16 447.293 345.349 466.906C335.284 485.172 322.319 495.217 308.837 495.196C295.251 495.175 282.172 484.955 272.014 466.408C261.193 446.651 255.238 420.276 255.238 392.152H255.259Z" fill="#FFBB22"/>
<path d="M301.139 447L272.791 377.945C272.188 376.477 271.918 374.742 272.022 373.011C272.126 371.28 272.599 369.652 273.367 368.382C274.135 367.112 275.153 366.273 276.263 365.995C277.373 365.718 278.511 366.018 279.499 366.849L332.501 411.425C333.489 412.256 334.627 412.556 335.737 412.278C336.847 412.001 337.865 411.161 338.633 409.891C339.401 408.621 339.874 406.993 339.978 405.262C340.082 403.532 339.812 401.796 339.209 400.329L310.861 331.273M272.265 404.547L329.377 348.497M282.623 429.777L339.735 373.727" stroke="#EF941D" stroke-width="13.5718" stroke-linecap="round" stroke-linejoin="round"/>
<path d="M334.976 447.137H323.875V502.371H334.976V447.137Z" fill="url(#paint6_linear_3635_31423)"/>
<path d="M370 427H359V502H370V427Z" fill="url(#paint7_linear_3635_31423)"/>
<path d="M403 402H392V502H403V402Z" fill="url(#paint8_linear_3635_31423)"/>
<path d="M346.066 447.137H334.965V502.371H346.066V447.137Z" fill="url(#paint9_linear_3635_31423)"/>
<path d="M381 427H370V502H381V427Z" fill="url(#paint10_linear_3635_31423)"/>
<path d="M414 402H403V502H414V402Z" fill="url(#paint11_linear_3635_31423)"/>
</g>
<defs>
<linearGradient id="paint0_linear_3635_31423" x1="211.708" y1="290" x2="211.708" y2="490.934" gradientUnits="userSpaceOnUse">
<stop stop-color="white" stop-opacity="0.22"/>
<stop offset="1" stop-color="white" stop-opacity="0.16"/>
</linearGradient>
<linearGradient id="paint1_linear_3635_31423" x1="355.184" y1="289.579" x2="390.15" y2="290.05" gradientUnits="userSpaceOnUse">
<stop stop-color="#FFCC00"/>
<stop offset="1" stop-color="#03599C"/>
</linearGradient>
<linearGradient id="paint2_linear_3635_31423" x1="360.762" y1="303.442" x2="402.818" y2="304.631" gradientUnits="userSpaceOnUse">
<stop stop-color="#FFCC00"/>
<stop offset="1" stop-color="#03599C"/>
</linearGradient>
<linearGradient id="paint3_linear_3635_31423" x1="227.285" y1="431.368" x2="255.209" y2="431.777" gradientUnits="userSpaceOnUse">
<stop stop-color="#FFCC00"/>
<stop offset="1" stop-color="#03599C"/>
</linearGradient>
<linearGradient id="paint4_linear_3635_31423" x1="258.984" y1="432.038" x2="310.263" y2="433.65" gradientUnits="userSpaceOnUse">
<stop stop-color="#FFCC00"/>
<stop offset="1" stop-color="#03599C"/>
</linearGradient>
<linearGradient id="paint5_linear_3635_31423" x1="307.82" y1="274.377" x2="323.459" y2="274.541" gradientUnits="userSpaceOnUse">
<stop stop-color="#FFCC00"/>
<stop offset="1" stop-color="#03599C"/>
</linearGradient>
<linearGradient id="paint6_linear_3635_31423" x1="341.5" y1="508.5" x2="307.455" y2="492.313" gradientUnits="userSpaceOnUse">
<stop stop-color="#FFCC00"/>
<stop offset="1" stop-color="#03599C"/>
</linearGradient>
<linearGradient id="paint7_linear_3635_31423" x1="376.465" y1="510.322" x2="339.547" y2="497.512" gradientUnits="userSpaceOnUse">
<stop stop-color="#FFCC00"/>
<stop offset="1" stop-color="#03599C"/>
</linearGradient>
<linearGradient id="paint8_linear_3635_31423" x1="409.465" y1="513.096" x2="370.726" y2="503.015" gradientUnits="userSpaceOnUse">
<stop stop-color="#FFCC00"/>
<stop offset="1" stop-color="#03599C"/>
</linearGradient>
<linearGradient id="paint9_linear_3635_31423" x1="346" y1="498.5" x2="300.778" y2="488.19" gradientUnits="userSpaceOnUse">
<stop stop-color="#FFCC00"/>
<stop offset="1" stop-color="#03599C"/>
</linearGradient>
<linearGradient id="paint10_linear_3635_31423" x1="380.935" y1="496.744" x2="335.064" y2="489.112" gradientUnits="userSpaceOnUse">
<stop stop-color="#FFCC00"/>
<stop offset="1" stop-color="#03599C"/>
</linearGradient>
<linearGradient id="paint11_linear_3635_31423" x1="413.935" y1="494.991" x2="367.517" y2="489.199" gradientUnits="userSpaceOnUse">
<stop stop-color="#FFCC00"/>
<stop offset="1" stop-color="#03599C"/>
</linearGradient>
<clipPath id="clip0_3635_31423">
<rect width="574" height="540" fill="white"/>
</clipPath>
<clipPath id="clip1_3635_31423">
<rect width="574" height="540" fill="white"/>
</clipPath>
</defs>
</svg>
