<svg width="180" height="48" viewBox="0 0 180 48" fill="none" xmlns="http://www.w3.org/2000/svg">
<g clip-path="url(#clip0_4013_32085)">
<rect width="180" height="48" rx="15" fill="url(#paint0_linear_4013_32085)"/>
<path d="M90.5448 28.2211C94.3803 28.2211 96.9506 25.2357 96.9506 21.3804C96.9506 17.5646 94.3803 14.5791 90.5448 14.5791C86.729 14.5791 84.1389 17.5646 84.1389 21.3804C84.1389 25.2357 86.729 28.2211 90.5448 28.2211ZM90.5645 26.5802C87.5396 26.5802 85.9579 24.4251 85.9579 21.3804C85.9579 18.3752 87.5396 16.2004 90.5645 16.2004C93.5895 16.2004 95.1712 18.3752 95.1712 21.3804C95.1712 24.4251 93.5895 26.5802 90.5645 26.5802ZM101.062 28.0234V22.6062C101.062 21.0047 101.734 19.7196 103.572 19.7196C105.194 19.7196 105.688 20.5895 105.688 21.8351V28.0234H107.388V21.4199C107.388 19.3835 106.222 18.2565 104.344 18.2565C102.465 18.2565 101.437 19.5219 101.062 21.0047V18.4543H99.3415V28.0234H101.062ZM113.154 28.0234L114.795 22.4282L115.448 19.8778L116.061 22.4282L117.702 28.0234H119.956L122.427 18.4543H120.509L119.284 24.346L118.829 26.7779L118.216 24.346L116.496 18.4543H114.38L112.64 24.346L112.047 26.7779L111.593 24.346L110.347 18.4543H108.429L110.92 28.0234H113.154ZM125.781 28.2211C127.759 28.2211 128.787 26.7976 129.103 25.5323V26.2045C129.103 27.5489 129.815 28.0234 130.803 28.0234H131.91V26.4615H131.298C130.942 26.4615 130.764 26.3231 130.764 25.8684V21.934C130.764 19.6603 129.498 18.2565 127.146 18.2565C125.01 18.2565 123.587 19.4626 123.013 20.4511L124.18 21.6572C124.674 20.6093 125.584 19.8185 126.948 19.8185C128.45 19.8185 128.984 20.6488 129.044 21.7758L125.584 23.3179C124.219 23.9308 123.251 24.7414 123.251 26.0266C123.251 27.2919 124.16 28.2211 125.781 28.2211ZM124.991 25.7498C124.991 25.1566 125.406 24.7612 126.315 24.3263L129.103 23.0214V24.346C129.103 25.73 127.956 26.7976 126.335 26.7976C125.445 26.7976 124.991 26.4022 124.991 25.7498Z" fill="white"/>
<g clip-path="url(#clip1_4013_32085)">
<g opacity="0.5" filter="url(#filter0_d_4013_32085)">
<path fill-rule="evenodd" clip-rule="evenodd" d="M73.5818 27.0767C70.5133 32.076 63.9735 33.6412 58.9742 30.5727C57.9497 29.9456 57.0391 29.1491 56.2814 28.2171C56.4796 26.9808 56.9194 25.7958 57.5758 24.7296C58.7588 22.7966 60.5922 21.3486 62.7468 20.6457C62.8029 21.7659 63.1313 22.8555 63.7037 23.82C64.2761 24.7846 65.075 25.595 66.0314 26.1809C67.045 26.8038 68.2025 27.154 69.3915 27.1974C70.5804 27.2408 71.7603 26.9761 72.8167 26.4289C73.254 26.2038 73.8391 26.6576 73.5818 27.0767Z" fill="#F59E0B"/>
</g>
<path d="M55.4754 15.9698C53.0536 19.9155 53.5186 24.8205 56.2792 28.2209C56.4773 26.9851 56.917 25.8003 57.573 24.7344C58.807 22.724 60.6657 21.3301 62.744 20.6504C62.672 19.2584 63.025 17.8774 63.7562 16.6907C64.3781 15.6765 65.2516 14.8402 66.2921 14.2632C67.3325 13.6863 68.5045 13.3881 69.6942 13.3978C70.1868 13.4011 70.5022 12.731 70.0831 12.4738C65.0837 9.40532 58.5439 10.9705 55.4754 15.9698Z" fill="url(#paint1_linear_4013_32085)"/>
</g>
</g>
<defs>
<filter id="filter0_d_4013_32085" x="20.7259" y="20.6445" width="52.9187" height="83.3515" filterUnits="userSpaceOnUse" color-interpolation-filters="sRGB">
<feFlood flood-opacity="0" result="BackgroundImageFix"/>
<feColorMatrix in="SourceAlpha" type="matrix" values="0 0 0 0 0 0 0 0 0 0 0 0 0 0 0 0 0 0 127 0" result="hardAlpha"/>
<feOffset dx="-32.5924" dy="68.8885"/>
<feGaussianBlur stdDeviation="1.48147"/>
<feComposite in2="hardAlpha" operator="out"/>
<feColorMatrix type="matrix" values="0 0 0 0 0 0 0 0 0 0 0 0 0 0 0 0 0 0 0.25 0"/>
<feBlend mode="normal" in2="BackgroundImageFix" result="effect1_dropShadow_4013_32085"/>
<feBlend mode="normal" in="SourceGraphic" in2="effect1_dropShadow_4013_32085" result="shape"/>
</filter>
<linearGradient id="paint0_linear_4013_32085" x1="-16.4039" y1="24" x2="289.078" y2="16.7597" gradientUnits="userSpaceOnUse">
<stop stop-color="#1C1C1C" stop-opacity="0.1"/>
<stop offset="1" stop-color="white" stop-opacity="0.6"/>
</linearGradient>
<linearGradient id="paint1_linear_4013_32085" x1="65.7379" y1="9.8068" x2="54.9401" y2="27.399" gradientUnits="userSpaceOnUse">
<stop stop-color="#F59E0B"/>
<stop offset="1" stop-color="#FFA917" stop-opacity="0"/>
</linearGradient>
<clipPath id="clip0_4013_32085">
<rect width="180" height="48" rx="15" fill="white"/>
</clipPath>
<clipPath id="clip1_4013_32085">
<rect width="25.4901" height="25.4901" fill="white" transform="translate(60.334 4) rotate(31.5408)"/>
</clipPath>
</defs>
</svg>
