<svg width="83" height="59" viewBox="0 0 83 59" fill="none" xmlns="http://www.w3.org/2000/svg">
<rect x="12.5" y="7.5" width="70" height="51" rx="7.5" stroke="url(#paint0_linear_4364_31825)"/>
<rect width="71" height="52" rx="8" fill="url(#paint1_linear_4364_31825)"/>
<path d="M35.2083 28.7318C35.2083 30.5143 38.1004 31.9609 41.6667 31.9609C45.233 31.9609 48.125 30.5143 48.125 28.7318M24.875 22.2734C24.875 24.0559 27.767 25.5026 31.3333 25.5026C32.7877 25.5026 34.1298 25.2624 35.2083 24.8568M24.875 26.7943C24.875 28.5768 27.767 30.0234 31.3333 30.0234C32.7877 30.0234 34.1285 29.7832 35.2083 29.3776M41.6667 26.7943C38.1004 26.7943 35.2083 25.3476 35.2083 23.5651C35.2083 21.7826 38.1004 20.3359 41.6667 20.3359C45.233 20.3359 48.125 21.7826 48.125 23.5651C48.125 25.3476 45.233 26.7943 41.6667 26.7943Z" stroke="white" stroke-width="1.9375" stroke-linecap="round" stroke-linejoin="round"/>
<path d="M24.875 17.1016V31.3099C24.875 33.0924 27.767 34.5391 31.3333 34.5391C32.7877 34.5391 34.1285 34.2988 35.2083 33.8932M35.2083 33.8932V23.5599M35.2083 33.8932C35.2083 35.6757 38.1004 37.1224 41.6667 37.1224C45.233 37.1224 48.125 35.6757 48.125 33.8932V23.5599M37.7917 20.9766V17.1016" stroke="white" stroke-width="1.9375" stroke-linecap="round" stroke-linejoin="round"/>
<path d="M31.3333 20.3333C27.767 20.3333 24.875 18.8867 24.875 17.1042C24.875 15.3217 27.767 13.875 31.3333 13.875C34.8996 13.875 37.7917 15.3217 37.7917 17.1042C37.7917 18.8867 34.8996 20.3333 31.3333 20.3333Z" stroke="white" stroke-width="1.9375" stroke-linecap="round" stroke-linejoin="round"/>
<defs>
<linearGradient id="paint0_linear_4364_31825" x1="1.62119" y1="0.677725" x2="106.503" y2="73.7847" gradientUnits="userSpaceOnUse">
<stop stop-color="#2563EB"/>
<stop offset="1" stop-color="#35FF49"/>
</linearGradient>
<linearGradient id="paint1_linear_4364_31825" x1="-10.3788" y1="-6.32227" x2="94.5033" y2="66.7847" gradientUnits="userSpaceOnUse">
<stop stop-color="#2563EB"/>
<stop offset="1" stop-color="#35FF49"/>
</linearGradient>
</defs>
</svg>
