<svg width="430" height="429" viewBox="0 0 430 429" fill="none" xmlns="http://www.w3.org/2000/svg">
<path d="M141.44 204.938L161.426 220.665C152.933 231.457 159.388 251.424 175.677 264.242C191.965 277.06 212.89 278.64 221.383 267.847C230.033 256.855 222.786 244.68 204.969 222.083C187.952 200.116 166.761 172.761 188.622 144.98C202.698 127.093 229.341 123.464 253.637 134.331L270.78 112.547L300.758 136.138L283.615 157.922C299.89 178.982 302.627 205.731 288.551 223.618L268.565 207.89C277.058 197.098 270.602 177.131 254.314 164.314C238.026 151.496 217.101 149.916 208.608 160.708C199.958 171.7 207.205 183.876 225.021 206.472C242.038 228.439 263.229 255.795 241.368 283.575C227.292 301.462 200.65 305.092 176.354 294.224L159.211 316.009L129.232 292.418L146.375 270.633C130.1 249.574 127.364 222.825 141.44 204.938Z" fill="url(#paint0_linear_3374_29376)"/>
<circle opacity="0.3" cx="176.5" cy="247.5" r="106.5" fill="url(#paint1_linear_3374_29376)"/>
<circle opacity="0.1" cx="167.5" cy="247.5" r="106.5" fill="url(#paint2_linear_3374_29376)"/>
<defs>
<linearGradient id="paint0_linear_3374_29376" x1="160.687" y1="229.058" x2="272.908" y2="300.75" gradientUnits="userSpaceOnUse">
<stop stop-color="#FF6648"/>
<stop offset="1" stop-color="#FFF96A"/>
</linearGradient>
<linearGradient id="paint1_linear_3374_29376" x1="120.321" y1="289.563" x2="337.627" y2="251.017" gradientUnits="userSpaceOnUse">
<stop stop-color="#FF6648"/>
<stop offset="1" stop-color="#FFF96A"/>
</linearGradient>
<linearGradient id="paint2_linear_3374_29376" x1="111.321" y1="289.563" x2="328.627" y2="251.017" gradientUnits="userSpaceOnUse">
<stop stop-color="#FF6648"/>
<stop offset="1" stop-color="#FFF96A"/>
</linearGradient>
</defs>
</svg>
