<svg width="70" height="70" viewBox="0 0 70 70" fill="none" xmlns="http://www.w3.org/2000/svg">
<circle opacity="0.3" cx="35" cy="35" r="35" fill="url(#paint0_linear_3150_28940)"/>
<path d="M35.3993 40.667H32.8927C31.1194 40.667 29.666 39.1736 29.666 37.3336C29.666 36.787 30.1193 36.3336 30.666 36.3336C31.2127 36.3336 31.666 36.787 31.666 37.3336C31.666 38.067 32.2127 38.667 32.8927 38.667H35.3993C35.9193 38.667 36.3327 38.2003 36.3327 37.627C36.3327 36.907 36.1327 36.8003 35.6794 36.6403L31.666 35.2403C30.8127 34.9336 29.666 34.3203 29.666 32.3603C29.666 30.6936 30.986 29.3203 32.5994 29.3203H35.106C36.8793 29.3203 38.3327 30.8136 38.3327 32.6536C38.3327 33.2003 37.8793 33.6536 37.3327 33.6536C36.786 33.6536 36.3327 33.2003 36.3327 32.6536C36.3327 31.9203 35.786 31.3203 35.106 31.3203H32.5994C32.0794 31.3203 31.666 31.787 31.666 32.3603C31.666 33.0803 31.866 33.187 32.3193 33.347L36.3327 34.747C37.186 35.0536 38.3327 35.667 38.3327 37.627C38.3327 39.307 37.0127 40.667 35.3993 40.667Z" fill="#101828"/>
<path d="M34 42C33.4533 42 33 41.5467 33 41V29C33 28.4533 33.4533 28 34 28C34.5467 28 35 28.4533 35 29V41C35 41.5467 34.5467 42 34 42Z" fill="#101828"/>
<path d="M33.9993 49.3346C26.0927 49.3346 19.666 42.908 19.666 35.0013C19.666 27.0946 26.0927 20.668 33.9993 20.668C34.546 20.668 34.9993 21.1213 34.9993 21.668C34.9993 22.2146 34.546 22.668 33.9993 22.668C27.1993 22.668 21.666 28.2013 21.666 35.0013C21.666 41.8013 27.1993 47.3346 33.9993 47.3346C40.7993 47.3346 46.3327 41.8013 46.3327 35.0013C46.3327 34.4546 46.786 34.0013 47.3327 34.0013C47.8794 34.0013 48.3327 34.4546 48.3327 35.0013C48.3327 42.908 41.906 49.3346 33.9993 49.3346Z" fill="#101828"/>
<path d="M47.3333 28.0013C46.7867 28.0013 46.3333 27.548 46.3333 27.0013V22.668H42C41.4533 22.668 41 22.2146 41 21.668C41 21.1213 41.4533 20.668 42 20.668H47.3333C47.88 20.668 48.3333 21.1213 48.3333 21.668V27.0013C48.3333 27.548 47.88 28.0013 47.3333 28.0013Z" fill="#101828"/>
<path d="M40.6666 29.3352C40.4133 29.3352 40.1599 29.2419 39.9599 29.0419C39.5733 28.6552 39.5733 28.0152 39.9599 27.6285L46.6266 20.9619C47.0133 20.5752 47.6533 20.5752 48.0399 20.9619C48.4266 21.3485 48.4266 21.9885 48.0399 22.3752L41.3733 29.0419C41.1733 29.2419 40.9199 29.3352 40.6666 29.3352Z" fill="#101828"/>
<defs>
<linearGradient id="paint0_linear_3150_28940" x1="16.5375" y1="48.8235" x2="87.9525" y2="36.1557" gradientUnits="userSpaceOnUse">
<stop stop-color="#FF6648"/>
<stop offset="1" stop-color="#FFF96A"/>
</linearGradient>
</defs>
</svg>
