<svg width="1440" height="1000" viewBox="0 0 1440 1000" fill="none" xmlns="http://www.w3.org/2000/svg">
<g clip-path="url(#clip0_3609_31030)">
<rect opacity="0.1" width="1440" height="1000" fill="url(#paint0_linear_3609_31030)"/>
<mask id="mask0_3609_31030" style="mask-type:luminance" maskUnits="userSpaceOnUse" x="682" y="158" width="733" height="670">
<path d="M1209.7 158.001L682 431.66L887.244 827.438L1414.95 553.779L1209.7 158.001Z" fill="white"/>
</mask>
<g mask="url(#mask0_3609_31030)">
<g opacity="0.998714">
<path d="M1168.41 424.019C1165.98 424.019 1163.78 424.972 1162.16 426.521C1161.86 418.452 1155.23 412 1147.09 412C1139.73 412 1133.61 417.272 1132.28 424.243C1131.64 424.098 1130.97 424.019 1130.28 424.019C1125.27 424.019 1121.21 428.08 1121.21 433.09C1121.21 433.199 1121.21 433.307 1121.22 433.415C1120.7 433.207 1120.13 433.09 1119.54 433.09C1117.03 433.09 1115 435.121 1115 437.626C1115 440.131 1117.03 442.162 1119.54 442.162H1168.41C1173.42 442.162 1177.48 438.1 1177.48 433.09C1177.48 428.08 1173.42 424.019 1168.41 424.019Z" fill="#D0D2D2"/>
</g>
<path d="M998.338 493.029L1097.58 479.337L1050.82 535.856L1025.45 515.142L1094.04 480.813L1015.94 507.873L998.338 493.029Z" fill="#045A9D"/>
<path d="M1019.12 530.544C1012.06 536.021 1001.31 550.58 1014.81 565.005C1028.32 579.43 1011.32 598.623 1001.13 606.417" stroke="url(#paint1_linear_3609_31030)" stroke-width="0.743051" stroke-dasharray="1.49 1.49"/>
<path d="M1018.98 530.051L1015.95 507.873L1094.05 480.813L1025.46 515.142L1018.98 530.051Z" fill="#0074C7" fill-opacity="0.97"/>
<path d="M1032.94 521.258L1018.98 530.053L1025.46 515.145L1032.94 521.258Z" fill="#045A9D" fill-opacity="0.85"/>
</g>
<path opacity="0.5" d="M338.237 615.383C337.847 615.383 337.466 615.423 337.095 615.493C337.096 615.456 337.098 615.42 337.098 615.383C337.098 608.641 331.633 603.175 324.89 603.175C324.001 603.175 323.136 603.272 322.301 603.453C320.504 594.082 312.268 587 302.373 587C292.358 587 284.043 594.257 282.385 603.798C281.174 603.396 279.882 603.175 278.536 603.175C271.794 603.175 266.328 608.641 266.328 615.383C266.328 615.704 266.345 616.02 266.369 616.335C265.423 615.735 264.307 615.383 263.104 615.383C259.733 615.383 257 618.116 257 621.487C257 624.858 259.733 627.591 263.104 627.591H338.237C341.609 627.591 344.342 624.858 344.342 621.487C344.342 618.116 341.609 615.383 338.237 615.383Z" fill="#D0D2D3"/>
<g filter="url(#filter0_f_3609_31030)">
<g opacity="0.998714">
<path d="M216.404 661.532C215.723 661.532 215.106 661.799 214.65 662.234C214.567 659.97 212.707 658.16 210.423 658.16C208.359 658.16 206.642 659.639 206.269 661.595C206.088 661.554 205.901 661.532 205.708 661.532C204.302 661.532 203.163 662.671 203.163 664.076C203.163 664.107 203.164 664.137 203.165 664.167C203.02 664.109 202.861 664.076 202.694 664.076C201.992 664.076 201.422 664.646 201.422 665.349C201.422 666.051 201.992 666.621 202.694 666.621H216.404C217.809 666.621 218.948 665.481 218.948 664.076C218.948 662.671 217.809 661.532 216.404 661.532Z" fill="#D0D2D2"/>
</g>
<path d="M183.191 677.213L211.029 673.372L197.913 689.226L190.796 683.416L210.036 673.786L188.129 681.377L183.191 677.213Z" fill="#045A9D"/>
<path d="M189.023 687.736C187.041 689.272 184.025 693.356 187.813 697.402C191.602 701.448 186.834 706.832 183.976 709.019" stroke="url(#paint2_linear_3609_31030)" stroke-width="0.208433" stroke-dasharray="0.42 0.42"/>
<path d="M188.983 687.594L188.133 681.372L210.04 673.782L190.8 683.411L188.983 687.594Z" fill="#0074C7" fill-opacity="0.97"/>
<path d="M192.9 685.133L188.982 687.6L190.799 683.418L192.9 685.133Z" fill="#045A9D" fill-opacity="0.85"/>
</g>
</g>
<defs>
<filter id="filter0_f_3609_31030" x="157" y="647" width="85" height="80.0234" filterUnits="userSpaceOnUse" color-interpolation-filters="sRGB">
<feFlood flood-opacity="0" result="BackgroundImageFix"/>
<feBlend mode="normal" in="SourceGraphic" in2="BackgroundImageFix" result="shape"/>
<feGaussianBlur stdDeviation="2" result="effect1_foregroundBlur_3609_31030"/>
</filter>
<linearGradient id="paint0_linear_3609_31030" x1="1.70387e-05" y1="438.095" x2="1097.02" y2="476.075" gradientUnits="userSpaceOnUse">
<stop stop-color="#FFCC00"/>
<stop offset="1" stop-color="#03599C"/>
</linearGradient>
<linearGradient id="paint1_linear_3609_31030" x1="986.549" y1="578.539" x2="1021.44" y2="561.33" gradientUnits="userSpaceOnUse">
<stop stop-color="#055B9E"/>
<stop offset="1" stop-color="#FFE601"/>
</linearGradient>
<linearGradient id="paint2_linear_3609_31030" x1="179.885" y1="701.199" x2="189.671" y2="696.371" gradientUnits="userSpaceOnUse">
<stop stop-color="#055B9E"/>
<stop offset="1" stop-color="#FFE601"/>
</linearGradient>
<clipPath id="clip0_3609_31030">
<rect width="1440" height="1000" fill="white"/>
</clipPath>
</defs>
</svg>
