<svg width="632" height="33" viewBox="0 0 632 33" fill="none" xmlns="http://www.w3.org/2000/svg">
<path d="M9.47996 12.79C10.38 12.79 11.23 12.91 12.03 13.15C12.83 13.39 13.53 13.75 14.13 14.23C14.75 14.71 15.23 15.31 15.57 16.03C15.93 16.75 16.11 17.59 16.11 18.55C16.11 19.37 15.96 20.17 15.66 20.95C15.38 21.71 14.98 22.39 14.46 22.99C13.96 23.59 13.35 24.08 12.63 24.46C11.91 24.82 11.12 25 10.26 25H0.059961C0.399961 24.8 0.669961 24.54 0.869961 24.22C1.06996 23.9 1.21996 23.56 1.31996 23.2C1.41996 22.82 1.48996 22.43 1.52996 22.03C1.56996 21.63 1.58996 21.26 1.58996 20.92V6.34C1.58996 5.98 1.56996 5.61 1.52996 5.23C1.50996 4.83 1.43996 4.44 1.31996 4.06C1.21996 3.68 1.06996 3.34 0.869961 3.04C0.669961 2.72 0.399961 2.46 0.059961 2.26H7.88996C8.74996 2.26 9.57996 2.38 10.38 2.62C11.2 2.86 11.92 3.22 12.54 3.7C13.18 4.18 13.69 4.78 14.07 5.5C14.45 6.2 14.64 7.02 14.64 7.96C14.64 8.7 14.5 9.37 14.22 9.97C13.96 10.57 13.6 11.08 13.14 11.5C12.68 11.92 12.13 12.24 11.49 12.46C10.87 12.68 10.2 12.79 9.47996 12.79ZM5.96996 12.43C7.42996 12.43 8.53996 12 9.29996 11.14C10.08 10.26 10.47 9.1 10.47 7.66C10.47 7.06 10.38 6.48 10.2 5.92C10.04 5.34 9.77996 4.84 9.41996 4.42C9.07996 3.98 8.65996 3.63 8.15996 3.37C7.65996 3.11 7.07996 2.98 6.41996 2.98H5.96996V12.43ZM5.96996 24.28C6.82996 24.28 7.61996 24.17 8.33996 23.95C9.07996 23.71 9.70996 23.36 10.23 22.9C10.75 22.42 11.16 21.84 11.46 21.16C11.76 20.46 11.91 19.66 11.91 18.76C11.91 17.96 11.77 17.22 11.49 16.54C11.23 15.84 10.86 15.24 10.38 14.74C9.89996 14.24 9.31996 13.85 8.63996 13.57C7.97996 13.29 7.23996 13.15 6.41996 13.15H5.96996V24.28ZM21.9553 17.65C22.0953 18.27 22.3053 18.86 22.5853 19.42C22.8653 19.96 23.2153 20.44 23.6353 20.86C24.0553 21.26 24.5453 21.58 25.1053 21.82C25.6853 22.06 26.3353 22.18 27.0553 22.18C27.2753 22.18 27.5353 22.17 27.8353 22.15C28.1553 22.11 28.4753 22.06 28.7953 22C29.1153 21.94 29.4153 21.86 29.6953 21.76C29.9953 21.64 30.2253 21.5 30.3853 21.34L30.6253 21.52C29.9453 22.76 29.1353 23.7 28.1953 24.34C27.2753 24.98 26.0753 25.3 24.5953 25.3C23.5553 25.3 22.5853 25.11 21.6853 24.73C20.8053 24.35 20.0453 23.83 19.4053 23.17C18.7853 22.49 18.2953 21.7 17.9353 20.8C17.5753 19.9 17.3953 18.93 17.3953 17.89C17.3953 16.89 17.5453 15.93 17.8453 15.01C18.1653 14.09 18.6153 13.28 19.1953 12.58C19.7953 11.88 20.5153 11.32 21.3553 10.9C22.1953 10.48 23.1453 10.27 24.2053 10.27C25.1653 10.27 26.0353 10.42 26.8153 10.72C27.6153 11 28.2853 11.42 28.8253 11.98C29.3853 12.52 29.8153 13.18 30.1153 13.96C30.4153 14.74 30.5653 15.61 30.5653 16.57V17.29L21.9553 17.65ZM26.5453 14.17C26.5453 13.83 26.4753 13.47 26.3353 13.09C26.2153 12.71 26.0353 12.37 25.7953 12.07C25.5553 11.75 25.2753 11.49 24.9553 11.29C24.6353 11.09 24.2853 10.99 23.9053 10.99C23.4653 10.99 23.1053 11.17 22.8253 11.53C22.5453 11.89 22.3253 12.32 22.1653 12.82C22.0053 13.3 21.8853 13.8 21.8053 14.32C21.7453 14.84 21.7153 15.25 21.7153 15.55C21.7153 15.99 21.7453 16.44 21.8053 16.9C22.2053 16.86 22.6053 16.81 23.0053 16.75C23.4053 16.69 23.8053 16.63 24.2053 16.57C24.8853 16.47 25.4453 16.23 25.8853 15.85C26.3253 15.47 26.5453 14.91 26.5453 14.17ZM38.4848 25H31.0748C31.3948 24.82 31.6548 24.57 31.8548 24.25C32.0548 23.91 32.2048 23.56 32.3048 23.2C32.4248 22.82 32.5048 22.43 32.5448 22.03C32.5848 21.63 32.6048 21.26 32.6048 20.92V16.66C32.6048 16.24 32.5648 15.86 32.4848 15.52C32.4048 15.16 32.2948 14.83 32.1548 14.53C32.0148 14.23 31.8348 13.94 31.6148 13.66C31.4148 13.36 31.1848 13.05 30.9248 12.73C31.6248 12.61 32.2148 12.5 32.6948 12.4C33.1948 12.28 33.6548 12.14 34.0748 11.98C34.5148 11.82 34.9548 11.63 35.3948 11.41C35.8548 11.17 36.3848 10.87 36.9848 10.51V12.85C37.1248 12.71 37.4148 12.5 37.8548 12.22C38.2948 11.94 38.7548 11.66 39.2348 11.38C39.7348 11.08 40.1848 10.82 40.5848 10.6C41.0048 10.38 41.2548 10.27 41.3348 10.27C42.0148 10.27 42.6048 10.4 43.1048 10.66C43.6048 10.92 44.0148 11.27 44.3348 11.71C44.6748 12.15 44.9248 12.66 45.0848 13.24C45.2648 13.82 45.3548 14.42 45.3548 15.04V20.92C45.3548 21.26 45.3748 21.63 45.4148 22.03C45.4548 22.43 45.5248 22.82 45.6248 23.2C45.7248 23.58 45.8748 23.93 46.0748 24.25C46.2948 24.57 46.5648 24.82 46.8848 25H39.4748C39.7948 24.82 40.0548 24.57 40.2548 24.25C40.4548 23.91 40.6048 23.56 40.7048 23.2C40.8048 22.82 40.8748 22.43 40.9148 22.03C40.9548 21.63 40.9748 21.26 40.9748 20.92V15.16C40.9748 14.86 40.9448 14.55 40.8848 14.23C40.8248 13.91 40.7248 13.62 40.5848 13.36C40.4448 13.1 40.2448 12.89 39.9848 12.73C39.7448 12.57 39.4448 12.49 39.0848 12.49C38.4648 12.49 37.9848 12.71 37.6448 13.15C37.3048 13.57 37.0848 14.06 36.9848 14.62V20.92C36.9848 21.26 36.9948 21.63 37.0148 22.03C37.0548 22.43 37.1248 22.82 37.2248 23.2C37.3248 23.58 37.4748 23.93 37.6748 24.25C37.8748 24.57 38.1448 24.82 38.4848 25ZM51.6916 17.65C51.8316 18.27 52.0416 18.86 52.3216 19.42C52.6016 19.96 52.9516 20.44 53.3716 20.86C53.7916 21.26 54.2816 21.58 54.8416 21.82C55.4216 22.06 56.0716 22.18 56.7916 22.18C57.0116 22.18 57.2716 22.17 57.5716 22.15C57.8916 22.11 58.2116 22.06 58.5316 22C58.8516 21.94 59.1516 21.86 59.4316 21.76C59.7316 21.64 59.9616 21.5 60.1216 21.34L60.3616 21.52C59.6816 22.76 58.8716 23.7 57.9316 24.34C57.0116 24.98 55.8116 25.3 54.3316 25.3C53.2916 25.3 52.3216 25.11 51.4216 24.73C50.5416 24.35 49.7816 23.83 49.1416 23.17C48.5216 22.49 48.0316 21.7 47.6716 20.8C47.3116 19.9 47.1316 18.93 47.1316 17.89C47.1316 16.89 47.2816 15.93 47.5816 15.01C47.9016 14.09 48.3516 13.28 48.9316 12.58C49.5316 11.88 50.2516 11.32 51.0916 10.9C51.9316 10.48 52.8816 10.27 53.9416 10.27C54.9016 10.27 55.7716 10.42 56.5516 10.72C57.3516 11 58.0216 11.42 58.5616 11.98C59.1216 12.52 59.5516 13.18 59.8516 13.96C60.1516 14.74 60.3016 15.61 60.3016 16.57V17.29L51.6916 17.65ZM56.2816 14.17C56.2816 13.83 56.2116 13.47 56.0716 13.09C55.9516 12.71 55.7716 12.37 55.5316 12.07C55.2916 11.75 55.0116 11.49 54.6916 11.29C54.3716 11.09 54.0216 10.99 53.6416 10.99C53.2016 10.99 52.8416 11.17 52.5616 11.53C52.2816 11.89 52.0616 12.32 51.9016 12.82C51.7416 13.3 51.6216 13.8 51.5416 14.32C51.4816 14.84 51.4516 15.25 51.4516 15.55C51.4516 15.99 51.4816 16.44 51.5416 16.9C51.9416 16.86 52.3416 16.81 52.7416 16.75C53.1416 16.69 53.5416 16.63 53.9416 16.57C54.6216 16.47 55.1816 16.23 55.6216 15.85C56.0616 15.47 56.2816 14.91 56.2816 14.17ZM68.0852 4.06C68.5452 4.06 69.0152 4.12 69.4952 4.24C69.9752 4.36 70.4052 4.54 70.7852 4.78C71.1852 5.02 71.5052 5.34 71.7452 5.74C71.9852 6.12 72.1052 6.58 72.1052 7.12C72.1052 7.82 71.8752 8.4 71.4152 8.86C70.9552 9.3 70.3752 9.52 69.6752 9.52C69.0352 9.52 68.5052 9.31 68.0852 8.89C67.6652 8.47 67.3652 7.97 67.1852 7.39C67.5652 7.39 67.8752 7.28 68.1152 7.06C68.3552 6.82 68.4752 6.51 68.4752 6.13C68.4752 5.73 68.3452 5.42 68.0852 5.2C67.8252 4.96 67.4952 4.84 67.0952 4.84C66.7752 4.84 66.4752 4.91 66.1952 5.05C65.9152 5.19 65.6752 5.38 65.4752 5.62C65.2952 5.86 65.1452 6.13 65.0252 6.43C64.9252 6.73 64.8752 7.03 64.8752 7.33C64.8752 7.95 65.0252 8.47 65.3252 8.89C65.6452 9.29 66.0452 9.61 66.5252 9.85C67.0052 10.09 67.5252 10.26 68.0852 10.36C68.6452 10.46 69.1752 10.51 69.6752 10.51V11.23H66.2552V20.92C66.2552 21.26 66.2652 21.63 66.2852 22.03C66.3252 22.43 66.3952 22.82 66.4952 23.2C66.5952 23.58 66.7452 23.93 66.9452 24.25C67.1452 24.57 67.4152 24.82 67.7552 25H60.3452C60.6652 24.82 60.9252 24.57 61.1252 24.25C61.3252 23.91 61.4752 23.56 61.5752 23.2C61.6952 22.82 61.7752 22.43 61.8152 22.03C61.8552 21.63 61.8752 21.26 61.8752 20.92V11.23H60.2252V10.51H61.9352C61.9352 9.55 62.0652 8.68 62.3252 7.9C62.6052 7.1 63.0052 6.42 63.5252 5.86C64.0452 5.28 64.6852 4.84 65.4452 4.54C66.2252 4.22 67.1052 4.06 68.0852 4.06ZM73.5555 7.63C73.5555 6.81 73.7755 6.12 74.2155 5.56C74.6555 5 75.2055 4.55 75.8655 4.21C76.5255 3.87 77.2355 3.63 77.9955 3.49C78.7755 3.33 79.4955 3.25 80.1555 3.25C80.7555 3.25 81.3955 3.32 82.0755 3.46C82.7755 3.58 83.4155 3.8 83.9955 4.12C84.5755 4.44 85.0555 4.85 85.4355 5.35C85.8155 5.85 86.0055 6.48 86.0055 7.24C86.0055 7.72 85.9055 8.18 85.7055 8.62C85.5055 9.04 85.2355 9.42 84.8955 9.76V10.51H88.0155V11.23H84.8955V21.85C84.8955 22.43 85.0855 22.85 85.4655 23.11C85.8655 23.35 86.3255 23.47 86.8455 23.47C87.1255 23.47 87.3955 23.44 87.6555 23.38C87.9355 23.32 88.1955 23.22 88.4355 23.08V23.38C87.8355 23.94 87.1355 24.4 86.3355 24.76C85.5555 25.12 84.7455 25.3 83.9055 25.3C83.3055 25.3 82.7855 25.19 82.3455 24.97C81.9255 24.75 81.5755 24.46 81.2955 24.1C81.0355 23.72 80.8355 23.29 80.6955 22.81C80.5755 22.31 80.5155 21.79 80.5155 21.25V11.23H79.6455V10.78C80.7255 10.68 81.6455 10.39 82.4055 9.91C83.1855 9.43 83.7555 8.65 84.1155 7.57C84.1355 7.53 84.1455 7.47 84.1455 7.39C84.1455 7.29 84.1455 7.22 84.1455 7.18C84.1455 6.62 84.0255 6.14 83.7855 5.74C83.5655 5.32 83.2655 4.98 82.8855 4.72C82.5255 4.46 82.1055 4.27 81.6255 4.15C81.1455 4.03 80.6555 3.97 80.1555 3.97C79.7755 3.97 79.3755 3.99 78.9555 4.03C78.5555 4.07 78.1555 4.14 77.7555 4.24C77.3755 4.34 77.0055 4.49 76.6455 4.69C76.3055 4.89 76.0055 5.14 75.7455 5.44C76.3455 5.44 76.8555 5.66 77.2755 6.1C77.7155 6.52 77.9355 7.03 77.9355 7.63C77.9355 8.23 77.7155 8.75 77.2755 9.19C76.8555 9.61 76.3455 9.82 75.7455 9.82C75.1455 9.82 74.6255 9.61 74.1855 9.19C73.7655 8.75 73.5555 8.23 73.5555 7.63ZM78.2055 20.92C78.2055 21.26 78.2155 21.63 78.2355 22.03C78.2755 22.43 78.3455 22.82 78.4455 23.2C78.5455 23.58 78.6955 23.93 78.8955 24.25C79.0955 24.57 79.3655 24.82 79.7055 25H72.2955C72.6155 24.82 72.8755 24.57 73.0755 24.25C73.2755 23.91 73.4255 23.56 73.5255 23.2C73.6455 22.82 73.7255 22.43 73.7655 22.03C73.8055 21.63 73.8255 21.26 73.8255 20.92V16.66C73.8255 16.24 73.7855 15.86 73.7055 15.52C73.6255 15.16 73.5155 14.83 73.3755 14.53C73.2355 14.23 73.0555 13.94 72.8355 13.66C72.6355 13.36 72.4055 13.05 72.1455 12.73C72.8455 12.61 73.4355 12.5 73.9155 12.4C74.4155 12.28 74.8755 12.14 75.2955 11.98C75.7355 11.82 76.1755 11.63 76.6155 11.41C77.0755 11.17 77.6055 10.87 78.2055 10.51V20.92ZM94.5211 25.3C93.9611 25.3 93.3411 25.23 92.6611 25.09C92.0011 24.95 91.3811 24.73 90.8011 24.43C90.2211 24.13 89.7311 23.74 89.3311 23.26C88.9511 22.76 88.7611 22.16 88.7611 21.46C88.7611 20.8 88.9411 20.23 89.3011 19.75C89.6811 19.27 90.2211 19.03 90.9211 19.03C91.6011 19.03 92.1511 19.29 92.5711 19.81C93.0111 20.31 93.2911 20.86 93.4111 21.46C93.0511 21.46 92.7511 21.58 92.5111 21.82C92.2911 22.06 92.1811 22.36 92.1811 22.72C92.1811 23.02 92.2511 23.29 92.3911 23.53C92.5311 23.77 92.7111 23.97 92.9311 24.13C93.1711 24.27 93.4311 24.38 93.7111 24.46C93.9911 24.54 94.2611 24.58 94.5211 24.58C94.8411 24.58 95.1611 24.54 95.4811 24.46C95.8011 24.38 96.0911 24.26 96.3511 24.1C96.6111 23.92 96.8211 23.7 96.9811 23.44C97.1411 23.16 97.2211 22.83 97.2211 22.45C97.2211 21.93 97.0211 21.5 96.6211 21.16C96.2411 20.8 95.7611 20.47 95.1811 20.17C94.6011 19.85 93.9711 19.54 93.2911 19.24C92.6111 18.92 91.9811 18.56 91.4011 18.16C90.8211 17.74 90.3311 17.24 89.9311 16.66C89.5511 16.08 89.3611 15.37 89.3611 14.53C89.3611 13.77 89.5511 13.13 89.9311 12.61C90.3311 12.07 90.8211 11.63 91.4011 11.29C91.9811 10.93 92.6211 10.67 93.3211 10.51C94.0411 10.35 94.7111 10.27 95.3311 10.27C95.8911 10.27 96.4911 10.34 97.1311 10.48C97.7911 10.6 98.3911 10.81 98.9311 11.11C99.4911 11.41 99.9511 11.8 100.311 12.28C100.671 12.74 100.851 13.32 100.851 14.02C100.851 14.64 100.671 15.13 100.311 15.49C99.9711 15.85 99.4911 16.03 98.8711 16.03C98.2311 16.03 97.7011 15.84 97.2811 15.46C96.8611 15.08 96.5611 14.6 96.3811 14.02C96.7211 14.02 96.9811 13.92 97.1611 13.72C97.3411 13.5 97.4311 13.23 97.4311 12.91C97.4311 12.31 97.2011 11.84 96.7411 11.5C96.2811 11.16 95.7711 10.99 95.2111 10.99C94.5511 10.99 94.0011 11.2 93.5611 11.62C93.1211 12.02 92.9011 12.55 92.9011 13.21C92.9011 13.71 93.1011 14.14 93.5011 14.5C93.9211 14.86 94.4311 15.2 95.0311 15.52C95.6511 15.82 96.3111 16.12 97.0111 16.42C97.7311 16.72 98.3911 17.08 98.9911 17.5C99.6111 17.92 100.121 18.42 100.521 19C100.941 19.56 101.151 20.25 101.151 21.07C101.151 21.89 100.921 22.58 100.461 23.14C100.021 23.68 99.4711 24.11 98.8111 24.43C98.1511 24.75 97.4311 24.97 96.6511 25.09C95.8911 25.23 95.1811 25.3 94.5211 25.3ZM109.915 16.72C109.275 16.72 108.785 16.49 108.445 16.03C108.125 15.55 107.965 15.02 107.965 14.44C107.965 13.68 108.145 13.04 108.505 12.52C108.885 12 109.355 11.57 109.915 11.23C110.495 10.89 111.125 10.65 111.805 10.51C112.505 10.35 113.165 10.27 113.785 10.27C114.545 10.27 115.255 10.38 115.915 10.6C116.575 10.8 117.145 11.11 117.625 11.53C118.125 11.95 118.515 12.47 118.795 13.09C119.075 13.69 119.215 14.39 119.215 15.19V22.09C119.215 22.23 119.225 22.41 119.245 22.63C119.265 22.83 119.305 23.03 119.365 23.23C119.425 23.43 119.515 23.6 119.635 23.74C119.775 23.88 119.945 23.95 120.145 23.95C120.365 23.95 120.565 23.89 120.745 23.77V24.07C120.245 24.45 119.785 24.75 119.365 24.97C118.945 25.19 118.405 25.3 117.745 25.3C117.425 25.3 117.085 25.24 116.725 25.12C116.385 25.02 116.075 24.87 115.795 24.67C115.515 24.47 115.285 24.22 115.105 23.92C114.925 23.62 114.835 23.29 114.835 22.93V16.66C112.835 17.8 111.835 19.55 111.835 21.91C111.835 22.71 111.965 23.44 112.225 24.1C112.505 24.74 112.885 25.29 113.365 25.75C113.845 26.21 114.415 26.56 115.075 26.8C115.735 27.06 116.455 27.19 117.235 27.19C118.115 27.19 118.885 27.03 119.545 26.71C120.205 26.41 120.755 25.99 121.195 25.45C121.655 24.91 121.995 24.28 122.215 23.56C122.455 22.84 122.575 22.06 122.575 21.22V16.66C122.575 16.24 122.535 15.86 122.455 15.52C122.375 15.16 122.265 14.83 122.125 14.53C121.985 14.23 121.805 13.94 121.585 13.66C121.385 13.36 121.155 13.05 120.895 12.73C121.595 12.61 122.185 12.5 122.665 12.4C123.165 12.28 123.625 12.14 124.045 11.98C124.485 11.8 124.925 11.6 125.365 11.38C125.825 11.14 126.355 10.85 126.955 10.51V12.82C127.015 12.76 127.155 12.66 127.375 12.52C127.595 12.36 127.855 12.19 128.155 12.01C128.455 11.81 128.775 11.61 129.115 11.41C129.475 11.21 129.805 11.03 130.105 10.87C130.405 10.69 130.665 10.55 130.885 10.45C131.105 10.33 131.245 10.27 131.305 10.27C131.985 10.27 132.575 10.4 133.075 10.66C133.575 10.92 133.985 11.27 134.305 11.71C134.645 12.15 134.895 12.66 135.055 13.24C135.235 13.82 135.325 14.42 135.325 15.04V20.92C135.325 21.26 135.345 21.63 135.385 22.03C135.425 22.43 135.495 22.82 135.595 23.2C135.695 23.58 135.845 23.93 136.045 24.25C136.265 24.57 136.535 24.82 136.855 25H129.445C129.765 24.82 130.025 24.57 130.225 24.25C130.425 23.91 130.575 23.56 130.675 23.2C130.775 22.82 130.845 22.43 130.885 22.03C130.925 21.63 130.945 21.26 130.945 20.92V15.16C130.945 14.86 130.915 14.55 130.855 14.23C130.795 13.91 130.695 13.62 130.555 13.36C130.415 13.1 130.215 12.89 129.955 12.73C129.715 12.57 129.415 12.49 129.055 12.49C128.795 12.49 128.535 12.55 128.275 12.67C128.035 12.79 127.815 12.95 127.615 13.15C127.415 13.35 127.255 13.58 127.135 13.84C127.015 14.1 126.955 14.36 126.955 14.62C126.935 14.96 126.925 15.3 126.925 15.64C126.945 15.98 126.955 16.32 126.955 16.66V21.43C126.955 22.73 126.615 23.81 125.935 24.67C125.275 25.51 124.435 26.18 123.415 26.68C122.395 27.18 121.285 27.52 120.085 27.7C118.905 27.9 117.795 28 116.755 28C115.775 28 114.735 27.92 113.635 27.76C112.555 27.6 111.555 27.3 110.635 26.86C109.715 26.42 108.945 25.81 108.325 25.03C107.725 24.25 107.425 23.25 107.425 22.03C107.425 21.19 107.685 20.45 108.205 19.81C108.745 19.15 109.395 18.58 110.155 18.1C110.935 17.6 111.745 17.17 112.585 16.81C113.445 16.45 114.195 16.15 114.835 15.91C114.835 15.61 114.845 15.19 114.865 14.65C114.885 14.09 114.865 13.54 114.805 13C114.745 12.46 114.615 11.99 114.415 11.59C114.215 11.19 113.885 10.99 113.425 10.99C113.205 10.99 113.005 11.05 112.825 11.17C112.645 11.29 112.485 11.44 112.345 11.62C112.225 11.8 112.125 12 112.045 12.22C111.985 12.42 111.955 12.62 111.955 12.82C111.955 13.18 112.065 13.45 112.285 13.63C112.505 13.81 112.785 13.9 113.125 13.9C112.905 14.64 112.525 15.3 111.985 15.88C111.445 16.44 110.755 16.72 109.915 16.72ZM151.292 3.76V20.92C151.292 21.26 151.302 21.63 151.322 22.03C151.362 22.43 151.432 22.82 151.532 23.2C151.632 23.58 151.782 23.93 151.982 24.25C152.182 24.57 152.452 24.82 152.792 25H146.912V23.77C146.572 24.25 146.142 24.62 145.622 24.88C145.122 25.14 144.432 25.27 143.552 25.27C142.512 25.27 141.592 25.07 140.792 24.67C139.992 24.27 139.312 23.74 138.752 23.08C138.212 22.4 137.802 21.62 137.522 20.74C137.242 19.86 137.102 18.94 137.102 17.98C137.102 16.96 137.252 15.98 137.552 15.04C137.852 14.1 138.292 13.27 138.872 12.55C139.472 11.83 140.192 11.26 141.032 10.84C141.892 10.4 142.862 10.18 143.942 10.18C144.082 10.18 144.292 10.23 144.572 10.33C144.852 10.41 145.142 10.51 145.442 10.63C145.742 10.73 146.032 10.84 146.312 10.96C146.592 11.08 146.792 11.17 146.912 11.23V9.88C146.912 9.46 146.872 9.08 146.792 8.74C146.712 8.38 146.602 8.05 146.462 7.75C146.322 7.45 146.142 7.16 145.922 6.88C145.722 6.58 145.492 6.27 145.232 5.95C145.932 5.83 146.522 5.72 147.002 5.62C147.502 5.5 147.962 5.36 148.382 5.2C148.822 5.04 149.262 4.85 149.702 4.63C150.162 4.39 150.692 4.1 151.292 3.76ZM146.912 14.83C146.912 14.43 146.882 14.01 146.822 13.57C146.762 13.11 146.642 12.69 146.462 12.31C146.282 11.91 146.032 11.58 145.712 11.32C145.412 11.06 145.012 10.93 144.512 10.93C143.912 10.93 143.402 11.1 142.982 11.44C142.562 11.76 142.222 12.17 141.962 12.67C141.702 13.15 141.512 13.68 141.392 14.26C141.292 14.82 141.242 15.35 141.242 15.85C141.242 16.63 141.342 17.4 141.542 18.16C141.762 18.9 142.082 19.57 142.502 20.17C142.922 20.75 143.452 21.23 144.092 21.61C144.752 21.97 145.512 22.15 146.372 22.15H146.912V14.83ZM169.278 2.71C168.198 2.71 167.268 2.99 166.488 3.55C165.728 4.11 165.108 4.82 164.628 5.68C164.148 6.54 163.788 7.48 163.548 8.5C163.328 9.5 163.218 10.45 163.218 11.35C163.218 12.67 163.398 13.92 163.758 15.1C164.138 16.28 164.688 17.32 165.408 18.22C166.148 19.12 167.058 19.83 168.138 20.35C169.218 20.87 170.468 21.13 171.888 21.13C172.928 21.13 173.918 20.96 174.858 20.62C175.818 20.28 176.658 19.72 177.378 18.94L177.618 19.12C177.158 21.18 176.248 22.73 174.888 23.77C173.528 24.79 171.788 25.3 169.668 25.3C168.028 25.3 166.558 25 165.258 24.4C163.958 23.8 162.858 22.99 161.958 21.97C161.058 20.93 160.368 19.72 159.888 18.34C159.408 16.96 159.168 15.49 159.168 13.93C159.168 12.37 159.418 10.87 159.918 9.43C160.418 7.99 161.128 6.72 162.048 5.62C162.988 4.5 164.118 3.61 165.438 2.95C166.778 2.29 168.278 1.96 169.938 1.96C170.698 1.96 171.498 2.07 172.338 2.29C173.198 2.51 173.988 2.84 174.708 3.28C175.428 3.72 176.018 4.28 176.478 4.96C176.958 5.62 177.198 6.41 177.198 7.33C177.198 8.01 176.998 8.58 176.598 9.04C176.198 9.48 175.648 9.7 174.948 9.7C174.168 9.7 173.538 9.44 173.058 8.92C172.598 8.4 172.258 7.79 172.038 7.09C172.318 7.07 172.498 6.91 172.578 6.61C172.658 6.31 172.698 6.06 172.698 5.86C172.698 5.38 172.608 4.95 172.428 4.57C172.248 4.17 171.998 3.84 171.678 3.58C171.378 3.3 171.018 3.09 170.598 2.95C170.178 2.79 169.738 2.71 169.278 2.71ZM179.763 9.88C179.763 9.46 179.723 9.08 179.643 8.74C179.563 8.38 179.453 8.05 179.313 7.75C179.173 7.45 178.993 7.16 178.773 6.88C178.573 6.58 178.343 6.27 178.083 5.95C179.203 5.77 180.243 5.5 181.203 5.14C182.183 4.76 183.163 4.29 184.143 3.73V12.91C184.203 12.81 184.453 12.62 184.893 12.34C185.333 12.04 185.803 11.74 186.303 11.44C186.823 11.14 187.303 10.87 187.743 10.63C188.203 10.39 188.473 10.27 188.553 10.27C189.233 10.27 189.823 10.4 190.323 10.66C190.823 10.92 191.233 11.27 191.553 11.71C191.893 12.15 192.143 12.66 192.303 13.24C192.483 13.82 192.573 14.42 192.573 15.04V20.92C192.573 21.26 192.593 21.63 192.633 22.03C192.673 22.43 192.743 22.82 192.843 23.2C192.943 23.58 193.093 23.93 193.293 24.25C193.513 24.57 193.783 24.82 194.103 25H186.693C187.013 24.82 187.273 24.57 187.473 24.25C187.673 23.91 187.823 23.56 187.923 23.2C188.023 22.82 188.093 22.43 188.133 22.03C188.173 21.63 188.193 21.26 188.193 20.92V15.16C188.193 14.86 188.163 14.55 188.103 14.23C188.043 13.91 187.943 13.62 187.803 13.36C187.663 13.1 187.463 12.89 187.203 12.73C186.963 12.57 186.663 12.49 186.303 12.49C185.963 12.49 185.653 12.57 185.373 12.73C185.113 12.89 184.893 13.1 184.713 13.36C184.533 13.62 184.393 13.91 184.293 14.23C184.193 14.55 184.143 14.86 184.143 15.16V20.92C184.143 21.26 184.153 21.63 184.173 22.03C184.213 22.43 184.283 22.82 184.383 23.2C184.483 23.58 184.633 23.93 184.833 24.25C185.033 24.57 185.303 24.82 185.643 25H178.233C178.553 24.82 178.813 24.57 179.013 24.25C179.213 23.91 179.363 23.56 179.463 23.2C179.583 22.82 179.663 22.43 179.703 22.03C179.743 21.63 179.763 21.26 179.763 20.92V9.88ZM207.668 24.07C207.408 24.25 207.168 24.42 206.948 24.58C206.728 24.74 206.508 24.87 206.288 24.97C206.068 25.07 205.828 25.15 205.568 25.21C205.308 25.27 205.008 25.3 204.668 25.3C204.128 25.3 203.588 25.16 203.048 24.88C202.508 24.58 202.128 24.17 201.908 23.65C201.448 24.17 200.888 24.58 200.228 24.88C199.568 25.16 198.808 25.3 197.948 25.3C196.888 25.3 196.018 25.05 195.338 24.55C194.678 24.05 194.348 23.23 194.348 22.09C194.348 21.31 194.638 20.63 195.218 20.05C195.818 19.47 196.518 18.94 197.318 18.46C198.138 17.98 198.958 17.52 199.778 17.08C200.618 16.62 201.278 16.13 201.758 15.61V14.65C201.758 14.39 201.758 14.06 201.758 13.66C201.758 13.24 201.718 12.84 201.638 12.46C201.558 12.06 201.418 11.72 201.218 11.44C201.038 11.14 200.748 10.99 200.348 10.99C200.128 10.99 199.928 11.05 199.748 11.17C199.568 11.29 199.408 11.44 199.268 11.62C199.148 11.8 199.048 12 198.968 12.22C198.908 12.42 198.878 12.62 198.878 12.82C198.878 13.18 198.988 13.45 199.208 13.63C199.428 13.81 199.708 13.9 200.048 13.9C199.828 14.64 199.448 15.3 198.908 15.88C198.368 16.44 197.678 16.72 196.838 16.72C196.198 16.72 195.708 16.49 195.368 16.03C195.048 15.55 194.888 15.02 194.888 14.44C194.888 13.68 195.068 13.04 195.428 12.52C195.808 12 196.278 11.57 196.838 11.23C197.418 10.89 198.048 10.65 198.728 10.51C199.428 10.35 200.088 10.27 200.708 10.27C201.468 10.27 202.178 10.38 202.838 10.6C203.498 10.8 204.068 11.11 204.548 11.53C205.048 11.95 205.438 12.47 205.718 13.09C205.998 13.69 206.138 14.39 206.138 15.19V22.09C206.138 22.23 206.148 22.41 206.168 22.63C206.188 22.83 206.228 23.03 206.288 23.23C206.348 23.43 206.438 23.6 206.558 23.74C206.698 23.88 206.868 23.95 207.068 23.95C207.288 23.95 207.488 23.89 207.668 23.77V24.07ZM201.758 16.66C201.478 16.92 201.158 17.2 200.798 17.5C200.458 17.8 200.138 18.12 199.838 18.46C199.538 18.78 199.278 19.13 199.058 19.51C198.858 19.89 198.758 20.3 198.758 20.74C198.758 21.06 198.778 21.38 198.818 21.7C198.878 22 198.968 22.27 199.088 22.51C199.228 22.75 199.418 22.95 199.658 23.11C199.898 23.25 200.208 23.32 200.588 23.32C201.028 23.32 201.418 23.22 201.758 23.02V16.66ZM221.469 20.92C221.469 21.26 221.479 21.63 221.499 22.03C221.539 22.43 221.609 22.82 221.709 23.2C221.829 23.58 221.989 23.93 222.189 24.25C222.389 24.57 222.659 24.82 222.999 25H215.559C215.899 24.82 216.169 24.57 216.369 24.25C216.569 23.93 216.719 23.58 216.819 23.2C216.919 22.82 216.989 22.43 217.029 22.03C217.069 21.63 217.089 21.26 217.089 20.92V9.88C217.089 9.46 217.049 9.08 216.969 8.74C216.889 8.38 216.779 8.05 216.639 7.75C216.499 7.45 216.319 7.16 216.099 6.88C215.899 6.58 215.669 6.27 215.409 5.95C215.909 5.87 216.349 5.79 216.729 5.71C217.129 5.63 217.489 5.55 217.809 5.47C218.149 5.37 218.469 5.26 218.769 5.14C219.069 5.02 219.379 4.88 219.699 4.72C219.099 4.94 218.479 5.1 217.839 5.2C217.219 5.28 216.579 5.32 215.919 5.32C215.119 5.32 214.309 5.26 213.489 5.14C212.689 5.02 211.889 4.89 211.089 4.75C210.309 4.59 209.509 4.45 208.689 4.33C207.889 4.21 207.089 4.15 206.289 4.15C205.189 4.15 204.239 4.37 203.439 4.81C202.639 5.23 201.999 5.96 201.519 7C200.999 6.66 200.569 6.23 200.229 5.71C199.889 5.19 199.719 4.61 199.719 3.97C199.719 3.33 199.879 2.8 200.199 2.38C200.499 1.96 200.889 1.62 201.369 1.36C201.829 1.08 202.339 0.889999 202.899 0.789999C203.459 0.669999 203.999 0.609999 204.519 0.609999C205.639 0.609999 206.739 0.819999 207.819 1.24C208.879 1.64 209.949 2.09 211.029 2.59C212.109 3.07 213.199 3.52 214.299 3.94C215.419 4.34 216.579 4.54 217.779 4.54C218.419 4.54 219.049 4.47 219.669 4.33C220.289 4.19 220.889 3.99 221.469 3.73V20.92ZM213.879 20.92C213.879 21.26 213.889 21.63 213.909 22.03C213.949 22.43 214.019 22.82 214.119 23.2C214.239 23.58 214.399 23.93 214.599 24.25C214.799 24.57 215.069 24.82 215.409 25H207.969C208.309 24.82 208.579 24.57 208.779 24.25C208.979 23.93 209.129 23.58 209.229 23.2C209.329 22.82 209.399 22.43 209.439 22.03C209.479 21.63 209.499 21.26 209.499 20.92V12.49C209.499 12.07 209.459 11.69 209.379 11.35C209.299 10.99 209.189 10.66 209.049 10.36C208.909 10.06 208.729 9.77 208.509 9.49C208.309 9.19 208.079 8.88 207.819 8.56C208.519 8.44 209.109 8.33 209.589 8.23C210.089 8.11 210.549 7.97 210.969 7.81C211.409 7.65 211.849 7.46 212.289 7.24C212.749 7 213.279 6.7 213.879 6.34V20.92ZM227.795 17.65C227.935 18.27 228.145 18.86 228.425 19.42C228.705 19.96 229.055 20.44 229.475 20.86C229.895 21.26 230.385 21.58 230.945 21.82C231.525 22.06 232.175 22.18 232.895 22.18C233.115 22.18 233.375 22.17 233.675 22.15C233.995 22.11 234.315 22.06 234.635 22C234.955 21.94 235.255 21.86 235.535 21.76C235.835 21.64 236.065 21.5 236.225 21.34L236.465 21.52C235.785 22.76 234.975 23.7 234.035 24.34C233.115 24.98 231.915 25.3 230.435 25.3C229.395 25.3 228.425 25.11 227.525 24.73C226.645 24.35 225.885 23.83 225.245 23.17C224.625 22.49 224.135 21.7 223.775 20.8C223.415 19.9 223.235 18.93 223.235 17.89C223.235 16.89 223.385 15.93 223.685 15.01C224.005 14.09 224.455 13.28 225.035 12.58C225.635 11.88 226.355 11.32 227.195 10.9C228.035 10.48 228.985 10.27 230.045 10.27C231.005 10.27 231.875 10.42 232.655 10.72C233.455 11 234.125 11.42 234.665 11.98C235.225 12.52 235.655 13.18 235.955 13.96C236.255 14.74 236.405 15.61 236.405 16.57V17.29L227.795 17.65ZM232.385 14.17C232.385 13.83 232.315 13.47 232.175 13.09C232.055 12.71 231.875 12.37 231.635 12.07C231.395 11.75 231.115 11.49 230.795 11.29C230.475 11.09 230.125 10.99 229.745 10.99C229.305 10.99 228.945 11.17 228.665 11.53C228.385 11.89 228.165 12.32 228.005 12.82C227.845 13.3 227.725 13.8 227.645 14.32C227.585 14.84 227.555 15.25 227.555 15.55C227.555 15.99 227.585 16.44 227.645 16.9C228.045 16.86 228.445 16.81 228.845 16.75C229.245 16.69 229.645 16.63 230.045 16.57C230.725 16.47 231.285 16.23 231.725 15.85C232.165 15.47 232.385 14.91 232.385 14.17ZM260.045 10.27C260.465 10.27 260.895 10.3 261.335 10.36C261.595 9.9 261.885 9.45 262.205 9.01C262.525 8.57 262.875 8.18 263.255 7.84C263.655 7.48 264.075 7.19 264.515 6.97C264.975 6.75 265.465 6.64 265.985 6.64C266.565 6.64 267.065 6.82 267.485 7.18C267.905 7.52 268.115 7.99 268.115 8.59C268.115 9.29 267.865 9.83 267.365 10.21C266.865 10.57 266.295 10.75 265.655 10.75C265.515 10.75 265.345 10.73 265.145 10.69C265.025 10.37 264.825 10.13 264.545 9.97C264.285 9.81 263.985 9.73 263.645 9.73C263.285 9.73 262.965 9.8 262.685 9.94C262.405 10.06 262.155 10.23 261.935 10.45C262.615 10.57 263.265 10.77 263.885 11.05C264.525 11.33 265.085 11.69 265.565 12.13C266.065 12.55 266.455 13.06 266.735 13.66C267.035 14.24 267.185 14.92 267.185 15.7C267.185 16.68 266.965 17.52 266.525 18.22C266.085 18.92 265.505 19.49 264.785 19.93C264.085 20.35 263.305 20.66 262.445 20.86C261.585 21.06 260.735 21.16 259.895 21.16C259.655 21.18 259.395 21.22 259.115 21.28C258.835 21.32 258.585 21.38 258.365 21.46C258.145 21.54 257.955 21.64 257.795 21.76C257.655 21.88 257.585 22.03 257.585 22.21C257.585 22.35 257.625 22.47 257.705 22.57C257.805 22.65 257.915 22.71 258.035 22.75C258.155 22.79 258.285 22.82 258.425 22.84C258.565 22.84 258.685 22.84 258.785 22.84H265.565C266.265 22.84 266.845 23.02 267.305 23.38C267.785 23.72 268.025 24.26 268.025 25C268.025 26.5 267.695 27.74 267.035 28.72C266.395 29.7 265.565 30.47 264.545 31.03C263.525 31.59 262.375 31.98 261.095 32.2C259.835 32.42 258.585 32.53 257.345 32.53H257.045C256.125 32.51 255.075 32.4 253.895 32.2C252.715 32 251.595 31.66 250.535 31.18C249.495 30.72 248.615 30.09 247.895 29.29C247.175 28.51 246.815 27.52 246.815 26.32V15.16C246.815 14.86 246.785 14.55 246.725 14.23C246.665 13.91 246.565 13.62 246.425 13.36C246.285 13.1 246.085 12.89 245.825 12.73C245.585 12.57 245.285 12.49 244.925 12.49C244.305 12.49 243.825 12.71 243.485 13.15C243.145 13.57 242.925 14.06 242.825 14.62V20.92C242.825 21.26 242.835 21.63 242.855 22.03C242.895 22.43 242.965 22.82 243.065 23.2C243.165 23.58 243.315 23.93 243.515 24.25C243.715 24.57 243.985 24.82 244.325 25H236.915C237.235 24.82 237.495 24.57 237.695 24.25C237.895 23.91 238.045 23.56 238.145 23.2C238.265 22.82 238.345 22.43 238.385 22.03C238.425 21.63 238.445 21.26 238.445 20.92V16.66C238.445 16.24 238.405 15.86 238.325 15.52C238.245 15.16 238.135 14.83 237.995 14.53C237.855 14.23 237.675 13.94 237.455 13.66C237.255 13.36 237.025 13.05 236.765 12.73C237.465 12.61 238.055 12.5 238.535 12.4C239.035 12.28 239.495 12.14 239.915 11.98C240.355 11.82 240.795 11.63 241.235 11.41C241.695 11.17 242.225 10.87 242.825 10.51V12.85C242.965 12.71 243.255 12.5 243.695 12.22C244.135 11.94 244.595 11.66 245.075 11.38C245.555 11.08 246.005 10.82 246.425 10.6C246.845 10.38 247.095 10.27 247.175 10.27C247.855 10.27 248.445 10.4 248.945 10.66C249.445 10.92 249.855 11.27 250.175 11.71C250.515 12.15 250.765 12.66 250.925 13.24C251.105 13.82 251.195 14.42 251.195 15.04V26.38C251.195 27.26 251.365 28.03 251.705 28.69C252.045 29.37 252.495 29.94 253.055 30.4C253.635 30.86 254.295 31.21 255.035 31.45C255.775 31.69 256.555 31.81 257.375 31.81C258.155 31.81 258.915 31.7 259.655 31.48C260.415 31.28 261.085 30.96 261.665 30.52C262.265 30.08 262.745 29.54 263.105 28.9C263.465 28.26 263.645 27.5 263.645 26.62H255.185C254.845 26.62 254.515 26.55 254.195 26.41C253.875 26.27 253.595 26.08 253.355 25.84C253.115 25.6 252.925 25.32 252.785 25C252.645 24.68 252.575 24.35 252.575 24.01C252.575 23.33 252.755 22.79 253.115 22.39C253.495 21.99 253.955 21.69 254.495 21.49C255.035 21.27 255.615 21.13 256.235 21.07C256.875 20.99 257.455 20.95 257.975 20.95C257.315 20.81 256.675 20.61 256.055 20.35C255.435 20.07 254.885 19.71 254.405 19.27C253.925 18.83 253.545 18.32 253.265 17.74C252.985 17.14 252.845 16.46 252.845 15.7C252.845 14.74 253.065 13.92 253.505 13.24C253.945 12.56 254.515 12 255.215 11.56C255.915 11.12 256.685 10.8 257.525 10.6C258.385 10.38 259.225 10.27 260.045 10.27ZM261.005 20.35C261.405 20.35 261.735 20.26 261.995 20.08C262.255 19.88 262.455 19.63 262.595 19.33C262.755 19.03 262.865 18.7 262.925 18.34C262.985 17.98 263.015 17.64 263.015 17.32C263.015 16.74 262.925 16.09 262.745 15.37C262.565 14.65 262.295 13.98 261.935 13.36C261.595 12.72 261.155 12.19 260.615 11.77C260.095 11.35 259.485 11.14 258.785 11.14C258.425 11.14 258.125 11.23 257.885 11.41C257.645 11.59 257.455 11.82 257.315 12.1C257.195 12.38 257.105 12.69 257.045 13.03C257.005 13.35 256.985 13.66 256.985 13.96C256.985 14.5 257.065 15.14 257.225 15.88C257.405 16.6 257.655 17.3 257.975 17.98C258.315 18.64 258.735 19.2 259.235 19.66C259.735 20.12 260.325 20.35 261.005 20.35ZM273.059 17.65C273.199 18.27 273.409 18.86 273.689 19.42C273.969 19.96 274.319 20.44 274.739 20.86C275.159 21.26 275.649 21.58 276.209 21.82C276.789 22.06 277.439 22.18 278.159 22.18C278.379 22.18 278.639 22.17 278.939 22.15C279.259 22.11 279.579 22.06 279.899 22C280.219 21.94 280.519 21.86 280.799 21.76C281.099 21.64 281.329 21.5 281.489 21.34L281.729 21.52C281.049 22.76 280.239 23.7 279.299 24.34C278.379 24.98 277.179 25.3 275.699 25.3C274.659 25.3 273.689 25.11 272.789 24.73C271.909 24.35 271.149 23.83 270.509 23.17C269.889 22.49 269.399 21.7 269.039 20.8C268.679 19.9 268.499 18.93 268.499 17.89C268.499 16.89 268.649 15.93 268.949 15.01C269.269 14.09 269.719 13.28 270.299 12.58C270.899 11.88 271.619 11.32 272.459 10.9C273.299 10.48 274.249 10.27 275.309 10.27C276.269 10.27 277.139 10.42 277.919 10.72C278.719 11 279.389 11.42 279.929 11.98C280.489 12.52 280.919 13.18 281.219 13.96C281.519 14.74 281.669 15.61 281.669 16.57V17.29L273.059 17.65ZM277.649 14.17C277.649 13.83 277.579 13.47 277.439 13.09C277.319 12.71 277.139 12.37 276.899 12.07C276.659 11.75 276.379 11.49 276.059 11.29C275.739 11.09 275.389 10.99 275.009 10.99C274.569 10.99 274.209 11.17 273.929 11.53C273.649 11.89 273.429 12.32 273.269 12.82C273.109 13.3 272.989 13.8 272.909 14.32C272.849 14.84 272.819 15.25 272.819 15.55C272.819 15.99 272.849 16.44 272.909 16.9C273.309 16.86 273.709 16.81 274.109 16.75C274.509 16.69 274.909 16.63 275.309 16.57C275.989 16.47 276.549 16.23 276.989 15.85C277.429 15.47 277.649 14.91 277.649 14.17ZM287.968 25.3C287.408 25.3 286.788 25.23 286.108 25.09C285.448 24.95 284.828 24.73 284.248 24.43C283.668 24.13 283.178 23.74 282.778 23.26C282.398 22.76 282.208 22.16 282.208 21.46C282.208 20.8 282.388 20.23 282.748 19.75C283.128 19.27 283.668 19.03 284.368 19.03C285.048 19.03 285.598 19.29 286.018 19.81C286.458 20.31 286.738 20.86 286.858 21.46C286.498 21.46 286.198 21.58 285.958 21.82C285.738 22.06 285.628 22.36 285.628 22.72C285.628 23.02 285.698 23.29 285.838 23.53C285.978 23.77 286.158 23.97 286.378 24.13C286.618 24.27 286.878 24.38 287.158 24.46C287.438 24.54 287.708 24.58 287.968 24.58C288.288 24.58 288.608 24.54 288.928 24.46C289.248 24.38 289.538 24.26 289.798 24.1C290.058 23.92 290.268 23.7 290.428 23.44C290.588 23.16 290.668 22.83 290.668 22.45C290.668 21.93 290.468 21.5 290.068 21.16C289.688 20.8 289.208 20.47 288.628 20.17C288.048 19.85 287.418 19.54 286.738 19.24C286.058 18.92 285.428 18.56 284.848 18.16C284.268 17.74 283.778 17.24 283.378 16.66C282.998 16.08 282.808 15.37 282.808 14.53C282.808 13.77 282.998 13.13 283.378 12.61C283.778 12.07 284.268 11.63 284.848 11.29C285.428 10.93 286.068 10.67 286.768 10.51C287.488 10.35 288.158 10.27 288.778 10.27C289.338 10.27 289.938 10.34 290.578 10.48C291.238 10.6 291.838 10.81 292.378 11.11C292.938 11.41 293.398 11.8 293.758 12.28C294.118 12.74 294.298 13.32 294.298 14.02C294.298 14.64 294.118 15.13 293.758 15.49C293.418 15.85 292.938 16.03 292.318 16.03C291.678 16.03 291.148 15.84 290.728 15.46C290.308 15.08 290.008 14.6 289.828 14.02C290.168 14.02 290.428 13.92 290.608 13.72C290.788 13.5 290.878 13.23 290.878 12.91C290.878 12.31 290.648 11.84 290.188 11.5C289.728 11.16 289.218 10.99 288.658 10.99C287.998 10.99 287.448 11.2 287.008 11.62C286.568 12.02 286.348 12.55 286.348 13.21C286.348 13.71 286.548 14.14 286.948 14.5C287.368 14.86 287.878 15.2 288.478 15.52C289.098 15.82 289.758 16.12 290.458 16.42C291.178 16.72 291.838 17.08 292.438 17.5C293.058 17.92 293.568 18.42 293.968 19C294.388 19.56 294.598 20.25 294.598 21.07C294.598 21.89 294.368 22.58 293.908 23.14C293.468 23.68 292.918 24.11 292.258 24.43C291.598 24.75 290.878 24.97 290.098 25.09C289.338 25.23 288.628 25.3 287.968 25.3ZM308.132 10.27C309.172 10.27 310.132 10.47 311.012 10.87C311.892 11.27 312.652 11.82 313.292 12.52C313.952 13.2 314.462 14 314.822 14.92C315.182 15.82 315.362 16.78 315.362 17.8C315.362 18.82 315.182 19.79 314.822 20.71C314.462 21.61 313.952 22.4 313.292 23.08C312.652 23.76 311.892 24.3 311.012 24.7C310.132 25.1 309.172 25.3 308.132 25.3C307.092 25.3 306.122 25.1 305.222 24.7C304.342 24.3 303.582 23.76 302.942 23.08C302.302 22.4 301.792 21.61 301.412 20.71C301.052 19.79 300.872 18.82 300.872 17.8C300.872 16.78 301.052 15.82 301.412 14.92C301.792 14 302.302 13.2 302.942 12.52C303.582 11.82 304.342 11.27 305.222 10.87C306.122 10.47 307.092 10.27 308.132 10.27ZM309.092 24.49C309.552 24.49 309.912 24.32 310.172 23.98C310.432 23.64 310.632 23.24 310.772 22.78C310.912 22.3 311.002 21.81 311.042 21.31C311.082 20.81 311.102 20.41 311.102 20.11C311.102 19.73 311.072 19.24 311.012 18.64C310.952 18.04 310.852 17.41 310.712 16.75C310.572 16.09 310.392 15.43 310.172 14.77C309.972 14.09 309.712 13.49 309.392 12.97C309.072 12.43 308.702 11.99 308.282 11.65C307.882 11.31 307.412 11.14 306.872 11.14C306.452 11.14 306.122 11.3 305.882 11.62C305.642 11.94 305.462 12.32 305.342 12.76C305.222 13.2 305.142 13.65 305.102 14.11C305.082 14.57 305.072 14.94 305.072 15.22C305.072 15.58 305.102 16.06 305.162 16.66C305.222 17.24 305.312 17.88 305.432 18.58C305.572 19.26 305.742 19.95 305.942 20.65C306.162 21.35 306.422 21.99 306.722 22.57C307.022 23.13 307.362 23.59 307.742 23.95C308.142 24.31 308.592 24.49 309.092 24.49ZM323.32 4.06C323.78 4.06 324.25 4.12 324.73 4.24C325.21 4.36 325.64 4.54 326.02 4.78C326.42 5.02 326.74 5.34 326.98 5.74C327.22 6.12 327.34 6.58 327.34 7.12C327.34 7.82 327.11 8.4 326.65 8.86C326.19 9.3 325.61 9.52 324.91 9.52C324.27 9.52 323.74 9.31 323.32 8.89C322.9 8.47 322.6 7.97 322.42 7.39C322.8 7.39 323.11 7.28 323.35 7.06C323.59 6.82 323.71 6.51 323.71 6.13C323.71 5.73 323.58 5.42 323.32 5.2C323.06 4.96 322.73 4.84 322.33 4.84C322.01 4.84 321.71 4.91 321.43 5.05C321.15 5.19 320.91 5.38 320.71 5.62C320.53 5.86 320.38 6.13 320.26 6.43C320.16 6.73 320.11 7.03 320.11 7.33C320.11 7.95 320.26 8.47 320.56 8.89C320.88 9.29 321.28 9.61 321.76 9.85C322.24 10.09 322.76 10.26 323.32 10.36C323.88 10.46 324.41 10.51 324.91 10.51V11.23H321.49V20.92C321.49 21.26 321.5 21.63 321.52 22.03C321.56 22.43 321.63 22.82 321.73 23.2C321.83 23.58 321.98 23.93 322.18 24.25C322.38 24.57 322.65 24.82 322.99 25H315.58C315.9 24.82 316.16 24.57 316.36 24.25C316.56 23.91 316.71 23.56 316.81 23.2C316.93 22.82 317.01 22.43 317.05 22.03C317.09 21.63 317.11 21.26 317.11 20.92V11.23H315.46V10.51H317.17C317.17 9.55 317.3 8.68 317.56 7.9C317.84 7.1 318.24 6.42 318.76 5.86C319.28 5.28 319.92 4.84 320.68 4.54C321.46 4.22 322.34 4.06 323.32 4.06ZM343.769 25.3C342.729 25.3 341.699 25.17 340.679 24.91C339.659 24.63 338.739 24.21 337.919 23.65C337.119 23.07 336.469 22.35 335.969 21.49C335.469 20.63 335.219 19.61 335.219 18.43V6.34C335.219 5.98 335.199 5.61 335.159 5.23C335.139 4.83 335.079 4.45 334.979 4.09C334.879 3.71 334.729 3.36 334.529 3.04C334.329 2.72 334.059 2.46 333.719 2.26H341.129C340.809 2.46 340.549 2.72 340.349 3.04C340.149 3.36 339.989 3.71 339.869 4.09C339.769 4.45 339.699 4.83 339.659 5.23C339.619 5.63 339.599 6 339.599 6.34V19.03C339.599 20.73 340.019 22.06 340.859 23.02C341.719 23.98 343.009 24.46 344.729 24.46C345.629 24.46 346.429 24.31 347.129 24.01C347.849 23.71 348.449 23.3 348.929 22.78C349.409 22.24 349.779 21.6 350.039 20.86C350.299 20.12 350.429 19.31 350.429 18.43V8.68C350.429 7.66 350.359 6.81 350.219 6.13C350.079 5.43 349.829 4.84 349.469 4.36C349.109 3.88 348.619 3.48 347.999 3.16C347.399 2.84 346.629 2.54 345.689 2.26H353.429C352.949 2.4 352.569 2.61 352.289 2.89C352.009 3.15 351.789 3.47 351.629 3.85C351.489 4.21 351.399 4.61 351.359 5.05C351.319 5.47 351.279 5.9 351.239 6.34C351.199 6.88 351.169 7.42 351.149 7.96C351.149 8.5 351.149 9.04 351.149 9.58V18.43C351.149 19.59 350.969 20.6 350.609 21.46C350.249 22.32 349.749 23.04 349.109 23.62C348.469 24.18 347.689 24.6 346.769 24.88C345.869 25.16 344.869 25.3 343.769 25.3ZM359.804 25.3C359.244 25.3 358.624 25.23 357.944 25.09C357.284 24.95 356.664 24.73 356.084 24.43C355.504 24.13 355.014 23.74 354.614 23.26C354.234 22.76 354.044 22.16 354.044 21.46C354.044 20.8 354.224 20.23 354.584 19.75C354.964 19.27 355.504 19.03 356.204 19.03C356.884 19.03 357.434 19.29 357.854 19.81C358.294 20.31 358.574 20.86 358.694 21.46C358.334 21.46 358.034 21.58 357.794 21.82C357.574 22.06 357.464 22.36 357.464 22.72C357.464 23.02 357.534 23.29 357.674 23.53C357.814 23.77 357.994 23.97 358.214 24.13C358.454 24.27 358.714 24.38 358.994 24.46C359.274 24.54 359.544 24.58 359.804 24.58C360.124 24.58 360.444 24.54 360.764 24.46C361.084 24.38 361.374 24.26 361.634 24.1C361.894 23.92 362.104 23.7 362.264 23.44C362.424 23.16 362.504 22.83 362.504 22.45C362.504 21.93 362.304 21.5 361.904 21.16C361.524 20.8 361.044 20.47 360.464 20.17C359.884 19.85 359.254 19.54 358.574 19.24C357.894 18.92 357.264 18.56 356.684 18.16C356.104 17.74 355.614 17.24 355.214 16.66C354.834 16.08 354.644 15.37 354.644 14.53C354.644 13.77 354.834 13.13 355.214 12.61C355.594 12.07 356.074 11.63 356.654 11.29C357.254 10.93 357.904 10.67 358.604 10.51C359.304 10.35 359.964 10.27 360.584 10.27C360.204 9.95 359.904 9.58 359.684 9.16C359.484 8.74 359.384 8.27 359.384 7.75C359.384 6.93 359.594 6.24 360.014 5.68C360.434 5.1 360.954 4.63 361.574 4.27C362.214 3.91 362.904 3.65 363.644 3.49C364.404 3.33 365.114 3.25 365.774 3.25C366.434 3.25 367.144 3.33 367.904 3.49C368.684 3.63 369.404 3.87 370.064 4.21C370.724 4.55 371.274 5 371.714 5.56C372.154 6.12 372.374 6.81 372.374 7.63C372.374 8.23 372.154 8.75 371.714 9.19C371.294 9.61 370.784 9.82 370.184 9.82C369.584 9.82 369.064 9.61 368.624 9.19C368.204 8.75 367.994 8.23 367.994 7.63C367.994 7.03 368.204 6.52 368.624 6.1C369.064 5.66 369.584 5.44 370.184 5.44C369.924 5.14 369.614 4.89 369.254 4.69C368.914 4.49 368.544 4.34 368.144 4.24C367.764 4.14 367.364 4.07 366.944 4.03C366.544 3.99 366.154 3.97 365.774 3.97C365.194 3.97 364.634 4.05 364.094 4.21C363.554 4.37 363.074 4.61 362.654 4.93C362.254 5.25 361.924 5.65 361.664 6.13C361.424 6.59 361.304 7.14 361.304 7.78C361.304 8.3 361.414 8.8 361.634 9.28C361.874 9.76 362.194 10.17 362.594 10.51C363.054 10.61 363.494 10.76 363.914 10.96C364.334 11.14 364.704 11.38 365.024 11.68C365.364 11.96 365.634 12.3 365.834 12.7C366.034 13.08 366.134 13.52 366.134 14.02C366.134 14.64 365.954 15.13 365.594 15.49C365.254 15.85 364.774 16.03 364.154 16.03C363.514 16.03 362.984 15.84 362.564 15.46C362.144 15.08 361.844 14.6 361.664 14.02C362.004 14.02 362.264 13.92 362.444 13.72C362.624 13.5 362.714 13.23 362.714 12.91C362.714 12.31 362.484 11.84 362.024 11.5C361.564 11.16 361.054 10.99 360.494 10.99C359.834 10.99 359.284 11.2 358.844 11.62C358.404 12.02 358.184 12.55 358.184 13.21C358.184 13.71 358.384 14.14 358.784 14.5C359.204 14.86 359.714 15.2 360.314 15.52C360.934 15.82 361.594 16.12 362.294 16.42C363.014 16.72 363.674 17.08 364.274 17.5C364.894 17.92 365.404 18.42 365.804 19C366.224 19.56 366.434 20.25 366.434 21.07C366.434 21.89 366.204 22.58 365.744 23.14C365.304 23.68 364.754 24.11 364.094 24.43C363.434 24.75 362.714 24.97 361.934 25.09C361.174 25.23 360.464 25.3 359.804 25.3ZM372.644 20.92C372.644 21.26 372.654 21.63 372.674 22.03C372.714 22.43 372.784 22.82 372.884 23.2C372.984 23.58 373.134 23.93 373.334 24.25C373.534 24.57 373.804 24.82 374.144 25H366.734C367.054 24.82 367.314 24.57 367.514 24.25C367.714 23.91 367.864 23.56 367.964 23.2C368.084 22.82 368.164 22.43 368.204 22.03C368.244 21.63 368.264 21.26 368.264 20.92V16.66C368.264 16.24 368.224 15.86 368.144 15.52C368.064 15.16 367.954 14.83 367.814 14.53C367.674 14.23 367.494 13.94 367.274 13.66C367.074 13.36 366.844 13.05 366.584 12.73C367.284 12.61 367.874 12.5 368.354 12.4C368.854 12.28 369.314 12.14 369.734 11.98C370.174 11.82 370.614 11.63 371.054 11.41C371.514 11.17 372.044 10.87 372.644 10.51V20.92ZM397.418 10.27C397.838 10.27 398.268 10.3 398.708 10.36C398.968 9.9 399.258 9.45 399.578 9.01C399.898 8.57 400.248 8.18 400.628 7.84C401.028 7.48 401.448 7.19 401.888 6.97C402.348 6.75 402.838 6.64 403.358 6.64C403.938 6.64 404.438 6.82 404.858 7.18C405.278 7.52 405.488 7.99 405.488 8.59C405.488 9.29 405.238 9.83 404.738 10.21C404.238 10.57 403.668 10.75 403.028 10.75C402.888 10.75 402.718 10.73 402.518 10.69C402.398 10.37 402.198 10.13 401.918 9.97C401.658 9.81 401.358 9.73 401.018 9.73C400.658 9.73 400.338 9.8 400.058 9.94C399.778 10.06 399.528 10.23 399.308 10.45C399.988 10.57 400.638 10.77 401.258 11.05C401.898 11.33 402.458 11.69 402.938 12.13C403.438 12.55 403.828 13.06 404.108 13.66C404.408 14.24 404.558 14.92 404.558 15.7C404.558 16.68 404.338 17.52 403.898 18.22C403.458 18.92 402.878 19.49 402.158 19.93C401.458 20.35 400.678 20.66 399.818 20.86C398.958 21.06 398.108 21.16 397.268 21.16C397.028 21.18 396.768 21.22 396.488 21.28C396.208 21.32 395.958 21.38 395.738 21.46C395.518 21.54 395.328 21.64 395.168 21.76C395.028 21.88 394.958 22.03 394.958 22.21C394.958 22.35 394.998 22.47 395.078 22.57C395.178 22.65 395.288 22.71 395.408 22.75C395.528 22.79 395.658 22.82 395.798 22.84C395.938 22.84 396.058 22.84 396.158 22.84H402.938C403.638 22.84 404.218 23.02 404.678 23.38C405.158 23.72 405.398 24.26 405.398 25C405.398 26.5 405.068 27.74 404.408 28.72C403.768 29.7 402.938 30.47 401.918 31.03C400.898 31.59 399.748 31.98 398.468 32.2C397.208 32.42 395.958 32.53 394.718 32.53H394.418C393.498 32.51 392.448 32.4 391.268 32.2C390.088 32 388.968 31.66 387.908 31.18C386.868 30.72 385.988 30.09 385.268 29.29C384.548 28.51 384.188 27.52 384.188 26.32V15.16C384.188 14.86 384.158 14.55 384.098 14.23C384.038 13.91 383.938 13.62 383.798 13.36C383.658 13.1 383.458 12.89 383.198 12.73C382.958 12.57 382.658 12.49 382.298 12.49C381.678 12.49 381.198 12.71 380.858 13.15C380.518 13.57 380.298 14.06 380.198 14.62V20.92C380.198 21.26 380.208 21.63 380.228 22.03C380.268 22.43 380.338 22.82 380.438 23.2C380.538 23.58 380.688 23.93 380.888 24.25C381.088 24.57 381.358 24.82 381.698 25H374.288C374.608 24.82 374.868 24.57 375.068 24.25C375.268 23.91 375.418 23.56 375.518 23.2C375.638 22.82 375.718 22.43 375.758 22.03C375.798 21.63 375.818 21.26 375.818 20.92V16.66C375.818 16.24 375.778 15.86 375.698 15.52C375.618 15.16 375.508 14.83 375.368 14.53C375.228 14.23 375.048 13.94 374.828 13.66C374.628 13.36 374.398 13.05 374.138 12.73C374.838 12.61 375.428 12.5 375.908 12.4C376.408 12.28 376.868 12.14 377.288 11.98C377.728 11.82 378.168 11.63 378.608 11.41C379.068 11.17 379.598 10.87 380.198 10.51V12.85C380.338 12.71 380.628 12.5 381.068 12.22C381.508 11.94 381.968 11.66 382.448 11.38C382.928 11.08 383.378 10.82 383.798 10.6C384.218 10.38 384.468 10.27 384.548 10.27C385.228 10.27 385.818 10.4 386.318 10.66C386.818 10.92 387.228 11.27 387.548 11.71C387.888 12.15 388.138 12.66 388.298 13.24C388.478 13.82 388.568 14.42 388.568 15.04V26.38C388.568 27.26 388.738 28.03 389.078 28.69C389.418 29.37 389.868 29.94 390.428 30.4C391.008 30.86 391.668 31.21 392.408 31.45C393.148 31.69 393.928 31.81 394.748 31.81C395.528 31.81 396.288 31.7 397.028 31.48C397.788 31.28 398.458 30.96 399.038 30.52C399.638 30.08 400.118 29.54 400.478 28.9C400.838 28.26 401.018 27.5 401.018 26.62H392.558C392.218 26.62 391.888 26.55 391.568 26.41C391.248 26.27 390.968 26.08 390.728 25.84C390.488 25.6 390.298 25.32 390.158 25C390.018 24.68 389.948 24.35 389.948 24.01C389.948 23.33 390.128 22.79 390.488 22.39C390.868 21.99 391.328 21.69 391.868 21.49C392.408 21.27 392.988 21.13 393.608 21.07C394.248 20.99 394.828 20.95 395.348 20.95C394.688 20.81 394.048 20.61 393.428 20.35C392.808 20.07 392.258 19.71 391.778 19.27C391.298 18.83 390.918 18.32 390.638 17.74C390.358 17.14 390.218 16.46 390.218 15.7C390.218 14.74 390.438 13.92 390.878 13.24C391.318 12.56 391.888 12 392.588 11.56C393.288 11.12 394.058 10.8 394.898 10.6C395.758 10.38 396.598 10.27 397.418 10.27ZM398.378 20.35C398.778 20.35 399.108 20.26 399.368 20.08C399.628 19.88 399.828 19.63 399.968 19.33C400.128 19.03 400.238 18.7 400.298 18.34C400.358 17.98 400.388 17.64 400.388 17.32C400.388 16.74 400.298 16.09 400.118 15.37C399.938 14.65 399.668 13.98 399.308 13.36C398.968 12.72 398.528 12.19 397.988 11.77C397.468 11.35 396.858 11.14 396.158 11.14C395.798 11.14 395.498 11.23 395.258 11.41C395.018 11.59 394.828 11.82 394.688 12.1C394.568 12.38 394.478 12.69 394.418 13.03C394.378 13.35 394.358 13.66 394.358 13.96C394.358 14.5 394.438 15.14 394.598 15.88C394.778 16.6 395.028 17.3 395.348 17.98C395.688 18.64 396.108 19.2 396.608 19.66C397.108 20.12 397.698 20.35 398.378 20.35ZM413.201 27.58V16.63C413.201 16.21 413.161 15.83 413.081 15.49C413.001 15.13 412.891 14.8 412.751 14.5C412.611 14.2 412.431 13.91 412.211 13.63C412.011 13.33 411.781 13.02 411.521 12.7C412.221 12.58 412.811 12.47 413.291 12.37C413.791 12.25 414.251 12.11 414.671 11.95C415.111 11.79 415.551 11.6 415.991 11.38C416.451 11.14 416.981 10.85 417.581 10.51V12.67C417.841 12.37 418.111 12.08 418.391 11.8C418.691 11.5 418.981 11.23 419.261 10.99C419.561 10.75 419.851 10.56 420.131 10.42C420.431 10.26 420.701 10.18 420.941 10.18C421.981 10.18 422.901 10.38 423.701 10.78C424.501 11.18 425.171 11.72 425.711 12.4C426.271 13.06 426.691 13.83 426.971 14.71C427.251 15.59 427.391 16.51 427.391 17.47C427.391 18.49 427.241 19.47 426.941 20.41C426.641 21.35 426.191 22.18 425.591 22.9C425.011 23.62 424.291 24.2 423.431 24.64C422.591 25.06 421.631 25.27 420.551 25.27C419.871 25.27 419.321 25.22 418.901 25.12C418.481 25.04 418.041 24.92 417.581 24.76V27.58C417.581 27.92 417.591 28.29 417.611 28.69C417.651 29.09 417.721 29.47 417.821 29.83C417.941 30.21 418.101 30.56 418.301 30.88C418.501 31.2 418.761 31.46 419.081 31.66H411.671C412.011 31.46 412.281 31.2 412.481 30.88C412.681 30.56 412.831 30.21 412.931 29.83C413.031 29.47 413.101 29.09 413.141 28.69C413.181 28.29 413.201 27.92 413.201 27.58ZM417.581 13.03V20.62C417.581 21 417.611 21.42 417.671 21.88C417.731 22.34 417.851 22.77 418.031 23.17C418.211 23.55 418.451 23.87 418.751 24.13C419.071 24.39 419.481 24.52 419.981 24.52C420.601 24.52 421.121 24.35 421.541 24.01C421.961 23.65 422.291 23.21 422.531 22.69C422.791 22.17 422.971 21.62 423.071 21.04C423.191 20.44 423.251 19.89 423.251 19.39C423.251 18.61 423.151 17.83 422.951 17.05C422.751 16.27 422.441 15.57 422.021 14.95C421.601 14.31 421.061 13.8 420.401 13.42C419.761 13.02 419.001 12.82 418.121 12.82C417.981 12.82 417.801 12.89 417.581 13.03ZM441.194 24.07C440.934 24.25 440.694 24.42 440.474 24.58C440.254 24.74 440.034 24.87 439.814 24.97C439.594 25.07 439.354 25.15 439.094 25.21C438.834 25.27 438.534 25.3 438.194 25.3C437.654 25.3 437.114 25.16 436.574 24.88C436.034 24.58 435.654 24.17 435.434 23.65C434.974 24.17 434.414 24.58 433.754 24.88C433.094 25.16 432.334 25.3 431.474 25.3C430.414 25.3 429.544 25.05 428.864 24.55C428.204 24.05 427.874 23.23 427.874 22.09C427.874 21.31 428.164 20.63 428.744 20.05C429.344 19.47 430.044 18.94 430.844 18.46C431.664 17.98 432.484 17.52 433.304 17.08C434.144 16.62 434.804 16.13 435.284 15.61V14.65C435.284 14.39 435.284 14.06 435.284 13.66C435.284 13.24 435.244 12.84 435.164 12.46C435.084 12.06 434.944 11.72 434.744 11.44C434.564 11.14 434.274 10.99 433.874 10.99C433.654 10.99 433.454 11.05 433.274 11.17C433.094 11.29 432.934 11.44 432.794 11.62C432.674 11.8 432.574 12 432.494 12.22C432.434 12.42 432.404 12.62 432.404 12.82C432.404 13.18 432.514 13.45 432.734 13.63C432.954 13.81 433.234 13.9 433.574 13.9C433.354 14.64 432.974 15.3 432.434 15.88C431.894 16.44 431.204 16.72 430.364 16.72C429.724 16.72 429.234 16.49 428.894 16.03C428.574 15.55 428.414 15.02 428.414 14.44C428.414 13.68 428.594 13.04 428.954 12.52C429.334 12 429.804 11.57 430.364 11.23C430.944 10.89 431.574 10.65 432.254 10.51C432.954 10.35 433.614 10.27 434.234 10.27C434.994 10.27 435.704 10.38 436.364 10.6C437.024 10.8 437.594 11.11 438.074 11.53C438.574 11.95 438.964 12.47 439.244 13.09C439.524 13.69 439.664 14.39 439.664 15.19V22.09C439.664 22.23 439.674 22.41 439.694 22.63C439.714 22.83 439.754 23.03 439.814 23.23C439.874 23.43 439.964 23.6 440.084 23.74C440.224 23.88 440.394 23.95 440.594 23.95C440.814 23.95 441.014 23.89 441.194 23.77V24.07ZM435.284 16.66C435.004 16.92 434.684 17.2 434.324 17.5C433.984 17.8 433.664 18.12 433.364 18.46C433.064 18.78 432.804 19.13 432.584 19.51C432.384 19.89 432.284 20.3 432.284 20.74C432.284 21.06 432.304 21.38 432.344 21.7C432.404 22 432.494 22.27 432.614 22.51C432.754 22.75 432.944 22.95 433.184 23.11C433.424 23.25 433.734 23.32 434.114 23.32C434.554 23.32 434.944 23.22 435.284 23.02V16.66ZM446.195 25L443.465 18.19C443.285 17.73 443.045 17.11 442.745 16.33C442.445 15.55 442.115 14.76 441.755 13.96C441.395 13.16 440.995 12.44 440.555 11.8C440.135 11.14 439.695 10.71 439.235 10.51H447.515C447.015 10.67 446.645 10.97 446.405 11.41C446.165 11.85 446.045 12.33 446.045 12.85C446.045 13.27 446.175 13.89 446.435 14.71C446.695 15.53 446.995 16.39 447.335 17.29C447.695 18.19 448.045 19.06 448.385 19.9C448.745 20.72 449.025 21.36 449.225 21.82C449.445 21.26 449.675 20.68 449.915 20.08C450.175 19.46 450.405 18.84 450.605 18.22C450.825 17.58 451.005 16.94 451.145 16.3C451.285 15.66 451.355 15.04 451.355 14.44C451.355 13.48 451.145 12.67 450.725 12.01C450.305 11.35 449.645 10.85 448.745 10.51H455.705C455.245 10.71 454.795 11.14 454.355 11.8C453.935 12.46 453.535 13.19 453.155 13.99C452.795 14.77 452.465 15.56 452.165 16.36C451.865 17.14 451.625 17.77 451.445 18.25L448.745 25C448.485 25.66 448.195 26.37 447.875 27.13C447.575 27.89 447.205 28.6 446.765 29.26C446.345 29.92 445.835 30.47 445.235 30.91C444.635 31.35 443.905 31.57 443.045 31.57C442.585 31.57 442.145 31.51 441.725 31.39C441.325 31.29 440.965 31.12 440.645 30.88C440.345 30.66 440.105 30.37 439.925 30.01C439.745 29.65 439.655 29.22 439.655 28.72C439.655 28.46 439.695 28.16 439.775 27.82C439.855 27.5 439.975 27.2 440.135 26.92C440.315 26.64 440.525 26.4 440.765 26.2C441.005 26.02 441.285 25.93 441.605 25.93C441.605 26.65 441.835 27.18 442.295 27.52C442.775 27.86 443.345 28.03 444.005 28.03C444.285 28.03 444.625 27.98 445.025 27.88C445.425 27.78 445.805 27.63 446.165 27.43C446.545 27.25 446.865 27.02 447.125 26.74C447.385 26.46 447.515 26.14 447.515 25.78C447.515 25.46 447.355 25.25 447.035 25.15C446.715 25.05 446.435 25 446.195 25ZM469.304 13.15C469.344 13.07 469.474 12.95 469.694 12.79C469.934 12.63 470.214 12.44 470.534 12.22C470.874 12 471.224 11.78 471.584 11.56C471.964 11.32 472.314 11.11 472.634 10.93C472.974 10.73 473.264 10.57 473.504 10.45C473.744 10.33 473.894 10.27 473.954 10.27C474.634 10.27 475.224 10.4 475.724 10.66C476.224 10.92 476.634 11.27 476.954 11.71C477.294 12.15 477.544 12.66 477.704 13.24C477.884 13.82 477.974 14.42 477.974 15.04V20.92C477.974 21.26 477.994 21.63 478.034 22.03C478.074 22.43 478.144 22.82 478.244 23.2C478.344 23.58 478.494 23.93 478.694 24.25C478.914 24.57 479.184 24.82 479.504 25H472.094C472.414 24.82 472.674 24.57 472.874 24.25C473.074 23.91 473.224 23.56 473.324 23.2C473.424 22.82 473.494 22.43 473.534 22.03C473.574 21.63 473.594 21.26 473.594 20.92V15.16C473.594 14.86 473.564 14.55 473.504 14.23C473.444 13.91 473.344 13.62 473.204 13.36C473.064 13.1 472.864 12.89 472.604 12.73C472.364 12.57 472.064 12.49 471.704 12.49C471.344 12.49 471.034 12.57 470.774 12.73C470.514 12.89 470.294 13.1 470.114 13.36C469.934 13.6 469.794 13.88 469.694 14.2C469.614 14.52 469.564 14.84 469.544 15.16V20.92C469.544 21.26 469.564 21.63 469.604 22.03C469.644 22.43 469.714 22.82 469.814 23.2C469.914 23.58 470.064 23.93 470.264 24.25C470.484 24.57 470.754 24.82 471.074 25H463.664C463.984 24.82 464.244 24.57 464.444 24.25C464.644 23.91 464.794 23.56 464.894 23.2C464.994 22.82 465.064 22.43 465.104 22.03C465.144 21.63 465.164 21.26 465.164 20.92V15.16C465.164 14.86 465.134 14.55 465.074 14.23C465.014 13.91 464.914 13.62 464.774 13.36C464.634 13.1 464.434 12.89 464.174 12.73C463.934 12.57 463.634 12.49 463.274 12.49C462.654 12.49 462.174 12.71 461.834 13.15C461.494 13.57 461.274 14.06 461.174 14.62V20.92C461.174 21.26 461.184 21.63 461.204 22.03C461.244 22.43 461.314 22.82 461.414 23.2C461.514 23.58 461.664 23.93 461.864 24.25C462.064 24.57 462.334 24.82 462.674 25H455.264C455.584 24.82 455.844 24.57 456.044 24.25C456.244 23.91 456.394 23.56 456.494 23.2C456.614 22.82 456.694 22.43 456.734 22.03C456.774 21.63 456.794 21.26 456.794 20.92V16.66C456.794 16.24 456.754 15.86 456.674 15.52C456.594 15.16 456.484 14.83 456.344 14.53C456.204 14.23 456.024 13.94 455.804 13.66C455.604 13.36 455.374 13.05 455.114 12.73C455.814 12.61 456.404 12.5 456.884 12.4C457.384 12.28 457.844 12.14 458.264 11.98C458.704 11.82 459.144 11.63 459.584 11.41C460.044 11.17 460.574 10.87 461.174 10.51V12.85C461.314 12.71 461.604 12.5 462.044 12.22C462.484 11.94 462.944 11.66 463.424 11.38C463.924 11.08 464.374 10.82 464.774 10.6C465.194 10.38 465.444 10.27 465.524 10.27C466.564 10.27 467.394 10.57 468.014 11.17C468.654 11.75 469.094 12.48 469.334 13.36L469.304 13.15ZM484.319 17.65C484.459 18.27 484.669 18.86 484.949 19.42C485.229 19.96 485.579 20.44 485.999 20.86C486.419 21.26 486.909 21.58 487.469 21.82C488.049 22.06 488.699 22.18 489.419 22.18C489.639 22.18 489.899 22.17 490.199 22.15C490.519 22.11 490.839 22.06 491.159 22C491.479 21.94 491.779 21.86 492.059 21.76C492.359 21.64 492.589 21.5 492.749 21.34L492.989 21.52C492.309 22.76 491.499 23.7 490.559 24.34C489.639 24.98 488.439 25.3 486.959 25.3C485.919 25.3 484.949 25.11 484.049 24.73C483.169 24.35 482.409 23.83 481.769 23.17C481.149 22.49 480.659 21.7 480.299 20.8C479.939 19.9 479.759 18.93 479.759 17.89C479.759 16.89 479.909 15.93 480.209 15.01C480.529 14.09 480.979 13.28 481.559 12.58C482.159 11.88 482.879 11.32 483.719 10.9C484.559 10.48 485.509 10.27 486.569 10.27C487.529 10.27 488.399 10.42 489.179 10.72C489.979 11 490.649 11.42 491.189 11.98C491.749 12.52 492.179 13.18 492.479 13.96C492.779 14.74 492.929 15.61 492.929 16.57V17.29L484.319 17.65ZM488.909 14.17C488.909 13.83 488.839 13.47 488.699 13.09C488.579 12.71 488.399 12.37 488.159 12.07C487.919 11.75 487.639 11.49 487.319 11.29C486.999 11.09 486.649 10.99 486.269 10.99C485.829 10.99 485.469 11.17 485.189 11.53C484.909 11.89 484.689 12.32 484.529 12.82C484.369 13.3 484.249 13.8 484.169 14.32C484.109 14.84 484.079 15.25 484.079 15.55C484.079 15.99 484.109 16.44 484.169 16.9C484.569 16.86 484.969 16.81 485.369 16.75C485.769 16.69 486.169 16.63 486.569 16.57C487.249 16.47 487.809 16.23 488.249 15.85C488.689 15.47 488.909 14.91 488.909 14.17ZM500.848 25H493.438C493.758 24.82 494.018 24.57 494.218 24.25C494.418 23.91 494.568 23.56 494.668 23.2C494.788 22.82 494.868 22.43 494.908 22.03C494.948 21.63 494.968 21.26 494.968 20.92V16.66C494.968 16.24 494.928 15.86 494.848 15.52C494.768 15.16 494.658 14.83 494.518 14.53C494.378 14.23 494.198 13.94 493.978 13.66C493.778 13.36 493.548 13.05 493.288 12.73C493.988 12.61 494.578 12.5 495.058 12.4C495.558 12.28 496.018 12.14 496.438 11.98C496.878 11.82 497.318 11.63 497.758 11.41C498.218 11.17 498.748 10.87 499.348 10.51V12.85C499.488 12.71 499.778 12.5 500.218 12.22C500.658 11.94 501.118 11.66 501.598 11.38C502.098 11.08 502.548 10.82 502.948 10.6C503.368 10.38 503.618 10.27 503.698 10.27C504.378 10.27 504.968 10.4 505.468 10.66C505.968 10.92 506.378 11.27 506.698 11.71C507.038 12.15 507.288 12.66 507.448 13.24C507.628 13.82 507.718 14.42 507.718 15.04V20.92C507.718 21.26 507.738 21.63 507.778 22.03C507.818 22.43 507.888 22.82 507.988 23.2C508.088 23.58 508.238 23.93 508.438 24.25C508.658 24.57 508.928 24.82 509.248 25H501.838C502.158 24.82 502.418 24.57 502.618 24.25C502.818 23.91 502.968 23.56 503.068 23.2C503.168 22.82 503.238 22.43 503.278 22.03C503.318 21.63 503.338 21.26 503.338 20.92V15.16C503.338 14.86 503.308 14.55 503.248 14.23C503.188 13.91 503.088 13.62 502.948 13.36C502.808 13.1 502.608 12.89 502.348 12.73C502.108 12.57 501.808 12.49 501.448 12.49C500.828 12.49 500.348 12.71 500.008 13.15C499.668 13.57 499.448 14.06 499.348 14.62V20.92C499.348 21.26 499.358 21.63 499.378 22.03C499.418 22.43 499.488 22.82 499.588 23.2C499.688 23.58 499.838 23.93 500.038 24.25C500.238 24.57 500.508 24.82 500.848 25ZM514.669 10.51H517.789V11.23H514.669V21.85C514.669 22.43 514.859 22.85 515.239 23.11C515.639 23.35 516.099 23.47 516.619 23.47C516.899 23.47 517.169 23.44 517.429 23.38C517.709 23.32 517.969 23.22 518.209 23.08V23.38C517.609 23.94 516.909 24.4 516.109 24.76C515.329 25.12 514.519 25.3 513.679 25.3C513.079 25.3 512.559 25.19 512.119 24.97C511.699 24.75 511.349 24.46 511.069 24.1C510.809 23.72 510.609 23.29 510.469 22.81C510.349 22.31 510.289 21.79 510.289 21.25V11.23H508.819V10.78C509.519 10.72 510.149 10.6 510.709 10.42C511.269 10.24 511.769 10 512.209 9.7C512.649 9.38 513.029 8.98 513.349 8.5C513.689 8.02 513.979 7.44 514.219 6.76H514.669V10.51ZM525.935 27.58V16.63C525.935 16.21 525.895 15.83 525.815 15.49C525.735 15.13 525.625 14.8 525.485 14.5C525.345 14.2 525.165 13.91 524.945 13.63C524.745 13.33 524.515 13.02 524.255 12.7C524.955 12.58 525.545 12.47 526.025 12.37C526.525 12.25 526.985 12.11 527.405 11.95C527.845 11.79 528.285 11.6 528.725 11.38C529.185 11.14 529.715 10.85 530.315 10.51V12.67C530.575 12.37 530.845 12.08 531.125 11.8C531.425 11.5 531.715 11.23 531.995 10.99C532.295 10.75 532.585 10.56 532.865 10.42C533.165 10.26 533.435 10.18 533.675 10.18C534.715 10.18 535.635 10.38 536.435 10.78C537.235 11.18 537.905 11.72 538.445 12.4C539.005 13.06 539.425 13.83 539.705 14.71C539.985 15.59 540.125 16.51 540.125 17.47C540.125 18.49 539.975 19.47 539.675 20.41C539.375 21.35 538.925 22.18 538.325 22.9C537.745 23.62 537.025 24.2 536.165 24.64C535.325 25.06 534.365 25.27 533.285 25.27C532.605 25.27 532.055 25.22 531.635 25.12C531.215 25.04 530.775 24.92 530.315 24.76V27.58C530.315 27.92 530.325 28.29 530.345 28.69C530.385 29.09 530.455 29.47 530.555 29.83C530.675 30.21 530.835 30.56 531.035 30.88C531.235 31.2 531.495 31.46 531.815 31.66H524.405C524.745 31.46 525.015 31.2 525.215 30.88C525.415 30.56 525.565 30.21 525.665 29.83C525.765 29.47 525.835 29.09 525.875 28.69C525.915 28.29 525.935 27.92 525.935 27.58ZM530.315 13.03V20.62C530.315 21 530.345 21.42 530.405 21.88C530.465 22.34 530.585 22.77 530.765 23.17C530.945 23.55 531.185 23.87 531.485 24.13C531.805 24.39 532.215 24.52 532.715 24.52C533.335 24.52 533.855 24.35 534.275 24.01C534.695 23.65 535.025 23.21 535.265 22.69C535.525 22.17 535.705 21.62 535.805 21.04C535.925 20.44 535.985 19.89 535.985 19.39C535.985 18.61 535.885 17.83 535.685 17.05C535.485 16.27 535.175 15.57 534.755 14.95C534.335 14.31 533.795 13.8 533.135 13.42C532.495 13.02 531.735 12.82 530.855 12.82C530.715 12.82 530.535 12.89 530.315 13.03ZM546.428 20.92C546.428 21.26 546.438 21.63 546.458 22.03C546.498 22.43 546.568 22.82 546.668 23.2C546.788 23.58 546.948 23.93 547.148 24.25C547.348 24.57 547.618 24.82 547.958 25H540.518C540.858 24.82 541.128 24.57 541.328 24.25C541.528 23.93 541.678 23.58 541.778 23.2C541.878 22.82 541.948 22.43 541.988 22.03C542.028 21.63 542.048 21.26 542.048 20.92V9.88C542.048 9.46 542.008 9.08 541.928 8.74C541.848 8.38 541.738 8.05 541.598 7.75C541.458 7.45 541.278 7.16 541.058 6.88C540.858 6.58 540.628 6.27 540.368 5.95C541.068 5.83 541.658 5.72 542.138 5.62C542.638 5.5 543.098 5.36 543.518 5.2C543.958 5.04 544.398 4.85 544.838 4.63C545.298 4.39 545.828 4.09 546.428 3.73V20.92ZM548.766 14.56C548.766 13.84 548.936 13.23 549.276 12.73C549.636 12.21 550.086 11.79 550.626 11.47C551.186 11.13 551.786 10.89 552.426 10.75C553.086 10.59 553.716 10.51 554.316 10.51C555.716 10.51 557.106 10.52 558.486 10.54C559.886 10.54 561.286 10.53 562.686 10.51C562.746 10.51 562.876 10.47 563.076 10.39C563.276 10.31 563.406 10.25 563.466 10.21C564.306 9.81 564.996 9.23 565.536 8.47C566.076 7.71 566.486 6.9 566.766 6.04H567.066V10.51C567.446 10.51 567.846 10.47 568.266 10.39C568.686 10.29 569.066 10.14 569.406 9.94C569.766 9.74 570.056 9.48 570.276 9.16C570.516 8.84 570.636 8.45 570.636 7.99C570.636 7.31 570.326 6.84 569.706 6.58C570.386 5.42 571.376 4.84 572.676 4.84C573.396 4.84 573.976 5.09 574.416 5.59C574.876 6.07 575.106 6.66 575.106 7.36C575.106 8.04 574.936 8.63 574.596 9.13C574.256 9.61 573.826 10.01 573.306 10.33C572.786 10.65 572.216 10.88 571.596 11.02C570.976 11.16 570.376 11.23 569.796 11.23H567.066V21.85C567.066 22.43 567.256 22.85 567.636 23.11C568.036 23.35 568.496 23.47 569.016 23.47C569.296 23.47 569.566 23.44 569.826 23.38C570.106 23.32 570.366 23.22 570.606 23.08V23.38C570.006 23.94 569.306 24.4 568.506 24.76C567.726 25.12 566.916 25.3 566.076 25.3C565.476 25.3 564.956 25.19 564.516 24.97C564.096 24.75 563.746 24.46 563.466 24.1C563.206 23.72 563.006 23.29 562.866 22.81C562.746 22.31 562.686 21.79 562.686 21.25V11.23H555.756C555.416 11.23 555.076 11.28 554.736 11.38C554.396 11.46 554.086 11.59 553.806 11.77C553.546 11.95 553.326 12.18 553.146 12.46C552.986 12.74 552.906 13.07 552.906 13.45C552.906 13.85 553.006 14.2 553.206 14.5C553.426 14.8 553.706 15.03 554.046 15.19C553.366 16.35 552.376 16.93 551.076 16.93C550.376 16.93 549.816 16.71 549.396 16.27C548.976 15.81 548.766 15.24 548.766 14.56ZM551.796 25.3C550.736 25.3 549.866 25.05 549.186 24.55C548.526 24.05 548.196 23.23 548.196 22.09C548.196 21.31 548.486 20.63 549.066 20.05C549.666 19.47 550.366 18.94 551.166 18.46C551.986 17.98 552.806 17.52 553.626 17.08C554.466 16.62 555.126 16.13 555.606 15.61C555.606 15.37 555.606 15.06 555.606 14.68C555.626 14.28 555.606 13.9 555.546 13.54C555.486 13.16 555.366 12.84 555.186 12.58C555.006 12.32 554.726 12.19 554.346 12.19L554.556 11.92C555.316 11.92 556.016 12.01 556.656 12.19C557.316 12.37 557.896 12.66 558.396 13.06C558.896 13.44 559.286 13.92 559.566 14.5C559.846 15.08 559.986 15.78 559.986 16.6V22.09C559.986 22.23 559.996 22.41 560.016 22.63C560.036 22.83 560.076 23.03 560.136 23.23C560.196 23.43 560.286 23.6 560.406 23.74C560.546 23.88 560.716 23.95 560.916 23.95C561.136 23.95 561.336 23.89 561.516 23.77V24.07C561.256 24.25 561.016 24.42 560.796 24.58C560.576 24.74 560.356 24.87 560.136 24.97C559.916 25.07 559.676 25.15 559.416 25.21C559.156 25.27 558.856 25.3 558.516 25.3C557.976 25.3 557.436 25.16 556.896 24.88C556.356 24.58 555.976 24.17 555.756 23.65C555.236 24.25 554.636 24.68 553.956 24.94C553.296 25.18 552.576 25.3 551.796 25.3ZM552.606 20.74C552.606 21.06 552.626 21.38 552.666 21.7C552.726 22 552.816 22.27 552.936 22.51C553.076 22.75 553.266 22.95 553.506 23.11C553.746 23.25 554.056 23.32 554.436 23.32C554.836 23.32 555.226 23.21 555.606 22.99V16.66C555.326 16.92 555.006 17.2 554.646 17.5C554.306 17.8 553.986 18.12 553.686 18.46C553.386 18.78 553.126 19.13 552.906 19.51C552.706 19.89 552.606 20.3 552.606 20.74ZM578.759 4.06C579.219 4.06 579.689 4.12 580.169 4.24C580.649 4.36 581.079 4.54 581.459 4.78C581.859 5.02 582.179 5.34 582.419 5.74C582.659 6.12 582.779 6.58 582.779 7.12C582.779 7.82 582.549 8.4 582.089 8.86C581.629 9.3 581.049 9.52 580.349 9.52C579.709 9.52 579.179 9.31 578.759 8.89C578.339 8.47 578.039 7.97 577.859 7.39C578.239 7.39 578.549 7.28 578.789 7.06C579.029 6.82 579.149 6.51 579.149 6.13C579.149 5.73 579.019 5.42 578.759 5.2C578.499 4.96 578.169 4.84 577.769 4.84C577.449 4.84 577.149 4.91 576.869 5.05C576.589 5.19 576.349 5.38 576.149 5.62C575.969 5.86 575.819 6.13 575.699 6.43C575.599 6.73 575.549 7.03 575.549 7.33C575.549 7.95 575.699 8.47 575.999 8.89C576.319 9.29 576.719 9.61 577.199 9.85C577.679 10.09 578.199 10.26 578.759 10.36C579.319 10.46 579.849 10.51 580.349 10.51V11.23H576.929V20.92C576.929 21.26 576.939 21.63 576.959 22.03C576.999 22.43 577.069 22.82 577.169 23.2C577.269 23.58 577.419 23.93 577.619 24.25C577.819 24.57 578.089 24.82 578.429 25H571.019C571.339 24.82 571.599 24.57 571.799 24.25C571.999 23.91 572.149 23.56 572.249 23.2C572.369 22.82 572.449 22.43 572.489 22.03C572.529 21.63 572.549 21.26 572.549 20.92V11.23H570.899V10.51H572.609C572.609 9.55 572.739 8.68 572.999 7.9C573.279 7.1 573.679 6.42 574.199 5.86C574.719 5.28 575.359 4.84 576.119 4.54C576.899 4.22 577.779 4.06 578.759 4.06ZM586.716 10.27C587.756 10.27 588.716 10.47 589.596 10.87C590.476 11.27 591.236 11.82 591.876 12.52C592.536 13.2 593.046 14 593.406 14.92C593.766 15.82 593.946 16.78 593.946 17.8C593.946 18.82 593.766 19.79 593.406 20.71C593.046 21.61 592.536 22.4 591.876 23.08C591.236 23.76 590.476 24.3 589.596 24.7C588.716 25.1 587.756 25.3 586.716 25.3C585.676 25.3 584.706 25.1 583.806 24.7C582.926 24.3 582.166 23.76 581.526 23.08C580.886 22.4 580.376 21.61 579.996 20.71C579.636 19.79 579.456 18.82 579.456 17.8C579.456 16.78 579.636 15.82 579.996 14.92C580.376 14 580.886 13.2 581.526 12.52C582.166 11.82 582.926 11.27 583.806 10.87C584.706 10.47 585.676 10.27 586.716 10.27ZM587.676 24.49C588.136 24.49 588.496 24.32 588.756 23.98C589.016 23.64 589.216 23.24 589.356 22.78C589.496 22.3 589.586 21.81 589.626 21.31C589.666 20.81 589.686 20.41 589.686 20.11C589.686 19.73 589.656 19.24 589.596 18.64C589.536 18.04 589.436 17.41 589.296 16.75C589.156 16.09 588.976 15.43 588.756 14.77C588.556 14.09 588.296 13.49 587.976 12.97C587.656 12.43 587.286 11.99 586.866 11.65C586.466 11.31 585.996 11.14 585.456 11.14C585.036 11.14 584.706 11.3 584.466 11.62C584.226 11.94 584.046 12.32 583.926 12.76C583.806 13.2 583.726 13.65 583.686 14.11C583.666 14.57 583.656 14.94 583.656 15.22C583.656 15.58 583.686 16.06 583.746 16.66C583.806 17.24 583.896 17.88 584.016 18.58C584.156 19.26 584.326 19.95 584.526 20.65C584.746 21.35 585.006 21.99 585.306 22.57C585.606 23.13 585.946 23.59 586.326 23.95C586.726 24.31 587.176 24.49 587.676 24.49ZM599.954 13.81C600.154 13.39 600.394 12.97 600.674 12.55C600.974 12.11 601.304 11.73 601.664 11.41C602.044 11.07 602.454 10.8 602.894 10.6C603.354 10.38 603.834 10.27 604.334 10.27C605.154 10.27 605.794 10.55 606.254 11.11C606.734 11.65 606.974 12.31 606.974 13.09C606.974 13.59 606.874 14.05 606.674 14.47C606.494 14.89 606.234 15.24 605.894 15.52C605.574 15.8 605.194 16.02 604.754 16.18C604.334 16.34 603.874 16.42 603.374 16.42C603.414 16.3 603.444 16.18 603.464 16.06C603.484 15.94 603.494 15.81 603.494 15.67C603.494 15.15 603.314 14.72 602.954 14.38C602.614 14.02 602.184 13.84 601.664 13.84C601.464 13.84 601.264 13.89 601.064 13.99C600.864 14.07 600.674 14.19 600.494 14.35C600.334 14.49 600.204 14.66 600.104 14.86C600.004 15.04 599.954 15.24 599.954 15.46V20.92C599.954 21.26 599.964 21.63 599.984 22.03C600.024 22.43 600.094 22.82 600.194 23.2C600.314 23.58 600.474 23.93 600.674 24.25C600.874 24.57 601.134 24.82 601.454 25H594.044C594.364 24.82 594.624 24.57 594.824 24.25C595.024 23.91 595.174 23.56 595.274 23.2C595.394 22.82 595.474 22.43 595.514 22.03C595.554 21.63 595.574 21.26 595.574 20.92V16.66C595.574 16.24 595.534 15.86 595.454 15.52C595.374 15.16 595.264 14.83 595.124 14.53C594.984 14.23 594.804 13.94 594.584 13.66C594.384 13.36 594.154 13.05 593.894 12.73C594.594 12.61 595.184 12.5 595.664 12.4C596.164 12.28 596.624 12.14 597.044 11.98C597.484 11.82 597.924 11.63 598.364 11.41C598.824 11.17 599.354 10.87 599.954 10.51V13.81ZM621.326 13.15C621.366 13.07 621.496 12.95 621.716 12.79C621.956 12.63 622.236 12.44 622.556 12.22C622.896 12 623.246 11.78 623.606 11.56C623.986 11.32 624.336 11.11 624.656 10.93C624.996 10.73 625.286 10.57 625.526 10.45C625.766 10.33 625.916 10.27 625.976 10.27C626.656 10.27 627.246 10.4 627.746 10.66C628.246 10.92 628.656 11.27 628.976 11.71C629.316 12.15 629.566 12.66 629.726 13.24C629.906 13.82 629.996 14.42 629.996 15.04V20.92C629.996 21.26 630.016 21.63 630.056 22.03C630.096 22.43 630.166 22.82 630.266 23.2C630.366 23.58 630.516 23.93 630.716 24.25C630.936 24.57 631.206 24.82 631.526 25H624.116C624.436 24.82 624.696 24.57 624.896 24.25C625.096 23.91 625.246 23.56 625.346 23.2C625.446 22.82 625.516 22.43 625.556 22.03C625.596 21.63 625.616 21.26 625.616 20.92V15.16C625.616 14.86 625.586 14.55 625.526 14.23C625.466 13.91 625.366 13.62 625.226 13.36C625.086 13.1 624.886 12.89 624.626 12.73C624.386 12.57 624.086 12.49 623.726 12.49C623.366 12.49 623.056 12.57 622.796 12.73C622.536 12.89 622.316 13.1 622.136 13.36C621.956 13.6 621.816 13.88 621.716 14.2C621.636 14.52 621.586 14.84 621.566 15.16V20.92C621.566 21.26 621.586 21.63 621.626 22.03C621.666 22.43 621.736 22.82 621.836 23.2C621.936 23.58 622.086 23.93 622.286 24.25C622.506 24.57 622.776 24.82 623.096 25H615.686C616.006 24.82 616.266 24.57 616.466 24.25C616.666 23.91 616.816 23.56 616.916 23.2C617.016 22.82 617.086 22.43 617.126 22.03C617.166 21.63 617.186 21.26 617.186 20.92V15.16C617.186 14.86 617.156 14.55 617.096 14.23C617.036 13.91 616.936 13.62 616.796 13.36C616.656 13.1 616.456 12.89 616.196 12.73C615.956 12.57 615.656 12.49 615.296 12.49C614.676 12.49 614.196 12.71 613.856 13.15C613.516 13.57 613.296 14.06 613.196 14.62V20.92C613.196 21.26 613.206 21.63 613.226 22.03C613.266 22.43 613.336 22.82 613.436 23.2C613.536 23.58 613.686 23.93 613.886 24.25C614.086 24.57 614.356 24.82 614.696 25H607.286C607.606 24.82 607.866 24.57 608.066 24.25C608.266 23.91 608.416 23.56 608.516 23.2C608.636 22.82 608.716 22.43 608.756 22.03C608.796 21.63 608.816 21.26 608.816 20.92V16.66C608.816 16.24 608.776 15.86 608.696 15.52C608.616 15.16 608.506 14.83 608.366 14.53C608.226 14.23 608.046 13.94 607.826 13.66C607.626 13.36 607.396 13.05 607.136 12.73C607.836 12.61 608.426 12.5 608.906 12.4C609.406 12.28 609.866 12.14 610.286 11.98C610.726 11.82 611.166 11.63 611.606 11.41C612.066 11.17 612.596 10.87 613.196 10.51V12.85C613.336 12.71 613.626 12.5 614.066 12.22C614.506 11.94 614.966 11.66 615.446 11.38C615.946 11.08 616.396 10.82 616.796 10.6C617.216 10.38 617.466 10.27 617.546 10.27C618.586 10.27 619.416 10.57 620.036 11.17C620.676 11.75 621.116 12.48 621.356 13.36L621.326 13.15Z" fill="#1E2C31"/>
</svg>
