<svg width="304" height="141" viewBox="0 0 304 141" fill="none" xmlns="http://www.w3.org/2000/svg">
<g clip-path="url(#clip0_3404_29709)">
<path d="M17.42 53.2656H1.3C2.03667 52.8756 2.62167 52.334 3.055 51.6406C3.48833 50.9473 3.81333 50.189 4.03 49.3656C4.24667 48.5423 4.39833 47.6973 4.485 46.8306C4.57167 45.964 4.615 45.1623 4.615 44.4256V12.8356C4.615 12.0556 4.57167 11.254 4.485 10.4306C4.44167 9.56396 4.29 8.71896 4.03 7.89562C3.81333 7.07229 3.48833 6.33562 3.055 5.68562C2.62167 4.99229 2.03667 4.42896 1.3 3.99562H21.32C23.66 3.99562 25.805 4.34229 27.755 5.03562C29.7483 5.72896 31.46 6.72562 32.89 8.02562C34.32 9.32562 35.425 10.929 36.205 12.8356C37.0283 14.699 37.44 16.8223 37.44 19.2056C37.44 21.589 37.0283 23.734 36.205 25.6406C35.425 27.5473 34.32 29.1723 32.89 30.5156C31.46 31.8156 29.7483 32.8123 27.755 33.5056C25.805 34.199 23.66 34.5456 21.32 34.5456H14.105V44.4256C14.105 45.1623 14.1483 45.964 14.235 46.8306C14.3217 47.6973 14.4733 48.5423 14.69 49.3656C14.9067 50.189 15.2317 50.9473 15.665 51.6406C16.1417 52.334 16.7267 52.8756 17.42 53.2656ZM14.105 32.9856H14.82C19.0667 32.9856 22.3167 31.794 24.57 29.4106C26.8667 26.984 28.015 23.6906 28.015 19.5306C28.015 15.154 26.8233 11.7306 24.44 9.26062C22.0567 6.79062 18.6333 5.55562 14.17 5.55562H14.105V32.9856ZM52.749 21.3506C55.0024 21.3506 57.0824 21.784 58.989 22.6506C60.8957 23.5173 62.5424 24.709 63.929 26.2256C65.359 27.699 66.464 29.4323 67.244 31.4256C68.024 33.3756 68.414 35.4556 68.414 37.6656C68.414 39.8756 68.024 41.9773 67.244 43.9706C66.464 45.9206 65.359 47.6323 63.929 49.1056C62.5424 50.579 60.8957 51.749 58.989 52.6156C57.0824 53.4823 55.0024 53.9156 52.749 53.9156C50.4957 53.9156 48.394 53.4823 46.444 52.6156C44.5374 51.749 42.8907 50.579 41.504 49.1056C40.1174 47.6323 39.0124 45.9206 38.189 43.9706C37.409 41.9773 37.019 39.8756 37.019 37.6656C37.019 35.4556 37.409 33.3756 38.189 31.4256C39.0124 29.4323 40.1174 27.699 41.504 26.2256C42.8907 24.709 44.5374 23.5173 46.444 22.6506C48.394 21.784 50.4957 21.3506 52.749 21.3506ZM54.829 52.1606C55.8257 52.1606 56.6057 51.7923 57.169 51.0556C57.7324 50.319 58.1657 49.4523 58.469 48.4556C58.7724 47.4156 58.9674 46.354 59.054 45.2706C59.1407 44.1873 59.184 43.3206 59.184 42.6706C59.184 41.8473 59.119 40.7856 58.989 39.4856C58.859 38.1856 58.6424 36.8206 58.339 35.3906C58.0357 33.9606 57.6457 32.5306 57.169 31.1006C56.7357 29.6273 56.1724 28.3273 55.479 27.2006C54.7857 26.0306 53.984 25.0773 53.074 24.3406C52.2074 23.604 51.189 23.2356 50.019 23.2356C49.109 23.2356 48.394 23.5823 47.874 24.2756C47.354 24.969 46.964 25.7923 46.704 26.7456C46.444 27.699 46.2707 28.674 46.184 29.6706C46.1407 30.6673 46.119 31.469 46.119 32.0756C46.119 32.8556 46.184 33.8956 46.314 35.1956C46.444 36.4523 46.639 37.839 46.899 39.3556C47.2024 40.829 47.5707 42.324 48.004 43.8406C48.4807 45.3573 49.044 46.744 49.694 48.0006C50.344 49.214 51.0807 50.2106 51.904 50.9906C52.7707 51.7706 53.7457 52.1606 54.829 52.1606ZM99.6805 27.5906C99.7672 27.4173 100.049 27.1573 100.526 26.8106C101.046 26.464 101.652 26.0523 102.346 25.5756C103.082 25.099 103.841 24.6223 104.621 24.1456C105.444 23.6256 106.202 23.1706 106.896 22.7806C107.632 22.3473 108.261 22.0006 108.781 21.7406C109.301 21.4806 109.626 21.3506 109.756 21.3506C111.229 21.3506 112.507 21.6323 113.591 22.1956C114.674 22.759 115.562 23.5173 116.256 24.4706C116.992 25.424 117.534 26.529 117.881 27.7856C118.271 29.0423 118.466 30.3423 118.466 31.6856V44.4256C118.466 45.1623 118.509 45.964 118.596 46.8306C118.682 47.6973 118.834 48.5423 119.051 49.3656C119.267 50.189 119.592 50.9473 120.026 51.6406C120.502 52.334 121.087 52.8756 121.781 53.2656H105.726C106.419 52.8756 106.982 52.334 107.416 51.6406C107.849 50.904 108.174 50.1456 108.391 49.3656C108.607 48.5423 108.759 47.6973 108.846 46.8306C108.932 45.964 108.976 45.1623 108.976 44.4256V31.9456C108.976 31.2956 108.911 30.624 108.781 29.9306C108.651 29.2373 108.434 28.609 108.131 28.0456C107.827 27.4823 107.394 27.0273 106.831 26.6806C106.311 26.334 105.661 26.1606 104.881 26.1606C104.101 26.1606 103.429 26.334 102.866 26.6806C102.302 27.0273 101.826 27.4823 101.436 28.0456C101.046 28.5656 100.742 29.1723 100.526 29.8656C100.352 30.559 100.244 31.2523 100.201 31.9456V44.4256C100.201 45.1623 100.244 45.964 100.331 46.8306C100.417 47.6973 100.569 48.5423 100.786 49.3656C101.002 50.189 101.327 50.9473 101.761 51.6406C102.237 52.334 102.822 52.8756 103.516 53.2656H87.4605C88.1539 52.8756 88.7172 52.334 89.1505 51.6406C89.5839 50.904 89.9089 50.1456 90.1255 49.3656C90.3422 48.5423 90.4939 47.6973 90.5805 46.8306C90.6672 45.964 90.7105 45.1623 90.7105 44.4256V31.9456C90.7105 31.2956 90.6455 30.624 90.5155 29.9306C90.3855 29.2373 90.1689 28.609 89.8655 28.0456C89.5622 27.4823 89.1289 27.0273 88.5655 26.6806C88.0455 26.334 87.3955 26.1606 86.6155 26.1606C85.2722 26.1606 84.2322 26.6373 83.4955 27.5906C82.7589 28.5006 82.2822 29.5623 82.0655 30.7756V44.4256C82.0655 45.1623 82.0872 45.964 82.1305 46.8306C82.2172 47.6973 82.3689 48.5423 82.5855 49.3656C82.8022 50.189 83.1272 50.9473 83.5605 51.6406C83.9939 52.334 84.5789 52.8756 85.3155 53.2656H69.2605C69.9539 52.8756 70.5172 52.334 70.9505 51.6406C71.3839 50.904 71.7089 50.1456 71.9255 49.3656C72.1855 48.5423 72.3589 47.6973 72.4455 46.8306C72.5322 45.964 72.5755 45.1623 72.5755 44.4256V35.1956C72.5755 34.2856 72.4889 33.4623 72.3155 32.7256C72.1422 31.9456 71.9039 31.2306 71.6005 30.5806C71.2972 29.9306 70.9072 29.3023 70.4305 28.6956C69.9972 28.0456 69.4989 27.374 68.9355 26.6806C70.4522 26.4206 71.7305 26.1823 72.7705 25.9656C73.8539 25.7056 74.8505 25.4023 75.7605 25.0556C76.7139 24.709 77.6672 24.2973 78.6205 23.8206C79.6172 23.3006 80.7655 22.6506 82.0655 21.8706V26.9406C82.3689 26.6373 82.9972 26.1823 83.9505 25.5756C84.9039 24.969 85.9005 24.3623 86.9405 23.7556C88.0239 23.1056 88.9989 22.5423 89.8655 22.0656C90.7755 21.589 91.3172 21.3506 91.4905 21.3506C93.7439 21.3506 95.5422 22.0006 96.8855 23.3006C98.2722 24.5573 99.2255 26.139 99.7455 28.0456L99.6805 27.5906ZM132.212 37.3406C132.515 38.684 132.97 39.9623 133.577 41.1756C134.183 42.3456 134.942 43.3856 135.852 44.2956C136.762 45.1623 137.823 45.8556 139.037 46.3756C140.293 46.8956 141.702 47.1556 143.262 47.1556C143.738 47.1556 144.302 47.134 144.952 47.0906C145.645 47.004 146.338 46.8956 147.032 46.7656C147.725 46.6356 148.375 46.4623 148.982 46.2456C149.632 45.9856 150.13 45.6823 150.477 45.3356L150.997 45.7256C149.523 48.4123 147.768 50.449 145.732 51.8356C143.738 53.2223 141.138 53.9156 137.932 53.9156C135.678 53.9156 133.577 53.504 131.627 52.6806C129.72 51.8573 128.073 50.7306 126.687 49.3006C125.343 47.8273 124.282 46.1156 123.502 44.1656C122.722 42.2156 122.332 40.114 122.332 37.8606C122.332 35.694 122.657 33.614 123.307 31.6206C124 29.6273 124.975 27.8723 126.232 26.3556C127.532 24.839 129.092 23.6256 130.912 22.7156C132.732 21.8056 134.79 21.3506 137.087 21.3506C139.167 21.3506 141.052 21.6756 142.742 22.3256C144.475 22.9323 145.927 23.8423 147.097 25.0556C148.31 26.2256 149.242 27.6556 149.892 29.3456C150.542 31.0356 150.867 32.9206 150.867 35.0006V36.5606L132.212 37.3406ZM142.157 29.8006C142.157 29.064 142.005 28.284 141.702 27.4606C141.442 26.6373 141.052 25.9006 140.532 25.2506C140.012 24.5573 139.405 23.994 138.712 23.5606C138.018 23.1273 137.26 22.9106 136.437 22.9106C135.483 22.9106 134.703 23.3006 134.097 24.0806C133.49 24.8606 133.013 25.7923 132.667 26.8756C132.32 27.9156 132.06 28.999 131.887 30.1256C131.757 31.2523 131.692 32.1406 131.692 32.7906C131.692 33.744 131.757 34.719 131.887 35.7156C132.753 35.629 133.62 35.5206 134.487 35.3906C135.353 35.2606 136.22 35.1306 137.087 35.0006C138.56 34.784 139.773 34.264 140.727 33.4406C141.68 32.6173 142.157 31.404 142.157 29.8006ZM164.776 44.4256C164.776 45.1623 164.797 45.964 164.841 46.8306C164.927 47.6973 165.079 48.5423 165.296 49.3656C165.556 50.189 165.902 50.9473 166.336 51.6406C166.769 52.334 167.354 52.8756 168.091 53.2656H151.971C152.707 52.8756 153.292 52.334 153.726 51.6406C154.159 50.9473 154.484 50.189 154.701 49.3656C154.917 48.5423 155.069 47.6973 155.156 46.8306C155.242 45.964 155.286 45.1623 155.286 44.4256V20.5056C155.286 19.5956 155.199 18.7723 155.026 18.0356C154.852 17.2556 154.614 16.5406 154.311 15.8906C154.007 15.2406 153.617 14.6123 153.141 14.0056C152.707 13.3556 152.209 12.684 151.646 11.9906C153.162 11.7306 154.441 11.4923 155.481 11.2756C156.564 11.0156 157.561 10.7123 158.471 10.3656C159.424 10.019 160.377 9.60729 161.331 9.13062C162.327 8.61062 163.476 7.96062 164.776 7.18062V44.4256ZM184.336 21.3506C186.589 21.3506 188.669 21.784 190.576 22.6506C192.483 23.5173 194.129 24.709 195.516 26.2256C196.946 27.699 198.051 29.4323 198.831 31.4256C199.611 33.3756 200.001 35.4556 200.001 37.6656C200.001 39.8756 199.611 41.9773 198.831 43.9706C198.051 45.9206 196.946 47.6323 195.516 49.1056C194.129 50.579 192.483 51.749 190.576 52.6156C188.669 53.4823 186.589 53.9156 184.336 53.9156C182.083 53.9156 179.981 53.4823 178.031 52.6156C176.124 51.749 174.478 50.579 173.091 49.1056C171.704 47.6323 170.599 45.9206 169.776 43.9706C168.996 41.9773 168.606 39.8756 168.606 37.6656C168.606 35.4556 168.996 33.3756 169.776 31.4256C170.599 29.4323 171.704 27.699 173.091 26.2256C174.478 24.709 176.124 23.5173 178.031 22.6506C179.981 21.784 182.083 21.3506 184.336 21.3506ZM186.416 52.1606C187.413 52.1606 188.193 51.7923 188.756 51.0556C189.319 50.319 189.753 49.4523 190.056 48.4556C190.359 47.4156 190.554 46.354 190.641 45.2706C190.728 44.1873 190.771 43.3206 190.771 42.6706C190.771 41.8473 190.706 40.7856 190.576 39.4856C190.446 38.1856 190.229 36.8206 189.926 35.3906C189.623 33.9606 189.233 32.5306 188.756 31.1006C188.323 29.6273 187.759 28.3273 187.066 27.2006C186.373 26.0306 185.571 25.0773 184.661 24.3406C183.794 23.604 182.776 23.2356 181.606 23.2356C180.696 23.2356 179.981 23.5823 179.461 24.2756C178.941 24.969 178.551 25.7923 178.291 26.7456C178.031 27.699 177.858 28.674 177.771 29.6706C177.728 30.6673 177.706 31.469 177.706 32.0756C177.706 32.8556 177.771 33.8956 177.901 35.1956C178.031 36.4523 178.226 37.839 178.486 39.3556C178.789 40.829 179.158 42.324 179.591 43.8406C180.068 45.3573 180.631 46.744 181.281 48.0006C181.931 49.214 182.668 50.2106 183.491 50.9906C184.358 51.7706 185.333 52.1606 186.416 52.1606ZM230.636 7.89562C231.633 7.89562 232.651 8.02562 233.691 8.28562C234.731 8.54562 235.663 8.93562 236.486 9.45562C237.353 9.97562 238.046 10.669 238.566 11.5356C239.086 12.359 239.346 13.3556 239.346 14.5256C239.346 16.0423 238.848 17.299 237.851 18.2956C236.855 19.249 235.598 19.7256 234.081 19.7256C232.695 19.7256 231.546 19.2706 230.636 18.3606C229.726 17.4506 229.076 16.3673 228.686 15.1106C229.51 15.1106 230.181 14.8723 230.701 14.3956C231.221 13.8756 231.481 13.204 231.481 12.3806C231.481 11.514 231.2 10.8423 230.636 10.3656C230.073 9.84562 229.358 9.58562 228.491 9.58562C227.798 9.58562 227.148 9.73729 226.541 10.0406C225.935 10.344 225.415 10.7556 224.981 11.2756C224.591 11.7956 224.266 12.3806 224.006 13.0306C223.79 13.6806 223.681 14.3306 223.681 14.9806C223.681 16.324 224.006 17.4506 224.656 18.3606C225.35 19.2273 226.216 19.9206 227.256 20.4406C228.296 20.9606 229.423 21.329 230.636 21.5456C231.85 21.7623 232.998 21.8706 234.081 21.8706V23.4306H226.671V44.4256C226.671 45.1623 226.693 45.964 226.736 46.8306C226.823 47.6973 226.975 48.5423 227.191 49.3656C227.408 50.189 227.733 50.9473 228.166 51.6406C228.6 52.334 229.185 52.8756 229.921 53.2656H213.866C214.56 52.8756 215.123 52.334 215.556 51.6406C215.99 50.904 216.315 50.1456 216.531 49.3656C216.791 48.5423 216.965 47.6973 217.051 46.8306C217.138 45.964 217.181 45.1623 217.181 44.4256V23.4306H213.606V21.8706H217.311C217.311 19.7906 217.593 17.9056 218.156 16.2156C218.763 14.4823 219.63 13.009 220.756 11.7956C221.883 10.539 223.27 9.58562 224.916 8.93562C226.606 8.24229 228.513 7.89562 230.636 7.89562ZM247.876 21.3506C250.129 21.3506 252.209 21.784 254.116 22.6506C256.023 23.5173 257.669 24.709 259.056 26.2256C260.486 27.699 261.591 29.4323 262.371 31.4256C263.151 33.3756 263.541 35.4556 263.541 37.6656C263.541 39.8756 263.151 41.9773 262.371 43.9706C261.591 45.9206 260.486 47.6323 259.056 49.1056C257.669 50.579 256.023 51.749 254.116 52.6156C252.209 53.4823 250.129 53.9156 247.876 53.9156C245.623 53.9156 243.521 53.4823 241.571 52.6156C239.664 51.749 238.018 50.579 236.631 49.1056C235.244 47.6323 234.139 45.9206 233.316 43.9706C232.536 41.9773 232.146 39.8756 232.146 37.6656C232.146 35.4556 232.536 33.3756 233.316 31.4256C234.139 29.4323 235.244 27.699 236.631 26.2256C238.018 24.709 239.664 23.5173 241.571 22.6506C243.521 21.784 245.623 21.3506 247.876 21.3506ZM249.956 52.1606C250.953 52.1606 251.733 51.7923 252.296 51.0556C252.859 50.319 253.293 49.4523 253.596 48.4556C253.899 47.4156 254.094 46.354 254.181 45.2706C254.268 44.1873 254.311 43.3206 254.311 42.6706C254.311 41.8473 254.246 40.7856 254.116 39.4856C253.986 38.1856 253.769 36.8206 253.466 35.3906C253.163 33.9606 252.773 32.5306 252.296 31.1006C251.863 29.6273 251.299 28.3273 250.606 27.2006C249.913 26.0306 249.111 25.0773 248.201 24.3406C247.334 23.604 246.316 23.2356 245.146 23.2356C244.236 23.2356 243.521 23.5823 243.001 24.2756C242.481 24.969 242.091 25.7923 241.831 26.7456C241.571 27.699 241.398 28.674 241.311 29.6706C241.268 30.6673 241.246 31.469 241.246 32.0756C241.246 32.8556 241.311 33.8956 241.441 35.1956C241.571 36.4523 241.766 37.839 242.026 39.3556C242.329 40.829 242.698 42.324 243.131 43.8406C243.608 45.3573 244.171 46.744 244.821 48.0006C245.471 49.214 246.208 50.2106 247.031 50.9906C247.898 51.7706 248.873 52.1606 249.956 52.1606ZM276.558 29.0206C276.991 28.1106 277.511 27.2006 278.118 26.2906C278.768 25.3373 279.483 24.514 280.263 23.8206C281.086 23.084 281.974 22.499 282.928 22.0656C283.924 21.589 284.964 21.3506 286.048 21.3506C287.824 21.3506 289.211 21.9573 290.208 23.1706C291.248 24.3406 291.768 25.7706 291.768 27.4606C291.768 28.544 291.551 29.5406 291.118 30.4506C290.728 31.3606 290.164 32.119 289.428 32.7256C288.734 33.3323 287.911 33.809 286.958 34.1556C286.048 34.5023 285.051 34.6756 283.968 34.6756C284.054 34.4156 284.119 34.1556 284.163 33.8956C284.206 33.6356 284.228 33.354 284.228 33.0506C284.228 31.924 283.838 30.9923 283.058 30.2556C282.321 29.4756 281.389 29.0856 280.263 29.0856C279.829 29.0856 279.396 29.194 278.963 29.4106C278.529 29.584 278.118 29.844 277.728 30.1906C277.381 30.494 277.099 30.8623 276.883 31.2956C276.666 31.6856 276.558 32.119 276.558 32.5956V44.4256C276.558 45.1623 276.579 45.964 276.623 46.8306C276.709 47.6973 276.861 48.5423 277.078 49.3656C277.338 50.189 277.684 50.9473 278.118 51.6406C278.551 52.334 279.114 52.8756 279.808 53.2656H263.753C264.446 52.8756 265.009 52.334 265.443 51.6406C265.876 50.904 266.201 50.1456 266.418 49.3656C266.678 48.5423 266.851 47.6973 266.938 46.8306C267.024 45.964 267.068 45.1623 267.068 44.4256V35.1956C267.068 34.2856 266.981 33.4623 266.808 32.7256C266.634 31.9456 266.396 31.2306 266.093 30.5806C265.789 29.9306 265.399 29.3023 264.923 28.6956C264.489 28.0456 263.991 27.374 263.428 26.6806C264.944 26.4206 266.223 26.1823 267.263 25.9656C268.346 25.7056 269.343 25.4023 270.253 25.0556C271.206 24.709 272.159 24.2973 273.113 23.8206C274.109 23.3006 275.258 22.6506 276.558 21.8706V29.0206Z" fill="black"/>
<path d="M31.265 77.2456V114.426C31.265 115.162 31.2867 115.964 31.33 116.831C31.4167 117.697 31.5683 118.542 31.785 119.366C32.0017 120.189 32.3267 120.947 32.76 121.641C33.1933 122.334 33.7783 122.876 34.515 123.266H21.775V120.601C21.0383 121.641 20.1067 122.442 18.98 123.006C17.8967 123.569 16.4017 123.851 14.495 123.851C12.2417 123.851 10.2483 123.417 8.515 122.551C6.78167 121.684 5.30833 120.536 4.095 119.106C2.925 117.632 2.03667 115.942 1.43 114.036C0.823333 112.129 0.52 110.136 0.52 108.056C0.52 105.846 0.845 103.722 1.495 101.686C2.145 99.649 3.09833 97.8506 4.355 96.2906C5.655 94.7306 7.215 93.4956 9.035 92.5856C10.8983 91.6323 13 91.1556 15.34 91.1556C15.6433 91.1556 16.0983 91.264 16.705 91.4806C17.3117 91.654 17.94 91.8706 18.59 92.1306C19.24 92.3473 19.8683 92.5856 20.475 92.8456C21.0817 93.1056 21.515 93.3006 21.775 93.4306V90.5056C21.775 89.5956 21.6883 88.7723 21.515 88.0356C21.3417 87.2556 21.1033 86.5406 20.8 85.8906C20.4967 85.2406 20.1067 84.6123 19.63 84.0056C19.1967 83.3556 18.6983 82.684 18.135 81.9906C19.6517 81.7306 20.93 81.4923 21.97 81.2756C23.0533 81.0156 24.05 80.7123 24.96 80.3656C25.9133 80.019 26.8667 79.6073 27.82 79.1306C28.8167 78.6106 29.965 77.9823 31.265 77.2456ZM21.775 101.231C21.775 100.364 21.71 99.454 21.58 98.5006C21.45 97.504 21.19 96.594 20.8 95.7706C20.41 94.904 19.8683 94.189 19.175 93.6256C18.525 93.0623 17.6583 92.7806 16.575 92.7806C15.275 92.7806 14.17 93.149 13.26 93.8856C12.35 94.579 11.6133 95.4673 11.05 96.5506C10.4867 97.5906 10.075 98.739 9.815 99.9956C9.59833 101.209 9.49 102.357 9.49 103.441C9.49 105.131 9.70667 106.799 10.14 108.446C10.6167 110.049 11.31 111.501 12.22 112.801C13.13 114.057 14.2783 115.097 15.665 115.921C17.095 116.701 18.7417 117.091 20.605 117.091H21.775V101.231ZM44.9313 107.341C45.2346 108.684 45.6896 109.962 46.2963 111.176C46.9029 112.346 47.6613 113.386 48.5713 114.296C49.4813 115.162 50.5429 115.856 51.7563 116.376C53.0129 116.896 54.4213 117.156 55.9813 117.156C56.4579 117.156 57.0213 117.134 57.6713 117.091C58.3646 117.004 59.0579 116.896 59.7513 116.766C60.4446 116.636 61.0946 116.462 61.7013 116.246C62.3513 115.986 62.8496 115.682 63.1963 115.336L63.7163 115.726C62.2429 118.412 60.4879 120.449 58.4513 121.836C56.4579 123.222 53.8579 123.916 50.6513 123.916C48.3979 123.916 46.2963 123.504 44.3463 122.681C42.4396 121.857 40.7929 120.731 39.4063 119.301C38.0629 117.827 37.0013 116.116 36.2213 114.166C35.4413 112.216 35.0513 110.114 35.0513 107.861C35.0513 105.694 35.3763 103.614 36.0263 101.621C36.7196 99.6273 37.6946 97.8723 38.9513 96.3556C40.2513 94.839 41.8113 93.6256 43.6313 92.7156C45.4513 91.8056 47.5096 91.3506 49.8063 91.3506C51.8863 91.3506 53.7713 91.6756 55.4613 92.3256C57.1946 92.9323 58.6463 93.8423 59.8163 95.0556C61.0296 96.2256 61.9613 97.6556 62.6113 99.3456C63.2613 101.036 63.5863 102.921 63.5863 105.001V106.561L44.9313 107.341ZM54.8763 99.8006C54.8763 99.064 54.7246 98.284 54.4213 97.4606C54.1613 96.6373 53.7713 95.9006 53.2513 95.2506C52.7313 94.5573 52.1246 93.994 51.4313 93.5606C50.7379 93.1273 49.9796 92.9106 49.1563 92.9106C48.2029 92.9106 47.4229 93.3006 46.8163 94.0806C46.2096 94.8606 45.7329 95.7923 45.3863 96.8756C45.0396 97.9156 44.7796 98.999 44.6063 100.126C44.4763 101.252 44.4113 102.141 44.4113 102.791C44.4113 103.744 44.4763 104.719 44.6063 105.716C45.4729 105.629 46.3396 105.521 47.2063 105.391C48.0729 105.261 48.9396 105.131 49.8063 105.001C51.2796 104.784 52.4929 104.264 53.4463 103.441C54.3996 102.617 54.8763 101.404 54.8763 99.8006ZM96.8129 91.8706C95.8163 92.304 94.8413 93.2356 93.8879 94.6656C92.9779 96.0956 92.1113 97.6773 91.2879 99.4106C90.5079 101.101 89.7929 102.812 89.1429 104.546C88.4929 106.236 87.9729 107.601 87.5829 108.641L81.7329 123.266H76.2079L70.2929 108.511C69.9029 107.514 69.3829 106.171 68.7329 104.481C68.0829 102.791 67.3679 101.079 66.5879 99.3456C65.8079 97.6123 64.9413 96.0523 63.9879 94.6656C63.0779 93.2356 62.1246 92.304 61.1279 91.8706H79.0679C77.9846 92.2173 77.1829 92.8673 76.6629 93.8206C76.1429 94.774 75.8829 95.814 75.8829 96.9406C75.8829 97.8506 76.1646 99.194 76.7279 100.971C77.2913 102.747 77.9413 104.611 78.6779 106.561C79.4579 108.511 80.2163 110.396 80.9529 112.216C81.7329 113.992 82.3396 115.379 82.7729 116.376C83.2496 115.162 83.7479 113.906 84.2679 112.606C84.8313 111.262 85.3296 109.919 85.7629 108.576C86.2396 107.189 86.6296 105.802 86.9329 104.416C87.2363 103.029 87.3879 101.686 87.3879 100.386C87.3879 98.3056 86.9329 96.5506 86.0229 95.1206C85.1129 93.6906 83.6829 92.6073 81.7329 91.8706H96.8129ZM103.964 107.341C104.268 108.684 104.723 109.962 105.329 111.176C105.936 112.346 106.694 113.386 107.604 114.296C108.514 115.162 109.576 115.856 110.789 116.376C112.046 116.896 113.454 117.156 115.014 117.156C115.491 117.156 116.054 117.134 116.704 117.091C117.398 117.004 118.091 116.896 118.784 116.766C119.478 116.636 120.128 116.462 120.734 116.246C121.384 115.986 121.883 115.682 122.229 115.336L122.749 115.726C121.276 118.412 119.521 120.449 117.484 121.836C115.491 123.222 112.891 123.916 109.684 123.916C107.431 123.916 105.329 123.504 103.379 122.681C101.473 121.857 99.8261 120.731 98.4395 119.301C97.0961 117.827 96.0345 116.116 95.2545 114.166C94.4745 112.216 94.0845 110.114 94.0845 107.861C94.0845 105.694 94.4095 103.614 95.0595 101.621C95.7528 99.6273 96.7278 97.8723 97.9845 96.3556C99.2845 94.839 100.844 93.6256 102.664 92.7156C104.484 91.8056 106.543 91.3506 108.839 91.3506C110.919 91.3506 112.804 91.6756 114.494 92.3256C116.228 92.9323 117.679 93.8423 118.849 95.0556C120.063 96.2256 120.994 97.6556 121.644 99.3456C122.294 101.036 122.619 102.921 122.619 105.001V106.561L103.964 107.341ZM113.909 99.8006C113.909 99.064 113.758 98.284 113.454 97.4606C113.194 96.6373 112.804 95.9006 112.284 95.2506C111.764 94.5573 111.158 93.994 110.464 93.5606C109.771 93.1273 109.013 92.9106 108.189 92.9106C107.236 92.9106 106.456 93.3006 105.849 94.0806C105.243 94.8606 104.766 95.7923 104.419 96.8756C104.073 97.9156 103.813 98.999 103.639 100.126C103.509 101.252 103.444 102.141 103.444 102.791C103.444 103.744 103.509 104.719 103.639 105.716C104.506 105.629 105.373 105.521 106.239 105.391C107.106 105.261 107.973 105.131 108.839 105.001C110.313 104.784 111.526 104.264 112.479 103.441C113.433 102.617 113.909 101.404 113.909 99.8006ZM136.528 114.426C136.528 115.162 136.55 115.964 136.593 116.831C136.68 117.697 136.832 118.542 137.048 119.366C137.308 120.189 137.655 120.947 138.088 121.641C138.522 122.334 139.107 122.876 139.843 123.266H123.723C124.46 122.876 125.045 122.334 125.478 121.641C125.912 120.947 126.237 120.189 126.453 119.366C126.67 118.542 126.822 117.697 126.908 116.831C126.995 115.964 127.038 115.162 127.038 114.426V90.5056C127.038 89.5956 126.952 88.7723 126.778 88.0356C126.605 87.2556 126.367 86.5406 126.063 85.8906C125.76 85.2406 125.37 84.6123 124.893 84.0056C124.46 83.3556 123.962 82.684 123.398 81.9906C124.915 81.7306 126.193 81.4923 127.233 81.2756C128.317 81.0156 129.313 80.7123 130.223 80.3656C131.177 80.019 132.13 79.6073 133.083 79.1306C134.08 78.6106 135.228 77.9606 136.528 77.1806V114.426ZM156.089 91.3506C158.342 91.3506 160.422 91.784 162.329 92.6506C164.236 93.5173 165.882 94.709 167.269 96.2256C168.699 97.699 169.804 99.4323 170.584 101.426C171.364 103.376 171.754 105.456 171.754 107.666C171.754 109.876 171.364 111.977 170.584 113.971C169.804 115.921 168.699 117.632 167.269 119.106C165.882 120.579 164.236 121.749 162.329 122.616C160.422 123.482 158.342 123.916 156.089 123.916C153.836 123.916 151.734 123.482 149.784 122.616C147.877 121.749 146.231 120.579 144.844 119.106C143.457 117.632 142.352 115.921 141.529 113.971C140.749 111.977 140.359 109.876 140.359 107.666C140.359 105.456 140.749 103.376 141.529 101.426C142.352 99.4323 143.457 97.699 144.844 96.2256C146.231 94.709 147.877 93.5173 149.784 92.6506C151.734 91.784 153.836 91.3506 156.089 91.3506ZM158.169 122.161C159.166 122.161 159.946 121.792 160.509 121.056C161.072 120.319 161.506 119.452 161.809 118.456C162.112 117.416 162.307 116.354 162.394 115.271C162.481 114.187 162.524 113.321 162.524 112.671C162.524 111.847 162.459 110.786 162.329 109.486C162.199 108.186 161.982 106.821 161.679 105.391C161.376 103.961 160.986 102.531 160.509 101.101C160.076 99.6273 159.512 98.3273 158.819 97.2006C158.126 96.0306 157.324 95.0773 156.414 94.3406C155.547 93.604 154.529 93.2356 153.359 93.2356C152.449 93.2356 151.734 93.5823 151.214 94.2756C150.694 94.969 150.304 95.7923 150.044 96.7456C149.784 97.699 149.611 98.674 149.524 99.6706C149.481 100.667 149.459 101.469 149.459 102.076C149.459 102.856 149.524 103.896 149.654 105.196C149.784 106.452 149.979 107.839 150.239 109.356C150.542 110.829 150.911 112.324 151.344 113.841C151.821 115.357 152.384 116.744 153.034 118.001C153.684 119.214 154.421 120.211 155.244 120.991C156.111 121.771 157.086 122.161 158.169 122.161ZM175.915 128.856V105.131C175.915 104.221 175.829 103.397 175.655 102.661C175.482 101.881 175.244 101.166 174.94 100.516C174.637 99.8656 174.247 99.2373 173.77 98.6306C173.337 97.9806 172.839 97.309 172.275 96.6156C173.792 96.3556 175.07 96.1173 176.11 95.9006C177.194 95.6406 178.19 95.3373 179.1 94.9906C180.054 94.644 181.007 94.2323 181.96 93.7556C182.957 93.2356 184.105 92.6073 185.405 91.8706V96.5506C185.969 95.9006 186.554 95.2723 187.16 94.6656C187.81 94.0156 188.439 93.4306 189.045 92.9106C189.695 92.3906 190.324 91.979 190.93 91.6756C191.58 91.329 192.165 91.1556 192.685 91.1556C194.939 91.1556 196.932 91.589 198.665 92.4556C200.399 93.3223 201.85 94.4923 203.02 95.9656C204.234 97.3956 205.144 99.064 205.75 100.971C206.357 102.877 206.66 104.871 206.66 106.951C206.66 109.161 206.335 111.284 205.685 113.321C205.035 115.357 204.06 117.156 202.76 118.716C201.504 120.276 199.944 121.532 198.08 122.486C196.26 123.396 194.18 123.851 191.84 123.851C190.367 123.851 189.175 123.742 188.265 123.526C187.355 123.352 186.402 123.092 185.405 122.746V128.856C185.405 129.592 185.427 130.394 185.47 131.261C185.557 132.127 185.709 132.951 185.925 133.731C186.185 134.554 186.532 135.312 186.965 136.006C187.399 136.699 187.962 137.262 188.655 137.696H172.6C173.337 137.262 173.922 136.699 174.355 136.006C174.789 135.312 175.114 134.554 175.33 133.731C175.547 132.951 175.699 132.127 175.785 131.261C175.872 130.394 175.915 129.592 175.915 128.856ZM185.405 97.3306V113.776C185.405 114.599 185.47 115.509 185.6 116.506C185.73 117.502 185.99 118.434 186.38 119.301C186.77 120.124 187.29 120.817 187.94 121.381C188.634 121.944 189.522 122.226 190.605 122.226C191.949 122.226 193.075 121.857 193.985 121.121C194.895 120.341 195.61 119.387 196.13 118.261C196.694 117.134 197.084 115.942 197.3 114.686C197.56 113.386 197.69 112.194 197.69 111.111C197.69 109.421 197.474 107.731 197.04 106.041C196.607 104.351 195.935 102.834 195.025 101.491C194.115 100.104 192.945 98.999 191.515 98.1756C190.129 97.309 188.482 96.8756 186.575 96.8756C186.272 96.8756 185.882 97.0273 185.405 97.3306ZM218.857 107.341C219.16 108.684 219.615 109.962 220.222 111.176C220.829 112.346 221.587 113.386 222.497 114.296C223.407 115.162 224.469 115.856 225.682 116.376C226.939 116.896 228.347 117.156 229.907 117.156C230.384 117.156 230.947 117.134 231.597 117.091C232.29 117.004 232.984 116.896 233.677 116.766C234.37 116.636 235.02 116.462 235.627 116.246C236.277 115.986 236.775 115.682 237.122 115.336L237.642 115.726C236.169 118.412 234.414 120.449 232.377 121.836C230.384 123.222 227.784 123.916 224.577 123.916C222.324 123.916 220.222 123.504 218.272 122.681C216.365 121.857 214.719 120.731 213.332 119.301C211.989 117.827 210.927 116.116 210.147 114.166C209.367 112.216 208.977 110.114 208.977 107.861C208.977 105.694 209.302 103.614 209.952 101.621C210.645 99.6273 211.62 97.8723 212.877 96.3556C214.177 94.839 215.737 93.6256 217.557 92.7156C219.377 91.8056 221.435 91.3506 223.732 91.3506C225.812 91.3506 227.697 91.6756 229.387 92.3256C231.12 92.9323 232.572 93.8423 233.742 95.0556C234.955 96.2256 235.887 97.6556 236.537 99.3456C237.187 101.036 237.512 102.921 237.512 105.001V106.561L218.857 107.341ZM228.802 99.8006C228.802 99.064 228.65 98.284 228.347 97.4606C228.087 96.6373 227.697 95.9006 227.177 95.2506C226.657 94.5573 226.05 93.994 225.357 93.5606C224.664 93.1273 223.905 92.9106 223.082 92.9106C222.129 92.9106 221.349 93.3006 220.742 94.0806C220.135 94.8606 219.659 95.7923 219.312 96.8756C218.965 97.9156 218.705 98.999 218.532 100.126C218.402 101.252 218.337 102.141 218.337 102.791C218.337 103.744 218.402 104.719 218.532 105.716C219.399 105.629 220.265 105.521 221.132 105.391C221.999 105.261 222.865 105.131 223.732 105.001C225.205 104.784 226.419 104.264 227.372 103.441C228.325 102.617 228.802 101.404 228.802 99.8006ZM251.421 114.426C251.421 115.162 251.443 115.964 251.486 116.831C251.573 117.697 251.724 118.542 251.941 119.366C252.158 120.189 252.483 120.947 252.916 121.641C253.349 122.334 253.934 122.876 254.671 123.266H238.616C239.309 122.876 239.873 122.334 240.306 121.641C240.739 120.904 241.064 120.146 241.281 119.366C241.541 118.542 241.714 117.697 241.801 116.831C241.888 115.964 241.931 115.162 241.931 114.426V105.196C241.931 103.376 241.606 101.837 240.956 100.581C240.306 99.324 239.418 98.024 238.291 96.6806C239.808 96.4206 241.086 96.1823 242.126 95.9656C243.209 95.7056 244.206 95.4023 245.116 95.0556C246.069 94.6656 247.023 94.2323 247.976 93.7556C248.973 93.2356 250.121 92.6073 251.421 91.8706V101.166C252.201 99.0423 253.328 97.0273 254.801 95.1206C256.274 93.214 257.964 91.5456 259.871 90.1156C261.778 88.6856 263.836 87.559 266.046 86.7356C268.299 85.869 270.574 85.4356 272.871 85.4356C273.911 85.4356 274.994 85.544 276.121 85.7606C277.248 85.9773 278.266 86.3456 279.176 86.8656C280.129 87.3856 280.888 88.079 281.451 88.9456C282.058 89.8123 282.361 90.874 282.361 92.1306C282.361 93.9506 281.733 95.4456 280.476 96.6156C279.263 97.7423 277.768 98.3056 275.991 98.3056C275.991 96.0956 275.319 94.4706 273.976 93.4306C272.633 92.3906 270.921 91.8706 268.841 91.8706C266.978 91.8706 265.006 92.2606 262.926 93.0406C260.889 93.7773 259.004 94.8173 257.271 96.1606C255.581 97.504 254.173 99.064 253.046 100.841C251.963 102.617 251.421 104.546 251.421 106.626V114.426ZM271.376 93.3656C270.813 93.3656 270.228 93.4306 269.621 93.5606C269.058 93.6906 268.516 93.9073 267.996 94.2106C267.519 94.514 267.129 94.904 266.826 95.3806C266.523 95.8573 266.371 96.4206 266.371 97.0706C266.371 98.3706 266.804 99.454 267.671 100.321C268.581 101.187 269.686 101.989 270.986 102.726C272.329 103.419 273.759 104.091 275.276 104.741C276.836 105.391 278.266 106.149 279.566 107.016C280.909 107.882 282.014 108.944 282.881 110.201C283.791 111.414 284.246 112.931 284.246 114.751C284.246 116.527 283.748 118.022 282.751 119.236C281.798 120.406 280.606 121.337 279.176 122.031C277.746 122.724 276.186 123.201 274.496 123.461C272.849 123.764 271.311 123.916 269.881 123.916C268.668 123.916 267.324 123.764 265.851 123.461C264.421 123.157 263.078 122.681 261.821 122.031C260.564 121.381 259.503 120.536 258.636 119.496C257.813 118.412 257.401 117.112 257.401 115.596C257.401 114.166 257.791 112.931 258.571 111.891C259.394 110.851 260.564 110.331 262.081 110.331C263.554 110.331 264.746 110.894 265.656 112.021C266.609 113.104 267.216 114.296 267.476 115.596C266.696 115.596 266.046 115.856 265.526 116.376C265.049 116.896 264.811 117.546 264.811 118.326C264.811 118.976 264.963 119.561 265.266 120.081C265.569 120.601 265.959 121.034 266.436 121.381C266.956 121.684 267.519 121.922 268.126 122.096C268.733 122.269 269.318 122.356 269.881 122.356C270.574 122.356 271.268 122.269 271.961 122.096C272.654 121.922 273.283 121.662 273.846 121.316C274.409 120.926 274.864 120.449 275.211 119.886C275.558 119.279 275.731 118.564 275.731 117.741C275.731 116.614 275.298 115.661 274.431 114.881C273.608 114.057 272.568 113.299 271.311 112.606C270.054 111.912 268.689 111.219 267.216 110.526C265.743 109.832 264.378 109.052 263.121 108.186C261.864 107.276 260.803 106.214 259.936 105.001C259.113 103.787 258.701 102.314 258.701 100.581C258.701 98.9773 259.134 97.699 260.001 96.7456C260.868 95.7923 261.929 95.0556 263.186 94.5356C264.486 94.0156 265.873 93.669 267.346 93.4956C268.819 93.3223 270.163 93.2356 271.376 93.2356V93.3656Z" fill="url(#paint0_linear_3404_29709)"/>
<circle cx="283" cy="79.2656" r="21" fill="url(#paint1_linear_3404_29709)"/>
<path d="M278.44 77.0005L275.121 79.7659L278.44 82.5312C278.55 82.6215 278.641 82.7326 278.708 82.8581C278.775 82.9837 278.816 83.1213 278.83 83.263C278.843 83.4047 278.829 83.5476 278.787 83.6836C278.745 83.8195 278.676 83.9458 278.585 84.0551C278.494 84.1645 278.382 84.2547 278.256 84.3206C278.13 84.3865 277.992 84.4268 277.85 84.4392C277.708 84.4515 277.566 84.4357 277.43 84.3926C277.294 84.3495 277.169 84.2799 277.06 84.188L272.747 80.5942C272.626 80.493 272.528 80.3664 272.461 80.2232C272.394 80.0801 272.359 79.9239 272.359 79.7659C272.359 79.6078 272.394 79.4516 272.461 79.3085C272.528 79.1653 272.626 79.0387 272.747 78.9375L277.06 75.3437C277.28 75.1635 277.562 75.0774 277.845 75.1043C278.129 75.1313 278.39 75.269 278.572 75.4876C278.754 75.7062 278.842 75.9878 278.817 76.2712C278.793 76.5545 278.657 76.8167 278.44 77.0005ZM294.252 78.9375L289.94 75.3437C289.831 75.2518 289.706 75.1823 289.57 75.1391C289.434 75.096 289.292 75.0802 289.15 75.0925C289.008 75.1049 288.87 75.1452 288.744 75.2111C288.618 75.277 288.506 75.3672 288.415 75.4766C288.324 75.5859 288.255 75.7122 288.213 75.8482C288.171 75.9841 288.157 76.1271 288.17 76.2687C288.184 76.4104 288.225 76.548 288.292 76.6736C288.359 76.7992 288.45 76.9103 288.56 77.0005L291.879 79.7659L288.56 82.5312C288.45 82.6215 288.359 82.7326 288.292 82.8581C288.225 82.9837 288.184 83.1213 288.17 83.263C288.157 83.4047 288.171 83.5476 288.213 83.6836C288.255 83.8195 288.324 83.9458 288.415 84.0551C288.506 84.1645 288.618 84.2547 288.744 84.3206C288.87 84.3865 289.008 84.4268 289.15 84.4392C289.292 84.4515 289.434 84.4357 289.57 84.3926C289.706 84.3495 289.831 84.2799 289.94 84.188L294.252 80.5942C294.374 80.493 294.472 80.3664 294.539 80.2232C294.606 80.0801 294.641 79.9239 294.641 79.7659C294.641 79.6078 294.606 79.4516 294.539 79.3085C294.472 79.1653 294.374 79.0387 294.252 78.9375ZM286.743 70.8462C286.61 70.7978 286.469 70.7761 286.327 70.7823C286.186 70.7885 286.047 70.8226 285.919 70.8825C285.79 70.9424 285.675 71.027 285.58 71.1314C285.484 71.2359 285.41 71.3581 285.362 71.4912L279.612 87.3037C279.514 87.5724 279.527 87.8688 279.648 88.1277C279.769 88.3867 279.988 88.587 280.257 88.6846C280.375 88.7282 280.499 88.7504 280.625 88.7502C280.846 88.7503 281.062 88.6822 281.244 88.5552C281.425 88.4282 281.563 88.2485 281.638 88.0405L287.388 72.228C287.437 72.0949 287.458 71.9536 287.452 71.8121C287.446 71.6706 287.412 71.5318 287.352 71.4034C287.292 71.2751 287.208 71.1599 287.103 71.0642C286.999 70.9686 286.876 70.8945 286.743 70.8462Z" fill="white"/>
</g>
<defs>
<linearGradient id="paint0_linear_3404_29709" x1="-3.94003e-06" y1="53.2656" x2="279.5" y2="123.266" gradientUnits="userSpaceOnUse">
<stop stop-color="#008631"/>
<stop offset="1" stop-color="#FFE600"/>
</linearGradient>
<linearGradient id="paint1_linear_3404_29709" x1="262" y1="64.2656" x2="304" y2="100.266" gradientUnits="userSpaceOnUse">
<stop stop-color="#008631"/>
<stop offset="1" stop-color="#FFE600"/>
</linearGradient>
<clipPath id="clip0_3404_29709">
<rect width="304" height="140" fill="white" transform="translate(0 0.632812)"/>
</clipPath>
</defs>
</svg>
