<svg width="78" height="72" viewBox="0 0 78 72" fill="none" xmlns="http://www.w3.org/2000/svg">
<g filter="url(#filter0_d_2130_35190)">
<rect x="13" y="8" width="52" height="46" rx="9.73913" fill="white" shape-rendering="crispEdges"/>
<path d="M39 22.19L46 25.3V30C46 34.52 43.02 38.69 39 39.93C34.98 38.69 32 34.52 32 30V25.3L39 22.19ZM39 20L30 24V30C30 35.55 33.84 40.74 39 42C44.16 40.74 48 35.55 48 30V24L39 20ZM38 26H40V28H38V26ZM38 30H40V36H38V30Z" fill="#1E2C31"/>
</g>
<defs>
<filter id="filter0_d_2130_35190" x="0.826086" y="0.695652" width="76.3478" height="70.3478" filterUnits="userSpaceOnUse" color-interpolation-filters="sRGB">
<feFlood flood-opacity="0" result="BackgroundImageFix"/>
<feColorMatrix in="SourceAlpha" type="matrix" values="0 0 0 0 0 0 0 0 0 0 0 0 0 0 0 0 0 0 127 0" result="hardAlpha"/>
<feOffset dy="4.86957"/>
<feGaussianBlur stdDeviation="6.08696"/>
<feComposite in2="hardAlpha" operator="out"/>
<feColorMatrix type="matrix" values="0 0 0 0 0.117647 0 0 0 0 0.172549 0 0 0 0 0.192157 0 0 0 0.16 0"/>
<feBlend mode="normal" in2="BackgroundImageFix" result="effect1_dropShadow_2130_35190"/>
<feBlend mode="normal" in="SourceGraphic" in2="effect1_dropShadow_2130_35190" result="shape"/>
</filter>
</defs>
</svg>
