<svg width="732" height="308" viewBox="0 0 732 308" fill="none" xmlns="http://www.w3.org/2000/svg">
<g clip-path="url(#clip0_1611_24601)" filter="url(#filter0_f_1611_24601)">
<rect width="4.93357" height="50.2934" rx="1.97229" transform="matrix(-0.971548 0.236843 0.236843 0.971548 264.615 250.434)" fill="url(#paint0_linear_1611_24601)"/>
<rect width="4.93357" height="48.3211" rx="0.986145" transform="matrix(-0.971548 0.236843 0.236843 0.971548 263.872 251.629)" fill="url(#paint1_linear_1611_24601)"/>
<rect width="5.00378" height="32.8183" rx="1.97229" transform="matrix(0.971548 -0.236843 -0.236843 -0.971548 62.8643 333.512)" fill="url(#paint2_linear_1611_24601)"/>
<rect width="5.00378" height="14.3776" rx="1.97229" transform="matrix(0.971548 -0.236843 -0.236843 -0.971548 52.5771 290.01)" fill="url(#paint3_linear_1611_24601)"/>
<rect width="4.21651" height="31.6238" rx="0.986145" transform="matrix(0.971548 -0.236843 -0.236843 -0.971548 64.1074 332.711)" fill="black"/>
<rect width="5.00378" height="12.5022" rx="0.986145" transform="matrix(0.971548 -0.236843 -0.236843 -0.971548 53.2734 288.881)" fill="url(#paint4_linear_1611_24601)"/>
<rect x="26.6934" y="175.461" width="211.035" height="423.056" rx="36.9804" transform="rotate(-13.7003 26.6934 175.461)" fill="black"/>
<rect x="27.8843" y="176.188" width="209.063" height="421.084" rx="36.4874" transform="rotate(-13.7003 27.8843 176.188)" fill="url(#paint5_linear_1611_24601)"/>
<rect x="28.957" y="176.822" width="207.09" height="419.112" rx="35.5012" transform="rotate(-13.7003 28.957 176.822)" fill="black"/>
<rect x="35.1338" y="180.586" width="196.636" height="408.659" rx="31.6695" transform="rotate(-13.7003 35.1338 180.586)" fill="white"/>
<g clip-path="url(#clip1_1611_24601)">
<rect x="34.7734" y="179.525" width="198.935" height="430.406" rx="27.6998" transform="rotate(-13.7003 34.7734 179.525)" fill="url(#paint6_linear_1611_24601)"/>
<path d="M196.925 97.4158C196.705 100.157 198.387 102.656 200.063 104.824C221.478 132.262 263.793 144.038 271.532 181.4C275.021 198.296 271.434 220.01 259.782 233.38C258.947 234.357 258.157 235.213 257.054 235.85C253.145 231.501 251.086 224.271 247.477 219.333C242.928 213.115 237.503 207.258 230.925 203.191C224.615 199.317 217.574 197.904 211.289 194.134C198.096 186.158 187.866 173.335 183.35 158.604C176.908 137.641 182.444 113.906 196.977 97.4768L196.925 97.4158Z" fill="url(#paint7_linear_1611_24601)" fill-opacity="0.15"/>
<path d="M218.864 108.333C218.644 111.075 220.326 113.573 222.002 115.742C243.418 143.18 285.732 154.956 293.471 192.318C296.961 209.214 293.374 230.927 281.722 244.298C280.887 245.275 280.096 246.13 278.993 246.767C275.084 242.418 273.026 235.188 269.417 230.251C264.867 224.033 259.443 218.176 252.864 214.109C246.555 210.235 239.513 208.822 233.229 205.052C220.036 197.075 209.805 184.253 205.289 169.522C198.847 148.559 204.383 124.824 218.916 108.394L218.864 108.333Z" fill="url(#paint8_linear_1611_24601)" fill-opacity="0.15"/>
</g>
<rect x="104.661" y="169.379" width="59.4994" height="18.1287" rx="9.06437" transform="rotate(-13.7003 104.661 169.379)" fill="black"/>
<g opacity="0.5">
<circle cx="155.529" cy="166.076" r="3.71872" transform="rotate(76.2997 155.529 166.076)" stroke="#A0A9BB" stroke-opacity="0.25" stroke-width="0.464839"/>
<circle cx="155.529" cy="166.076" r="3.71872" transform="rotate(76.2997 155.529 166.076)" stroke="url(#paint9_linear_1611_24601)" stroke-width="0.464839"/>
</g>
<g filter="url(#filter1_i_1611_24601)">
<ellipse cx="155.902" cy="167.614" rx="0.964898" ry="1.85936" transform="rotate(76.2997 155.902 167.614)" fill="url(#paint10_radial_1611_24601)"/>
</g>
<g filter="url(#filter2_i_1611_24601)">
<ellipse cx="0.964898" cy="1.85936" rx="0.964898" ry="1.85936" transform="matrix(-0.236843 -0.971548 -0.971548 0.236843 157.205 165.1)" fill="url(#paint11_radial_1611_24601)"/>
</g>
<rect x="38.3896" y="219.299" width="0.986145" height="6.90302" transform="rotate(-13.7003 38.3896 219.299)" fill="black"/>
<rect x="240.548" y="170.021" width="0.986145" height="6.90302" transform="rotate(-13.7003 240.548 170.021)" fill="black"/>
<rect x="193.628" y="135.781" width="0.986145" height="6.90302" transform="rotate(76.2997 193.628 135.781)" fill="black"/>
<rect x="70.0376" y="165.91" width="0.986145" height="6.90302" transform="rotate(76.2997 70.0376 165.91)" fill="black"/>
</g>
<g opacity="0.5" filter="url(#filter3_f_1611_24601)">
<rect x="347.931" y="135" width="95" height="186" transform="rotate(15.8918 347.931 135)" fill="black"/>
</g>
<g opacity="0.5" filter="url(#filter4_f_1611_24601)">
<rect x="86.0361" y="122.354" width="95" height="223" transform="rotate(-13.6457 86.0361 122.354)" fill="black"/>
</g>
<g clip-path="url(#clip2_1611_24601)">
<rect width="4.93357" height="50.2934" rx="1.97229" transform="matrix(-0.970304 0.24189 0.24189 0.970304 323.014 155.299)" fill="url(#paint12_linear_1611_24601)"/>
<rect width="4.93357" height="48.3211" rx="0.986145" transform="matrix(-0.970304 0.24189 0.24189 0.970304 322.276 156.498)" fill="url(#paint13_linear_1611_24601)"/>
<rect width="5.00378" height="33.4435" rx="1.97229" transform="matrix(0.970304 -0.24189 -0.24189 -0.970304 132.946 284.611)" fill="url(#paint14_linear_1611_24601)"/>
<rect width="5.00378" height="31.5681" rx="0.986145" transform="matrix(0.970304 -0.24189 -0.24189 -0.970304 133.627 283.471)" fill="url(#paint15_linear_1611_24601)"/>
<rect width="5.00378" height="32.8183" rx="1.97229" transform="matrix(0.970304 -0.24189 -0.24189 -0.970304 121.697 239.426)" fill="url(#paint16_linear_1611_24601)"/>
<rect width="5.00378" height="14.3776" rx="1.97229" transform="matrix(0.970304 -0.24189 -0.24189 -0.970304 111.184 195.979)" fill="url(#paint17_linear_1611_24601)"/>
<rect width="4.21651" height="31.6238" rx="0.986145" transform="matrix(0.970304 -0.24189 -0.24189 -0.970304 122.937 238.619)" fill="black"/>
<rect width="5.00378" height="12.5022" rx="0.986145" transform="matrix(0.970304 -0.24189 -0.24189 -0.970304 111.875 194.846)" fill="url(#paint18_linear_1611_24601)"/>
<rect x="84.7061" y="81.5645" width="211.035" height="423.056" rx="36.9804" transform="rotate(-13.9981 84.7061 81.5645)" fill="black"/>
<rect x="85.9009" y="82.2852" width="209.063" height="421.084" rx="36.4874" transform="rotate(-13.9981 85.9009 82.2852)" fill="url(#paint19_linear_1611_24601)"/>
<rect x="86.9766" y="82.9141" width="207.09" height="419.112" rx="35.5012" transform="rotate(-13.9981 86.9766 82.9141)" fill="black"/>
<rect x="93.1729" y="86.6445" width="196.636" height="408.659" rx="31.6695" transform="rotate(-13.9981 93.1729 86.6445)" fill="white"/>
<g clip-path="url(#clip3_1611_24601)">
<rect x="92.8071" y="85.5859" width="198.935" height="430.406" rx="27.6998" transform="rotate(-13.9981 92.8071 85.5859)" fill="#8807F7"/>
<path d="M232.487 251.335C233.731 256.324 234.978 261.328 236.251 266.31C237.325 270.615 236.973 275.152 233.524 278.361C229.493 282.085 222.697 283.083 217.356 283.843C217.152 283.894 216.967 283.894 216.774 283.927C216.053 280.29 215.073 276.672 214.007 273.138C212.578 268.334 214.073 261.812 219.091 259.696C224.528 257.398 229.307 255.558 231.204 251.764C231.269 251.655 231.331 251.531 231.378 251.411C231.637 250.775 231.932 250.161 232.223 249.532C232.234 250.132 232.339 250.739 232.484 251.321L232.487 251.335Z" fill="white" fill-opacity="0.1"/>
<path d="M230.226 315.195C234.186 314.47 238.098 313.433 242.015 312.534C246.586 311.472 251.396 310.875 255.589 308.98C261.616 306.257 267.687 300.371 268.51 293.693C269.27 287.509 266.573 281.028 261.653 277.219C261.311 276.964 260.955 276.713 260.57 276.469C255.758 273.281 249.356 272.575 243.956 274.709C237.246 277.355 232.497 284.332 232.379 291.546C232.311 296.043 234.402 300.28 234.818 304.734C235.164 308.417 233.031 312.812 230.211 315.198L230.226 315.195Z" fill="white" fill-opacity="0.1"/>
<path d="M250.358 229.774C250.274 230.923 250.982 231.966 251.687 232.872C260.692 244.331 278.373 249.193 281.7 264.832C283.201 271.905 281.762 281.008 276.938 286.629C276.592 287.039 276.265 287.399 275.806 287.668C274.164 285.853 273.286 282.827 271.768 280.765C269.854 278.167 267.576 275.723 264.821 274.03C262.179 272.418 259.238 271.838 256.607 270.269C251.083 266.95 246.781 261.595 244.859 255.431C242.116 246.66 244.362 236.707 250.38 229.799L250.358 229.774Z" fill="white" fill-opacity="0.1"/>
<path d="M217.848 270.945C217.848 270.945 216.676 267.112 220.709 266.308C220.709 266.308 223.222 270.192 217.848 270.945Z" fill="#8807F7" stroke="white" stroke-opacity="0.1" stroke-width="0.630306" stroke-miterlimit="10"/>
<path d="M224.737 304.202C228.384 303.292 230.603 299.599 229.694 295.952C228.785 292.305 225.091 290.085 221.444 290.994C217.797 291.904 215.578 295.597 216.487 299.244C217.396 302.891 221.09 305.111 224.737 304.202Z" fill="white" fill-opacity="0.1"/>
<path d="M227.416 250.205C228.659 255.194 229.907 260.197 231.179 265.179C232.253 269.484 231.901 274.022 228.452 277.23C224.421 280.954 217.625 281.953 212.284 282.713C212.08 282.763 211.895 282.763 211.702 282.796C210.981 279.16 210.002 275.541 208.935 272.007C207.506 267.203 209.001 260.681 214.02 258.565C219.457 256.267 224.235 254.427 226.132 250.633C226.197 250.524 226.259 250.4 226.307 250.28C226.565 249.644 226.86 249.03 227.151 248.401C227.162 249.001 227.267 249.608 227.412 250.19L227.416 250.205Z" fill="white"/>
<path d="M225.154 314.062C229.113 313.337 233.026 312.3 236.942 311.401C241.513 310.339 246.324 309.742 250.517 307.847C256.543 305.124 262.615 299.239 263.438 292.56C264.198 286.376 261.501 279.896 256.581 276.086C256.239 275.831 255.883 275.58 255.498 275.336C250.686 272.148 244.284 271.442 238.884 273.576C232.174 276.222 227.425 283.2 227.307 290.413C227.239 294.91 229.33 299.147 229.745 303.601C230.092 307.285 227.958 311.679 225.139 314.066L225.154 314.062Z" fill="white"/>
<path d="M245.287 228.649C245.202 229.798 245.91 230.841 246.615 231.747C255.62 243.206 273.301 248.068 276.629 263.707C278.129 270.78 276.691 279.883 271.866 285.504C271.52 285.914 271.193 286.274 270.734 286.543C269.092 284.728 268.215 281.702 266.696 279.64C264.782 277.042 262.504 274.598 259.749 272.905C257.107 271.293 254.166 270.713 251.535 269.144C246.011 265.825 241.71 260.47 239.787 254.306C237.044 245.535 239.29 235.582 245.308 228.674L245.287 228.649Z" fill="white"/>
<path d="M212.776 269.808C212.776 269.808 211.604 265.975 215.636 265.171C215.636 265.171 218.15 269.056 212.776 269.808Z" fill="#8807F7" stroke="white" stroke-width="0.630306" stroke-miterlimit="10"/>
<path d="M219.664 303.071C223.311 302.162 225.531 298.468 224.621 294.821C223.712 291.174 220.019 288.954 216.372 289.864C212.725 290.773 210.505 294.466 211.414 298.113C212.323 301.76 216.017 303.98 219.664 303.071Z" fill="white"/>
<path d="M181.555 467.537C191.481 459.246 199.948 449.44 206.389 438.776C212.831 428.112 217.099 416.835 218.908 405.698C220.717 394.562 220.025 383.824 216.879 374.201C213.733 364.579 208.205 356.294 200.664 349.9C193.124 343.506 183.745 339.151 173.154 337.126C162.564 335.101 151.006 335.453 139.254 338.158C127.501 340.863 115.825 345.858 105.006 352.81C94.1863 359.763 84.4732 368.512 76.5158 378.472L92.7157 388.09C98.5526 380.784 105.677 374.367 113.613 369.267C121.549 364.168 130.114 360.504 138.734 358.52C147.355 356.536 155.833 356.278 163.601 357.763C171.369 359.248 178.249 362.443 183.78 367.133C189.311 371.822 193.365 377.9 195.673 384.958C197.981 392.016 198.488 399.893 197.161 408.061C195.834 416.23 192.704 424.501 187.979 432.324C183.254 440.146 177.044 447.339 169.763 453.42L181.555 467.537Z" fill="url(#paint20_linear_1611_24601)" fill-opacity="0.1"/>
<path d="M254.529 2.6349C254.324 5.37734 256.019 7.86716 257.706 10.0272C279.264 37.3531 321.639 48.9088 329.572 86.2302C333.149 103.108 329.675 124.84 318.093 138.271C317.263 139.252 316.477 140.112 315.378 140.754C311.446 136.426 309.35 129.206 305.715 124.288C301.133 118.094 295.679 112.265 289.079 108.232C282.749 104.391 275.7 103.015 269.396 99.2776C256.162 91.3696 245.865 78.6003 241.273 63.8929C234.722 42.9641 240.134 19.2002 254.582 2.69562L254.529 2.6349Z" fill="url(#paint21_linear_1611_24601)" fill-opacity="0.15"/>
<path d="M276.525 13.4384C276.32 16.1808 278.015 18.6707 279.702 20.8307C301.259 48.1566 343.635 59.7123 351.568 97.0336C355.145 113.911 351.671 135.643 340.089 149.074C339.259 150.055 338.473 150.915 337.373 151.558C333.441 147.229 331.345 140.01 327.711 135.091C323.129 128.897 317.674 123.068 311.075 119.036C304.745 115.195 297.696 113.818 291.392 110.081C278.158 102.173 267.861 89.4038 263.269 74.6963C256.717 53.7676 262.13 30.0037 276.577 13.4991L276.525 13.4384Z" fill="url(#paint22_linear_1611_24601)" fill-opacity="0.15"/>
</g>
<rect x="162.641" y="75.0762" width="59.4994" height="18.1287" rx="9.06437" transform="rotate(-13.9981 162.641 75.0762)" fill="black"/>
<g opacity="0.5">
<circle cx="213.491" cy="71.5078" r="3.71872" transform="rotate(76.0019 213.491 71.5078)" stroke="#A0A9BB" stroke-opacity="0.25" stroke-width="0.464839"/>
<circle cx="213.491" cy="71.5078" r="3.71872" transform="rotate(76.0019 213.491 71.5078)" stroke="url(#paint23_linear_1611_24601)" stroke-width="0.464839"/>
</g>
<g filter="url(#filter5_i_1611_24601)">
<ellipse cx="213.872" cy="73.0442" rx="0.964898" ry="1.85936" transform="rotate(76.0019 213.872 73.0442)" fill="url(#paint24_radial_1611_24601)"/>
</g>
<g filter="url(#filter6_i_1611_24601)">
<ellipse cx="0.964898" cy="1.85936" rx="0.964898" ry="1.85936" transform="matrix(-0.24189 -0.970304 -0.970304 0.24189 215.162 70.5234)" fill="url(#paint25_radial_1611_24601)"/>
</g>
<rect x="96.6299" y="125.34" width="0.986145" height="6.90302" transform="rotate(-13.9981 96.6299 125.34)" fill="black"/>
<rect x="298.53" y="75.0137" width="0.986145" height="6.90302" transform="rotate(-13.9981 298.53 75.0137)" fill="black"/>
<rect x="251.433" y="41.0176" width="0.986145" height="6.90302" transform="rotate(76.0019 251.433 41.0176)" fill="black"/>
<rect x="128" y="71.7871" width="0.986145" height="6.90302" transform="rotate(76.0019 128 71.7871)" fill="black"/>
</g>
<g clip-path="url(#clip4_1611_24601)" filter="url(#filter7_f_1611_24601)">
<rect width="4.93357" height="50.2934" rx="1.97229" transform="matrix(-0.969841 -0.243738 -0.243738 0.969841 598.388 289.842)" fill="url(#paint26_linear_1611_24601)"/>
<rect width="4.93357" height="48.3211" rx="0.986145" transform="matrix(-0.969841 -0.243738 -0.243738 0.969841 597.175 290.557)" fill="url(#paint27_linear_1611_24601)"/>
<rect width="5.00378" height="33.4435" rx="1.97229" transform="matrix(0.969841 0.243738 0.243737 -0.969841 369.818 314.363)" fill="url(#paint28_linear_1611_24601)"/>
<rect width="5.00378" height="31.5681" rx="0.986145" transform="matrix(0.969841 0.243738 0.243737 -0.969841 370.957 313.676)" fill="url(#paint29_linear_1611_24601)"/>
<rect width="5.00378" height="32.8184" rx="1.97229" transform="matrix(0.969841 0.243738 0.243737 -0.969841 381.181 269.213)" fill="url(#paint30_linear_1611_24601)"/>
<rect width="5.00378" height="14.3776" rx="1.97229" transform="matrix(0.969841 0.243738 0.243737 -0.969841 392.374 225.938)" fill="url(#paint31_linear_1611_24601)"/>
<rect width="4.21651" height="31.6238" rx="0.986145" transform="matrix(0.969841 0.243738 0.243737 -0.969841 382.653 269.086)" fill="black"/>
<rect width="5.00378" height="12.5022" rx="0.986145" transform="matrix(0.969841 0.243738 0.243737 -0.969841 393.518 225.26)" fill="url(#paint32_linear_1611_24601)"/>
<rect x="422.917" y="112.541" width="211.035" height="423.056" rx="36.9804" transform="rotate(14.1072 422.917 112.541)" fill="black"/>
<rect x="423.632" y="113.736" width="209.063" height="421.084" rx="36.4874" transform="rotate(14.1072 423.632 113.736)" fill="url(#paint33_linear_1611_24601)"/>
<rect x="424.286" y="114.803" width="207.09" height="419.112" rx="35.5012" transform="rotate(14.1072 424.286 114.803)" fill="black"/>
<rect x="427.995" y="121.006" width="196.636" height="408.659" rx="31.6695" transform="rotate(14.1072 427.995 121.006)" fill="white"/>
<rect x="427.015" y="122.037" width="198.109" height="428.973" rx="30.8353" transform="rotate(14.6038 427.015 122.037)" fill="url(#paint34_linear_1611_24601)"/>
<g filter="url(#filter8_f_1611_24601)">
</g>
<rect x="494.721" y="143.531" width="59.4994" height="18.1287" rx="9.06437" transform="rotate(14.1072 494.721 143.531)" fill="black"/>
<g opacity="0.5">
<circle cx="541.257" cy="164.339" r="3.71872" transform="rotate(104.107 541.257 164.339)" stroke="#A0A9BB" stroke-opacity="0.25" stroke-width="0.464839"/>
<circle cx="541.257" cy="164.339" r="3.71872" transform="rotate(104.107 541.257 164.339)" stroke="url(#paint35_linear_1611_24601)" stroke-width="0.464839"/>
</g>
<g filter="url(#filter9_i_1611_24601)">
<ellipse cx="540.87" cy="165.877" rx="0.964898" ry="1.85936" transform="rotate(104.107 540.87 165.877)" fill="url(#paint36_radial_1611_24601)"/>
</g>
<g filter="url(#filter10_i_1611_24601)">
<ellipse cx="0.964898" cy="1.85936" rx="0.964898" ry="1.85936" transform="matrix(0.243738 -0.969841 -0.969841 -0.243738 543.195 164.258)" fill="url(#paint37_radial_1611_24601)"/>
</g>
<rect x="412.814" y="156.771" width="0.986145" height="6.90302" transform="rotate(14.1072 412.814 156.771)" fill="black"/>
<rect x="614.616" y="207.49" width="0.986145" height="6.90302" transform="rotate(14.1072 614.616 207.49)" fill="black"/>
<rect x="589.087" y="155.316" width="0.986145" height="6.90302" transform="rotate(104.107 589.087 155.316)" fill="black"/>
<rect x="465.714" y="124.309" width="0.986145" height="6.90302" transform="rotate(104.107 465.714 124.309)" fill="black"/>
</g>
<g clip-path="url(#clip5_1611_24601)">
<rect width="4.93357" height="50.2934" rx="1.97229" transform="matrix(-0.980448 -0.196777 -0.196777 0.980448 541.719 209.996)" fill="url(#paint38_linear_1611_24601)"/>
<rect width="4.93357" height="48.3211" rx="0.986145" transform="matrix(-0.980448 -0.196777 -0.196777 0.980448 540.542 210.768)" fill="url(#paint39_linear_1611_24601)"/>
<rect width="5.00378" height="33.4435" rx="1.97229" transform="matrix(0.980448 0.196777 0.196777 -0.980448 314.593 245.496)" fill="url(#paint40_linear_1611_24601)"/>
<rect width="5.00378" height="31.5681" rx="0.986145" transform="matrix(0.980448 0.196777 0.196777 -0.980448 315.697 244.754)" fill="url(#paint41_linear_1611_24601)"/>
<rect width="5.00378" height="32.8184" rx="1.97229" transform="matrix(0.980448 0.196777 0.196777 -0.980448 323.77 199.844)" fill="url(#paint42_linear_1611_24601)"/>
<rect width="5.00378" height="14.3776" rx="1.97229" transform="matrix(0.980448 0.196777 0.196777 -0.980448 332.868 156.08)" fill="url(#paint43_linear_1611_24601)"/>
<rect width="4.21651" height="31.6238" rx="0.986145" transform="matrix(0.980448 0.196777 0.196777 -0.980448 325.235 199.646)" fill="black"/>
<rect width="5.00378" height="12.5022" rx="0.986145" transform="matrix(0.980448 0.196777 0.196777 -0.980448 333.978 155.348)" fill="url(#paint44_linear_1611_24601)"/>
<rect x="357.918" y="41.3457" width="211.035" height="423.056" rx="36.9804" transform="rotate(11.3486 357.918 41.3457)" fill="black"/>
<rect x="358.69" y="42.5059" width="209.063" height="421.084" rx="36.4874" transform="rotate(11.3486 358.69 42.5059)" fill="url(#paint45_linear_1611_24601)"/>
<rect x="359.394" y="43.5391" width="207.09" height="419.112" rx="35.5012" transform="rotate(11.3486 359.394 43.5391)" fill="black"/>
<rect x="363.397" y="49.5566" width="196.636" height="408.659" rx="31.6695" transform="rotate(11.3486 363.397 49.5566)" fill="white"/>
<rect x="362.468" y="50.6348" width="198.109" height="428.973" rx="30.8353" transform="rotate(11.8451 362.468 50.6348)" fill="#F7FDF7"/>
<path d="M411.869 318.069C409.52 320.795 405.216 319.892 404.16 316.452L389.591 268.995C388.544 265.587 391.477 262.237 394.883 262.952L441.861 272.804C445.266 273.519 446.606 277.764 444.278 280.465L411.869 318.069Z" fill="#228B22"/>
<g filter="url(#filter11_f_1611_24601)">
<path d="M421.693 271.917L393.292 265.961L392.139 271.46L420.539 277.416L421.693 271.917Z" fill="#0D3D0D"/>
</g>
<path d="M409.549 241.629C411.428 239.472 414.844 240.188 415.698 242.918L424.583 271.332C425.437 274.063 423.088 276.759 420.355 276.186L391.917 270.222C389.184 269.649 388.117 266.236 389.996 264.078L409.549 241.629Z" fill="#23A323"/>
<rect x="431.13" y="68.8438" width="59.4994" height="18.1287" rx="9.06437" transform="rotate(11.3486 431.13 68.8438)" fill="black"/>
<g opacity="0.5">
<circle cx="478.613" cy="87.3869" r="3.71872" transform="rotate(101.349 478.613 87.3869)" stroke="#A0A9BB" stroke-opacity="0.25" stroke-width="0.464839"/>
<circle cx="478.613" cy="87.3869" r="3.71872" transform="rotate(101.349 478.613 87.3869)" stroke="url(#paint46_linear_1611_24601)" stroke-width="0.464839"/>
</g>
<g filter="url(#filter12_i_1611_24601)">
<ellipse cx="478.301" cy="88.9415" rx="0.964898" ry="1.85936" transform="rotate(101.349 478.301 88.9415)" fill="url(#paint47_radial_1611_24601)"/>
</g>
<g filter="url(#filter13_i_1611_24601)">
<ellipse cx="0.964898" cy="1.85936" rx="0.964898" ry="1.85936" transform="matrix(0.196777 -0.980448 -0.980448 -0.196777 480.545 87.2129)" fill="url(#paint48_radial_1611_24601)"/>
</g>
<rect x="349.956" y="86.0117" width="0.986145" height="6.90302" transform="rotate(11.3486 349.956 86.0117)" fill="black"/>
<rect x="553.964" y="126.959" width="0.986145" height="6.90302" transform="rotate(11.3486 553.964 126.959)" fill="black"/>
<rect x="525.954" y="76.0742" width="0.986145" height="6.90302" transform="rotate(101.349 525.954 76.0742)" fill="black"/>
<rect x="401.232" y="51.041" width="0.986145" height="6.90302" transform="rotate(101.349 401.232 51.041)" fill="black"/>
</g>
<g filter="url(#filter14_f_1611_24601)">
<rect x="550.592" y="86.6836" width="94.5023" height="19.0914" fill="black"/>
</g>
<g clip-path="url(#clip6_1611_24601)">
<rect x="500.547" y="17" width="205.934" height="110.091" rx="12.9518" transform="rotate(0.284646 500.547 17)" fill="white"/>
<g filter="url(#filter15_d_1611_24601)">
<rect x="611.782" y="49.9316" width="43.199" height="19.938" rx="2.76917" transform="rotate(0.284646 611.782 49.9316)" fill="white"/>
</g>
<g filter="url(#filter16_d_1611_24601)">
<path d="M632.137 77.7228L636.975 69.4393L627.382 69.3917L632.137 77.7228Z" fill="white"/>
</g>
<path d="M619.863 55.7005L619.858 56.7937L618.532 54.883L617.98 54.8803C618.129 54.9707 618.145 55.1768 618.144 55.333L618.138 56.5891C618.137 56.7154 618.136 56.8416 618.129 56.9646C618.118 57.1772 618.107 57.3366 617.881 57.3986L618.738 57.4029C618.367 57.2881 618.216 56.9583 618.217 56.5895L618.224 55.2736L619.695 57.4077L619.935 57.4089L619.943 55.7008C619.944 55.5746 619.944 55.4483 619.952 55.3254C619.963 55.1128 619.974 54.9533 620.2 54.8913L619.342 54.887C619.714 55.0019 619.865 55.3316 619.863 55.7005ZM621.01 55.7826C620.548 55.7803 620.204 56.1607 620.202 56.6126C620.199 57.0679 620.54 57.4451 621.002 57.4474C621.463 57.4497 621.804 57.0725 621.807 56.6206C621.809 56.1687 621.472 55.7849 621.01 55.7826ZM621.108 57.3582C620.776 57.3565 620.667 56.5651 620.668 56.3292C620.669 56.2062 620.687 55.8773 620.87 55.8783C621.225 55.88 621.335 56.6183 621.333 56.8741C621.333 57.0104 621.308 57.3592 621.108 57.3582ZM622.693 55.8175C622.892 55.8916 622.981 56.0449 622.98 56.2543C622.978 56.5234 622.84 56.8218 622.74 57.0705C622.654 56.8641 622.391 56.2646 622.392 56.0752C622.393 55.9622 622.447 55.8529 622.556 55.8168L621.639 55.8123C621.842 55.903 622.022 56.4589 622.104 56.6653L622.402 57.4211L622.685 57.4225L622.987 56.6763C623.072 56.4674 623.26 55.9101 623.464 55.8214L622.693 55.8175ZM625.726 57.4376L625.872 56.704C625.667 57.218 624.742 57.3463 624.247 57.3505C624.383 56.8095 625.82 56.5475 625.823 55.7866C625.826 55.3413 625.464 55.1467 625.062 55.1447C624.647 55.1427 624.201 55.3531 624.198 55.825C624.197 56.0078 624.316 56.1479 624.502 56.1488C624.698 56.1498 624.835 56.001 624.863 55.815C624.723 55.8143 624.658 55.6545 624.658 55.5349C624.659 55.3455 624.793 55.2232 624.982 55.2241C625.231 55.2253 625.373 55.4254 625.372 55.658C625.369 56.3824 624.161 56.6057 624.157 57.4298L625.726 57.4376ZM626.992 55.1543C626.354 55.1512 626.046 55.7411 626.043 56.3094C626.04 56.8809 626.343 57.4739 626.981 57.4771C627.619 57.4803 627.931 56.8903 627.934 56.3188C627.936 55.7505 627.63 55.1575 626.992 55.1543ZM626.981 57.3973C626.586 57.3954 626.527 56.5876 626.528 56.3184C626.529 56.0493 626.6 55.2321 626.992 55.2341C627.387 55.2361 627.45 56.0439 627.448 56.313C627.447 56.5822 627.373 57.3993 626.981 57.3973ZM629.646 57.4571L629.792 56.7234C629.587 57.2375 628.662 57.3658 628.167 57.37C628.303 56.829 629.74 56.567 629.744 55.806C629.746 55.3608 629.384 55.1662 628.982 55.1642C628.567 55.1622 628.121 55.3726 628.118 55.8445C628.117 56.0272 628.236 56.1674 628.422 56.1683C628.619 56.1693 628.756 56.0204 628.783 55.8345C628.643 55.8338 628.578 55.674 628.578 55.5543C628.579 55.3649 628.713 55.2426 628.902 55.2436C629.151 55.2448 629.293 55.4449 629.292 55.6775C629.289 56.4019 628.081 56.6252 628.077 57.4493L629.646 57.4571ZM631.473 57.4662L631.619 56.7325C631.414 57.2466 630.489 57.3749 629.994 57.3791C630.13 56.8381 631.567 56.5761 631.571 55.8151C631.573 55.3698 631.211 55.1753 630.809 55.1733C630.394 55.1712 629.948 55.3817 629.945 55.8536C629.944 56.0363 630.063 56.1765 630.249 56.1774C630.446 56.1784 630.582 56.0295 630.61 55.8436C630.47 55.8429 630.405 55.683 630.405 55.5634C630.406 55.374 630.54 55.2517 630.729 55.2527C630.978 55.2539 631.12 55.454 631.119 55.6866C631.116 56.411 629.908 56.6343 629.904 57.4584L631.473 57.4662Z" fill="#9CA3AF"/>
<path d="M620.658 60.9962L620.649 62.8183L618.438 59.6338L617.519 59.6292C617.767 59.78 617.793 60.1235 617.792 60.3838L617.782 62.4773C617.781 62.6877 617.78 62.8982 617.768 63.103C617.749 63.4574 617.731 63.7232 617.354 63.8265L618.783 63.8336C618.164 63.6422 617.912 63.0927 617.915 62.4779L617.926 60.2848L620.378 63.8415L620.777 63.8435L620.791 60.9969C620.792 60.7864 620.793 60.576 620.805 60.3711C620.823 60.0167 620.841 59.751 621.219 59.6476L619.79 59.6405C620.409 59.8319 620.661 60.3815 620.658 60.9962ZM623.197 63.9109C623.64 63.9131 624.013 63.627 624.456 63.6292C624.539 63.6296 624.622 63.6411 624.699 63.6581L624.71 61.5536L623.132 61.5457C623.618 61.6478 623.962 61.6717 623.958 62.303L623.954 63.2224C623.849 63.244 623.738 63.2546 623.627 63.254C622.547 63.2486 622.014 62.3765 622.019 61.3796C622.022 60.7205 622.337 59.7362 623.146 59.7403C623.489 59.742 623.776 59.9649 623.774 60.3249C623.774 60.3969 623.757 60.5464 623.652 60.5514C623.728 60.8065 623.898 61.0344 624.186 61.0359C624.447 61.0372 624.603 60.8496 624.604 60.6004C624.607 59.9248 623.833 59.6052 623.269 59.6024C622.045 59.5963 621.275 60.6503 621.269 61.8023C621.264 62.9598 621.99 63.9049 623.197 63.9109ZM628.251 61.0339L628.242 62.856L626.032 59.6715L625.112 59.667C625.361 59.8177 625.387 60.1612 625.386 60.4215L625.375 62.515C625.374 62.7255 625.373 62.9359 625.361 63.1408C625.343 63.4951 625.325 63.7609 624.948 63.8642L626.376 63.8713C625.757 63.68 625.505 63.1304 625.508 62.5157L625.519 60.3225L627.972 63.8793L628.37 63.8813L628.384 61.0346C628.385 60.8241 628.386 60.6137 628.399 60.4088C628.417 60.0544 628.435 59.7887 628.812 59.6853L627.383 59.6782C628.003 59.8696 628.255 60.4192 628.251 61.0339ZM630.983 61.7509C631.058 61.2362 631.233 60.6666 631.55 60.3802C631.644 60.292 631.778 60.2151 631.916 60.2158C632.154 60.217 632.303 60.3673 632.302 60.6054C632.301 60.7217 632.245 60.943 632.095 60.9533C632.127 61.1806 632.281 61.3807 632.525 61.3819C632.802 61.3833 632.969 61.146 632.971 60.8857C632.974 60.2599 632.31 60.0849 631.8 60.0823C630.715 60.0769 630.138 61.3091 630.134 62.2506C630.129 63.1921 630.629 63.9479 631.637 63.9529C632.374 63.9565 633.063 63.5169 633.067 62.7249C633.071 61.9274 632.38 61.5086 631.649 61.505C631.527 61.5043 631.167 61.6576 630.983 61.7509ZM630.949 62.0775C631.088 61.8455 631.394 61.6366 631.649 61.6379C632.158 61.6404 632.288 62.3333 632.286 62.7266C632.284 63.1087 632.142 63.8225 631.638 63.8199C631.023 63.8169 630.934 62.7974 630.936 62.3599C630.937 62.2768 630.943 62.1771 630.949 62.0775ZM634.935 60.0979C633.872 60.0926 633.358 61.0759 633.353 62.0229C633.348 62.9755 633.853 63.9639 634.916 63.9692C635.98 63.9744 636.5 62.9912 636.504 62.0386C636.509 61.0916 635.999 60.1032 634.935 60.0979ZM634.917 63.8362C634.258 63.833 634.159 62.4866 634.162 62.038C634.164 61.5894 634.281 60.2276 634.935 60.2308C635.594 60.2341 635.698 61.5805 635.696 62.029C635.693 62.4776 635.57 63.8395 634.917 63.8362ZM637.157 63.1163C636.936 63.1152 636.747 63.297 636.745 63.5186C636.744 63.729 636.904 63.9015 637.109 63.9247C637.12 63.9469 637.12 63.969 637.12 63.9912C637.119 64.1241 636.996 64.3063 636.891 64.3777L636.946 64.378C637.257 64.2522 637.558 63.866 637.56 63.5226C637.561 63.3011 637.379 63.1174 637.157 63.1163ZM639.403 60.1201C638.339 60.1148 637.825 61.0981 637.82 62.0451C637.816 62.9977 638.32 63.9861 639.384 63.9914C640.447 63.9966 640.967 63.0134 640.972 62.0608C640.976 61.1138 640.466 60.1254 639.403 60.1201ZM639.384 63.8584C638.725 63.8552 638.627 62.5088 638.629 62.0602C638.631 61.6116 638.749 60.2498 639.402 60.253C640.061 60.2563 640.165 61.6026 640.163 62.0512C640.161 62.4998 640.038 63.8617 639.384 63.8584ZM642.891 60.1374C641.828 60.1322 641.314 61.1154 641.309 62.0625C641.304 63.0151 641.809 64.0034 642.872 64.0087C643.935 64.014 644.455 63.0307 644.46 62.0781C644.465 61.1311 643.955 60.1427 642.891 60.1374ZM642.873 63.8758C642.214 63.8725 642.115 62.5262 642.117 62.0776C642.12 61.629 642.237 60.2671 642.891 60.2704C643.55 60.2736 643.654 61.62 643.652 62.0686C643.649 62.5172 643.526 63.879 642.873 63.8758ZM646.38 60.1548C645.316 60.1495 644.802 61.1328 644.797 62.0798C644.793 63.0324 645.297 64.0207 646.361 64.026C647.424 64.0313 647.944 63.048 647.949 62.0955C647.953 61.1484 647.443 60.16 646.38 60.1548ZM646.361 63.8931C645.702 63.8898 645.604 62.5435 645.606 62.0949C645.608 61.6463 645.726 60.2844 646.379 60.2877C647.038 60.291 647.142 61.6373 647.14 62.0859C647.138 62.5345 647.015 63.8963 646.361 63.8931Z" fill="#6B7280"/>
<path d="M523.807 32.8323L521.118 35.4945L518.456 32.8057L523.807 32.8323Z" fill="#22C55E"/>
<path d="M528.596 35.0588C528.558 34.8082 528.399 34.5506 528.116 34.5492C527.808 34.5476 527.659 34.8359 527.658 35.1056C527.655 35.7541 528.366 35.9952 528.899 35.9979C530.337 36.005 531.063 34.7821 531.069 33.4658C531.075 32.3742 530.501 31.498 529.332 31.4922C528.478 31.488 527.744 32.0237 527.739 32.9227C527.735 33.8217 528.471 34.3262 529.318 34.3304C529.466 34.3311 529.891 34.1534 530.097 34.0453C529.977 34.8474 529.645 35.8475 528.9 35.8438C528.624 35.8424 528.419 35.6423 528.421 35.3662C528.421 35.2442 528.467 35.1032 528.596 35.0588ZM530.137 33.6602C529.975 33.942 529.627 34.1778 529.319 34.1763C528.748 34.1735 528.604 33.3508 528.606 32.9142C528.608 32.4904 528.767 31.6435 529.332 31.6463C530.044 31.6499 530.154 32.8705 530.151 33.3713C530.151 33.4548 530.144 33.5511 530.137 33.6602ZM533.301 31.5184C532.068 31.5122 531.472 32.6523 531.466 33.7503C531.461 34.8548 532.046 36.0007 533.279 36.0068C534.512 36.0129 535.115 34.8729 535.12 33.7685C535.125 32.6704 534.534 31.5245 533.301 31.5184ZM533.28 35.8527C532.515 35.8489 532.401 34.2879 532.404 33.7678C532.406 33.2477 532.543 31.6687 533.3 31.6725C534.064 31.6763 534.185 33.2373 534.183 33.7574C534.18 34.2775 534.037 35.8564 533.28 35.8527ZM535.872 36.0197C536.129 36.0209 536.342 35.8101 536.343 35.5533C536.345 35.2964 536.134 35.0835 535.877 35.0822C535.62 35.0809 535.401 35.2917 535.399 35.5486C535.398 35.8054 535.615 36.0184 535.872 36.0197ZM538.481 31.5441C537.248 31.538 536.651 32.678 536.646 33.776C536.64 34.8805 537.226 36.0264 538.458 36.0325C539.691 36.0386 540.294 34.8986 540.3 33.7942C540.305 32.6962 539.714 31.5502 538.481 31.5441ZM538.459 35.8784C537.695 35.8746 537.581 34.3137 537.583 33.7935C537.586 33.2734 537.722 31.6944 538.48 31.6982C539.244 31.702 539.365 33.263 539.362 33.7831C539.36 34.3032 539.217 35.8822 538.459 35.8784ZM542.525 31.5642C541.292 31.5581 540.696 32.6981 540.691 33.7961C540.685 34.9006 541.27 36.0465 542.503 36.0526C543.736 36.0587 544.339 34.9187 544.344 33.8143C544.35 32.7163 543.758 31.5703 542.525 31.5642ZM542.504 35.8985C541.74 35.8947 541.625 34.3338 541.628 33.8136C541.631 33.2935 541.767 31.7145 542.525 31.7183C543.289 31.7221 543.409 33.2831 543.407 33.8032C543.404 34.3233 543.261 35.9023 542.504 35.8985ZM546.396 32.9383C546.399 32.3668 546.157 31.8712 545.522 31.868C544.886 31.8649 544.64 32.3581 544.637 32.9296C544.634 33.5011 544.876 33.9967 545.511 33.9999C546.147 34.003 546.393 33.5098 546.396 32.9383ZM548 31.9125L545.175 35.8026L545.367 35.8036L548.186 31.9134L548 31.9125ZM545.221 32.9325C545.222 32.727 545.194 32.0205 545.521 32.0222C545.849 32.0238 545.813 32.73 545.812 32.9354C545.811 33.1409 545.839 33.8474 545.512 33.8458C545.184 33.8441 545.22 33.138 545.221 32.9325ZM548.711 34.8313C548.714 34.2598 548.473 33.7642 547.837 33.761C547.201 33.7578 546.955 34.2511 546.952 34.8225C546.949 35.394 547.191 35.8897 547.826 35.8928C548.462 35.896 548.708 35.4028 548.711 34.8313ZM547.536 34.8255C547.537 34.62 547.509 33.9135 547.836 33.9151C548.164 33.9167 548.128 34.6229 548.127 34.8284C548.126 35.0339 548.155 35.7404 547.827 35.7387C547.5 35.7371 547.535 35.0309 547.536 34.8255Z" fill="#22C55E"/>
<path d="M521.383 41.2891C521.781 41.291 522.114 41.5496 522.112 41.9669C522.111 42.0504 522.091 42.2237 521.969 42.2295C522.058 42.5253 522.255 42.7896 522.589 42.7912C522.891 42.7927 523.072 42.5753 523.073 42.2864C523.077 41.503 522.18 41.1325 521.525 41.1292C520.106 41.1222 519.214 42.3442 519.207 43.6798C519.201 45.0219 520.043 46.1177 521.443 46.1246C522.342 46.1291 522.954 45.6891 523.151 44.8103L523.1 44.7715C522.79 45.1039 522.365 45.2367 521.922 45.2345C520.709 45.2284 520.071 44.2621 520.077 43.1319C520.081 42.3614 520.458 41.2845 521.383 41.2891ZM526.148 45.8205C526.109 45.846 526.064 45.8586 526.019 45.8584C525.839 45.8575 525.821 45.5813 525.822 45.4593L525.829 43.9824C525.833 43.2954 525.327 42.9268 524.672 42.9236C524.133 42.9209 523.425 43.1678 523.422 43.8099C523.421 44.0604 523.567 44.2987 523.837 44.3C524.197 44.3018 524.429 44.014 524.527 43.6999C524.379 43.6991 524.277 43.6216 524.278 43.4674C524.279 43.3005 524.408 43.0764 524.594 43.0773C524.928 43.079 524.893 43.6439 524.892 43.8622L524.891 44.0677C524.478 44.5151 523.302 44.779 523.298 45.4468C523.296 45.9284 523.616 46.1354 524.066 46.1377C524.432 46.1395 524.715 46.0125 524.915 45.7887C525.004 46.0075 525.273 46.1437 525.504 46.1448C525.793 46.1463 525.928 46.0442 526.147 45.8847L526.148 45.8205ZM524.883 45.6537C524.819 45.6919 524.735 45.7172 524.633 45.7167C524.305 45.7151 524.242 45.4322 524.244 45.1625C524.246 44.7901 524.645 44.5159 524.89 44.2924L524.883 45.6537ZM527.45 46.1545C528.008 46.1573 528.87 45.9625 528.873 45.2561C528.879 44.1966 527.113 44.2136 527.116 43.565C527.117 43.2825 527.33 43.0909 527.613 43.0923C527.67 43.0926 527.722 43.0993 527.773 43.1188C527.76 43.1894 527.759 43.26 527.759 43.3306C527.758 43.4655 527.783 43.639 527.866 43.755C527.942 43.9994 528.127 44.1737 528.391 44.175C528.654 44.1763 528.815 44.0101 528.817 43.7468C528.819 43.3038 528.428 43.0643 528.024 42.9788C528.279 42.1645 529.31 41.3798 530.158 41.384C530.395 41.3852 530.703 41.5152 530.701 41.7913C530.7 41.9646 530.552 42.0602 530.392 42.0594C530.422 42.3935 530.614 42.5999 530.954 42.6016C531.282 42.6033 531.501 42.3218 531.503 42.0136C531.506 41.3265 530.718 41.0979 530.165 41.0951C528.997 41.0893 528.107 41.8426 527.812 42.9456C527.755 42.9389 527.69 42.9386 527.639 42.9383C527.1 42.9356 526.36 43.2017 526.357 43.8438C526.351 44.929 528.034 44.886 528.031 45.5473C528.029 45.8684 527.727 46.0017 527.45 46.0004C527.219 45.9992 526.95 45.863 526.952 45.5998C526.952 45.4457 527.062 45.3306 527.216 45.3314C527.166 45.0743 526.975 44.8101 526.686 44.8086C526.384 44.8071 526.222 45.0439 526.221 45.3264C526.218 45.93 526.968 46.1521 527.45 46.1545ZM532.254 47.2764C532.652 47.2784 533.25 47.1593 533.252 46.6521C533.253 46.4145 533.094 46.2467 532.856 46.2456C532.631 46.2444 532.464 46.3913 532.43 46.6095C532.507 46.6612 532.545 46.7577 532.545 46.8476C532.544 47.021 532.421 47.1231 532.255 47.1223C531.882 47.1204 531.936 46.5428 531.938 46.2988L531.949 43.9807C531.952 43.4478 531.672 42.9584 531.094 42.9555C531.017 42.9551 530.205 43.4327 530.147 43.5159L530.157 41.551C529.738 41.7865 529.333 41.945 528.857 42.0197C529.081 42.2905 529.214 42.4967 529.213 42.8627L529.201 45.2257C529.2 45.5146 529.146 45.9382 528.869 46.0973L530.455 46.1052C530.173 45.9433 530.137 45.5257 530.138 45.2303L530.145 43.9975C530.146 43.7342 530.314 43.4268 530.61 43.4283C530.918 43.4298 531.013 43.7385 531.011 44.0018L531 46.2107C530.996 47.0069 531.541 47.2729 532.254 47.2764ZM527.925 43.5755C527.925 43.4535 527.939 43.3379 527.959 43.2225C528.035 43.2935 528.086 43.39 528.086 43.5056C528.085 43.6148 528.027 43.698 527.931 43.7296C527.924 43.6718 527.925 43.6204 527.925 43.5755ZM534.004 41.6407C533.157 41.6365 532.685 42.1993 532.681 43.0147L532.315 43.0129L532.314 43.167L532.667 43.1688L532.657 45.2428C532.656 45.5318 532.602 45.9553 532.325 46.1145L533.911 46.1224C533.623 45.9604 533.593 45.5429 533.595 45.2475L533.605 43.1734L534.337 43.1771L534.338 43.023C533.914 43.0209 533.311 42.8702 533.314 42.3372C533.315 42.074 533.509 41.8052 533.791 41.8066C533.958 41.8075 534.086 41.9108 534.085 42.0842C534.085 42.2447 533.969 42.3533 533.808 42.3525C533.884 42.5969 534.069 42.8097 534.339 42.8111C534.634 42.8125 534.86 42.6018 534.861 42.3C534.864 41.8376 534.402 41.6427 534.004 41.6407ZM536.171 41.5809C535.649 41.8801 535.469 41.9562 534.871 42.0496C535.095 42.3204 535.228 42.5265 535.227 42.8925L535.215 45.2555C535.213 45.5509 535.166 45.9681 534.883 46.1272L536.476 46.1351C536.187 45.9731 536.151 45.5556 536.152 45.2602L536.171 41.5809ZM538.096 42.9903C537.204 42.9858 536.538 43.721 536.534 44.5943C536.53 45.474 537.188 46.2029 538.08 46.2073C538.973 46.2117 539.631 45.483 539.636 44.6097C539.64 43.7364 538.989 42.9947 538.096 42.9903ZM538.286 46.0349C537.644 46.0318 537.434 44.5024 537.436 44.0465C537.437 43.8089 537.472 43.1734 537.825 43.1752C538.513 43.1786 538.724 44.6052 538.721 45.0996C538.72 45.3629 538.672 46.0369 538.286 46.0349ZM543.377 43.0679C543.762 43.2111 543.933 43.5073 543.931 43.9118C543.929 44.432 543.663 45.0086 543.468 45.4892C543.303 45.0902 542.795 43.9319 542.797 43.5659C542.798 43.3475 542.901 43.1362 543.114 43.0666L541.341 43.0578C541.546 43.1487 541.744 43.49 541.903 43.8504C541.902 43.8697 541.902 43.8825 541.902 43.9018C541.9 44.4219 541.634 44.9985 541.439 45.4791C541.274 45.0802 540.766 43.9218 540.767 43.5558C540.769 43.3375 540.872 43.1261 541.085 43.0565L539.312 43.0477C539.703 43.223 540.051 44.2971 540.21 44.696L540.787 46.1565L541.332 46.1592L541.918 44.7173C541.957 44.6148 542.015 44.461 542.08 44.2943C542.144 44.4552 542.201 44.6032 542.239 44.7061L542.816 46.1666L543.362 46.1693L543.947 44.7274C544.109 44.3237 544.474 43.2467 544.867 43.0753L543.377 43.0679Z" fill="#6B7280"/>
<path d="M517.093 85.3573C519.545 88.2406 526.847 91.0846 536.433 79.3935C548.415 64.7796 563.934 43.2057 582.235 63.014C600.536 82.8224 628.513 128.826 686.314 39.6893" stroke="#22C55E" stroke-width="2.59037" stroke-linecap="round"/>
<g filter="url(#filter17_d_1611_24601)">
<circle cx="631.011" cy="90.1834" r="9.06623" transform="rotate(0.284646 631.011 90.1834)" fill="#22C55E"/>
<circle cx="631.011" cy="90.1834" r="7.00619" transform="rotate(0.284646 631.011 90.1834)" stroke="white" stroke-width="4.12009"/>
</g>
</g>
<defs>
<filter id="filter0_f_1611_24601" x="18" y="116" width="315.429" height="447.045" filterUnits="userSpaceOnUse" color-interpolation-filters="sRGB">
<feFlood flood-opacity="0" result="BackgroundImageFix"/>
<feBlend mode="normal" in="SourceGraphic" in2="BackgroundImageFix" result="shape"/>
<feGaussianBlur stdDeviation="5" result="effect1_foregroundBlur_1611_24601"/>
</filter>
<filter id="filter1_i_1611_24601" x="154.081" y="166.578" width="3.64209" height="2.07227" filterUnits="userSpaceOnUse" color-interpolation-filters="sRGB">
<feFlood flood-opacity="0" result="BackgroundImageFix"/>
<feBlend mode="normal" in="SourceGraphic" in2="BackgroundImageFix" result="shape"/>
<feColorMatrix in="SourceAlpha" type="matrix" values="0 0 0 0 0 0 0 0 0 0 0 0 0 0 0 0 0 0 127 0" result="hardAlpha"/>
<feOffset/>
<feGaussianBlur stdDeviation="0.23242"/>
<feComposite in2="hardAlpha" operator="arithmetic" k2="-1" k3="1"/>
<feColorMatrix type="matrix" values="0 0 0 0 0 0 0 0 0 0 0 0 0 0 0 0 0 0 0.5 0"/>
<feBlend mode="normal" in2="shape" result="effect1_innerShadow_1611_24601"/>
</filter>
<filter id="filter2_i_1611_24601" x="153.349" y="163.566" width="3.64209" height="2.07227" filterUnits="userSpaceOnUse" color-interpolation-filters="sRGB">
<feFlood flood-opacity="0" result="BackgroundImageFix"/>
<feBlend mode="normal" in="SourceGraphic" in2="BackgroundImageFix" result="shape"/>
<feColorMatrix in="SourceAlpha" type="matrix" values="0 0 0 0 0 0 0 0 0 0 0 0 0 0 0 0 0 0 127 0" result="hardAlpha"/>
<feOffset/>
<feGaussianBlur stdDeviation="0.23242"/>
<feComposite in2="hardAlpha" operator="arithmetic" k2="-1" k3="1"/>
<feColorMatrix type="matrix" values="0 0 0 0 0 0 0 0 0 0 0 0 0 0 0 0 0 0 0.5 0"/>
<feBlend mode="normal" in2="shape" result="effect1_innerShadow_1611_24601"/>
</filter>
<filter id="filter3_f_1611_24601" x="211.089" y="49.0888" width="314.122" height="376.727" filterUnits="userSpaceOnUse" color-interpolation-filters="sRGB">
<feFlood flood-opacity="0" result="BackgroundImageFix"/>
<feBlend mode="normal" in="SourceGraphic" in2="BackgroundImageFix" result="shape"/>
<feGaussianBlur stdDeviation="42.9556" result="effect1_foregroundBlur_1611_24601"/>
</filter>
<filter id="filter4_f_1611_24601" x="0.124977" y="14.0303" width="316.751" height="410.939" filterUnits="userSpaceOnUse" color-interpolation-filters="sRGB">
<feFlood flood-opacity="0" result="BackgroundImageFix"/>
<feBlend mode="normal" in="SourceGraphic" in2="BackgroundImageFix" result="shape"/>
<feGaussianBlur stdDeviation="42.9556" result="effect1_foregroundBlur_1611_24601"/>
</filter>
<filter id="filter5_i_1611_24601" x="212.053" y="72.0059" width="3.63867" height="2.07812" filterUnits="userSpaceOnUse" color-interpolation-filters="sRGB">
<feFlood flood-opacity="0" result="BackgroundImageFix"/>
<feBlend mode="normal" in="SourceGraphic" in2="BackgroundImageFix" result="shape"/>
<feColorMatrix in="SourceAlpha" type="matrix" values="0 0 0 0 0 0 0 0 0 0 0 0 0 0 0 0 0 0 127 0" result="hardAlpha"/>
<feOffset/>
<feGaussianBlur stdDeviation="0.23242"/>
<feComposite in2="hardAlpha" operator="arithmetic" k2="-1" k3="1"/>
<feColorMatrix type="matrix" values="0 0 0 0 0 0 0 0 0 0 0 0 0 0 0 0 0 0 0.5 0"/>
<feBlend mode="normal" in2="shape" result="effect1_innerShadow_1611_24601"/>
</filter>
<filter id="filter6_i_1611_24601" x="211.305" y="68.998" width="3.63867" height="2.07812" filterUnits="userSpaceOnUse" color-interpolation-filters="sRGB">
<feFlood flood-opacity="0" result="BackgroundImageFix"/>
<feBlend mode="normal" in="SourceGraphic" in2="BackgroundImageFix" result="shape"/>
<feColorMatrix in="SourceAlpha" type="matrix" values="0 0 0 0 0 0 0 0 0 0 0 0 0 0 0 0 0 0 127 0" result="hardAlpha"/>
<feOffset/>
<feGaussianBlur stdDeviation="0.23242"/>
<feComposite in2="hardAlpha" operator="arithmetic" k2="-1" k3="1"/>
<feColorMatrix type="matrix" values="0 0 0 0 0 0 0 0 0 0 0 0 0 0 0 0 0 0 0.5 0"/>
<feBlend mode="normal" in2="shape" result="effect1_innerShadow_1611_24601"/>
</filter>
<filter id="filter7_f_1611_24601" x="313" y="101" width="330.389" height="452.357" filterUnits="userSpaceOnUse" color-interpolation-filters="sRGB">
<feFlood flood-opacity="0" result="BackgroundImageFix"/>
<feBlend mode="normal" in="SourceGraphic" in2="BackgroundImageFix" result="shape"/>
<feGaussianBlur stdDeviation="5" result="effect1_foregroundBlur_1611_24601"/>
</filter>
<filter id="filter8_f_1611_24601" x="413.004" y="305.578" width="95.5363" height="78.7932" filterUnits="userSpaceOnUse" color-interpolation-filters="sRGB">
<feFlood flood-opacity="0" result="BackgroundImageFix"/>
<feBlend mode="normal" in="SourceGraphic" in2="BackgroundImageFix" result="shape"/>
<feGaussianBlur stdDeviation="16.5098" result="effect1_foregroundBlur_1611_24601"/>
</filter>
<filter id="filter9_i_1611_24601" x="539.051" y="164.838" width="3.6377" height="2.08008" filterUnits="userSpaceOnUse" color-interpolation-filters="sRGB">
<feFlood flood-opacity="0" result="BackgroundImageFix"/>
<feBlend mode="normal" in="SourceGraphic" in2="BackgroundImageFix" result="shape"/>
<feColorMatrix in="SourceAlpha" type="matrix" values="0 0 0 0 0 0 0 0 0 0 0 0 0 0 0 0 0 0 127 0" result="hardAlpha"/>
<feOffset/>
<feGaussianBlur stdDeviation="0.23242"/>
<feComposite in2="hardAlpha" operator="arithmetic" k2="-1" k3="1"/>
<feColorMatrix type="matrix" values="0 0 0 0 0 0 0 0 0 0 0 0 0 0 0 0 0 0 0.5 0"/>
<feBlend mode="normal" in2="shape" result="effect1_innerShadow_1611_24601"/>
</filter>
<filter id="filter10_i_1611_24601" x="539.808" y="161.828" width="3.63721" height="2.08008" filterUnits="userSpaceOnUse" color-interpolation-filters="sRGB">
<feFlood flood-opacity="0" result="BackgroundImageFix"/>
<feBlend mode="normal" in="SourceGraphic" in2="BackgroundImageFix" result="shape"/>
<feColorMatrix in="SourceAlpha" type="matrix" values="0 0 0 0 0 0 0 0 0 0 0 0 0 0 0 0 0 0 127 0" result="hardAlpha"/>
<feOffset/>
<feGaussianBlur stdDeviation="0.23242"/>
<feComposite in2="hardAlpha" operator="arithmetic" k2="-1" k3="1"/>
<feColorMatrix type="matrix" values="0 0 0 0 0 0 0 0 0 0 0 0 0 0 0 0 0 0 0.5 0"/>
<feBlend mode="normal" in2="shape" result="effect1_innerShadow_1611_24601"/>
</filter>
<filter id="filter11_f_1611_24601" x="359.12" y="232.941" width="95.5925" height="77.4943" filterUnits="userSpaceOnUse" color-interpolation-filters="sRGB">
<feFlood flood-opacity="0" result="BackgroundImageFix"/>
<feBlend mode="normal" in="SourceGraphic" in2="BackgroundImageFix" result="shape"/>
<feGaussianBlur stdDeviation="16.5098" result="effect1_foregroundBlur_1611_24601"/>
</filter>
<filter id="filter12_i_1611_24601" x="476.468" y="87.9277" width="3.66602" height="2.0293" filterUnits="userSpaceOnUse" color-interpolation-filters="sRGB">
<feFlood flood-opacity="0" result="BackgroundImageFix"/>
<feBlend mode="normal" in="SourceGraphic" in2="BackgroundImageFix" result="shape"/>
<feColorMatrix in="SourceAlpha" type="matrix" values="0 0 0 0 0 0 0 0 0 0 0 0 0 0 0 0 0 0 127 0" result="hardAlpha"/>
<feOffset/>
<feGaussianBlur stdDeviation="0.23242"/>
<feComposite in2="hardAlpha" operator="arithmetic" k2="-1" k3="1"/>
<feColorMatrix type="matrix" values="0 0 0 0 0 0 0 0 0 0 0 0 0 0 0 0 0 0 0.5 0"/>
<feBlend mode="normal" in2="shape" result="effect1_innerShadow_1611_24601"/>
</filter>
<filter id="filter13_i_1611_24601" x="477.079" y="84.8867" width="3.66602" height="2.0293" filterUnits="userSpaceOnUse" color-interpolation-filters="sRGB">
<feFlood flood-opacity="0" result="BackgroundImageFix"/>
<feBlend mode="normal" in="SourceGraphic" in2="BackgroundImageFix" result="shape"/>
<feColorMatrix in="SourceAlpha" type="matrix" values="0 0 0 0 0 0 0 0 0 0 0 0 0 0 0 0 0 0 127 0" result="hardAlpha"/>
<feOffset/>
<feGaussianBlur stdDeviation="0.23242"/>
<feComposite in2="hardAlpha" operator="arithmetic" k2="-1" k3="1"/>
<feColorMatrix type="matrix" values="0 0 0 0 0 0 0 0 0 0 0 0 0 0 0 0 0 0 0.5 0"/>
<feBlend mode="normal" in2="shape" result="effect1_innerShadow_1611_24601"/>
</filter>
<filter id="filter14_f_1611_24601" x="464.681" y="0.772438" width="266.325" height="190.914" filterUnits="userSpaceOnUse" color-interpolation-filters="sRGB">
<feFlood flood-opacity="0" result="BackgroundImageFix"/>
<feBlend mode="normal" in="SourceGraphic" in2="BackgroundImageFix" result="shape"/>
<feGaussianBlur stdDeviation="42.9556" result="effect1_foregroundBlur_1611_24601"/>
</filter>
<filter id="filter15_d_1611_24601" x="605.051" y="47.73" width="56.562" height="33.417" filterUnits="userSpaceOnUse" color-interpolation-filters="sRGB">
<feFlood flood-opacity="0" result="BackgroundImageFix"/>
<feColorMatrix in="SourceAlpha" type="matrix" values="0 0 0 0 0 0 0 0 0 0 0 0 0 0 0 0 0 0 127 0" result="hardAlpha"/>
<feOffset dy="4.43067"/>
<feGaussianBlur stdDeviation="3.323"/>
<feComposite in2="hardAlpha" operator="out"/>
<feColorMatrix type="matrix" values="0 0 0 0 0.666875 0 0 0 0 0.663889 0 0 0 0 0.669444 0 0 0 0.15 0"/>
<feBlend mode="normal" in2="BackgroundImageFix" result="effect1_dropShadow_1611_24601"/>
<feBlend mode="normal" in="SourceGraphic" in2="effect1_dropShadow_1611_24601" result="shape"/>
</filter>
<filter id="filter16_d_1611_24601" x="620.736" y="67.1772" width="22.8848" height="21.6221" filterUnits="userSpaceOnUse" color-interpolation-filters="sRGB">
<feFlood flood-opacity="0" result="BackgroundImageFix"/>
<feColorMatrix in="SourceAlpha" type="matrix" values="0 0 0 0 0 0 0 0 0 0 0 0 0 0 0 0 0 0 127 0" result="hardAlpha"/>
<feOffset dy="4.43067"/>
<feGaussianBlur stdDeviation="3.323"/>
<feComposite in2="hardAlpha" operator="out"/>
<feColorMatrix type="matrix" values="0 0 0 0 0.666875 0 0 0 0 0.663889 0 0 0 0 0.669444 0 0 0 0.15 0"/>
<feBlend mode="normal" in2="BackgroundImageFix" result="effect1_dropShadow_1611_24601"/>
<feBlend mode="normal" in="SourceGraphic" in2="effect1_dropShadow_1611_24601" result="shape"/>
</filter>
<filter id="filter17_d_1611_24601" x="613.705" y="81.1172" width="34.6127" height="34.6132" filterUnits="userSpaceOnUse" color-interpolation-filters="sRGB">
<feFlood flood-opacity="0" result="BackgroundImageFix"/>
<feColorMatrix in="SourceAlpha" type="matrix" values="0 0 0 0 0 0 0 0 0 0 0 0 0 0 0 0 0 0 127 0" result="hardAlpha"/>
<feOffset dy="8.24019"/>
<feGaussianBlur stdDeviation="4.12009"/>
<feComposite in2="hardAlpha" operator="out"/>
<feColorMatrix type="matrix" values="0 0 0 0 0.0509804 0 0 0 0 0.0392157 0 0 0 0 0.172549 0 0 0 0.08 0"/>
<feBlend mode="normal" in2="BackgroundImageFix" result="effect1_dropShadow_1611_24601"/>
<feBlend mode="normal" in="SourceGraphic" in2="effect1_dropShadow_1611_24601" result="shape"/>
</filter>
<linearGradient id="paint0_linear_1611_24601" x1="2.46679" y1="0" x2="2.46679" y2="50.2934" gradientUnits="userSpaceOnUse">
<stop stop-color="#3D0072"/>
<stop offset="1" stop-color="#80609B"/>
</linearGradient>
<linearGradient id="paint1_linear_1611_24601" x1="2.46679" y1="0" x2="2.46679" y2="48.3211" gradientUnits="userSpaceOnUse">
<stop stop-color="#3D0072"/>
<stop offset="1" stop-color="#80609B"/>
</linearGradient>
<linearGradient id="paint2_linear_1611_24601" x1="2.50189" y1="0" x2="2.50189" y2="32.8183" gradientUnits="userSpaceOnUse">
<stop stop-color="#3D0072"/>
<stop offset="1" stop-color="#80609B"/>
</linearGradient>
<linearGradient id="paint3_linear_1611_24601" x1="2.50189" y1="0" x2="2.50189" y2="14.3776" gradientUnits="userSpaceOnUse">
<stop stop-color="#3D0072"/>
<stop offset="1" stop-color="#80609B"/>
</linearGradient>
<linearGradient id="paint4_linear_1611_24601" x1="2.50189" y1="0" x2="2.50189" y2="12.5022" gradientUnits="userSpaceOnUse">
<stop stop-color="#3D0072"/>
<stop offset="1" stop-color="#80609B"/>
</linearGradient>
<linearGradient id="paint5_linear_1611_24601" x1="236.947" y1="176.188" x2="27.8843" y2="597.272" gradientUnits="userSpaceOnUse">
<stop stop-color="#EFEFEF"/>
<stop offset="1" stop-color="#3D0072"/>
</linearGradient>
<linearGradient id="paint6_linear_1611_24601" x1="134.241" y1="179.525" x2="134.241" y2="609.931" gradientUnits="userSpaceOnUse">
<stop stop-color="#FFDF37"/>
<stop offset="1" stop-color="#FF3737" stop-opacity="0"/>
</linearGradient>
<linearGradient id="paint7_linear_1611_24601" x1="208.993" y1="94.4738" x2="244.22" y2="238.978" gradientUnits="userSpaceOnUse">
<stop stop-color="white"/>
<stop offset="1" stop-color="white" stop-opacity="0"/>
</linearGradient>
<linearGradient id="paint8_linear_1611_24601" x1="208.993" y1="94.4738" x2="244.22" y2="238.978" gradientUnits="userSpaceOnUse">
<stop stop-color="white"/>
<stop offset="1" stop-color="white" stop-opacity="0"/>
</linearGradient>
<linearGradient id="paint9_linear_1611_24601" x1="150.947" y1="165.279" x2="154.513" y2="171.018" gradientUnits="userSpaceOnUse">
<stop stop-color="#010005" stop-opacity="0.66"/>
<stop offset="1" stop-color="#2E2D31"/>
</linearGradient>
<radialGradient id="paint10_radial_1611_24601" cx="0" cy="0" r="1" gradientUnits="userSpaceOnUse" gradientTransform="translate(155.416 167.614) rotate(90) scale(2.38434 0.980282)">
<stop stop-color="#1F85DE"/>
<stop offset="0.257948" stop-color="#1B75C9"/>
<stop offset="1" stop-color="#000232"/>
</radialGradient>
<radialGradient id="paint11_radial_1611_24601" cx="0" cy="0" r="1" gradientUnits="userSpaceOnUse" gradientTransform="translate(0.478645 1.85936) rotate(90) scale(2.38434 0.980282)">
<stop stop-color="#1F85DE"/>
<stop offset="0.257948" stop-color="#1B75C9"/>
<stop offset="1" stop-color="#000232"/>
</radialGradient>
<linearGradient id="paint12_linear_1611_24601" x1="2.46679" y1="0" x2="2.46679" y2="50.2934" gradientUnits="userSpaceOnUse">
<stop stop-color="#3D0072"/>
<stop offset="1" stop-color="#80609B"/>
</linearGradient>
<linearGradient id="paint13_linear_1611_24601" x1="2.46679" y1="0" x2="2.46679" y2="48.3211" gradientUnits="userSpaceOnUse">
<stop stop-color="#3D0072"/>
<stop offset="1" stop-color="#80609B"/>
</linearGradient>
<linearGradient id="paint14_linear_1611_24601" x1="2.50189" y1="0" x2="2.50189" y2="33.4435" gradientUnits="userSpaceOnUse">
<stop stop-color="#3D0072"/>
<stop offset="1" stop-color="#80609B"/>
</linearGradient>
<linearGradient id="paint15_linear_1611_24601" x1="2.50189" y1="0" x2="2.50189" y2="31.5681" gradientUnits="userSpaceOnUse">
<stop stop-color="#3D0072"/>
<stop offset="1" stop-color="#80609B"/>
</linearGradient>
<linearGradient id="paint16_linear_1611_24601" x1="2.50189" y1="0" x2="2.50189" y2="32.8183" gradientUnits="userSpaceOnUse">
<stop stop-color="#3D0072"/>
<stop offset="1" stop-color="#80609B"/>
</linearGradient>
<linearGradient id="paint17_linear_1611_24601" x1="2.50189" y1="0" x2="2.50189" y2="14.3776" gradientUnits="userSpaceOnUse">
<stop stop-color="#3D0072"/>
<stop offset="1" stop-color="#80609B"/>
</linearGradient>
<linearGradient id="paint18_linear_1611_24601" x1="2.50189" y1="0" x2="2.50189" y2="12.5022" gradientUnits="userSpaceOnUse">
<stop stop-color="#3D0072"/>
<stop offset="1" stop-color="#80609B"/>
</linearGradient>
<linearGradient id="paint19_linear_1611_24601" x1="294.964" y1="82.2852" x2="85.9009" y2="503.369" gradientUnits="userSpaceOnUse">
<stop stop-color="#EFEFEF"/>
<stop offset="1" stop-color="#3D0072"/>
</linearGradient>
<linearGradient id="paint20_linear_1611_24601" x1="181.555" y1="467.537" x2="93.0557" y2="361.591" gradientUnits="userSpaceOnUse">
<stop stop-color="white"/>
<stop offset="1" stop-color="white" stop-opacity="0"/>
</linearGradient>
<linearGradient id="paint21_linear_1611_24601" x1="266.582" y1="-0.369783" x2="302.56" y2="143.95" gradientUnits="userSpaceOnUse">
<stop stop-color="white"/>
<stop offset="1" stop-color="white" stop-opacity="0"/>
</linearGradient>
<linearGradient id="paint22_linear_1611_24601" x1="266.582" y1="-0.369783" x2="302.56" y2="143.95" gradientUnits="userSpaceOnUse">
<stop stop-color="white"/>
<stop offset="1" stop-color="white" stop-opacity="0"/>
</linearGradient>
<linearGradient id="paint23_linear_1611_24601" x1="208.908" y1="70.7111" x2="212.475" y2="76.4498" gradientUnits="userSpaceOnUse">
<stop stop-color="#010005" stop-opacity="0.66"/>
<stop offset="1" stop-color="#2E2D31"/>
</linearGradient>
<radialGradient id="paint24_radial_1611_24601" cx="0" cy="0" r="1" gradientUnits="userSpaceOnUse" gradientTransform="translate(213.386 73.0442) rotate(90) scale(2.38434 0.980282)">
<stop stop-color="#1F85DE"/>
<stop offset="0.257948" stop-color="#1B75C9"/>
<stop offset="1" stop-color="#000232"/>
</radialGradient>
<radialGradient id="paint25_radial_1611_24601" cx="0" cy="0" r="1" gradientUnits="userSpaceOnUse" gradientTransform="translate(0.478645 1.85936) rotate(90) scale(2.38434 0.980282)">
<stop stop-color="#1F85DE"/>
<stop offset="0.257948" stop-color="#1B75C9"/>
<stop offset="1" stop-color="#000232"/>
</radialGradient>
<linearGradient id="paint26_linear_1611_24601" x1="2.46679" y1="0" x2="2.46679" y2="50.2934" gradientUnits="userSpaceOnUse">
<stop stop-color="#228922"/>
<stop offset="1" stop-color="#23A323"/>
</linearGradient>
<linearGradient id="paint27_linear_1611_24601" x1="2.46679" y1="0" x2="2.46679" y2="48.3211" gradientUnits="userSpaceOnUse">
<stop stop-color="#228922"/>
<stop offset="1" stop-color="#23A323"/>
</linearGradient>
<linearGradient id="paint28_linear_1611_24601" x1="2.50189" y1="0" x2="2.50189" y2="33.4435" gradientUnits="userSpaceOnUse">
<stop stop-color="#228922"/>
<stop offset="1" stop-color="#23A323"/>
</linearGradient>
<linearGradient id="paint29_linear_1611_24601" x1="2.50189" y1="0" x2="2.50189" y2="31.5681" gradientUnits="userSpaceOnUse">
<stop stop-color="#228922"/>
<stop offset="1" stop-color="#23A323"/>
</linearGradient>
<linearGradient id="paint30_linear_1611_24601" x1="2.50189" y1="0" x2="2.50189" y2="32.8184" gradientUnits="userSpaceOnUse">
<stop stop-color="#228922"/>
<stop offset="1" stop-color="#23A323"/>
</linearGradient>
<linearGradient id="paint31_linear_1611_24601" x1="2.50189" y1="0" x2="2.50189" y2="14.3776" gradientUnits="userSpaceOnUse">
<stop stop-color="#228922"/>
<stop offset="1" stop-color="#23A323"/>
</linearGradient>
<linearGradient id="paint32_linear_1611_24601" x1="2.50189" y1="0" x2="2.50189" y2="12.5022" gradientUnits="userSpaceOnUse">
<stop stop-color="#228922"/>
<stop offset="1" stop-color="#23A323"/>
</linearGradient>
<linearGradient id="paint33_linear_1611_24601" x1="632.695" y1="113.736" x2="423.632" y2="534.82" gradientUnits="userSpaceOnUse">
<stop stop-color="#EFEFEF"/>
<stop offset="1" stop-color="#3D0072"/>
</linearGradient>
<linearGradient id="paint34_linear_1611_24601" x1="526.07" y1="122.037" x2="526.07" y2="551.01" gradientUnits="userSpaceOnUse">
<stop stop-color="#23A323"/>
<stop offset="1" stop-color="#FFCC00"/>
</linearGradient>
<linearGradient id="paint35_linear_1611_24601" x1="536.675" y1="163.542" x2="540.241" y2="169.281" gradientUnits="userSpaceOnUse">
<stop stop-color="#010005" stop-opacity="0.66"/>
<stop offset="1" stop-color="#2E2D31"/>
</linearGradient>
<radialGradient id="paint36_radial_1611_24601" cx="0" cy="0" r="1" gradientUnits="userSpaceOnUse" gradientTransform="translate(540.384 165.877) rotate(90) scale(2.38434 0.980282)">
<stop stop-color="#1F85DE"/>
<stop offset="0.257948" stop-color="#1B75C9"/>
<stop offset="1" stop-color="#000232"/>
</radialGradient>
<radialGradient id="paint37_radial_1611_24601" cx="0" cy="0" r="1" gradientUnits="userSpaceOnUse" gradientTransform="translate(0.478645 1.85936) rotate(90) scale(2.38434 0.980282)">
<stop stop-color="#1F85DE"/>
<stop offset="0.257948" stop-color="#1B75C9"/>
<stop offset="1" stop-color="#000232"/>
</radialGradient>
<linearGradient id="paint38_linear_1611_24601" x1="2.46679" y1="0" x2="2.46679" y2="50.2934" gradientUnits="userSpaceOnUse">
<stop stop-color="#228922"/>
<stop offset="1" stop-color="#23A323"/>
</linearGradient>
<linearGradient id="paint39_linear_1611_24601" x1="2.46679" y1="0" x2="2.46679" y2="48.3211" gradientUnits="userSpaceOnUse">
<stop stop-color="#228922"/>
<stop offset="1" stop-color="#23A323"/>
</linearGradient>
<linearGradient id="paint40_linear_1611_24601" x1="2.50189" y1="0" x2="2.50189" y2="33.4435" gradientUnits="userSpaceOnUse">
<stop stop-color="#228922"/>
<stop offset="1" stop-color="#23A323"/>
</linearGradient>
<linearGradient id="paint41_linear_1611_24601" x1="2.50189" y1="0" x2="2.50189" y2="31.5681" gradientUnits="userSpaceOnUse">
<stop stop-color="#228922"/>
<stop offset="1" stop-color="#23A323"/>
</linearGradient>
<linearGradient id="paint42_linear_1611_24601" x1="2.50189" y1="0" x2="2.50189" y2="32.8184" gradientUnits="userSpaceOnUse">
<stop stop-color="#228922"/>
<stop offset="1" stop-color="#23A323"/>
</linearGradient>
<linearGradient id="paint43_linear_1611_24601" x1="2.50189" y1="0" x2="2.50189" y2="14.3776" gradientUnits="userSpaceOnUse">
<stop stop-color="#228922"/>
<stop offset="1" stop-color="#23A323"/>
</linearGradient>
<linearGradient id="paint44_linear_1611_24601" x1="2.50189" y1="0" x2="2.50189" y2="12.5022" gradientUnits="userSpaceOnUse">
<stop stop-color="#228922"/>
<stop offset="1" stop-color="#23A323"/>
</linearGradient>
<linearGradient id="paint45_linear_1611_24601" x1="567.753" y1="42.5059" x2="358.69" y2="463.59" gradientUnits="userSpaceOnUse">
<stop stop-color="#EFEFEF"/>
<stop offset="1" stop-color="#3D0072"/>
</linearGradient>
<linearGradient id="paint46_linear_1611_24601" x1="474.031" y1="86.5902" x2="477.597" y2="92.3289" gradientUnits="userSpaceOnUse">
<stop stop-color="#010005" stop-opacity="0.66"/>
<stop offset="1" stop-color="#2E2D31"/>
</linearGradient>
<radialGradient id="paint47_radial_1611_24601" cx="0" cy="0" r="1" gradientUnits="userSpaceOnUse" gradientTransform="translate(477.815 88.9415) rotate(90) scale(2.38434 0.980282)">
<stop stop-color="#1F85DE"/>
<stop offset="0.257948" stop-color="#1B75C9"/>
<stop offset="1" stop-color="#000232"/>
</radialGradient>
<radialGradient id="paint48_radial_1611_24601" cx="0" cy="0" r="1" gradientUnits="userSpaceOnUse" gradientTransform="translate(0.478645 1.85936) rotate(90) scale(2.38434 0.980282)">
<stop stop-color="#1F85DE"/>
<stop offset="0.257948" stop-color="#1B75C9"/>
<stop offset="1" stop-color="#000232"/>
</radialGradient>
<clipPath id="clip0_1611_24601">
<rect width="215.745" height="389.381" fill="white" transform="translate(28 173.025) rotate(-12.5896)"/>
</clipPath>
<clipPath id="clip1_1611_24601">
<rect x="34.7734" y="179.525" width="198.935" height="430.406" rx="27.6998" transform="rotate(-13.7003 34.7734 179.525)" fill="white"/>
</clipPath>
<clipPath id="clip2_1611_24601">
<rect width="215.745" height="389.381" fill="white" transform="translate(86 79.1211) rotate(-12.8874)"/>
</clipPath>
<clipPath id="clip3_1611_24601">
<rect x="92.8071" y="85.5859" width="198.935" height="430.406" rx="27.6998" transform="rotate(-13.9981 92.8071 85.5859)" fill="white"/>
</clipPath>
<clipPath id="clip4_1611_24601">
<rect width="215.745" height="389.381" fill="white" transform="translate(425.209 111) rotate(15.2179)"/>
</clipPath>
<clipPath id="clip5_1611_24601">
<rect width="215.745" height="389.381" fill="white" transform="translate(360.133 39.6973) rotate(12.4593)"/>
</clipPath>
<clipPath id="clip6_1611_24601">
<rect x="500.547" y="17" width="205.934" height="110.091" rx="12.9518" transform="rotate(0.284646 500.547 17)" fill="white"/>
</clipPath>
</defs>
</svg>
