<svg width="266" height="400" viewBox="0 0 266 400" fill="none" xmlns="http://www.w3.org/2000/svg">
<g clip-path="url(#clip0_2603_28340)">
<rect x="0.639648" width="264.639" height="399.189" rx="52" fill="#D2FFDE"/>
<g opacity="0.2">
<path d="M-69.2549 115.223H-4.88021C42.7118 115.223 85.7958 143.379 104.902 186.967L134.439 254.354C146.055 280.855 166.866 302.26 193.03 314.618L298.731 364.542" stroke="#64A475" stroke-opacity="0.5" stroke-width="2.3973"/>
<path d="M-63.2822 149.5H8.45145C55.3716 149.5 97.9777 176.876 117.476 219.553L149.157 288.894C161.187 315.225 182.341 336.313 208.71 348.261L320.286 398.819" stroke="#64A475" stroke-opacity="0.5" stroke-width="2.3973"/>
<path d="M-50.8096 198.645H-7.41266C42.0795 198.645 86.4828 229.063 104.36 275.213L128.119 336.549C138.48 363.298 158.092 385.445 183.391 398.966L272.826 446.765" stroke="#64A475" stroke-opacity="0.5" stroke-width="2.3973"/>
</g>
</g>
<defs>
<clipPath id="clip0_2603_28340">
<path d="M0.639648 52.0357C0.639648 23.2972 23.9369 0 52.6755 0H213.243C241.982 0 265.279 23.2972 265.279 52.0358V399.189H52.6754C23.9369 399.189 0.639648 375.892 0.639648 347.153V52.0357Z" fill="white"/>
</clipPath>
</defs>
</svg>
