<svg width="432" height="125" viewBox="0 0 432 125" fill="none" xmlns="http://www.w3.org/2000/svg">
<path d="M46.9615 35.08C32.7265 35.08 25.0565 47.235 25.0565 60.365C25.0565 71.61 30.6465 82.14 41.2415 84.935C39.8765 85.585 38.5115 86.235 37.1465 86.82C36.4965 87.08 35.4565 87.145 34.7415 87.405C32.3365 88.25 29.9315 90.2 29.9315 92.93C29.9315 95.53 31.6865 96.635 34.0265 96.635C36.8865 96.635 38.4465 94.685 39.4215 92.215C38.1865 92.215 36.1715 91.695 36.1715 90.135C36.1715 88.705 37.9265 88.185 39.0965 88.185C44.4915 88.185 55.7365 99.235 64.0565 99.235C68.0215 99.235 70.7515 96.375 70.7515 92.475C70.7515 90.85 70.3615 89.29 69.7765 87.86C69.1265 89.94 66.3315 90.2 64.5115 90.2C56.7115 90.2 49.0415 87.145 41.2415 86.69L43.8415 85.455C44.8165 85.585 45.8565 85.65 46.9615 85.65C61.1965 85.65 68.9315 73.495 68.9315 60.365C68.9315 47.235 61.1965 35.08 46.9615 35.08ZM46.9615 84.09C36.8215 84.09 34.5465 67.905 34.5465 60.43C34.5465 53.085 36.8865 36.64 46.9615 36.64C57.1015 36.64 59.3765 52.89 59.3765 60.3C59.3765 67.645 57.0365 84.09 46.9615 84.09ZM71.1812 53.605C74.0412 55.23 74.4962 59.455 74.4962 62.445V75.185C74.4962 80.58 77.3562 85.52 83.2062 85.52C83.9862 85.52 92.1762 80.645 92.7612 79.8C93.0862 81.555 93.7362 83.375 94.1262 85H105.761C103.096 81.685 102.121 79.02 102.121 74.795V53.605H89.3812C92.3062 55.23 92.6312 59.455 92.6312 62.445V71.675C92.6312 73.235 92.5012 74.925 92.5012 76.615C91.9812 78.76 90.5512 80.71 88.0812 80.71C84.8962 80.71 83.9862 77.59 83.9862 74.925V53.605H71.1812ZM113.576 52.11C116.176 52.11 118.321 49.965 118.321 47.365C118.321 44.765 116.176 42.62 113.576 42.62C110.976 42.62 108.831 44.765 108.831 47.365C108.831 49.965 110.976 52.11 113.576 52.11ZM122.156 85C119.231 83.375 118.906 79.15 118.906 76.16V53.605C113.641 56.66 111.821 57.44 105.776 58.415C108.051 61.145 109.416 63.225 109.416 66.93V76.16C109.416 79.085 108.896 83.375 106.101 85H122.156ZM138.208 63.745C139.313 67.385 141.458 69.79 145.423 69.79C148.933 69.79 150.948 67.515 150.948 64.135C150.948 56.985 143.798 53.085 137.428 53.085C128.198 53.085 122.673 60.95 122.673 69.595C122.673 78.565 129.173 85.65 138.273 85.65C144.448 85.65 149.128 82.855 152.118 77.46L151.598 77.07C150.233 78.435 146.203 78.89 144.383 78.89C136.063 78.89 132.358 71.22 132.358 63.875C132.358 61.34 133.138 54.645 136.778 54.645C139.703 54.645 142.563 57.505 142.563 60.43C142.563 62.9 140.353 63.745 138.208 63.745ZM167.859 85C164.934 83.375 164.544 79.15 164.544 76.16V68.425L173.709 85H187.944C180.924 81.1 174.229 67.45 170.394 60.3C171.109 59.65 172.149 59.26 173.124 59.26C174.489 59.26 175.984 60.04 175.984 61.6C175.984 62.315 175.724 62.965 175.334 63.55C175.724 64.785 177.349 65.37 178.519 65.37C182.159 65.37 184.954 62.51 184.954 58.87C184.954 55.1 182.094 53.085 178.519 53.085C172.799 53.085 166.689 61.73 164.544 66.41V38.98C159.279 41.97 157.459 42.75 151.479 43.725C153.754 46.455 155.119 48.535 155.119 52.24V76.16C155.119 79.085 154.534 83.44 151.739 85H167.859Z" fill="#1E2C31"/>
<path d="M239.321 38.915C234.056 41.97 232.236 42.75 226.191 43.725C228.466 46.455 229.831 48.535 229.831 52.24V76.16C229.831 79.15 229.376 83.375 226.516 85H242.636C239.711 83.375 239.321 79.15 239.321 76.16V38.915ZM258.881 53.085C249.846 53.085 243.151 60.56 243.151 69.4C243.151 78.305 249.846 85.65 258.881 85.65C267.916 85.65 274.546 78.24 274.546 69.4C274.546 60.56 267.916 53.085 258.881 53.085ZM260.961 83.895C254.461 83.895 252.251 68.425 252.251 63.81C252.251 61.405 252.576 54.97 256.151 54.97C263.106 54.97 265.316 69.4 265.316 74.405C265.316 77.07 264.861 83.895 260.961 83.895ZM280.983 67.06C284.623 67.06 286.963 64.135 287.938 60.95C286.443 60.95 285.403 60.17 285.403 58.61C285.403 56.92 286.703 54.645 288.588 54.645C292.488 54.645 291.643 62.77 291.643 65.305C286.053 67.45 275.588 71.285 275.588 78.565C275.588 89.225 287.353 91.5 295.803 91.5C304.773 91.5 317.903 88.575 317.903 77.265V66.93C317.903 65.5 317.838 63.94 317.903 62.51C317.968 60.235 320.113 57.895 322.453 57.895C325.638 57.895 326.548 61.015 326.548 63.68V76.16C326.548 79.085 326.093 83.375 323.298 85H339.353C336.493 83.375 336.038 79.15 336.038 76.16V63.42C336.038 58.025 333.178 53.085 327.328 53.085C326.548 53.085 318.683 57.765 317.903 58.61V53.605C312.638 56.595 310.818 57.44 304.773 58.415C307.048 61.145 308.413 63.225 308.413 66.93V76.81C308.413 84.025 304.448 89.745 296.843 89.745C290.018 89.745 285.143 85.26 285.143 78.305C285.143 73.3 287.288 69.4 291.643 66.93V80.515C291.643 83.7 295.088 85.65 297.948 85.65C300.808 85.65 302.238 84.61 304.448 82.985V82.335C304.058 82.595 303.603 82.725 303.148 82.725C301.328 82.725 301.133 79.93 301.133 78.695V63.745C301.133 56.79 295.998 53.085 289.368 53.085C283.908 53.085 276.758 55.62 276.758 62.12C276.758 64.655 278.253 67.06 280.983 67.06ZM352.24 85.65C357.895 85.65 366.605 83.635 366.605 76.485C366.605 65.76 348.73 66.02 348.73 59.455C348.73 56.595 350.875 54.645 353.735 54.645C356.14 54.645 358.545 56.205 358.545 58.805C358.545 60.17 357.7 61.21 356.27 61.21C357.05 63.745 358.935 65.565 361.665 65.565C364.33 65.565 365.955 63.875 365.955 61.21C365.955 55.23 358.87 53.085 353.995 53.085C348.535 53.085 341.06 55.815 341.06 62.315C341.06 73.3 358.09 72.78 358.09 79.475C358.09 82.725 355.035 84.09 352.24 84.09C349.9 84.09 347.17 82.725 347.17 80.06C347.17 78.5 348.275 77.33 349.835 77.33C349.315 74.73 347.365 72.065 344.44 72.065C341.385 72.065 339.76 74.47 339.76 77.33C339.76 83.44 347.365 85.65 352.24 85.65Z" fill="url(#paint0_linear_3641_32124)"/>
<ellipse cx="315" cy="62.5" rx="114" ry="59.5" stroke="url(#paint1_linear_3641_32124)" stroke-width="5"/>
<defs>
<linearGradient id="paint0_linear_3641_32124" x1="-57.1566" y1="23.4892" x2="36.8295" y2="291.496" gradientUnits="userSpaceOnUse">
<stop stop-color="#2563EB"/>
<stop offset="1" stop-color="#35FF49"/>
</linearGradient>
<linearGradient id="paint1_linear_3641_32124" x1="167.671" y1="-11.4683" x2="423.429" y2="238.693" gradientUnits="userSpaceOnUse">
<stop stop-color="#2563EB"/>
<stop offset="1" stop-color="#35FF49"/>
</linearGradient>
</defs>
</svg>
