<svg width="70" height="70" viewBox="0 0 70 70" fill="none" xmlns="http://www.w3.org/2000/svg">
<circle opacity="0.3" cx="35" cy="35" r="35" fill="url(#paint0_linear_3150_28935)"/>
<path d="M23.3691 24.805C24.4018 23.618 26.6982 22.6644 31.847 24.8108L34.6499 25.9768L37.2645 24.4341C42.0578 21.6057 44.4641 22.2322 45.6511 23.2649C46.8281 24.2888 47.7917 26.5939 45.6641 31.7414L41.0811 42.7585C39.94 45.5124 38.1798 47.1092 36.1395 47.2605C34.0992 47.4119 32.1248 46.0654 30.6136 43.4959L24.5497 33.2192C21.71 28.3983 22.3365 25.992 23.3691 24.805ZM43.8143 30.9628C45.3116 27.3524 45.0715 25.3938 44.3472 24.7637C43.6229 24.1336 41.65 24.1669 38.2917 26.1583L35.2413 27.9582C34.9784 28.1182 34.6398 28.1418 34.3572 28.0197L31.0871 26.6593C27.4855 25.1519 25.5182 25.4022 24.8881 26.1264C24.258 26.8507 24.2913 28.8236 26.2739 32.192L32.3378 42.4687C33.4406 44.3294 34.7869 45.3416 36.0096 45.2565C37.2323 45.1715 38.4154 43.974 39.2413 41.9886L43.8143 30.9628Z" fill="#101828"/>
<path d="M34.2398 26.9989C34.4061 26.8078 34.6428 26.6779 34.9249 26.6583C35.4704 26.6204 35.9533 27.0404 35.9912 27.586L36.4696 34.329C36.5076 34.8745 36.0875 35.3573 35.542 35.3953C34.9965 35.4332 34.5136 35.0131 34.4757 34.4676L33.9973 27.7246C33.9689 27.4525 34.0735 27.1901 34.2398 26.9989Z" fill="#101828"/>
<defs>
<linearGradient id="paint0_linear_3150_28935" x1="16.5375" y1="48.8235" x2="87.9525" y2="36.1557" gradientUnits="userSpaceOnUse">
<stop stop-color="#FF6648"/>
<stop offset="1" stop-color="#FFF96A"/>
</linearGradient>
</defs>
</svg>
