<svg width="50" height="50" viewBox="0 0 50 50" fill="none" xmlns="http://www.w3.org/2000/svg">
<circle cx="25" cy="25" r="25" fill="#FDEDF2"/>
<path d="M17.144 29H18.561V19.523H17.144V29ZM20.8637 29H25.0887C27.1297 29 28.3517 28.038 28.3517 26.335C28.3517 25.256 27.7407 24.359 26.5837 24.125V24.06C27.5977 23.8 28.1047 22.942 28.1047 21.954C28.1047 20.498 27.1037 19.523 25.2577 19.523H20.8637V29ZM22.2547 23.605V20.641H24.9197C25.9857 20.641 26.6877 21.174 26.6877 22.149C26.6877 23.02 26.1417 23.605 25.0367 23.605H22.2547ZM22.2547 27.882V24.684H25.1017C26.2327 24.684 26.9087 25.243 26.9087 26.257C26.9087 27.219 26.2847 27.882 24.9587 27.882H22.2547Z" fill="#E8356D"/>
</svg>
