<svg width="598" height="148" viewBox="0 0 598 148" fill="none" xmlns="http://www.w3.org/2000/svg">
<path d="M38.1779 3.73C41.1029 5.42 41.4929 9.515 41.4929 12.57V44.16C41.4929 47.15 41.0379 51.375 38.1779 53H72.2379L73.3429 37.725C70.4179 45.59 65.1529 51.44 56.1829 51.44H50.9829V12.57C50.9829 9.515 51.3729 5.42 54.2979 3.73H38.1779ZM94.3491 44.16C94.3491 47.085 93.7641 51.44 90.9691 53H107.089C104.164 51.375 103.774 47.15 103.774 44.16V36.425L112.939 53H127.174C120.154 49.1 113.459 35.45 109.624 28.3C110.339 27.65 111.379 27.26 112.354 27.26C113.719 27.26 115.214 28.04 115.214 29.6C115.214 30.315 114.954 30.965 114.564 31.55C114.954 32.72 116.579 33.37 117.749 33.37C121.389 33.37 124.184 30.51 124.184 26.87C124.184 23.1 121.324 21.085 117.749 21.085C112.029 21.085 105.919 29.73 103.774 34.41V20.24C103.774 16.86 103.904 14.455 106.114 11.725C96.8191 10.165 90.3191 1.845 80.6341 1.845C76.0191 1.845 71.5991 4.12 71.5991 9.255C71.5991 13.35 74.3941 16.665 77.8391 18.485C79.0741 19.135 80.6341 20.11 82.0641 20.11C84.6641 20.11 86.8091 17.965 86.8091 15.365C86.8091 12.765 84.6641 10.62 82.0641 10.62C79.4641 10.62 77.3191 12.765 77.3191 15.365C77.3191 16.99 78.2291 18.42 79.5291 19.33C76.7991 17.705 75.0441 14.91 75.0441 11.725C75.0441 6.915 78.6841 4.185 83.2341 4.185C87.2641 4.185 91.9441 6.525 94.3491 9.775V44.16ZM90.7091 53C87.7841 51.375 87.4591 47.15 87.4591 44.16V21.605C82.1941 24.66 80.3741 25.44 74.3291 26.415C76.6041 29.145 77.9691 31.225 77.9691 34.93V44.16C77.9691 47.085 77.4491 51.375 74.6541 53H90.7091ZM156.26 36.295V34.735C156.26 26.35 150.865 21.085 142.48 21.085C133.25 21.085 127.725 28.95 127.725 37.595C127.725 46.565 134.225 53.65 143.325 53.65C149.76 53.65 153.4 50.855 156.39 45.46L155.87 45.07C154.505 46.435 150.475 46.89 148.655 46.89C142.35 46.89 138.84 42.47 137.605 37.075L156.26 36.295ZM147.55 29.535C147.55 32.72 145.405 34.28 142.48 34.735C140.725 34.995 139.035 35.255 137.28 35.45C137.15 34.475 137.085 33.5 137.085 32.525C137.085 29.86 138.06 22.645 141.83 22.645C145.145 22.645 147.55 26.545 147.55 29.535ZM182.798 13.48H181.823C179.678 19.395 176.233 21.605 170.123 22.19V23.165H173.308V44.875C173.308 49.62 175.453 53.65 180.653 53.65C184.228 53.65 187.868 51.895 190.468 49.49V48.84C189.428 49.425 188.193 49.685 187.023 49.685C184.813 49.685 182.798 48.71 182.798 46.175V23.165H189.558V21.605H182.798V13.48ZM204.456 21.085C195.421 21.085 188.726 28.56 188.726 37.4C188.726 46.305 195.421 53.65 204.456 53.65C213.491 53.65 220.121 46.24 220.121 37.4C220.121 28.56 213.491 21.085 204.456 21.085ZM206.536 51.895C200.036 51.895 197.826 36.425 197.826 31.81C197.826 29.405 198.151 22.97 201.726 22.97C208.681 22.97 210.891 37.4 210.891 42.405C210.891 45.07 210.436 51.895 206.536 51.895ZM253.226 52.675C245.491 52.545 243.671 43.51 243.671 37.335C243.671 34.28 244.841 22.645 249.391 22.645C254.721 22.645 255.501 33.175 255.501 36.815C255.501 39.74 254.721 51.44 250.236 51.44C258.946 51.44 265.316 46.5 265.316 37.4C265.316 31.68 262.521 26.48 258.101 23.555C260.116 20.89 263.496 18.16 267.006 18.16C268.956 18.16 270.581 19.07 271.751 20.565C275.781 20.565 279.031 17.835 279.031 13.675C279.031 9.84 276.041 7.175 272.271 7.175C265.056 7.175 259.661 17.055 256.866 22.84C254.721 21.735 252.316 21.085 249.651 21.085C240.616 21.085 233.921 28.56 233.921 37.4C233.921 44.745 238.536 50.92 245.556 53C247.311 53.52 248.936 53.585 250.756 53.715C251.926 53.78 255.696 53.65 255.696 55.47C255.696 56.835 253.811 56.835 252.901 56.835C249.326 56.835 245.816 56.12 242.241 56.12C237.886 56.12 233.401 58.46 233.401 63.335C233.401 66.91 236.066 69.38 239.576 69.38C239.446 68.925 239.316 68.405 239.316 67.885C239.316 64.765 242.956 64.895 245.231 64.895C250.431 64.895 255.696 65.025 260.896 65.025C263.886 65.025 266.551 62.36 266.551 59.37C266.551 53.26 259.206 52.675 254.656 52.675H253.226ZM282.801 53C279.876 51.375 279.551 47.15 279.551 44.16V21.605C274.286 24.66 272.466 25.44 266.421 26.415C268.696 29.145 270.061 31.225 270.061 34.93V44.16C270.061 47.085 269.541 51.375 266.746 53H282.801ZM303.391 21.605C307.291 23.035 309.046 26.025 309.046 30.12C309.046 35.385 306.381 41.235 304.431 46.11C302.741 42.08 297.541 30.38 297.541 26.675C297.541 24.465 298.581 22.32 300.726 21.605H282.786C286.751 23.36 290.326 34.215 291.951 38.245L297.866 53H303.391L309.241 38.375C310.866 34.28 314.506 23.36 318.471 21.605H303.391ZM344.278 36.295V34.735C344.278 26.35 338.883 21.085 330.498 21.085C321.268 21.085 315.743 28.95 315.743 37.595C315.743 46.565 322.243 53.65 331.343 53.65C337.778 53.65 341.418 50.855 344.408 45.46L343.888 45.07C342.523 46.435 338.493 46.89 336.673 46.89C330.368 46.89 326.858 42.47 325.623 37.075L344.278 36.295ZM335.568 29.535C335.568 32.72 333.423 34.28 330.498 34.735C328.743 34.995 327.053 35.255 325.298 35.45C325.168 34.475 325.103 33.5 325.103 32.525C325.103 29.86 326.078 22.645 329.848 22.645C333.163 22.645 335.568 26.545 335.568 29.535ZM360.87 15.365C360.87 17.965 363.015 20.11 365.615 20.11C368.215 20.11 370.36 17.965 370.36 15.365C370.36 12.765 368.215 10.62 365.615 10.62C367.825 7.955 371.92 7.435 375.17 7.435C379.46 7.435 383.815 9.515 383.815 14.39C383.815 14.585 383.815 15.105 383.75 15.235C382.19 19.915 378.745 21.735 374.065 22.19V23.165H375.95V44.875C375.95 49.62 378.095 53.65 383.295 53.65C386.87 53.65 390.51 51.895 393.11 49.49V48.84C392.07 49.425 390.835 49.685 389.665 49.685C387.455 49.685 385.44 48.71 385.44 46.175V23.165H392.2V21.605H385.44V19.98C386.935 18.55 387.845 16.6 387.845 14.52C387.845 8.02 380.435 5.875 375.17 5.875C369.385 5.875 360.87 8.215 360.87 15.365ZM370.945 21.605C365.68 24.66 363.86 25.44 357.815 26.415C360.09 29.145 361.455 31.225 361.455 34.93V44.16C361.455 47.085 360.935 51.375 358.14 53H374.195C371.27 51.375 370.945 47.15 370.945 44.16V21.605ZM435.565 50.335C435.175 50.595 434.72 50.725 434.265 50.725C432.445 50.725 432.25 47.93 432.25 46.695V31.745C432.25 24.79 427.115 21.085 420.485 21.085C415.025 21.085 407.875 23.62 407.875 30.12C407.875 32.655 409.37 35.06 412.1 35.06C415.74 35.06 418.08 32.135 419.055 28.95C417.56 28.95 416.52 28.17 416.52 26.61C416.52 24.92 417.82 22.645 419.705 22.645C423.085 22.645 422.76 28.365 422.76 30.575V32.655C418.6 37.205 406.705 39.935 406.705 46.695C406.705 51.57 409.955 53.65 414.505 53.65C418.21 53.65 421.07 52.35 423.085 50.075C423.995 52.285 426.725 53.65 429.065 53.65C431.99 53.65 433.355 52.61 435.565 50.985V50.335ZM422.76 48.71C422.11 49.1 421.265 49.36 420.225 49.36C416.91 49.36 416.26 46.5 416.26 43.77C416.26 40 420.29 37.205 422.76 34.93V48.71ZM461.65 13.48H460.675C458.53 19.395 455.085 21.605 448.975 22.19V23.165H452.16V44.875C452.16 49.62 454.305 53.65 459.505 53.65C463.08 53.65 466.72 51.895 469.32 49.49V48.84C468.28 49.425 467.045 49.685 465.875 49.685C463.665 49.685 461.65 48.71 461.65 46.175V23.165H468.41V21.605H461.65V13.48ZM481.522 28.755V21.605C476.257 24.66 474.437 25.44 468.392 26.415C470.667 29.145 472.032 31.225 472.032 34.93V44.16C472.032 47.085 471.512 51.375 468.717 53H484.772C481.912 51.375 481.522 47.15 481.522 44.16V32.33C481.522 30.445 483.472 28.82 485.227 28.82C487.502 28.82 489.192 30.575 489.192 32.785C489.192 33.37 489.062 33.89 488.932 34.41C493.222 34.41 496.732 31.615 496.732 27.195C496.732 23.815 494.522 21.085 491.012 21.085C486.592 21.085 483.212 25.05 481.522 28.755ZM511.528 53C512.568 53 514.388 53.325 514.388 54.69C514.388 57.81 509.253 59.565 506.783 59.565C503.923 59.565 501.583 58.135 501.583 55.015C498.788 55.015 497.358 58.72 497.358 61.06C497.358 65.35 500.738 67.235 504.703 67.235C512.113 67.235 514.778 58.655 517.053 53L522.903 38.375C524.528 34.28 528.168 23.36 532.133 21.605H517.053C520.953 23.035 522.708 26.025 522.708 30.12C522.708 35.385 520.043 41.235 518.093 46.11C516.403 42.08 511.203 30.38 511.203 26.675C511.203 24.465 512.243 22.32 514.388 21.605H496.448C500.413 23.36 503.988 34.215 505.613 38.245L511.528 53ZM77.216 123H93.336C90.476 121.375 90.021 117.15 90.021 114.16V104.28H91.841L102.241 123H116.476C110.496 119.685 104.971 109.74 101.786 103.825C109.131 102.265 113.356 96.285 113.356 88.94C113.356 79.385 106.596 73.73 97.236 73.73H77.216C80.141 75.42 80.531 79.515 80.531 82.57V114.16C80.531 117.15 80.076 121.375 77.216 123ZM90.021 102.72V75.29H90.086C98.926 75.29 103.931 80.555 103.931 89.265C103.931 98.17 98.796 102.72 90.021 102.72ZM142.93 106.295V104.735C142.93 96.35 137.535 91.085 129.15 91.085C119.92 91.085 114.395 98.95 114.395 107.595C114.395 116.565 120.895 123.65 129.995 123.65C136.43 123.65 140.07 120.855 143.06 115.46L142.54 115.07C141.175 116.435 137.145 116.89 135.325 116.89C129.02 116.89 125.51 112.47 124.275 107.075L142.93 106.295ZM134.22 99.535C134.22 102.72 132.075 104.28 129.15 104.735C127.395 104.995 125.705 105.255 123.95 105.45C123.82 104.475 123.755 103.5 123.755 102.525C123.755 99.86 124.73 92.645 128.5 92.645C131.815 92.645 134.22 96.545 134.22 99.535ZM168.409 93.23C164.704 91.93 163.274 91.02 159.049 91.02C149.624 91.02 144.229 99.145 144.229 107.92C144.229 116.305 149.169 123.715 158.204 123.715C160.349 123.715 163.274 120.855 165.484 118.32V128.59C165.484 131.58 165.029 135.74 162.169 137.43H178.289C175.429 135.74 174.974 131.645 174.974 128.655V91.735C173.869 92.385 170.749 93.035 168.409 93.295V93.23ZM165.484 117.54C165.094 117.8 164.639 117.995 164.314 117.995C156.644 117.995 153.199 110.455 153.199 103.76C153.199 99.47 154.889 92.645 160.284 92.645C164.639 92.645 165.484 97.715 165.484 101.095V117.54ZM177.669 91.605C180.529 93.23 180.984 97.455 180.984 100.445V113.185C180.984 118.58 183.844 123.52 189.694 123.52C190.474 123.52 198.664 118.645 199.249 117.8C199.574 119.555 200.224 121.375 200.614 123H212.249C209.584 119.685 208.609 117.02 208.609 112.795V91.605H195.869C198.794 93.23 199.119 97.455 199.119 100.445V109.675C199.119 111.235 198.989 112.925 198.989 114.615C198.469 116.76 197.039 118.71 194.569 118.71C191.384 118.71 190.474 115.59 190.474 112.925V91.605H177.669ZM241.319 106.295V104.735C241.319 96.35 235.924 91.085 227.539 91.085C218.309 91.085 212.784 98.95 212.784 107.595C212.784 116.565 219.284 123.65 228.384 123.65C234.819 123.65 238.459 120.855 241.449 115.46L240.929 115.07C239.564 116.435 235.534 116.89 233.714 116.89C227.409 116.89 223.899 112.47 222.664 107.075L241.319 106.295ZM232.609 99.535C232.609 102.72 230.464 104.28 227.539 104.735C225.784 104.995 224.094 105.255 222.339 105.45C222.209 104.475 222.144 103.5 222.144 102.525C222.144 99.86 223.119 92.645 226.889 92.645C230.204 92.645 232.609 96.545 232.609 99.535ZM254.968 123.65C260.623 123.65 269.333 121.635 269.333 114.485C269.333 103.76 251.458 104.02 251.458 97.455C251.458 94.595 253.603 92.645 256.463 92.645C258.868 92.645 261.273 94.205 261.273 96.805C261.273 98.17 260.428 99.21 258.998 99.21C259.778 101.745 261.663 103.565 264.393 103.565C267.058 103.565 268.683 101.875 268.683 99.21C268.683 94.465 264.263 92.19 259.973 91.41C258.803 90.24 258.153 88.68 258.153 86.73C258.153 81.075 264.458 77.24 269.528 77.24C273.688 77.24 279.473 78.865 279.473 84C279.473 89.07 273.883 91.735 269.528 92.19V93.165H272.713V114.875C272.713 119.62 274.858 123.65 280.058 123.65C283.633 123.65 287.273 121.895 289.873 119.49V118.84C288.833 119.425 287.598 119.685 286.428 119.685C284.218 119.685 282.203 118.71 282.203 116.175V93.165H288.963V91.605H282.203V88.615C282.203 79.255 279.408 75.875 269.528 75.875C262.378 75.875 254.058 79.19 254.058 87.51C254.058 88.81 254.318 90.045 254.903 91.15C249.703 91.67 243.788 94.53 243.788 100.315C243.788 111.3 260.818 110.78 260.818 117.475C260.818 120.725 257.763 122.09 254.968 122.09C252.628 122.09 249.898 120.725 249.898 118.06C249.898 116.5 251.003 115.33 252.563 115.33C252.043 112.73 250.093 110.065 247.168 110.065C244.113 110.065 242.488 112.47 242.488 115.33C242.488 121.44 250.093 123.65 254.968 123.65ZM314.282 111.56C314.282 110.52 314.477 109.22 314.867 107.66C317.662 107.14 320.392 106.685 323.252 106.685C325.917 106.685 328.582 107.075 331.182 107.595L333.847 114.745C334.302 116.045 334.822 117.345 334.822 118.775C334.822 120.66 333.912 122.025 332.287 123H349.577C346.782 121.44 344.637 116.305 343.532 113.38L328.452 73.795H326.047L313.242 106.23C311.617 110.325 306.937 121.245 302.972 123H322.992C317.727 121.115 314.282 117.345 314.282 111.56ZM330.597 105.905C328.192 105.45 325.722 105.125 323.252 105.125C320.587 105.125 317.922 105.515 315.322 106.035C317.207 99.275 321.302 89.85 322.992 85.365L330.597 105.905ZM363.016 101.745C364.121 105.385 366.266 107.79 370.231 107.79C373.741 107.79 375.756 105.515 375.756 102.135C375.756 94.985 368.606 91.085 362.236 91.085C353.006 91.085 347.481 98.95 347.481 107.595C347.481 116.565 353.981 123.65 363.081 123.65C369.256 123.65 373.936 120.855 376.926 115.46L376.406 115.07C375.041 116.435 371.011 116.89 369.191 116.89C360.871 116.89 357.166 109.22 357.166 101.875C357.166 99.34 357.946 92.645 361.586 92.645C364.511 92.645 367.371 95.505 367.371 98.43C367.371 100.9 365.161 101.745 363.016 101.745ZM393.612 101.745C394.717 105.385 396.862 107.79 400.827 107.79C404.337 107.79 406.352 105.515 406.352 102.135C406.352 94.985 399.202 91.085 392.832 91.085C383.602 91.085 378.077 98.95 378.077 107.595C378.077 116.565 384.577 123.65 393.677 123.65C399.852 123.65 404.532 120.855 407.522 115.46L407.002 115.07C405.637 116.435 401.607 116.89 399.787 116.89C391.467 116.89 387.762 109.22 387.762 101.875C387.762 99.34 388.542 92.645 392.182 92.645C395.107 92.645 397.967 95.505 397.967 98.43C397.967 100.9 395.757 101.745 393.612 101.745ZM436.573 106.295V104.735C436.573 96.35 431.178 91.085 422.793 91.085C413.563 91.085 408.038 98.95 408.038 107.595C408.038 116.565 414.538 123.65 423.638 123.65C430.073 123.65 433.713 120.855 436.703 115.46L436.183 115.07C434.818 116.435 430.788 116.89 428.968 116.89C422.663 116.89 419.153 112.47 417.918 107.075L436.573 106.295ZM427.863 99.535C427.863 102.72 425.718 104.28 422.793 104.735C421.038 104.995 419.348 105.255 417.593 105.45C417.463 104.475 417.398 103.5 417.398 102.525C417.398 99.86 418.373 92.645 422.143 92.645C425.458 92.645 427.863 96.545 427.863 99.535ZM450.222 123.65C455.877 123.65 464.587 121.635 464.587 114.485C464.587 103.76 446.712 104.02 446.712 97.455C446.712 94.595 448.857 92.645 451.717 92.645C454.122 92.645 456.527 94.205 456.527 96.805C456.527 98.17 455.682 99.21 454.252 99.21C455.032 101.745 456.917 103.565 459.647 103.565C462.312 103.565 463.937 101.875 463.937 99.21C463.937 93.23 456.852 91.085 451.977 91.085C446.517 91.085 439.042 93.815 439.042 100.315C439.042 111.3 456.072 110.78 456.072 117.475C456.072 120.725 453.017 122.09 450.222 122.09C447.882 122.09 445.152 120.725 445.152 118.06C445.152 116.5 446.257 115.33 447.817 115.33C447.297 112.73 445.347 110.065 442.422 110.065C439.367 110.065 437.742 112.47 437.742 115.33C437.742 121.44 445.347 123.65 450.222 123.65ZM478.405 123.65C484.06 123.65 492.77 121.635 492.77 114.485C492.77 103.76 474.895 104.02 474.895 97.455C474.895 94.595 477.04 92.645 479.9 92.645C482.305 92.645 484.71 94.205 484.71 96.805C484.71 98.17 483.865 99.21 482.435 99.21C483.215 101.745 485.1 103.565 487.83 103.565C490.495 103.565 492.12 101.875 492.12 99.21C492.12 93.23 485.035 91.085 480.16 91.085C474.7 91.085 467.225 93.815 467.225 100.315C467.225 111.3 484.255 110.78 484.255 117.475C484.255 120.725 481.2 122.09 478.405 122.09C476.065 122.09 473.335 120.725 473.335 118.06C473.335 116.5 474.44 115.33 476 115.33C475.48 112.73 473.53 110.065 470.605 110.065C467.55 110.065 465.925 112.47 465.925 115.33C465.925 121.44 473.53 123.65 478.405 123.65Z" fill="white"/>
<path d="M563.453 98.1099C563.453 79.0812 595.812 83.274 595.812 57.7949C595.812 43.389 584.094 37.1536 571.086 37.1536C557.647 37.1536 543.242 44.0341 543.242 59.3C543.242 65.2129 547.112 69.7282 553.132 69.7282C559.475 69.7282 563.883 64.8904 564.743 58.87C560.228 58.87 558.077 53.7097 558.077 49.8394C558.077 43.7115 562.378 39.7338 568.506 39.7338C577.106 39.7338 581.191 46.6142 581.191 54.4622C581.191 76.3936 561.733 72.0933 561.733 98.1099H563.453ZM562.163 105.098C557.862 105.098 554.207 108.646 554.207 112.946C554.207 117.354 557.755 120.794 562.163 120.794C566.463 120.794 570.011 117.246 570.011 112.946C570.011 108.646 566.463 105.098 562.163 105.098Z" fill="#245FE0"/>
</svg>
