<svg width="266" height="400" viewBox="0 0 266 400" fill="none" xmlns="http://www.w3.org/2000/svg">
<g clip-path="url(#clip0_2603_28328)">
<path d="M0.917969 52.0357C0.917969 23.2972 24.2152 0 52.9538 0H213.521C242.26 0 265.557 23.2972 265.557 52.0358V347.153C265.557 375.892 242.26 399.189 213.521 399.189H0.917969V52.0357Z" fill="#C8C1FD"/>
<g opacity="0.2">
<path d="M-68.9756 115.223H-4.60092C42.9911 115.223 86.0751 143.379 105.181 186.967L134.718 254.354C146.334 280.855 167.145 302.26 193.309 314.618L299.01 364.542" stroke="#A8A1DE" stroke-width="2.3973"/>
<path d="M-63.0029 149.5H8.73075C55.6509 149.5 98.257 176.876 117.755 219.553L149.436 288.894C161.467 315.225 182.62 336.313 208.989 348.261L320.565 398.819" stroke="#A8A1DE" stroke-width="2.3973"/>
<path d="M-50.5303 198.645H-7.13337C42.3588 198.645 86.7621 229.063 104.639 275.213L128.398 336.549C138.76 363.298 158.371 385.445 183.671 398.966L273.105 446.765" stroke="#A8A1DE" stroke-width="2.3973"/>
</g>
</g>
<defs>
<clipPath id="clip0_2603_28328">
<path d="M0.917969 52.0357C0.917969 23.2972 24.2152 0 52.9538 0H213.521C242.26 0 265.557 23.2972 265.557 52.0358V347.153C265.557 375.892 242.26 399.189 213.521 399.189H0.917969V52.0357Z" fill="white"/>
</clipPath>
</defs>
</svg>
