<svg width="254" height="148" viewBox="0 0 254 148" fill="none" xmlns="http://www.w3.org/2000/svg">
<rect width="236" height="80" rx="10" fill="url(#paint0_linear_3641_32125)"/>
<path d="M45.815 22.13C45.815 14.395 35.48 11.08 29.175 11.08C20.92 11.08 12.6 15.76 12.6 24.86C12.6 40.525 37.235 38.705 37.235 51.575C37.235 57.165 32.75 60.09 27.55 60.09C23.715 60.09 20.14 58.01 20.14 53.785C20.14 51.575 21.44 48.975 23.975 48.975C23.52 45.27 21.115 41.5 16.955 41.5C12.99 41.5 10.975 45.075 10.975 48.715C10.975 58.01 21.31 61.65 29.11 61.65C37.43 61.65 47.05 57.49 47.05 47.87C47.05 31.945 20.4 32.92 20.4 21.61C20.4 16.54 23.65 12.64 28.85 12.64C32.165 12.64 36.585 14.07 36.585 18.1C36.585 19.79 35.675 21.61 33.725 21.61C34.115 25.12 36.455 28.175 40.225 28.175C43.67 28.175 45.815 25.445 45.815 22.13ZM77.4025 58.335C77.0125 58.595 76.5575 58.725 76.1025 58.725C74.2825 58.725 74.0875 55.93 74.0875 54.695V39.745C74.0875 32.79 68.9525 29.085 62.3225 29.085C56.8625 29.085 49.7125 31.62 49.7125 38.12C49.7125 40.655 51.2075 43.06 53.9375 43.06C57.5775 43.06 59.9175 40.135 60.8925 36.95C59.3975 36.95 58.3575 36.17 58.3575 34.61C58.3575 32.92 59.6575 30.645 61.5425 30.645C64.9225 30.645 64.5975 36.365 64.5975 38.575V40.655C60.4375 45.205 48.5425 47.935 48.5425 54.695C48.5425 59.57 51.7925 61.65 56.3425 61.65C60.0475 61.65 62.9075 60.35 64.9225 58.075C65.8325 60.285 68.5625 61.65 70.9025 61.65C73.8275 61.65 75.1925 60.61 77.4025 58.985V58.335ZM64.5975 56.71C63.9475 57.1 63.1025 57.36 62.0625 57.36C58.7475 57.36 58.0975 54.5 58.0975 51.77C58.0975 48 62.1275 45.205 64.5975 42.93V56.71ZM90.8595 14.915C85.5945 17.97 83.7745 18.75 77.7295 19.725C80.0045 22.455 81.3695 24.535 81.3695 28.24V52.16C81.3695 55.15 80.9145 59.375 78.0545 61H94.1745C91.2495 59.375 90.8595 55.15 90.8595 52.16V14.915ZM114.905 67.5C123.875 67.5 137.005 64.575 137.005 53.265V40.33C137.005 38.445 138.955 36.82 140.71 36.82C142.985 36.82 144.675 38.575 144.675 40.785C144.675 41.37 144.545 41.89 144.415 42.41C148.705 42.41 152.215 39.615 152.215 35.195C152.215 31.815 150.005 29.085 146.495 29.085C142.075 29.085 138.695 33.05 137.005 36.755V29.605C131.74 32.66 129.92 33.44 123.875 34.415C126.15 37.145 127.515 39.225 127.515 42.93V52.81C127.515 60.025 123.55 65.745 115.945 65.745C109.12 65.745 104.245 61.26 104.245 54.305C104.245 49.3 106.39 45.4 110.745 42.93V56.515C110.745 59.7 114.19 61.65 117.05 61.65C119.91 61.65 121.34 60.61 123.55 58.985V58.335C123.16 58.595 122.705 58.725 122.25 58.725C120.43 58.725 120.235 55.93 120.235 54.695V39.745C120.235 32.79 115.1 29.085 108.47 29.085C103.01 29.085 95.8599 31.62 95.8599 38.12C95.8599 40.655 97.3549 43.06 100.085 43.06C103.725 43.06 106.065 40.135 107.04 36.95C105.545 36.95 104.505 36.17 104.505 34.61C104.505 32.92 105.805 30.645 107.69 30.645C111.07 30.645 110.745 36.365 110.745 38.575V41.305C105.155 43.45 94.6899 47.285 94.6899 54.565C94.6899 65.225 106.455 67.5 114.905 67.5ZM167.648 61C168.688 61 170.508 61.325 170.508 62.69C170.508 65.81 165.373 67.565 162.903 67.565C160.043 67.565 157.703 66.135 157.703 63.015C154.908 63.015 153.478 66.72 153.478 69.06C153.478 73.35 156.858 75.235 160.823 75.235C168.233 75.235 170.898 66.655 173.173 61L179.023 46.375C180.648 42.28 184.288 31.36 188.253 29.605H173.173C177.073 31.035 178.828 34.025 178.828 38.12C178.828 43.385 176.163 49.235 174.213 54.11C172.523 50.08 167.323 38.38 167.323 34.675C167.323 32.465 168.363 30.32 170.508 29.605H152.568C156.533 31.36 160.108 42.215 161.733 46.245L167.648 61Z" fill="white"/>
<path d="M21.31 119.56C21.31 118.52 21.505 117.22 21.895 115.66C24.69 115.14 27.42 114.685 30.28 114.685C32.945 114.685 35.61 115.075 38.21 115.595L40.875 122.745C41.33 124.045 41.85 125.345 41.85 126.775C41.85 128.66 40.94 130.025 39.315 131H56.605C53.81 129.44 51.665 124.305 50.56 121.38L35.48 81.795H33.075L20.27 114.23C18.645 118.325 13.965 129.245 10 131H30.02C24.755 129.115 21.31 125.345 21.31 119.56ZM37.625 113.905C35.22 113.45 32.75 113.125 30.28 113.125C27.615 113.125 24.95 113.515 22.35 114.035C24.235 107.275 28.33 97.85 30.02 93.365L37.625 113.905ZM85.2543 84.98C79.9893 87.97 78.1693 88.75 72.1243 89.725C74.3993 92.455 75.7643 94.535 75.7643 98.24V101.165C74.6593 100.645 70.4993 98.89 69.3293 98.89C59.9043 98.89 54.5093 107.015 54.5093 115.79C54.5093 124.175 59.4493 131.585 68.4843 131.585C72.2543 131.585 74.3343 130.415 75.7643 128.335V131H88.5043C85.5793 129.375 85.2543 125.15 85.2543 122.16V84.98ZM75.7643 124.825C75.4393 124.825 75.0493 124.825 74.5943 124.825C67.0543 124.825 63.4793 117.87 63.4793 111.175C63.4793 106.885 65.2993 100.515 70.5643 100.515C74.9193 100.515 75.7643 105.585 75.7643 108.965V124.825ZM110.166 124.11C108.476 120.08 103.276 108.38 103.276 104.675C103.276 102.465 104.316 100.32 106.461 99.605H88.5205C92.4855 101.36 96.0605 112.215 97.6855 116.245L103.601 131H109.321L114.781 116.05C116.016 112.735 118.681 108.12 122.776 108.12C124.076 108.12 125.701 108.77 125.701 110.33C129.406 110.33 132.656 107.665 132.656 103.83C132.656 100.515 130.186 98.76 127.066 98.76C115.821 98.76 113.351 116.05 110.166 124.11ZM133.241 99.67C136.816 99.605 135.971 108.51 135.971 110.655C131.811 115.205 119.916 117.935 119.916 124.695C119.916 129.57 123.166 131.65 127.716 131.65C131.486 131.65 134.281 130.415 136.296 128.14C137.206 130.35 139.936 131.65 142.276 131.65C145.201 131.65 146.566 130.61 148.776 128.985V128.335C148.386 128.595 147.931 128.725 147.476 128.725C145.656 128.725 145.461 125.93 145.461 124.695V109.745C145.461 102.79 140.261 99.085 133.696 99.085L133.241 99.67ZM135.971 126.71C135.321 127.1 134.476 127.36 133.436 127.36C130.121 127.36 129.471 124.5 129.471 121.77C129.471 118 133.501 115.205 135.971 112.93V126.515C135.971 126.58 135.971 126.645 135.971 126.71ZM165.457 131C162.532 129.375 162.207 125.15 162.207 122.16V108.51C162.662 106.105 164.092 103.895 166.757 103.895C169.942 103.895 170.852 107.015 170.852 109.68V122.16C170.852 125.085 170.397 129.375 167.602 131H183.657C180.797 129.375 180.342 125.15 180.342 122.16V109.42C180.342 104.025 177.482 99.085 171.632 99.085C170.917 99.085 163.377 103.505 162.207 104.675V99.605C156.942 102.66 155.122 103.44 149.077 104.415C151.352 107.145 152.717 109.225 152.717 112.93V122.16C152.717 125.085 152.197 129.375 149.402 131H165.457ZM199.727 109.745C200.832 113.385 202.977 115.79 206.942 115.79C210.452 115.79 212.467 113.515 212.467 110.135C212.467 102.985 205.317 99.085 198.947 99.085C189.717 99.085 184.192 106.95 184.192 115.595C184.192 124.565 190.692 131.65 199.792 131.65C205.967 131.65 210.647 128.855 213.637 123.46L213.117 123.07C211.752 124.435 207.722 124.89 205.902 124.89C197.582 124.89 193.877 117.22 193.877 109.875C193.877 107.34 194.657 100.645 198.297 100.645C201.222 100.645 204.082 103.505 204.082 106.43C204.082 108.9 201.872 109.745 199.727 109.745ZM242.688 114.295V112.735C242.688 104.35 237.293 99.085 228.908 99.085C219.678 99.085 214.153 106.95 214.153 115.595C214.153 124.565 220.653 131.65 229.753 131.65C236.188 131.65 239.828 128.855 242.818 123.46L242.298 123.07C240.933 124.435 236.903 124.89 235.083 124.89C228.778 124.89 225.268 120.47 224.033 115.075L242.688 114.295ZM233.978 107.535C233.978 110.72 231.833 112.28 228.908 112.735C227.153 112.995 225.463 113.255 223.708 113.45C223.578 112.475 223.513 111.5 223.513 110.525C223.513 107.86 224.488 100.645 228.258 100.645C231.573 100.645 233.978 104.545 233.978 107.535Z" fill="#1E2C31"/>
<defs>
<linearGradient id="paint0_linear_3641_32125" x1="-34.4986" y1="-9.72658" x2="124.008" y2="228.984" gradientUnits="userSpaceOnUse">
<stop stop-color="#2563EB"/>
<stop offset="1" stop-color="#35FF49"/>
</linearGradient>
</defs>
</svg>
