<svg width="1440" height="1569" viewBox="0 0 1440 1569" fill="none" xmlns="http://www.w3.org/2000/svg">
<g clip-path="url(#clip0_4351_31842)">
<rect width="1440" height="1569" fill="url(#paint0_linear_4351_31842)"/>
<g opacity="0.1">
<ellipse cx="160.736" cy="480.657" rx="12.2296" ry="15.0235" transform="rotate(-36.1332 160.736 480.657)" fill="url(#paint1_linear_4351_31842)"/>
<ellipse cx="163.032" cy="479.645" rx="11.4621" ry="14.7149" transform="rotate(-36.1332 163.032 479.645)" fill="#30F6F6"/>
<ellipse cx="163.027" cy="479.628" rx="3.36025" ry="4.31384" transform="rotate(-36.1332 163.027 479.628)" fill="#020D0D"/>
</g>
<g opacity="0.1">
<ellipse cx="655.736" cy="380.657" rx="12.2296" ry="15.0235" transform="rotate(-36.1332 655.736 380.657)" fill="url(#paint2_linear_4351_31842)"/>
<ellipse cx="658.032" cy="379.645" rx="11.4621" ry="14.7149" transform="rotate(-36.1332 658.032 379.645)" fill="#30F6F6"/>
<ellipse cx="658.027" cy="379.628" rx="3.36025" ry="4.31384" transform="rotate(-36.1332 658.027 379.628)" fill="#020D0D"/>
</g>
<g opacity="0.1">
<ellipse cx="1297.74" cy="380.657" rx="12.2296" ry="15.0235" transform="rotate(-36.1332 1297.74 380.657)" fill="url(#paint3_linear_4351_31842)"/>
<ellipse cx="1300.03" cy="379.645" rx="11.4621" ry="14.7149" transform="rotate(-36.1332 1300.03 379.645)" fill="#30F6F6"/>
<ellipse cx="1300.03" cy="379.628" rx="3.36025" ry="4.31384" transform="rotate(-36.1332 1300.03 379.628)" fill="#020D0D"/>
</g>
<g opacity="0.1">
<ellipse cx="1297.74" cy="123.657" rx="12.2296" ry="15.0235" transform="rotate(-36.1332 1297.74 123.657)" fill="url(#paint4_linear_4351_31842)"/>
<ellipse cx="1300.03" cy="122.645" rx="11.4621" ry="14.7149" transform="rotate(-36.1332 1300.03 122.645)" fill="#30F6F6"/>
<ellipse cx="1300.03" cy="122.628" rx="3.36025" ry="4.31384" transform="rotate(-36.1332 1300.03 122.628)" fill="#020D0D"/>
</g>
<g opacity="0.1">
<ellipse cx="1373.74" cy="718.657" rx="12.2296" ry="15.0235" transform="rotate(-36.1332 1373.74 718.657)" fill="url(#paint5_linear_4351_31842)"/>
<ellipse cx="1376.03" cy="717.645" rx="11.4621" ry="14.7149" transform="rotate(-36.1332 1376.03 717.645)" fill="#30F6F6"/>
<ellipse cx="1376.03" cy="717.628" rx="3.36025" ry="4.31384" transform="rotate(-36.1332 1376.03 717.628)" fill="#020D0D"/>
</g>
<g opacity="0.1">
<ellipse cx="516.736" cy="487.657" rx="12.2296" ry="15.0235" transform="rotate(-36.1332 516.736 487.657)" fill="url(#paint6_linear_4351_31842)"/>
<ellipse cx="519.032" cy="486.645" rx="11.4621" ry="14.7149" transform="rotate(-36.1332 519.032 486.645)" fill="#30F6F6"/>
<ellipse cx="519.027" cy="486.628" rx="3.36025" ry="4.31384" transform="rotate(-36.1332 519.027 486.628)" fill="#020D0D"/>
</g>
<g opacity="0.1">
<ellipse cx="123.736" cy="263.657" rx="12.2296" ry="15.0235" transform="rotate(-36.1332 123.736 263.657)" fill="url(#paint7_linear_4351_31842)"/>
<ellipse cx="126.032" cy="262.645" rx="11.4621" ry="14.7149" transform="rotate(-36.1332 126.032 262.645)" fill="#30F6F6"/>
<ellipse cx="126.027" cy="262.628" rx="3.36025" ry="4.31384" transform="rotate(-36.1332 126.027 262.628)" fill="#020D0D"/>
</g>
</g>
<defs>
<linearGradient id="paint0_linear_4351_31842" x1="720" y1="0" x2="288.509" y2="1374.47" gradientUnits="userSpaceOnUse">
<stop stop-color="#30C7E9" stop-opacity="0.1"/>
<stop offset="1" stop-color="#76DB7C" stop-opacity="0.1"/>
</linearGradient>
<linearGradient id="paint1_linear_4351_31842" x1="153.356" y1="466.064" x2="162.715" y2="503.466" gradientUnits="userSpaceOnUse">
<stop stop-color="#30F6F6"/>
<stop offset="1" stop-color="#30F6F6" stop-opacity="0"/>
</linearGradient>
<linearGradient id="paint2_linear_4351_31842" x1="648.356" y1="366.064" x2="657.715" y2="403.466" gradientUnits="userSpaceOnUse">
<stop stop-color="#30F6F6"/>
<stop offset="1" stop-color="#30F6F6" stop-opacity="0"/>
</linearGradient>
<linearGradient id="paint3_linear_4351_31842" x1="1290.36" y1="366.064" x2="1299.72" y2="403.466" gradientUnits="userSpaceOnUse">
<stop stop-color="#30F6F6"/>
<stop offset="1" stop-color="#30F6F6" stop-opacity="0"/>
</linearGradient>
<linearGradient id="paint4_linear_4351_31842" x1="1290.36" y1="109.064" x2="1299.72" y2="146.466" gradientUnits="userSpaceOnUse">
<stop stop-color="#30F6F6"/>
<stop offset="1" stop-color="#30F6F6" stop-opacity="0"/>
</linearGradient>
<linearGradient id="paint5_linear_4351_31842" x1="1366.36" y1="704.064" x2="1375.72" y2="741.466" gradientUnits="userSpaceOnUse">
<stop stop-color="#30F6F6"/>
<stop offset="1" stop-color="#30F6F6" stop-opacity="0"/>
</linearGradient>
<linearGradient id="paint6_linear_4351_31842" x1="509.356" y1="473.064" x2="518.715" y2="510.466" gradientUnits="userSpaceOnUse">
<stop stop-color="#30F6F6"/>
<stop offset="1" stop-color="#30F6F6" stop-opacity="0"/>
</linearGradient>
<linearGradient id="paint7_linear_4351_31842" x1="116.356" y1="249.064" x2="125.715" y2="286.466" gradientUnits="userSpaceOnUse">
<stop stop-color="#30F6F6"/>
<stop offset="1" stop-color="#30F6F6" stop-opacity="0"/>
</linearGradient>
<clipPath id="clip0_4351_31842">
<rect width="1440" height="1569" fill="white"/>
</clipPath>
</defs>
</svg>
