<svg width="64" height="64" viewBox="0 0 64 64" fill="none" xmlns="http://www.w3.org/2000/svg">
<path d="M59.6257 22.052L58.8524 14.6654C57.7324 6.61203 54.0791 3.33203 46.2657 3.33203H39.9724H36.0257H27.9191H23.9724H17.5724C9.7324 3.33203 6.10573 6.61203 4.95907 14.7454L4.23907 22.0787C3.9724 24.932 4.74573 27.7054 6.42573 29.8654C8.4524 32.5054 11.5724 33.9987 15.0391 33.9987C18.3991 33.9987 21.6257 32.3187 23.6524 29.6254C25.4657 32.3187 28.5591 33.9987 31.9991 33.9987C35.4391 33.9987 38.4524 32.3987 40.2924 29.732C42.3457 32.372 45.5191 33.9987 48.8257 33.9987C52.3724 33.9987 55.5724 32.4254 57.5724 29.652C59.1724 27.5187 59.8924 24.8254 59.6257 22.052Z" fill="white"/>
<path d="M30.267 44.426C26.8803 44.7727 24.3203 47.6527 24.3203 51.066V58.3727C24.3203 59.0927 24.907 59.6793 25.627 59.6793H38.347C39.067 59.6793 39.6536 59.0927 39.6536 58.3727V51.9993C39.6803 46.426 36.4003 43.786 30.267 44.426Z" fill="white"/>
<path d="M56.986 38.3963V46.343C56.986 53.703 51.0127 59.6763 43.6527 59.6763C42.9327 59.6763 42.346 59.0896 42.346 58.3696V51.9963C42.346 48.583 41.306 45.9163 39.2794 44.103C37.4927 42.4763 35.066 41.6763 32.0527 41.6763C31.386 41.6763 30.7194 41.703 29.9994 41.783C25.2527 42.263 21.6527 46.263 21.6527 51.063V58.3696C21.6527 59.0896 21.066 59.6763 20.346 59.6763C12.986 59.6763 7.0127 53.703 7.0127 46.343V38.4496C7.0127 36.583 8.8527 35.3296 10.586 35.943C11.306 36.183 12.026 36.3696 12.7727 36.4763C13.0927 36.5296 13.4394 36.583 13.7594 36.583C14.186 36.6363 14.6127 36.663 15.0394 36.663C18.1327 36.663 21.1727 35.5163 23.5727 33.543C25.866 35.5163 28.8527 36.663 31.9994 36.663C35.1727 36.663 38.106 35.5696 40.3994 33.5963C42.7994 35.543 45.786 36.663 48.826 36.663C49.306 36.663 49.786 36.6363 50.2394 36.583C50.5594 36.5563 50.8527 36.5296 51.146 36.4763C51.9727 36.3696 52.7194 36.1296 53.466 35.8896C55.1994 35.303 56.986 36.583 56.986 38.3963Z" fill="white"/>
</svg>
