<svg width="561" height="213" viewBox="0 0 561 213" fill="none" xmlns="http://www.w3.org/2000/svg">
<path d="M35.815 13.13C35.815 14.7767 35.3167 16.2067 34.32 17.42C33.3233 18.59 31.9583 19.175 30.225 19.175C28.3183 19.175 26.8017 18.525 25.675 17.225C24.5917 15.925 23.9417 14.3867 23.725 12.61C24.7217 12.61 25.4367 12.2417 25.87 11.505C26.3467 10.7683 26.585 9.96666 26.585 9.1C26.585 8.10333 26.325 7.25833 25.805 6.565C25.3283 5.87166 24.7 5.30833 23.92 4.875C23.1833 4.44167 22.36 4.13833 21.45 3.965C20.54 3.74833 19.6733 3.64 18.85 3.64C17.55 3.64 16.38 3.87833 15.34 4.355C14.3 4.78833 13.4117 5.41666 12.675 6.24C11.9383 7.02 11.375 7.97333 10.985 9.1C10.595 10.1833 10.4 11.3533 10.4 12.61C10.4 14.4733 11.05 16.055 12.35 17.355C13.6933 18.655 15.34 19.8467 17.29 20.93C19.2833 21.97 21.4283 23.01 23.725 24.05C26.0217 25.0467 28.145 26.195 30.095 27.495C32.0883 28.795 33.735 30.355 35.035 32.175C36.3783 33.995 37.05 36.2267 37.05 38.87C37.05 41.2533 36.5083 43.3333 35.425 45.11C34.3417 46.8433 32.9333 48.2733 31.2 49.4C29.4667 50.4833 27.5383 51.3067 25.415 51.87C23.2917 52.39 21.19 52.65 19.11 52.65C17.16 52.65 15.1233 52.4117 13 51.935C10.8767 51.4583 8.905 50.7 7.085 49.66C5.30833 48.62 3.835 47.2983 2.665 45.695C1.53833 44.0483 0.975 42.055 0.975 39.715C0.975 38.805 1.105 37.9167 1.365 37.05C1.625 36.1833 1.99333 35.425 2.47 34.775C2.99 34.0817 3.61833 33.54 4.355 33.15C5.09167 32.7167 5.95833 32.5 6.955 32.5C7.995 32.5 8.92667 32.7167 9.75 33.15C10.5733 33.5833 11.2667 34.1467 11.83 34.84C12.4367 35.5333 12.9133 36.335 13.26 37.245C13.6067 38.155 13.845 39.065 13.975 39.975C13.325 39.975 12.7617 40.1267 12.285 40.43C11.8083 40.7333 11.3967 41.1233 11.05 41.6C10.7467 42.0333 10.5083 42.5317 10.335 43.095C10.205 43.6583 10.14 44.2217 10.14 44.785C10.14 45.825 10.335 46.7567 10.725 47.58C11.1583 48.36 11.7217 49.01 12.415 49.53C13.1083 50.05 13.8883 50.44 14.755 50.7C15.665 50.96 16.5967 51.09 17.55 51.09C18.85 51.09 20.085 50.9167 21.255 50.57C22.425 50.18 23.4433 49.6383 24.31 48.945C25.22 48.2083 25.935 47.32 26.455 46.28C26.975 45.1967 27.235 43.9617 27.235 42.575C27.235 40.4083 26.6283 38.6317 25.415 37.245C24.2017 35.815 22.685 34.5367 20.865 33.41C19.045 32.2833 17.0517 31.2433 14.885 30.29C12.7617 29.2933 10.79 28.1667 8.97 26.91C7.15 25.61 5.63333 24.0933 4.42 22.36C3.20667 20.6267 2.6 18.46 2.6 15.86C2.6 13.5633 3.07667 11.57 4.03 9.88C4.98333 8.14667 6.24 6.71666 7.8 5.59C9.36 4.42 11.115 3.55333 13.065 2.99C15.0583 2.38333 17.095 2.08 19.175 2.08C20.735 2.08 22.4683 2.29667 24.375 2.73C26.325 3.16333 28.145 3.835 29.835 4.745C31.525 5.61166 32.9333 6.73833 34.06 8.125C35.23 9.51167 35.815 11.18 35.815 13.13ZM45.8225 19.11C44.5225 19.11 43.3958 18.655 42.4425 17.745C41.5325 16.7917 41.0775 15.665 41.0775 14.365C41.0775 12.6317 41.5325 11.18 42.4425 10.01C43.3958 8.79666 44.5658 7.82166 45.9525 7.085C47.3391 6.305 48.8341 5.74166 50.4375 5.395C52.0841 5.04833 53.6225 4.875 55.0525 4.875C56.7425 4.875 58.4108 5.11333 60.0575 5.59C61.7041 6.02333 63.1558 6.695 64.4125 7.605C65.7125 8.515 66.7525 9.66333 67.5325 11.05C68.3558 12.4367 68.7675 14.0833 68.7675 15.99C68.7675 17.7233 68.3558 19.2617 67.5325 20.605V25.61C67.6625 25.48 67.9658 25.2633 68.4425 24.96C68.9191 24.6133 69.4825 24.245 70.1325 23.855C70.7825 23.4217 71.4758 22.9883 72.2125 22.555C72.9925 22.1217 73.7075 21.7317 74.3575 21.385C75.0075 20.995 75.5708 20.6917 76.0475 20.475C76.5241 20.215 76.8275 20.085 76.9575 20.085C79.0375 20.085 80.7925 20.6917 82.2225 21.905C83.6525 23.1183 84.6491 24.7 85.2125 26.65L85.1475 26.325C85.2341 26.1517 85.5158 25.8917 85.9925 25.545C86.5125 25.1983 87.1191 24.7867 87.8125 24.31C88.5491 23.8333 89.3075 23.3567 90.0875 22.88C90.9108 22.36 91.6691 21.905 92.3625 21.515C93.0991 21.0817 93.7275 20.735 94.2475 20.475C94.7675 20.215 95.0925 20.085 95.2225 20.085C96.6958 20.085 97.9741 20.3667 99.0575 20.93C100.141 21.4933 101.029 22.2517 101.722 23.205C102.459 24.1583 103.001 25.2633 103.347 26.52C103.737 27.7767 103.932 29.0767 103.932 30.42V43.16C103.932 43.8967 103.976 44.6983 104.062 45.565C104.149 46.4317 104.301 47.2767 104.517 48.1C104.734 48.9233 105.059 49.6817 105.492 50.375C105.969 51.0683 106.554 51.61 107.247 52H91.1925C91.8858 51.61 92.4491 51.0683 92.8825 50.375C93.3158 49.6383 93.6408 48.88 93.8575 48.1C94.0741 47.2767 94.2258 46.4317 94.3125 45.565C94.3991 44.6983 94.4425 43.8967 94.4425 43.16V30.68C94.4425 30.03 94.3775 29.3583 94.2475 28.665C94.1175 27.9717 93.9008 27.3433 93.5975 26.78C93.2941 26.2167 92.8608 25.7617 92.2975 25.415C91.7775 25.0683 91.1275 24.895 90.3475 24.895C89.6108 24.895 88.9391 25.0683 88.3325 25.415C87.7691 25.7617 87.2925 26.2167 86.9025 26.78C86.5125 27.3433 86.2091 27.9717 85.9925 28.665C85.7758 29.3583 85.6675 30.03 85.6675 30.68V43.16C85.6675 43.8967 85.7108 44.6983 85.7975 45.565C85.8841 46.4317 86.0358 47.2767 86.2525 48.1C86.4691 48.9233 86.7941 49.6817 87.2275 50.375C87.7041 51.0683 88.2891 51.61 88.9825 52H72.9275C73.6208 51.61 74.1841 51.0683 74.6175 50.375C75.0508 49.6383 75.3758 48.88 75.5925 48.1C75.8091 47.2767 75.9608 46.4317 76.0475 45.565C76.1341 44.6983 76.1775 43.8967 76.1775 43.16V30.68C76.1775 30.03 76.1125 29.3583 75.9825 28.665C75.8525 27.9717 75.6358 27.3433 75.3325 26.78C75.0291 26.2167 74.5958 25.7617 74.0325 25.415C73.5125 25.0683 72.8625 24.895 72.0825 24.895C71.5191 24.895 70.9558 25.0467 70.3925 25.35C69.8725 25.61 69.3958 25.9567 68.9625 26.39C68.5291 26.8233 68.1825 27.3217 67.9225 27.885C67.6625 28.405 67.5325 28.9467 67.5325 29.51V43.16C67.5325 43.8967 67.5541 44.6983 67.5975 45.565C67.6841 46.4317 67.8358 47.2767 68.0525 48.1C68.2691 48.9233 68.5941 49.6817 69.0275 50.375C69.4608 51.0683 70.0458 51.61 70.7825 52H54.7275C55.4208 51.61 55.9841 51.0683 56.4175 50.375C56.8508 49.6383 57.1758 48.88 57.3925 48.1C57.6525 47.2767 57.8258 46.4317 57.9125 45.565C57.9991 44.6983 58.0425 43.8967 58.0425 43.16V33.93C58.0425 33.02 57.9558 32.1967 57.7825 31.46C57.6091 30.68 57.3708 29.965 57.0675 29.315C56.7641 28.665 56.3741 28.0367 55.8975 27.43C55.4641 26.78 54.9658 26.1083 54.4025 25.415C55.6591 25.1983 56.9158 24.8517 58.1725 24.375C59.4725 23.855 60.6208 23.205 61.6175 22.425C62.6141 21.6017 63.4158 20.6267 64.0225 19.5C64.6725 18.3733 64.9975 17.0733 64.9975 15.6C64.9975 14.1267 64.6725 12.8267 64.0225 11.7C63.4158 10.53 62.5925 9.555 61.5525 8.775C60.5558 7.995 59.4075 7.41 58.1075 7.02C56.8075 6.58667 55.4858 6.37 54.1425 6.37C52.6258 6.37 51.1091 6.63 49.5925 7.15C48.0758 7.62666 46.8191 8.45 45.8225 9.62C47.1225 9.62 48.2275 10.0967 49.1375 11.05C50.0908 11.96 50.5675 13.065 50.5675 14.365C50.5675 15.665 50.0908 16.7917 49.1375 17.745C48.2275 18.655 47.1225 19.11 45.8225 19.11ZM38.0225 25.415C39.5391 25.155 40.8175 24.9167 41.8575 24.7C42.9408 24.44 43.9375 24.1367 44.8475 23.79C45.8008 23.4433 46.7541 23.0317 47.7075 22.555C48.7041 22.035 49.8525 21.385 51.1525 20.605V43.16C51.1525 43.8967 51.1741 44.6983 51.2175 45.565C51.3041 46.4317 51.4558 47.2767 51.6725 48.1C51.8891 48.9233 52.2141 49.6817 52.6475 50.375C53.0808 51.0683 53.6658 51.61 54.4025 52H38.3475C39.0408 51.61 39.6041 51.0683 40.0375 50.375C40.4708 49.6383 40.7958 48.88 41.0125 48.1C41.2725 47.2767 41.4458 46.4317 41.5325 45.565C41.6191 44.6983 41.6625 43.8967 41.6625 43.16V33.93C41.6625 33.02 41.5758 32.1967 41.4025 31.46C41.2291 30.68 40.9908 29.965 40.6875 29.315C40.3841 28.665 39.9941 28.0367 39.5175 27.43C39.0841 26.78 38.5858 26.1083 38.0225 25.415ZM110.915 57.59V33.865C110.915 32.955 110.829 32.1317 110.655 31.395C110.482 30.615 110.244 29.9 109.94 29.25C109.637 28.6 109.247 27.9717 108.77 27.365C108.337 26.715 107.839 26.0433 107.275 25.35C108.792 25.09 110.07 24.8517 111.11 24.635C112.194 24.375 113.19 24.0717 114.1 23.725C115.054 23.3783 116.007 22.9667 116.96 22.49C117.957 21.97 119.105 21.3417 120.405 20.605V25.285C120.969 24.635 121.554 24.0067 122.16 23.4C122.81 22.75 123.439 22.165 124.045 21.645C124.695 21.125 125.324 20.7133 125.93 20.41C126.58 20.0633 127.165 19.89 127.685 19.89C129.939 19.89 131.932 20.3233 133.665 21.19C135.399 22.0567 136.85 23.2267 138.02 24.7C139.234 26.13 140.144 27.7983 140.75 29.705C141.357 31.6117 141.66 33.605 141.66 35.685C141.66 37.895 141.335 40.0183 140.685 42.055C140.035 44.0917 139.06 45.89 137.76 47.45C136.504 49.01 134.944 50.2667 133.08 51.22C131.26 52.13 129.18 52.585 126.84 52.585C125.367 52.585 124.175 52.4767 123.265 52.26C122.355 52.0867 121.402 51.8267 120.405 51.48V57.59C120.405 58.3267 120.427 59.1283 120.47 59.995C120.557 60.8617 120.709 61.685 120.925 62.465C121.185 63.2883 121.532 64.0467 121.965 64.74C122.399 65.4333 122.962 65.9967 123.655 66.43H107.6C108.337 65.9967 108.922 65.4333 109.355 64.74C109.789 64.0467 110.114 63.2883 110.33 62.465C110.547 61.685 110.699 60.8617 110.785 59.995C110.872 59.1283 110.915 58.3267 110.915 57.59ZM120.405 26.065V42.51C120.405 43.3333 120.47 44.2433 120.6 45.24C120.73 46.2367 120.99 47.1683 121.38 48.035C121.77 48.8583 122.29 49.5517 122.94 50.115C123.634 50.6783 124.522 50.96 125.605 50.96C126.949 50.96 128.075 50.5917 128.985 49.855C129.895 49.075 130.61 48.1217 131.13 46.995C131.694 45.8683 132.084 44.6767 132.3 43.42C132.56 42.12 132.69 40.9283 132.69 39.845C132.69 38.155 132.474 36.465 132.04 34.775C131.607 33.085 130.935 31.5683 130.025 30.225C129.115 28.8383 127.945 27.7333 126.515 26.91C125.129 26.0433 123.482 25.61 121.575 25.61C121.272 25.61 120.882 25.7617 120.405 26.065ZM142.188 10.725C144.528 10.335 146.738 9.79333 148.818 9.1C150.941 8.40666 152.999 7.41 154.993 6.11C155.383 5.85 155.773 5.56833 156.163 5.265C156.553 4.96167 156.964 4.68 157.398 4.42C159.088 3.38 160.973 2.535 163.053 1.885C165.133 1.19166 167.191 0.844996 169.228 0.844996C170.311 0.844996 171.351 0.974997 172.348 1.235C173.344 1.45167 174.211 1.84167 174.948 2.405C175.728 2.925 176.334 3.61833 176.768 4.485C177.244 5.30833 177.483 6.32667 177.483 7.54C177.483 8.62333 177.288 9.66333 176.898 10.66C176.551 11.6567 176.053 12.5883 175.403 13.455C174.796 14.2783 174.081 15.0367 173.258 15.73C172.434 16.4233 171.568 17.0083 170.658 17.485C170.051 17.8317 169.379 18.2 168.643 18.59C167.906 18.9367 167.169 19.11 166.433 19.11C165.133 19.11 164.006 18.655 163.053 17.745C162.143 16.7917 161.688 15.665 161.688 14.365C161.688 13.065 162.143 11.96 163.053 11.05C164.006 10.0967 165.133 9.62 166.433 9.62C167.733 9.62 168.838 10.0967 169.748 11.05C170.701 11.96 171.178 13.065 171.178 14.365C171.178 15.1883 170.961 15.9467 170.528 16.64C170.138 17.29 169.618 17.8533 168.968 18.33C170.441 17.4633 171.633 16.2933 172.543 14.82C173.496 13.3033 173.973 11.6783 173.973 9.945C173.973 7.69166 173.258 6.00166 171.828 4.875C170.441 3.74833 168.686 3.185 166.563 3.185C165.566 3.185 164.526 3.315 163.443 3.575C162.359 3.835 161.319 4.225 160.323 4.745C159.326 5.22166 158.394 5.80666 157.528 6.5C156.661 7.15 155.924 7.88666 155.318 8.71V43.16C155.318 43.8967 155.339 44.6983 155.383 45.565C155.469 46.4317 155.621 47.2767 155.838 48.1C156.098 48.9233 156.444 49.6817 156.878 50.375C157.311 51.0683 157.896 51.61 158.633 52H142.513C143.249 51.61 143.834 51.0683 144.268 50.375C144.701 49.6817 145.026 48.9233 145.243 48.1C145.459 47.2767 145.611 46.4317 145.698 45.565C145.784 44.6983 145.828 43.8967 145.828 43.16V19.24C145.828 18.33 145.741 17.5067 145.568 16.77C145.394 15.99 145.156 15.275 144.853 14.625C144.549 13.975 144.159 13.3467 143.683 12.74C143.249 12.09 142.751 11.4183 142.188 10.725ZM158.633 25.415C160.149 25.155 161.428 24.9167 162.468 24.7C163.551 24.44 164.548 24.1367 165.458 23.79C166.411 23.4433 167.364 23.0317 168.318 22.555C169.314 22.035 170.463 21.385 171.763 20.605V43.16C171.763 43.8967 171.784 44.6983 171.828 45.565C171.914 46.4317 172.066 47.2767 172.283 48.1C172.499 48.9233 172.824 49.6817 173.258 50.375C173.691 51.0683 174.276 51.61 175.012 52H158.958C159.651 51.61 160.214 51.0683 160.648 50.375C161.081 49.6383 161.406 48.88 161.623 48.1C161.883 47.2767 162.056 46.4317 162.143 45.565C162.229 44.6983 162.273 43.8967 162.273 43.16V33.93C162.273 33.02 162.186 32.1967 162.013 31.46C161.839 30.68 161.601 29.965 161.297 29.315C160.994 28.665 160.604 28.0367 160.128 27.43C159.694 26.78 159.196 26.1083 158.633 25.415ZM192.36 6.63C193.357 6.63 194.375 6.76 195.415 7.02C196.455 7.28 197.387 7.67 198.21 8.19C199.077 8.71 199.77 9.40333 200.29 10.27C200.81 11.0933 201.07 12.09 201.07 13.26C201.07 14.7767 200.572 16.0333 199.575 17.03C198.578 17.9833 197.322 18.46 195.805 18.46C194.418 18.46 193.27 18.005 192.36 17.095C191.45 16.185 190.8 15.1017 190.41 13.845C191.233 13.845 191.905 13.6067 192.425 13.13C192.945 12.61 193.205 11.9383 193.205 11.115C193.205 10.2483 192.923 9.57666 192.36 9.1C191.797 8.58 191.082 8.32 190.215 8.32C189.522 8.32 188.872 8.47166 188.265 8.775C187.658 9.07833 187.138 9.49 186.705 10.01C186.315 10.53 185.99 11.115 185.73 11.765C185.513 12.415 185.405 13.065 185.405 13.715C185.405 15.0583 185.73 16.185 186.38 17.095C187.073 17.9617 187.94 18.655 188.98 19.175C190.02 19.695 191.147 20.0633 192.36 20.28C193.573 20.4967 194.722 20.605 195.805 20.605V22.165H188.395V43.16C188.395 43.8967 188.417 44.6983 188.46 45.565C188.547 46.4317 188.698 47.2767 188.915 48.1C189.132 48.9233 189.457 49.6817 189.89 50.375C190.323 51.0683 190.908 51.61 191.645 52H175.59C176.283 51.61 176.847 51.0683 177.28 50.375C177.713 49.6383 178.038 48.88 178.255 48.1C178.515 47.2767 178.688 46.4317 178.775 45.565C178.862 44.6983 178.905 43.8967 178.905 43.16V22.165H175.33V20.605H179.035C179.035 18.525 179.317 16.64 179.88 14.95C180.487 13.2167 181.353 11.7433 182.48 10.53C183.607 9.27333 184.993 8.32 186.64 7.67C188.33 6.97667 190.237 6.63 192.36 6.63ZM206.355 19.11C205.055 19.11 203.928 18.655 202.975 17.745C202.065 16.7917 201.61 15.665 201.61 14.365C201.61 13.065 202.065 11.96 202.975 11.05C203.928 10.0967 205.055 9.62 206.355 9.62C207.655 9.62 208.76 10.0967 209.67 11.05C210.623 11.96 211.1 13.065 211.1 14.365C211.1 15.665 210.623 16.7917 209.67 17.745C208.76 18.655 207.655 19.11 206.355 19.11ZM214.935 52H198.88C199.573 51.61 200.136 51.0683 200.57 50.375C201.003 49.6383 201.328 48.88 201.545 48.1C201.805 47.2767 201.978 46.4317 202.065 45.565C202.151 44.6983 202.195 43.8967 202.195 43.16V33.93C202.195 33.02 202.108 32.1967 201.935 31.46C201.761 30.68 201.523 29.965 201.22 29.315C200.916 28.665 200.526 28.0367 200.05 27.43C199.616 26.78 199.118 26.1083 198.555 25.415C200.071 25.155 201.35 24.9167 202.39 24.7C203.473 24.44 204.47 24.1367 205.38 23.79C206.333 23.4433 207.286 23.0317 208.24 22.555C209.236 22.035 210.385 21.385 211.685 20.605V43.16C211.685 43.8967 211.706 44.6983 211.75 45.565C211.836 46.4317 211.988 47.2767 212.205 48.1C212.421 48.9233 212.746 49.6817 213.18 50.375C213.613 51.0683 214.198 51.61 214.935 52ZM225.332 36.075C225.635 37.4183 226.09 38.6967 226.697 39.91C227.303 41.08 228.062 42.12 228.972 43.03C229.882 43.8967 230.943 44.59 232.157 45.11C233.413 45.63 234.822 45.89 236.382 45.89C236.858 45.89 237.422 45.8683 238.072 45.825C238.765 45.7383 239.458 45.63 240.152 45.5C240.845 45.37 241.495 45.1967 242.102 44.98C242.752 44.72 243.25 44.4167 243.597 44.07L244.117 44.46C242.643 47.1467 240.888 49.1833 238.852 50.57C236.858 51.9567 234.258 52.65 231.052 52.65C228.798 52.65 226.697 52.2383 224.747 51.415C222.84 50.5917 221.193 49.465 219.807 48.035C218.463 46.5617 217.402 44.85 216.622 42.9C215.842 40.95 215.452 38.8483 215.452 36.595C215.452 34.4283 215.777 32.3483 216.427 30.355C217.12 28.3617 218.095 26.6067 219.352 25.09C220.652 23.5733 222.212 22.36 224.032 21.45C225.852 20.54 227.91 20.085 230.207 20.085C232.287 20.085 234.172 20.41 235.862 21.06C237.595 21.6667 239.047 22.5767 240.217 23.79C241.43 24.96 242.362 26.39 243.012 28.08C243.662 29.77 243.987 31.655 243.987 33.735V35.295L225.332 36.075ZM235.277 28.535C235.277 27.7983 235.125 27.0183 234.822 26.195C234.562 25.3717 234.172 24.635 233.652 23.985C233.132 23.2917 232.525 22.7283 231.832 22.295C231.138 21.8617 230.38 21.645 229.557 21.645C228.603 21.645 227.823 22.035 227.217 22.815C226.61 23.595 226.133 24.5267 225.787 25.61C225.44 26.65 225.18 27.7333 225.007 28.86C224.877 29.9867 224.812 30.875 224.812 31.525C224.812 32.4783 224.877 33.4533 225.007 34.45C225.873 34.3633 226.74 34.255 227.607 34.125C228.473 33.995 229.34 33.865 230.207 33.735C231.68 33.5183 232.893 32.9983 233.847 32.175C234.8 31.3517 235.277 30.1383 235.277 28.535ZM276.031 5.98V43.16C276.031 43.8967 276.052 44.6983 276.096 45.565C276.182 46.4317 276.334 47.2767 276.551 48.1C276.767 48.9233 277.092 49.6817 277.526 50.375C277.959 51.0683 278.544 51.61 279.281 52H266.541V49.335C265.804 50.375 264.872 51.1767 263.746 51.74C262.662 52.3033 261.167 52.585 259.261 52.585C257.007 52.585 255.014 52.1517 253.281 51.285C251.547 50.4183 250.074 49.27 248.861 47.84C247.691 46.3667 246.802 44.6767 246.196 42.77C245.589 40.8633 245.286 38.87 245.286 36.79C245.286 34.58 245.611 32.4567 246.261 30.42C246.911 28.3833 247.864 26.585 249.121 25.025C250.421 23.465 251.981 22.23 253.801 21.32C255.664 20.3667 257.766 19.89 260.106 19.89C260.409 19.89 260.864 19.9983 261.471 20.215C262.077 20.3883 262.706 20.605 263.356 20.865C264.006 21.0817 264.634 21.32 265.241 21.58C265.847 21.84 266.281 22.035 266.541 22.165V19.24C266.541 18.33 266.454 17.5067 266.281 16.77C266.107 15.99 265.869 15.275 265.566 14.625C265.262 13.975 264.872 13.3467 264.396 12.74C263.962 12.09 263.464 11.4183 262.901 10.725C264.417 10.465 265.696 10.2267 266.736 10.01C267.819 9.75 268.816 9.44667 269.726 9.1C270.679 8.75333 271.632 8.34166 272.586 7.865C273.582 7.345 274.731 6.71666 276.031 5.98ZM266.541 29.965C266.541 29.0983 266.476 28.1883 266.346 27.235C266.216 26.2383 265.956 25.3283 265.566 24.505C265.176 23.6383 264.634 22.9233 263.941 22.36C263.291 21.7967 262.424 21.515 261.341 21.515C260.041 21.515 258.936 21.8833 258.026 22.62C257.116 23.3133 256.379 24.2017 255.816 25.285C255.252 26.325 254.841 27.4733 254.581 28.73C254.364 29.9433 254.256 31.0917 254.256 32.175C254.256 33.865 254.472 35.5333 254.906 37.18C255.382 38.7833 256.076 40.235 256.986 41.535C257.896 42.7917 259.044 43.8317 260.431 44.655C261.861 45.435 263.507 45.825 265.371 45.825H266.541V29.965ZM295.696 57.59V33.865C295.696 32.955 295.609 32.1317 295.436 31.395C295.262 30.615 295.024 29.9 294.721 29.25C294.417 28.6 294.027 27.9717 293.551 27.365C293.117 26.715 292.619 26.0433 292.056 25.35C293.572 25.09 294.851 24.8517 295.891 24.635C296.974 24.375 297.971 24.0717 298.881 23.725C299.834 23.3783 300.787 22.9667 301.741 22.49C302.737 21.97 303.886 21.3417 305.186 20.605V25.285C305.749 24.635 306.334 24.0067 306.941 23.4C307.591 22.75 308.219 22.165 308.826 21.645C309.476 21.125 310.104 20.7133 310.711 20.41C311.361 20.0633 311.946 19.89 312.466 19.89C314.719 19.89 316.712 20.3233 318.446 21.19C320.179 22.0567 321.631 23.2267 322.801 24.7C324.014 26.13 324.924 27.7983 325.531 29.705C326.137 31.6117 326.441 33.605 326.441 35.685C326.441 37.895 326.116 40.0183 325.466 42.055C324.816 44.0917 323.841 45.89 322.541 47.45C321.284 49.01 319.724 50.2667 317.861 51.22C316.041 52.13 313.961 52.585 311.621 52.585C310.147 52.585 308.956 52.4767 308.046 52.26C307.136 52.0867 306.182 51.8267 305.186 51.48V57.59C305.186 58.3267 305.207 59.1283 305.251 59.995C305.337 60.8617 305.489 61.685 305.706 62.465C305.966 63.2883 306.312 64.0467 306.746 64.74C307.179 65.4333 307.742 65.9967 308.436 66.43H292.381C293.117 65.9967 293.702 65.4333 294.136 64.74C294.569 64.0467 294.894 63.2883 295.111 62.465C295.327 61.685 295.479 60.8617 295.566 59.995C295.652 59.1283 295.696 58.3267 295.696 57.59ZM305.186 26.065V42.51C305.186 43.3333 305.251 44.2433 305.381 45.24C305.511 46.2367 305.771 47.1683 306.161 48.035C306.551 48.8583 307.071 49.5517 307.721 50.115C308.414 50.6783 309.302 50.96 310.386 50.96C311.729 50.96 312.856 50.5917 313.766 49.855C314.676 49.075 315.391 48.1217 315.911 46.995C316.474 45.8683 316.864 44.6767 317.081 43.42C317.341 42.12 317.471 40.9283 317.471 39.845C317.471 38.155 317.254 36.465 316.821 34.775C316.387 33.085 315.716 31.5683 314.806 30.225C313.896 28.8383 312.726 27.7333 311.296 26.91C309.909 26.0433 308.262 25.61 306.356 25.61C306.052 25.61 305.662 25.7617 305.186 26.065ZM356.348 49.985C355.784 50.375 355.264 50.7433 354.788 51.09C354.311 51.4367 353.834 51.7183 353.358 51.935C352.881 52.1517 352.361 52.325 351.798 52.455C351.234 52.585 350.584 52.65 349.848 52.65C348.678 52.65 347.508 52.3467 346.338 51.74C345.168 51.09 344.344 50.2017 343.868 49.075C342.871 50.2017 341.658 51.09 340.228 51.74C338.798 52.3467 337.151 52.65 335.288 52.65C332.991 52.65 331.106 52.1083 329.633 51.025C328.203 49.9417 327.488 48.165 327.488 45.695C327.488 44.005 328.116 42.5317 329.373 41.275C330.673 40.0183 332.189 38.87 333.923 37.83C335.699 36.79 337.476 35.7933 339.253 34.84C341.073 33.8433 342.503 32.7817 343.543 31.655V29.575C343.543 29.0117 343.543 28.2967 343.543 27.43C343.543 26.52 343.456 25.6533 343.283 24.83C343.109 23.9633 342.806 23.2267 342.373 22.62C341.983 21.97 341.354 21.645 340.488 21.645C340.011 21.645 339.578 21.775 339.188 22.035C338.798 22.295 338.451 22.62 338.148 23.01C337.888 23.4 337.671 23.8333 337.498 24.31C337.368 24.7433 337.303 25.1767 337.303 25.61C337.303 26.39 337.541 26.975 338.018 27.365C338.494 27.755 339.101 27.95 339.838 27.95C339.361 29.5533 338.538 30.9833 337.368 32.24C336.198 33.4533 334.703 34.06 332.883 34.06C331.496 34.06 330.434 33.5617 329.698 32.565C329.004 31.525 328.658 30.3767 328.658 29.12C328.658 27.4733 329.048 26.0867 329.828 24.96C330.651 23.8333 331.669 22.9017 332.883 22.165C334.139 21.4283 335.504 20.9083 336.978 20.605C338.494 20.2583 339.924 20.085 341.268 20.085C342.914 20.085 344.453 20.3233 345.883 20.8C347.313 21.2333 348.548 21.905 349.588 22.815C350.671 23.725 351.516 24.8517 352.123 26.195C352.729 27.495 353.033 29.0117 353.033 30.745V45.695C353.033 45.9983 353.054 46.3883 353.098 46.865C353.141 47.2983 353.228 47.7317 353.358 48.165C353.488 48.5983 353.683 48.9667 353.943 49.27C354.246 49.5733 354.614 49.725 355.048 49.725C355.524 49.725 355.958 49.595 356.348 49.335V49.985ZM343.543 33.93C342.936 34.4933 342.243 35.1 341.463 35.75C340.726 36.4 340.033 37.0933 339.383 37.83C338.733 38.5233 338.169 39.2817 337.693 40.105C337.259 40.9283 337.043 41.8167 337.043 42.77C337.043 43.4633 337.086 44.1567 337.173 44.85C337.303 45.5 337.498 46.085 337.758 46.605C338.061 47.125 338.473 47.5583 338.993 47.905C339.513 48.2083 340.184 48.36 341.008 48.36C341.961 48.36 342.806 48.1433 343.543 47.71V33.93ZM367.184 52L361.269 37.245C360.879 36.2483 360.359 34.905 359.709 33.215C359.059 31.525 358.344 29.8133 357.564 28.08C356.784 26.3467 355.918 24.7867 354.964 23.4C354.054 21.97 353.101 21.0383 352.104 20.605H370.044C368.961 20.9517 368.159 21.6017 367.639 22.555C367.119 23.5083 366.859 24.5483 366.859 25.675C366.859 26.585 367.141 27.9283 367.704 29.705C368.268 31.4817 368.918 33.345 369.654 35.295C370.434 37.245 371.193 39.13 371.929 40.95C372.709 42.7267 373.316 44.1133 373.749 45.11C374.226 43.8967 374.724 42.64 375.244 41.34C375.808 39.9967 376.306 38.6533 376.739 37.31C377.216 35.9233 377.606 34.5367 377.909 33.15C378.213 31.7633 378.364 30.42 378.364 29.12C378.364 27.04 377.909 25.285 376.999 23.855C376.089 22.425 374.659 21.3417 372.709 20.605H387.789C386.793 21.0383 385.818 21.97 384.864 23.4C383.954 24.83 383.088 26.4117 382.264 28.145C381.484 29.835 380.769 31.5467 380.119 33.28C379.469 34.97 378.949 36.335 378.559 37.375L372.709 52C372.146 53.43 371.518 54.9683 370.824 56.615C370.174 58.2617 369.373 59.8 368.419 61.23C367.509 62.66 366.404 63.8517 365.104 64.805C363.804 65.7583 362.223 66.235 360.359 66.235C359.363 66.235 358.409 66.105 357.499 65.845C356.633 65.6283 355.853 65.26 355.159 64.74C354.509 64.2633 353.989 63.635 353.599 62.855C353.209 62.075 353.014 61.1433 353.014 60.06C353.014 59.4967 353.101 58.8467 353.274 58.11C353.448 57.4167 353.708 56.7667 354.054 56.16C354.444 55.5533 354.899 55.0333 355.419 54.6C355.939 54.21 356.546 54.015 357.239 54.015C357.239 55.575 357.738 56.7233 358.734 57.46C359.774 58.1967 361.009 58.565 362.439 58.565C363.046 58.565 363.783 58.4567 364.649 58.24C365.516 58.0233 366.339 57.6983 367.119 57.265C367.943 56.875 368.636 56.3767 369.199 55.77C369.763 55.1633 370.044 54.47 370.044 53.69C370.044 52.9967 369.698 52.5417 369.004 52.325C368.311 52.1083 367.704 52 367.184 52ZM417.254 26.325C417.34 26.1517 417.622 25.8917 418.099 25.545C418.619 25.1983 419.225 24.7867 419.919 24.31C420.655 23.8333 421.414 23.3567 422.194 22.88C423.017 22.36 423.775 21.905 424.469 21.515C425.205 21.0817 425.834 20.735 426.354 20.475C426.874 20.215 427.199 20.085 427.329 20.085C428.802 20.085 430.08 20.3667 431.164 20.93C432.247 21.4933 433.135 22.2517 433.829 23.205C434.565 24.1583 435.107 25.2633 435.454 26.52C435.844 27.7767 436.039 29.0767 436.039 30.42V43.16C436.039 43.8967 436.082 44.6983 436.169 45.565C436.255 46.4317 436.407 47.2767 436.624 48.1C436.84 48.9233 437.165 49.6817 437.599 50.375C438.075 51.0683 438.66 51.61 439.354 52H423.299C423.992 51.61 424.555 51.0683 424.989 50.375C425.422 49.6383 425.747 48.88 425.964 48.1C426.18 47.2767 426.332 46.4317 426.419 45.565C426.505 44.6983 426.549 43.8967 426.549 43.16V30.68C426.549 30.03 426.484 29.3583 426.354 28.665C426.224 27.9717 426.007 27.3433 425.704 26.78C425.4 26.2167 424.967 25.7617 424.404 25.415C423.884 25.0683 423.234 24.895 422.454 24.895C421.674 24.895 421.002 25.0683 420.439 25.415C419.875 25.7617 419.399 26.2167 419.009 26.78C418.619 27.3 418.315 27.9067 418.099 28.6C417.925 29.2933 417.817 29.9867 417.774 30.68V43.16C417.774 43.8967 417.817 44.6983 417.904 45.565C417.99 46.4317 418.142 47.2767 418.359 48.1C418.575 48.9233 418.9 49.6817 419.334 50.375C419.81 51.0683 420.395 51.61 421.089 52H405.034C405.727 51.61 406.29 51.0683 406.724 50.375C407.157 49.6383 407.482 48.88 407.699 48.1C407.915 47.2767 408.067 46.4317 408.154 45.565C408.24 44.6983 408.284 43.8967 408.284 43.16V30.68C408.284 30.03 408.219 29.3583 408.089 28.665C407.959 27.9717 407.742 27.3433 407.439 26.78C407.135 26.2167 406.702 25.7617 406.139 25.415C405.619 25.0683 404.969 24.895 404.189 24.895C402.845 24.895 401.805 25.3717 401.069 26.325C400.332 27.235 399.855 28.2967 399.639 29.51V43.16C399.639 43.8967 399.66 44.6983 399.704 45.565C399.79 46.4317 399.942 47.2767 400.159 48.1C400.375 48.9233 400.7 49.6817 401.134 50.375C401.567 51.0683 402.152 51.61 402.889 52H386.834C387.527 51.61 388.09 51.0683 388.524 50.375C388.957 49.6383 389.282 48.88 389.499 48.1C389.759 47.2767 389.932 46.4317 390.019 45.565C390.105 44.6983 390.149 43.8967 390.149 43.16V33.93C390.149 33.02 390.062 32.1967 389.889 31.46C389.715 30.68 389.477 29.965 389.174 29.315C388.87 28.665 388.48 28.0367 388.004 27.43C387.57 26.78 387.072 26.1083 386.509 25.415C388.025 25.155 389.304 24.9167 390.344 24.7C391.427 24.44 392.424 24.1367 393.334 23.79C394.287 23.4433 395.24 23.0317 396.194 22.555C397.19 22.035 398.339 21.385 399.639 20.605V25.675C399.942 25.3717 400.57 24.9167 401.524 24.31C402.477 23.7033 403.474 23.0967 404.514 22.49C405.597 21.84 406.572 21.2767 407.439 20.8C408.349 20.3233 408.89 20.085 409.064 20.085C411.317 20.085 413.115 20.735 414.459 22.035C415.845 23.2917 416.799 24.8733 417.319 26.78L417.254 26.325ZM449.785 36.075C450.088 37.4183 450.543 38.6967 451.15 39.91C451.756 41.08 452.515 42.12 453.425 43.03C454.335 43.8967 455.396 44.59 456.61 45.11C457.866 45.63 459.275 45.89 460.835 45.89C461.311 45.89 461.875 45.8683 462.525 45.825C463.218 45.7383 463.911 45.63 464.605 45.5C465.298 45.37 465.948 45.1967 466.555 44.98C467.205 44.72 467.703 44.4167 468.05 44.07L468.57 44.46C467.096 47.1467 465.341 49.1833 463.305 50.57C461.311 51.9567 458.711 52.65 455.505 52.65C453.251 52.65 451.15 52.2383 449.2 51.415C447.293 50.5917 445.646 49.465 444.26 48.035C442.916 46.5617 441.855 44.85 441.075 42.9C440.295 40.95 439.905 38.8483 439.905 36.595C439.905 34.4283 440.23 32.3483 440.88 30.355C441.573 28.3617 442.548 26.6067 443.805 25.09C445.105 23.5733 446.665 22.36 448.485 21.45C450.305 20.54 452.363 20.085 454.66 20.085C456.74 20.085 458.625 20.41 460.315 21.06C462.048 21.6667 463.5 22.5767 464.67 23.79C465.883 24.96 466.815 26.39 467.465 28.08C468.115 29.77 468.44 31.655 468.44 33.735V35.295L449.785 36.075ZM459.73 28.535C459.73 27.7983 459.578 27.0183 459.275 26.195C459.015 25.3717 458.625 24.635 458.105 23.985C457.585 23.2917 456.978 22.7283 456.285 22.295C455.591 21.8617 454.833 21.645 454.01 21.645C453.056 21.645 452.276 22.035 451.67 22.815C451.063 23.595 450.586 24.5267 450.24 25.61C449.893 26.65 449.633 27.7333 449.46 28.86C449.33 29.9867 449.265 30.875 449.265 31.525C449.265 32.4783 449.33 33.4533 449.46 34.45C450.326 34.3633 451.193 34.255 452.06 34.125C452.926 33.995 453.793 33.865 454.66 33.735C456.133 33.5183 457.346 32.9983 458.3 32.175C459.253 31.3517 459.73 30.1383 459.73 28.535ZM485.599 52H469.544C470.237 51.61 470.8 51.0683 471.234 50.375C471.667 49.6383 471.992 48.88 472.209 48.1C472.469 47.2767 472.642 46.4317 472.729 45.565C472.815 44.6983 472.859 43.8967 472.859 43.16V33.93C472.859 33.02 472.772 32.1967 472.599 31.46C472.425 30.68 472.187 29.965 471.884 29.315C471.58 28.665 471.19 28.0367 470.714 27.43C470.28 26.78 469.782 26.1083 469.219 25.415C470.735 25.155 472.014 24.9167 473.054 24.7C474.137 24.44 475.134 24.1367 476.044 23.79C476.997 23.4433 477.95 23.0317 478.904 22.555C479.9 22.035 481.049 21.385 482.349 20.605V25.675C482.652 25.3717 483.28 24.9167 484.234 24.31C485.187 23.7033 486.184 23.0967 487.224 22.49C488.307 21.84 489.282 21.2767 490.149 20.8C491.059 20.3233 491.6 20.085 491.774 20.085C493.247 20.085 494.525 20.3667 495.609 20.93C496.692 21.4933 497.58 22.2517 498.274 23.205C499.01 24.1583 499.552 25.2633 499.899 26.52C500.289 27.7767 500.484 29.0767 500.484 30.42V43.16C500.484 43.8967 500.527 44.6983 500.614 45.565C500.7 46.4317 500.852 47.2767 501.069 48.1C501.285 48.9233 501.61 49.6817 502.044 50.375C502.52 51.0683 503.105 51.61 503.799 52H487.744C488.437 51.61 489 51.0683 489.434 50.375C489.867 49.6383 490.192 48.88 490.409 48.1C490.625 47.2767 490.777 46.4317 490.864 45.565C490.95 44.6983 490.994 43.8967 490.994 43.16V30.68C490.994 30.03 490.929 29.3583 490.799 28.665C490.669 27.9717 490.452 27.3433 490.149 26.78C489.845 26.2167 489.412 25.7617 488.849 25.415C488.329 25.0683 487.679 24.895 486.899 24.895C485.555 24.895 484.515 25.3717 483.779 26.325C483.042 27.235 482.565 28.2967 482.349 29.51V43.16C482.349 43.8967 482.37 44.6983 482.414 45.565C482.5 46.4317 482.652 47.2767 482.869 48.1C483.085 48.9233 483.41 49.6817 483.844 50.375C484.277 51.0683 484.862 51.61 485.599 52ZM515.544 20.605H522.304V22.165H515.544V45.175C515.544 46.4317 515.956 47.3417 516.779 47.905C517.646 48.425 518.642 48.685 519.769 48.685C520.376 48.685 520.961 48.62 521.524 48.49C522.131 48.36 522.694 48.1433 523.214 47.84V48.49C521.914 49.7033 520.397 50.7 518.664 51.48C516.974 52.26 515.219 52.65 513.399 52.65C512.099 52.65 510.972 52.4117 510.019 51.935C509.109 51.4583 508.351 50.83 507.744 50.05C507.181 49.2267 506.747 48.295 506.444 47.255C506.184 46.1717 506.054 45.045 506.054 43.875V22.165H502.869V21.19C504.386 21.06 505.751 20.8 506.964 20.41C508.177 20.02 509.261 19.5 510.214 18.85C511.167 18.1567 511.991 17.29 512.684 16.25C513.421 15.21 514.049 13.9533 514.569 12.48H515.544V20.605ZM535.79 52.65C534.577 52.65 533.233 52.4983 531.76 52.195C530.33 51.8917 528.987 51.415 527.73 50.765C526.473 50.115 525.412 49.27 524.545 48.23C523.722 47.1467 523.31 45.8467 523.31 44.33C523.31 42.9 523.7 41.665 524.48 40.625C525.303 39.585 526.473 39.065 527.99 39.065C529.463 39.065 530.655 39.6283 531.565 40.755C532.518 41.8383 533.125 43.03 533.385 44.33C532.605 44.33 531.955 44.59 531.435 45.11C530.958 45.63 530.72 46.28 530.72 47.06C530.72 47.71 530.872 48.295 531.175 48.815C531.478 49.335 531.868 49.7683 532.345 50.115C532.865 50.4183 533.428 50.6567 534.035 50.83C534.642 51.0033 535.227 51.09 535.79 51.09C536.483 51.09 537.177 51.0033 537.87 50.83C538.563 50.6567 539.192 50.3967 539.755 50.05C540.318 49.66 540.773 49.1833 541.12 48.62C541.467 48.0133 541.64 47.2983 541.64 46.475C541.64 45.3483 541.207 44.4167 540.34 43.68C539.517 42.9 538.477 42.185 537.22 41.535C535.963 40.8417 534.598 40.17 533.125 39.52C531.652 38.8267 530.287 38.0467 529.03 37.18C527.773 36.27 526.712 35.1867 525.845 33.93C525.022 32.6733 524.61 31.135 524.61 29.315C524.61 27.6683 525.022 26.2817 525.845 25.155C526.712 23.985 527.773 23.0317 529.03 22.295C530.287 21.515 531.673 20.9517 533.19 20.605C534.75 20.2583 536.202 20.085 537.545 20.085C538.758 20.085 540.058 20.2367 541.445 20.54C542.875 20.8 544.175 21.255 545.345 21.905C546.558 22.555 547.555 23.4 548.335 24.44C549.115 25.4367 549.505 26.6933 549.505 28.21C549.505 29.5533 549.115 30.615 548.335 31.395C547.598 32.175 546.558 32.565 545.215 32.565C543.828 32.565 542.68 32.1533 541.77 31.33C540.86 30.5067 540.21 29.4667 539.82 28.21C540.557 28.21 541.12 27.9933 541.51 27.56C541.9 27.0833 542.095 26.4983 542.095 25.805C542.095 24.505 541.597 23.4867 540.6 22.75C539.603 22.0133 538.498 21.645 537.285 21.645C535.855 21.645 534.663 22.1 533.71 23.01C532.757 23.8767 532.28 25.025 532.28 26.455C532.28 27.5383 532.713 28.47 533.58 29.25C534.49 30.03 535.595 30.7667 536.895 31.46C538.238 32.11 539.668 32.76 541.185 33.41C542.745 34.06 544.175 34.84 545.475 35.75C546.818 36.66 547.923 37.7433 548.79 39C549.7 40.2133 550.155 41.7083 550.155 43.485C550.155 45.2617 549.657 46.7567 548.66 47.97C547.707 49.14 546.515 50.0717 545.085 50.765C543.655 51.4583 542.095 51.935 540.405 52.195C538.758 52.4983 537.22 52.65 535.79 52.65ZM556.254 42.51C557.554 42.51 558.659 42.9867 559.569 43.94C560.522 44.85 560.999 45.955 560.999 47.255C560.999 48.2517 560.782 49.27 560.349 50.31C559.959 51.35 559.439 52.325 558.789 53.235C558.139 54.145 557.38 54.9467 556.514 55.64C555.647 56.3767 554.759 56.94 553.849 57.33H553.199C553.805 56.8967 554.39 56.225 554.954 55.315C555.56 54.405 555.864 53.56 555.864 52.78C555.864 52.4333 555.82 52.1733 555.734 52C554.52 51.87 553.502 51.3717 552.679 50.505C551.855 49.595 551.444 48.5117 551.444 47.255C551.444 45.955 551.92 44.85 552.874 43.94C553.827 42.9867 554.954 42.51 556.254 42.51ZM14.105 123.16C14.105 123.897 14.1483 124.698 14.235 125.565C14.3217 126.432 14.4733 127.277 14.69 128.1C14.9067 128.923 15.2317 129.682 15.665 130.375C16.1417 131.068 16.7267 131.61 17.42 132H1.3C2.03667 131.61 2.62167 131.068 3.055 130.375C3.48833 129.682 3.81333 128.923 4.03 128.1C4.24667 127.277 4.39833 126.432 4.485 125.565C4.57167 124.698 4.615 123.897 4.615 123.16V91.57C4.615 90.79 4.57167 89.9883 4.485 89.165C4.44167 88.2983 4.29 87.4533 4.03 86.63C3.81333 85.8067 3.48833 85.07 3.055 84.42C2.62167 83.7267 2.03667 83.1633 1.3 82.73H17.42C16.7267 83.1633 16.1417 83.7267 15.665 84.42C15.2317 85.1133 14.9067 85.8717 14.69 86.695C14.4733 87.475 14.3217 88.2983 14.235 89.165C14.1483 90.0317 14.105 90.8333 14.105 91.57V105.35C15.6217 105.047 17.1167 104.787 18.59 104.57C20.1067 104.353 21.6233 104.245 23.14 104.245C24.6567 104.245 26.1517 104.353 27.625 104.57C29.1417 104.787 30.6583 105.047 32.175 105.35V91.57C32.175 90.79 32.1317 89.9883 32.045 89.165C32.0017 88.2983 31.85 87.4533 31.59 86.63C31.3733 85.8067 31.0483 85.07 30.615 84.42C30.1817 83.7267 29.5967 83.1633 28.86 82.73H44.98C44.2867 83.1633 43.7017 83.7267 43.225 84.42C42.7917 85.1133 42.4667 85.8717 42.25 86.695C42.0333 87.475 41.8817 88.2983 41.795 89.165C41.7083 90.0317 41.665 90.8333 41.665 91.57V123.16C41.665 123.897 41.7083 124.698 41.795 125.565C41.8817 126.432 42.0333 127.277 42.25 128.1C42.4667 128.923 42.7917 129.682 43.225 130.375C43.7017 131.068 44.2867 131.61 44.98 132H28.86C29.5967 131.61 30.1817 131.068 30.615 130.375C31.0483 129.682 31.3733 128.923 31.59 128.1C31.8067 127.277 31.9583 126.432 32.045 125.565C32.1317 124.698 32.175 123.897 32.175 123.16V106.91C30.6583 106.607 29.1417 106.347 27.625 106.13C26.1517 105.913 24.6567 105.805 23.14 105.805C21.6233 105.805 20.1067 105.913 18.59 106.13C17.1167 106.347 15.6217 106.607 14.105 106.91V123.16ZM75.6544 129.985C75.0911 130.375 74.5711 130.743 74.0944 131.09C73.6177 131.437 73.1411 131.718 72.6644 131.935C72.1877 132.152 71.6677 132.325 71.1044 132.455C70.5411 132.585 69.8911 132.65 69.1544 132.65C67.9844 132.65 66.8144 132.347 65.6444 131.74C64.4744 131.09 63.6511 130.202 63.1744 129.075C62.1777 130.202 60.9644 131.09 59.5344 131.74C58.1044 132.347 56.4577 132.65 54.5944 132.65C52.2977 132.65 50.4127 132.108 48.9394 131.025C47.5094 129.942 46.7944 128.165 46.7944 125.695C46.7944 124.005 47.4227 122.532 48.6794 121.275C49.9794 120.018 51.4961 118.87 53.2294 117.83C55.0061 116.79 56.7827 115.793 58.5594 114.84C60.3794 113.843 61.8094 112.782 62.8494 111.655V109.575C62.8494 109.012 62.8494 108.297 62.8494 107.43C62.8494 106.52 62.7627 105.653 62.5894 104.83C62.4161 103.963 62.1127 103.227 61.6794 102.62C61.2894 101.97 60.6611 101.645 59.7944 101.645C59.3177 101.645 58.8844 101.775 58.4944 102.035C58.1044 102.295 57.7577 102.62 57.4544 103.01C57.1944 103.4 56.9777 103.833 56.8044 104.31C56.6744 104.743 56.6094 105.177 56.6094 105.61C56.6094 106.39 56.8477 106.975 57.3244 107.365C57.8011 107.755 58.4077 107.95 59.1444 107.95C58.6677 109.553 57.8444 110.983 56.6744 112.24C55.5044 113.453 54.0094 114.06 52.1894 114.06C50.8027 114.06 49.7411 113.562 49.0044 112.565C48.3111 111.525 47.9644 110.377 47.9644 109.12C47.9644 107.473 48.3544 106.087 49.1344 104.96C49.9577 103.833 50.9761 102.902 52.1894 102.165C53.4461 101.428 54.8111 100.908 56.2844 100.605C57.8011 100.258 59.2311 100.085 60.5744 100.085C62.2211 100.085 63.7594 100.323 65.1894 100.8C66.6194 101.233 67.8544 101.905 68.8944 102.815C69.9777 103.725 70.8227 104.852 71.4294 106.195C72.0361 107.495 72.3394 109.012 72.3394 110.745V125.695C72.3394 125.998 72.3611 126.388 72.4044 126.865C72.4477 127.298 72.5344 127.732 72.6644 128.165C72.7944 128.598 72.9894 128.967 73.2494 129.27C73.5527 129.573 73.9211 129.725 74.3544 129.725C74.8311 129.725 75.2644 129.595 75.6544 129.335V129.985ZM62.8494 113.93C62.2427 114.493 61.5494 115.1 60.7694 115.75C60.0327 116.4 59.3394 117.093 58.6894 117.83C58.0394 118.523 57.4761 119.282 56.9994 120.105C56.5661 120.928 56.3494 121.817 56.3494 122.77C56.3494 123.463 56.3927 124.157 56.4794 124.85C56.6094 125.5 56.8044 126.085 57.0644 126.605C57.3677 127.125 57.7794 127.558 58.2994 127.905C58.8194 128.208 59.4911 128.36 60.3144 128.36C61.2677 128.36 62.1127 128.143 62.8494 127.71V113.93ZM78.3519 137.59V113.865C78.3519 112.955 78.2652 112.132 78.0919 111.395C77.9186 110.615 77.6802 109.9 77.3769 109.25C77.0736 108.6 76.6836 107.972 76.2069 107.365C75.7736 106.715 75.2752 106.043 74.7119 105.35C76.2286 105.09 77.5069 104.852 78.5469 104.635C79.6302 104.375 80.6269 104.072 81.5369 103.725C82.4902 103.378 83.4436 102.967 84.3969 102.49C85.3936 101.97 86.5419 101.342 87.8419 100.605V105.285C88.4052 104.635 88.9902 104.007 89.5969 103.4C90.2469 102.75 90.8752 102.165 91.4819 101.645C92.1319 101.125 92.7602 100.713 93.3669 100.41C94.0169 100.063 94.6019 99.89 95.1219 99.89C97.3752 99.89 99.3686 100.323 101.102 101.19C102.835 102.057 104.287 103.227 105.457 104.7C106.67 106.13 107.58 107.798 108.187 109.705C108.794 111.612 109.097 113.605 109.097 115.685C109.097 117.895 108.772 120.018 108.122 122.055C107.472 124.092 106.497 125.89 105.197 127.45C103.94 129.01 102.38 130.267 100.517 131.22C98.6969 132.13 96.6169 132.585 94.2769 132.585C92.8036 132.585 91.6119 132.477 90.7019 132.26C89.7919 132.087 88.8386 131.827 87.8419 131.48V137.59C87.8419 138.327 87.8636 139.128 87.9069 139.995C87.9936 140.862 88.1452 141.685 88.3619 142.465C88.6219 143.288 88.9686 144.047 89.4019 144.74C89.8352 145.433 90.3986 145.997 91.0919 146.43H75.0369C75.7736 145.997 76.3586 145.433 76.7919 144.74C77.2252 144.047 77.5502 143.288 77.7669 142.465C77.9836 141.685 78.1352 140.862 78.2219 139.995C78.3086 139.128 78.3519 138.327 78.3519 137.59ZM87.8419 106.065V122.51C87.8419 123.333 87.9069 124.243 88.0369 125.24C88.1669 126.237 88.4269 127.168 88.8169 128.035C89.2069 128.858 89.7269 129.552 90.3769 130.115C91.0702 130.678 91.9586 130.96 93.0419 130.96C94.3852 130.96 95.5119 130.592 96.4219 129.855C97.3319 129.075 98.0469 128.122 98.5669 126.995C99.1302 125.868 99.5202 124.677 99.7369 123.42C99.9969 122.12 100.127 120.928 100.127 119.845C100.127 118.155 99.9102 116.465 99.4769 114.775C99.0436 113.085 98.3719 111.568 97.4619 110.225C96.5519 108.838 95.3819 107.733 93.9519 106.91C92.5652 106.043 90.9186 105.61 89.0119 105.61C88.7086 105.61 88.3186 105.762 87.8419 106.065ZM113.264 137.59V113.865C113.264 112.955 113.177 112.132 113.004 111.395C112.831 110.615 112.592 109.9 112.289 109.25C111.986 108.6 111.596 107.972 111.119 107.365C110.686 106.715 110.187 106.043 109.624 105.35C111.141 105.09 112.419 104.852 113.459 104.635C114.542 104.375 115.539 104.072 116.449 103.725C117.402 103.378 118.356 102.967 119.309 102.49C120.306 101.97 121.454 101.342 122.754 100.605V105.285C123.317 104.635 123.902 104.007 124.509 103.4C125.159 102.75 125.787 102.165 126.394 101.645C127.044 101.125 127.672 100.713 128.279 100.41C128.929 100.063 129.514 99.89 130.034 99.89C132.287 99.89 134.281 100.323 136.014 101.19C137.747 102.057 139.199 103.227 140.369 104.7C141.582 106.13 142.492 107.798 143.099 109.705C143.706 111.612 144.009 113.605 144.009 115.685C144.009 117.895 143.684 120.018 143.034 122.055C142.384 124.092 141.409 125.89 140.109 127.45C138.852 129.01 137.292 130.267 135.429 131.22C133.609 132.13 131.529 132.585 129.189 132.585C127.716 132.585 126.524 132.477 125.614 132.26C124.704 132.087 123.751 131.827 122.754 131.48V137.59C122.754 138.327 122.776 139.128 122.819 139.995C122.906 140.862 123.057 141.685 123.274 142.465C123.534 143.288 123.881 144.047 124.314 144.74C124.747 145.433 125.311 145.997 126.004 146.43H109.949C110.686 145.997 111.271 145.433 111.704 144.74C112.137 144.047 112.462 143.288 112.679 142.465C112.896 141.685 113.047 140.862 113.134 139.995C113.221 139.128 113.264 138.327 113.264 137.59ZM122.754 106.065V122.51C122.754 123.333 122.819 124.243 122.949 125.24C123.079 126.237 123.339 127.168 123.729 128.035C124.119 128.858 124.639 129.552 125.289 130.115C125.982 130.678 126.871 130.96 127.954 130.96C129.297 130.96 130.424 130.592 131.334 129.855C132.244 129.075 132.959 128.122 133.479 126.995C134.042 125.868 134.432 124.677 134.649 123.42C134.909 122.12 135.039 120.928 135.039 119.845C135.039 118.155 134.822 116.465 134.389 114.775C133.956 113.085 133.284 111.568 132.374 110.225C131.464 108.838 130.294 107.733 128.864 106.91C127.477 106.043 125.831 105.61 123.924 105.61C123.621 105.61 123.231 105.762 122.754 106.065ZM156.379 132L150.464 117.245C150.074 116.248 149.554 114.905 148.904 113.215C148.254 111.525 147.539 109.813 146.759 108.08C145.979 106.347 145.112 104.787 144.159 103.4C143.249 101.97 142.295 101.038 141.299 100.605H159.239C158.155 100.952 157.354 101.602 156.834 102.555C156.314 103.508 156.054 104.548 156.054 105.675C156.054 106.585 156.335 107.928 156.899 109.705C157.462 111.482 158.112 113.345 158.849 115.295C159.629 117.245 160.387 119.13 161.124 120.95C161.904 122.727 162.51 124.113 162.944 125.11C163.42 123.897 163.919 122.64 164.439 121.34C165.002 119.997 165.5 118.653 165.934 117.31C166.41 115.923 166.8 114.537 167.104 113.15C167.407 111.763 167.559 110.42 167.559 109.12C167.559 107.04 167.104 105.285 166.194 103.855C165.284 102.425 163.854 101.342 161.904 100.605H176.984C175.987 101.038 175.012 101.97 174.059 103.4C173.149 104.83 172.282 106.412 171.459 108.145C170.679 109.835 169.964 111.547 169.314 113.28C168.664 114.97 168.144 116.335 167.754 117.375L161.904 132C161.34 133.43 160.712 134.968 160.019 136.615C159.369 138.262 158.567 139.8 157.614 141.23C156.704 142.66 155.599 143.852 154.299 144.805C152.999 145.758 151.417 146.235 149.554 146.235C148.557 146.235 147.604 146.105 146.694 145.845C145.827 145.628 145.047 145.26 144.354 144.74C143.704 144.263 143.184 143.635 142.794 142.855C142.404 142.075 142.209 141.143 142.209 140.06C142.209 139.497 142.295 138.847 142.469 138.11C142.642 137.417 142.902 136.767 143.249 136.16C143.639 135.553 144.094 135.033 144.614 134.6C145.134 134.21 145.74 134.015 146.434 134.015C146.434 135.575 146.932 136.723 147.929 137.46C148.969 138.197 150.204 138.565 151.634 138.565C152.24 138.565 152.977 138.457 153.844 138.24C154.71 138.023 155.534 137.698 156.314 137.265C157.137 136.875 157.83 136.377 158.394 135.77C158.957 135.163 159.239 134.47 159.239 133.69C159.239 132.997 158.892 132.542 158.199 132.325C157.505 132.108 156.899 132 156.379 132ZM205.786 110.745C206.87 110.745 207.866 110.507 208.776 110.03C209.686 109.553 210.141 108.687 210.141 107.43C210.141 106.693 209.968 105.978 209.621 105.285C209.318 104.592 208.885 103.985 208.321 103.465C207.801 102.902 207.195 102.468 206.501 102.165C205.808 101.818 205.093 101.645 204.356 101.645C203.446 101.645 202.71 102.013 202.146 102.75C201.583 103.443 201.128 104.288 200.781 105.285C200.478 106.282 200.261 107.3 200.131 108.34C200.001 109.38 199.936 110.225 199.936 110.875C199.936 112.695 200.175 114.515 200.651 116.335C201.128 118.112 201.843 119.715 202.796 121.145C203.793 122.575 205.05 123.723 206.566 124.59C208.083 125.457 209.881 125.89 211.961 125.89C212.438 125.89 213.001 125.868 213.651 125.825C214.345 125.738 215.038 125.63 215.731 125.5C216.425 125.37 217.075 125.197 217.681 124.98C218.331 124.72 218.83 124.417 219.176 124.07L219.696 124.46C216.663 129.92 212.048 132.65 205.851 132.65C203.598 132.65 201.496 132.238 199.546 131.415C197.64 130.592 195.993 129.465 194.606 128.035C193.263 126.562 192.201 124.85 191.421 122.9C190.641 120.95 190.251 118.848 190.251 116.595C190.251 114.428 190.576 112.348 191.226 110.355C191.92 108.362 192.895 106.607 194.151 105.09C195.451 103.573 197.011 102.36 198.831 101.45C200.651 100.54 202.71 100.085 205.006 100.085C206.61 100.085 208.213 100.323 209.816 100.8C211.42 101.277 212.871 101.992 214.171 102.945C215.471 103.855 216.511 105.003 217.291 106.39C218.115 107.777 218.526 109.358 218.526 111.135C218.526 112.825 218.05 114.19 217.096 115.23C216.143 116.27 214.778 116.79 213.001 116.79C211.008 116.79 209.448 116.248 208.321 115.165C207.195 114.038 206.35 112.565 205.786 110.745ZM231.863 100.605V121.925C231.863 122.575 231.928 123.247 232.058 123.94C232.188 124.633 232.404 125.262 232.708 125.825C233.011 126.388 233.423 126.843 233.943 127.19C234.506 127.537 235.178 127.71 235.958 127.71C237.214 127.71 238.189 127.298 238.883 126.475C239.619 125.652 240.118 124.698 240.378 123.615C240.378 122.748 240.399 121.903 240.443 121.08C240.486 120.257 240.508 119.455 240.508 118.675V109.445C240.508 108.708 240.464 107.907 240.378 107.04C240.334 106.173 240.204 105.328 239.988 104.505C239.771 103.682 239.446 102.923 239.013 102.23C238.579 101.537 237.994 100.995 237.258 100.605H249.998V121.795C249.998 123.918 250.258 125.738 250.778 127.255C251.341 128.772 252.294 130.353 253.638 132H242.003C241.786 131.177 241.548 130.332 241.288 129.465C241.028 128.555 240.811 127.667 240.638 126.8C240.508 127.017 239.966 127.45 239.013 128.1C238.059 128.707 237.019 129.335 235.893 129.985C234.809 130.635 233.791 131.22 232.838 131.74C231.884 132.26 231.299 132.52 231.083 132.52C229.609 132.52 228.331 132.238 227.248 131.675C226.164 131.112 225.254 130.353 224.518 129.4C223.824 128.447 223.283 127.342 222.893 126.085C222.546 124.828 222.373 123.528 222.373 122.185V109.445C222.373 108.708 222.329 107.907 222.243 107.04C222.156 106.173 222.004 105.328 221.788 104.505C221.571 103.682 221.246 102.923 220.813 102.23C220.379 101.537 219.794 100.995 219.058 100.605H231.863ZM266.522 132.65C265.309 132.65 263.966 132.498 262.492 132.195C261.062 131.892 259.719 131.415 258.462 130.765C257.206 130.115 256.144 129.27 255.277 128.23C254.454 127.147 254.042 125.847 254.042 124.33C254.042 122.9 254.432 121.665 255.212 120.625C256.036 119.585 257.206 119.065 258.722 119.065C260.196 119.065 261.387 119.628 262.297 120.755C263.251 121.838 263.857 123.03 264.117 124.33C263.337 124.33 262.687 124.59 262.167 125.11C261.691 125.63 261.452 126.28 261.452 127.06C261.452 127.71 261.604 128.295 261.907 128.815C262.211 129.335 262.601 129.768 263.077 130.115C263.597 130.418 264.161 130.657 264.767 130.83C265.374 131.003 265.959 131.09 266.522 131.09C267.216 131.09 267.909 131.003 268.602 130.83C269.296 130.657 269.924 130.397 270.487 130.05C271.051 129.66 271.506 129.183 271.852 128.62C272.199 128.013 272.372 127.298 272.372 126.475C272.372 125.348 271.939 124.417 271.072 123.68C270.249 122.9 269.209 122.185 267.952 121.535C266.696 120.842 265.331 120.17 263.857 119.52C262.384 118.827 261.019 118.047 259.762 117.18C258.506 116.27 257.444 115.187 256.577 113.93C255.754 112.673 255.342 111.135 255.342 109.315C255.342 107.885 255.667 106.628 256.317 105.545C257.011 104.418 257.877 103.487 258.917 102.75C260.001 102.013 261.192 101.428 262.492 100.995C263.836 100.562 265.157 100.28 266.457 100.15C265.894 99.0667 265.612 97.8533 265.612 96.51C265.612 94.43 266.067 92.6533 266.977 91.18C267.931 89.7067 269.144 88.515 270.617 87.605C272.134 86.6517 273.802 85.9583 275.622 85.525C277.486 85.0917 279.306 84.875 281.082 84.875C283.552 84.875 285.589 85.1133 287.192 85.59C288.839 86.0233 290.139 86.7383 291.092 87.735C292.089 88.7317 292.782 90.0533 293.172 91.7C293.562 93.3033 293.757 95.275 293.757 97.615V100.605H300.517V102.165H293.757V125.175C293.757 126.432 294.169 127.342 294.992 127.905C295.859 128.425 296.856 128.685 297.982 128.685C298.589 128.685 299.174 128.62 299.737 128.49C300.344 128.36 300.907 128.143 301.427 127.84V128.49C300.127 129.703 298.611 130.7 296.877 131.48C295.187 132.26 293.432 132.65 291.612 132.65C290.312 132.65 289.186 132.412 288.232 131.935C287.322 131.458 286.564 130.83 285.957 130.05C285.394 129.227 284.961 128.295 284.657 127.255C284.397 126.172 284.267 125.045 284.267 123.875V102.165H281.082V101.19C282.166 101.06 283.292 100.8 284.462 100.41C285.632 100.02 286.694 99.5 287.647 98.85C288.644 98.1567 289.446 97.3333 290.052 96.38C290.702 95.3833 291.027 94.2567 291.027 93C291.027 91.7 290.702 90.6167 290.052 89.75C289.402 88.8833 288.579 88.19 287.582 87.67C286.629 87.15 285.567 86.7817 284.397 86.565C283.227 86.3483 282.122 86.24 281.082 86.24C279.826 86.24 278.526 86.4783 277.182 86.955C275.839 87.3883 274.604 88.0383 273.477 88.905C272.394 89.7283 271.484 90.725 270.747 91.895C270.054 93.0217 269.707 94.3 269.707 95.73C269.707 97.6367 270.314 99.1967 271.527 100.41C272.611 100.583 273.672 100.887 274.712 101.32C275.752 101.71 276.684 102.23 277.507 102.88C278.331 103.487 278.981 104.245 279.457 105.155C279.977 106.022 280.237 107.04 280.237 108.21C280.237 109.553 279.847 110.615 279.067 111.395C278.331 112.175 277.291 112.565 275.947 112.565C274.561 112.565 273.412 112.153 272.502 111.33C271.592 110.507 270.942 109.467 270.552 108.21C271.289 108.21 271.852 107.993 272.242 107.56C272.632 107.083 272.827 106.498 272.827 105.805C272.827 104.505 272.329 103.487 271.332 102.75C270.336 102.013 269.231 101.645 268.017 101.645C266.587 101.645 265.396 102.1 264.442 103.01C263.489 103.877 263.012 105.025 263.012 106.455C263.012 107.538 263.446 108.47 264.312 109.25C265.222 110.03 266.327 110.767 267.627 111.46C268.971 112.11 270.401 112.76 271.917 113.41C273.477 114.06 274.907 114.84 276.207 115.75C277.551 116.66 278.656 117.743 279.522 119C280.432 120.213 280.887 121.708 280.887 123.485C280.887 125.262 280.389 126.757 279.392 127.97C278.439 129.14 277.247 130.072 275.817 130.765C274.387 131.458 272.827 131.935 271.137 132.195C269.491 132.498 267.952 132.65 266.522 132.65ZM318.018 100.085C320.271 100.085 322.351 100.518 324.258 101.385C326.164 102.252 327.811 103.443 329.198 104.96C330.628 106.433 331.733 108.167 332.513 110.16C333.293 112.11 333.683 114.19 333.683 116.4C333.683 118.61 333.293 120.712 332.513 122.705C331.733 124.655 330.628 126.367 329.198 127.84C327.811 129.313 326.164 130.483 324.258 131.35C322.351 132.217 320.271 132.65 318.018 132.65C315.764 132.65 313.663 132.217 311.713 131.35C309.806 130.483 308.159 129.313 306.773 127.84C305.386 126.367 304.281 124.655 303.458 122.705C302.678 120.712 302.288 118.61 302.288 116.4C302.288 114.19 302.678 112.11 303.458 110.16C304.281 108.167 305.386 106.433 306.773 104.96C308.159 103.443 309.806 102.252 311.713 101.385C313.663 100.518 315.764 100.085 318.018 100.085ZM320.098 130.895C321.094 130.895 321.874 130.527 322.438 129.79C323.001 129.053 323.434 128.187 323.738 127.19C324.041 126.15 324.236 125.088 324.323 124.005C324.409 122.922 324.453 122.055 324.453 121.405C324.453 120.582 324.388 119.52 324.258 118.22C324.128 116.92 323.911 115.555 323.608 114.125C323.304 112.695 322.914 111.265 322.438 109.835C322.004 108.362 321.441 107.062 320.748 105.935C320.054 104.765 319.253 103.812 318.343 103.075C317.476 102.338 316.458 101.97 315.288 101.97C314.378 101.97 313.663 102.317 313.143 103.01C312.623 103.703 312.233 104.527 311.973 105.48C311.713 106.433 311.539 107.408 311.453 108.405C311.409 109.402 311.388 110.203 311.388 110.81C311.388 111.59 311.453 112.63 311.583 113.93C311.713 115.187 311.908 116.573 312.168 118.09C312.471 119.563 312.839 121.058 313.273 122.575C313.749 124.092 314.313 125.478 314.963 126.735C315.613 127.948 316.349 128.945 317.173 129.725C318.039 130.505 319.014 130.895 320.098 130.895ZM364.949 106.325C365.036 106.152 365.317 105.892 365.794 105.545C366.314 105.198 366.921 104.787 367.614 104.31C368.351 103.833 369.109 103.357 369.889 102.88C370.712 102.36 371.471 101.905 372.164 101.515C372.901 101.082 373.529 100.735 374.049 100.475C374.569 100.215 374.894 100.085 375.024 100.085C376.497 100.085 377.776 100.367 378.859 100.93C379.942 101.493 380.831 102.252 381.524 103.205C382.261 104.158 382.802 105.263 383.149 106.52C383.539 107.777 383.734 109.077 383.734 110.42V123.16C383.734 123.897 383.777 124.698 383.864 125.565C383.951 126.432 384.102 127.277 384.319 128.1C384.536 128.923 384.861 129.682 385.294 130.375C385.771 131.068 386.356 131.61 387.049 132H370.994C371.687 131.61 372.251 131.068 372.684 130.375C373.117 129.638 373.442 128.88 373.659 128.1C373.876 127.277 374.027 126.432 374.114 125.565C374.201 124.698 374.244 123.897 374.244 123.16V110.68C374.244 110.03 374.179 109.358 374.049 108.665C373.919 107.972 373.702 107.343 373.399 106.78C373.096 106.217 372.662 105.762 372.099 105.415C371.579 105.068 370.929 104.895 370.149 104.895C369.369 104.895 368.697 105.068 368.134 105.415C367.571 105.762 367.094 106.217 366.704 106.78C366.314 107.3 366.011 107.907 365.794 108.6C365.621 109.293 365.512 109.987 365.469 110.68V123.16C365.469 123.897 365.512 124.698 365.599 125.565C365.686 126.432 365.837 127.277 366.054 128.1C366.271 128.923 366.596 129.682 367.029 130.375C367.506 131.068 368.091 131.61 368.784 132H352.729C353.422 131.61 353.986 131.068 354.419 130.375C354.852 129.638 355.177 128.88 355.394 128.1C355.611 127.277 355.762 126.432 355.849 125.565C355.936 124.698 355.979 123.897 355.979 123.16V110.68C355.979 110.03 355.914 109.358 355.784 108.665C355.654 107.972 355.437 107.343 355.134 106.78C354.831 106.217 354.397 105.762 353.834 105.415C353.314 105.068 352.664 104.895 351.884 104.895C350.541 104.895 349.501 105.372 348.764 106.325C348.027 107.235 347.551 108.297 347.334 109.51V123.16C347.334 123.897 347.356 124.698 347.399 125.565C347.486 126.432 347.637 127.277 347.854 128.1C348.071 128.923 348.396 129.682 348.829 130.375C349.262 131.068 349.847 131.61 350.584 132H334.529C335.222 131.61 335.786 131.068 336.219 130.375C336.652 129.638 336.977 128.88 337.194 128.1C337.454 127.277 337.627 126.432 337.714 125.565C337.801 124.698 337.844 123.897 337.844 123.16V113.93C337.844 113.02 337.757 112.197 337.584 111.46C337.411 110.68 337.172 109.965 336.869 109.315C336.566 108.665 336.176 108.037 335.699 107.43C335.266 106.78 334.767 106.108 334.204 105.415C335.721 105.155 336.999 104.917 338.039 104.7C339.122 104.44 340.119 104.137 341.029 103.79C341.982 103.443 342.936 103.032 343.889 102.555C344.886 102.035 346.034 101.385 347.334 100.605V105.675C347.637 105.372 348.266 104.917 349.219 104.31C350.172 103.703 351.169 103.097 352.209 102.49C353.292 101.84 354.267 101.277 355.134 100.8C356.044 100.323 356.586 100.085 356.759 100.085C359.012 100.085 360.811 100.735 362.154 102.035C363.541 103.292 364.494 104.873 365.014 106.78L364.949 106.325ZM397.48 116.075C397.783 117.418 398.238 118.697 398.845 119.91C399.452 121.08 400.21 122.12 401.12 123.03C402.03 123.897 403.092 124.59 404.305 125.11C405.562 125.63 406.97 125.89 408.53 125.89C409.007 125.89 409.57 125.868 410.22 125.825C410.913 125.738 411.607 125.63 412.3 125.5C412.993 125.37 413.643 125.197 414.25 124.98C414.9 124.72 415.398 124.417 415.745 124.07L416.265 124.46C414.792 127.147 413.037 129.183 411 130.57C409.007 131.957 406.407 132.65 403.2 132.65C400.947 132.65 398.845 132.238 396.895 131.415C394.988 130.592 393.342 129.465 391.955 128.035C390.612 126.562 389.55 124.85 388.77 122.9C387.99 120.95 387.6 118.848 387.6 116.595C387.6 114.428 387.925 112.348 388.575 110.355C389.268 108.362 390.243 106.607 391.5 105.09C392.8 103.573 394.36 102.36 396.18 101.45C398 100.54 400.058 100.085 402.355 100.085C404.435 100.085 406.32 100.41 408.01 101.06C409.743 101.667 411.195 102.577 412.365 103.79C413.578 104.96 414.51 106.39 415.16 108.08C415.81 109.77 416.135 111.655 416.135 113.735V115.295L397.48 116.075ZM407.425 108.535C407.425 107.798 407.273 107.018 406.97 106.195C406.71 105.372 406.32 104.635 405.8 103.985C405.28 103.292 404.673 102.728 403.98 102.295C403.287 101.862 402.528 101.645 401.705 101.645C400.752 101.645 399.972 102.035 399.365 102.815C398.758 103.595 398.282 104.527 397.935 105.61C397.588 106.65 397.328 107.733 397.155 108.86C397.025 109.987 396.96 110.875 396.96 111.525C396.96 112.478 397.025 113.453 397.155 114.45C398.022 114.363 398.888 114.255 399.755 114.125C400.622 113.995 401.488 113.865 402.355 113.735C403.828 113.518 405.042 112.998 405.995 112.175C406.948 111.352 407.425 110.138 407.425 108.535ZM430.044 123.16C430.044 123.897 430.066 124.698 430.109 125.565C430.196 126.432 430.347 127.277 430.564 128.1C430.781 128.923 431.106 129.682 431.539 130.375C431.972 131.068 432.557 131.61 433.294 132H417.239C417.932 131.61 418.496 131.068 418.929 130.375C419.362 129.638 419.687 128.88 419.904 128.1C420.164 127.277 420.337 126.432 420.424 125.565C420.511 124.698 420.554 123.897 420.554 123.16V113.93C420.554 112.11 420.229 110.572 419.579 109.315C418.929 108.058 418.041 106.758 416.914 105.415C418.431 105.155 419.709 104.917 420.749 104.7C421.832 104.44 422.829 104.137 423.739 103.79C424.692 103.4 425.646 102.967 426.599 102.49C427.596 101.97 428.744 101.342 430.044 100.605V109.9C430.824 107.777 431.951 105.762 433.424 103.855C434.897 101.948 436.587 100.28 438.494 98.85C440.401 97.42 442.459 96.2933 444.669 95.47C446.922 94.6033 449.197 94.17 451.494 94.17C452.534 94.17 453.617 94.2783 454.744 94.495C455.871 94.7117 456.889 95.08 457.799 95.6C458.752 96.12 459.511 96.8133 460.074 97.68C460.681 98.5467 460.984 99.6083 460.984 100.865C460.984 102.685 460.356 104.18 459.099 105.35C457.886 106.477 456.391 107.04 454.614 107.04C454.614 104.83 453.942 103.205 452.599 102.165C451.256 101.125 449.544 100.605 447.464 100.605C445.601 100.605 443.629 100.995 441.549 101.775C439.512 102.512 437.627 103.552 435.894 104.895C434.204 106.238 432.796 107.798 431.669 109.575C430.586 111.352 430.044 113.28 430.044 115.36V123.16ZM449.999 102.1C449.436 102.1 448.851 102.165 448.244 102.295C447.681 102.425 447.139 102.642 446.619 102.945C446.142 103.248 445.752 103.638 445.449 104.115C445.146 104.592 444.994 105.155 444.994 105.805C444.994 107.105 445.427 108.188 446.294 109.055C447.204 109.922 448.309 110.723 449.609 111.46C450.952 112.153 452.382 112.825 453.899 113.475C455.459 114.125 456.889 114.883 458.189 115.75C459.532 116.617 460.637 117.678 461.504 118.935C462.414 120.148 462.869 121.665 462.869 123.485C462.869 125.262 462.371 126.757 461.374 127.97C460.421 129.14 459.229 130.072 457.799 130.765C456.369 131.458 454.809 131.935 453.119 132.195C451.472 132.498 449.934 132.65 448.504 132.65C447.291 132.65 445.947 132.498 444.474 132.195C443.044 131.892 441.701 131.415 440.444 130.765C439.187 130.115 438.126 129.27 437.259 128.23C436.436 127.147 436.024 125.847 436.024 124.33C436.024 122.9 436.414 121.665 437.194 120.625C438.017 119.585 439.187 119.065 440.704 119.065C442.177 119.065 443.369 119.628 444.279 120.755C445.232 121.838 445.839 123.03 446.099 124.33C445.319 124.33 444.669 124.59 444.149 125.11C443.672 125.63 443.434 126.28 443.434 127.06C443.434 127.71 443.586 128.295 443.889 128.815C444.192 129.335 444.582 129.768 445.059 130.115C445.579 130.418 446.142 130.657 446.749 130.83C447.356 131.003 447.941 131.09 448.504 131.09C449.197 131.09 449.891 131.003 450.584 130.83C451.277 130.657 451.906 130.397 452.469 130.05C453.032 129.66 453.487 129.183 453.834 128.62C454.181 128.013 454.354 127.298 454.354 126.475C454.354 125.348 453.921 124.395 453.054 123.615C452.231 122.792 451.191 122.033 449.934 121.34C448.677 120.647 447.312 119.953 445.839 119.26C444.366 118.567 443.001 117.787 441.744 116.92C440.487 116.01 439.426 114.948 438.559 113.735C437.736 112.522 437.324 111.048 437.324 109.315C437.324 107.712 437.757 106.433 438.624 105.48C439.491 104.527 440.552 103.79 441.809 103.27C443.109 102.75 444.496 102.403 445.969 102.23C447.442 102.057 448.786 101.97 449.999 101.97V102.1ZM9.165 197.245C8.775 196.248 8.255 194.905 7.605 193.215C6.955 191.525 6.24 189.813 5.46 188.08C4.68 186.347 3.81333 184.787 2.86 183.4C1.95 181.97 0.996667 181.038 0 180.605H17.94C16.8567 180.952 16.055 181.602 15.535 182.555C15.015 183.508 14.755 184.548 14.755 185.675C14.755 186.585 15.0367 187.928 15.6 189.705C16.1633 191.482 16.8133 193.345 17.55 195.295C18.33 197.245 19.0883 199.13 19.825 200.95C20.605 202.727 21.2117 204.113 21.645 205.11C22.1217 203.897 22.62 202.64 23.14 201.34C23.7033 199.997 24.2017 198.653 24.635 197.31C25.1117 195.923 25.5017 194.537 25.805 193.15C26.1083 191.763 26.26 190.42 26.26 189.12V188.6C26 187.993 25.6533 187.3 25.22 186.52C24.83 185.697 24.3967 184.895 23.92 184.115C23.4433 183.335 22.9017 182.62 22.295 181.97C21.7317 181.32 21.1467 180.865 20.54 180.605H38.48C37.3967 180.952 36.595 181.602 36.075 182.555C35.555 183.508 35.295 184.548 35.295 185.675C35.295 186.585 35.5767 187.928 36.14 189.705C36.7033 191.482 37.3533 193.345 38.09 195.295C38.87 197.245 39.6283 199.13 40.365 200.95C41.145 202.727 41.7517 204.113 42.185 205.11C42.6617 203.897 43.16 202.64 43.68 201.34C44.2433 199.997 44.7417 198.653 45.175 197.31C45.6517 195.923 46.02 194.558 46.28 193.215C46.5833 191.828 46.735 190.463 46.735 189.12C46.735 187.517 46.5183 186.238 46.085 185.285C45.695 184.288 45.175 183.487 44.525 182.88C43.875 182.23 43.1817 181.688 42.445 181.255C41.7517 180.778 41.08 180.28 40.43 179.76C39.78 179.24 39.2383 178.612 38.805 177.875C38.415 177.095 38.22 176.098 38.22 174.885C38.22 173.108 38.6967 171.592 39.65 170.335C40.6033 169.035 41.795 167.995 43.225 167.215C44.655 166.392 46.1933 165.807 47.84 165.46C49.53 165.07 51.1117 164.875 52.585 164.875C54.015 164.875 55.5533 165.048 57.2 165.395C58.89 165.698 60.45 166.218 61.88 166.955C63.31 167.692 64.5017 168.667 65.455 169.88C66.4083 171.093 66.885 172.588 66.885 174.365C66.885 175.665 66.4083 176.792 65.455 177.745C64.545 178.655 63.44 179.11 62.14 179.11C60.84 179.11 59.7133 178.655 58.76 177.745C57.85 176.792 57.395 175.665 57.395 174.365C57.395 173.065 57.85 171.96 58.76 171.05C59.7133 170.097 60.84 169.62 62.14 169.62C61.5767 168.97 60.905 168.428 60.125 167.995C59.3883 167.562 58.5867 167.237 57.72 167.02C56.8967 166.803 56.03 166.652 55.12 166.565C54.2533 166.478 53.4083 166.435 52.585 166.435C51.3283 166.435 50.0717 166.63 48.815 167.02C47.6017 167.367 46.5183 167.908 45.565 168.645C44.6117 169.382 43.8317 170.292 43.225 171.375C42.6617 172.458 42.38 173.693 42.38 175.08C42.38 176.163 42.5967 177.203 43.03 178.2C43.5067 179.153 44.1783 179.955 45.045 180.605H56.225C55.2283 181.038 54.2533 181.97 53.3 183.4C52.39 184.83 51.5233 186.412 50.7 188.145C49.92 189.878 49.205 191.612 48.555 193.345C47.905 195.035 47.385 196.378 46.995 197.375L41.145 212H35.62C34.3633 208.837 33.1067 205.695 31.85 202.575C30.5933 199.412 29.3367 196.248 28.08 193.085C26.8667 196.248 25.6317 199.412 24.375 202.575C23.1183 205.695 21.8617 208.837 20.605 212H15.08L9.165 197.245ZM54.34 185.415C55.8567 185.155 57.135 184.917 58.175 184.7C59.2583 184.44 60.255 184.137 61.165 183.79C62.1183 183.443 63.0717 183.032 64.025 182.555C65.0217 182.035 66.17 181.385 67.47 180.605V203.16C67.47 203.897 67.4917 204.698 67.535 205.565C67.6217 206.432 67.7733 207.277 67.99 208.1C68.2067 208.923 68.5317 209.682 68.965 210.375C69.3983 211.068 69.9833 211.61 70.72 212H54.665C55.3583 211.61 55.9217 211.068 56.355 210.375C56.7883 209.638 57.1133 208.88 57.33 208.1C57.59 207.277 57.7633 206.432 57.85 205.565C57.9367 204.698 57.98 203.897 57.98 203.16V193.93C57.98 193.02 57.8933 192.197 57.72 191.46C57.5467 190.68 57.3083 189.965 57.005 189.315C56.7017 188.665 56.3117 188.037 55.835 187.43C55.4017 186.78 54.9033 186.108 54.34 185.415ZM83.7129 180.605H90.4729V182.165H83.7129V205.175C83.7129 206.432 84.1246 207.342 84.9479 207.905C85.8146 208.425 86.8112 208.685 87.9379 208.685C88.5446 208.685 89.1296 208.62 89.6929 208.49C90.2996 208.36 90.8629 208.143 91.3829 207.84V208.49C90.0829 209.703 88.5662 210.7 86.8329 211.48C85.1429 212.26 83.3879 212.65 81.5679 212.65C80.2679 212.65 79.1412 212.412 78.1879 211.935C77.2779 211.458 76.5196 210.83 75.9129 210.05C75.3496 209.227 74.9162 208.295 74.6129 207.255C74.3529 206.172 74.2229 205.045 74.2229 203.875V182.165H71.0379V181.19C72.5546 181.06 73.9196 180.8 75.1329 180.41C76.3462 180.02 77.4296 179.5 78.3829 178.85C79.3362 178.157 80.1596 177.29 80.8529 176.25C81.5896 175.21 82.2179 173.953 82.7379 172.48H83.7129V180.605ZM94.0941 179.24C94.0941 178.33 94.0074 177.507 93.8341 176.77C93.6608 175.99 93.4224 175.275 93.1191 174.625C92.8158 173.975 92.4258 173.347 91.9491 172.74C91.5158 172.09 91.0174 171.418 90.4541 170.725C92.8808 170.335 95.1341 169.75 97.2141 168.97C99.3374 168.147 101.461 167.128 103.584 165.915V185.805C103.714 185.588 104.256 185.177 105.209 184.57C106.162 183.92 107.181 183.27 108.264 182.62C109.391 181.97 110.431 181.385 111.384 180.865C112.381 180.345 112.966 180.085 113.139 180.085C114.612 180.085 115.891 180.367 116.974 180.93C118.057 181.493 118.946 182.252 119.639 183.205C120.376 184.158 120.917 185.263 121.264 186.52C121.654 187.777 121.849 189.077 121.849 190.42V203.16C121.849 203.897 121.892 204.698 121.979 205.565C122.066 206.432 122.217 207.277 122.434 208.1C122.651 208.923 122.976 209.682 123.409 210.375C123.886 211.068 124.471 211.61 125.164 212H109.109C109.802 211.61 110.366 211.068 110.799 210.375C111.232 209.638 111.557 208.88 111.774 208.1C111.991 207.277 112.142 206.432 112.229 205.565C112.316 204.698 112.359 203.897 112.359 203.16V190.68C112.359 190.03 112.294 189.358 112.164 188.665C112.034 187.972 111.817 187.343 111.514 186.78C111.211 186.217 110.777 185.762 110.214 185.415C109.694 185.068 109.044 184.895 108.264 184.895C107.527 184.895 106.856 185.068 106.249 185.415C105.686 185.762 105.209 186.217 104.819 186.78C104.429 187.343 104.126 187.972 103.909 188.665C103.692 189.358 103.584 190.03 103.584 190.68V203.16C103.584 203.897 103.606 204.698 103.649 205.565C103.736 206.432 103.887 207.277 104.104 208.1C104.321 208.923 104.646 209.682 105.079 210.375C105.512 211.068 106.097 211.61 106.834 212H90.7791C91.4724 211.61 92.0358 211.068 92.4691 210.375C92.9024 209.638 93.2274 208.88 93.4441 208.1C93.7041 207.277 93.8774 206.432 93.9641 205.565C94.0508 204.698 94.0941 203.897 94.0941 203.16V179.24Z" fill="#1E2C31"/>
<path d="M155.355 212H139.235C139.971 211.61 140.556 211.068 140.99 210.375C141.423 209.682 141.748 208.923 141.965 208.1C142.181 207.277 142.333 206.432 142.42 205.565C142.506 204.698 142.55 203.897 142.55 203.16V171.57C142.55 170.79 142.506 169.988 142.42 169.165C142.376 168.298 142.225 167.453 141.965 166.63C141.748 165.807 141.423 165.07 140.99 164.42C140.556 163.727 139.971 163.163 139.235 162.73H159.255C161.595 162.73 163.74 163.077 165.69 163.77C167.683 164.463 169.395 165.46 170.825 166.76C172.255 168.06 173.36 169.663 174.14 171.57C174.963 173.433 175.375 175.557 175.375 177.94C175.375 180.323 174.963 182.468 174.14 184.375C173.36 186.282 172.255 187.907 170.825 189.25C169.395 190.55 167.683 191.547 165.69 192.24C163.74 192.933 161.595 193.28 159.255 193.28H152.04V203.16C152.04 203.897 152.083 204.698 152.17 205.565C152.256 206.432 152.408 207.277 152.625 208.1C152.841 208.923 153.166 209.682 153.6 210.375C154.076 211.068 154.661 211.61 155.355 212ZM152.04 191.72H152.755C157.001 191.72 160.251 190.528 162.505 188.145C164.801 185.718 165.95 182.425 165.95 178.265C165.95 173.888 164.758 170.465 162.375 167.995C159.991 165.525 156.568 164.29 152.105 164.29H152.04V191.72ZM190.684 180.085C192.937 180.085 195.017 180.518 196.924 181.385C198.83 182.252 200.477 183.443 201.864 184.96C203.294 186.433 204.399 188.167 205.179 190.16C205.959 192.11 206.349 194.19 206.349 196.4C206.349 198.61 205.959 200.712 205.179 202.705C204.399 204.655 203.294 206.367 201.864 207.84C200.477 209.313 198.83 210.483 196.924 211.35C195.017 212.217 192.937 212.65 190.684 212.65C188.43 212.65 186.329 212.217 184.379 211.35C182.472 210.483 180.825 209.313 179.439 207.84C178.052 206.367 176.947 204.655 176.124 202.705C175.344 200.712 174.954 198.61 174.954 196.4C174.954 194.19 175.344 192.11 176.124 190.16C176.947 188.167 178.052 186.433 179.439 184.96C180.825 183.443 182.472 182.252 184.379 181.385C186.329 180.518 188.43 180.085 190.684 180.085ZM192.764 210.895C193.76 210.895 194.54 210.527 195.104 209.79C195.667 209.053 196.1 208.187 196.404 207.19C196.707 206.15 196.902 205.088 196.989 204.005C197.075 202.922 197.119 202.055 197.119 201.405C197.119 200.582 197.054 199.52 196.924 198.22C196.794 196.92 196.577 195.555 196.274 194.125C195.97 192.695 195.58 191.265 195.104 189.835C194.67 188.362 194.107 187.062 193.414 185.935C192.72 184.765 191.919 183.812 191.009 183.075C190.142 182.338 189.124 181.97 187.954 181.97C187.044 181.97 186.329 182.317 185.809 183.01C185.289 183.703 184.899 184.527 184.639 185.48C184.379 186.433 184.205 187.408 184.119 188.405C184.075 189.402 184.054 190.203 184.054 190.81C184.054 191.59 184.119 192.63 184.249 193.93C184.379 195.187 184.574 196.573 184.834 198.09C185.137 199.563 185.505 201.058 185.939 202.575C186.415 204.092 186.979 205.478 187.629 206.735C188.279 207.948 189.015 208.945 189.839 209.725C190.705 210.505 191.68 210.895 192.764 210.895ZM237.615 186.325C237.702 186.152 237.983 185.892 238.46 185.545C238.98 185.198 239.587 184.787 240.28 184.31C241.017 183.833 241.775 183.357 242.555 182.88C243.378 182.36 244.137 181.905 244.83 181.515C245.567 181.082 246.195 180.735 246.715 180.475C247.235 180.215 247.56 180.085 247.69 180.085C249.163 180.085 250.442 180.367 251.525 180.93C252.608 181.493 253.497 182.252 254.19 183.205C254.927 184.158 255.468 185.263 255.815 186.52C256.205 187.777 256.4 189.077 256.4 190.42V203.16C256.4 203.897 256.443 204.698 256.53 205.565C256.617 206.432 256.768 207.277 256.985 208.1C257.202 208.923 257.527 209.682 257.96 210.375C258.437 211.068 259.022 211.61 259.715 212H243.66C244.353 211.61 244.917 211.068 245.35 210.375C245.783 209.638 246.108 208.88 246.325 208.1C246.542 207.277 246.693 206.432 246.78 205.565C246.867 204.698 246.91 203.897 246.91 203.16V190.68C246.91 190.03 246.845 189.358 246.715 188.665C246.585 187.972 246.368 187.343 246.065 186.78C245.762 186.217 245.328 185.762 244.765 185.415C244.245 185.068 243.595 184.895 242.815 184.895C242.035 184.895 241.363 185.068 240.8 185.415C240.237 185.762 239.76 186.217 239.37 186.78C238.98 187.3 238.677 187.907 238.46 188.6C238.287 189.293 238.178 189.987 238.135 190.68V203.16C238.135 203.897 238.178 204.698 238.265 205.565C238.352 206.432 238.503 207.277 238.72 208.1C238.937 208.923 239.262 209.682 239.695 210.375C240.172 211.068 240.757 211.61 241.45 212H225.395C226.088 211.61 226.652 211.068 227.085 210.375C227.518 209.638 227.843 208.88 228.06 208.1C228.277 207.277 228.428 206.432 228.515 205.565C228.602 204.698 228.645 203.897 228.645 203.16V190.68C228.645 190.03 228.58 189.358 228.45 188.665C228.32 187.972 228.103 187.343 227.8 186.78C227.497 186.217 227.063 185.762 226.5 185.415C225.98 185.068 225.33 184.895 224.55 184.895C223.207 184.895 222.167 185.372 221.43 186.325C220.693 187.235 220.217 188.297 220 189.51V203.16C220 203.897 220.022 204.698 220.065 205.565C220.152 206.432 220.303 207.277 220.52 208.1C220.737 208.923 221.062 209.682 221.495 210.375C221.928 211.068 222.513 211.61 223.25 212H207.195C207.888 211.61 208.452 211.068 208.885 210.375C209.318 209.638 209.643 208.88 209.86 208.1C210.12 207.277 210.293 206.432 210.38 205.565C210.467 204.698 210.51 203.897 210.51 203.16V193.93C210.51 193.02 210.423 192.197 210.25 191.46C210.077 190.68 209.838 189.965 209.535 189.315C209.232 188.665 208.842 188.037 208.365 187.43C207.932 186.78 207.433 186.108 206.87 185.415C208.387 185.155 209.665 184.917 210.705 184.7C211.788 184.44 212.785 184.137 213.695 183.79C214.648 183.443 215.602 183.032 216.555 182.555C217.552 182.035 218.7 181.385 220 180.605V185.675C220.303 185.372 220.932 184.917 221.885 184.31C222.838 183.703 223.835 183.097 224.875 182.49C225.958 181.84 226.933 181.277 227.8 180.8C228.71 180.323 229.252 180.085 229.425 180.085C231.678 180.085 233.477 180.735 234.82 182.035C236.207 183.292 237.16 184.873 237.68 186.78L237.615 186.325ZM270.146 196.075C270.449 197.418 270.904 198.697 271.511 199.91C272.118 201.08 272.876 202.12 273.786 203.03C274.696 203.897 275.758 204.59 276.971 205.11C278.228 205.63 279.636 205.89 281.196 205.89C281.673 205.89 282.236 205.868 282.886 205.825C283.579 205.738 284.273 205.63 284.966 205.5C285.659 205.37 286.309 205.197 286.916 204.98C287.566 204.72 288.064 204.417 288.411 204.07L288.931 204.46C287.458 207.147 285.703 209.183 283.666 210.57C281.673 211.957 279.073 212.65 275.866 212.65C273.613 212.65 271.511 212.238 269.561 211.415C267.654 210.592 266.008 209.465 264.621 208.035C263.278 206.562 262.216 204.85 261.436 202.9C260.656 200.95 260.266 198.848 260.266 196.595C260.266 194.428 260.591 192.348 261.241 190.355C261.934 188.362 262.909 186.607 264.166 185.09C265.466 183.573 267.026 182.36 268.846 181.45C270.666 180.54 272.724 180.085 275.021 180.085C277.101 180.085 278.986 180.41 280.676 181.06C282.409 181.667 283.861 182.577 285.031 183.79C286.244 184.96 287.176 186.39 287.826 188.08C288.476 189.77 288.801 191.655 288.801 193.735V195.295L270.146 196.075ZM280.091 188.535C280.091 187.798 279.939 187.018 279.636 186.195C279.376 185.372 278.986 184.635 278.466 183.985C277.946 183.292 277.339 182.728 276.646 182.295C275.953 181.862 275.194 181.645 274.371 181.645C273.418 181.645 272.638 182.035 272.031 182.815C271.424 183.595 270.948 184.527 270.601 185.61C270.254 186.65 269.994 187.733 269.821 188.86C269.691 189.987 269.626 190.875 269.626 191.525C269.626 192.478 269.691 193.453 269.821 194.45C270.688 194.363 271.554 194.255 272.421 194.125C273.288 193.995 274.154 193.865 275.021 193.735C276.494 193.518 277.708 192.998 278.661 192.175C279.614 191.352 280.091 190.138 280.091 188.535ZM302.71 203.16C302.71 203.897 302.732 204.698 302.775 205.565C302.862 206.432 303.013 207.277 303.23 208.1C303.49 208.923 303.837 209.682 304.27 210.375C304.703 211.068 305.288 211.61 306.025 212H289.905C290.642 211.61 291.227 211.068 291.66 210.375C292.093 209.682 292.418 208.923 292.635 208.1C292.852 207.277 293.003 206.432 293.09 205.565C293.177 204.698 293.22 203.897 293.22 203.16V179.24C293.22 178.33 293.133 177.507 292.96 176.77C292.787 175.99 292.548 175.275 292.245 174.625C291.942 173.975 291.552 173.347 291.075 172.74C290.642 172.09 290.143 171.418 289.58 170.725C291.097 170.465 292.375 170.227 293.415 170.01C294.498 169.75 295.495 169.447 296.405 169.1C297.358 168.753 298.312 168.342 299.265 167.865C300.262 167.345 301.41 166.695 302.71 165.915V203.16ZM322.271 180.085C324.524 180.085 326.604 180.518 328.511 181.385C330.417 182.252 332.064 183.443 333.451 184.96C334.881 186.433 335.986 188.167 336.766 190.16C337.546 192.11 337.936 194.19 337.936 196.4C337.936 198.61 337.546 200.712 336.766 202.705C335.986 204.655 334.881 206.367 333.451 207.84C332.064 209.313 330.417 210.483 328.511 211.35C326.604 212.217 324.524 212.65 322.271 212.65C320.017 212.65 317.916 212.217 315.966 211.35C314.059 210.483 312.412 209.313 311.026 207.84C309.639 206.367 308.534 204.655 307.711 202.705C306.931 200.712 306.541 198.61 306.541 196.4C306.541 194.19 306.931 192.11 307.711 190.16C308.534 188.167 309.639 186.433 311.026 184.96C312.412 183.443 314.059 182.252 315.966 181.385C317.916 180.518 320.017 180.085 322.271 180.085ZM324.351 210.895C325.347 210.895 326.127 210.527 326.691 209.79C327.254 209.053 327.687 208.187 327.991 207.19C328.294 206.15 328.489 205.088 328.576 204.005C328.662 202.922 328.706 202.055 328.706 201.405C328.706 200.582 328.641 199.52 328.511 198.22C328.381 196.92 328.164 195.555 327.861 194.125C327.557 192.695 327.167 191.265 326.691 189.835C326.257 188.362 325.694 187.062 325.001 185.935C324.307 184.765 323.506 183.812 322.596 183.075C321.729 182.338 320.711 181.97 319.541 181.97C318.631 181.97 317.916 182.317 317.396 183.01C316.876 183.703 316.486 184.527 316.226 185.48C315.966 186.433 315.792 187.408 315.706 188.405C315.662 189.402 315.641 190.203 315.641 190.81C315.641 191.59 315.706 192.63 315.836 193.93C315.966 195.187 316.161 196.573 316.421 198.09C316.724 199.563 317.092 201.058 317.526 202.575C318.002 204.092 318.566 205.478 319.216 206.735C319.866 207.948 320.602 208.945 321.426 209.725C322.292 210.505 323.267 210.895 324.351 210.895Z" fill="url(#paint0_linear_3912_31165)"/>
<defs>
<linearGradient id="paint0_linear_3912_31165" x1="140" y1="163" x2="276.863" y2="303.036" gradientUnits="userSpaceOnUse">
<stop stop-color="#2563EB"/>
<stop offset="1" stop-color="#35FF49"/>
</linearGradient>
</defs>
</svg>
