<svg width="70" height="70" viewBox="0 0 70 70" fill="none" xmlns="http://www.w3.org/2000/svg">
<circle opacity="0.3" cx="35" cy="35" r="35" fill="url(#paint0_linear_3150_29240)"/>
<path d="M35.9605 49.8391C34.3872 49.8391 32.1605 48.7325 30.4005 43.4391L29.4405 40.5591L26.5605 39.5991C21.2805 37.8391 20.1738 35.6125 20.1738 34.0391C20.1738 32.4791 21.2805 30.2391 26.5605 28.4658L37.8805 24.6925C40.7072 23.7458 43.0672 24.0258 44.5205 25.4658C45.9738 26.9058 46.2538 29.2791 45.3072 32.1058L41.5338 43.4258C39.7605 48.7325 37.5338 49.8391 35.9605 49.8391ZM27.1872 30.3725C23.4805 31.6125 22.1605 33.0791 22.1605 34.0391C22.1605 34.9991 23.4805 36.4658 27.1872 37.6925L30.5472 38.8125C30.8405 38.9058 31.0805 39.1458 31.1738 39.4391L32.2938 42.7991C33.5205 46.5058 35.0005 47.8258 35.9605 47.8258C36.9205 47.8258 38.3872 46.5058 39.6272 42.7991L43.4005 31.4791C44.0805 29.4258 43.9605 27.7458 43.0938 26.8791C42.2272 26.0125 40.5472 25.9058 38.5072 26.5858L27.1872 30.3725Z" fill="#101828"/>
<path d="M30.4791 40.2013C30.2258 40.2013 29.9724 40.108 29.7724 39.908C29.3858 39.5213 29.3858 38.8813 29.7724 38.4946L34.5458 33.708C34.9324 33.3213 35.5724 33.3213 35.9591 33.708C36.3458 34.0946 36.3458 34.7346 35.9591 35.1213L31.1858 39.908C30.9991 40.108 30.7324 40.2013 30.4791 40.2013Z" fill="#101828"/>
<defs>
<linearGradient id="paint0_linear_3150_29240" x1="16.5375" y1="48.8235" x2="87.9525" y2="36.1557" gradientUnits="userSpaceOnUse">
<stop stop-color="#FF6648"/>
<stop offset="1" stop-color="#FFF96A"/>
</linearGradient>
</defs>
</svg>
