<svg width="265" height="296" viewBox="0 0 265 296" fill="none" xmlns="http://www.w3.org/2000/svg">
<g clip-path="url(#clip0_3374_29347)">
<path d="M113.801 181.768L32.5789 171.487C26.8671 170.802 23.1521 167.717 21.434 162.234C19.7159 156.751 20.9177 152.067 25.0393 148.183L165.207 13.8414C166.349 12.699 167.72 11.8399 169.32 11.2642C170.919 10.6884 173.089 10.4051 175.831 10.4143C180.4 10.4143 183.887 12.3563 186.29 16.2403C188.694 20.1243 188.749 24.1226 186.455 28.2351L141.217 113.227L222.439 123.508C228.151 124.193 231.866 127.278 233.584 132.761C235.302 138.244 234.101 142.928 229.979 146.812L89.8112 281.154C88.6688 282.296 87.298 283.155 85.6987 283.731C84.0994 284.307 81.9289 284.59 79.1872 284.581C74.6178 284.581 71.1313 282.639 68.7278 278.755C66.3242 274.871 66.2694 270.873 68.5633 266.76L113.801 181.768Z" fill="url(#paint0_linear_3374_29347)"/>
<circle opacity="0.3" cx="135.5" cy="152.5" r="106.5" fill="url(#paint1_linear_3374_29347)"/>
<circle opacity="0.1" cx="126.5" cy="152.5" r="106.5" fill="url(#paint2_linear_3374_29347)"/>
</g>
<defs>
<linearGradient id="paint0_linear_3374_29347" x1="71.1545" y1="201.64" x2="291.783" y2="171.14" gradientUnits="userSpaceOnUse">
<stop stop-color="#FF6648"/>
<stop offset="1" stop-color="#FFF96A"/>
</linearGradient>
<linearGradient id="paint1_linear_3374_29347" x1="79.3213" y1="194.563" x2="296.627" y2="156.017" gradientUnits="userSpaceOnUse">
<stop stop-color="#FF6648"/>
<stop offset="1" stop-color="#FFF96A"/>
</linearGradient>
<linearGradient id="paint2_linear_3374_29347" x1="70.3213" y1="194.563" x2="287.627" y2="156.017" gradientUnits="userSpaceOnUse">
<stop stop-color="#FF6648"/>
<stop offset="1" stop-color="#FFF96A"/>
</linearGradient>
<clipPath id="clip0_3374_29347">
<rect width="265" height="296" fill="white"/>
</clipPath>
</defs>
</svg>
