<svg width="684" height="82" viewBox="0 0 684 82" fill="none" xmlns="http://www.w3.org/2000/svg">
<path d="M20.4 18.52H1.2C3.9 20.14 4.26 23.86 4.26 26.68V55.84C4.26 58.6 3.84 62.44 1.2 64H20.4C33.06 64 39.54 52.78 39.54 41.26C39.54 29.8 33.06 18.52 20.4 18.52ZM16.08 62.56H13.02V19.96H16.08C26.88 19.96 30.78 32.44 30.78 41.26C30.78 50.14 26.88 62.56 16.08 62.56ZM56.6602 34.54C48.3202 34.54 42.1402 41.44 42.1402 49.6C42.1402 57.82 48.3202 64.6 56.6602 64.6C65.0002 64.6 71.1202 57.76 71.1202 49.6C71.1202 41.44 65.0002 34.54 56.6602 34.54ZM58.5802 62.98C52.5802 62.98 50.5402 48.7 50.5402 44.44C50.5402 42.22 50.8402 36.28 54.1402 36.28C60.5602 36.28 62.6002 49.6 62.6002 54.22C62.6002 56.68 62.1802 62.98 58.5802 62.98ZM111.819 40.72C110.859 37.24 108.339 34.54 104.199 34.54C103.539 34.54 96.5789 38.62 95.4989 39.7V35.02C90.6389 37.84 88.9589 38.56 83.3789 39.46C85.4789 41.98 86.7389 43.9 86.7389 47.32V55.84C86.7389 58.54 86.2589 62.5 83.6789 64H98.4989C95.7989 62.5 95.4989 58.6 95.4989 55.84V43.24C95.9189 41.02 97.2389 38.98 99.6989 38.98C102.639 38.98 103.479 41.86 103.479 44.32V55.84C103.479 58.54 103.059 62.5 100.479 64H115.299C112.659 62.5 112.239 58.6 112.239 55.84V44.32C112.359 41.8 113.679 38.98 116.559 38.98C119.499 38.98 120.339 41.86 120.339 44.32V55.84C120.339 58.54 119.919 62.5 117.339 64H132.159C129.519 62.5 129.099 58.6 129.099 55.84V44.08C129.099 39.1 126.459 34.54 121.059 34.54C120.339 34.54 112.299 39.46 111.759 40.3L111.819 40.72ZM147.188 34.54C138.848 34.54 132.668 41.44 132.668 49.6C132.668 57.82 138.848 64.6 147.188 64.6C155.528 64.6 161.648 57.76 161.648 49.6C161.648 41.44 155.528 34.54 147.188 34.54ZM149.108 62.98C143.108 62.98 141.068 48.7 141.068 44.44C141.068 42.22 141.368 36.28 144.668 36.28C151.088 36.28 153.128 49.6 153.128 54.22C153.128 56.68 152.708 62.98 149.108 62.98ZM173.663 41.62V35.02C168.803 37.84 167.123 38.56 161.543 39.46C163.643 41.98 164.903 43.9 164.903 47.32V55.84C164.903 58.54 164.423 62.5 161.843 64H176.663C174.023 62.5 173.663 58.6 173.663 55.84V44.92C173.663 43.18 175.463 41.68 177.083 41.68C179.183 41.68 180.743 43.3 180.743 45.34C180.743 45.88 180.623 46.36 180.503 46.84C184.463 46.84 187.703 44.26 187.703 40.18C187.703 37.06 185.663 34.54 182.423 34.54C178.343 34.54 175.223 38.2 173.663 41.62ZM213.675 48.58V47.14C213.675 39.4 208.695 34.54 200.955 34.54C192.435 34.54 187.335 41.8 187.335 49.78C187.335 58.06 193.335 64.6 201.735 64.6C207.675 64.6 211.035 62.02 213.795 57.04L213.315 56.68C212.055 57.94 208.335 58.36 206.655 58.36C200.835 58.36 197.595 54.28 196.455 49.3L213.675 48.58ZM205.635 42.34C205.635 45.28 203.655 46.72 200.955 47.14C199.335 47.38 197.775 47.62 196.155 47.8C196.035 46.9 195.975 46 195.975 45.1C195.975 42.64 196.875 35.98 200.355 35.98C203.415 35.98 205.635 39.58 205.635 42.34ZM240.092 64H245.192C247.532 58.18 249.872 52.36 252.092 46.54C254.432 52.36 256.712 58.18 259.052 64H264.152L269.552 50.5C271.052 46.78 274.412 36.64 278.072 35.02H267.752C266.192 33.82 265.292 31.9 265.292 29.92C265.292 24.76 270.032 21.94 274.712 21.94C277.712 21.94 281.492 22.42 283.532 24.88C281.132 24.88 279.152 26.86 279.152 29.26C279.152 31.66 281.132 33.64 283.532 33.64C285.932 33.64 287.912 31.66 287.912 29.26C287.912 22.66 280.052 20.5 274.712 20.5C269.312 20.5 261.452 23.14 261.452 29.74C261.452 36.58 269.312 34.12 269.312 42.88C269.312 47.8 266.912 53.14 265.112 57.64C263.552 53.92 258.752 43.12 258.752 39.7C258.752 37.66 259.712 35.68 261.692 35.02H245.132C247.412 36.04 249.392 40.24 250.412 42.4V42.88C250.412 47.74 247.952 53.14 246.152 57.64C244.592 53.92 239.792 43.12 239.792 39.7C239.792 37.66 240.752 35.68 242.732 35.02H226.172C229.832 36.64 233.132 46.66 234.632 50.38L240.092 64ZM276.332 39.46C278.432 41.98 279.692 43.9 279.692 47.32V55.84C279.692 58.54 279.212 62.5 276.632 64H291.452C288.752 62.5 288.452 58.6 288.452 55.84V35.02C283.592 37.84 281.912 38.56 276.332 39.46ZM303.445 27.52H302.545C300.565 32.98 297.385 35.02 291.745 35.56V36.46H294.685V56.5C294.685 60.88 296.665 64.6 301.465 64.6C304.765 64.6 308.125 62.98 310.525 60.76V60.16C309.565 60.7 308.425 60.94 307.345 60.94C305.305 60.94 303.445 60.04 303.445 57.7V36.46H309.685V35.02H303.445V27.52ZM313.028 55.84C313.028 58.54 312.548 62.5 309.968 64H324.788C322.088 62.5 321.788 58.6 321.788 55.84V44.32C321.788 41.86 323.348 38.98 326.108 38.98C329.048 38.98 329.888 41.86 329.888 44.32V55.84C329.888 58.54 329.468 62.5 326.888 64H341.708C339.068 62.5 338.648 58.6 338.648 55.84V44.08C338.648 39.1 336.008 34.54 330.608 34.54C329.888 34.54 322.328 39.04 321.788 39.82V21.46C317.888 23.68 314.108 25.18 309.668 25.9C311.768 28.42 313.028 30.34 313.028 33.76V55.84Z" fill="white"/>
<path d="M386.556 28.12C386.556 20.98 377.016 17.92 371.196 17.92C363.576 17.92 355.896 22.24 355.896 30.64C355.896 45.1 378.636 43.42 378.636 55.3C378.636 60.46 374.496 63.16 369.696 63.16C366.156 63.16 362.856 61.24 362.856 57.34C362.856 55.3 364.056 52.9 366.396 52.9C365.976 49.48 363.756 46 359.916 46C356.256 46 354.396 49.3 354.396 52.66C354.396 61.24 363.936 64.6 371.136 64.6C378.816 64.6 387.696 60.76 387.696 51.88C387.696 37.18 363.096 38.08 363.096 27.64C363.096 22.96 366.096 19.36 370.896 19.36C373.956 19.36 378.036 20.68 378.036 24.4C378.036 25.96 377.196 27.64 375.396 27.64C375.756 30.88 377.916 33.7 381.396 33.7C384.576 33.7 386.556 31.18 386.556 28.12ZM391.368 69.16C391.368 71.92 390.948 75.76 388.308 77.32H403.128C400.488 75.76 400.128 71.92 400.128 69.16V63.52C401.928 64.18 403.368 64.54 406.068 64.54C414.768 64.54 419.748 57.04 419.748 48.94C419.748 41.2 415.188 34.36 406.848 34.36C404.868 34.36 402.168 37 400.128 39.34V35.02C395.268 37.78 393.588 38.5 388.008 39.4C390.108 41.92 391.368 43.84 391.368 47.26V69.16ZM400.128 40.06C400.488 39.82 400.908 39.64 401.208 39.64C408.288 39.64 411.468 46.6 411.468 52.78C411.468 56.74 409.908 63.04 404.928 63.04C400.908 63.04 400.128 58.36 400.128 55.24V40.06ZM447.354 61.54C446.994 61.78 446.574 61.9 446.154 61.9C444.474 61.9 444.294 59.32 444.294 58.18V44.38C444.294 37.96 439.554 34.54 433.434 34.54C428.394 34.54 421.794 36.88 421.794 42.88C421.794 45.22 423.174 47.44 425.694 47.44C429.054 47.44 431.214 44.74 432.114 41.8C430.734 41.8 429.774 41.08 429.774 39.64C429.774 38.08 430.974 35.98 432.714 35.98C435.834 35.98 435.534 41.26 435.534 43.3V45.22C431.694 49.42 420.714 51.94 420.714 58.18C420.714 62.68 423.714 64.6 427.914 64.6C431.334 64.6 433.974 63.4 435.834 61.3C436.674 63.34 439.194 64.6 441.354 64.6C444.054 64.6 445.314 63.64 447.354 62.14V61.54ZM435.534 60.04C434.934 60.4 434.154 60.64 433.194 60.64C430.134 60.64 429.534 58 429.534 55.48C429.534 52 433.254 49.42 435.534 47.32V60.04ZM457.358 64C458.318 64 459.998 64.3 459.998 65.56C459.998 68.44 455.258 70.06 452.978 70.06C450.338 70.06 448.178 68.74 448.178 65.86C445.598 65.86 444.278 69.28 444.278 71.44C444.278 75.4 447.397 77.14 451.058 77.14C457.898 77.14 460.358 69.22 462.458 64L467.858 50.5C469.358 46.72 472.718 36.64 476.378 35.02H462.458C466.058 36.34 467.678 39.1 467.678 42.88C467.678 47.74 465.218 53.14 463.418 57.64C461.858 53.92 457.058 43.12 457.058 39.7C457.058 37.66 458.018 35.68 459.998 35.02H443.438C447.098 36.64 450.398 46.66 451.898 50.38L457.358 64ZM488.785 44.38C489.805 47.74 491.785 49.96 495.445 49.96C498.685 49.96 500.545 47.86 500.545 44.74C500.545 38.14 493.945 34.54 488.065 34.54C479.545 34.54 474.445 41.8 474.445 49.78C474.445 58.06 480.445 64.6 488.845 64.6C494.545 64.6 498.865 62.02 501.625 57.04L501.145 56.68C499.885 57.94 496.165 58.36 494.485 58.36C486.805 58.36 483.385 51.28 483.385 44.5C483.385 42.16 484.105 35.98 487.465 35.98C490.165 35.98 492.805 38.62 492.805 41.32C492.805 43.6 490.765 44.38 488.785 44.38ZM528.441 48.58V47.14C528.441 39.4 523.461 34.54 515.721 34.54C507.201 34.54 502.101 41.8 502.101 49.78C502.101 58.06 508.101 64.6 516.501 64.6C522.441 64.6 525.801 62.02 528.561 57.04L528.081 56.68C526.821 57.94 523.101 58.36 521.421 58.36C515.601 58.36 512.361 54.28 511.221 49.3L528.441 48.58ZM520.401 42.34C520.401 45.28 518.421 46.72 515.721 47.14C514.101 47.38 512.541 47.62 510.921 47.8C510.801 46.9 510.741 46 510.741 45.1C510.741 42.64 511.641 35.98 515.121 35.98C518.181 35.98 520.401 39.58 520.401 42.34ZM557.6 40.72C556.64 37.24 554.12 34.54 549.98 34.54C549.32 34.54 542.36 38.62 541.28 39.7V35.02C536.42 37.84 534.74 38.56 529.16 39.46C531.26 41.98 532.52 43.9 532.52 47.32V55.84C532.52 58.54 532.04 62.5 529.46 64H544.28C541.58 62.5 541.28 58.6 541.28 55.84V43.24C541.7 41.02 543.02 38.98 545.48 38.98C548.42 38.98 549.26 41.86 549.26 44.32V55.84C549.26 58.54 548.84 62.5 546.26 64H561.08C558.44 62.5 558.02 58.6 558.02 55.84V44.32C558.14 41.8 559.46 38.98 562.34 38.98C565.28 38.98 566.12 41.86 566.12 44.32V55.84C566.12 58.54 565.7 62.5 563.12 64H577.94C575.3 62.5 574.88 58.6 574.88 55.84V44.08C574.88 39.1 572.24 34.54 566.84 34.54C566.12 34.54 558.08 39.46 557.54 40.3L557.6 40.72ZM590.641 36.352C582.757 36.352 578.509 43.084 578.509 50.356C578.509 57.628 582.757 64.36 590.641 64.36C593.197 64.36 595.321 63.568 597.013 62.236C598.705 63.568 600.793 64.36 603.349 64.36C611.233 64.36 615.517 57.628 615.517 50.356C615.517 43.084 611.233 36.352 603.349 36.352C600.793 36.352 598.705 37.144 597.013 38.476C595.321 37.144 593.197 36.352 590.641 36.352ZM590.641 63.496C585.025 63.496 583.765 54.532 583.765 50.392C583.765 46.324 585.061 37.216 590.641 37.216C592.801 37.216 594.385 38.296 595.537 39.88C593.161 42.616 592.045 46.54 592.045 50.356C592.045 54.172 593.197 58.096 595.537 60.832C594.385 62.416 592.801 63.496 590.641 63.496ZM603.349 63.496C601.189 63.496 599.605 62.416 598.453 60.832C600.829 58.096 601.981 54.208 601.981 50.356C601.981 46.54 600.829 42.616 598.489 39.88C599.641 38.296 601.225 37.216 603.349 37.216C608.965 37.216 610.225 46.216 610.225 50.32C610.225 54.388 608.929 63.496 603.349 63.496ZM596.977 58.06C596.005 55.504 595.681 52.552 595.681 50.392C595.681 48.268 596.041 45.28 597.013 42.688C597.985 45.244 598.345 48.196 598.345 50.32C598.345 52.48 597.985 55.468 596.977 58.06ZM631.163 64C628.463 62.5 628.163 58.6 628.163 55.84V43.24C628.583 41.02 629.903 38.98 632.363 38.98C635.303 38.98 636.143 41.86 636.143 44.32V55.84C636.143 58.54 635.723 62.5 633.143 64H647.963C645.323 62.5 644.903 58.6 644.903 55.84V44.08C644.903 39.1 642.263 34.54 636.863 34.54C636.203 34.54 629.243 38.62 628.163 39.7V35.02C623.303 37.84 621.623 38.56 616.043 39.46C618.143 41.98 619.403 43.9 619.403 47.32V55.84C619.403 58.54 618.923 62.5 616.343 64H631.163Z" fill="#245FE0"/>
<path d="M629.598 41.3684C632.75 27.4124 639.488 14.5199 649.146 3.96379C649.317 3.77696 649.526 3.62782 649.758 3.5258C649.991 3.42377 650.242 3.37109 650.495 3.37109C650.749 3.37109 651 3.42377 651.232 3.5258C651.465 3.62782 651.673 3.77696 651.845 3.96379C661.503 14.5184 668.242 27.4092 671.395 41.3638C666.424 42.4115 661.38 43.0818 656.307 43.369L651.522 52.9413C651.427 53.1314 651.281 53.2912 651.1 53.4029C650.919 53.5146 650.71 53.5737 650.498 53.5737C650.285 53.5737 650.077 53.5146 649.896 53.4029C649.715 53.2912 649.569 53.1314 649.473 52.9413L644.686 43.369C639.613 43.0816 634.569 42.4113 629.598 41.3638V41.3684ZM650.498 34.3673C652.321 34.3673 654.07 33.643 655.359 32.3537C656.648 31.0644 657.373 29.3157 657.373 27.4923C657.373 25.669 656.648 23.9203 655.359 22.631C654.07 21.3417 652.321 20.6173 650.498 20.6173C648.674 20.6173 646.926 21.3417 645.636 22.631C644.347 23.9203 643.623 25.669 643.623 27.4923C643.623 29.3157 644.347 31.0644 645.636 32.3537C646.926 33.643 648.674 34.3673 650.498 34.3673Z" fill="url(#paint0_linear_3839_34063)"/>
<g clip-path="url(#clip0_3839_34063)">
<mask id="mask0_3839_34063" style="mask-type:luminance" maskUnits="userSpaceOnUse" x="624" y="11" width="44" height="26">
<path d="M667.87 11.582H624.449V36.0064H667.87V11.582Z" fill="white"/>
</mask>
<g mask="url(#mask0_3839_34063)">
<mask id="mask1_3839_34063" style="mask-type:luminance" maskUnits="userSpaceOnUse" x="663" y="16" width="3" height="3">
<path d="M663.617 16.375H665.607V18.3651H663.617V16.375Z" fill="white"/>
</mask>
<g mask="url(#mask1_3839_34063)">
<path d="M664.618 16.5078C665.09 16.5078 665.474 16.8915 665.474 17.364C665.474 17.8365 665.09 18.2202 664.618 18.2202C664.145 18.2202 663.762 17.8365 663.762 17.364C663.762 16.8915 664.145 16.5078 664.618 16.5078Z" stroke="white" stroke-width="0.00392609"/>
</g>
<mask id="mask2_3839_34063" style="mask-type:luminance" maskUnits="userSpaceOnUse" x="639" y="29" width="3" height="3">
<path d="M639.465 29.7578H641.455V31.7479H639.465V29.7578Z" fill="white"/>
</mask>
<g mask="url(#mask2_3839_34063)">
<path d="M640.461 30.5273C640.585 30.5273 640.687 30.6287 640.687 30.7535C640.687 30.8783 640.585 30.9796 640.461 30.9796C640.336 30.9796 640.234 30.8783 640.234 30.7535C640.234 30.6287 640.336 30.5273 640.461 30.5273Z" fill="white"/>
<path d="M640.617 30.5935C640.705 30.6818 640.705 30.8251 640.617 30.9133C640.529 31.0016 640.385 31.0016 640.297 30.9133C640.209 30.8251 640.209 30.6818 640.297 30.5935C640.385 30.5053 640.529 30.5053 640.617 30.5935Z" fill="white"/>
<path d="M640.684 30.7535C640.684 30.8783 640.582 30.9796 640.457 30.9796C640.333 30.9796 640.231 30.8783 640.231 30.7535C640.231 30.6287 640.333 30.5273 640.457 30.5273C640.582 30.5273 640.684 30.6287 640.684 30.7535Z" fill="white"/>
<path d="M640.621 30.9177C640.533 31.006 640.39 31.006 640.302 30.9177C640.213 30.8295 640.213 30.6862 640.302 30.5979C640.39 30.5096 640.533 30.5096 640.621 30.5979C640.71 30.6862 640.71 30.8295 640.621 30.9177Z" fill="white"/>
<path d="M640.457 30.9844C640.333 30.9844 640.231 30.883 640.231 30.7582C640.231 30.6334 640.333 30.5321 640.457 30.5321C640.582 30.5321 640.684 30.6334 640.684 30.7582C640.684 30.883 640.582 30.9844 640.457 30.9844Z" fill="white"/>
<path d="M640.297 30.9143C640.209 30.826 640.209 30.6827 640.297 30.5945C640.385 30.5062 640.529 30.5062 640.617 30.5945C640.705 30.6827 640.705 30.826 640.617 30.9143C640.529 31.0026 640.385 31.0026 640.297 30.9143Z" fill="white"/>
<path d="M640.234 30.7582C640.234 30.6334 640.336 30.5321 640.461 30.5321C640.585 30.5321 640.687 30.6334 640.687 30.7582C640.687 30.883 640.585 30.9844 640.461 30.9844C640.336 30.9844 640.234 30.883 640.234 30.7582Z" fill="white"/>
<path d="M640.301 30.5979C640.389 30.5096 640.532 30.5096 640.62 30.5979C640.709 30.6862 640.709 30.8295 640.62 30.9177C640.532 31.006 640.389 31.006 640.301 30.9177C640.212 30.8295 640.212 30.6862 640.301 30.5979Z" fill="white"/>
</g>
<mask id="mask3_3839_34063" style="mask-type:luminance" maskUnits="userSpaceOnUse" x="627" y="23" width="3" height="3">
<path d="M627.523 23.6133H629.514V25.6034H627.523V23.6133Z" fill="white"/>
</mask>
<g mask="url(#mask3_3839_34063)">
<path d="M628.522 24.3867C628.647 24.3867 628.748 24.4877 628.748 24.6121C628.748 24.7365 628.647 24.8375 628.522 24.8375C628.398 24.8375 628.297 24.7365 628.297 24.6121C628.297 24.4877 628.398 24.3867 628.522 24.3867Z" fill="white"/>
<path d="M628.671 24.4484C628.759 24.5364 628.759 24.6793 628.671 24.7672C628.583 24.8552 628.44 24.8552 628.352 24.7672C628.264 24.6793 628.264 24.5364 628.352 24.4484C628.44 24.3605 628.583 24.3605 628.671 24.4484Z" fill="white"/>
<path d="M628.746 24.6121C628.746 24.7365 628.645 24.8375 628.521 24.8375C628.396 24.8375 628.295 24.7365 628.295 24.6121C628.295 24.4877 628.396 24.3867 628.521 24.3867C628.645 24.3867 628.746 24.4877 628.746 24.6121Z" fill="white"/>
<path d="M628.68 24.7766C628.592 24.8645 628.45 24.8645 628.362 24.7766C628.274 24.6886 628.274 24.5458 628.362 24.4578C628.45 24.3698 628.592 24.3698 628.68 24.4578C628.768 24.5458 628.768 24.6886 628.68 24.7766Z" fill="white"/>
<path d="M628.521 24.8398C628.396 24.8398 628.295 24.7388 628.295 24.6144C628.295 24.49 628.396 24.389 628.521 24.389C628.645 24.389 628.746 24.49 628.746 24.6144C628.746 24.7388 628.645 24.8398 628.521 24.8398Z" fill="white"/>
<path d="M628.352 24.7742C628.264 24.6862 628.264 24.5434 628.352 24.4554C628.44 24.3675 628.583 24.3675 628.671 24.4554C628.759 24.5434 628.759 24.6862 628.671 24.7742C628.583 24.8622 628.44 24.8622 628.352 24.7742Z" fill="white"/>
<path d="M628.281 24.6105C628.281 24.4861 628.382 24.3851 628.507 24.3851C628.631 24.3851 628.732 24.4861 628.732 24.6105C628.732 24.7349 628.631 24.8359 628.507 24.8359C628.382 24.8359 628.281 24.7349 628.281 24.6105Z" fill="white"/>
<path d="M628.355 24.4461C628.443 24.3581 628.586 24.3581 628.673 24.4461C628.761 24.534 628.761 24.6769 628.673 24.7649C628.586 24.8528 628.443 24.8528 628.355 24.7649C628.267 24.6769 628.267 24.534 628.355 24.4461Z" fill="white"/>
</g>
<mask id="mask4_3839_34063" style="mask-type:luminance" maskUnits="userSpaceOnUse" x="652" y="28" width="3" height="3">
<path d="M652.672 28.6836H654.662V30.6737H652.672V28.6836Z" fill="white"/>
</mask>
<g mask="url(#mask4_3839_34063)">
<path d="M653.668 29.4492C653.792 29.4492 653.894 29.5506 653.894 29.6754C653.894 29.8002 653.792 29.9015 653.668 29.9015C653.543 29.9015 653.441 29.8002 653.441 29.6754C653.441 29.5506 653.543 29.4492 653.668 29.4492Z" fill="white"/>
<path d="M653.832 29.5193C653.92 29.6075 653.92 29.7509 653.832 29.8391C653.744 29.9274 653.6 29.9274 653.512 29.8391C653.424 29.7509 653.424 29.6075 653.512 29.5193C653.6 29.431 653.744 29.431 653.832 29.5193Z" fill="white"/>
<path d="M653.891 29.6754C653.891 29.8002 653.789 29.9015 653.664 29.9015C653.54 29.9015 653.438 29.8002 653.438 29.6754C653.438 29.5506 653.54 29.4492 653.664 29.4492C653.789 29.4492 653.891 29.5506 653.891 29.6754Z" fill="white"/>
<path d="M653.828 29.8396C653.74 29.9279 653.597 29.9279 653.509 29.8396C653.42 29.7513 653.42 29.608 653.509 29.5198C653.597 29.4315 653.74 29.4315 653.828 29.5198C653.917 29.608 653.917 29.7513 653.828 29.8396Z" fill="white"/>
<path d="M653.664 29.9023C653.54 29.9023 653.438 29.801 653.438 29.6762C653.438 29.5514 653.54 29.45 653.664 29.45C653.789 29.45 653.891 29.5514 653.891 29.6762C653.891 29.801 653.789 29.9023 653.664 29.9023Z" fill="white"/>
<path d="M653.512 29.844C653.424 29.7557 653.424 29.6124 653.512 29.5242C653.6 29.4359 653.744 29.4359 653.832 29.5242C653.92 29.6124 653.92 29.7557 653.832 29.844C653.744 29.9322 653.6 29.9322 653.512 29.844Z" fill="white"/>
<path d="M653.441 29.6762C653.441 29.5514 653.543 29.45 653.668 29.45C653.792 29.45 653.894 29.5514 653.894 29.6762C653.894 29.801 653.792 29.9023 653.668 29.9023C653.543 29.9023 653.441 29.801 653.441 29.6762Z" fill="white"/>
<path d="M653.508 29.5198C653.596 29.4315 653.739 29.4315 653.827 29.5198C653.916 29.608 653.916 29.7513 653.827 29.8396C653.739 29.9279 653.596 29.9279 653.508 29.8396C653.419 29.7513 653.419 29.608 653.508 29.5198Z" fill="white"/>
</g>
<mask id="mask5_3839_34063" style="mask-type:luminance" maskUnits="userSpaceOnUse" x="652" y="17" width="10" height="11">
<path d="M661.172 17.8125L661.917 26.3285L653.401 27.0735L652.656 18.5576L661.172 17.8125Z" fill="white"/>
</mask>
<g mask="url(#mask5_3839_34063)">
<g opacity="0.0773827">
<path d="M659.15 20.212C659.155 20.2708 659.112 20.3227 659.053 20.3278C658.994 20.333 658.942 20.2894 658.937 20.2306C658.932 20.1718 658.975 20.1199 659.034 20.1148C659.093 20.1096 659.145 20.1532 659.15 20.212Z" fill="white"/>
</g>
<g opacity="0.0773827">
<path d="M655.162 20.5635C655.167 20.6223 655.123 20.6742 655.064 20.6794C655.006 20.6845 654.954 20.641 654.949 20.5822C654.943 20.5234 654.987 20.4715 655.046 20.4664C655.105 20.4612 655.157 20.5048 655.162 20.5635Z" fill="white"/>
</g>
<g opacity="0.0773827">
<path d="M655.525 24.6534C655.53 24.7122 655.487 24.7641 655.428 24.7692C655.369 24.7744 655.317 24.7308 655.312 24.672C655.307 24.6132 655.35 24.5613 655.409 24.5562C655.468 24.5511 655.52 24.5946 655.525 24.6534Z" fill="white"/>
</g>
<g opacity="0.0773827">
<path d="M659.619 24.294C659.624 24.3528 659.58 24.4047 659.521 24.4099C659.463 24.415 659.411 24.3714 659.406 24.3127C659.401 24.2539 659.444 24.202 659.503 24.1968C659.562 24.1917 659.614 24.2352 659.619 24.294Z" fill="white"/>
</g>
<g opacity="0.0773827">
<path d="M659.986 22.2003C659.991 22.2591 659.947 22.311 659.889 22.3161C659.83 22.3212 659.778 22.2777 659.773 22.2189C659.768 22.1601 659.811 22.1082 659.87 22.1031C659.929 22.0979 659.981 22.1415 659.986 22.2003Z" fill="white"/>
</g>
<g opacity="0.0773827">
<path d="M654.802 22.6573C654.807 22.7161 654.764 22.768 654.705 22.7731C654.646 22.7783 654.594 22.7347 654.589 22.6759C654.584 22.6172 654.628 22.5652 654.686 22.5601C654.745 22.555 654.797 22.5985 654.802 22.6573Z" fill="white"/>
</g>
<g opacity="0.0773827">
<path d="M657.623 25.0245C657.628 25.0833 657.584 25.1352 657.525 25.1403C657.467 25.1455 657.415 25.1019 657.41 25.0431C657.404 24.9843 657.448 24.9324 657.507 24.9273C657.566 24.9221 657.617 24.9657 657.623 25.0245Z" fill="white"/>
</g>
<g opacity="0.0773827">
<path d="M657.169 19.837C657.175 19.8958 657.131 19.9477 657.072 19.9528C657.013 19.958 656.962 19.9144 656.956 19.8556C656.951 19.7968 656.995 19.7449 657.054 19.7398C657.112 19.7346 657.164 19.7782 657.169 19.837Z" fill="white"/>
</g>
<path d="M658.92 22.2913L658.022 22.8364L657.963 23.8849L657.167 23.1996L656.151 23.4667L656.557 22.4981L655.989 21.6146L657.036 21.7013L657.7 20.8882L657.941 21.9104L658.92 22.2913Z" fill="white"/>
</g>
<mask id="mask6_3839_34063" style="mask-type:luminance" maskUnits="userSpaceOnUse" x="628" y="16" width="10" height="10">
<path d="M633.504 16.0742L637.412 21.4533L632.033 25.3613L628.125 19.9823L633.504 16.0742Z" fill="white"/>
</mask>
<g mask="url(#mask6_3839_34063)">
<g opacity="0.312677">
<path d="M633.088 18.7665C633.115 18.8036 633.107 18.8557 633.07 18.8827C633.032 18.9096 632.98 18.9014 632.953 18.8643C632.926 18.8271 632.935 18.7751 632.972 18.7481C633.009 18.7211 633.061 18.7294 633.088 18.7665Z" fill="white"/>
</g>
<g opacity="0.312677">
<path d="M630.873 20.372C630.9 20.4091 630.892 20.4612 630.855 20.4881C630.818 20.5151 630.766 20.5069 630.739 20.4697C630.712 20.4326 630.72 20.3805 630.757 20.3536C630.794 20.3266 630.846 20.3348 630.873 20.372Z" fill="white"/>
</g>
<g opacity="0.312677">
<path d="M632.529 22.6337C632.556 22.6708 632.548 22.7229 632.511 22.7499C632.474 22.7768 632.422 22.7686 632.395 22.7315C632.368 22.6943 632.376 22.6423 632.413 22.6153C632.45 22.5883 632.502 22.5966 632.529 22.6337Z" fill="white"/>
</g>
<g opacity="0.312677">
<path d="M634.791 20.9892C634.818 21.0263 634.81 21.0783 634.773 21.1053C634.736 21.1323 634.683 21.1241 634.657 21.0869C634.63 21.0498 634.638 20.9977 634.675 20.9708C634.712 20.9438 634.764 20.952 634.791 20.9892Z" fill="white"/>
</g>
<g opacity="0.312677">
<path d="M634.268 19.6298C634.295 19.6669 634.286 19.719 634.249 19.7459C634.212 19.7729 634.16 19.7647 634.133 19.7275C634.106 19.6904 634.114 19.6384 634.151 19.6114C634.189 19.5844 634.241 19.5926 634.268 19.6298Z" fill="white"/>
</g>
<g opacity="0.312677">
<path d="M631.393 21.7157C631.42 21.7529 631.411 21.8049 631.374 21.8319C631.337 21.8589 631.285 21.8506 631.258 21.8135C631.231 21.7764 631.239 21.7243 631.276 21.6973C631.314 21.6703 631.366 21.6786 631.393 21.7157Z" fill="white"/>
</g>
<g opacity="0.312677">
<path d="M633.877 22.1181C633.904 22.1552 633.896 22.2072 633.859 22.2342C633.821 22.2612 633.769 22.253 633.742 22.2158C633.715 22.1787 633.724 22.1266 633.761 22.0997C633.798 22.0727 633.85 22.0809 633.877 22.1181Z" fill="white"/>
</g>
<g opacity="0.312677">
<path d="M631.791 19.2392C631.818 19.2763 631.81 19.3283 631.773 19.3553C631.736 19.3823 631.683 19.3741 631.657 19.3369C631.63 19.2998 631.638 19.2477 631.675 19.2208C631.712 19.1938 631.764 19.202 631.791 19.2392Z" fill="white"/>
</g>
<path d="M633.793 19.9738L633.413 20.6968L633.793 21.4198L632.988 21.2817L632.418 21.8666L632.3 21.0583L631.568 20.6968L632.3 20.3353L632.418 19.5269L632.988 20.1118L633.793 19.9738Z" fill="white"/>
</g>
<mask id="mask7_3839_34063" style="mask-type:luminance" maskUnits="userSpaceOnUse" x="651" y="26" width="13" height="14">
<path d="M655.492 26.8359L663.562 31.3093L659.089 39.3794L651.019 34.906L655.492 26.8359Z" fill="white"/>
</mask>
<g mask="url(#mask7_3839_34063)">
<g opacity="0.0773827">
<path d="M656.421 30.1028C656.477 30.1337 656.497 30.204 656.466 30.2597C656.435 30.3154 656.365 30.3356 656.309 30.3047C656.254 30.2738 656.233 30.2035 656.264 30.1478C656.295 30.0921 656.366 30.0719 656.421 30.1028Z" fill="white"/>
</g>
<g opacity="0.0773827">
<path d="M654.328 33.8645C654.383 33.8954 654.403 33.9657 654.372 34.0214C654.342 34.0771 654.271 34.0973 654.216 34.0664C654.16 34.0355 654.14 33.9652 654.171 33.9095C654.201 33.8538 654.272 33.8337 654.328 33.8645Z" fill="white"/>
</g>
<g opacity="0.0773827">
<path d="M658.203 36.0247C658.258 36.0556 658.278 36.1259 658.247 36.1816C658.217 36.2373 658.146 36.2575 658.091 36.2266C658.035 36.1957 658.015 36.1254 658.046 36.0697C658.076 36.014 658.147 35.9938 658.203 36.0247Z" fill="white"/>
</g>
<g opacity="0.0773827">
<path d="M660.351 32.1419C660.407 32.1728 660.427 32.2431 660.396 32.2988C660.365 32.3545 660.295 32.3747 660.239 32.3438C660.183 32.3129 660.163 32.2426 660.194 32.1869C660.225 32.1312 660.295 32.111 660.351 32.1419Z" fill="white"/>
</g>
<g opacity="0.0773827">
<path d="M658.706 30.552C658.762 30.5829 658.782 30.6532 658.751 30.7089C658.721 30.7646 658.65 30.7848 658.595 30.7539C658.539 30.723 658.519 30.6527 658.55 30.597C658.58 30.5413 658.651 30.5212 658.706 30.552Z" fill="white"/>
</g>
<g opacity="0.0773827">
<path d="M655.984 35.47C656.039 35.5009 656.06 35.5712 656.029 35.6269C655.998 35.6826 655.928 35.7028 655.872 35.6719C655.816 35.641 655.796 35.5707 655.827 35.515C655.858 35.4593 655.928 35.4391 655.984 35.47Z" fill="white"/>
</g>
<g opacity="0.0773827">
<path d="M659.804 34.3763C659.86 34.4071 659.88 34.4774 659.849 34.5332C659.818 34.5889 659.748 34.609 659.692 34.5781C659.636 34.5473 659.616 34.477 659.647 34.4213C659.678 34.3655 659.748 34.3454 659.804 34.3763Z" fill="white"/>
</g>
<g opacity="0.0773827">
<path d="M654.882 31.6458C654.938 31.6767 654.958 31.747 654.927 31.8027C654.896 31.8584 654.826 31.8786 654.77 31.8477C654.715 31.8168 654.694 31.7465 654.725 31.6908C654.756 31.6351 654.826 31.6149 654.882 31.6458Z" fill="white"/>
</g>
<path d="M658.143 31.5644L658.089 32.6967L658.991 33.3831L657.897 33.6816L657.523 34.7516L656.901 33.8039L655.768 33.7788L656.477 32.8945L656.151 31.809L657.211 32.2102L658.143 31.5644Z" fill="white"/>
</g>
<mask id="mask8_3839_34063" style="mask-type:luminance" maskUnits="userSpaceOnUse" x="635" y="16" width="11" height="10">
<path d="M635.887 16.6523H645.114V25.8793H635.887V16.6523Z" fill="white"/>
</mask>
<g mask="url(#mask8_3839_34063)">
<g opacity="0.510853">
<path d="M639.907 20.6523C639.939 20.6523 639.966 20.6788 639.966 20.7113C639.966 20.7438 639.939 20.7703 639.907 20.7703C639.874 20.7703 639.848 20.7438 639.848 20.7113C639.848 20.6788 639.874 20.6523 639.907 20.6523Z" fill="white"/>
</g>
<g opacity="0.510853">
<path d="M639.907 21.793C639.939 21.793 639.966 21.8194 639.966 21.8519C639.966 21.8845 639.939 21.9109 639.907 21.9109C639.874 21.9109 639.848 21.8845 639.848 21.8519C639.848 21.8194 639.874 21.793 639.907 21.793Z" fill="white"/>
</g>
<g opacity="0.510853">
<path d="M641.094 21.793C641.127 21.793 641.153 21.8194 641.153 21.8519C641.153 21.8845 641.127 21.9109 641.094 21.9109C641.062 21.9109 641.035 21.8845 641.035 21.8519C641.035 21.8194 641.062 21.793 641.094 21.793Z" fill="white"/>
</g>
<g opacity="0.510853">
<path d="M641.094 20.6211C641.127 20.6211 641.153 20.6475 641.153 20.6801C641.153 20.7126 641.127 20.739 641.094 20.739C641.062 20.739 641.035 20.7126 641.035 20.6801C641.035 20.6475 641.062 20.6211 641.094 20.6211Z" fill="white"/>
</g>
<g opacity="0.510853">
<path d="M640.496 20.4609C640.529 20.4609 640.555 20.4874 640.555 20.5199C640.555 20.5524 640.529 20.5789 640.496 20.5789C640.464 20.5789 640.438 20.5524 640.438 20.5199C640.438 20.4874 640.464 20.4609 640.496 20.4609Z" fill="white"/>
</g>
<g opacity="0.510853">
<path d="M640.496 21.9531C640.529 21.9531 640.555 21.9795 640.555 22.0121C640.555 22.0446 640.529 22.071 640.496 22.071C640.464 22.071 640.438 22.0446 640.438 22.0121C640.438 21.9795 640.464 21.9531 640.496 21.9531Z" fill="white"/>
</g>
<g opacity="0.510853">
<path d="M641.243 21.2109C641.275 21.2109 641.302 21.2374 641.302 21.2699C641.302 21.3024 641.275 21.3289 641.243 21.3289C641.21 21.3289 641.184 21.3024 641.184 21.2699C641.184 21.2374 641.21 21.2109 641.243 21.2109Z" fill="white"/>
</g>
<g opacity="0.510853">
<path d="M639.754 21.2109C639.787 21.2109 639.813 21.2374 639.813 21.2699C639.813 21.3024 639.787 21.3289 639.754 21.3289C639.722 21.3289 639.695 21.3024 639.695 21.2699C639.695 21.2374 639.722 21.2109 639.754 21.2109Z" fill="white"/>
</g>
<path d="M640.501 19.4961L641.004 20.5142L642.127 20.6775L641.314 21.47L641.506 22.5891L640.501 22.0607L639.496 22.5891L639.688 21.47L638.875 20.6775L639.999 20.5142L640.501 19.4961Z" fill="white"/>
</g>
<mask id="mask9_3839_34063" style="mask-type:luminance" maskUnits="userSpaceOnUse" x="661" y="23" width="3" height="2">
<path d="M661.836 23.1836H663.6V24.9476H661.836V23.1836Z" fill="white"/>
</mask>
<g mask="url(#mask9_3839_34063)">
<path d="M662.536 24.0002C662.571 23.9295 662.652 23.8912 662.731 23.9131C662.802 23.9329 662.843 24.0064 662.823 24.0774C662.814 24.1111 662.789 24.1366 662.759 24.1483" stroke="#3B7CEC" stroke-width="0.0159506" stroke-linecap="round"/>
<path d="M662.848 23.9544C662.892 24.0197 662.884 24.1091 662.826 24.1662C662.773 24.2178 662.689 24.217 662.637 24.1644C662.613 24.1394 662.603 24.1054 662.608 24.0732" stroke="#3B7CEC" stroke-width="0.0159506" stroke-linecap="round"/>
<path d="M662.713 24.2468C662.635 24.2385 662.571 24.1753 662.565 24.0939C662.559 24.0205 662.614 23.9563 662.688 23.9506C662.723 23.9479 662.755 23.9623 662.776 23.9868" stroke="#3B7CEC" stroke-width="0.0159506" stroke-linecap="round"/>
</g>
<mask id="mask10_3839_34063" style="mask-type:luminance" maskUnits="userSpaceOnUse" x="648" y="16" width="3" height="3">
<path d="M648.625 16.7656H650.389V18.5296H648.625V16.7656Z" fill="white"/>
</mask>
<g mask="url(#mask10_3839_34063)">
<path d="M650.127 17.9459C650.102 17.9835 650.073 18.0181 650.041 18.0492" stroke="#3B7CEC" stroke-width="0.0238379" stroke-linecap="round"/>
<path d="M648.932 18.038C648.912 17.9975 648.897 17.9553 648.886 17.9122" stroke="#3B7CEC" stroke-width="0.0238379" stroke-linecap="round"/>
<path d="M649.566 16.962C649.61 16.9727 649.652 16.9879 649.692 17.0071" stroke="#3B7CEC" stroke-width="0.0238379" stroke-linecap="round"/>
<path d="M649.576 16.8866L649.758 17.2722C649.77 17.299 649.795 17.3175 649.823 17.3219L650.23 17.3837C650.301 17.3945 650.33 17.4861 650.278 17.5385L649.984 17.8387C649.964 17.8595 649.954 17.8896 649.959 17.9191L650.028 18.3429C650.041 18.4171 649.966 18.4736 649.902 18.4386L649.538 18.2386C649.513 18.2247 649.483 18.2247 649.458 18.2386L649.094 18.4386C649.03 18.4736 648.955 18.4171 648.968 18.3429L649.037 17.9191C649.042 17.8896 649.033 17.8595 649.012 17.8387L648.718 17.5385C648.666 17.4859 648.695 17.3944 648.766 17.3837L649.173 17.3219C649.201 17.3175 649.226 17.299 649.238 17.2722L649.42 16.8866C649.452 16.8191 649.544 16.8191 649.576 16.8866Z" fill="white"/>
</g>
<mask id="mask11_3839_34063" style="mask-type:luminance" maskUnits="userSpaceOnUse" x="661" y="29" width="4" height="4">
<path d="M661.406 29.9922H664.199V32.7852H661.406V29.9922Z" fill="white"/>
</mask>
<g mask="url(#mask11_3839_34063)">
<path d="M662.63 31.905C662.413 31.8015 662.295 31.5544 662.362 31.3151C662.371 31.281 662.385 31.2492 662.402 31.2201" stroke="#3B7CEC" stroke-width="0.0336214" stroke-linecap="round"/>
<path d="M662.447 30.9812C662.645 30.8454 662.918 30.867 663.092 31.0444C663.116 31.0696 663.137 31.0973 663.154 31.1266" stroke="#3B7CEC" stroke-width="0.0336214" stroke-linecap="round"/>
<path d="M663.342 31.3744C663.319 31.6134 663.127 31.8085 662.879 31.8277C662.844 31.8305 662.809 31.8286 662.776 31.8226" stroke="#3B7CEC" stroke-width="0.0336214" stroke-linecap="round"/>
</g>
<mask id="mask12_3839_34063" style="mask-type:luminance" maskUnits="userSpaceOnUse" x="660" y="13" width="4" height="5">
<path d="M660.227 13.7109H663.755V17.2389H660.227V13.7109Z" fill="white"/>
</mask>
<g mask="url(#mask12_3839_34063)">
<path d="M663.377 15.7781C663.37 15.7971 663.363 15.8158 663.355 15.8343" stroke="#3B7CEC" stroke-width="0.0376247" stroke-linecap="round"/>
<path d="M661.026 16.5098C661.013 16.4943 661 16.4787 660.988 16.4628" stroke="#3B7CEC" stroke-width="0.0376247" stroke-linecap="round"/>
<path d="M661.801 14.0604C661.821 14.0604 661.841 14.0608 661.861 14.0616" stroke="#3B7CEC" stroke-width="0.0376247" stroke-linecap="round"/>
<path d="M662.156 13.8576L662.542 14.6766C662.569 14.7335 662.621 14.7729 662.682 14.7821L663.546 14.9134C663.697 14.9364 663.757 15.1309 663.648 15.2422L663.023 15.8798C662.979 15.9239 662.959 15.9879 662.969 16.0506L663.117 16.9507C663.143 17.1083 662.985 17.2283 662.849 17.1539L662.076 16.729C662.023 16.6995 661.958 16.6995 661.905 16.729L661.132 17.1539C660.996 17.2283 660.838 17.1083 660.864 16.9507L661.012 16.0506C661.022 15.9879 661.002 15.9239 660.959 15.8798L660.333 15.2422C660.224 15.1305 660.284 14.936 660.436 14.9134L661.3 14.7821C661.36 14.7729 661.412 14.7335 661.439 14.6766L661.825 13.8576C661.893 13.7141 662.088 13.7141 662.156 13.8576Z" fill="white"/>
</g>
<mask id="mask13_3839_34063" style="mask-type:luminance" maskUnits="userSpaceOnUse" x="627" y="29" width="5" height="4">
<path d="M627.934 29.1797H631.462V32.7076H627.934V29.1797Z" fill="white"/>
</mask>
<g mask="url(#mask13_3839_34063)">
<path d="M630.263 31.8115C630.066 31.8992 629.842 31.9281 629.617 31.8828" stroke="#3B7CEC" stroke-width="0.0486967" stroke-linecap="round"/>
<path d="M628.661 31.0012C628.683 30.7868 628.77 30.5779 628.922 30.4062" stroke="#3B7CEC" stroke-width="0.0486967" stroke-linecap="round"/>
<path d="M630.31 30.1089C630.46 30.2641 630.563 30.4651 630.598 30.6914" stroke="#3B7CEC" stroke-width="0.0486967" stroke-linecap="round"/>
</g>
</g>
</g>
<defs>
<linearGradient id="paint0_linear_3839_34063" x1="650.497" y1="3.37109" x2="650.497" y2="53.5737" gradientUnits="userSpaceOnUse">
<stop stop-color="#2563EB"/>
<stop offset="1" stop-color="#2563EB" stop-opacity="0"/>
</linearGradient>
<clipPath id="clip0_3839_34063">
<rect width="43.4211" height="24.4243" fill="white" transform="translate(624.445 11.5781)"/>
</clipPath>
</defs>
</svg>
