<svg width="198" height="43" viewBox="0 0 198 43" fill="none" xmlns="http://www.w3.org/2000/svg">
<g clip-path="url(#clip0_2451_28265)">
<path d="M50.5354 37.09C52.6954 37.09 54.1354 35.68 54.1354 33.36C54.1354 31.04 52.7054 29.63 50.5354 29.63C48.3754 29.63 46.9454 31.04 46.9454 33.36C46.9454 35.67 48.3654 37.09 50.5354 37.09ZM50.5354 36.15C49.0254 36.15 48.0654 35.13 48.0654 33.36C48.0654 31.59 49.0154 30.57 50.5354 30.57C52.0554 30.57 53.0154 31.59 53.0154 33.36C53.0154 35.12 52.0554 36.15 50.5354 36.15ZM55.2439 38.67H56.2739V35.96H56.3339C56.5939 36.64 57.2539 37.09 58.1339 37.09C59.4239 37.09 60.2939 36.13 60.2939 34.36C60.2939 32.59 59.4239 31.62 58.1339 31.62C57.2539 31.62 56.5939 32.08 56.3339 32.75H56.2739L56.2339 31.71H55.2439V38.67ZM57.7739 36.24C56.7939 36.24 56.2839 35.47 56.2839 34.65V34.06C56.2839 33.24 56.7939 32.47 57.7739 32.47C58.6539 32.47 59.2439 33.11 59.2439 34.36C59.2439 35.6 58.6539 36.24 57.7739 36.24ZM63.6842 37.09C64.9342 37.09 65.8942 36.41 66.0342 35.37H65.0542C64.9242 35.92 64.3942 36.27 63.6842 36.27C62.7642 36.27 62.1642 35.65 62.1442 34.56H66.0642C66.2242 32.9 65.3842 31.63 63.6442 31.63C62.0942 31.63 61.1242 32.71 61.1242 34.38C61.1242 36.01 62.0942 37.09 63.6842 37.09ZM63.6342 32.44C64.4142 32.44 65.0242 32.85 65.0542 33.83H62.1642C62.2442 32.97 62.8042 32.44 63.6342 32.44ZM67.1775 37H68.1975V34.11C68.1975 33.2 68.7675 32.48 69.6775 32.48C70.5175 32.48 70.9075 32.99 70.9075 34.07V37H71.9375V33.86C71.9375 32.24 71.1275 31.63 70.0475 31.63C69.2675 31.63 68.5675 32.01 68.2575 32.76H68.1975L68.1575 31.71H67.1775V37ZM78.4562 37.09C79.7462 37.09 80.6162 36.13 80.6162 34.36C80.6162 32.59 79.7462 31.62 78.4562 31.62C77.5662 31.62 76.9062 32.08 76.6562 32.75H76.5962V29.71H75.5662V37H76.5562L76.5962 35.96H76.6562C76.9062 36.64 77.5662 37.09 78.4562 37.09ZM78.0962 36.24C77.1162 36.24 76.6062 35.47 76.6062 34.65V34.06C76.6062 33.24 77.1162 32.47 78.0962 32.47C78.9762 32.47 79.5562 33.11 79.5562 34.36C79.5562 35.6 78.9762 36.24 78.0962 36.24ZM83.5967 37.09C84.4867 37.09 85.1467 36.63 85.3967 35.95H85.4567V37H86.4867V31.71H85.4967L85.4567 32.75H85.3967C85.1467 32.07 84.4867 31.62 83.5967 31.62C82.3067 31.62 81.4367 32.58 81.4367 34.35C81.4367 36.12 82.3067 37.09 83.5967 37.09ZM83.9567 36.24C83.0767 36.24 82.4967 35.59 82.4967 34.35C82.4967 33.1 83.0767 32.46 83.9567 32.46C84.9367 32.46 85.4467 33.24 85.4467 34.05V34.65C85.4467 35.47 84.9367 36.24 83.9567 36.24ZM87.9295 37H88.9495V34.11C88.9495 33.2 89.5195 32.48 90.4295 32.48C91.2695 32.48 91.6595 32.99 91.6595 34.07V37H92.6895V33.86C92.6895 32.24 91.8795 31.63 90.7995 31.63C90.0195 31.63 89.3195 32.01 89.0095 32.76H88.9495L88.9095 31.71H87.9295V37ZM94.0818 37H95.1218V35.38L96.0618 34.47L96.3818 35L97.7018 37H98.9118L96.7818 33.77L98.8318 31.71H97.5518L95.5818 33.74L95.1218 34.24V29.71H94.0818V37ZM99.824 30.9H100.854V29.71H99.824V30.9ZM99.824 37H100.854V31.71H99.824V37ZM102.285 37H103.305V34.11C103.305 33.2 103.875 32.48 104.785 32.48C105.625 32.48 106.015 32.99 106.015 34.07V37H107.045V33.86C107.045 32.24 106.235 31.63 105.155 31.63C104.375 31.63 103.675 32.01 103.365 32.76H103.305L103.265 31.71H102.285V37ZM110.527 38.77C112.017 38.77 113.027 38.17 113.027 36.51V31.71H112.027L112.007 32.69H111.937C111.697 32.05 111.057 31.62 110.217 31.62C108.937 31.62 108.077 32.54 108.077 34.16C108.077 35.77 108.917 36.69 110.207 36.69C111.047 36.69 111.697 36.26 111.937 35.62H112.007V36.65C112.007 37.63 111.497 38.01 110.547 38.01C109.877 38.01 109.417 37.72 109.337 37.25H108.337C108.447 38.19 109.257 38.77 110.527 38.77ZM110.557 35.89C109.697 35.89 109.137 35.28 109.137 34.16C109.137 33.06 109.687 32.43 110.567 32.43C111.497 32.43 111.987 33.14 111.997 33.83L112.007 34.47C111.987 35.17 111.477 35.89 110.557 35.89Z" fill="#9CA3AF"/>
<path d="M1.10498 31.5788C3.28297 21.9365 7.93812 13.029 14.6108 5.73567C14.7295 5.60659 14.8736 5.50355 15.0341 5.43306C15.1947 5.36257 15.3681 5.32617 15.5434 5.32617C15.7187 5.32617 15.8921 5.36257 16.0527 5.43306C16.2132 5.50355 16.3573 5.60659 16.476 5.73567C23.1488 13.0279 27.8044 21.9343 29.9834 31.5757C26.5484 32.2995 23.0636 32.7626 19.5587 32.9611L16.2527 39.5747C16.1869 39.706 16.0859 39.8164 15.9609 39.8936C15.8359 39.9707 15.6919 40.0116 15.545 40.0116C15.3981 40.0116 15.2541 39.9707 15.1291 39.8936C15.0041 39.8164 14.903 39.706 14.8372 39.5747L11.5296 32.9611C8.02482 32.7625 4.54002 32.2994 1.10498 31.5757V31.5788ZM15.545 26.7418C16.8048 26.7418 18.0129 26.2413 18.9037 25.3505C19.7945 24.4597 20.295 23.2515 20.295 21.9918C20.295 20.732 19.7945 19.5238 18.9037 18.633C18.0129 17.7422 16.8048 17.2418 15.545 17.2418C14.2852 17.2418 13.077 17.7422 12.1862 18.633C11.2954 19.5238 10.795 20.732 10.795 21.9918C10.795 23.2515 11.2954 24.4597 12.1862 25.3505C13.077 26.2413 14.2852 26.7418 15.545 26.7418Z" fill="url(#paint0_linear_2451_28265)"/>
<g clip-path="url(#clip1_2451_28265)">
<mask id="mask0_2451_28265" style="mask-type:luminance" maskUnits="userSpaceOnUse" x="-3" y="11" width="31" height="17">
<path d="M27.5454 11H-2.45459V27.875H27.5454V11Z" fill="white"/>
</mask>
<g mask="url(#mask0_2451_28265)">
<mask id="mask1_2451_28265" style="mask-type:luminance" maskUnits="userSpaceOnUse" x="24" y="14" width="2" height="2">
<path d="M24.6079 14.3145H25.9829V15.6895H24.6079V14.3145Z" fill="white"/>
</mask>
<g mask="url(#mask1_2451_28265)">
<path d="M25.2961 14.4102C25.6226 14.4102 25.8877 14.6752 25.8877 15.0017C25.8877 15.3282 25.6226 15.5932 25.2961 15.5932C24.9697 15.5932 24.7046 15.3282 24.7046 15.0017C24.7046 14.6752 24.9697 14.4102 25.2961 14.4102Z" stroke="white" stroke-width="0.00271257"/>
</g>
<mask id="mask2_2451_28265" style="mask-type:luminance" maskUnits="userSpaceOnUse" x="7" y="23" width="3" height="2">
<path d="M7.9209 23.5645H9.2959V24.9395H7.9209V23.5645Z" fill="white"/>
</mask>
<g mask="url(#mask2_2451_28265)">
<path d="M8.60889 24.0957C8.69512 24.0957 8.76514 24.1657 8.76514 24.252C8.76514 24.3382 8.69512 24.4082 8.60889 24.4082C8.52265 24.4082 8.45264 24.3382 8.45264 24.252C8.45264 24.1657 8.52265 24.0957 8.60889 24.0957Z" fill="white"/>
<path d="M8.71937 24.1398C8.78035 24.2008 8.78035 24.2998 8.71937 24.3608C8.6584 24.4217 8.55938 24.4217 8.4984 24.3608C8.43742 24.2998 8.43742 24.2008 8.4984 24.1398C8.55938 24.0788 8.6584 24.0788 8.71937 24.1398Z" fill="white"/>
<path d="M8.76514 24.252C8.76514 24.3382 8.69512 24.4082 8.60889 24.4082C8.52265 24.4082 8.45264 24.3382 8.45264 24.252C8.45264 24.1657 8.52265 24.0957 8.60889 24.0957C8.69512 24.0957 8.76514 24.1657 8.76514 24.252Z" fill="white"/>
<path d="M8.71862 24.3644C8.65764 24.4254 8.55862 24.4254 8.49765 24.3644C8.43667 24.3034 8.43667 24.2044 8.49765 24.1434C8.55862 24.0824 8.65764 24.0824 8.71862 24.1434C8.77959 24.2044 8.77959 24.3034 8.71862 24.3644Z" fill="white"/>
<path d="M8.60889 24.4082C8.52265 24.4082 8.45264 24.3382 8.45264 24.252C8.45264 24.1657 8.52265 24.0957 8.60889 24.0957C8.69512 24.0957 8.76514 24.1657 8.76514 24.252C8.76514 24.3382 8.69512 24.4082 8.60889 24.4082Z" fill="white"/>
<path d="M8.4984 24.3602C8.43742 24.2992 8.43742 24.2002 8.4984 24.1392C8.55938 24.0783 8.6584 24.0783 8.71937 24.1392C8.78035 24.2002 8.78035 24.2992 8.71937 24.3602C8.6584 24.4212 8.55938 24.4212 8.4984 24.3602Z" fill="white"/>
<path d="M8.45264 24.252C8.45264 24.1657 8.52265 24.0957 8.60889 24.0957C8.69512 24.0957 8.76514 24.1657 8.76514 24.252C8.76514 24.3382 8.69512 24.4082 8.60889 24.4082C8.52265 24.4082 8.45264 24.3382 8.45264 24.252Z" fill="white"/>
<path d="M8.49818 24.1434C8.55916 24.0824 8.65817 24.0824 8.71915 24.1434C8.78013 24.2044 8.78013 24.3034 8.71915 24.3644C8.65817 24.4254 8.55916 24.4254 8.49818 24.3644C8.4372 24.3034 8.4372 24.2044 8.49818 24.1434Z" fill="white"/>
</g>
<mask id="mask3_2451_28265" style="mask-type:luminance" maskUnits="userSpaceOnUse" x="-1" y="19" width="3" height="2">
<path d="M-0.328613 19.3125H1.04639V20.6875H-0.328613V19.3125Z" fill="white"/>
</mask>
<g mask="url(#mask3_2451_28265)">
<path d="M0.358859 19.8457C0.444809 19.8457 0.514593 19.9155 0.514593 20.0014C0.514593 20.0874 0.444809 20.1572 0.358859 20.1572C0.272909 20.1572 0.203125 20.0874 0.203125 20.0014C0.203125 19.9155 0.272909 19.8457 0.358859 19.8457Z" fill="white"/>
<path d="M0.470472 19.8914C0.531248 19.9521 0.531248 20.0508 0.470472 20.1116C0.409697 20.1724 0.311007 20.1724 0.250231 20.1116C0.189455 20.0508 0.189455 19.9521 0.250231 19.8914C0.311007 19.8306 0.409697 19.8306 0.470472 19.8914Z" fill="white"/>
<path d="M0.516602 20.0014C0.516602 20.0874 0.446817 20.1572 0.360868 20.1572C0.274918 20.1572 0.205134 20.0874 0.205134 20.0014C0.205134 19.9155 0.274918 19.8457 0.360868 19.8457C0.446817 19.8457 0.516602 19.9155 0.516602 20.0014Z" fill="white"/>
<path d="M0.470446 20.114C0.40967 20.1748 0.31098 20.1748 0.250205 20.114C0.189429 20.0533 0.189429 19.9546 0.250205 19.8938C0.31098 19.833 0.40967 19.833 0.470446 19.8938C0.531221 19.9546 0.531221 20.0533 0.470446 20.114Z" fill="white"/>
<path d="M0.358426 20.1582C0.272477 20.1582 0.202692 20.0884 0.202692 20.0025C0.202692 19.9165 0.272477 19.8467 0.358426 19.8467C0.444376 19.8467 0.51416 19.9165 0.51416 20.0025C0.51416 20.0884 0.444376 20.1582 0.358426 20.1582Z" fill="white"/>
<path d="M0.246813 20.1145C0.186037 20.0537 0.186037 19.955 0.246813 19.8942C0.307589 19.8335 0.406279 19.8335 0.467054 19.8942C0.52783 19.955 0.52783 20.0537 0.467054 20.1145C0.406279 20.1753 0.307589 20.1753 0.246813 20.1145Z" fill="white"/>
<path d="M0.200195 20.0005C0.200195 19.9146 0.26998 19.8448 0.355929 19.8448C0.441879 19.8448 0.511663 19.9146 0.511663 20.0005C0.511663 20.0865 0.441879 20.1562 0.355929 20.1562C0.26998 20.1562 0.200195 20.0865 0.200195 20.0005Z" fill="white"/>
<path d="M0.247328 19.8918C0.308103 19.8311 0.406793 19.8311 0.467569 19.8918C0.528344 19.9526 0.528344 20.0513 0.467569 20.1121C0.406793 20.1728 0.308103 20.1728 0.247328 20.1121C0.186552 20.0513 0.186552 19.9526 0.247328 19.8918Z" fill="white"/>
</g>
<mask id="mask4_2451_28265" style="mask-type:luminance" maskUnits="userSpaceOnUse" x="17" y="22" width="2" height="3">
<path d="M17.0454 22.8125H18.4204V24.1875H17.0454V22.8125Z" fill="white"/>
</mask>
<g mask="url(#mask4_2451_28265)">
<path d="M17.7334 23.3418C17.8196 23.3418 17.8896 23.4118 17.8896 23.498C17.8896 23.5843 17.8196 23.6543 17.7334 23.6543C17.6472 23.6543 17.5771 23.5843 17.5771 23.498C17.5771 23.4118 17.6472 23.3418 17.7334 23.3418Z" fill="white"/>
<path d="M17.8444 23.3898C17.9053 23.4508 17.9053 23.5498 17.8444 23.6108C17.7834 23.6717 17.6844 23.6717 17.6234 23.6108C17.5624 23.5498 17.5624 23.4508 17.6234 23.3898C17.6844 23.3288 17.7834 23.3288 17.8444 23.3898Z" fill="white"/>
<path d="M17.8896 23.498C17.8896 23.5843 17.8196 23.6543 17.7334 23.6543C17.6472 23.6543 17.5771 23.5843 17.5771 23.498C17.5771 23.4118 17.6472 23.3418 17.7334 23.3418C17.8196 23.3418 17.8896 23.4118 17.8896 23.498Z" fill="white"/>
<path d="M17.8436 23.6085C17.7826 23.6695 17.6836 23.6695 17.6226 23.6085C17.5617 23.5476 17.5617 23.4485 17.6226 23.3876C17.6836 23.3266 17.7826 23.3266 17.8436 23.3876C17.9046 23.4485 17.9046 23.5476 17.8436 23.6085Z" fill="white"/>
<path d="M17.7334 23.6543C17.6472 23.6543 17.5771 23.5843 17.5771 23.498C17.5771 23.4118 17.6472 23.3418 17.7334 23.3418C17.8196 23.3418 17.8896 23.4118 17.8896 23.498C17.8896 23.5843 17.8196 23.6543 17.7334 23.6543Z" fill="white"/>
<path d="M17.6234 23.6122C17.5624 23.5512 17.5624 23.4522 17.6234 23.3912C17.6844 23.3302 17.7834 23.3302 17.8444 23.3912C17.9053 23.4522 17.9053 23.5512 17.8444 23.6122C17.7834 23.6731 17.6844 23.6731 17.6234 23.6122Z" fill="white"/>
<path d="M17.5771 23.498C17.5771 23.4118 17.6472 23.3418 17.7334 23.3418C17.8196 23.3418 17.8896 23.4118 17.8896 23.498C17.8896 23.5843 17.8196 23.6543 17.7334 23.6543C17.6472 23.6543 17.5771 23.5843 17.5771 23.498Z" fill="white"/>
<path d="M17.6232 23.3876C17.6842 23.3266 17.7832 23.3266 17.8442 23.3876C17.9051 23.4485 17.9051 23.5476 17.8442 23.6085C17.7832 23.6695 17.6842 23.6695 17.6232 23.6085C17.5622 23.5476 17.5622 23.4485 17.6232 23.3876Z" fill="white"/>
</g>
<mask id="mask5_2451_28265" style="mask-type:luminance" maskUnits="userSpaceOnUse" x="17" y="15" width="7" height="7">
<path d="M22.918 15.3027L23.4327 21.1865L17.549 21.7013L17.0342 15.8175L22.918 15.3027Z" fill="white"/>
</mask>
<g mask="url(#mask5_2451_28265)">
<g opacity="0.0773827">
<path d="M21.5216 16.9642C21.5251 17.0048 21.495 17.0407 21.4544 17.0443C21.4138 17.0478 21.3779 17.0177 21.3744 16.9771C21.3708 16.9365 21.4009 16.9006 21.4415 16.8971C21.4822 16.8935 21.518 16.9236 21.5216 16.9642Z" fill="white"/>
</g>
<g opacity="0.0773827">
<path d="M18.7691 17.2064C18.7727 17.247 18.7426 17.2829 18.702 17.2864C18.6614 17.29 18.6255 17.2599 18.6219 17.2193C18.6184 17.1787 18.6485 17.1428 18.6891 17.1393C18.7297 17.1357 18.7656 17.1658 18.7691 17.2064Z" fill="white"/>
</g>
<g opacity="0.0773827">
<path d="M19.0162 20.0345C19.0198 20.0751 18.9897 20.111 18.949 20.1146C18.9084 20.1181 18.8726 20.088 18.869 20.0474C18.8655 20.0068 18.8956 19.9709 18.9362 19.9674C18.9768 19.9638 19.0127 19.9939 19.0162 20.0345Z" fill="white"/>
</g>
<g opacity="0.0773827">
<path d="M21.8453 19.7845C21.8489 19.8251 21.8188 19.861 21.7782 19.8646C21.7375 19.8681 21.7017 19.838 21.6981 19.7974C21.6946 19.7568 21.7247 19.7209 21.7653 19.7174C21.8059 19.7138 21.8418 19.7439 21.8453 19.7845Z" fill="white"/>
</g>
<g opacity="0.0773827">
<path d="M22.0977 18.3392C22.1013 18.3798 22.0712 18.4157 22.0306 18.4193C21.99 18.4228 21.9541 18.3927 21.9506 18.3521C21.947 18.3115 21.9771 18.2756 22.0177 18.2721C22.0583 18.2685 22.0942 18.2986 22.0977 18.3392Z" fill="white"/>
</g>
<g opacity="0.0773827">
<path d="M18.5162 18.6517C18.5198 18.6923 18.4897 18.7282 18.449 18.7318C18.4084 18.7353 18.3726 18.7052 18.369 18.6646C18.3655 18.624 18.3956 18.5881 18.4362 18.5846C18.4768 18.581 18.5127 18.6111 18.5162 18.6517Z" fill="white"/>
</g>
<g opacity="0.0773827">
<path d="M20.464 20.2865C20.4675 20.3271 20.4374 20.363 20.3968 20.3665C20.3562 20.3701 20.3203 20.34 20.3168 20.2994C20.3132 20.2587 20.3433 20.2229 20.3839 20.2193C20.4245 20.2158 20.4604 20.2459 20.464 20.2865Z" fill="white"/>
</g>
<g opacity="0.0773827">
<path d="M20.151 16.7064C20.1545 16.747 20.1244 16.7829 20.0838 16.7864C20.0432 16.79 20.0073 16.7599 20.0038 16.7193C20.0002 16.6787 20.0303 16.6428 20.0709 16.6393C20.1116 16.6357 20.1474 16.6658 20.151 16.7064Z" fill="white"/>
</g>
<path d="M21.3616 18.4024L20.7414 18.779L20.7 19.5034L20.1502 19.03L19.4484 19.2145L19.7288 18.5453L19.3365 17.9349L20.0596 17.9947L20.5189 17.433L20.6854 18.1392L21.3616 18.4024Z" fill="white"/>
</g>
<mask id="mask6_2451_28265" style="mask-type:luminance" maskUnits="userSpaceOnUse" x="0" y="14" width="7" height="7">
<path d="M3.8042 14.1055L6.50434 17.8219L2.78792 20.522L0.0877774 16.8056L3.8042 14.1055Z" fill="white"/>
</mask>
<g mask="url(#mask6_2451_28265)">
<g opacity="0.312677">
<path d="M3.51473 15.9566C3.53337 15.9823 3.52767 16.0183 3.50202 16.0369C3.47636 16.0555 3.4404 16.0498 3.42176 16.0242C3.40312 15.9985 3.40882 15.9626 3.43447 15.9439C3.46013 15.9253 3.49609 15.931 3.51473 15.9566Z" fill="white"/>
</g>
<g opacity="0.312677">
<path d="M1.98885 17.0699C2.00749 17.0956 2.00179 17.1315 1.97614 17.1502C1.95048 17.1688 1.91452 17.1631 1.89588 17.1375C1.87724 17.1118 1.88294 17.0759 1.90859 17.0572C1.93425 17.0386 1.97021 17.0443 1.98885 17.0699Z" fill="white"/>
</g>
<g opacity="0.312677">
<path d="M3.12752 18.6344C3.14616 18.66 3.14047 18.696 3.11481 18.7146C3.08916 18.7333 3.05319 18.7276 3.03455 18.7019C3.01591 18.6763 3.02161 18.6403 3.04726 18.6217C3.07292 18.603 3.10888 18.6087 3.12752 18.6344Z" fill="white"/>
</g>
<g opacity="0.312677">
<path d="M4.69539 17.4957C4.71403 17.5214 4.70834 17.5573 4.68268 17.576C4.65703 17.5946 4.62106 17.5889 4.60242 17.5633C4.58378 17.5376 4.58948 17.5016 4.61514 17.483C4.64079 17.4644 4.67675 17.47 4.69539 17.4957Z" fill="white"/>
</g>
<g opacity="0.312677">
<path d="M4.33504 16.5621C4.35368 16.5878 4.34799 16.6237 4.32233 16.6424C4.29668 16.661 4.26071 16.6553 4.24207 16.6297C4.22343 16.604 4.22913 16.568 4.25478 16.5494C4.28044 16.5308 4.3164 16.5365 4.33504 16.5621Z" fill="white"/>
</g>
<g opacity="0.312677">
<path d="M2.34871 17.9996C2.36735 18.0253 2.36166 18.0612 2.336 18.0799C2.31035 18.0985 2.27438 18.0928 2.25574 18.0672C2.23711 18.0415 2.2428 18.0055 2.26846 17.9869C2.29411 17.9683 2.33008 17.974 2.34871 17.9996Z" fill="white"/>
</g>
<g opacity="0.312677">
<path d="M4.06307 18.273C4.08171 18.2987 4.07601 18.3347 4.05036 18.3533C4.0247 18.3719 3.98874 18.3662 3.9701 18.3406C3.95146 18.3149 3.95716 18.279 3.98281 18.2603C4.00847 18.2417 4.04443 18.2474 4.06307 18.273Z" fill="white"/>
</g>
<g opacity="0.312677">
<path d="M2.62069 16.2887C2.63933 16.3143 2.63363 16.3503 2.60798 16.3689C2.58232 16.3876 2.54636 16.3819 2.52772 16.3562C2.50908 16.3306 2.51477 16.2946 2.54043 16.276C2.56608 16.2573 2.60205 16.263 2.62069 16.2887Z" fill="white"/>
</g>
<path d="M4.00779 16.7965L3.74518 17.296L4.00779 17.7955L3.45156 17.7001L3.05764 18.1042L2.97648 17.5458L2.47041 17.296L2.97648 17.0462L3.05764 16.4877L3.45156 16.8919L4.00779 16.7965Z" fill="white"/>
</g>
<mask id="mask7_2451_28265" style="mask-type:luminance" maskUnits="userSpaceOnUse" x="15" y="21" width="10" height="10">
<path d="M18.9912 21.543L24.5669 24.6336L21.4763 30.2093L15.9005 27.1187L18.9912 21.543Z" fill="white"/>
</mask>
<g mask="url(#mask7_2451_28265)">
<g opacity="0.0773827">
<path d="M19.6357 23.7965C19.6741 23.8178 19.6881 23.8664 19.6667 23.9049C19.6454 23.9434 19.5968 23.9573 19.5583 23.936C19.5199 23.9146 19.5059 23.866 19.5273 23.8276C19.5486 23.7891 19.5972 23.7751 19.6357 23.7965Z" fill="white"/>
</g>
<g opacity="0.0773827">
<path d="M18.1899 26.4019C18.2283 26.4233 18.2423 26.4718 18.2209 26.5103C18.1996 26.5488 18.151 26.5628 18.1125 26.5414C18.0741 26.5201 18.0601 26.4715 18.0815 26.433C18.1028 26.3945 18.1514 26.3806 18.1899 26.4019Z" fill="white"/>
</g>
<g opacity="0.0773827">
<path d="M20.87 27.8883C20.9085 27.9096 20.9225 27.9582 20.9011 27.9967C20.8798 28.0352 20.8312 28.0491 20.7927 28.0277C20.7542 28.0064 20.7403 27.9578 20.7616 27.9194C20.783 27.8809 20.8315 27.8669 20.87 27.8883Z" fill="white"/>
</g>
<g opacity="0.0773827">
<path d="M22.3554 25.2105C22.3939 25.2319 22.4078 25.2804 22.3865 25.3189C22.3651 25.3574 22.3166 25.3714 22.2781 25.35C22.2396 25.3287 22.2257 25.2801 22.247 25.2416C22.2683 25.2031 22.3169 25.1892 22.3554 25.2105Z" fill="white"/>
</g>
<g opacity="0.0773827">
<path d="M21.2128 24.1109C21.2513 24.1323 21.2652 24.1808 21.2439 24.2193C21.2226 24.2578 21.174 24.2717 21.1355 24.2504C21.097 24.2291 21.0831 24.1805 21.1044 24.142C21.1257 24.1035 21.1743 24.0896 21.2128 24.1109Z" fill="white"/>
</g>
<g opacity="0.0773827">
<path d="M19.3315 27.5035C19.3699 27.5248 19.3839 27.5734 19.3625 27.6119C19.3412 27.6504 19.2926 27.6643 19.2541 27.643C19.2157 27.6216 19.2017 27.5731 19.2231 27.5346C19.2444 27.4961 19.293 27.4822 19.3315 27.5035Z" fill="white"/>
</g>
<g opacity="0.0773827">
<path d="M21.9692 26.7476C22.0076 26.769 22.0216 26.8176 22.0002 26.856C21.9789 26.8945 21.9303 26.9085 21.8918 26.8871C21.8533 26.8658 21.8394 26.8172 21.8608 26.7787C21.8821 26.7402 21.9307 26.7263 21.9692 26.7476Z" fill="white"/>
</g>
<g opacity="0.0773827">
<path d="M18.5746 24.8648C18.6131 24.8862 18.627 24.9347 18.6057 24.9732C18.5844 25.0117 18.5358 25.0256 18.4973 25.0043C18.4588 24.983 18.4449 24.9344 18.4662 24.8959C18.4876 24.8574 18.5361 24.8435 18.5746 24.8648Z" fill="white"/>
</g>
<path d="M20.8262 24.8075L20.7889 25.5898L21.4122 26.064L20.6566 26.2702L20.3982 27.0095L19.9686 26.3547L19.1856 26.3374L19.6756 25.7264L19.4501 24.9764L20.1826 25.2537L20.8262 24.8075Z" fill="white"/>
</g>
<mask id="mask8_2451_28265" style="mask-type:luminance" maskUnits="userSpaceOnUse" x="5" y="14" width="7" height="7">
<path d="M5.45215 14.502H11.8271V20.877H5.45215V14.502Z" fill="white"/>
</mask>
<g mask="url(#mask8_2451_28265)">
<g opacity="0.510853">
<path d="M8.23214 17.2637C8.25462 17.2637 8.27288 17.2819 8.27288 17.3044C8.27288 17.3269 8.25462 17.3451 8.23214 17.3451C8.20966 17.3451 8.19141 17.3269 8.19141 17.3044C8.19141 17.2819 8.20966 17.2637 8.23214 17.2637Z" fill="white"/>
</g>
<g opacity="0.510853">
<path d="M8.23214 18.0566C8.25462 18.0566 8.27288 18.0749 8.27288 18.0974C8.27288 18.1199 8.25462 18.1381 8.23214 18.1381C8.20966 18.1381 8.19141 18.1199 8.19141 18.0974C8.19141 18.0749 8.20966 18.0566 8.23214 18.0566Z" fill="white"/>
</g>
<g opacity="0.510853">
<path d="M9.04659 18.0566C9.06908 18.0566 9.08733 18.0749 9.08733 18.0974C9.08733 18.1199 9.06908 18.1381 9.04659 18.1381C9.02411 18.1381 9.00586 18.1199 9.00586 18.0974C9.00586 18.0749 9.02411 18.0566 9.04659 18.0566Z" fill="white"/>
</g>
<g opacity="0.510853">
<path d="M9.04659 17.2422C9.06908 17.2422 9.08733 17.2604 9.08733 17.2829C9.08733 17.3054 9.06908 17.3237 9.04659 17.3237C9.02411 17.3237 9.00586 17.3054 9.00586 17.2829C9.00586 17.2604 9.02411 17.2422 9.04659 17.2422Z" fill="white"/>
</g>
<g opacity="0.510853">
<path d="M8.63986 17.1348C8.66234 17.1348 8.68059 17.153 8.68059 17.1755C8.68059 17.198 8.66234 17.2162 8.63986 17.2162C8.61737 17.2162 8.59912 17.198 8.59912 17.1755C8.59912 17.153 8.61737 17.1348 8.63986 17.1348Z" fill="white"/>
</g>
<g opacity="0.510853">
<path d="M8.63888 18.166C8.66136 18.166 8.67961 18.1843 8.67961 18.2068C8.67961 18.2292 8.66136 18.2475 8.63888 18.2475C8.6164 18.2475 8.59814 18.2292 8.59814 18.2068C8.59814 18.1843 8.6164 18.166 8.63888 18.166Z" fill="white"/>
</g>
<g opacity="0.510853">
<path d="M9.15499 17.6523C9.17747 17.6523 9.19573 17.6706 9.19573 17.6931C9.19573 17.7156 9.17747 17.7338 9.15499 17.7338C9.13251 17.7338 9.11426 17.7156 9.11426 17.6931C9.11426 17.6706 9.13251 17.6523 9.15499 17.6523Z" fill="white"/>
</g>
<g opacity="0.510853">
<path d="M8.12374 17.6523C8.14622 17.6523 8.16448 17.6706 8.16448 17.6931C8.16448 17.7156 8.14622 17.7338 8.12374 17.7338C8.10126 17.7338 8.08301 17.7156 8.08301 17.6931C8.08301 17.6706 8.10126 17.6523 8.12374 17.6523Z" fill="white"/>
</g>
<path d="M8.6391 16.4668L8.98627 17.1702L9.76257 17.283L9.20083 17.8306L9.33344 18.6038L8.6391 18.2387L7.94475 18.6038L8.07736 17.8306L7.51562 17.283L8.29192 17.1702L8.6391 16.4668Z" fill="white"/>
</g>
<mask id="mask9_2451_28265" style="mask-type:luminance" maskUnits="userSpaceOnUse" x="23" y="19" width="2" height="2">
<path d="M23.3735 19.0195H24.5923V20.2383H23.3735V19.0195Z" fill="white"/>
</mask>
<g mask="url(#mask9_2451_28265)">
<path d="M23.8648 19.5859C23.8888 19.5371 23.9448 19.5106 23.9991 19.5257C24.0481 19.5394 24.0768 19.5902 24.0632 19.6392C24.0567 19.6625 24.0397 19.6801 24.0187 19.6882" stroke="#3B7CEC" stroke-width="0.0110204" stroke-linecap="round"/>
<path d="M24.0795 19.5477C24.1098 19.5929 24.1047 19.6546 24.0644 19.6941C24.0281 19.7298 23.9697 19.7292 23.9341 19.6929C23.9172 19.6756 23.9104 19.6521 23.9139 19.6299" stroke="#3B7CEC" stroke-width="0.0110204" stroke-linecap="round"/>
<path d="M23.9839 19.7526C23.9298 19.7469 23.8858 19.7032 23.8814 19.647C23.8775 19.5963 23.9154 19.5519 23.9662 19.548C23.9903 19.5461 24.0126 19.5561 24.0274 19.573" stroke="#3B7CEC" stroke-width="0.0110204" stroke-linecap="round"/>
</g>
<mask id="mask10_2451_28265" style="mask-type:luminance" maskUnits="userSpaceOnUse" x="14" y="14" width="2" height="2">
<path d="M14.249 14.582H15.4678V15.8008H14.249V14.582Z" fill="white"/>
</mask>
<g mask="url(#mask10_2451_28265)">
<path d="M15.289 15.3932C15.2717 15.4192 15.2518 15.4431 15.2299 15.4646" stroke="#3B7CEC" stroke-width="0.0164698" stroke-linecap="round"/>
<path d="M14.467 15.4594C14.4532 15.4314 14.4425 15.4023 14.4348 15.3725" stroke="#3B7CEC" stroke-width="0.0164698" stroke-linecap="round"/>
<path d="M14.902 14.7144C14.9324 14.7218 14.9616 14.7322 14.9893 14.7455" stroke="#3B7CEC" stroke-width="0.0164698" stroke-linecap="round"/>
<path d="M14.9124 14.6659L15.0381 14.9323C15.0468 14.9508 15.0637 14.9636 15.0834 14.9666L15.3644 15.0093C15.4137 15.0168 15.4333 15.0801 15.3977 15.1163L15.1943 15.3237C15.1802 15.338 15.1737 15.3588 15.177 15.3793L15.225 15.672C15.2334 15.7233 15.182 15.7624 15.138 15.7381L14.8865 15.5999C14.869 15.5903 14.8481 15.5903 14.8307 15.5999L14.5792 15.7381C14.5352 15.7624 14.4837 15.7233 14.4921 15.672L14.5402 15.3793C14.5434 15.3588 14.5371 15.338 14.5229 15.3237L14.3195 15.1163C14.2838 15.08 14.3036 15.0167 14.3527 15.0093L14.6339 14.9666C14.6534 14.9636 14.6704 14.9508 14.6791 14.9323L14.8048 14.6659C14.8268 14.6192 14.8904 14.6192 14.9124 14.6659Z" fill="white"/>
</g>
<mask id="mask11_2451_28265" style="mask-type:luminance" maskUnits="userSpaceOnUse" x="23" y="23" width="3" height="3">
<path d="M23.0811 23.7227H25.0107V25.6523H23.0811V23.7227Z" fill="white"/>
</mask>
<g mask="url(#mask11_2451_28265)">
<path d="M23.9266 25.0411C23.777 24.9695 23.6956 24.7988 23.7417 24.6335C23.7482 24.6099 23.7576 24.588 23.7693 24.5678" stroke="#3B7CEC" stroke-width="0.0232293" stroke-linecap="round"/>
<path d="M23.8005 24.4081C23.9373 24.3143 24.1258 24.3292 24.246 24.4518C24.2631 24.4692 24.2774 24.4883 24.289 24.5085" stroke="#3B7CEC" stroke-width="0.0232293" stroke-linecap="round"/>
<path d="M24.4182 24.6796C24.4022 24.8448 24.2696 24.9796 24.0985 24.9929C24.0741 24.9948 24.0503 24.9935 24.0273 24.9893" stroke="#3B7CEC" stroke-width="0.0232293" stroke-linecap="round"/>
</g>
<mask id="mask12_2451_28265" style="mask-type:luminance" maskUnits="userSpaceOnUse" x="22" y="12" width="3" height="3">
<path d="M22.2646 12.4727H24.7021V14.9102H22.2646V12.4727Z" fill="white"/>
</mask>
<g mask="url(#mask12_2451_28265)">
<path d="M24.4419 13.9015C24.4372 13.9147 24.4322 13.9276 24.4269 13.9404" stroke="#3B7CEC" stroke-width="0.0259952" stroke-linecap="round"/>
<path d="M22.8201 14.4107C22.8111 14.4 22.8024 14.3892 22.794 14.3782" stroke="#3B7CEC" stroke-width="0.0259952" stroke-linecap="round"/>
<path d="M23.3553 12.714C23.3693 12.714 23.3832 12.7143 23.397 12.7149" stroke="#3B7CEC" stroke-width="0.0259952" stroke-linecap="round"/>
<path d="M23.5977 12.5763L23.8647 13.1421C23.8832 13.1814 23.9191 13.2087 23.9609 13.215L24.5579 13.3058C24.6625 13.3217 24.7042 13.4561 24.6285 13.5329L24.1965 13.9735C24.1665 14.004 24.1528 14.0481 24.1598 14.0915L24.2618 14.7133C24.2796 14.8222 24.1704 14.9052 24.0768 14.8537L23.5428 14.5602C23.5056 14.5398 23.4613 14.5398 23.4242 14.5602L22.8901 14.8537C22.7966 14.9052 22.6873 14.8222 22.7051 14.7133L22.8072 14.0915C22.8141 14.0481 22.8006 14.004 22.7705 13.9735L22.3384 13.5329C22.2627 13.4558 22.3047 13.3214 22.4091 13.3058L23.0063 13.215C23.0478 13.2087 23.0837 13.1814 23.1023 13.1421L23.3692 12.5763C23.416 12.4772 23.551 12.4772 23.5977 12.5763Z" fill="white"/>
</g>
<mask id="mask13_2451_28265" style="mask-type:luminance" maskUnits="userSpaceOnUse" x="-1" y="23" width="4" height="3">
<path d="M-0.0478516 23.1602H2.38965V25.5977H-0.0478516V23.1602Z" fill="white"/>
</mask>
<g mask="url(#mask13_2451_28265)">
<path d="M1.56293 24.9742C1.42679 25.0347 1.27172 25.0547 1.1167 25.0234" stroke="#3B7CEC" stroke-width="0.033645" stroke-linecap="round"/>
<path d="M0.455305 24.415C0.470917 24.2668 0.531134 24.1225 0.635742 24.0039" stroke="#3B7CEC" stroke-width="0.033645" stroke-linecap="round"/>
<path d="M1.59941 23.8007C1.70289 23.9079 1.77472 24.0468 1.79834 24.2031" stroke="#3B7CEC" stroke-width="0.033645" stroke-linecap="round"/>
</g>
</g>
</g>
<g clip-path="url(#clip2_2451_28265)">
<mask id="mask14_2451_28265" style="mask-type:luminance" maskUnits="userSpaceOnUse" x="176" y="3" width="23" height="22">
<path d="M198.045 3H176.545V24.5H198.045V3Z" fill="white"/>
</mask>
<g mask="url(#mask14_2451_28265)">
<mask id="mask15_2451_28265" style="mask-type:luminance" maskUnits="userSpaceOnUse" x="176" y="3" width="23" height="22">
<path d="M176.545 3H198.045V24.5H176.545V3Z" fill="white"/>
</mask>
<g mask="url(#mask15_2451_28265)">
<path d="M187.296 6.82227C183.47 6.82227 180.369 9.92339 180.369 13.7488C180.369 17.5743 183.47 20.6755 187.296 20.6755C191.121 20.6755 194.222 17.5743 194.222 13.7488C194.222 9.92339 191.121 6.82227 187.296 6.82227Z" fill="#DE5A00"/>
<path d="M187.296 6.82227C183.47 6.82227 180.369 9.92339 180.369 13.7488C180.369 17.5743 183.47 20.6755 187.296 20.6755C191.121 20.6755 194.222 17.5743 194.222 13.7488C194.222 9.92339 191.121 6.82227 187.296 6.82227Z" fill="#EF7B00"/>
<path d="M187.296 6.82227C183.47 6.82227 180.369 9.92339 180.369 13.7488C180.369 17.5743 183.47 20.6755 187.296 20.6755C191.121 20.6755 194.222 17.5743 194.222 13.7488C194.222 9.92339 191.121 6.82227 187.296 6.82227ZM187.296 18.873C184.466 18.873 182.172 16.5789 182.172 13.7488C182.172 10.9188 184.466 8.62468 187.296 8.62468C190.126 8.62468 192.42 10.9188 192.42 13.7488C192.42 16.5789 190.126 18.873 187.296 18.873Z" fill="#DE5A00"/>
<path d="M188.588 13.3901C188.334 13.2905 188.03 13.1997 187.677 13.1174V11.5586C187.795 11.6022 187.892 11.6654 187.968 11.7486C188.026 11.8111 188.073 11.8794 188.109 11.9537C188.246 12.2286 188.532 12.4123 188.858 12.4123H188.904C189.548 12.4123 189.956 11.7591 189.623 11.248C189.512 11.0779 189.373 10.9221 189.205 10.7806C188.804 10.4419 188.295 10.2402 187.677 10.1755V9.81368C187.677 9.60377 187.507 9.43359 187.297 9.43359C187.087 9.43359 186.917 9.60377 186.917 9.81368V10.1642C186.281 10.2127 185.755 10.4169 185.34 10.7773C184.861 11.194 184.621 11.713 184.621 12.3347C184.621 13.3945 185.387 14.1001 186.917 14.4519V16.0578C186.717 16.0176 186.548 15.9402 186.409 15.8248C186.303 15.7363 186.221 15.6285 186.164 15.5011C186.042 15.2301 185.748 15.0607 185.432 15.0607C184.822 15.0607 184.429 15.6704 184.728 16.1637C184.744 16.1901 184.76 16.2163 184.778 16.2424C185.018 16.6072 185.35 16.8943 185.774 17.1036C186.115 17.2723 186.496 17.373 186.917 17.4057V17.6848C186.917 17.8947 187.087 18.0649 187.297 18.0649C187.507 18.0649 187.677 17.8947 187.677 17.6848V17.3955C188.282 17.3341 188.791 17.1441 189.202 16.8252C189.712 16.4302 189.967 15.9133 189.967 15.2744C189.967 14.3808 189.507 13.7527 188.588 13.3901ZM186.569 12.7458C186.386 12.6185 186.295 12.4512 186.295 12.244C186.295 12.0238 186.375 11.8425 186.535 11.7001C186.636 11.6105 186.764 11.5492 186.917 11.5159V12.9167C186.772 12.8637 186.656 12.8068 186.569 12.7458ZM188.019 15.8862C187.929 15.9587 187.814 16.0111 187.677 16.045V14.6728C187.788 14.7171 187.882 14.7633 187.959 14.8114C188.17 14.9431 188.275 15.1233 188.275 15.3521C188.275 15.5722 188.19 15.7503 188.019 15.8862Z" fill="#DE5A00"/>
<path d="M187.296 6.82227C183.47 6.82227 180.369 9.92339 180.369 13.7488C180.369 17.5743 183.47 20.6755 187.296 20.6755C191.121 20.6755 194.222 17.5743 194.222 13.7488C194.222 9.92339 191.121 6.82227 187.296 6.82227ZM187.296 18.873C184.466 18.873 182.172 16.5789 182.172 13.7488C182.172 10.9188 184.466 8.62468 187.296 8.62468C190.126 8.62468 192.42 10.9188 192.42 13.7488C192.42 16.5789 190.126 18.873 187.296 18.873Z" fill="#FFC711"/>
<mask id="mask16_2451_28265" style="mask-type:alpha" maskUnits="userSpaceOnUse" x="180" y="6" width="15" height="15">
<mask id="mask17_2451_28265" style="mask-type:luminance" maskUnits="userSpaceOnUse" x="176" y="3" width="23" height="22">
<path d="M176.545 3H198.045V24.5H176.545V3Z" fill="white"/>
</mask>
<g mask="url(#mask17_2451_28265)">
<path d="M187.296 6.82812C183.47 6.82812 180.369 9.92925 180.369 13.7547C180.369 17.5802 183.47 20.6814 187.296 20.6814C191.121 20.6814 194.222 17.5802 194.222 13.7547C194.222 9.92925 191.121 6.82812 187.296 6.82812ZM187.296 18.8789C184.466 18.8789 182.172 16.5847 182.172 13.7547C182.172 10.9247 184.466 8.63054 187.296 8.63054C190.126 8.63054 192.42 10.9247 192.42 13.7547C192.42 16.5847 190.126 18.8789 187.296 18.8789Z" fill="#FFC711"/>
<path d="M188.589 13.3901C188.335 13.2905 188.031 13.1997 187.678 13.1174V11.5586C187.796 11.6022 187.893 11.6654 187.969 11.7486C188.026 11.8111 188.074 11.8794 188.11 11.9537C188.247 12.2286 188.533 12.4123 188.859 12.4123H188.905C189.549 12.4123 189.957 11.7591 189.624 11.248C189.513 11.0779 189.374 10.9221 189.206 10.7806C188.805 10.4419 188.296 10.2402 187.678 10.1755V9.81368C187.678 9.60377 187.508 9.43359 187.298 9.43359C187.088 9.43359 186.918 9.60377 186.918 9.81368V10.1642C186.282 10.2127 185.756 10.4169 185.341 10.7773C184.862 11.194 184.622 11.713 184.622 12.3347C184.622 13.3945 185.388 14.1001 186.918 14.4519V16.0578C186.718 16.0176 186.549 15.9402 186.41 15.8248C186.304 15.7363 186.222 15.6285 186.165 15.5011C186.043 15.2301 185.749 15.0607 185.433 15.0607C184.823 15.0607 184.43 15.6704 184.729 16.1637C184.745 16.1901 184.761 16.2163 184.779 16.2424C185.019 16.6072 185.351 16.8943 185.775 17.1036C186.116 17.2723 186.497 17.373 186.918 17.4057V17.6848C186.918 17.8947 187.088 18.0649 187.298 18.0649C187.508 18.0649 187.678 17.8947 187.678 17.6848V17.3955C188.283 17.3341 188.792 17.1441 189.203 16.8252C189.713 16.4302 189.968 15.9133 189.968 15.2744C189.968 14.3808 189.508 13.7527 188.589 13.3901ZM186.57 12.7458C186.387 12.6185 186.296 12.4512 186.296 12.244C186.296 12.0238 186.376 11.8425 186.536 11.7001C186.637 11.6105 186.765 11.5492 186.918 11.5159V12.9167C186.773 12.8637 186.657 12.8068 186.57 12.7458ZM188.02 15.8862C187.93 15.9587 187.815 16.0111 187.678 16.045V14.6728C187.789 14.7171 187.883 14.7633 187.96 14.8114C188.171 14.9431 188.276 15.1233 188.276 15.3521C188.276 15.5722 188.191 15.7503 188.02 15.8862Z" fill="#FFC711"/>
</g>
</mask>
<g mask="url(#mask16_2451_28265)">
<path d="M192.072 6.29971L182.426 22.3544L178.807 20.1797L188.453 4.125L192.072 6.29971Z" fill="#FFE286"/>
</g>
</g>
</g>
<circle cx="187.295" cy="13.7501" r="4.65833" fill="#EF7B00"/>
<path d="M185.503 15.8996V11.9766C185.503 11.8932 185.53 11.8122 185.581 11.7462C185.632 11.6803 185.704 11.6332 185.785 11.6122C185.865 11.5913 185.951 11.5978 186.027 11.6307C186.104 11.6635 186.168 11.7209 186.208 11.7938L188.381 15.7054C188.421 15.7783 188.485 15.8357 188.562 15.8685C188.638 15.9014 188.724 15.9079 188.804 15.887C188.885 15.8661 188.956 15.8189 189.007 15.753C189.058 15.687 189.086 15.606 189.086 15.5226V11.5996M184.786 13.0329H189.803M184.786 14.4663H189.803" stroke="#FFE286" stroke-width="0.716667" stroke-linecap="round" stroke-linejoin="round"/>
</g>
<path d="M51.1934 18.126C53.7974 18.126 55.1834 16.936 55.1834 15.186C55.1834 12.834 53.4894 12.386 51.6834 12.092C49.7234 11.742 48.9534 11.518 48.9534 10.384C48.9534 9.46 49.7234 8.858 51.0674 8.858C52.3834 8.858 53.2654 9.446 53.3074 10.664H54.8614C54.8334 8.872 53.4614 7.682 51.1234 7.682C48.7854 7.682 47.3714 8.802 47.3714 10.594C47.3714 12.344 48.5754 13.03 50.9134 13.436C52.9154 13.772 53.6014 14.108 53.6014 15.326C53.6014 16.404 52.6494 16.922 51.2214 16.922C49.4854 16.922 48.7294 16.11 48.7014 14.808H47.1334C47.1614 16.768 48.4774 18.126 51.1934 18.126ZM56.8093 20.338H58.2513V16.544H58.3353C58.6993 17.496 59.6233 18.126 60.8553 18.126C62.6613 18.126 63.8793 16.782 63.8793 14.304C63.8793 11.826 62.6613 10.468 60.8553 10.468C59.6233 10.468 58.6993 11.112 58.3353 12.05H58.2513L58.1953 10.594H56.8093V20.338ZM60.3513 16.936C58.9793 16.936 58.2653 15.858 58.2653 14.71V13.884C58.2653 12.736 58.9793 11.658 60.3513 11.658C61.5833 11.658 62.4093 12.554 62.4093 14.304C62.4093 16.04 61.5833 16.936 60.3513 16.936ZM68.0656 18.126C69.3116 18.126 70.2356 17.482 70.5856 16.53H70.6696V18H72.1116V10.594H70.7256L70.6696 12.05H70.5856C70.2356 11.098 69.3116 10.468 68.0656 10.468C66.2596 10.468 65.0416 11.812 65.0416 14.29C65.0416 16.768 66.2596 18.126 68.0656 18.126ZM68.5696 16.936C67.3376 16.936 66.5256 16.026 66.5256 14.29C66.5256 12.54 67.3376 11.644 68.5696 11.644C69.9416 11.644 70.6556 12.736 70.6556 13.87V14.71C70.6556 15.858 69.9416 16.936 68.5696 16.936ZM73.6415 20.338H74.6775C75.8395 20.338 76.5815 19.932 77.0575 18.644L80.1375 10.594H78.6115L77.0155 15.102L76.7215 15.984H76.6655L76.3575 15.102L74.6635 10.594H73.0815L75.9935 17.468L75.6715 18.294C75.4335 18.882 75.0975 19.148 74.4395 19.148H73.6415V20.338ZM84.0615 18.126C85.9095 18.126 87.2535 17.034 87.3655 15.354H85.9655C85.8535 16.292 85.1395 16.922 84.0615 16.922C82.7735 16.922 81.9335 15.984 81.9335 14.318C81.9335 12.736 82.7035 11.686 84.0755 11.686C85.0275 11.686 85.7695 12.19 85.9375 13.156H87.3375C87.2255 11.56 85.9095 10.482 84.1175 10.482C81.8915 10.482 80.4635 12.008 80.4635 14.304C80.4635 16.6 81.8915 18.126 84.0615 18.126ZM91.9088 18.126C93.6588 18.126 95.0028 17.174 95.1988 15.718H93.8268C93.6448 16.488 92.9028 16.978 91.9088 16.978C90.6208 16.978 89.7808 16.11 89.7528 14.584H95.2408C95.4648 12.26 94.2888 10.482 91.8528 10.482C89.6828 10.482 88.3248 11.994 88.3248 14.332C88.3248 16.614 89.6828 18.126 91.9088 18.126ZM91.8388 11.616C92.9308 11.616 93.7848 12.19 93.8268 13.562H89.7808C89.8928 12.358 90.6768 11.616 91.8388 11.616ZM96.7995 18H98.2275V13.954C98.2275 12.68 98.9975 11.672 100.23 11.672C101.378 11.672 101.896 12.386 101.896 13.898V18H103.338V13.954C103.338 12.68 104.108 11.672 105.326 11.672C106.488 11.672 107.006 12.386 107.006 13.898V18H108.434V13.604C108.434 11.336 107.342 10.482 105.872 10.482C104.682 10.482 103.674 11.07 103.268 12.218H103.156C102.778 10.958 101.854 10.482 100.762 10.482C99.6835 10.482 98.7315 11.014 98.3115 12.064H98.2275L98.1715 10.594H96.7995V18ZM113.498 18.126C115.724 18.126 117.11 16.572 117.11 14.304C117.11 11.952 115.654 10.482 113.498 10.482C111.258 10.482 109.872 12.036 109.872 14.318C109.872 16.642 111.328 18.126 113.498 18.126ZM113.498 16.922C112.182 16.922 111.342 15.97 111.342 14.318C111.342 12.61 112.21 11.672 113.498 11.672C114.828 11.672 115.64 12.638 115.64 14.304C115.64 15.984 114.786 16.922 113.498 16.922ZM121.879 18.126C124.105 18.126 125.491 16.572 125.491 14.304C125.491 11.952 124.035 10.482 121.879 10.482C119.639 10.482 118.253 12.036 118.253 14.318C118.253 16.642 119.709 18.126 121.879 18.126ZM121.879 16.922C120.563 16.922 119.723 15.97 119.723 14.318C119.723 12.61 120.591 11.672 121.879 11.672C123.209 11.672 124.021 12.638 124.021 14.304C124.021 15.984 123.167 16.922 121.879 16.922ZM127.001 18H128.429V13.954C128.429 12.68 129.227 11.672 130.501 11.672C131.677 11.672 132.223 12.386 132.223 13.898V18H133.665V13.604C133.665 11.336 132.531 10.482 131.019 10.482C129.927 10.482 128.947 11.014 128.513 12.064H128.429L128.373 10.594H127.001V18Z" fill="#1E2C31"/>
<path d="M147.172 15.536C146.956 15.536 146.76 15.5013 146.584 15.432C146.411 15.3627 146.26 15.264 146.132 15.136C146.007 15.0053 145.911 14.848 145.844 14.664C145.777 14.48 145.744 14.2733 145.744 14.044C145.744 13.812 145.777 13.604 145.844 13.42C145.911 13.236 146.008 13.08 146.136 12.952C146.264 12.8213 146.415 12.7227 146.588 12.656C146.761 12.5867 146.956 12.552 147.172 12.552C147.412 12.552 147.625 12.5933 147.812 12.676C148.001 12.7587 148.156 12.876 148.276 13.028C148.396 13.1773 148.469 13.3547 148.496 13.56H148.056C148.029 13.4373 147.976 13.3293 147.896 13.236C147.819 13.14 147.719 13.0653 147.596 13.012C147.473 12.956 147.332 12.928 147.172 12.928C146.972 12.928 146.797 12.972 146.648 13.06C146.501 13.148 146.388 13.2747 146.308 13.44C146.231 13.6053 146.192 13.8067 146.192 14.044C146.192 14.22 146.215 14.3773 146.26 14.516C146.305 14.6547 146.371 14.772 146.456 14.868C146.541 14.9613 146.644 15.0333 146.764 15.084C146.887 15.1347 147.023 15.16 147.172 15.16C147.329 15.16 147.469 15.1333 147.592 15.08C147.717 15.0267 147.82 14.952 147.9 14.856C147.98 14.7573 148.032 14.6427 148.056 14.512L148.496 14.516C148.472 14.7213 148.4 14.9013 148.28 15.056C148.163 15.208 148.008 15.3267 147.816 15.412C147.627 15.4947 147.412 15.536 147.172 15.536ZM149.866 15.536C149.711 15.536 149.57 15.5107 149.442 15.46C149.316 15.4093 149.208 15.336 149.118 15.24C149.027 15.144 148.956 15.0293 148.906 14.896C148.855 14.7627 148.83 14.6133 148.83 14.448C148.83 14.2293 148.871 14.0387 148.954 13.876C149.039 13.7107 149.159 13.5827 149.314 13.492C149.471 13.3987 149.655 13.352 149.866 13.352C150.02 13.352 150.16 13.3773 150.286 13.428C150.414 13.476 150.523 13.548 150.614 13.644C150.704 13.74 150.774 13.856 150.822 13.992C150.872 14.1253 150.898 14.276 150.898 14.444C150.898 14.66 150.856 14.8507 150.774 15.016C150.691 15.1787 150.572 15.3067 150.418 15.4C150.263 15.4907 150.079 15.536 149.866 15.536ZM149.866 15.192C149.988 15.192 150.095 15.164 150.186 15.108C150.279 15.0493 150.351 14.964 150.402 14.852C150.452 14.74 150.478 14.604 150.478 14.444C150.478 14.324 150.463 14.2187 150.434 14.128C150.407 14.0347 150.367 13.956 150.314 13.892C150.26 13.8253 150.196 13.776 150.122 13.744C150.047 13.7093 149.962 13.692 149.866 13.692C149.743 13.692 149.635 13.7213 149.542 13.78C149.451 13.8387 149.379 13.924 149.326 14.036C149.275 14.1453 149.25 14.2827 149.25 14.448C149.25 14.5653 149.263 14.6707 149.29 14.764C149.319 14.8547 149.36 14.932 149.414 14.996C149.47 15.06 149.535 15.1093 149.61 15.144C149.687 15.176 149.772 15.192 149.866 15.192ZM151.329 15.5V13.384H151.721L151.737 13.804H151.761C151.82 13.6547 151.912 13.5427 152.037 13.468C152.165 13.3907 152.306 13.352 152.461 13.352C152.616 13.352 152.754 13.3893 152.877 13.464C153.002 13.5387 153.092 13.6667 153.145 13.848H153.177C153.236 13.6827 153.332 13.5587 153.465 13.476C153.601 13.3933 153.753 13.352 153.921 13.352C154.06 13.352 154.184 13.3813 154.293 13.44C154.405 13.4987 154.493 13.5933 154.557 13.724C154.621 13.8547 154.653 14.028 154.653 14.244V15.5H154.245V14.328C154.245 14.184 154.228 14.0653 154.193 13.972C154.158 13.876 154.106 13.8053 154.037 13.76C153.968 13.7147 153.877 13.692 153.765 13.692C153.65 13.692 153.55 13.7213 153.465 13.78C153.38 13.8387 153.313 13.9173 153.265 14.016C153.22 14.112 153.197 14.2213 153.197 14.344V15.5H152.785V14.328C152.785 14.184 152.768 14.0653 152.733 13.972C152.698 13.876 152.646 13.8053 152.577 13.76C152.508 13.7147 152.418 13.692 152.309 13.692C152.192 13.692 152.09 13.7213 152.005 13.78C151.92 13.8387 151.853 13.9173 151.805 14.016C151.76 14.112 151.737 14.2213 151.737 14.344V15.5H151.329ZM155.208 15.5V13.384H155.62V15.5H155.208ZM155.208 13.06V12.584H155.62V13.06H155.208ZM156.192 15.5V13.384H156.584L156.6 13.804H156.624C156.686 13.6547 156.782 13.5427 156.912 13.468C157.043 13.3907 157.186 13.352 157.34 13.352C157.45 13.352 157.55 13.368 157.64 13.4C157.734 13.432 157.814 13.484 157.88 13.556C157.95 13.6253 158.003 13.7173 158.04 13.832C158.078 13.944 158.096 14.0813 158.096 14.244V15.5H157.684V14.328C157.684 14.184 157.667 14.0653 157.632 13.972C157.598 13.876 157.544 13.8053 157.472 13.76C157.4 13.7147 157.307 13.692 157.192 13.692C157.072 13.692 156.967 13.7213 156.876 13.78C156.788 13.8387 156.72 13.9173 156.672 14.016C156.624 14.112 156.6 14.2213 156.6 14.344V15.5H156.192ZM159.489 16.208C159.321 16.208 159.175 16.1827 159.049 16.132C158.924 16.084 158.824 16.0147 158.749 15.924C158.675 15.8333 158.629 15.7253 158.613 15.6H159.013C159.024 15.6613 159.051 15.7147 159.093 15.76C159.136 15.808 159.191 15.844 159.257 15.868C159.327 15.892 159.407 15.904 159.497 15.904C159.625 15.904 159.732 15.8853 159.817 15.848C159.903 15.8133 159.968 15.756 160.013 15.676C160.059 15.596 160.081 15.4907 160.081 15.36V14.948H160.053C160.005 15.076 159.92 15.18 159.797 15.26C159.675 15.3373 159.529 15.376 159.361 15.376C159.233 15.376 159.116 15.3547 159.009 15.312C158.905 15.2667 158.816 15.2013 158.741 15.116C158.667 15.028 158.609 14.9213 158.569 14.796C158.529 14.668 158.509 14.524 158.509 14.364C158.509 14.148 158.545 13.964 158.617 13.812C158.689 13.66 158.789 13.5453 158.917 13.468C159.045 13.388 159.195 13.348 159.365 13.348C159.533 13.348 159.677 13.3867 159.797 13.464C159.92 13.5413 160.005 13.6453 160.053 13.776H160.081L160.089 13.384H160.489V15.304C160.489 15.4693 160.465 15.6093 160.417 15.724C160.369 15.8413 160.301 15.9347 160.213 16.004C160.125 16.076 160.019 16.128 159.893 16.16C159.771 16.192 159.636 16.208 159.489 16.208ZM159.501 15.056C159.624 15.056 159.728 15.028 159.813 14.972C159.899 14.916 159.964 14.8453 160.009 14.76C160.055 14.672 160.079 14.5813 160.081 14.488L160.077 14.232C160.075 14.1413 160.052 14.0533 160.009 13.968C159.967 13.88 159.903 13.8093 159.817 13.756C159.735 13.7 159.631 13.672 159.505 13.672C159.388 13.672 159.287 13.6987 159.201 13.752C159.116 13.8053 159.049 13.884 159.001 13.988C158.956 14.092 158.933 14.2173 158.933 14.364C158.933 14.5133 158.956 14.64 159.001 14.744C159.049 14.8453 159.116 14.9227 159.201 14.976C159.287 15.0293 159.387 15.056 159.501 15.056ZM162.978 15.536C162.72 15.536 162.505 15.496 162.334 15.416C162.164 15.336 162.036 15.2253 161.95 15.084C161.865 14.94 161.821 14.7747 161.818 14.588H162.266C162.269 14.7107 162.296 14.8187 162.346 14.912C162.4 15.0027 162.478 15.072 162.582 15.12C162.686 15.168 162.821 15.192 162.986 15.192C163.192 15.192 163.356 15.1547 163.478 15.08C163.604 15.0053 163.666 14.8907 163.666 14.736C163.666 14.648 163.653 14.5747 163.626 14.516C163.6 14.4573 163.556 14.4093 163.494 14.372C163.436 14.332 163.357 14.2987 163.258 14.272C163.16 14.2453 163.04 14.22 162.898 14.196C162.73 14.1667 162.582 14.132 162.454 14.092C162.329 14.0493 162.224 13.9973 162.138 13.936C162.056 13.872 161.993 13.7947 161.95 13.704C161.908 13.6133 161.886 13.5067 161.886 13.384C161.886 13.2133 161.929 13.0653 162.014 12.94C162.1 12.8147 162.222 12.7187 162.382 12.652C162.542 12.5853 162.734 12.552 162.958 12.552C163.182 12.552 163.373 12.588 163.53 12.66C163.688 12.7293 163.809 12.828 163.894 12.956C163.98 13.0813 164.024 13.2307 164.026 13.404H163.582C163.58 13.2867 163.55 13.1907 163.494 13.116C163.441 13.0387 163.366 12.9813 163.27 12.944C163.177 12.9067 163.068 12.888 162.942 12.888C162.814 12.888 162.705 12.9067 162.614 12.944C162.526 12.9787 162.458 13.0293 162.41 13.096C162.362 13.16 162.338 13.236 162.338 13.324C162.338 13.4307 162.364 13.5133 162.414 13.572C162.468 13.6307 162.552 13.6773 162.666 13.712C162.781 13.744 162.932 13.7773 163.118 13.812C163.249 13.8307 163.373 13.8573 163.49 13.892C163.61 13.9267 163.717 13.9747 163.81 14.036C163.906 14.0973 163.981 14.1813 164.034 14.288C164.09 14.392 164.118 14.528 164.118 14.696C164.118 14.8613 164.074 15.008 163.986 15.136C163.901 15.2613 163.773 15.36 163.602 15.432C163.434 15.5013 163.226 15.536 162.978 15.536ZM165.475 15.536C165.32 15.536 165.179 15.5107 165.051 15.46C164.926 15.4093 164.818 15.336 164.727 15.24C164.636 15.144 164.566 15.0293 164.515 14.896C164.464 14.7627 164.439 14.6133 164.439 14.448C164.439 14.2293 164.48 14.0387 164.563 13.876C164.648 13.7107 164.768 13.5827 164.923 13.492C165.08 13.3987 165.264 13.352 165.475 13.352C165.63 13.352 165.77 13.3773 165.895 13.428C166.023 13.476 166.132 13.548 166.223 13.644C166.314 13.74 166.383 13.856 166.431 13.992C166.482 14.1253 166.507 14.276 166.507 14.444C166.507 14.66 166.466 14.8507 166.383 15.016C166.3 15.1787 166.182 15.3067 166.027 15.4C165.872 15.4907 165.688 15.536 165.475 15.536ZM165.475 15.192C165.598 15.192 165.704 15.164 165.795 15.108C165.888 15.0493 165.96 14.964 166.011 14.852C166.062 14.74 166.087 14.604 166.087 14.444C166.087 14.324 166.072 14.2187 166.043 14.128C166.016 14.0347 165.976 13.956 165.923 13.892C165.87 13.8253 165.806 13.776 165.731 13.744C165.656 13.7093 165.571 13.692 165.475 13.692C165.352 13.692 165.244 13.7213 165.151 13.78C165.06 13.8387 164.988 13.924 164.935 14.036C164.884 14.1453 164.859 14.2827 164.859 14.448C164.859 14.5653 164.872 14.6707 164.899 14.764C164.928 14.8547 164.97 14.932 165.023 14.996C165.079 15.06 165.144 15.1093 165.219 15.144C165.296 15.176 165.382 15.192 165.475 15.192ZM167.869 15.536C167.715 15.536 167.573 15.5107 167.445 15.46C167.32 15.4093 167.212 15.336 167.121 15.24C167.031 15.144 166.96 15.0293 166.909 14.896C166.859 14.7627 166.833 14.6133 166.833 14.448C166.833 14.2293 166.875 14.0387 166.957 13.876C167.043 13.7107 167.163 13.5827 167.317 13.492C167.475 13.3987 167.659 13.352 167.869 13.352C168.024 13.352 168.164 13.3773 168.289 13.428C168.417 13.476 168.527 13.548 168.617 13.644C168.708 13.74 168.777 13.856 168.825 13.992C168.876 14.1253 168.901 14.276 168.901 14.444C168.901 14.66 168.86 14.8507 168.777 15.016C168.695 15.1787 168.576 15.3067 168.421 15.4C168.267 15.4907 168.083 15.536 167.869 15.536ZM167.869 15.192C167.992 15.192 168.099 15.164 168.189 15.108C168.283 15.0493 168.355 14.964 168.405 14.852C168.456 14.74 168.481 14.604 168.481 14.444C168.481 14.324 168.467 14.2187 168.437 14.128C168.411 14.0347 168.371 13.956 168.317 13.892C168.264 13.8253 168.2 13.776 168.125 13.744C168.051 13.7093 167.965 13.692 167.869 13.692C167.747 13.692 167.639 13.7213 167.545 13.78C167.455 13.8387 167.383 13.924 167.329 14.036C167.279 14.1453 167.253 14.2827 167.253 14.448C167.253 14.5653 167.267 14.6707 167.293 14.764C167.323 14.8547 167.364 14.932 167.417 14.996C167.473 15.06 167.539 15.1093 167.613 15.144C167.691 15.176 167.776 15.192 167.869 15.192ZM169.333 15.5V13.384H169.725L169.741 13.804H169.765C169.826 13.6547 169.922 13.5427 170.053 13.468C170.184 13.3907 170.326 13.352 170.481 13.352C170.59 13.352 170.69 13.368 170.781 13.4C170.874 13.432 170.954 13.484 171.021 13.556C171.09 13.6253 171.144 13.7173 171.181 13.832C171.218 13.944 171.237 14.0813 171.237 14.244V15.5H170.825V14.328C170.825 14.184 170.808 14.0653 170.773 13.972C170.738 13.876 170.685 13.8053 170.613 13.76C170.541 13.7147 170.448 13.692 170.333 13.692C170.213 13.692 170.108 13.7213 170.017 13.78C169.929 13.8387 169.861 13.9173 169.813 14.016C169.765 14.112 169.741 14.2213 169.741 14.344V15.5H169.333Z" fill="#9CA3AF"/>
<rect x="140.821" y="7.8753" width="35.4486" height="12.2486" rx="6.12431" stroke="#9CA3AF" stroke-width="0.551376"/>
</g>
<defs>
<linearGradient id="paint0_linear_2451_28265" x1="15.5442" y1="5.32617" x2="15.5442" y2="40.0116" gradientUnits="userSpaceOnUse">
<stop stop-color="#2563EB"/>
<stop offset="1" stop-color="#2563EB" stop-opacity="0"/>
</linearGradient>
<clipPath id="clip0_2451_28265">
<rect width="198" height="43" fill="white"/>
</clipPath>
<clipPath id="clip1_2451_28265">
<rect width="30" height="16.875" fill="white" transform="translate(-2.45459 11)"/>
</clipPath>
<clipPath id="clip2_2451_28265">
<rect width="21.5" height="21.5" fill="white" transform="translate(176.545 3)"/>
</clipPath>
</defs>
</svg>
