<svg width="221" height="75" viewBox="0 0 221 75" fill="none" xmlns="http://www.w3.org/2000/svg">
<path d="M17.8776 51.4832C14.4059 51.4832 11.4889 50.9463 9.12671 49.8726C6.80029 48.7989 5.04653 47.2956 3.86543 45.3629C2.68433 43.4302 2.07588 41.2291 2.04009 38.7595H9.28777C9.32356 40.2269 9.64568 41.4975 10.2541 42.5712C10.8984 43.6449 11.8647 44.486 13.1532 45.0945C14.4417 45.7029 16.106 46.0072 18.146 46.0072C20.5798 46.0072 22.5304 45.5598 23.9979 44.665C25.4653 43.7344 26.199 42.3744 26.199 40.5848C26.199 39.5469 26.038 38.6879 25.7159 38.0079C25.3937 37.292 24.8569 36.7015 24.1053 36.2362C23.3536 35.7709 22.3515 35.3772 21.0988 35.0551C19.8819 34.733 18.3429 34.4109 16.4818 34.0887C14.2627 33.7308 12.2942 33.2655 10.5762 32.6929C8.89407 32.0844 7.48032 31.3507 6.33501 30.4917C5.1897 29.6328 4.33071 28.5948 3.75806 27.3779C3.1854 26.1252 2.89907 24.6399 2.89907 22.9219C2.89907 20.5597 3.48962 18.5196 4.67073 16.8017C5.88762 15.0837 7.60559 13.7594 9.82464 12.8289C12.0437 11.8625 14.6922 11.3793 17.7702 11.3793C20.8125 11.3793 23.4073 11.8625 25.5548 12.8289C27.738 13.7952 29.4202 15.1553 30.6013 16.9091C31.7824 18.627 32.373 20.6313 32.373 22.9219H25.2327C25.1611 21.5261 24.7853 20.3808 24.1053 19.486C23.4252 18.5554 22.5126 17.8754 21.3672 17.4459C20.2577 17.0164 18.9692 16.8017 17.5018 16.8017C15.9986 16.8017 14.6922 17.0164 13.5827 17.4459C12.509 17.8754 11.6858 18.4839 11.1131 19.2713C10.5405 20.0229 10.2541 20.9355 10.2541 22.0093C10.2541 23.3335 10.5762 24.3536 11.2205 25.0694C11.9005 25.7494 12.9742 26.2863 14.4417 26.68C15.9449 27.0737 17.8776 27.4674 20.2398 27.8611C21.922 28.1474 23.5505 28.5053 25.1253 28.9348C26.7359 29.3643 28.1675 30.0086 29.4202 30.8675C30.7087 31.6907 31.7287 32.8361 32.4804 34.3035C33.232 35.7351 33.6078 37.5963 33.6078 39.8869C33.6078 42.1775 33.0172 44.1997 31.8361 45.9535C30.655 47.7072 28.9012 49.0673 26.5748 50.0336C24.2484 51 21.3493 51.4832 17.8776 51.4832ZM48.2638 51C46.51 51 45.1321 50.7495 44.1299 50.2484C43.1636 49.7115 42.4835 48.9599 42.0898 47.9936C41.6961 47.0272 41.4993 45.864 41.4993 44.5039V27.8611H36.238V22.4388H41.4993V14.3858L48.1564 13.6879V22.4388H54.223V27.8611H48.1564V43.2691C48.1564 44.1639 48.3533 44.7724 48.747 45.0945C49.1407 45.3808 49.7491 45.524 50.5723 45.524H54.223V51H48.2638ZM68.3639 51.4832C66.646 51.4832 65.0712 51.179 63.6395 50.5705C62.2437 49.9263 61.0268 48.9778 59.9888 47.7251C58.9867 46.4724 58.2172 44.9334 57.6803 43.1081C57.1434 41.2469 56.875 39.1174 56.875 36.7194C56.875 33.4624 57.3403 30.7423 58.2709 28.559C59.2372 26.34 60.5794 24.6757 62.2973 23.5662C64.0511 22.4567 66.0733 21.9019 68.3639 21.9019C69.9387 21.9019 71.3346 22.1524 72.5515 22.6535C73.8042 23.1188 74.8779 23.7809 75.7727 24.6399C76.6674 25.4989 77.3475 26.5189 77.8128 27.7H78.1886L78.457 22.4388H84.8994V51H78.1886V45.685H77.8128C77.1327 47.4388 75.9695 48.8525 74.3231 49.9263C72.6767 50.9642 70.6903 51.4832 68.3639 51.4832ZM70.8872 46.0072C72.4978 46.0072 73.8221 45.6313 74.86 44.8797C75.9337 44.1281 76.739 43.1618 77.2759 41.9807C77.8128 40.7638 78.0812 39.4932 78.0812 38.1689V35.2162C78.0812 33.8561 77.8128 32.5855 77.2759 31.4044C76.739 30.1875 75.9337 29.2212 74.86 28.5053C73.8221 27.7537 72.4978 27.3779 70.8872 27.3779C69.4556 27.3779 68.2029 27.7179 67.1291 28.398C66.0554 29.078 65.2143 30.1159 64.6059 31.5118C63.9974 32.8718 63.6932 34.6077 63.6932 36.7194C63.6932 38.7595 63.9974 40.4774 64.6059 41.8733C65.2143 43.2691 66.0554 44.3071 67.1291 44.9871C68.2029 45.6671 69.4556 46.0072 70.8872 46.0072ZM104.022 51.4832C101.91 51.4832 99.9954 51.1432 98.2774 50.4631C96.5594 49.7473 95.0741 48.7452 93.8214 47.4567C92.5687 46.1324 91.6203 44.5755 90.976 42.786C90.3318 40.9606 90.0097 38.9384 90.0097 36.7194C90.0097 33.7129 90.5823 31.1181 91.7276 28.9348C92.9087 26.7158 94.5551 24.9978 96.6668 23.7809C98.8143 22.5282 101.338 21.9019 104.237 21.9019C106.635 21.9019 108.764 22.3493 110.625 23.2441C112.486 24.1388 113.972 25.3915 115.081 27.0021C116.227 28.5769 116.853 30.4202 116.96 32.5318H110.411C110.232 31.4223 109.838 30.4917 109.229 29.7401C108.657 28.9885 107.923 28.4159 107.028 28.0222C106.134 27.6285 105.149 27.4316 104.076 27.4316C102.537 27.4316 101.212 27.8253 100.103 28.6127C98.9932 29.3643 98.1521 30.4381 97.5795 31.8339C97.0426 33.2298 96.7742 34.8582 96.7742 36.7194C96.7742 38.7595 97.0784 40.4595 97.6868 41.8196C98.2953 43.1797 99.1364 44.2176 100.21 44.9334C101.32 45.6135 102.59 45.9535 104.022 45.9535C105.275 45.9535 106.366 45.7387 107.297 45.3092C108.227 44.8439 108.961 44.2176 109.498 43.4302C110.071 42.607 110.411 41.6764 110.518 40.6385H117.068C116.925 42.8218 116.28 44.7366 115.135 46.383C113.99 47.9936 112.469 49.2462 110.572 50.141C108.675 51.0358 106.491 51.4832 104.022 51.4832ZM122.295 51V11.8625H129.113V35.1625L131.529 32.4245L141.085 22.4388H149.406L138.347 33.6592L149.675 51H141.783L135.34 41.068L133.622 38.1152L129.113 42.5712V51H122.295ZM154.276 51V22.4388H160.987V51H154.276ZM154.276 18.4123V11.8625H160.987V18.4123H154.276ZM174.503 51L164.517 22.3851H171.765L176.758 38.8132L178.53 45.3629H178.744L180.516 38.8668L185.509 22.3851H192.756L182.824 51H174.503ZM194.929 59.9657V54.4359H198.096C198.955 54.4359 199.671 54.3286 200.244 54.1138C200.816 53.8991 201.299 53.5591 201.693 53.0938C202.087 52.6285 202.409 52.0379 202.66 51.3221L204.216 47.2956V50.3021L192.566 22.4388H199.922L205.773 38.7595L206.847 41.9807H207.116L208.082 38.7595L213.612 22.4388H220.752L209.209 52.879C208.565 54.7044 207.76 56.136 206.793 57.174C205.863 58.2119 204.771 58.9277 203.519 59.3214C202.302 59.7509 200.906 59.9657 199.331 59.9657H194.929Z" fill="url(#paint0_linear_2946_28589)"/>
<rect x="152" y="71" width="58" height="4" rx="2" fill="url(#paint1_linear_2946_28589)"/>
<defs>
<linearGradient id="paint0_linear_2946_28589" x1="9.99999" y1="16" x2="103.738" y2="155.931" gradientUnits="userSpaceOnUse">
<stop stop-color="#2563EB"/>
<stop offset="1" stop-color="#35FF49"/>
</linearGradient>
<linearGradient id="paint1_linear_2946_28589" x1="167.5" y1="75" x2="169.741" y2="83.6677" gradientUnits="userSpaceOnUse">
<stop stop-color="#090B0C"/>
<stop offset="1" stop-color="#35FF49"/>
</linearGradient>
</defs>
</svg>
