<svg width="473" height="345" viewBox="0 0 473 345" fill="none" xmlns="http://www.w3.org/2000/svg">
<g clip-path="url(#clip0_3162_28998)">
<rect y="0.984375" width="473" height="344" fill="url(#paint0_linear_3162_28998)"/>
<path d="M63.4004 302.756C63.1112 302.756 62.832 302.726 62.5628 302.667C62.3035 302.607 62.0892 302.532 61.9197 302.442V301.111C62.0692 301.191 62.2387 301.261 62.4282 301.321C62.6276 301.37 62.8519 301.395 63.1012 301.395C63.4901 301.395 63.8092 301.336 64.0584 301.216C64.3177 301.096 64.5121 300.907 64.6417 300.648C64.7813 300.388 64.8511 300.059 64.8511 299.66V291.733H66.4664V299.795C66.4664 300.313 66.3917 300.762 66.2421 301.141C66.1025 301.52 65.8981 301.829 65.6289 302.068C65.3696 302.298 65.0506 302.472 64.6717 302.592C64.3027 302.702 63.879 302.756 63.4004 302.756ZM71.555 302.771C71.0764 302.771 70.6377 302.682 70.2389 302.502C69.85 302.323 69.511 302.063 69.2218 301.724C68.9327 301.375 68.7083 300.947 68.5488 300.438C68.3992 299.93 68.3244 299.341 68.3244 298.673C68.3244 297.796 68.459 297.053 68.7283 296.445C69.0075 295.836 69.3864 295.378 69.865 295.069C70.3535 294.75 70.9169 294.59 71.555 294.59C71.9938 294.59 72.3926 294.66 72.7516 294.8C73.1205 294.939 73.4296 295.139 73.6789 295.398C73.9381 295.647 74.1276 295.941 74.2472 296.28H74.337L74.3968 294.725H75.8775V302.637H74.337V301.066H74.2472C74.0578 301.575 73.7287 301.989 73.2601 302.308C72.7915 302.617 72.2231 302.771 71.555 302.771ZM72.0935 301.5C72.5821 301.5 72.9909 301.385 73.3199 301.156C73.649 300.927 73.8982 300.633 74.0677 300.274C74.2372 299.915 74.322 299.531 74.322 299.122V298.225C74.322 297.816 74.2372 297.432 74.0677 297.073C73.8982 296.714 73.649 296.42 73.3199 296.19C72.9909 295.961 72.5821 295.846 72.0935 295.846C71.6548 295.846 71.2709 295.956 70.9418 296.176C70.6128 296.385 70.3585 296.699 70.179 297.118C69.9996 297.527 69.9098 298.045 69.9098 298.673C69.9098 299.291 69.9996 299.81 70.179 300.229C70.3585 300.648 70.6128 300.967 70.9418 301.186C71.2709 301.395 71.6548 301.5 72.0935 301.5ZM78.0354 302.637V294.725H79.5012L79.561 296.295H79.6507C79.8801 295.737 80.239 295.318 80.7276 295.039C81.2162 294.75 81.7496 294.605 82.3279 294.605C82.7368 294.605 83.1107 294.665 83.4497 294.785C83.7987 294.904 84.0978 295.099 84.3471 295.368C84.6063 295.627 84.8057 295.971 84.9453 296.4C85.0849 296.819 85.1547 297.332 85.1547 297.94V302.637H83.6142V298.254C83.6142 297.716 83.5494 297.272 83.4198 296.923C83.2901 296.564 83.0907 296.3 82.8215 296.131C82.5523 295.961 82.2033 295.876 81.7746 295.876C81.3259 295.876 80.932 295.986 80.593 296.205C80.2639 296.425 80.0097 296.719 79.8302 297.088C79.6507 297.447 79.561 297.856 79.561 298.314V302.637H78.0354Z" fill="white"/>
<path d="M135.926 302.637V291.733H143.538V293.139H137.257L137.556 292.84V296.938L137.257 296.639H142.94V297.985H137.257L137.556 297.686V302.637H135.926ZM148.193 302.771C147.405 302.771 146.722 302.607 146.144 302.278C145.576 301.939 145.137 301.465 144.828 300.857C144.519 300.239 144.364 299.526 144.364 298.718C144.364 297.881 144.519 297.153 144.828 296.534C145.137 295.916 145.571 295.443 146.129 295.114C146.697 294.775 147.365 294.605 148.133 294.605C149.001 294.605 149.714 294.8 150.272 295.188C150.84 295.567 151.249 296.091 151.498 296.759C151.748 297.417 151.832 298.16 151.753 298.987H145.89C145.9 299.526 145.999 299.989 146.189 300.378C146.378 300.757 146.643 301.046 146.982 301.246C147.331 301.445 147.734 301.545 148.193 301.545C148.722 301.545 149.17 301.425 149.539 301.186C149.908 300.937 150.142 300.608 150.242 300.199H151.708C151.638 300.717 151.444 301.171 151.125 301.56C150.805 301.939 150.392 302.238 149.883 302.457C149.385 302.667 148.821 302.771 148.193 302.771ZM145.905 298.12L145.755 297.896H150.392L150.242 298.15C150.262 297.601 150.177 297.158 149.988 296.819C149.808 296.47 149.554 296.215 149.225 296.056C148.906 295.896 148.537 295.817 148.118 295.817C147.68 295.817 147.296 295.911 146.967 296.101C146.638 296.28 146.383 296.544 146.204 296.893C146.024 297.242 145.925 297.651 145.905 298.12ZM157.74 302.771C157.302 302.771 156.898 302.702 156.529 302.562C156.17 302.422 155.866 302.228 155.617 301.979C155.367 301.719 155.178 301.42 155.048 301.081H154.958L154.899 302.637H153.418V291.733H154.958V296.28H155.048C155.238 295.772 155.567 295.363 156.035 295.054C156.504 294.745 157.072 294.59 157.74 294.59C158.219 294.59 158.653 294.68 159.042 294.859C159.44 295.039 159.784 295.303 160.074 295.652C160.363 296.001 160.582 296.43 160.732 296.938C160.891 297.447 160.971 298.03 160.971 298.688C160.971 299.566 160.831 300.308 160.552 300.917C160.283 301.525 159.904 301.989 159.415 302.308C158.937 302.617 158.378 302.771 157.74 302.771ZM157.202 301.5C157.641 301.5 158.025 301.395 158.354 301.186C158.683 300.977 158.937 300.662 159.116 300.244C159.296 299.825 159.386 299.306 159.386 298.688C159.386 298.22 159.331 297.811 159.221 297.462C159.121 297.103 158.977 296.809 158.787 296.579C158.598 296.34 158.369 296.161 158.099 296.041C157.83 295.921 157.531 295.861 157.202 295.861C156.713 295.861 156.3 295.976 155.961 296.205C155.631 296.425 155.382 296.719 155.213 297.088C155.053 297.447 154.973 297.831 154.973 298.24V299.122C154.973 299.531 155.053 299.92 155.213 300.289C155.382 300.648 155.631 300.942 155.961 301.171C156.3 301.39 156.713 301.5 157.202 301.5Z" fill="white"/>
<path d="M210.705 302.637V291.733H213.203L216.239 300.079H216.299L219.335 291.733H221.818V302.637H220.232V297.537L220.277 293.453H220.172L216.927 302.637H215.626L212.38 293.453H212.275L212.305 297.552V302.637H210.705ZM226.917 302.771C226.438 302.771 225.999 302.682 225.6 302.502C225.211 302.323 224.872 302.063 224.583 301.724C224.294 301.375 224.07 300.947 223.91 300.438C223.761 299.93 223.686 299.341 223.686 298.673C223.686 297.796 223.821 297.053 224.09 296.445C224.369 295.836 224.748 295.378 225.226 295.069C225.715 294.75 226.278 294.59 226.917 294.59C227.355 294.59 227.754 294.66 228.113 294.8C228.482 294.939 228.791 295.139 229.04 295.398C229.3 295.647 229.489 295.941 229.609 296.28H229.698L229.758 294.725H231.239V302.637H229.698V301.066H229.609C229.419 301.575 229.09 301.989 228.622 302.308C228.153 302.617 227.585 302.771 226.917 302.771ZM227.455 301.5C227.944 301.5 228.352 301.385 228.681 301.156C229.01 300.927 229.26 300.633 229.429 300.274C229.599 299.915 229.683 299.531 229.683 299.122V298.225C229.683 297.816 229.599 297.432 229.429 297.073C229.26 296.714 229.01 296.42 228.681 296.19C228.352 295.961 227.944 295.846 227.455 295.846C227.016 295.846 226.632 295.956 226.303 296.176C225.974 296.385 225.72 296.699 225.541 297.118C225.361 297.527 225.271 298.045 225.271 298.673C225.271 299.291 225.361 299.81 225.541 300.229C225.72 300.648 225.974 300.967 226.303 301.186C226.632 301.395 227.016 301.5 227.455 301.5ZM233.397 302.637V294.725H234.773L234.848 296.131H234.922C235.092 295.622 235.386 295.243 235.805 294.994C236.224 294.745 236.692 294.62 237.211 294.62C237.301 294.62 237.38 294.625 237.45 294.635C237.53 294.635 237.605 294.64 237.674 294.65V296.101C237.615 296.091 237.54 296.086 237.45 296.086C237.37 296.086 237.286 296.086 237.196 296.086C236.727 296.086 236.328 296.166 235.999 296.325C235.67 296.485 235.416 296.719 235.237 297.028C235.057 297.327 234.952 297.691 234.922 298.12V302.637H233.397Z" fill="white"/>
<path d="M287.959 302.637L291.833 291.733H294.121L297.995 302.637H296.29L295.392 300.094H290.561L289.664 302.637H287.959ZM290.95 298.823H294.988L293.792 295.458L293.029 293.229H292.939L292.177 295.458L290.95 298.823ZM299.098 305.134V294.725H300.579L300.639 296.28H300.729C300.918 295.772 301.247 295.363 301.716 295.054C302.194 294.745 302.763 294.59 303.421 294.59C303.899 294.59 304.333 294.68 304.722 294.859C305.121 295.039 305.465 295.303 305.754 295.652C306.043 296.001 306.262 296.43 306.412 296.938C306.572 297.447 306.651 298.03 306.651 298.688C306.651 299.566 306.517 300.308 306.247 300.917C305.978 301.525 305.599 301.989 305.111 302.308C304.632 302.617 304.069 302.771 303.421 302.771C302.992 302.771 302.593 302.702 302.224 302.562C301.865 302.422 301.556 302.228 301.297 301.979C301.048 301.719 300.858 301.42 300.729 301.081H300.639V305.134H299.098ZM302.882 301.5C303.321 301.5 303.705 301.395 304.034 301.186C304.363 300.977 304.617 300.662 304.797 300.244C304.986 299.825 305.081 299.306 305.081 298.688C305.081 298.06 304.986 297.542 304.797 297.133C304.617 296.714 304.363 296.4 304.034 296.19C303.705 295.971 303.321 295.861 302.882 295.861C302.404 295.861 301.995 295.976 301.656 296.205C301.327 296.425 301.078 296.719 300.908 297.088C300.738 297.447 300.654 297.831 300.654 298.24V299.122C300.654 299.431 300.699 299.73 300.788 300.019C300.888 300.299 301.033 300.553 301.222 300.782C301.412 301.001 301.646 301.176 301.925 301.306C302.204 301.435 302.523 301.5 302.882 301.5ZM308.285 302.637V294.725H309.661L309.736 296.131H309.811C309.98 295.622 310.275 295.243 310.693 294.994C311.112 294.745 311.581 294.62 312.099 294.62C312.189 294.62 312.269 294.625 312.339 294.635C312.418 294.635 312.493 294.64 312.563 294.65V296.101C312.503 296.091 312.428 296.086 312.339 296.086C312.259 296.086 312.174 296.086 312.084 296.086C311.616 296.086 311.217 296.166 310.888 296.325C310.559 296.485 310.305 296.719 310.125 297.028C309.946 297.327 309.841 297.691 309.811 298.12V302.637H308.285Z" fill="white"/>
<rect x="61.6953" y="124.375" width="35.5217" height="142.087" rx="17.7609" fill="white"/>
<rect x="127.133" y="57.0742" width="35.5217" height="209.391" rx="17.7609" fill="white"/>
<rect x="201.912" y="109.422" width="35.5217" height="157.043" rx="17.7609" fill="white"/>
<rect x="282.305" y="144.941" width="35.5217" height="121.522" rx="17.7609" fill="white"/>
<rect x="370.172" y="51.4648" width="35.5217" height="215" rx="17.7609" fill="white"/>
<path d="M373.75 302.641V291.737H376.248L379.284 300.083H379.344L382.38 291.737H384.862V302.641H383.277V297.54L383.322 293.457H383.217L379.972 302.641H378.67L375.425 293.457H375.32L375.35 297.555V302.641H373.75ZM389.961 302.775C389.483 302.775 389.044 302.685 388.645 302.506C388.256 302.327 387.917 302.067 387.628 301.728C387.339 301.379 387.115 300.951 386.955 300.442C386.806 299.933 386.731 299.345 386.731 298.677C386.731 297.8 386.865 297.057 387.135 296.449C387.414 295.84 387.793 295.382 388.271 295.073C388.76 294.754 389.323 294.594 389.961 294.594C390.4 294.594 390.799 294.664 391.158 294.803C391.527 294.943 391.836 295.142 392.085 295.402C392.345 295.651 392.534 295.945 392.654 296.284H392.743L392.803 294.729H394.284V302.641H392.743V301.07H392.654C392.464 301.579 392.135 301.993 391.667 302.312C391.198 302.621 390.63 302.775 389.961 302.775ZM390.5 301.504C390.988 301.504 391.397 301.389 391.726 301.16C392.055 300.931 392.305 300.636 392.474 300.277C392.644 299.919 392.728 299.535 392.728 299.126V298.228C392.728 297.82 392.644 297.436 392.474 297.077C392.305 296.718 392.055 296.424 391.726 296.194C391.397 295.965 390.988 295.85 390.5 295.85C390.061 295.85 389.677 295.96 389.348 296.179C389.019 296.389 388.765 296.703 388.585 297.122C388.406 297.53 388.316 298.049 388.316 298.677C388.316 299.295 388.406 299.814 388.585 300.233C388.765 300.651 389.019 300.97 389.348 301.19C389.677 301.399 390.061 301.504 390.5 301.504ZM395.918 305.138V303.867H396.771C397 303.867 397.195 303.832 397.354 303.762C397.524 303.703 397.668 303.603 397.788 303.463C397.908 303.334 398.007 303.164 398.087 302.955L398.566 301.728V302.401L395.32 294.729H397.01L398.82 299.545L399.149 300.487H399.209L399.523 299.545L401.228 294.729H402.858L399.568 303.329C399.398 303.777 399.194 304.131 398.955 304.391C398.725 304.66 398.451 304.849 398.132 304.959C397.813 305.079 397.444 305.138 397.025 305.138H395.918Z" fill="white"/>
<g filter="url(#filter0_d_3162_28998)">
<path d="M359.843 81.2315C360.511 80.8487 360.514 79.8865 359.849 79.4994L346.373 71.6609C345.707 71.2739 344.872 71.7523 344.87 72.5221L344.82 88.112C344.817 88.8818 345.649 89.3656 346.317 88.9829L359.843 81.2315Z" fill="url(#paint1_linear_3162_28998)" fill-opacity="0.24" shape-rendering="crispEdges"/>
</g>
<g filter="url(#filter1_d_3162_28998)">
<rect x="259.27" y="122.68" width="85.8073" height="75.3328" rx="5.50047" transform="rotate(-89.8152 259.27 122.68)" fill="url(#paint2_linear_3162_28998)" fill-opacity="0.24" shape-rendering="crispEdges"/>
</g>
<g filter="url(#filter2_d_3162_28998)">
<path d="M62.4851 160.59C67.3572 166.317 81.8614 171.966 100.902 148.744C124.702 119.716 155.528 76.863 191.879 116.209C228.23 155.555 283.803 246.933 398.613 69.8783" stroke="url(#paint3_linear_3162_28998)" stroke-width="5.14532" stroke-linecap="round"/>
</g>
<g filter="url(#filter3_d_3162_28998)">
<circle cx="387.076" cy="85.061" r="15.9973" transform="rotate(0.284646 387.076 85.061)" fill="url(#paint4_linear_3162_28998)"/>
<circle cx="387.076" cy="85.061" r="12.3624" transform="rotate(0.284646 387.076 85.061)" stroke="white" stroke-width="7.26988"/>
</g>
<path fill-rule="evenodd" clip-rule="evenodd" d="M285.005 64.4004L278.5 57.8633L271.996 64.4004L273.237 65.635L277.625 61.2242V73.104H279.375V61.2242L283.764 65.635L285.005 64.4004Z" fill="#86EFAC"/>
<path fill-rule="evenodd" clip-rule="evenodd" d="M285.005 94.5683L278.5 101.105L271.996 94.5683L273.237 93.3337L277.625 97.7446V85.8647H279.375V97.7446L283.764 93.3337L285.005 94.5683Z" fill="#F87171"/>
<path d="M287.473 72.2344C287.473 71.6205 287.606 71.076 287.874 70.6007C288.141 70.1156 288.473 69.6701 288.869 69.2641C289.265 68.8483 289.696 68.4572 290.161 68.0909C290.636 67.7245 291.072 67.3533 291.468 66.977C291.864 66.5909 292.195 66.18 292.463 65.7444C292.73 65.3087 292.864 64.8236 292.864 64.289C292.864 64.0315 292.824 63.789 292.745 63.5612C292.666 63.3236 292.552 63.1157 292.403 62.9375C292.255 62.7593 292.072 62.6207 291.854 62.5217C291.636 62.4127 291.389 62.3583 291.111 62.3583C290.686 62.3583 290.339 62.487 290.072 62.7444C289.804 62.9919 289.671 63.3286 289.671 63.7543C289.671 63.883 289.691 64.0216 289.73 64.1701C289.77 64.3187 289.824 64.4573 289.894 64.586C289.973 64.7048 290.067 64.8038 290.176 64.883C290.295 64.9622 290.433 65.0018 290.592 65.0018C290.532 65.4176 290.359 65.7741 290.072 66.0711C289.795 66.3582 289.433 66.5018 288.988 66.5018C288.572 66.5018 288.24 66.3681 287.993 66.1008C287.745 65.8236 287.621 65.4771 287.621 65.0612C287.621 64.5365 287.735 64.081 287.963 63.6949C288.191 63.3088 288.483 62.9919 288.839 62.7444C289.205 62.487 289.616 62.2989 290.072 62.1801C290.537 62.0613 291.002 62.0019 291.468 62.0019C291.913 62.0019 292.344 62.0563 292.76 62.1652C293.176 62.2741 293.537 62.4474 293.844 62.685C294.161 62.9127 294.413 63.2098 294.601 63.5761C294.789 63.9325 294.884 64.3583 294.884 64.8533C294.884 65.4176 294.725 65.9275 294.408 66.383C294.091 66.8384 293.686 67.2592 293.191 67.6453C292.705 68.0315 292.176 68.3928 291.601 68.7295C291.027 69.0661 290.478 69.4027 289.953 69.7394C289.438 70.0661 288.988 70.4027 288.601 70.7492C288.215 71.0958 287.973 71.472 287.874 71.8779C288.428 71.868 289.072 71.8185 289.804 71.7294C290.547 71.6403 291.275 71.4869 291.988 71.269C292.7 71.0512 293.344 70.7542 293.918 70.378C294.492 70.0017 294.893 69.5265 295.121 68.9522L294.483 72.2344H287.473ZM296.737 72.3829C296.44 72.3829 296.183 72.2789 295.965 72.071C295.747 71.8532 295.638 71.5958 295.638 71.2987C295.638 71.0017 295.747 70.7492 295.965 70.5413C296.183 70.3235 296.44 70.2146 296.737 70.2146C297.034 70.2146 297.287 70.3235 297.494 70.5413C297.712 70.7492 297.821 71.0017 297.821 71.2987C297.821 71.5958 297.712 71.8532 297.494 72.071C297.287 72.2789 297.034 72.3829 296.737 72.3829ZM304.441 63.8434C304.223 63.8434 304.011 63.8434 303.803 63.8434C303.595 63.8335 303.382 63.8286 303.164 63.8286C302.946 63.8286 302.689 63.8335 302.392 63.8434C302.095 63.8434 301.783 63.8583 301.456 63.888C301.129 63.9177 300.798 63.9672 300.461 64.0365C300.124 64.0959 299.813 64.18 299.525 64.289C299.248 64.3979 299.001 64.5414 298.783 64.7196C298.575 64.8979 298.427 65.1107 298.337 65.3582L298.946 62.1504H305.228C305.209 62.3187 305.189 62.4919 305.169 62.6702C305.159 62.8385 305.134 63.0068 305.095 63.1751C305.065 63.3335 304.996 63.5414 304.887 63.7989C304.788 64.0464 304.674 64.3088 304.545 64.586C304.426 64.8632 304.303 65.1355 304.174 65.4028C304.055 65.6602 303.956 65.8731 303.877 66.0414C303.629 66.576 303.392 67.0859 303.164 67.5711C302.946 68.0562 302.753 68.5414 302.585 69.0265C302.417 69.5116 302.273 70.0166 302.154 70.5413C302.035 71.0562 301.951 71.6205 301.902 72.2344H299.006C299.006 71.6106 299.115 71.0512 299.332 70.5562C299.56 70.0512 299.842 69.5809 300.179 69.1453C300.525 68.6998 300.912 68.279 301.337 67.883C301.763 67.477 302.174 67.0661 302.57 66.6503C302.976 66.2345 303.347 65.7988 303.684 65.3434C304.02 64.888 304.273 64.388 304.441 63.8434ZM307.469 70.1106C307.291 70.1304 307.162 70.2146 307.083 70.3631C307.004 70.5116 306.964 70.6651 306.964 70.8235C306.964 71.0215 307.004 71.1948 307.083 71.3433C307.172 71.4918 307.281 71.6156 307.41 71.7146C307.548 71.8136 307.702 71.8878 307.87 71.9373C308.038 71.9869 308.212 72.0116 308.39 72.0116C308.766 72.0116 309.088 71.9175 309.355 71.7294C309.632 71.5314 309.86 71.2839 310.038 70.9869C310.216 70.6898 310.345 70.3681 310.424 70.0215C310.513 69.6651 310.558 69.3285 310.558 69.0117C310.558 68.576 310.494 68.18 310.365 67.8236C310.236 67.4572 310.048 67.1453 309.801 66.8879C309.553 66.6305 309.251 66.4325 308.895 66.2939C308.538 66.1454 308.137 66.0711 307.692 66.0711C307.127 66.0711 306.583 66.1949 306.058 66.4424V62.1504H311.702L312.31 65.3582C312.182 64.982 311.924 64.6899 311.538 64.482C311.162 64.2741 310.741 64.1206 310.276 64.0216C309.81 63.9226 309.34 63.8682 308.865 63.8583C308.39 63.8385 307.989 63.8286 307.662 63.8286C307.454 63.8286 307.246 63.8335 307.038 63.8434C306.83 63.8434 306.622 63.8434 306.415 63.8434V65.8483C306.622 65.8186 306.86 65.784 307.127 65.7444C307.405 65.7048 307.677 65.6701 307.944 65.6404C308.212 65.6008 308.459 65.5711 308.687 65.5513C308.914 65.5216 309.083 65.5068 309.192 65.5068C309.657 65.5068 310.093 65.5761 310.499 65.7147C310.914 65.8434 311.276 66.0364 311.583 66.2939C311.89 66.5414 312.132 66.8533 312.31 67.2295C312.489 67.6057 312.578 68.0414 312.578 68.5364C312.578 69.1305 312.459 69.6651 312.221 70.1403C311.984 70.6057 311.667 71.0067 311.271 71.3433C310.875 71.67 310.419 71.9225 309.905 72.1007C309.39 72.2789 308.855 72.368 308.301 72.368C307.944 72.368 307.578 72.3235 307.202 72.2344C306.835 72.1552 306.499 72.0265 306.192 71.8482C305.885 71.6601 305.632 71.4225 305.434 71.1354C305.246 70.8384 305.152 70.477 305.152 70.0512C305.152 69.8829 305.172 69.7146 305.212 69.5463C305.261 69.378 305.335 69.2295 305.434 69.1008C305.533 68.9621 305.652 68.8532 305.791 68.774C305.939 68.6849 306.108 68.6404 306.296 68.6404C306.494 68.6404 306.667 68.6849 306.815 68.774C306.964 68.8532 307.088 68.9671 307.187 69.1156C307.286 69.2542 307.355 69.4126 307.395 69.5909C307.444 69.7592 307.469 69.9324 307.469 70.1106ZM315.489 70.1106C315.311 70.1304 315.182 70.2146 315.103 70.3631C315.024 70.5116 314.984 70.6651 314.984 70.8235C314.984 71.0215 315.024 71.1948 315.103 71.3433C315.192 71.4918 315.301 71.6156 315.43 71.7146C315.568 71.8136 315.722 71.8878 315.89 71.9373C316.059 71.9869 316.232 72.0116 316.41 72.0116C316.786 72.0116 317.108 71.9175 317.375 71.7294C317.653 71.5314 317.88 71.2839 318.058 70.9869C318.237 70.6898 318.365 70.3681 318.445 70.0215C318.534 69.6651 318.578 69.3285 318.578 69.0117C318.578 68.576 318.514 68.18 318.385 67.8236C318.256 67.4572 318.068 67.1453 317.821 66.8879C317.573 66.6305 317.271 66.4325 316.915 66.2939C316.558 66.1454 316.158 66.0711 315.712 66.0711C315.148 66.0711 314.603 66.1949 314.078 66.4424V62.1504H319.722L320.331 65.3582C320.202 64.982 319.945 64.6899 319.558 64.482C319.182 64.2741 318.761 64.1206 318.296 64.0216C317.831 63.9226 317.36 63.8682 316.885 63.8583C316.41 63.8385 316.009 63.8286 315.682 63.8286C315.474 63.8286 315.266 63.8335 315.059 63.8434C314.851 63.8434 314.643 63.8434 314.435 63.8434V65.8483C314.643 65.8186 314.88 65.784 315.148 65.7444C315.425 65.7048 315.697 65.6701 315.964 65.6404C316.232 65.6008 316.479 65.5711 316.707 65.5513C316.935 65.5216 317.103 65.5068 317.212 65.5068C317.677 65.5068 318.113 65.5761 318.519 65.7147C318.935 65.8434 319.296 66.0364 319.603 66.2939C319.91 66.5414 320.153 66.8533 320.331 67.2295C320.509 67.6057 320.598 68.0414 320.598 68.5364C320.598 69.1305 320.479 69.6651 320.242 70.1403C320.004 70.6057 319.687 71.0067 319.291 71.3433C318.895 71.67 318.44 71.9225 317.925 72.1007C317.41 72.2789 316.875 72.368 316.321 72.368C315.964 72.368 315.598 72.3235 315.222 72.2344C314.856 72.1552 314.519 72.0265 314.212 71.8482C313.905 71.6601 313.653 71.4225 313.455 71.1354C313.266 70.8384 313.172 70.477 313.172 70.0512C313.172 69.8829 313.192 69.7146 313.232 69.5463C313.281 69.378 313.356 69.2295 313.455 69.1008C313.554 68.9621 313.672 68.8532 313.811 68.774C313.96 68.6849 314.128 68.6404 314.316 68.6404C314.514 68.6404 314.687 68.6849 314.836 68.774C314.984 68.8532 315.108 68.9671 315.207 69.1156C315.306 69.2542 315.375 69.4126 315.415 69.5909C315.464 69.7592 315.489 69.9324 315.489 70.1106Z" fill="white"/>
<path d="M291.928 89.0019C292.641 89.0019 293.26 89.1553 293.785 89.4622C294.319 89.7593 294.76 90.1553 295.106 90.6503C295.463 91.1355 295.725 91.6899 295.893 92.3137C296.072 92.9275 296.161 93.5513 296.161 94.1849C296.161 94.8186 296.072 95.4473 295.893 96.0711C295.725 96.6948 295.463 97.2542 295.106 97.7492C294.76 98.2344 294.319 98.6304 293.785 98.9373C293.26 99.2344 292.641 99.3829 291.928 99.3829C291.215 99.3829 290.592 99.2344 290.057 98.9373C289.532 98.6304 289.097 98.2344 288.75 97.7492C288.403 97.2542 288.141 96.6948 287.963 96.0711C287.795 95.4473 287.71 94.8186 287.71 94.1849C287.71 93.5513 287.795 92.9275 287.963 92.3137C288.141 91.6899 288.403 91.1355 288.75 90.6503C289.097 90.1553 289.532 89.7593 290.057 89.4622C290.592 89.1553 291.215 89.0019 291.928 89.0019ZM291.928 99.0265C292.225 99.0265 292.478 98.9373 292.686 98.7591C292.903 98.571 293.087 98.3334 293.235 98.0463C293.393 97.7492 293.522 97.4176 293.621 97.0512C293.72 96.6849 293.794 96.3235 293.844 95.9671C293.903 95.6008 293.943 95.2592 293.963 94.9424C293.983 94.6255 293.992 94.3681 293.992 94.1701C293.992 93.9721 293.983 93.7147 293.963 93.3978C293.943 93.081 293.903 92.7444 293.844 92.3879C293.794 92.0315 293.72 91.6751 293.621 91.3187C293.522 90.9523 293.393 90.6256 293.235 90.3385C293.087 90.0513 292.903 89.8187 292.686 89.6405C292.478 89.4523 292.225 89.3583 291.928 89.3583C291.641 89.3583 291.389 89.4523 291.171 89.6405C290.953 89.8187 290.765 90.0563 290.606 90.3533C290.458 90.6404 290.334 90.9672 290.235 91.3335C290.146 91.6998 290.072 92.0662 290.012 92.4325C289.963 92.7889 289.928 93.1256 289.908 93.4424C289.889 93.7592 289.879 94.0166 289.879 94.2146C289.879 94.4127 289.889 94.6701 289.908 94.9869C289.928 95.3037 289.963 95.6404 290.012 95.9968C290.072 96.3532 290.146 96.7146 290.235 97.0809C290.334 97.4374 290.458 97.7591 290.606 98.0463C290.765 98.3334 290.948 98.571 291.156 98.7591C291.374 98.9373 291.631 99.0265 291.928 99.0265ZM297.926 99.3829C297.629 99.3829 297.372 99.2789 297.154 99.071C296.936 98.8532 296.827 98.5958 296.827 98.2987C296.827 98.0017 296.936 97.7492 297.154 97.5413C297.372 97.3235 297.629 97.2146 297.926 97.2146C298.223 97.2146 298.476 97.3235 298.684 97.5413C298.902 97.7492 299.01 98.0017 299.01 98.2987C299.01 98.5958 298.902 98.8532 298.684 99.071C298.476 99.2789 298.223 99.3829 297.926 99.3829ZM299.452 99.2344C299.452 98.6205 299.586 98.076 299.853 97.6007C300.121 97.1156 300.452 96.6701 300.848 96.2641C301.244 95.8483 301.675 95.4572 302.14 95.0909C302.616 94.7245 303.051 94.3533 303.447 93.977C303.843 93.5909 304.175 93.18 304.442 92.7444C304.71 92.3087 304.843 91.8236 304.843 91.289C304.843 91.0315 304.804 90.789 304.725 90.5612C304.645 90.3236 304.532 90.1157 304.383 89.9375C304.235 89.7593 304.051 89.6207 303.834 89.5217C303.616 89.4127 303.368 89.3583 303.091 89.3583C302.665 89.3583 302.319 89.487 302.051 89.7444C301.784 89.9919 301.65 90.3286 301.65 90.7543C301.65 90.883 301.67 91.0216 301.71 91.1701C301.749 91.3187 301.804 91.4573 301.873 91.586C301.952 91.7048 302.046 91.8038 302.155 91.883C302.274 91.9622 302.413 92.0018 302.571 92.0018C302.512 92.4176 302.338 92.7741 302.051 93.0711C301.774 93.3582 301.413 93.5018 300.967 93.5018C300.551 93.5018 300.22 93.3681 299.972 93.1008C299.725 92.8236 299.601 92.4771 299.601 92.0612C299.601 91.5365 299.715 91.081 299.942 90.6949C300.17 90.3088 300.462 89.9919 300.819 89.7444C301.185 89.487 301.596 89.2989 302.051 89.1801C302.517 89.0613 302.982 89.0019 303.447 89.0019C303.893 89.0019 304.324 89.0563 304.739 89.1652C305.155 89.2741 305.517 89.4474 305.824 89.685C306.14 89.9127 306.393 90.2098 306.581 90.5761C306.769 90.9325 306.863 91.3583 306.863 91.8533C306.863 92.4176 306.705 92.9275 306.388 93.383C306.071 93.8384 305.665 94.2592 305.17 94.6453C304.685 95.0315 304.155 95.3928 303.581 95.7295C303.007 96.0661 302.457 96.4027 301.933 96.7394C301.418 97.0661 300.967 97.4027 300.581 97.7492C300.195 98.0958 299.952 98.472 299.853 98.8779C300.408 98.868 301.051 98.8185 301.784 98.7294C302.527 98.6403 303.254 98.4869 303.967 98.269C304.68 98.0512 305.324 97.7542 305.898 97.378C306.472 97.0017 306.873 96.5265 307.101 95.9522L306.462 99.2344H299.452ZM307.618 96.6206C307.618 96.2443 307.717 95.9126 307.915 95.6255C308.123 95.3384 308.43 95.1948 308.835 95.1948C309.261 95.1948 309.613 95.3433 309.89 95.6404C310.177 95.9275 310.345 96.274 310.395 96.68C310.128 96.68 309.925 96.774 309.786 96.9621C309.647 97.1502 309.578 97.373 309.578 97.6304C309.578 98.0562 309.722 98.3928 310.009 98.6403C310.306 98.8878 310.662 99.0116 311.078 99.0116C311.395 99.0116 311.667 98.9373 311.895 98.7888C312.123 98.6403 312.311 98.4473 312.459 98.2096C312.608 97.972 312.717 97.7096 312.786 97.4225C312.865 97.1354 312.905 96.8582 312.905 96.5909C312.905 96.2443 312.85 95.9176 312.741 95.6107C312.642 95.2938 312.494 95.0216 312.296 94.7938C312.108 94.5661 311.87 94.3879 311.583 94.2592C311.296 94.1206 310.964 94.0513 310.588 94.0513V93.8285C311.142 93.6305 311.588 93.3038 311.925 92.8483C312.271 92.3929 312.444 91.8682 312.444 91.2741C312.444 91.0068 312.405 90.7593 312.326 90.5315C312.256 90.2939 312.147 90.0909 311.999 89.9226C311.85 89.7444 311.667 89.6058 311.449 89.5068C311.231 89.4078 310.984 89.3583 310.707 89.3583C310.42 89.3583 310.187 89.4375 310.009 89.5959C309.84 89.7543 309.756 89.9771 309.756 90.2642C309.756 90.4424 309.791 90.6256 309.86 90.8137C309.93 91.0018 310.024 91.1701 310.142 91.3187C310.261 91.4672 310.405 91.5909 310.573 91.6899C310.741 91.7889 310.92 91.8384 311.108 91.8384C311.048 92.284 310.885 92.6256 310.618 92.8632C310.35 93.0909 309.994 93.2048 309.548 93.2048C309.321 93.2048 309.118 93.1553 308.939 93.0563C308.771 92.9572 308.628 92.8335 308.509 92.685C308.39 92.5266 308.301 92.3483 308.241 92.1503C308.182 91.9424 308.152 91.7345 308.152 91.5266C308.152 91.1206 308.232 90.7593 308.39 90.4424C308.558 90.1256 308.776 89.8632 309.043 89.6553C309.311 89.4375 309.618 89.2741 309.964 89.1652C310.321 89.0563 310.687 89.0019 311.063 89.0019C311.469 89.0019 311.87 89.0514 312.266 89.1504C312.672 89.2395 313.038 89.388 313.365 89.5959C313.692 89.7939 313.954 90.0563 314.152 90.383C314.36 90.7098 314.464 91.1058 314.464 91.5711C314.464 92.1157 314.296 92.5959 313.959 93.0117C313.623 93.4176 313.202 93.7048 312.697 93.8731C313.014 93.8731 313.306 93.9473 313.573 94.0958C313.85 94.2444 314.088 94.4374 314.286 94.675C314.484 94.9127 314.637 95.18 314.746 95.477C314.865 95.774 314.925 96.0711 314.925 96.3681C314.925 96.8829 314.821 97.3285 314.613 97.7047C314.415 98.0809 314.147 98.3928 313.811 98.6403C313.474 98.8878 313.088 99.071 312.652 99.1898C312.227 99.3086 311.781 99.368 311.316 99.368C310.89 99.368 310.459 99.3185 310.024 99.2195C309.588 99.1205 309.192 98.9621 308.835 98.7443C308.479 98.5166 308.187 98.2294 307.959 97.8829C307.732 97.5364 307.618 97.1156 307.618 96.6206ZM319.682 99.2344H315.999C316.167 99.1453 316.301 99.0215 316.4 98.8631C316.499 98.7047 316.573 98.5314 316.623 98.3433C316.672 98.1552 316.707 97.9621 316.727 97.7641C316.746 97.5661 316.756 97.3829 316.756 97.2146V92.1949C316.756 91.7295 316.667 91.4078 316.489 91.2295C316.321 91.0414 315.999 90.9474 315.524 90.9474C315.821 90.8979 316.108 90.8137 316.385 90.6949C316.662 90.5662 316.93 90.4226 317.187 90.2642C317.444 90.0959 317.692 89.9177 317.93 89.7296C318.167 89.5316 318.4 89.3385 318.628 89.1504H318.925V97.2146C318.925 97.3829 318.93 97.5661 318.939 97.7641C318.959 97.9621 318.994 98.1552 319.043 98.3433C319.103 98.5314 319.182 98.7047 319.281 98.8631C319.38 99.0215 319.514 99.1453 319.682 99.2344Z" fill="white"/>
</g>
<defs>
<filter id="filter0_d_3162_28998" x="331.619" y="67.1231" width="41.9276" height="43.996" filterUnits="userSpaceOnUse" color-interpolation-filters="sRGB">
<feFlood flood-opacity="0" result="BackgroundImageFix"/>
<feColorMatrix in="SourceAlpha" type="matrix" values="0 0 0 0 0 0 0 0 0 0 0 0 0 0 0 0 0 0 127 0" result="hardAlpha"/>
<feOffset dy="8.80075"/>
<feGaussianBlur stdDeviation="6.60056"/>
<feComposite in2="hardAlpha" operator="out"/>
<feColorMatrix type="matrix" values="0 0 0 0 0.666875 0 0 0 0 0.663889 0 0 0 0 0.669444 0 0 0 0.15 0"/>
<feBlend mode="normal" in2="BackgroundImageFix" result="effect1_dropShadow_3162_28998"/>
<feBlend mode="normal" in="SourceGraphic" in2="effect1_dropShadow_3162_28998" result="shape"/>
</filter>
<filter id="filter1_d_3162_28998" x="246.086" y="32.4903" width="101.976" height="112.418" filterUnits="userSpaceOnUse" color-interpolation-filters="sRGB">
<feFlood flood-opacity="0" result="BackgroundImageFix"/>
<feColorMatrix in="SourceAlpha" type="matrix" values="0 0 0 0 0 0 0 0 0 0 0 0 0 0 0 0 0 0 127 0" result="hardAlpha"/>
<feOffset dy="8.80075"/>
<feGaussianBlur stdDeviation="6.60056"/>
<feComposite in2="hardAlpha" operator="out"/>
<feColorMatrix type="matrix" values="0 0 0 0 0.666875 0 0 0 0 0.663889 0 0 0 0 0.669444 0 0 0 0.15 0"/>
<feBlend mode="normal" in2="BackgroundImageFix" result="effect1_dropShadow_3162_28998"/>
<feBlend mode="normal" in="SourceGraphic" in2="effect1_dropShadow_3162_28998" result="shape"/>
</filter>
<filter id="filter2_d_3162_28998" x="55.0358" y="67.3047" width="351.026" height="120.053" filterUnits="userSpaceOnUse" color-interpolation-filters="sRGB">
<feFlood flood-opacity="0" result="BackgroundImageFix"/>
<feColorMatrix in="SourceAlpha" type="matrix" values="0 0 0 0 0 0 0 0 0 0 0 0 0 0 0 0 0 0 127 0" result="hardAlpha"/>
<feOffset dy="4.87629"/>
<feGaussianBlur stdDeviation="2.43814"/>
<feComposite in2="hardAlpha" operator="out"/>
<feColorMatrix type="matrix" values="0 0 0 0 0 0 0 0 0 0 0 0 0 0 0 0 0 0 0.25 0"/>
<feBlend mode="normal" in2="BackgroundImageFix" result="effect1_dropShadow_3162_28998"/>
<feBlend mode="normal" in="SourceGraphic" in2="effect1_dropShadow_3162_28998" result="shape"/>
</filter>
<filter id="filter3_d_3162_28998" x="356.538" y="69.0625" width="61.0737" height="61.0756" filterUnits="userSpaceOnUse" color-interpolation-filters="sRGB">
<feFlood flood-opacity="0" result="BackgroundImageFix"/>
<feColorMatrix in="SourceAlpha" type="matrix" values="0 0 0 0 0 0 0 0 0 0 0 0 0 0 0 0 0 0 127 0" result="hardAlpha"/>
<feOffset dy="14.5398"/>
<feGaussianBlur stdDeviation="7.26988"/>
<feComposite in2="hardAlpha" operator="out"/>
<feColorMatrix type="matrix" values="0 0 0 0 0.0509804 0 0 0 0 0.0392157 0 0 0 0 0.172549 0 0 0 0.08 0"/>
<feBlend mode="normal" in2="BackgroundImageFix" result="effect1_dropShadow_3162_28998"/>
<feBlend mode="normal" in="SourceGraphic" in2="effect1_dropShadow_3162_28998" result="shape"/>
</filter>
<linearGradient id="paint0_linear_3162_28998" x1="-69.1434" y1="-40.8399" x2="626.364" y2="447.37" gradientUnits="userSpaceOnUse">
<stop stop-color="#2563EB"/>
<stop offset="1" stop-color="#35FF49"/>
</linearGradient>
<linearGradient id="paint1_linear_3162_28998" x1="361.346" y1="80.3703" x2="339.344" y2="80.2993" gradientUnits="userSpaceOnUse">
<stop stop-color="white" stop-opacity="0.99"/>
<stop offset="1" stop-color="white"/>
</linearGradient>
<linearGradient id="paint2_linear_3162_28998" x1="302.173" y1="122.68" x2="302.173" y2="198.013" gradientUnits="userSpaceOnUse">
<stop stop-color="white"/>
<stop offset="1" stop-color="white" stop-opacity="0.75"/>
</linearGradient>
<linearGradient id="paint3_linear_3162_28998" x1="20.2775" y1="222.862" x2="134.213" y2="-104.783" gradientUnits="userSpaceOnUse">
<stop offset="0.03125" stop-color="white"/>
</linearGradient>
<linearGradient id="paint4_linear_3162_28998" x1="366.402" y1="65.1737" x2="422.109" y2="93.613" gradientUnits="userSpaceOnUse">
<stop stop-color="#2563EB"/>
<stop offset="1" stop-color="#35FF49"/>
</linearGradient>
<clipPath id="clip0_3162_28998">
<rect y="0.984375" width="473" height="344" rx="20" fill="white"/>
</clipPath>
</defs>
</svg>
