<svg width="598" height="84" viewBox="0 0 598 84" fill="none" xmlns="http://www.w3.org/2000/svg">
<path d="M35.815 14.13C35.815 6.395 25.48 3.08 19.175 3.08C10.92 3.08 2.6 7.76 2.6 16.86C2.6 32.525 27.235 30.705 27.235 43.575C27.235 49.165 22.75 52.09 17.55 52.09C13.715 52.09 10.14 50.01 10.14 45.785C10.14 43.575 11.44 40.975 13.975 40.975C13.52 37.27 11.115 33.5 6.955 33.5C2.99 33.5 0.975 37.075 0.975 40.715C0.975 50.01 11.31 53.65 19.11 53.65C27.43 53.65 37.05 49.49 37.05 39.87C37.05 23.945 10.4 24.92 10.4 13.61C10.4 8.54 13.65 4.64 18.85 4.64C22.165 4.64 26.585 6.07 26.585 10.1C26.585 11.79 25.675 13.61 23.725 13.61C24.115 17.12 26.455 20.175 30.225 20.175C33.67 20.175 35.815 17.445 35.815 14.13ZM49.8652 53C50.9052 53 52.7252 53.325 52.7252 54.69C52.7252 57.81 47.5902 59.565 45.1202 59.565C42.2602 59.565 39.9202 58.135 39.9202 55.015C37.1252 55.015 35.6952 58.72 35.6952 61.06C35.6952 65.35 39.0752 67.235 43.0402 67.235C50.4502 67.235 53.1152 58.655 55.3902 53L61.2402 38.375C62.8652 34.28 66.5052 23.36 70.4702 21.605H55.3902C59.2902 23.035 61.0452 26.025 61.0452 30.12C61.0452 35.385 58.3802 41.235 56.4302 46.11C54.7402 42.08 49.5402 30.38 49.5402 26.675C49.5402 24.465 50.5802 22.32 52.7252 21.605H34.7852C38.7502 23.36 42.3252 34.215 43.9502 38.245L49.8652 53ZM84.8712 53C81.9462 51.375 81.6212 47.15 81.6212 44.16V30.51C82.0762 28.105 83.5062 25.895 86.1712 25.895C89.3562 25.895 90.2662 29.015 90.2662 31.68V44.16C90.2662 47.085 89.8112 51.375 87.0162 53H103.071C100.211 51.375 99.7562 47.15 99.7562 44.16V31.42C99.7562 26.025 96.8962 21.085 91.0462 21.085C90.3312 21.085 82.7912 25.505 81.6212 26.675V21.605C76.3562 24.66 74.5362 25.44 68.4912 26.415C70.7662 29.145 72.1312 31.225 72.1312 34.93V44.16C72.1312 47.085 71.6112 51.375 68.8162 53H84.8712ZM119.141 31.745C120.246 35.385 122.391 37.79 126.356 37.79C129.866 37.79 131.881 35.515 131.881 32.135C131.881 24.985 124.731 21.085 118.361 21.085C109.131 21.085 103.606 28.95 103.606 37.595C103.606 46.565 110.106 53.65 119.206 53.65C125.381 53.65 130.061 50.855 133.051 45.46L132.531 45.07C131.166 46.435 127.136 46.89 125.316 46.89C116.996 46.89 113.291 39.22 113.291 31.875C113.291 29.34 114.071 22.645 117.711 22.645C120.636 22.645 123.496 25.505 123.496 28.43C123.496 30.9 121.286 31.745 119.141 31.745ZM136.052 44.16C136.052 47.085 135.532 51.375 132.737 53H148.792C145.867 51.375 145.542 47.15 145.542 44.16V31.68C145.542 29.015 147.232 25.895 150.222 25.895C153.407 25.895 154.317 29.015 154.317 31.68V44.16C154.317 47.085 153.862 51.375 151.067 53H167.122C164.262 51.375 163.807 47.15 163.807 44.16V31.42C163.807 26.025 160.947 21.085 155.097 21.085C154.317 21.085 146.127 25.96 145.542 26.805V6.915C141.317 9.32 137.222 10.945 132.412 11.725C134.687 14.455 136.052 16.535 136.052 20.24V44.16ZM180.264 36.36C180.264 31.68 188.129 26.805 191.899 25.31C193.979 24.53 196.124 24.01 198.334 24.01C205.614 24.01 207.434 31.42 207.434 37.335C207.434 40.78 205.939 52.09 200.934 52.09C195.734 52.09 194.824 43.185 194.824 39.48C194.824 36.49 195.669 26.415 200.089 26.415C192.224 26.415 184.944 30.64 184.944 39.22C184.944 47.995 192.354 53.65 200.674 53.65C210.294 53.65 217.249 46.045 217.249 36.62C217.249 26.025 210.099 19.46 199.634 19.46C192.354 19.46 184.489 26.22 180.264 31.55V21.605C174.999 24.595 173.179 25.44 167.134 26.415C169.409 29.145 170.774 31.29 170.774 34.93V44.16C170.774 47.15 170.254 51.31 167.459 53H183.514C180.589 51.31 180.264 47.15 180.264 44.16V36.36ZM234.232 53C231.307 51.375 230.982 47.15 230.982 44.16V30.51C231.437 28.105 232.867 25.895 235.532 25.895C238.717 25.895 239.627 29.015 239.627 31.68V44.16C239.627 47.085 239.172 51.375 236.377 53H252.432C249.572 51.375 249.117 47.15 249.117 44.16V31.42C249.117 26.025 246.257 21.085 240.407 21.085C239.692 21.085 232.152 25.505 230.982 26.675V21.605C225.717 24.66 223.897 25.44 217.852 26.415C220.127 29.145 221.492 31.225 221.492 34.93V44.16C221.492 47.085 220.972 51.375 218.177 53H234.232ZM260.246 20.11C262.846 20.11 264.991 17.965 264.991 15.365C264.991 12.765 262.846 10.62 260.246 10.62C257.646 10.62 255.501 12.765 255.501 15.365C255.501 17.965 257.646 20.11 260.246 20.11ZM268.826 53C265.901 51.375 265.576 47.15 265.576 44.16V21.605C260.311 24.66 258.491 25.44 252.446 26.415C254.721 29.145 256.086 31.225 256.086 34.93V44.16C256.086 47.085 255.566 51.375 252.771 53H268.826ZM295.408 21.605H271.033L269.928 30.38C272.073 24.725 278.443 23.165 283.838 23.165H284.488L269.343 51.7V53H294.498L295.603 44.225C293.458 49.945 285.788 51.44 280.393 51.44H279.743L295.408 21.605ZM325.173 36.295V34.735C325.173 26.35 319.778 21.085 311.393 21.085C302.163 21.085 296.638 28.95 296.638 37.595C296.638 46.565 303.138 53.65 312.238 53.65C318.673 53.65 322.313 50.855 325.303 45.46L324.783 45.07C323.418 46.435 319.388 46.89 317.568 46.89C311.263 46.89 307.753 42.47 306.518 37.075L325.173 36.295ZM316.463 29.535C316.463 32.72 314.318 34.28 311.393 34.735C309.638 34.995 307.948 35.255 306.193 35.45C306.063 34.475 305.998 33.5 305.998 32.525C305.998 29.86 306.973 22.645 310.743 22.645C314.058 22.645 316.463 26.545 316.463 29.535ZM357.217 6.98C351.952 9.97 350.132 10.75 344.087 11.725C346.362 14.455 347.727 16.535 347.727 20.24V23.165C346.622 22.645 342.462 20.89 341.292 20.89C331.867 20.89 326.472 29.015 326.472 37.79C326.472 46.175 331.412 53.585 340.447 53.585C344.217 53.585 346.297 52.415 347.727 50.335V53H360.467C357.542 51.375 357.217 47.15 357.217 44.16V6.98ZM347.727 46.825C347.402 46.825 347.012 46.825 346.557 46.825C339.017 46.825 335.442 39.87 335.442 33.175C335.442 28.885 337.262 22.515 342.527 22.515C346.882 22.515 347.727 27.585 347.727 30.965V46.825Z" fill="url(#paint0_linear_3609_31027)"/>
<path d="M383.447 51.375C386.827 52.545 389.037 53.585 392.807 53.585C402.232 53.585 407.627 45.46 407.627 36.685C407.627 28.3 402.687 20.89 393.652 20.89C391.507 20.89 388.582 23.75 386.372 26.285V6.915C381.107 9.905 379.287 10.685 373.242 11.66C375.452 14.39 376.882 16.535 376.882 20.175L376.752 52.935C377.922 52.285 381.107 51.635 383.447 51.375ZM386.372 26.87C386.697 26.675 387.087 26.61 387.542 26.61C395.212 26.61 398.657 34.15 398.657 40.845C398.657 45.135 396.967 51.96 391.572 51.96C387.217 51.96 386.372 46.89 386.372 43.51V26.87ZM414.069 35.06C417.709 35.06 420.049 32.135 421.024 28.95C419.529 28.95 418.489 28.17 418.489 26.61C418.489 24.92 419.789 22.645 421.674 22.645C425.574 22.645 424.729 30.77 424.729 33.305C419.139 35.45 408.674 39.285 408.674 46.565C408.674 57.225 420.439 59.5 428.889 59.5C437.859 59.5 450.989 56.575 450.989 45.265V34.93C450.989 33.5 450.924 31.94 450.989 30.51C451.054 28.235 453.199 25.895 455.539 25.895C458.724 25.895 459.634 29.015 459.634 31.68V44.16C459.634 47.085 459.179 51.375 456.384 53H472.439C469.579 51.375 469.124 47.15 469.124 44.16V31.42C469.124 26.025 466.264 21.085 460.414 21.085C459.634 21.085 451.769 25.765 450.989 26.61V21.605C445.724 24.595 443.904 25.44 437.859 26.415C440.134 29.145 441.499 31.225 441.499 34.93V44.81C441.499 52.025 437.534 57.745 429.929 57.745C423.104 57.745 418.229 53.26 418.229 46.305C418.229 41.3 420.374 37.4 424.729 34.93V48.515C424.729 51.7 428.174 53.65 431.034 53.65C433.894 53.65 435.324 52.61 437.534 50.985V50.335C437.144 50.595 436.689 50.725 436.234 50.725C434.414 50.725 434.219 47.93 434.219 46.695V31.745C434.219 24.79 429.084 21.085 422.454 21.085C416.994 21.085 409.844 23.62 409.844 30.12C409.844 32.655 411.339 35.06 414.069 35.06ZM518.801 21.605C513.536 24.66 511.716 25.44 505.671 26.415C507.946 29.145 509.311 31.225 509.311 34.93V44.16C509.311 46.565 508.986 49.88 507.296 51.895C500.926 46.955 494.751 34.735 491.241 28.17C493.191 22.385 501.901 17.965 507.751 17.965C509.831 17.965 512.171 18.55 513.146 20.63C516.851 20.63 519.711 17.575 519.711 13.935C519.711 10.295 516.916 8.28 513.471 8.28C503.136 8.28 488.966 25.44 485.521 34.41V6.98C480.321 9.97 478.436 10.75 472.456 11.725C474.731 14.455 476.096 16.6 476.096 20.24V44.16C476.096 47.085 475.511 51.375 472.716 53H488.836C485.911 51.31 485.521 47.15 485.521 44.16V36.425L494.686 53H522.051C519.126 51.375 518.801 47.15 518.801 44.16V21.605ZM572.471 21.085C565.386 21.085 556.871 24.595 556.871 32.85C556.871 39.48 562.201 43.055 567.986 44.225C563.436 44.29 556.286 44.94 556.286 50.855C556.286 53.845 558.951 56.51 561.941 56.51H580.271C580.336 64.05 573.446 67.755 566.686 67.755C559.601 67.755 553.296 63.595 553.296 55.99V31.42C553.296 26.025 550.436 21.085 544.586 21.085C543.806 21.085 536.396 25.505 535.161 26.675V21.605C529.896 24.66 528.076 25.44 522.031 26.415C524.306 29.145 525.671 31.225 525.671 34.93V44.16C525.671 47.085 525.151 51.375 522.356 53H538.411C535.486 51.375 535.161 47.15 535.161 44.16V30.51C535.616 28.105 537.046 25.895 539.711 25.895C542.896 25.895 543.806 29.015 543.806 31.68V55.86C543.806 66.26 557.976 69.12 565.971 69.315H566.621C577.346 69.315 589.761 66.065 589.761 53C589.761 49.815 587.421 48.32 584.431 48.32H569.741C568.831 48.32 567.141 48.255 567.141 46.955C567.141 45.395 570.001 44.875 572.146 44.68C579.426 44.68 587.941 41.43 587.941 32.85C587.941 26.155 582.416 22.58 576.566 21.475C577.541 20.565 578.711 19.915 580.271 19.915C581.701 19.915 583.001 20.63 583.521 21.995C583.846 22.06 584.301 22.125 584.626 22.125C587.421 22.125 589.956 20.435 589.956 17.445C589.956 14.845 587.876 13.22 585.341 13.22C580.791 13.22 577.541 17.38 575.266 21.28C574.291 21.15 573.381 21.085 572.471 21.085ZM574.551 42.925C568.701 42.925 565.841 33.76 565.841 29.08C565.841 26.545 566.556 22.97 569.741 22.97C575.851 22.97 578.906 31.29 578.906 36.36C578.906 39.155 577.996 42.925 574.551 42.925Z" fill="#1E2C31"/>
<path d="M98.2608 65.2406C71.223 66.2015 29.523 69.0538 79.0253 72.7759C119.454 75.8157 217.87 71.5741 286.382 67.7038C290.092 67.4943 290.091 63.3585 286.376 63.2745C199.647 61.3132 79.0253 70.0559 79.0253 83.2949" stroke="url(#paint1_linear_3609_31027)" stroke-width="2"/>
<defs>
<linearGradient id="paint0_linear_3609_31027" x1="7.70049e-06" y1="30.6667" x2="332.242" y2="110.359" gradientUnits="userSpaceOnUse">
<stop stop-color="#FFCC00"/>
<stop offset="0.901383" stop-color="#03599C"/>
</linearGradient>
<linearGradient id="paint1_linear_3609_31027" x1="128.487" y1="67.7301" x2="153.487" y2="117.279" gradientUnits="userSpaceOnUse">
<stop stop-color="#FFE600"/>
<stop offset="1" stop-color="#045A9D"/>
</linearGradient>
</defs>
</svg>
