<svg width="95" height="20" viewBox="0 0 95 20" fill="none" xmlns="http://www.w3.org/2000/svg">
<path d="M0.32 2.872C1.04 3.288 1.136 4.296 1.136 5.048V12.824C1.136 13.56 1.024 14.6 0.32 15H8.704L8.976 11.24C8.256 13.176 6.96 14.616 4.752 14.616H3.472V5.048C3.472 4.296 3.568 3.288 4.288 2.872H0.32ZM12.8028 7.144C10.6268 7.24 9.34675 9.16 9.34675 11.208C9.34675 13.416 10.9468 15.16 13.1868 15.16C14.7708 15.16 15.6668 14.472 16.4028 13.144L16.2748 13.048C15.9388 13.384 14.9468 13.496 14.4988 13.496C12.9788 13.496 12.0988 12.488 11.7788 11.08L15.7788 10.904C16.2108 10.888 16.3548 10.728 16.3548 10.296C16.3548 8.872 15.5228 7.704 14.1468 7.304C13.7468 6.984 13.6028 6.568 13.6028 6.072C13.6028 4.68 15.1548 3.736 16.4028 3.736C17.4268 3.736 18.8508 4.136 18.8508 5.4C18.8508 6.648 17.4748 7.304 16.4028 7.416V7.656H17.1868V13C17.1868 14.168 17.7148 15.16 18.9948 15.16C19.8748 15.16 20.7708 14.728 21.4108 14.136V13.976C21.1548 14.12 20.8508 14.184 20.5628 14.184C20.0188 14.184 19.5228 13.944 19.5228 13.32V7.656H21.1868V7.272H19.5228V6.536C19.5228 4.232 18.8348 3.4 16.4028 3.4C14.6428 3.4 12.5948 4.216 12.5948 6.264C12.5948 6.568 12.6748 6.872 12.8028 7.144ZM11.6988 10.68C11.6668 10.44 11.6508 10.216 11.6508 9.976C11.6508 9.32 11.8908 7.528 12.8188 7.528C13.6348 7.528 14.2268 8.472 14.2268 9.224C14.2268 10.6 12.6748 10.552 11.6988 10.68ZM22.9084 2.744C22.2684 2.744 21.7244 3.272 21.7244 3.912C21.7244 4.52 22.1884 5.016 22.7804 5.08C22.8124 5.144 22.8124 5.208 22.8124 5.272C22.8124 5.656 22.4604 6.184 22.1564 6.392H22.3164C23.2124 6.024 24.0764 4.904 24.0764 3.912C24.0764 3.272 23.5484 2.744 22.9084 2.744ZM27.4805 15.16C28.8725 15.16 31.0165 14.664 31.0165 12.904C31.0165 10.264 26.6165 10.328 26.6165 8.712C26.6165 8.008 27.1445 7.528 27.8485 7.528C28.4405 7.528 29.0325 7.912 29.0325 8.552C29.0325 8.888 28.8245 9.144 28.4725 9.144C28.6645 9.768 29.1285 10.216 29.8005 10.216C30.4565 10.216 30.8565 9.8 30.8565 9.144C30.8565 7.672 29.1125 7.144 27.9125 7.144C26.5685 7.144 24.7285 7.816 24.7285 9.416C24.7285 12.12 28.9205 11.992 28.9205 13.64C28.9205 14.44 28.1685 14.776 27.4805 14.776C26.9045 14.776 26.2325 14.44 26.2325 13.784C26.2325 13.4 26.5045 13.112 26.8885 13.112C26.7605 12.472 26.2805 11.816 25.5605 11.816C24.8085 11.816 24.4085 12.408 24.4085 13.112C24.4085 14.616 26.2805 15.16 27.4805 15.16ZM41.5464 15C40.8264 14.584 40.7304 13.576 40.7304 12.824V3.272C42.7624 3.432 43.9144 4.728 44.6344 6.632L44.3624 2.872H34.7464L34.4744 6.632C35.1944 4.712 36.3624 3.432 38.3944 3.272V12.824C38.3944 13.576 38.2984 14.584 37.5784 15H41.5464ZM50.1851 14.344C50.0891 14.408 49.9771 14.44 49.8651 14.44C49.4171 14.44 49.3691 13.752 49.3691 13.448V9.768C49.3691 8.056 48.1051 7.144 46.4731 7.144C45.1291 7.144 43.3691 7.768 43.3691 9.368C43.3691 9.992 43.7371 10.584 44.4091 10.584C45.3051 10.584 45.8811 9.864 46.1211 9.08C45.7531 9.08 45.4971 8.888 45.4971 8.504C45.4971 8.088 45.8171 7.528 46.2811 7.528C47.1131 7.528 47.0331 8.936 47.0331 9.48V9.992C46.0091 11.112 43.0811 11.784 43.0811 13.448C43.0811 14.648 43.8811 15.16 45.0011 15.16C45.9131 15.16 46.6171 14.84 47.1131 14.28C47.3371 14.824 48.0091 15.16 48.5851 15.16C49.3051 15.16 49.6411 14.904 50.1851 14.504V14.344ZM47.0331 13.944C46.8731 14.04 46.6651 14.104 46.4091 14.104C45.5931 14.104 45.4331 13.4 45.4331 12.728C45.4331 11.8 46.4251 11.112 47.0331 10.552V13.944ZM53.4976 3.656C52.2016 4.408 51.7536 4.6 50.2656 4.84C50.8256 5.512 51.1616 6.024 51.1616 6.936V12.824C51.1616 13.56 51.0496 14.6 50.3456 15H54.3136C53.5936 14.6 53.4976 13.56 53.4976 12.824V3.656ZM58.3445 15C57.6245 14.6 57.5285 13.56 57.5285 12.824V10.92L59.7845 15H63.2885C61.5605 14.04 59.9125 10.68 58.9685 8.92C59.1445 8.76 59.4005 8.664 59.6405 8.664C59.9765 8.664 60.3445 8.856 60.3445 9.24C60.3445 9.416 60.2805 9.576 60.1845 9.72C60.2805 10.024 60.6805 10.168 60.9685 10.168C61.8645 10.168 62.5525 9.464 62.5525 8.568C62.5525 7.64 61.8485 7.144 60.9685 7.144C59.5605 7.144 58.0565 9.272 57.5285 10.424V3.672C56.2325 4.408 55.7845 4.6 54.3125 4.84C54.8725 5.512 55.2085 6.024 55.2085 6.936V12.824C55.2085 13.544 55.0645 14.616 54.3765 15H58.3445Z" fill="white"/>
<circle cx="85" cy="10" r="10" fill="white"/>
<path d="M85.9711 13.9663C85.8427 13.8379 85.7811 13.6827 85.7862 13.5008C85.7913 13.3189 85.8583 13.1637 85.9872 13.0353L87.801 11.2215H80.6421C80.4601 11.2215 80.3075 11.1599 80.1843 11.0366C80.061 10.9133 79.9996 10.7609 80 10.5794C80 10.3975 80.0616 10.2449 80.1849 10.1217C80.3082 9.99839 80.4606 9.93697 80.6421 9.9374H87.801L85.9711 8.10754C85.8427 7.97913 85.7785 7.82654 85.7785 7.64976C85.7785 7.47298 85.8427 7.3206 85.9711 7.19262C86.0995 7.06421 86.2521 7 86.4289 7C86.6057 7 86.758 7.06421 86.886 7.19262L89.8234 10.13C89.8876 10.1942 89.9332 10.2638 89.9602 10.3387C89.9871 10.4136 90.0004 10.4938 90 10.5794C90 10.6651 89.9865 10.7453 89.9595 10.8202C89.9326 10.8951 89.8872 10.9647 89.8234 11.0289L86.87 13.9823C86.7523 14.1 86.6052 14.1589 86.4289 14.1589C86.2525 14.1589 86.0999 14.0947 85.9711 13.9663Z" fill="#0B6D8C"/>
</svg>
