<svg width="370" height="370" viewBox="0 0 370 370" fill="none" xmlns="http://www.w3.org/2000/svg">
<g clip-path="url(#clip0_4013_32081)">
<mask id="mask0_4013_32081" style="mask-type:alpha" maskUnits="userSpaceOnUse" x="0" y="0" width="370" height="370">
<circle cx="185" cy="185" r="185" fill="#ECF2FD"/>
</mask>
<g mask="url(#mask0_4013_32081)">
<circle cx="181" cy="196" r="185" fill="#ECF2FD"/>
<rect width="6.22171" height="63.4248" rx="2.48725" transform="matrix(-1 0 0 1 320 305.914)" fill="url(#paint0_linear_4013_32081)"/>
<rect width="6.22171" height="60.9376" rx="1.24362" transform="matrix(-1 0 0 1 318.754 307.156)" fill="url(#paint1_linear_4013_32081)"/>
<rect width="6.31025" height="42.1754" rx="2.48725" transform="matrix(1 -6.8175e-08 -1.12105e-07 -1 48 406.176)" fill="url(#paint2_linear_4013_32081)"/>
<rect width="6.31025" height="39.8104" rx="1.24362" transform="matrix(1 -5.67722e-08 -1.34621e-07 -1 49.1836 404.992)" fill="url(#paint3_linear_4013_32081)"/>
<rect width="6.31025" height="41.3871" rx="2.48725" transform="matrix(1 -6.8175e-08 -1.12105e-07 -1 48 347.441)" fill="url(#paint4_linear_4013_32081)"/>
<rect width="6.31025" height="18.1315" rx="2.48725" transform="matrix(1 -6.8175e-08 -1.12105e-07 -1 48.3926 291.078)" fill="url(#paint5_linear_4013_32081)"/>
<rect width="6.31025" height="39.8104" rx="1.24362" transform="matrix(1 -5.67722e-08 -1.34621e-07 -1 49.1797 346.652)" fill="url(#paint6_linear_4013_32081)"/>
<rect width="6.31025" height="15.7665" rx="1.24362" transform="matrix(1 -4.1633e-08 -1.83574e-07 -1 49.5762 289.895)" fill="url(#paint7_linear_4013_32081)"/>
<rect x="50.9082" y="143" width="266.135" height="533.515" rx="46.6359" fill="white"/>
<rect x="52.1523" y="144.242" width="263.648" height="531.027" rx="46.0141" fill="url(#paint8_linear_4013_32081)"/>
<rect x="53.2754" y="145.344" width="261.161" height="528.54" rx="44.7705" fill="black"/>
<rect x="59.7227" y="151.793" width="247.977" height="515.358" rx="39.9383" fill="white"/>
<g clip-path="url(#clip1_4013_32081)">
<rect x="59.1387" y="151.793" width="248.552" height="542.828" rx="35.1724" fill="white"/>
<g clip-path="url(#clip2_4013_32081)">
<path opacity="0.35" fill-rule="evenodd" clip-rule="evenodd" d="M282.08 165.492C281.415 165.492 281.152 165.537 280.88 165.664C280.651 165.771 280.473 165.927 280.35 166.128C280.205 166.366 280.154 166.596 280.154 167.179V169.778C280.154 170.361 280.205 170.592 280.35 170.829C280.473 171.03 280.651 171.186 280.88 171.294C281.152 171.421 281.415 171.465 282.08 171.465H292.083C292.749 171.465 293.012 171.421 293.283 171.294C293.512 171.186 293.69 171.03 293.813 170.829C293.958 170.592 294.009 170.361 294.009 169.778V167.179C294.009 166.596 293.958 166.366 293.813 166.128C293.69 165.927 293.512 165.771 293.283 165.664C293.012 165.537 292.749 165.492 292.083 165.492H282.08Z" stroke="black" stroke-width="0.578044"/>
<path opacity="0.4" d="M294.998 167.324V169.636C295.529 169.441 295.874 168.985 295.874 168.48C295.874 167.976 295.529 167.52 294.998 167.324Z" fill="black"/>
<path d="M282.27 166.359H291.89C292.282 166.359 292.425 166.395 292.568 166.462C292.711 166.529 292.824 166.628 292.9 166.754C292.977 166.879 293.018 167.004 293.018 167.347V169.61C293.018 169.954 292.977 170.078 292.9 170.204C292.824 170.33 292.711 170.428 292.568 170.495C292.425 170.563 292.282 170.598 291.89 170.598H282.27C281.878 170.598 281.736 170.563 281.593 170.495C281.449 170.428 281.337 170.33 281.26 170.204C281.183 170.078 281.143 169.954 281.143 169.61V167.347C281.143 167.004 281.183 166.879 281.26 166.754C281.337 166.628 281.449 166.529 281.593 166.462C281.736 166.395 281.878 166.359 282.27 166.359Z" fill="black"/>
<path d="M271.468 166.52C272.936 166.52 274.348 167.014 275.412 167.899C275.492 167.967 275.62 167.966 275.699 167.897L276.464 167.22C276.504 167.185 276.527 167.138 276.526 167.088C276.526 167.038 276.503 166.991 276.463 166.956C273.671 164.614 269.266 164.614 266.474 166.956C266.433 166.991 266.411 167.038 266.41 167.088C266.41 167.137 266.432 167.185 266.472 167.22L267.238 167.897C267.317 167.966 267.445 167.967 267.525 167.899C268.589 167.013 270.001 166.52 271.468 166.52ZM271.468 168.721C272.275 168.721 273.053 168.983 273.65 169.457C273.731 169.524 273.859 169.523 273.937 169.454L274.702 168.777C274.742 168.742 274.765 168.694 274.764 168.643C274.764 168.593 274.74 168.546 274.699 168.511C272.879 167.029 270.06 167.029 268.239 168.511C268.198 168.546 268.175 168.593 268.174 168.644C268.174 168.694 268.196 168.742 268.237 168.777L269.001 169.454C269.08 169.523 269.207 169.524 269.288 169.457C269.886 168.983 270.663 168.721 271.468 168.721ZM272.938 170.335C272.979 170.3 273.002 170.252 273.001 170.202C272.999 170.151 272.975 170.104 272.932 170.07C272.087 169.445 270.85 169.445 270.005 170.07C269.962 170.104 269.937 170.151 269.936 170.202C269.935 170.252 269.958 170.3 269.998 170.335L271.322 171.504C271.36 171.538 271.413 171.558 271.468 171.558C271.524 171.558 271.576 171.538 271.615 171.504L272.938 170.335Z" fill="black"/>
<path d="M252.556 169.244H253.216C253.58 169.244 253.876 169.503 253.876 169.822V170.978C253.876 171.298 253.58 171.556 253.216 171.556H252.556C252.192 171.556 251.896 171.298 251.896 170.978V169.822C251.896 169.503 252.192 169.244 252.556 169.244ZM255.635 168.088H256.295C256.659 168.088 256.954 168.347 256.954 168.666V170.978C256.954 171.298 256.659 171.556 256.295 171.556H255.635C255.271 171.556 254.975 171.298 254.975 170.978V168.666C254.975 168.347 255.271 168.088 255.635 168.088ZM258.714 166.739H259.374C259.738 166.739 260.033 166.998 260.033 167.317V170.978C260.033 171.298 259.738 171.556 259.374 171.556H258.714C258.349 171.556 258.054 171.298 258.054 170.978V167.317C258.054 166.998 258.349 166.739 258.714 166.739ZM261.793 165.391H262.452C262.817 165.391 263.112 165.649 263.112 165.969V170.978C263.112 171.298 262.817 171.556 262.452 171.556H261.793C261.428 171.556 261.133 171.298 261.133 170.978V165.969C261.133 165.649 261.428 165.391 261.793 165.391Z" fill="black"/>
<path d="M72.8164 170.695V164.886H71.958C71.6632 165.259 71.2557 165.406 70.7788 165.406V166.117H71.8366V170.695H72.8164ZM77.9897 170.695V169.828H75.7613L74.8942 169.915L75.5706 169.412L76.3769 168.701C76.9925 168.189 77.8249 167.383 77.8249 166.447C77.8249 165.493 77.2527 164.799 76.0821 164.799C74.7468 164.799 73.8017 165.649 73.8277 166.811L74.6515 167.4C74.5994 166.282 75.137 165.736 75.9954 165.736C76.559 165.736 76.8018 166.091 76.8018 166.507C76.8018 167.054 76.4029 167.496 75.8393 168.042L73.8364 169.95V170.695H77.9897ZM79.8515 167.834V166.603H78.7416V167.834H79.8515ZM79.8515 170.695V169.464H78.7416V170.695H79.8515ZM83.0919 170.773C84.7134 170.773 85.5284 169.49 85.5284 167.782C85.5284 166.083 84.7134 164.799 83.0919 164.799C81.4705 164.799 80.6468 166.083 80.6468 167.782C80.6468 169.49 81.4705 170.773 83.0919 170.773ZM83.0919 169.837C82.0601 169.837 81.6786 169.005 81.6786 167.782C81.6786 166.568 82.0601 165.727 83.0919 165.727C84.1324 165.727 84.5053 166.568 84.5053 167.782C84.5053 169.005 84.1324 169.837 83.0919 169.837ZM88.7567 170.773C90.3781 170.773 91.1931 169.49 91.1931 167.782C91.1931 166.083 90.3781 164.799 88.7567 164.799C87.1353 164.799 86.3115 166.083 86.3115 167.782C86.3115 169.49 87.1353 170.773 88.7567 170.773ZM88.7567 169.837C87.7249 169.837 87.3433 169.005 87.3433 167.782C87.3433 166.568 87.7249 165.727 88.7567 165.727C89.7971 165.727 90.17 166.568 90.17 167.782C90.17 169.005 89.7971 169.837 88.7567 169.837Z" fill="black"/>
</g>
<path d="M74.8758 211.483L71.1717 207.79C71.1277 207.746 71.0965 207.698 71.078 207.647C71.0596 207.596 71.0505 207.541 71.0508 207.482C71.0508 207.424 71.06 207.369 71.0785 207.317C71.097 207.266 71.128 207.218 71.1717 207.174L74.8758 203.47C74.9784 203.368 75.1066 203.316 75.2605 203.316C75.4144 203.316 75.5463 203.371 75.6562 203.481C75.7661 203.591 75.821 203.719 75.821 203.866C75.821 204.013 75.7661 204.141 75.6562 204.251L72.4247 207.482L75.6562 210.714C75.7588 210.816 75.8101 210.943 75.8101 211.093C75.8101 211.243 75.7551 211.373 75.6452 211.483C75.5353 211.593 75.407 211.648 75.2605 211.648C75.1139 211.648 74.9857 211.593 74.8758 211.483Z" fill="black"/>
<path d="M145.795 210.696C147.202 210.696 148.149 209.946 148.552 208.651L147.821 208.173C147.615 209.224 146.995 209.927 145.804 209.927C144.369 209.927 143.713 208.905 143.713 207.47C143.713 206.035 144.369 205.012 145.804 205.012C146.995 205.012 147.615 205.716 147.821 206.766L148.552 206.288C148.149 204.994 147.202 204.243 145.795 204.243C143.891 204.243 142.85 205.659 142.85 207.47C142.85 209.28 143.891 210.696 145.795 210.696ZM151.35 210.715C152.607 210.715 153.498 209.786 153.498 208.351C153.498 206.916 152.607 205.988 151.35 205.988C150.093 205.988 149.212 206.916 149.212 208.351C149.212 209.786 150.093 210.715 151.35 210.715ZM151.35 210.03C150.581 210.03 150.046 209.496 150.046 208.351C150.046 207.198 150.581 206.672 151.35 206.672C152.129 206.672 152.673 207.198 152.673 208.351C152.673 209.496 152.129 210.03 151.35 210.03ZM155.339 210.621V208.051C155.339 207.291 155.657 206.682 156.342 206.682C157.027 206.682 157.336 207.01 157.336 207.676V210.621H158.152V208.051C158.152 207.291 158.471 206.682 159.165 206.682C159.841 206.682 160.159 207.01 160.159 207.676V210.621H160.966V207.479C160.966 206.522 160.507 205.988 159.615 205.988C158.79 205.988 158.321 206.597 158.143 207.32C158.096 206.466 157.636 205.988 156.802 205.988C155.986 205.988 155.517 206.588 155.339 207.282V206.082H154.523V210.621H155.339ZM162.996 212.366V209.449C163.155 210.133 163.587 210.715 164.459 210.715C165.603 210.715 166.316 209.777 166.316 208.342C166.316 206.907 165.603 205.978 164.459 205.978C163.587 205.978 163.155 206.56 162.996 207.245V206.082H162.18V212.366H162.996ZM162.996 208.67V208.023C162.996 207.273 163.315 206.663 164.178 206.663C164.9 206.663 165.491 207.188 165.491 208.342C165.491 209.505 164.9 210.03 164.178 210.03C163.315 210.03 162.996 209.421 162.996 208.67ZM168.247 210.715C169.185 210.715 169.673 210.04 169.823 209.439V209.758C169.823 210.396 170.16 210.621 170.629 210.621H171.155V209.88H170.864C170.695 209.88 170.611 209.814 170.611 209.599V207.732C170.611 206.654 170.01 205.988 168.894 205.988C167.881 205.988 167.206 206.56 166.934 207.029L167.487 207.601C167.722 207.104 168.153 206.729 168.8 206.729C169.513 206.729 169.767 207.123 169.795 207.657L168.153 208.389C167.506 208.68 167.047 209.064 167.047 209.674C167.047 210.274 167.478 210.715 168.247 210.715ZM167.872 209.542C167.872 209.261 168.069 209.074 168.5 208.867L169.823 208.248V208.877C169.823 209.533 169.279 210.04 168.51 210.04C168.088 210.04 167.872 209.852 167.872 209.542ZM172.916 210.621V208.051C172.916 207.291 173.234 206.682 174.107 206.682C174.876 206.682 175.11 207.094 175.11 207.685V210.621H175.917V207.488C175.917 206.522 175.364 205.988 174.473 205.988C173.582 205.988 173.094 206.588 172.916 207.291V206.082H172.1V210.621H172.916ZM177.666 212.103C178.304 212.103 178.81 211.831 179.101 210.996L180.846 206.082H179.973L179.007 208.998L178.688 209.974L178.37 208.998L177.394 206.082H176.522L178.051 210.377L178.557 210.368L178.463 210.659C178.285 211.212 178.041 211.39 177.675 211.39C177.244 211.39 177.01 211.118 176.794 210.752L176.353 211.371C176.55 211.747 177.019 212.103 177.666 212.103ZM181.728 206.532C182.366 206.457 182.544 206.128 182.544 205.575V204.356H181.559V205.575H182.018V205.706C182.018 205.969 181.868 206.035 181.55 206.082L181.728 206.532ZM185.44 210.715C186.322 210.715 187.091 210.312 187.091 209.411C187.091 208.783 186.754 208.361 185.731 208.117L185.15 207.967C184.531 207.817 184.231 207.676 184.231 207.273C184.231 206.888 184.568 206.682 185.037 206.682C185.684 206.682 186.116 207.019 186.341 207.554L186.96 207.094C186.707 206.494 186.041 205.988 185.084 205.988C184.099 205.988 183.461 206.494 183.461 207.32C183.461 208.154 184.165 208.464 184.812 208.614L185.412 208.755C185.947 208.877 186.36 209.008 186.36 209.421C186.36 209.824 186.003 210.03 185.469 210.03C184.568 210.03 184.071 209.514 183.912 208.998L183.321 209.458C183.63 210.302 184.493 210.715 185.44 210.715ZM191.008 210.621V208.492H192.705C193.943 208.492 194.919 207.807 194.919 206.466C194.919 205.022 193.943 204.337 192.705 204.337H190.192V210.621H191.008ZM192.574 205.059C193.334 205.059 194.075 205.341 194.075 206.466C194.075 207.488 193.334 207.77 192.574 207.77H191.008V205.059H192.574ZM197.496 210.715C198.753 210.715 199.644 209.786 199.644 208.351C199.644 206.916 198.753 205.988 197.496 205.988C196.239 205.988 195.357 206.916 195.357 208.351C195.357 209.786 196.239 210.715 197.496 210.715ZM197.496 210.03C196.727 210.03 196.192 209.496 196.192 208.351C196.192 207.198 196.727 206.672 197.496 206.672C198.274 206.672 198.818 207.198 198.818 208.351C198.818 209.496 198.274 210.03 197.496 210.03ZM201.484 210.621V208.051C201.484 207.273 202.009 206.588 202.591 206.588C202.919 206.588 203.06 206.813 203.06 207.076C203.06 207.329 202.938 207.61 202.788 207.742H203.679C203.754 207.629 203.857 207.348 203.857 206.963C203.857 206.325 203.388 205.978 202.9 205.978C202.131 205.978 201.662 206.588 201.484 207.291V206.082H200.668V210.621H201.484ZM206.135 210.724C206.764 210.724 207.195 210.434 207.392 210.124L207.12 209.317C206.998 209.599 206.717 209.936 206.313 209.936C205.957 209.936 205.685 209.796 205.685 209.214V206.719H207.176V206.082H205.685V204.9L204.869 205.5V206.082H204.137V206.719H204.869V209.458C204.869 210.237 205.394 210.724 206.135 210.724ZM208.985 210.621V206.719H210.448V206.082H208.985V205.594C208.985 205.162 209.172 204.918 209.594 204.918C209.998 204.918 210.289 205.162 210.467 205.491L210.917 204.909C210.729 204.618 210.298 204.243 209.604 204.243C208.75 204.243 208.169 204.75 208.169 205.659V206.082H207.428V206.719H208.169V210.621H208.985ZM212.847 210.715C214.104 210.715 214.995 209.786 214.995 208.351C214.995 206.916 214.104 205.988 212.847 205.988C211.59 205.988 210.709 206.916 210.709 208.351C210.709 209.786 211.59 210.715 212.847 210.715ZM212.847 210.03C212.078 210.03 211.543 209.496 211.543 208.351C211.543 207.198 212.078 206.672 212.847 206.672C213.625 206.672 214.169 207.198 214.169 208.351C214.169 209.496 213.625 210.03 212.847 210.03ZM216.854 210.621V204.337H216.038V210.621H216.854ZM218.896 205.35V204.337H218.08V205.35H218.896ZM218.896 210.621V206.082H218.08V210.621H218.896ZM221.942 210.715C223.199 210.715 224.09 209.786 224.09 208.351C224.09 206.916 223.199 205.988 221.942 205.988C220.686 205.988 219.804 206.916 219.804 208.351C219.804 209.786 220.686 210.715 221.942 210.715ZM221.942 210.03C221.173 210.03 220.639 209.496 220.639 208.351C220.639 207.198 221.173 206.672 221.942 206.672C222.721 206.672 223.265 207.198 223.265 208.351C223.265 209.496 222.721 210.03 221.942 210.03Z" fill="black"/>
<path d="M74.1474 249.755C75.6548 249.755 76.2943 249.061 76.2943 247.271V243.543H75.4995V247.134C75.4995 248.531 75.1889 248.997 74.1565 248.997C73.1242 248.997 72.6492 248.257 72.567 247.188L71.8544 247.654C72.0462 248.915 72.8593 249.755 74.1474 249.755ZM79.2857 249.755C80.5099 249.755 81.3778 248.851 81.3778 247.453C81.3778 246.056 80.5099 245.151 79.2857 245.151C78.0616 245.151 77.2028 246.056 77.2028 247.453C77.2028 248.851 78.0616 249.755 79.2857 249.755ZM79.2857 249.089C78.5366 249.089 78.0159 248.568 78.0159 247.453C78.0159 246.33 78.5366 245.818 79.2857 245.818C80.044 245.818 80.5738 246.33 80.5738 247.453C80.5738 248.568 80.044 249.089 79.2857 249.089ZM83.1882 249.664V247.161C83.1882 246.421 83.4988 245.827 84.3484 245.827C85.0976 245.827 85.3259 246.229 85.3259 246.805V249.664H86.1116V246.613C86.1116 245.672 85.5726 245.151 84.7047 245.151C83.8368 245.151 83.3618 245.736 83.1882 246.421V243.543H82.3934V249.664H83.1882ZM88.0861 249.664V247.161C88.0861 246.421 88.3967 245.827 89.2463 245.827C89.9954 245.827 90.2238 246.229 90.2238 246.805V249.664H91.0094V246.613C91.0094 245.672 90.4705 245.151 89.6026 245.151C88.7347 245.151 88.2597 245.736 88.0861 246.421V245.242H87.2913V249.664H88.0861ZM92.9839 249.664V247.161C92.9839 246.421 93.2945 245.827 94.1441 245.827C94.8933 245.827 95.1216 246.229 95.1216 246.805V249.664H95.9073V246.613C95.9073 245.672 95.3683 245.151 94.5004 245.151C93.6326 245.151 93.1575 245.736 92.9839 246.421V245.242H92.1891V249.664H92.9839ZM97.6109 251.107C98.2322 251.107 98.7255 250.843 99.0087 250.029L100.708 245.242H99.8583L98.9173 248.084L98.6067 249.034L98.2961 248.084L97.346 245.242H96.4964L97.9855 249.427L98.4788 249.417L98.3875 249.701C98.2139 250.24 97.9764 250.413 97.6201 250.413C97.1998 250.413 96.9714 250.148 96.7613 249.792L96.332 250.395C96.5238 250.76 96.9806 251.107 97.6109 251.107ZM101.567 245.681C102.188 245.608 102.362 245.288 102.362 244.749V243.562H101.403V244.749H101.85V244.877C101.85 245.133 101.704 245.197 101.393 245.242L101.567 245.681ZM105.183 249.755C106.042 249.755 106.791 249.363 106.791 248.486C106.791 247.873 106.462 247.462 105.466 247.225L104.9 247.079C104.297 246.933 104.005 246.796 104.005 246.403C104.005 246.028 104.334 245.827 104.79 245.827C105.421 245.827 105.841 246.156 106.06 246.677L106.663 246.229C106.417 245.644 105.768 245.151 104.836 245.151C103.877 245.151 103.256 245.644 103.256 246.448C103.256 247.261 103.941 247.563 104.571 247.709L105.156 247.846C105.677 247.965 106.079 248.093 106.079 248.495C106.079 248.888 105.731 249.089 105.211 249.089C104.334 249.089 103.849 248.586 103.694 248.084L103.119 248.531C103.42 249.353 104.261 249.755 105.183 249.755ZM110.606 249.664V247.59H112.259C113.465 247.59 114.415 246.923 114.415 245.617C114.415 244.21 113.465 243.543 112.259 243.543H109.811V249.664H110.606ZM112.131 244.247C112.871 244.247 113.593 244.521 113.593 245.617C113.593 246.613 112.871 246.887 112.131 246.887H110.606V244.247H112.131ZM116.046 249.664V247.161C116.046 246.421 116.356 245.827 117.206 245.827C117.955 245.827 118.183 246.229 118.183 246.805V249.664H118.969V246.613C118.969 245.672 118.43 245.151 117.562 245.151C116.694 245.151 116.219 245.736 116.046 246.421V243.543H115.251V249.664H116.046ZM121.08 249.755C121.994 249.755 122.469 249.098 122.615 248.513V248.824C122.615 249.445 122.944 249.664 123.401 249.664H123.912V248.942H123.629C123.465 248.942 123.382 248.878 123.382 248.668V246.85C123.382 245.8 122.798 245.151 121.711 245.151C120.724 245.151 120.066 245.708 119.801 246.165L120.34 246.722C120.569 246.238 120.989 245.873 121.619 245.873C122.314 245.873 122.56 246.257 122.588 246.777L120.989 247.49C120.359 247.773 119.911 248.148 119.911 248.741C119.911 249.326 120.331 249.755 121.08 249.755ZM120.715 248.613C120.715 248.339 120.907 248.157 121.327 247.956L122.615 247.353V247.965C122.615 248.604 122.085 249.098 121.336 249.098C120.925 249.098 120.715 248.915 120.715 248.613ZM125.627 249.664V247.161C125.627 246.403 126.139 245.736 126.705 245.736C127.025 245.736 127.162 245.955 127.162 246.211C127.162 246.457 127.043 246.732 126.897 246.859H127.765C127.838 246.75 127.939 246.476 127.939 246.101C127.939 245.48 127.482 245.142 127.007 245.142C126.258 245.142 125.801 245.736 125.627 246.421V245.242H124.833V249.664H125.627ZM129.428 249.664V247.161C129.428 246.421 129.739 245.827 130.405 245.827C131.072 245.827 131.374 246.147 131.374 246.796V249.664H132.169V247.161C132.169 246.421 132.479 245.827 133.155 245.827C133.813 245.827 134.124 246.147 134.124 246.796V249.664H134.909V246.604C134.909 245.672 134.462 245.151 133.594 245.151C132.79 245.151 132.333 245.745 132.159 246.448C132.114 245.617 131.666 245.151 130.853 245.151C130.058 245.151 129.601 245.736 129.428 246.412V245.242H128.633V249.664H129.428ZM137.023 249.755C137.936 249.755 138.411 249.098 138.558 248.513V248.824C138.558 249.445 138.886 249.664 139.343 249.664H139.855V248.942H139.572C139.407 248.942 139.325 248.878 139.325 248.668V246.85C139.325 245.8 138.74 245.151 137.653 245.151C136.667 245.151 136.009 245.708 135.744 246.165L136.283 246.722C136.511 246.238 136.931 245.873 137.562 245.873C138.256 245.873 138.503 246.257 138.53 246.777L136.931 247.49C136.301 247.773 135.853 248.148 135.853 248.741C135.853 249.326 136.274 249.755 137.023 249.755ZM136.657 248.613C136.657 248.339 136.849 248.157 137.269 247.956L138.558 247.353V247.965C138.558 248.604 138.028 249.098 137.279 249.098C136.867 249.098 136.657 248.915 136.657 248.613ZM142.594 249.755C143.745 249.755 144.421 249.089 144.631 248.202L143.854 247.883C143.763 248.586 143.397 249.098 142.603 249.098C141.799 249.098 141.315 248.495 141.315 247.453C141.315 246.412 141.799 245.818 142.603 245.818C143.397 245.818 143.763 246.32 143.854 247.024L144.631 246.704C144.421 245.818 143.745 245.151 142.594 245.151C141.324 245.151 140.511 246.056 140.511 247.453C140.511 248.86 141.324 249.755 142.594 249.755ZM147.376 249.755C148.336 249.755 148.948 249.308 149.277 248.778L148.792 248.23C148.619 248.613 148.263 249.098 147.376 249.098C146.591 249.098 146.07 248.568 146.024 247.636H149.304C149.322 247.554 149.341 247.417 149.341 247.28C149.341 245.982 148.582 245.151 147.331 245.151C146.116 245.151 145.257 246.056 145.257 247.453C145.257 248.86 146.125 249.755 147.376 249.755ZM147.331 245.818C148.071 245.818 148.546 246.247 148.628 247.06H146.043C146.143 246.238 146.618 245.818 147.331 245.818ZM151.727 249.755C152.613 249.755 153.088 249.152 153.253 248.458V249.664H154.039V245.242H153.253V247.755C153.253 248.486 152.942 249.089 152.084 249.089C151.334 249.089 151.106 248.677 151.106 248.111V245.242H150.32V248.303C150.32 249.235 150.859 249.755 151.727 249.755ZM156.601 249.765C157.213 249.765 157.633 249.481 157.825 249.18L157.56 248.394C157.441 248.668 157.167 248.997 156.774 248.997C156.427 248.997 156.162 248.86 156.162 248.294V245.864H157.615V245.242H156.162V244.091L155.367 244.676V245.242H154.655V245.864H155.367V248.531C155.367 249.29 155.879 249.765 156.601 249.765ZM159.404 244.53V243.543H158.609V244.53H159.404ZM159.404 249.664V245.242H158.609V249.664H159.404ZM162.435 249.755C163.586 249.755 164.262 249.089 164.472 248.202L163.695 247.883C163.604 248.586 163.239 249.098 162.444 249.098C161.64 249.098 161.156 248.495 161.156 247.453C161.156 246.412 161.64 245.818 162.444 245.818C163.239 245.818 163.604 246.32 163.695 247.024L164.472 246.704C164.262 245.818 163.586 245.151 162.435 245.151C161.165 245.151 160.352 246.056 160.352 247.453C160.352 248.86 161.165 249.755 162.435 249.755ZM166.365 249.755C167.279 249.755 167.754 249.098 167.9 248.513V248.824C167.9 249.445 168.229 249.664 168.686 249.664H169.197V248.942H168.914C168.75 248.942 168.667 248.878 168.667 248.668V246.85C168.667 245.8 168.083 245.151 166.996 245.151C166.009 245.151 165.351 245.708 165.086 246.165L165.625 246.722C165.854 246.238 166.274 245.873 166.904 245.873C167.599 245.873 167.845 246.257 167.873 246.777L166.274 247.49C165.644 247.773 165.196 248.148 165.196 248.741C165.196 249.326 165.616 249.755 166.365 249.755ZM166 248.613C166 248.339 166.192 248.157 166.612 247.956L167.9 247.353V247.965C167.9 248.604 167.37 249.098 166.621 249.098C166.21 249.098 166 248.915 166 248.613ZM170.912 249.664V243.543H170.118V249.664H170.912ZM173.825 249.755C174.683 249.755 175.432 249.363 175.432 248.486C175.432 247.873 175.104 247.462 174.108 247.225L173.541 247.079C172.938 246.933 172.646 246.796 172.646 246.403C172.646 246.028 172.975 245.827 173.432 245.827C174.062 245.827 174.482 246.156 174.702 246.677L175.305 246.229C175.058 245.644 174.409 245.151 173.477 245.151C172.518 245.151 171.897 245.644 171.897 246.448C171.897 247.261 172.582 247.563 173.213 247.709L173.797 247.846C174.318 247.965 174.72 248.093 174.72 248.495C174.72 248.888 174.373 249.089 173.852 249.089C172.975 249.089 172.491 248.586 172.336 248.084L171.76 248.531C172.061 249.353 172.902 249.755 173.825 249.755Z" fill="black"/>
<circle cx="293.914" cy="203.082" r="0.879311" fill="black"/>
<circle cx="293.914" cy="207.77" r="0.879311" fill="black"/>
<circle cx="293.914" cy="212.461" r="0.879311" fill="black"/>
<rect x="70.8652" y="257.875" width="224.517" height="70.9311" rx="4.68966" fill="#8807F7"/>
<path d="M88.7877 284.809L89.66 281.749L89.9413 280.602L90.2298 281.749L91.095 284.809H91.8055L93.128 280.095H92.4386L91.707 283.015L91.4678 284.239L91.1794 283.029L90.3423 280.095H89.5685L88.7173 283.029L88.4219 284.239L88.1898 283.015L87.4722 280.095H86.7688L88.0772 284.809H88.7877ZM94.1586 284.879C94.862 284.879 95.2278 284.372 95.3404 283.922V284.161C95.3404 284.64 95.5936 284.809 95.9453 284.809H96.3393V284.253H96.1212C95.9946 284.253 95.9313 284.204 95.9313 284.042V282.642C95.9313 281.833 95.481 281.334 94.6439 281.334C93.8842 281.334 93.3777 281.763 93.1737 282.114L93.5888 282.543C93.7646 282.171 94.0882 281.889 94.5736 281.889C95.1082 281.889 95.2982 282.185 95.3193 282.586L94.0882 283.134C93.6028 283.352 93.2582 283.641 93.2582 284.098C93.2582 284.548 93.5817 284.879 94.1586 284.879ZM93.8772 284C93.8772 283.789 94.0249 283.648 94.3485 283.493L95.3404 283.029V283.5C95.3404 283.993 94.9324 284.372 94.3555 284.372C94.039 284.372 93.8772 284.232 93.8772 284ZM97.6599 284.809V280.095H97.0479V284.809H97.6599ZM99.1919 284.809V280.095H98.5799V284.809H99.1919ZM101.561 284.879C102.299 284.879 102.771 284.534 103.024 284.126L102.651 283.704C102.518 284 102.243 284.372 101.561 284.372C100.956 284.372 100.555 283.964 100.52 283.247H103.045C103.059 283.184 103.073 283.078 103.073 282.973C103.073 281.974 102.489 281.334 101.526 281.334C100.59 281.334 99.9289 282.03 99.9289 283.106C99.9289 284.19 100.597 284.879 101.561 284.879ZM101.526 281.847C102.095 281.847 102.461 282.178 102.525 282.804H100.534C100.611 282.171 100.977 281.847 101.526 281.847ZM104.933 284.886C105.405 284.886 105.728 284.668 105.876 284.436L105.672 283.831C105.581 284.042 105.37 284.295 105.067 284.295C104.8 284.295 104.596 284.19 104.596 283.753V281.882H105.714V281.404H104.596V280.518L103.984 280.968V281.404H103.435V281.882H103.984V283.936C103.984 284.52 104.378 284.886 104.933 284.886ZM110.003 284.809C111.023 284.809 111.628 284.344 111.628 283.542C111.628 282.937 111.284 282.452 110.299 282.347C111.087 282.262 111.417 281.805 111.417 281.298C111.417 280.581 110.939 280.095 110.039 280.095H108.048V284.809H110.003ZM109.828 280.637C110.39 280.637 110.784 280.813 110.784 281.376C110.784 281.946 110.397 282.114 109.856 282.114H108.66V280.637H109.828ZM109.926 282.663C110.538 282.663 110.995 282.895 110.995 283.465C110.995 284.028 110.651 284.267 109.905 284.267H108.66V282.663H109.926ZM113.167 284.879C113.87 284.879 114.236 284.372 114.349 283.922V284.161C114.349 284.64 114.602 284.809 114.954 284.809H115.347V284.253H115.129C115.003 284.253 114.939 284.204 114.939 284.042V282.642C114.939 281.833 114.489 281.334 113.652 281.334C112.892 281.334 112.386 281.763 112.182 282.114L112.597 282.543C112.773 282.171 113.096 281.889 113.582 281.889C114.116 281.889 114.306 282.185 114.327 282.586L113.096 283.134C112.611 283.352 112.266 283.641 112.266 284.098C112.266 284.548 112.59 284.879 113.167 284.879ZM112.885 284C112.885 283.789 113.033 283.648 113.357 283.493L114.349 283.029V283.5C114.349 283.993 113.941 284.372 113.364 284.372C113.047 284.372 112.885 284.232 112.885 284ZM116.668 284.809V280.095H116.056V284.809H116.668ZM118.292 284.879C118.995 284.879 119.361 284.372 119.473 283.922V284.161C119.473 284.64 119.727 284.809 120.078 284.809H120.472V284.253H120.254C120.128 284.253 120.064 284.204 120.064 284.042V282.642C120.064 281.833 119.614 281.334 118.777 281.334C118.017 281.334 117.511 281.763 117.307 282.114L117.722 282.543C117.898 282.171 118.221 281.889 118.707 281.889C119.241 281.889 119.431 282.185 119.452 282.586L118.221 283.134C117.736 283.352 117.391 283.641 117.391 284.098C117.391 284.548 117.715 284.879 118.292 284.879ZM118.01 284C118.01 283.789 118.158 283.648 118.481 283.493L119.473 283.029V283.5C119.473 283.993 119.065 284.372 118.488 284.372C118.172 284.372 118.01 284.232 118.01 284ZM121.793 284.809V282.881C121.793 282.311 122.032 281.854 122.686 281.854C123.263 281.854 123.439 282.164 123.439 282.607V284.809H124.044V282.459C124.044 281.735 123.629 281.334 122.961 281.334C122.292 281.334 121.927 281.784 121.793 282.311V281.404H121.181V284.809H121.793ZM126.352 284.879C127.239 284.879 127.759 284.365 127.921 283.683L127.323 283.437C127.253 283.979 126.972 284.372 126.36 284.372C125.74 284.372 125.368 283.908 125.368 283.106C125.368 282.304 125.74 281.847 126.36 281.847C126.972 281.847 127.253 282.234 127.323 282.776L127.921 282.529C127.759 281.847 127.239 281.334 126.352 281.334C125.375 281.334 124.749 282.03 124.749 283.106C124.749 284.19 125.375 284.879 126.352 284.879ZM130.035 284.879C130.774 284.879 131.245 284.534 131.499 284.126L131.126 283.704C130.992 284 130.718 284.372 130.035 284.372C129.43 284.372 129.029 283.964 128.994 283.247H131.52C131.534 283.184 131.548 283.078 131.548 282.973C131.548 281.974 130.964 281.334 130 281.334C129.065 281.334 128.403 282.03 128.403 283.106C128.403 284.19 129.072 284.879 130.035 284.879ZM130 281.847C130.57 281.847 130.936 282.178 130.999 282.804H129.008C129.086 282.171 129.452 281.847 130 281.847Z" fill="white"/>
<path d="M87.6481 299.602V296.127H86.8321V295.085H87.6481V294.072H86.8321V293.031H87.6481V289.556H89.8569L90.9543 293.031H92.2346V289.556H93.7962V293.031H94.5982V294.072H93.7962V295.085H94.5982V296.127H93.7962V299.602H91.5733L90.4478 296.127H89.2098V299.602H87.6481ZM89.2098 295.085H90.1383L89.8288 294.072H89.1816L89.2098 295.085ZM92.2768 297.407H92.3471L92.2909 296.127H91.911L92.2768 297.407ZM89.1535 293.031H89.5474L89.1394 291.681H89.0831L89.1535 293.031ZM91.6155 295.085H92.2627L92.2346 294.072H91.292L91.6155 295.085ZM101.594 299.602V297.477H103.184V296.098H101.594V290.175H99.92L95.3054 296.253V297.477H100.018V299.602H101.594ZM97.0499 296.098L100.018 292.229V296.098H97.0499ZM104.589 301.234C105.644 301.121 106.052 300.572 106.052 299.63V297.604H104.252V299.602H105.082V299.784C105.082 300.249 104.772 300.347 104.266 300.403L104.589 301.234ZM111.077 299.728C113.708 299.728 115.03 297.646 115.03 294.874C115.03 292.117 113.708 290.035 111.077 290.035C108.446 290.035 107.109 292.117 107.109 294.874C107.109 297.646 108.446 299.728 111.077 299.728ZM111.077 298.209C109.403 298.209 108.784 296.858 108.784 294.874C108.784 292.905 109.403 291.54 111.077 291.54C112.765 291.54 113.37 292.905 113.37 294.874C113.37 296.858 112.765 298.209 111.077 298.209ZM120.268 299.728C122.899 299.728 124.222 297.646 124.222 294.874C124.222 292.117 122.899 290.035 120.268 290.035C117.637 290.035 116.301 292.117 116.301 294.874C116.301 297.646 117.637 299.728 120.268 299.728ZM120.268 298.209C118.594 298.209 117.975 296.858 117.975 294.874C117.975 292.905 118.594 291.54 120.268 291.54C121.957 291.54 122.562 292.905 122.562 294.874C122.562 296.858 121.957 298.209 120.268 298.209ZM129.46 299.728C132.091 299.728 133.413 297.646 133.413 294.874C133.413 292.117 132.091 290.035 129.46 290.035C126.829 290.035 125.492 292.117 125.492 294.874C125.492 297.646 126.829 299.728 129.46 299.728ZM129.46 298.209C127.786 298.209 127.167 296.858 127.167 294.874C127.167 292.905 127.786 291.54 129.46 291.54C131.148 291.54 131.753 292.905 131.753 294.874C131.753 296.858 131.148 298.209 129.46 298.209ZM136.279 299.602V297.604H134.478V299.602H136.279ZM141.303 299.728C143.934 299.728 145.256 297.646 145.256 294.874C145.256 292.117 143.934 290.035 141.303 290.035C138.672 290.035 137.336 292.117 137.336 294.874C137.336 297.646 138.672 299.728 141.303 299.728ZM141.303 298.209C139.629 298.209 139.01 296.858 139.01 294.874C139.01 292.905 139.629 291.54 141.303 291.54C142.991 291.54 143.596 292.905 143.596 294.874C143.596 296.858 142.991 298.209 141.303 298.209ZM150.495 299.728C153.126 299.728 154.448 297.646 154.448 294.874C154.448 292.117 153.126 290.035 150.495 290.035C147.864 290.035 146.527 292.117 146.527 294.874C146.527 297.646 147.864 299.728 150.495 299.728ZM150.495 298.209C148.82 298.209 148.201 296.858 148.201 294.874C148.201 292.905 148.82 291.54 150.495 291.54C152.183 291.54 152.788 292.905 152.788 294.874C152.788 296.858 152.183 298.209 150.495 298.209Z" fill="white"/>
<rect x="236.762" y="282.5" width="50.7241" height="17.0345" rx="2.34483" fill="white"/>
<path d="M243.961 293.016V287.517H243.247V293.016H243.961ZM245.874 293.016V290.767C245.874 290.102 246.153 289.569 246.917 289.569C247.59 289.569 247.795 289.93 247.795 290.447V293.016H248.501V290.275C248.501 289.429 248.016 288.961 247.237 288.961C246.457 288.961 246.03 289.487 245.874 290.102V289.043H245.16V293.016H245.874ZM251.231 293.016L252.675 289.043H251.912L251.132 291.399L250.796 292.49L250.451 291.399L249.663 289.043H248.892L250.328 293.016H251.231ZM254.753 293.098C255.615 293.098 256.165 292.696 256.46 292.22L256.025 291.727C255.869 292.072 255.549 292.507 254.753 292.507C254.047 292.507 253.58 292.031 253.539 291.194H256.485C256.501 291.12 256.518 290.997 256.518 290.874C256.518 289.708 255.837 288.961 254.712 288.961C253.621 288.961 252.849 289.774 252.849 291.03C252.849 292.293 253.629 293.098 254.753 293.098ZM254.712 289.561C255.377 289.561 255.804 289.946 255.878 290.677H253.555C253.645 289.938 254.072 289.561 254.712 289.561ZM258.901 293.098C259.673 293.098 260.346 292.745 260.346 291.957C260.346 291.407 260.05 291.038 259.156 290.824L258.647 290.693C258.105 290.562 257.843 290.439 257.843 290.086C257.843 289.749 258.138 289.569 258.548 289.569C259.115 289.569 259.492 289.864 259.689 290.332L260.231 289.93C260.009 289.405 259.427 288.961 258.59 288.961C257.728 288.961 257.17 289.405 257.17 290.127C257.17 290.857 257.785 291.128 258.352 291.259L258.877 291.382C259.345 291.489 259.706 291.604 259.706 291.965C259.706 292.318 259.394 292.499 258.926 292.499C258.138 292.499 257.703 292.047 257.564 291.596L257.047 291.998C257.317 292.737 258.072 293.098 258.901 293.098ZM262.415 293.106C262.965 293.106 263.342 292.851 263.514 292.581L263.276 291.875C263.17 292.121 262.924 292.417 262.571 292.417C262.259 292.417 262.021 292.293 262.021 291.785V289.602H263.326V289.043H262.021V288.009L261.307 288.535V289.043H260.667V289.602H261.307V291.998C261.307 292.679 261.766 293.106 262.415 293.106ZM266.762 293.016V289.437L266.721 288.707L267.214 289.437L269.733 293.016H270.373V287.517H269.659V291.03L269.7 291.867L269.134 291.013L266.68 287.517H266.048V293.016H266.762ZM273.096 293.098C274.196 293.098 274.976 292.285 274.976 291.03C274.976 289.774 274.196 288.961 273.096 288.961C271.997 288.961 271.225 289.774 271.225 291.03C271.225 292.285 271.997 293.098 273.096 293.098ZM273.096 292.499C272.423 292.499 271.956 292.031 271.956 291.03C271.956 290.02 272.423 289.561 273.096 289.561C273.777 289.561 274.253 290.02 274.253 291.03C274.253 292.031 273.777 292.499 273.096 292.499ZM277.198 293.016L277.879 290.693L278.15 289.634L278.404 290.693L279.085 293.016H280.021L281.047 289.043H280.251L279.742 291.489L279.553 292.499L279.299 291.489L278.585 289.043H277.707L276.984 291.489L276.738 292.499L276.549 291.489L276.032 289.043H275.236L276.27 293.016H277.198Z" fill="black"/>
</g>
<rect x="146.482" y="158.828" width="75.0345" height="22.8621" rx="11.431" fill="#000001"/>
<g opacity="0.5">
<circle cx="209.793" cy="169.967" r="4.68966" transform="rotate(90 209.793 169.967)" stroke="#A0A9BB" stroke-opacity="0.25" stroke-width="0.586207"/>
<circle cx="209.793" cy="169.967" r="4.68966" transform="rotate(90 209.793 169.967)" stroke="url(#paint9_linear_4013_32081)" stroke-width="0.586207"/>
</g>
<g filter="url(#filter0_i_4013_32081)">
<ellipse cx="209.792" cy="171.967" rx="1.21683" ry="2.34483" transform="rotate(90 209.792 171.967)" fill="url(#paint10_radial_4013_32081)"/>
</g>
<g filter="url(#filter1_i_4013_32081)">
<ellipse cx="1.21683" cy="2.34483" rx="1.21683" ry="2.34483" transform="matrix(-1.19249e-08 -1 -1 1.19249e-08 212.137 169.277)" fill="url(#paint11_radial_4013_32081)"/>
</g>
<rect x="52.1523" y="200.203" width="1.24362" height="8.70537" fill="url(#paint12_linear_4013_32081)"/>
<rect x="314.557" y="200.203" width="1.24362" height="8.70537" fill="url(#paint13_linear_4013_32081)"/>
<rect x="267.299" y="144.242" width="1.24362" height="8.70537" transform="rotate(90 267.299 144.242)" fill="url(#paint14_linear_4013_32081)"/>
<rect x="106.871" y="144.242" width="1.24362" height="8.70537" transform="rotate(90 106.871 144.242)" fill="url(#paint15_linear_4013_32081)"/>
</g>
</g>
<defs>
<filter id="filter0_i_4013_32081" x="207.447" y="170.75" width="4.68945" height="2.43359" filterUnits="userSpaceOnUse" color-interpolation-filters="sRGB">
<feFlood flood-opacity="0" result="BackgroundImageFix"/>
<feBlend mode="normal" in="SourceGraphic" in2="BackgroundImageFix" result="shape"/>
<feColorMatrix in="SourceAlpha" type="matrix" values="0 0 0 0 0 0 0 0 0 0 0 0 0 0 0 0 0 0 127 0" result="hardAlpha"/>
<feOffset/>
<feGaussianBlur stdDeviation="0.293104"/>
<feComposite in2="hardAlpha" operator="arithmetic" k2="-1" k3="1"/>
<feColorMatrix type="matrix" values="0 0 0 0 0 0 0 0 0 0 0 0 0 0 0 0 0 0 0.5 0"/>
<feBlend mode="normal" in2="shape" result="effect1_innerShadow_4013_32081"/>
</filter>
<filter id="filter1_i_4013_32081" x="207.447" y="166.844" width="4.68945" height="2.43359" filterUnits="userSpaceOnUse" color-interpolation-filters="sRGB">
<feFlood flood-opacity="0" result="BackgroundImageFix"/>
<feBlend mode="normal" in="SourceGraphic" in2="BackgroundImageFix" result="shape"/>
<feColorMatrix in="SourceAlpha" type="matrix" values="0 0 0 0 0 0 0 0 0 0 0 0 0 0 0 0 0 0 127 0" result="hardAlpha"/>
<feOffset/>
<feGaussianBlur stdDeviation="0.293104"/>
<feComposite in2="hardAlpha" operator="arithmetic" k2="-1" k3="1"/>
<feColorMatrix type="matrix" values="0 0 0 0 0 0 0 0 0 0 0 0 0 0 0 0 0 0 0.5 0"/>
<feBlend mode="normal" in2="shape" result="effect1_innerShadow_4013_32081"/>
</filter>
<linearGradient id="paint0_linear_4013_32081" x1="3.11085" y1="0" x2="3.11085" y2="63.4248" gradientUnits="userSpaceOnUse">
<stop stop-color="#4F4F4F"/>
<stop offset="1" stop-color="#171717"/>
</linearGradient>
<linearGradient id="paint1_linear_4013_32081" x1="3.11085" y1="0" x2="3.11085" y2="60.9376" gradientUnits="userSpaceOnUse">
<stop stop-color="#898989"/>
<stop offset="1" stop-color="#5F5F5F"/>
</linearGradient>
<linearGradient id="paint2_linear_4013_32081" x1="3.15512" y1="0" x2="3.15512" y2="42.1754" gradientUnits="userSpaceOnUse">
<stop stop-color="#171717"/>
<stop offset="1" stop-color="#464646"/>
</linearGradient>
<linearGradient id="paint3_linear_4013_32081" x1="3.15513" y1="0" x2="3.15513" y2="39.8104" gradientUnits="userSpaceOnUse">
<stop stop-color="#898989"/>
<stop offset="1" stop-color="#5F5F5F"/>
</linearGradient>
<linearGradient id="paint4_linear_4013_32081" x1="3.15513" y1="0" x2="3.15513" y2="41.3871" gradientUnits="userSpaceOnUse">
<stop stop-color="#171717"/>
<stop offset="1" stop-color="#707070"/>
</linearGradient>
<linearGradient id="paint5_linear_4013_32081" x1="3.15512" y1="0" x2="3.15512" y2="18.1315" gradientUnits="userSpaceOnUse">
<stop stop-color="#171717"/>
<stop offset="1" stop-color="#7C7C7C"/>
</linearGradient>
<linearGradient id="paint6_linear_4013_32081" x1="3.15513" y1="0" x2="3.15513" y2="39.8104" gradientUnits="userSpaceOnUse">
<stop stop-color="#898989"/>
<stop offset="1" stop-color="#B9B9B9"/>
</linearGradient>
<linearGradient id="paint7_linear_4013_32081" x1="3.15512" y1="0" x2="3.15512" y2="15.7665" gradientUnits="userSpaceOnUse">
<stop stop-color="#898989"/>
<stop offset="1" stop-color="white"/>
</linearGradient>
<linearGradient id="paint8_linear_4013_32081" x1="315.801" y1="144.242" x2="52.1524" y2="675.269" gradientUnits="userSpaceOnUse">
<stop stop-color="#EFEFEF"/>
<stop offset="1" stop-color="#555555"/>
</linearGradient>
<linearGradient id="paint9_linear_4013_32081" x1="204.014" y1="168.962" x2="208.511" y2="176.199" gradientUnits="userSpaceOnUse">
<stop stop-color="#010005" stop-opacity="0.66"/>
<stop offset="1" stop-color="#2E2D31"/>
</linearGradient>
<radialGradient id="paint10_radial_4013_32081" cx="0" cy="0" r="1" gradientUnits="userSpaceOnUse" gradientTransform="translate(209.179 171.967) rotate(90) scale(3.00688 1.23623)">
<stop stop-color="#1F85DE"/>
<stop offset="0.257948" stop-color="#1B75C9"/>
<stop offset="1" stop-color="#000232"/>
</radialGradient>
<radialGradient id="paint11_radial_4013_32081" cx="0" cy="0" r="1" gradientUnits="userSpaceOnUse" gradientTransform="translate(0.603618 2.34483) rotate(90) scale(3.00688 1.23623)">
<stop stop-color="#1F85DE"/>
<stop offset="0.257948" stop-color="#1B75C9"/>
<stop offset="1" stop-color="#000232"/>
</radialGradient>
<linearGradient id="paint12_linear_4013_32081" x1="52.7742" y1="200.203" x2="52.7742" y2="208.908" gradientUnits="userSpaceOnUse">
<stop stop-color="#5A5A5A"/>
<stop offset="0.53125" stop-color="#242424"/>
<stop offset="1" stop-color="#585858"/>
</linearGradient>
<linearGradient id="paint13_linear_4013_32081" x1="315.178" y1="200.203" x2="315.178" y2="208.908" gradientUnits="userSpaceOnUse">
<stop stop-color="#5A5A5A"/>
<stop offset="0.53125" stop-color="#242424"/>
<stop offset="1" stop-color="#585858"/>
</linearGradient>
<linearGradient id="paint14_linear_4013_32081" x1="267.921" y1="144.242" x2="267.921" y2="152.948" gradientUnits="userSpaceOnUse">
<stop stop-color="#5A5A5A"/>
<stop offset="0.53125" stop-color="#242424"/>
<stop offset="1" stop-color="#585858"/>
</linearGradient>
<linearGradient id="paint15_linear_4013_32081" x1="107.493" y1="144.242" x2="107.493" y2="152.948" gradientUnits="userSpaceOnUse">
<stop stop-color="#5A5A5A"/>
<stop offset="0.53125" stop-color="#242424"/>
<stop offset="1" stop-color="#585858"/>
</linearGradient>
<clipPath id="clip0_4013_32081">
<rect width="370" height="370" fill="white"/>
</clipPath>
<clipPath id="clip1_4013_32081">
<rect x="59.1387" y="151.793" width="248.552" height="542.828" rx="35.1724" fill="white"/>
</clipPath>
<clipPath id="clip2_4013_32081">
<rect width="247.403" height="32.3705" fill="white" transform="translate(59.1055 151.711)"/>
</clipPath>
</defs>
</svg>
