<svg width="78" height="72" viewBox="0 0 78 72" fill="none" xmlns="http://www.w3.org/2000/svg">
<g filter="url(#filter0_d_2130_35197)">
<rect x="13" y="8" width="52" height="46" rx="9.73913" fill="white" shape-rendering="crispEdges"/>
<path d="M32 38H41V34C41 33.7167 41.096 33.479 41.288 33.287C41.4793 33.0957 41.7167 33 42 33H46V24H32V38ZM32 40C31.45 40 30.979 39.8043 30.587 39.413C30.1957 39.021 30 38.55 30 38V24C30 23.45 30.1957 22.979 30.587 22.587C30.979 22.1957 31.45 22 32 22H46C46.55 22 47.021 22.1957 47.413 22.587C47.8043 22.979 48 23.45 48 24V34L42 40H32ZM35 33C34.7167 33 34.479 32.904 34.287 32.712C34.0957 32.5207 34 32.2833 34 32C34 31.7167 34.0957 31.479 34.287 31.287C34.479 31.0957 34.7167 31 35 31H38C38.2833 31 38.521 31.0957 38.713 31.287C38.9043 31.479 39 31.7167 39 32C39 32.2833 38.9043 32.5207 38.713 32.712C38.521 32.904 38.2833 33 38 33H35ZM35 29C34.7167 29 34.479 28.904 34.287 28.712C34.0957 28.5207 34 28.2833 34 28C34 27.7167 34.0957 27.479 34.287 27.287C34.479 27.0957 34.7167 27 35 27H43C43.2833 27 43.5207 27.0957 43.712 27.287C43.904 27.479 44 27.7167 44 28C44 28.2833 43.904 28.5207 43.712 28.712C43.5207 28.904 43.2833 29 43 29H35ZM32 38V24V38Z" fill="#1E2C31"/>
</g>
<defs>
<filter id="filter0_d_2130_35197" x="0.826086" y="0.695652" width="76.3478" height="70.3478" filterUnits="userSpaceOnUse" color-interpolation-filters="sRGB">
<feFlood flood-opacity="0" result="BackgroundImageFix"/>
<feColorMatrix in="SourceAlpha" type="matrix" values="0 0 0 0 0 0 0 0 0 0 0 0 0 0 0 0 0 0 127 0" result="hardAlpha"/>
<feOffset dy="4.86957"/>
<feGaussianBlur stdDeviation="6.08696"/>
<feComposite in2="hardAlpha" operator="out"/>
<feColorMatrix type="matrix" values="0 0 0 0 0.117647 0 0 0 0 0.172549 0 0 0 0 0.192157 0 0 0 0.16 0"/>
<feBlend mode="normal" in2="BackgroundImageFix" result="effect1_dropShadow_2130_35197"/>
<feBlend mode="normal" in="SourceGraphic" in2="effect1_dropShadow_2130_35197" result="shape"/>
</filter>
</defs>
</svg>
