<svg width="89" height="90" viewBox="0 0 89 90" fill="none" xmlns="http://www.w3.org/2000/svg">
<g clip-path="url(#clip0_2803_29208)">
<rect x="0.732422" y="0.207031" width="88.0751" height="89.6339" rx="15.5885" fill="url(#paint0_linear_2803_29208)"/>
<path d="M42.1045 32.2933L43.1759 31.1227V38.2452C43.1759 38.7714 43.3849 39.2761 43.757 39.6481C44.129 40.0202 44.6337 40.2292 45.1598 40.2292C45.686 40.2292 46.1907 40.0202 46.5627 39.6481C46.9348 39.2761 47.1438 38.7714 47.1438 38.2452V31.1227L48.2152 32.2139C48.3953 32.4173 48.6152 32.5816 48.8614 32.6965C49.1076 32.8114 49.3747 32.8745 49.6463 32.882C49.9179 32.8894 50.1881 32.841 50.4402 32.7397C50.6923 32.6385 50.9209 32.4865 51.1118 32.2933C51.2978 32.1088 51.4454 31.8894 51.5461 31.6476C51.6468 31.4059 51.6987 31.1465 51.6987 30.8846C51.6987 30.6227 51.6468 30.3634 51.5461 30.1216C51.4454 29.8799 51.2978 29.6604 51.1118 29.476L46.5685 24.9327C46.3798 24.752 46.1573 24.6104 45.9138 24.516C45.4307 24.3176 44.889 24.3176 44.4059 24.516C44.1624 24.6104 43.9399 24.752 43.7512 24.9327L39.2079 29.3966C38.8238 29.7808 38.608 30.3017 38.608 30.8449C38.608 31.3882 38.8238 31.9091 39.2079 32.2933C39.592 32.6774 40.113 32.8932 40.6562 32.8932C41.1994 32.8932 41.7204 32.6774 42.1045 32.2933ZM45.1598 44.1972C43.9827 44.1972 42.8319 44.5463 41.8531 45.2003C40.8743 45.8543 40.1114 46.7839 39.6609 47.8715C39.2104 48.959 39.0926 50.1558 39.3222 51.3104C39.5519 52.4649 40.1188 53.5255 40.9512 54.3579C41.7836 55.1903 42.8441 55.7571 43.9987 55.9868C45.1532 56.2165 46.35 56.0986 47.4376 55.6481C48.5252 55.1976 49.4547 54.4347 50.1087 53.4559C50.7627 52.4771 51.1118 51.3264 51.1118 50.1492C51.1118 48.5706 50.4847 47.0567 49.3685 45.9405C48.2523 44.8243 46.7384 44.1972 45.1598 44.1972ZM45.1598 52.1332C44.7675 52.1332 44.3839 52.0168 44.0576 51.7988C43.7313 51.5808 43.477 51.271 43.3269 50.9084C43.1767 50.5459 43.1374 50.147 43.214 49.7621C43.2905 49.3773 43.4795 49.0238 43.757 48.7463C44.0344 48.4688 44.3879 48.2799 44.7728 48.2033C45.1576 48.1268 45.5566 48.1661 45.9191 48.3162C46.2816 48.4664 46.5915 48.7207 46.8095 49.0469C47.0275 49.3732 47.1438 49.7568 47.1438 50.1492C47.1438 50.6754 46.9348 51.18 46.5627 51.5521C46.1907 51.9242 45.686 52.1332 45.1598 52.1332ZM31.2719 50.1492C31.2719 50.5416 31.3883 50.9252 31.6063 51.2514C31.8243 51.5777 32.1341 51.832 32.4967 51.9822C32.8592 52.1323 33.2581 52.1716 33.643 52.0951C34.0278 52.0185 34.3813 51.8295 34.6588 51.5521C34.9363 51.2746 35.1252 50.9211 35.2018 50.5362C35.2783 50.1514 35.239 49.7525 35.0889 49.3899C34.9387 49.0274 34.6844 48.7176 34.3581 48.4996C34.0319 48.2816 33.6483 48.1652 33.2559 48.1652C32.7297 48.1652 32.2251 48.3742 31.853 48.7463C31.4809 49.1184 31.2719 49.623 31.2719 50.1492ZM59.0478 50.1492C59.0478 49.7568 58.9314 49.3732 58.7134 49.0469C58.4954 48.7207 58.1856 48.4664 57.823 48.3162C57.4605 48.1661 57.0616 48.1268 56.6767 48.2033C56.2919 48.2799 55.9384 48.4688 55.6609 48.7463C55.3834 49.0238 55.1945 49.3773 55.1179 49.7621C55.0414 50.147 55.0807 50.5459 55.2308 50.9084C55.381 51.271 55.6353 51.5808 55.9616 51.7988C56.2878 52.0168 56.6714 52.1332 57.0638 52.1332C57.59 52.1332 58.0946 51.9242 58.4667 51.5521C58.8388 51.18 59.0478 50.6754 59.0478 50.1492ZM61.0318 36.2612H53.0958C52.5696 36.2612 52.065 36.4703 51.6929 36.8423C51.3209 37.2144 51.1118 37.7191 51.1118 38.2452C51.1118 38.7714 51.3209 39.2761 51.6929 39.6481C52.065 40.0202 52.5696 40.2292 53.0958 40.2292H61.0318C61.558 40.2292 62.0626 40.4383 62.4347 40.8103C62.8068 41.1824 63.0158 41.687 63.0158 42.2132V58.0852C63.0158 58.6113 62.8068 59.116 62.4347 59.4881C62.0626 59.8601 61.558 60.0691 61.0318 60.0691H29.2879C28.7617 60.0691 28.2571 59.8601 27.885 59.4881C27.5129 59.116 27.3039 58.6113 27.3039 58.0852V42.2132C27.3039 41.687 27.5129 41.1824 27.885 40.8103C28.2571 40.4383 28.7617 40.2292 29.2879 40.2292H37.2239C37.7501 40.2292 38.2547 40.0202 38.6268 39.6481C38.9988 39.2761 39.2079 38.7714 39.2079 38.2452C39.2079 37.7191 38.9988 37.2144 38.6268 36.8423C38.2547 36.4703 37.7501 36.2612 37.2239 36.2612H29.2879C27.7094 36.2612 26.1954 36.8883 25.0792 38.0045C23.963 39.1208 23.3359 40.6347 23.3359 42.2132V58.0852C23.3359 59.6637 23.963 61.1776 25.0792 62.2938C26.1954 63.4101 27.7094 64.0371 29.2879 64.0371H61.0318C62.6103 64.0371 64.1243 63.4101 65.2405 62.2938C66.3567 61.1776 66.9838 59.6637 66.9838 58.0852V42.2132C66.9838 40.6347 66.3567 39.1208 65.2405 38.0045C64.1243 36.8883 62.6103 36.2612 61.0318 36.2612Z" fill="white"/>
</g>
<defs>
<linearGradient id="paint0_linear_2803_29208" x1="44.77" y1="0.207031" x2="44.77" y2="89.841" gradientUnits="userSpaceOnUse">
<stop stop-color="white" stop-opacity="0.28"/>
<stop offset="1" stop-color="white" stop-opacity="0.39"/>
</linearGradient>
<clipPath id="clip0_2803_29208">
<rect x="0.732422" y="0.207031" width="88.0751" height="89.6339" rx="15" fill="white"/>
</clipPath>
</defs>
</svg>
