<svg width="40" height="40" viewBox="0 0 40 40" fill="none" xmlns="http://www.w3.org/2000/svg">
<g clip-path="url(#clip0_3374_29386)">
<circle cx="20" cy="20" r="20" fill="white"/>
<path d="M24.8291 23.6402C25.4991 23.2002 26.3791 23.6802 26.3791 24.4802V25.7702C26.3791 27.0402 25.3891 28.4002 24.1991 28.8002L21.0091 29.8602C20.4491 30.0502 19.5391 30.0502 18.9891 29.8602L15.7991 28.8002C14.5991 28.4002 13.6191 27.0402 13.6191 25.7702V24.4702C13.6191 23.6802 14.4991 23.2002 15.1591 23.6302L17.2191 24.9702C18.0091 25.5002 19.0091 25.7602 20.0091 25.7602C21.0091 25.7602 22.0091 25.5002 22.7991 24.9702L24.8291 23.6402Z" fill="#101828"/>
<path d="M27.9795 14.4586L21.9895 10.5286C20.9095 9.81859 19.1295 9.81859 18.0495 10.5286L12.0295 14.4586C10.0995 15.7086 10.0995 18.5386 12.0295 19.7986L13.6295 20.8386L18.0495 23.7186C19.1295 24.4286 20.9095 24.4286 21.9895 23.7186L26.3795 20.8386L27.7495 19.9386V22.9986C27.7495 23.4086 28.0895 23.7486 28.4995 23.7486C28.9095 23.7486 29.2495 23.4086 29.2495 22.9986V18.0786C29.6495 16.7886 29.2395 15.2886 27.9795 14.4586Z" fill="#101828"/>
</g>
<defs>
<clipPath id="clip0_3374_29386">
<rect width="40" height="40" rx="20" fill="white"/>
</clipPath>
</defs>
</svg>
