<svg width="565" height="210" viewBox="0 0 565 210" fill="none" xmlns="http://www.w3.org/2000/svg">
<path d="M1.3 53H17.42C14.56 51.375 14.105 47.15 14.105 44.16V34.28H15.925L26.325 53H40.56C34.58 49.685 29.055 39.74 25.87 33.825C33.215 32.265 37.44 26.285 37.44 18.94C37.44 9.385 30.68 3.73 21.32 3.73H1.3C4.225 5.42 4.615 9.515 4.615 12.57V44.16C4.615 47.15 4.16 51.375 1.3 53ZM14.105 32.72V5.29H14.17C23.01 5.29 28.015 10.555 28.015 19.265C28.015 28.17 22.88 32.72 14.105 32.72ZM67.014 36.295V34.735C67.014 26.35 61.619 21.085 53.234 21.085C44.004 21.085 38.479 28.95 38.479 37.595C38.479 46.565 44.979 53.65 54.079 53.65C60.514 53.65 64.154 50.855 67.144 45.46L66.624 45.07C65.259 46.435 61.229 46.89 59.409 46.89C53.104 46.89 49.594 42.47 48.359 37.075L67.014 36.295ZM58.304 29.535C58.304 32.72 56.159 34.28 53.234 34.735C51.479 34.995 49.789 35.255 48.034 35.45C47.904 34.475 47.839 33.5 47.839 32.525C47.839 29.86 48.814 22.645 52.584 22.645C55.899 22.645 58.304 26.545 58.304 29.535ZM112.448 20.565C98.408 20.565 93.598 35.32 89.438 46.11C87.748 42.08 82.548 30.38 82.548 26.675C82.548 24.465 83.588 22.32 85.733 21.605H67.793C71.758 23.425 75.333 34.15 76.958 38.245L82.873 53H88.398L94.248 38.375C97.433 30.445 101.723 24.01 111.148 24.01C118.103 24.01 120.248 31.615 120.248 37.335C120.248 40.78 118.753 52.09 113.748 52.09C108.548 52.09 107.638 43.12 107.638 39.48C107.638 36.49 108.483 26.415 112.903 26.415C105.038 26.415 97.758 30.64 97.758 39.22C97.758 47.995 105.168 53.65 113.488 53.65C123.108 53.65 130.063 46.045 130.063 36.62C130.063 25.96 122.588 20.565 112.448 20.565ZM143.765 6.915C138.5 9.97 136.68 10.75 130.635 11.725C132.91 14.455 134.275 16.535 134.275 20.24V44.16C134.275 47.15 133.82 51.375 130.96 53H147.08C144.155 51.375 143.765 47.15 143.765 44.16V6.915ZM146.44 21.605C149.3 23.23 149.755 27.455 149.755 30.445V43.185C149.755 48.58 152.615 53.52 158.465 53.52C159.245 53.52 167.435 48.645 168.02 47.8C168.345 49.555 168.995 51.375 169.385 53H181.02C178.355 49.685 177.38 47.02 177.38 42.795V21.605H164.64C167.565 23.23 167.89 27.455 167.89 30.445V39.675C167.89 41.235 167.76 42.925 167.76 44.615C167.24 46.76 165.81 48.71 163.34 48.71C160.155 48.71 159.245 45.59 159.245 42.925V21.605H146.44ZM194.035 13.48H193.06C190.915 19.395 187.47 21.605 181.36 22.19V23.165H184.545V44.875C184.545 49.62 186.69 53.65 191.89 53.65C195.465 53.65 199.105 51.895 201.705 49.49V48.84C200.665 49.425 199.43 49.685 198.26 49.685C196.05 49.685 194.035 48.71 194.035 46.175V23.165H200.795V21.605H194.035V13.48ZM209.846 20.11C212.446 20.11 214.591 17.965 214.591 15.365C214.591 12.765 212.446 10.62 209.846 10.62C207.246 10.62 205.101 12.765 205.101 15.365C205.101 17.965 207.246 20.11 209.846 20.11ZM218.426 53C215.501 51.375 215.176 47.15 215.176 44.16V21.605C209.911 24.66 208.091 25.44 202.046 26.415C204.321 29.145 205.686 31.225 205.686 34.93V44.16C205.686 47.085 205.166 51.375 202.371 53H218.426ZM234.673 21.085C225.638 21.085 218.943 28.56 218.943 37.4C218.943 46.305 225.638 53.65 234.673 53.65C243.708 53.65 250.338 46.24 250.338 37.4C250.338 28.56 243.708 21.085 234.673 21.085ZM236.753 51.895C230.253 51.895 228.043 36.425 228.043 31.81C228.043 29.405 228.368 22.97 231.943 22.97C238.898 22.97 241.108 37.4 241.108 42.405C241.108 45.07 240.653 51.895 236.753 51.895ZM267.239 53C264.314 51.375 263.989 47.15 263.989 44.16V30.51C264.444 28.105 265.874 25.895 268.539 25.895C271.724 25.895 272.634 29.015 272.634 31.68V44.16C272.634 47.085 272.179 51.375 269.384 53H285.439C282.579 51.375 282.124 47.15 282.124 44.16V31.42C282.124 26.025 279.264 21.085 273.414 21.085C272.699 21.085 265.159 25.505 263.989 26.675V21.605C258.724 24.66 256.904 25.44 250.859 26.415C253.134 29.145 254.499 31.225 254.499 34.93V44.16C254.499 47.085 253.979 51.375 251.184 53H267.239ZM293.254 20.11C295.854 20.11 297.999 17.965 297.999 15.365C297.999 12.765 295.854 10.62 293.254 10.62C290.654 10.62 288.509 12.765 288.509 15.365C288.509 17.965 290.654 20.11 293.254 20.11ZM301.834 53C298.909 51.375 298.584 47.15 298.584 44.16V21.605C293.319 24.66 291.499 25.44 285.454 26.415C287.729 29.145 289.094 31.225 289.094 34.93V44.16C289.094 47.085 288.574 51.375 285.779 53H301.834ZM328.416 21.605H304.041L302.936 30.38C305.081 24.725 311.451 23.165 316.846 23.165H317.496L302.351 51.7V53H327.506L328.611 44.225C326.466 49.945 318.796 51.44 313.401 51.44H312.751L328.416 21.605ZM349.146 34.93V44.16C349.146 47.085 348.626 51.375 345.831 53H361.886C358.961 51.375 358.636 47.15 358.636 44.16V30.51C358.636 28.3 360.911 25.895 363.186 25.895C366.371 25.895 367.281 29.015 367.281 31.68V44.16C367.281 47.085 366.826 51.375 364.031 53H380.086C377.226 51.375 376.771 47.15 376.771 44.16V31.42C376.771 26.025 373.911 21.085 368.061 21.085C367.281 21.085 359.416 25.765 358.636 26.61V21.605C359.481 20.24 359.871 18.615 359.871 16.99C359.871 9.385 352.916 5.875 346.156 5.875C340.501 5.875 332.181 8.475 332.181 15.365C332.181 17.965 334.326 20.11 336.926 20.11C339.526 20.11 341.671 17.965 341.671 15.365C341.671 12.765 339.526 10.62 336.926 10.62C338.876 8.28 342.256 7.37 345.246 7.37C350.641 7.37 356.101 10.75 356.101 16.6C356.101 22.45 350.576 25.57 345.506 26.415C347.781 29.145 349.146 31.225 349.146 34.93ZM329.126 26.415C331.401 29.145 332.766 31.225 332.766 34.93V44.16C332.766 47.085 332.246 51.375 329.451 53H345.506C342.581 51.375 342.256 47.15 342.256 44.16V21.605C336.991 24.66 335.171 25.44 329.126 26.415ZM396.608 21.085C389.523 21.085 381.008 24.595 381.008 32.85C381.008 37.4 383.543 40.52 387.053 42.405C386.013 44.095 382.633 49.555 382.633 50.335C382.633 58.655 404.083 53.52 404.083 61.515C404.083 65.22 399.533 66.39 396.543 66.39C394.138 66.39 388.873 65.22 388.873 62.035C388.873 61.385 389.198 60.8 389.653 60.345C388.938 58.07 387.248 56.055 384.713 56.055C382.308 56.055 380.488 57.615 380.488 60.085C380.488 66.65 391.148 67.95 395.828 67.95C402.068 67.95 413.703 66.65 413.703 58.2C413.703 43.77 387.508 50.335 387.508 44.68C387.508 44.03 387.703 43.445 388.158 42.99C390.758 44.16 393.813 44.68 396.608 44.68C403.823 44.68 412.078 41.17 412.078 32.85C412.078 26.025 406.293 22.45 400.313 21.41C401.483 20.24 402.978 19.395 404.668 19.395C405.968 19.395 407.203 20.045 407.658 21.345C407.983 21.41 408.438 21.475 408.763 21.475C411.558 21.475 414.093 19.785 414.093 16.795C414.093 14.195 412.013 12.57 409.478 12.57C404.863 12.57 401.223 17.315 399.013 21.215C398.233 21.15 397.388 21.085 396.608 21.085ZM398.688 42.925C392.838 42.925 389.978 33.76 389.978 29.08C389.978 26.545 390.693 22.97 393.878 22.97C399.988 22.97 403.043 31.29 403.043 36.36C403.043 39.155 402.133 42.925 398.688 42.925ZM435.452 67.235C442.862 67.235 445.527 58.655 447.802 53L453.652 38.375C456.772 30.51 461.257 24.01 470.552 24.01C477.507 24.01 479.652 31.615 479.652 37.335C479.652 40.78 478.157 52.09 473.152 52.09C467.952 52.09 467.042 43.185 467.042 39.48C467.042 36.49 467.887 26.415 472.307 26.415C464.442 26.415 457.162 30.64 457.162 39.22C457.162 47.995 464.572 53.65 472.892 53.65C482.512 53.65 489.467 46.045 489.467 36.62C489.467 25.96 481.992 20.565 471.852 20.565C457.812 20.565 453.002 35.32 448.842 46.11C447.152 42.08 441.952 30.38 441.952 26.675C441.952 24.465 442.992 22.32 445.137 21.605H427.197C431.162 23.36 434.737 34.215 436.362 38.245L442.277 53C443.252 53 445.137 53.325 445.137 54.69C445.137 57.81 440.002 59.565 437.532 59.565C434.672 59.565 432.332 58.135 432.332 55.015C429.537 55.015 428.107 58.72 428.107 61.06C428.107 65.35 431.487 67.235 435.452 67.235ZM490.039 21.605C492.899 23.23 493.354 27.455 493.354 30.445V43.185C493.354 48.58 496.214 53.52 502.064 53.52C502.844 53.52 511.034 48.645 511.619 47.8C511.944 49.555 512.594 51.375 512.984 53H524.619C521.954 49.685 520.979 47.02 520.979 42.795V21.605H508.239C511.164 23.23 511.489 27.455 511.489 30.445V39.675C511.489 41.235 511.359 42.925 511.359 44.615C510.839 46.76 509.409 48.71 506.939 48.71C503.754 48.71 502.844 45.59 502.844 42.925V21.605H490.039ZM537.764 28.755V21.605C532.499 24.66 530.679 25.44 524.634 26.415C526.909 29.145 528.274 31.225 528.274 34.93V44.16C528.274 47.085 527.754 51.375 524.959 53H541.014C538.154 51.375 537.764 47.15 537.764 44.16V32.33C537.764 30.445 539.714 28.82 541.469 28.82C543.744 28.82 545.434 30.575 545.434 32.785C545.434 33.37 545.304 33.89 545.174 34.41C549.464 34.41 552.974 31.615 552.974 27.195C552.974 23.815 550.764 21.085 547.254 21.085C542.834 21.085 539.454 25.05 537.764 28.755ZM15.08 193H20.605C23.14 186.695 25.675 180.39 28.08 174.085C30.615 180.39 33.085 186.695 35.62 193H41.145L46.995 178.375C48.62 174.345 52.26 163.36 56.225 161.605H45.045C43.355 160.305 42.38 158.225 42.38 156.08C42.38 150.49 47.515 147.435 52.585 147.435C55.835 147.435 59.93 147.955 62.14 150.62C59.54 150.62 57.395 152.765 57.395 155.365C57.395 157.965 59.54 160.11 62.14 160.11C64.74 160.11 66.885 157.965 66.885 155.365C66.885 148.215 58.37 145.875 52.585 145.875C46.735 145.875 38.22 148.735 38.22 155.885C38.22 163.295 46.735 160.63 46.735 170.12C46.735 175.45 44.135 181.235 42.185 186.11C40.495 182.08 35.295 170.38 35.295 166.675C35.295 164.465 36.335 162.32 38.48 161.605H20.54C23.01 162.71 25.155 167.26 26.26 169.6V170.12C26.26 175.385 23.595 181.235 21.645 186.11C19.955 182.08 14.755 170.38 14.755 166.675C14.755 164.465 15.795 162.32 17.94 161.605H0C3.965 163.36 7.54 174.215 9.165 178.245L15.08 193ZM54.34 166.415C56.615 169.145 57.98 171.225 57.98 174.93V184.16C57.98 187.085 57.46 191.375 54.665 193H70.72C67.795 191.375 67.47 187.15 67.47 184.16V161.605C62.205 164.66 60.385 165.44 54.34 166.415ZM83.7129 153.48H82.7379C80.5929 159.395 77.1479 161.605 71.0379 162.19V163.165H74.2229V184.875C74.2229 189.62 76.3679 193.65 81.5679 193.65C85.1429 193.65 88.7829 191.895 91.3829 189.49V188.84C90.3429 189.425 89.1079 189.685 87.9379 189.685C85.7279 189.685 83.7129 188.71 83.7129 186.175V163.165H90.4729V161.605H83.7129V153.48ZM94.0941 184.16C94.0941 187.085 93.5741 191.375 90.7791 193H106.834C103.909 191.375 103.584 187.15 103.584 184.16V171.68C103.584 169.015 105.274 165.895 108.264 165.895C111.449 165.895 112.359 169.015 112.359 171.68V184.16C112.359 187.085 111.904 191.375 109.109 193H125.164C122.304 191.375 121.849 187.15 121.849 184.16V171.42C121.849 166.025 118.989 161.085 113.139 161.085C112.359 161.085 104.169 165.96 103.584 166.805V146.915C99.3591 149.32 95.2641 150.945 90.4541 151.725C92.7291 154.455 94.0941 156.535 94.0941 160.24V184.16ZM160.88 144.705C164.91 144.705 168.29 147.305 168.29 151.53C168.29 152.375 168.095 154.13 166.86 154.195C167.77 157.185 169.785 159.85 173.165 159.85C176.22 159.85 178.04 157.64 178.04 154.715C178.04 146.785 168.94 143.08 162.31 143.08C147.945 143.08 138.975 155.495 138.975 169.015C138.975 182.6 147.555 193.65 161.725 193.65C170.825 193.65 177 189.165 178.95 180.26L178.43 179.87C175.31 183.25 171.02 184.615 166.535 184.615C154.25 184.615 147.75 174.865 147.75 163.425C147.75 155.625 151.52 144.705 160.88 144.705ZM179.321 161.605C182.181 163.23 182.636 167.455 182.636 170.445V183.185C182.636 188.58 185.496 193.52 191.346 193.52C192.126 193.52 200.316 188.645 200.901 187.8C201.226 189.555 201.876 191.375 202.266 193H213.901C211.236 189.685 210.261 187.02 210.261 182.795V161.605H197.521C200.446 163.23 200.771 167.455 200.771 170.445V179.675C200.771 181.235 200.641 182.925 200.641 184.615C200.121 186.76 198.691 188.71 196.221 188.71C193.036 188.71 192.126 185.59 192.126 182.925V161.605H179.321ZM227.046 168.755V161.605C221.781 164.66 219.961 165.44 213.916 166.415C216.191 169.145 217.556 171.225 217.556 174.93V184.16C217.556 187.085 217.036 191.375 214.241 193H230.296C227.436 191.375 227.046 187.15 227.046 184.16V172.33C227.046 170.445 228.996 168.82 230.751 168.82C233.026 168.82 234.716 170.575 234.716 172.785C234.716 173.37 234.586 173.89 234.456 174.41C238.746 174.41 242.256 171.615 242.256 167.195C242.256 163.815 240.046 161.085 236.536 161.085C232.116 161.085 228.736 165.05 227.046 168.755ZM261.943 161.605C265.843 163.035 267.598 166.025 267.598 170.12C267.598 175.385 264.933 181.235 262.983 186.11C261.293 182.08 256.093 170.38 256.093 166.675C256.093 164.465 257.133 162.32 259.278 161.605H241.338C245.303 163.36 248.878 174.215 250.503 178.245L256.418 193H261.943L267.793 178.375C269.418 174.28 273.058 163.36 277.023 161.605H261.943ZM302.829 176.295V174.735C302.829 166.35 297.434 161.085 289.049 161.085C279.819 161.085 274.294 168.95 274.294 177.595C274.294 186.565 280.794 193.65 289.894 193.65C296.329 193.65 299.969 190.855 302.959 185.46L302.439 185.07C301.074 186.435 297.044 186.89 295.224 186.89C288.919 186.89 285.409 182.47 284.174 177.075L302.829 176.295ZM294.119 169.535C294.119 172.72 291.974 174.28 289.049 174.735C287.294 174.995 285.604 175.255 283.849 175.45C283.719 174.475 283.654 173.5 283.654 172.525C283.654 169.86 284.629 162.645 288.399 162.645C291.714 162.645 294.119 166.545 294.119 169.535ZM334.873 146.98C329.608 149.97 327.788 150.75 321.743 151.725C324.018 154.455 325.383 156.535 325.383 160.24V163.165C324.278 162.645 320.118 160.89 318.948 160.89C309.523 160.89 304.128 169.015 304.128 177.79C304.128 186.175 309.068 193.585 318.103 193.585C321.873 193.585 323.953 192.415 325.383 190.335V193H338.123C335.198 191.375 334.873 187.15 334.873 184.16V146.98ZM325.383 186.825C325.058 186.825 324.668 186.825 324.213 186.825C316.673 186.825 313.098 179.87 313.098 173.175C313.098 168.885 314.918 162.515 320.183 162.515C324.538 162.515 325.383 167.585 325.383 170.965V186.825Z" fill="#1E2C31"/>
<path d="M10.205 121.375C13.585 122.545 15.795 123.585 19.565 123.585C28.99 123.585 34.385 115.46 34.385 106.685C34.385 98.3 29.445 90.89 20.41 90.89C18.265 90.89 15.34 93.75 13.13 96.285V76.915C7.865 79.905 6.045 80.685 0 81.66C2.21 84.39 3.64 86.535 3.64 90.175L3.51 122.935C4.68 122.285 7.865 121.635 10.205 121.375ZM13.13 96.87C13.455 96.675 13.845 96.61 14.3 96.61C21.97 96.61 25.415 104.15 25.415 110.845C25.415 115.135 23.725 121.96 18.33 121.96C13.975 121.96 13.13 116.89 13.13 113.51V96.87ZM40.8271 105.06C44.4671 105.06 46.8071 102.135 47.7821 98.95C46.2871 98.95 45.2471 98.17 45.2471 96.61C45.2471 94.92 46.5471 92.645 48.4321 92.645C52.3321 92.645 51.4871 100.77 51.4871 103.305C45.8971 105.45 35.4321 109.285 35.4321 116.565C35.4321 127.225 47.1971 129.5 55.6471 129.5C64.6171 129.5 77.7471 126.575 77.7471 115.265V104.93C77.7471 103.5 77.6821 101.94 77.7471 100.51C77.8121 98.235 79.9571 95.895 82.2971 95.895C85.4821 95.895 86.3921 99.015 86.3921 101.68V114.16C86.3921 117.085 85.9371 121.375 83.1421 123H99.1971C96.3371 121.375 95.8821 117.15 95.8821 114.16V101.42C95.8821 96.025 93.0221 91.085 87.1721 91.085C86.3921 91.085 78.5271 95.765 77.7471 96.61V91.605C72.4821 94.595 70.6621 95.44 64.6171 96.415C66.8921 99.145 68.2571 101.225 68.2571 104.93V114.81C68.2571 122.025 64.2921 127.745 56.6871 127.745C49.8621 127.745 44.9871 123.26 44.9871 116.305C44.9871 111.3 47.1321 107.4 51.4871 104.93V118.515C51.4871 121.7 54.9321 123.65 57.7921 123.65C60.6521 123.65 62.0821 122.61 64.2921 120.985V120.335C63.9021 120.595 63.4471 120.725 62.9921 120.725C61.1721 120.725 60.9771 117.93 60.9771 116.695V101.745C60.9771 94.79 55.8421 91.085 49.2121 91.085C43.7521 91.085 36.6021 93.62 36.6021 100.12C36.6021 102.655 38.0971 105.06 40.8271 105.06ZM145.559 91.605C140.294 94.66 138.474 95.44 132.429 96.415C134.704 99.145 136.069 101.225 136.069 104.93V114.16C136.069 116.565 135.744 119.88 134.054 121.895C127.684 116.955 121.509 104.735 117.999 98.17C119.949 92.385 128.659 87.965 134.509 87.965C136.589 87.965 138.929 88.55 139.904 90.63C143.609 90.63 146.469 87.575 146.469 83.935C146.469 80.295 143.674 78.28 140.229 78.28C129.894 78.28 115.724 95.44 112.279 104.41V76.98C107.079 79.97 105.194 80.75 99.2139 81.725C101.489 84.455 102.854 86.6 102.854 90.24V114.16C102.854 117.085 102.269 121.375 99.4739 123H115.594C112.669 121.31 112.279 117.15 112.279 114.16V106.425L121.444 123H148.809C145.884 121.375 145.559 117.15 145.559 114.16V91.605ZM199.229 91.085C192.144 91.085 183.629 94.595 183.629 102.85C183.629 109.48 188.959 113.055 194.744 114.225C190.194 114.29 183.044 114.94 183.044 120.855C183.044 123.845 185.709 126.51 188.699 126.51H207.029C207.094 134.05 200.204 137.755 193.444 137.755C186.359 137.755 180.054 133.595 180.054 125.99V101.42C180.054 96.025 177.194 91.085 171.344 91.085C170.564 91.085 163.154 95.505 161.919 96.675V91.605C156.654 94.66 154.834 95.44 148.789 96.415C151.064 99.145 152.429 101.225 152.429 104.93V114.16C152.429 117.085 151.909 121.375 149.114 123H165.169C162.244 121.375 161.919 117.15 161.919 114.16V100.51C162.374 98.105 163.804 95.895 166.469 95.895C169.654 95.895 170.564 99.015 170.564 101.68V125.86C170.564 136.26 184.734 139.12 192.729 139.315H193.379C204.104 139.315 216.519 136.065 216.519 123C216.519 119.815 214.179 118.32 211.189 118.32H196.499C195.589 118.32 193.899 118.255 193.899 116.955C193.899 115.395 196.759 114.875 198.904 114.68C206.184 114.68 214.699 111.43 214.699 102.85C214.699 96.155 209.174 92.58 203.324 91.475C204.299 90.565 205.469 89.915 207.029 89.915C208.459 89.915 209.759 90.63 210.279 91.995C210.604 92.06 211.059 92.125 211.384 92.125C214.179 92.125 216.714 90.435 216.714 87.445C216.714 84.845 214.634 83.22 212.099 83.22C207.549 83.22 204.299 87.38 202.024 91.28C201.049 91.15 200.139 91.085 199.229 91.085ZM201.309 112.925C195.459 112.925 192.599 103.76 192.599 99.08C192.599 96.545 193.314 92.97 196.499 92.97C202.609 92.97 205.664 101.29 205.664 106.36C205.664 109.155 204.754 112.925 201.309 112.925ZM258.84 106.295V104.735C258.84 96.35 253.445 91.085 245.06 91.085C235.83 91.085 230.305 98.95 230.305 107.595C230.305 116.565 236.805 123.65 245.905 123.65C252.34 123.65 255.98 120.855 258.97 115.46L258.45 115.07C257.085 116.435 253.055 116.89 251.235 116.89C244.93 116.89 241.42 112.47 240.185 107.075L258.84 106.295ZM250.13 99.535C250.13 102.72 247.985 104.28 245.06 104.735C243.305 104.995 241.615 105.255 239.86 105.45C239.73 104.475 239.665 103.5 239.665 102.525C239.665 99.86 240.64 92.645 244.41 92.645C247.725 92.645 250.13 96.545 250.13 99.535ZM276.012 120.335C276.012 121.375 275.492 122.285 274.712 123H291.352C289.142 121.765 282.642 113.38 277.702 105.84C280.952 101.095 286.672 93.425 290.702 91.605H275.622C278.287 92.19 279.912 93.88 279.912 96.61C279.912 99.275 278.547 102.265 276.922 104.67C273.802 99.86 271.462 95.505 271.462 93.88C271.462 93.035 271.852 92.19 272.502 91.605H256.902C259.112 92.97 265.417 101.355 270.162 108.83C266.912 113.575 261.257 121.245 257.227 123H272.307C269.642 122.415 268.017 120.725 268.017 117.995C268.017 115.395 269.317 112.47 270.942 110.065C273.867 114.745 276.012 118.84 276.012 120.335ZM293.537 128.59C293.537 131.58 293.082 135.74 290.222 137.43H306.277C303.417 135.74 303.027 131.58 303.027 128.59V122.48C304.977 123.195 306.537 123.585 309.462 123.585C318.887 123.585 324.282 115.46 324.282 106.685C324.282 98.3 319.342 90.89 310.307 90.89C308.162 90.89 305.237 93.75 303.027 96.285V91.605C297.762 94.595 295.942 95.375 289.897 96.35C292.172 99.08 293.537 101.16 293.537 104.865V128.59ZM303.027 97.065C303.417 96.805 303.872 96.61 304.197 96.61C311.867 96.61 315.312 104.15 315.312 110.845C315.312 115.135 313.622 121.96 308.227 121.96C303.872 121.96 303.027 116.89 303.027 113.51V97.065ZM355.134 106.295V104.735C355.134 96.35 349.739 91.085 341.354 91.085C332.124 91.085 326.599 98.95 326.599 107.595C326.599 116.565 333.099 123.65 342.199 123.65C348.634 123.65 352.274 120.855 355.264 115.46L354.744 115.07C353.379 116.435 349.349 116.89 347.529 116.89C341.224 116.89 337.714 112.47 336.479 107.075L355.134 106.295ZM346.424 99.535C346.424 102.72 344.279 104.28 341.354 104.735C339.599 104.995 337.909 105.255 336.154 105.45C336.024 104.475 335.959 103.5 335.959 102.525C335.959 99.86 336.934 92.645 340.704 92.645C344.019 92.645 346.424 96.545 346.424 99.535ZM359.553 104.93V114.16C359.553 117.085 359.098 121.375 356.303 123H372.358C369.498 121.375 369.043 117.15 369.043 114.16V99.47C370.863 95.375 377.038 88.81 381.783 88.81C383.343 88.81 384.513 89.655 385.163 91.02C388.803 91.02 391.533 88.095 391.533 84.455C391.533 80.815 388.673 78.67 385.163 78.67C376.713 78.67 371.578 90.24 369.043 96.87V91.605C363.778 94.595 361.958 95.44 355.913 96.415C358.188 99.145 359.553 101.225 359.553 104.93ZM391.468 123C388.543 121.375 388.218 117.15 388.218 114.16V91.605C382.953 94.66 381.133 95.44 375.088 96.415C377.363 99.145 378.728 101.225 378.728 104.93V114.16C378.728 117.085 378.208 121.375 375.413 123H391.468ZM421.023 106.295V104.735C421.023 96.35 415.628 91.085 407.243 91.085C398.013 91.085 392.488 98.95 392.488 107.595C392.488 116.565 398.988 123.65 408.088 123.65C414.523 123.65 418.163 120.855 421.153 115.46L420.633 115.07C419.268 116.435 415.238 116.89 413.418 116.89C407.113 116.89 403.603 112.47 402.368 107.075L421.023 106.295ZM412.313 99.535C412.313 102.72 410.168 104.28 407.243 104.735C405.488 104.995 403.798 105.255 402.043 105.45C401.913 104.475 401.848 103.5 401.848 102.525C401.848 99.86 402.823 92.645 406.593 92.645C409.908 92.645 412.313 96.545 412.313 99.535ZM438.182 123C435.257 121.375 434.932 117.15 434.932 114.16V100.51C435.387 98.105 436.817 95.895 439.482 95.895C442.667 95.895 443.577 99.015 443.577 101.68V114.16C443.577 117.085 443.122 121.375 440.327 123H456.382C453.522 121.375 453.067 117.15 453.067 114.16V101.42C453.067 96.025 450.207 91.085 444.357 91.085C443.642 91.085 436.102 95.505 434.932 96.675V91.605C429.667 94.66 427.847 95.44 421.802 96.415C424.077 99.145 425.442 101.225 425.442 104.93V114.16C425.442 117.085 424.922 121.375 422.127 123H438.182ZM472.451 101.745C473.556 105.385 475.701 107.79 479.666 107.79C483.176 107.79 485.191 105.515 485.191 102.135C485.191 94.985 478.041 91.085 471.671 91.085C462.441 91.085 456.916 98.95 456.916 107.595C456.916 116.565 463.416 123.65 472.516 123.65C478.691 123.65 483.371 120.855 486.361 115.46L485.841 115.07C484.476 116.435 480.446 116.89 478.626 116.89C470.306 116.89 466.601 109.22 466.601 101.875C466.601 99.34 467.381 92.645 471.021 92.645C473.946 92.645 476.806 95.505 476.806 98.43C476.806 100.9 474.596 101.745 472.451 101.745ZM515.412 106.295V104.735C515.412 96.35 510.017 91.085 501.632 91.085C492.402 91.085 486.877 98.95 486.877 107.595C486.877 116.565 493.377 123.65 502.477 123.65C508.912 123.65 512.552 120.855 515.542 115.46L515.022 115.07C513.657 116.435 509.627 116.89 507.807 116.89C501.502 116.89 497.992 112.47 496.757 107.075L515.412 106.295ZM506.702 99.535C506.702 102.72 504.557 104.28 501.632 104.735C499.877 104.995 498.187 105.255 496.432 105.45C496.302 104.475 496.237 103.5 496.237 102.525C496.237 99.86 497.212 92.645 500.982 92.645C504.297 92.645 506.702 96.545 506.702 99.535Z" fill="url(#paint0_linear_3606_31016)"/>
<path d="M347.948 140.434L336.251 133.701C336.057 133.58 335.791 133.531 335.5 133.531C335.209 133.531 334.943 133.604 334.749 133.701L323.124 140.458C322.712 140.7 322.422 141.305 322.422 141.766V155.255C322.422 155.522 322.47 155.837 322.664 156.103L348.53 141.087C348.384 140.797 348.166 140.579 347.948 140.434Z" fill="url(#paint1_linear_3606_31016)"/>
<path d="M322.59 156.078C322.711 156.272 322.88 156.441 323.05 156.538L334.723 163.295C334.917 163.416 335.184 163.465 335.474 163.465C335.765 163.465 336.031 163.392 336.225 163.295L347.85 156.538C348.262 156.296 348.552 155.691 348.552 155.23V141.741C348.552 141.523 348.528 141.28 348.407 141.062L322.59 156.078Z" fill="url(#paint2_linear_3606_31016)"/>
<path d="M340.659 151.43C339.641 153.223 337.704 154.434 335.5 154.434C332.23 154.434 329.566 151.77 329.566 148.5C329.566 145.23 332.23 142.566 335.5 142.566C337.704 142.566 339.641 143.777 340.659 145.594L343.807 143.777C342.16 140.895 339.06 138.934 335.5 138.934C330.22 138.934 325.934 143.22 325.934 148.5C325.934 153.78 330.22 158.066 335.5 158.066C339.036 158.066 342.136 156.129 343.783 153.271L340.659 151.43Z" fill="white"/>
<defs>
<linearGradient id="paint0_linear_3606_31016" x1="7.6896e-06" y1="92" x2="316.473" y2="117.021" gradientUnits="userSpaceOnUse">
<stop stop-color="#FFCC00"/>
<stop offset="1" stop-color="#03599C"/>
</linearGradient>
<linearGradient id="paint1_linear_3606_31016" x1="322.422" y1="143.42" x2="342.32" y2="143.973" gradientUnits="userSpaceOnUse">
<stop stop-color="#FFCC00"/>
<stop offset="1" stop-color="#03599C"/>
</linearGradient>
<linearGradient id="paint2_linear_3606_31016" x1="322.59" y1="150.877" x2="342.377" y2="151.428" gradientUnits="userSpaceOnUse">
<stop stop-color="#FFCC00"/>
<stop offset="1" stop-color="#03599C"/>
</linearGradient>
</defs>
</svg>
