<svg width="604" height="229" viewBox="0 0 604 229" fill="none" xmlns="http://www.w3.org/2000/svg">
<path d="M35.815 14.13C35.815 6.395 25.48 3.08 19.175 3.08C10.92 3.08 2.6 7.76 2.6 16.86C2.6 32.525 27.235 30.705 27.235 43.575C27.235 49.165 22.75 52.09 17.55 52.09C13.715 52.09 10.14 50.01 10.14 45.785C10.14 43.575 11.44 40.975 13.975 40.975C13.52 37.27 11.115 33.5 6.955 33.5C2.99 33.5 0.975 37.075 0.975 40.715C0.975 50.01 11.31 53.65 19.11 53.65C27.43 53.65 37.05 49.49 37.05 39.87C37.05 23.945 10.4 24.92 10.4 13.61C10.4 8.54 13.65 4.64 18.85 4.64C22.165 4.64 26.585 6.07 26.585 10.1C26.585 11.79 25.675 13.61 23.725 13.61C24.115 17.12 26.455 20.175 30.225 20.175C33.67 20.175 35.815 17.445 35.815 14.13ZM52.5825 21.085C43.7425 21.475 38.5425 29.275 38.5425 37.595C38.5425 46.565 45.0425 53.65 54.1425 53.65C60.5775 53.65 64.2175 50.855 67.2075 45.46L66.6875 45.07C65.3225 46.435 61.2925 46.89 59.4725 46.89C53.2975 46.89 49.7225 42.795 48.4225 37.075L64.6725 36.36C66.4275 36.295 67.0125 35.645 67.0125 33.89C67.0125 28.105 63.6325 23.36 58.0425 21.735C56.4175 20.435 55.8325 18.745 55.8325 16.73C55.8325 11.075 62.1375 7.24 67.2075 7.24C71.3675 7.24 77.1525 8.865 77.1525 14C77.1525 19.07 71.5625 21.735 67.2075 22.19V23.165H70.3925V44.875C70.3925 49.62 72.5375 53.65 77.7375 53.65C81.3125 53.65 84.9525 51.895 87.5525 49.49V48.84C86.5125 49.425 85.2775 49.685 84.1075 49.685C81.8975 49.685 79.8825 48.71 79.8825 46.175V23.165H86.6425V21.605H79.8825V18.615C79.8825 9.255 77.0875 5.875 67.2075 5.875C60.0575 5.875 51.7375 9.19 51.7375 17.51C51.7375 18.745 52.0625 19.98 52.5825 21.085ZM48.0975 35.45C47.9675 34.475 47.9025 33.565 47.9025 32.59C47.9025 29.925 48.8775 22.645 52.6475 22.645C55.9625 22.645 58.3675 26.48 58.3675 29.535C58.3675 35.125 52.0625 34.93 48.0975 35.45ZM93.6366 43.51C91.0366 43.51 88.8266 45.655 88.8266 48.255C88.8266 50.725 90.7116 52.74 93.1166 53C93.2466 53.26 93.2466 53.52 93.2466 53.78C93.2466 55.34 91.8166 57.485 90.5816 58.33H91.2316C94.8716 56.835 98.3816 52.285 98.3816 48.255C98.3816 45.655 96.2366 43.51 93.6366 43.51ZM128.155 31.745C129.26 35.385 131.405 37.79 135.37 37.79C138.88 37.79 140.895 35.515 140.895 32.135C140.895 24.985 133.745 21.085 127.375 21.085C118.145 21.085 112.62 28.95 112.62 37.595C112.62 46.565 119.12 53.65 128.22 53.65C134.395 53.65 139.075 50.855 142.065 45.46L141.545 45.07C140.18 46.435 136.15 46.89 134.33 46.89C126.01 46.89 122.305 39.22 122.305 31.875C122.305 29.34 123.085 22.645 126.725 22.645C129.65 22.645 132.51 25.505 132.51 28.43C132.51 30.9 130.3 31.745 128.155 31.745ZM145.066 44.16C145.066 47.085 144.546 51.375 141.751 53H157.806C154.881 51.375 154.556 47.15 154.556 44.16V31.68C154.556 29.015 156.246 25.895 159.236 25.895C162.421 25.895 163.331 29.015 163.331 31.68V44.16C163.331 47.085 162.876 51.375 160.081 53H176.136C173.276 51.375 172.821 47.15 172.821 44.16V31.42C172.821 26.025 169.961 21.085 164.111 21.085C163.331 21.085 155.141 25.96 154.556 26.805V6.915C150.331 9.32 146.236 10.945 141.426 11.725C143.701 14.455 145.066 16.535 145.066 20.24V44.16ZM205.527 50.335C205.137 50.595 204.682 50.725 204.227 50.725C202.407 50.725 202.212 47.93 202.212 46.695V31.745C202.212 24.79 197.077 21.085 190.447 21.085C184.987 21.085 177.837 23.62 177.837 30.12C177.837 32.655 179.332 35.06 182.062 35.06C185.702 35.06 188.042 32.135 189.017 28.95C187.522 28.95 186.482 28.17 186.482 26.61C186.482 24.92 187.782 22.645 189.667 22.645C193.047 22.645 192.722 28.365 192.722 30.575V32.655C188.562 37.205 176.667 39.935 176.667 46.695C176.667 51.57 179.917 53.65 184.467 53.65C188.172 53.65 191.032 52.35 193.047 50.075C193.957 52.285 196.687 53.65 199.027 53.65C201.952 53.65 203.317 52.61 205.527 50.985V50.335ZM192.722 48.71C192.072 49.1 191.227 49.36 190.187 49.36C186.872 49.36 186.222 46.5 186.222 43.77C186.222 40 190.252 37.205 192.722 34.93V48.71ZM235.429 6.915C232.894 8.02 230.229 8.67 227.434 8.67C216.969 8.67 208.454 0.154998 198.704 0.154998C194.219 0.154998 188.304 1.975 188.304 7.435C188.304 10.165 189.994 12.57 192.204 14C194.284 9.515 197.794 7.825 202.539 7.825C209.559 7.825 216.384 10.36 223.404 10.36C226.264 10.36 228.994 9.97 231.594 9.06C228.799 10.425 226.589 11.01 222.299 11.725C224.574 14.455 225.939 16.535 225.939 20.24V44.16C225.939 47.15 225.484 51.375 222.624 53H238.744C235.819 51.375 235.429 47.15 235.429 44.16V6.915ZM218.984 12.57C213.719 15.625 211.899 16.405 205.854 17.38C208.129 20.11 209.494 22.19 209.494 25.895V44.16C209.494 47.15 209.039 51.375 206.179 53H222.299C219.374 51.375 218.984 47.15 218.984 44.16V12.57ZM267.79 36.295V34.735C267.79 26.35 262.395 21.085 254.01 21.085C244.78 21.085 239.255 28.95 239.255 37.595C239.255 46.565 245.755 53.65 254.855 53.65C261.29 53.65 264.93 50.855 267.92 45.46L267.4 45.07C266.035 46.435 262.005 46.89 260.185 46.89C253.88 46.89 250.37 42.47 249.135 37.075L267.79 36.295ZM259.08 29.535C259.08 32.72 256.935 34.28 254.01 34.735C252.255 34.995 250.565 35.255 248.81 35.45C248.68 34.475 248.615 33.5 248.615 32.525C248.615 29.86 249.59 22.645 253.36 22.645C256.675 22.645 259.08 26.545 259.08 29.535ZM319.009 21.085C311.924 21.085 303.409 24.595 303.409 32.85C303.409 39.48 308.739 43.055 314.524 44.225C309.974 44.29 302.824 44.94 302.824 50.855C302.824 53.845 305.489 56.51 308.479 56.51H326.809C326.874 64.05 319.984 67.755 313.224 67.755C306.139 67.755 299.834 63.595 299.834 55.99V31.42C299.834 26.025 296.974 21.085 291.124 21.085C290.344 21.085 282.934 25.505 281.699 26.675V21.605C276.434 24.66 274.614 25.44 268.569 26.415C270.844 29.145 272.209 31.225 272.209 34.93V44.16C272.209 47.085 271.689 51.375 268.894 53H284.949C282.024 51.375 281.699 47.15 281.699 44.16V30.51C282.154 28.105 283.584 25.895 286.249 25.895C289.434 25.895 290.344 29.015 290.344 31.68V55.86C290.344 66.26 304.514 69.12 312.509 69.315H313.159C323.884 69.315 336.299 66.065 336.299 53C336.299 49.815 333.959 48.32 330.969 48.32H316.279C315.369 48.32 313.679 48.255 313.679 46.955C313.679 45.395 316.539 44.875 318.684 44.68C325.964 44.68 334.479 41.43 334.479 32.85C334.479 26.155 328.954 22.58 323.104 21.475C324.079 20.565 325.249 19.915 326.809 19.915C328.239 19.915 329.539 20.63 330.059 21.995C330.384 22.06 330.839 22.125 331.164 22.125C333.959 22.125 336.494 20.435 336.494 17.445C336.494 14.845 334.414 13.22 331.879 13.22C327.329 13.22 324.079 17.38 321.804 21.28C320.829 21.15 319.919 21.085 319.009 21.085ZM321.089 42.925C315.239 42.925 312.379 33.76 312.379 29.08C312.379 26.545 313.094 22.97 316.279 22.97C322.389 22.97 325.444 31.29 325.444 36.36C325.444 39.155 324.534 42.925 321.089 42.925ZM365.862 36.295V34.735C365.862 26.35 360.467 21.085 352.082 21.085C342.852 21.085 337.327 28.95 337.327 37.595C337.327 46.565 343.827 53.65 352.927 53.65C359.362 53.65 363.002 50.855 365.992 45.46L365.472 45.07C364.107 46.435 360.077 46.89 358.257 46.89C351.952 46.89 348.442 42.47 347.207 37.075L365.862 36.295ZM357.152 29.535C357.152 32.72 355.007 34.28 352.082 34.735C350.327 34.995 348.637 35.255 346.882 35.45C346.752 34.475 346.687 33.5 346.687 32.525C346.687 29.86 347.662 22.645 351.432 22.645C354.747 22.645 357.152 26.545 357.152 29.535ZM372.426 43.51C369.826 43.51 367.616 45.655 367.616 48.255C367.616 50.725 369.501 52.74 371.906 53C372.036 53.26 372.036 53.52 372.036 53.78C372.036 55.34 370.606 57.485 369.371 58.33H370.021C373.661 56.835 377.171 52.285 377.171 48.255C377.171 45.655 375.026 43.51 372.426 43.51ZM396.804 35.06C400.444 35.06 402.784 32.135 403.759 28.95C402.264 28.95 401.224 28.17 401.224 26.61C401.224 24.92 402.524 22.645 404.409 22.645C408.309 22.645 407.464 30.77 407.464 33.305C401.874 35.45 391.409 39.285 391.409 46.565C391.409 57.225 403.174 59.5 411.624 59.5C420.594 59.5 433.724 56.575 433.724 45.265V34.93C433.724 33.5 433.659 31.94 433.724 30.51C433.789 28.235 435.934 25.895 438.274 25.895C441.459 25.895 442.369 29.015 442.369 31.68V44.16C442.369 47.085 441.914 51.375 439.119 53H455.174C452.314 51.375 451.859 47.15 451.859 44.16V31.42C451.859 26.025 448.999 21.085 443.149 21.085C442.369 21.085 434.504 25.765 433.724 26.61V21.605C428.459 24.595 426.639 25.44 420.594 26.415C422.869 29.145 424.234 31.225 424.234 34.93V44.81C424.234 52.025 420.269 57.745 412.664 57.745C405.839 57.745 400.964 53.26 400.964 46.305C400.964 41.3 403.109 37.4 407.464 34.93V48.515C407.464 51.7 410.909 53.65 413.769 53.65C416.629 53.65 418.059 52.61 420.269 50.985V50.335C419.879 50.595 419.424 50.725 418.969 50.725C417.149 50.725 416.954 47.93 416.954 46.695V31.745C416.954 24.79 411.819 21.085 405.189 21.085C399.729 21.085 392.579 23.62 392.579 30.12C392.579 32.655 394.074 35.06 396.804 35.06ZM486.455 6.98C481.19 9.97 479.37 10.75 473.325 11.725C475.6 14.455 476.965 16.535 476.965 20.24V23.165C475.86 22.645 471.7 20.89 470.53 20.89C461.105 20.89 455.71 29.015 455.71 37.79C455.71 46.175 460.65 53.585 469.685 53.585C473.455 53.585 475.535 52.415 476.965 50.335V53H489.705C486.78 51.375 486.455 47.15 486.455 44.16V6.98ZM476.965 46.825C476.64 46.825 476.25 46.825 475.795 46.825C468.255 46.825 464.68 39.87 464.68 33.175C464.68 28.885 466.5 22.515 471.765 22.515C476.12 22.515 476.965 27.585 476.965 30.965V46.825ZM29.38 120.335C28.99 120.595 28.535 120.725 28.08 120.725C26.26 120.725 26.065 117.93 26.065 116.695V101.745C26.065 94.79 20.93 91.085 14.3 91.085C8.84 91.085 1.69 93.62 1.69 100.12C1.69 102.655 3.185 105.06 5.915 105.06C9.555 105.06 11.895 102.135 12.87 98.95C11.375 98.95 10.335 98.17 10.335 96.61C10.335 94.92 11.635 92.645 13.52 92.645C16.9 92.645 16.575 98.365 16.575 100.575V102.655C12.415 107.205 0.52 109.935 0.52 116.695C0.52 121.57 3.77 123.65 8.32 123.65C12.025 123.65 14.885 122.35 16.9 120.075C17.81 122.285 20.54 123.65 22.88 123.65C25.805 123.65 27.17 122.61 29.38 120.985V120.335ZM16.575 118.71C15.925 119.1 15.08 119.36 14.04 119.36C10.725 119.36 10.075 116.5 10.075 113.77C10.075 110 14.105 107.205 16.575 104.93V118.71ZM44.4925 101.745C45.5975 105.385 47.7425 107.79 51.7075 107.79C55.2175 107.79 57.2325 105.515 57.2325 102.135C57.2325 94.985 50.0825 91.085 43.7125 91.085C34.4825 91.085 28.9575 98.95 28.9575 107.595C28.9575 116.565 35.4575 123.65 44.5575 123.65C50.7325 123.65 55.4125 120.855 58.4025 115.46L57.8825 115.07C56.5175 116.435 52.4875 116.89 50.6675 116.89C42.3475 116.89 38.6425 109.22 38.6425 101.875C38.6425 99.34 39.4225 92.645 43.0625 92.645C45.9875 92.645 48.8475 95.505 48.8475 98.43C48.8475 100.9 46.6375 101.745 44.4925 101.745ZM61.4037 114.16C61.4037 117.085 60.8837 121.375 58.0887 123H74.1437C71.2187 121.375 70.8937 117.15 70.8937 114.16V101.68C70.8937 99.015 72.5837 95.895 75.5737 95.895C78.7587 95.895 79.6687 99.015 79.6687 101.68V114.16C79.6687 117.085 79.2137 121.375 76.4187 123H92.4737C89.6137 121.375 89.1587 117.15 89.1587 114.16V101.42C89.1587 96.025 86.2987 91.085 80.4487 91.085C79.6687 91.085 71.4787 95.96 70.8937 96.805V76.915C66.6687 79.32 62.5737 80.945 57.7637 81.725C60.0387 84.455 61.4037 86.535 61.4037 90.24V114.16ZM100.285 90.11C102.885 90.11 105.03 87.965 105.03 85.365C105.03 82.765 102.885 80.62 100.285 80.62C97.6854 80.62 95.5404 82.765 95.5404 85.365C95.5404 87.965 97.6854 90.11 100.285 90.11ZM108.865 123C105.94 121.375 105.615 117.15 105.615 114.16V91.605C100.35 94.66 98.5304 95.44 92.4854 96.415C94.7604 99.145 96.1254 101.225 96.1254 104.93V114.16C96.1254 117.085 95.6054 121.375 92.8104 123H108.865ZM137.917 106.295V104.735C137.917 96.35 132.522 91.085 124.137 91.085C114.907 91.085 109.382 98.95 109.382 107.595C109.382 116.565 115.882 123.65 124.982 123.65C131.417 123.65 135.057 120.855 138.047 115.46L137.527 115.07C136.162 116.435 132.132 116.89 130.312 116.89C124.007 116.89 120.497 112.47 119.262 107.075L137.917 106.295ZM129.207 99.535C129.207 102.72 127.062 104.28 124.137 104.735C122.382 104.995 120.692 105.255 118.937 105.45C118.807 104.475 118.742 103.5 118.742 102.525C118.742 99.86 119.717 92.645 123.487 92.645C126.802 92.645 129.207 96.545 129.207 99.535ZM156.064 91.605C159.964 93.035 161.719 96.025 161.719 100.12C161.719 105.385 159.054 111.235 157.104 116.11C155.414 112.08 150.214 100.38 150.214 96.675C150.214 94.465 151.254 92.32 153.399 91.605H135.459C139.424 93.36 142.999 104.215 144.624 108.245L150.539 123H156.064L161.914 108.375C163.539 104.28 167.179 93.36 171.144 91.605H156.064ZM196.951 106.295V104.735C196.951 96.35 191.556 91.085 183.171 91.085C173.941 91.085 168.416 98.95 168.416 107.595C168.416 116.565 174.916 123.65 184.016 123.65C190.451 123.65 194.091 120.855 197.081 115.46L196.561 115.07C195.196 116.435 191.166 116.89 189.346 116.89C183.041 116.89 179.531 112.47 178.296 107.075L196.951 106.295ZM188.241 99.535C188.241 102.72 186.096 104.28 183.171 104.735C181.416 104.995 179.726 105.255 177.971 105.45C177.841 104.475 177.776 103.5 177.776 102.525C177.776 99.86 178.751 92.645 182.521 92.645C185.836 92.645 188.241 96.545 188.241 99.535ZM218.743 137.235C226.153 137.235 228.818 128.655 231.093 123L236.943 108.375C240.063 100.51 244.548 94.01 253.843 94.01C260.798 94.01 262.943 101.615 262.943 107.335C262.943 110.78 261.448 122.09 256.443 122.09C251.243 122.09 250.333 113.185 250.333 109.48C250.333 106.49 251.178 96.415 255.598 96.415C247.733 96.415 240.453 100.64 240.453 109.22C240.453 117.995 247.863 123.65 256.183 123.65C265.803 123.65 272.758 116.045 272.758 106.62C272.758 95.96 265.283 90.565 255.143 90.565C241.103 90.565 236.293 105.32 232.133 116.11C230.443 112.08 225.243 100.38 225.243 96.675C225.243 94.465 226.283 92.32 228.428 91.605H210.488C214.453 93.36 218.028 104.215 219.653 108.245L225.568 123C226.543 123 228.428 123.325 228.428 124.69C228.428 127.81 223.293 129.565 220.823 129.565C217.963 129.565 215.623 128.135 215.623 125.015C212.828 125.015 211.398 128.72 211.398 131.06C211.398 135.35 214.778 137.235 218.743 137.235ZM273.33 91.605C276.19 93.23 276.645 97.455 276.645 100.445V113.185C276.645 118.58 279.505 123.52 285.355 123.52C286.135 123.52 294.325 118.645 294.91 117.8C295.235 119.555 295.885 121.375 296.275 123H307.91C305.245 119.685 304.27 117.02 304.27 112.795V91.605H291.53C294.455 93.23 294.78 97.455 294.78 100.445V109.675C294.78 111.235 294.65 112.925 294.65 114.615C294.13 116.76 292.7 118.71 290.23 118.71C287.045 118.71 286.135 115.59 286.135 112.925V91.605H273.33ZM321.055 98.755V91.605C315.79 94.66 313.97 95.44 307.925 96.415C310.2 99.145 311.565 101.225 311.565 104.93V114.16C311.565 117.085 311.045 121.375 308.25 123H324.305C321.445 121.375 321.055 117.15 321.055 114.16V102.33C321.055 100.445 323.005 98.82 324.76 98.82C327.035 98.82 328.725 100.575 328.725 102.785C328.725 103.37 328.595 103.89 328.465 104.41C332.755 104.41 336.265 101.615 336.265 97.195C336.265 93.815 334.055 91.085 330.545 91.085C326.125 91.085 322.745 95.05 321.055 98.755ZM366.73 77.63C358.15 77.63 353.405 83.35 353.405 91.605H349.7V93.165H353.275V114.16C353.275 117.085 352.755 121.375 349.96 123H366.015C363.09 121.375 362.765 117.15 362.765 114.16V93.165H370.175V91.605C365.885 91.605 359.775 90.11 359.775 84.715C359.775 82.05 361.725 79.32 364.585 79.32C366.275 79.32 367.575 80.36 367.575 82.115C367.575 83.74 366.405 84.845 364.78 84.845C365.56 87.315 367.445 89.46 370.175 89.46C373.165 89.46 375.44 87.315 375.44 84.26C375.44 79.58 370.76 77.63 366.73 77.63ZM395.547 104.93V114.16C395.547 117.085 395.027 121.375 392.232 123H408.287C405.362 121.375 405.037 117.15 405.037 114.16V100.51C405.037 98.3 407.312 95.895 409.587 95.895C412.772 95.895 413.682 99.015 413.682 101.68V114.16C413.682 117.085 413.227 121.375 410.432 123H426.487C423.627 121.375 423.172 117.15 423.172 114.16V101.42C423.172 96.025 420.312 91.085 414.462 91.085C413.682 91.085 405.817 95.765 405.037 96.61V91.605C405.882 90.24 406.272 88.615 406.272 86.99C406.272 79.385 399.317 75.875 392.557 75.875C386.902 75.875 378.582 78.475 378.582 85.365C378.582 87.965 380.727 90.11 383.327 90.11C385.927 90.11 388.072 87.965 388.072 85.365C388.072 82.765 385.927 80.62 383.327 80.62C385.277 78.28 388.657 77.37 391.647 77.37C397.042 77.37 402.502 80.75 402.502 86.6C402.502 92.45 396.977 95.57 391.907 96.415C394.182 99.145 395.547 101.225 395.547 104.93ZM375.527 96.415C377.802 99.145 379.167 101.225 379.167 104.93V114.16C379.167 117.085 378.647 121.375 375.852 123H391.907C388.982 121.375 388.657 117.15 388.657 114.16V91.605C383.392 94.66 381.572 95.44 375.527 96.415ZM432.414 105.06C436.054 105.06 438.394 102.135 439.369 98.95C437.874 98.95 436.834 98.17 436.834 96.61C436.834 94.92 438.134 92.645 440.019 92.645C443.919 92.645 443.074 100.77 443.074 103.305C437.484 105.45 427.019 109.285 427.019 116.565C427.019 127.225 438.784 129.5 447.234 129.5C456.204 129.5 469.334 126.575 469.334 115.265V104.93C469.334 103.5 469.269 101.94 469.334 100.51C469.399 98.235 471.544 95.895 473.884 95.895C477.069 95.895 477.979 99.015 477.979 101.68V114.16C477.979 117.085 477.524 121.375 474.729 123H490.784C487.924 121.375 487.469 117.15 487.469 114.16V101.42C487.469 96.025 484.609 91.085 478.759 91.085C477.979 91.085 470.114 95.765 469.334 96.61V91.605C464.069 94.595 462.249 95.44 456.204 96.415C458.479 99.145 459.844 101.225 459.844 104.93V114.81C459.844 122.025 455.879 127.745 448.274 127.745C441.449 127.745 436.574 123.26 436.574 116.305C436.574 111.3 438.719 107.4 443.074 104.93V118.515C443.074 121.7 446.519 123.65 449.379 123.65C452.239 123.65 453.669 122.61 455.879 120.985V120.335C455.489 120.595 455.034 120.725 454.579 120.725C452.759 120.725 452.564 117.93 452.564 116.695V101.745C452.564 94.79 447.429 91.085 440.799 91.085C435.339 91.085 428.189 93.62 428.189 100.12C428.189 102.655 429.684 105.06 432.414 105.06ZM506.856 101.745C507.961 105.385 510.106 107.79 514.071 107.79C517.581 107.79 519.596 105.515 519.596 102.135C519.596 94.985 512.446 91.085 506.076 91.085C496.846 91.085 491.321 98.95 491.321 107.595C491.321 116.565 497.821 123.65 506.921 123.65C513.096 123.65 517.776 120.855 520.766 115.46L520.246 115.07C518.881 116.435 514.851 116.89 513.031 116.89C504.711 116.89 501.006 109.22 501.006 101.875C501.006 99.34 501.786 92.645 505.426 92.645C508.351 92.645 511.211 95.505 511.211 98.43C511.211 100.9 509.001 101.745 506.856 101.745ZM529.196 90.11C531.796 90.11 533.941 87.965 533.941 85.365C533.941 82.765 531.796 80.62 529.196 80.62C526.596 80.62 524.451 82.765 524.451 85.365C524.451 87.965 526.596 90.11 529.196 90.11ZM537.776 123C534.851 121.375 534.526 117.15 534.526 114.16V91.605C529.261 94.66 527.441 95.44 521.396 96.415C523.671 99.145 525.036 101.225 525.036 104.93V114.16C525.036 117.085 524.516 121.375 521.721 123H537.776ZM567.153 120.335C566.763 120.595 566.308 120.725 565.853 120.725C564.033 120.725 563.838 117.93 563.838 116.695V101.745C563.838 94.79 558.703 91.085 552.073 91.085C546.613 91.085 539.463 93.62 539.463 100.12C539.463 102.655 540.958 105.06 543.688 105.06C547.328 105.06 549.668 102.135 550.643 98.95C549.148 98.95 548.108 98.17 548.108 96.61C548.108 94.92 549.408 92.645 551.293 92.645C554.673 92.645 554.348 98.365 554.348 100.575V102.655C550.188 107.205 538.293 109.935 538.293 116.695C538.293 121.57 541.543 123.65 546.093 123.65C549.798 123.65 552.658 122.35 554.673 120.075C555.583 122.285 558.313 123.65 560.653 123.65C563.578 123.65 564.943 122.61 567.153 120.985V120.335ZM554.348 118.71C553.698 119.1 552.853 119.36 551.813 119.36C548.498 119.36 547.848 116.5 547.848 113.77C547.848 110 551.878 107.205 554.348 104.93V118.71ZM580.61 76.915C575.345 79.97 573.525 80.75 567.48 81.725C569.755 84.455 571.12 86.535 571.12 90.24V114.16C571.12 117.15 570.665 121.375 567.805 123H583.925C581 121.375 580.61 117.15 580.61 114.16V76.915ZM16.51 161.085C9.425 161.085 0.91 164.595 0.91 172.85C0.91 177.4 3.445 180.52 6.955 182.405C5.915 184.095 2.535 189.555 2.535 190.335C2.535 198.655 23.985 193.52 23.985 201.515C23.985 205.22 19.435 206.39 16.445 206.39C14.04 206.39 8.775 205.22 8.775 202.035C8.775 201.385 9.1 200.8 9.555 200.345C8.84 198.07 7.15 196.055 4.615 196.055C2.21 196.055 0.39 197.615 0.39 200.085C0.39 206.65 11.05 207.95 15.73 207.95C21.97 207.95 33.605 206.65 33.605 198.2C33.605 183.77 7.41 190.335 7.41 184.68C7.41 184.03 7.605 183.445 8.06 182.99C10.66 184.16 13.715 184.68 16.51 184.68C23.725 184.68 31.98 181.17 31.98 172.85C31.98 166.025 26.195 162.45 20.215 161.41C21.385 160.24 22.88 159.395 24.57 159.395C25.87 159.395 27.105 160.045 27.56 161.345C27.885 161.41 28.34 161.475 28.665 161.475C31.46 161.475 33.995 159.785 33.995 156.795C33.995 154.195 31.915 152.57 29.38 152.57C24.765 152.57 21.125 157.315 18.915 161.215C18.135 161.15 17.29 161.085 16.51 161.085ZM18.59 182.925C12.74 182.925 9.88 173.76 9.88 169.08C9.88 166.545 10.595 162.97 13.78 162.97C19.89 162.97 22.945 171.29 22.945 176.36C22.945 179.155 22.035 182.925 18.59 182.925ZM101.997 190.335C101.607 190.595 101.152 190.725 100.697 190.725C98.8772 190.725 98.6822 187.93 98.6822 186.695V171.745C98.6822 164.79 93.5472 161.085 86.9172 161.085C81.4572 161.085 74.3072 163.62 74.3072 170.12C74.3072 172.655 75.8022 175.06 78.5322 175.06C82.1722 175.06 84.5122 172.135 85.4872 168.95C83.9922 168.95 82.9522 168.17 82.9522 166.61C82.9522 164.92 84.2522 162.645 86.1372 162.645C89.5172 162.645 89.1922 168.365 89.1922 170.575V172.655C85.0322 177.205 73.1372 179.935 73.1372 186.695C73.1372 191.57 76.3872 193.65 80.9372 193.65C84.6422 193.65 87.5022 192.35 89.5172 190.075C90.4272 192.285 93.1572 193.65 95.4972 193.65C98.4222 193.65 99.7872 192.61 101.997 190.985V190.335ZM89.1922 188.71C88.5422 189.1 87.6972 189.36 86.6572 189.36C83.3422 189.36 82.6922 186.5 82.6922 183.77C82.6922 180 86.7222 177.205 89.1922 174.93V188.71ZM115.454 146.915C110.189 149.97 108.369 150.75 102.324 151.725C104.599 154.455 105.964 156.535 105.964 160.24V184.16C105.964 187.15 105.509 191.375 102.649 193H118.769C115.844 191.375 115.454 187.15 115.454 184.16V146.915ZM131.635 193.65C137.29 193.65 146 191.635 146 184.485C146 173.76 128.125 174.02 128.125 167.455C128.125 164.595 130.27 162.645 133.13 162.645C135.535 162.645 137.94 164.205 137.94 166.805C137.94 168.17 137.095 169.21 135.665 169.21C136.445 171.745 138.33 173.565 141.06 173.565C143.725 173.565 145.35 171.875 145.35 169.21C145.35 163.23 138.265 161.085 133.39 161.085C127.93 161.085 120.455 163.815 120.455 170.315C120.455 181.3 137.485 180.78 137.485 187.475C137.485 190.725 134.43 192.09 131.635 192.09C129.295 192.09 126.565 190.725 126.565 188.06C126.565 186.5 127.67 185.33 129.23 185.33C128.71 182.73 126.76 180.065 123.835 180.065C120.78 180.065 119.155 182.47 119.155 185.33C119.155 191.44 126.76 193.65 131.635 193.65ZM152.098 193.65C154.698 193.65 156.843 191.505 156.843 188.905C156.843 186.305 154.698 184.16 152.098 184.16C149.498 184.16 147.288 186.305 147.288 188.905C147.288 191.505 149.498 193.65 152.098 193.65Z" fill="white"/>
<g clip-path="url(#clip0_1821_27033)">
<mask id="mask0_1821_27033" style="mask-type:luminance" maskUnits="userSpaceOnUse" x="3" y="125" width="104" height="104">
<path d="M107 125H3V229H107V125Z" fill="white"/>
</mask>
<g mask="url(#mask0_1821_27033)">
<path d="M71.808 176.844C71.808 187.515 63.1583 196.165 52.4879 196.165C41.8171 196.165 33.167 187.515 33.167 176.844C33.167 166.174 41.8171 157.523 52.4879 157.523C63.1583 157.523 71.808 166.174 71.808 176.844Z" fill="#002E5E"/>
<path d="M66.0637 176.843C66.0637 184.34 59.9859 190.418 52.4887 190.418C44.9914 190.418 38.9136 184.34 38.9136 176.843C38.9136 169.345 44.9914 163.268 52.4887 163.268C59.9859 163.268 66.0637 169.345 66.0637 176.843Z" fill="#41A5DE"/>
<path d="M62.0705 176.844C62.0705 182.136 57.7804 186.427 52.4879 186.427C47.1959 186.427 42.9053 182.136 42.9053 176.844C42.9053 171.552 47.1959 167.262 52.4879 167.262C57.7804 167.262 62.0705 171.552 62.0705 176.844Z" fill="#002E5E"/>
<path d="M57.0587 176.844C57.0587 179.368 55.0126 181.415 52.4881 181.415C49.9636 181.415 47.9175 179.368 47.9175 176.844C47.9175 174.32 49.9636 172.273 52.4881 172.273C55.0126 172.273 57.0587 174.32 57.0587 176.844Z" fill="#41A5DE"/>
<path d="M77.7963 157.803L74.9414 156.846C74.9283 156.537 74.8099 156.23 74.5822 155.985C74.4108 155.801 74.1996 155.677 73.9747 155.61L73.4077 152.574C73.3304 152.158 73.0034 152.043 72.6825 152.317L67.2716 156.942C66.9501 157.217 66.7175 157.786 66.7535 158.208L67.0403 161.482L52.8196 175.535C52.2743 176.042 51.6619 176.272 52.1695 176.818C52.6776 177.365 52.9513 176.771 53.4971 176.264L68.369 163.263L71.1462 163.99C71.5548 164.097 72.1433 163.95 72.4541 163.663L77.9606 158.57C78.271 158.283 78.1972 157.938 77.7963 157.803Z" fill="#FFCB31"/>
</g>
</g>
<g clip-path="url(#clip1_1821_27033)">
<mask id="mask1_1821_27033" style="mask-type:luminance" maskUnits="userSpaceOnUse" x="561" y="52" width="43" height="43">
<path d="M604 52H561V95H604V52Z" fill="white"/>
</mask>
<g mask="url(#mask1_1821_27033)">
<mask id="mask2_1821_27033" style="mask-type:luminance" maskUnits="userSpaceOnUse" x="561" y="52" width="43" height="43">
<path d="M561 52H604V95H561V52Z" fill="white"/>
</mask>
<g mask="url(#mask2_1821_27033)">
<path d="M582.502 59.6465C574.851 59.6465 568.648 65.8487 568.648 73.4997C568.648 81.1506 574.851 87.353 582.502 87.353C590.153 87.353 596.355 81.1506 596.355 73.4997C596.355 65.8487 590.153 59.6465 582.502 59.6465Z" fill="#DE5A00"/>
<path d="M582.502 59.6465C574.851 59.6465 568.648 65.8487 568.648 73.4997C568.648 81.1506 574.851 87.353 582.502 87.353C590.153 87.353 596.355 81.1506 596.355 73.4997C596.355 65.8487 590.153 59.6465 582.502 59.6465Z" fill="#EF7B00"/>
<path d="M582.502 59.6465C574.851 59.6465 568.648 65.8487 568.648 73.4997C568.648 81.1506 574.851 87.353 582.502 87.353C590.153 87.353 596.355 81.1506 596.355 73.4997C596.355 65.8487 590.153 59.6465 582.502 59.6465ZM582.502 83.748C576.842 83.748 572.253 79.1597 572.253 73.4997C572.253 67.8396 576.842 63.2513 582.502 63.2513C588.162 63.2513 592.75 67.8396 592.75 73.4997C592.75 79.1597 588.162 83.748 582.502 83.748Z" fill="#DE5A00"/>
<path d="M585.089 72.7821C584.581 72.583 583.973 72.4014 583.266 72.2368V69.1191C583.501 69.2063 583.696 69.3328 583.848 69.4992C583.963 69.6241 584.057 69.7607 584.131 69.9093C584.404 70.4591 584.977 70.8266 585.629 70.8266H585.721C587.007 70.8266 587.824 69.5201 587.158 68.4979C586.936 68.1577 586.658 67.8461 586.323 67.5632C585.521 66.8857 584.502 66.4824 583.266 66.353V65.6293C583.266 65.2095 582.926 64.8691 582.506 64.8691C582.086 64.8691 581.746 65.2095 581.746 65.6293V66.3303C580.474 66.4274 579.423 66.8358 578.593 67.5566C577.634 68.3899 577.154 69.428 577.154 70.6713C577.154 72.7909 578.685 74.2021 581.746 74.9058V78.1176C581.346 78.0372 581.007 77.8823 580.73 77.6515C580.517 77.4746 580.354 77.2589 580.239 77.0042C579.996 76.4622 579.408 76.1234 578.775 76.1234C577.556 76.1234 576.77 77.3428 577.368 78.3294C577.4 78.3821 577.433 78.4346 577.467 78.4867C577.949 79.2164 578.613 79.7905 579.46 80.2092C580.142 80.5466 580.905 80.7479 581.746 80.8133V81.3715C581.746 81.7914 582.086 82.1318 582.506 82.1318C582.926 82.1318 583.266 81.7914 583.266 81.3715V80.793C584.477 80.6701 585.494 80.2902 586.317 79.6523C587.336 78.8623 587.846 77.8286 587.846 76.5507C587.846 74.7635 586.927 73.5074 585.089 72.7821ZM581.049 71.4936C580.684 71.239 580.501 70.9043 580.501 70.49C580.501 70.0496 580.662 69.687 580.983 69.4021C581.185 69.2229 581.439 69.1003 581.746 69.0338V71.8354C581.457 71.7293 581.224 71.6155 581.049 71.4936ZM583.951 77.7744C583.769 77.9193 583.54 78.0242 583.266 78.092V75.3476C583.488 75.4362 583.677 75.5286 583.83 75.6248C584.252 75.8882 584.463 76.2485 584.463 76.7061C584.463 77.1464 584.292 77.5025 583.951 77.7744Z" fill="#DE5A00"/>
<path d="M582.502 59.6465C574.851 59.6465 568.648 65.8487 568.648 73.4997C568.648 81.1506 574.851 87.353 582.502 87.353C590.153 87.353 596.355 81.1506 596.355 73.4997C596.355 65.8487 590.153 59.6465 582.502 59.6465ZM582.502 83.748C576.842 83.748 572.253 79.1597 572.253 73.4997C572.253 67.8396 576.842 63.2513 582.502 63.2513C588.162 63.2513 592.75 67.8396 592.75 73.4997C592.75 79.1597 588.162 83.748 582.502 83.748Z" fill="#FFC711"/>
<mask id="mask3_1821_27033" style="mask-type:alpha" maskUnits="userSpaceOnUse" x="568" y="59" width="29" height="29">
<mask id="mask4_1821_27033" style="mask-type:luminance" maskUnits="userSpaceOnUse" x="561" y="52" width="43" height="43">
<path d="M561 52H604V95H561V52Z" fill="white"/>
</mask>
<g mask="url(#mask4_1821_27033)">
<path d="M582.502 59.6484C574.851 59.6484 568.649 65.8507 568.649 73.5016C568.649 81.1526 574.851 87.3549 582.502 87.3549C590.153 87.3549 596.355 81.1526 596.355 73.5016C596.355 65.8507 590.153 59.6484 582.502 59.6484ZM582.502 83.7499C576.842 83.7499 572.254 79.1616 572.254 73.5016C572.254 67.8416 576.842 63.2533 582.502 63.2533C588.162 63.2533 592.75 67.8416 592.75 73.5016C592.75 79.1616 588.162 83.7499 582.502 83.7499Z" fill="#FFC711"/>
<path d="M585.089 72.7841C584.582 72.5849 583.974 72.4033 583.267 72.2387V69.1211C583.502 69.2083 583.696 69.3347 583.849 69.5012C583.964 69.626 584.058 69.7627 584.132 69.9113C584.404 70.4611 584.977 70.8286 585.629 70.8286H585.721C587.008 70.8286 587.825 69.522 587.158 68.4999C586.936 68.1597 586.658 67.8481 586.323 67.5651C585.521 66.8877 584.502 66.4844 583.267 66.355V65.6313C583.267 65.2114 582.927 64.8711 582.507 64.8711C582.087 64.8711 581.747 65.2114 581.747 65.6313V66.3322C580.475 66.4293 579.423 66.8378 578.594 67.5586C577.634 68.3919 577.155 69.43 577.155 70.6732C577.155 72.7928 578.686 74.204 581.747 74.9078V78.1195C581.347 78.0392 581.008 77.8843 580.731 77.6535C580.518 77.4765 580.354 77.2608 580.24 77.0062C579.997 76.4641 579.408 76.1253 578.776 76.1253C577.557 76.1253 576.77 77.3447 577.368 78.3314C577.4 78.3841 577.433 78.4366 577.468 78.4887C577.949 79.2184 578.613 79.7925 579.46 80.2111C580.143 80.5485 580.905 80.7498 581.747 80.8153V81.3735C581.747 81.7934 582.087 82.1337 582.507 82.1337C582.927 82.1337 583.267 81.7934 583.267 81.3735V80.7949C584.477 80.6721 585.494 80.2921 586.317 79.6542C587.336 78.8643 587.846 77.8305 587.846 76.5527C587.846 74.7655 586.927 73.5094 585.089 72.7841ZM581.05 71.4955C580.684 71.241 580.502 70.9063 580.502 70.4919C580.502 70.0516 580.662 69.689 580.984 69.4041C581.185 69.2248 581.44 69.1022 581.747 69.0357V71.8373C581.457 71.7312 581.224 71.6174 581.05 71.4955ZM583.951 77.7764C583.77 77.9212 583.541 78.0262 583.267 78.094V75.3495C583.489 75.4382 583.677 75.5306 583.831 75.6268C584.252 75.8902 584.463 76.2505 584.463 76.7081C584.463 77.1483 584.292 77.5044 583.951 77.7764Z" fill="#FFC711"/>
</g>
</mask>
<g mask="url(#mask3_1821_27033)">
<path d="M592.056 58.6014L572.762 90.7107L565.524 86.3613L584.817 54.252L592.056 58.6014Z" fill="#FFE286"/>
</g>
</g>
</g>
<circle cx="582.5" cy="73.5003" r="9.31667" fill="#EF7B00"/>
<path d="M578.917 77.7992V69.9532C578.917 69.7864 578.972 69.6244 579.074 69.4925C579.176 69.3606 579.319 69.2663 579.48 69.2245C579.642 69.1827 579.813 69.1956 579.966 69.2614C580.119 69.3271 580.246 69.4419 580.327 69.5877L584.673 77.4108C584.754 77.5566 584.881 77.6713 585.034 77.7371C585.188 77.8028 585.358 77.8158 585.52 77.774C585.681 77.7321 585.824 77.6379 585.926 77.506C586.028 77.3741 586.083 77.212 586.083 77.0453V69.1992M577.483 72.0659H587.517M577.483 74.9326H587.517" stroke="#FFE286" stroke-width="1.43333" stroke-linecap="round" stroke-linejoin="round"/>
</g>
<defs>
<clipPath id="clip0_1821_27033">
<rect width="104" height="104" fill="white" transform="translate(3 125)"/>
</clipPath>
<clipPath id="clip1_1821_27033">
<rect width="43" height="43" fill="white" transform="translate(561 52)"/>
</clipPath>
</defs>
</svg>
