<svg width="69" height="74" viewBox="0 0 69 74" fill="none" xmlns="http://www.w3.org/2000/svg">
<path d="M1.44041 22.77C0.545338 23.4172 0.344424 24.6675 0.991662 25.5626C1.6389 26.4576 2.88919 26.6585 3.78426 26.0113L1.44041 22.77ZM33.0908 54.4529L34.4022 52.9428L34.383 52.9262L34.3635 52.9101L33.0908 54.4529ZM57.0923 18.9118C57.9989 18.2809 58.2225 17.0345 57.5917 16.1278L47.3111 1.35247C46.6803 0.445782 45.4338 0.222183 44.5271 0.853049C43.6205 1.48391 43.3969 2.73035 44.0277 3.63703L53.166 16.7707L40.0324 25.9089C39.1257 26.5398 38.9021 27.7862 39.5329 28.6929C40.1638 29.5996 41.4102 29.8232 42.3169 29.1923L57.0923 18.9118ZM3.78426 26.0113C4.97724 25.1487 7.53342 24.6046 11.478 25.0009C15.3045 25.3854 20.0518 26.6182 25.2286 28.799C35.5773 33.1585 47.4265 41.2152 56.8251 53.41L59.9934 50.9682C50.1342 38.176 37.7062 29.7149 26.7815 25.1127C21.3216 22.8126 16.1831 21.4535 11.8778 21.021C7.6905 20.6003 3.86868 21.0141 1.44041 22.77L3.78426 26.0113ZM56.8251 53.41C61.605 59.6118 63.8988 64.061 64.4712 66.8338C64.7554 68.2107 64.5483 68.8457 64.395 69.0875C64.2889 69.2549 64.013 69.5456 63.0881 69.618C62.1299 69.6931 60.7226 69.4977 58.8427 68.8793C56.987 68.2688 54.7847 67.2842 52.2796 65.8988C47.2704 63.1284 41.1748 58.8242 34.4022 52.9428L31.7794 55.963C38.7037 61.9761 45.0285 66.4595 50.3437 69.3991C53.0008 70.8686 55.4367 71.9696 57.5927 72.6789C59.7244 73.3802 61.7024 73.7389 63.4005 73.6058C65.132 73.4702 66.7835 72.7906 67.7733 71.2293C68.716 69.7424 68.7736 67.8902 68.3886 66.0251C67.6225 62.3139 64.8424 57.2598 59.9934 50.9682L56.8251 53.41ZM34.3635 52.9101C31.0762 50.1984 27.1246 45.9222 23.9903 41.2106C20.8213 36.4467 18.6831 31.5286 18.6221 27.4908C18.5924 25.5251 19.0544 23.8342 20.0681 22.4297C21.0859 21.0196 22.7832 19.7278 25.52 18.7849C31.0818 16.8688 40.5287 16.5356 55.5968 19.2387L56.3031 15.3015C41.0639 12.5677 30.7772 12.743 24.2171 15.0031C20.8931 16.1483 18.4323 17.8615 16.8248 20.0887C15.2132 22.3214 14.5825 24.9 14.6225 27.5513C14.7011 32.7475 17.352 38.4534 20.6599 43.426C24.0025 48.4509 28.2153 53.0237 31.8181 55.9957L34.3635 52.9101Z" fill="url(#paint0_linear_2803_28715)"/>
<defs>
<linearGradient id="paint0_linear_2803_28715" x1="23.8973" y1="-17.5012" x2="37.6691" y2="107.428" gradientUnits="userSpaceOnUse">
<stop stop-color="#2563EB"/>
<stop offset="1" stop-color="#35FF49"/>
</linearGradient>
</defs>
</svg>
