<svg width="1440" height="788" viewBox="0 0 1440 788" fill="none" xmlns="http://www.w3.org/2000/svg">
<g clip-path="url(#clip0_3481_29593)">
<rect y="-1" width="1441" height="791" fill="#01183B"/>
<path d="M1168.5 395.902L1171.1 398.502L1168.5 401.102L1165.9 398.502L1168.5 395.902Z" fill="white"/>
<rect x="1168.24" y="392" width="0.52" height="4.94" fill="white"/>
<rect x="1168.24" y="400.059" width="0.52" height="4.94" fill="white"/>
<rect x="1170.19" y="398.891" width="0.52" height="4.94" transform="rotate(-90 1170.19 398.891)" fill="white"/>
<rect x="1162" y="398.891" width="0.52" height="4.94" transform="rotate(-90 1162 398.891)" fill="white"/>
<path d="M1398.5 701.902L1401.1 704.502L1398.5 707.102L1395.9 704.502L1398.5 701.902Z" fill="white"/>
<rect x="1398.24" y="698" width="0.52" height="4.94" fill="white"/>
<rect x="1398.24" y="706.059" width="0.52" height="4.94" fill="white"/>
<rect x="1400.19" y="704.891" width="0.52" height="4.94" transform="rotate(-90 1400.19 704.891)" fill="white"/>
<rect x="1392" y="704.891" width="0.52" height="4.94" transform="rotate(-90 1392 704.891)" fill="white"/>
<path d="M628.502 93.9023L631.102 96.5023L628.502 99.1023L625.902 96.5023L628.502 93.9023Z" fill="white"/>
<rect x="628.238" y="90" width="0.52" height="4.94" fill="white"/>
<rect x="628.238" y="98.0586" width="0.52" height="4.94" fill="white"/>
<rect x="630.191" y="96.8906" width="0.52" height="4.94" transform="rotate(-90 630.191 96.8906)" fill="white"/>
<rect x="622" y="96.8906" width="0.52" height="4.94" transform="rotate(-90 622 96.8906)" fill="white"/>
<path d="M1250.5 88.9023L1253.1 91.5023L1250.5 94.1023L1247.9 91.5023L1250.5 88.9023Z" fill="white"/>
<rect x="1250.24" y="85" width="0.52" height="4.94" fill="white"/>
<rect x="1250.24" y="93.0586" width="0.52" height="4.94" fill="white"/>
<rect x="1252.19" y="91.8906" width="0.52" height="4.94" transform="rotate(-90 1252.19 91.8906)" fill="white"/>
<rect x="1244" y="91.8906" width="0.52" height="4.94" transform="rotate(-90 1244 91.8906)" fill="white"/>
<g opacity="0.1" filter="url(#filter0_f_3481_29593)">
<circle cx="1185" cy="30" r="330" fill="#288A6B"/>
</g>
<g opacity="0.1" filter="url(#filter1_f_3481_29593)">
<circle cx="942" cy="143" r="330" fill="#28896B"/>
</g>
<path d="M249.902 683.941L253.862 687.902L249.902 691.862L245.941 687.902L249.902 683.941Z" fill="white"/>
<rect x="249.504" y="678" width="0.792079" height="7.52475" fill="white"/>
<rect x="249.504" y="690.277" width="0.792079" height="7.52475" fill="white"/>
<rect x="252.477" y="688.496" width="0.792079" height="7.52475" transform="rotate(-90 252.477 688.496)" fill="white"/>
<rect x="240" y="688.496" width="0.792079" height="7.52475" transform="rotate(-90 240 688.496)" fill="white"/>
<path d="M850.902 739.941L854.862 743.902L850.902 747.862L846.941 743.902L850.902 739.941Z" fill="white"/>
<rect x="850.504" y="734" width="0.792079" height="7.52475" fill="white"/>
<rect x="850.504" y="746.277" width="0.792079" height="7.52475" fill="white"/>
<rect x="853.477" y="744.496" width="0.792079" height="7.52475" transform="rotate(-90 853.477 744.496)" fill="white"/>
<rect x="841" y="744.496" width="0.792079" height="7.52475" transform="rotate(-90 841 744.496)" fill="white"/>
<path d="M130.902 412.941L134.862 416.902L130.902 420.862L126.941 416.902L130.902 412.941Z" fill="white"/>
<rect x="130.504" y="407" width="0.792079" height="7.52475" fill="white"/>
<rect x="130.504" y="419.277" width="0.792079" height="7.52475" fill="white"/>
<rect x="133.477" y="417.496" width="0.792079" height="7.52475" transform="rotate(-90 133.477 417.496)" fill="white"/>
<rect x="121" y="417.496" width="0.792079" height="7.52475" transform="rotate(-90 121 417.496)" fill="white"/>
<path d="M828.902 667.941L832.862 671.902L828.902 675.862L824.941 671.902L828.902 667.941Z" fill="white"/>
<rect x="828.504" y="662" width="0.792079" height="7.52475" fill="white"/>
<rect x="828.504" y="674.277" width="0.792079" height="7.52475" fill="white"/>
<rect x="831.477" y="672.496" width="0.792079" height="7.52475" transform="rotate(-90 831.477 672.496)" fill="white"/>
<rect x="819" y="672.496" width="0.792079" height="7.52475" transform="rotate(-90 819 672.496)" fill="white"/>
<path d="M420.502 386.902L423.102 389.502L420.502 392.102L417.902 389.502L420.502 386.902Z" fill="white"/>
<rect x="420.238" y="383" width="0.52" height="4.94" fill="white"/>
<rect x="420.238" y="391.059" width="0.52" height="4.94" fill="white"/>
<rect x="422.191" y="389.891" width="0.52" height="4.94" transform="rotate(-90 422.191 389.891)" fill="white"/>
<rect x="414" y="389.891" width="0.52" height="4.94" transform="rotate(-90 414 389.891)" fill="white"/>
<g opacity="0.1" filter="url(#filter2_f_3481_29593)">
<circle cx="363" cy="166" r="330" fill="#E962FF"/>
</g>
</g>
<defs>
<filter id="filter0_f_3481_29593" x="755" y="-400" width="860" height="860" filterUnits="userSpaceOnUse" color-interpolation-filters="sRGB">
<feFlood flood-opacity="0" result="BackgroundImageFix"/>
<feBlend mode="normal" in="SourceGraphic" in2="BackgroundImageFix" result="shape"/>
<feGaussianBlur stdDeviation="50" result="effect1_foregroundBlur_3481_29593"/>
</filter>
<filter id="filter1_f_3481_29593" x="462" y="-337" width="960" height="960" filterUnits="userSpaceOnUse" color-interpolation-filters="sRGB">
<feFlood flood-opacity="0" result="BackgroundImageFix"/>
<feBlend mode="normal" in="SourceGraphic" in2="BackgroundImageFix" result="shape"/>
<feGaussianBlur stdDeviation="75" result="effect1_foregroundBlur_3481_29593"/>
</filter>
<filter id="filter2_f_3481_29593" x="-117" y="-314" width="960" height="960" filterUnits="userSpaceOnUse" color-interpolation-filters="sRGB">
<feFlood flood-opacity="0" result="BackgroundImageFix"/>
<feBlend mode="normal" in="SourceGraphic" in2="BackgroundImageFix" result="shape"/>
<feGaussianBlur stdDeviation="75" result="effect1_foregroundBlur_3481_29593"/>
</filter>
<clipPath id="clip0_3481_29593">
<rect width="1440" height="788" fill="white"/>
</clipPath>
</defs>
</svg>
