<svg width="936" height="451" viewBox="0 0 936 451" fill="none" xmlns="http://www.w3.org/2000/svg">
<g clip-path="url(#clip0_3468_30479)">
<g clip-path="url(#clip1_3468_30479)">
<rect width="936" height="450.25" rx="17.3173" fill="#F9F9F9"/>
<rect width="10.0374" height="106.75" rx="4.24295" transform="matrix(-0.948209 0.317648 0.317648 0.948209 640.352 324.969)" fill="url(#paint0_linear_3468_30479)"/>
<rect width="10.0374" height="102.563" rx="2.12147" transform="matrix(-0.948209 0.317648 0.317648 0.948209 639.121 327.59)" fill="url(#paint1_linear_3468_30479)"/>
<rect width="10.1803" height="30.5169" rx="4.24295" transform="matrix(0.948209 -0.317648 -0.317648 -0.948209 216.938 440.473)" fill="url(#paint2_linear_3468_30479)"/>
<rect width="10.1803" height="26.5364" rx="2.12147" transform="matrix(0.948209 -0.317648 -0.317648 -0.948209 218.117 437.977)" fill="url(#paint3_linear_3468_30479)"/>
<rect x="141.617" y="202.867" width="429.355" height="897.953" rx="79.5553" transform="rotate(-18.5207 141.617 202.867)" fill="black"/>
<rect x="144.184" y="204.215" width="425.342" height="893.766" rx="78.4946" transform="rotate(-18.5207 144.184 204.215)" fill="url(#paint4_linear_3468_30479)"/>
<rect x="146.492" y="205.398" width="421.329" height="889.58" rx="76.3731" transform="rotate(-18.5207 146.492 205.398)" fill="black"/>
<rect x="159.801" y="212.387" width="400.06" height="867.394" rx="68.13" transform="rotate(-18.5207 159.801 212.387)" fill="white"/>
<g clip-path="url(#clip2_3468_30479)">
<rect x="158.906" y="212.684" width="400.987" height="913.628" rx="60" transform="rotate(-18.5207 158.906 212.684)" fill="white"/>
<rect x="158.906" y="212.684" width="424" height="936" transform="rotate(-18.5207 158.906 212.684)" fill="black"/>
<g clip-path="url(#clip3_3468_30479)">
<path opacity="0.35" fill-rule="evenodd" clip-rule="evenodd" d="M517.454 117.203C516.378 117.563 515.977 117.778 515.607 118.131C515.294 118.429 515.091 118.777 515.001 119.168C514.895 119.632 514.938 120.032 515.254 120.975L516.662 125.179C516.978 126.122 517.185 126.467 517.549 126.773C517.856 127.032 518.228 127.187 518.657 127.237C519.165 127.295 519.615 127.225 520.691 126.864L536.872 121.444C537.948 121.083 538.35 120.869 538.72 120.516C539.032 120.218 539.236 119.869 539.325 119.478C539.431 119.015 539.388 118.614 539.073 117.672L537.664 113.468C537.348 112.525 537.141 112.18 536.778 111.873C536.47 111.615 536.098 111.459 535.669 111.41C535.161 111.351 534.712 111.422 533.636 111.782L517.454 117.203Z" stroke="white" stroke-width="0.986075"/>
<path opacity="0.4" d="M539.344 113.164L540.597 116.904C541.349 116.3 541.661 115.376 541.387 114.559C541.114 113.743 540.309 113.193 539.344 113.164Z" fill="white"/>
<path d="M518.234 118.502L533.795 113.289C534.429 113.077 534.678 113.058 534.947 113.089C535.215 113.12 535.45 113.218 535.642 113.38C535.835 113.541 535.968 113.721 536.154 114.277L537.38 117.937C537.567 118.493 537.568 118.716 537.512 118.961C537.456 119.206 537.328 119.426 537.132 119.612C536.937 119.799 536.726 119.934 536.092 120.146L520.531 125.359C519.897 125.571 519.648 125.591 519.379 125.56C519.111 125.529 518.876 125.43 518.684 125.269C518.491 125.107 518.358 124.928 518.172 124.372L516.946 120.711C516.759 120.156 516.758 119.932 516.814 119.687C516.87 119.443 516.998 119.222 517.194 119.036C517.389 118.85 517.6 118.715 518.234 118.502Z" fill="white"/>
<path d="M500.847 124.622C503.221 123.826 505.772 123.86 507.972 124.716C508.139 124.783 508.345 124.712 508.435 124.557L509.307 123.048C509.353 122.969 509.363 122.88 509.336 122.8C509.308 122.72 509.245 122.656 509.161 122.621C503.376 120.345 496.251 122.732 493.004 128.034C492.958 128.112 492.946 128.201 492.973 128.281C492.999 128.362 493.061 128.427 493.144 128.462L494.75 129.142C494.915 129.211 495.123 129.143 495.215 128.989C496.456 126.981 498.472 125.417 500.847 124.622ZM502.039 128.182C503.344 127.745 504.744 127.748 505.968 128.19C506.135 128.255 506.34 128.184 506.43 128.029L507.301 126.521C507.346 126.442 507.357 126.352 507.328 126.271C507.3 126.19 507.237 126.126 507.151 126.092C503.404 124.681 498.844 126.208 496.703 129.592C496.655 129.671 496.643 129.761 496.669 129.842C496.695 129.923 496.758 129.989 496.842 130.024L498.446 130.704C498.61 130.773 498.817 130.707 498.912 130.554C499.621 129.464 500.736 128.619 502.039 128.182ZM505.292 129.997C505.339 129.918 505.349 129.827 505.32 129.747C505.291 129.666 505.225 129.603 505.138 129.572C503.432 129.017 501.431 129.688 500.403 131.158C500.353 131.235 500.338 131.325 500.363 131.407C500.389 131.489 500.451 131.555 500.536 131.59L503.31 132.763C503.391 132.798 503.487 132.801 503.577 132.771C503.666 132.741 503.741 132.681 503.785 132.604L505.292 129.997Z" fill="white"/>
<path d="M471.733 139.278L472.801 138.921C473.39 138.723 474.008 138.982 474.181 139.498L474.807 141.368C474.98 141.885 474.643 142.463 474.053 142.661L472.986 143.018C472.397 143.216 471.779 142.957 471.606 142.441L470.98 140.571C470.807 140.054 471.144 139.476 471.733 139.278ZM476.087 135.74L477.154 135.382C477.744 135.185 478.362 135.444 478.535 135.96L479.787 139.7C479.96 140.216 479.623 140.795 479.034 140.992L477.966 141.35C477.377 141.547 476.759 141.289 476.586 140.772L475.333 137.032C475.16 136.516 475.498 135.937 476.087 135.74ZM480.336 131.89L481.403 131.532C481.993 131.335 482.611 131.594 482.784 132.11L484.768 138.032C484.941 138.548 484.603 139.127 484.014 139.324L482.946 139.682C482.357 139.879 481.739 139.621 481.566 139.104L479.582 133.182C479.409 132.666 479.747 132.087 480.336 131.89ZM484.585 128.04L485.653 127.682C486.242 127.485 486.86 127.744 487.033 128.26L489.748 136.363C489.921 136.88 489.583 137.458 488.994 137.656L487.926 138.013C487.337 138.211 486.719 137.952 486.546 137.436L483.831 129.332C483.658 128.816 483.996 128.237 484.585 128.04Z" fill="white"/>
<path d="M201.492 231.735L198.344 222.338L196.956 222.803C196.681 223.566 196.102 224.025 195.33 224.284L195.716 225.434L197.427 224.86L199.907 232.266L201.492 231.735ZM209.86 228.932L209.39 227.529L205.786 228.737L204.43 229.347L205.252 228.167L206.171 226.58C206.889 225.419 207.799 223.663 207.291 222.149C206.775 220.606 205.473 219.794 203.58 220.428C201.42 221.152 200.352 223.038 201.023 224.904L202.675 225.411C201.985 223.63 202.558 222.455 203.947 221.99C204.859 221.684 205.444 222.128 205.669 222.801C205.965 223.685 205.56 224.616 204.944 225.805L202.738 229.976L203.142 231.182L209.86 228.932ZM211.321 223.294L210.654 221.303L208.859 221.904L209.526 223.896L211.321 223.294ZM212.872 227.923L212.205 225.931L210.409 226.533L211.076 228.524L212.872 227.923ZM218.156 226.293C220.778 225.414 221.401 222.897 220.476 220.134C219.555 217.385 217.541 215.751 214.918 216.63C212.296 217.508 211.659 220.03 212.58 222.779C213.505 225.542 215.533 227.172 218.156 226.293ZM217.648 224.778C215.979 225.337 214.911 224.198 214.248 222.22C213.591 220.257 213.752 218.69 215.421 218.13C217.104 217.567 218.163 218.725 218.821 220.689C219.483 222.666 219.331 224.214 217.648 224.778ZM227.318 223.223C229.941 222.345 230.564 219.828 229.638 217.065C228.718 214.316 226.704 212.682 224.081 213.56C221.459 214.439 220.821 216.961 221.742 219.71C222.668 222.473 224.696 224.102 227.318 223.223ZM226.811 221.709C225.142 222.268 224.074 221.128 223.411 219.151C222.754 217.187 222.915 215.62 224.584 215.061C226.267 214.497 227.326 215.655 227.984 217.619C228.646 219.597 228.494 221.145 226.811 221.709Z" fill="white"/>
</g>
<g clip-path="url(#clip4_3468_30479)">
<path d="M216.702 300.707L208.709 296.741C208.615 296.694 208.538 296.633 208.481 296.56C208.423 296.487 208.378 296.403 208.347 296.309C208.315 296.214 208.301 296.12 208.303 296.027C208.305 295.934 208.329 295.84 208.376 295.745L212.36 287.747C212.471 287.525 212.65 287.373 212.899 287.289C213.148 287.206 213.391 287.223 213.629 287.341C213.866 287.46 214.024 287.637 214.104 287.874C214.183 288.111 214.164 288.349 214.045 288.586L210.57 295.564L217.548 299.04C217.769 299.15 217.921 299.327 218.002 299.57C218.084 299.814 218.065 300.054 217.947 300.29C217.828 300.528 217.651 300.686 217.414 300.766C217.177 300.845 216.939 300.826 216.702 300.707Z" fill="white"/>
</g>
<path d="M344.671 256.082C346.644 255.422 347.76 253.867 347.17 252.107C346.499 250.104 344.733 250.071 343.175 250.205L341.976 250.303C340.711 250.406 339.841 250.276 339.5 249.26C339.185 248.319 339.832 247.478 340.954 247.102C342.274 246.66 343.494 246.876 344.442 248.094L345.255 246.843C344.124 245.534 342.399 245.218 340.563 245.833C338.788 246.427 337.515 247.967 338.135 249.818C338.775 251.73 340.511 251.823 341.963 251.674L342.99 251.567C344.447 251.433 345.439 251.421 345.83 252.59C346.201 253.697 345.392 254.457 344.255 254.838C342.98 255.265 341.204 255.202 340.18 253.706L339.473 254.921C340.771 256.579 342.76 256.723 344.671 256.082ZM353.005 253.291C354.598 252.757 355.366 251.673 355.617 250.61L354.508 249.969C354.433 250.703 354.111 251.705 352.639 252.198C351.334 252.635 350.175 252.045 349.581 250.523L355.027 248.699C355.012 248.552 354.966 248.314 354.89 248.086C354.168 245.932 352.446 244.973 350.368 245.67C348.35 246.346 347.427 248.325 348.205 250.647C348.987 252.983 350.927 253.987 353.005 253.291ZM350.739 246.777C351.968 246.366 352.995 246.814 353.584 248.119L349.291 249.557C349 248.136 349.555 247.174 350.739 246.777ZM359.209 251.044L357.816 246.887C357.404 245.658 357.59 244.499 359.001 244.026C360.245 243.61 360.848 244.15 361.168 245.106L362.759 249.854L364.063 249.417L362.366 244.35C361.842 242.787 360.658 242.223 359.216 242.705C357.775 243.188 357.311 244.423 357.404 245.658L356.749 243.701L355.429 244.143L357.889 251.486L359.209 251.044ZM368.648 248.084C370.059 247.611 370.442 246.437 370.324 245.228L370.954 247.109L372.274 246.667L368.869 236.502L367.549 236.944L369.134 241.678C368.5 240.641 367.487 239.935 366.077 240.407C364.226 241.027 363.581 242.931 364.358 245.252C365.136 247.573 366.797 248.704 368.648 248.084ZM365.694 244.805C365.068 242.939 365.74 241.769 366.893 241.383C368.304 240.91 369.15 241.723 369.556 242.937L369.907 243.984C370.314 245.197 370.128 246.356 368.717 246.829C367.564 247.215 366.324 246.686 365.694 244.805ZM379.08 244.387L377.2 238.773L376.113 236.083L378.094 238.221L381.667 241.63L382.956 241.198L383.753 236.325L384.032 233.43L384.816 236.222L386.696 241.835L388.016 241.393L384.611 231.229L383.139 231.721L382.187 237.643L381.917 240.213L380.139 238.329L375.827 234.171L374.355 234.664L377.76 244.829L379.08 244.387ZM393.122 239.852C395.155 239.171 396.093 237.186 395.315 234.865C394.538 232.543 392.593 231.524 390.56 232.205C388.527 232.886 387.604 234.866 388.382 237.187C389.16 239.508 391.089 240.533 393.122 239.852ZM392.751 238.744C391.507 239.161 390.352 238.586 389.732 236.735C389.107 234.869 389.687 233.73 390.931 233.313C392.191 232.891 393.355 233.446 393.98 235.312C394.6 237.163 394.01 238.322 392.751 238.744ZM399.522 237.539L398.13 233.382C397.718 232.153 397.904 230.994 399.314 230.521C400.559 230.105 401.161 230.645 401.482 231.601L403.072 236.349L404.377 235.912L402.68 230.845C402.156 229.282 400.971 228.718 399.53 229.2C398.089 229.683 397.625 230.918 397.718 232.153L397.062 230.196L395.743 230.638L398.202 237.981L399.522 237.539ZM409.483 234.371C411.076 233.837 411.843 232.753 412.095 231.69L410.986 231.049C410.911 231.783 410.588 232.785 409.117 233.278C407.812 233.715 406.653 233.125 406.058 231.603L411.505 229.779C411.489 229.632 411.444 229.394 411.367 229.167C410.646 227.012 408.924 226.054 406.845 226.75C404.828 227.426 403.905 229.405 404.682 231.727C405.465 234.063 407.404 235.067 409.483 234.371ZM407.216 227.857C408.445 227.446 409.473 227.894 410.062 229.199L405.768 230.637C405.478 229.216 406.033 228.254 407.216 227.857ZM416.084 234.657C417.116 234.311 417.787 233.597 417.805 232.089L417.964 223.194L416.553 223.666L416.571 228.908L416.584 230.659L415.54 229.254L412.381 225.064L410.97 225.537L415.771 231.657L416.585 231.367L416.591 231.888C416.602 232.88 416.305 233.3 415.713 233.499C415.015 233.732 414.488 233.419 413.941 232.945L413.564 234.185C414.085 234.685 415.037 235.007 416.084 234.657Z" fill="white"/>
<path d="M616.953 452.784C619.168 452.042 620.188 450.452 619.634 448.798C619.192 447.479 618.138 446.549 616.236 447.018C617.465 446.403 617.878 445.067 617.527 444.02C617.09 442.716 615.722 441.554 613.371 442.342C611.55 442.952 610.581 444.491 610.619 446.014L612.057 446.579C611.771 445.122 612.463 444.063 613.767 443.626C615.072 443.189 615.918 443.8 616.243 444.771C616.599 445.833 616.145 446.593 614.87 447.02L613.201 447.579L613.583 448.716L615.236 448.162C616.647 447.69 617.786 447.916 618.193 449.13C618.538 450.161 618.003 451.032 616.698 451.469C614.787 452.11 613.789 451.297 612.967 449.851L612.18 451.228C613.027 452.649 614.754 453.521 616.953 452.784Z" fill="#C7C7C7"/>
<path d="M359.829 449.106L359.571 448.337L354.474 450.044L353.344 446.672L357.579 445.254L357.316 444.471L353.082 445.889L352.01 442.69L357.108 440.982L356.85 440.212L350.876 442.213L353.855 451.108L359.829 449.106ZM361.897 448.414L360.661 444.723C360.292 443.621 360.507 442.457 361.848 442.008C362.95 441.638 363.641 442.116 363.988 443.151L365.362 447.253L366.238 446.959L364.798 442.658C364.308 441.198 363.21 440.739 361.949 441.162C360.674 441.589 360.238 442.709 360.359 443.82L359.763 442.042L358.887 442.335L361.021 448.707L361.897 448.414ZM369.986 445.866C370.809 445.591 371.304 444.997 371.427 444.439L370.838 443.691C370.776 444.214 370.45 444.781 369.879 444.972C369.321 445.159 368.759 445.067 368.452 444.151L367.167 440.314L369.304 439.598L369.077 438.921L366.94 439.637L366.415 438.071L365.77 439.01L366.077 439.926L365.042 440.273L365.268 440.95L366.304 440.603L367.669 444.679C368.056 445.834 369.017 446.191 369.986 445.866ZM375.064 444.15C376.418 443.697 377.05 442.762 377.239 441.827L376.499 441.381C376.429 442.099 376.108 442.989 374.82 443.42C373.559 443.843 372.429 443.335 371.842 441.76L376.701 440.132C376.679 440.022 376.652 439.854 376.598 439.694C375.954 437.769 374.474 436.966 372.735 437.548C371.009 438.127 370.246 439.77 370.939 441.841C371.646 443.952 373.286 444.746 375.064 444.15ZM372.975 438.265C374.143 437.874 375.171 438.342 375.731 439.749L371.642 441.118C371.281 439.645 371.807 438.657 372.975 438.265ZM380.151 442.299L378.914 438.608C378.545 437.507 378.946 436.191 379.902 435.871C380.486 435.675 380.849 435.967 380.987 436.378C381.116 436.763 381.095 437.228 380.989 437.485L381.931 437.17C381.98 436.917 381.966 436.479 381.806 436.001C381.512 435.125 380.741 434.851 379.998 435.101C378.91 435.465 378.499 436.577 378.598 437.666L378.016 435.927L377.14 436.22L379.274 442.592L380.151 442.299ZM391.858 438.525C393.133 438.098 393.626 436.84 393.532 435.852L393.759 436.529C394.03 437.339 394.548 437.476 395.185 437.262L395.783 437.062L395.52 436.279L395.149 436.403C394.843 436.506 394.657 436.435 394.546 436.103L393.546 433.116C393.07 431.696 392.011 431.091 390.524 431.589C389.17 432.043 388.494 433.111 388.318 433.908L389.134 434.314C389.23 433.499 389.738 432.724 390.693 432.403C391.729 432.057 392.367 432.463 392.687 433.419L392.705 433.472L390.658 435.383C389.902 436.079 389.456 436.819 389.736 437.656C390.021 438.505 390.809 438.876 391.858 438.525ZM390.572 437.243C390.412 436.765 390.624 436.339 391.208 435.789L392.949 434.113L393.327 435.242C393.617 436.105 393.047 437.314 391.866 437.71C391.242 437.919 390.75 437.774 390.572 437.243ZM398.066 436.297L396.83 432.607C396.461 431.505 396.676 430.34 397.805 429.962C398.8 429.629 399.474 430.008 399.847 431.123L401.226 435.239L402.089 434.95L400.852 431.259C400.483 430.157 400.699 428.993 401.84 428.61C402.823 428.281 403.496 428.661 403.87 429.776L405.248 433.891L406.124 433.598L404.679 429.283C404.19 427.823 403.255 427.324 402.034 427.733C400.839 428.134 400.407 429.268 400.546 430.387C400.048 429.122 399.153 428.698 397.998 429.085C396.817 429.481 396.402 430.58 396.528 431.704L395.932 429.925L395.056 430.219L397.19 436.591L398.066 436.297ZM410.492 432.282C412.244 431.695 413.043 429.981 412.367 427.963C411.691 425.945 410.02 425.058 408.268 425.645C406.516 426.232 405.73 427.942 406.406 429.96C407.082 431.978 408.739 432.869 410.492 432.282ZM410.243 431.539C408.995 431.957 407.847 431.352 407.282 429.666C406.713 427.967 407.26 426.78 408.508 426.362C409.769 425.939 410.921 426.557 411.491 428.256C412.055 429.942 411.504 431.116 410.243 431.539ZM417.052 430.084C418.367 429.644 418.786 428.515 418.656 427.377L419.265 429.196L420.128 428.907L417.993 422.535L417.13 422.824L418.362 426.501C418.736 427.616 418.529 428.763 417.149 429.225C416.06 429.59 415.369 429.113 415.026 428.091L413.652 423.989L412.789 424.278L414.226 428.566C414.719 430.039 415.805 430.502 417.052 430.084ZM422.866 427.989L421.63 424.299C421.261 423.197 421.476 422.032 422.817 421.583C423.919 421.214 424.61 421.691 424.957 422.727L426.331 426.829L427.207 426.535L425.766 422.234C425.277 420.774 424.178 420.315 422.917 420.737C421.643 421.164 421.206 422.285 421.328 423.396L420.732 421.617L419.855 421.911L421.99 428.283L422.866 427.989ZM430.955 425.442C431.778 425.166 432.273 424.572 432.396 424.014L431.806 423.267C431.745 423.789 431.418 424.357 430.847 424.548C430.29 424.735 429.728 424.642 429.421 423.726L428.135 419.89L430.273 419.174L430.046 418.497L427.909 419.213L427.384 417.647L426.739 418.586L427.046 419.502L426.01 419.849L426.237 420.526L427.273 420.179L428.638 424.254C429.025 425.409 429.986 425.767 430.955 425.442ZM438.777 422.659L438.708 417.958L438.613 416.439L439.438 417.713L442.215 421.507L443.344 421.129L442.948 414.175L441.966 414.504L442.371 419.152L442.555 420.67L441.694 419.379L438.899 415.531L437.824 415.891L437.911 420.646L438.002 422.195L437.234 420.873L434.744 416.923L433.775 417.248L437.649 423.037L438.777 422.659ZM444.591 412.355L444.129 410.974L443.253 411.267L443.715 412.648L444.591 412.355ZM447.108 419.868L444.974 413.496L444.098 413.79L446.232 420.162L447.108 419.868ZM451.101 418.693C451.924 418.417 452.419 417.823 452.542 417.265L451.952 416.518C451.891 417.041 451.564 417.608 450.993 417.799C450.436 417.986 449.873 417.894 449.566 416.978L448.281 413.141L450.418 412.425L450.192 411.748L448.054 412.464L447.53 410.898L446.885 411.837L447.192 412.753L446.156 413.1L446.383 413.777L447.418 413.43L448.784 417.506C449.17 418.661 450.132 419.018 451.101 418.693ZM454.835 417.28L453.599 413.589C453.23 412.488 453.458 411.318 454.825 410.86C455.914 410.496 456.579 410.982 456.926 412.017L458.3 416.119L459.176 415.826L457.735 411.525C457.246 410.064 456.174 409.597 454.939 410.01C453.638 410.446 453.175 411.576 453.296 412.687L451.855 408.386L450.979 408.679L453.959 417.573L454.835 417.28ZM466.035 413.69C466.858 413.414 467.353 412.82 467.476 412.262L466.886 411.515C466.825 412.038 466.498 412.605 465.927 412.796C465.37 412.983 464.808 412.891 464.501 411.975L463.215 408.138L465.353 407.422L465.126 406.745L462.989 407.461L462.464 405.895L461.819 406.834L462.126 407.75L461.09 408.097L461.317 408.774L462.353 408.427L463.718 412.503C464.105 413.658 465.066 414.015 466.035 413.69ZM469.769 412.277L468.533 408.586C468.164 407.485 468.392 406.315 469.76 405.857C470.848 405.493 471.513 405.979 471.86 407.014L473.234 411.116L474.11 410.823L472.669 406.522C472.18 405.061 471.108 404.594 469.873 405.007C468.572 405.443 468.109 406.573 468.231 407.684L466.79 403.383L465.914 403.676L468.893 412.57L469.769 412.277ZM478.606 409.464C479.96 409.01 480.592 408.075 480.781 407.141L480.041 406.695C479.971 407.412 479.649 408.303 478.362 408.734C477.101 409.156 475.971 408.649 475.384 407.074L480.243 405.446C480.22 405.336 480.194 405.167 480.14 405.008C479.495 403.083 478.016 402.28 476.276 402.862C474.551 403.44 473.787 405.084 474.481 407.155C475.188 409.266 476.827 410.06 478.606 409.464ZM476.517 403.579C477.685 403.188 478.713 403.655 479.273 405.062L475.184 406.432C474.823 404.958 475.348 403.97 476.517 403.579ZM486.635 406.627L485.852 404.29L486.669 402.762L489.994 405.502L491.056 405.146L487.093 402.044L488.868 398.792L487.766 399.161L486.062 402.271L485.501 403.374L485.274 402.565L483.656 397.733L482.779 398.026L485.759 406.92L486.635 406.627ZM494.629 404.096C495.984 403.643 496.615 402.708 496.804 401.773L496.064 401.327C495.994 402.044 495.673 402.935 494.385 403.366C493.124 403.789 491.994 403.281 491.407 401.706L496.266 400.078C496.244 399.968 496.217 399.8 496.163 399.64C495.519 397.715 494.039 396.912 492.3 397.494C490.574 398.073 489.811 399.716 490.504 401.787C491.211 403.898 492.851 404.692 494.629 404.096ZM492.54 398.211C493.708 397.82 494.736 398.288 495.296 399.695L491.207 401.064C490.846 399.591 491.372 398.603 492.54 398.211ZM500.152 404.594C501.015 404.305 501.483 403.631 501.513 402.484L501.819 394.453L500.903 394.76L500.774 399.661L500.749 401.131L499.858 399.968L496.788 396.138L495.859 396.45L500.259 401.827L500.746 401.649L500.72 402.366C500.704 403.243 500.425 403.646 499.908 403.819C499.323 404.015 498.845 403.777 498.406 403.348L498.128 404.15C498.527 404.548 499.289 404.883 500.152 404.594ZM506.649 402.669L505.257 398.513C505.798 399.425 506.769 400.03 507.99 399.621C509.649 399.065 510.205 397.417 509.529 395.399C508.857 393.395 507.417 392.401 505.758 392.957C504.536 393.366 504.126 394.433 504.247 395.5L503.687 393.827L502.811 394.121L505.773 402.962L506.649 402.669ZM504.95 397.597L504.55 396.403C504.194 395.341 504.453 394.22 505.741 393.789C506.896 393.402 508.039 393.905 508.639 395.697C509.24 397.489 508.63 398.579 507.475 398.966C506.188 399.398 505.306 398.659 504.95 397.597ZM513.42 397.802C514.694 397.375 515.188 396.117 515.094 395.13L515.32 395.807C515.592 396.616 516.11 396.753 516.747 396.539L517.344 396.339L517.082 395.556L516.71 395.681C516.405 395.783 516.219 395.712 516.108 395.38L515.107 392.394C514.631 390.973 513.572 390.368 512.085 390.866C510.731 391.32 510.056 392.388 509.88 393.185L510.695 393.591C510.791 392.776 511.299 392.001 512.255 391.681C513.29 391.334 513.929 391.74 514.249 392.696L514.266 392.749L512.22 394.66C511.464 395.356 511.018 396.096 511.298 396.933C511.582 397.782 512.371 398.153 513.42 397.802ZM512.134 396.52C511.974 396.042 512.186 395.616 512.769 395.067L514.511 393.391L514.889 394.519C515.178 395.382 514.609 396.591 513.427 396.987C512.803 397.196 512.312 397.051 512.134 396.52ZM521.058 395.258C522.319 394.835 522.703 393.732 522.564 392.657L523.146 394.396L524.009 394.107L521.03 385.212L520.167 385.501L521.599 389.776C521.062 388.834 520.091 388.184 518.83 388.607C517.171 389.163 516.615 390.81 517.287 392.815C517.963 394.833 519.399 395.813 521.058 395.258ZM518.176 392.517C517.58 390.738 518.185 389.635 519.34 389.248C520.628 388.817 521.523 389.55 521.879 390.612L522.279 391.807C522.635 392.869 522.367 394.007 521.079 394.439C519.924 394.825 518.777 394.309 518.176 392.517Z" fill="#B5B5B5"/>
<path d="M380.957 305.98L381.093 303.328L384.518 302.18L386.225 304.216L387.055 303.937L381.441 297.339L380.678 297.594L380.171 306.243L380.957 305.98ZM381.296 299.552L381.298 298.235L382.093 299.285L384.035 301.608L381.134 302.58L381.296 299.552ZM388.54 303.44L387.48 300.277C387.164 299.332 387.348 298.334 388.315 298.01C389.169 297.724 389.746 298.05 390.066 299.006L391.248 302.533L391.987 302.285L390.928 299.122C390.611 298.177 390.796 297.179 391.774 296.851C392.616 296.569 393.194 296.895 393.514 297.851L394.695 301.378L395.446 301.126L394.208 297.428C393.788 296.177 392.987 295.749 391.94 296.1C390.916 296.443 390.546 297.415 390.665 298.375C390.238 297.29 389.471 296.927 388.481 297.259C387.468 297.598 387.113 298.539 387.221 299.503L386.71 297.978L385.959 298.23L387.789 303.692L388.54 303.44ZM399.19 299.999C400.692 299.496 401.376 298.026 400.797 296.297C400.218 294.567 398.786 293.806 397.284 294.31C395.782 294.813 395.109 296.279 395.688 298.008C396.268 299.738 397.688 300.502 399.19 299.999ZM398.976 299.362C397.907 299.72 396.923 299.202 396.439 297.757C395.951 296.3 396.42 295.282 397.49 294.924C398.571 294.562 399.558 295.092 400.046 296.548C400.53 297.993 400.057 299 398.976 299.362ZM404.813 298.115C405.94 297.738 406.299 296.769 406.187 295.794L406.71 297.353L407.449 297.105L405.62 291.644L404.88 291.892L405.936 295.043C406.256 295.999 406.079 296.982 404.896 297.379C403.963 297.691 403.37 297.282 403.077 296.406L401.899 292.89L401.159 293.138L402.39 296.813C402.814 298.076 403.744 298.473 404.813 298.115ZM409.797 296.319L408.737 293.156C408.421 292.211 408.605 291.213 409.754 290.828C410.699 290.512 411.291 290.921 411.589 291.808L412.766 295.324L413.517 295.073L412.282 291.386C411.863 290.134 410.921 289.741 409.84 290.103C408.748 290.469 408.374 291.43 408.478 292.382L407.967 290.857L407.216 291.109L409.046 296.571L409.797 296.319ZM416.73 294.136C417.435 293.899 417.86 293.39 417.965 292.912L417.46 292.271C417.407 292.719 417.127 293.205 416.638 293.369C416.16 293.529 415.678 293.45 415.415 292.665L414.313 289.377L416.145 288.763L415.951 288.183L414.119 288.797L413.669 287.454L413.116 288.259L413.379 289.044L412.492 289.342L412.686 289.922L413.574 289.625L414.744 293.118C415.075 294.108 415.899 294.414 416.73 294.136Z" fill="#B5B5B5"/>
<path d="M434.392 363.719C448.577 358.967 451.947 345.352 446.94 330.408C441.96 315.54 431.068 306.702 416.883 311.454C402.698 316.206 399.252 329.847 404.233 344.715C409.239 359.659 420.207 368.471 434.392 363.719ZM431.647 355.527C422.62 358.551 416.843 352.387 413.26 341.691C409.702 331.071 410.575 322.595 419.602 319.571C428.705 316.521 434.432 322.787 437.989 333.407C441.572 344.102 440.75 352.477 431.647 355.527Z" fill="#716F6F"/>
<path d="M391.493 359.404L389.697 354.043L388.07 354.588L387.623 353.253L389.25 352.708L388.677 350.997L387.05 351.542L386.603 350.207L388.23 349.662L386.504 344.509L388.673 343.783L392.381 348.271L394.843 347.447L393.117 342.294L394.765 341.742L396.491 346.895L398.118 346.35L398.565 347.685L396.938 348.23L397.511 349.94L399.138 349.395L399.585 350.73L397.958 351.275L399.754 356.637L397.564 357.37L393.786 352.673L391.325 353.498L393.121 358.859L391.493 359.404ZM390.877 352.163L392.838 351.506L391.639 350.005L390.263 350.466L390.877 352.163ZM397.121 354.247L397.204 354.219L396.331 351.82L395.455 352.114L397.121 354.247ZM389.815 349.131L390.691 348.837L388.949 346.544L388.865 346.572L389.815 349.131ZM394.507 350.947L395.905 350.478L395.29 348.782L393.308 349.446L394.507 350.947Z" fill="#716F6F"/>
</g>
<rect x="296.281" y="179.152" width="121.053" height="38.4789" rx="19.2395" transform="rotate(-18.5207 296.281 179.152)" fill="#000001"/>
<g opacity="0.5">
<ellipse cx="399.083" cy="164.485" rx="7.89311" ry="7.5658" transform="rotate(71.4793 399.083 164.485)" stroke="#A0A9BB" stroke-opacity="0.25"/>
<ellipse cx="399.083" cy="164.485" rx="7.89311" ry="7.5658" transform="rotate(71.4793 399.083 164.485)" stroke="url(#paint5_linear_3468_30479)"/>
</g>
<g filter="url(#filter0_i_3468_30479)">
<ellipse cx="400.153" cy="167.675" rx="2.04803" ry="3.7829" transform="rotate(71.4793 400.153 167.675)" fill="url(#paint6_radial_3468_30479)"/>
</g>
<g filter="url(#filter1_i_3468_30479)">
<ellipse cx="2.04803" cy="3.7829" rx="2.04803" ry="3.7829" transform="matrix(-0.317648 -0.948209 -0.948209 0.317648 402.301 162.176)" fill="url(#paint7_radial_3468_30479)"/>
</g>
<rect x="174.105" y="293.527" width="2.00633" height="14.6519" transform="rotate(-18.5207 174.105 293.527)" fill="url(#paint8_linear_3468_30479)"/>
<rect x="575.516" y="159.059" width="2.00633" height="14.6519" transform="rotate(-18.5207 575.516 159.059)" fill="url(#paint9_linear_3468_30479)"/>
<rect x="473.305" y="93.9609" width="2.09313" height="14.0443" transform="rotate(71.4793 473.305 93.9609)" fill="url(#paint10_linear_3468_30479)"/>
<rect x="227.891" y="176.176" width="2.09313" height="14.0443" transform="rotate(71.4793 227.891 176.176)" fill="url(#paint11_linear_3468_30479)"/>
</g>
<g filter="url(#filter2_f_3468_30479)">
<rect x="141.348" y="221.387" width="59" height="336" transform="rotate(-17.3111 141.348 221.387)" fill="#1C1C1C"/>
</g>
<g filter="url(#filter3_f_3468_30479)">
<rect x="415.77" y="314.656" width="50.2145" height="249.27" transform="rotate(-109.809 415.77 314.656)" fill="#5AD030"/>
</g>
<rect opacity="0.95" x="425.562" y="232.715" width="332.108" height="83.0269" rx="8" transform="rotate(-18.52 425.562 232.715)" fill="#6AF839"/>
<path d="M679.393 197.735L678.135 193.98L676.995 194.362L676.682 193.427L677.822 193.045L677.42 191.847L676.281 192.229L675.968 191.294L677.107 190.912L675.898 187.304L677.418 186.795L680.014 189.939L681.738 189.361L680.53 185.753L681.684 185.366L682.892 188.975L684.032 188.593L684.345 189.528L683.206 189.909L683.607 191.107L684.746 190.726L685.06 191.661L683.92 192.042L685.178 195.797L683.644 196.311L680.998 193.021L679.274 193.599L680.532 197.353L679.393 197.735ZM678.961 192.664L680.335 192.204L679.495 191.153L678.531 191.476L678.961 192.664ZM683.334 194.124L683.392 194.104L682.781 192.424L682.167 192.63L683.334 194.124ZM678.218 190.541L678.831 190.335L677.611 188.729L677.552 188.749L678.218 190.541ZM681.503 191.812L682.482 191.484L682.052 190.296L680.664 190.761L681.503 191.812ZM694.561 192.654L694.071 191.193L690.317 192.451L688.905 193.086L689.761 191.857L690.718 190.204C691.466 188.995 692.414 187.166 691.885 185.588C691.347 183.981 689.991 183.136 688.019 183.796C685.769 184.55 684.656 186.515 685.356 188.458L687.077 188.986C686.358 187.131 686.955 185.907 688.401 185.423C689.351 185.105 689.961 185.567 690.196 186.268C690.504 187.188 690.082 188.159 689.44 189.397L687.142 193.742L687.563 194.998L694.561 192.654ZM699.792 191.048C702.524 190.133 703.173 187.51 702.209 184.632C701.25 181.769 699.152 180.067 696.42 180.982C693.688 181.897 693.025 184.524 693.984 187.388C694.948 190.266 697.06 191.963 699.792 191.048ZM699.263 189.47C697.525 190.052 696.412 188.865 695.722 186.805C695.037 184.76 695.205 183.128 696.944 182.545C698.697 181.958 699.8 183.165 700.485 185.21C701.175 187.27 701.017 188.883 699.263 189.47ZM705.877 190.748C706.933 190.264 707.166 189.552 706.838 188.574L706.134 186.47L704.264 187.096L704.959 189.171L705.821 188.882L705.884 189.072C706.046 189.554 705.759 189.764 705.252 189.999L705.877 190.748ZM712.09 186.928C714.822 186.013 715.471 183.391 714.507 180.513C713.548 177.649 711.45 175.947 708.718 176.862C705.986 177.778 705.323 180.405 706.282 183.268C707.246 186.146 709.358 187.843 712.09 186.928ZM711.561 185.35C709.823 185.933 708.71 184.746 708.02 182.686C707.335 180.64 707.503 179.008 709.242 178.426C710.995 177.838 712.098 179.045 712.783 181.09C713.473 183.15 713.314 184.763 711.561 185.35ZM721.634 183.731C724.366 182.816 725.015 180.194 724.051 177.316C723.092 174.452 720.994 172.75 718.263 173.665C715.531 174.58 714.867 177.207 715.826 180.071C716.79 182.949 718.902 184.646 721.634 183.731ZM721.106 182.153C719.367 182.735 718.255 181.548 717.565 179.488C716.88 177.443 717.048 175.811 718.786 175.228C720.539 174.641 721.642 175.848 722.327 177.893C723.017 179.953 722.859 181.566 721.106 182.153ZM731.179 180.534C733.911 179.619 734.56 176.996 733.596 174.118C732.636 171.255 730.539 169.553 727.807 170.468C725.075 171.383 724.411 174.01 725.371 176.874C726.335 179.752 728.447 181.449 731.179 180.534ZM730.65 178.956C728.912 179.538 727.799 178.351 727.109 176.291C726.424 174.246 726.592 172.613 728.331 172.031C730.084 171.444 731.187 172.651 731.872 174.696C732.562 176.756 732.403 178.369 730.65 178.956Z" fill="black"/>
<path d="M512.695 241.429L510.178 233.916L512.893 233.007L512.452 231.688L505.545 234.002L505.986 235.32L508.689 234.415L511.205 241.928L512.695 241.429ZM517.458 239.834L516.275 236.301C515.917 235.234 516.32 234.16 517.058 233.913C517.493 233.767 517.761 234 517.88 234.356C518.004 234.725 517.948 235.213 517.807 235.494L519.323 234.987C519.376 234.749 519.392 234.231 519.185 233.611C518.867 232.662 518.097 232.333 517.293 232.603C516.147 232.987 515.81 234.126 515.917 235.234L515.308 233.415L513.831 233.909L515.982 240.328L517.458 239.834ZM523.201 238.056C524.546 237.606 524.83 236.397 524.745 235.487L524.904 235.961C525.213 236.884 525.859 237.019 526.545 236.79L527.454 236.485L527.03 235.22L526.622 235.356C526.384 235.436 526.248 235.379 526.151 235.089L525.343 232.677C524.813 231.095 523.612 230.486 522.017 231.02C520.594 231.497 519.839 232.571 519.568 233.424L520.804 234.183C520.948 233.387 521.453 232.661 522.309 232.374C523.193 232.078 523.628 232.416 523.897 233.044L522.053 234.673C521.149 235.431 520.702 236.196 521.007 237.106C521.316 238.028 522.147 238.409 523.201 238.056ZM522.355 236.405C522.245 236.075 522.394 235.776 522.863 235.34L524.264 234.05L524.493 234.735C524.785 235.605 524.32 236.406 523.345 236.733C522.804 236.914 522.479 236.774 522.355 236.405ZM530.059 235.612L528.854 232.014C528.501 230.959 528.636 230.137 529.717 229.775C530.705 229.444 531.15 229.896 531.415 230.687L532.761 234.707L534.251 234.208L532.754 229.74C532.308 228.409 531.292 227.913 530.04 228.333C528.761 228.761 528.394 229.852 528.496 230.946L527.909 229.193L526.433 229.688L528.583 236.107L530.059 235.612ZM538.253 233.014C539.611 232.559 540.466 231.569 540.043 230.304C539.733 229.381 539.012 228.978 537.452 229.09L536.608 229.153C535.663 229.22 535.263 229.163 535.108 228.702C534.962 228.267 535.265 227.902 535.832 227.712C536.662 227.434 537.489 227.626 538.176 228.188L538.736 226.974C538.098 226.381 536.915 226.044 535.544 226.504C534.068 226.998 533.349 228.045 533.751 229.245C534.144 230.418 535.23 230.553 536.324 230.45L537.251 230.374C538.021 230.307 538.561 230.301 538.72 230.776C538.875 231.237 538.541 231.598 537.908 231.81C536.762 232.194 535.75 231.8 535.178 231.274L534.617 232.488C535.445 233.339 536.882 233.473 538.253 233.014ZM543.638 231.064L541.872 225.791L543.743 225.164L543.359 224.018L541.487 224.645L541.306 224.104C541.13 223.577 541.257 223.212 541.797 223.031C542.285 222.868 542.764 223.03 543.129 223.332L543.422 222.062C543.044 221.807 542.27 221.553 541.334 221.867C539.976 222.322 539.433 223.413 539.879 224.744L540.011 225.139L539.023 225.47L539.407 226.617L540.395 226.286L542.161 231.558L543.638 231.064ZM549.122 229.373C550.545 228.896 551.199 227.959 551.439 227.058L550.212 226.413C550.156 227.033 549.849 227.781 548.729 228.156C547.714 228.496 546.834 228.102 546.371 226.982L550.958 225.445C550.94 225.305 550.873 225.019 550.794 224.782C550.198 223.002 548.702 222.081 546.778 222.726C544.972 223.331 544.166 225.082 544.841 227.098C545.512 229.102 547.21 230.014 549.122 229.373ZM547.175 223.912C548.15 223.586 548.916 223.945 549.361 224.924L546.066 226.028C545.836 224.947 546.265 224.217 547.175 223.912ZM554.735 227.346L553.551 223.814C553.194 222.746 553.597 221.673 554.335 221.426C554.77 221.28 555.038 221.513 555.157 221.869C555.281 222.238 555.225 222.726 555.084 223.007L556.6 222.5C556.652 222.262 556.669 221.743 556.462 221.124C556.144 220.175 555.374 219.846 554.57 220.116C553.423 220.5 553.087 221.639 553.194 222.746L552.584 220.927L551.108 221.422L553.258 227.841L554.735 227.346ZM565.605 223.852C567.397 223.251 568.433 221.878 567.898 220.283C567.333 218.596 565.882 218.467 564.357 218.596L563.289 218.69C562.248 218.775 561.549 218.702 561.288 217.924C561.063 217.252 561.537 216.653 562.38 216.371C563.461 216.008 564.569 216.165 565.423 217.096L566.186 215.653C565.147 214.652 563.63 214.413 562.009 214.956C560.348 215.512 559.212 216.89 559.768 218.55C560.329 220.224 561.85 220.345 563.19 220.189L564.083 220.096C565.313 219.962 566.104 219.961 566.391 220.818C566.661 221.622 566.055 222.176 565.172 222.472C564.091 222.834 562.592 222.779 561.685 221.647L560.988 223.067C562.172 224.327 563.918 224.417 565.605 223.852ZM572.051 221.692C573.33 221.264 573.698 220.173 573.595 219.079L574.182 220.832L575.671 220.333L573.521 213.914L572.032 214.413L573.237 218.011C573.59 219.066 573.455 219.888 572.375 220.25C571.386 220.581 570.941 220.129 570.676 219.338L569.33 215.318L567.853 215.813L569.35 220.281C569.796 221.612 570.812 222.107 572.051 221.692ZM580.025 219.021C581.633 218.482 582.344 217.233 582.28 215.906L580.728 215.692C580.892 216.664 580.638 217.438 579.637 217.773C578.622 218.113 577.751 217.569 577.3 216.225C576.845 214.867 577.213 213.909 578.228 213.569C579.217 213.237 579.899 213.698 580.353 214.572L581.463 213.467C580.714 212.369 579.395 211.8 577.787 212.338C575.876 212.979 575.126 214.725 575.798 216.728C576.464 218.719 578.114 219.661 580.025 219.021ZM586.796 216.753C588.404 216.214 589.114 214.965 589.051 213.638L587.499 213.424C587.663 214.396 587.409 215.17 586.407 215.505C585.392 215.845 584.521 215.301 584.071 213.957C583.616 212.599 583.984 211.641 584.999 211.301C585.987 210.969 586.669 211.43 587.123 212.304L588.234 211.199C587.485 210.101 586.165 209.532 584.557 210.07C582.646 210.711 581.897 212.457 582.568 214.46C583.235 216.451 584.885 217.393 586.796 216.753ZM593.632 214.463C595.056 213.986 595.709 213.049 595.95 212.147L594.723 211.503C594.666 212.123 594.36 212.871 593.239 213.246C592.224 213.586 591.345 213.192 590.881 212.071L595.468 210.535C595.451 210.394 595.384 210.109 595.305 209.871C594.709 208.092 593.213 207.171 591.288 207.816C589.483 208.421 588.676 210.171 589.352 212.188C590.023 214.191 591.721 215.103 593.632 214.463ZM591.686 209.002C592.661 208.675 593.427 209.034 593.872 210.014L590.577 211.118C590.347 210.037 590.776 209.307 591.686 209.002ZM600.347 212.214C601.704 211.759 602.56 210.769 602.136 209.503C601.827 208.581 601.106 208.177 599.545 208.289L598.701 208.352C597.757 208.42 597.356 208.363 597.202 207.902C597.056 207.467 597.359 207.101 597.926 206.912C598.756 206.633 599.583 206.826 600.269 207.387L600.83 206.173C600.192 205.581 599.009 205.244 597.638 205.703C596.162 206.198 595.443 207.245 595.844 208.444C596.237 209.618 597.323 209.752 598.418 209.649L599.345 209.573C600.114 209.506 600.655 209.501 600.814 209.976C600.968 210.437 600.635 210.798 600.002 211.01C598.855 211.394 597.844 211 597.272 210.473L596.711 211.687C597.538 212.539 598.976 212.673 600.347 212.214ZM606.422 210.179C607.78 209.724 608.636 208.733 608.212 207.468C607.903 206.545 607.181 206.142 605.621 206.254L604.777 206.317C603.832 206.384 603.432 206.328 603.277 205.867C603.132 205.432 603.434 205.066 604.001 204.876C604.832 204.598 605.658 204.79 606.345 205.352L606.906 204.138C606.267 203.546 605.084 203.209 603.714 203.668C602.237 204.163 601.518 205.21 601.92 206.409C602.313 207.582 603.399 207.717 604.493 207.614L605.421 207.538C606.19 207.471 606.73 207.466 606.889 207.94C607.044 208.402 606.71 208.763 606.078 208.975C604.931 209.359 603.919 208.965 603.347 208.438L602.786 209.652C603.614 210.504 605.052 210.638 606.422 210.179ZM611.807 208.228L610.041 202.956L611.912 202.329L611.528 201.182L609.657 201.809L609.476 201.269C609.299 200.742 609.426 200.376 609.966 200.195C610.454 200.032 610.933 200.194 611.299 200.497L611.591 199.226C611.213 198.972 610.439 198.718 609.503 199.031C608.145 199.486 607.602 200.577 608.048 201.908L608.18 202.304L607.192 202.635L607.576 203.782L608.565 203.45L610.331 208.723L611.807 208.228ZM616.704 206.734C617.982 206.306 618.35 205.215 618.247 204.121L618.834 205.874L620.324 205.375L618.174 198.956L616.684 199.455L617.89 203.053C618.243 204.108 618.108 204.93 617.027 205.292C616.038 205.623 615.594 205.171 615.329 204.38L613.982 200.36L612.506 200.855L614.003 205.323C614.449 206.654 615.465 207.149 616.704 206.734ZM623.354 204.36L620.396 195.529L618.92 196.023L621.878 204.854L623.354 204.36Z" fill="black"/>
<path d="M518.12 258.14L515.532 250.413L514.528 250.749L517.117 258.477L518.12 258.14ZM522.79 256.576C525.223 255.761 525.959 253.937 525.14 251.492C524.321 249.047 522.635 248.034 520.201 248.849L517.468 249.765L520.056 257.492L522.79 256.576ZM520.337 249.791C522.09 249.204 523.364 249.637 524.102 251.839C524.84 254.042 524.084 255.155 522.331 255.742L520.762 256.268L518.769 250.317L520.337 249.791ZM527.558 250.682L527.056 249.182L525.845 249.588L526.347 251.087L527.558 250.682ZM528.853 254.545L528.35 253.046L527.139 253.452L527.642 254.951L528.853 254.545ZM535.644 252.27L535.346 251.382L532.152 252.452L531.229 252.838L531.824 251.857L532.645 250.325C533.124 249.42 533.949 247.861 533.524 246.592C533.126 245.404 532.14 244.721 530.629 245.227C528.853 245.822 528.052 247.451 528.723 248.919L529.855 249.194C529.145 247.726 529.593 246.652 530.885 246.219C531.761 245.926 532.3 246.387 532.509 247.009C532.795 247.863 532.377 248.798 531.813 249.91L530.122 253.248L530.385 254.032L535.644 252.27ZM539.69 251.043C541.373 250.479 542.149 249.27 541.727 248.013C541.391 247.01 540.59 246.303 539.145 246.659C540.078 246.193 540.392 245.177 540.126 244.381C539.794 243.389 538.754 242.506 536.966 243.105C535.582 243.568 534.845 244.739 534.874 245.896L535.967 246.326C535.75 245.218 536.276 244.413 537.268 244.081C538.259 243.749 538.902 244.213 539.15 244.952C539.42 245.759 539.075 246.336 538.106 246.661L536.837 247.086L537.127 247.951L538.384 247.53C539.457 247.17 540.323 247.342 540.632 248.265C540.894 249.049 540.488 249.711 539.496 250.044C538.043 250.53 537.284 249.912 536.659 248.813L536.061 249.86C536.705 250.94 538.017 251.603 539.69 251.043ZM548.287 248.035L547.669 246.19L549.053 245.726L548.755 244.838L547.371 245.302L545.698 240.308L544.695 240.644L542.516 247.044L542.779 247.828L546.665 246.526L547.283 248.371L548.287 248.035ZM543.623 246.557L545.182 242.097L546.368 245.638L543.623 246.557ZM555.759 245.532L555.462 244.644L552.267 245.714L551.345 246.1L551.939 245.118L552.76 243.586C553.24 242.682 554.064 241.123 553.639 239.854C553.241 238.666 552.256 237.983 550.745 238.489C548.969 239.084 548.167 240.712 548.839 242.18L549.97 242.456C549.26 240.988 549.708 239.914 551 239.481C551.877 239.187 552.416 239.648 552.625 240.271C552.91 241.124 552.493 242.06 551.929 243.172L550.238 246.509L550.5 247.294L555.759 245.532ZM559.198 244.508C561.113 243.867 561.722 242.162 560.918 239.763L560.829 239.498C559.806 236.442 558.297 235.959 556.613 236.523C555.033 237.053 554.332 238.557 554.834 240.057C555.305 241.464 556.38 242.374 557.96 241.845C559.205 241.427 559.808 240.392 559.498 239.046L559.78 239.888C560.587 242.298 559.877 243.203 558.955 243.512C558.124 243.79 557.377 243.476 556.819 242.804L556.205 243.805C556.96 244.565 558.022 244.902 559.198 244.508ZM558.039 240.779C556.932 241.15 556.204 240.662 555.864 239.648C555.555 238.725 555.954 237.809 556.957 237.473C557.983 237.129 558.819 237.439 559.24 238.696C559.576 239.7 559.042 240.443 558.039 240.779ZM566.405 242.094C568.089 241.53 568.864 240.321 568.443 239.064C568.107 238.061 567.306 237.354 565.86 237.71C566.794 237.243 567.108 236.227 566.841 235.432C566.509 234.44 565.469 233.557 563.682 234.155C562.298 234.619 561.561 235.789 561.589 236.947L562.682 237.376C562.465 236.269 562.991 235.464 563.983 235.132C564.975 234.8 565.618 235.264 565.865 236.002C566.136 236.81 565.79 237.387 564.822 237.712L563.553 238.137L563.843 239.002L565.1 238.58C566.172 238.221 567.038 238.393 567.347 239.316C567.61 240.1 567.203 240.762 566.211 241.094C564.758 241.581 563.999 240.963 563.375 239.864L562.776 240.911C563.42 241.991 564.733 242.654 566.405 242.094ZM575.627 238.877L575.33 237.988L572.135 239.059L571.212 239.445L571.807 238.463L572.628 236.931C573.107 236.026 573.932 234.467 573.507 233.199C573.109 232.011 572.123 231.328 570.613 231.834C568.836 232.429 568.035 234.057 568.706 235.525L569.838 235.8C569.128 234.332 569.576 233.258 570.868 232.826C571.744 232.532 572.284 232.993 572.492 233.616C572.778 234.469 572.36 235.404 571.796 236.517L570.105 239.854L570.368 240.638L575.627 238.877ZM579.673 237.65C581.356 237.086 582.132 235.877 581.711 234.62C581.374 233.616 580.573 232.91 579.128 233.266C580.062 232.799 580.376 231.783 580.109 230.987C579.777 229.995 578.737 229.112 576.949 229.711C575.565 230.175 574.828 231.345 574.857 232.503L575.95 232.932C575.733 231.824 576.259 231.02 577.251 230.688C578.243 230.355 578.886 230.82 579.133 231.558C579.403 232.365 579.058 232.943 578.089 233.267L576.821 233.692L577.11 234.557L578.367 234.136C579.44 233.777 580.306 233.949 580.615 234.871C580.877 235.655 580.471 236.318 579.479 236.65C578.026 237.137 577.267 236.519 576.642 235.419L576.044 236.466C576.688 237.546 578 238.21 579.673 237.65ZM588.895 234.432L588.597 233.544L585.403 234.614L584.48 235L585.075 234.019L585.896 232.486C586.375 231.582 587.2 230.023 586.775 228.754C586.377 227.566 585.391 226.883 583.88 227.389C582.104 227.984 581.303 229.612 581.974 231.081L583.105 231.356C582.395 229.888 582.844 228.814 584.136 228.381C585.012 228.088 585.551 228.548 585.76 229.171C586.046 230.025 585.628 230.96 585.064 232.072L583.373 235.41L583.636 236.194L588.895 234.432ZM592.059 233.372L589.471 225.645L588.629 225.927C588.43 226.558 587.938 226.928 587.315 227.136L587.547 227.828L588.931 227.365L591.056 233.708L592.059 233.372ZM598.783 231.12L598.486 230.231L595.291 231.302L594.369 231.688L594.963 230.706L595.784 229.174C596.264 228.269 597.088 226.71 596.663 225.442C596.266 224.254 595.28 223.571 593.769 224.077C591.993 224.672 591.191 226.3 591.863 227.768L592.994 228.043C592.284 226.575 592.733 225.501 594.024 225.069C594.901 224.775 595.44 225.236 595.649 225.859C595.935 226.712 595.517 227.647 594.953 228.76L593.262 232.097L593.524 232.881L598.783 231.12Z" fill="#1E293B"/>
<path d="M467.819 259.088C469.947 255.61 476.386 249.581 485.118 253.293" stroke="white" stroke-width="0.86879"/>
<path d="M469.198 263.205C471.326 259.727 477.765 253.698 486.497 257.41" stroke="white" stroke-width="0.86879"/>
<path d="M470.576 267.326C472.705 263.848 479.144 257.819 487.876 261.531" stroke="white" stroke-width="0.86879"/>
<mask id="mask0_3468_30479" style="mask-type:luminance" maskUnits="userSpaceOnUse" x="448" y="229" width="55" height="55">
<path d="M488.908 229.711L448.516 243.242L462.046 283.635L502.439 270.104L488.908 229.711Z" fill="white"/>
</mask>
<g mask="url(#mask0_3468_30479)">
<path d="M469.355 238.403C479.266 235.083 490.008 240.434 493.328 250.344C496.648 260.255 491.297 270.997 481.386 274.317C471.476 277.637 460.734 272.285 457.414 262.375C454.094 252.465 459.445 241.723 469.355 238.403Z" fill="white"/>
<path d="M469.355 238.403C479.266 235.083 490.008 240.434 493.328 250.344C496.648 260.255 491.297 270.997 481.386 274.317C471.476 277.637 460.734 272.285 457.414 262.375C454.094 252.465 459.445 241.723 469.355 238.403Z" stroke="white" stroke-width="0.320979"/>
<path d="M470.722 242.498C478.428 239.917 486.782 244.078 489.363 251.784C491.945 259.491 487.784 267.844 480.077 270.426C472.37 273.007 464.017 268.846 461.435 261.14C458.854 253.433 463.015 245.08 470.722 242.498Z" fill="#30CC80"/>
<path d="M469.096 259.208L474.494 261.831L479.858 250.601" stroke="white" stroke-width="2.49601" stroke-linecap="round" stroke-linejoin="round"/>
</g>
</g>
<defs>
<filter id="filter0_i_3468_30479" x="396.508" y="165.391" width="7.29297" height="4.56641" filterUnits="userSpaceOnUse" color-interpolation-filters="sRGB">
<feFlood flood-opacity="0" result="BackgroundImageFix"/>
<feBlend mode="normal" in="SourceGraphic" in2="BackgroundImageFix" result="shape"/>
<feColorMatrix in="SourceAlpha" type="matrix" values="0 0 0 0 0 0 0 0 0 0 0 0 0 0 0 0 0 0 127 0" result="hardAlpha"/>
<feOffset/>
<feGaussianBlur stdDeviation="0.5"/>
<feComposite in2="hardAlpha" operator="arithmetic" k2="-1" k3="1"/>
<feColorMatrix type="matrix" values="0 0 0 0 0 0 0 0 0 0 0 0 0 0 0 0 0 0 0.5 0"/>
<feBlend mode="normal" in2="shape" result="effect1_innerShadow_3468_30479"/>
</filter>
<filter id="filter1_i_3468_30479" x="394.418" y="159.152" width="7.29297" height="4.56641" filterUnits="userSpaceOnUse" color-interpolation-filters="sRGB">
<feFlood flood-opacity="0" result="BackgroundImageFix"/>
<feBlend mode="normal" in="SourceGraphic" in2="BackgroundImageFix" result="shape"/>
<feColorMatrix in="SourceAlpha" type="matrix" values="0 0 0 0 0 0 0 0 0 0 0 0 0 0 0 0 0 0 127 0" result="hardAlpha"/>
<feOffset/>
<feGaussianBlur stdDeviation="0.5"/>
<feComposite in2="hardAlpha" operator="arithmetic" k2="-1" k3="1"/>
<feColorMatrix type="matrix" values="0 0 0 0 0 0 0 0 0 0 0 0 0 0 0 0 0 0 0.5 0"/>
<feBlend mode="normal" in2="shape" result="effect1_innerShadow_3468_30479"/>
</filter>
<filter id="filter2_f_3468_30479" x="21.3477" y="83.832" width="396.309" height="578.336" filterUnits="userSpaceOnUse" color-interpolation-filters="sRGB">
<feFlood flood-opacity="0" result="BackgroundImageFix"/>
<feBlend mode="normal" in="SourceGraphic" in2="BackgroundImageFix" result="shape"/>
<feGaussianBlur stdDeviation="60" result="effect1_foregroundBlur_3468_30479"/>
</filter>
<filter id="filter3_f_3468_30479" x="248.754" y="32.9375" width="551.535" height="431.719" filterUnits="userSpaceOnUse" color-interpolation-filters="sRGB">
<feFlood flood-opacity="0" result="BackgroundImageFix"/>
<feBlend mode="normal" in="SourceGraphic" in2="BackgroundImageFix" result="shape"/>
<feGaussianBlur stdDeviation="75" result="effect1_foregroundBlur_3468_30479"/>
</filter>
<linearGradient id="paint0_linear_3468_30479" x1="5.01872" y1="0" x2="5.01872" y2="106.75" gradientUnits="userSpaceOnUse">
<stop stop-color="#4F4F4F"/>
<stop offset="1" stop-color="#171717"/>
</linearGradient>
<linearGradient id="paint1_linear_3468_30479" x1="5.01872" y1="0" x2="5.01872" y2="102.563" gradientUnits="userSpaceOnUse">
<stop stop-color="#898989"/>
<stop offset="1" stop-color="#5F5F5F"/>
</linearGradient>
<linearGradient id="paint2_linear_3468_30479" x1="5.09014" y1="0" x2="5.09014" y2="30.5169" gradientUnits="userSpaceOnUse">
<stop stop-color="#171717"/>
<stop offset="1" stop-color="#7C7C7C"/>
</linearGradient>
<linearGradient id="paint3_linear_3468_30479" x1="5.09014" y1="0" x2="5.09014" y2="26.5364" gradientUnits="userSpaceOnUse">
<stop stop-color="#898989"/>
<stop offset="1" stop-color="white"/>
</linearGradient>
<linearGradient id="paint4_linear_3468_30479" x1="569.526" y1="204.215" x2="114.538" y2="1082.63" gradientUnits="userSpaceOnUse">
<stop stop-color="#EFEFEF"/>
<stop offset="1" stop-color="#555555"/>
</linearGradient>
<linearGradient id="paint5_linear_3468_30479" x1="389.357" y1="162.864" x2="396.473" y2="174.81" gradientUnits="userSpaceOnUse">
<stop stop-color="#010005" stop-opacity="0.66"/>
<stop offset="1" stop-color="#2E2D31"/>
</linearGradient>
<radialGradient id="paint6_radial_3468_30479" cx="0" cy="0" r="1" gradientUnits="userSpaceOnUse" gradientTransform="translate(399.121 167.675) rotate(90) scale(4.85099 2.08068)">
<stop stop-color="#1F85DE"/>
<stop offset="0.257948" stop-color="#1B75C9"/>
<stop offset="1" stop-color="#000232"/>
</radialGradient>
<radialGradient id="paint7_radial_3468_30479" cx="0" cy="0" r="1" gradientUnits="userSpaceOnUse" gradientTransform="translate(1.01594 3.7829) rotate(90) scale(4.85099 2.08068)">
<stop stop-color="#1F85DE"/>
<stop offset="0.257948" stop-color="#1B75C9"/>
<stop offset="1" stop-color="#000232"/>
</radialGradient>
<linearGradient id="paint8_linear_3468_30479" x1="175.109" y1="293.527" x2="175.109" y2="308.179" gradientUnits="userSpaceOnUse">
<stop stop-color="#5A5A5A"/>
<stop offset="0.53125" stop-color="#242424"/>
<stop offset="1" stop-color="#585858"/>
</linearGradient>
<linearGradient id="paint9_linear_3468_30479" x1="576.519" y1="159.059" x2="576.519" y2="173.711" gradientUnits="userSpaceOnUse">
<stop stop-color="#5A5A5A"/>
<stop offset="0.53125" stop-color="#242424"/>
<stop offset="1" stop-color="#585858"/>
</linearGradient>
<linearGradient id="paint10_linear_3468_30479" x1="474.351" y1="93.9609" x2="474.351" y2="108.005" gradientUnits="userSpaceOnUse">
<stop stop-color="#5A5A5A"/>
<stop offset="0.53125" stop-color="#242424"/>
<stop offset="1" stop-color="#585858"/>
</linearGradient>
<linearGradient id="paint11_linear_3468_30479" x1="228.937" y1="176.176" x2="228.937" y2="190.22" gradientUnits="userSpaceOnUse">
<stop stop-color="#5A5A5A"/>
<stop offset="0.53125" stop-color="#242424"/>
<stop offset="1" stop-color="#585858"/>
</linearGradient>
<clipPath id="clip0_3468_30479">
<rect width="936" height="450.25" rx="20" fill="white"/>
</clipPath>
<clipPath id="clip1_3468_30479">
<rect width="936" height="450.25" rx="17.3173" fill="white"/>
</clipPath>
<clipPath id="clip2_3468_30479">
<rect x="158.906" y="212.684" width="400.987" height="913.628" rx="60" transform="rotate(-18.5207 158.906 212.684)" fill="white"/>
</clipPath>
<clipPath id="clip3_3468_30479">
<rect width="422.04" height="55.2202" fill="white" transform="translate(158.805 212.566) rotate(-18.5207)"/>
</clipPath>
<clipPath id="clip4_3468_30479">
<rect width="18" height="18" fill="white" transform="translate(205.188 287.875) rotate(-18.5207)"/>
</clipPath>
</defs>
</svg>
