<svg width="40" height="40" viewBox="0 0 40 40" fill="none" xmlns="http://www.w3.org/2000/svg">
<g clip-path="url(#clip0_3374_29384)">
<circle cx="20" cy="20" r="20" fill="white"/>
<path d="M19 21V24C19 24.2833 19.096 24.521 19.288 24.713C19.48 24.905 19.7173 25.0007 20 25C20.2833 25 20.521 24.904 20.713 24.712C20.905 24.52 21.0007 24.2827 21 24V21H24C24.2833 21 24.521 20.904 24.713 20.712C24.905 20.52 25.0007 20.2827 25 20C25 19.7167 24.904 19.479 24.712 19.287C24.52 19.095 24.2827 18.9993 24 19H21V16C21 15.7167 20.904 15.479 20.712 15.287C20.52 15.095 20.2827 14.9993 20 15C19.7167 15 19.479 15.096 19.287 15.288C19.095 15.48 18.9993 15.7173 19 16V19H16C15.7167 19 15.479 19.096 15.287 19.288C15.095 19.48 14.9993 19.7173 15 20C15 20.2833 15.096 20.521 15.288 20.713C15.48 20.905 15.7173 21.0007 16 21H19ZM20 30C18.6167 30 17.3167 29.7373 16.1 29.212C14.8833 28.6867 13.825 27.9743 12.925 27.075C12.025 26.175 11.3127 25.1167 10.788 23.9C10.2633 22.6833 10.0007 21.3833 10 20C10 18.6167 10.2627 17.3167 10.788 16.1C11.3133 14.8833 12.0257 13.825 12.925 12.925C13.825 12.025 14.8833 11.3127 16.1 10.788C17.3167 10.2633 18.6167 10.0007 20 10C21.3833 10 22.6833 10.2627 23.9 10.788C25.1167 11.3133 26.175 12.0257 27.075 12.925C27.975 13.825 28.6877 14.8833 29.213 16.1C29.7383 17.3167 30.0007 18.6167 30 20C30 21.3833 29.7373 22.6833 29.212 23.9C28.6867 25.1167 27.9743 26.175 27.075 27.075C26.175 27.975 25.1167 28.6877 23.9 29.213C22.6833 29.7383 21.3833 30.0007 20 30ZM20 28C22.2333 28 24.125 27.225 25.675 25.675C27.225 24.125 28 22.2333 28 20C28 17.7667 27.225 15.875 25.675 14.325C24.125 12.775 22.2333 12 20 12C17.7667 12 15.875 12.775 14.325 14.325C12.775 15.875 12 17.7667 12 20C12 22.2333 12.775 24.125 14.325 25.675C15.875 27.225 17.7667 28 20 28Z" fill="black"/>
</g>
<defs>
<clipPath id="clip0_3374_29384">
<rect width="40" height="40" rx="20" fill="white"/>
</clipPath>
</defs>
</svg>
