<svg width="30" height="30" viewBox="0 0 30 30" fill="none" xmlns="http://www.w3.org/2000/svg">
<g clip-path="url(#clip0_1592_24658)">
<path d="M23.1113 15C23.1113 23.0081 16.6195 29.5 8.61133 29.5C0.603199 29.5 -5.88867 23.0081 -5.88867 15C-5.88867 6.99187 0.603199 0.5 8.61133 0.5C16.6195 0.5 23.1113 6.99187 23.1113 15Z" stroke="black"/>
<path d="M17.7983 10.779C17.1555 11.064 16.464 11.2568 15.7389 11.3429C16.4793 10.8993 17.0475 10.1974 17.3157 9.3597C16.6228 9.77067 15.8552 10.0688 15.0388 10.2295C14.3848 9.53297 13.4529 9.09766 12.4211 9.09766C10.4413 9.09766 8.83567 10.7033 8.83567 12.6831C8.83567 12.9641 8.86749 13.2376 8.92899 13.5002C5.9492 13.3507 3.30713 11.9234 1.53862 9.75356C1.23005 10.283 1.05304 10.8993 1.05304 11.5563C1.05304 12.7999 1.68648 13.8978 2.64802 14.5406C2.06056 14.5222 1.50733 14.3609 1.02416 14.0917C1.02389 14.1069 1.02389 14.1222 1.02389 14.1371C1.02389 15.8744 2.2603 17.3234 3.9002 17.6525C3.59966 17.7349 3.28226 17.7784 2.95578 17.7784C2.72422 17.7784 2.49988 17.7563 2.28116 17.7145C2.73732 19.1387 4.06117 20.1753 5.63048 20.2045C4.40316 21.1663 2.85738 21.7393 1.17711 21.7393C0.888328 21.7393 0.602222 21.7224 0.322266 21.689C1.90815 22.7067 3.79324 23.3 5.81792 23.3C12.4128 23.3 16.0193 17.8367 16.0193 13.0983C16.0193 12.943 16.0159 12.7882 16.0089 12.6347C16.71 12.1293 17.3178 11.498 17.7983 10.779Z" fill="black"/>
</g>
<defs>
<clipPath id="clip0_1592_24658">
<rect width="30" height="30" fill="white"/>
</clipPath>
</defs>
</svg>
