<svg width="89" height="90" viewBox="0 0 89 90" fill="none" xmlns="http://www.w3.org/2000/svg">
<g clip-path="url(#clip0_2946_28585)">
<g clip-path="url(#clip1_2946_28585)">
<rect x="0.0253906" y="0.207031" width="88.0751" height="89.6339" rx="15" fill="url(#paint0_linear_2946_28585)"/>
<path d="M44.0633 60.5134C42.2274 60.5134 40.4918 60.2122 38.8566 59.6098C37.2215 59.0073 35.7441 58.1754 34.4245 57.114L32.2299 59.3085C31.8856 59.6528 31.484 59.818 31.025 59.8043C30.566 59.7905 30.1644 59.6109 29.8202 59.2655C29.4759 58.9213 29.3038 58.5128 29.3038 58.04C29.3038 57.5672 29.4759 57.1582 29.8202 56.8128L31.9717 54.6612C30.9103 53.3416 30.0783 51.8573 29.4759 50.2084C28.8735 48.5595 28.5723 46.8308 28.5723 45.0223C28.5723 40.7193 30.0858 37.0616 33.1129 34.0495C36.1399 31.0373 39.7901 29.5312 44.0633 29.5312H56.112C57.0586 29.5312 57.8693 29.8686 58.5441 30.5433C59.2188 31.2181 59.5556 32.0282 59.5544 32.9737V45.0223C59.5544 49.2967 58.0483 52.9475 55.0362 55.9745C52.024 59.0016 48.3664 60.5146 44.0633 60.5134ZM44.0633 57.0709C47.4197 57.0709 50.2672 55.8948 52.6058 53.5424C54.9444 51.1901 56.1131 48.35 56.112 45.0223V32.9737H44.0633C40.7356 32.9737 37.8956 34.143 35.5433 36.4816C33.1909 38.8202 32.0147 41.6671 32.0147 45.0223C32.0147 48.35 33.1909 51.1901 35.5433 53.5424C37.8956 55.8948 40.7356 57.0709 44.0633 57.0709ZM41.7827 53.4133L50.6901 45.4526C50.977 45.1945 51.063 44.8864 50.9483 44.5283C50.8335 44.1703 50.5753 43.9621 50.1737 43.9035L43.2027 43.215L47.3767 37.4919C47.4915 37.3485 47.542 37.1982 47.5282 37.041C47.5144 36.8838 47.4496 36.7329 47.3337 36.5883C47.1902 36.4449 47.025 36.3731 46.838 36.3731C46.6509 36.3731 46.4863 36.4449 46.344 36.5883L37.4796 44.549C37.1928 44.8072 37.1067 45.1158 37.2215 45.475C37.3362 45.8342 37.5944 46.0419 37.996 46.0981L44.967 46.7866L40.75 52.5097C40.6639 52.6531 40.6209 52.804 40.6209 52.9624C40.6209 53.1207 40.6926 53.271 40.836 53.4133C40.9795 53.5568 41.1373 53.6285 41.3094 53.6285C41.4815 53.6285 41.6393 53.5568 41.7827 53.4133Z" fill="white"/>
</g>
</g>
<defs>
<linearGradient id="paint0_linear_2946_28585" x1="44.0629" y1="0.207031" x2="44.0629" y2="89.841" gradientUnits="userSpaceOnUse">
<stop stop-color="white" stop-opacity="0.28"/>
<stop offset="1" stop-color="white" stop-opacity="0.39"/>
</linearGradient>
<clipPath id="clip0_2946_28585">
<rect x="0.0253906" y="0.207031" width="88.0751" height="89.6339" rx="10" fill="white"/>
</clipPath>
<clipPath id="clip1_2946_28585">
<rect x="0.0253906" y="0.207031" width="88.0751" height="89.6339" rx="15" fill="white"/>
</clipPath>
</defs>
</svg>
