<svg width="156" height="36" viewBox="0 0 156 36" fill="none" xmlns="http://www.w3.org/2000/svg">
<circle cx="18" cy="18" r="18" fill="#F5F5F5"/>
<g clip-path="url(#clip0_1945_27134)">
<path d="M14.9066 28.6703V23.7109L11.2051 26.4422C12.2473 27.4125 13.5051 28.1672 14.9066 28.6703ZM22.0941 28.6703C23.4957 28.1672 24.7535 27.4125 25.7957 26.4422L22.0941 23.675V28.6703ZM8.33008 22.0938C8.43789 22.4531 8.58164 22.7766 8.76133 23.1359L10.1629 22.0938H8.33008ZM26.8379 22.0938L28.2395 23.1359C28.3832 22.8125 28.527 22.4531 28.6707 22.0938H26.8379Z" fill="#2A5F9E"/>
<path d="M15.4445 20.6562H7.93359C8.04141 21.1594 8.18516 21.6266 8.32891 22.0937H10.1617L8.76016 23.1359C9.04766 23.7469 9.37109 24.2859 9.76641 24.825L13.468 22.0937H14.9055V22.8125L10.7008 25.9031L11.2039 26.4062L14.9055 23.7109V28.6703C15.3727 28.85 15.8398 28.9578 16.343 29.0656V20.6562H15.4445ZM29.0648 20.6562H20.6555V29.0656C21.1586 28.9578 21.6258 28.8141 22.093 28.6703V23.7109L25.7945 26.4062C26.2977 25.9391 26.7289 25.4359 27.1602 24.8969L23.3148 22.0937H25.7586L27.9508 23.7109C28.0586 23.5312 28.1664 23.3156 28.2383 23.1359L26.8367 22.0937H28.6695C28.8133 21.6266 28.957 21.1594 29.0648 20.6562Z" fill="white"/>
<path d="M9.76758 24.825C10.0551 25.2203 10.3426 25.5797 10.666 25.9391L14.9066 22.8484V22.1297H13.4691L9.76758 24.825ZM23.352 22.0938L27.1973 24.8969C27.341 24.7172 27.4488 24.5375 27.5926 24.3578C27.6285 24.3219 27.6285 24.2859 27.6645 24.2859C27.7723 24.1062 27.916 23.8906 28.0238 23.7109L25.7598 22.0938H23.352Z" fill="#ED4C5C"/>
<path d="M22.0941 8.33008V13.2895L25.7957 10.5582C24.7535 9.58789 23.4957 8.8332 22.0941 8.33008ZM14.9066 8.33008C13.5051 8.8332 12.2473 9.58789 11.2051 10.5582L14.9066 13.3254V8.33008ZM28.6707 14.9066C28.5629 14.5473 28.4191 14.2238 28.2395 13.8645L26.8379 14.9066H28.6707ZM10.1629 14.9066L8.76133 13.8645C8.61758 14.2238 8.47383 14.5473 8.33008 14.9066H10.1629Z" fill="#2A5F9E"/>
<path d="M21.5539 16.343H29.0289C28.9211 15.8398 28.7773 15.3727 28.6336 14.9055H26.8008L28.2023 13.8633C27.9148 13.2523 27.5914 12.7133 27.1961 12.1742L23.5305 14.9055H22.093V14.1867L26.2977 11.0961L25.7945 10.593L22.093 13.2883V8.32891C21.6258 8.14922 21.1586 8.04141 20.6555 7.93359V16.343H21.5539ZM7.93359 16.343H16.343V7.93359C15.8398 8.04141 15.3727 8.18516 14.9055 8.32891V13.2883L11.2039 10.593C10.7008 11.0602 10.2695 11.5633 9.83828 12.1023L13.6836 14.9055H11.2398L9.04766 13.2883C8.93984 13.468 8.83203 13.6836 8.76016 13.8633L10.1617 14.9055H8.32891C8.18516 15.3727 8.04141 15.8398 7.93359 16.343Z" fill="white"/>
<path d="M27.232 12.1746C26.9445 11.7793 26.657 11.4199 26.3336 11.0605L22.093 14.1512V14.8699H23.5305L27.232 12.1746ZM13.6477 14.9059L9.83828 12.1027C9.69453 12.2824 9.58672 12.4621 9.44297 12.6418C9.40703 12.6777 9.40703 12.7137 9.37109 12.7137C9.26328 12.8934 9.11953 13.109 9.01172 13.2887L11.2039 14.9059H13.6477Z" fill="#ED4C5C"/>
<path d="M29.0656 16.3438H20.6562V7.93437C19.9734 7.79062 19.2547 7.71875 18.5 7.71875C17.7453 7.71875 17.0266 7.79062 16.3438 7.93437V16.3438H7.93437C7.79062 17.0266 7.71875 17.7453 7.71875 18.5C7.71875 19.2547 7.79062 19.9734 7.93437 20.6562H16.3438V29.0656C17.0266 29.2094 17.7453 29.2812 18.5 29.2812C19.2547 29.2812 19.9734 29.2094 20.6562 29.0656V20.6562H29.0656C29.2094 19.9734 29.2812 19.2547 29.2812 18.5C29.2812 17.7453 29.2094 17.0266 29.0656 16.3438Z" fill="#ED4C5C"/>
</g>
<path d="M53.3669 22.126C55.9849 22.126 57.5529 20.628 57.5529 18.22V11.794H56.0409V18.192C56.0409 19.774 55.1729 20.754 53.3809 20.754C51.7289 20.754 50.7209 19.9 50.7209 18.192V11.794H49.1949V18.22C49.1949 20.628 50.7489 22.126 53.3669 22.126ZM59.7189 22H61.1469V17.954C61.1469 16.68 61.9449 15.672 63.2189 15.672C64.3949 15.672 64.9409 16.386 64.9409 17.898V22H66.3829V17.604C66.3829 15.336 65.2489 14.482 63.7369 14.482C62.6449 14.482 61.6649 15.014 61.2309 16.064H61.1469L61.0909 14.594H59.7189V22ZM68.3322 13.46H69.7742V11.794H68.3322V13.46ZM68.3322 22H69.7742V14.594H68.3322V22ZM73.8915 22H75.3755V20.81H74.3675C73.9055 20.81 73.7375 20.684 73.7375 20.194V15.77H75.3755V14.594H73.7375V12.284L72.2955 12.452V14.594H70.8955V15.77H72.2955V20.46C72.2955 21.454 72.6735 22 73.8915 22ZM79.6837 22.126C81.4337 22.126 82.7777 21.174 82.9737 19.718H81.6017C81.4197 20.488 80.6777 20.978 79.6837 20.978C78.3957 20.978 77.5557 20.11 77.5277 18.584H83.0157C83.2397 16.26 82.0637 14.482 79.6277 14.482C77.4577 14.482 76.0997 15.994 76.0997 18.332C76.0997 20.614 77.4577 22.126 79.6837 22.126ZM79.6137 15.616C80.7057 15.616 81.5597 16.19 81.6017 17.562H77.5557C77.6677 16.358 78.4517 15.616 79.6137 15.616ZM87.2311 22.126C88.4771 22.126 89.4011 21.482 89.7511 20.53H89.8351L89.8911 22H91.2771V11.794H89.8351V16.05H89.7511C89.4011 15.098 88.4771 14.468 87.2311 14.468C85.4251 14.468 84.2071 15.812 84.2071 18.29C84.2071 20.768 85.4251 22.126 87.2311 22.126ZM87.7351 20.936C86.5031 20.936 85.6911 20.026 85.6911 18.29C85.6911 16.54 86.5031 15.644 87.7351 15.644C89.1071 15.644 89.8211 16.736 89.8211 17.87V18.71C89.8211 19.858 89.1071 20.936 87.7351 20.936ZM96.6519 22H98.1779V18.962L99.8999 17.142L103.134 22H104.94L100.936 16.036L104.87 11.794H103.022L98.1779 17.142V11.794H96.6519V22ZM106.231 13.46H107.673V11.794H106.231V13.46ZM106.231 22H107.673V14.594H106.231V22ZM109.676 22H111.104V17.954C111.104 16.68 111.902 15.672 113.176 15.672C114.352 15.672 114.898 16.386 114.898 17.898V22H116.34V17.604C116.34 15.336 115.206 14.482 113.694 14.482C112.602 14.482 111.622 15.014 111.188 16.064H111.104L111.048 14.594H109.676V22ZM121.215 24.478C123.301 24.478 124.715 23.638 124.715 21.314V14.594H123.315L123.287 15.966H123.189C122.853 15.07 121.957 14.468 120.781 14.468C118.989 14.468 117.785 15.756 117.785 18.024C117.785 20.278 118.961 21.566 120.767 21.566C121.943 21.566 122.853 20.964 123.189 20.068H123.287V21.51C123.287 22.882 122.573 23.414 121.243 23.414C120.305 23.414 119.661 23.008 119.549 22.35H118.149C118.303 23.666 119.437 24.478 121.215 24.478ZM121.257 20.446C120.053 20.446 119.269 19.592 119.269 18.024C119.269 16.484 120.039 15.602 121.271 15.602C122.573 15.602 123.259 16.596 123.273 17.562L123.287 18.458C123.259 19.438 122.545 20.446 121.257 20.446ZM129.122 22.126C130.368 22.126 131.292 21.482 131.642 20.53H131.726L131.782 22H133.168V11.794H131.726V16.05H131.642C131.292 15.098 130.368 14.468 129.122 14.468C127.316 14.468 126.098 15.812 126.098 18.29C126.098 20.768 127.316 22.126 129.122 22.126ZM129.626 20.936C128.394 20.936 127.582 20.026 127.582 18.29C127.582 16.54 128.394 15.644 129.626 15.644C130.998 15.644 131.712 16.736 131.712 17.87V18.71C131.712 19.858 130.998 20.936 129.626 20.936ZM138.31 22.126C140.536 22.126 141.922 20.572 141.922 18.304C141.922 15.952 140.466 14.482 138.31 14.482C136.07 14.482 134.684 16.036 134.684 18.318C134.684 20.642 136.14 22.126 138.31 22.126ZM138.31 20.922C136.994 20.922 136.154 19.97 136.154 18.318C136.154 16.61 137.022 15.672 138.31 15.672C139.64 15.672 140.452 16.638 140.452 18.304C140.452 19.984 139.598 20.922 138.31 20.922ZM143.432 22H144.86V17.954C144.86 16.68 145.63 15.672 146.862 15.672C148.01 15.672 148.528 16.386 148.528 17.898V22H149.97V17.954C149.97 16.68 150.74 15.672 151.958 15.672C153.12 15.672 153.638 16.386 153.638 17.898V22H155.066V17.604C155.066 15.336 153.974 14.482 152.504 14.482C151.314 14.482 150.306 15.07 149.9 16.218H149.788C149.41 14.958 148.486 14.482 147.394 14.482C146.316 14.482 145.364 15.014 144.944 16.064H144.86L144.804 14.594H143.432V22Z" fill="#1E2C31"/>
<defs>
<clipPath id="clip0_1945_27134">
<rect width="23" height="23" fill="white" transform="translate(7 7)"/>
</clipPath>
</defs>
</svg>
