<svg width="1029" height="145" viewBox="0 0 1029 145" fill="none" xmlns="http://www.w3.org/2000/svg">
<path d="M20.5504 60.1038C17.4117 60.1038 14.6832 59.5331 12.3649 58.3918C10.0822 57.2504 8.31673 55.5919 7.06839 53.4163C5.85573 51.2406 5.24939 48.6369 5.24939 45.6053V20.6743H8.56639V45.3913C8.56639 47.9949 9.04789 50.1706 10.0109 51.9183C10.9739 53.6659 12.3471 54.9678 14.1304 55.8238C15.9494 56.6441 18.0894 57.0543 20.5504 57.0543C23.2967 57.0543 25.5616 56.5906 27.3449 55.6633C29.1282 54.7003 30.4479 53.3449 31.3039 51.5973C32.1599 49.8139 32.5879 47.7453 32.5879 45.3913V20.6743H35.8514V45.6053C35.8514 48.5299 35.2451 51.0801 34.0324 53.2558C32.8554 55.4314 31.1256 57.1256 28.8429 58.3383C26.5959 59.5153 23.8317 60.1038 20.5504 60.1038ZM45.0994 59.6758V31.8023H48.0419L48.2024 37.8478H48.4164C49.308 35.7078 50.6634 34.1028 52.4824 33.0328C54.337 31.9271 56.3522 31.3743 58.5279 31.3743C59.9902 31.3743 61.3277 31.6061 62.5404 32.0698C63.7887 32.4978 64.8587 33.1933 65.7504 34.1563C66.642 35.0836 67.3375 36.3141 67.8369 37.8478C68.3362 39.3458 68.5859 41.1826 68.5859 43.3583V59.6758H65.4294V43.9468C65.4294 41.6998 65.144 39.8451 64.5734 38.3828C64.0384 36.9204 63.2002 35.8504 62.0589 35.1728C60.9175 34.4594 59.4552 34.1028 57.6719 34.1028C55.7815 34.1028 54.123 34.5664 52.6964 35.4938C51.2697 36.4211 50.164 37.6873 49.3794 39.2923C48.5947 40.8616 48.2024 42.6806 48.2024 44.7493V59.6758H45.0994ZM76.9695 59.6758V20.6743H80.126V59.6758H76.9695ZM99.9599 60.1038C97.9625 60.1038 96.1435 59.7649 94.5029 59.0873C92.8979 58.4096 91.5069 57.4466 90.3299 56.1983C89.1529 54.9143 88.2434 53.3984 87.6014 51.6508C86.9594 49.9031 86.6384 47.9593 86.6384 45.8193C86.6384 42.9659 87.1912 40.4514 88.2969 38.2758C89.4025 36.1001 90.954 34.4059 92.9514 33.1933C94.9487 31.9806 97.2849 31.3743 99.9599 31.3743C101.922 31.3743 103.705 31.7131 105.31 32.3908C106.951 33.0684 108.342 34.0493 109.483 35.3333C110.66 36.5816 111.569 38.0974 112.211 39.8808C112.853 41.6284 113.174 43.5901 113.174 45.7658C113.174 48.5834 112.622 51.0801 111.516 53.2558C110.446 55.3958 108.912 57.0721 106.915 58.2848C104.953 59.4974 102.635 60.1038 99.9599 60.1038ZM99.9064 57.3218C101.904 57.3218 103.651 56.8581 105.149 55.9308C106.683 55.0034 107.86 53.6838 108.68 51.9718C109.501 50.2241 109.911 48.1554 109.911 45.7658C109.911 43.9824 109.679 42.3953 109.215 41.0043C108.787 39.5776 108.128 38.3471 107.236 37.3128C106.38 36.2784 105.328 35.4938 104.079 34.9588C102.867 34.4238 101.494 34.1563 99.9599 34.1563C97.9625 34.1563 96.197 34.6199 94.6634 35.5473C93.1654 36.4746 91.9884 37.8121 91.1324 39.5598C90.2764 41.2718 89.8484 43.3583 89.8484 45.8193C89.8484 47.5669 90.0802 49.1541 90.5439 50.5808C91.0075 51.9718 91.6852 53.1666 92.5769 54.1653C93.4685 55.1639 94.5207 55.9486 95.7334 56.5193C96.9817 57.0543 98.3727 57.3218 99.9064 57.3218ZM131.356 60.1038C129.394 60.1038 127.593 59.7649 125.952 59.0873C124.347 58.4096 122.956 57.4466 121.779 56.1983C120.638 54.9143 119.746 53.3984 119.104 51.6508C118.498 49.9031 118.195 47.9593 118.195 45.8193C118.195 42.9303 118.73 40.4158 119.8 38.2758C120.906 36.1001 122.457 34.4059 124.454 33.1933C126.487 31.9806 128.859 31.3743 131.57 31.3743C133.674 31.3743 135.565 31.7844 137.241 32.6048C138.917 33.3894 140.273 34.4951 141.307 35.9218C142.377 37.3484 143.019 39.0069 143.233 40.8973H140.13C139.88 39.4349 139.345 38.2044 138.525 37.2058C137.705 36.2071 136.688 35.4581 135.475 34.9588C134.263 34.4238 132.907 34.1563 131.409 34.1563C129.341 34.1563 127.557 34.6556 126.059 35.6543C124.561 36.6173 123.402 37.9726 122.582 39.7203C121.797 41.4679 121.405 43.5009 121.405 45.8193C121.405 48.2089 121.815 50.2598 122.635 51.9718C123.456 53.6838 124.615 55.0034 126.113 55.9308C127.611 56.8581 129.359 57.3218 131.356 57.3218C133.032 57.3218 134.495 57.0364 135.743 56.4658C137.027 55.8594 138.061 55.0034 138.846 53.8978C139.631 52.7921 140.094 51.5259 140.237 50.0993H143.34C143.162 52.1323 142.537 53.8978 141.467 55.3958C140.433 56.8938 139.042 58.0529 137.294 58.8733C135.547 59.6936 133.567 60.1038 131.356 60.1038ZM149.748 59.6758V20.6743H152.905V46.8893L155.473 44.2678L168.045 31.8023H172.058L161.197 42.5023L172.646 59.6758H168.955L160.662 47.4243L158.95 44.6958L152.905 50.5273V59.6758H149.748ZM633.255 59.6758V20.6743H636.572V59.6758H633.255ZM646.138 59.6758V31.8023H649.081L649.241 37.8478H649.455C650.347 35.7078 651.702 34.1028 653.521 33.0328C655.376 31.9271 657.391 31.3743 659.567 31.3743C661.029 31.3743 662.367 31.6061 663.579 32.0698C664.828 32.4978 665.898 33.1933 666.789 34.1563C667.681 35.0836 668.377 36.3141 668.876 37.8478C669.375 39.3458 669.625 41.1826 669.625 43.3583V59.6758H666.468V43.9468C666.468 41.6998 666.183 39.8451 665.612 38.3828C665.077 36.9204 664.239 35.8504 663.098 35.1728C661.957 34.4594 660.494 34.1028 658.711 34.1028C656.821 34.1028 655.162 34.5664 653.735 35.4938C652.309 36.4211 651.203 37.6873 650.418 39.2923C649.634 40.8616 649.241 42.6806 649.241 44.7493V59.6758H646.138ZM700.873 59.6758V43.8398L686.428 20.6743H690.227L702.478 40.6298H702.692L714.997 20.6743H718.742L704.19 43.8398V59.6758H700.873ZM728.951 60.1038C726.953 60.1038 725.134 59.7649 723.494 59.0873C721.889 58.4096 720.498 57.4466 719.321 56.1983C718.144 54.9143 717.234 53.3984 716.592 51.6508C715.95 49.9031 715.629 47.9593 715.629 45.8193C715.629 42.9659 716.182 40.4514 717.288 38.2758C718.393 36.1001 719.945 34.4059 721.942 33.1933C723.939 31.9806 726.276 31.3743 728.951 31.3743C730.912 31.3743 732.696 31.7131 734.301 32.3908C735.941 33.0684 737.332 34.0493 738.474 35.3333C739.651 36.5816 740.56 38.0974 741.202 39.8808C741.844 41.6284 742.165 43.5901 742.165 45.7658C742.165 48.5834 741.612 51.0801 740.507 53.2558C739.437 55.3958 737.903 57.0721 735.906 58.2848C733.944 59.4974 731.626 60.1038 728.951 60.1038ZM728.897 57.3218C730.894 57.3218 732.642 56.8581 734.14 55.9308C735.674 55.0034 736.851 53.6838 737.671 51.9718C738.491 50.2241 738.902 48.1554 738.902 45.7658C738.902 43.9824 738.67 42.3953 738.206 41.0043C737.778 39.5776 737.118 38.3471 736.227 37.3128C735.371 36.2784 734.318 35.4938 733.07 34.9588C731.857 34.4238 730.484 34.1563 728.951 34.1563C726.953 34.1563 725.188 34.6199 723.654 35.5473C722.156 36.4746 720.979 37.8121 720.123 39.5598C719.267 41.2718 718.839 43.3583 718.839 45.8193C718.839 47.5669 719.071 49.1541 719.535 50.5808C719.998 51.9718 720.676 53.1666 721.568 54.1653C722.459 55.1639 723.511 55.9486 724.724 56.5193C725.972 57.0543 727.363 57.3218 728.897 57.3218ZM758.594 60.1038C756.561 60.1038 754.777 59.6936 753.244 58.8733C751.71 58.0529 750.533 56.8046 749.713 55.1283C748.892 53.4163 748.482 51.2941 748.482 48.7618V31.8023H751.639V48.0663C751.639 50.0279 751.906 51.7043 752.441 53.0953C752.976 54.4863 753.832 55.5563 755.009 56.3053C756.186 57.0186 757.702 57.3753 759.557 57.3753C761.376 57.3753 762.981 56.9294 764.372 56.0378C765.763 55.1461 766.851 53.8799 767.635 52.2393C768.42 50.5629 768.812 48.6369 768.812 46.4613V31.8023H771.969V59.6758H769.026L768.812 53.4698H768.545C767.831 55.5028 766.565 57.1256 764.746 58.3383C762.963 59.5153 760.912 60.1038 758.594 60.1038ZM780.359 59.6758V31.8023H783.141L783.355 37.2058H783.515C784.121 35.3868 785.209 33.9779 786.779 32.9793C788.348 31.9449 790.113 31.4278 792.075 31.4278C792.396 31.4278 792.681 31.4456 792.931 31.4813C793.216 31.4813 793.484 31.4991 793.734 31.5348V34.5308C793.52 34.4951 793.252 34.4773 792.931 34.4773C792.646 34.4773 792.36 34.4773 792.075 34.4773C790.506 34.4773 789.097 34.7804 787.849 35.3868C786.6 35.9931 785.584 36.8848 784.799 38.0618C784.05 39.2388 783.604 40.6476 783.462 42.2883V59.6758H780.359ZM812.668 59.6758V20.6743H829.574C832.035 20.6743 834.122 21.1023 835.834 21.9583C837.546 22.7786 838.847 23.9378 839.739 25.4358C840.666 26.8981 841.13 28.6279 841.13 30.6253C841.13 32.0519 840.88 33.3716 840.381 34.5843C839.917 35.7613 839.186 36.7778 838.188 37.6338C837.225 38.4898 835.994 39.0961 834.496 39.4528V39.6668C836.208 39.9878 837.617 40.5941 838.723 41.4858C839.828 42.3418 840.666 43.4118 841.237 44.6958C841.843 45.9798 842.147 47.3708 842.147 48.8688C842.147 51.1158 841.629 53.0418 840.595 54.6468C839.561 56.2518 838.081 57.5001 836.155 58.3918C834.229 59.2478 831.946 59.6758 829.307 59.6758H812.668ZM815.932 56.8403H829.146C832.32 56.8403 834.71 56.0913 836.315 54.5933C837.92 53.0596 838.723 51.0979 838.723 48.7083C838.723 46.2829 837.956 44.4104 836.422 43.0908C834.888 41.7354 832.731 41.0578 829.949 41.0578H815.932V56.8403ZM815.932 38.3293H829.788C831.571 38.3293 833.052 38.0261 834.229 37.4198C835.406 36.8134 836.297 35.9753 836.904 34.9053C837.51 33.7996 837.813 32.5334 837.813 31.1068C837.813 28.6814 837.011 26.8089 835.406 25.4893C833.801 24.1339 831.696 23.4563 829.093 23.4563H815.932V38.3293ZM858.279 60.1038C856.246 60.1038 854.463 59.6936 852.929 58.8733C851.396 58.0529 850.219 56.8046 849.398 55.1283C848.578 53.4163 848.168 51.2941 848.168 48.7618V31.8023H851.324V48.0663C851.324 50.0279 851.592 51.7043 852.127 53.0953C852.662 54.4863 853.518 55.5563 854.695 56.3053C855.872 57.0186 857.388 57.3753 859.242 57.3753C861.061 57.3753 862.666 56.9294 864.057 56.0378C865.448 55.1461 866.536 53.8799 867.321 52.2393C868.105 50.5629 868.498 48.6369 868.498 46.4613V31.8023H871.654V59.6758H868.712L868.498 53.4698H868.23C867.517 55.5028 866.251 57.1256 864.432 58.3383C862.648 59.5153 860.598 60.1038 858.279 60.1038ZM888.979 60.2108C886.625 60.2108 884.61 59.8363 882.933 59.0873C881.293 58.3026 880.026 57.2326 879.135 55.8773C878.279 54.4863 877.851 52.8634 877.851 51.0088H880.954C880.954 53.2914 881.703 54.9856 883.201 56.0913C884.699 57.1613 886.643 57.6963 889.032 57.6963C891.458 57.6963 893.312 57.2326 894.596 56.3053C895.88 55.3779 896.522 54.0761 896.522 52.3998C896.522 51.1871 896.255 50.2241 895.72 49.5108C895.185 48.7974 894.364 48.2446 893.259 47.8523C892.153 47.4599 890.691 47.1389 888.872 46.8893C886.625 46.5326 884.734 46.0868 883.201 45.5518C881.703 44.9811 880.561 44.1964 879.777 43.1978C878.992 42.1991 878.6 40.8616 878.6 39.1853C878.6 37.5803 879.028 36.2071 879.884 35.0658C880.775 33.8888 881.988 32.9614 883.522 32.2838C885.055 31.6061 886.839 31.2673 888.872 31.2673C891.047 31.2673 892.902 31.6239 894.436 32.3373C895.969 33.0506 897.146 34.0493 897.967 35.3333C898.787 36.6173 899.197 38.1509 899.197 39.9343H896.094C896.059 38.4719 895.738 37.2949 895.131 36.4033C894.525 35.5116 893.687 34.8518 892.617 34.4238C891.547 33.9958 890.298 33.7818 888.872 33.7818C886.625 33.7818 884.877 34.2454 883.629 35.1728C882.38 36.1001 881.756 37.3306 881.756 38.8643C881.756 39.9699 882.042 40.8794 882.612 41.5928C883.183 42.2704 884.057 42.8054 885.234 43.1978C886.446 43.5544 887.944 43.8754 889.728 44.1608C891.261 44.3748 892.635 44.6601 893.847 45.0168C895.06 45.3378 896.112 45.8014 897.004 46.4078C897.895 46.9784 898.573 47.7274 899.037 48.6548C899.5 49.5821 899.732 50.7413 899.732 52.1323C899.732 54.7359 898.734 56.7333 896.736 58.1243C894.775 59.5153 892.189 60.2108 888.979 60.2108ZM906.324 59.6758V31.8023H909.48V59.6758H906.324ZM906.324 26.8268V20.6743H909.48V26.8268H906.324ZM918.079 59.6758V31.8023H921.022L921.182 37.8478H921.396C922.288 35.7078 923.643 34.1028 925.462 33.0328C927.317 31.9271 929.332 31.3743 931.508 31.3743C932.97 31.3743 934.308 31.6061 935.52 32.0698C936.769 32.4978 937.839 33.1933 938.73 34.1563C939.622 35.0836 940.318 36.3141 940.817 37.8478C941.316 39.3458 941.566 41.1826 941.566 43.3583V59.6758H938.409V43.9468C938.409 41.6998 938.124 39.8451 937.553 38.3828C937.018 36.9204 936.18 35.8504 935.039 35.1728C933.898 34.4594 932.435 34.1028 930.652 34.1028C928.762 34.1028 927.103 34.5664 925.676 35.4938C924.25 36.4211 923.144 37.6873 922.359 39.2923C921.575 40.8616 921.182 42.6806 921.182 44.7493V59.6758H918.079ZM960.863 60.1038C958.224 60.1038 955.924 59.5153 953.962 58.3383C952.036 57.1613 950.538 55.5028 949.468 53.3628C948.398 51.1871 947.863 48.6726 947.863 45.8193C947.863 42.8946 948.38 40.3623 949.414 38.2223C950.449 36.0466 951.929 34.3703 953.855 33.1933C955.781 31.9806 958.081 31.3743 960.756 31.3743C963.645 31.3743 966.035 32.0163 967.925 33.3003C969.851 34.5843 971.225 36.3498 972.045 38.5968C972.901 40.8438 973.204 43.3761 972.954 46.1938H951.019C951.055 48.5834 951.483 50.6164 952.303 52.2928C953.124 53.9691 954.265 55.2531 955.727 56.1448C957.225 57.0364 958.937 57.4823 960.863 57.4823C963.253 57.4823 965.215 56.9294 966.748 55.8238C968.318 54.6824 969.316 53.1844 969.744 51.3298H972.847C972.562 53.1131 971.867 54.6646 970.761 55.9843C969.655 57.2683 968.246 58.2848 966.534 59.0338C964.858 59.7471 962.968 60.1038 960.863 60.1038ZM951.073 44.1608L950.698 43.8398H970.226L969.905 44.3213C969.941 42.0029 969.566 40.0948 968.781 38.5968C968.032 37.0631 966.962 35.9218 965.571 35.1728C964.18 34.3881 962.558 33.9958 960.703 33.9958C958.813 33.9958 957.154 34.4059 955.727 35.2263C954.336 36.0466 953.231 37.2236 952.41 38.7573C951.626 40.2553 951.18 42.0564 951.073 44.1608ZM988.56 60.2108C986.206 60.2108 984.191 59.8363 982.514 59.0873C980.874 58.3026 979.607 57.2326 978.716 55.8773C977.86 54.4863 977.432 52.8634 977.432 51.0088H980.535C980.535 53.2914 981.284 54.9856 982.782 56.0913C984.28 57.1613 986.224 57.6963 988.613 57.6963C991.039 57.6963 992.893 57.2326 994.177 56.3053C995.461 55.3779 996.103 54.0761 996.103 52.3998C996.103 51.1871 995.836 50.2241 995.301 49.5108C994.766 48.7974 993.945 48.2446 992.84 47.8523C991.734 47.4599 990.272 47.1389 988.453 46.8893C986.206 46.5326 984.315 46.0868 982.782 45.5518C981.284 44.9811 980.142 44.1964 979.358 43.1978C978.573 42.1991 978.181 40.8616 978.181 39.1853C978.181 37.5803 978.609 36.2071 979.465 35.0658C980.356 33.8888 981.569 32.9614 983.103 32.2838C984.636 31.6061 986.42 31.2673 988.453 31.2673C990.628 31.2673 992.483 31.6239 994.017 32.3373C995.55 33.0506 996.727 34.0493 997.548 35.3333C998.368 36.6173 998.778 38.1509 998.778 39.9343H995.675C995.64 38.4719 995.319 37.2949 994.712 36.4033C994.106 35.5116 993.268 34.8518 992.198 34.4238C991.128 33.9958 989.879 33.7818 988.453 33.7818C986.206 33.7818 984.458 34.2454 983.21 35.1728C981.961 36.1001 981.337 37.3306 981.337 38.8643C981.337 39.9699 981.623 40.8794 982.193 41.5928C982.764 42.2704 983.638 42.8054 984.815 43.1978C986.027 43.5544 987.525 43.8754 989.309 44.1608C990.842 44.3748 992.216 44.6601 993.428 45.0168C994.641 45.3378 995.693 45.8014 996.585 46.4078C997.476 46.9784 998.154 47.7274 998.618 48.6548C999.081 49.5821 999.313 50.7413 999.313 52.1323C999.313 54.7359 998.315 56.7333 996.317 58.1243C994.356 59.5153 991.77 60.2108 988.56 60.2108ZM1014.84 60.2108C1012.49 60.2108 1010.47 59.8363 1008.79 59.0873C1007.15 58.3026 1005.89 57.2326 1005 55.8773C1004.14 54.4863 1003.71 52.8634 1003.71 51.0088H1006.81C1006.81 53.2914 1007.56 54.9856 1009.06 56.0913C1010.56 57.1613 1012.5 57.6963 1014.89 57.6963C1017.32 57.6963 1019.17 57.2326 1020.46 56.3053C1021.74 55.3779 1022.38 54.0761 1022.38 52.3998C1022.38 51.1871 1022.12 50.2241 1021.58 49.5108C1021.05 48.7974 1020.23 48.2446 1019.12 47.8523C1018.01 47.4599 1016.55 47.1389 1014.73 46.8893C1012.49 46.5326 1010.6 46.0868 1009.06 45.5518C1007.56 44.9811 1006.42 44.1964 1005.64 43.1978C1004.85 42.1991 1004.46 40.8616 1004.46 39.1853C1004.46 37.5803 1004.89 36.2071 1005.74 35.0658C1006.64 33.8888 1007.85 32.9614 1009.38 32.2838C1010.92 31.6061 1012.7 31.2673 1014.73 31.2673C1016.91 31.2673 1018.76 31.6239 1020.3 32.3373C1021.83 33.0506 1023.01 34.0493 1023.83 35.3333C1024.65 36.6173 1025.06 38.1509 1025.06 39.9343H1021.96C1021.92 38.4719 1021.6 37.2949 1020.99 36.4033C1020.39 35.5116 1019.55 34.8518 1018.48 34.4238C1017.41 33.9958 1016.16 33.7818 1014.73 33.7818C1012.49 33.7818 1010.74 34.2454 1009.49 35.1728C1008.24 36.1001 1007.62 37.3306 1007.62 38.8643C1007.62 39.9699 1007.9 40.8794 1008.47 41.5928C1009.04 42.2704 1009.92 42.8054 1011.09 43.1978C1012.31 43.5544 1013.81 43.8754 1015.59 44.1608C1017.12 44.3748 1018.5 44.6601 1019.71 45.0168C1020.92 45.3378 1021.97 45.8014 1022.86 46.4078C1023.76 46.9784 1024.43 47.7274 1024.9 48.6548C1025.36 49.5821 1025.59 50.7413 1025.59 52.1323C1025.59 54.7359 1024.59 56.7333 1022.6 58.1243C1020.64 59.5153 1018.05 60.2108 1014.84 60.2108ZM127.745 127.676L118.703 88.6743H122.288L127.584 112.214L130.152 124.038H130.473L140.638 88.6743H145.079L155.297 124.091H155.618L158.133 112.214L163.429 88.6743H167.014L157.972 127.676H153.264L142.992 92.5263H142.725L132.399 127.676H127.745ZM171.875 127.676V99.8023H175.031V127.676H171.875ZM171.875 94.8268V88.6743H175.031V94.8268H171.875ZM190.317 127.676C189.14 127.676 188.195 127.515 187.482 127.194C186.769 126.838 186.251 126.303 185.93 125.589C185.645 124.876 185.502 123.984 185.502 122.914V102.424H179.885V99.8023H185.502V91.2423L188.605 90.7073V99.8023H195.346V102.424H188.605V122.326C188.605 123.396 188.784 124.109 189.14 124.466C189.497 124.787 190.193 124.947 191.227 124.947H195.346V127.676H190.317ZM201.446 127.676V88.6743H204.549V105.848H204.763C205.654 103.708 207.01 102.103 208.829 101.033C210.683 99.9271 212.699 99.3743 214.874 99.3743C216.337 99.3743 217.674 99.6061 218.887 100.07C220.135 100.498 221.205 101.193 222.097 102.156C222.988 103.084 223.684 104.314 224.183 105.848C224.683 107.346 224.932 109.183 224.932 111.358V127.676H221.776V111.947C221.776 109.7 221.49 107.845 220.92 106.383C220.385 104.92 219.547 103.85 218.405 103.173C217.264 102.459 215.802 102.103 214.018 102.103C212.128 102.103 210.469 102.566 209.043 103.494C207.616 104.421 206.51 105.687 205.726 107.292C204.941 108.862 204.549 110.681 204.549 112.749V127.676H201.446ZM255.057 127.676V91.6703H242.056V88.6743H271.374V91.6703H258.32V127.676H255.057ZM276.262 127.676V88.6743H279.365V105.848H279.579C280.471 103.708 281.826 102.103 283.645 101.033C285.5 99.9271 287.515 99.3743 289.691 99.3743C291.153 99.3743 292.491 99.6061 293.703 100.07C294.952 100.498 296.022 101.193 296.913 102.156C297.805 103.084 298.5 104.314 299 105.848C299.499 107.346 299.749 109.183 299.749 111.358V127.676H296.592V111.947C296.592 109.7 296.307 107.845 295.736 106.383C295.201 104.92 294.363 103.85 293.222 103.173C292.08 102.459 290.618 102.103 288.835 102.103C286.944 102.103 285.286 102.566 283.859 103.494C282.433 104.421 281.327 105.687 280.542 107.292C279.758 108.862 279.365 110.681 279.365 112.749V127.676H276.262ZM319.046 128.104C316.407 128.104 314.106 127.515 312.145 126.338C310.219 125.161 308.721 123.503 307.651 121.363C306.581 119.187 306.046 116.673 306.046 113.819C306.046 110.895 306.563 108.362 307.597 106.222C308.632 104.047 310.112 102.37 312.038 101.193C313.964 99.9806 316.264 99.3743 318.939 99.3743C321.828 99.3743 324.218 100.016 326.108 101.3C328.034 102.584 329.407 104.35 330.228 106.597C331.084 108.844 331.387 111.376 331.137 114.194H309.202C309.238 116.583 309.666 118.616 310.486 120.293C311.307 121.969 312.448 123.253 313.91 124.145C315.408 125.036 317.12 125.482 319.046 125.482C321.436 125.482 323.398 124.929 324.931 123.824C326.501 122.682 327.499 121.184 327.927 119.33H331.03C330.745 121.113 330.049 122.665 328.944 123.984C327.838 125.268 326.429 126.285 324.717 127.034C323.041 127.747 321.151 128.104 319.046 128.104ZM309.256 112.161L308.881 111.84H328.409L328.088 112.321C328.123 110.003 327.749 108.095 326.964 106.597C326.215 105.063 325.145 103.922 323.754 103.173C322.363 102.388 320.74 101.996 318.886 101.996C316.995 101.996 315.337 102.406 313.91 103.226C312.519 104.047 311.414 105.224 310.593 106.757C309.809 108.255 309.363 110.056 309.256 112.161ZM351.257 127.676V88.6743H368.377C370.338 88.6743 372.086 88.9061 373.62 89.3698C375.153 89.7978 376.42 90.4576 377.418 91.3493C378.453 92.2409 379.237 93.3288 379.772 94.6128C380.307 95.8968 380.575 97.3591 380.575 98.9998C380.575 101.389 379.986 103.422 378.809 105.099C377.632 106.739 375.902 107.881 373.62 108.523V108.897C375.867 109.254 377.436 110.092 378.328 111.412C379.255 112.696 379.719 114.461 379.719 116.708V123.663C379.719 124.27 379.737 124.912 379.772 125.589C379.844 126.267 380.04 126.962 380.361 127.676H376.99C376.741 127.105 376.58 126.481 376.509 125.803C376.437 125.126 376.402 124.359 376.402 123.503V117.297C376.402 115.763 376.17 114.497 375.706 113.498C375.278 112.464 374.494 111.697 373.352 111.198C372.211 110.698 370.588 110.449 368.484 110.449H354.574V127.676H351.257ZM354.574 107.613H367.949C371.266 107.613 373.638 106.846 375.064 105.313C376.491 103.779 377.204 101.8 377.204 99.3743C377.204 97.5553 376.812 96.0751 376.027 94.9338C375.278 93.7924 374.208 92.9543 372.817 92.4193C371.426 91.8843 369.803 91.6168 367.949 91.6168H354.574V107.613ZM388.121 127.676V99.8023H391.278V127.676H388.121ZM388.121 94.8268V88.6743H391.278V94.8268H388.121ZM410.202 137.145C408.205 137.145 406.439 136.842 404.905 136.236C403.372 135.629 402.123 134.773 401.16 133.668C400.233 132.562 399.645 131.225 399.395 129.655H402.444C402.658 130.654 403.104 131.528 403.782 132.277C404.46 133.061 405.333 133.65 406.403 134.042C407.509 134.435 408.775 134.631 410.202 134.631C412.092 134.631 413.715 134.345 415.07 133.775C416.426 133.24 417.478 132.348 418.227 131.1C419.012 129.851 419.404 128.139 419.404 125.964V119.758H419.136C418.459 121.648 417.246 123.182 415.498 124.359C413.751 125.536 411.664 126.124 409.239 126.124C407.491 126.124 405.904 125.821 404.477 125.215C403.086 124.608 401.892 123.717 400.893 122.54C399.894 121.363 399.127 119.954 398.592 118.313C398.057 116.637 397.79 114.782 397.79 112.749C397.79 110.003 398.271 107.631 399.234 105.634C400.197 103.601 401.535 102.049 403.247 100.979C404.995 99.8736 407.028 99.3208 409.346 99.3208C411.771 99.3208 413.84 99.8914 415.552 101.033C417.264 102.174 418.459 103.708 419.136 105.634H419.404V99.8023H422.507V125.91C422.507 127.943 422.204 129.673 421.597 131.1C420.991 132.526 420.135 133.686 419.029 134.577C417.959 135.469 416.658 136.111 415.124 136.503C413.626 136.931 411.985 137.145 410.202 137.145ZM410.095 123.503C412.057 123.503 413.715 123.057 415.07 122.165C416.461 121.274 417.514 120.132 418.227 118.741C418.976 117.315 419.368 115.87 419.404 114.408L419.35 110.984C419.35 109.557 418.994 108.148 418.28 106.757C417.603 105.366 416.568 104.225 415.177 103.333C413.822 102.442 412.164 101.996 410.202 101.996C408.312 101.996 406.671 102.424 405.28 103.28C403.925 104.136 402.872 105.384 402.123 107.025C401.41 108.63 401.053 110.538 401.053 112.749C401.053 114.996 401.428 116.922 402.177 118.527C402.926 120.132 403.978 121.363 405.333 122.219C406.689 123.075 408.276 123.503 410.095 123.503ZM430.858 127.676V88.6743H433.961V105.848H434.175C435.067 103.708 436.422 102.103 438.241 101.033C440.096 99.9271 442.111 99.3743 444.287 99.3743C445.749 99.3743 447.087 99.6061 448.299 100.07C449.548 100.498 450.618 101.193 451.509 102.156C452.401 103.084 453.097 104.314 453.596 105.848C454.095 107.346 454.345 109.183 454.345 111.358V127.676H451.188V111.947C451.188 109.7 450.903 107.845 450.332 106.383C449.797 104.92 448.959 103.85 447.818 103.173C446.677 102.459 445.214 102.103 443.431 102.103C441.541 102.103 439.882 102.566 438.455 103.494C437.029 104.421 435.923 105.687 435.138 107.292C434.354 108.862 433.961 110.681 433.961 112.749V127.676H430.858ZM468.789 127.676C467.612 127.676 466.667 127.515 465.954 127.194C465.24 126.838 464.723 126.303 464.402 125.589C464.117 124.876 463.974 123.984 463.974 122.914V102.424H458.357V99.8023H463.974V91.2423L467.077 90.7073V99.8023H473.818V102.424H467.077V122.326C467.077 123.396 467.255 124.109 467.612 124.466C467.969 124.787 468.664 124.947 469.699 124.947H473.818V127.676H468.789ZM493.366 127.676V88.6743H519.528V91.6168H495.934L496.683 90.8678V107.56L495.934 106.811H517.388V109.7H495.934L496.683 108.951V127.676H493.366ZM525.581 127.676V99.8023H528.737V127.676H525.581ZM525.581 94.8268V88.6743H528.737V94.8268H525.581ZM537.336 127.676V99.8023H540.278L540.439 105.848H540.653C541.545 103.708 542.9 102.103 544.719 101.033C546.574 99.9271 548.589 99.3743 550.764 99.3743C552.227 99.3743 553.564 99.6061 554.777 100.07C556.025 100.498 557.095 101.193 557.987 102.156C558.879 103.084 559.574 104.314 560.073 105.848C560.573 107.346 560.822 109.183 560.822 111.358V127.676H557.666V111.947C557.666 109.7 557.381 107.845 556.81 106.383C556.275 104.92 555.437 103.85 554.295 103.173C553.154 102.459 551.692 102.103 549.908 102.103C548.018 102.103 546.36 102.566 544.933 103.494C543.506 104.421 542.401 105.687 541.616 107.292C540.831 108.862 540.439 110.681 540.439 112.749V127.676H537.336ZM578.729 128.104C577.017 128.104 575.448 127.783 574.021 127.141C572.594 126.499 571.364 125.571 570.33 124.359C569.295 123.11 568.493 121.595 567.922 119.811C567.387 118.028 567.12 115.995 567.12 113.712C567.12 110.681 567.601 108.095 568.564 105.955C569.563 103.815 570.936 102.174 572.684 101.033C574.431 99.8914 576.446 99.3208 578.729 99.3208C580.405 99.3208 581.921 99.6061 583.277 100.177C584.668 100.712 585.845 101.479 586.808 102.477C587.771 103.44 588.466 104.582 588.894 105.901H589.108L589.269 99.8023H592.265V127.676H589.108V121.47H588.894C588.216 123.467 586.986 125.072 585.203 126.285C583.419 127.497 581.261 128.104 578.729 128.104ZM579.639 125.375C581.636 125.375 583.33 124.912 584.721 123.984C586.148 123.021 587.218 121.791 587.931 120.293C588.68 118.795 589.055 117.19 589.055 115.478V111.893C589.055 110.181 588.68 108.576 587.931 107.078C587.218 105.58 586.148 104.368 584.721 103.44C583.33 102.477 581.636 101.996 579.639 101.996C577.784 101.996 576.161 102.459 574.77 103.387C573.379 104.278 572.291 105.598 571.507 107.346C570.758 109.058 570.383 111.18 570.383 113.712C570.383 116.173 570.758 118.278 571.507 120.025C572.291 121.773 573.379 123.11 574.77 124.038C576.161 124.929 577.784 125.375 579.639 125.375ZM600.919 127.676V99.8023H603.862L604.022 105.848H604.236C605.128 103.708 606.483 102.103 608.302 101.033C610.157 99.9271 612.172 99.3743 614.348 99.3743C615.81 99.3743 617.148 99.6061 618.36 100.07C619.609 100.498 620.679 101.193 621.57 102.156C622.462 103.084 623.158 104.314 623.657 105.848C624.156 107.346 624.406 109.183 624.406 111.358V127.676H621.249V111.947C621.249 109.7 620.964 107.845 620.393 106.383C619.858 104.92 619.02 103.85 617.879 103.173C616.738 102.459 615.275 102.103 613.492 102.103C611.602 102.103 609.943 102.566 608.516 103.494C607.09 104.421 605.984 105.687 605.199 107.292C604.415 108.862 604.022 110.681 604.022 112.749V127.676H600.919ZM643.864 128.104C641.902 128.104 640.101 127.765 638.461 127.087C636.856 126.41 635.465 125.447 634.288 124.198C633.146 122.914 632.255 121.398 631.613 119.651C631.006 117.903 630.703 115.959 630.703 113.819C630.703 110.93 631.238 108.416 632.308 106.276C633.414 104.1 634.965 102.406 636.963 101.193C638.996 99.9806 641.367 99.3743 644.078 99.3743C646.182 99.3743 648.073 99.7844 649.749 100.605C651.425 101.389 652.781 102.495 653.815 103.922C654.885 105.348 655.527 107.007 655.741 108.897H652.638C652.388 107.435 651.853 106.204 651.033 105.206C650.213 104.207 649.196 103.458 647.984 102.959C646.771 102.424 645.416 102.156 643.918 102.156C641.849 102.156 640.066 102.656 638.568 103.654C637.07 104.617 635.91 105.973 635.09 107.72C634.305 109.468 633.913 111.501 633.913 113.819C633.913 116.209 634.323 118.26 635.144 119.972C635.964 121.684 637.123 123.003 638.621 123.931C640.119 124.858 641.867 125.322 643.864 125.322C645.54 125.322 647.003 125.036 648.251 124.466C649.535 123.859 650.569 123.003 651.354 121.898C652.139 120.792 652.602 119.526 652.745 118.099H655.848C655.67 120.132 655.046 121.898 653.976 123.396C652.941 124.894 651.55 126.053 649.803 126.873C648.055 127.694 646.075 128.104 643.864 128.104ZM662.256 127.676V99.8023H665.413V127.676H662.256ZM662.256 94.8268V88.6743H665.413V94.8268H662.256ZM683.535 128.104C681.823 128.104 680.253 127.783 678.827 127.141C677.4 126.499 676.17 125.571 675.135 124.359C674.101 123.11 673.298 121.595 672.728 119.811C672.193 118.028 671.925 115.995 671.925 113.712C671.925 110.681 672.407 108.095 673.37 105.955C674.368 103.815 675.742 102.174 677.489 101.033C679.237 99.8914 681.252 99.3208 683.535 99.3208C685.211 99.3208 686.727 99.6061 688.082 100.177C689.473 100.712 690.65 101.479 691.613 102.477C692.576 103.44 693.272 104.582 693.7 105.901H693.914L694.074 99.8023H697.07V127.676H693.914V121.47H693.7C693.022 123.467 691.792 125.072 690.008 126.285C688.225 127.497 686.067 128.104 683.535 128.104ZM684.444 125.375C686.442 125.375 688.136 124.912 689.527 123.984C690.953 123.021 692.023 121.791 692.737 120.293C693.486 118.795 693.86 117.19 693.86 115.478V111.893C693.86 110.181 693.486 108.576 692.737 107.078C692.023 105.58 690.953 104.368 689.527 103.44C688.136 102.477 686.442 101.996 684.444 101.996C682.59 101.996 680.967 102.459 679.576 103.387C678.185 104.278 677.097 105.598 676.312 107.346C675.563 109.058 675.189 111.18 675.189 113.712C675.189 116.173 675.563 118.278 676.312 120.025C677.097 121.773 678.185 123.11 679.576 124.038C680.967 124.929 682.59 125.375 684.444 125.375ZM705.725 127.676V88.6743H708.882V127.676H705.725ZM730.929 127.676V88.6743H745.695C747.728 88.6743 749.565 88.9418 751.206 89.4768C752.846 90.0118 754.237 90.7964 755.379 91.8308C756.556 92.8294 757.447 94.0778 758.054 95.5758C758.66 97.0381 758.963 98.7323 758.963 100.658C758.963 103.084 758.41 105.206 757.305 107.025C756.235 108.808 754.701 110.199 752.704 111.198C750.742 112.161 748.388 112.642 745.642 112.642L733.711 112.589V109.753L745.321 109.807C747.461 109.807 749.297 109.45 750.831 108.737C752.365 108.023 753.542 106.989 754.362 105.634C755.182 104.243 755.593 102.602 755.593 100.712C755.593 98.7858 755.165 97.1451 754.309 95.7898C753.488 94.4344 752.311 93.4179 750.778 92.7403C749.28 92.0269 747.461 91.6703 745.321 91.6703H733.444L734.246 90.9213V127.676H730.929ZM773.868 128.104C772.156 128.104 770.587 127.783 769.16 127.141C767.734 126.499 766.503 125.571 765.469 124.359C764.434 123.11 763.632 121.595 763.061 119.811C762.526 118.028 762.259 115.995 762.259 113.712C762.259 110.681 762.74 108.095 763.703 105.955C764.702 103.815 766.075 102.174 767.823 101.033C769.57 99.8914 771.586 99.3208 773.868 99.3208C775.545 99.3208 777.06 99.6061 778.416 100.177C779.807 100.712 780.984 101.479 781.947 102.477C782.91 103.44 783.605 104.582 784.033 105.901H784.247L784.408 99.8023H787.404V127.676H784.247V121.47H784.033C783.356 123.467 782.125 125.072 780.342 126.285C778.558 127.497 776.401 128.104 773.868 128.104ZM774.778 125.375C776.775 125.375 778.469 124.912 779.86 123.984C781.287 123.021 782.357 121.791 783.07 120.293C783.819 118.795 784.194 117.19 784.194 115.478V111.893C784.194 110.181 783.819 108.576 783.07 107.078C782.357 105.58 781.287 104.368 779.86 103.44C778.469 102.477 776.775 101.996 774.778 101.996C772.923 101.996 771.3 102.459 769.909 103.387C768.518 104.278 767.43 105.598 766.646 107.346C765.897 109.058 765.522 111.18 765.522 113.712C765.522 116.173 765.897 118.278 766.646 120.025C767.43 121.773 768.518 123.11 769.909 124.038C771.3 124.929 772.923 125.375 774.778 125.375ZM796.059 127.676V99.8023H798.841L799.055 105.206H799.215C799.821 103.387 800.909 101.978 802.479 100.979C804.048 99.9449 805.813 99.4278 807.775 99.4278C808.096 99.4278 808.381 99.4456 808.631 99.4813C808.916 99.4813 809.184 99.4991 809.434 99.5348V102.531C809.22 102.495 808.952 102.477 808.631 102.477C808.346 102.477 808.06 102.477 807.775 102.477C806.206 102.477 804.797 102.78 803.549 103.387C802.3 103.993 801.284 104.885 800.499 106.062C799.75 107.239 799.304 108.648 799.162 110.288V127.676H796.059ZM822.809 127.676C821.632 127.676 820.686 127.515 819.973 127.194C819.26 126.838 818.743 126.303 818.422 125.589C818.136 124.876 817.994 123.984 817.994 122.914V102.424H812.376V99.8023H817.994V91.2423L821.097 90.7073V99.8023H827.838V102.424H821.097V122.326C821.097 123.396 821.275 124.109 821.632 124.466C821.988 124.787 822.684 124.947 823.718 124.947H827.838V127.676H822.809ZM833.937 127.676V99.8023H836.88L837.04 105.848H837.254C838.146 103.708 839.501 102.103 841.32 101.033C843.175 99.9271 845.19 99.3743 847.366 99.3743C848.828 99.3743 850.165 99.6061 851.378 100.07C852.626 100.498 853.696 101.193 854.588 102.156C855.48 103.084 856.175 104.314 856.675 105.848C857.174 107.346 857.424 109.183 857.424 111.358V127.676H854.267V111.947C854.267 109.7 853.982 107.845 853.411 106.383C852.876 104.92 852.038 103.85 850.897 103.173C849.755 102.459 848.293 102.103 846.51 102.103C844.619 102.103 842.961 102.566 841.534 103.494C840.107 104.421 839.002 105.687 838.217 107.292C837.432 108.862 837.04 110.681 837.04 112.749V127.676H833.937ZM876.721 128.104C874.082 128.104 871.781 127.515 869.82 126.338C867.894 125.161 866.396 123.503 865.326 121.363C864.256 119.187 863.721 116.673 863.721 113.819C863.721 110.895 864.238 108.362 865.272 106.222C866.306 104.047 867.787 102.37 869.713 101.193C871.639 99.9806 873.939 99.3743 876.614 99.3743C879.503 99.3743 881.893 100.016 883.783 101.3C885.709 102.584 887.082 104.35 887.903 106.597C888.759 108.844 889.062 111.376 888.812 114.194H866.877C866.913 116.583 867.341 118.616 868.161 120.293C868.981 121.969 870.123 123.253 871.585 124.145C873.083 125.036 874.795 125.482 876.721 125.482C879.111 125.482 881.072 124.929 882.606 123.824C884.175 122.682 885.174 121.184 885.602 119.33H888.705C888.42 121.113 887.724 122.665 886.619 123.984C885.513 125.268 884.104 126.285 882.392 127.034C880.716 127.747 878.825 128.104 876.721 128.104ZM866.931 112.161L866.556 111.84H886.084L885.763 112.321C885.798 110.003 885.424 108.095 884.639 106.597C883.89 105.063 882.82 103.922 881.429 103.173C880.038 102.388 878.415 101.996 876.561 101.996C874.67 101.996 873.012 102.406 871.585 103.226C870.194 104.047 869.088 105.224 868.268 106.757C867.483 108.255 867.038 110.056 866.931 112.161ZM895.483 127.676V99.8023H898.265L898.479 105.206H898.639C899.246 103.387 900.334 101.978 901.903 100.979C903.472 99.9449 905.238 99.4278 907.199 99.4278C907.52 99.4278 907.806 99.4456 908.055 99.4813C908.341 99.4813 908.608 99.4991 908.858 99.5348V102.531C908.644 102.495 908.376 102.477 908.055 102.477C907.77 102.477 907.485 102.477 907.199 102.477C905.63 102.477 904.221 102.78 902.973 103.387C901.725 103.993 900.708 104.885 899.923 106.062C899.174 107.239 898.729 108.648 898.586 110.288V127.676H895.483Z" fill="#1E2C31"/>
<path d="M204.785 59.6758V20.6743H209.118L233.033 55.5563H233.354L233.086 41.9138V20.6743H236.35V59.6758H232.123L208.209 24.9008H207.941L208.102 37.9013V59.6758H204.785ZM256.847 60.1038C254.208 60.1038 251.908 59.5153 249.946 58.3383C248.02 57.1613 246.522 55.5028 245.452 53.3628C244.382 51.1871 243.847 48.6726 243.847 45.8193C243.847 42.8946 244.364 40.3623 245.398 38.2223C246.433 36.0466 247.913 34.3703 249.839 33.1933C251.765 31.9806 254.065 31.3743 256.74 31.3743C259.629 31.3743 262.019 32.0163 263.909 33.3003C265.835 34.5843 267.209 36.3498 268.029 38.5968C268.885 40.8438 269.188 43.3761 268.938 46.1938H247.003C247.039 48.5834 247.467 50.6164 248.287 52.2928C249.108 53.9691 250.249 55.2531 251.711 56.1448C253.209 57.0364 254.921 57.4823 256.847 57.4823C259.237 57.4823 261.199 56.9294 262.732 55.8238C264.302 54.6824 265.3 53.1844 265.728 51.3298H268.831C268.546 53.1131 267.851 54.6646 266.745 55.9843C265.639 57.2683 264.23 58.2848 262.518 59.0338C260.842 59.7471 258.952 60.1038 256.847 60.1038ZM247.057 44.1608L246.682 43.8398H266.21L265.889 44.3213C265.925 42.0029 265.55 40.0948 264.765 38.5968C264.016 37.0631 262.946 35.9218 261.555 35.1728C260.164 34.3881 258.542 33.9958 256.687 33.9958C254.797 33.9958 253.138 34.4059 251.711 35.2263C250.32 36.0466 249.215 37.2236 248.394 38.7573C247.61 40.2553 247.164 42.0564 247.057 44.1608ZM278.778 59.6758L271.128 31.8023H274.338L281.025 56.5193H281.186L287.659 31.8023H291.297L298.092 56.5193H298.199L304.726 31.8023H307.829L300.232 59.6758H296.112L289.478 35.7613H289.318L282.951 59.6758H278.778ZM325.996 59.6758V20.6743H340.762C342.795 20.6743 344.632 20.9418 346.272 21.4768C347.913 22.0118 349.304 22.7964 350.445 23.8308C351.622 24.8294 352.514 26.0778 353.12 27.5758C353.727 29.0381 354.03 30.7323 354.03 32.6583C354.03 35.0836 353.477 37.2058 352.371 39.0248C351.301 40.8081 349.768 42.1991 347.77 43.1978C345.809 44.1608 343.455 44.6423 340.708 44.6423L328.778 44.5888V41.7533L340.387 41.8068C342.527 41.8068 344.364 41.4501 345.898 40.7368C347.431 40.0234 348.608 38.9891 349.429 37.6338C350.249 36.2428 350.659 34.6021 350.659 32.7118C350.659 30.7858 350.231 29.1451 349.375 27.7898C348.555 26.4344 347.378 25.4179 345.844 24.7403C344.346 24.0269 342.527 23.6703 340.387 23.6703H328.51L329.313 22.9213V59.6758H325.996ZM370.647 60.1038C368.65 60.1038 366.831 59.7649 365.19 59.0873C363.585 58.4096 362.194 57.4466 361.017 56.1983C359.84 54.9143 358.93 53.3984 358.288 51.6508C357.646 49.9031 357.325 47.9593 357.325 45.8193C357.325 42.9659 357.878 40.4514 358.984 38.2758C360.09 36.1001 361.641 34.4059 363.638 33.1933C365.636 31.9806 367.972 31.3743 370.647 31.3743C372.609 31.3743 374.392 31.7131 375.997 32.3908C377.638 33.0684 379.029 34.0493 380.17 35.3333C381.347 36.5816 382.256 38.0974 382.898 39.8808C383.54 41.6284 383.861 43.5901 383.861 45.7658C383.861 48.5834 383.309 51.0801 382.203 53.2558C381.133 55.3958 379.599 57.0721 377.602 58.2848C375.64 59.4974 373.322 60.1038 370.647 60.1038ZM370.593 57.3218C372.591 57.3218 374.338 56.8581 375.836 55.9308C377.37 55.0034 378.547 53.6838 379.367 51.9718C380.188 50.2241 380.598 48.1554 380.598 45.7658C380.598 43.9824 380.366 42.3953 379.902 41.0043C379.474 39.5776 378.815 38.3471 377.923 37.3128C377.067 36.2784 376.015 35.4938 374.766 34.9588C373.554 34.4238 372.181 34.1563 370.647 34.1563C368.65 34.1563 366.884 34.6199 365.35 35.5473C363.852 36.4746 362.675 37.8121 361.819 39.5598C360.963 41.2718 360.535 43.3583 360.535 45.8193C360.535 47.5669 360.767 49.1541 361.231 50.5808C361.695 51.9718 362.372 53.1666 363.264 54.1653C364.156 55.1639 365.208 55.9486 366.42 56.5193C367.669 57.0543 369.06 57.3218 370.593 57.3218ZM399.381 60.2108C397.027 60.2108 395.011 59.8363 393.335 59.0873C391.694 58.3026 390.428 57.2326 389.537 55.8773C388.681 54.4863 388.253 52.8634 388.253 51.0088H391.356C391.356 53.2914 392.105 54.9856 393.603 56.0913C395.101 57.1613 397.044 57.6963 399.434 57.6963C401.859 57.6963 403.714 57.2326 404.998 56.3053C406.282 55.3779 406.924 54.0761 406.924 52.3998C406.924 51.1871 406.657 50.2241 406.122 49.5108C405.587 48.7974 404.766 48.2446 403.661 47.8523C402.555 47.4599 401.093 47.1389 399.274 46.8893C397.027 46.5326 395.136 46.0868 393.603 45.5518C392.105 44.9811 390.963 44.1964 390.179 43.1978C389.394 42.1991 389.002 40.8616 389.002 39.1853C389.002 37.5803 389.43 36.2071 390.286 35.0658C391.177 33.8888 392.39 32.9614 393.924 32.2838C395.457 31.6061 397.241 31.2673 399.274 31.2673C401.449 31.2673 403.304 31.6239 404.838 32.3373C406.371 33.0506 407.548 34.0493 408.369 35.3333C409.189 36.6173 409.599 38.1509 409.599 39.9343H406.496C406.46 38.4719 406.139 37.2949 405.533 36.4033C404.927 35.5116 404.089 34.8518 403.019 34.4238C401.949 33.9958 400.7 33.7818 399.274 33.7818C397.027 33.7818 395.279 34.2454 394.031 35.1728C392.782 36.1001 392.158 37.3306 392.158 38.8643C392.158 39.9699 392.443 40.8794 393.014 41.5928C393.585 42.2704 394.459 42.8054 395.636 43.1978C396.848 43.5544 398.346 43.8754 400.13 44.1608C401.663 44.3748 403.036 44.6601 404.249 45.0168C405.462 45.3378 406.514 45.8014 407.406 46.4078C408.297 46.9784 408.975 47.7274 409.439 48.6548C409.902 49.5821 410.134 50.7413 410.134 52.1323C410.134 54.7359 409.135 56.7333 407.138 58.1243C405.176 59.5153 402.591 60.2108 399.381 60.2108ZM425.66 60.2108C423.306 60.2108 421.291 59.8363 419.615 59.0873C417.974 58.3026 416.708 57.2326 415.816 55.8773C414.96 54.4863 414.532 52.8634 414.532 51.0088H417.635C417.635 53.2914 418.384 54.9856 419.882 56.0913C421.38 57.1613 423.324 57.6963 425.714 57.6963C428.139 57.6963 429.994 57.2326 431.278 56.3053C432.562 55.3779 433.204 54.0761 433.204 52.3998C433.204 51.1871 432.936 50.2241 432.401 49.5108C431.866 48.7974 431.046 48.2446 429.94 47.8523C428.835 47.4599 427.372 47.1389 425.553 46.8893C423.306 46.5326 421.416 46.0868 419.882 45.5518C418.384 44.9811 417.243 44.1964 416.458 43.1978C415.674 42.1991 415.281 40.8616 415.281 39.1853C415.281 37.5803 415.709 36.2071 416.565 35.0658C417.457 33.8888 418.67 32.9614 420.203 32.2838C421.737 31.6061 423.52 31.2673 425.553 31.2673C427.729 31.2673 429.584 31.6239 431.117 32.3373C432.651 33.0506 433.828 34.0493 434.648 35.3333C435.469 36.6173 435.879 38.1509 435.879 39.9343H432.776C432.74 38.4719 432.419 37.2949 431.813 36.4033C431.207 35.5116 430.368 34.8518 429.298 34.4238C428.228 33.9958 426.98 33.7818 425.553 33.7818C423.306 33.7818 421.559 34.2454 420.31 35.1728C419.062 36.1001 418.438 37.3306 418.438 38.8643C418.438 39.9699 418.723 40.8794 419.294 41.5928C419.865 42.2704 420.738 42.8054 421.915 43.1978C423.128 43.5544 424.626 43.8754 426.409 44.1608C427.943 44.3748 429.316 44.6601 430.529 45.0168C431.742 45.3378 432.794 45.8014 433.685 46.4078C434.577 46.9784 435.255 47.7274 435.718 48.6548C436.182 49.5821 436.414 50.7413 436.414 52.1323C436.414 54.7359 435.415 56.7333 433.418 58.1243C431.456 59.5153 428.87 60.2108 425.66 60.2108ZM443.006 59.6758V31.8023H446.162V59.6758H443.006ZM443.006 26.8268V20.6743H446.162V26.8268H443.006ZM468.296 60.1573C466.62 60.1573 465.086 59.8898 463.695 59.3548C462.34 58.7841 461.181 58.0173 460.218 57.0543C459.291 56.0556 458.595 54.8964 458.131 53.5768H457.917L457.757 59.6758H454.761V20.6743H457.917V37.9013H458.131C458.809 35.9396 460.04 34.3524 461.823 33.1398C463.606 31.9271 465.764 31.3208 468.296 31.3208C470.008 31.3208 471.578 31.6596 473.004 32.3373C474.431 32.9793 475.662 33.9244 476.696 35.1728C477.73 36.4211 478.515 37.9369 479.05 39.7203C479.621 41.5036 479.906 43.5188 479.906 45.7658C479.906 48.7618 479.407 51.3476 478.408 53.5233C477.445 55.6633 476.09 57.3039 474.342 58.4453C472.594 59.5866 470.579 60.1573 468.296 60.1573ZM467.387 57.4288C469.242 57.4288 470.864 56.9829 472.255 56.0913C473.646 55.1639 474.716 53.8443 475.465 52.1323C476.25 50.3846 476.642 48.2624 476.642 45.7658C476.642 43.8754 476.411 42.1991 475.947 40.7368C475.519 39.2744 474.895 38.0618 474.074 37.0988C473.29 36.1001 472.327 35.3511 471.185 34.8518C470.044 34.3168 468.778 34.0493 467.387 34.0493C465.39 34.0493 463.678 34.5129 462.251 35.4403C460.824 36.3676 459.736 37.5981 458.987 39.1318C458.274 40.6298 457.917 42.2348 457.917 43.9468V47.5313C457.917 49.2433 458.274 50.8483 458.987 52.3463C459.736 53.8443 460.824 55.0748 462.251 56.0378C463.678 56.9651 465.39 57.4288 467.387 57.4288ZM486.474 59.6758V31.8023H489.631V59.6758H486.474ZM486.474 26.8268V20.6743H489.631V26.8268H486.474ZM498.23 59.6758V20.6743H501.386V59.6758H498.23ZM509.985 59.6758V31.8023H513.142V59.6758H509.985ZM509.985 26.8268V20.6743H513.142V26.8268H509.985ZM528.428 59.6758C527.251 59.6758 526.306 59.5153 525.592 59.1943C524.879 58.8376 524.362 58.3026 524.041 57.5893C523.756 56.8759 523.613 55.9843 523.613 54.9143V34.4238H517.995V31.8023H523.613V23.2423L526.716 22.7073V31.8023H533.457V34.4238H526.716V54.3258C526.716 55.3958 526.894 56.1091 527.251 56.4658C527.608 56.7868 528.303 56.9473 529.337 56.9473H533.457V59.6758H528.428ZM539.556 59.6758V31.8023H542.713V59.6758H539.556ZM539.556 26.8268V20.6743H542.713V26.8268H539.556ZM562.226 60.1038C559.586 60.1038 557.286 59.5153 555.324 58.3383C553.398 57.1613 551.9 55.5028 550.83 53.3628C549.76 51.1871 549.225 48.6726 549.225 45.8193C549.225 42.8946 549.742 40.3623 550.777 38.2223C551.811 36.0466 553.291 34.3703 555.217 33.1933C557.143 31.9806 559.444 31.3743 562.119 31.3743C565.008 31.3743 567.397 32.0163 569.288 33.3003C571.214 34.5843 572.587 36.3498 573.407 38.5968C574.263 40.8438 574.566 43.3761 574.317 46.1938H552.382C552.417 48.5834 552.845 50.6164 553.666 52.2928C554.486 53.9691 555.627 55.2531 557.09 56.1448C558.588 57.0364 560.3 57.4823 562.226 57.4823C564.615 57.4823 566.577 56.9294 568.111 55.8238C569.68 54.6824 570.679 53.1844 571.107 51.3298H574.21C573.924 53.1131 573.229 54.6646 572.123 55.9843C571.018 57.2683 569.609 58.2848 567.897 59.0338C566.22 59.7471 564.33 60.1038 562.226 60.1038ZM552.435 44.1608L552.061 43.8398H571.588L571.267 44.3213C571.303 42.0029 570.928 40.0948 570.144 38.5968C569.395 37.0631 568.325 35.9218 566.934 35.1728C565.543 34.3881 563.92 33.9958 562.065 33.9958C560.175 33.9958 558.516 34.4059 557.09 35.2263C555.699 36.0466 554.593 37.2236 553.773 38.7573C552.988 40.2553 552.542 42.0564 552.435 44.1608ZM589.922 60.2108C587.568 60.2108 585.553 59.8363 583.877 59.0873C582.236 58.3026 580.97 57.2326 580.078 55.8773C579.222 54.4863 578.794 52.8634 578.794 51.0088H581.897C581.897 53.2914 582.646 54.9856 584.144 56.0913C585.642 57.1613 587.586 57.6963 589.976 57.6963C592.401 57.6963 594.256 57.2326 595.54 56.3053C596.824 55.3779 597.466 54.0761 597.466 52.3998C597.466 51.1871 597.198 50.2241 596.663 49.5108C596.128 48.7974 595.308 48.2446 594.202 47.8523C593.096 47.4599 591.634 47.1389 589.815 46.8893C587.568 46.5326 585.678 46.0868 584.144 45.5518C582.646 44.9811 581.505 44.1964 580.72 43.1978C579.935 42.1991 579.543 40.8616 579.543 39.1853C579.543 37.5803 579.971 36.2071 580.827 35.0658C581.719 33.8888 582.931 32.9614 584.465 32.2838C585.999 31.6061 587.782 31.2673 589.815 31.2673C591.991 31.2673 593.845 31.6239 595.379 32.3373C596.913 33.0506 598.09 34.0493 598.91 35.3333C599.73 36.6173 600.141 38.1509 600.141 39.9343H597.038C597.002 38.4719 596.681 37.2949 596.075 36.4033C595.468 35.5116 594.63 34.8518 593.56 34.4238C592.49 33.9958 591.242 33.7818 589.815 33.7818C587.568 33.7818 585.82 34.2454 584.572 35.1728C583.324 36.1001 582.7 37.3306 582.7 38.8643C582.7 39.9699 582.985 40.8794 583.556 41.5928C584.126 42.2704 585 42.8054 586.177 43.1978C587.39 43.5544 588.888 43.8754 590.671 44.1608C592.205 44.3748 593.578 44.6601 594.791 45.0168C596.003 45.3378 597.055 45.8014 597.947 46.4078C598.839 46.9784 599.516 47.7274 599.98 48.6548C600.444 49.5821 600.676 50.7413 600.676 52.1323C600.676 54.7359 599.677 56.7333 597.68 58.1243C595.718 59.5153 593.132 60.2108 589.922 60.2108Z" fill="url(#paint0_linear_1579_30571)"/>
<rect x="179.028" y="1" width="443.464" height="78.838" rx="39.419" stroke="url(#paint1_linear_1579_30571)" stroke-width="1.23184"/>
<g filter="url(#filter0_d_1579_30571)">
<path d="M613.791 72.2783C613.597 69.2052 616.802 67.0747 619.561 68.4434L634.538 75.8754C637.943 77.5649 637.293 82.6046 633.571 83.3754L628.769 84.3699C627.804 84.5697 626.947 85.1185 626.362 85.9113L622.091 91.6962C619.875 94.6997 615.116 93.2981 614.881 89.5725L613.791 72.2783Z" fill="url(#paint2_linear_1579_30571)" shape-rendering="crispEdges"/>
</g>
<defs>
<filter id="filter0_d_1579_30571" x="609.782" y="68.0195" width="30.979" height="33.3066" filterUnits="userSpaceOnUse" color-interpolation-filters="sRGB">
<feFlood flood-opacity="0" result="BackgroundImageFix"/>
<feColorMatrix in="SourceAlpha" type="matrix" values="0 0 0 0 0 0 0 0 0 0 0 0 0 0 0 0 0 0 127 0" result="hardAlpha"/>
<feOffset dy="4"/>
<feGaussianBlur stdDeviation="2"/>
<feComposite in2="hardAlpha" operator="out"/>
<feColorMatrix type="matrix" values="0 0 0 0 0 0 0 0 0 0 0 0 0 0 0 0 0 0 0.25 0"/>
<feBlend mode="normal" in2="BackgroundImageFix" result="effect1_dropShadow_1579_30571"/>
<feBlend mode="normal" in="SourceGraphic" in2="effect1_dropShadow_1579_30571" result="shape"/>
</filter>
<linearGradient id="paint0_linear_1579_30571" x1="195" y1="19.5001" x2="583.293" y2="98.081" gradientUnits="userSpaceOnUse">
<stop stop-color="#0C6B8A"/>
<stop offset="1" stop-color="#FFCC00"/>
</linearGradient>
<linearGradient id="paint1_linear_1579_30571" x1="201.66" y1="-3.20666" x2="479.532" y2="78.1824" gradientUnits="userSpaceOnUse">
<stop stop-color="#0C6B8A"/>
<stop offset="1" stop-color="#FFCC00"/>
</linearGradient>
<linearGradient id="paint2_linear_1579_30571" x1="604.202" y1="73.4733" x2="629.778" y2="57.7883" gradientUnits="userSpaceOnUse">
<stop stop-color="#0C6B8A" stop-opacity="0.9"/>
<stop offset="1" stop-color="#FFCC00" stop-opacity="0.58"/>
</linearGradient>
</defs>
</svg>
