<svg width="137" height="36" viewBox="0 0 137 36" fill="none" xmlns="http://www.w3.org/2000/svg">
<circle cx="18" cy="18" r="18" fill="#F5F5F5"/>
<g clip-path="url(#clip0_1945_27111)">
<path d="M23 10.0625C21.5313 9.15625 19.8438 8.625 18 8.625V10.0625H23Z" fill="#ED4C5C"/>
<path d="M18 11.5H24.75C24.2187 10.9687 23.625 10.4687 23 10.0625H18V11.5Z" fill="white"/>
<path d="M18 12.9375H25.9062C25.5625 12.4063 25.1875 11.9375 24.7813 11.5H18V12.9375Z" fill="#ED4C5C"/>
<path d="M18 14.375H26.6563C26.4375 13.875 26.1875 13.375 25.9062 12.9375H18V14.375Z" fill="white"/>
<path d="M18 15.8125H27.125C27 15.3125 26.8438 14.8438 26.6563 14.375H18V15.8125Z" fill="#ED4C5C"/>
<path d="M18 17.2813H27.3437C27.3125 16.7813 27.2187 16.3125 27.125 15.8438H18V17.2813" fill="white"/>
<path d="M27.3438 17.2812H18V18H8.625C8.625 18.25 8.625 18.4687 8.65625 18.7187H27.3438C27.375 18.4687 27.375 18.25 27.375 18C27.375 17.75 27.375 17.5 27.3438 17.2812" fill="#ED4C5C"/>
<path d="M8.875 20.1563H27.125C27.25 19.6875 27.3125 19.2188 27.3437 18.7188H8.65625C8.6875 19.1875 8.75 19.6875 8.875 20.1563Z" fill="white"/>
<path d="M9.34375 21.5937H26.6563C26.8438 21.125 27 20.6563 27.125 20.1562H8.875C9 20.6563 9.15625 21.125 9.34375 21.5937Z" fill="#ED4C5C"/>
<path d="M10.0937 23.0312H25.9062C26.1875 22.5625 26.4375 22.0938 26.6563 21.5938H9.34375C9.5625 22.0938 9.8125 22.5625 10.0937 23.0312" fill="white"/>
<path d="M11.2188 24.4688H24.7812C25.1875 24.0313 25.5937 23.5313 25.9062 23.0312H10.0938C10.4062 23.5625 10.8125 24.0313 11.2188 24.4688Z" fill="#ED4C5C"/>
<path d="M12.9687 25.9062H23.0312C23.6875 25.5 24.25 25 24.7813 24.4688H11.2188C11.75 25.0312 12.3437 25.5 12.9687 25.9062Z" fill="white"/>
<path d="M18 27.375C19.8438 27.375 21.5625 26.8438 23.0312 25.9062H12.9688C14.4375 26.8438 16.1563 27.375 18 27.375Z" fill="#ED4C5C"/>
<path d="M13 10.0625C12.3438 10.4687 11.75 10.9687 11.2188 11.5C10.7813 11.9375 10.4062 12.4375 10.0937 12.9375C9.8125 13.4063 9.53125 13.875 9.34375 14.375C9.15625 14.8437 9 15.3125 8.875 15.8125C8.75 16.2812 8.6875 16.75 8.65625 17.25C8.625 17.5 8.625 17.75 8.625 18H18V8.625C16.1562 8.625 14.4687 9.15625 13 10.0625Z" fill="#428BC1"/>
<path d="M15.8125 8.9375L15.9688 9.40625H16.4375L16.0625 9.71875L16.1875 10.1875L15.8125 9.90625L15.4375 10.1875L15.5625 9.71875L15.1875 9.40625H15.6563L15.8125 8.9375ZM17.0625 10.8125L17.2188 11.2812H17.6875L17.3125 11.5938L17.4375 12.0625L17.0625 11.7813L16.6875 12.0625L16.8125 11.5938L16.4375 11.2812H16.9063L17.0625 10.8125ZM14.5625 10.8125L14.7188 11.2812H15.1875L14.8125 11.5938L14.9375 12.0625L14.5625 11.7813L14.1875 12.0625L14.3125 11.5938L13.9375 11.2812H14.4063L14.5625 10.8125ZM15.8125 12.6875L15.9688 13.1562H16.4375L16.0625 13.4688L16.1875 13.9375L15.8125 13.6563L15.4375 13.9375L15.5625 13.4688L15.1875 13.1562H15.6563L15.8125 12.6875ZM13.3125 12.6875L13.4688 13.1562H13.9375L13.5625 13.4688L13.6875 13.9375L13.3125 13.6563L12.9375 13.9375L13.0625 13.4688L12.6875 13.1562H13.1563L13.3125 12.6875ZM10.8125 12.6875L10.9687 13.1562H11.4375L11.0625 13.4688L11.1875 13.9375L10.8125 13.6563L10.4375 13.9375L10.5625 13.4688L10.1875 13.1562H10.6562L10.8125 12.6875ZM17.0625 14.5625L17.2188 15.0312H17.6875L17.3125 15.3438L17.4375 15.8125L17.0625 15.5313L16.6875 15.8125L16.8125 15.3438L16.4375 15.0312H16.9063L17.0625 14.5625ZM14.5625 14.5625L14.7188 15.0312H15.1875L14.8125 15.3438L14.9375 15.8125L14.5625 15.5313L14.1875 15.8125L14.3125 15.3438L13.9375 15.0312H14.4063L14.5625 14.5625ZM12.0625 14.5625L12.2188 15.0312H12.6875L12.3125 15.3438L12.4375 15.8125L12.0625 15.5313L11.6875 15.8125L11.8125 15.3438L11.4375 15.0312H11.9063L12.0625 14.5625ZM15.8125 16.4375L15.9688 16.9062H16.4375L16.0625 17.2188L16.1875 17.6875L15.8125 17.4063L15.4375 17.6875L15.5625 17.2188L15.1875 16.9062H15.6563L15.8125 16.4375ZM13.3125 16.4375L13.4688 16.9062H13.9375L13.5625 17.2188L13.6875 17.6875L13.3125 17.4063L12.9375 17.6875L13.0625 17.2188L12.6875 16.9062H13.1563L13.3125 16.4375ZM10.8125 16.4375L10.9687 16.9062H11.4375L11.0625 17.2188L11.1875 17.6875L10.8125 17.4063L10.4375 17.6875L10.5625 17.2188L10.1875 16.9062H10.6562L10.8125 16.4375ZM11.6875 12.0625L12.0625 11.7813L12.4375 12.0625L12.2812 11.5938L12.6562 11.2812H12.1875L12.0625 10.8125L11.9063 11.2812H11.4688L11.8437 11.5625L11.6875 12.0625M9.1875 15.8125L9.5625 15.5313L9.9375 15.8125L9.78125 15.3438L10.1562 15.0312H9.71875L9.5625 14.5625L9.40625 15.0312H9.09375C9.09375 15.0625 9.0625 15.0937 9.0625 15.125L9.3125 15.3125L9.1875 15.8125" fill="white"/>
</g>
<path d="M53.6716 22.126C56.2896 22.126 57.8576 20.628 57.8576 18.22V11.794H56.3456V18.192C56.3456 19.774 55.4776 20.754 53.6856 20.754C52.0336 20.754 51.0256 19.9 51.0256 18.192V11.794H49.4996V18.22C49.4996 20.628 51.0536 22.126 53.6716 22.126ZM60.0236 22H61.4516V17.954C61.4516 16.68 62.2496 15.672 63.5236 15.672C64.6996 15.672 65.2456 16.386 65.2456 17.898V22H66.6876V17.604C66.6876 15.336 65.5536 14.482 64.0416 14.482C62.9496 14.482 61.9696 15.014 61.5356 16.064H61.4516L61.3956 14.594H60.0236V22ZM68.6369 13.46H70.0789V11.794H68.6369V13.46ZM68.6369 22H70.0789V14.594H68.6369V22ZM74.1962 22H75.6802V20.81H74.6722C74.2102 20.81 74.0422 20.684 74.0422 20.194V15.77H75.6802V14.594H74.0422V12.284L72.6002 12.452V14.594H71.2002V15.77H72.6002V20.46C72.6002 21.454 72.9782 22 74.1962 22ZM79.9884 22.126C81.7384 22.126 83.0824 21.174 83.2784 19.718H81.9064C81.7244 20.488 80.9824 20.978 79.9884 20.978C78.7004 20.978 77.8604 20.11 77.8324 18.584H83.3204C83.5444 16.26 82.3684 14.482 79.9324 14.482C77.7624 14.482 76.4044 15.994 76.4044 18.332C76.4044 20.614 77.7624 22.126 79.9884 22.126ZM79.9184 15.616C81.0104 15.616 81.8644 16.19 81.9064 17.562H77.8604C77.9724 16.358 78.7564 15.616 79.9184 15.616ZM87.5358 22.126C88.7818 22.126 89.7058 21.482 90.0558 20.53H90.1398L90.1958 22H91.5818V11.794H90.1398V16.05H90.0558C89.7058 15.098 88.7818 14.468 87.5358 14.468C85.7298 14.468 84.5118 15.812 84.5118 18.29C84.5118 20.768 85.7298 22.126 87.5358 22.126ZM88.0398 20.936C86.8078 20.936 85.9958 20.026 85.9958 18.29C85.9958 16.54 86.8078 15.644 88.0398 15.644C89.4118 15.644 90.1258 16.736 90.1258 17.87V18.71C90.1258 19.858 89.4118 20.936 88.0398 20.936ZM99.4906 22.14C101.423 22.14 102.627 21.412 102.627 19.9C102.627 18.206 101.339 17.87 99.7986 17.66C98.5386 17.492 97.9786 17.268 97.9786 16.54C97.9786 15.91 98.5106 15.476 99.4906 15.476C100.443 15.476 101.045 15.882 101.059 16.778H102.473C102.445 15.336 101.339 14.454 99.5186 14.454C97.7266 14.454 96.5366 15.266 96.5366 16.68C96.5366 18.192 97.6986 18.584 99.3786 18.822C100.625 19.004 101.157 19.2 101.157 20.026C101.157 20.712 100.597 21.118 99.5326 21.118C98.4966 21.118 97.7546 20.684 97.7546 19.676H96.3266C96.3266 21.146 97.4606 22.14 99.4906 22.14ZM106.38 22H107.864V20.81H106.856C106.394 20.81 106.226 20.684 106.226 20.194V15.77H107.864V14.594H106.226V12.284L104.784 12.452V14.594H103.384V15.77H104.784V20.46C104.784 21.454 105.162 22 106.38 22ZM111.612 22.126C112.858 22.126 113.782 21.482 114.132 20.53H114.216V22H115.658V14.594H114.272L114.216 16.05H114.132C113.782 15.098 112.858 14.468 111.612 14.468C109.806 14.468 108.588 15.812 108.588 18.29C108.588 20.768 109.806 22.126 111.612 22.126ZM112.116 20.936C110.884 20.936 110.072 20.026 110.072 18.29C110.072 16.54 110.884 15.644 112.116 15.644C113.488 15.644 114.202 16.736 114.202 17.87V18.71C114.202 19.858 113.488 20.936 112.116 20.936ZM119.792 22H121.276V20.81H120.268C119.806 20.81 119.638 20.684 119.638 20.194V15.77H121.276V14.594H119.638V12.284L118.196 12.452V14.594H116.796V15.77H118.196V20.46C118.196 21.454 118.574 22 119.792 22ZM125.584 22.126C127.334 22.126 128.678 21.174 128.874 19.718H127.502C127.32 20.488 126.578 20.978 125.584 20.978C124.296 20.978 123.456 20.11 123.428 18.584H128.916C129.14 16.26 127.964 14.482 125.528 14.482C123.358 14.482 122 15.994 122 18.332C122 20.614 123.358 22.126 125.584 22.126ZM125.514 15.616C126.606 15.616 127.46 16.19 127.502 17.562H123.456C123.568 16.358 124.352 15.616 125.514 15.616ZM133.233 22.14C135.165 22.14 136.369 21.412 136.369 19.9C136.369 18.206 135.081 17.87 133.541 17.66C132.281 17.492 131.721 17.268 131.721 16.54C131.721 15.91 132.253 15.476 133.233 15.476C134.185 15.476 134.787 15.882 134.801 16.778H136.215C136.187 15.336 135.081 14.454 133.261 14.454C131.469 14.454 130.279 15.266 130.279 16.68C130.279 18.192 131.441 18.584 133.121 18.822C134.367 19.004 134.899 19.2 134.899 20.026C134.899 20.712 134.339 21.118 133.275 21.118C132.239 21.118 131.497 20.684 131.497 19.676H130.069C130.069 21.146 131.203 22.14 133.233 22.14Z" fill="#1E2C31"/>
<defs>
<clipPath id="clip0_1945_27111">
<rect width="20" height="20" fill="white" transform="translate(8 8)"/>
</clipPath>
</defs>
</svg>
