<svg width="38" height="33" viewBox="0 0 38 33" fill="none" xmlns="http://www.w3.org/2000/svg">
<path d="M7.66942 2.909L0.972344 10.6216C0.415096 11.2634 0.416877 12.2179 0.976518 12.8575L16.9869 31.1572C17.668 31.9357 18.8804 31.9314 19.5559 31.1481L26.2569 23.3781C26.8113 22.7353 26.8071 21.7823 26.2471 21.1444L10.2328 2.90206C9.55271 2.12731 8.34534 2.13058 7.66942 2.909Z" fill="url(#paint0_linear_4089_31951)"/>
<path d="M27.5854 1.71318L22.1916 8.67597C21.3255 9.79409 22.1224 11.4194 23.5367 11.4194H34.4713C35.8959 11.4194 36.6898 9.77325 35.8027 8.65848L30.2618 1.69569C29.5749 0.832511 28.2609 0.841098 27.5854 1.71318Z" fill="url(#paint1_linear_4089_31951)"/>
<path d="M22.0924 28.1761L4.41797 6.69257L7.56194 2.80056C8.22741 1.97675 9.47492 1.9522 10.1723 2.74919L26.3853 21.2783C26.9593 21.9344 26.9462 22.9177 26.3549 23.5583L22.0924 28.1761Z" fill="#F85D40"/>
<defs>
<linearGradient id="paint0_linear_4089_31951" x1="-7.69619" y1="17.0344" x2="29.8745" y2="17.081" gradientUnits="userSpaceOnUse">
<stop stop-color="#FC5130"/>
<stop offset="1" stop-color="#ED401F"/>
</linearGradient>
<linearGradient id="paint1_linear_4089_31951" x1="28.2788" y1="12.2685" x2="29.9702" y2="-9.99807" gradientUnits="userSpaceOnUse">
<stop stop-color="#FC5130"/>
<stop offset="1" stop-color="white"/>
</linearGradient>
</defs>
</svg>
