<svg width="187" height="38" viewBox="0 0 187 38" fill="none" xmlns="http://www.w3.org/2000/svg">
<path d="M60.97 33.2072C62.77 33.2072 64.09 32.1972 64.28 30.6572L63.18 30.6472C63 31.6272 62.15 32.2672 60.97 32.2672C59.46 32.2672 58.52 31.2472 58.52 29.4772C58.52 27.6972 59.46 26.6872 60.97 26.6872C62.16 26.6872 62.98 27.3372 63.18 28.2672H64.28C64.06 26.7372 62.77 25.7472 60.97 25.7472C58.83 25.7472 57.4 27.1672 57.4 29.4772C57.4 31.7772 58.82 33.2072 60.97 33.2072ZM65.3958 33.1172H66.4158V30.0972C66.4658 29.2272 66.9958 28.7372 67.9358 28.7372C68.0558 28.7372 68.1758 28.7372 68.2558 28.7472V27.7772C68.1658 27.7672 68.0658 27.7572 67.9458 27.7572C67.2458 27.7572 66.6458 28.0872 66.4158 28.7672H66.3658L66.3158 27.8272H65.3958V33.1172ZM71.2293 33.2072C72.8193 33.2072 73.8093 32.0972 73.8093 30.4772C73.8093 28.7972 72.7693 27.7472 71.2293 27.7472C69.6293 27.7472 68.6393 28.8572 68.6393 30.4872C68.6393 32.1472 69.6793 33.2072 71.2293 33.2072ZM71.2293 32.3472C70.2893 32.3472 69.6893 31.6672 69.6893 30.4872C69.6893 29.2672 70.3093 28.5972 71.2293 28.5972C72.1793 28.5972 72.7593 29.2872 72.7593 30.4772C72.7593 31.6772 72.1493 32.3472 71.2293 32.3472ZM76.858 33.2172C78.238 33.2172 79.098 32.6972 79.098 31.6172C79.098 30.4072 78.178 30.1672 77.078 30.0172C76.178 29.8972 75.778 29.7372 75.778 29.2172C75.778 28.7672 76.158 28.4572 76.858 28.4572C77.538 28.4572 77.968 28.7472 77.978 29.3872H78.988C78.968 28.3572 78.178 27.7272 76.878 27.7272C75.598 27.7272 74.748 28.3072 74.748 29.3172C74.748 30.3972 75.578 30.6772 76.778 30.8472C77.668 30.9772 78.048 31.1172 78.048 31.7072C78.048 32.1972 77.648 32.4872 76.888 32.4872C76.148 32.4872 75.618 32.1772 75.618 31.4572H74.598C74.598 32.5072 75.408 33.2172 76.858 33.2172ZM82.2388 33.2172C83.6188 33.2172 84.4788 32.6972 84.4788 31.6172C84.4788 30.4072 83.5588 30.1672 82.4588 30.0172C81.5588 29.8972 81.1588 29.7372 81.1588 29.2172C81.1588 28.7672 81.5388 28.4572 82.2388 28.4572C82.9188 28.4572 83.3488 28.7472 83.3588 29.3872H84.3688C84.3488 28.3572 83.5588 27.7272 82.2588 27.7272C80.9788 27.7272 80.1288 28.3072 80.1288 29.3172C80.1288 30.3972 80.9588 30.6772 82.1588 30.8472C83.0488 30.9772 83.4288 31.1172 83.4288 31.7072C83.4288 32.1972 83.0288 32.4872 82.2688 32.4872C81.5288 32.4872 80.9988 32.1772 80.9988 31.4572H79.9788C79.9788 32.5072 80.7888 33.2172 82.2388 33.2172ZM85.2297 30.9072H88.2297V30.0372H85.2297V30.9072ZM91.6495 33.1172H94.8995C96.4695 33.1172 97.4095 32.3772 97.4095 31.0672C97.4095 30.2372 96.9395 29.5472 96.0495 29.3672V29.3172C96.8295 29.1172 97.2195 28.4572 97.2195 27.6972C97.2195 26.5772 96.4495 25.8272 95.0295 25.8272H91.6495V33.1172ZM92.7195 28.9672V26.6872H94.7695C95.5895 26.6872 96.1295 27.0972 96.1295 27.8472C96.1295 28.5172 95.7095 28.9672 94.8595 28.9672H92.7195ZM92.7195 32.2572V29.7972H94.9095C95.7795 29.7972 96.2995 30.2272 96.2995 31.0072C96.2995 31.7472 95.8195 32.2572 94.7995 32.2572H92.7195ZM100.77 33.2072C102.36 33.2072 103.35 32.0972 103.35 30.4772C103.35 28.7972 102.31 27.7472 100.77 27.7472C99.1703 27.7472 98.1803 28.8572 98.1803 30.4872C98.1803 32.1472 99.2203 33.2072 100.77 33.2072ZM100.77 32.3472C99.8303 32.3472 99.2303 31.6672 99.2303 30.4872C99.2303 29.2672 99.8503 28.5972 100.77 28.5972C101.72 28.5972 102.3 29.2872 102.3 30.4772C102.3 31.6772 101.69 32.3472 100.77 32.3472ZM104.429 33.1172H105.449V30.0972C105.499 29.2272 106.029 28.7372 106.969 28.7372C107.089 28.7372 107.209 28.7372 107.289 28.7472V27.7772C107.199 27.7672 107.099 27.7572 106.979 27.7572C106.279 27.7572 105.679 28.0872 105.449 28.7672H105.399L105.349 27.8272H104.429V33.1172ZM109.833 33.2072C110.723 33.2072 111.383 32.7472 111.633 32.0672H111.693L111.733 33.1172H112.723V25.8272H111.693V28.8672H111.633C111.383 28.1872 110.723 27.7372 109.833 27.7372C108.543 27.7372 107.673 28.6972 107.673 30.4672C107.673 32.2372 108.543 33.2072 109.833 33.2072ZM110.193 32.3572C109.313 32.3572 108.733 31.7072 108.733 30.4672C108.733 29.2172 109.313 28.5772 110.193 28.5772C111.173 28.5772 111.683 29.3572 111.683 30.1672V30.7672C111.683 31.5872 111.173 32.3572 110.193 32.3572ZM116.365 33.2072C117.615 33.2072 118.575 32.5272 118.715 31.4872H117.735C117.605 32.0372 117.075 32.3872 116.365 32.3872C115.445 32.3872 114.845 31.7672 114.825 30.6772H118.745C118.905 29.0172 118.065 27.7472 116.325 27.7472C114.775 27.7472 113.805 28.8272 113.805 30.4972C113.805 32.1272 114.775 33.2072 116.365 33.2072ZM116.315 28.5572C117.095 28.5572 117.705 28.9672 117.735 29.9472H114.845C114.925 29.0872 115.485 28.5572 116.315 28.5572ZM119.859 33.1172H120.879V30.0972C120.929 29.2272 121.459 28.7372 122.399 28.7372C122.519 28.7372 122.639 28.7372 122.719 28.7472V27.7772C122.629 27.7672 122.529 27.7572 122.409 27.7572C121.709 27.7572 121.109 28.0872 120.879 28.7672H120.829L120.779 27.8272H119.859V33.1172ZM123.618 33.1172H124.648V25.8272H123.618V33.1172ZM128.279 33.2072C129.529 33.2072 130.489 32.5272 130.629 31.4872H129.649C129.519 32.0372 128.989 32.3872 128.279 32.3872C127.359 32.3872 126.759 31.7672 126.739 30.6772H130.659C130.819 29.0172 129.979 27.7472 128.239 27.7472C126.689 27.7472 125.719 28.8272 125.719 30.4972C125.719 32.1272 126.689 33.2072 128.279 33.2072ZM128.229 28.5572C129.009 28.5572 129.619 28.9672 129.649 29.9472H126.759C126.839 29.0872 127.399 28.5572 128.229 28.5572ZM133.743 33.2172C135.123 33.2172 135.983 32.6972 135.983 31.6172C135.983 30.4072 135.063 30.1672 133.963 30.0172C133.063 29.8972 132.663 29.7372 132.663 29.2172C132.663 28.7672 133.043 28.4572 133.743 28.4572C134.423 28.4572 134.853 28.7472 134.863 29.3872H135.873C135.853 28.3572 135.063 27.7272 133.763 27.7272C132.483 27.7272 131.633 28.3072 131.633 29.3172C131.633 30.3972 132.463 30.6772 133.663 30.8472C134.553 30.9772 134.933 31.1172 134.933 31.7072C134.933 32.1972 134.533 32.4872 133.773 32.4872C133.033 32.4872 132.503 32.1772 132.503 31.4572H131.483C131.483 32.5072 132.293 33.2172 133.743 33.2172ZM139.124 33.2172C140.504 33.2172 141.364 32.6972 141.364 31.6172C141.364 30.4072 140.444 30.1672 139.344 30.0172C138.444 29.8972 138.044 29.7372 138.044 29.2172C138.044 28.7672 138.424 28.4572 139.124 28.4572C139.804 28.4572 140.234 28.7472 140.244 29.3872H141.254C141.234 28.3572 140.444 27.7272 139.144 27.7272C137.864 27.7272 137.014 28.3072 137.014 29.3172C137.014 30.3972 137.844 30.6772 139.044 30.8472C139.934 30.9772 140.314 31.1172 140.314 31.7072C140.314 32.1972 139.914 32.4872 139.154 32.4872C138.414 32.4872 137.884 32.1772 137.884 31.4572H136.864C136.864 32.5072 137.674 33.2172 139.124 33.2172ZM144.771 34.7872H145.801V32.0772H145.861C146.121 32.7572 146.781 33.2072 147.661 33.2072C148.951 33.2072 149.821 32.2472 149.821 30.4772C149.821 28.7072 148.951 27.7372 147.661 27.7372C146.781 27.7372 146.121 28.1972 145.861 28.8672H145.801L145.761 27.8272H144.771V34.7872ZM147.301 32.3572C146.321 32.3572 145.811 31.5872 145.811 30.7672V30.1772C145.811 29.3572 146.321 28.5872 147.301 28.5872C148.181 28.5872 148.771 29.2272 148.771 30.4772C148.771 31.7172 148.181 32.3572 147.301 32.3572ZM152.811 33.2072C153.701 33.2072 154.361 32.7472 154.611 32.0672H154.671V33.1172H155.701V27.8272H154.711L154.671 28.8672H154.611C154.361 28.1872 153.701 27.7372 152.811 27.7372C151.521 27.7372 150.651 28.6972 150.651 30.4672C150.651 32.2372 151.521 33.2072 152.811 33.2072ZM153.171 32.3572C152.291 32.3572 151.711 31.7072 151.711 30.4672C151.711 29.2172 152.291 28.5772 153.171 28.5772C154.151 28.5772 154.661 29.3572 154.661 30.1672V30.7672C154.661 31.5872 154.151 32.3572 153.171 32.3572ZM156.794 34.7872H157.534C158.364 34.7872 158.894 34.4972 159.234 33.5772L161.434 27.8272H160.344L159.204 31.0472L158.994 31.6772H158.954L158.734 31.0472L157.524 27.8272H156.394L158.474 32.7372L158.244 33.3272C158.074 33.7472 157.834 33.9372 157.364 33.9372H156.794V34.7872ZM162.124 33.1172H163.144V30.2272C163.144 29.3172 163.694 28.5972 164.574 28.5972C165.394 28.5972 165.764 29.1072 165.764 30.1872V33.1172H166.794V30.2272C166.794 29.3172 167.344 28.5972 168.214 28.5972C169.044 28.5972 169.414 29.1072 169.414 30.1872V33.1172H170.434V29.9772C170.434 28.3572 169.654 27.7472 168.604 27.7472C167.754 27.7472 167.034 28.1672 166.744 28.9872H166.664C166.394 28.0872 165.734 27.7472 164.954 27.7472C164.184 27.7472 163.504 28.1272 163.204 28.8772H163.144L163.104 27.8272H162.124V33.1172ZM174.022 33.2072C175.272 33.2072 176.232 32.5272 176.372 31.4872H175.392C175.262 32.0372 174.732 32.3872 174.022 32.3872C173.102 32.3872 172.502 31.7672 172.482 30.6772H176.402C176.562 29.0172 175.722 27.7472 173.982 27.7472C172.432 27.7472 171.462 28.8272 171.462 30.4972C171.462 32.1272 172.432 33.2072 174.022 33.2072ZM173.972 28.5572C174.752 28.5572 175.362 28.9672 175.392 29.9472H172.502C172.582 29.0872 173.142 28.5572 173.972 28.5572ZM177.515 33.1172H178.535V30.2272C178.535 29.3172 179.105 28.5972 180.015 28.5972C180.855 28.5972 181.245 29.1072 181.245 30.1872V33.1172H182.275V29.9772C182.275 28.3572 181.465 27.7472 180.385 27.7472C179.605 27.7472 178.905 28.1272 178.595 28.8772H178.535L178.495 27.8272H177.515V33.1172ZM185.05 33.1172H186.11V32.2672H185.39C185.06 32.2672 184.94 32.1772 184.94 31.8272V28.6672H186.11V27.8272H184.94V26.1772L183.91 26.2972V27.8272H182.91V28.6672H183.91V32.0172C183.91 32.7272 184.18 33.1172 185.05 33.1172Z" fill="#9CA3AF"/>
<path d="M8.67857 3.40535L1.10029 12.1328C0.469714 12.859 0.471729 13.9391 1.10501 14.6629L19.222 35.3705C19.9928 36.2515 21.3647 36.2466 22.1291 35.3602L29.7119 26.5679C30.3392 25.8405 30.3344 24.762 29.7007 24.0402L11.5793 3.3975C10.8097 2.52081 9.44343 2.52451 8.67857 3.40535Z" fill="url(#paint0_linear_2451_28907)"/>
<path d="M31.2153 2.05578L25.1119 9.93475C24.1318 11.2 25.0336 13.0392 26.634 13.0392H39.0073C40.6194 13.0392 41.5177 11.1764 40.5139 9.91496L34.244 2.03599C33.4667 1.05924 31.9798 1.06896 31.2153 2.05578Z" fill="url(#paint1_linear_2451_28907)"/>
<path d="M25 32L5 7.68966L8.55765 3.28553C9.31069 2.35332 10.7223 2.32554 11.5115 3.2274L29.8578 24.1946C30.5074 24.937 30.4926 26.0497 29.8235 26.7746L25 32Z" fill="#F85D40"/>
<path d="M60.794 12.1172H62.866L66.576 1.91119H64.896L62.418 9.02319L61.872 10.6752H61.774L61.242 9.00919L58.778 1.91119H57.07L60.794 12.1172ZM69.92 12.2432C71.67 12.2432 73.014 11.2912 73.21 9.83519H71.838C71.656 10.6052 70.914 11.0952 69.92 11.0952C68.632 11.0952 67.792 10.2272 67.764 8.70119H73.252C73.476 6.37719 72.3 4.59919 69.864 4.59919C67.694 4.59919 66.336 6.11119 66.336 8.44919C66.336 10.7312 67.694 12.2432 69.92 12.2432ZM69.85 5.73319C70.942 5.73319 71.796 6.30719 71.838 7.67919H67.792C67.904 6.47519 68.688 5.73319 69.85 5.73319ZM74.8107 12.1172H76.2387V7.88919C76.3087 6.67119 77.0507 5.98519 78.3667 5.98519C78.5347 5.98519 78.7027 5.98519 78.8147 5.99919V4.64119C78.6887 4.62719 78.5487 4.61319 78.3807 4.61319C77.4007 4.61319 76.5607 5.07519 76.2387 6.02719H76.1687L76.0987 4.71119H74.8107V12.1172ZM80.0744 12.1172H81.5024V8.07119C81.5024 6.79719 82.3004 5.78919 83.5744 5.78919C84.7504 5.78919 85.2964 6.50319 85.2964 8.01519V12.1172H86.7384V7.72119C86.7384 5.45319 85.6044 4.59919 84.0924 4.59919C83.0004 4.59919 82.0204 5.13119 81.5864 6.18119H81.5024L81.4464 4.71119H80.0744V12.1172ZM91.2077 12.2432C92.4537 12.2432 93.3777 11.5992 93.7277 10.6472H93.8117L93.8677 12.1172H95.2537V1.91119H93.8117V6.16719H93.7277C93.3777 5.21519 92.4537 4.58519 91.2077 4.58519C89.4017 4.58519 88.1837 5.92919 88.1837 8.40719C88.1837 10.8852 89.4017 12.2432 91.2077 12.2432ZM91.7117 11.0532C90.4797 11.0532 89.6677 10.1432 89.6677 8.40719C89.6677 6.65719 90.4797 5.76119 91.7117 5.76119C93.0837 5.76119 93.7977 6.85319 93.7977 7.98719V8.82719C93.7977 9.97519 93.0837 11.0532 91.7117 11.0532ZM100.354 12.2432C102.104 12.2432 103.448 11.2912 103.644 9.83519H102.272C102.09 10.6052 101.348 11.0952 100.354 11.0952C99.0656 11.0952 98.2256 10.2272 98.1976 8.70119H103.686C103.91 6.37719 102.734 4.59919 100.298 4.59919C98.1276 4.59919 96.7696 6.11119 96.7696 8.44919C96.7696 10.7312 98.1276 12.2432 100.354 12.2432ZM100.284 5.73319C101.376 5.73319 102.23 6.30719 102.272 7.67919H98.2256C98.3376 6.47519 99.1216 5.73319 100.284 5.73319Z" fill="#1E2C31"/>
<path d="M116.627 9.65319C116.411 9.65319 116.215 9.61852 116.039 9.54919C115.866 9.47985 115.715 9.38119 115.587 9.25319C115.462 9.12252 115.366 8.96519 115.299 8.78119C115.232 8.59719 115.199 8.39052 115.199 8.16119C115.199 7.92919 115.232 7.72119 115.299 7.53719C115.366 7.35319 115.463 7.19719 115.591 7.06919C115.719 6.93852 115.87 6.83985 116.043 6.77319C116.216 6.70385 116.411 6.66919 116.627 6.66919C116.867 6.66919 117.08 6.71052 117.267 6.79319C117.456 6.87585 117.611 6.99319 117.731 7.14519C117.851 7.29452 117.924 7.47185 117.951 7.67719H117.511C117.484 7.55452 117.431 7.44652 117.351 7.35319C117.274 7.25719 117.174 7.18252 117.051 7.12919C116.928 7.07319 116.787 7.04519 116.627 7.04519C116.427 7.04519 116.252 7.08919 116.103 7.17719C115.956 7.26519 115.843 7.39185 115.763 7.55719C115.686 7.72252 115.647 7.92385 115.647 8.16119C115.647 8.33719 115.67 8.49452 115.715 8.63319C115.76 8.77185 115.826 8.88919 115.911 8.98519C115.996 9.07852 116.099 9.15052 116.219 9.20119C116.342 9.25185 116.478 9.27719 116.627 9.27719C116.784 9.27719 116.924 9.25052 117.047 9.19719C117.172 9.14385 117.275 9.06919 117.355 8.97319C117.435 8.87452 117.487 8.75985 117.511 8.62919L117.951 8.63319C117.927 8.83852 117.855 9.01852 117.735 9.17319C117.618 9.32519 117.463 9.44385 117.271 9.52919C117.082 9.61185 116.867 9.65319 116.627 9.65319ZM119.321 9.65319C119.166 9.65319 119.025 9.62785 118.897 9.57719C118.771 9.52652 118.663 9.45319 118.573 9.35719C118.482 9.26119 118.411 9.14652 118.361 9.01319C118.31 8.87985 118.285 8.73052 118.285 8.56519C118.285 8.34652 118.326 8.15585 118.409 7.99319C118.494 7.82785 118.614 7.69985 118.769 7.60919C118.926 7.51585 119.11 7.46919 119.321 7.46919C119.475 7.46919 119.615 7.49452 119.741 7.54519C119.869 7.59319 119.978 7.66519 120.069 7.76119C120.159 7.85719 120.229 7.97319 120.277 8.10919C120.327 8.24252 120.353 8.39319 120.353 8.56119C120.353 8.77719 120.311 8.96785 120.229 9.13319C120.146 9.29585 120.027 9.42385 119.873 9.51719C119.718 9.60785 119.534 9.65319 119.321 9.65319ZM119.321 9.30919C119.443 9.30919 119.55 9.28119 119.641 9.22519C119.734 9.16652 119.806 9.08119 119.857 8.96919C119.907 8.85719 119.933 8.72119 119.933 8.56119C119.933 8.44119 119.918 8.33585 119.889 8.24519C119.862 8.15185 119.822 8.07319 119.769 8.00919C119.715 7.94252 119.651 7.89319 119.577 7.86119C119.502 7.82652 119.417 7.80919 119.321 7.80919C119.198 7.80919 119.09 7.83852 118.997 7.89719C118.906 7.95585 118.834 8.04119 118.781 8.15319C118.73 8.26252 118.705 8.39985 118.705 8.56519C118.705 8.68252 118.718 8.78785 118.745 8.88119C118.774 8.97185 118.815 9.04919 118.869 9.11319C118.925 9.17719 118.99 9.22652 119.065 9.26119C119.142 9.29319 119.227 9.30919 119.321 9.30919ZM120.784 9.61719V7.50119H121.176L121.192 7.92119H121.216C121.275 7.77185 121.367 7.65985 121.492 7.58519C121.62 7.50785 121.761 7.46919 121.916 7.46919C122.071 7.46919 122.209 7.50652 122.332 7.58119C122.457 7.65585 122.547 7.78385 122.6 7.96519H122.632C122.691 7.79985 122.787 7.67585 122.92 7.59319C123.056 7.51052 123.208 7.46919 123.376 7.46919C123.515 7.46919 123.639 7.49852 123.748 7.55719C123.86 7.61585 123.948 7.71052 124.012 7.84119C124.076 7.97185 124.108 8.14519 124.108 8.36119V9.61719H123.7V8.44519C123.7 8.30119 123.683 8.18252 123.648 8.08919C123.613 7.99319 123.561 7.92252 123.492 7.87719C123.423 7.83185 123.332 7.80919 123.22 7.80919C123.105 7.80919 123.005 7.83852 122.92 7.89719C122.835 7.95585 122.768 8.03452 122.72 8.13319C122.675 8.22919 122.652 8.33852 122.652 8.46119V9.61719H122.24V8.44519C122.24 8.30119 122.223 8.18252 122.188 8.08919C122.153 7.99319 122.101 7.92252 122.032 7.87719C121.963 7.83185 121.873 7.80919 121.764 7.80919C121.647 7.80919 121.545 7.83852 121.46 7.89719C121.375 7.95585 121.308 8.03452 121.26 8.13319C121.215 8.22919 121.192 8.33852 121.192 8.46119V9.61719H120.784ZM124.663 9.61719V7.50119H125.075V9.61719H124.663ZM124.663 7.17719V6.70119H125.075V7.17719H124.663ZM125.647 9.61719V7.50119H126.039L126.055 7.92119H126.079C126.141 7.77185 126.237 7.65985 126.367 7.58519C126.498 7.50785 126.641 7.46919 126.795 7.46919C126.905 7.46919 127.005 7.48519 127.095 7.51719C127.189 7.54919 127.269 7.60119 127.335 7.67319C127.405 7.74252 127.458 7.83452 127.495 7.94919C127.533 8.06119 127.551 8.19852 127.551 8.36119V9.61719H127.139V8.44519C127.139 8.30119 127.122 8.18252 127.087 8.08919C127.053 7.99319 126.999 7.92252 126.927 7.87719C126.855 7.83185 126.762 7.80919 126.647 7.80919C126.527 7.80919 126.422 7.83852 126.331 7.89719C126.243 7.95585 126.175 8.03452 126.127 8.13319C126.079 8.22919 126.055 8.33852 126.055 8.46119V9.61719H125.647ZM128.944 10.3252C128.776 10.3252 128.63 10.2999 128.504 10.2492C128.379 10.2012 128.279 10.1319 128.204 10.0412C128.13 9.95052 128.084 9.84252 128.068 9.71719H128.468C128.479 9.77852 128.506 9.83185 128.548 9.87719C128.591 9.92519 128.646 9.96119 128.712 9.98519C128.782 10.0092 128.862 10.0212 128.952 10.0212C129.08 10.0212 129.187 10.0025 129.272 9.96519C129.358 9.93052 129.423 9.87319 129.468 9.79319C129.514 9.71319 129.536 9.60785 129.536 9.47719V9.06519H129.508C129.46 9.19319 129.375 9.29719 129.252 9.37719C129.13 9.45452 128.984 9.49319 128.816 9.49319C128.688 9.49319 128.571 9.47185 128.464 9.42919C128.36 9.38385 128.271 9.31852 128.196 9.23319C128.122 9.14519 128.064 9.03852 128.024 8.91319C127.984 8.78519 127.964 8.64119 127.964 8.48119C127.964 8.26519 128 8.08119 128.072 7.92919C128.144 7.77719 128.244 7.66252 128.372 7.58519C128.5 7.50519 128.65 7.46519 128.82 7.46519C128.988 7.46519 129.132 7.50385 129.252 7.58119C129.375 7.65852 129.46 7.76252 129.508 7.89319H129.536L129.544 7.50119H129.944V9.42119C129.944 9.58652 129.92 9.72652 129.872 9.84119C129.824 9.95852 129.756 10.0519 129.668 10.1212C129.58 10.1932 129.474 10.2452 129.348 10.2772C129.226 10.3092 129.091 10.3252 128.944 10.3252ZM128.956 9.17319C129.079 9.17319 129.183 9.14519 129.268 9.08919C129.354 9.03319 129.419 8.96252 129.464 8.87719C129.51 8.78919 129.534 8.69852 129.536 8.60519L129.532 8.34919C129.53 8.25852 129.507 8.17052 129.464 8.08519C129.422 7.99719 129.358 7.92652 129.272 7.87319C129.19 7.81719 129.086 7.78919 128.96 7.78919C128.843 7.78919 128.742 7.81585 128.656 7.86919C128.571 7.92252 128.504 8.00119 128.456 8.10519C128.411 8.20919 128.388 8.33452 128.388 8.48119C128.388 8.63052 128.411 8.75719 128.456 8.86119C128.504 8.96252 128.571 9.03985 128.656 9.09319C128.742 9.14652 128.842 9.17319 128.956 9.17319ZM132.433 9.65319C132.175 9.65319 131.96 9.61319 131.789 9.53319C131.619 9.45319 131.491 9.34252 131.405 9.20119C131.32 9.05719 131.276 8.89185 131.273 8.70519H131.721C131.724 8.82785 131.751 8.93585 131.801 9.02919C131.855 9.11985 131.933 9.18919 132.037 9.23719C132.141 9.28519 132.276 9.30919 132.441 9.30919C132.647 9.30919 132.811 9.27185 132.933 9.19719C133.059 9.12252 133.121 9.00785 133.121 8.85319C133.121 8.76519 133.108 8.69185 133.081 8.63319C133.055 8.57452 133.011 8.52652 132.949 8.48919C132.891 8.44919 132.812 8.41585 132.713 8.38919C132.615 8.36252 132.495 8.33719 132.353 8.31319C132.185 8.28385 132.037 8.24919 131.909 8.20919C131.784 8.16652 131.679 8.11452 131.593 8.05319C131.511 7.98919 131.448 7.91185 131.405 7.82119C131.363 7.73052 131.341 7.62385 131.341 7.50119C131.341 7.33052 131.384 7.18252 131.469 7.05719C131.555 6.93185 131.677 6.83585 131.837 6.76919C131.997 6.70252 132.189 6.66919 132.413 6.66919C132.637 6.66919 132.828 6.70519 132.985 6.77719C133.143 6.84652 133.264 6.94519 133.349 7.07319C133.435 7.19852 133.479 7.34785 133.481 7.52119H133.037C133.035 7.40385 133.005 7.30785 132.949 7.23319C132.896 7.15585 132.821 7.09852 132.725 7.06119C132.632 7.02385 132.523 7.00519 132.397 7.00519C132.269 7.00519 132.16 7.02385 132.069 7.06119C131.981 7.09585 131.913 7.14652 131.865 7.21319C131.817 7.27719 131.793 7.35319 131.793 7.44119C131.793 7.54785 131.819 7.63052 131.869 7.68919C131.923 7.74785 132.007 7.79452 132.121 7.82919C132.236 7.86119 132.387 7.89452 132.573 7.92919C132.704 7.94785 132.828 7.97452 132.945 8.00919C133.065 8.04385 133.172 8.09185 133.265 8.15319C133.361 8.21452 133.436 8.29852 133.489 8.40519C133.545 8.50919 133.573 8.64519 133.573 8.81319C133.573 8.97852 133.529 9.12519 133.441 9.25319C133.356 9.37852 133.228 9.47719 133.057 9.54919C132.889 9.61852 132.681 9.65319 132.433 9.65319ZM134.93 9.65319C134.775 9.65319 134.634 9.62785 134.506 9.57719C134.381 9.52652 134.273 9.45319 134.182 9.35719C134.091 9.26119 134.021 9.14652 133.97 9.01319C133.919 8.87985 133.894 8.73052 133.894 8.56519C133.894 8.34652 133.935 8.15585 134.018 7.99319C134.103 7.82785 134.223 7.69985 134.378 7.60919C134.535 7.51585 134.719 7.46919 134.93 7.46919C135.085 7.46919 135.225 7.49452 135.35 7.54519C135.478 7.59319 135.587 7.66519 135.678 7.76119C135.769 7.85719 135.838 7.97319 135.886 8.10919C135.937 8.24252 135.962 8.39319 135.962 8.56119C135.962 8.77719 135.921 8.96785 135.838 9.13319C135.755 9.29585 135.637 9.42385 135.482 9.51719C135.327 9.60785 135.143 9.65319 134.93 9.65319ZM134.93 9.30919C135.053 9.30919 135.159 9.28119 135.25 9.22519C135.343 9.16652 135.415 9.08119 135.466 8.96919C135.517 8.85719 135.542 8.72119 135.542 8.56119C135.542 8.44119 135.527 8.33585 135.498 8.24519C135.471 8.15185 135.431 8.07319 135.378 8.00919C135.325 7.94252 135.261 7.89319 135.186 7.86119C135.111 7.82652 135.026 7.80919 134.93 7.80919C134.807 7.80919 134.699 7.83852 134.606 7.89719C134.515 7.95585 134.443 8.04119 134.39 8.15319C134.339 8.26252 134.314 8.39985 134.314 8.56519C134.314 8.68252 134.327 8.78785 134.354 8.88119C134.383 8.97185 134.425 9.04919 134.478 9.11319C134.534 9.17719 134.599 9.22652 134.674 9.26119C134.751 9.29319 134.837 9.30919 134.93 9.30919ZM137.325 9.65319C137.17 9.65319 137.029 9.62785 136.901 9.57719C136.775 9.52652 136.667 9.45319 136.577 9.35719C136.486 9.26119 136.415 9.14652 136.365 9.01319C136.314 8.87985 136.289 8.73052 136.289 8.56519C136.289 8.34652 136.33 8.15585 136.413 7.99319C136.498 7.82785 136.618 7.69985 136.773 7.60919C136.93 7.51585 137.114 7.46919 137.325 7.46919C137.479 7.46919 137.619 7.49452 137.745 7.54519C137.873 7.59319 137.982 7.66519 138.073 7.76119C138.163 7.85719 138.233 7.97319 138.281 8.10919C138.331 8.24252 138.357 8.39319 138.357 8.56119C138.357 8.77719 138.315 8.96785 138.233 9.13319C138.15 9.29585 138.031 9.42385 137.877 9.51719C137.722 9.60785 137.538 9.65319 137.325 9.65319ZM137.325 9.30919C137.447 9.30919 137.554 9.28119 137.645 9.22519C137.738 9.16652 137.81 9.08119 137.861 8.96919C137.911 8.85719 137.937 8.72119 137.937 8.56119C137.937 8.44119 137.922 8.33585 137.893 8.24519C137.866 8.15185 137.826 8.07319 137.773 8.00919C137.719 7.94252 137.655 7.89319 137.581 7.86119C137.506 7.82652 137.421 7.80919 137.325 7.80919C137.202 7.80919 137.094 7.83852 137.001 7.89719C136.91 7.95585 136.838 8.04119 136.785 8.15319C136.734 8.26252 136.709 8.39985 136.709 8.56519C136.709 8.68252 136.722 8.78785 136.749 8.88119C136.778 8.97185 136.819 9.04919 136.873 9.11319C136.929 9.17719 136.994 9.22652 137.069 9.26119C137.146 9.29319 137.231 9.30919 137.325 9.30919ZM138.788 9.61719V7.50119H139.18L139.196 7.92119H139.22C139.281 7.77185 139.377 7.65985 139.508 7.58519C139.639 7.50785 139.781 7.46919 139.936 7.46919C140.045 7.46919 140.145 7.48519 140.236 7.51719C140.329 7.54919 140.409 7.60119 140.476 7.67319C140.545 7.74252 140.599 7.83452 140.636 7.94919C140.673 8.06119 140.692 8.19852 140.692 8.36119V9.61719H140.28V8.44519C140.28 8.30119 140.263 8.18252 140.228 8.08919C140.193 7.99319 140.14 7.92252 140.068 7.87719C139.996 7.83185 139.903 7.80919 139.788 7.80919C139.668 7.80919 139.563 7.83852 139.472 7.89719C139.384 7.95585 139.316 8.03452 139.268 8.13319C139.22 8.22919 139.196 8.33852 139.196 8.46119V9.61719H138.788Z" fill="#9CA3AF"/>
<rect x="110.276" y="1.99249" width="35.4486" height="12.2486" rx="6.12431" stroke="#9CA3AF" stroke-width="0.551376"/>
<defs>
<linearGradient id="paint0_linear_2451_28907" x1="-8.70886" y1="19.3894" x2="33.8055" y2="19.4421" gradientUnits="userSpaceOnUse">
<stop stop-color="#FC5130"/>
<stop offset="1" stop-color="#ED401F"/>
</linearGradient>
<linearGradient id="paint1_linear_2451_28907" x1="32" y1="14" x2="33.914" y2="-11.1964" gradientUnits="userSpaceOnUse">
<stop stop-color="#FC5130"/>
<stop offset="1" stop-color="white"/>
</linearGradient>
</defs>
</svg>
