<svg width="1200" height="475" viewBox="0 0 1200 475" fill="none" xmlns="http://www.w3.org/2000/svg">
<path d="M0 32C0 14.3269 14.3269 0 32 0H1168C1185.67 0 1200 14.3269 1200 32V479H0V32Z" fill="url(#paint0_linear_3374_29336)"/>
<g opacity="0.2">
<path d="M429.949 73.5446L319.095 201.209C309.871 211.831 309.9 227.631 319.164 238.219L584.178 541.128C595.452 554.014 615.52 553.942 626.702 540.976L737.621 412.363C746.797 401.723 746.728 385.948 737.459 375.389L472.38 73.4298C461.123 60.6056 441.137 60.6597 429.949 73.5446Z" fill="url(#paint1_linear_3374_29336)"/>
<path d="M759.615 53.7755L670.334 169.028C655.997 187.536 669.188 214.44 692.599 214.44H873.595C897.177 214.44 910.317 187.191 895.633 168.739L803.918 53.486C792.548 39.1982 770.797 39.3403 759.615 53.7755Z" fill="url(#paint2_linear_3374_29336)"/>
<path d="M668.698 491.795L376.141 136.186L428.182 71.763C439.197 58.1268 459.846 57.7204 471.39 70.9127L739.757 377.618C749.259 388.478 749.043 404.755 739.255 415.358L668.698 491.795Z" fill="#F85D40"/>
</g>
<g opacity="0.1">
<path d="M343.395 464.098C343.426 464.007 343.466 463.92 343.514 463.836C343.611 463.624 343.708 463.411 343.804 463.199C343.901 462.986 344.02 462.724 344.132 462.479C344.244 462.234 344.199 462.332 344.229 462.267C344.259 462.201 344.46 461.76 344.457 461.462C344.454 461.165 344.651 461.037 344.755 460.808C344.859 460.579 344.8 460.71 344.822 460.661C344.986 460.301 345.011 459.898 345.093 459.501C345.146 459.387 345.205 459.256 345.257 459.142C345.366 458.599 345.459 458.049 345.544 457.515C345.603 457.384 345.663 457.253 345.608 457.07C345.553 456.887 345.693 456.32 345.728 455.94L345.817 455.744L345.858 455.091C345.88 454.825 345.903 454.559 345.901 454.302C345.916 454.173 345.922 454.044 345.92 453.915L345.934 453.191C346.008 453.027 345.943 452.78 345.935 452.58L345.924 452.041L345.896 451.278L345.888 450.821L345.823 450.139L345.77 449.345L345.742 449.017L345.632 448.217L345.529 447.36L345.504 447.112L345.351 446.233L345.198 445.354L345.175 445.145L344.986 444.388C344.908 443.997 344.846 443.614 344.743 443.231L344.695 442.992L344.509 442.315L344.165 441.033L344.073 440.715L343.892 440.159C343.754 439.681 343.6 439.196 343.422 438.72C343.388 438.571 343.343 438.425 343.285 438.283L343.134 437.878C342.917 437.227 342.66 436.577 342.396 435.943L342.227 435.491L342.173 435.348C341.779 434.392 341.359 433.451 340.913 432.523C340.877 432.437 340.837 432.352 340.791 432.271L340.651 431.97C340.071 430.817 339.474 429.657 338.837 428.498L338.751 428.34L338.572 428.081C337.902 426.908 337.193 425.735 336.435 424.581L336.257 424.322C335.449 423.105 334.609 421.913 333.722 420.74L332.02 418.582L331.872 418.515L331.596 418.212C330.999 417.485 330.296 416.731 329.74 416.044L329.188 415.437C328.434 414.62 327.681 413.803 326.88 413.004L326.765 412.952L326.49 412.688C325.806 411.995 325.09 411.313 324.342 410.643L323.983 410.303L323.643 410.009L322.132 408.689L321.592 408.227L321.38 408.13L319.938 406.96L319.317 406.46L318.826 406.236C318.437 405.921 318.016 405.631 317.619 405.331L316.752 404.68L316.555 404.59C315.935 404.13 315.284 403.696 314.65 403.268L312.715 402.012L312.584 401.952L310.595 400.77L308.756 399.736L308.625 399.676L306.691 398.677L304.745 397.791L302.898 396.949L301.017 396.093L300.772 395.981L299.077 395.367L297.1 394.723L296.985 394.671L296.805 394.589L295.066 394.074L293.005 393.57C292.308 393.41 291.587 393.259 290.891 393.14L289.565 392.931L289.031 392.846L288.675 392.802C287.876 392.695 287.068 392.603 286.286 392.543L285.803 392.521L284.973 392.478C284.546 392.462 284.111 392.421 283.693 392.428C283.275 392.436 282.977 392.438 282.616 392.452L281.426 392.463L280.768 392.478L279.71 392.589C279.053 392.645 278.412 392.709 277.796 392.804L277.155 392.867L275.487 393.193L275.024 393.298C274.075 393.518 273.152 393.768 272.268 394.018L271.578 394.276C270.871 394.527 270.166 394.818 269.494 395.124L268.869 395.412C268.041 395.816 267.235 396.266 266.458 396.762C266.3 396.848 266.175 396.949 266.034 397.042C265.394 397.466 264.778 397.924 264.186 398.412C263.982 398.556 263.787 398.724 263.6 398.876C262.901 399.478 262.235 400.117 261.603 400.79L92.0813 586.317C92.713 585.644 93.3796 585.005 94.0782 584.403L94.6481 583.932C95.2417 583.452 95.8606 583.003 96.4885 582.578L96.92 582.281C97.7033 581.788 98.5139 581.34 99.3477 580.938L99.9725 580.65C100.645 580.345 101.35 580.054 102.056 579.803L102.747 579.545C103.652 579.246 104.56 578.988 105.486 578.818L105.977 578.824C106.719 578.668 107.486 578.544 108.27 578.427C109.054 578.31 109.543 578.276 110.201 578.22L111.917 578.094L113.09 578.075C113.869 578.055 114.65 578.075 115.463 578.11L116.293 578.152C117.365 578.225 118.422 578.332 119.521 578.477L120.039 578.554C121.179 578.738 122.336 578.929 123.496 579.201C124.736 579.469 125.986 579.802 127.238 580.174L127.418 580.256C128.662 580.645 129.915 581.058 131.163 581.527L131.326 581.602C132.569 582.168 133.896 582.634 135.188 583.222C136.496 583.818 137.799 584.47 139.095 585.179L139.193 585.224C140.473 585.925 141.771 586.674 143.046 587.472L143.128 587.509C144.422 588.309 145.707 589.171 146.985 590.095C147.377 590.274 147.679 590.608 148.034 590.869C148.389 591.129 148.851 591.458 149.241 591.774L150.002 592.357L151.443 593.527L152.157 594.128L153.685 595.456L154.383 596.09L156.532 598.134L156.906 598.483C157.691 599.274 158.461 600.099 159.214 600.916L159.767 601.523L161.623 603.691L162.009 604.143C162.59 604.862 163.154 605.573 163.695 606.293C164.582 607.467 165.421 608.659 166.221 609.852L166.391 610.127C167.165 611.289 167.875 612.461 168.545 613.635L168.786 614.06C169.447 615.21 170.044 616.371 170.608 617.516L170.886 618.077C171.33 619.009 171.75 619.951 172.13 620.894L172.369 621.497C172.626 622.147 172.874 622.773 173.107 623.432L173.395 624.274L173.865 625.712L174.138 626.586L174.482 627.868L174.716 628.785L174.967 629.925L175.171 630.907C175.214 631.203 175.257 631.499 175.324 631.786C175.391 632.073 175.456 632.537 175.502 632.913L175.605 633.77C175.651 634.146 175.697 634.522 175.726 634.891C175.756 635.26 175.778 635.428 175.795 635.693L175.869 636.832C175.87 637.089 175.872 637.346 175.889 637.611C175.907 637.876 175.901 638.366 175.89 638.737C175.879 639.107 175.884 639.228 175.893 639.468L175.831 640.645L175.79 641.297C175.742 641.749 175.694 642.201 175.63 642.646C175.623 642.798 175.607 642.948 175.582 643.098C175.491 643.688 175.4 644.279 175.246 644.919C175.194 645.034 175.135 645.165 175.083 645.279C174.978 645.725 174.874 646.171 174.753 646.61C174.632 647.048 174.559 647.035 174.561 647.292C174.562 647.55 174.368 647.975 174.252 648.317L173.924 649.036C173.783 649.347 173.649 649.641 173.507 649.952C173.366 650.263 173.254 650.508 173.128 650.786C173.001 651.064 172.792 651.522 172.621 651.898C172.219 652.781 171.668 653.557 171.15 654.347C171.083 654.495 171.024 654.625 170.957 654.773C170.383 655.594 169.756 656.377 169.08 657.116L338.689 471.353L338.944 471.054C339.469 470.464 339.977 469.827 340.451 469.174C340.451 469.174 340.504 469.06 340.533 468.994C340.606 468.856 340.67 468.714 340.727 468.569C340.928 468.128 341.269 467.77 341.519 467.35C341.769 466.931 341.906 466.5 342.205 466.103C342.28 465.94 342.362 465.76 342.444 465.58C342.526 465.4 342.622 465.188 342.712 464.991L343.395 464.098Z" fill="url(#paint3_linear_3374_29336)"/>
<path d="M343.395 464.098C343.426 464.007 343.466 463.92 343.514 463.836C343.611 463.624 343.708 463.411 343.804 463.199C343.901 462.986 344.02 462.724 344.132 462.479C344.244 462.234 344.199 462.332 344.229 462.267C344.259 462.201 344.46 461.76 344.457 461.462C344.454 461.165 344.651 461.037 344.755 460.808C344.859 460.579 344.8 460.71 344.822 460.661C344.986 460.301 345.011 459.898 345.093 459.501C345.146 459.387 345.205 459.256 345.257 459.142C345.366 458.599 345.459 458.049 345.544 457.515C345.603 457.384 345.663 457.253 345.608 457.07C345.553 456.887 345.693 456.32 345.728 455.94L345.817 455.744L345.858 455.091C345.88 454.825 345.903 454.559 345.901 454.302C345.916 454.173 345.922 454.044 345.92 453.915L345.934 453.191C346.008 453.027 345.943 452.78 345.935 452.58L345.924 452.041L345.896 451.278L345.888 450.821L345.823 450.139L345.77 449.345L345.742 449.017L345.632 448.217L345.529 447.36L345.504 447.112L345.351 446.233L345.198 445.354L345.175 445.145L344.986 444.388C344.908 443.997 344.846 443.614 344.743 443.231L344.695 442.992L344.509 442.315L344.165 441.033L344.073 440.715L343.892 440.159C343.754 439.681 343.6 439.196 343.422 438.72C343.388 438.571 343.343 438.425 343.285 438.283L343.134 437.878C342.917 437.227 342.66 436.577 342.396 435.943L342.227 435.491L342.173 435.348C341.779 434.392 341.359 433.451 340.913 432.523C340.877 432.437 340.837 432.352 340.791 432.271L340.651 431.97C340.071 430.817 339.474 429.657 338.837 428.498L338.751 428.34L338.572 428.081C337.902 426.908 337.193 425.735 336.435 424.581L336.257 424.322C335.449 423.105 334.609 421.913 333.722 420.74L332.02 418.582L331.872 418.515L331.596 418.212C330.999 417.485 330.296 416.731 329.74 416.044L329.188 415.437C328.434 414.62 327.681 413.803 326.88 413.004L326.765 412.952L326.49 412.688C325.806 411.995 325.09 411.313 324.342 410.643L323.983 410.303L323.643 410.009L322.132 408.689L321.592 408.227L321.38 408.13L319.938 406.96L319.317 406.46L318.826 406.236C318.437 405.921 318.016 405.631 317.619 405.331L316.752 404.68L316.555 404.59C315.935 404.13 315.284 403.696 314.65 403.268L312.715 402.012L312.584 401.952L310.595 400.77L308.756 399.736L308.625 399.676L306.691 398.677L304.745 397.791L302.898 396.949L301.017 396.093L300.772 395.981L299.077 395.367L297.1 394.723L296.985 394.671L296.805 394.589L295.066 394.074L293.005 393.57C292.308 393.41 291.587 393.259 290.891 393.14L289.565 392.931L289.031 392.846L288.675 392.802C287.876 392.695 287.068 392.603 286.286 392.543L285.803 392.521L284.973 392.478C284.546 392.462 284.111 392.421 283.693 392.428C283.275 392.436 282.977 392.438 282.616 392.452L281.426 392.463L280.768 392.478L279.71 392.589C279.053 392.645 278.412 392.709 277.796 392.804L277.155 392.867L275.487 393.193L275.024 393.298C274.075 393.518 273.152 393.768 272.268 394.018L271.578 394.276C270.871 394.527 270.166 394.818 269.494 395.124L268.869 395.412C268.041 395.816 267.235 396.266 266.458 396.762C266.3 396.848 266.175 396.949 266.034 397.042C265.394 397.466 264.778 397.924 264.186 398.412C263.982 398.556 263.787 398.724 263.6 398.876C262.901 399.478 262.235 400.117 261.603 400.79L92.0813 586.317C92.713 585.644 93.3796 585.005 94.0782 584.403L94.6481 583.932C95.2417 583.452 95.8606 583.003 96.4885 582.578L96.92 582.281C97.7033 581.788 98.5139 581.34 99.3477 580.938L99.9725 580.65C100.645 580.345 101.35 580.054 102.056 579.803L102.747 579.545C103.652 579.246 104.56 578.988 105.486 578.818L105.977 578.824C106.719 578.668 107.486 578.544 108.27 578.427C109.054 578.31 109.543 578.276 110.201 578.22L111.917 578.094L113.09 578.075C113.869 578.055 114.65 578.075 115.463 578.11L116.293 578.152C117.365 578.225 118.422 578.332 119.521 578.477L120.039 578.554C121.179 578.738 122.336 578.929 123.496 579.201C124.736 579.469 125.986 579.802 127.238 580.174L127.418 580.256C128.662 580.645 129.915 581.058 131.163 581.527L131.326 581.602C132.569 582.168 133.896 582.634 135.188 583.222C136.496 583.818 137.799 584.47 139.095 585.179L139.193 585.224C140.473 585.925 141.771 586.674 143.046 587.472L143.128 587.509C144.422 588.309 145.707 589.171 146.985 590.095C147.377 590.274 147.679 590.608 148.034 590.869C148.389 591.129 148.851 591.458 149.241 591.774L150.002 592.357L151.443 593.527L152.157 594.128L153.685 595.456L154.383 596.09L156.532 598.134L156.906 598.483C157.691 599.274 158.461 600.099 159.214 600.916L159.767 601.523L161.623 603.691L162.009 604.143C162.59 604.862 163.154 605.573 163.695 606.293C164.582 607.467 165.421 608.659 166.221 609.852L166.391 610.127C167.165 611.289 167.875 612.461 168.545 613.635L168.786 614.06C169.447 615.21 170.044 616.371 170.608 617.516L170.886 618.077C171.33 619.009 171.75 619.951 172.13 620.894L172.369 621.497C172.626 622.147 172.874 622.773 173.107 623.432L173.395 624.274L173.865 625.712L174.138 626.586L174.482 627.868L174.716 628.785L174.967 629.925L175.171 630.907C175.214 631.203 175.257 631.499 175.324 631.786C175.391 632.073 175.456 632.537 175.502 632.913L175.605 633.77C175.651 634.146 175.697 634.522 175.726 634.891C175.756 635.26 175.778 635.428 175.795 635.693L175.869 636.832C175.87 637.089 175.872 637.346 175.889 637.611C175.907 637.876 175.901 638.366 175.89 638.737C175.879 639.107 175.884 639.228 175.893 639.468L175.831 640.645L175.79 641.297C175.742 641.749 175.694 642.201 175.63 642.646C175.623 642.798 175.607 642.948 175.582 643.098C175.491 643.688 175.4 644.279 175.246 644.919C175.194 645.034 175.135 645.165 175.083 645.279C174.978 645.725 174.874 646.171 174.753 646.61C174.632 647.048 174.559 647.035 174.561 647.292C174.562 647.55 174.368 647.975 174.252 648.317L173.924 649.036C173.783 649.347 173.649 649.641 173.507 649.952C173.366 650.263 173.254 650.508 173.128 650.786C173.001 651.064 172.792 651.522 172.621 651.898C172.219 652.781 171.668 653.557 171.15 654.347C171.083 654.495 171.024 654.625 170.957 654.773C170.383 655.594 169.756 656.377 169.08 657.116L338.689 471.353L338.944 471.054C339.469 470.464 339.977 469.827 340.451 469.174C340.451 469.174 340.504 469.06 340.533 468.994C340.606 468.856 340.67 468.714 340.727 468.569C340.928 468.128 341.269 467.77 341.519 467.35C341.769 466.931 341.906 466.5 342.205 466.103C342.28 465.94 342.362 465.76 342.444 465.58C342.526 465.4 342.622 465.188 342.712 464.991L343.395 464.098Z" fill="url(#paint4_linear_3374_29336)"/>
</g>
<rect width="8.00902" height="81.6449" rx="3.20176" transform="matrix(-1 0 0 1 1110.35 326.945)" fill="url(#paint5_linear_3374_29336)"/>
<rect width="8.00902" height="78.4431" rx="1.60088" transform="matrix(-1 0 0 1 1108.75 328.539)" fill="url(#paint6_linear_3374_29336)"/>
<rect width="8.123" height="54.2912" rx="3.20176" transform="matrix(1 -6.8175e-08 -1.12105e-07 -1 760.219 456.039)" fill="url(#paint7_linear_3374_29336)"/>
<rect width="8.123" height="51.2468" rx="1.60088" transform="matrix(1 -5.67722e-08 -1.34621e-07 -1 761.742 454.516)" fill="url(#paint8_linear_3374_29336)"/>
<rect width="8.123" height="53.2764" rx="3.20176" transform="matrix(1 -6.8175e-08 -1.12105e-07 -1 760.215 380.391)" fill="url(#paint9_linear_3374_29336)"/>
<rect width="8.123" height="23.3401" rx="3.20176" transform="matrix(1 -6.8175e-08 -1.12105e-07 -1 760.723 307.836)" fill="url(#paint10_linear_3374_29336)"/>
<rect width="8.123" height="51.2468" rx="1.60088" transform="matrix(1 -5.67722e-08 -1.34621e-07 -1 761.738 379.379)" fill="url(#paint11_linear_3374_29336)"/>
<rect width="8.12299" height="20.2958" rx="1.60088" transform="matrix(1 -4.1633e-08 -1.83574e-07 -1 762.246 306.312)" fill="url(#paint12_linear_3374_29336)"/>
<rect x="763.949" y="117.227" width="342.588" height="686.777" rx="60.033" fill="black"/>
<rect x="765.551" y="118.828" width="339.386" height="683.576" rx="59.2326" fill="url(#paint13_linear_3374_29336)"/>
<rect x="766.996" y="120.242" width="336.185" height="680.374" rx="57.6317" fill="black"/>
<rect x="775.301" y="128.547" width="319.214" height="663.405" rx="51.4114" fill="white"/>
<g clip-path="url(#clip0_3374_29336)">
<rect x="774.543" y="136.844" width="319.953" height="698.766" rx="45.2764" fill="white"/>
<g clip-path="url(#clip1_3374_29336)">
<path opacity="0.35" fill-rule="evenodd" clip-rule="evenodd" d="M1061.53 154.477C1060.68 154.477 1060.34 154.534 1059.99 154.698C1059.69 154.836 1059.46 155.037 1059.31 155.295C1059.12 155.601 1059.05 155.898 1059.05 156.648V159.994C1059.05 160.744 1059.12 161.041 1059.31 161.347C1059.46 161.606 1059.69 161.806 1059.99 161.945C1060.34 162.108 1060.68 162.166 1061.53 162.166H1074.41C1075.27 162.166 1075.61 162.108 1075.96 161.945C1076.25 161.806 1076.48 161.606 1076.64 161.347C1076.82 161.041 1076.89 160.744 1076.89 159.994V156.648C1076.89 155.898 1076.82 155.601 1076.64 155.295C1076.48 155.037 1076.25 154.836 1075.96 154.698C1075.61 154.534 1075.27 154.477 1074.41 154.477H1061.53Z" stroke="black" stroke-width="0.744099"/>
<path opacity="0.4" d="M1078.16 156.832V159.808C1078.85 159.556 1079.29 158.97 1079.29 158.32C1079.29 157.671 1078.85 157.084 1078.16 156.832Z" fill="black"/>
<path d="M1061.78 155.594H1074.16C1074.67 155.594 1074.85 155.64 1075.04 155.726C1075.22 155.813 1075.36 155.94 1075.46 156.101C1075.56 156.263 1075.61 156.423 1075.61 156.866V159.779C1075.61 160.221 1075.56 160.381 1075.46 160.543C1075.36 160.705 1075.22 160.831 1075.04 160.918C1074.85 161.004 1074.67 161.05 1074.16 161.05H1061.78C1061.27 161.05 1061.09 161.004 1060.91 160.918C1060.72 160.831 1060.58 160.705 1060.48 160.543C1060.38 160.381 1060.33 160.221 1060.33 159.779V156.866C1060.33 156.423 1060.38 156.263 1060.48 156.101C1060.58 155.94 1060.72 155.813 1060.91 155.726C1061.09 155.64 1061.27 155.594 1061.78 155.594Z" fill="black"/>
<path d="M1047.87 155.805C1049.76 155.805 1051.58 156.441 1052.95 157.581C1053.05 157.669 1053.21 157.667 1053.32 157.578L1054.3 156.707C1054.35 156.662 1054.38 156.601 1054.38 156.537C1054.38 156.473 1054.35 156.412 1054.3 156.367C1050.71 153.352 1045.04 153.352 1041.44 156.367C1041.39 156.412 1041.36 156.473 1041.36 156.537C1041.36 156.601 1041.39 156.662 1041.44 156.707L1042.42 157.578C1042.53 157.668 1042.69 157.669 1042.79 157.581C1044.16 156.441 1045.98 155.805 1047.87 155.805ZM1047.87 158.639C1048.91 158.639 1049.91 158.976 1050.68 159.586C1050.78 159.673 1050.95 159.671 1051.05 159.582L1052.03 158.711C1052.09 158.666 1052.11 158.604 1052.11 158.539C1052.11 158.475 1052.08 158.413 1052.03 158.369C1049.69 156.46 1046.06 156.46 1043.71 158.369C1043.66 158.413 1043.63 158.475 1043.63 158.539C1043.63 158.604 1043.66 158.666 1043.71 158.711L1044.69 159.582C1044.8 159.671 1044.96 159.673 1045.06 159.586C1045.83 158.977 1046.83 158.639 1047.87 158.639ZM1049.76 160.717C1049.82 160.672 1049.84 160.609 1049.84 160.545C1049.84 160.48 1049.81 160.419 1049.75 160.376C1048.67 159.57 1047.07 159.57 1045.99 160.376C1045.93 160.419 1045.9 160.48 1045.9 160.545C1045.9 160.609 1045.93 160.672 1045.98 160.717L1047.68 162.221C1047.73 162.266 1047.8 162.291 1047.87 162.291C1047.94 162.291 1048.01 162.266 1048.06 162.221L1049.76 160.717Z" fill="black"/>
<path d="M1023.52 159.312H1024.37C1024.84 159.312 1025.22 159.645 1025.22 160.056V161.545C1025.22 161.955 1024.84 162.289 1024.37 162.289H1023.52C1023.05 162.289 1022.67 161.955 1022.67 161.545V160.056C1022.67 159.645 1023.05 159.312 1023.52 159.312ZM1027.48 157.824H1028.33C1028.8 157.824 1029.18 158.157 1029.18 158.568V161.545C1029.18 161.955 1028.8 162.289 1028.33 162.289H1027.48C1027.02 162.289 1026.64 161.955 1026.64 161.545V158.568C1026.64 158.157 1027.02 157.824 1027.48 157.824ZM1031.45 156.088H1032.3C1032.77 156.088 1033.15 156.421 1033.15 156.832V161.545C1033.15 161.955 1032.77 162.289 1032.3 162.289H1031.45C1030.98 162.289 1030.6 161.955 1030.6 161.545V156.832C1030.6 156.421 1030.98 156.088 1031.45 156.088ZM1035.41 154.352H1036.26C1036.73 154.352 1037.11 154.685 1037.11 155.096V161.545C1037.11 161.955 1036.73 162.289 1036.26 162.289H1035.41C1034.94 162.289 1034.56 161.955 1034.56 161.545V155.096C1034.56 154.685 1034.94 154.352 1035.41 154.352Z" fill="black"/>
<path d="M792.154 160.879V153.401H791.049C790.669 153.881 790.145 154.07 789.531 154.07V154.986H790.892V160.879H792.154ZM798.813 160.879V159.763H795.945L794.828 159.874L795.699 159.227L796.737 158.312C797.529 157.653 798.601 156.615 798.601 155.41C798.601 154.182 797.864 153.289 796.358 153.289C794.639 153.289 793.422 154.383 793.456 155.879L794.516 156.638C794.449 155.198 795.141 154.495 796.246 154.495C796.971 154.495 797.284 154.952 797.284 155.488C797.284 156.191 796.771 156.76 796.045 157.463L793.467 159.919V160.879H798.813ZM801.21 157.196V155.611H799.781V157.196H801.21ZM801.21 160.879V159.294H799.781V160.879H801.21ZM805.381 160.979C807.468 160.979 808.517 159.327 808.517 157.129C808.517 154.941 807.468 153.289 805.381 153.289C803.294 153.289 802.234 154.941 802.234 157.129C802.234 159.327 803.294 160.979 805.381 160.979ZM805.381 159.774C804.053 159.774 803.562 158.702 803.562 157.129C803.562 155.566 804.053 154.483 805.381 154.483C806.72 154.483 807.2 155.566 807.2 157.129C807.2 158.702 806.72 159.774 805.381 159.774ZM812.673 160.979C814.76 160.979 815.809 159.327 815.809 157.129C815.809 154.941 814.76 153.289 812.673 153.289C810.586 153.289 809.526 154.941 809.526 157.129C809.526 159.327 810.586 160.979 812.673 160.979ZM812.673 159.774C811.345 159.774 810.854 158.702 810.854 157.129C810.854 155.566 811.345 154.483 812.673 154.483C814.012 154.483 814.492 155.566 814.492 157.129C814.492 158.702 814.012 159.774 812.673 159.774Z" fill="black"/>
</g>
<g clip-path="url(#clip2_3374_29336)">
<path d="M794.803 213.692L790.035 208.938C789.978 208.882 789.938 208.82 789.914 208.754C789.89 208.688 789.879 208.618 789.879 208.542C789.879 208.467 789.891 208.396 789.915 208.33C789.938 208.264 789.978 208.203 790.035 208.146L794.803 203.378C794.935 203.246 795.1 203.18 795.298 203.18C795.496 203.18 795.666 203.25 795.807 203.392C795.949 203.533 796.02 203.698 796.02 203.887C796.02 204.076 795.949 204.241 795.807 204.382L791.648 208.542L795.807 212.702C795.939 212.834 796.005 212.997 796.005 213.19C796.005 213.384 795.935 213.551 795.793 213.692C795.652 213.834 795.487 213.905 795.298 213.905C795.109 213.905 794.944 213.834 794.803 213.692Z" fill="black"/>
</g>
<path d="M899.951 212.113C902.16 212.113 903.187 210.99 903.187 208.539V203.903H901.834V208.551C901.834 210.157 901.315 210.809 899.963 210.809C898.635 210.809 898.092 210.157 898.092 208.551V203.903H896.739V208.539C896.739 210.99 897.79 212.113 899.951 212.113ZM907.832 212.113C909.474 212.113 910.705 211.268 910.705 209.807C910.705 208.261 909.546 207.754 908.254 207.44L907.349 207.223C906.467 207.006 905.912 206.752 905.912 206.04C905.912 205.424 906.467 205.062 907.24 205.062C908.23 205.062 909.099 205.497 909.546 206.499L910.572 205.521C909.993 204.41 908.81 203.794 907.325 203.794C905.803 203.794 904.487 204.615 904.487 206.136C904.487 207.67 905.707 208.189 906.854 208.43L907.614 208.599C908.665 208.829 909.317 209.046 909.317 209.831C909.317 210.567 908.665 210.857 907.856 210.857C906.866 210.857 905.646 210.398 905.212 209.215L904.246 210.193C904.874 211.558 906.286 212.113 907.832 212.113ZM915.213 212.113C916.855 212.113 918.086 211.268 918.086 209.807C918.086 208.261 916.927 207.754 915.635 207.44L914.73 207.223C913.848 207.006 913.293 206.752 913.293 206.04C913.293 205.424 913.848 205.062 914.621 205.062C915.611 205.062 916.48 205.497 916.927 206.499L917.953 205.521C917.374 204.41 916.191 203.794 914.706 203.794C913.184 203.794 911.868 204.615 911.868 206.136C911.868 207.67 913.088 208.189 914.235 208.43L914.995 208.599C916.046 208.829 916.698 209.046 916.698 209.831C916.698 210.567 916.046 210.857 915.237 210.857C914.247 210.857 913.027 210.398 912.593 209.215L911.627 210.193C912.255 211.558 913.667 212.113 915.213 212.113ZM922.376 211.992C924.887 211.992 926.227 210.447 926.227 207.947C926.227 205.448 924.875 203.903 922.376 203.903H919.321V211.992H922.376ZM922.206 205.11C923.885 205.11 924.802 205.919 924.802 207.947C924.802 209.976 923.885 210.785 922.219 210.785H920.685V205.11H922.206ZM930.762 211.992L931.535 209.952H934.952L935.725 211.992H937.222L934.059 203.903H932.489L929.326 211.992H930.762ZM932.815 206.583L933.25 205.122L933.684 206.583L934.505 208.769H931.982L932.815 206.583ZM940.272 212.113C941.745 212.113 942.674 211.28 942.988 210.169L941.769 209.565C941.636 210.411 941.214 210.978 940.296 210.978C939.366 210.978 938.799 210.29 938.799 209.058C938.799 207.815 939.366 207.126 940.296 207.126C941.201 207.126 941.636 207.694 941.769 208.539L942.988 207.935C942.674 206.825 941.745 205.992 940.272 205.992C938.521 205.992 937.422 207.223 937.422 209.058C937.422 210.881 938.521 212.113 940.272 212.113ZM946.474 212.113C947.947 212.113 948.876 211.28 949.19 210.169L947.971 209.565C947.838 210.411 947.415 210.978 946.498 210.978C945.568 210.978 945.001 210.29 945.001 209.058C945.001 207.815 945.568 207.126 946.498 207.126C947.403 207.126 947.838 207.694 947.971 208.539L949.19 207.935C948.876 206.825 947.947 205.992 946.474 205.992C944.723 205.992 943.624 207.223 943.624 209.058C943.624 210.881 944.723 212.113 946.474 212.113ZM952.603 212.113C954.318 212.113 955.477 210.881 955.477 209.058C955.477 207.223 954.318 205.992 952.603 205.992C950.913 205.992 949.754 207.223 949.754 209.058C949.754 210.881 950.913 212.113 952.603 212.113ZM952.615 210.99C951.746 210.99 951.142 210.411 951.142 209.058C951.142 207.694 951.746 207.114 952.615 207.114C953.497 207.114 954.1 207.694 954.1 209.058C954.1 210.411 953.497 210.99 952.615 210.99ZM958.436 212.113C959.607 212.113 960.21 211.316 960.428 210.386V211.992H961.792V206.112H960.428V209.408C960.428 210.374 960.09 211.014 959.1 211.014C958.194 211.014 957.953 210.519 957.953 209.795V206.112H956.6V210.205C956.6 211.425 957.301 212.113 958.436 212.113ZM964.568 211.992V208.696C964.568 207.73 964.906 207.09 965.896 207.09C966.802 207.09 967.043 207.585 967.043 208.31V211.992H968.407V207.899C968.407 206.68 967.707 205.992 966.56 205.992C965.389 205.992 964.785 206.788 964.568 207.718V206.112H963.216V211.992H964.568ZM971.767 212.125C972.624 212.125 973.203 211.727 973.457 211.352L973.034 210.145C972.865 210.483 972.527 210.857 972.069 210.857C971.67 210.857 971.368 210.7 971.368 210.06V207.163H973.167V206.112H971.368V204.543L970.016 205.4V206.112H969.098V207.163H970.016V210.386C970.016 211.425 970.656 212.125 971.767 212.125Z" fill="black"/>
<path d="M793.693 462.52V455.638H796.181V454.43H789.854V455.638H792.329V462.52H793.693ZM798.057 462.52V459.284C798.057 458.306 798.684 457.533 799.36 457.533C799.759 457.533 799.916 457.799 799.916 458.125C799.916 458.463 799.735 458.849 799.542 459.042H800.93C801.039 458.861 801.196 458.439 801.196 457.871C801.196 457.002 800.652 456.519 799.916 456.519C798.865 456.519 798.274 457.364 798.057 458.306V456.64H796.704V462.52H798.057ZM803.277 462.64C804.509 462.64 805.076 461.723 805.257 460.95V461.385C805.257 462.23 805.752 462.52 806.38 462.52H807.213V461.36H806.839C806.622 461.36 806.525 461.276 806.525 461.01V458.801C806.525 457.352 805.704 456.519 804.243 456.519C802.939 456.519 802.022 457.195 801.563 457.823L802.372 458.789C802.71 458.173 803.326 457.714 804.11 457.714C804.919 457.714 805.185 458.113 805.233 458.704L803.265 459.537C802.311 459.912 801.732 460.419 801.732 461.252C801.732 462.097 802.311 462.64 803.277 462.64ZM803.036 461.047C803.036 460.745 803.241 460.539 803.748 460.31L805.257 459.634V460.262C805.257 461.059 804.654 461.59 803.76 461.59C803.265 461.59 803.036 461.385 803.036 461.047ZM809.6 462.52V459.223C809.6 458.258 809.938 457.618 810.928 457.618C811.833 457.618 812.075 458.113 812.075 458.837V462.52H813.439V458.427C813.439 457.207 812.739 456.519 811.592 456.519C810.421 456.519 809.817 457.316 809.6 458.245V456.64H808.247V462.52H809.6ZM817.065 462.64C818.308 462.64 819.286 462.061 819.286 460.902C819.286 460.056 818.803 459.525 817.487 459.187L816.775 459.006C815.978 458.801 815.664 458.644 815.664 458.221C815.664 457.823 816.014 457.606 816.534 457.606C817.294 457.606 817.922 457.992 818.333 458.644L819.129 457.799C818.767 457.135 817.886 456.531 816.63 456.531C815.278 456.531 814.397 457.195 814.397 458.294C814.397 459.368 815.254 459.779 816.183 459.996L816.968 460.189C817.62 460.346 818.067 460.491 818.067 460.926C818.067 461.348 817.693 461.554 817.113 461.554C816.063 461.554 815.338 460.95 815.012 460.358L814.215 461.203C814.662 462.133 815.809 462.64 817.065 462.64ZM821.624 462.64C822.855 462.64 823.423 461.723 823.604 460.95V461.385C823.604 462.23 824.099 462.52 824.727 462.52H825.56V461.36H825.185C824.968 461.36 824.871 461.276 824.871 461.01V458.801C824.871 457.352 824.05 456.519 822.59 456.519C821.286 456.519 820.368 457.195 819.909 457.823L820.718 458.789C821.056 458.173 821.672 457.714 822.457 457.714C823.266 457.714 823.531 458.113 823.58 458.704L821.612 459.537C820.658 459.912 820.078 460.419 820.078 461.252C820.078 462.097 820.658 462.64 821.624 462.64ZM821.382 461.047C821.382 460.745 821.587 460.539 822.095 460.31L823.604 459.634V460.262C823.604 461.059 823 461.59 822.107 461.59C821.612 461.59 821.382 461.385 821.382 461.047ZM829.118 462.64C830.591 462.64 831.52 461.807 831.834 460.696L830.615 460.093C830.482 460.938 830.06 461.505 829.142 461.505C828.212 461.505 827.645 460.817 827.645 459.586C827.645 458.342 828.212 457.654 829.142 457.654C830.047 457.654 830.482 458.221 830.615 459.066L831.834 458.463C831.52 457.352 830.591 456.519 829.118 456.519C827.367 456.519 826.268 457.75 826.268 459.586C826.268 461.409 827.367 462.64 829.118 462.64ZM834.98 462.652C835.837 462.652 836.416 462.254 836.67 461.88L836.247 460.672C836.078 461.01 835.74 461.385 835.281 461.385C834.883 461.385 834.581 461.228 834.581 460.588V457.69H836.38V456.64H834.581V455.07L833.229 455.927V456.64H832.311V457.69H833.229V460.914C833.229 461.952 833.869 462.652 834.98 462.652ZM838.935 455.807V454.43H837.583V455.807H838.935ZM838.935 462.52V456.64H837.583V462.52H838.935ZM842.84 462.64C844.555 462.64 845.714 461.409 845.714 459.586C845.714 457.75 844.555 456.519 842.84 456.519C841.15 456.519 839.991 457.75 839.991 459.586C839.991 461.409 841.15 462.64 842.84 462.64ZM842.853 461.517C841.983 461.517 841.38 460.938 841.38 459.586C841.38 458.221 841.983 457.642 842.853 457.642C843.734 457.642 844.338 458.221 844.338 459.586C844.338 460.938 843.734 461.517 842.853 461.517ZM848.226 462.52V459.223C848.226 458.258 848.564 457.618 849.554 457.618C850.46 457.618 850.701 458.113 850.701 458.837V462.52H852.066V458.427C852.066 457.207 851.365 456.519 850.218 456.519C849.047 456.519 848.443 457.316 848.226 458.245V456.64H846.874V462.52H848.226ZM855.691 462.64C856.935 462.64 857.913 462.061 857.913 460.902C857.913 460.056 857.43 459.525 856.114 459.187L855.401 459.006C854.605 458.801 854.291 458.644 854.291 458.221C854.291 457.823 854.641 457.606 855.16 457.606C855.921 457.606 856.548 457.992 856.959 458.644L857.756 457.799C857.394 457.135 856.512 456.531 855.257 456.531C853.904 456.531 853.023 457.195 853.023 458.294C853.023 459.368 853.88 459.779 854.81 459.996L855.595 460.189C856.247 460.346 856.693 460.491 856.693 460.926C856.693 461.348 856.319 461.554 855.74 461.554C854.689 461.554 853.965 460.95 853.639 460.358L852.842 461.203C853.289 462.133 854.436 462.64 855.691 462.64Z" fill="black"/>
<path d="M1032.9 462.52L1035.91 454.43H1034.82L1032.99 459.501L1032.39 461.59L1031.78 459.501L1029.97 454.43H1028.81L1031.85 462.52H1032.9ZM1037.83 455.734V454.43H1036.78V455.734H1037.83ZM1037.83 462.52V456.676H1036.78V462.52H1037.83ZM1041.9 462.64C1043.16 462.64 1043.97 462.049 1044.41 461.348L1043.77 460.624C1043.54 461.131 1043.07 461.771 1041.9 461.771C1040.86 461.771 1040.17 461.071 1040.11 459.839H1044.44C1044.47 459.731 1044.49 459.549 1044.49 459.368C1044.49 457.654 1043.49 456.555 1041.83 456.555C1040.23 456.555 1039.09 457.75 1039.09 459.598C1039.09 461.457 1040.24 462.64 1041.9 462.64ZM1041.83 457.436C1042.81 457.436 1043.44 458.004 1043.55 459.079H1040.13C1040.27 457.992 1040.89 457.436 1041.83 457.436ZM1047.77 462.52L1048.77 459.103L1049.17 457.545L1049.55 459.103L1050.55 462.52H1051.93L1053.44 456.676H1052.26L1051.52 460.274L1051.24 461.759L1050.86 460.274L1049.81 456.676H1048.52L1047.46 460.274L1047.1 461.759L1046.82 460.274L1046.06 456.676H1044.89L1046.41 462.52H1047.77ZM1058.23 462.64C1059.44 462.64 1060.07 461.771 1060.26 460.998V461.409C1060.26 462.23 1060.69 462.52 1061.3 462.52H1061.97V461.566H1061.6C1061.38 461.566 1061.27 461.481 1061.27 461.203V458.801C1061.27 457.412 1060.5 456.555 1059.06 456.555C1057.76 456.555 1056.89 457.292 1056.54 457.895L1057.25 458.632C1057.55 457.992 1058.11 457.509 1058.94 457.509C1059.86 457.509 1060.19 458.016 1060.22 458.704L1058.11 459.646C1057.28 460.02 1056.69 460.515 1056.69 461.3C1056.69 462.073 1057.24 462.64 1058.23 462.64ZM1057.75 461.131C1057.75 460.769 1058 460.527 1058.56 460.262L1060.26 459.465V460.274C1060.26 461.119 1059.56 461.771 1058.57 461.771C1058.03 461.771 1057.75 461.529 1057.75 461.131ZM1064.24 462.52V454.43H1063.19V462.52H1064.24ZM1066.87 462.52V454.43H1065.82V462.52H1066.87Z" fill="url(#paint14_linear_3374_29336)"/>
<path d="M897.064 255.512L897.835 253.536H900.93L901.702 255.512H902.716L899.863 248.434H898.944L896.092 255.512H897.064ZM899.029 250.483L899.388 249.374L899.737 250.483L900.613 252.723H898.152L899.029 250.483ZM905.38 255.617C906.711 255.617 907.493 254.846 907.736 253.821L906.838 253.452C906.732 254.265 906.31 254.857 905.391 254.857C904.461 254.857 903.901 254.159 903.901 252.955C903.901 251.751 904.461 251.064 905.391 251.064C906.31 251.064 906.732 251.645 906.838 252.459L907.736 252.089C907.493 251.064 906.711 250.293 905.38 250.293C903.912 250.293 902.971 251.339 902.971 252.955C902.971 254.582 903.912 255.617 905.38 255.617ZM910.858 255.617C912.189 255.617 912.971 254.846 913.214 253.821L912.316 253.452C912.211 254.265 911.788 254.857 910.869 254.857C909.939 254.857 909.379 254.159 909.379 252.955C909.379 251.751 909.939 251.064 910.869 251.064C911.788 251.064 912.211 251.645 912.316 252.459L913.214 252.089C912.971 251.064 912.189 250.293 910.858 250.293C909.39 250.293 908.45 251.339 908.45 252.955C908.45 254.582 909.39 255.617 910.858 255.617ZM916.263 255.617C917.678 255.617 918.682 254.571 918.682 252.955C918.682 251.339 917.678 250.293 916.263 250.293C914.847 250.293 913.854 251.339 913.854 252.955C913.854 254.571 914.847 255.617 916.263 255.617ZM916.263 254.846C915.396 254.846 914.794 254.244 914.794 252.955C914.794 251.656 915.396 251.064 916.263 251.064C917.139 251.064 917.752 251.656 917.752 252.955C917.752 254.244 917.139 254.846 916.263 254.846ZM921.431 255.617C922.456 255.617 923.005 254.92 923.195 254.117V255.512H924.104V250.399H923.195V253.304C923.195 254.149 922.836 254.846 921.843 254.846C920.977 254.846 920.713 254.371 920.713 253.716V250.399H919.804V253.938C919.804 255.015 920.427 255.617 921.431 255.617ZM926.419 255.512V252.617C926.419 251.761 926.778 251.075 927.761 251.075C928.627 251.075 928.891 251.539 928.891 252.205V255.512H929.8V251.983C929.8 250.895 929.176 250.293 928.173 250.293C927.169 250.293 926.62 250.969 926.419 251.761V250.399H925.5V255.512H926.419ZM932.731 255.628C933.439 255.628 933.925 255.3 934.146 254.952L933.84 254.043C933.703 254.36 933.386 254.741 932.932 254.741C932.53 254.741 932.224 254.582 932.224 253.927V251.117H933.903V250.399H932.224V249.067L931.305 249.744V250.399H930.481V251.117H931.305V254.202C931.305 255.079 931.896 255.628 932.731 255.628ZM940.345 255.512C941.877 255.512 942.785 254.814 942.785 253.61C942.785 252.702 942.268 251.973 940.789 251.814C941.972 251.687 942.468 251.001 942.468 250.24C942.468 249.162 941.75 248.434 940.398 248.434H937.408V255.512H940.345ZM940.081 249.247C940.926 249.247 941.518 249.511 941.518 250.356C941.518 251.212 940.937 251.466 940.123 251.466H938.327V249.247H940.081ZM940.229 252.29C941.148 252.29 941.835 252.638 941.835 253.494C941.835 254.339 941.317 254.698 940.197 254.698H938.327V252.29H940.229ZM945.096 255.617C946.152 255.617 946.702 254.857 946.871 254.181V254.54C946.871 255.258 947.251 255.512 947.779 255.512H948.371V254.677H948.043C947.853 254.677 947.758 254.603 947.758 254.36V252.258C947.758 251.043 947.082 250.293 945.825 250.293C944.684 250.293 943.923 250.937 943.617 251.466L944.24 252.11C944.504 251.55 944.99 251.127 945.719 251.127C946.522 251.127 946.807 251.571 946.839 252.173L944.99 252.997C944.261 253.325 943.743 253.758 943.743 254.445C943.743 255.121 944.229 255.617 945.096 255.617ZM944.673 254.297C944.673 253.98 944.895 253.769 945.381 253.536L946.871 252.839V253.547C946.871 254.286 946.258 254.857 945.392 254.857C944.916 254.857 944.673 254.645 944.673 254.297ZM950.354 255.512V248.434H949.435V255.512H950.354ZM952.792 255.617C953.849 255.617 954.398 254.857 954.567 254.181V254.54C954.567 255.258 954.947 255.512 955.475 255.512H956.067V254.677H955.74C955.549 254.677 955.454 254.603 955.454 254.36V252.258C955.454 251.043 954.778 250.293 953.521 250.293C952.38 250.293 951.619 250.937 951.313 251.466L951.936 252.11C952.201 251.55 952.686 251.127 953.415 251.127C954.218 251.127 954.504 251.571 954.535 252.173L952.686 252.997C951.958 253.325 951.44 253.758 951.44 254.445C951.44 255.121 951.926 255.617 952.792 255.617ZM952.37 254.297C952.37 253.98 952.591 253.769 953.077 253.536L954.567 252.839V253.547C954.567 254.286 953.954 254.857 953.088 254.857C952.613 254.857 952.37 254.645 952.37 254.297ZM958.051 255.512V252.617C958.051 251.761 958.41 251.075 959.392 251.075C960.258 251.075 960.523 251.539 960.523 252.205V255.512H961.431V251.983C961.431 250.895 960.808 250.293 959.804 250.293C958.801 250.293 958.251 250.969 958.051 251.761V250.399H957.131V255.512H958.051ZM964.898 255.617C966.229 255.617 967.011 254.846 967.254 253.821L966.356 253.452C966.25 254.265 965.828 254.857 964.909 254.857C963.979 254.857 963.419 254.159 963.419 252.955C963.419 251.751 963.979 251.064 964.909 251.064C965.828 251.064 966.25 251.645 966.356 252.459L967.254 252.089C967.011 251.064 966.229 250.293 964.898 250.293C963.43 250.293 962.489 251.339 962.489 252.955C962.489 254.582 963.43 255.617 964.898 255.617ZM970.429 255.617C971.539 255.617 972.246 255.1 972.627 254.487L972.067 253.853C971.866 254.297 971.454 254.857 970.429 254.857C969.521 254.857 968.919 254.244 968.866 253.166H972.658C972.68 253.071 972.701 252.913 972.701 252.754C972.701 251.254 971.824 250.293 970.376 250.293C968.971 250.293 967.978 251.339 967.978 252.955C967.978 254.582 968.982 255.617 970.429 255.617ZM970.376 251.064C971.232 251.064 971.782 251.561 971.877 252.501H968.887C969.003 251.55 969.552 251.064 970.376 251.064Z" fill="#6B7280"/>
<path d="M867.924 292.303V289.144C872.228 288.867 875.353 286.506 875.353 282.549C875.353 278.106 872.02 276.648 868.306 275.746L867.924 275.642V269.289C869.66 269.845 871.152 271.06 872.02 273.038L874.971 270.226C873.617 267.623 871.118 265.957 867.924 265.436V262.104H865.494V265.263C861.26 265.263 857.476 267.623 857.476 271.997C857.476 276.405 860.982 277.898 864.279 278.592L865.494 278.87V285.43C863.065 284.979 860.565 283.591 859.559 280.848L856.782 283.66C858.378 287.096 861.711 288.763 865.494 289.11V292.303H867.924ZM861.572 271.719C861.572 269.949 863.169 268.907 865.39 268.907H865.494V275.051C863.169 274.496 861.572 273.767 861.572 271.719ZM871.361 282.619C871.361 284.493 869.868 285.361 867.924 285.534V279.425C870.076 280.015 871.361 280.744 871.361 282.619ZM888.403 289.179C893.68 289.179 896.977 285.986 896.977 281.195C896.977 276.579 894.409 273.593 890 273.593C886.911 273.593 885.036 275.26 884.307 277.342L884.863 269.185H895.242V265.575H881.114L880.35 278.8L884.169 279.182L884.203 278.87C884.412 277.377 885.974 276.44 888.195 276.44C890.59 276.44 892.777 277.759 892.777 281.022C892.777 283.729 891.25 285.396 888.438 285.396C885.453 285.396 883.405 283.66 882.607 280.779L879.482 283.799C880.663 286.819 883.96 289.179 888.403 289.179ZM909.556 289.144C916.047 289.144 919.31 284.007 919.31 277.169C919.31 270.365 916.047 265.228 909.556 265.228C903.065 265.228 899.767 270.365 899.767 277.169C899.767 284.007 903.065 289.144 909.556 289.144ZM909.556 285.396C905.425 285.396 903.898 282.063 903.898 277.169C903.898 272.309 905.425 268.942 909.556 268.942C913.721 268.942 915.214 272.309 915.214 277.169C915.214 282.063 913.721 285.396 909.556 285.396ZM932.234 289.144C938.725 289.144 941.988 284.007 941.988 277.169C941.988 270.365 938.725 265.228 932.234 265.228C925.743 265.228 922.445 270.365 922.445 277.169C922.445 284.007 925.743 289.144 932.234 289.144ZM932.234 285.396C928.103 285.396 926.576 282.063 926.576 277.169C926.576 272.309 928.103 268.942 932.234 268.942C936.399 268.942 937.892 272.309 937.892 277.169C937.892 282.063 936.399 285.396 932.234 285.396ZM949.058 288.832V283.903H944.615V288.832H949.058ZM967.855 288.832V283.591H971.777V280.189H967.855V265.575H963.724L952.339 280.571V283.591H963.967V288.832H967.855ZM956.643 280.189L963.967 270.643V280.189H956.643ZM983.149 289.179C988.426 289.179 991.723 285.986 991.723 281.195C991.723 276.579 989.155 273.593 984.746 273.593C981.657 273.593 979.782 275.26 979.053 277.342L979.609 269.185H989.988V265.575H975.86L975.096 278.8L978.914 279.182L978.949 278.87C979.157 277.377 980.72 276.44 982.941 276.44C985.336 276.44 987.523 277.759 987.523 281.022C987.523 283.729 985.996 285.396 983.184 285.396C980.199 285.396 978.151 283.66 977.352 280.779L974.228 283.799C975.409 286.819 978.706 289.179 983.149 289.179ZM1003.88 289.179C1008.88 289.179 1012.32 285.812 1012.32 281.126C1012.32 276.926 1010.2 273.663 1005.51 273.663C1001.94 273.663 999.578 275.711 999.092 279.147V276.926C999.092 270.747 1001.45 269.081 1004.16 269.081C1006.49 269.081 1008.19 270.365 1009.23 272.448L1011.9 269.22C1010.44 266.859 1007.8 265.228 1004.37 265.228C998.155 265.228 994.857 269.463 994.857 276.926V277.308C994.857 285.951 998.294 289.179 1003.88 289.179ZM1003.78 285.465C1001 285.465 999.37 283.972 999.37 280.779C999.37 278.141 1001.11 276.718 1003.85 276.718C1006.8 276.718 1008.12 278.488 1008.12 281.126C1008.12 283.591 1006.49 285.465 1003.78 285.465Z" fill="black"/>
<rect x="789.637" y="330.027" width="135.829" height="33.2027" rx="16.6014" fill="#E2E8F0"/>
<rect x="943.574" y="330.027" width="135.829" height="33.2027" rx="16.6014" fill="#F3F4F6"/>
<path d="M836.978 349.836L837.654 348.051H840.644L841.32 349.836H842.63L839.862 342.758H838.489L835.721 349.836H836.978ZM838.774 345.103L839.154 343.825L839.535 345.103L840.253 347.015H838.045L838.774 345.103ZM844.855 349.952C845.88 349.952 846.313 349.265 846.482 348.473V349.836H847.665V342.758H846.482V346.075C846.313 345.272 845.858 344.585 844.834 344.585C843.587 344.585 842.784 345.61 842.784 347.269C842.784 348.927 843.587 349.952 844.855 349.952ZM843.999 347.269C843.999 346.117 844.559 345.547 845.299 345.547C846.133 345.547 846.482 346.107 846.482 346.952V347.596C846.482 348.441 846.133 348.991 845.309 348.991C844.559 348.991 843.999 348.431 843.999 347.269ZM850.694 349.952C851.719 349.952 852.152 349.265 852.321 348.473V349.836H853.504V342.758H852.321V346.075C852.152 345.272 851.698 344.585 850.673 344.585C849.426 344.585 848.624 345.61 848.624 347.269C848.624 348.927 849.426 349.952 850.694 349.952ZM849.839 347.269C849.839 346.117 850.398 345.547 851.138 345.547C851.973 345.547 852.321 346.107 852.321 346.952V347.596C852.321 348.441 851.973 348.991 851.149 348.991C850.398 348.991 849.839 348.431 849.839 347.269ZM860.189 349.92C861.753 349.92 862.83 349.107 863.327 347.734L862.291 346.973C862.069 348.029 861.414 348.79 860.2 348.79C858.742 348.79 858.055 347.744 858.055 346.286C858.055 344.818 858.742 343.782 860.2 343.782C861.414 343.782 862.069 344.533 862.291 345.6L863.327 344.839C862.83 343.455 861.753 342.652 860.189 342.652C858.013 342.652 856.787 344.247 856.787 346.286C856.787 348.325 858.013 349.92 860.189 349.92ZM865.41 349.942C866.488 349.942 866.985 349.139 867.143 348.463V348.843C867.143 349.582 867.576 349.836 868.125 349.836H868.854V348.822H868.527C868.337 348.822 868.252 348.748 868.252 348.515V346.582C868.252 345.314 867.534 344.585 866.256 344.585C865.115 344.585 864.312 345.177 863.91 345.726L864.618 346.572C864.914 346.033 865.453 345.631 866.139 345.631C866.847 345.631 867.08 345.98 867.122 346.498L865.4 347.227C864.565 347.554 864.058 347.998 864.058 348.727C864.058 349.466 864.565 349.942 865.41 349.942ZM865.199 348.547C865.199 348.283 865.379 348.103 865.822 347.903L867.143 347.311V347.86C867.143 348.558 866.615 349.022 865.833 349.022C865.4 349.022 865.199 348.843 865.199 348.547ZM871.718 349.942C872.806 349.942 873.662 349.434 873.662 348.42C873.662 347.681 873.239 347.216 872.087 346.92L871.464 346.762C870.767 346.582 870.492 346.445 870.492 346.075C870.492 345.726 870.799 345.536 871.253 345.536C871.918 345.536 872.468 345.874 872.827 346.445L873.524 345.705C873.207 345.124 872.436 344.596 871.337 344.596C870.154 344.596 869.383 345.177 869.383 346.138C869.383 347.079 870.133 347.438 870.946 347.628L871.633 347.797C872.204 347.934 872.595 348.061 872.595 348.441C872.595 348.811 872.267 348.991 871.76 348.991C870.841 348.991 870.207 348.463 869.922 347.945L869.224 348.684C869.615 349.498 870.619 349.942 871.718 349.942ZM875.781 349.836V346.952C875.781 346.107 876.077 345.547 876.943 345.547C877.736 345.547 877.947 345.98 877.947 346.614V349.836H879.141V346.255C879.141 345.188 878.528 344.585 877.524 344.585C876.499 344.585 875.971 345.283 875.781 346.096V342.758H874.598V349.836H875.781Z" fill="black"/>
<path d="M995.31 349.836V348.779H991.497V346.751H994.655V345.695H991.497V343.814H995.31V342.758H990.303V349.836H995.31ZM996.85 349.836L997.611 348.632L998.086 347.829L998.572 348.642L999.333 349.836H1000.68L998.952 347.237L1000.74 344.691H999.385L998.625 345.885L998.17 346.677L997.695 345.853L996.956 344.691H995.603L997.315 347.258L995.498 349.836H996.85ZM1003.25 349.942C1004.54 349.942 1005.35 349.213 1005.63 348.241L1004.56 347.712C1004.44 348.452 1004.07 348.949 1003.27 348.949C1002.46 348.949 1001.96 348.346 1001.96 347.269C1001.96 346.181 1002.46 345.578 1003.27 345.578C1004.06 345.578 1004.44 346.075 1004.56 346.814L1005.63 346.286C1005.35 345.314 1004.54 344.585 1003.25 344.585C1001.72 344.585 1000.76 345.663 1000.76 347.269C1000.76 348.864 1001.72 349.942 1003.25 349.942ZM1007.72 349.836V346.952C1007.72 346.107 1008.02 345.547 1008.89 345.547C1009.68 345.547 1009.89 345.98 1009.89 346.614V349.836H1011.08V346.255C1011.08 345.188 1010.47 344.585 1009.47 344.585C1008.44 344.585 1007.91 345.283 1007.72 346.096V342.758H1006.54V349.836H1007.72ZM1013.4 349.942C1014.47 349.942 1014.97 349.139 1015.13 348.463V348.843C1015.13 349.582 1015.56 349.836 1016.11 349.836H1016.84V348.822H1016.51C1016.32 348.822 1016.24 348.748 1016.24 348.515V346.582C1016.24 345.314 1015.52 344.585 1014.24 344.585C1013.1 344.585 1012.3 345.177 1011.89 345.726L1012.6 346.572C1012.9 346.033 1013.44 345.631 1014.12 345.631C1014.83 345.631 1015.06 345.98 1015.11 346.498L1013.38 347.227C1012.55 347.554 1012.04 347.998 1012.04 348.727C1012.04 349.466 1012.55 349.942 1013.4 349.942ZM1013.18 348.547C1013.18 348.283 1013.36 348.103 1013.81 347.903L1015.13 347.311V347.86C1015.13 348.558 1014.6 349.022 1013.82 349.022C1013.38 349.022 1013.18 348.843 1013.18 348.547ZM1018.93 349.836V346.952C1018.93 346.107 1019.22 345.547 1020.09 345.547C1020.88 345.547 1021.09 345.98 1021.09 346.614V349.836H1022.29V346.255C1022.29 345.188 1021.67 344.585 1020.67 344.585C1019.65 344.585 1019.12 345.283 1018.93 346.096V344.691H1017.74V349.836H1018.93ZM1025.55 348.294C1026.82 348.294 1027.68 347.533 1027.68 346.445C1027.68 345.8 1027.38 345.272 1026.87 344.945L1027.83 343.888L1026.69 343.497L1026.44 344.733C1026.18 344.638 1025.88 344.585 1025.55 344.585C1024.28 344.585 1023.42 345.357 1023.42 346.445C1023.42 347.1 1023.73 347.639 1024.25 347.955C1023.78 348.283 1023.38 348.737 1023.38 349.202C1023.38 349.593 1023.62 349.836 1023.99 349.942C1023.49 350.058 1023.03 350.322 1023.03 350.808C1023.03 351.452 1023.86 351.907 1025.3 351.907C1027.17 351.907 1028.12 351.167 1028.12 350.195C1028.12 349.424 1027.56 349.012 1026.53 349.012H1024.88C1024.4 349.012 1024.26 348.875 1024.26 348.61C1024.26 348.431 1024.38 348.23 1024.47 348.072C1024.78 348.22 1025.15 348.294 1025.55 348.294ZM1025.55 347.448C1024.99 347.448 1024.55 347.089 1024.55 346.445C1024.55 345.8 1024.99 345.441 1025.55 345.441C1026.11 345.441 1026.56 345.8 1026.56 346.445C1026.56 347.089 1026.11 347.448 1025.55 347.448ZM1025.35 351.019C1024.41 351.019 1023.99 350.797 1023.99 350.417C1023.99 350.237 1024.12 350.068 1024.23 349.952H1026.38C1026.83 349.952 1027.05 350.068 1027.05 350.343C1027.05 350.776 1026.46 351.019 1025.35 351.019ZM1031.04 349.942C1032.19 349.942 1032.88 349.424 1033.27 348.832L1032.54 348.072C1032.35 348.505 1031.95 348.97 1031.05 348.97C1030.24 348.97 1029.7 348.473 1029.64 347.554H1033.32C1033.34 347.448 1033.36 347.227 1033.36 347.036C1033.36 345.61 1032.5 344.585 1030.96 344.585C1029.51 344.585 1028.51 345.652 1028.51 347.269C1028.51 348.875 1029.51 349.942 1031.04 349.942ZM1030.96 345.536C1031.74 345.536 1032.21 345.98 1032.29 346.793H1029.65C1029.74 345.959 1030.23 345.536 1030.96 345.536Z" fill="black"/>
<circle cx="1076.76" cy="202.878" r="1.13191" fill="black"/>
<circle cx="1076.76" cy="208.913" r="1.13191" fill="black"/>
<circle cx="1076.76" cy="214.952" r="1.13191" fill="black"/>
<rect x="791.898" y="383.473" width="290.106" height="37.7303" rx="18.8652" transform="rotate(-0.421284 791.898 383.473)" fill="url(#paint15_linear_3374_29336)"/>
<path d="M911.697 405.028C913.134 405.028 914.212 404.288 914.212 403.01C914.212 401.657 913.198 401.214 912.067 400.939L911.275 400.749C910.504 400.559 910.018 400.337 910.018 399.714C910.018 399.175 910.504 398.858 911.18 398.858C912.046 398.858 912.807 399.238 913.198 400.115L914.096 399.259C913.588 398.287 912.553 397.749 911.254 397.749C909.923 397.749 908.771 398.467 908.771 399.798C908.771 401.14 909.838 401.594 910.842 401.805L911.507 401.953C912.426 402.154 912.997 402.344 912.997 403.031C912.997 403.675 912.426 403.929 911.719 403.929C910.852 403.929 909.785 403.527 909.405 402.492L908.56 403.348C909.109 404.542 910.345 405.028 911.697 405.028ZM917.572 405.028C918.713 405.028 919.41 404.51 919.801 403.918L919.072 403.158C918.882 403.591 918.481 404.056 917.583 404.056C916.769 404.056 916.231 403.559 916.167 402.64H919.844C919.865 402.534 919.886 402.312 919.886 402.122C919.886 400.696 919.03 399.671 917.488 399.671C916.04 399.671 915.037 400.738 915.037 402.355C915.037 403.961 916.04 405.028 917.572 405.028ZM917.488 400.622C918.27 400.622 918.734 401.066 918.819 401.879H916.178C916.273 401.045 916.759 400.622 917.488 400.622ZM922.107 404.922V402.038C922.107 401.193 922.402 400.633 923.269 400.633C924.061 400.633 924.272 401.066 924.272 401.7V404.922H925.466V401.341C925.466 400.273 924.853 399.671 923.85 399.671C922.825 399.671 922.297 400.369 922.107 401.182V399.777H920.923V404.922H922.107ZM928.445 405.038C929.47 405.038 929.903 404.351 930.072 403.559V404.922H931.255V397.844H930.072V401.161C929.903 400.358 929.449 399.671 928.424 399.671C927.177 399.671 926.374 400.696 926.374 402.355C926.374 404.013 927.177 405.038 928.445 405.038ZM927.589 402.355C927.589 401.203 928.149 400.633 928.889 400.633C929.723 400.633 930.072 401.193 930.072 402.038V402.682C930.072 403.527 929.723 404.077 928.899 404.077C928.149 404.077 927.589 403.517 927.589 402.355ZM935.964 404.922V401.594L935.795 399.259L936.63 401.288L937.855 403.728H939.06L940.285 401.288L941.098 399.259L940.951 401.594V404.922H942.144V397.844H940.686L939.165 400.95L938.457 402.756L937.76 400.95L936.239 397.844H934.77V404.922H935.964ZM945.601 405.028C947.101 405.028 948.115 403.95 948.115 402.355C948.115 400.749 947.101 399.671 945.601 399.671C944.121 399.671 943.107 400.749 943.107 402.355C943.107 403.95 944.121 405.028 945.601 405.028ZM945.611 404.045C944.85 404.045 944.322 403.538 944.322 402.355C944.322 401.161 944.85 400.654 945.611 400.654C946.382 400.654 946.911 401.161 946.911 402.355C946.911 403.538 946.382 404.045 945.611 404.045ZM950.313 404.922V402.038C950.313 401.193 950.609 400.633 951.475 400.633C952.267 400.633 952.479 401.066 952.479 401.7V404.922H953.672V401.341C953.672 400.273 953.06 399.671 952.056 399.671C951.031 399.671 950.503 400.369 950.313 401.182V399.777H949.13V404.922H950.313ZM957.148 405.028C958.289 405.028 958.986 404.51 959.377 403.918L958.648 403.158C958.458 403.591 958.056 404.056 957.158 404.056C956.345 404.056 955.806 403.559 955.743 402.64H959.419C959.44 402.534 959.461 402.312 959.461 402.122C959.461 400.696 958.606 399.671 957.063 399.671C955.616 399.671 954.612 400.738 954.612 402.355C954.612 403.961 955.616 405.028 957.148 405.028ZM957.063 400.622C957.845 400.622 958.31 401.066 958.394 401.879H955.753C955.848 401.045 956.334 400.622 957.063 400.622ZM961.368 406.686C962.203 406.686 962.805 406.316 963.175 405.281L965.077 399.777H963.767L962.847 402.693L962.478 404.066L962.108 402.693L961.178 399.777H959.879L961.58 404.605H962.309L962.214 404.89C962.023 405.461 961.77 405.64 961.368 405.64C960.893 405.64 960.576 405.344 960.301 404.954L959.742 405.904C960.027 406.306 960.629 406.686 961.368 406.686Z" fill="white"/>
</g>
<rect x="886.984" y="137.598" width="96.5897" height="29.4297" rx="14.7148" fill="#000001"/>
<g opacity="0.5">
<circle cx="968.483" cy="151.931" r="6.03685" transform="rotate(90 968.483 151.931)" stroke="#A0A9BB" stroke-opacity="0.25" stroke-width="0.754607"/>
<circle cx="968.483" cy="151.931" r="6.03685" transform="rotate(90 968.483 151.931)" stroke="url(#paint16_linear_3374_29336)" stroke-width="0.754607"/>
</g>
<g filter="url(#filter0_i_3374_29336)">
<ellipse cx="968.485" cy="154.508" rx="1.56639" ry="3.01843" transform="rotate(90 968.485 154.508)" fill="url(#paint17_radial_3374_29336)"/>
</g>
<g filter="url(#filter1_i_3374_29336)">
<ellipse cx="1.56639" cy="3.01843" rx="1.56639" ry="3.01843" transform="matrix(-1.19249e-08 -1 -1 1.19249e-08 971.504 151.047)" fill="url(#paint18_radial_3374_29336)"/>
</g>
<rect x="765.551" y="190.863" width="1.60088" height="11.2062" fill="url(#paint19_linear_3374_29336)"/>
<rect x="1103.34" y="190.863" width="1.60088" height="11.2062" fill="url(#paint20_linear_3374_29336)"/>
<rect x="1042.5" y="118.828" width="1.60088" height="11.2062" transform="rotate(90 1042.5 118.828)" fill="url(#paint21_linear_3374_29336)"/>
<rect x="835.996" y="118.828" width="1.60088" height="11.2062" transform="rotate(90 835.996 118.828)" fill="url(#paint22_linear_3374_29336)"/>
<g filter="url(#filter2_f_3374_29336)">
<rect x="684" y="213" width="198" height="34" fill="#0B0B0B"/>
</g>
<rect opacity="0.95" x="597" y="172.047" width="288.46" height="72.1149" rx="18.1106" fill="white"/>
<path d="M841.442 212.586V211.488C842.939 211.391 844.025 210.57 844.025 209.194C844.025 207.648 842.866 207.141 841.575 206.827L841.442 206.791V204.581C842.045 204.775 842.565 205.197 842.866 205.885L843.893 204.907C843.422 204.002 842.552 203.422 841.442 203.241V202.082H840.597V203.181C839.124 203.181 837.808 204.002 837.808 205.523C837.808 207.057 839.027 207.576 840.174 207.817L840.597 207.914V210.196C839.751 210.039 838.882 209.556 838.532 208.602L837.566 209.58C838.121 210.775 839.281 211.355 840.597 211.475V212.586H841.442ZM839.232 205.427C839.232 204.811 839.788 204.449 840.56 204.449H840.597V206.586C839.788 206.392 839.232 206.139 839.232 205.427ZM842.637 209.218C842.637 209.87 842.118 210.172 841.442 210.232V208.107C842.19 208.312 842.637 208.566 842.637 209.218ZM847.792 211.379V203.29H846.597C846.186 203.809 845.619 204.014 844.955 204.014V205.004H846.428V211.379H847.792ZM852.515 211.488C854.773 211.488 855.908 209.701 855.908 207.322C855.908 204.956 854.773 203.169 852.515 203.169C850.257 203.169 849.11 204.956 849.11 207.322C849.11 209.701 850.257 211.488 852.515 211.488ZM852.515 210.184C851.078 210.184 850.547 209.025 850.547 207.322C850.547 205.632 851.078 204.461 852.515 204.461C853.964 204.461 854.483 205.632 854.483 207.322C854.483 209.025 853.964 210.184 852.515 210.184ZM860.403 211.488C862.661 211.488 863.796 209.701 863.796 207.322C863.796 204.956 862.661 203.169 860.403 203.169C858.145 203.169 856.998 204.956 856.998 207.322C856.998 209.701 858.145 211.488 860.403 211.488ZM860.403 210.184C858.966 210.184 858.435 209.025 858.435 207.322C858.435 205.632 858.966 204.461 860.403 204.461C861.852 204.461 862.371 205.632 862.371 207.322C862.371 209.025 861.852 210.184 860.403 210.184Z" fill="black"/>
<path d="M666.406 203.093C668.048 203.093 669.279 202.248 669.279 200.787C669.279 199.242 668.12 198.735 666.828 198.421L665.923 198.204C665.042 197.986 664.486 197.733 664.486 197.02C664.486 196.405 665.042 196.042 665.814 196.042C666.804 196.042 667.674 196.477 668.12 197.479L669.147 196.501C668.567 195.39 667.384 194.775 665.899 194.775C664.377 194.775 663.061 195.596 663.061 197.117C663.061 198.65 664.281 199.169 665.428 199.411L666.189 199.58C667.239 199.809 667.891 200.027 667.891 200.811C667.891 201.548 667.239 201.838 666.43 201.838C665.44 201.838 664.221 201.379 663.786 200.196L662.82 201.174C663.448 202.538 664.86 203.093 666.406 203.093ZM671.841 205.218V201.403C672.034 202.309 672.529 203.093 673.7 203.093C675.149 203.093 676.067 201.922 676.067 200.027C676.067 198.131 675.149 196.96 673.724 196.96C672.553 196.96 672.034 197.745 671.841 198.662V197.093H670.488V205.218H671.841ZM671.841 200.389V199.664C671.841 198.699 672.239 198.059 673.193 198.059C674.038 198.059 674.678 198.699 674.678 200.027C674.678 201.355 674.038 201.995 673.193 201.995C672.239 201.995 671.841 201.355 671.841 200.389ZM679.755 203.093C681.469 203.093 682.629 201.862 682.629 200.039C682.629 198.204 681.469 196.972 679.755 196.972C678.065 196.972 676.906 198.204 676.906 200.039C676.906 201.862 678.065 203.093 679.755 203.093ZM679.767 201.971C678.898 201.971 678.294 201.391 678.294 200.039C678.294 198.674 678.898 198.095 679.767 198.095C680.648 198.095 681.252 198.674 681.252 200.039C681.252 201.391 680.648 201.971 679.767 201.971ZM685.807 203.105C686.664 203.105 687.244 202.707 687.498 202.333L687.075 201.125C686.906 201.463 686.568 201.838 686.109 201.838C685.711 201.838 685.409 201.681 685.409 201.041V198.143H687.208V197.093H685.409V195.523L684.057 196.38V197.093H683.139V198.143H684.057V201.367C684.057 202.405 684.696 203.105 685.807 203.105ZM689.763 196.26V194.883H688.41V196.26H689.763ZM689.763 202.973V197.093H688.41V202.973H689.763ZM692.992 202.973V198.143H694.706V197.093H692.992V196.598C692.992 196.115 693.197 195.849 693.692 195.849C694.139 195.849 694.489 196.115 694.706 196.465L695.298 195.499C695.057 195.185 694.489 194.763 693.632 194.763C692.388 194.763 691.64 195.511 691.64 196.731V197.093H690.734V198.143H691.64V202.973H692.992ZM696.125 204.989C697.079 204.989 697.767 204.566 698.189 203.383L700.363 197.093H698.866L697.815 200.425L697.393 201.995L696.97 200.425L695.907 197.093H694.422L696.366 202.61H697.199L697.091 202.936C696.873 203.588 696.584 203.794 696.125 203.794C695.581 203.794 695.219 203.456 694.905 203.009L694.265 204.096C694.591 204.554 695.28 204.989 696.125 204.989Z" fill="black"/>
<path d="M665.808 220.188C667.351 220.188 668.27 219.247 668.27 217.811C668.27 216.448 667.541 215.465 666.136 215.465C665.206 215.465 664.646 215.962 664.424 216.585L664.614 213.87H667.731V213.004H663.706L663.484 217.061L664.393 217.156L664.403 217.039C664.445 216.564 664.974 216.226 665.745 216.226C666.516 216.226 667.298 216.659 667.298 217.811C667.298 218.73 666.812 219.311 665.84 219.311C664.847 219.311 664.213 218.719 663.959 217.8L663.22 218.582C663.579 219.48 664.54 220.188 665.808 220.188ZM672.895 220.082V216.173L672.779 214.261L673.571 216.015L675.093 218.899H675.991L677.512 216.015L678.294 214.261L678.199 216.173V220.082H679.118V213.004H678.093L676.255 216.511L675.547 218.064L674.829 216.511L673.001 213.004H671.976V220.082H672.895ZM681.779 220.188C682.835 220.188 683.385 219.427 683.554 218.751V219.11C683.554 219.828 683.934 220.082 684.462 220.082H685.054V219.247H684.726C684.536 219.247 684.441 219.173 684.441 218.931V216.828C684.441 215.613 683.765 214.863 682.508 214.863C681.367 214.863 680.606 215.508 680.3 216.036L680.923 216.68C681.187 216.12 681.673 215.698 682.402 215.698C683.205 215.698 683.49 216.141 683.522 216.744L681.673 217.568C680.944 217.895 680.427 218.328 680.427 219.015C680.427 219.691 680.913 220.188 681.779 220.188ZM681.356 218.867C681.356 218.55 681.578 218.339 682.064 218.106L683.554 217.409V218.117C683.554 218.857 682.941 219.427 682.075 219.427C681.599 219.427 681.356 219.216 681.356 218.867ZM686.724 221.751C687.442 221.751 688.013 221.445 688.34 220.505L690.305 214.969H689.323L688.235 218.254L687.876 219.353L687.516 218.254L686.418 214.969H685.435L687.157 219.807L687.728 219.797L687.622 220.124C687.421 220.748 687.147 220.948 686.735 220.948C686.249 220.948 685.985 220.642 685.742 220.23L685.245 220.927C685.467 221.35 685.995 221.751 686.724 221.751ZM690.618 221.16C691.336 221.075 691.537 220.705 691.537 220.082V218.709H690.428V220.082H690.946V220.23C690.946 220.526 690.777 220.6 690.417 220.653L690.618 221.16ZM700.079 220.082V219.269H697.153L696.287 219.332L697.047 218.688L698.146 217.652C698.79 217.039 699.9 215.983 699.9 214.821C699.9 213.733 699.276 212.898 697.892 212.898C696.266 212.898 695.156 214.018 695.304 215.413L696.16 215.951C695.98 214.546 696.646 213.786 697.829 213.786C698.632 213.786 698.949 214.314 698.949 214.884C698.949 215.666 698.347 216.321 697.576 217.082L695.262 219.364V220.082H700.079ZM703.792 220.188C705.725 220.188 706.634 218.592 706.634 216.532C706.634 214.493 705.725 212.898 703.792 212.898C701.848 212.898 700.94 214.493 700.94 216.532C700.94 218.592 701.848 220.188 703.792 220.188ZM703.803 219.311C702.398 219.311 701.912 218.159 701.912 216.532C701.912 214.927 702.398 213.764 703.803 213.764C705.197 213.764 705.672 214.927 705.672 216.532C705.672 218.159 705.197 219.311 703.803 219.311ZM712.511 220.082V219.269H709.585L708.719 219.332L709.479 218.688L710.578 217.652C711.222 217.039 712.332 215.983 712.332 214.821C712.332 213.733 711.708 212.898 710.324 212.898C708.697 212.898 707.588 214.018 707.736 215.413L708.592 215.951C708.412 214.546 709.078 213.786 710.261 213.786C711.064 213.786 711.381 214.314 711.381 214.884C711.381 215.666 710.779 216.321 710.007 217.082L707.694 219.364V220.082H712.511ZM718.639 220.082V219.269H715.713L714.847 219.332L715.607 218.688L716.706 217.652C717.351 217.039 718.46 215.983 718.46 214.821C718.46 213.733 717.837 212.898 716.453 212.898C714.826 212.898 713.716 214.018 713.864 215.413L714.72 215.951C714.54 214.546 715.206 213.786 716.389 213.786C717.192 213.786 717.509 214.314 717.509 214.884C717.509 215.666 716.907 216.321 716.136 217.082L713.822 219.364V220.082H718.639Z" fill="#9CA3AF"/>
<circle cx="632.582" cy="207.625" r="16.6014" fill="#22C55E"/>
<path d="M624.523 205.429C627.236 203.151 634.203 199.962 640.37 205.429" stroke="white" stroke-width="0.754607"/>
<path d="M624.523 209.202C627.236 206.924 634.203 203.735 640.37 209.202" stroke="white" stroke-width="0.754607"/>
<path d="M624.523 212.975C627.236 210.698 634.203 207.509 640.37 212.975" stroke="white" stroke-width="0.754607"/>
<defs>
<filter id="filter0_i_3374_29336" x="965.143" y="152.941" width="6.36133" height="3.30078" filterUnits="userSpaceOnUse" color-interpolation-filters="sRGB">
<feFlood flood-opacity="0" result="BackgroundImageFix"/>
<feBlend mode="normal" in="SourceGraphic" in2="BackgroundImageFix" result="shape"/>
<feColorMatrix in="SourceAlpha" type="matrix" values="0 0 0 0 0 0 0 0 0 0 0 0 0 0 0 0 0 0 127 0" result="hardAlpha"/>
<feOffset/>
<feGaussianBlur stdDeviation="0.377303"/>
<feComposite in2="hardAlpha" operator="arithmetic" k2="-1" k3="1"/>
<feColorMatrix type="matrix" values="0 0 0 0 0 0 0 0 0 0 0 0 0 0 0 0 0 0 0.5 0"/>
<feBlend mode="normal" in2="shape" result="effect1_innerShadow_3374_29336"/>
</filter>
<filter id="filter1_i_3374_29336" x="965.467" y="147.914" width="6.03711" height="3.13281" filterUnits="userSpaceOnUse" color-interpolation-filters="sRGB">
<feFlood flood-opacity="0" result="BackgroundImageFix"/>
<feBlend mode="normal" in="SourceGraphic" in2="BackgroundImageFix" result="shape"/>
<feColorMatrix in="SourceAlpha" type="matrix" values="0 0 0 0 0 0 0 0 0 0 0 0 0 0 0 0 0 0 127 0" result="hardAlpha"/>
<feOffset/>
<feGaussianBlur stdDeviation="0.377303"/>
<feComposite in2="hardAlpha" operator="arithmetic" k2="-1" k3="1"/>
<feColorMatrix type="matrix" values="0 0 0 0 0 0 0 0 0 0 0 0 0 0 0 0 0 0 0.5 0"/>
<feBlend mode="normal" in2="shape" result="effect1_innerShadow_3374_29336"/>
</filter>
<filter id="filter2_f_3374_29336" x="589.112" y="118.112" width="387.776" height="223.776" filterUnits="userSpaceOnUse" color-interpolation-filters="sRGB">
<feFlood flood-opacity="0" result="BackgroundImageFix"/>
<feBlend mode="normal" in="SourceGraphic" in2="BackgroundImageFix" result="shape"/>
<feGaussianBlur stdDeviation="47.444" result="effect1_foregroundBlur_3374_29336"/>
</filter>
<linearGradient id="paint0_linear_3374_29336" x1="283.5" y1="334.092" x2="1338.03" y2="-134.526" gradientUnits="userSpaceOnUse">
<stop stop-color="#FF6648"/>
<stop offset="1" stop-color="#FFF96A"/>
</linearGradient>
<linearGradient id="paint1_linear_3374_29336" x1="175.608" y1="307.358" x2="797.502" y2="308.128" gradientUnits="userSpaceOnUse">
<stop stop-color="#FC5130"/>
<stop offset="1" stop-color="#ED401F"/>
</linearGradient>
<linearGradient id="paint2_linear_3374_29336" x1="771.093" y1="228.494" x2="799.09" y2="-140.076" gradientUnits="userSpaceOnUse">
<stop stop-color="#FC5130"/>
<stop offset="1" stop-color="white"/>
</linearGradient>
<linearGradient id="paint3_linear_3374_29336" x1="186.703" y1="480.028" x2="265.837" y2="550.734" gradientUnits="userSpaceOnUse">
<stop stop-color="#A6B0CE"/>
<stop offset="0.19" stop-color="#C5DBFC"/>
<stop offset="0.29" stop-color="#BBD2F2"/>
<stop offset="0.42" stop-color="#A9C1DF"/>
<stop offset="0.71" stop-color="#A088A6"/>
<stop offset="1" stop-color="#C0D7F7"/>
</linearGradient>
<linearGradient id="paint4_linear_3374_29336" x1="290.202" y1="580.908" x2="182.808" y2="466.432" gradientUnits="userSpaceOnUse">
<stop stop-color="#4A476F"/>
<stop offset="0.02" stop-color="#6939FF"/>
<stop offset="0.07" stop-color="#D4D4D4"/>
<stop offset="0.11" stop-color="#4A476F"/>
<stop offset="0.16" stop-color="#87849F"/>
<stop offset="0.19" stop-color="#8C82EE"/>
<stop offset="0.25" stop-color="#4A476F"/>
<stop offset="0.35" stop-color="#4A476F"/>
<stop offset="0.47" stop-color="#6939FF"/>
<stop offset="0.74" stop-color="#0E093F"/>
<stop offset="1" stop-color="#8B66FF"/>
</linearGradient>
<linearGradient id="paint5_linear_3374_29336" x1="4.00451" y1="0" x2="4.00451" y2="81.6449" gradientUnits="userSpaceOnUse">
<stop stop-color="#4F4F4F"/>
<stop offset="1" stop-color="#171717"/>
</linearGradient>
<linearGradient id="paint6_linear_3374_29336" x1="4.00451" y1="0" x2="4.00451" y2="78.4431" gradientUnits="userSpaceOnUse">
<stop stop-color="#898989"/>
<stop offset="1" stop-color="#5F5F5F"/>
</linearGradient>
<linearGradient id="paint7_linear_3374_29336" x1="4.0615" y1="0" x2="4.0615" y2="54.2912" gradientUnits="userSpaceOnUse">
<stop stop-color="#171717"/>
<stop offset="1" stop-color="#464646"/>
</linearGradient>
<linearGradient id="paint8_linear_3374_29336" x1="4.0615" y1="0" x2="4.0615" y2="51.2468" gradientUnits="userSpaceOnUse">
<stop stop-color="#898989"/>
<stop offset="1" stop-color="#5F5F5F"/>
</linearGradient>
<linearGradient id="paint9_linear_3374_29336" x1="4.0615" y1="0" x2="4.0615" y2="53.2764" gradientUnits="userSpaceOnUse">
<stop stop-color="#171717"/>
<stop offset="1" stop-color="#707070"/>
</linearGradient>
<linearGradient id="paint10_linear_3374_29336" x1="4.0615" y1="0" x2="4.0615" y2="23.3401" gradientUnits="userSpaceOnUse">
<stop stop-color="#171717"/>
<stop offset="1" stop-color="#7C7C7C"/>
</linearGradient>
<linearGradient id="paint11_linear_3374_29336" x1="4.0615" y1="0" x2="4.0615" y2="51.2468" gradientUnits="userSpaceOnUse">
<stop stop-color="#898989"/>
<stop offset="1" stop-color="#B9B9B9"/>
</linearGradient>
<linearGradient id="paint12_linear_3374_29336" x1="4.0615" y1="0" x2="4.0615" y2="20.2958" gradientUnits="userSpaceOnUse">
<stop stop-color="#898989"/>
<stop offset="1" stop-color="white"/>
</linearGradient>
<linearGradient id="paint13_linear_3374_29336" x1="1104.94" y1="118.828" x2="765.551" y2="802.404" gradientUnits="userSpaceOnUse">
<stop stop-color="#EFEFEF"/>
<stop offset="1" stop-color="#555555"/>
</linearGradient>
<linearGradient id="paint14_linear_3374_29336" x1="1037.96" y1="461.982" x2="1071.8" y2="446.374" gradientUnits="userSpaceOnUse">
<stop stop-color="#FF6648"/>
<stop offset="1" stop-color="#FFF96A"/>
</linearGradient>
<linearGradient id="paint15_linear_3374_29336" x1="860.436" y1="409.789" x2="967.171" y2="264.214" gradientUnits="userSpaceOnUse">
<stop stop-color="#FF6648"/>
<stop offset="1" stop-color="#FFF96A"/>
</linearGradient>
<linearGradient id="paint16_linear_3374_29336" x1="961.044" y1="150.638" x2="966.833" y2="159.954" gradientUnits="userSpaceOnUse">
<stop stop-color="#010005" stop-opacity="0.66"/>
<stop offset="1" stop-color="#2E2D31"/>
</linearGradient>
<radialGradient id="paint17_radial_3374_29336" cx="0" cy="0" r="1" gradientUnits="userSpaceOnUse" gradientTransform="translate(967.696 154.508) rotate(90) scale(3.87067 1.59136)">
<stop stop-color="#1F85DE"/>
<stop offset="0.257948" stop-color="#1B75C9"/>
<stop offset="1" stop-color="#000232"/>
</radialGradient>
<radialGradient id="paint18_radial_3374_29336" cx="0" cy="0" r="1" gradientUnits="userSpaceOnUse" gradientTransform="translate(0.777019 3.01843) rotate(90) scale(3.87067 1.59136)">
<stop stop-color="#1F85DE"/>
<stop offset="0.257948" stop-color="#1B75C9"/>
<stop offset="1" stop-color="#000232"/>
</radialGradient>
<linearGradient id="paint19_linear_3374_29336" x1="766.351" y1="190.863" x2="766.351" y2="202.069" gradientUnits="userSpaceOnUse">
<stop stop-color="#5A5A5A"/>
<stop offset="0.53125" stop-color="#242424"/>
<stop offset="1" stop-color="#585858"/>
</linearGradient>
<linearGradient id="paint20_linear_3374_29336" x1="1104.14" y1="190.863" x2="1104.14" y2="202.069" gradientUnits="userSpaceOnUse">
<stop stop-color="#5A5A5A"/>
<stop offset="0.53125" stop-color="#242424"/>
<stop offset="1" stop-color="#585858"/>
</linearGradient>
<linearGradient id="paint21_linear_3374_29336" x1="1043.3" y1="118.828" x2="1043.3" y2="130.034" gradientUnits="userSpaceOnUse">
<stop stop-color="#5A5A5A"/>
<stop offset="0.53125" stop-color="#242424"/>
<stop offset="1" stop-color="#585858"/>
</linearGradient>
<linearGradient id="paint22_linear_3374_29336" x1="836.797" y1="118.828" x2="836.797" y2="130.034" gradientUnits="userSpaceOnUse">
<stop stop-color="#5A5A5A"/>
<stop offset="0.53125" stop-color="#242424"/>
<stop offset="1" stop-color="#585858"/>
</linearGradient>
<clipPath id="clip0_3374_29336">
<rect x="774.543" y="136.844" width="319.953" height="698.766" rx="45.2764" fill="white"/>
</clipPath>
<clipPath id="clip1_3374_29336">
<rect width="318.474" height="41.6695" fill="white" transform="translate(774.504 136.742)"/>
</clipPath>
<clipPath id="clip2_3374_29336">
<rect width="13.5829" height="13.5829" fill="white" transform="translate(789.637 201.742)"/>
</clipPath>
</defs>
</svg>
