<svg width="115" height="43" viewBox="0 0 115 43" fill="none" xmlns="http://www.w3.org/2000/svg">
<path d="M8.13268 24.446L9.47491 22.2291L1.59375 16.2946L4.03795 15.9812L2.90986 10.3408L8.29103 12.0417L8.96215 9.92276L11.3374 13.3839L10.7719 6.25047L12.624 7.3891L15.6507 2.52539L18.6293 7.3891L20.6426 5.99409L20.1446 13.3839L22.5888 9.83938L23.2597 12.1537L28.6055 10.3827L27.5197 15.8648L29.9478 16.2267L22.3015 22.1235L23.6589 24.446H8.13268Z" fill="#0D6F8E"/>
<path d="M9.28068 22.1348L15.6761 24.454H8.08594L9.28068 22.1348Z" fill="#0C6B8A"/>
<path d="M22.3036 22.0566L23.6694 24.4524H15.0391L22.3036 22.0566Z" fill="#0C6B8A"/>
<path d="M16.6016 23.9348L28.6063 10.3164L27.5204 15.7985L29.9485 16.1604L22.3023 22.0572L16.6016 23.9348Z" fill="url(#paint0_linear_3064_29067)"/>
<path d="M15.3828 24.3765L2.91114 10.2754L4.02312 15.8828L1.59503 16.2447L9.24124 22.1415L15.3828 24.3765Z" fill="url(#paint1_linear_3064_29067)"/>
<path d="M16.6412 23.937L28.5634 10.3519C26.4964 11.0522 25.3375 11.4449 23.2704 12.1453L22.595 9.77321L20.1738 13.2787L15.3878 24.3757L16.6412 23.937Z" fill="url(#paint2_linear_3064_29067)"/>
<path d="M15.6335 2.44141L15.3828 24.3765L20.1459 13.3463L20.6472 5.88835L18.6417 7.3298L15.6335 2.44141Z" fill="url(#paint3_linear_3064_29067)"/>
<path d="M15.6328 2.44141L15.3821 24.3765L11.3085 13.2836L10.6191 5.88835L12.6246 7.3298L15.6328 2.44141Z" fill="url(#paint4_linear_3064_29067)"/>
<path d="M2.91406 10.2735L15.3857 24.3746L11.3415 13.3166L8.96615 9.85547L8.29504 11.9744L2.91406 10.2735Z" fill="url(#paint5_linear_3064_29067)"/>
<rect x="7.14062" y="24.7266" width="16.5173" height="4.16652" rx="2.08326" fill="#116B89"/>
<rect x="7.14062" y="29.1895" width="16.5173" height="4.16652" rx="2.08326" fill="#116B89"/>
<path d="M62.5491 24.5925C62.5491 26.2615 61.2905 27.6145 59.7379 27.6145C58.1853 27.6145 56.9267 26.2615 56.9267 24.5925C56.9267 22.9234 58.1853 21.5704 59.7379 21.5704C61.2905 21.5704 62.5491 22.9234 62.5491 24.5925Z" fill="#F5CF6C"/>
<path d="M42.7899 25.8428C42.7899 26.2439 42.5999 26.5816 42.2199 26.8349C41.84 27.0882 41.249 27.2148 40.4891 27.2148C39.5814 27.2148 38.7582 27.0038 37.9983 26.5394C37.2384 26.0961 36.6051 25.484 36.1196 24.6818L33.7344 26.666C34.2832 27.7214 35.1275 28.5869 36.3096 29.2624C37.4706 29.9378 38.8848 30.2756 40.5735 30.2756C42.1566 30.2756 43.4864 29.8323 44.563 28.9457C45.6184 28.0592 46.1672 26.9404 46.1672 25.5895C46.1672 24.7663 45.9561 24.0486 45.5551 23.4364C45.1329 22.8454 44.6263 22.381 44.0353 22.0855C43.4231 21.79 42.7688 21.5367 42.0511 21.2834C41.3334 21.0512 40.6579 20.8612 40.0669 20.7346C39.4547 20.6079 38.9481 20.4179 38.5471 20.1646C38.1249 19.9324 37.9349 19.6369 37.9349 19.2781C37.9349 18.3493 38.6737 17.8849 40.1513 17.8849C41.5445 17.8849 42.7899 18.476 43.8664 19.658L46.0617 17.5472C44.6896 15.7319 42.7688 14.8242 40.278 14.8242C38.5893 14.8242 37.1961 15.2675 36.1407 16.154C35.0853 17.0406 34.5576 18.096 34.5576 19.3203C34.5576 20.1646 34.7476 20.9034 35.1697 21.4945C35.5708 22.0855 36.0774 22.5288 36.6895 22.8243C37.2806 23.1198 37.9561 23.3942 38.6737 23.6264C39.3914 23.8797 40.0458 24.0697 40.6579 24.2174C41.249 24.3652 41.7556 24.5763 42.1777 24.8507C42.5788 25.1251 42.7899 25.4628 42.7899 25.8428Z" fill="white"/>
<path d="M53.2464 27.2937V29.9378H51.6599C50.5293 29.9378 49.6479 29.6643 49.0158 29.1172C48.3836 28.558 48.0675 27.6523 48.0675 26.4002V22.3519H46.8275V19.7625H48.0675V17.2825H51.1858V19.7625H53.2281V22.3519H51.1858V26.4366C51.1858 26.7406 51.2587 26.9594 51.4046 27.0931C51.5505 27.2268 51.7936 27.2937 52.134 27.2937H53.2464Z" fill="white"/>
<path d="M54.0533 24.8319C54.0533 23.7864 54.2478 22.8686 54.6368 22.0784C55.038 21.2882 55.579 20.6804 56.2597 20.2549C56.9405 19.8294 57.7003 19.6166 58.5391 19.6166C59.2564 19.6166 59.8825 19.7625 60.4174 20.0543C60.9644 20.3461 61.3839 20.729 61.6756 21.2031V19.7625H64.7939V29.9378H61.6756V28.4972C61.3717 28.9713 60.9462 29.3543 60.3991 29.6461C59.8642 29.9378 59.2382 30.0837 58.5209 30.0837C57.6942 30.0837 56.9405 29.871 56.2597 29.4455C55.579 29.0078 55.038 28.3939 54.6368 27.6037C54.2478 26.8013 54.0533 25.8774 54.0533 24.8319ZM61.6756 24.8502C61.6756 24.0721 61.4568 23.4582 61.0191 23.0084C60.5937 22.5586 60.0709 22.3337 59.4509 22.3337C58.8309 22.3337 58.3021 22.5586 57.8644 23.0084C57.439 23.4461 57.2262 24.0539 57.2262 24.8319C57.2262 25.61 57.439 26.23 57.8644 26.6919C58.3021 27.1417 58.8309 27.3666 59.4509 27.3666C60.0709 27.3666 60.5937 27.1417 61.0191 26.6919C61.4568 26.2421 61.6756 25.6282 61.6756 24.8502Z" fill="white"/>
<path d="M66.1198 24.8502C66.1198 23.7925 66.3325 22.8686 66.758 22.0784C67.1956 21.2882 67.7974 20.6804 68.5633 20.2549C69.3413 19.8294 70.2288 19.6166 71.2256 19.6166C72.5021 19.6166 73.5658 19.951 74.4168 20.6196C75.28 21.2882 75.8453 22.2304 76.1127 23.4461H72.7939C72.5143 22.668 71.9733 22.279 71.1709 22.279C70.5996 22.279 70.1437 22.5039 69.8033 22.9537C69.4629 23.3913 69.2927 24.0235 69.2927 24.8502C69.2927 25.6768 69.4629 26.3151 69.8033 26.7649C70.1437 27.2025 70.5996 27.4213 71.1709 27.4213C71.9733 27.4213 72.5143 27.0323 72.7939 26.2543H76.1127C75.8453 27.4457 75.28 28.3817 74.4168 29.0625C73.5537 29.7433 72.49 30.0837 71.2256 30.0837C70.2288 30.0837 69.3413 29.871 68.5633 29.4455C67.7974 29.02 67.1956 28.4121 66.758 27.6219C66.3325 26.8317 66.1198 25.9078 66.1198 24.8502Z" fill="white"/>
<path d="M83.6889 29.9378L80.5889 25.6708V29.9378H77.4707V16.4437H80.5889V23.9019L83.6707 19.7625H87.5183L83.2877 24.8684L87.5548 29.9378H83.6889Z" fill="white"/>
<path d="M90.0013 18.7049C89.4542 18.7049 89.0044 18.5468 88.6519 18.2308C88.3115 17.9025 88.1413 17.5013 88.1413 17.0272C88.1413 16.541 88.3115 16.1398 88.6519 15.8237C89.0044 15.4955 89.4542 15.3313 90.0013 15.3313C90.5362 15.3313 90.9739 15.4955 91.3142 15.8237C91.6668 16.1398 91.8431 16.541 91.8431 17.0272C91.8431 17.5013 91.6668 17.9025 91.3142 18.2308C90.9739 18.5468 90.5362 18.7049 90.0013 18.7049ZM91.5513 19.7625V29.9378H88.4331V19.7625H91.5513Z" fill="white"/>
<path d="M98.0781 27.0202L100.285 19.7625H103.603L99.9928 29.9378H96.1452L92.5346 19.7625H95.8716L98.0781 27.0202Z" fill="white"/>
<path d="M115 19.7625L108.618 34.7702H105.262L107.597 29.5913L103.457 19.7625H106.94L109.292 26.1266L111.627 19.7625H115Z" fill="white"/>
<defs>
<linearGradient id="paint0_linear_3064_29067" x1="25.9739" y1="13.032" x2="17.1371" y2="23.9369" gradientUnits="userSpaceOnUse">
<stop stop-color="#1281A8"/>
<stop offset="1" stop-color="#053E51"/>
</linearGradient>
<linearGradient id="paint1_linear_3064_29067" x1="2.03373" y1="10.9648" x2="16.5495" y2="22.8764" gradientUnits="userSpaceOnUse">
<stop stop-color="#F7D06D"/>
<stop offset="0.0001" stop-color="#DEC366"/>
<stop offset="0.634242" stop-color="#58936A"/>
<stop offset="1" stop-color="#2C7864"/>
</linearGradient>
<linearGradient id="paint2_linear_3064_29067" x1="28.6542" y1="10.7194" x2="16.5598" y2="23.5037" gradientUnits="userSpaceOnUse">
<stop offset="0.160542" stop-color="#1588B0"/>
<stop offset="1" stop-color="#08495D"/>
</linearGradient>
<linearGradient id="paint3_linear_3064_29067" x1="15.3828" y1="2.37873" x2="15.3828" y2="24.3138" gradientUnits="userSpaceOnUse">
<stop offset="0.0885417" stop-color="#4ABB99"/>
<stop offset="0.53125" stop-color="#00ACA9"/>
<stop offset="1" stop-color="#166072"/>
</linearGradient>
<linearGradient id="paint4_linear_3064_29067" x1="13.1259" y1="5.88835" x2="14.8808" y2="23.2484" gradientUnits="userSpaceOnUse">
<stop stop-color="#47C0A1"/>
<stop offset="0.5" stop-color="#038D8A"/>
<stop offset="1" stop-color="#0A5F74"/>
</linearGradient>
<linearGradient id="paint5_linear_3064_29067" x1="7.17574" y1="10.3988" x2="14.759" y2="24.3119" gradientUnits="userSpaceOnUse">
<stop stop-color="#F7D06D"/>
<stop offset="0.489583" stop-color="#96CC7D"/>
<stop offset="1" stop-color="#66BD87"/>
</linearGradient>
</defs>
</svg>
