<svg width="745" height="126" viewBox="0 0 745 126" fill="none" xmlns="http://www.w3.org/2000/svg">
<g clip-path="url(#clip0_3188_29064)">
<path d="M11.635 52L0.65 4.615H5.005L11.44 33.215L14.56 47.58H14.95L27.3 4.615H32.695L45.11 47.645H45.5L48.555 33.215L54.99 4.615H59.345L48.36 52H42.64L30.16 9.295H29.835L17.29 52H11.635ZM65.2504 52V4.615H69.0204V25.48H69.2804C70.3637 22.88 72.0104 20.93 74.2204 19.63C76.4737 18.2867 78.922 17.615 81.5654 17.615C83.342 17.615 84.967 17.8967 86.4404 18.46C87.957 18.98 89.257 19.825 90.3404 20.995C91.4237 22.1217 92.2687 23.6167 92.8754 25.48C93.482 27.3 93.7854 29.5317 93.7854 32.175V52H89.9504V32.89C89.9504 30.16 89.6037 27.9067 88.9104 26.13C88.2604 24.3533 87.242 23.0533 85.8554 22.23C84.4687 21.3633 82.692 20.93 80.5254 20.93C78.2287 20.93 76.2137 21.4933 74.4804 22.62C72.747 23.7467 71.4037 25.285 70.4504 27.235C69.497 29.1417 69.0204 31.3517 69.0204 33.865V52H65.2504ZM99.1296 62.855V59.605H102.38C103.463 59.605 104.373 59.4533 105.11 59.15C105.89 58.8467 106.54 58.37 107.06 57.72C107.623 57.07 108.1 56.2467 108.49 55.25L111.025 48.945V50.635L97.0496 18.135H101.21L110.57 41.21L112.325 45.695H112.585L114.275 41.21L123.115 18.135H127.08L112 56.355C111.393 57.8717 110.678 59.1067 109.855 60.06C109.075 61.0133 108.1 61.7067 106.93 62.14C105.803 62.6167 104.438 62.855 102.835 62.855H99.1296ZM160.912 52.52C158.485 52.52 156.275 52.1083 154.282 51.285C152.332 50.4617 150.642 49.2917 149.212 47.775C147.782 46.215 146.677 44.3733 145.897 42.25C145.117 40.1267 144.727 37.765 144.727 35.165C144.727 31.6983 145.399 28.6433 146.742 26C148.085 23.3567 149.97 21.2983 152.397 19.825C154.824 18.3517 157.662 17.615 160.912 17.615C163.295 17.615 165.462 18.0267 167.412 18.85C169.405 19.6733 171.095 20.865 172.482 22.425C173.912 23.9417 175.017 25.7833 175.797 27.95C176.577 30.0733 176.967 32.4567 176.967 35.1C176.967 38.5233 176.295 41.5567 174.952 44.2C173.652 46.8 171.789 48.8367 169.362 50.31C166.979 51.7833 164.162 52.52 160.912 52.52ZM160.847 49.14C163.274 49.14 165.397 48.5767 167.217 47.45C169.08 46.3233 170.51 44.72 171.507 42.64C172.504 40.5167 173.002 38.0033 173.002 35.1C173.002 32.9333 172.72 31.005 172.157 29.315C171.637 27.5817 170.835 26.0867 169.752 24.83C168.712 23.5733 167.434 22.62 165.917 21.97C164.444 21.32 162.775 20.995 160.912 20.995C158.485 20.995 156.34 21.5583 154.477 22.685C152.657 23.8117 151.227 25.4367 150.187 27.56C149.147 29.64 148.627 32.175 148.627 35.165C148.627 37.2883 148.909 39.2167 149.472 40.95C150.035 42.64 150.859 44.0917 151.942 45.305C153.025 46.5183 154.304 47.4717 155.777 48.165C157.294 48.815 158.984 49.14 160.847 49.14ZM196.927 52.52C194.457 52.52 192.29 52.0217 190.427 51.025C188.564 50.0283 187.134 48.5117 186.137 46.475C185.14 44.395 184.642 41.8167 184.642 38.74V18.135H188.477V37.895C188.477 40.2783 188.802 42.315 189.452 44.005C190.102 45.695 191.142 46.995 192.572 47.905C194.002 48.7717 195.844 49.205 198.097 49.205C200.307 49.205 202.257 48.6633 203.947 47.58C205.637 46.4967 206.959 44.9583 207.912 42.965C208.865 40.9283 209.342 38.5883 209.342 35.945V18.135H213.177V52H209.602L209.342 44.46H209.017C208.15 46.93 206.612 48.9017 204.402 50.375C202.235 51.805 199.744 52.52 196.927 52.52ZM223.37 52V18.135H226.75L227.01 24.7H227.205C227.942 22.49 229.264 20.7783 231.17 19.565C233.077 18.3083 235.222 17.68 237.605 17.68C237.995 17.68 238.342 17.7017 238.645 17.745C238.992 17.745 239.317 17.7667 239.62 17.81V21.45C239.36 21.4067 239.035 21.385 238.645 21.385C238.299 21.385 237.952 21.385 237.605 21.385C235.699 21.385 233.987 21.7533 232.47 22.49C230.954 23.2267 229.719 24.31 228.765 25.74C227.855 27.17 227.314 28.8817 227.14 30.875V52H223.37ZM259.969 52V17.16H269.524V52H259.969ZM259.969 12.675V4.615H269.524V12.675H259.969ZM277.742 52V17.16H286.907L287.297 23.465H287.687C288.641 21.125 290.114 19.3917 292.107 18.265C294.101 17.095 296.332 16.51 298.802 16.51C300.536 16.51 302.139 16.7917 303.612 17.355C305.129 17.875 306.429 18.6983 307.512 19.825C308.639 20.9517 309.506 22.4467 310.112 24.31C310.762 26.13 311.087 28.34 311.087 30.94V52H301.532V33.02C301.532 31.07 301.294 29.445 300.817 28.145C300.384 26.845 299.691 25.8917 298.737 25.285C297.784 24.635 296.527 24.31 294.967 24.31C293.321 24.31 291.934 24.7 290.807 25.48C289.681 26.26 288.814 27.2783 288.207 28.535C287.601 29.7917 287.297 31.1567 287.297 32.63V52H277.742ZM325.404 52L313.509 17.095H323.779L329.044 35.75L331.124 44.07H331.449L333.529 35.815L338.794 17.095H349.129L337.299 52H325.404ZM367.285 52.585C363.645 52.585 360.525 51.8483 357.925 50.375C355.368 48.9017 353.397 46.8433 352.01 44.2C350.623 41.5133 349.93 38.3933 349.93 34.84C349.93 31.07 350.623 27.82 352.01 25.09C353.397 22.36 355.368 20.2583 357.925 18.785C360.482 17.2683 363.493 16.51 366.96 16.51C370.99 16.51 374.305 17.3983 376.905 19.175C379.505 20.9517 381.368 23.3567 382.495 26.39C383.622 29.4233 383.99 32.8683 383.6 36.725H359.355C359.312 38.545 359.615 40.105 360.265 41.405C360.958 42.705 361.912 43.7017 363.125 44.395C364.338 45.045 365.725 45.37 367.285 45.37C369.105 45.37 370.643 44.98 371.9 44.2C373.2 43.3767 374.023 42.2933 374.37 40.95H383.405C383.102 43.29 382.213 45.3267 380.74 47.06C379.31 48.7933 377.447 50.1583 375.15 51.155C372.853 52.1083 370.232 52.585 367.285 52.585ZM359.355 31.655L358.51 30.615H375.085L374.24 31.655C374.327 29.835 374.045 28.3617 373.395 27.235C372.788 26.065 371.922 25.1983 370.795 24.635C369.668 24.0283 368.39 23.725 366.96 23.725C365.4 23.725 364.057 24.05 362.93 24.7C361.803 25.35 360.915 26.2817 360.265 27.495C359.658 28.665 359.355 30.0517 359.355 31.655ZM403.817 52.65C398.747 52.65 394.825 51.5883 392.052 49.465C389.322 47.2983 387.979 44.4817 388.022 41.015H397.382C397.425 42.8783 398.075 44.2217 399.332 45.045C400.589 45.825 402.17 46.215 404.077 46.215C406.027 46.215 407.5 45.8683 408.497 45.175C409.494 44.4817 409.992 43.5717 409.992 42.445C409.992 41.405 409.732 40.625 409.212 40.105C408.692 39.5417 407.912 39.13 406.872 38.87C405.832 38.5667 404.489 38.3067 402.842 38.09C400.892 37.83 399.072 37.505 397.382 37.115C395.735 36.6817 394.262 36.0967 392.962 35.36C391.705 34.58 390.709 33.5617 389.972 32.305C389.279 31.0483 388.932 29.4667 388.932 27.56C388.932 25.09 389.56 23.0533 390.817 21.45C392.117 19.8033 393.894 18.5683 396.147 17.745C398.444 16.9217 401.109 16.51 404.142 16.51C407.132 16.51 409.71 16.9433 411.877 17.81C414.087 18.6767 415.799 19.9333 417.012 21.58C418.225 23.1833 418.854 25.155 418.897 27.495H409.537C409.537 26.4983 409.299 25.675 408.822 25.025C408.345 24.3317 407.674 23.8117 406.807 23.465C405.984 23.1183 405.009 22.945 403.882 22.945C402.105 22.945 400.762 23.2917 399.852 23.985C398.942 24.635 398.487 25.5017 398.487 26.585C398.487 27.4517 398.747 28.145 399.267 28.665C399.787 29.185 400.589 29.5967 401.672 29.9C402.755 30.16 404.142 30.3983 405.832 30.615C407.609 30.8317 409.32 31.135 410.967 31.525C412.657 31.915 414.152 32.5 415.452 33.28C416.752 34.0167 417.77 35.0567 418.507 36.4C419.244 37.7 419.612 39.4117 419.612 41.535C419.612 45.3917 418.204 48.2083 415.387 49.985C412.614 51.7617 408.757 52.65 403.817 52.65ZM437.529 52C435.189 52 433.369 51.6533 432.069 50.96C430.769 50.2667 429.859 49.2917 429.339 48.035C428.862 46.735 428.624 45.2183 428.624 43.485V24.83H422.384V17.16H428.624V7.67L438.114 6.76V17.16H445.134V24.83H438.114V41.665C438.114 42.705 438.352 43.3983 438.829 43.745C439.305 44.0917 439.999 44.265 440.909 44.265H445.134V52H437.529ZM451.033 52V17.16H460.263L460.588 23.465H460.978C461.888 21.125 463.297 19.3917 465.203 18.265C467.153 17.095 469.298 16.51 471.638 16.51C474.065 16.51 476.275 17.095 478.268 18.265C480.305 19.435 481.778 21.45 482.688 24.31H483.208C484.075 21.71 485.548 19.76 487.628 18.46C489.708 17.16 492.07 16.51 494.713 16.51C496.967 16.51 498.982 16.9867 500.758 17.94C502.578 18.8933 504.008 20.4317 505.048 22.555C506.088 24.635 506.608 27.43 506.608 30.94V52H497.053V33.02C497.053 31.07 496.837 29.445 496.403 28.145C496.013 26.845 495.342 25.8917 494.388 25.285C493.478 24.635 492.308 24.31 490.878 24.31C489.318 24.31 487.997 24.7 486.913 25.48C485.83 26.26 485.007 27.2783 484.443 28.535C483.88 29.7917 483.598 31.1567 483.598 32.63V52H474.043V33.02C474.043 31.07 473.827 29.445 473.393 28.145C472.96 26.845 472.288 25.8917 471.378 25.285C470.468 24.635 469.298 24.31 467.868 24.31C466.308 24.31 464.987 24.7 463.903 25.48C462.82 26.26 461.997 27.2783 461.433 28.535C460.87 29.7917 460.588 31.1567 460.588 32.63V52H451.033ZM529.722 52.585C526.082 52.585 522.962 51.8483 520.362 50.375C517.805 48.9017 515.833 46.8433 514.447 44.2C513.06 41.5133 512.367 38.3933 512.367 34.84C512.367 31.07 513.06 27.82 514.447 25.09C515.833 22.36 517.805 20.2583 520.362 18.785C522.918 17.2683 525.93 16.51 529.397 16.51C533.427 16.51 536.742 17.3983 539.342 19.175C541.942 20.9517 543.805 23.3567 544.932 26.39C546.058 29.4233 546.427 32.8683 546.037 36.725H521.792C521.748 38.545 522.052 40.105 522.702 41.405C523.395 42.705 524.348 43.7017 525.562 44.395C526.775 45.045 528.162 45.37 529.722 45.37C531.542 45.37 533.08 44.98 534.337 44.2C535.637 43.3767 536.46 42.2933 536.807 40.95H545.842C545.538 43.29 544.65 45.3267 543.177 47.06C541.747 48.7933 539.883 50.1583 537.587 51.155C535.29 52.1083 532.668 52.585 529.722 52.585ZM521.792 31.655L520.947 30.615H537.522L536.677 31.655C536.763 29.835 536.482 28.3617 535.832 27.235C535.225 26.065 534.358 25.1983 533.232 24.635C532.105 24.0283 530.827 23.725 529.397 23.725C527.837 23.725 526.493 24.05 525.367 24.7C524.24 25.35 523.352 26.2817 522.702 27.495C522.095 28.665 521.792 30.0517 521.792 31.655ZM552.279 52V17.16H561.444L561.834 23.465H562.224C563.177 21.125 564.65 19.3917 566.644 18.265C568.637 17.095 570.869 16.51 573.339 16.51C575.072 16.51 576.675 16.7917 578.149 17.355C579.665 17.875 580.965 18.6983 582.049 19.825C583.175 20.9517 584.042 22.4467 584.649 24.31C585.299 26.13 585.624 28.34 585.624 30.94V52H576.069V33.02C576.069 31.07 575.83 29.445 575.354 28.145C574.92 26.845 574.227 25.8917 573.274 25.285C572.32 24.635 571.064 24.31 569.504 24.31C567.857 24.31 566.47 24.7 565.344 25.48C564.217 26.26 563.35 27.2783 562.744 28.535C562.137 29.7917 561.834 31.1567 561.834 32.63V52H552.279ZM604.091 52C601.751 52 599.931 51.6533 598.631 50.96C597.331 50.2667 596.421 49.2917 595.901 48.035C595.425 46.735 595.186 45.2183 595.186 43.485V24.83H588.946V17.16H595.186V7.67L604.676 6.76V17.16H611.696V24.83H604.676V41.665C604.676 42.705 604.915 43.3983 605.391 43.745C605.868 44.0917 606.561 44.265 607.471 44.265H611.696V52H604.091ZM18.07 115.65C13 115.65 9.07833 114.588 6.305 112.465C3.575 110.298 2.23167 107.482 2.275 104.015H11.635C11.6783 105.878 12.3283 107.222 13.585 108.045C14.8417 108.825 16.4233 109.215 18.33 109.215C20.28 109.215 21.7533 108.868 22.75 108.175C23.7467 107.482 24.245 106.572 24.245 105.445C24.245 104.405 23.985 103.625 23.465 103.105C22.945 102.542 22.165 102.13 21.125 101.87C20.085 101.567 18.7417 101.307 17.095 101.09C15.145 100.83 13.325 100.505 11.635 100.115C9.98833 99.6817 8.515 99.0967 7.215 98.36C5.95833 97.58 4.96167 96.5617 4.225 95.305C3.53167 94.0483 3.185 92.4667 3.185 90.56C3.185 88.09 3.81333 86.0533 5.07 84.45C6.37 82.8033 8.14667 81.5683 10.4 80.745C12.6967 79.9217 15.3617 79.51 18.395 79.51C21.385 79.51 23.9633 79.9433 26.13 80.81C28.34 81.6767 30.0517 82.9333 31.265 84.58C32.4783 86.1833 33.1067 88.155 33.15 90.495H23.79C23.79 89.4983 23.5517 88.675 23.075 88.025C22.5983 87.3317 21.9267 86.8117 21.06 86.465C20.2367 86.1183 19.2617 85.945 18.135 85.945C16.3583 85.945 15.015 86.2917 14.105 86.985C13.195 87.635 12.74 88.5017 12.74 89.585C12.74 90.4517 13 91.145 13.52 91.665C14.04 92.185 14.8417 92.5967 15.925 92.9C17.0083 93.16 18.395 93.3983 20.085 93.615C21.8617 93.8317 23.5733 94.135 25.22 94.525C26.91 94.915 28.405 95.5 29.705 96.28C31.005 97.0167 32.0233 98.0567 32.76 99.4C33.4967 100.7 33.865 102.412 33.865 104.535C33.865 108.392 32.4567 111.208 29.64 112.985C26.8667 114.762 23.01 115.65 18.07 115.65ZM55.7421 115.585C52.1021 115.585 48.9821 114.848 46.3821 113.375C43.8254 111.902 41.8537 109.843 40.4671 107.2C39.0804 104.513 38.3871 101.393 38.3871 97.84C38.3871 94.07 39.0804 90.82 40.4671 88.09C41.8537 85.36 43.8254 83.2583 46.3821 81.785C48.9387 80.2683 51.9504 79.51 55.4171 79.51C59.4471 79.51 62.7621 80.3983 65.3621 82.175C67.9621 83.9517 69.8254 86.3567 70.9521 89.39C72.0787 92.4233 72.4471 95.8683 72.0571 99.725H47.8121C47.7687 101.545 48.0721 103.105 48.7221 104.405C49.4154 105.705 50.3687 106.702 51.5821 107.395C52.7954 108.045 54.1821 108.37 55.7421 108.37C57.5621 108.37 59.1004 107.98 60.3571 107.2C61.6571 106.377 62.4804 105.293 62.8271 103.95H71.8621C71.5587 106.29 70.6704 108.327 69.1971 110.06C67.7671 111.793 65.9037 113.158 63.6071 114.155C61.3104 115.108 58.6887 115.585 55.7421 115.585ZM47.8121 94.655L46.9671 93.615H63.5421L62.6971 94.655C62.7837 92.835 62.5021 91.3617 61.8521 90.235C61.2454 89.065 60.3787 88.1983 59.2521 87.635C58.1254 87.0283 56.8471 86.725 55.4171 86.725C53.8571 86.725 52.5137 87.05 51.3871 87.7C50.2604 88.35 49.3721 89.2817 48.7221 90.495C48.1154 91.665 47.8121 93.0517 47.8121 94.655ZM94.1439 115.585C91.5439 115.585 89.1822 115.173 87.0589 114.35C84.9355 113.483 83.0939 112.248 81.5339 110.645C80.0172 109.042 78.8472 107.135 78.0239 104.925C77.2439 102.715 76.8539 100.267 76.8539 97.58C76.8539 93.8967 77.5689 90.7117 78.9989 88.025C80.4289 85.3383 82.4655 83.2583 85.1089 81.785C87.7522 80.2683 90.8722 79.51 94.4689 79.51C97.4589 79.51 100.102 80.0733 102.399 81.2C104.739 82.3267 106.602 83.8867 107.989 85.88C109.376 87.8733 110.134 90.1917 110.264 92.835H100.904C100.731 91.6217 100.319 90.6033 99.6689 89.78C99.0622 88.9567 98.2822 88.35 97.3289 87.96C96.4189 87.5267 95.3789 87.31 94.2089 87.31C92.5622 87.31 91.1539 87.7433 89.9839 88.61C88.8139 89.4333 87.9472 90.625 87.3839 92.185C86.8205 93.7017 86.5389 95.5 86.5389 97.58C86.5389 99.8767 86.8422 101.783 87.4489 103.3C88.0989 104.773 88.9872 105.9 90.1139 106.68C91.2839 107.417 92.6272 107.785 94.1439 107.785C95.5305 107.785 96.7005 107.547 97.6539 107.07C98.6505 106.593 99.4305 105.922 99.9939 105.055C100.601 104.188 100.947 103.213 101.034 102.13H110.329C110.199 104.86 109.419 107.243 107.989 109.28C106.602 111.273 104.717 112.833 102.334 113.96C99.9505 115.043 97.2205 115.585 94.1439 115.585ZM128.285 115.585C125.598 115.585 123.323 115.065 121.46 114.025C119.596 112.985 118.188 111.447 117.235 109.41C116.325 107.33 115.87 104.817 115.87 101.87V80.16H125.425V99.335C125.425 101.155 125.641 102.693 126.075 103.95C126.551 105.207 127.266 106.182 128.22 106.875C129.216 107.525 130.495 107.85 132.055 107.85C133.658 107.85 135.023 107.46 136.15 106.68C137.276 105.9 138.143 104.882 138.75 103.625C139.356 102.325 139.66 100.917 139.66 99.4V80.16H149.215V115H140.05L139.66 108.63H139.205C138.381 110.883 136.973 112.617 134.98 113.83C133.03 115 130.798 115.585 128.285 115.585ZM157.074 115V80.16H165.719L166.109 85.75H166.434C167.214 83.4967 168.449 81.9367 170.139 81.07C171.872 80.16 173.844 79.705 176.054 79.705C176.444 79.705 176.79 79.705 177.094 79.705C177.397 79.705 177.7 79.705 178.004 79.705V88.675C177.787 88.675 177.484 88.675 177.094 88.675C176.704 88.675 176.292 88.675 175.859 88.675C173.735 88.675 172.002 89 170.659 89.65C169.315 90.2567 168.319 91.1667 167.669 92.38C167.019 93.5933 166.672 95.0667 166.629 96.8V115H157.074ZM183.035 115V80.16H192.59V115H183.035ZM183.035 75.675V67.615H192.59V75.675H183.035ZM212.314 115C209.974 115 208.154 114.653 206.854 113.96C205.554 113.267 204.644 112.292 204.124 111.035C203.647 109.735 203.409 108.218 203.409 106.485V87.83H197.169V80.16H203.409V70.67L212.899 69.76V80.16H219.919V87.83H212.899V104.665C212.899 105.705 213.137 106.398 213.614 106.745C214.091 107.092 214.784 107.265 215.694 107.265H219.919V115H212.314ZM225.286 125.855V117.99H229.316C230.313 117.99 231.136 117.86 231.786 117.6C232.48 117.383 233.043 116.993 233.476 116.43C233.953 115.91 234.343 115.238 234.646 114.415L236.336 110.06V114.285L222.166 80.16H232.631L239.001 98.815L240.106 102.52H240.431L241.471 98.815L247.451 80.16H257.656L244.071 116.625C243.205 119.052 242.143 120.937 240.886 122.28C239.63 123.623 238.178 124.555 236.531 125.075C234.928 125.595 233.13 125.855 231.136 125.855H225.286ZM290.465 125.855V81.135H294.17L294.3 88.545H294.56C295.427 86.1617 296.944 84.2333 299.11 82.76C301.277 81.2867 303.877 80.55 306.91 80.55C308.99 80.55 310.897 80.9617 312.63 81.785C314.364 82.565 315.859 83.7133 317.115 85.23C318.372 86.7467 319.347 88.5883 320.04 90.755C320.734 92.9217 321.08 95.37 321.08 98.1C321.08 101.74 320.474 104.882 319.26 107.525C318.09 110.125 316.444 112.118 314.32 113.505C312.197 114.892 309.727 115.585 306.91 115.585C304.917 115.585 303.075 115.26 301.385 114.61C299.739 113.917 298.33 112.985 297.16 111.815C296.034 110.602 295.167 109.193 294.56 107.59H294.3V125.855H290.465ZM305.87 112.27C308.124 112.27 310.095 111.728 311.785 110.645C313.475 109.518 314.775 107.915 315.685 105.835C316.639 103.712 317.115 101.133 317.115 98.1C317.115 95.0233 316.639 92.445 315.685 90.365C314.775 88.2417 313.475 86.6383 311.785 85.555C310.095 84.4283 308.124 83.865 305.87 83.865C303.444 83.865 301.364 84.4283 299.63 85.555C297.897 86.6817 296.575 88.1767 295.665 90.04C294.799 91.86 294.365 93.81 294.365 95.89V100.245C294.365 101.805 294.604 103.3 295.08 104.73C295.6 106.16 296.359 107.438 297.355 108.565C298.352 109.692 299.565 110.602 300.995 111.295C302.425 111.945 304.05 112.27 305.87 112.27ZM329.059 115V81.135H332.439L332.699 87.7H332.894C333.631 85.49 334.952 83.7783 336.859 82.565C338.766 81.3083 340.911 80.68 343.294 80.68C343.684 80.68 344.031 80.7017 344.334 80.745C344.681 80.745 345.006 80.7667 345.309 80.81V84.45C345.049 84.4067 344.724 84.385 344.334 84.385C343.987 84.385 343.641 84.385 343.294 84.385C341.387 84.385 339.676 84.7533 338.159 85.49C336.642 86.2267 335.407 87.31 334.454 88.74C333.544 90.17 333.002 91.8817 332.829 93.875V115H329.059ZM364.164 115.52C361.737 115.52 359.527 115.108 357.534 114.285C355.584 113.462 353.894 112.292 352.464 110.775C351.034 109.215 349.929 107.373 349.149 105.25C348.369 103.127 347.979 100.765 347.979 98.165C347.979 94.6983 348.651 91.6433 349.994 89C351.337 86.3567 353.222 84.2983 355.649 82.825C358.076 81.3517 360.914 80.615 364.164 80.615C366.547 80.615 368.714 81.0267 370.664 81.85C372.657 82.6733 374.347 83.865 375.734 85.425C377.164 86.9417 378.269 88.7833 379.049 90.95C379.829 93.0733 380.219 95.4567 380.219 98.1C380.219 101.523 379.547 104.557 378.204 107.2C376.904 109.8 375.041 111.837 372.614 113.31C370.231 114.783 367.414 115.52 364.164 115.52ZM364.099 112.14C366.526 112.14 368.649 111.577 370.469 110.45C372.332 109.323 373.762 107.72 374.759 105.64C375.756 103.517 376.254 101.003 376.254 98.1C376.254 95.9333 375.972 94.005 375.409 92.315C374.889 90.5817 374.087 89.0867 373.004 87.83C371.964 86.5733 370.686 85.62 369.169 84.97C367.696 84.32 366.027 83.995 364.164 83.995C361.737 83.995 359.592 84.5583 357.729 85.685C355.909 86.8117 354.479 88.4367 353.439 90.56C352.399 92.64 351.879 95.175 351.879 98.165C351.879 100.288 352.161 102.217 352.724 103.95C353.287 105.64 354.111 107.092 355.194 108.305C356.277 109.518 357.556 110.472 359.029 111.165C360.546 111.815 362.236 112.14 364.099 112.14ZM400.424 115.52C398.344 115.52 396.437 115.13 394.704 114.35C392.971 113.57 391.476 112.443 390.219 110.97C388.962 109.453 387.987 107.612 387.294 105.445C386.644 103.278 386.319 100.808 386.319 98.035C386.319 94.3517 386.904 91.21 388.074 88.61C389.287 86.01 390.956 84.0167 393.079 82.63C395.202 81.2433 397.651 80.55 400.424 80.55C402.461 80.55 404.302 80.8967 405.949 81.59C407.639 82.24 409.069 83.1717 410.239 84.385C411.409 85.555 412.254 86.9417 412.774 88.545H413.034V67.615H416.869V115H413.164L413.034 107.46H412.774C411.951 109.887 410.456 111.837 408.289 113.31C406.122 114.783 403.501 115.52 400.424 115.52ZM401.529 112.205C403.956 112.205 406.014 111.642 407.704 110.515C409.437 109.345 410.737 107.85 411.604 106.03C412.514 104.21 412.969 102.26 412.969 100.18V95.825C412.969 94.3083 412.709 92.835 412.189 91.405C411.712 89.9317 410.976 88.6317 409.979 87.505C409.026 86.3783 407.834 85.49 406.404 84.84C404.974 84.1467 403.349 83.8 401.529 83.8C399.276 83.8 397.304 84.3633 395.614 85.49C393.924 86.5733 392.602 88.1767 391.649 90.3C390.739 92.38 390.284 94.9583 390.284 98.035C390.284 101.025 390.739 103.582 391.649 105.705C392.602 107.828 393.924 109.453 395.614 110.58C397.304 111.663 399.276 112.205 401.529 112.205ZM439.344 115.52C436.874 115.52 434.707 115.022 432.844 114.025C430.981 113.028 429.551 111.512 428.554 109.475C427.557 107.395 427.059 104.817 427.059 101.74V81.135H430.894V100.895C430.894 103.278 431.219 105.315 431.869 107.005C432.519 108.695 433.559 109.995 434.989 110.905C436.419 111.772 438.261 112.205 440.514 112.205C442.724 112.205 444.674 111.663 446.364 110.58C448.054 109.497 449.376 107.958 450.329 105.965C451.282 103.928 451.759 101.588 451.759 98.945V81.135H455.594V115H452.019L451.759 107.46H451.434C450.567 109.93 449.029 111.902 446.819 113.375C444.652 114.805 442.161 115.52 439.344 115.52ZM479.179 115.52C476.796 115.52 474.607 115.108 472.614 114.285C470.664 113.462 468.974 112.292 467.544 110.775C466.157 109.215 465.074 107.373 464.294 105.25C463.557 103.127 463.189 100.765 463.189 98.165C463.189 94.655 463.839 91.6 465.139 89C466.482 86.3567 468.367 84.2983 470.794 82.825C473.264 81.3517 476.146 80.615 479.439 80.615C481.996 80.615 484.292 81.1133 486.329 82.11C488.366 83.0633 490.012 84.4067 491.269 86.14C492.569 87.8733 493.349 89.8883 493.609 92.185H489.839C489.536 90.4083 488.886 88.9133 487.889 87.7C486.892 86.4867 485.657 85.5767 484.184 84.97C482.711 84.32 481.064 83.995 479.244 83.995C476.731 83.995 474.564 84.6017 472.744 85.815C470.924 86.985 469.516 88.6317 468.519 90.755C467.566 92.8783 467.089 95.3483 467.089 98.165C467.089 101.068 467.587 103.56 468.584 105.64C469.581 107.72 470.989 109.323 472.809 110.45C474.629 111.577 476.752 112.14 479.179 112.14C481.216 112.14 482.992 111.793 484.509 111.1C486.069 110.363 487.326 109.323 488.279 107.98C489.232 106.637 489.796 105.098 489.969 103.365H493.739C493.522 105.835 492.764 107.98 491.464 109.8C490.207 111.62 488.517 113.028 486.394 114.025C484.271 115.022 481.866 115.52 479.179 115.52ZM509.65 115C508.22 115 507.071 114.805 506.205 114.415C505.338 113.982 504.71 113.332 504.32 112.465C503.973 111.598 503.8 110.515 503.8 109.215V84.32H496.975V81.135H503.8V70.735L507.57 70.085V81.135H515.76V84.32H507.57V108.5C507.57 109.8 507.786 110.667 508.22 111.1C508.653 111.49 509.498 111.685 510.755 111.685H515.76V115H509.65ZM538.405 115V81.135H541.98L542.175 88.48H542.435C543.518 85.88 545.143 83.93 547.31 82.63C549.476 81.2867 551.881 80.615 554.525 80.615C557.168 80.615 559.486 81.265 561.48 82.565C563.516 83.865 564.946 86.01 565.77 89H566.29C567.373 86.2267 569.041 84.1467 571.295 82.76C573.548 81.33 576.083 80.615 578.9 80.615C581.196 80.615 583.255 81.1133 585.075 82.11C586.895 83.0633 588.303 84.6017 589.3 86.725C590.34 88.8483 590.86 91.665 590.86 95.175V115H587.09V95.89C587.09 93.16 586.743 90.9067 586.05 89.13C585.4 87.3533 584.381 86.0533 582.995 85.23C581.651 84.3633 579.918 83.93 577.795 83.93C575.541 83.93 573.57 84.4933 571.88 85.62C570.19 86.7467 568.868 88.285 567.915 90.235C567.005 92.1417 566.55 94.3517 566.55 96.865V115H562.715V95.89C562.715 93.16 562.368 90.9067 561.675 89.13C560.981 87.3533 559.963 86.0533 558.62 85.23C557.276 84.3633 555.565 83.93 553.485 83.93C551.188 83.93 549.195 84.4933 547.505 85.62C545.815 86.7467 544.493 88.285 543.54 90.235C542.63 92.1417 542.175 94.3517 542.175 96.865V115H538.405ZM612.626 115.52C610.546 115.52 608.639 115.13 606.906 114.35C605.173 113.57 603.678 112.443 602.421 110.97C601.164 109.453 600.189 107.612 599.496 105.445C598.846 103.278 598.521 100.808 598.521 98.035C598.521 94.3517 599.106 91.21 600.276 88.61C601.489 86.01 603.158 84.0167 605.281 82.63C607.404 81.2433 609.853 80.55 612.626 80.55C614.663 80.55 616.504 80.8967 618.151 81.59C619.841 82.24 621.271 83.1717 622.441 84.385C623.611 85.555 624.456 86.9417 624.976 88.545H625.236L625.431 81.135H629.071V115H625.236V107.46H624.976C624.153 109.887 622.658 111.837 620.491 113.31C618.324 114.783 615.703 115.52 612.626 115.52ZM613.731 112.205C616.158 112.205 618.216 111.642 619.906 110.515C621.639 109.345 622.939 107.85 623.806 106.03C624.716 104.21 625.171 102.26 625.171 100.18V95.825C625.171 93.745 624.716 91.795 623.806 89.975C622.939 88.155 621.639 86.6817 619.906 85.555C618.216 84.385 616.158 83.8 613.731 83.8C611.478 83.8 609.506 84.3633 607.816 85.49C606.126 86.5733 604.804 88.1767 603.851 90.3C602.941 92.38 602.486 94.9583 602.486 98.035C602.486 101.025 602.941 103.582 603.851 105.705C604.804 107.828 606.126 109.453 607.816 110.58C609.506 111.663 611.478 112.205 613.731 112.205ZM647.711 115C646.281 115 645.133 114.805 644.266 114.415C643.4 113.982 642.771 113.332 642.381 112.465C642.035 111.598 641.861 110.515 641.861 109.215V84.32H635.036V81.135H641.861V70.735L645.631 70.085V81.135H660.451V70.735L664.221 70.085V81.135H672.411V84.32H664.221V108.5C664.221 109.8 664.438 110.667 664.871 111.1C665.305 111.49 666.15 111.685 667.406 111.685H672.411V115H666.301C664.871 115 663.723 114.805 662.856 114.415C661.99 113.982 661.361 113.332 660.971 112.465C660.625 111.598 660.451 110.515 660.451 109.215V84.32H645.631V108.5C645.631 109.8 645.848 110.667 646.281 111.1C646.715 111.49 647.56 111.685 648.816 111.685H653.821V115H647.711ZM692.011 115.52C688.805 115.52 686.01 114.805 683.626 113.375C681.286 111.945 679.466 109.93 678.166 107.33C676.866 104.687 676.216 101.632 676.216 98.165C676.216 94.6117 676.845 91.535 678.101 88.935C679.358 86.2917 681.156 84.255 683.496 82.825C685.836 81.3517 688.631 80.615 691.881 80.615C695.391 80.615 698.295 81.395 700.591 82.955C702.931 84.515 704.6 86.66 705.596 89.39C706.636 92.12 707.005 95.1967 706.701 98.62H680.051C680.095 101.523 680.615 103.993 681.611 106.03C682.608 108.067 683.995 109.627 685.771 110.71C687.591 111.793 689.671 112.335 692.011 112.335C694.915 112.335 697.298 111.663 699.161 110.32C701.068 108.933 702.281 107.113 702.801 104.86H706.571C706.225 107.027 705.38 108.912 704.036 110.515C702.693 112.075 700.981 113.31 698.901 114.22C696.865 115.087 694.568 115.52 692.011 115.52ZM680.116 96.15L679.661 95.76H703.386L702.996 96.345C703.04 93.5283 702.585 91.21 701.631 89.39C700.721 87.5267 699.421 86.14 697.731 85.23C696.041 84.2767 694.07 83.8 691.816 83.8C689.52 83.8 687.505 84.2983 685.771 85.295C684.081 86.2917 682.738 87.7217 681.741 89.585C680.788 91.405 680.246 93.5933 680.116 96.15ZM714.806 115V81.135H718.186L718.446 87.7H718.641C719.378 85.49 720.699 83.7783 722.606 82.565C724.513 81.3083 726.658 80.68 729.041 80.68C729.431 80.68 729.778 80.7017 730.081 80.745C730.428 80.745 730.753 80.7667 731.056 80.81V84.45C730.796 84.4067 730.471 84.385 730.081 84.385C729.734 84.385 729.388 84.385 729.041 84.385C727.134 84.385 725.423 84.7533 723.906 85.49C722.389 86.2267 721.154 87.31 720.201 88.74C719.291 90.17 718.749 91.8817 718.576 93.875V115H714.806Z" fill="white"/>
<circle cx="260" cy="79" r="17" fill="white"/>
<g clip-path="url(#clip1_3188_29064)">
<path fill-rule="evenodd" clip-rule="evenodd" d="M259.892 69.2695C259.063 69.2695 257.676 69.5883 256.371 69.9431C255.035 70.304 253.689 70.731 252.898 70.9896C252.567 71.0989 252.274 71.2993 252.052 71.5678C251.829 71.8363 251.688 72.162 251.642 72.5076C250.925 77.8926 252.589 81.8836 254.607 84.5238C255.463 85.6532 256.484 86.6478 257.635 87.4744C258.099 87.8027 258.53 88.0541 258.895 88.2261C259.232 88.3849 259.594 88.5148 259.892 88.5148C260.191 88.5148 260.552 88.3849 260.89 88.2261C261.33 88.0119 261.752 87.7604 262.15 87.4744C263.301 86.6479 264.322 85.6533 265.178 84.5238C267.196 81.8836 268.86 77.8926 268.143 72.5076C268.097 72.1619 267.956 71.8359 267.733 71.5672C267.511 71.2985 267.218 71.0979 266.887 70.9884C265.738 70.6117 264.58 70.2627 263.414 69.9419C262.109 69.5895 260.722 69.2695 259.892 69.2695ZM262.474 75.4593C262.587 75.3464 262.74 75.2829 262.9 75.2829C263.059 75.2829 263.212 75.3464 263.325 75.4593C263.438 75.5722 263.502 75.7254 263.502 75.8851C263.502 76.0448 263.438 76.198 263.325 76.3109L259.717 79.9194C259.661 79.9754 259.595 80.0198 259.522 80.0502C259.448 80.0805 259.37 80.0961 259.291 80.0961C259.212 80.0961 259.134 80.0805 259.061 80.0502C258.987 80.0198 258.921 79.9754 258.865 79.9194L257.061 78.1151C257.005 78.0592 256.961 77.9928 256.93 77.9198C256.9 77.8467 256.885 77.7684 256.885 77.6893C256.885 77.6103 256.9 77.532 256.93 77.4589C256.961 77.3858 257.005 77.3195 257.061 77.2635C257.117 77.2076 257.183 77.1633 257.256 77.133C257.329 77.1027 257.408 77.0872 257.487 77.0872C257.566 77.0872 257.644 77.1027 257.717 77.133C257.79 77.1633 257.857 77.2076 257.913 77.2635L259.291 78.6432L262.474 75.4593Z" fill="#22C55E"/>
<path d="M262.563 86.9458C262.842 86.9458 263.069 86.7192 263.069 86.4397C263.069 86.1602 262.842 85.9336 262.563 85.9336C262.283 85.9336 262.057 86.1602 262.057 86.4397C262.057 86.7192 262.283 86.9458 262.563 86.9458Z" fill="#F0FDF4"/>
<path d="M264.512 84.5178V84.1296C264.512 83.2913 264.31 82.1797 262.562 82.1797C260.814 82.1797 260.612 83.2913 260.612 84.1296V84.5178C259.743 84.6264 259.457 85.0674 259.457 86.151V86.7285C259.457 88.0016 259.845 88.3897 261.118 88.3897H264.006C265.279 88.3897 265.667 88.0016 265.667 86.7285V86.151C265.667 85.0674 265.381 84.6264 264.512 84.5178ZM262.562 87.3775C262.044 87.3775 261.624 86.9552 261.624 86.4398C261.624 85.9212 262.047 85.5021 262.562 85.5021C263.077 85.5021 263.5 85.9243 263.5 86.4398C263.5 86.9583 263.081 87.3775 262.562 87.3775ZM261.118 84.4898C261.093 84.4898 261.072 84.4898 261.047 84.4898V84.1296C261.047 83.2199 261.305 82.6144 262.562 82.6144C263.82 82.6144 264.077 83.2199 264.077 84.1296V84.4929C264.052 84.4929 264.031 84.4929 264.006 84.4929H261.118V84.4898Z" fill="#F0FDF4"/>
</g>
</g>
<defs>
<clipPath id="clip0_3188_29064">
<rect width="745" height="126" fill="white"/>
</clipPath>
<clipPath id="clip1_3188_29064">
<rect width="19.2453" height="19.2453" fill="white" transform="translate(250.27 69.2695)"/>
</clipPath>
</defs>
</svg>
