<svg width="787" height="391" viewBox="0 0 787 391" fill="none" xmlns="http://www.w3.org/2000/svg">
<g clip-path="url(#clip0_3481_29601)">
<g opacity="0.3" filter="url(#filter0_f_3481_29601)">
<ellipse cx="315.761" cy="295" rx="186.761" ry="129" fill="#2563EB"/>
</g>
<g opacity="0.3" filter="url(#filter1_f_3481_29601)">
<ellipse cx="462.241" cy="295" rx="186.761" ry="129" fill="#F707ED"/>
</g>
<g clip-path="url(#clip1_3481_29601)">
<g opacity="0.7" filter="url(#filter2_f_3481_29601)">
<rect x="258" y="87" width="59" height="336" fill="#262626"/>
</g>
<rect width="6.22172" height="63.4249" rx="2.48725" transform="matrix(-1 0 0 1 519 217.727)" fill="url(#paint0_linear_3481_29601)"/>
<rect width="6.22172" height="60.9377" rx="1.24363" transform="matrix(-1 0 0 1 517.762 218.969)" fill="url(#paint1_linear_3481_29601)"/>
<rect width="6.31026" height="42.1755" rx="2.48725" transform="matrix(1 -6.8175e-08 -1.12105e-07 -1 247.012 317.984)" fill="url(#paint2_linear_3481_29601)"/>
<rect width="6.31026" height="39.8105" rx="1.24363" transform="matrix(1 -5.67722e-08 -1.34621e-07 -1 248.199 316.805)" fill="url(#paint3_linear_3481_29601)"/>
<rect width="6.31026" height="41.3872" rx="2.48725" transform="matrix(1 -6.8175e-08 -1.12105e-07 -1 247.008 259.254)" fill="url(#paint4_linear_3481_29601)"/>
<rect width="6.31026" height="18.1315" rx="2.48725" transform="matrix(1 -6.8175e-08 -1.12105e-07 -1 247.398 202.887)" fill="url(#paint5_linear_3481_29601)"/>
<rect width="6.31026" height="39.8105" rx="1.24363" transform="matrix(1 -5.67722e-08 -1.34621e-07 -1 248.191 258.465)" fill="url(#paint6_linear_3481_29601)"/>
<rect width="6.31026" height="15.7665" rx="1.24363" transform="matrix(1 -4.1633e-08 -1.83574e-07 -1 248.586 201.703)" fill="url(#paint7_linear_3481_29601)"/>
<rect x="249.91" y="54.8086" width="266.136" height="533.516" rx="46.636" fill="white"/>
<rect x="251.152" y="56.0547" width="263.649" height="531.028" rx="46.0142" fill="url(#paint8_linear_3481_29601)"/>
<rect x="252.277" y="57.1523" width="261.161" height="528.541" rx="44.7705" fill="black"/>
<rect x="258.727" y="63.6016" width="247.978" height="515.359" rx="39.9384" fill="white"/>
<g clip-path="url(#clip2_3481_29601)">
<rect x="258.137" y="70.0508" width="248.552" height="542.829" rx="35.1725" fill="white"/>
<g clip-path="url(#clip3_3481_29601)">
<path opacity="0.35" fill-rule="evenodd" clip-rule="evenodd" d="M481.078 83.7383C480.413 83.7383 480.15 83.7828 479.878 83.91C479.649 84.0174 479.471 84.1733 479.348 84.3741C479.203 84.612 479.152 84.8425 479.152 85.4253V88.0244C479.152 88.6072 479.203 88.8377 479.348 89.0756C479.471 89.2764 479.649 89.4323 479.878 89.5397C480.15 89.6669 480.413 89.7114 481.078 89.7114H491.081C491.747 89.7114 492.01 89.6669 492.281 89.5397C492.51 89.4323 492.688 89.2764 492.811 89.0756C492.956 88.8377 493.007 88.6072 493.007 88.0244V85.4253C493.007 84.8425 492.956 84.612 492.811 84.3741C492.688 84.1733 492.51 84.0174 492.281 83.91C492.01 83.7828 491.747 83.7383 491.081 83.7383H481.078Z" stroke="black" stroke-width="0.578045"/>
<path opacity="0.4" d="M493.996 85.5664V87.8786C494.527 87.6828 494.872 87.2272 494.872 86.7225C494.872 86.2178 494.527 85.7622 493.996 85.5664Z" fill="black"/>
<path d="M481.264 84.6055H490.884C491.277 84.6055 491.419 84.6412 491.562 84.7084C491.705 84.7756 491.818 84.8742 491.895 84.9998C491.971 85.1254 492.012 85.2499 492.012 85.5935V87.8564C492.012 88.2 491.971 88.3246 491.895 88.4502C491.818 88.5758 491.705 88.6744 491.562 88.7415C491.419 88.8087 491.277 88.8445 490.884 88.8445H481.264C480.872 88.8445 480.73 88.8087 480.587 88.7415C480.443 88.6744 480.331 88.5758 480.254 88.4502C480.178 88.3246 480.137 88.2 480.137 87.8564V85.5935C480.137 85.2499 480.178 85.1254 480.254 84.9998C480.331 84.8742 480.443 84.7756 480.587 84.7084C480.73 84.6412 480.872 84.6055 481.264 84.6055Z" fill="black"/>
<path d="M470.468 84.7737C471.936 84.7737 473.348 85.2674 474.412 86.1528C474.492 86.2211 474.62 86.2202 474.699 86.1508L475.464 85.4743C475.504 85.4391 475.527 85.3914 475.526 85.3418C475.526 85.2922 475.503 85.2447 475.463 85.2099C472.671 82.8675 468.266 82.8675 465.474 85.2099C465.433 85.2447 465.411 85.2921 465.41 85.3418C465.41 85.3914 465.432 85.4391 465.472 85.4743L466.238 86.1508C466.317 86.2203 466.445 86.2212 466.525 86.1528C467.589 85.2674 469.001 84.7737 470.468 84.7737ZM470.468 86.9746C471.275 86.9746 472.053 87.237 472.65 87.7108C472.731 87.7781 472.859 87.7766 472.937 87.7076L473.702 87.0311C473.742 86.9956 473.765 86.9474 473.764 86.8974C473.764 86.8474 473.74 86.7997 473.699 86.7649C471.879 85.2826 469.06 85.2826 467.239 86.7649C467.198 86.7997 467.175 86.8474 467.174 86.8974C467.174 86.9475 467.196 86.9956 467.237 87.0311L468.001 87.7076C468.08 87.7766 468.207 87.7781 468.288 87.7108C468.886 87.2373 469.663 86.9749 470.468 86.9746ZM471.938 88.5891C471.979 88.554 472.002 88.5056 472.001 88.4555C471.999 88.4053 471.975 88.3578 471.932 88.3241C471.087 87.6985 469.85 87.6985 469.005 88.3241C468.962 88.3578 468.937 88.4053 468.936 88.4554C468.935 88.5056 468.958 88.554 468.998 88.5891L470.322 89.7579C470.36 89.7923 470.413 89.8116 470.468 89.8116C470.524 89.8116 470.576 89.7923 470.615 89.7579L471.938 88.5891Z" fill="black"/>
<path d="M451.558 87.4982H452.218C452.582 87.4982 452.878 87.757 452.878 88.0762V89.2323C452.878 89.5515 452.582 89.8103 452.218 89.8103H451.558C451.194 89.8103 450.898 89.5515 450.898 89.2323V88.0762C450.898 87.757 451.194 87.4982 451.558 87.4982ZM454.637 86.3421H455.297C455.661 86.3421 455.956 86.6009 455.956 86.9201V89.2323C455.956 89.5515 455.661 89.8103 455.297 89.8103H454.637C454.273 89.8103 453.977 89.5515 453.977 89.2323V86.9201C453.977 86.6009 454.273 86.3421 454.637 86.3421ZM457.716 84.9933H458.376C458.74 84.9933 459.035 85.2521 459.035 85.5713V89.2323C459.035 89.5515 458.74 89.8103 458.376 89.8103H457.716C457.351 89.8103 457.056 89.5515 457.056 89.2323V85.5713C457.056 85.2521 457.351 84.9933 457.716 84.9933ZM460.795 83.6445H461.454C461.819 83.6445 462.114 83.9033 462.114 84.2226V89.2323C462.114 89.5515 461.819 89.8103 461.454 89.8103H460.795C460.43 89.8103 460.135 89.5515 460.135 89.2323V84.2226C460.135 83.9033 460.43 83.6445 460.795 83.6445Z" fill="black"/>
<path d="M271.816 88.9492V83.1399H270.958C270.663 83.5127 270.256 83.6601 269.779 83.6601V84.3711H270.837V88.9492H271.816ZM276.99 88.9492V88.0822H274.761L273.894 88.1689L274.571 87.666L275.377 86.955C275.993 86.4434 276.825 85.637 276.825 84.7006C276.825 83.7468 276.253 83.0532 275.082 83.0532C273.747 83.0532 272.802 83.9029 272.828 85.0648L273.651 85.6544C273.599 84.5358 274.137 83.9896 274.995 83.9896C275.559 83.9896 275.802 84.3451 275.802 84.7613C275.802 85.3075 275.403 85.7497 274.839 86.296L272.836 88.2035V88.9492H276.99ZM278.852 86.0879V84.8567H277.742V86.0879H278.852ZM278.852 88.9492V87.718H277.742V88.9492H278.852ZM282.092 89.0273C283.713 89.0273 284.528 87.744 284.528 86.0359C284.528 84.3364 283.713 83.0532 282.092 83.0532C280.471 83.0532 279.647 84.3364 279.647 86.0359C279.647 87.744 280.471 89.0273 282.092 89.0273ZM282.092 88.0908C281.06 88.0908 280.679 87.2584 280.679 86.0359C280.679 84.822 281.06 83.9809 282.092 83.9809C283.132 83.9809 283.505 84.822 283.505 86.0359C283.505 87.2584 283.132 88.0908 282.092 88.0908ZM287.757 89.0273C289.378 89.0273 290.193 87.744 290.193 86.0359C290.193 84.3364 289.378 83.0532 287.757 83.0532C286.135 83.0532 285.312 84.3364 285.312 86.0359C285.312 87.744 286.135 89.0273 287.757 89.0273ZM287.757 88.0908C286.725 88.0908 286.343 87.2584 286.343 86.0359C286.343 84.822 286.725 83.9809 287.757 83.9809C288.797 83.9809 289.17 84.822 289.17 86.0359C289.17 87.2584 288.797 88.0908 287.757 88.0908Z" fill="black"/>
</g>
<path d="M273.88 129.741L270.176 126.048C270.132 126.004 270.1 125.956 270.082 125.905C270.063 125.854 270.054 125.799 270.055 125.74C270.055 125.681 270.064 125.626 270.082 125.575C270.101 125.524 270.132 125.476 270.176 125.432L273.88 121.728C273.982 121.626 274.111 121.574 274.264 121.574C274.418 121.574 274.55 121.629 274.66 121.739C274.77 121.849 274.825 121.977 274.825 122.124C274.825 122.27 274.77 122.399 274.66 122.508L271.429 125.74L274.66 128.971C274.763 129.074 274.814 129.2 274.814 129.351C274.814 129.501 274.759 129.631 274.649 129.741C274.539 129.851 274.411 129.906 274.264 129.906C274.118 129.906 273.99 129.851 273.88 129.741Z" fill="black"/>
<path d="M367.489 128.871V128.149H364.009V126.01H366.879V125.288H364.009V123.309H367.489V122.587H363.193V128.871H367.489ZM369.757 128.974C370.386 128.974 370.817 128.684 371.014 128.374L370.742 127.567C370.62 127.849 370.339 128.186 369.936 128.186C369.579 128.186 369.307 128.046 369.307 127.464V124.969H370.799V124.331H369.307V123.15L368.491 123.75V124.331H367.76V124.969H368.491V127.708C368.491 128.487 369.016 128.974 369.757 128.974ZM372.635 128.871V126.301C372.635 125.541 372.954 124.932 373.827 124.932C374.596 124.932 374.83 125.344 374.83 125.935V128.871H375.637V125.738C375.637 124.772 375.083 124.238 374.192 124.238C373.301 124.238 372.814 124.838 372.635 125.541V122.587H371.819V128.871H372.635ZM378.762 128.965C379.747 128.965 380.375 128.505 380.713 127.961L380.216 127.399C380.037 127.792 379.672 128.29 378.762 128.29C377.955 128.29 377.42 127.746 377.374 126.789H380.741C380.76 126.704 380.778 126.564 380.778 126.423C380.778 125.091 380 124.238 378.715 124.238C377.467 124.238 376.586 125.166 376.586 126.601C376.586 128.046 377.477 128.965 378.762 128.965ZM378.715 124.922C379.475 124.922 379.962 125.363 380.047 126.198H377.392C377.496 125.354 377.983 124.922 378.715 124.922ZM382.628 128.871V126.301C382.628 125.523 383.154 124.838 383.735 124.838C384.063 124.838 384.204 125.063 384.204 125.326C384.204 125.579 384.082 125.86 383.932 125.992H384.823C384.898 125.879 385.001 125.598 385.001 125.213C385.001 124.575 384.532 124.228 384.045 124.228C383.276 124.228 382.807 124.838 382.628 125.541V124.331H381.812V128.871H382.628ZM387.582 128.965C388.567 128.965 389.196 128.505 389.533 127.961L389.036 127.399C388.858 127.792 388.492 128.29 387.582 128.29C386.776 128.29 386.241 127.746 386.194 126.789H389.561C389.58 126.704 389.599 126.564 389.599 126.423C389.599 125.091 388.82 124.238 387.535 124.238C386.288 124.238 385.406 125.166 385.406 126.601C385.406 128.046 386.297 128.965 387.582 128.965ZM387.535 124.922C388.295 124.922 388.783 125.363 388.867 126.198H386.213C386.316 125.354 386.804 124.922 387.535 124.922ZM392.049 128.965C392.959 128.965 393.447 128.346 393.616 127.633V128.871H394.422V124.331H393.616V126.911C393.616 127.661 393.297 128.28 392.415 128.28C391.646 128.28 391.411 127.858 391.411 127.277V124.331H390.605V127.474C390.605 128.43 391.158 128.965 392.049 128.965ZM396.478 128.871V126.301C396.478 125.541 396.796 124.932 397.481 124.932C398.166 124.932 398.475 125.26 398.475 125.926V128.871H399.291V126.301C399.291 125.541 399.61 124.932 400.304 124.932C400.98 124.932 401.299 125.26 401.299 125.926V128.871H402.105V125.729C402.105 124.772 401.646 124.238 400.755 124.238C399.929 124.238 399.46 124.847 399.282 125.57C399.235 124.716 398.775 124.238 397.941 124.238C397.125 124.238 396.656 124.838 396.478 125.532V124.331H395.662V128.871H396.478Z" fill="black"/>
<circle cx="492.914" cy="121.34" r="0.879312" fill="black"/>
<circle cx="492.914" cy="126.032" r="0.879312" fill="black"/>
<circle cx="492.914" cy="130.719" r="0.879312" fill="black"/>
<path d="M355.237 172.242V171.304H351.851V169.503H354.655V168.565H351.851V166.896H355.237V165.958H350.791V172.242H355.237ZM358.471 172.242V166.896H360.403V165.958H355.488V166.896H357.411V172.242H358.471ZM361.89 172.242V169.503H364.91V172.242H365.97V165.958H364.91V168.565H361.89V165.958H360.83V172.242H361.89Z" fill="black"/>
<path d="M353.9 183.141V182.733H351.199V180.946H353.443V180.531H351.199V178.836H353.9V178.428H350.735V183.141H353.9ZM355.581 183.218C356.017 183.218 356.348 183.014 356.496 182.768L356.334 182.318C356.221 182.557 355.975 182.775 355.673 182.775C355.377 182.775 355.124 182.641 355.124 182.156V180.123H356.257V179.764H355.124V178.934L354.667 179.279V179.764H354.118V180.123H354.667V182.282C354.667 182.894 355.068 183.218 355.581 183.218ZM357.586 183.141V181.185C357.586 180.601 357.881 180.081 358.606 180.081C359.183 180.081 359.422 180.418 359.422 180.967V183.141H359.886V180.861C359.886 180.088 359.45 179.694 358.796 179.694C358.107 179.694 357.706 180.158 357.586 180.707V178.428H357.122V183.141H357.586ZM362.245 183.211C362.963 183.211 363.413 182.866 363.652 182.451L363.371 182.121C363.223 182.451 362.928 182.824 362.245 182.824C361.577 182.824 361.12 182.402 361.092 181.558H363.666C363.673 181.502 363.687 181.417 363.687 181.333C363.687 180.313 363.111 179.694 362.189 179.694C361.275 179.694 360.648 180.355 360.648 181.452C360.648 182.571 361.303 183.211 362.245 183.211ZM362.189 180.074C362.808 180.074 363.223 180.46 363.265 181.22H361.099C361.162 180.46 361.57 180.074 362.189 180.074ZM364.964 183.141V181.185C364.964 180.601 365.365 180.038 365.871 180.038C366.181 180.038 366.308 180.235 366.308 180.453C366.308 180.657 366.223 180.876 366.132 180.981H366.631C366.694 180.868 366.758 180.657 366.758 180.404C366.758 179.94 366.434 179.687 366.04 179.687C365.463 179.687 365.091 180.151 364.964 180.686V179.764H364.5V183.141H364.964ZM368.696 183.211C369.413 183.211 369.864 182.866 370.103 182.451L369.821 182.121C369.674 182.451 369.378 182.824 368.696 182.824C368.028 182.824 367.57 182.402 367.542 181.558H370.117C370.124 181.502 370.138 181.417 370.138 181.333C370.138 180.313 369.561 179.694 368.64 179.694C367.725 179.694 367.099 180.355 367.099 181.452C367.099 182.571 367.753 183.211 368.696 183.211ZM368.64 180.074C369.259 180.074 369.674 180.46 369.716 181.22H367.549C367.613 180.46 368.021 180.074 368.64 180.074ZM372.034 183.211C372.73 183.211 373.11 182.74 373.229 182.177V183.141H373.687V179.764H373.229V181.713C373.229 182.304 372.948 182.817 372.217 182.817C371.64 182.817 371.386 182.479 371.386 181.938V179.764H370.929V182.036C370.929 182.817 371.372 183.211 372.034 183.211ZM375.138 183.141V181.185C375.138 180.601 375.426 180.081 376.024 180.081C376.552 180.081 376.812 180.369 376.812 180.96V183.141H377.269V181.185C377.269 180.601 377.558 180.081 378.163 180.081C378.683 180.081 378.944 180.369 378.944 180.96V183.141H379.408V180.854C379.408 180.081 379.042 179.694 378.395 179.694C377.762 179.694 377.375 180.165 377.262 180.721C377.227 180.038 376.868 179.694 376.256 179.694C375.63 179.694 375.257 180.151 375.138 180.707V179.764H374.674V183.141H375.138Z" fill="#B3B3B3"/>
<path fill-rule="evenodd" clip-rule="evenodd" d="M332.29 183.755C326.947 183.755 322.617 179.425 322.617 174.083C322.617 168.74 326.947 164.41 332.29 164.41C337.632 164.41 341.962 168.74 341.962 174.083C341.962 179.425 337.632 183.755 332.29 183.755ZM337.122 174.215L332.591 166.828L328.058 174.216L332.591 176.847L337.122 174.215ZM337.126 175.06L332.591 177.69L328.058 175.06L332.591 181.334L337.126 175.06Z" fill="black"/>
<path d="M332.598 166.828V172.19L337.13 174.215L332.598 166.828ZM332.598 177.69V181.334L337.133 175.059L332.598 177.69Z" fill="black" fill-opacity="0.298"/>
<path d="M332.598 176.847L337.13 174.215L332.598 172.191V176.847Z" fill="black" fill-opacity="0.801"/>
<path d="M328.062 174.215L332.595 176.847V172.191L328.062 174.215Z" fill="black" fill-opacity="0.298"/>
<path d="M402.238 173.774V172.92C403.401 172.845 404.245 172.208 404.245 171.138C404.245 169.938 403.345 169.544 402.341 169.3L402.238 169.272V167.555C402.707 167.705 403.111 168.034 403.345 168.568L404.142 167.809C403.777 167.105 403.101 166.655 402.238 166.514V165.614H401.582V166.467C400.437 166.467 399.415 167.105 399.415 168.287C399.415 169.478 400.362 169.881 401.253 170.069L401.582 170.144V171.917C400.925 171.795 400.25 171.42 399.978 170.679L399.228 171.438C399.659 172.367 400.559 172.817 401.582 172.911V173.774H402.238ZM400.522 168.212C400.522 167.734 400.953 167.452 401.554 167.452H401.582V169.112C400.953 168.962 400.522 168.765 400.522 168.212ZM403.167 171.157C403.167 171.664 402.764 171.898 402.238 171.945V170.294C402.82 170.454 403.167 170.651 403.167 171.157ZM407.772 172.93C409.198 172.93 410.089 172.067 410.089 170.772C410.089 169.525 409.395 168.718 408.203 168.718C407.369 168.718 406.862 169.169 406.665 169.731L406.815 167.527H409.62V166.552H405.802L405.596 170.125L406.628 170.228L406.637 170.144C406.693 169.741 407.115 169.488 407.716 169.488C408.363 169.488 408.954 169.844 408.954 170.726C408.954 171.457 408.541 171.907 407.781 171.907C406.975 171.907 406.421 171.438 406.206 170.66L405.361 171.476C405.68 172.292 406.571 172.93 407.772 172.93ZM413.487 172.92C415.241 172.92 416.123 171.532 416.123 169.684C416.123 167.846 415.241 166.458 413.487 166.458C411.733 166.458 410.842 167.846 410.842 169.684C410.842 171.532 411.733 172.92 413.487 172.92ZM413.487 171.907C412.371 171.907 411.959 171.007 411.959 169.684C411.959 168.371 412.371 167.462 413.487 167.462C414.613 167.462 415.016 168.371 415.016 169.684C415.016 171.007 414.613 171.907 413.487 171.907ZM419.615 172.92C421.369 172.92 422.251 171.532 422.251 169.684C422.251 167.846 421.369 166.458 419.615 166.458C417.861 166.458 416.97 167.846 416.97 169.684C416.97 171.532 417.861 172.92 419.615 172.92ZM419.615 171.907C418.499 171.907 418.086 171.007 418.086 169.684C418.086 168.371 418.499 167.462 419.615 167.462C420.741 167.462 421.144 168.371 421.144 169.684C421.144 171.007 420.741 171.907 419.615 171.907ZM424.161 172.836V171.504H422.96V172.836H424.161ZM429.24 172.836V171.42H430.3V170.5H429.24V166.552H428.124L425.048 170.604V171.42H428.19V172.836H429.24ZM426.211 170.5L428.19 167.921V170.5H426.211ZM433.373 172.93C434.798 172.93 435.689 172.067 435.689 170.772C435.689 169.525 434.995 168.718 433.804 168.718C432.969 168.718 432.463 169.169 432.266 169.731L432.416 167.527H435.22V166.552H431.403L431.197 170.125L432.228 170.228L432.238 170.144C432.294 169.741 432.716 169.488 433.316 169.488C433.964 169.488 434.554 169.844 434.554 170.726C434.554 171.457 434.142 171.907 433.382 171.907C432.575 171.907 432.022 171.438 431.806 170.66L430.962 171.476C431.281 172.292 432.172 172.93 433.373 172.93ZM438.975 172.93C440.325 172.93 441.254 172.02 441.254 170.754C441.254 169.619 440.682 168.737 439.416 168.737C438.45 168.737 437.812 169.291 437.68 170.219V169.619C437.68 167.949 438.318 167.499 439.05 167.499C439.678 167.499 440.138 167.846 440.419 168.409L441.141 167.537C440.747 166.899 440.035 166.458 439.106 166.458C437.427 166.458 436.536 167.602 436.536 169.619V169.722C436.536 172.057 437.465 172.93 438.975 172.93ZM438.947 171.926C438.196 171.926 437.755 171.523 437.755 170.66C437.755 169.947 438.224 169.563 438.965 169.563C439.763 169.563 440.119 170.041 440.119 170.754C440.119 171.42 439.678 171.926 438.947 171.926Z" fill="black"/>
<path d="M427.665 180.621C428.738 180.621 429.242 179.736 429.242 178.593C429.242 177.461 428.738 176.576 427.665 176.576C426.586 176.576 426.082 177.461 426.082 178.593C426.082 179.736 426.586 180.621 427.665 180.621ZM427.671 180.135C426.891 180.135 426.621 179.496 426.621 178.593C426.621 177.702 426.891 177.057 427.671 177.057C428.445 177.057 428.708 177.702 428.708 178.593C428.708 179.496 428.445 180.135 427.671 180.135ZM430.385 180.562V179.8H429.77V180.562H430.385ZM433.525 180.562V179.625H434.229V179.173H433.525V176.635H433.015L431.04 179.226V179.625H433.015V180.562H433.525ZM431.62 179.173L433.015 177.374V179.173H431.62ZM436.177 180.621C437.033 180.621 437.572 180.187 437.572 179.548C437.572 179.038 437.314 178.593 436.599 178.534C437.097 178.464 437.396 178.048 437.396 177.643C437.396 177.139 437.056 176.576 436.148 176.576C435.444 176.576 434.928 176.998 434.764 177.532L435.198 177.895C435.268 177.356 435.632 177.069 436.136 177.069C436.64 177.069 436.863 177.379 436.863 177.755C436.863 178.165 436.617 178.376 436.124 178.376H435.479V178.816H436.118C436.664 178.816 437.033 179.027 437.033 179.496C437.033 179.894 436.746 180.135 436.241 180.135C435.503 180.135 435.251 179.736 435.134 179.138L434.7 179.525C434.829 180.117 435.327 180.621 436.177 180.621ZM438.911 178.352C439.397 178.352 439.761 178.007 439.761 177.467C439.761 176.928 439.397 176.582 438.911 176.582C438.418 176.582 438.055 176.928 438.055 177.467C438.055 178.007 438.418 178.352 438.911 178.352ZM438.788 180.562L441.555 176.635H441.021L438.254 180.562H438.788ZM438.911 177.977C438.635 177.977 438.471 177.778 438.471 177.467C438.471 177.151 438.635 176.951 438.911 176.951C439.186 176.951 439.356 177.151 439.356 177.467C439.356 177.778 439.186 177.977 438.911 177.977ZM440.916 180.562C441.402 180.562 441.766 180.217 441.766 179.677C441.766 179.138 441.402 178.792 440.916 178.792C440.423 178.792 440.06 179.138 440.06 179.677C440.06 180.217 440.423 180.562 440.916 180.562ZM440.916 180.187C440.64 180.187 440.476 179.988 440.476 179.677C440.476 179.361 440.64 179.161 440.916 179.161C441.191 179.161 441.361 179.361 441.361 179.677C441.361 179.988 441.191 180.187 440.916 180.187Z" fill="#228B22"/>
<path d="M422.27 178.496L423.285 180.255H421.255L422.27 178.496Z" fill="#228B22"/>
<path d="M279.828 250.016H494.38" stroke="#F2F2F2" stroke-width="0.586208" stroke-dasharray="1.17 1.17"/>
<path d="M279.828 279.328H494.38" stroke="#F2F2F2" stroke-width="0.586208" stroke-dasharray="1.17 1.17"/>
<path d="M279.828 308.641H494.38" stroke="#F2F2F2" stroke-width="0.586208" stroke-dasharray="1.17 1.17"/>
<path d="M279.828 337.949H494.38" stroke="#F2F2F2" stroke-width="0.586208" stroke-dasharray="1.17 1.17"/>
<path d="M279.828 367.254H494.38" stroke="#F2F2F2" stroke-width="0.586208" stroke-dasharray="1.17 1.17"/>
<path d="M288.039 367.266L288.039 245.921" stroke="#F2F2F2" stroke-width="0.586208" stroke-dasharray="1.17 1.17"/>
<path d="M317.348 367.266L317.348 245.921" stroke="#F2F2F2" stroke-width="0.586208" stroke-dasharray="1.17 1.17"/>
<path d="M346.66 367.266L346.66 245.921" stroke="#F2F2F2" stroke-width="0.586208" stroke-dasharray="1.17 1.17"/>
<path d="M375.973 367.266L375.973 245.921" stroke="#F2F2F2" stroke-width="0.586208" stroke-dasharray="1.17 1.17"/>
<path d="M405.281 367.266L405.281 245.921" stroke="#F2F2F2" stroke-width="0.586208" stroke-dasharray="1.17 1.17"/>
<path d="M434.594 367.266L434.594 245.921" stroke="#F2F2F2" stroke-width="0.586208" stroke-dasharray="1.17 1.17"/>
<path d="M463.902 367.266L463.902 245.921" stroke="#F2F2F2" stroke-width="0.586208" stroke-dasharray="1.17 1.17"/>
<path d="M493.211 367.266L493.211 245.921" stroke="#F2F2F2" stroke-width="0.586208" stroke-dasharray="1.17 1.17"/>
<path d="M270.97 368.795C271.935 368.795 272.389 367.998 272.389 366.969C272.389 365.951 271.935 365.155 270.97 365.155C269.999 365.155 269.545 365.951 269.545 366.969C269.545 367.998 269.999 368.795 270.97 368.795ZM270.975 368.357C270.273 368.357 270.03 367.782 270.03 366.969C270.03 366.168 270.273 365.587 270.975 365.587C271.671 365.587 271.909 366.168 271.909 366.969C271.909 367.782 271.671 368.357 270.975 368.357ZM273.463 368.742V367.851L273.869 367.465L274.698 368.742H275.252L274.186 367.181L275.236 366.189H274.661L273.822 366.991L273.447 367.36L273.463 367.001V365.207H273.004V368.742H273.463Z" fill="#CCCCCC"/>
<path d="M287.328 377.121V376.371H287.89V376.01H287.328V373.979H286.92L285.339 376.052V376.371H286.92V377.121H287.328ZM285.803 376.01L286.92 374.57V376.01H285.803ZM288.773 377.121V376.057H289.622C290.241 376.057 290.728 375.714 290.728 375.044C290.728 374.321 290.241 373.979 289.622 373.979H288.365V377.121H288.773ZM289.556 374.34C289.936 374.34 290.306 374.481 290.306 375.044C290.306 375.555 289.936 375.695 289.556 375.695H288.773V374.34H289.556ZM291.58 377.121V375.386L291.529 374.537L291.88 375.316L292.556 376.596H292.954L293.63 375.316L293.977 374.537L293.934 375.386V377.121H294.342V373.979H293.887L293.071 375.536L292.757 376.225L292.438 375.536L291.627 373.979H291.172V377.121H291.58Z" fill="#CCCCCC"/>
<path d="M315.393 377.168C316.078 377.168 316.486 376.751 316.486 376.113C316.486 375.508 316.162 375.072 315.538 375.072C315.126 375.072 314.877 375.292 314.779 375.569L314.863 374.364H316.246V373.979H314.46L314.361 375.78L314.764 375.822L314.769 375.77C314.788 375.559 315.022 375.409 315.365 375.409C315.707 375.409 316.054 375.602 316.054 376.113C316.054 376.521 315.838 376.779 315.407 376.779C314.966 376.779 314.685 376.516 314.572 376.108L314.244 376.455C314.403 376.854 314.83 377.168 315.393 377.168ZM317.508 377.121V376.057H318.357C318.976 376.057 319.464 375.714 319.464 375.044C319.464 374.321 318.976 373.979 318.357 373.979H317.1V377.121H317.508ZM318.292 374.34C318.672 374.34 319.042 374.481 319.042 375.044C319.042 375.555 318.672 375.695 318.292 375.695H317.508V374.34H318.292ZM320.316 377.121V375.386L320.264 374.537L320.616 375.316L321.291 376.596H321.69L322.365 375.316L322.712 374.537L322.67 375.386V377.121H323.078V373.979H322.623L321.807 375.536L321.493 376.225L321.174 375.536L320.363 373.979H319.908V377.121H320.316Z" fill="#CCCCCC"/>
<path d="M344.589 377.168C345.231 377.168 345.672 376.704 345.672 376.094C345.672 375.522 345.391 375.058 344.748 375.058C344.237 375.058 343.895 375.362 343.843 375.892V375.55C343.843 374.57 344.214 374.326 344.594 374.326C344.927 374.326 345.161 374.532 345.278 374.847L345.63 374.556C345.447 374.185 345.1 373.932 344.626 373.932C343.853 373.932 343.412 374.486 343.412 375.508V375.564C343.412 376.807 343.904 377.168 344.589 377.168ZM344.58 376.779C344.157 376.779 343.89 376.563 343.89 376.052C343.89 375.644 344.181 375.438 344.589 375.438C345.039 375.438 345.241 375.705 345.241 376.118C345.241 376.493 344.988 376.779 344.58 376.779ZM346.693 377.121V376.057H347.542C348.161 376.057 348.649 375.714 348.649 375.044C348.649 374.321 348.161 373.979 347.542 373.979H346.285V377.121H346.693ZM347.477 374.34C347.856 374.34 348.227 374.481 348.227 375.044C348.227 375.555 347.856 375.695 347.477 375.695H346.693V374.34H347.477ZM349.501 377.121V375.386L349.449 374.537L349.801 375.316L350.476 376.596H350.875L351.55 375.316L351.897 374.537L351.855 375.386V377.121H352.263V373.979H351.808L350.992 375.536L350.678 376.225L350.359 375.536L349.548 373.979H349.093V377.121H349.501Z" fill="#CCCCCC"/>
<path d="M372.369 377.121C372.369 375.785 372.787 375.105 373.481 374.443V373.979H371.422V374.364H373.11C372.594 374.861 371.924 375.559 371.924 377.121H372.369ZM374.386 377.121V376.057H375.235C375.854 376.057 376.342 375.714 376.342 375.044C376.342 374.321 375.854 373.979 375.235 373.979H373.978V377.121H374.386ZM375.169 374.34C375.549 374.34 375.919 374.481 375.919 375.044C375.919 375.555 375.549 375.695 375.169 375.695H374.386V374.34H375.169ZM377.193 377.121V375.386L377.142 374.537L377.493 375.316L378.169 376.596H378.567L379.243 375.316L379.59 374.537L379.548 375.386V377.121H379.956V373.979H379.501L378.685 375.536L378.37 376.225L378.052 375.536L377.24 373.979H376.785V377.121H377.193Z" fill="#CCCCCC"/>
<path d="M402.596 377.168C403.374 377.168 403.75 376.821 403.75 376.314C403.75 375.996 403.553 375.653 403.037 375.527C403.44 375.461 403.656 375.156 403.656 374.79C403.656 374.321 403.281 373.932 402.596 373.932C401.907 373.932 401.536 374.321 401.536 374.795C401.536 375.156 401.724 375.461 402.132 375.527C401.616 375.653 401.442 375.996 401.442 376.314C401.442 376.821 401.813 377.168 402.596 377.168ZM402.596 375.362C402.141 375.362 401.968 375.142 401.968 374.842C401.968 374.57 402.146 374.317 402.596 374.317C403.046 374.317 403.229 374.57 403.229 374.842C403.229 375.142 403.004 375.362 402.596 375.362ZM402.596 376.783C402.047 376.783 401.916 376.526 401.916 376.244C401.916 375.93 402.141 375.691 402.596 375.691C403.051 375.691 403.276 375.93 403.276 376.244C403.276 376.526 403.145 376.783 402.596 376.783ZM404.774 377.121V376.057H405.623C406.242 376.057 406.73 375.714 406.73 375.044C406.73 374.321 406.242 373.979 405.623 373.979H404.366V377.121H404.774ZM405.558 374.34C405.937 374.34 406.308 374.481 406.308 375.044C406.308 375.555 405.937 375.695 405.558 375.695H404.774V374.34H405.558ZM407.582 377.121V375.386L407.53 374.537L407.882 375.316L408.557 376.596H408.956L409.631 375.316L409.978 374.537L409.936 375.386V377.121H410.344V373.979H409.889L409.073 375.536L408.759 376.225L408.44 375.536L407.629 373.979H407.174V377.121H407.582Z" fill="#CCCCCC"/>
<path d="M429.869 377.121V373.979H429.527C429.377 374.185 429.152 374.26 428.899 374.26V374.542H429.461V377.121H429.869ZM431.691 377.168C432.55 377.168 432.953 376.46 432.953 375.545C432.953 374.64 432.55 373.932 431.691 373.932C430.829 373.932 430.425 374.64 430.425 375.545C430.425 376.46 430.829 377.168 431.691 377.168ZM431.696 376.779C431.072 376.779 430.857 376.268 430.857 375.545C430.857 374.833 431.072 374.317 431.696 374.317C432.315 374.317 432.526 374.833 432.526 375.545C432.526 376.268 432.315 376.779 431.696 376.779ZM433.955 377.121V376.057H434.804C435.423 376.057 435.91 375.714 435.91 375.044C435.91 374.321 435.423 373.979 434.804 373.979H433.547V377.121H433.955ZM434.738 374.34C435.118 374.34 435.488 374.481 435.488 375.044C435.488 375.555 435.118 375.695 434.738 375.695H433.955V374.34H434.738ZM436.762 377.121V375.386L436.711 374.537L437.062 375.316L437.738 376.596H438.136L438.812 375.316L439.159 374.537L439.116 375.386V377.121H439.524V373.979H439.07L438.254 375.536L437.939 376.225L437.62 375.536L436.809 373.979H436.354V377.121H436.762Z" fill="#CCCCCC"/>
<path d="M460.936 377.707V374.565H460.593C460.443 374.771 460.218 374.846 459.965 374.846V375.128H460.528V377.707H460.936ZM462.378 377.707V374.565H462.036C461.886 374.771 461.661 374.846 461.408 374.846V375.128H461.97V377.707H462.378ZM463.45 377.707V376.642H464.299C464.918 376.642 465.406 376.3 465.406 375.63C465.406 374.907 464.918 374.565 464.299 374.565H463.042V377.707H463.45ZM464.234 374.926C464.613 374.926 464.984 375.067 464.984 375.63C464.984 376.141 464.613 376.281 464.234 376.281H463.45V374.926H464.234ZM466.258 377.707V375.972L466.206 375.123L466.558 375.902L467.233 377.182H467.632L468.307 375.902L468.654 375.123L468.612 375.972V377.707H469.02V374.565H468.565L467.749 376.122L467.435 376.811L467.116 376.122L466.305 374.565H465.85V377.707H466.258Z" fill="#CCCCCC"/>
<path d="M487.315 377.121V373.979H486.972C486.822 374.185 486.597 374.26 486.344 374.26V374.542H486.907V377.121H487.315ZM490.049 377.121V376.76H488.75L488.365 376.788L488.703 376.502L489.191 376.042C489.477 375.77 489.969 375.302 489.969 374.786C489.969 374.303 489.692 373.932 489.078 373.932C488.356 373.932 487.863 374.429 487.929 375.048L488.309 375.287C488.229 374.664 488.525 374.326 489.05 374.326C489.406 374.326 489.547 374.561 489.547 374.814C489.547 375.161 489.28 375.452 488.937 375.789L487.91 376.802V377.121H490.049ZM491.029 377.121V376.057H491.878C492.497 376.057 492.985 375.714 492.985 375.044C492.985 374.321 492.497 373.979 491.878 373.979H490.621V377.121H491.029ZM491.812 374.34C492.192 374.34 492.563 374.481 492.563 375.044C492.563 375.555 492.192 375.695 491.812 375.695H491.029V374.34H491.812ZM493.837 377.121V375.386L493.785 374.537L494.137 375.316L494.812 376.596H495.211L495.886 375.316L496.233 374.537L496.191 375.386V377.121H496.599V373.979H496.144L495.328 375.536L495.014 376.225L494.695 375.536L493.884 373.979H493.429V377.121H493.837Z" fill="#CCCCCC"/>
<path d="M271.777 338.848V338.004H272.41V337.597H271.777V335.313H271.318L269.54 337.645V338.004H271.318V338.848H271.777ZM270.062 337.597L271.318 335.978V337.597H270.062ZM273.35 338.848V337.956L273.756 337.571L274.584 338.848H275.138L274.073 337.286L275.123 336.294H274.547L273.709 337.096L273.334 337.465L273.35 337.107V335.313H272.891V338.848H273.35Z" fill="#CCCCCC"/>
<path d="M270.875 310.174C271.75 310.174 272.172 309.783 272.172 309.214C272.172 308.855 271.951 308.47 271.37 308.327C271.824 308.253 272.067 307.911 272.067 307.499C272.067 306.971 271.645 306.533 270.875 306.533C270.099 306.533 269.682 306.971 269.682 307.504C269.682 307.911 269.893 308.253 270.352 308.327C269.772 308.47 269.577 308.855 269.577 309.214C269.577 309.783 269.993 310.174 270.875 310.174ZM270.875 308.143C270.363 308.143 270.168 307.895 270.168 307.557C270.168 307.251 270.368 306.966 270.875 306.966C271.381 306.966 271.587 307.251 271.587 307.557C271.587 307.895 271.334 308.143 270.875 308.143ZM270.875 309.741C270.257 309.741 270.11 309.451 270.11 309.135C270.11 308.781 270.363 308.512 270.875 308.512C271.386 308.512 271.64 308.781 271.64 309.135C271.64 309.451 271.492 309.741 270.875 309.741ZM273.273 310.121V309.229L273.679 308.844L274.507 310.121H275.061L273.995 308.559L275.045 307.568H274.47L273.631 308.37L273.257 308.739L273.273 308.38V306.586H272.814V310.121H273.273Z" fill="#CCCCCC"/>
<path d="M270.558 280.223V276.688H270.173C270.004 276.92 269.751 277.004 269.466 277.004V277.321H270.099V280.223H270.558ZM273.634 280.223V279.816H272.173L271.74 279.848L272.12 279.526L272.668 279.009C272.99 278.703 273.544 278.176 273.544 277.595C273.544 277.052 273.233 276.635 272.542 276.635C271.729 276.635 271.175 277.194 271.249 277.891L271.677 278.16C271.587 277.458 271.919 277.078 272.51 277.078C272.911 277.078 273.069 277.342 273.069 277.627C273.069 278.017 272.769 278.344 272.384 278.724L271.228 279.864V280.223H273.634ZM274.684 280.223V279.331L275.09 278.946L275.919 280.223H276.473L275.407 278.661L276.457 277.669H275.882L275.043 278.471L274.668 278.84L274.684 278.482V276.688H274.225V280.223H274.684Z" fill="#CCCCCC"/>
<path d="M270.558 251.5V247.965H270.173C270.004 248.197 269.751 248.282 269.466 248.282V248.598H270.099V251.5H270.558ZM272.529 251.553C273.252 251.553 273.748 251.03 273.748 250.345C273.748 249.701 273.431 249.179 272.709 249.179C272.133 249.179 271.748 249.522 271.69 250.118V249.733C271.69 248.63 272.107 248.356 272.534 248.356C272.909 248.356 273.173 248.588 273.305 248.941L273.7 248.614C273.495 248.197 273.104 247.912 272.571 247.912C271.701 247.912 271.205 248.535 271.205 249.685V249.748C271.205 251.147 271.759 251.553 272.529 251.553ZM272.519 251.115C272.044 251.115 271.743 250.872 271.743 250.297C271.743 249.838 272.07 249.606 272.529 249.606C273.036 249.606 273.263 249.907 273.263 250.371C273.263 250.793 272.978 251.115 272.519 251.115ZM274.844 251.5V250.608L275.25 250.223L276.079 251.5H276.632L275.567 249.938L276.617 248.946H276.042L275.203 249.748L274.828 250.118L274.844 249.759V247.965H274.385V251.5H274.844Z" fill="#CCCCCC"/>
<path d="M287.758 320.937L292.346 315.69C293.301 314.598 295.04 314.746 295.797 315.983V315.983C296.526 317.176 298.181 317.366 299.161 316.37L303.154 312.314C304.077 311.376 305.624 311.508 306.375 312.588V312.588C306.768 313.152 307.412 313.489 308.1 313.489H308.755C309.705 313.489 310.603 313.922 311.195 314.666L312.654 316.501C313.345 317.371 314.699 317.256 315.234 316.283L315.482 315.832C316.006 314.88 317.397 314.949 317.825 315.948V315.948C318.247 316.933 319.611 317.018 320.151 316.093L328.152 302.396C328.802 301.283 330.368 301.171 331.17 302.18V302.18C331.741 302.898 332.756 303.084 333.544 302.614L335.896 301.213C336.982 300.566 338.38 300.821 339.167 301.811V301.811C339.917 302.755 341.229 303.037 342.301 302.486L345.563 300.807C346.391 300.381 347.403 300.572 348.019 301.27V301.27C348.951 302.325 350.647 302.138 351.327 300.905L358.831 287.302C359.368 286.328 360.742 286.257 361.377 287.17V287.17C361.781 287.751 362.536 287.971 363.189 287.697L367.526 285.879C368.31 285.551 369.176 286.126 369.176 286.977V286.977C369.176 287.634 369.708 288.167 370.366 288.167H373.105C374.519 288.167 375.824 288.926 376.523 290.156L378.78 294.131C379.263 294.981 380.473 295.023 381.012 294.208V294.208C381.662 293.227 383.175 293.533 383.393 294.689L386.533 311.334C386.769 312.584 387.861 313.489 389.132 313.489V313.489C389.986 313.489 390.787 313.901 391.284 314.595L394.827 319.547C395.451 320.419 396.458 320.937 397.53 320.937H399.451C400.226 320.937 400.855 321.565 400.855 322.34V322.34C400.855 323.395 401.975 324.073 402.91 323.583L404.695 322.648C406.293 321.811 408.239 322.799 408.506 324.582L411.363 343.655C411.563 344.988 413.123 345.614 414.189 344.789V344.789C414.988 344.171 416.142 344.348 416.718 345.177L416.771 345.253C417.315 346.035 418.364 346.277 419.196 345.812L421.745 344.387C422.46 343.987 423.365 344.267 423.729 345V345C424.142 345.832 425.224 346.057 425.935 345.461L426.767 344.764C427.493 344.155 428.579 344.264 429.169 345.007V345.007C429.835 345.844 431.103 345.857 431.786 345.034L436.483 339.372C436.993 338.758 437.966 338.871 438.322 339.586L438.406 339.755C438.713 340.373 439.547 340.486 440.008 339.971L440.777 339.111C441.105 338.745 441.711 338.976 441.711 339.468V339.468C441.711 339.979 442.36 340.199 442.671 339.793L446.97 334.186C448.199 332.583 450.697 332.887 451.506 334.737L451.966 335.789C452.459 336.915 453.905 337.236 454.827 336.424V336.424C455.467 335.861 456.412 335.819 457.099 336.323L457.721 336.779C458.751 337.535 460.164 337.489 461.143 336.668L466.551 332.133C467.516 331.324 468.97 331.529 469.673 332.575L470.295 333.499C470.897 334.394 472.233 334.335 472.753 333.39L472.841 333.231C473.403 332.21 474.904 332.324 475.306 333.418V333.418C475.652 334.361 476.866 334.615 477.561 333.89L485.003 326.135C485.751 325.355 487.016 325.413 487.689 326.26V326.26C488.297 327.025 489.407 327.159 490.18 326.561L492.635 324.66" stroke="#005FEE" stroke-width="0.586208"/>
<path d="M288.184 330.826L292.665 323.413C293.511 322.014 295.586 322.163 296.223 323.669V323.669C296.841 325.13 298.831 325.327 299.723 324.016L303.376 318.647C304.253 317.359 306.195 317.504 306.871 318.909V318.909C307.208 319.609 307.916 320.055 308.693 320.055H309.099C310.073 320.055 310.969 320.585 311.438 321.438L313.002 324.285C313.602 325.377 315.206 325.265 315.649 324.101L315.869 323.523C316.296 322.402 317.902 322.463 318.242 323.613V323.613C318.578 324.75 320.161 324.827 320.605 323.726L328.61 303.901C329.132 302.607 330.923 302.5 331.595 303.724V303.724C332.102 304.646 333.33 304.867 334.127 304.18L336.032 302.538C337.15 301.574 338.872 301.885 339.583 303.178V303.178C340.262 304.413 341.874 304.764 343.004 303.923L345.784 301.853C346.64 301.216 347.858 301.452 348.413 302.362V302.362C349.198 303.648 351.117 303.471 351.653 302.064L359.245 282.155C359.682 281.011 361.275 280.944 361.806 282.048V282.048C362.163 282.79 363.083 283.063 363.787 282.636L367.219 280.554C368.253 279.927 369.576 280.672 369.576 281.881V281.881C369.576 282.739 370.271 283.433 371.128 283.433H373.272C374.792 283.433 376.157 284.364 376.712 285.779L379.184 292.075C379.576 293.075 380.977 293.114 381.424 292.137V292.137C381.934 291.025 383.581 291.274 383.739 292.487L387.065 317.992C387.219 319.172 388.225 320.055 389.415 320.055V320.055C390.316 320.055 391.139 320.566 391.538 321.374L395.359 329.098C395.882 330.156 396.961 330.826 398.141 330.826H399.458C400.445 330.826 401.245 331.626 401.245 332.613V332.613C401.245 334.09 402.935 334.93 404.112 334.037L405.018 333.351C406.479 332.243 408.59 333.159 408.779 334.983L411.838 364.528C411.975 365.855 413.623 366.388 414.511 365.393V365.393C415.241 364.576 416.566 364.764 417.041 365.751L417.167 366.014C417.651 367.021 418.948 367.312 419.816 366.61L421.869 364.95C422.634 364.331 423.781 364.661 424.1 365.591V365.591C424.46 366.638 425.829 366.887 426.533 366.032L427.058 365.395C427.737 364.572 429.033 364.693 429.547 365.628V365.628C430.114 366.661 431.594 366.675 432.18 365.652L436.788 357.618C437.239 356.831 438.407 356.942 438.701 357.8L438.808 358.111C439.055 358.829 440.025 358.937 440.424 358.292L441.032 357.309C441.335 356.819 442.089 357.034 442.089 357.609V357.609C442.089 358.205 442.886 358.403 443.165 357.877L447.139 350.378C448.22 348.338 451.23 348.631 451.898 350.841L452.472 352.739C452.836 353.943 454.404 354.238 455.181 353.249V353.249C455.768 352.502 456.882 352.451 457.534 353.143L458.093 353.737C459.024 354.725 460.611 354.673 461.475 353.625L466.757 347.218C467.67 346.11 469.427 346.334 470.033 347.636L470.63 348.922C471.135 350.007 472.707 349.924 473.133 348.805V348.805C473.596 347.588 475.363 347.653 475.683 348.915V348.915C475.967 350.035 477.445 350.287 478.084 349.324L485.316 338.42C485.982 337.415 487.477 337.477 488.057 338.534V338.534C488.59 339.503 489.921 339.654 490.658 338.829L492.996 336.211" stroke="#EF4444" stroke-width="0.586208"/>
<g filter="url(#filter3_d_3481_29601)">
<rect x="349.008" y="266.289" width="31.7242" height="10.6897" rx="1.17242" fill="white"/>
<path d="M356.578 273.102V272.675C357.16 272.638 357.582 272.319 357.582 271.784C357.582 271.184 357.132 270.987 356.63 270.865L356.578 270.851V269.993C356.813 270.068 357.014 270.232 357.132 270.499L357.53 270.119C357.347 269.767 357.01 269.542 356.578 269.472V269.022H356.25V269.449C355.678 269.449 355.167 269.767 355.167 270.358C355.167 270.954 355.64 271.156 356.086 271.249L356.25 271.287V272.173C355.922 272.112 355.584 271.925 355.448 271.554L355.073 271.934C355.288 272.398 355.739 272.623 356.25 272.67V273.102H356.578ZM355.72 270.321C355.72 270.082 355.936 269.941 356.236 269.941H356.25V270.771C355.936 270.696 355.72 270.597 355.72 270.321ZM357.042 271.793C357.042 272.047 356.841 272.164 356.578 272.187V271.362C356.869 271.442 357.042 271.54 357.042 271.793ZM358.989 272.633C358.989 271.32 359.439 270.654 360.067 270.035V269.491H357.924V269.978H359.57C359.078 270.466 358.407 271.165 358.407 272.633H358.989ZM361.562 272.675C362.438 272.675 362.879 271.981 362.879 271.057C362.879 270.138 362.438 269.444 361.562 269.444C360.685 269.444 360.239 270.138 360.239 271.057C360.239 271.981 360.685 272.675 361.562 272.675ZM361.562 272.169C361.003 272.169 360.797 271.718 360.797 271.057C360.797 270.401 361.003 269.946 361.562 269.946C362.124 269.946 362.326 270.401 362.326 271.057C362.326 271.718 362.124 272.169 361.562 272.169ZM364.625 272.675C365.502 272.675 365.943 271.981 365.943 271.057C365.943 270.138 365.502 269.444 364.625 269.444C363.748 269.444 363.303 270.138 363.303 271.057C363.303 271.981 363.748 272.675 364.625 272.675ZM364.625 272.169C364.067 272.169 363.861 271.718 363.861 271.057C363.861 270.401 364.067 269.946 364.625 269.946C365.188 269.946 365.39 270.401 365.39 271.057C365.39 271.718 365.188 272.169 364.625 272.169ZM366.898 272.633V271.967H366.298V272.633H366.898ZM368.543 272.68C369.359 272.68 369.748 272.323 369.748 271.817C369.748 271.493 369.546 271.16 369.016 271.038C369.434 270.968 369.65 270.673 369.65 270.307C369.65 269.833 369.26 269.444 368.543 269.444C367.821 269.444 367.436 269.833 367.436 270.311C367.436 270.668 367.633 270.968 368.046 271.038C367.52 271.16 367.338 271.493 367.338 271.817C367.338 272.323 367.727 272.68 368.543 272.68ZM368.543 270.846C368.154 270.846 367.999 270.654 367.999 270.391C367.999 270.152 368.154 269.936 368.543 269.936C368.932 269.936 369.087 270.152 369.087 270.391C369.087 270.654 368.89 270.846 368.543 270.846ZM368.543 272.187C368.069 272.187 367.947 271.962 367.947 271.709C367.947 271.432 368.144 271.217 368.543 271.217C368.941 271.217 369.138 271.432 369.138 271.709C369.138 271.962 369.016 272.187 368.543 272.187ZM370.905 272.633C370.905 271.32 371.355 270.654 371.984 270.035V269.491H369.84V269.978H371.487C370.994 270.466 370.324 271.165 370.324 272.633H370.905ZM373.389 272.68C374.065 272.68 374.529 272.225 374.529 271.592C374.529 271.024 374.243 270.583 373.61 270.583C373.127 270.583 372.808 270.86 372.742 271.324V271.024C372.742 270.189 373.061 269.964 373.427 269.964C373.741 269.964 373.971 270.138 374.111 270.419L374.473 269.983C374.276 269.664 373.919 269.444 373.455 269.444C372.615 269.444 372.17 270.016 372.17 271.024V271.076C372.17 272.244 372.634 272.68 373.389 272.68ZM373.375 272.178C373 272.178 372.78 271.976 372.78 271.545C372.78 271.188 373.014 270.996 373.385 270.996C373.783 270.996 373.961 271.235 373.961 271.592C373.961 271.925 373.741 272.178 373.375 272.178Z" fill="#041004"/>
</g>
<rect x="293.895" y="203.699" width="26.9656" height="12.8966" rx="4.68967" fill="#005FEE"/>
<path d="M305.349 211.633V211.047H303.843L303.256 211.105L303.714 210.765L304.259 210.285C304.675 209.939 305.238 209.393 305.238 208.76C305.238 208.116 304.851 207.647 304.059 207.647C303.157 207.647 302.518 208.221 302.535 209.007L303.092 209.405C303.057 208.649 303.421 208.28 304.001 208.28C304.382 208.28 304.546 208.52 304.546 208.801C304.546 209.171 304.276 209.47 303.895 209.839L302.541 211.129V211.633H305.349ZM308.311 211.633V210.748H308.973V210.173H308.311V207.705H307.613L305.691 210.238V210.748H307.655V211.633H308.311ZM306.418 210.173L307.655 208.561V210.173H306.418ZM310.164 211.633V209.921H312.051V211.633H312.714V207.705H312.051V209.335H310.164V207.705H309.501V211.633H310.164Z" fill="white"/>
<rect x="331.414" y="203.699" width="26.9656" height="12.8966" rx="4.68967" fill="#F2F2F2"/>
<path d="M343.509 211.633V207.705H342.928C342.729 207.957 342.453 208.057 342.131 208.057V208.538H342.846V211.633H343.509ZM345.726 211.633C346.945 211.633 347.596 210.882 347.596 209.669C347.596 208.456 346.939 207.705 345.726 207.705H344.243V211.633H345.726ZM345.644 208.291C346.459 208.291 346.904 208.684 346.904 209.669C346.904 210.654 346.459 211.047 345.65 211.047H344.905V208.291H345.644Z" fill="#041004"/>
<rect x="368.93" y="203.699" width="26.9656" height="12.8966" rx="4.68967" fill="#F2F2F2"/>
<path d="M380.442 211.633V207.705H379.862C379.662 207.957 379.387 208.057 379.065 208.057V208.538H379.78V211.633H380.442ZM382.706 211.633L383.334 209.306L383.562 208.209L383.791 209.306L384.406 211.633H385.239L386.276 207.705H385.526L385.004 209.991L384.823 211.099L384.6 210.032L383.996 207.705H383.14L382.525 210.032L382.296 211.099L382.12 209.991L381.61 207.705H380.848L381.874 211.633H382.706Z" fill="#041004"/>
<rect x="406.449" y="203.699" width="26.9656" height="12.8966" rx="4.68967" fill="#F2F2F2"/>
<path d="M417.962 211.633V207.705H417.381C417.182 207.957 416.906 208.057 416.584 208.057V208.538H417.299V211.633H417.962ZM419.358 211.633V209.786L419.264 208.491L419.728 209.616L420.408 210.97H421.076L421.756 209.616L422.207 208.491L422.125 209.786V211.633H422.788V207.705H421.979L421.134 209.429L420.742 210.431L420.355 209.429L419.511 207.705H418.696V211.633H419.358Z" fill="#041004"/>
<rect x="443.965" y="203.699" width="26.9656" height="12.8966" rx="4.68967" fill="#F2F2F2"/>
<path d="M456.059 211.633V207.705H455.479C455.28 207.957 455.004 208.057 454.682 208.057V208.538H455.397V211.633H456.059ZM458.576 211.633V210.214L460.053 207.705H459.285L458.675 208.79L458.247 209.687L457.837 208.784L457.257 207.705H456.436L457.913 210.214V211.633H458.576Z" fill="#041004"/>
</g>
<rect x="345.484" y="70.6367" width="75.0346" height="22.8621" rx="11.4311" fill="#000001"/>
<g opacity="0.5">
<circle cx="408.795" cy="81.7756" r="4.68966" transform="rotate(90 408.795 81.7756)" stroke="#A0A9BB" stroke-opacity="0.25" stroke-width="0.586208"/>
<circle cx="408.795" cy="81.7756" r="4.68966" transform="rotate(90 408.795 81.7756)" stroke="url(#paint9_linear_3481_29601)" stroke-width="0.586208"/>
</g>
<g filter="url(#filter4_i_3481_29601)">
<ellipse cx="408.792" cy="83.7754" rx="1.21683" ry="2.34483" transform="rotate(90 408.792 83.7754)" fill="url(#paint10_radial_3481_29601)"/>
</g>
<g filter="url(#filter5_i_3481_29601)">
<ellipse cx="1.21683" cy="2.34483" rx="1.21683" ry="2.34483" transform="matrix(-1.19249e-08 -1 -1 1.19249e-08 411.137 81.0859)" fill="url(#paint11_radial_3481_29601)"/>
</g>
<rect x="251.152" y="112.016" width="1.24363" height="8.70538" fill="url(#paint12_linear_3481_29601)"/>
<rect x="513.559" y="112.016" width="1.24363" height="8.70538" fill="url(#paint13_linear_3481_29601)"/>
<rect x="466.301" y="56.0547" width="1.24363" height="8.70538" transform="rotate(90 466.301 56.0547)" fill="url(#paint14_linear_3481_29601)"/>
<rect x="305.875" y="56.0547" width="1.24363" height="8.70538" transform="rotate(90 305.875 56.0547)" fill="url(#paint15_linear_3481_29601)"/>
<g filter="url(#filter6_d_3481_29601)">
<g clip-path="url(#clip4_3481_29601)">
<rect opacity="0.96" x="383" y="83" width="231.415" height="114.702" fill="white"/>
<path d="M434.542 112.449C436.088 112.449 437.043 111.816 437.043 110.539C437.043 109.573 436.463 108.843 434.832 108.714C435.991 108.618 436.742 108.049 436.742 107.094C436.742 106.031 436.056 105.259 434.596 105.259H431.333V112.449H434.542ZM434.231 106.332C434.982 106.332 435.487 106.568 435.487 107.298C435.487 108.028 434.993 108.253 434.274 108.253H432.546V106.332H434.231ZM434.392 109.272C435.229 109.272 435.798 109.594 435.798 110.324C435.798 111.054 435.347 111.376 434.36 111.376H432.546V109.272H434.392ZM440.551 112.449V106.332H442.762V105.259H437.138V106.332H439.338V112.449H440.551ZM446.166 112.535C447.754 112.535 448.849 111.709 449.353 110.313L448.301 109.541C448.076 110.614 447.411 111.387 446.176 111.387C444.695 111.387 443.998 110.324 443.998 108.843C443.998 107.351 444.695 106.3 446.176 106.3C447.411 106.3 448.076 107.062 448.301 108.146L449.353 107.373C448.849 105.967 447.754 105.151 446.166 105.151C443.955 105.151 442.71 106.772 442.71 108.843C442.71 110.914 443.955 112.535 446.166 112.535Z" fill="black"/>
<path d="M433.442 124.207C434.609 124.207 435.261 123.676 435.261 122.766C435.261 122.09 434.867 121.519 433.724 121.398C434.69 121.293 435.02 120.746 435.02 120.182C435.02 119.361 434.481 118.814 433.386 118.814H431.269V124.207H433.442ZM433.217 119.281C433.949 119.281 434.481 119.506 434.481 120.247C434.481 120.979 433.949 121.205 433.193 121.205H431.8V119.281H433.217ZM433.273 121.672C434.102 121.672 434.722 121.977 434.722 122.702C434.722 123.434 434.263 123.74 433.354 123.74H431.8V121.672H433.273ZM436.758 119.651V118.814H436.227V119.651H436.758ZM436.758 124.207V120.343H436.227V124.207H436.758ZM439.149 124.296C439.648 124.296 440.027 124.062 440.196 123.78L440.011 123.265C439.882 123.539 439.6 123.788 439.254 123.788C438.916 123.788 438.626 123.636 438.626 123.08V120.754H439.922V120.343H438.626V119.394L438.103 119.788V120.343H437.475V120.754H438.103V123.225C438.103 123.925 438.562 124.296 439.149 124.296ZM442.191 124.288C443.157 124.288 443.761 123.724 443.913 122.943L443.406 122.726C443.326 123.378 442.94 123.845 442.199 123.845C441.434 123.845 440.927 123.297 440.927 122.275C440.927 121.245 441.434 120.698 442.199 120.698C442.94 120.698 443.326 121.172 443.406 121.824L443.913 121.607C443.761 120.826 443.157 120.263 442.199 120.263C441.104 120.263 440.388 121.02 440.388 122.275C440.388 123.531 441.104 124.288 442.191 124.288ZM446.317 124.288C447.379 124.288 448.128 123.499 448.128 122.275C448.128 121.052 447.379 120.263 446.317 120.263C445.254 120.263 444.514 121.052 444.514 122.275C444.514 123.499 445.254 124.288 446.317 124.288ZM446.317 123.837C445.56 123.837 445.045 123.297 445.045 122.275C445.045 121.245 445.56 120.698 446.317 120.698C447.082 120.698 447.597 121.245 447.597 122.275C447.597 123.297 447.082 123.837 446.317 123.837ZM449.603 119.651V118.814H449.071V119.651H449.603ZM449.603 124.207V120.343H449.071V124.207H449.603ZM451.261 124.207V121.969C451.261 121.301 451.591 120.706 452.404 120.706C453.072 120.706 453.362 121.092 453.362 121.72V124.207H453.893V121.599C453.893 120.714 453.378 120.263 452.613 120.263C451.841 120.263 451.398 120.794 451.261 121.422V120.343H450.73V124.207H451.261Z" fill="#B3B3B3"/>
<path d="M410.169 125.928C416.282 125.928 421.237 120.973 421.237 114.861C421.237 108.748 416.282 103.793 410.169 103.793C404.057 103.793 399.102 108.748 399.102 114.861C399.102 120.973 404.057 125.928 410.169 125.928Z" fill="#F7931A"/>
<path d="M415.144 113.489C415.361 112.039 414.257 111.26 412.747 110.739L413.237 108.775L412.042 108.477L411.564 110.39C411.25 110.311 410.928 110.238 410.606 110.165L411.087 108.24L409.892 107.941L409.402 109.905C409.142 109.846 408.886 109.788 408.638 109.725L408.64 109.719L406.991 109.308L406.673 110.585C406.673 110.585 407.56 110.788 407.541 110.8C408.026 110.921 408.113 111.242 408.098 111.496L407.541 113.734C407.574 113.742 407.617 113.755 407.665 113.773L407.539 113.742L406.757 116.877C406.697 117.024 406.547 117.244 406.208 117.161C406.221 117.178 405.34 116.944 405.34 116.944L404.746 118.313L406.302 118.701C406.592 118.773 406.875 118.849 407.154 118.921L406.659 120.907L407.854 121.205L408.344 119.24C408.67 119.328 408.987 119.41 409.297 119.487L408.809 121.443L410.004 121.741L410.499 119.758C412.538 120.144 414.071 119.989 414.716 118.144C415.236 116.66 414.69 115.803 413.618 115.245C414.399 115.065 414.987 114.551 415.144 113.489ZM412.412 117.32C412.043 118.805 409.543 118.002 408.732 117.801L409.389 115.169C410.2 115.371 412.799 115.772 412.412 117.32ZM412.782 113.468C412.445 114.819 410.364 114.132 409.69 113.964L410.285 111.577C410.959 111.745 413.133 112.059 412.782 113.468Z" fill="white"/>
<path d="M505.907 111.511V110.534C507.237 110.448 508.203 109.718 508.203 108.495C508.203 107.121 507.173 106.67 506.025 106.391L505.907 106.359V104.395C506.443 104.567 506.905 104.943 507.173 105.554L508.085 104.685C507.667 103.88 506.894 103.365 505.907 103.204V102.174H505.155V103.15C503.846 103.15 502.676 103.88 502.676 105.232C502.676 106.595 503.76 107.057 504.78 107.271L505.155 107.357V109.386C504.404 109.246 503.631 108.817 503.32 107.969L502.461 108.838C502.955 109.901 503.985 110.416 505.155 110.523V111.511H505.907ZM503.943 105.146C503.943 104.599 504.436 104.277 505.123 104.277H505.155V106.177C504.436 106.005 503.943 105.78 503.943 105.146ZM506.969 108.516C506.969 109.096 506.508 109.364 505.907 109.418V107.529C506.572 107.711 506.969 107.937 506.969 108.516ZM512.238 110.545C513.87 110.545 514.889 109.557 514.889 108.076C514.889 106.649 514.095 105.726 512.732 105.726C511.777 105.726 511.197 106.241 510.972 106.885L511.144 104.363H514.353V103.247H509.985L509.748 107.336L510.929 107.454L510.94 107.357C511.004 106.896 511.487 106.606 512.174 106.606C512.915 106.606 513.591 107.014 513.591 108.023C513.591 108.86 513.118 109.375 512.249 109.375C511.326 109.375 510.693 108.838 510.446 107.948L509.48 108.881C509.845 109.815 510.865 110.545 512.238 110.545ZM518.81 110.545C520.441 110.545 521.461 109.557 521.461 108.076C521.461 106.649 520.667 105.726 519.303 105.726C518.348 105.726 517.769 106.241 517.543 106.885L517.715 104.363H520.924V103.247H516.556L516.32 107.336L517.5 107.454L517.511 107.357C517.576 106.896 518.059 106.606 518.745 106.606C519.486 106.606 520.162 107.014 520.162 108.023C520.162 108.86 519.69 109.375 518.821 109.375C517.898 109.375 517.264 108.838 517.018 107.948L516.052 108.881C516.417 109.815 517.436 110.545 518.81 110.545ZM527.576 110.438V109.364H524.818L523.745 109.472L524.582 108.849L525.58 107.969C526.342 107.336 527.372 106.338 527.372 105.179C527.372 103.998 526.664 103.14 525.215 103.14C523.562 103.14 522.392 104.191 522.425 105.629L523.444 106.359C523.38 104.975 524.045 104.299 525.108 104.299C525.805 104.299 526.106 104.739 526.106 105.254C526.106 105.93 525.612 106.477 524.915 107.153L522.435 109.515V110.438H527.576ZM528.848 111.682C529.653 111.597 529.965 111.178 529.965 110.459V108.914H528.591V110.438H529.224V110.577C529.224 110.931 528.988 111.006 528.602 111.049L528.848 111.682ZM532.838 110.438V103.247H531.775C531.411 103.708 530.906 103.891 530.316 103.891V104.771H531.625V110.438H532.838ZM536.725 110.545C538.593 110.545 539.484 109.729 539.484 108.57C539.484 107.83 539.022 107.068 537.809 106.789C538.765 106.628 539.258 105.951 539.258 105.114C539.258 104.03 538.367 103.14 536.725 103.14C535.073 103.14 534.193 104.03 534.193 105.125C534.193 105.941 534.643 106.628 535.588 106.789C534.386 107.068 533.967 107.83 533.967 108.57C533.967 109.729 534.858 110.545 536.725 110.545ZM536.725 106.348C535.835 106.348 535.48 105.908 535.48 105.307C535.48 104.76 535.835 104.266 536.725 104.266C537.616 104.266 537.97 104.76 537.97 105.307C537.97 105.908 537.52 106.348 536.725 106.348ZM536.725 109.418C535.641 109.418 535.362 108.903 535.362 108.323C535.362 107.69 535.813 107.196 536.725 107.196C537.638 107.196 538.088 107.69 538.088 108.323C538.088 108.903 537.809 109.418 536.725 109.418ZM545.062 110.438V108.817H546.275V107.765H545.062V103.247H543.785L540.265 107.883V108.817H543.86V110.438H545.062ZM541.596 107.765L543.86 104.814V107.765H541.596ZM547.347 111.682C548.152 111.597 548.463 111.178 548.463 110.459V108.914H547.089V110.438H547.723V110.577C547.723 110.931 547.486 111.006 547.1 111.049L547.347 111.682ZM552.296 110.534C554.303 110.534 555.312 108.946 555.312 106.831C555.312 104.728 554.303 103.14 552.296 103.14C550.289 103.14 549.269 104.728 549.269 106.831C549.269 108.946 550.289 110.534 552.296 110.534ZM552.296 109.375C551.019 109.375 550.547 108.345 550.547 106.831C550.547 105.329 551.019 104.288 552.296 104.288C553.584 104.288 554.045 105.329 554.045 106.831C554.045 108.345 553.584 109.375 552.296 109.375ZM558.642 110.438V103.247H557.579C557.214 103.708 556.71 103.891 556.12 103.891V104.771H557.429V110.438H558.642ZM562.798 110.545C564.429 110.545 565.448 109.557 565.448 108.076C565.448 106.649 564.654 105.726 563.291 105.726C562.336 105.726 561.757 106.241 561.531 106.885L561.703 104.363H564.912V103.247H560.544L560.308 107.336L561.488 107.454L561.499 107.357C561.563 106.896 562.046 106.606 562.733 106.606C563.474 106.606 564.15 107.014 564.15 108.023C564.15 108.86 563.678 109.375 562.808 109.375C561.885 109.375 561.252 108.838 561.005 107.948L560.039 108.881C560.404 109.815 561.424 110.545 562.798 110.545ZM566.715 111.682C567.52 111.597 567.832 111.178 567.832 110.459V108.914H566.458V110.438H567.091V110.577C567.091 110.931 566.855 111.006 566.469 111.049L566.715 111.682ZM570.705 110.438V103.247H569.642C569.278 103.708 568.773 103.891 568.183 103.891V104.771H569.492V110.438H570.705ZM574.346 110.545C576.278 110.545 577.286 109.246 577.286 107.014V106.81C577.286 104.127 576.224 103.14 574.496 103.14C572.951 103.14 571.888 104.17 571.888 105.619C571.888 106.928 572.543 107.937 574.002 107.937C575.097 107.937 575.827 107.314 575.977 106.241V106.917C575.977 108.838 575.247 109.354 574.41 109.354C573.691 109.354 573.176 108.956 572.843 108.313L572.028 109.311C572.468 110.04 573.283 110.545 574.346 110.545ZM574.518 106.982C573.605 106.982 573.187 106.445 573.187 105.629C573.187 104.867 573.691 104.288 574.528 104.288C575.387 104.288 575.902 104.749 575.902 105.737C575.902 106.542 575.355 106.982 574.518 106.982ZM580.833 110.545C582.765 110.545 583.774 109.246 583.774 107.014V106.81C583.774 104.127 582.712 103.14 580.984 103.14C579.438 103.14 578.376 104.17 578.376 105.619C578.376 106.928 579.03 107.937 580.49 107.937C581.585 107.937 582.314 107.314 582.465 106.241V106.917C582.465 108.838 581.735 109.354 580.898 109.354C580.179 109.354 579.664 108.956 579.331 108.313L578.515 109.311C578.955 110.04 579.771 110.545 580.833 110.545ZM581.005 106.982C580.093 106.982 579.674 106.445 579.674 105.629C579.674 104.867 580.179 104.288 581.016 104.288C581.874 104.288 582.39 104.749 582.39 105.737C582.39 106.542 581.842 106.982 581.005 106.982Z" fill="black"/>
<path d="M551.093 119.852V117.37L551.02 116.156L551.523 117.269L552.489 119.1H553.059L554.025 117.269L554.521 116.156L554.461 117.37V119.852H555.044V115.357H554.394L553.226 117.584L552.777 118.57L552.321 117.584L551.16 115.357H550.51V119.852H551.093ZM556.734 119.919C557.405 119.919 557.753 119.436 557.861 119.006V119.234C557.861 119.691 558.102 119.852 558.438 119.852H558.813V119.322H558.605C558.484 119.322 558.424 119.275 558.424 119.12V117.786C558.424 117.014 557.995 116.538 557.197 116.538C556.472 116.538 555.989 116.947 555.795 117.283L556.19 117.692C556.358 117.336 556.667 117.068 557.13 117.068C557.639 117.068 557.82 117.35 557.841 117.732L556.667 118.255C556.204 118.463 555.875 118.738 555.875 119.174C555.875 119.603 556.184 119.919 556.734 119.919ZM556.465 119.08C556.465 118.879 556.606 118.745 556.915 118.597L557.861 118.155V118.604C557.861 119.073 557.472 119.436 556.922 119.436C556.62 119.436 556.465 119.302 556.465 119.08ZM560.072 119.852V118.014C560.072 117.457 560.448 116.967 560.864 116.967C561.099 116.967 561.199 117.128 561.199 117.316C561.199 117.497 561.112 117.698 561.005 117.792H561.642C561.696 117.712 561.77 117.511 561.77 117.236C561.77 116.779 561.434 116.531 561.085 116.531C560.535 116.531 560.2 116.967 560.072 117.47V116.605H559.489V119.852H560.072ZM562.902 119.852V118.718L563.419 118.228L564.472 119.852H565.176L563.821 117.866L565.156 116.605H564.425L563.358 117.625L562.882 118.094L562.902 117.638V115.357H562.319V119.852H562.902ZM566.897 119.919C567.601 119.919 568.051 119.59 568.292 119.201L567.937 118.798C567.809 119.08 567.548 119.436 566.897 119.436C566.32 119.436 565.938 119.047 565.904 118.362H568.312C568.326 118.302 568.339 118.201 568.339 118.101C568.339 117.148 567.783 116.538 566.864 116.538C565.971 116.538 565.341 117.202 565.341 118.228C565.341 119.261 565.978 119.919 566.897 119.919ZM566.864 117.028C567.407 117.028 567.756 117.343 567.816 117.94H565.918C565.992 117.336 566.34 117.028 566.864 117.028ZM570.113 119.925C570.562 119.925 570.871 119.717 571.012 119.496L570.817 118.919C570.73 119.12 570.529 119.362 570.241 119.362C569.986 119.362 569.791 119.261 569.791 118.845V117.061H570.858V116.605H569.791V115.76L569.208 116.189V116.605H568.684V117.061H569.208V119.02C569.208 119.577 569.583 119.925 570.113 119.925ZM575.015 119.905C576.021 119.905 576.698 119.369 576.987 118.443L576.463 118.101C576.316 118.852 575.873 119.355 575.021 119.355C573.995 119.355 573.525 118.624 573.525 117.598C573.525 116.572 573.995 115.84 575.021 115.84C575.873 115.84 576.316 116.343 576.463 117.095L576.987 116.753C576.698 115.827 576.021 115.29 575.015 115.29C573.653 115.29 572.908 116.303 572.908 117.598C572.908 118.892 573.653 119.905 575.015 119.905ZM578.403 119.919C579.074 119.919 579.422 119.436 579.53 119.006V119.234C579.53 119.691 579.771 119.852 580.107 119.852H580.482V119.322H580.274C580.153 119.322 580.093 119.275 580.093 119.12V117.786C580.093 117.014 579.664 116.538 578.866 116.538C578.141 116.538 577.658 116.947 577.464 117.283L577.859 117.692C578.027 117.336 578.336 117.068 578.799 117.068C579.308 117.068 579.489 117.35 579.51 117.732L578.336 118.255C577.873 118.463 577.544 118.738 577.544 119.174C577.544 119.603 577.853 119.919 578.403 119.919ZM578.134 119.08C578.134 118.879 578.275 118.745 578.584 118.597L579.53 118.155V118.604C579.53 119.073 579.141 119.436 578.591 119.436C578.289 119.436 578.134 119.302 578.134 119.08ZM581.741 121.099V119.013C581.856 119.503 582.164 119.919 582.788 119.919C583.606 119.919 584.116 119.248 584.116 118.222C584.116 117.195 583.606 116.531 582.788 116.531C582.164 116.531 581.856 116.947 581.741 117.437V116.605H581.158V121.099H581.741ZM581.741 118.456V117.994C581.741 117.457 581.97 117.021 582.587 117.021C583.103 117.021 583.526 117.397 583.526 118.222C583.526 119.053 583.103 119.429 582.587 119.429C581.97 119.429 581.741 118.993 581.741 118.456Z" fill="#999999"/>
<rect x="399.098" y="146.723" width="85.1877" height="21.4154" rx="2.68308" fill="#228B22"/>
<path d="M438.14 159.43C439.106 159.43 439.703 159.034 439.703 158.236C439.703 157.632 439.34 157.176 438.321 157.095C439.045 157.035 439.515 156.68 439.515 156.083C439.515 155.418 439.085 154.936 438.173 154.936H436.134V159.43H438.14ZM437.945 155.606C438.415 155.606 438.73 155.754 438.73 156.21C438.73 156.666 438.421 156.807 437.972 156.807H436.892V155.606H437.945ZM438.046 157.444C438.569 157.444 438.925 157.645 438.925 158.102C438.925 158.558 438.643 158.759 438.026 158.759H436.892V157.444H438.046ZM441.377 159.497C442.028 159.497 442.363 159.054 442.484 158.538V159.43H443.242V156.163H442.484V157.994C442.484 158.531 442.296 158.886 441.746 158.886C441.243 158.886 441.109 158.611 441.109 158.209V156.163H440.358V158.437C440.358 159.114 440.747 159.497 441.377 159.497ZM444.578 160.55C445.108 160.55 445.491 160.315 445.725 159.658L446.933 156.163H446.101L445.517 158.014L445.283 158.886L445.048 158.014L444.458 156.163H443.633L444.713 159.228H445.175L445.115 159.41C444.994 159.772 444.833 159.886 444.578 159.886C444.277 159.886 444.075 159.698 443.901 159.45L443.545 160.054C443.727 160.308 444.109 160.55 444.578 160.55Z" fill="white"/>
<rect x="497.703" y="146.723" width="85.1877" height="21.4154" rx="2.68308" fill="#FF0606"/>
<path d="M537.077 159.497C537.99 159.497 538.674 159.027 538.674 158.216C538.674 157.357 538.03 157.075 537.312 156.901L536.809 156.78C536.32 156.659 536.011 156.519 536.011 156.123C536.011 155.781 536.32 155.579 536.749 155.579C537.299 155.579 537.782 155.821 538.03 156.378L538.6 155.834C538.278 155.217 537.621 154.875 536.796 154.875C535.951 154.875 535.219 155.331 535.219 156.176C535.219 157.028 535.897 157.317 536.534 157.451L536.957 157.545C537.54 157.672 537.903 157.793 537.903 158.229C537.903 158.638 537.54 158.799 537.091 158.799C536.541 158.799 535.863 158.544 535.622 157.887L535.085 158.43C535.434 159.188 536.219 159.497 537.077 159.497ZM540.808 159.497C541.532 159.497 541.975 159.168 542.223 158.792L541.76 158.31C541.639 158.585 541.384 158.88 540.814 158.88C540.298 158.88 539.956 158.564 539.915 157.981H542.25C542.263 157.914 542.277 157.773 542.277 157.652C542.277 156.747 541.733 156.096 540.754 156.096C539.835 156.096 539.198 156.773 539.198 157.8C539.198 158.819 539.835 159.497 540.808 159.497ZM540.754 156.7C541.25 156.7 541.545 156.981 541.599 157.498H539.922C539.983 156.968 540.291 156.7 540.754 156.7ZM543.7 159.43V154.936H542.948V159.43H543.7ZM545.246 159.43V154.936H544.494V159.43H545.246Z" fill="white"/>
</g>
</g>
</g>
</g>
<defs>
<filter id="filter0_f_3481_29601" x="-115.131" y="-78.1314" width="861.782" height="746.263" filterUnits="userSpaceOnUse" color-interpolation-filters="sRGB">
<feFlood flood-opacity="0" result="BackgroundImageFix"/>
<feBlend mode="normal" in="SourceGraphic" in2="BackgroundImageFix" result="shape"/>
<feGaussianBlur stdDeviation="122.066" result="effect1_foregroundBlur_3481_29601"/>
</filter>
<filter id="filter1_f_3481_29601" x="31.349" y="-78.1314" width="861.782" height="746.263" filterUnits="userSpaceOnUse" color-interpolation-filters="sRGB">
<feFlood flood-opacity="0" result="BackgroundImageFix"/>
<feBlend mode="normal" in="SourceGraphic" in2="BackgroundImageFix" result="shape"/>
<feGaussianBlur stdDeviation="122.066" result="effect1_foregroundBlur_3481_29601"/>
</filter>
<filter id="filter2_f_3481_29601" x="198" y="27" width="179" height="456" filterUnits="userSpaceOnUse" color-interpolation-filters="sRGB">
<feFlood flood-opacity="0" result="BackgroundImageFix"/>
<feBlend mode="normal" in="SourceGraphic" in2="BackgroundImageFix" result="shape"/>
<feGaussianBlur stdDeviation="30" result="effect1_foregroundBlur_3481_29601"/>
</filter>
<filter id="filter3_d_3481_29601" x="334.939" y="254.565" width="59.8606" height="38.8294" filterUnits="userSpaceOnUse" color-interpolation-filters="sRGB">
<feFlood flood-opacity="0" result="BackgroundImageFix"/>
<feColorMatrix in="SourceAlpha" type="matrix" values="0 0 0 0 0 0 0 0 0 0 0 0 0 0 0 0 0 0 127 0" result="hardAlpha"/>
<feOffset dy="2.34483"/>
<feGaussianBlur stdDeviation="7.0345"/>
<feComposite in2="hardAlpha" operator="out"/>
<feColorMatrix type="matrix" values="0 0 0 0 0.325 0 0 0 0 0.325 0 0 0 0 0.325 0 0 0 0.15 0"/>
<feBlend mode="normal" in2="BackgroundImageFix" result="effect1_dropShadow_3481_29601"/>
<feBlend mode="normal" in="SourceGraphic" in2="effect1_dropShadow_3481_29601" result="shape"/>
</filter>
<filter id="filter4_i_3481_29601" x="406.445" y="82.5586" width="4.69141" height="2.43359" filterUnits="userSpaceOnUse" color-interpolation-filters="sRGB">
<feFlood flood-opacity="0" result="BackgroundImageFix"/>
<feBlend mode="normal" in="SourceGraphic" in2="BackgroundImageFix" result="shape"/>
<feColorMatrix in="SourceAlpha" type="matrix" values="0 0 0 0 0 0 0 0 0 0 0 0 0 0 0 0 0 0 127 0" result="hardAlpha"/>
<feOffset/>
<feGaussianBlur stdDeviation="0.293104"/>
<feComposite in2="hardAlpha" operator="arithmetic" k2="-1" k3="1"/>
<feColorMatrix type="matrix" values="0 0 0 0 0 0 0 0 0 0 0 0 0 0 0 0 0 0 0.5 0"/>
<feBlend mode="normal" in2="shape" result="effect1_innerShadow_3481_29601"/>
</filter>
<filter id="filter5_i_3481_29601" x="406.445" y="78.6523" width="4.69141" height="2.43359" filterUnits="userSpaceOnUse" color-interpolation-filters="sRGB">
<feFlood flood-opacity="0" result="BackgroundImageFix"/>
<feBlend mode="normal" in="SourceGraphic" in2="BackgroundImageFix" result="shape"/>
<feColorMatrix in="SourceAlpha" type="matrix" values="0 0 0 0 0 0 0 0 0 0 0 0 0 0 0 0 0 0 127 0" result="hardAlpha"/>
<feOffset/>
<feGaussianBlur stdDeviation="0.293104"/>
<feComposite in2="hardAlpha" operator="arithmetic" k2="-1" k3="1"/>
<feColorMatrix type="matrix" values="0 0 0 0 0 0 0 0 0 0 0 0 0 0 0 0 0 0 0.5 0"/>
<feBlend mode="normal" in2="shape" result="effect1_innerShadow_3481_29601"/>
</filter>
<filter id="filter6_d_3481_29601" x="343" y="49" width="298" height="194.703" filterUnits="userSpaceOnUse" color-interpolation-filters="sRGB">
<feFlood flood-opacity="0" result="BackgroundImageFix"/>
<feColorMatrix in="SourceAlpha" type="matrix" values="0 0 0 0 0 0 0 0 0 0 0 0 0 0 0 0 0 0 127 0" result="hardAlpha"/>
<feOffset dy="6"/>
<feGaussianBlur stdDeviation="20"/>
<feComposite in2="hardAlpha" operator="out"/>
<feColorMatrix type="matrix" values="0 0 0 0 0.0916667 0 0 0 0 0.0916667 0 0 0 0 0.0916667 0 0 0 0.6 0"/>
<feBlend mode="normal" in2="BackgroundImageFix" result="effect1_dropShadow_3481_29601"/>
<feBlend mode="normal" in="SourceGraphic" in2="effect1_dropShadow_3481_29601" result="shape"/>
</filter>
<linearGradient id="paint0_linear_3481_29601" x1="3.11086" y1="0" x2="3.11086" y2="63.4249" gradientUnits="userSpaceOnUse">
<stop stop-color="#4F4F4F"/>
<stop offset="1" stop-color="#171717"/>
</linearGradient>
<linearGradient id="paint1_linear_3481_29601" x1="3.11086" y1="0" x2="3.11086" y2="60.9377" gradientUnits="userSpaceOnUse">
<stop stop-color="#898989"/>
<stop offset="1" stop-color="#5F5F5F"/>
</linearGradient>
<linearGradient id="paint2_linear_3481_29601" x1="3.15513" y1="0" x2="3.15513" y2="42.1755" gradientUnits="userSpaceOnUse">
<stop stop-color="#171717"/>
<stop offset="1" stop-color="#464646"/>
</linearGradient>
<linearGradient id="paint3_linear_3481_29601" x1="3.15513" y1="0" x2="3.15513" y2="39.8105" gradientUnits="userSpaceOnUse">
<stop stop-color="#898989"/>
<stop offset="1" stop-color="#5F5F5F"/>
</linearGradient>
<linearGradient id="paint4_linear_3481_29601" x1="3.15513" y1="0" x2="3.15513" y2="41.3872" gradientUnits="userSpaceOnUse">
<stop stop-color="#171717"/>
<stop offset="1" stop-color="#707070"/>
</linearGradient>
<linearGradient id="paint5_linear_3481_29601" x1="3.15513" y1="0" x2="3.15513" y2="18.1315" gradientUnits="userSpaceOnUse">
<stop stop-color="#171717"/>
<stop offset="1" stop-color="#7C7C7C"/>
</linearGradient>
<linearGradient id="paint6_linear_3481_29601" x1="3.15513" y1="0" x2="3.15513" y2="39.8105" gradientUnits="userSpaceOnUse">
<stop stop-color="#898989"/>
<stop offset="1" stop-color="#B9B9B9"/>
</linearGradient>
<linearGradient id="paint7_linear_3481_29601" x1="3.15513" y1="0" x2="3.15513" y2="15.7665" gradientUnits="userSpaceOnUse">
<stop stop-color="#898989"/>
<stop offset="1" stop-color="white"/>
</linearGradient>
<linearGradient id="paint8_linear_3481_29601" x1="514.801" y1="56.0547" x2="251.152" y2="587.083" gradientUnits="userSpaceOnUse">
<stop stop-color="#EFEFEF"/>
<stop offset="1" stop-color="#555555"/>
</linearGradient>
<linearGradient id="paint9_linear_3481_29601" x1="403.016" y1="80.7709" x2="407.513" y2="88.008" gradientUnits="userSpaceOnUse">
<stop stop-color="#010005" stop-opacity="0.66"/>
<stop offset="1" stop-color="#2E2D31"/>
</linearGradient>
<radialGradient id="paint10_radial_3481_29601" cx="0" cy="0" r="1" gradientUnits="userSpaceOnUse" gradientTransform="translate(408.179 83.7754) rotate(90) scale(3.00689 1.23623)">
<stop stop-color="#1F85DE"/>
<stop offset="0.257948" stop-color="#1B75C9"/>
<stop offset="1" stop-color="#000232"/>
</radialGradient>
<radialGradient id="paint11_radial_3481_29601" cx="0" cy="0" r="1" gradientUnits="userSpaceOnUse" gradientTransform="translate(0.603619 2.34483) rotate(90) scale(3.00689 1.23623)">
<stop stop-color="#1F85DE"/>
<stop offset="0.257948" stop-color="#1B75C9"/>
<stop offset="1" stop-color="#000232"/>
</radialGradient>
<linearGradient id="paint12_linear_3481_29601" x1="251.774" y1="112.016" x2="251.774" y2="120.721" gradientUnits="userSpaceOnUse">
<stop stop-color="#5A5A5A"/>
<stop offset="0.53125" stop-color="#242424"/>
<stop offset="1" stop-color="#585858"/>
</linearGradient>
<linearGradient id="paint13_linear_3481_29601" x1="514.18" y1="112.016" x2="514.18" y2="120.721" gradientUnits="userSpaceOnUse">
<stop stop-color="#5A5A5A"/>
<stop offset="0.53125" stop-color="#242424"/>
<stop offset="1" stop-color="#585858"/>
</linearGradient>
<linearGradient id="paint14_linear_3481_29601" x1="466.923" y1="56.0547" x2="466.923" y2="64.7601" gradientUnits="userSpaceOnUse">
<stop stop-color="#5A5A5A"/>
<stop offset="0.53125" stop-color="#242424"/>
<stop offset="1" stop-color="#585858"/>
</linearGradient>
<linearGradient id="paint15_linear_3481_29601" x1="306.497" y1="56.0547" x2="306.497" y2="64.7601" gradientUnits="userSpaceOnUse">
<stop stop-color="#5A5A5A"/>
<stop offset="0.53125" stop-color="#242424"/>
<stop offset="1" stop-color="#585858"/>
</linearGradient>
<clipPath id="clip0_3481_29601">
<rect width="787" height="391" fill="white"/>
</clipPath>
<clipPath id="clip1_3481_29601">
<rect x="78" width="690" height="391" rx="8" fill="white"/>
</clipPath>
<clipPath id="clip2_3481_29601">
<rect x="258.137" y="70.0508" width="248.552" height="542.829" rx="35.1725" fill="white"/>
</clipPath>
<clipPath id="clip3_3481_29601">
<rect width="247.403" height="32.3705" fill="white" transform="translate(258.102 69.9648)"/>
</clipPath>
<clipPath id="clip4_3481_29601">
<rect x="383" y="83" width="218" height="114.702" rx="10.7323" fill="white"/>
</clipPath>
</defs>
</svg>
