<svg width="546" height="176" viewBox="0 0 546 176" fill="none" xmlns="http://www.w3.org/2000/svg">
<g clip-path="url(#clip0_4210_32001)">
<path d="M14.77 59C15.5167 58.58 16.1233 57.9967 16.59 57.25C17.0567 56.4567 17.4067 55.64 17.64 54.8C17.92 53.9133 18.1067 53.0033 18.2 52.07C18.2933 51.1367 18.34 50.2733 18.34 49.48V38.21C17.8267 36.95 17.1033 35.3633 16.17 33.45C15.2367 31.49 14.21 29.39 13.09 27.15C12.0167 24.8633 10.85 22.5767 9.59 20.29C8.37667 17.9567 7.16333 15.81 5.95 13.85C4.78333 11.8433 3.68667 10.14 2.66 8.74C1.63333 7.34 0.746667 6.43 0 6.01H20.02C18.2 7.08333 17.29 8.6 17.29 10.56C17.29 11.26 17.3833 12.0067 17.57 12.8C17.8033 13.5467 18.06 14.2467 18.34 14.9L27.72 35.9C28.3733 34.3133 29.0733 32.6567 29.82 30.93C30.5667 29.2033 31.2433 27.4767 31.85 25.75C32.5033 24.0233 33.04 22.2967 33.46 20.57C33.88 18.8433 34.09 17.1867 34.09 15.6C34.09 10.84 31.8267 7.64333 27.3 6.01H48.86C47.9733 6.43 46.9233 7.34 45.71 8.74C44.4967 10.0933 43.2367 11.75 41.93 13.71C40.6233 15.67 39.2933 17.8167 37.94 20.15C36.5867 22.4367 35.3033 24.7 34.09 26.94C32.8767 29.18 31.78 31.28 30.8 33.24C29.8667 35.2 29.12 36.8333 28.56 38.14V49.48C28.56 50.2733 28.5833 51.1367 28.63 52.07C28.7233 53.0033 28.8867 53.9133 29.12 54.8C29.3533 55.6867 29.7033 56.5033 30.17 57.25C30.6367 57.9967 31.2667 58.58 32.06 59H14.77ZM55.8496 24.63C58.2763 24.63 60.5163 25.0967 62.5696 26.03C64.6229 26.9633 66.3963 28.2467 67.8896 29.88C69.4296 31.4667 70.6196 33.3333 71.4596 35.48C72.2996 37.58 72.7196 39.82 72.7196 42.2C72.7196 44.58 72.2996 46.8433 71.4596 48.99C70.6196 51.09 69.4296 52.9333 67.8896 54.52C66.3963 56.1067 64.6229 57.3667 62.5696 58.3C60.5163 59.2333 58.2763 59.7 55.8496 59.7C53.4229 59.7 51.1596 59.2333 49.0596 58.3C47.0063 57.3667 45.2329 56.1067 43.7396 54.52C42.2463 52.9333 41.0563 51.09 40.1696 48.99C39.3296 46.8433 38.9096 44.58 38.9096 42.2C38.9096 39.82 39.3296 37.58 40.1696 35.48C41.0563 33.3333 42.2463 31.4667 43.7396 29.88C45.2329 28.2467 47.0063 26.9633 49.0596 26.03C51.1596 25.0967 53.4229 24.63 55.8496 24.63ZM58.0896 57.81C59.1629 57.81 60.0029 57.4133 60.6096 56.62C61.2163 55.8267 61.6829 54.8933 62.0096 53.82C62.3363 52.7 62.5463 51.5567 62.6396 50.39C62.7329 49.2233 62.7796 48.29 62.7796 47.59C62.7796 46.7033 62.7096 45.56 62.5696 44.16C62.4296 42.76 62.1963 41.29 61.8696 39.75C61.5429 38.21 61.1229 36.67 60.6096 35.13C60.1429 33.5433 59.5363 32.1433 58.7896 30.93C58.0429 29.67 57.1796 28.6433 56.1996 27.85C55.2663 27.0567 54.1696 26.66 52.9096 26.66C51.9296 26.66 51.1596 27.0333 50.5996 27.78C50.0396 28.5267 49.6196 29.4133 49.3396 30.44C49.0596 31.4667 48.8729 32.5167 48.7796 33.59C48.7329 34.6633 48.7096 35.5267 48.7096 36.18C48.7096 37.02 48.7796 38.14 48.9196 39.54C49.0596 40.8933 49.2696 42.3867 49.5496 44.02C49.8763 45.6067 50.2729 47.2167 50.7396 48.85C51.2529 50.4833 51.8596 51.9767 52.5596 53.33C53.2596 54.6367 54.0529 55.71 54.9396 56.55C55.8729 57.39 56.9229 57.81 58.0896 57.81ZM87.0713 25.19V48.15C87.0713 48.85 87.1413 49.5733 87.2813 50.32C87.4213 51.0667 87.6546 51.7433 87.9813 52.35C88.3079 52.9567 88.7513 53.4467 89.3113 53.82C89.9179 54.1933 90.6413 54.38 91.4813 54.38C92.8346 54.38 93.8846 53.9367 94.6313 53.05C95.4246 52.1633 95.9613 51.1367 96.2413 49.97C96.2413 49.0367 96.2646 48.1267 96.3113 47.24C96.3579 46.3533 96.3813 45.49 96.3813 44.65V34.71C96.3813 33.9167 96.3346 33.0533 96.2413 32.12C96.1946 31.1867 96.0546 30.2767 95.8213 29.39C95.5879 28.5033 95.2379 27.6867 94.7713 26.94C94.3046 26.1933 93.6746 25.61 92.8813 25.19H106.601V48.01C106.601 50.2967 106.881 52.2567 107.441 53.89C108.048 55.5233 109.075 57.2267 110.521 59H97.9913C97.7579 58.1133 97.5013 57.2033 97.2213 56.27C96.9413 55.29 96.7079 54.3333 96.5213 53.4C96.3813 53.6333 95.7979 54.1 94.7713 54.8C93.7446 55.4533 92.6246 56.13 91.4113 56.83C90.2446 57.53 89.1479 58.16 88.1213 58.72C87.0946 59.28 86.4646 59.56 86.2313 59.56C84.6446 59.56 83.2679 59.2567 82.1013 58.65C80.9346 58.0433 79.9546 57.2267 79.1613 56.2C78.4146 55.1733 77.8313 53.9833 77.4113 52.63C77.0379 51.2767 76.8513 49.8767 76.8513 48.43V34.71C76.8513 33.9167 76.8046 33.0533 76.7113 32.12C76.6179 31.1867 76.4546 30.2767 76.2213 29.39C75.9879 28.5033 75.6379 27.6867 75.1713 26.94C74.7046 26.1933 74.0746 25.61 73.2812 25.19H87.0713ZM124.677 32.89C125.144 31.91 125.704 30.93 126.357 29.95C127.057 28.9233 127.827 28.0367 128.667 27.29C129.554 26.4967 130.51 25.8667 131.537 25.4C132.61 24.8867 133.73 24.63 134.897 24.63C136.81 24.63 138.304 25.2833 139.377 26.59C140.497 27.85 141.057 29.39 141.057 31.21C141.057 32.3767 140.824 33.45 140.357 34.43C139.937 35.41 139.33 36.2267 138.537 36.88C137.79 37.5333 136.904 38.0467 135.877 38.42C134.897 38.7933 133.824 38.98 132.657 38.98C132.75 38.7 132.82 38.42 132.867 38.14C132.914 37.86 132.937 37.5567 132.937 37.23C132.937 36.0167 132.517 35.0133 131.677 34.22C130.884 33.38 129.88 32.96 128.667 32.96C128.2 32.96 127.734 33.0767 127.267 33.31C126.8 33.4967 126.357 33.7767 125.937 34.15C125.564 34.4767 125.26 34.8733 125.027 35.34C124.794 35.76 124.677 36.2267 124.677 36.74V49.48C124.677 50.2733 124.7 51.1367 124.747 52.07C124.84 53.0033 125.004 53.9133 125.237 54.8C125.517 55.6867 125.89 56.5033 126.357 57.25C126.824 57.9967 127.43 58.58 128.177 59H110.887C111.634 58.58 112.24 57.9967 112.707 57.25C113.174 56.4567 113.524 55.64 113.757 54.8C114.037 53.9133 114.224 53.0033 114.317 52.07C114.41 51.1367 114.457 50.2733 114.457 49.48V39.54C114.457 38.56 114.364 37.6733 114.177 36.88C113.99 36.04 113.734 35.27 113.407 34.57C113.08 33.87 112.66 33.1933 112.147 32.54C111.68 31.84 111.144 31.1167 110.537 30.37C112.17 30.09 113.547 29.8333 114.667 29.6C115.834 29.32 116.907 28.9933 117.887 28.62C118.914 28.2467 119.94 27.8033 120.967 27.29C122.04 26.73 123.277 26.03 124.677 25.19V32.89ZM166.376 41.85C166.702 43.2967 167.192 44.6733 167.846 45.98C168.499 47.24 169.316 48.36 170.296 49.34C171.276 50.2733 172.419 51.02 173.726 51.58C175.079 52.14 176.596 52.42 178.276 52.42C178.789 52.42 179.396 52.3967 180.096 52.35C180.842 52.2567 181.589 52.14 182.336 52C183.082 51.86 183.782 51.6733 184.436 51.44C185.136 51.16 185.672 50.8333 186.046 50.46L186.606 50.88C185.019 53.7733 183.129 55.9667 180.936 57.46C178.789 58.9533 175.989 59.7 172.536 59.7C170.109 59.7 167.846 59.2567 165.746 58.37C163.692 57.4833 161.919 56.27 160.426 54.73C158.979 53.1433 157.836 51.3 156.996 49.2C156.156 47.1 155.736 44.8367 155.736 42.41C155.736 40.0767 156.086 37.8367 156.786 35.69C157.532 33.5433 158.582 31.6533 159.936 30.02C161.336 28.3867 163.016 27.08 164.976 26.1C166.936 25.12 169.152 24.63 171.626 24.63C173.866 24.63 175.896 24.98 177.716 25.68C179.582 26.3333 181.146 27.3133 182.406 28.62C183.712 29.88 184.716 31.42 185.416 33.24C186.116 35.06 186.466 37.09 186.466 39.33V41.01L166.376 41.85ZM177.086 33.73C177.086 32.9367 176.922 32.0967 176.596 31.21C176.316 30.3233 175.896 29.53 175.336 28.83C174.776 28.0833 174.122 27.4767 173.376 27.01C172.629 26.5433 171.812 26.31 170.926 26.31C169.899 26.31 169.059 26.73 168.406 27.57C167.752 28.41 167.239 29.4133 166.866 30.58C166.492 31.7 166.212 32.8667 166.026 34.08C165.886 35.2933 165.816 36.25 165.816 36.95C165.816 37.9767 165.886 39.0267 166.026 40.1C166.959 40.0067 167.892 39.89 168.826 39.75C169.759 39.61 170.692 39.47 171.626 39.33C173.212 39.0967 174.519 38.5367 175.546 37.65C176.572 36.7633 177.086 35.4567 177.086 33.73ZM188.705 38.28H216.425V39.96H188.705V38.28ZM235.083 36.11C236.25 36.11 237.323 35.8533 238.303 35.34C239.283 34.8267 239.773 33.8933 239.773 32.54C239.773 31.7467 239.586 30.9767 239.213 30.23C238.886 29.4833 238.42 28.83 237.813 28.27C237.253 27.6633 236.6 27.1967 235.853 26.87C235.106 26.4967 234.336 26.31 233.543 26.31C232.563 26.31 231.77 26.7067 231.163 27.5C230.556 28.2467 230.066 29.1567 229.693 30.23C229.366 31.3033 229.133 32.4 228.993 33.52C228.853 34.64 228.783 35.55 228.783 36.25C228.783 38.21 229.04 40.17 229.553 42.13C230.066 44.0433 230.836 45.77 231.863 47.31C232.936 48.85 234.29 50.0867 235.923 51.02C237.556 51.9533 239.493 52.42 241.733 52.42C242.246 52.42 242.853 52.3967 243.553 52.35C244.3 52.2567 245.046 52.14 245.793 52C246.54 51.86 247.24 51.6733 247.893 51.44C248.593 51.16 249.13 50.8333 249.503 50.46L250.063 50.88C246.796 56.76 241.826 59.7 235.153 59.7C232.726 59.7 230.463 59.2567 228.363 58.37C226.31 57.4833 224.536 56.27 223.043 54.73C221.596 53.1433 220.453 51.3 219.613 49.2C218.773 47.1 218.353 44.8367 218.353 42.41C218.353 40.0767 218.703 37.8367 219.403 35.69C220.15 33.5433 221.2 31.6533 222.553 30.02C223.953 28.3867 225.633 27.08 227.593 26.1C229.553 25.12 231.77 24.63 234.243 24.63C235.97 24.63 237.696 24.8867 239.423 25.4C241.15 25.9133 242.713 26.6833 244.113 27.71C245.513 28.69 246.633 29.9267 247.473 31.42C248.36 32.9133 248.803 34.6167 248.803 36.53C248.803 38.35 248.29 39.82 247.263 40.94C246.236 42.06 244.766 42.62 242.853 42.62C240.706 42.62 239.026 42.0367 237.813 40.87C236.6 39.6567 235.69 38.07 235.083 36.11ZM267.559 24.63C269.985 24.63 272.225 25.0967 274.279 26.03C276.332 26.9633 278.105 28.2467 279.599 29.88C281.139 31.4667 282.329 33.3333 283.169 35.48C284.009 37.58 284.429 39.82 284.429 42.2C284.429 44.58 284.009 46.8433 283.169 48.99C282.329 51.09 281.139 52.9333 279.599 54.52C278.105 56.1067 276.332 57.3667 274.279 58.3C272.225 59.2333 269.985 59.7 267.559 59.7C265.132 59.7 262.869 59.2333 260.769 58.3C258.715 57.3667 256.942 56.1067 255.449 54.52C253.955 52.9333 252.765 51.09 251.879 48.99C251.039 46.8433 250.619 44.58 250.619 42.2C250.619 39.82 251.039 37.58 251.879 35.48C252.765 33.3333 253.955 31.4667 255.449 29.88C256.942 28.2467 258.715 26.9633 260.769 26.03C262.869 25.0967 265.132 24.63 267.559 24.63ZM269.799 57.81C270.872 57.81 271.712 57.4133 272.319 56.62C272.925 55.8267 273.392 54.8933 273.719 53.82C274.045 52.7 274.255 51.5567 274.349 50.39C274.442 49.2233 274.489 48.29 274.489 47.59C274.489 46.7033 274.419 45.56 274.279 44.16C274.139 42.76 273.905 41.29 273.579 39.75C273.252 38.21 272.832 36.67 272.319 35.13C271.852 33.5433 271.245 32.1433 270.499 30.93C269.752 29.67 268.889 28.6433 267.909 27.85C266.975 27.0567 265.879 26.66 264.619 26.66C263.639 26.66 262.869 27.0333 262.309 27.78C261.749 28.5267 261.329 29.4133 261.049 30.44C260.769 31.4667 260.582 32.5167 260.489 33.59C260.442 34.6633 260.419 35.5267 260.419 36.18C260.419 37.02 260.489 38.14 260.629 39.54C260.769 40.8933 260.979 42.3867 261.259 44.02C261.585 45.6067 261.982 47.2167 262.449 48.85C262.962 50.4833 263.569 51.9767 264.269 53.33C264.969 54.6367 265.762 55.71 266.649 56.55C267.582 57.39 268.632 57.81 269.799 57.81ZM318.1 31.35C318.194 31.1633 318.497 30.8833 319.01 30.51C319.57 30.1367 320.224 29.6933 320.97 29.18C321.764 28.6667 322.58 28.1533 323.42 27.64C324.307 27.08 325.124 26.59 325.87 26.17C326.664 25.7033 327.34 25.33 327.9 25.05C328.46 24.77 328.81 24.63 328.95 24.63C330.537 24.63 331.914 24.9333 333.08 25.54C334.247 26.1467 335.204 26.9633 335.95 27.99C336.744 29.0167 337.327 30.2067 337.7 31.56C338.12 32.9133 338.33 34.3133 338.33 35.76V49.48C338.33 50.2733 338.377 51.1367 338.47 52.07C338.564 53.0033 338.727 53.9133 338.96 54.8C339.194 55.6867 339.544 56.5033 340.01 57.25C340.524 57.9967 341.154 58.58 341.9 59H324.61C325.357 58.58 325.964 57.9967 326.43 57.25C326.897 56.4567 327.247 55.64 327.48 54.8C327.714 53.9133 327.877 53.0033 327.97 52.07C328.064 51.1367 328.11 50.2733 328.11 49.48V36.04C328.11 35.34 328.04 34.6167 327.9 33.87C327.76 33.1233 327.527 32.4467 327.2 31.84C326.874 31.2333 326.407 30.7433 325.8 30.37C325.24 29.9967 324.54 29.81 323.7 29.81C322.86 29.81 322.137 29.9967 321.53 30.37C320.924 30.7433 320.41 31.2333 319.99 31.84C319.57 32.4 319.244 33.0533 319.01 33.8C318.824 34.5467 318.707 35.2933 318.66 36.04V49.48C318.66 50.2733 318.707 51.1367 318.8 52.07C318.894 53.0033 319.057 53.9133 319.29 54.8C319.524 55.6867 319.874 56.5033 320.34 57.25C320.854 57.9967 321.484 58.58 322.23 59H304.94C305.687 58.58 306.294 57.9967 306.76 57.25C307.227 56.4567 307.577 55.64 307.81 54.8C308.044 53.9133 308.207 53.0033 308.3 52.07C308.394 51.1367 308.44 50.2733 308.44 49.48V36.04C308.44 35.34 308.37 34.6167 308.23 33.87C308.09 33.1233 307.857 32.4467 307.53 31.84C307.204 31.2333 306.737 30.7433 306.13 30.37C305.57 29.9967 304.87 29.81 304.03 29.81C302.584 29.81 301.464 30.3233 300.67 31.35C299.877 32.33 299.364 33.4733 299.13 34.78V49.48C299.13 50.2733 299.154 51.1367 299.2 52.07C299.294 53.0033 299.457 53.9133 299.69 54.8C299.924 55.6867 300.274 56.5033 300.74 57.25C301.207 57.9967 301.837 58.58 302.63 59H285.34C286.087 58.58 286.694 57.9967 287.16 57.25C287.627 56.4567 287.977 55.64 288.21 54.8C288.49 53.9133 288.677 53.0033 288.77 52.07C288.864 51.1367 288.91 50.2733 288.91 49.48V39.54C288.91 38.56 288.817 37.6733 288.63 36.88C288.444 36.04 288.187 35.27 287.86 34.57C287.534 33.87 287.114 33.1933 286.6 32.54C286.134 31.84 285.597 31.1167 284.99 30.37C286.624 30.09 288 29.8333 289.12 29.6C290.287 29.32 291.36 28.9933 292.34 28.62C293.367 28.2467 294.394 27.8033 295.42 27.29C296.494 26.73 297.73 26.03 299.13 25.19V30.65C299.457 30.3233 300.134 29.8333 301.16 29.18C302.187 28.5267 303.26 27.8733 304.38 27.22C305.547 26.52 306.597 25.9133 307.53 25.4C308.51 24.8867 309.094 24.63 309.28 24.63C311.707 24.63 313.644 25.33 315.09 26.73C316.584 28.0833 317.61 29.7867 318.17 31.84L318.1 31.35ZM375.044 31.35C375.137 31.1633 375.44 30.8833 375.954 30.51C376.514 30.1367 377.167 29.6933 377.914 29.18C378.707 28.6667 379.524 28.1533 380.364 27.64C381.25 27.08 382.067 26.59 382.814 26.17C383.607 25.7033 384.284 25.33 384.844 25.05C385.404 24.77 385.754 24.63 385.894 24.63C387.48 24.63 388.857 24.9333 390.024 25.54C391.19 26.1467 392.147 26.9633 392.894 27.99C393.687 29.0167 394.27 30.2067 394.644 31.56C395.064 32.9133 395.274 34.3133 395.274 35.76V49.48C395.274 50.2733 395.32 51.1367 395.414 52.07C395.507 53.0033 395.67 53.9133 395.904 54.8C396.137 55.6867 396.487 56.5033 396.954 57.25C397.467 57.9967 398.097 58.58 398.844 59H381.554C382.3 58.58 382.907 57.9967 383.374 57.25C383.84 56.4567 384.19 55.64 384.424 54.8C384.657 53.9133 384.82 53.0033 384.914 52.07C385.007 51.1367 385.054 50.2733 385.054 49.48V36.04C385.054 35.34 384.984 34.6167 384.844 33.87C384.704 33.1233 384.47 32.4467 384.144 31.84C383.817 31.2333 383.35 30.7433 382.744 30.37C382.184 29.9967 381.484 29.81 380.644 29.81C379.804 29.81 379.08 29.9967 378.474 30.37C377.867 30.7433 377.354 31.2333 376.934 31.84C376.514 32.4 376.187 33.0533 375.954 33.8C375.767 34.5467 375.65 35.2933 375.604 36.04V49.48C375.604 50.2733 375.65 51.1367 375.744 52.07C375.837 53.0033 376 53.9133 376.234 54.8C376.467 55.6867 376.817 56.5033 377.284 57.25C377.797 57.9967 378.427 58.58 379.174 59H361.884C362.63 58.58 363.237 57.9967 363.704 57.25C364.17 56.4567 364.52 55.64 364.754 54.8C364.987 53.9133 365.15 53.0033 365.244 52.07C365.337 51.1367 365.384 50.2733 365.384 49.48V36.04C365.384 35.34 365.314 34.6167 365.174 33.87C365.034 33.1233 364.8 32.4467 364.474 31.84C364.147 31.2333 363.68 30.7433 363.074 30.37C362.514 29.9967 361.814 29.81 360.974 29.81C359.527 29.81 358.407 30.3233 357.614 31.35C356.82 32.33 356.307 33.4733 356.074 34.78V49.48C356.074 50.2733 356.097 51.1367 356.144 52.07C356.237 53.0033 356.4 53.9133 356.634 54.8C356.867 55.6867 357.217 56.5033 357.684 57.25C358.15 57.9967 358.78 58.58 359.574 59H342.284C343.03 58.58 343.637 57.9967 344.104 57.25C344.57 56.4567 344.92 55.64 345.154 54.8C345.434 53.9133 345.62 53.0033 345.714 52.07C345.807 51.1367 345.854 50.2733 345.854 49.48V39.54C345.854 38.56 345.76 37.6733 345.574 36.88C345.387 36.04 345.13 35.27 344.804 34.57C344.477 33.87 344.057 33.1933 343.544 32.54C343.077 31.84 342.54 31.1167 341.934 30.37C343.567 30.09 344.944 29.8333 346.064 29.6C347.23 29.32 348.304 28.9933 349.284 28.62C350.31 28.2467 351.337 27.8033 352.364 27.29C353.437 26.73 354.674 26.03 356.074 25.19V30.65C356.4 30.3233 357.077 29.8333 358.104 29.18C359.13 28.5267 360.204 27.8733 361.324 27.22C362.49 26.52 363.54 25.9133 364.474 25.4C365.454 24.8867 366.037 24.63 366.224 24.63C368.65 24.63 370.587 25.33 372.034 26.73C373.527 28.0833 374.554 29.7867 375.114 31.84L375.044 31.35ZM410.077 41.85C410.404 43.2967 410.894 44.6733 411.547 45.98C412.2 47.24 413.017 48.36 413.997 49.34C414.977 50.2733 416.12 51.02 417.427 51.58C418.78 52.14 420.297 52.42 421.977 52.42C422.49 52.42 423.097 52.3967 423.797 52.35C424.544 52.2567 425.29 52.14 426.037 52C426.784 51.86 427.484 51.6733 428.137 51.44C428.837 51.16 429.374 50.8333 429.747 50.46L430.307 50.88C428.72 53.7733 426.83 55.9667 424.637 57.46C422.49 58.9533 419.69 59.7 416.237 59.7C413.81 59.7 411.547 59.2567 409.447 58.37C407.394 57.4833 405.62 56.27 404.127 54.73C402.68 53.1433 401.537 51.3 400.697 49.2C399.857 47.1 399.437 44.8367 399.437 42.41C399.437 40.0767 399.787 37.8367 400.487 35.69C401.234 33.5433 402.284 31.6533 403.637 30.02C405.037 28.3867 406.717 27.08 408.677 26.1C410.637 25.12 412.854 24.63 415.327 24.63C417.567 24.63 419.597 24.98 421.417 25.68C423.284 26.3333 424.847 27.3133 426.107 28.62C427.414 29.88 428.417 31.42 429.117 33.24C429.817 35.06 430.167 37.09 430.167 39.33V41.01L410.077 41.85ZM420.787 33.73C420.787 32.9367 420.624 32.0967 420.297 31.21C420.017 30.3233 419.597 29.53 419.037 28.83C418.477 28.0833 417.824 27.4767 417.077 27.01C416.33 26.5433 415.514 26.31 414.627 26.31C413.6 26.31 412.76 26.73 412.107 27.57C411.454 28.41 410.94 29.4133 410.567 30.58C410.194 31.7 409.914 32.8667 409.727 34.08C409.587 35.2933 409.517 36.25 409.517 36.95C409.517 37.9767 409.587 39.0267 409.727 40.1C410.66 40.0067 411.594 39.89 412.527 39.75C413.46 39.61 414.394 39.47 415.327 39.33C416.914 39.0967 418.22 38.5367 419.247 37.65C420.274 36.7633 420.787 35.4567 420.787 33.73ZM445.146 32.89C445.613 31.91 446.173 30.93 446.826 29.95C447.526 28.9233 448.296 28.0367 449.136 27.29C450.023 26.4967 450.979 25.8667 452.006 25.4C453.079 24.8867 454.199 24.63 455.366 24.63C457.279 24.63 458.773 25.2833 459.846 26.59C460.966 27.85 461.526 29.39 461.526 31.21C461.526 32.3767 461.293 33.45 460.826 34.43C460.406 35.41 459.799 36.2267 459.006 36.88C458.259 37.5333 457.373 38.0467 456.346 38.42C455.366 38.7933 454.293 38.98 453.126 38.98C453.219 38.7 453.289 38.42 453.336 38.14C453.383 37.86 453.406 37.5567 453.406 37.23C453.406 36.0167 452.986 35.0133 452.146 34.22C451.353 33.38 450.349 32.96 449.136 32.96C448.669 32.96 448.203 33.0767 447.736 33.31C447.269 33.4967 446.826 33.7767 446.406 34.15C446.033 34.4767 445.729 34.8733 445.496 35.34C445.263 35.76 445.146 36.2267 445.146 36.74V49.48C445.146 50.2733 445.169 51.1367 445.216 52.07C445.309 53.0033 445.473 53.9133 445.706 54.8C445.986 55.6867 446.359 56.5033 446.826 57.25C447.293 57.9967 447.899 58.58 448.646 59H431.356C432.103 58.58 432.709 57.9967 433.176 57.25C433.643 56.4567 433.993 55.64 434.226 54.8C434.506 53.9133 434.693 53.0033 434.786 52.07C434.879 51.1367 434.926 50.2733 434.926 49.48V39.54C434.926 38.56 434.833 37.6733 434.646 36.88C434.459 36.04 434.203 35.27 433.876 34.57C433.549 33.87 433.129 33.1933 432.616 32.54C432.149 31.84 431.613 31.1167 431.006 30.37C432.639 30.09 434.016 29.8333 435.136 29.6C436.303 29.32 437.376 28.9933 438.356 28.62C439.383 28.2467 440.409 27.8033 441.436 27.29C442.509 26.73 443.746 26.03 445.146 25.19V32.89ZM477.827 36.11C478.994 36.11 480.067 35.8533 481.047 35.34C482.027 34.8267 482.517 33.8933 482.517 32.54C482.517 31.7467 482.33 30.9767 481.957 30.23C481.63 29.4833 481.164 28.83 480.557 28.27C479.997 27.6633 479.344 27.1967 478.597 26.87C477.85 26.4967 477.08 26.31 476.287 26.31C475.307 26.31 474.514 26.7067 473.907 27.5C473.3 28.2467 472.81 29.1567 472.437 30.23C472.11 31.3033 471.877 32.4 471.737 33.52C471.597 34.64 471.527 35.55 471.527 36.25C471.527 38.21 471.784 40.17 472.297 42.13C472.81 44.0433 473.58 45.77 474.607 47.31C475.68 48.85 477.034 50.0867 478.667 51.02C480.3 51.9533 482.237 52.42 484.477 52.42C484.99 52.42 485.597 52.3967 486.297 52.35C487.044 52.2567 487.79 52.14 488.537 52C489.284 51.86 489.984 51.6733 490.637 51.44C491.337 51.16 491.874 50.8333 492.247 50.46L492.807 50.88C489.54 56.76 484.57 59.7 477.897 59.7C475.47 59.7 473.207 59.2567 471.107 58.37C469.054 57.4833 467.28 56.27 465.787 54.73C464.34 53.1433 463.197 51.3 462.357 49.2C461.517 47.1 461.097 44.8367 461.097 42.41C461.097 40.0767 461.447 37.8367 462.147 35.69C462.894 33.5433 463.944 31.6533 465.297 30.02C466.697 28.3867 468.377 27.08 470.337 26.1C472.297 25.12 474.514 24.63 476.987 24.63C478.714 24.63 480.44 24.8867 482.167 25.4C483.894 25.9133 485.457 26.6833 486.857 27.71C488.257 28.69 489.377 29.9267 490.217 31.42C491.104 32.9133 491.547 34.6167 491.547 36.53C491.547 38.35 491.034 39.82 490.007 40.94C488.98 42.06 487.51 42.62 485.597 42.62C483.45 42.62 481.77 42.0367 480.557 40.87C479.344 39.6567 478.434 38.07 477.827 36.11ZM504.003 41.85C504.329 43.2967 504.819 44.6733 505.473 45.98C506.126 47.24 506.943 48.36 507.923 49.34C508.903 50.2733 510.046 51.02 511.353 51.58C512.706 52.14 514.223 52.42 515.903 52.42C516.416 52.42 517.023 52.3967 517.723 52.35C518.469 52.2567 519.216 52.14 519.963 52C520.709 51.86 521.409 51.6733 522.063 51.44C522.763 51.16 523.299 50.8333 523.673 50.46L524.233 50.88C522.646 53.7733 520.756 55.9667 518.563 57.46C516.416 58.9533 513.616 59.7 510.163 59.7C507.736 59.7 505.473 59.2567 503.373 58.37C501.319 57.4833 499.546 56.27 498.053 54.73C496.606 53.1433 495.463 51.3 494.623 49.2C493.783 47.1 493.363 44.8367 493.363 42.41C493.363 40.0767 493.713 37.8367 494.413 35.69C495.159 33.5433 496.209 31.6533 497.563 30.02C498.963 28.3867 500.643 27.08 502.603 26.1C504.563 25.12 506.779 24.63 509.253 24.63C511.493 24.63 513.523 24.98 515.343 25.68C517.209 26.3333 518.773 27.3133 520.033 28.62C521.339 29.88 522.343 31.42 523.043 33.24C523.743 35.06 524.093 37.09 524.093 39.33V41.01L504.003 41.85ZM514.713 33.73C514.713 32.9367 514.549 32.0967 514.223 31.21C513.943 30.3233 513.523 29.53 512.963 28.83C512.403 28.0833 511.749 27.4767 511.003 27.01C510.256 26.5433 509.439 26.31 508.553 26.31C507.526 26.31 506.686 26.73 506.033 27.57C505.379 28.41 504.866 29.4133 504.493 30.58C504.119 31.7 503.839 32.8667 503.653 34.08C503.513 35.2933 503.443 36.25 503.443 36.95C503.443 37.9767 503.513 39.0267 503.653 40.1C504.586 40.0067 505.519 39.89 506.453 39.75C507.386 39.61 508.319 39.47 509.253 39.33C510.839 39.0967 512.146 38.5367 513.173 37.65C514.199 36.7633 514.713 35.4567 514.713 33.73ZM531.162 48.78C532.562 48.78 533.752 49.2933 534.732 50.32C535.758 51.3 536.272 52.49 536.272 53.89C536.272 54.9633 536.038 56.06 535.572 57.18C535.152 58.3 534.592 59.35 533.892 60.33C533.192 61.31 532.375 62.1733 531.442 62.92C530.508 63.7133 529.552 64.32 528.572 64.74H527.872C528.525 64.2733 529.155 63.55 529.762 62.57C530.415 61.59 530.742 60.68 530.742 59.84C530.742 59.4667 530.695 59.1867 530.602 59C529.295 58.86 528.198 58.3233 527.312 57.39C526.425 56.41 525.982 55.2433 525.982 53.89C525.982 52.49 526.495 51.3 527.522 50.32C528.548 49.2933 529.762 48.78 531.162 48.78ZM14.77 139C15.5167 138.58 16.1233 137.997 16.59 137.25C17.0567 136.457 17.4067 135.64 17.64 134.8C17.92 133.913 18.1067 133.003 18.2 132.07C18.2933 131.137 18.34 130.273 18.34 129.48V118.21C17.8267 116.95 17.1033 115.363 16.17 113.45C15.2367 111.49 14.21 109.39 13.09 107.15C12.0167 104.863 10.85 102.577 9.59 100.29C8.37667 97.9567 7.16333 95.81 5.95 93.85C4.78333 91.8433 3.68667 90.14 2.66 88.74C1.63333 87.34 0.746667 86.43 0 86.01H20.02C18.2 87.0833 17.29 88.6 17.29 90.56C17.29 91.26 17.3833 92.0067 17.57 92.8C17.8033 93.5467 18.06 94.2467 18.34 94.9L27.72 115.9C28.3733 114.313 29.0733 112.657 29.82 110.93C30.5667 109.203 31.2433 107.477 31.85 105.75C32.5033 104.023 33.04 102.297 33.46 100.57C33.88 98.8433 34.09 97.1867 34.09 95.6C34.09 90.84 31.8267 87.6433 27.3 86.01H48.86C47.9733 86.43 46.9233 87.34 45.71 88.74C44.4967 90.0933 43.2367 91.75 41.93 93.71C40.6233 95.67 39.2933 97.8167 37.94 100.15C36.5867 102.437 35.3033 104.7 34.09 106.94C32.8767 109.18 31.78 111.28 30.8 113.24C29.8667 115.2 29.12 116.833 28.56 118.14V129.48C28.56 130.273 28.5833 131.137 28.63 132.07C28.7233 133.003 28.8867 133.913 29.12 134.8C29.3533 135.687 29.7033 136.503 30.17 137.25C30.6367 137.997 31.2667 138.58 32.06 139H14.77ZM55.8496 104.63C58.2763 104.63 60.5163 105.097 62.5696 106.03C64.6229 106.963 66.3963 108.247 67.8896 109.88C69.4296 111.467 70.6196 113.333 71.4596 115.48C72.2996 117.58 72.7196 119.82 72.7196 122.2C72.7196 124.58 72.2996 126.843 71.4596 128.99C70.6196 131.09 69.4296 132.933 67.8896 134.52C66.3963 136.107 64.6229 137.367 62.5696 138.3C60.5163 139.233 58.2763 139.7 55.8496 139.7C53.4229 139.7 51.1596 139.233 49.0596 138.3C47.0063 137.367 45.2329 136.107 43.7396 134.52C42.2463 132.933 41.0563 131.09 40.1696 128.99C39.3296 126.843 38.9096 124.58 38.9096 122.2C38.9096 119.82 39.3296 117.58 40.1696 115.48C41.0563 113.333 42.2463 111.467 43.7396 109.88C45.2329 108.247 47.0063 106.963 49.0596 106.03C51.1596 105.097 53.4229 104.63 55.8496 104.63ZM58.0896 137.81C59.1629 137.81 60.0029 137.413 60.6096 136.62C61.2163 135.827 61.6829 134.893 62.0096 133.82C62.3363 132.7 62.5463 131.557 62.6396 130.39C62.7329 129.223 62.7796 128.29 62.7796 127.59C62.7796 126.703 62.7096 125.56 62.5696 124.16C62.4296 122.76 62.1963 121.29 61.8696 119.75C61.5429 118.21 61.1229 116.67 60.6096 115.13C60.1429 113.543 59.5363 112.143 58.7896 110.93C58.0429 109.67 57.1796 108.643 56.1996 107.85C55.2663 107.057 54.1696 106.66 52.9096 106.66C51.9296 106.66 51.1596 107.033 50.5996 107.78C50.0396 108.527 49.6196 109.413 49.3396 110.44C49.0596 111.467 48.8729 112.517 48.7796 113.59C48.7329 114.663 48.7096 115.527 48.7096 116.18C48.7096 117.02 48.7796 118.14 48.9196 119.54C49.0596 120.893 49.2696 122.387 49.5496 124.02C49.8763 125.607 50.2729 127.217 50.7396 128.85C51.2529 130.483 51.8596 131.977 52.5596 133.33C53.2596 134.637 54.0529 135.71 54.9396 136.55C55.8729 137.39 56.9229 137.81 58.0896 137.81ZM87.0713 105.19V128.15C87.0713 128.85 87.1413 129.573 87.2813 130.32C87.4213 131.067 87.6546 131.743 87.9813 132.35C88.3079 132.957 88.7513 133.447 89.3113 133.82C89.9179 134.193 90.6413 134.38 91.4813 134.38C92.8346 134.38 93.8846 133.937 94.6313 133.05C95.4246 132.163 95.9613 131.137 96.2413 129.97C96.2413 129.037 96.2646 128.127 96.3113 127.24C96.3579 126.353 96.3813 125.49 96.3813 124.65V114.71C96.3813 113.917 96.3346 113.053 96.2413 112.12C96.1946 111.187 96.0546 110.277 95.8213 109.39C95.5879 108.503 95.2379 107.687 94.7713 106.94C94.3046 106.193 93.6746 105.61 92.8813 105.19H106.601V128.01C106.601 130.297 106.881 132.257 107.441 133.89C108.048 135.523 109.075 137.227 110.521 139H97.9913C97.7579 138.113 97.5013 137.203 97.2213 136.27C96.9413 135.29 96.7079 134.333 96.5213 133.4C96.3813 133.633 95.7979 134.1 94.7713 134.8C93.7446 135.453 92.6246 136.13 91.4113 136.83C90.2446 137.53 89.1479 138.16 88.1213 138.72C87.0946 139.28 86.4646 139.56 86.2313 139.56C84.6446 139.56 83.2679 139.257 82.1013 138.65C80.9346 138.043 79.9546 137.227 79.1613 136.2C78.4146 135.173 77.8313 133.983 77.4113 132.63C77.0379 131.277 76.8513 129.877 76.8513 128.43V114.71C76.8513 113.917 76.8046 113.053 76.7113 112.12C76.6179 111.187 76.4546 110.277 76.2213 109.39C75.9879 108.503 75.6379 107.687 75.1713 106.94C74.7046 106.193 74.0746 105.61 73.2812 105.19H87.0713ZM124.677 112.89C125.144 111.91 125.704 110.93 126.357 109.95C127.057 108.923 127.827 108.037 128.667 107.29C129.554 106.497 130.51 105.867 131.537 105.4C132.61 104.887 133.73 104.63 134.897 104.63C136.81 104.63 138.304 105.283 139.377 106.59C140.497 107.85 141.057 109.39 141.057 111.21C141.057 112.377 140.824 113.45 140.357 114.43C139.937 115.41 139.33 116.227 138.537 116.88C137.79 117.533 136.904 118.047 135.877 118.42C134.897 118.793 133.824 118.98 132.657 118.98C132.75 118.7 132.82 118.42 132.867 118.14C132.914 117.86 132.937 117.557 132.937 117.23C132.937 116.017 132.517 115.013 131.677 114.22C130.884 113.38 129.88 112.96 128.667 112.96C128.2 112.96 127.734 113.077 127.267 113.31C126.8 113.497 126.357 113.777 125.937 114.15C125.564 114.477 125.26 114.873 125.027 115.34C124.794 115.76 124.677 116.227 124.677 116.74V129.48C124.677 130.273 124.7 131.137 124.747 132.07C124.84 133.003 125.004 133.913 125.237 134.8C125.517 135.687 125.89 136.503 126.357 137.25C126.824 137.997 127.43 138.58 128.177 139H110.887C111.634 138.58 112.24 137.997 112.707 137.25C113.174 136.457 113.524 135.64 113.757 134.8C114.037 133.913 114.224 133.003 114.317 132.07C114.41 131.137 114.457 130.273 114.457 129.48V119.54C114.457 118.56 114.364 117.673 114.177 116.88C113.99 116.04 113.734 115.27 113.407 114.57C113.08 113.87 112.66 113.193 112.147 112.54C111.68 111.84 111.144 111.117 110.537 110.37C112.17 110.09 113.547 109.833 114.667 109.6C115.834 109.32 116.907 108.993 117.887 108.62C118.914 108.247 119.94 107.803 120.967 107.29C122.04 106.73 123.277 106.03 124.677 105.19V112.89Z" fill="white"/>
<path d="M227.777 139H210.487C211.233 138.58 211.84 137.997 212.307 137.25C212.773 136.457 213.123 135.64 213.357 134.8C213.637 133.913 213.823 133.003 213.917 132.07C214.01 131.137 214.057 130.273 214.057 129.48V119.54C214.057 118.56 213.963 117.673 213.777 116.88C213.59 116.04 213.333 115.27 213.007 114.57C212.68 113.87 212.26 113.193 211.747 112.54C211.28 111.84 210.743 111.117 210.137 110.37C211.77 110.09 213.147 109.833 214.267 109.6C215.433 109.32 216.507 108.993 217.487 108.62C218.513 108.247 219.54 107.803 220.567 107.29C221.64 106.73 222.877 106.03 224.277 105.19V110.65C224.603 110.323 225.28 109.833 226.307 109.18C227.333 108.527 228.407 107.873 229.527 107.22C230.693 106.52 231.743 105.913 232.677 105.4C233.657 104.887 234.24 104.63 234.427 104.63C236.013 104.63 237.39 104.933 238.557 105.54C239.723 106.147 240.68 106.963 241.427 107.99C242.22 109.017 242.803 110.207 243.177 111.56C243.597 112.913 243.807 114.313 243.807 115.76V129.48C243.807 130.273 243.853 131.137 243.947 132.07C244.04 133.003 244.203 133.913 244.437 134.8C244.67 135.687 245.02 136.503 245.487 137.25C246 137.997 246.63 138.58 247.377 139H230.087C230.833 138.58 231.44 137.997 231.907 137.25C232.373 136.457 232.723 135.64 232.957 134.8C233.19 133.913 233.353 133.003 233.447 132.07C233.54 131.137 233.587 130.273 233.587 129.48V116.04C233.587 115.34 233.517 114.617 233.377 113.87C233.237 113.123 233.003 112.447 232.677 111.84C232.35 111.233 231.883 110.743 231.277 110.37C230.717 109.997 230.017 109.81 229.177 109.81C227.73 109.81 226.61 110.323 225.817 111.35C225.023 112.33 224.51 113.473 224.277 114.78V129.48C224.277 130.273 224.3 131.137 224.347 132.07C224.44 133.003 224.603 133.913 224.837 134.8C225.07 135.687 225.42 136.503 225.887 137.25C226.353 137.997 226.983 138.58 227.777 139ZM258.593 121.85C258.919 123.297 259.409 124.673 260.063 125.98C260.716 127.24 261.533 128.36 262.513 129.34C263.493 130.273 264.636 131.02 265.943 131.58C267.296 132.14 268.813 132.42 270.493 132.42C271.006 132.42 271.613 132.397 272.313 132.35C273.059 132.257 273.806 132.14 274.553 132C275.299 131.86 275.999 131.673 276.653 131.44C277.353 131.16 277.889 130.833 278.263 130.46L278.823 130.88C277.236 133.773 275.346 135.967 273.153 137.46C271.006 138.953 268.206 139.7 264.753 139.7C262.326 139.7 260.063 139.257 257.963 138.37C255.909 137.483 254.136 136.27 252.643 134.73C251.196 133.143 250.053 131.3 249.213 129.2C248.373 127.1 247.953 124.837 247.953 122.41C247.953 120.077 248.303 117.837 249.003 115.69C249.749 113.543 250.799 111.653 252.153 110.02C253.553 108.387 255.233 107.08 257.193 106.1C259.153 105.12 261.369 104.63 263.843 104.63C266.083 104.63 268.113 104.98 269.933 105.68C271.799 106.333 273.363 107.313 274.623 108.62C275.929 109.88 276.933 111.42 277.633 113.24C278.333 115.06 278.683 117.09 278.683 119.33V121.01L258.593 121.85ZM269.303 113.73C269.303 112.937 269.139 112.097 268.813 111.21C268.533 110.323 268.113 109.53 267.553 108.83C266.993 108.083 266.339 107.477 265.593 107.01C264.846 106.543 264.029 106.31 263.143 106.31C262.116 106.31 261.276 106.73 260.623 107.57C259.969 108.41 259.456 109.413 259.083 110.58C258.709 111.7 258.429 112.867 258.243 114.08C258.103 115.293 258.033 116.25 258.033 116.95C258.033 117.977 258.103 119.027 258.243 120.1C259.176 120.007 260.109 119.89 261.043 119.75C261.976 119.61 262.909 119.47 263.843 119.33C265.429 119.097 266.736 118.537 267.763 117.65C268.789 116.763 269.303 115.457 269.303 113.73ZM293.381 139.7C292.075 139.7 290.628 139.537 289.041 139.21C287.501 138.883 286.055 138.37 284.701 137.67C283.348 136.97 282.205 136.06 281.271 134.94C280.385 133.773 279.941 132.373 279.941 130.74C279.941 129.2 280.361 127.87 281.201 126.75C282.088 125.63 283.348 125.07 284.981 125.07C286.568 125.07 287.851 125.677 288.831 126.89C289.858 128.057 290.511 129.34 290.791 130.74C289.951 130.74 289.251 131.02 288.691 131.58C288.178 132.14 287.921 132.84 287.921 133.68C287.921 134.38 288.085 135.01 288.411 135.57C288.738 136.13 289.158 136.597 289.671 136.97C290.231 137.297 290.838 137.553 291.491 137.74C292.145 137.927 292.775 138.02 293.381 138.02C294.128 138.02 294.875 137.927 295.621 137.74C296.368 137.553 297.045 137.273 297.651 136.9C298.258 136.48 298.748 135.967 299.121 135.36C299.495 134.707 299.681 133.937 299.681 133.05C299.681 131.837 299.215 130.833 298.281 130.04C297.395 129.2 296.275 128.43 294.921 127.73C293.568 126.983 292.098 126.26 290.511 125.56C288.925 124.813 287.455 123.973 286.101 123.04C284.748 122.06 283.605 120.893 282.671 119.54C281.785 118.187 281.341 116.53 281.341 114.57C281.341 112.797 281.785 111.303 282.671 110.09C283.605 108.83 284.748 107.803 286.101 107.01C287.455 106.17 288.948 105.563 290.581 105.19C292.261 104.817 293.825 104.63 295.271 104.63C296.578 104.63 297.978 104.793 299.471 105.12C301.011 105.4 302.411 105.89 303.671 106.59C304.978 107.29 306.051 108.2 306.891 109.32C307.731 110.393 308.151 111.747 308.151 113.38C308.151 114.827 307.731 115.97 306.891 116.81C306.098 117.65 304.978 118.07 303.531 118.07C302.038 118.07 300.801 117.627 299.821 116.74C298.841 115.853 298.141 114.733 297.721 113.38C298.515 113.38 299.121 113.147 299.541 112.68C299.961 112.167 300.171 111.537 300.171 110.79C300.171 109.39 299.635 108.293 298.561 107.5C297.488 106.707 296.298 106.31 294.991 106.31C293.451 106.31 292.168 106.8 291.141 107.78C290.115 108.713 289.601 109.95 289.601 111.49C289.601 112.657 290.068 113.66 291.001 114.5C291.981 115.34 293.171 116.133 294.571 116.88C296.018 117.58 297.558 118.28 299.191 118.98C300.871 119.68 302.411 120.52 303.811 121.5C305.258 122.48 306.448 123.647 307.381 125C308.361 126.307 308.851 127.917 308.851 129.83C308.851 131.743 308.315 133.353 307.241 134.66C306.215 135.92 304.931 136.923 303.391 137.67C301.851 138.417 300.171 138.93 298.351 139.21C296.578 139.537 294.921 139.7 293.381 139.7ZM327.163 116.11C328.33 116.11 329.403 115.853 330.383 115.34C331.363 114.827 331.853 113.893 331.853 112.54C331.853 111.747 331.666 110.977 331.293 110.23C330.966 109.483 330.5 108.83 329.893 108.27C329.333 107.663 328.68 107.197 327.933 106.87C327.186 106.497 326.416 106.31 325.623 106.31C324.643 106.31 323.85 106.707 323.243 107.5C322.636 108.247 322.146 109.157 321.773 110.23C321.446 111.303 321.213 112.4 321.073 113.52C320.933 114.64 320.863 115.55 320.863 116.25C320.863 118.21 321.12 120.17 321.633 122.13C322.146 124.043 322.916 125.77 323.943 127.31C325.016 128.85 326.37 130.087 328.003 131.02C329.636 131.953 331.573 132.42 333.813 132.42C334.326 132.42 334.933 132.397 335.633 132.35C336.38 132.257 337.126 132.14 337.873 132C338.62 131.86 339.32 131.673 339.973 131.44C340.673 131.16 341.21 130.833 341.583 130.46L342.143 130.88C338.876 136.76 333.906 139.7 327.233 139.7C324.806 139.7 322.543 139.257 320.443 138.37C318.39 137.483 316.616 136.27 315.123 134.73C313.676 133.143 312.533 131.3 311.693 129.2C310.853 127.1 310.433 124.837 310.433 122.41C310.433 120.077 310.783 117.837 311.483 115.69C312.23 113.543 313.28 111.653 314.633 110.02C316.033 108.387 317.713 107.08 319.673 106.1C321.633 105.12 323.85 104.63 326.323 104.63C328.05 104.63 329.776 104.887 331.503 105.4C333.23 105.913 334.793 106.683 336.193 107.71C337.593 108.69 338.713 109.927 339.553 111.42C340.44 112.913 340.883 114.617 340.883 116.53C340.883 118.35 340.37 119.82 339.343 120.94C338.316 122.06 336.846 122.62 334.933 122.62C332.786 122.62 331.106 122.037 329.893 120.87C328.68 119.657 327.77 118.07 327.163 116.11ZM355.245 105.19V128.15C355.245 128.85 355.315 129.573 355.455 130.32C355.595 131.067 355.828 131.743 356.155 132.35C356.482 132.957 356.925 133.447 357.485 133.82C358.092 134.193 358.815 134.38 359.655 134.38C361.008 134.38 362.058 133.937 362.805 133.05C363.598 132.163 364.135 131.137 364.415 129.97C364.415 129.037 364.438 128.127 364.485 127.24C364.532 126.353 364.555 125.49 364.555 124.65V114.71C364.555 113.917 364.508 113.053 364.415 112.12C364.368 111.187 364.228 110.277 363.995 109.39C363.762 108.503 363.412 107.687 362.945 106.94C362.478 106.193 361.848 105.61 361.055 105.19H374.775V128.01C374.775 130.297 375.055 132.257 375.615 133.89C376.222 135.523 377.248 137.227 378.695 139H366.165C365.932 138.113 365.675 137.203 365.395 136.27C365.115 135.29 364.882 134.333 364.695 133.4C364.555 133.633 363.972 134.1 362.945 134.8C361.918 135.453 360.798 136.13 359.585 136.83C358.418 137.53 357.322 138.16 356.295 138.72C355.268 139.28 354.638 139.56 354.405 139.56C352.818 139.56 351.442 139.257 350.275 138.65C349.108 138.043 348.128 137.227 347.335 136.2C346.588 135.173 346.005 133.983 345.585 132.63C345.212 131.277 345.025 129.877 345.025 128.43V114.71C345.025 113.917 344.978 113.053 344.885 112.12C344.792 111.187 344.628 110.277 344.395 109.39C344.162 108.503 343.812 107.687 343.345 106.94C342.878 106.193 342.248 105.61 341.455 105.19H355.245ZM412.381 89.44V129.48C412.381 130.273 412.404 131.137 412.451 132.07C412.544 133.003 412.708 133.913 412.941 134.8C413.174 135.687 413.524 136.503 413.991 137.25C414.458 137.997 415.088 138.58 415.881 139H402.161V136.13C401.368 137.25 400.364 138.113 399.151 138.72C397.984 139.327 396.374 139.63 394.321 139.63C391.894 139.63 389.748 139.163 387.881 138.23C386.014 137.297 384.428 136.06 383.121 134.52C381.861 132.933 380.904 131.113 380.251 129.06C379.598 127.007 379.271 124.86 379.271 122.62C379.271 120.24 379.621 117.953 380.321 115.76C381.021 113.567 382.048 111.63 383.401 109.95C384.801 108.27 386.481 106.94 388.441 105.96C390.448 104.933 392.711 104.42 395.231 104.42C395.558 104.42 396.048 104.537 396.701 104.77C397.354 104.957 398.031 105.19 398.731 105.47C399.431 105.703 400.108 105.96 400.761 106.24C401.414 106.52 401.881 106.73 402.161 106.87V103.72C402.161 102.74 402.068 101.853 401.881 101.06C401.694 100.22 401.438 99.45 401.111 98.75C400.784 98.05 400.364 97.3733 399.851 96.72C399.384 96.02 398.848 95.2967 398.241 94.55C399.874 94.27 401.251 94.0133 402.371 93.78C403.538 93.5 404.611 93.1733 405.591 92.8C406.618 92.4267 407.644 91.9833 408.671 91.47C409.744 90.91 410.981 90.2333 412.381 89.44ZM402.161 115.27C402.161 114.337 402.091 113.357 401.951 112.33C401.811 111.257 401.531 110.277 401.111 109.39C400.691 108.457 400.108 107.687 399.361 107.08C398.661 106.473 397.728 106.17 396.561 106.17C395.161 106.17 393.971 106.567 392.991 107.36C392.011 108.107 391.218 109.063 390.611 110.23C390.004 111.35 389.561 112.587 389.281 113.94C389.048 115.247 388.931 116.483 388.931 117.65C388.931 119.47 389.164 121.267 389.631 123.04C390.144 124.767 390.891 126.33 391.871 127.73C392.851 129.083 394.088 130.203 395.581 131.09C397.121 131.93 398.894 132.35 400.901 132.35H402.161V115.27Z" fill="url(#paint0_linear_4210_32001)"/>
<ellipse cx="181.312" cy="120.947" rx="21.7436" ry="26.711" transform="rotate(-36.1332 181.312 120.947)" fill="url(#paint1_linear_4210_32001)"/>
<ellipse cx="185.396" cy="119.144" rx="20.3791" ry="26.1624" transform="rotate(-36.1332 185.396 119.144)" fill="#30F6F6"/>
<ellipse cx="185.389" cy="119.125" rx="5.97437" ry="7.6698" transform="rotate(-36.1332 185.389 119.125)" fill="#020D0D"/>
</g>
<defs>
<linearGradient id="paint0_linear_4210_32001" x1="225" y1="88" x2="402.709" y2="36.9991" gradientUnits="userSpaceOnUse">
<stop stop-color="#30C7E9"/>
<stop offset="1" stop-color="#76DB7C"/>
</linearGradient>
<linearGradient id="paint1_linear_4210_32001" x1="168.191" y1="95.0025" x2="184.831" y2="161.5" gradientUnits="userSpaceOnUse">
<stop stop-color="#30F6F6"/>
<stop offset="1" stop-color="#30F6F6" stop-opacity="0"/>
</linearGradient>
<clipPath id="clip0_4210_32001">
<rect width="546" height="176" fill="white"/>
</clipPath>
</defs>
</svg>
