<svg width="574" height="540" viewBox="0 0 574 540" fill="none" xmlns="http://www.w3.org/2000/svg">
<g clip-path="url(#clip0_3635_31422)">
<g clip-path="url(#clip1_3635_31422)">
<rect width="574" height="540" fill="url(#paint0_linear_3635_31422)"/>
<path d="M-199.551 479.699C-171.917 543.97 -123.502 597.101 -62.0678 630.573C-0.633849 664.045 70.2601 675.919 139.248 664.292C208.235 652.664 271.321 618.209 318.389 566.449C365.458 514.69 393.783 448.624 398.824 378.845C403.865 309.067 385.329 239.616 346.189 181.629C307.048 123.642 249.57 80.4764 182.97 59.054C116.37 37.6316 44.5054 39.1928 -21.1015 63.4874C-86.7085 87.782 -142.258 133.403 -178.843 193.035L-53.6918 269.817C-34.3076 238.221 -4.87548 214.049 29.8857 201.177C64.6468 188.305 102.723 187.478 138.011 198.828C173.298 210.179 203.752 233.049 224.49 263.773C245.229 294.497 255.049 331.295 252.379 368.266C249.708 405.238 234.7 440.242 209.761 467.666C184.822 495.09 151.397 513.346 114.845 519.507C78.2926 525.668 40.7302 519.376 8.18015 501.642C-24.3699 483.907 -50.0223 455.756 -64.664 421.702L-199.551 479.699Z" fill="url(#paint1_linear_3635_31422)"/>
</g>
<path style="mix-blend-mode:multiply" opacity="0.6" d="M350.598 515.402C456.857 515.402 542.997 510.016 542.997 503.371C542.997 496.726 456.857 491.34 350.598 491.34C244.339 491.34 158.199 496.726 158.199 503.371C158.199 510.016 244.339 515.402 350.598 515.402Z" fill="url(#paint2_radial_3635_31422)"/>
<path style="mix-blend-mode:multiply" opacity="0.5" d="M250.754 512.693C279.296 512.693 302.434 510.065 302.434 506.823C302.434 503.581 279.296 500.953 250.754 500.953C222.212 500.953 199.074 503.581 199.074 506.823C199.074 510.065 222.212 512.693 250.754 512.693Z" fill="url(#paint3_radial_3635_31422)"/>
<path style="mix-blend-mode:multiply" opacity="0.4" d="M333.719 525.107C362.261 525.107 385.398 522.479 385.398 519.237C385.398 515.995 362.261 513.367 333.719 513.367C305.177 513.367 282.039 515.995 282.039 519.237C282.039 522.479 305.177 525.107 333.719 525.107Z" fill="url(#paint4_radial_3635_31422)"/>
<path d="M395.667 390.174C395.329 382.409 394.55 373.837 393.338 364.446C392.18 355.462 390.826 347.195 389.269 339.666C387.719 332.137 385.796 325.651 383.507 320.207C381.226 314.764 378.511 310.546 375.376 307.546C372.241 304.554 368.551 303.051 364.306 303.051C360.806 303.051 357.915 304.1 355.626 306.206L343.398 317.445C345.687 315.339 348.585 314.29 352.078 314.29C356.33 314.29 360.02 315.786 363.148 318.786C366.283 321.778 368.991 325.996 371.28 331.446C373.561 336.883 375.484 343.376 377.041 350.905C378.592 358.434 379.946 366.701 381.11 375.685C382.322 385.069 383.101 393.641 383.44 401.413C383.785 409.186 383.521 415.862 382.661 421.461C381.794 427.06 380.217 431.414 377.915 434.535C377.441 435.178 376.926 435.754 376.371 436.262L388.599 425.022C389.154 424.515 389.668 423.939 390.142 423.296C392.444 420.181 394.029 415.821 394.889 410.222C395.748 404.623 396.012 397.947 395.667 390.174Z" fill="url(#paint5_linear_3635_31422)"/>
<path d="M412.912 444.293C404.618 448.315 394.747 450.326 383.305 450.326C371.862 450.326 360.86 448.261 351.476 444.117C342.086 439.974 333.981 434.124 327.17 426.548C320.352 418.978 314.821 409.933 310.562 399.405C306.303 388.87 303.351 377.224 301.706 364.448C300.027 351.435 300.013 339.749 301.652 329.377C303.284 319.004 306.601 310.216 311.591 302.999C313.636 300.033 315.958 297.359 318.558 294.969L306.33 306.208C303.73 308.598 301.408 311.272 299.363 314.238C294.373 321.448 291.063 330.243 289.424 340.616C287.786 350.988 287.799 362.674 289.478 375.687C291.124 388.463 294.082 400.109 298.334 410.644C302.593 421.172 308.124 430.217 314.942 437.787C321.754 445.356 329.858 451.213 339.249 455.357C348.639 459.5 359.242 461.565 371.077 461.565C382.912 461.565 392.391 459.554 400.685 455.533C405.309 453.292 409.419 450.516 413.021 447.212L425.248 435.972C421.653 439.276 417.543 442.052 412.912 444.293Z" fill="url(#paint6_linear_3635_31422)"/>
<path d="M433.979 329.674C438.252 340.005 441.217 351.597 442.869 364.447C444.569 377.616 444.575 389.485 442.883 400.054C441.197 410.622 437.845 419.627 432.862 427.082C427.866 434.529 421.224 440.271 412.923 444.292C404.629 448.314 394.758 450.325 383.315 450.325C371.873 450.325 360.871 448.26 351.487 444.116C342.096 439.973 333.992 434.123 327.181 426.547C320.363 418.977 314.831 409.932 310.573 399.404C306.314 388.869 303.362 377.223 301.717 364.447C300.038 351.434 300.024 339.748 301.662 329.376C303.294 319.003 306.612 310.215 311.602 302.998C316.585 295.78 323.22 290.262 331.5 286.43C339.787 282.611 349.767 280.695 361.446 280.695C373.126 280.695 383.871 282.645 393.227 286.552C402.584 290.452 410.648 296.037 417.425 303.289C424.196 310.54 429.721 319.335 433.993 329.667L433.979 329.674ZM395.678 390.175C395.34 382.409 394.561 373.838 393.349 364.447C392.192 355.463 390.837 347.196 389.28 339.667C387.73 332.138 385.807 325.652 383.519 320.208C381.237 314.765 378.522 310.547 375.387 307.547C372.252 304.548 368.562 303.052 364.317 303.052C356.653 303.052 351.893 308.096 350.025 318.191C348.156 328.286 348.555 343.695 351.23 364.44C352.564 374.772 354.107 383.879 355.854 391.76C357.608 399.647 359.659 406.276 362.015 411.638C364.365 416.993 367.053 421.056 370.086 423.818C373.105 426.581 376.552 427.962 380.424 427.962C384.602 427.962 387.831 426.405 390.147 423.29C392.449 420.176 394.033 415.815 394.893 410.216C395.753 404.617 396.017 397.941 395.672 390.168" fill="url(#paint7_linear_3635_31422)"/>
<path d="M395.297 364.209C394.133 355.191 392.758 346.809 391.208 339.287C389.637 331.677 387.66 325.008 385.338 319.476C382.968 313.823 380.084 309.348 376.766 306.172C373.279 302.834 369.109 301.148 364.369 301.148C355.689 301.148 350.246 306.768 348.194 317.858C346.299 328.109 346.698 343.871 349.386 364.704C350.72 375.042 352.284 384.291 354.044 392.192C355.818 400.175 357.93 406.979 360.327 412.429C362.778 418.015 365.649 422.328 368.858 425.253C372.23 428.333 376.143 429.897 380.49 429.897C385.284 429.897 389.075 428.063 391.749 424.447C394.227 421.096 395.94 416.41 396.854 410.527C397.735 404.806 397.999 397.934 397.647 390.1C397.308 382.341 396.516 373.634 395.304 364.216L395.297 364.209ZM394.945 410.229C394.078 415.828 392.501 420.182 390.199 423.303C387.89 426.417 384.654 427.975 380.476 427.975C376.604 427.975 373.164 426.593 370.138 423.831C367.111 421.069 364.423 417.006 362.067 411.651C359.711 406.288 357.66 399.66 355.906 391.772C354.152 383.891 352.616 374.785 351.282 364.453C348.607 343.715 348.208 328.298 350.077 318.203C351.945 308.109 356.705 303.065 364.369 303.065C368.621 303.065 372.311 304.561 375.439 307.56C378.574 310.553 381.282 314.771 383.571 320.221C385.852 325.658 387.775 332.151 389.332 339.68C390.883 347.209 392.237 355.475 393.401 364.46C394.613 373.844 395.392 382.415 395.73 390.188C396.076 397.961 395.812 404.636 394.952 410.236L394.945 410.229Z" fill="url(#paint8_linear_3635_31422)"/>
<path d="M442.918 364.46C441.259 351.603 438.294 340.011 434.028 329.686C429.756 319.354 424.231 310.566 417.461 303.308C410.683 296.057 402.62 290.471 393.263 286.571C383.906 282.665 373.317 280.715 361.482 280.715C349.647 280.715 339.823 282.624 331.535 286.45C323.255 290.275 316.62 295.793 311.637 303.017C306.647 310.228 303.336 319.023 301.698 329.395C300.059 339.768 300.073 351.454 301.752 364.467C303.397 377.243 306.356 388.888 310.608 399.423C314.866 409.951 320.398 418.997 327.216 426.566C334.027 434.136 342.131 439.992 351.522 444.136C360.913 448.279 371.516 450.344 383.351 450.344C395.185 450.344 404.664 448.334 412.958 444.312C421.259 440.29 427.894 434.549 432.898 427.101C437.887 419.647 441.232 410.642 442.918 400.073C444.611 389.504 444.604 377.635 442.904 364.467L442.918 364.46ZM441.036 399.762C439.404 409.985 436.134 418.821 431.313 426.025C426.526 433.161 420.074 438.726 412.132 442.572C404.136 446.445 394.461 448.415 383.364 448.415C372.267 448.415 361.4 446.377 352.308 442.369C343.208 438.354 335.253 432.606 328.651 425.273C322.016 417.907 316.545 408.963 312.395 398.692C308.218 388.353 305.279 376.755 303.661 364.209C302.016 351.447 301.996 339.835 303.6 329.686C305.184 319.652 308.421 311.04 313.221 304.1C317.981 297.201 324.42 291.846 332.348 288.19C340.344 284.506 350.148 282.631 361.488 282.631C372.829 282.631 383.459 284.554 392.525 288.338C401.577 292.11 409.498 297.587 416.059 304.615C422.647 311.67 428.097 320.35 432.254 330.418C436.439 340.546 439.39 352.077 441.015 364.704C442.681 377.635 442.688 389.436 441.036 399.762Z" fill="url(#paint9_linear_3635_31422)"/>
<path d="M422.176 396.706L412.379 387.965L418.872 397.477L428.669 406.225L422.176 396.706Z" fill="#FFDF3E"/>
<path style="mix-blend-mode:multiply" d="M449.987 416.436C462.822 403.602 466.097 386.068 457.303 377.274C448.509 368.48 430.975 371.755 418.141 384.59C405.307 397.424 402.031 414.957 410.826 423.751C419.62 432.546 437.153 429.27 449.987 416.436Z" fill="url(#paint10_radial_3635_31422)"/>
<path d="M427.469 344.953C427.536 344.967 427.604 344.98 427.679 344.994C427.611 344.98 427.536 344.967 427.469 344.953Z" fill="#A6A6A6"/>
<path d="M425.281 343.828C425.728 344.377 426.453 344.742 427.469 344.946C426.446 344.736 425.735 344.37 425.281 343.828Z" fill="#A6A6A6"/>
<path d="M438.374 320.959C437.866 320.214 437.101 319.774 436.017 319.584C434.853 319.381 433.898 319.462 433.093 319.855C432.185 320.295 431.373 320.972 430.614 321.927C429.768 322.983 428.983 324.31 428.292 325.854C427.561 327.499 426.857 329.327 426.207 331.297C425.564 333.261 425.049 335.123 424.683 336.836C424.338 338.447 424.21 339.882 424.311 341.108C424.392 342.11 424.65 342.929 425.103 343.593L431.596 353.112C431.569 353.071 431.542 353.017 431.515 352.977L431.772 353.356C432.253 353.938 433.032 354.317 434.162 354.513L430.777 349.551C430.797 348.582 430.926 347.519 431.176 346.362C431.542 344.656 432.057 342.794 432.7 340.823C433.35 338.853 434.047 337.025 434.785 335.38C435.476 333.829 436.261 332.509 437.107 331.453C437.866 330.498 438.678 329.821 439.585 329.381C440.391 328.988 441.346 328.907 442.51 329.11C443.587 329.3 444.359 329.74 444.867 330.485L438.374 320.965V320.959Z" fill="url(#paint11_linear_3635_31422)"/>
<path d="M458.934 327.783C458.568 326.937 458.128 326.138 457.614 325.387L451.121 315.867C451.635 316.619 452.075 317.418 452.441 318.264C453.463 320.613 453.93 323.342 453.836 326.362C453.748 329.307 453.145 332.502 452.041 335.854C450.938 339.212 449.475 342.252 447.688 344.886C445.867 347.567 443.741 349.815 441.378 351.568C438.974 353.342 436.313 354.608 433.456 355.312C430.613 356.017 427.6 356.098 424.506 355.556C420.992 354.933 418.094 353.776 415.907 352.096C414.566 351.067 413.436 349.889 412.535 348.569L419.028 358.088C419.929 359.409 421.053 360.587 422.4 361.616C424.587 363.295 427.485 364.459 430.998 365.076C434.093 365.624 437.106 365.543 439.949 364.832C442.806 364.128 445.467 362.862 447.871 361.088C450.234 359.341 452.36 357.093 454.181 354.405C455.968 351.771 457.438 348.731 458.534 345.373C459.638 342.022 460.241 338.826 460.329 335.881C460.423 332.868 459.956 330.14 458.934 327.783Z" fill="url(#paint12_linear_3635_31422)"/>
<path d="M499.533 324.383L506.026 333.902L428.666 406.225L422.18 396.706L499.533 324.383Z" fill="url(#paint13_linear_3635_31422)"/>
<path d="M486.814 368.755C486.773 368.694 486.726 368.626 486.678 368.565C486.204 367.949 485.412 367.556 484.241 367.346C483.164 367.157 482.264 367.258 481.485 367.651C480.592 368.105 479.766 368.816 479.028 369.757C478.195 370.82 477.416 372.154 476.726 373.711C475.988 375.363 475.297 377.171 474.661 379.093C473.09 383.873 472.494 387.408 472.887 389.608C473.015 390.326 473.232 390.908 473.543 391.368L480.036 400.888C479.718 400.421 479.501 399.838 479.38 399.127C478.987 396.927 479.589 393.386 481.153 388.613C481.783 386.69 482.481 384.875 483.218 383.23C483.916 381.673 484.688 380.339 485.527 379.276C486.265 378.335 487.091 377.624 487.985 377.171C488.764 376.778 489.664 376.676 490.741 376.866C491.912 377.069 492.704 377.468 493.178 378.085C493.225 378.146 493.273 378.206 493.313 378.274L486.82 368.755H486.814Z" fill="url(#paint14_linear_3635_31422)"/>
<path d="M452.442 318.264C451.4 315.874 449.781 313.856 447.608 312.258C445.455 310.674 442.72 309.59 439.483 309.015C436.186 308.433 433.051 308.467 430.16 309.11C427.249 309.767 424.548 310.999 422.144 312.759C419.781 314.499 417.669 316.747 415.888 319.448C414.141 322.082 412.686 325.156 411.562 328.589C410.512 331.784 409.916 334.872 409.801 337.77C409.679 340.742 410.113 343.464 411.094 345.867C412.09 348.311 413.708 350.403 415.908 352.089C418.095 353.768 420.993 354.933 424.507 355.549C427.601 356.097 430.614 356.016 433.458 355.305C436.315 354.601 438.976 353.335 441.379 351.561C443.742 349.814 445.868 347.567 447.689 344.879C449.477 342.245 450.946 339.205 452.043 335.847C453.146 332.495 453.749 329.3 453.837 326.354C453.932 323.341 453.465 320.613 452.442 318.257V318.264ZM437.249 333.247C436.619 335.163 435.922 336.977 435.191 338.623C434.494 340.187 433.715 341.514 432.882 342.583C432.144 343.525 431.318 344.235 430.424 344.689C429.646 345.089 428.745 345.183 427.669 344.994C427.594 344.98 427.527 344.967 427.459 344.953C427.439 344.953 427.412 344.946 427.391 344.94C427.344 344.933 427.303 344.919 427.256 344.912C427.229 344.912 427.202 344.899 427.181 344.892C427.141 344.885 427.1 344.872 427.066 344.865C427.039 344.858 427.012 344.852 426.985 344.845C426.951 344.838 426.917 344.824 426.883 344.818C426.856 344.811 426.829 344.804 426.802 344.791C426.768 344.777 426.734 344.77 426.701 344.757C426.674 344.75 426.653 344.736 426.626 344.73C426.592 344.716 426.565 344.709 426.531 344.696C426.504 344.689 426.484 344.676 426.457 344.669C426.43 344.655 426.396 344.642 426.369 344.635C426.342 344.621 426.321 344.615 426.301 344.601C426.274 344.588 426.247 344.574 426.22 344.56C426.2 344.547 426.173 344.54 426.152 344.527C426.125 344.513 426.098 344.499 426.071 344.486C426.051 344.472 426.03 344.459 426.003 344.452C425.976 344.439 425.956 344.425 425.929 344.411C425.908 344.398 425.888 344.384 425.868 344.371C425.841 344.357 425.82 344.337 425.8 344.323C425.78 344.31 425.76 344.296 425.746 344.283C425.726 344.269 425.699 344.249 425.678 344.235C425.658 344.222 425.644 344.208 425.624 344.195C425.604 344.181 425.583 344.161 425.563 344.141C425.543 344.127 425.529 344.107 425.509 344.093C425.489 344.073 425.468 344.059 425.455 344.039C425.441 344.026 425.421 344.005 425.407 343.992C425.387 343.971 425.374 343.951 425.353 343.938C425.34 343.924 425.326 343.904 425.286 343.856C425.272 343.836 425.252 343.816 425.238 343.802C424.703 343.105 424.399 342.231 424.311 341.135C424.216 339.909 424.338 338.474 424.683 336.862C425.049 335.156 425.563 333.294 426.206 331.324C426.856 329.354 427.554 327.526 428.292 325.88C428.982 324.33 429.768 323.01 430.614 321.954C431.372 320.999 432.185 320.322 433.092 319.882C433.898 319.489 434.852 319.408 436.017 319.611C437.771 319.922 438.698 320.884 439.03 322.746C439.416 324.953 438.82 328.494 437.249 333.267V333.247Z" fill="url(#paint15_linear_3635_31422)"/>
<path d="M489.77 315.566L412.383 387.971L422.18 396.712L499.533 324.388L489.77 315.566Z" fill="url(#paint16_linear_3635_31422)"/>
<path d="M500.816 366.47C499.821 364.026 498.203 361.934 496.002 360.248C493.815 358.569 490.917 357.404 487.404 356.788C484.309 356.24 481.296 356.321 478.453 357.032C475.596 357.743 472.935 359.002 470.531 360.776C468.168 362.523 466.042 364.77 464.221 367.458C462.434 370.092 460.964 373.132 459.861 376.497C458.764 379.842 458.161 383.037 458.067 385.989C457.972 389.002 458.439 391.731 459.461 394.087C460.504 396.47 462.122 398.488 464.296 400.086C466.449 401.67 469.177 402.76 472.42 403.329C475.718 403.911 478.859 403.877 481.743 403.227C484.655 402.57 487.356 401.345 489.76 399.578C492.129 397.838 494.235 395.583 496.022 392.889C497.769 390.248 499.218 387.174 500.342 383.742C501.392 380.546 501.987 377.458 502.102 374.561C502.224 371.595 501.791 368.867 500.809 366.463L500.816 366.47ZM487.227 375.509C486.862 377.215 486.354 379.077 485.704 381.047C485.061 383.01 484.357 384.838 483.626 386.484C482.935 388.034 482.15 389.354 481.303 390.411C480.545 391.365 479.732 392.042 478.825 392.482C478.02 392.875 477.065 392.956 475.9 392.753C474.147 392.442 473.219 391.48 472.887 389.618C472.495 387.418 473.097 383.877 474.661 379.104C475.291 377.181 475.988 375.366 476.726 373.721C477.424 372.164 478.196 370.83 479.028 369.767C479.766 368.826 480.592 368.115 481.486 367.661C482.265 367.269 483.165 367.167 484.242 367.357C485.413 367.56 486.205 367.959 486.679 368.575C487.214 369.273 487.519 370.146 487.6 371.243C487.695 372.469 487.573 373.904 487.227 375.522V375.509Z" fill="url(#paint17_linear_3635_31422)"/>
<path d="M507.312 375.991C506.927 375.037 506.446 374.136 505.87 373.297L499.377 363.777C499.953 364.624 500.434 365.517 500.819 366.472C501.794 368.876 502.228 371.604 502.113 374.57C501.998 377.467 501.402 380.555 500.352 383.75C499.228 387.176 497.773 390.257 496.033 392.898C494.245 395.592 492.14 397.84 489.77 399.587C487.366 401.354 484.665 402.579 481.754 403.236C478.869 403.886 475.735 403.92 472.431 403.338C469.194 402.769 466.459 401.672 464.306 400.095C462.898 399.059 461.726 397.847 460.785 396.479L467.278 405.999C468.212 407.373 469.391 408.585 470.799 409.614C472.952 411.198 475.68 412.288 478.923 412.857C482.221 413.439 485.362 413.406 488.247 412.756C491.158 412.099 493.859 410.873 496.263 409.106C498.633 407.366 500.738 405.112 502.526 402.417C504.272 399.776 505.721 396.703 506.845 393.27C507.895 390.074 508.49 386.987 508.606 384.089C508.727 381.124 508.294 378.395 507.312 375.991Z" fill="url(#paint18_linear_3635_31422)"/>
<path d="M436.346 317.694C435.832 317.606 435.331 317.559 434.864 317.559C433.909 317.559 433.029 317.748 432.25 318.127C431.079 318.696 430.05 319.542 429.109 320.727C428.161 321.912 427.294 323.375 426.536 325.074C425.771 326.787 425.046 328.683 424.383 330.7C423.719 332.718 423.191 334.647 422.805 336.435C422.419 338.222 422.284 339.847 422.399 341.262C422.514 342.745 422.947 343.957 423.719 344.952L423.861 345.128L424.038 345.325C424.038 345.325 424.173 345.46 424.214 345.494L424.396 345.656L424.715 345.9L424.924 346.036L425.148 346.164L425.365 346.279L425.581 346.381L425.825 346.482L426.089 346.577L426.312 346.652L426.529 346.713L426.807 346.78L427.064 346.834L427.321 346.882C427.788 346.963 428.242 347.004 428.662 347.004C429.616 347.004 430.497 346.801 431.289 346.394C432.419 345.826 433.462 344.939 434.383 343.767C435.317 342.569 436.177 341.1 436.935 339.407C437.7 337.694 438.418 335.826 439.068 333.849C440.761 328.696 441.363 324.952 440.917 322.393C440.443 319.725 438.906 318.148 436.346 317.701V317.694ZM437.247 333.246C436.617 335.162 435.92 336.977 435.189 338.622C434.491 340.186 433.713 341.513 432.88 342.583C432.142 343.524 431.316 344.235 430.422 344.688C429.644 345.088 428.743 345.182 427.667 344.993C427.592 344.979 427.524 344.966 427.457 344.952C427.436 344.952 427.409 344.946 427.389 344.939C427.342 344.932 427.301 344.918 427.254 344.912C427.226 344.912 427.199 344.898 427.179 344.891C427.138 344.885 427.098 344.871 427.064 344.864C427.037 344.857 427.01 344.851 426.983 344.844C426.949 344.837 426.915 344.824 426.881 344.817C426.854 344.81 426.827 344.803 426.8 344.79C426.766 344.776 426.732 344.769 426.698 344.756C426.671 344.749 426.651 344.736 426.624 344.729C426.59 344.715 426.563 344.709 426.529 344.695C426.502 344.688 426.482 344.675 426.455 344.668C426.428 344.654 426.394 344.641 426.367 344.634C426.34 344.621 426.319 344.614 426.299 344.6C426.272 344.587 426.245 344.573 426.218 344.56C426.197 344.546 426.17 344.539 426.15 344.526C426.123 344.512 426.096 344.499 426.069 344.485C426.048 344.472 426.028 344.458 426.001 344.451C425.974 344.438 425.954 344.424 425.926 344.411C425.906 344.397 425.886 344.384 425.866 344.37C425.838 344.356 425.818 344.336 425.798 344.323C425.778 344.309 425.757 344.296 425.744 344.282C425.723 344.268 425.696 344.248 425.676 344.235C425.656 344.221 425.642 344.208 425.622 344.194C425.602 344.18 425.581 344.16 425.561 344.14C425.541 344.126 425.527 344.106 425.507 344.092C425.486 344.072 425.466 344.059 425.453 344.038C425.439 344.025 425.419 344.004 425.405 343.991C425.385 343.971 425.371 343.95 425.351 343.937C425.337 343.923 425.324 343.903 425.283 343.855C425.27 343.835 425.249 343.815 425.236 343.801C424.701 343.104 424.396 342.231 424.308 341.134C424.214 339.908 424.335 338.473 424.681 336.861C425.046 335.155 425.561 333.293 426.204 331.323C426.854 329.353 427.551 327.525 428.289 325.88C428.98 324.329 429.765 323.009 430.612 321.953C431.37 320.998 432.182 320.321 433.09 319.881C433.895 319.488 434.85 319.407 436.015 319.61C437.768 319.922 438.696 320.883 439.028 322.745C439.413 324.952 438.818 328.493 437.247 333.266V333.246Z" fill="url(#paint19_linear_3635_31422)"/>
<path d="M452.442 318.264C451.4 315.874 449.781 313.856 447.608 312.258C445.455 310.674 442.72 309.59 439.483 309.015C436.186 308.433 433.051 308.467 430.16 309.11C427.249 309.767 424.548 310.999 422.144 312.759C419.781 314.499 417.669 316.747 415.888 319.448C414.141 322.082 412.686 325.156 411.562 328.589C410.512 331.784 409.916 334.872 409.801 337.77C409.679 340.742 410.113 343.464 411.094 345.867C412.09 348.311 413.708 350.403 415.908 352.089C418.095 353.768 420.993 354.933 424.507 355.549C427.601 356.097 430.614 356.016 433.458 355.305C436.315 354.601 438.976 353.335 441.379 351.561C443.742 349.814 445.868 347.567 447.689 344.879C449.477 342.245 450.946 339.205 452.043 335.847C453.146 332.495 453.749 329.3 453.837 326.354C453.932 323.341 453.465 320.613 452.442 318.257V318.264ZM451.921 326.3C451.84 329.056 451.271 332.069 450.222 335.258C449.172 338.453 447.784 341.331 446.098 343.816C444.392 346.321 442.422 348.413 440.235 350.031C438.028 351.663 435.59 352.814 432.997 353.457C431.548 353.816 430.032 353.999 428.495 353.999C427.303 353.999 426.071 353.89 424.839 353.674C421.623 353.105 419.009 352.062 417.08 350.579C415.15 349.103 413.735 347.282 412.875 345.156C412.002 343.003 411.616 340.552 411.724 337.864C411.832 335.156 412.394 332.245 413.39 329.205C414.466 325.921 415.847 323.003 417.493 320.532C419.145 318.027 421.095 315.934 423.288 314.33C425.475 312.725 427.933 311.601 430.594 311.006C431.961 310.701 433.417 310.545 434.913 310.545C436.281 310.545 437.71 310.674 439.158 310.931C442.104 311.452 444.568 312.427 446.477 313.829C448.366 315.217 449.781 316.977 450.682 319.056C451.589 321.148 452.009 323.592 451.921 326.327V326.3Z" fill="url(#paint20_linear_3635_31422)"/>
<path d="M489.77 315.566L412.383 387.971L422.18 396.718L499.533 324.388L489.77 315.566ZM422.146 394.112L415.226 387.93L489.791 318.166L496.697 324.402L422.146 394.105V394.112Z" fill="url(#paint21_linear_3635_31422)"/>
<path d="M500.816 366.47C499.821 364.026 498.203 361.934 496.002 360.248C493.815 358.569 490.917 357.404 487.404 356.788C484.309 356.24 481.296 356.321 478.453 357.032C475.596 357.743 472.935 359.002 470.531 360.776C468.168 362.523 466.042 364.77 464.221 367.458C462.434 370.092 460.964 373.132 459.861 376.497C458.764 379.842 458.161 383.037 458.067 385.989C457.972 389.002 458.439 391.731 459.461 394.087C460.504 396.47 462.122 398.488 464.296 400.086C466.449 401.67 469.177 402.76 472.42 403.329C475.718 403.911 478.859 403.877 481.743 403.227C484.655 402.57 487.356 401.345 489.76 399.578C492.129 397.838 494.235 395.583 496.022 392.889C497.769 390.248 499.218 387.174 500.342 383.742C501.392 380.546 501.987 377.458 502.102 374.561C502.224 371.595 501.791 368.867 500.809 366.463L500.816 366.47ZM500.186 374.486C500.078 377.194 499.516 380.106 498.521 383.146C497.444 386.416 496.07 389.341 494.418 391.832C492.759 394.331 490.809 396.416 488.615 398.034C486.429 399.639 483.971 400.756 481.317 401.352C479.936 401.663 478.473 401.819 476.97 401.819C475.609 401.819 474.187 401.69 472.745 401.44C469.807 400.918 467.342 399.943 465.426 398.535C463.537 397.147 462.122 395.394 461.215 393.315C460.308 391.223 459.888 388.772 459.976 386.05C460.064 383.274 460.633 380.261 461.675 377.093C462.725 373.897 464.113 371.013 465.799 368.535C467.505 366.03 469.475 363.938 471.662 362.319C473.856 360.695 476.293 359.544 478.906 358.894C480.355 358.535 481.865 358.352 483.409 358.352C484.601 358.352 485.833 358.46 487.065 358.677C490.281 359.246 492.894 360.288 494.824 361.771C496.754 363.247 498.169 365.068 499.029 367.194C499.902 369.341 500.288 371.798 500.18 374.486H500.186Z" fill="url(#paint22_linear_3635_31422)"/>
<path d="M488.201 367.387C487.423 366.379 486.238 365.749 484.579 365.458C484.119 365.377 483.672 365.336 483.245 365.336C482.297 365.336 481.41 365.539 480.618 365.945C479.474 366.528 478.431 367.414 477.517 368.579C476.576 369.777 475.723 371.247 474.972 372.939C474.207 374.659 473.489 376.528 472.839 378.505C471.146 383.657 470.544 387.408 470.997 389.954C471.471 392.615 473.008 394.192 475.567 394.646C476.082 394.734 476.583 394.781 477.05 394.781C478.005 394.781 478.885 394.592 479.664 394.212C480.835 393.644 481.864 392.797 482.805 391.612C483.753 390.428 484.62 388.965 485.378 387.266C486.143 385.553 486.868 383.657 487.531 381.646C488.195 379.629 488.723 377.699 489.109 375.912C489.495 374.117 489.63 372.492 489.522 371.077C489.407 369.595 488.973 368.389 488.201 367.387ZM487.233 375.505C486.868 377.211 486.36 379.073 485.71 381.044C485.067 383.007 484.362 384.835 483.631 386.48C482.941 388.031 482.155 389.351 481.309 390.407C480.551 391.362 479.738 392.039 478.831 392.479C478.025 392.872 477.071 392.953 475.906 392.75C474.152 392.438 473.225 391.477 472.893 389.615C472.5 387.415 473.103 383.874 474.667 379.1C475.297 377.178 475.994 375.363 476.732 373.718C477.429 372.161 478.201 370.827 479.034 369.764C479.772 368.823 480.598 368.112 481.492 367.658C482.27 367.266 483.171 367.164 484.247 367.354C485.419 367.557 486.211 367.956 486.685 368.572C487.22 369.27 487.524 370.143 487.606 371.24C487.7 372.465 487.578 373.901 487.233 375.519V375.505Z" fill="url(#paint23_linear_3635_31422)"/>
<path d="M247.89 243L285.169 314.721L218.492 285.228L247.89 243Z" fill="url(#paint24_linear_3635_31422)"/>
<path d="M221.395 284.414L247.651 246.695L280.942 310.752L221.395 284.414Z" fill="url(#paint25_linear_3635_31422)"/>
<path d="M285.171 314.723L278.969 318.291L212.293 288.805L218.495 285.23L285.171 314.723Z" fill="url(#paint26_linear_3635_31422)"/>
<path d="M218.495 285.228L212.293 288.803L241.698 246.568L247.893 243L218.495 285.228Z" fill="url(#paint27_linear_3635_31422)"/>
<path d="M460.887 265.822L429.336 288.179L436.086 252.789L460.887 265.822Z" fill="url(#paint28_linear_3635_31422)"/>
<path d="M437.486 255.691L457.222 266.064L432.117 283.857L437.486 255.691Z" fill="url(#paint29_linear_3635_31422)"/>
<path d="M460.89 265.824L459.617 268.174L428.066 290.53L429.339 288.181L460.89 265.824Z" fill="url(#paint30_linear_3635_31422)"/>
<path d="M429.339 288.179L428.066 290.528L434.817 255.145L436.09 252.789L429.339 288.179Z" fill="url(#paint31_linear_3635_31422)"/>
<path d="M213.141 307.117L261.293 333.482L220.629 336.339L213.141 307.117Z" fill="url(#paint32_linear_3635_31422)"/>
<path d="M216.102 310.922L254.64 332.026L222.094 334.314L216.102 310.922Z" fill="url(#paint33_linear_3635_31422)"/>
<path d="M261.295 333.488L254.43 339.155L213.766 342.012L220.631 336.345L261.295 333.488Z" fill="url(#paint34_linear_3635_31422)"/>
<path d="M220.631 336.339L213.766 342.006L206.277 312.784L213.143 307.117L220.631 336.339Z" fill="url(#paint35_linear_3635_31422)"/>
<path d="M214.039 444.859L298.671 450.784L261.379 497.812L214.039 444.859Z" fill="url(#paint36_linear_3635_31422)"/>
<path d="M218.617 447.098L294.908 452.446L261.292 494.83L218.617 447.098Z" fill="url(#paint37_linear_3635_31422)"/>
<path d="M261.379 497.812L252.909 506.708L205.562 453.749L214.039 444.859L261.379 497.812Z" fill="url(#paint38_linear_3635_31422)"/>
<path d="M310.027 500.274L319.411 469.562L337.198 506.862L310.027 500.274Z" fill="url(#paint39_linear_3635_31422)"/>
<path d="M312.457 498.886L319.803 474.844L333.723 504.045L312.457 498.886Z" fill="url(#paint40_linear_3635_31422)"/>
<path d="M310.031 500.274L305.812 505.947L315.196 475.236L319.415 469.562L310.031 500.274Z" fill="url(#paint41_linear_3635_31422)"/>
<path d="M337.201 506.861L332.983 512.535L305.812 505.947L310.031 500.273L337.201 506.861Z" fill="url(#paint42_linear_3635_31422)"/>
<path d="M299.976 280.439C299.976 282.958 297.939 284.996 295.42 284.996C292.901 284.996 290.863 282.958 290.863 280.439C290.863 277.921 292.901 275.883 295.42 275.883C297.939 275.883 299.976 277.921 299.976 280.439Z" stroke="url(#paint43_linear_3635_31422)" stroke-width="2.03117" stroke-miterlimit="10"/>
<path d="M455.959 466.117C458.475 466.117 460.516 464.077 460.516 461.56C460.516 459.044 458.475 457.004 455.959 457.004C453.442 457.004 451.402 459.044 451.402 461.56C451.402 464.077 453.442 466.117 455.959 466.117Z" stroke="url(#paint44_linear_3635_31422)" stroke-width="2.03117" stroke-miterlimit="10"/>
<path d="M282.008 521.361C282.008 523.88 279.97 525.918 277.451 525.918C274.932 525.918 272.895 523.88 272.895 521.361C272.895 518.843 274.932 516.805 277.451 516.805C279.97 516.805 282.008 518.843 282.008 521.361Z" stroke="url(#paint45_linear_3635_31422)" stroke-width="2.03117" stroke-miterlimit="10"/>
</g>
<defs>
<linearGradient id="paint0_linear_3635_31422" x1="-501" y1="-422" x2="695.774" y2="268.136" gradientUnits="userSpaceOnUse">
<stop offset="1" stop-color="#03599C"/>
</linearGradient>
<linearGradient id="paint1_linear_3635_31422" x1="125.839" y1="32.0104" x2="30.2216" y2="873.75" gradientUnits="userSpaceOnUse">
<stop stop-color="white" stop-opacity="0.1"/>
<stop offset="0.932292" stop-color="white" stop-opacity="0"/>
</linearGradient>
<radialGradient id="paint2_radial_3635_31422" cx="0" cy="0" r="1" gradientUnits="userSpaceOnUse" gradientTransform="translate(351.888 491.345) scale(192.494 11.8823)">
<stop stop-color="#366374"/>
<stop offset="0.08" stop-color="#3D7184"/>
<stop offset="0.16" stop-color="#447D91"/>
<stop offset="0.25" stop-color="#4A8699" stop-opacity="0.87"/>
<stop offset="0.5" stop-color="#5E9FB1" stop-opacity="0.5"/>
<stop offset="0.72" stop-color="#6CB1C3" stop-opacity="0.23"/>
<stop offset="0.89" stop-color="#74BCCE" stop-opacity="0.06"/>
<stop offset="1" stop-color="#78C1D2" stop-opacity="0"/>
</radialGradient>
<radialGradient id="paint3_radial_3635_31422" cx="0" cy="0" r="1" gradientUnits="userSpaceOnUse" gradientTransform="translate(250.44 520.583) scale(51.6567 5.94834)">
<stop stop-color="#366374"/>
<stop offset="0.08" stop-color="#3D7184"/>
<stop offset="0.16" stop-color="#447D91"/>
<stop offset="0.25" stop-color="#4A8699" stop-opacity="0.87"/>
<stop offset="0.5" stop-color="#5E9FB1" stop-opacity="0.5"/>
<stop offset="0.72" stop-color="#6CB1C3" stop-opacity="0.23"/>
<stop offset="0.89" stop-color="#74BCCE" stop-opacity="0.06"/>
<stop offset="1" stop-color="#78C1D2" stop-opacity="0"/>
</radialGradient>
<radialGradient id="paint4_radial_3635_31422" cx="0" cy="0" r="1" gradientUnits="userSpaceOnUse" gradientTransform="translate(333.375 533.163) scale(51.6567 5.94834)">
<stop stop-color="#366374"/>
<stop offset="0.08" stop-color="#3D7184"/>
<stop offset="0.16" stop-color="#447D91"/>
<stop offset="0.25" stop-color="#4A8699" stop-opacity="0.87"/>
<stop offset="0.5" stop-color="#5E9FB1" stop-opacity="0.5"/>
<stop offset="0.72" stop-color="#6CB1C3" stop-opacity="0.23"/>
<stop offset="0.89" stop-color="#74BCCE" stop-opacity="0.06"/>
<stop offset="1" stop-color="#78C1D2" stop-opacity="0"/>
</radialGradient>
<linearGradient id="paint5_linear_3635_31422" x1="330.02" y1="333.403" x2="409.587" y2="400.168" gradientUnits="userSpaceOnUse">
<stop stop-color="#9EABB1"/>
<stop offset="0.11" stop-color="#ACB9BF"/>
<stop offset="0.27" stop-color="#BCC9CF"/>
<stop offset="0.44" stop-color="#CAD4D9"/>
<stop offset="0.66" stop-color="#DAE1E5"/>
<stop offset="0.94" stop-color="#BCC9CF"/>
</linearGradient>
<linearGradient id="paint6_linear_3635_31422" x1="280.48" y1="336.411" x2="414.463" y2="448.83" gradientUnits="userSpaceOnUse">
<stop stop-color="#BECBD1"/>
<stop offset="0.06" stop-color="#D3DCE1"/>
<stop offset="0.12" stop-color="#DFE7EB"/>
<stop offset="0.17" stop-color="#E4EBEF"/>
<stop offset="0.44" stop-color="#BCC9CF"/>
<stop offset="0.53" stop-color="#CAD4D9"/>
<stop offset="0.66" stop-color="#DAE1E5"/>
<stop offset="0.73" stop-color="#C8D1D5"/>
<stop offset="0.94" stop-color="#9EABB1"/>
</linearGradient>
<linearGradient id="paint7_linear_3635_31422" x1="335.055" y1="284.778" x2="410.066" y2="445.633" gradientUnits="userSpaceOnUse">
<stop stop-color="white"/>
<stop offset="0.37" stop-color="#E6EBEE"/>
<stop offset="0.73" stop-color="#D5DDE3"/>
<stop offset="1" stop-color="#CFD9DF"/>
</linearGradient>
<linearGradient id="paint8_linear_3635_31422" x1="345.852" y1="308.061" x2="399.326" y2="422.741" gradientUnits="userSpaceOnUse">
<stop stop-color="#CDD7DD"/>
<stop offset="0.28" stop-color="#D1DADF"/>
<stop offset="0.57" stop-color="#DDE4E8"/>
<stop offset="0.86" stop-color="#F2F4F6"/>
<stop offset="1" stop-color="white"/>
</linearGradient>
<linearGradient id="paint9_linear_3635_31422" x1="335.104" y1="284.784" x2="410.115" y2="445.639" gradientUnits="userSpaceOnUse">
<stop offset="0.18" stop-color="white"/>
<stop offset="0.7" stop-color="#D7DFE2"/>
<stop offset="1" stop-color="#C6D1D6"/>
</linearGradient>
<radialGradient id="paint10_radial_3635_31422" cx="0" cy="0" r="1" gradientUnits="userSpaceOnUse" gradientTransform="translate(438.308 401.422) rotate(-45) scale(32.9152 22.4757)">
<stop stop-color="#CFD9DF"/>
<stop offset="0.06" stop-color="#CFD9DF" stop-opacity="0.88"/>
<stop offset="0.19" stop-color="#CFD9DF" stop-opacity="0.65"/>
<stop offset="0.33" stop-color="#CFD9DF" stop-opacity="0.45"/>
<stop offset="0.46" stop-color="#CFD9DF" stop-opacity="0.29"/>
<stop offset="0.6" stop-color="#CFD9DF" stop-opacity="0.16"/>
<stop offset="0.73" stop-color="#CFD9DF" stop-opacity="0.07"/>
<stop offset="0.87" stop-color="#CFD9DF" stop-opacity="0.02"/>
<stop offset="1" stop-color="#CFD9DF" stop-opacity="0"/>
</radialGradient>
<linearGradient id="paint11_linear_3635_31422" x1="425.53" y1="349.93" x2="441.434" y2="322.387" gradientUnits="userSpaceOnUse">
<stop offset="0.04" stop-color="#DDB736"/>
<stop offset="0.2" stop-color="#E5BF3B"/>
<stop offset="0.38" stop-color="#F5D146"/>
<stop offset="0.66" stop-color="#DDB736"/>
<stop offset="0.96" stop-color="#CC992F"/>
</linearGradient>
<linearGradient id="paint12_linear_3635_31422" x1="419.847" y1="359.246" x2="461.209" y2="330.282" gradientUnits="userSpaceOnUse">
<stop stop-color="#FFDF3E"/>
<stop offset="0.04" stop-color="#F9D83C"/>
<stop offset="0.21" stop-color="#E4BF37"/>
<stop offset="0.32" stop-color="#DDB736"/>
<stop offset="0.45" stop-color="#EBC839"/>
<stop offset="0.59" stop-color="#FFDF3E"/>
<stop offset="0.8" stop-color="#F5D146"/>
<stop offset="1" stop-color="#FFE84F"/>
</linearGradient>
<linearGradient id="paint13_linear_3635_31422" x1="425.924" y1="403.483" x2="502.275" y2="327.125" gradientUnits="userSpaceOnUse">
<stop stop-color="#FFDF3E"/>
<stop offset="0.2" stop-color="#F5D146"/>
<stop offset="0.44" stop-color="#DDB736"/>
<stop offset="0.68" stop-color="#F5D146"/>
<stop offset="1" stop-color="#FFE84F"/>
</linearGradient>
<linearGradient id="paint14_linear_3635_31422" x1="472.927" y1="396.798" x2="488.682" y2="369.513" gradientUnits="userSpaceOnUse">
<stop offset="0.04" stop-color="#DDB736"/>
<stop offset="0.2" stop-color="#E5BF3B"/>
<stop offset="0.38" stop-color="#F5D146"/>
<stop offset="0.66" stop-color="#DDB736"/>
<stop offset="0.96" stop-color="#CC992F"/>
</linearGradient>
<linearGradient id="paint15_linear_3635_31422" x1="422.476" y1="312.15" x2="441.142" y2="352.184" gradientUnits="userSpaceOnUse">
<stop stop-color="#FFDF3E"/>
<stop offset="0.71" stop-color="#F5D146"/>
</linearGradient>
<linearGradient id="paint16_linear_3635_31422" x1="446.439" y1="335.77" x2="465.45" y2="376.535" gradientUnits="userSpaceOnUse">
<stop stop-color="#FFDF3E"/>
<stop offset="0.71" stop-color="#F5D146"/>
</linearGradient>
<linearGradient id="paint17_linear_3635_31422" x1="470.768" y1="360.16" x2="489.435" y2="400.194" gradientUnits="userSpaceOnUse">
<stop stop-color="#FFDF3E"/>
<stop offset="0.71" stop-color="#F5D146"/>
</linearGradient>
<linearGradient id="paint18_linear_3635_31422" x1="468.138" y1="407.217" x2="509.506" y2="378.253" gradientUnits="userSpaceOnUse">
<stop stop-color="#FFDF3E"/>
<stop offset="0.32" stop-color="#DDB736"/>
<stop offset="0.56" stop-color="#FFDF3E"/>
<stop offset="0.76" stop-color="#F5D146"/>
<stop offset="1" stop-color="#FFE84F"/>
</linearGradient>
<linearGradient id="paint19_linear_3635_31422" x1="426.4" y1="320.856" x2="437.057" y2="343.713" gradientUnits="userSpaceOnUse">
<stop stop-color="#E9C246"/>
<stop offset="1" stop-color="#FBE740"/>
</linearGradient>
<linearGradient id="paint20_linear_3635_31422" x1="422.476" y1="312.15" x2="441.142" y2="352.184" gradientUnits="userSpaceOnUse">
<stop stop-color="#FFF03E"/>
<stop offset="0.71" stop-color="#EFC946"/>
</linearGradient>
<linearGradient id="paint21_linear_3635_31422" x1="446.439" y1="335.77" x2="465.45" y2="376.535" gradientUnits="userSpaceOnUse">
<stop stop-color="#FFF03E"/>
<stop offset="0.71" stop-color="#EFC946"/>
</linearGradient>
<linearGradient id="paint22_linear_3635_31422" x1="470.768" y1="360.16" x2="489.435" y2="400.194" gradientUnits="userSpaceOnUse">
<stop stop-color="#FFF03E"/>
<stop offset="0.71" stop-color="#EFC946"/>
</linearGradient>
<linearGradient id="paint23_linear_3635_31422" x1="474.857" y1="368.626" x2="485.513" y2="391.484" gradientUnits="userSpaceOnUse">
<stop stop-color="#E9C246"/>
<stop offset="1" stop-color="#FBE740"/>
</linearGradient>
<linearGradient id="paint24_linear_3635_31422" x1="229.305" y1="251.666" x2="263.428" y2="324.856" gradientUnits="userSpaceOnUse">
<stop offset="0.03" stop-color="#FFF555"/>
<stop offset="0.3" stop-color="#F9E750"/>
<stop offset="0.72" stop-color="#EFC946"/>
</linearGradient>
<linearGradient id="paint25_linear_3635_31422" x1="231.049" y1="254.441" x2="261.53" y2="319.804" gradientUnits="userSpaceOnUse">
<stop stop-color="#FFDF3E"/>
<stop offset="0.71" stop-color="#F5D146"/>
</linearGradient>
<linearGradient id="paint26_linear_3635_31422" x1="236.999" y1="276.605" x2="260.466" y2="326.924" gradientUnits="userSpaceOnUse">
<stop stop-color="#EFC946"/>
<stop offset="0.46" stop-color="#D8AF34"/>
<stop offset="0.96" stop-color="#CC992F"/>
</linearGradient>
<linearGradient id="paint27_linear_3635_31422" x1="212.293" y1="265.898" x2="247.893" y2="265.898" gradientUnits="userSpaceOnUse">
<stop stop-color="#F5D146"/>
<stop offset="1" stop-color="#FFF03E"/>
</linearGradient>
<linearGradient id="paint28_linear_3635_31422" x1="429.336" y1="268.293" x2="453.39" y2="268.809" gradientUnits="userSpaceOnUse">
<stop stop-color="#1476C1"/>
<stop offset="1" stop-color="#03599C"/>
</linearGradient>
<linearGradient id="paint29_linear_3635_31422" x1="432.117" y1="268.031" x2="451.257" y2="268.441" gradientUnits="userSpaceOnUse">
<stop stop-color="#1476C1"/>
<stop offset="1" stop-color="#03599C"/>
</linearGradient>
<linearGradient id="paint30_linear_3635_31422" x1="428.066" y1="276.648" x2="453.077" y2="277.447" gradientUnits="userSpaceOnUse">
<stop stop-color="#1476C1"/>
<stop offset="1" stop-color="#03599C"/>
</linearGradient>
<linearGradient id="paint31_linear_3635_31422" x1="428.066" y1="269.322" x2="434.186" y2="269.354" gradientUnits="userSpaceOnUse">
<stop stop-color="#1476C1"/>
<stop offset="1" stop-color="#03599C"/>
</linearGradient>
<linearGradient id="paint32_linear_3635_31422" x1="213.141" y1="319.919" x2="249.81" y2="321.372" gradientUnits="userSpaceOnUse">
<stop stop-color="#1476C1"/>
<stop offset="1" stop-color="#03599C"/>
</linearGradient>
<linearGradient id="paint33_linear_3635_31422" x1="216.102" y1="321.17" x2="245.45" y2="322.332" gradientUnits="userSpaceOnUse">
<stop stop-color="#1476C1"/>
<stop offset="1" stop-color="#03599C"/>
</linearGradient>
<linearGradient id="paint34_linear_3635_31422" x1="213.766" y1="337.223" x2="249.378" y2="341.997" gradientUnits="userSpaceOnUse">
<stop stop-color="#1476C1"/>
<stop offset="1" stop-color="#03599C"/>
</linearGradient>
<linearGradient id="paint35_linear_3635_31422" x1="206.277" y1="322.402" x2="217.224" y2="322.51" gradientUnits="userSpaceOnUse">
<stop stop-color="#1476C1"/>
<stop offset="1" stop-color="#03599C"/>
</linearGradient>
<linearGradient id="paint36_linear_3635_31422" x1="214.039" y1="468.058" x2="278.496" y2="470.534" gradientUnits="userSpaceOnUse">
<stop stop-color="#1476C1"/>
<stop offset="1" stop-color="#03599C"/>
</linearGradient>
<linearGradient id="paint37_linear_3635_31422" x1="218.617" y1="468.009" x2="276.721" y2="470.242" gradientUnits="userSpaceOnUse">
<stop stop-color="#1476C1"/>
<stop offset="1" stop-color="#03599C"/>
</linearGradient>
<linearGradient id="paint38_linear_3635_31422" x1="205.563" y1="471.955" x2="248.116" y2="472.878" gradientUnits="userSpaceOnUse">
<stop stop-color="#1476C1"/>
<stop offset="1" stop-color="#03599C"/>
</linearGradient>
<linearGradient id="paint39_linear_3635_31422" x1="309.831" y1="474.024" x2="327.299" y2="511.479" gradientUnits="userSpaceOnUse">
<stop offset="0.03" stop-color="#FFF555"/>
<stop offset="0.3" stop-color="#F9E750"/>
<stop offset="0.72" stop-color="#EFC946"/>
</linearGradient>
<linearGradient id="paint40_linear_3635_31422" x1="312.301" y1="478.337" x2="325.978" y2="507.661" gradientUnits="userSpaceOnUse">
<stop stop-color="#FFDF3E"/>
<stop offset="0.71" stop-color="#F5D146"/>
</linearGradient>
<linearGradient id="paint41_linear_3635_31422" x1="312.61" y1="505.947" x2="312.61" y2="469.562" gradientUnits="userSpaceOnUse">
<stop stop-color="#DDB736"/>
<stop offset="0.54" stop-color="#F5D146"/>
<stop offset="1" stop-color="#FFF03E"/>
</linearGradient>
<linearGradient id="paint42_linear_3635_31422" x1="305.812" y1="506.408" x2="337.201" y2="506.408" gradientUnits="userSpaceOnUse">
<stop stop-color="#D8AF34"/>
<stop offset="0.96" stop-color="#CC992F"/>
</linearGradient>
<linearGradient id="paint43_linear_3635_31422" x1="293.057" y1="275.389" x2="297.769" y2="285.497" gradientUnits="userSpaceOnUse">
<stop stop-color="#FFDF3E"/>
<stop offset="0.71" stop-color="#F5D146"/>
</linearGradient>
<linearGradient id="paint44_linear_3635_31422" x1="453.603" y1="456.51" x2="458.315" y2="466.611" gradientUnits="userSpaceOnUse">
<stop stop-color="#FFDF3E"/>
<stop offset="0.71" stop-color="#F5D146"/>
</linearGradient>
<linearGradient id="paint45_linear_3635_31422" x1="275.088" y1="516.304" x2="279.807" y2="526.412" gradientUnits="userSpaceOnUse">
<stop stop-color="#FFDF3E"/>
<stop offset="0.71" stop-color="#F5D146"/>
</linearGradient>
<clipPath id="clip0_3635_31422">
<rect width="574" height="540" fill="white"/>
</clipPath>
<clipPath id="clip1_3635_31422">
<rect width="574" height="540" fill="white"/>
</clipPath>
</defs>
</svg>
